%TF.GenerationSoftware,KiCad,Pcbnew,(5.1.9)-1*%
%TF.CreationDate,2021-05-05T16:33:14+08:00*%
%TF.ProjectId,Tandy1000Essentials,54616e64-7931-4303-9030-457373656e74,rev?*%
%TF.SameCoordinates,Original*%
%TF.FileFunction,Copper,L1,Top*%
%TF.FilePolarity,Positive*%
%FSLAX46Y46*%
G04 Gerber Fmt 4.6, Leading zero omitted, Abs format (unit mm)*
G04 Created by KiCad (PCBNEW (5.1.9)-1) date 2021-05-05 16:33:14*
%MOMM*%
%LPD*%
G01*
G04 APERTURE LIST*
%TA.AperFunction,ComponentPad*%
%ADD10R,1.700000X1.700000*%
%TD*%
%TA.AperFunction,ComponentPad*%
%ADD11O,1.600000X1.600000*%
%TD*%
%TA.AperFunction,ComponentPad*%
%ADD12R,1.600000X1.600000*%
%TD*%
%TA.AperFunction,ComponentPad*%
%ADD13C,3.000000*%
%TD*%
%TA.AperFunction,ComponentPad*%
%ADD14R,3.000000X3.000000*%
%TD*%
%TA.AperFunction,ComponentPad*%
%ADD15C,1.600000*%
%TD*%
%TA.AperFunction,ComponentPad*%
%ADD16O,1.700000X1.700000*%
%TD*%
%TA.AperFunction,ComponentPad*%
%ADD17C,1.000000*%
%TD*%
%TA.AperFunction,ComponentPad*%
%ADD18C,6.500000*%
%TD*%
%TA.AperFunction,ConnectorPad*%
%ADD19R,1.780000X7.620000*%
%TD*%
%TA.AperFunction,ViaPad*%
%ADD20C,0.800000*%
%TD*%
%TA.AperFunction,ViaPad*%
%ADD21C,1.000000*%
%TD*%
%TA.AperFunction,Conductor*%
%ADD22C,0.300000*%
%TD*%
%TA.AperFunction,Conductor*%
%ADD23C,0.500000*%
%TD*%
%TA.AperFunction,Conductor*%
%ADD24C,2.000000*%
%TD*%
%TA.AperFunction,Conductor*%
%ADD25C,1.000000*%
%TD*%
%TA.AperFunction,Conductor*%
%ADD26C,1.750000*%
%TD*%
%TA.AperFunction,Conductor*%
%ADD27C,0.250000*%
%TD*%
%TA.AperFunction,Conductor*%
%ADD28C,0.254000*%
%TD*%
%TA.AperFunction,Conductor*%
%ADD29C,0.100000*%
%TD*%
G04 APERTURE END LIST*
D10*
%TO.P,J2,1*%
%TO.N,VCC*%
X181951000Y-59817000D03*
%TD*%
D11*
%TO.P,U1,32*%
%TO.N,VCC*%
X104140000Y-67310000D03*
%TO.P,U1,16*%
%TO.N,GND*%
X142240000Y-82550000D03*
%TO.P,U1,31*%
%TO.N,~MEMW*%
X106680000Y-67310000D03*
%TO.P,U1,15*%
%TO.N,D2_BUF*%
X139700000Y-82550000D03*
%TO.P,U1,30*%
%TO.N,GND*%
X109220000Y-67310000D03*
%TO.P,U1,14*%
%TO.N,D1_BUF*%
X137160000Y-82550000D03*
%TO.P,U1,29*%
%TO.N,ATA_ADDR_JUMPER*%
X111760000Y-67310000D03*
%TO.P,U1,13*%
%TO.N,D0_BUF*%
X134620000Y-82550000D03*
%TO.P,U1,28*%
%TO.N,A13*%
X114300000Y-67310000D03*
%TO.P,U1,12*%
%TO.N,A00*%
X132080000Y-82550000D03*
%TO.P,U1,27*%
%TO.N,A08*%
X116840000Y-67310000D03*
%TO.P,U1,11*%
%TO.N,A01*%
X129540000Y-82550000D03*
%TO.P,U1,26*%
%TO.N,A09*%
X119380000Y-67310000D03*
%TO.P,U1,10*%
%TO.N,A02*%
X127000000Y-82550000D03*
%TO.P,U1,25*%
%TO.N,A11*%
X121920000Y-67310000D03*
%TO.P,U1,9*%
%TO.N,A03*%
X124460000Y-82550000D03*
%TO.P,U1,24*%
%TO.N,~MEMR*%
X124460000Y-67310000D03*
%TO.P,U1,8*%
%TO.N,A04*%
X121920000Y-82550000D03*
%TO.P,U1,23*%
%TO.N,A10*%
X127000000Y-67310000D03*
%TO.P,U1,7*%
%TO.N,A05*%
X119380000Y-82550000D03*
%TO.P,U1,22*%
%TO.N,~CE~_BIOS*%
X129540000Y-67310000D03*
%TO.P,U1,6*%
%TO.N,A06*%
X116840000Y-82550000D03*
%TO.P,U1,21*%
%TO.N,D7_BUF*%
X132080000Y-67310000D03*
%TO.P,U1,5*%
%TO.N,A07*%
X114300000Y-82550000D03*
%TO.P,U1,20*%
%TO.N,D6_BUF*%
X134620000Y-67310000D03*
%TO.P,U1,4*%
%TO.N,A12*%
X111760000Y-82550000D03*
%TO.P,U1,19*%
%TO.N,D5_BUF*%
X137160000Y-67310000D03*
%TO.P,U1,3*%
%TO.N,V20_JUMPER*%
X109220000Y-82550000D03*
%TO.P,U1,18*%
%TO.N,D4_BUF*%
X139700000Y-67310000D03*
%TO.P,U1,2*%
%TO.N,GND*%
X106680000Y-82550000D03*
%TO.P,U1,17*%
%TO.N,D3_BUF*%
X142240000Y-67310000D03*
D12*
%TO.P,U1,1*%
%TO.N,GND*%
X104140000Y-82550000D03*
%TD*%
D11*
%TO.P,U4,16*%
%TO.N,VCC*%
X116840000Y-55880000D03*
%TO.P,U4,8*%
%TO.N,GND*%
X134620000Y-63500000D03*
%TO.P,U4,15*%
%TO.N,Net-(U4-Pad15)*%
X119380000Y-55880000D03*
%TO.P,U4,7*%
%TO.N,D0_BUF*%
X132080000Y-63500000D03*
%TO.P,U4,14*%
%TO.N,GND*%
X121920000Y-55880000D03*
%TO.P,U4,6*%
%TO.N,A00*%
X129540000Y-63500000D03*
%TO.P,U4,13*%
%TO.N,VCC*%
X124460000Y-55880000D03*
%TO.P,U4,5*%
%TO.N,GND*%
X127000000Y-63500000D03*
%TO.P,U4,12*%
%TO.N,~MEMR*%
X127000000Y-55880000D03*
%TO.P,U4,4*%
%TO.N,Net-(BAT1-Pad1)*%
X124460000Y-63500000D03*
%TO.P,U4,11*%
%TO.N,~CE~_BIOS_DECODE*%
X129540000Y-55880000D03*
%TO.P,U4,3*%
%TO.N,A02*%
X121920000Y-63500000D03*
%TO.P,U4,10*%
%TO.N,~CE~_BIOS_THRU*%
X132080000Y-55880000D03*
%TO.P,U4,2*%
%TO.N,/XTAL2*%
X119380000Y-63500000D03*
%TO.P,U4,9*%
%TO.N,Net-(U4-Pad15)*%
X134620000Y-55880000D03*
D12*
%TO.P,U4,1*%
%TO.N,/XTAL1*%
X116840000Y-63500000D03*
%TD*%
D11*
%TO.P,U5,32*%
%TO.N,VCC*%
X104140000Y-86360000D03*
%TO.P,U5,16*%
%TO.N,GND*%
X142240000Y-101600000D03*
%TO.P,U5,31*%
%TO.N,A15*%
X106680000Y-86360000D03*
%TO.P,U5,15*%
%TO.N,D2_BUF*%
X139700000Y-101600000D03*
%TO.P,U5,30*%
%TO.N,A17*%
X109220000Y-86360000D03*
%TO.P,U5,14*%
%TO.N,D1_BUF*%
X137160000Y-101600000D03*
%TO.P,U5,29*%
%TO.N,~MEMW*%
X111760000Y-86360000D03*
%TO.P,U5,13*%
%TO.N,D0_BUF*%
X134620000Y-101600000D03*
%TO.P,U5,28*%
%TO.N,A13*%
X114300000Y-86360000D03*
%TO.P,U5,12*%
%TO.N,A00*%
X132080000Y-101600000D03*
%TO.P,U5,27*%
%TO.N,A08*%
X116840000Y-86360000D03*
%TO.P,U5,11*%
%TO.N,A01*%
X129540000Y-101600000D03*
%TO.P,U5,26*%
%TO.N,A09*%
X119380000Y-86360000D03*
%TO.P,U5,10*%
%TO.N,A02*%
X127000000Y-101600000D03*
%TO.P,U5,25*%
%TO.N,A11*%
X121920000Y-86360000D03*
%TO.P,U5,9*%
%TO.N,A03*%
X124460000Y-101600000D03*
%TO.P,U5,24*%
%TO.N,~MEMR*%
X124460000Y-86360000D03*
%TO.P,U5,8*%
%TO.N,A04*%
X121920000Y-101600000D03*
%TO.P,U5,23*%
%TO.N,A10*%
X127000000Y-86360000D03*
%TO.P,U5,7*%
%TO.N,A05*%
X119380000Y-101600000D03*
%TO.P,U5,22*%
%TO.N,A19*%
X129540000Y-86360000D03*
%TO.P,U5,6*%
%TO.N,A06*%
X116840000Y-101600000D03*
%TO.P,U5,21*%
%TO.N,D7_BUF*%
X132080000Y-86360000D03*
%TO.P,U5,5*%
%TO.N,A07*%
X114300000Y-101600000D03*
%TO.P,U5,20*%
%TO.N,D6_BUF*%
X134620000Y-86360000D03*
%TO.P,U5,4*%
%TO.N,A12*%
X111760000Y-101600000D03*
%TO.P,U5,19*%
%TO.N,D5_BUF*%
X137160000Y-86360000D03*
%TO.P,U5,3*%
%TO.N,A14*%
X109220000Y-101600000D03*
%TO.P,U5,18*%
%TO.N,D4_BUF*%
X139700000Y-86360000D03*
%TO.P,U5,2*%
%TO.N,A16*%
X106680000Y-101600000D03*
%TO.P,U5,17*%
%TO.N,D3_BUF*%
X142240000Y-86360000D03*
D12*
%TO.P,U5,1*%
%TO.N,A18*%
X104140000Y-101600000D03*
%TD*%
D13*
%TO.P,BAT1,2*%
%TO.N,GND*%
X149225000Y-49360000D03*
D14*
%TO.P,BAT1,1*%
%TO.N,Net-(BAT1-Pad1)*%
X149225000Y-69850000D03*
%TD*%
D15*
%TO.P,C5,2*%
%TO.N,GND*%
X100965000Y-91360000D03*
%TO.P,C5,1*%
%TO.N,VCC*%
X100965000Y-86360000D03*
%TD*%
D16*
%TO.P,J3,11*%
%TO.N,~CE~_BIOS*%
X109220000Y-58420000D03*
%TO.P,J3,12*%
%TO.N,~CE~_BIOS_DECODE*%
X109220000Y-55880000D03*
%TO.P,J3,10*%
%TO.N,~CE~_BIOS_THRU*%
X109220000Y-60960000D03*
%TO.P,J3,9*%
%TO.N,VCC*%
X106680000Y-55880000D03*
%TO.P,J3,6*%
X104140000Y-55880000D03*
%TO.P,J3,3*%
X101600000Y-55880000D03*
%TO.P,J3,8*%
%TO.N,ROM_ADDR_JUMPER*%
X106680000Y-58420000D03*
%TO.P,J3,7*%
%TO.N,GND*%
X106680000Y-60960000D03*
%TO.P,J3,5*%
%TO.N,ATA_ADDR_JUMPER*%
X104140000Y-58420000D03*
%TO.P,J3,4*%
%TO.N,GND*%
X104140000Y-60960000D03*
%TO.P,J3,2*%
%TO.N,V20_JUMPER*%
X101600000Y-58420000D03*
D10*
%TO.P,J3,1*%
%TO.N,GND*%
X101600000Y-60960000D03*
%TD*%
D15*
%TO.P,C4,2*%
%TO.N,GND*%
X113665000Y-60880000D03*
%TO.P,C4,1*%
%TO.N,VCC*%
X113665000Y-55880000D03*
%TD*%
D17*
%TO.P,Y1,2*%
%TO.N,/XTAL2*%
X119380000Y-50805000D03*
%TO.P,Y1,1*%
%TO.N,/XTAL1*%
X119380000Y-52705000D03*
%TD*%
D11*
%TO.P,U3,24*%
%TO.N,VCC*%
X101600000Y-112395000D03*
%TO.P,U3,12*%
%TO.N,A19*%
X129540000Y-120015000D03*
%TO.P,U3,23*%
%TO.N,ATA_ADDR_JUMPER*%
X104140000Y-112395000D03*
%TO.P,U3,11*%
%TO.N,A18*%
X127000000Y-120015000D03*
%TO.P,U3,22*%
%TO.N,ROM_ADDR_JUMPER*%
X106680000Y-112395000D03*
%TO.P,U3,10*%
%TO.N,A17*%
X124460000Y-120015000D03*
%TO.P,U3,21*%
%TO.N,~IOR*%
X109220000Y-112395000D03*
%TO.P,U3,9*%
%TO.N,A16*%
X121920000Y-120015000D03*
%TO.P,U3,20*%
%TO.N,~RESET*%
X111760000Y-112395000D03*
%TO.P,U3,8*%
%TO.N,A15*%
X119380000Y-120015000D03*
%TO.P,U3,19*%
%TO.N,~CS1~_ATA*%
X114300000Y-112395000D03*
%TO.P,U3,7*%
%TO.N,A14*%
X116840000Y-120015000D03*
%TO.P,U3,18*%
%TO.N,~CE~_BIOS_DECODE*%
X116840000Y-112395000D03*
%TO.P,U3,6*%
%TO.N,A09*%
X114300000Y-120015000D03*
%TO.P,U3,17*%
%TO.N,RESET*%
X119380000Y-112395000D03*
%TO.P,U3,5*%
%TO.N,A08*%
X111760000Y-120015000D03*
%TO.P,U3,16*%
%TO.N,~MEMR*%
X121920000Y-112395000D03*
%TO.P,U3,4*%
%TO.N,A07*%
X109220000Y-120015000D03*
%TO.P,U3,15*%
%TO.N,~IOR_OR_MEMR*%
X124460000Y-112395000D03*
%TO.P,U3,3*%
%TO.N,A06*%
X106680000Y-120015000D03*
%TO.P,U3,14*%
%TO.N,~CE~_D_BUF*%
X127000000Y-112395000D03*
%TO.P,U3,2*%
%TO.N,A05*%
X104140000Y-120015000D03*
%TO.P,U3,13*%
%TO.N,GND*%
X129540000Y-112395000D03*
D12*
%TO.P,U3,1*%
%TO.N,A04*%
X101600000Y-120015000D03*
%TD*%
D16*
%TO.P,J1,40*%
%TO.N,GND*%
X165100000Y-108077000D03*
%TO.P,J1,39*%
%TO.N,Net-(J1-Pad39)*%
X167640000Y-108077000D03*
%TO.P,J1,38*%
%TO.N,VCC*%
X165100000Y-105537000D03*
%TO.P,J1,37*%
%TO.N,~CS1~_ATA*%
X167640000Y-105537000D03*
%TO.P,J1,36*%
%TO.N,A03*%
X165100000Y-102997000D03*
%TO.P,J1,35*%
%TO.N,A01*%
X167640000Y-102997000D03*
%TO.P,J1,34*%
%TO.N,Net-(J1-Pad34)*%
X165100000Y-100457000D03*
%TO.P,J1,33*%
%TO.N,A02*%
X167640000Y-100457000D03*
%TO.P,J1,32*%
%TO.N,Net-(J1-Pad32)*%
X165100000Y-97917000D03*
%TO.P,J1,31*%
%TO.N,Net-(J1-Pad31)*%
X167640000Y-97917000D03*
%TO.P,J1,30*%
%TO.N,GND*%
X165100000Y-95377000D03*
%TO.P,J1,29*%
%TO.N,VCC*%
X167640000Y-95377000D03*
%TO.P,J1,28*%
%TO.N,Net-(J1-Pad28)*%
X165100000Y-92837000D03*
%TO.P,J1,27*%
%TO.N,Net-(J1-Pad27)*%
X167640000Y-92837000D03*
%TO.P,J1,26*%
%TO.N,GND*%
X165100000Y-90297000D03*
%TO.P,J1,25*%
%TO.N,~IOR*%
X167640000Y-90297000D03*
%TO.P,J1,24*%
%TO.N,GND*%
X165100000Y-87757000D03*
%TO.P,J1,23*%
%TO.N,~IOW*%
X167640000Y-87757000D03*
%TO.P,J1,22*%
%TO.N,GND*%
X165100000Y-85217000D03*
%TO.P,J1,21*%
%TO.N,Net-(J1-Pad21)*%
X167640000Y-85217000D03*
%TO.P,J1,20*%
%TO.N,Net-(J1-Pad20)*%
X165100000Y-82677000D03*
%TO.P,J1,19*%
%TO.N,GND*%
X167640000Y-82677000D03*
%TO.P,J1,18*%
%TO.N,Net-(J1-Pad18)*%
X165100000Y-80137000D03*
%TO.P,J1,17*%
%TO.N,D0_BUF*%
X167640000Y-80137000D03*
%TO.P,J1,16*%
%TO.N,Net-(J1-Pad16)*%
X165100000Y-77597000D03*
%TO.P,J1,15*%
%TO.N,D1_BUF*%
X167640000Y-77597000D03*
%TO.P,J1,14*%
%TO.N,Net-(J1-Pad14)*%
X165100000Y-75057000D03*
%TO.P,J1,13*%
%TO.N,D2_BUF*%
X167640000Y-75057000D03*
%TO.P,J1,12*%
%TO.N,Net-(J1-Pad12)*%
X165100000Y-72517000D03*
%TO.P,J1,11*%
%TO.N,D3_BUF*%
X167640000Y-72517000D03*
%TO.P,J1,10*%
%TO.N,Net-(J1-Pad10)*%
X165100000Y-69977000D03*
%TO.P,J1,9*%
%TO.N,D4_BUF*%
X167640000Y-69977000D03*
%TO.P,J1,8*%
%TO.N,Net-(J1-Pad8)*%
X165100000Y-67437000D03*
%TO.P,J1,7*%
%TO.N,D5_BUF*%
X167640000Y-67437000D03*
%TO.P,J1,6*%
%TO.N,Net-(J1-Pad6)*%
X165100000Y-64897000D03*
%TO.P,J1,5*%
%TO.N,D6_BUF*%
X167640000Y-64897000D03*
%TO.P,J1,4*%
%TO.N,Net-(J1-Pad4)*%
X165100000Y-62357000D03*
%TO.P,J1,3*%
%TO.N,D7_BUF*%
X167640000Y-62357000D03*
%TO.P,J1,2*%
%TO.N,GND*%
X165100000Y-59817000D03*
D10*
%TO.P,J1,1*%
%TO.N,~RESET*%
X167640000Y-59817000D03*
%TD*%
D18*
%TO.P,H4,1*%
%TO.N,GND*%
X192913000Y-116713000D03*
%TD*%
D15*
%TO.P,C6,2*%
%TO.N,GND*%
X177125000Y-125095000D03*
D12*
%TO.P,C6,1*%
%TO.N,VCC*%
X174625000Y-125095000D03*
%TD*%
D15*
%TO.P,C3,2*%
%TO.N,GND*%
X133985000Y-117395000D03*
%TO.P,C3,1*%
%TO.N,VCC*%
X133985000Y-112395000D03*
%TD*%
%TO.P,C2,2*%
%TO.N,GND*%
X100965000Y-104220000D03*
%TO.P,C2,1*%
%TO.N,VCC*%
X100965000Y-109220000D03*
%TD*%
%TO.P,C1,2*%
%TO.N,GND*%
X100965000Y-72310000D03*
%TO.P,C1,1*%
%TO.N,VCC*%
X100965000Y-67310000D03*
%TD*%
D11*
%TO.P,U2,20*%
%TO.N,VCC*%
X137160000Y-112395000D03*
%TO.P,U2,10*%
%TO.N,GND*%
X160020000Y-120015000D03*
%TO.P,U2,19*%
%TO.N,~CE~_D_BUF*%
X139700000Y-112395000D03*
%TO.P,U2,9*%
%TO.N,D7*%
X157480000Y-120015000D03*
%TO.P,U2,18*%
%TO.N,D0_BUF*%
X142240000Y-112395000D03*
%TO.P,U2,8*%
%TO.N,D6*%
X154940000Y-120015000D03*
%TO.P,U2,17*%
%TO.N,D1_BUF*%
X144780000Y-112395000D03*
%TO.P,U2,7*%
%TO.N,D5*%
X152400000Y-120015000D03*
%TO.P,U2,16*%
%TO.N,D2_BUF*%
X147320000Y-112395000D03*
%TO.P,U2,6*%
%TO.N,D4*%
X149860000Y-120015000D03*
%TO.P,U2,15*%
%TO.N,D3_BUF*%
X149860000Y-112395000D03*
%TO.P,U2,5*%
%TO.N,D3*%
X147320000Y-120015000D03*
%TO.P,U2,14*%
%TO.N,D4_BUF*%
X152400000Y-112395000D03*
%TO.P,U2,4*%
%TO.N,D2*%
X144780000Y-120015000D03*
%TO.P,U2,13*%
%TO.N,D5_BUF*%
X154940000Y-112395000D03*
%TO.P,U2,3*%
%TO.N,D1*%
X142240000Y-120015000D03*
%TO.P,U2,12*%
%TO.N,D6_BUF*%
X157480000Y-112395000D03*
%TO.P,U2,2*%
%TO.N,D0*%
X139700000Y-120015000D03*
%TO.P,U2,11*%
%TO.N,D7_BUF*%
X160020000Y-112395000D03*
D12*
%TO.P,U2,1*%
%TO.N,~IOR_OR_MEMR*%
X137160000Y-120015000D03*
%TD*%
D18*
%TO.P,H3,1*%
%TO.N,GND*%
X166370000Y-116713000D03*
%TD*%
%TO.P,H1,1*%
%TO.N,GND*%
X166370000Y-51181000D03*
%TD*%
%TO.P,H2,1*%
%TO.N,GND*%
X192913000Y-51181000D03*
%TD*%
D19*
%TO.P,J4,62*%
%TO.N,A00*%
X99060000Y-138430000D03*
%TO.P,J4,61*%
%TO.N,A01*%
X101600000Y-138430000D03*
%TO.P,J4,60*%
%TO.N,A02*%
X104140000Y-138430000D03*
%TO.P,J4,59*%
%TO.N,A03*%
X106680000Y-138430000D03*
%TO.P,J4,58*%
%TO.N,A04*%
X109220000Y-138430000D03*
%TO.P,J4,57*%
%TO.N,A05*%
X111760000Y-138430000D03*
%TO.P,J4,56*%
%TO.N,A06*%
X114300000Y-138430000D03*
%TO.P,J4,55*%
%TO.N,A07*%
X116840000Y-138430000D03*
%TO.P,J4,54*%
%TO.N,A08*%
X119380000Y-138430000D03*
%TO.P,J4,53*%
%TO.N,A09*%
X121920000Y-138430000D03*
%TO.P,J4,52*%
%TO.N,A10*%
X124460000Y-138430000D03*
%TO.P,J4,51*%
%TO.N,A11*%
X127000000Y-138430000D03*
%TO.P,J4,50*%
%TO.N,A12*%
X129540000Y-138430000D03*
%TO.P,J4,49*%
%TO.N,A13*%
X132080000Y-138430000D03*
%TO.P,J4,48*%
%TO.N,A14*%
X134620000Y-138430000D03*
%TO.P,J4,47*%
%TO.N,A15*%
X137160000Y-138430000D03*
%TO.P,J4,46*%
%TO.N,A16*%
X139700000Y-138430000D03*
%TO.P,J4,45*%
%TO.N,A17*%
X142240000Y-138430000D03*
%TO.P,J4,44*%
%TO.N,A18*%
X144780000Y-138430000D03*
%TO.P,J4,43*%
%TO.N,A19*%
X147320000Y-138430000D03*
%TO.P,J4,42*%
%TO.N,Net-(J4-Pad42)*%
X149860000Y-138430000D03*
%TO.P,J4,41*%
%TO.N,Net-(J4-Pad41)*%
X152400000Y-138430000D03*
%TO.P,J4,40*%
%TO.N,D0*%
X154940000Y-138430000D03*
%TO.P,J4,39*%
%TO.N,D1*%
X157480000Y-138430000D03*
%TO.P,J4,38*%
%TO.N,D2*%
X160020000Y-138430000D03*
%TO.P,J4,37*%
%TO.N,D3*%
X162560000Y-138430000D03*
%TO.P,J4,36*%
%TO.N,D4*%
X165100000Y-138430000D03*
%TO.P,J4,35*%
%TO.N,D5*%
X167640000Y-138430000D03*
%TO.P,J4,34*%
%TO.N,D6*%
X170180000Y-138430000D03*
%TO.P,J4,33*%
%TO.N,D7*%
X172720000Y-138430000D03*
%TO.P,J4,32*%
%TO.N,Net-(J4-Pad32)*%
X175260000Y-138430000D03*
%TD*%
D20*
%TO.N,A00*%
X102870000Y-125730000D03*
X124460000Y-123190000D03*
%TO.N,A01*%
X101600000Y-125095000D03*
X123190000Y-121920006D03*
%TO.N,A02*%
X120650000Y-121920000D03*
X102870000Y-123190000D03*
%TO.N,A03*%
X101600000Y-121920000D03*
X118110000Y-121920000D03*
X124460000Y-90805000D03*
%TO.N,A04*%
X103124000Y-106680000D03*
%TO.N,A05*%
X104648000Y-104140000D03*
%TO.N,A06*%
X118364014Y-106679992D03*
X114046000Y-106426000D03*
%TO.N,A10*%
X148590000Y-121920000D03*
X128270012Y-123190000D03*
X146050000Y-90805000D03*
%TO.N,A11*%
X143510000Y-109220000D03*
X138430000Y-125095000D03*
X129540000Y-124460000D03*
X121793004Y-107568996D03*
%TO.N,A12*%
X114300000Y-129540000D03*
X129540000Y-130175000D03*
X111252000Y-114046000D03*
X110490000Y-105410000D03*
%TO.N,A13*%
X139700000Y-109400010D03*
X112522000Y-106172000D03*
%TO.N,A15*%
X137160000Y-132715000D03*
X123190000Y-131445000D03*
X120650000Y-114300000D03*
X106680000Y-107696000D03*
%TO.N,A16*%
X125095000Y-131445000D03*
X137795000Y-131445000D03*
X122555000Y-114935000D03*
X106680000Y-105918000D03*
%TO.N,A17*%
X135255000Y-125730000D03*
X125730000Y-114300000D03*
X110490000Y-106934002D03*
%TO.N,A18*%
X127000000Y-115570000D03*
X137160000Y-122380000D03*
%TO.N,A19*%
X129540000Y-89535000D03*
X133350000Y-90805000D03*
X139700000Y-121920000D03*
D21*
%TO.N,GND*%
X175260000Y-130810000D03*
X175260000Y-132715000D03*
X170815000Y-93345000D03*
X170815000Y-97155000D03*
X170815000Y-99060000D03*
X170815000Y-100965000D03*
X170815000Y-91440000D03*
X170815000Y-89535000D03*
X144780000Y-82550000D03*
X160655000Y-123190000D03*
X156845000Y-123190000D03*
X158750000Y-123190000D03*
X162560000Y-85089984D03*
X162560000Y-87630000D03*
X162568468Y-90813468D03*
X98425000Y-48895000D03*
X98425000Y-46990000D03*
X98425000Y-46990000D03*
X98425000Y-45085000D03*
X99695000Y-45085000D03*
X99695000Y-46990000D03*
X99695000Y-48895000D03*
X144780000Y-101600000D03*
X167005000Y-132080000D03*
X165735002Y-130810000D03*
X142240000Y-97790000D03*
X144780000Y-97790000D03*
X142240000Y-94615000D03*
X144780000Y-94615000D03*
X144780000Y-67945000D03*
X144780000Y-63500000D03*
X144780000Y-69850000D03*
X144780000Y-61595000D03*
X128651000Y-117475000D03*
X128651000Y-114935000D03*
X162560000Y-125095000D03*
X160655000Y-125095000D03*
X158750000Y-125095000D03*
%TO.N,VCC*%
X102235000Y-127635000D03*
X102235000Y-129540000D03*
D20*
X132080000Y-127635000D03*
X130810000Y-127635000D03*
D21*
X173990000Y-120015000D03*
X172085000Y-120015000D03*
D20*
X129540000Y-127635000D03*
%TO.N,~IOR*%
X162560000Y-103505000D03*
X141605000Y-131445000D03*
X136525002Y-105410000D03*
X112014000Y-104394000D03*
%TO.N,~IOW*%
X145415000Y-131445000D03*
X156210000Y-125730000D03*
X139699991Y-125729991D03*
%TO.N,~MEMR*%
X146050000Y-109220000D03*
X151130000Y-130810000D03*
X125729990Y-107441990D03*
%TO.N,~MEMW*%
X107950000Y-80645000D03*
X149860000Y-133350000D03*
X151130000Y-121920000D03*
X142240000Y-124460000D03*
X148590000Y-90805000D03*
%TO.N,RESET*%
X172085000Y-130810000D03*
X168275000Y-129540000D03*
X120650000Y-130810006D03*
%TO.N,~CS1~_ATA*%
X115824003Y-108712003D03*
%TO.N,D0_BUF*%
X160020000Y-109220000D03*
%TO.N,D1_BUF*%
X145415000Y-107950000D03*
X158750000Y-106045000D03*
%TO.N,D2_BUF*%
X147320000Y-109220000D03*
X158750000Y-107950000D03*
%TO.N,D3_BUF*%
X157479994Y-73660000D03*
X148590000Y-85089994D03*
%TO.N,D4_BUF*%
X159385000Y-71120000D03*
X149860000Y-86359994D03*
%TO.N,D5_BUF*%
X160655000Y-68580000D03*
X151130000Y-87630000D03*
%TO.N,D6_BUF*%
X161925000Y-66040000D03*
X152400000Y-88900014D03*
%TO.N,D7_BUF*%
X163195000Y-63500000D03*
X154940000Y-90170000D03*
%TO.N,~RESET*%
X156168399Y-102727406D03*
X114554000Y-104394000D03*
%TO.N,~CE~_BIOS*%
X128270000Y-59055010D03*
%TO.N,ATA_ADDR_JUMPER*%
X105410000Y-64770000D03*
%TO.N,A14*%
X134620000Y-132715000D03*
X122555000Y-132715000D03*
X107314992Y-122555000D03*
%TO.N,~IOR_OR_MEMR*%
X142240000Y-114300000D03*
%TO.N,~CE~_BIOS_DECODE*%
X111760000Y-80645000D03*
X120649982Y-108712000D03*
X118617998Y-108712000D03*
X123190000Y-89535000D03*
%TD*%
D22*
%TO.N,A00*%
X99060000Y-133350000D02*
X99060000Y-138430000D01*
X100330000Y-132080000D02*
X99060000Y-133350000D01*
X102870000Y-132080000D02*
X100330000Y-132080000D01*
X104775000Y-130175000D02*
X102870000Y-132080000D01*
X103124000Y-125730000D02*
X104775000Y-127381000D01*
X104775000Y-127381000D02*
X104775000Y-130175000D01*
X102870000Y-125730000D02*
X103124000Y-125730000D01*
X132080000Y-83820000D02*
X132080000Y-82550000D01*
X133350000Y-85090000D02*
X132080000Y-83820000D01*
X133350000Y-87630000D02*
X133350000Y-85090000D01*
X132080000Y-88900000D02*
X133350000Y-87630000D01*
X132080000Y-101600000D02*
X132080000Y-88900000D01*
X128270000Y-111125000D02*
X128270000Y-113030000D01*
X132080000Y-107315000D02*
X128270000Y-111125000D01*
X125730000Y-121920000D02*
X124460000Y-123190000D01*
X132080000Y-101600000D02*
X132080000Y-107315000D01*
X125730000Y-115570000D02*
X125730000Y-121920000D01*
X128270000Y-113030000D02*
X125730000Y-115570000D01*
X130175000Y-63500000D02*
X129540000Y-63500000D01*
X133350000Y-66675000D02*
X130175000Y-63500000D01*
X133350000Y-68580000D02*
X133350000Y-66675000D01*
X132080000Y-69850000D02*
X133350000Y-68580000D01*
X132080000Y-82550000D02*
X132080000Y-69850000D01*
%TO.N,A01*%
X129540000Y-104140000D02*
X129540000Y-102870000D01*
X129540000Y-102870000D02*
X129540000Y-101600000D01*
X101600000Y-133985000D02*
X101600000Y-138430000D01*
X102235000Y-133350000D02*
X101600000Y-133985000D01*
X103251250Y-133350000D02*
X102235000Y-133350000D01*
X106045000Y-130556250D02*
X103251250Y-133350000D01*
X102870000Y-124460000D02*
X106045000Y-127635000D01*
X106045000Y-127635000D02*
X106045000Y-130556250D01*
X102235000Y-124460000D02*
X102870000Y-124460000D01*
X101600000Y-125095000D02*
X102235000Y-124460000D01*
X123190000Y-115570000D02*
X123190000Y-115641194D01*
X125730000Y-113030000D02*
X123190000Y-115570000D01*
X125730000Y-111125000D02*
X125730000Y-113030000D01*
X129540000Y-107315000D02*
X125730000Y-111125000D01*
X129540000Y-104140000D02*
X129540000Y-107315000D01*
X123190000Y-115570000D02*
X123190000Y-121920006D01*
X129540000Y-101600000D02*
X130810000Y-100330000D01*
X130810000Y-100330000D02*
X130810000Y-85090000D01*
X130810000Y-85090000D02*
X129540000Y-83820000D01*
X129540000Y-83820000D02*
X129540000Y-82550000D01*
%TO.N,A02*%
X107315000Y-130810000D02*
X104140000Y-133985000D01*
X107315000Y-127635000D02*
X107315000Y-130810000D01*
X104140000Y-133985000D02*
X104140000Y-138430000D01*
X102870000Y-123190000D02*
X107315000Y-127635000D01*
X127000000Y-107950000D02*
X127000000Y-101600000D01*
X123190000Y-111760000D02*
X127000000Y-107950000D01*
X123190000Y-113082618D02*
X123190000Y-111760000D01*
X120650000Y-115622618D02*
X123190000Y-113082618D01*
X120650000Y-121920000D02*
X120650000Y-115622618D01*
X128329999Y-100270001D02*
X127000000Y-101600000D01*
X128329999Y-90229999D02*
X128329999Y-100270001D01*
X125730000Y-87630000D02*
X128329999Y-90229999D01*
X125730000Y-85090000D02*
X125730000Y-87630000D01*
X127000000Y-83820000D02*
X125730000Y-85090000D01*
X127000000Y-82550000D02*
X127000000Y-83820000D01*
X127000000Y-69740002D02*
X127000000Y-82550000D01*
X125730000Y-68470002D02*
X127000000Y-69740002D01*
X125730000Y-66675000D02*
X125730000Y-68470002D01*
X122555000Y-63500000D02*
X125730000Y-66675000D01*
X121920000Y-63500000D02*
X122555000Y-63500000D01*
%TO.N,A03*%
X102870000Y-121920000D02*
X101600000Y-121920000D01*
X108585000Y-127635000D02*
X102870000Y-121920000D01*
X108585000Y-131445000D02*
X108585000Y-127635000D01*
X106680000Y-133350000D02*
X108585000Y-131445000D01*
X106680000Y-138430000D02*
X106680000Y-133350000D01*
X118110000Y-115455802D02*
X120659832Y-112905970D01*
X118110000Y-121920000D02*
X118110000Y-115455802D01*
X120659832Y-112905970D02*
X120659832Y-111718654D01*
X124460000Y-107918486D02*
X124460000Y-90805000D01*
X120659832Y-111718654D02*
X124460000Y-107918486D01*
%TO.N,A04*%
X109220000Y-127000000D02*
X102870000Y-120650000D01*
X109220000Y-138430000D02*
X109220000Y-127000000D01*
X101600000Y-120015000D02*
X102870000Y-120015000D01*
X102870000Y-120650000D02*
X102870000Y-120015000D01*
X102870000Y-106934000D02*
X103124000Y-106680000D01*
X102870000Y-120015000D02*
X102870000Y-106934000D01*
X123190000Y-83820000D02*
X121920000Y-82550000D01*
X123190000Y-87630000D02*
X123190000Y-83820000D01*
X121920000Y-88900000D02*
X123190000Y-87630000D01*
X121920000Y-101600000D02*
X121920000Y-88900000D01*
%TO.N,A05*%
X104902000Y-104394000D02*
X104648000Y-104140000D01*
X105410000Y-109594599D02*
X104902000Y-109086599D01*
X105410000Y-113665000D02*
X105410000Y-109594599D01*
X104140000Y-114935000D02*
X105410000Y-113665000D01*
X104902000Y-109086599D02*
X104902000Y-104394000D01*
X104140000Y-120650000D02*
X104140000Y-114935000D01*
X111760000Y-128270000D02*
X104140000Y-120650000D01*
X111760000Y-138430000D02*
X111760000Y-128270000D01*
X119380000Y-83820000D02*
X119380000Y-82550000D01*
X120650000Y-87630000D02*
X120650000Y-85090000D01*
X120650000Y-85090000D02*
X119380000Y-83820000D01*
X119380000Y-88900000D02*
X120650000Y-87630000D01*
X119380000Y-101600000D02*
X119380000Y-88900000D01*
%TO.N,A06*%
X118364014Y-103886014D02*
X118364014Y-106679992D01*
X116840000Y-102362000D02*
X118364014Y-103886014D01*
X116840000Y-101600000D02*
X116840000Y-102362000D01*
X110490000Y-109982000D02*
X114046000Y-106426000D01*
X106680000Y-116840000D02*
X110490000Y-113030000D01*
X113030000Y-127000000D02*
X106680000Y-120650000D01*
X114300000Y-133350000D02*
X113030000Y-132080000D01*
X114300000Y-138430000D02*
X114300000Y-133350000D01*
X106680000Y-120650000D02*
X106680000Y-116840000D01*
X113030000Y-132080000D02*
X113030000Y-127000000D01*
X110490000Y-113030000D02*
X110490000Y-109982000D01*
X116840000Y-83681370D02*
X116840000Y-82550000D01*
X118110000Y-84951370D02*
X116840000Y-83681370D01*
X118110000Y-87630000D02*
X118110000Y-84951370D01*
X116840000Y-88900000D02*
X118110000Y-87630000D01*
X116840000Y-101600000D02*
X116840000Y-88900000D01*
%TO.N,A07*%
X114300000Y-102235000D02*
X114300000Y-101600000D01*
X116332000Y-104267000D02*
X114300000Y-102235000D01*
X113030000Y-109982000D02*
X116332000Y-106680000D01*
X109220000Y-118110000D02*
X113030000Y-114300000D01*
X116332000Y-106680000D02*
X116332000Y-104267000D01*
X109220000Y-120650000D02*
X109220000Y-118110000D01*
X115570000Y-127000000D02*
X109220000Y-120650000D01*
X113030000Y-114300000D02*
X113030000Y-109982000D01*
X115570000Y-132080000D02*
X115570000Y-127000000D01*
X116840000Y-133350000D02*
X115570000Y-132080000D01*
X116840000Y-138430000D02*
X116840000Y-133350000D01*
X115570000Y-84951370D02*
X114300000Y-83681370D01*
X114300000Y-83681370D02*
X114300000Y-82550000D01*
X115570000Y-87630000D02*
X115570000Y-84951370D01*
X114300000Y-88900000D02*
X115570000Y-87630000D01*
X114300000Y-101600000D02*
X114300000Y-88900000D01*
%TO.N,A08*%
X119380000Y-133985000D02*
X119380000Y-138430000D01*
X116840000Y-131445000D02*
X119380000Y-133985000D01*
X116840000Y-127000000D02*
X116840000Y-131445000D01*
X111760000Y-121920000D02*
X116840000Y-127000000D01*
X111760000Y-118110000D02*
X111760000Y-121920000D01*
X115570000Y-114300000D02*
X111760000Y-118110000D01*
X115570000Y-111760000D02*
X115570000Y-114300000D01*
X115570000Y-68580000D02*
X116840000Y-67310000D01*
X116840000Y-85090000D02*
X115570000Y-83820000D01*
X115570000Y-83820000D02*
X115570000Y-68580000D01*
X116840000Y-86360000D02*
X116840000Y-85090000D01*
X115570000Y-110490000D02*
X115570000Y-111760000D01*
X117348000Y-108712000D02*
X115570000Y-110490000D01*
X115570000Y-102235000D02*
X117348000Y-104013000D01*
X117348000Y-104013000D02*
X117348000Y-108712000D01*
X115570000Y-88900000D02*
X115570000Y-102235000D01*
X116840000Y-87630000D02*
X115570000Y-88900000D01*
X116840000Y-86360000D02*
X116840000Y-87630000D01*
%TO.N,A09*%
X118110000Y-68580000D02*
X119380000Y-67310000D01*
X118110000Y-83748940D02*
X118110000Y-68580000D01*
X119380000Y-85018940D02*
X118110000Y-83748940D01*
X119380000Y-86288940D02*
X119380000Y-85018940D01*
X121920000Y-133985000D02*
X121920000Y-138430000D01*
X118110000Y-130175000D02*
X121920000Y-133985000D01*
X114300000Y-123190000D02*
X118110000Y-127000000D01*
X118110000Y-127000000D02*
X118110000Y-130175000D01*
X114300000Y-116840000D02*
X114300000Y-123190000D01*
X118110000Y-113030000D02*
X114300000Y-116840000D01*
X119634000Y-109601000D02*
X118110000Y-111125000D01*
X118110000Y-111125000D02*
X118110000Y-113030000D01*
X119634000Y-103886000D02*
X119634000Y-109601000D01*
X118164999Y-102416999D02*
X119634000Y-103886000D01*
X118164999Y-101016799D02*
X118164999Y-102416999D01*
X119380000Y-87630000D02*
X118745000Y-88265000D01*
X119380000Y-86360000D02*
X119380000Y-87630000D01*
X118164999Y-99640001D02*
X118164999Y-101016799D01*
X118164999Y-88845001D02*
X118164999Y-99640001D01*
X118745000Y-88265000D02*
X118164999Y-88845001D01*
%TO.N,A10*%
X127000000Y-85839198D02*
X126992600Y-85839198D01*
X126365000Y-125095012D02*
X128270012Y-123190000D01*
X126365000Y-132080000D02*
X126365000Y-125095012D01*
X124460000Y-133985000D02*
X126365000Y-132080000D01*
X124460000Y-138430000D02*
X124460000Y-133985000D01*
X128270000Y-85090000D02*
X127000000Y-86360000D01*
X128270000Y-68580000D02*
X128270000Y-85090000D01*
X127000000Y-67310000D02*
X128270000Y-68580000D01*
X148590000Y-107950000D02*
X148590000Y-121920000D01*
X146050000Y-105410000D02*
X148590000Y-107950000D01*
X146050000Y-90805000D02*
X146050000Y-105410000D01*
%TO.N,A11*%
X143510000Y-109220000D02*
X143510000Y-114300000D01*
X138430000Y-119380000D02*
X138430000Y-123190000D01*
X143510000Y-114300000D02*
X138430000Y-119380000D01*
X138430000Y-123190000D02*
X138430000Y-125095000D01*
X127635000Y-126365000D02*
X129540000Y-124460000D01*
X127635000Y-133350000D02*
X127635000Y-126365000D01*
X127000000Y-133985000D02*
X127635000Y-133350000D01*
X127000000Y-138430000D02*
X127000000Y-133985000D01*
X120650000Y-68580000D02*
X121920000Y-67310000D01*
X120650000Y-83185000D02*
X120650000Y-68580000D01*
X121920000Y-84455000D02*
X120650000Y-83185000D01*
X121920000Y-87630000D02*
X121920000Y-84455000D01*
X120650000Y-106425992D02*
X121793004Y-107568996D01*
X120650000Y-88900000D02*
X120650000Y-106425992D01*
X121920000Y-87630000D02*
X120650000Y-88900000D01*
%TO.N,A12*%
X129540000Y-138430000D02*
X129540000Y-130175000D01*
X108009999Y-120709999D02*
X108009999Y-117288001D01*
X114300000Y-127000000D02*
X108009999Y-120709999D01*
X108009999Y-117288001D02*
X111252000Y-114046000D01*
X114300000Y-129540000D02*
X114300000Y-127000000D01*
X111760000Y-101600000D02*
X111760000Y-102841158D01*
X111760000Y-102841158D02*
X110490000Y-104111158D01*
X110490000Y-104111158D02*
X110490000Y-105410000D01*
X111760000Y-83681370D02*
X111760000Y-82550000D01*
X113030000Y-84951370D02*
X111760000Y-83681370D01*
X113030000Y-87630000D02*
X113030000Y-84951370D01*
X111760000Y-88900000D02*
X113030000Y-87630000D01*
X111760000Y-101600000D02*
X111760000Y-88900000D01*
%TO.N,A13*%
X114300000Y-87630000D02*
X114300000Y-86360000D01*
X138430000Y-110670010D02*
X139700000Y-109400010D01*
X138430000Y-114935000D02*
X138430000Y-110670010D01*
X133985000Y-119380000D02*
X138430000Y-114935000D01*
X133985000Y-129540000D02*
X133985000Y-119380000D01*
X132080000Y-131445000D02*
X133985000Y-129540000D01*
X132080000Y-138430000D02*
X132080000Y-131445000D01*
X113030000Y-69850000D02*
X114300000Y-68580000D01*
X114300000Y-68580000D02*
X114300000Y-67310000D01*
X113030000Y-83820000D02*
X113030000Y-69850000D01*
X114300000Y-85090000D02*
X113030000Y-83820000D01*
X114300000Y-86360000D02*
X114300000Y-85090000D01*
X113049004Y-105644996D02*
X112522000Y-106172000D01*
X113049004Y-88880996D02*
X113049004Y-105644996D01*
X114300000Y-87630000D02*
X113049004Y-88880996D01*
%TO.N,A15*%
X137160000Y-132715000D02*
X137160000Y-138430000D01*
X119380000Y-115570000D02*
X120650000Y-114300000D01*
X119380000Y-123190000D02*
X119380000Y-115570000D01*
X123190000Y-127000000D02*
X119380000Y-123190000D01*
X123190000Y-131445000D02*
X123190000Y-127000000D01*
X105410000Y-100330000D02*
X106680000Y-99060000D01*
X105410000Y-102870000D02*
X105410000Y-100330000D01*
X105664000Y-103124000D02*
X105410000Y-102870000D01*
X105664000Y-106680000D02*
X105664000Y-103124000D01*
X106680000Y-99060000D02*
X106680000Y-86360000D01*
X106680000Y-107696000D02*
X105664000Y-106680000D01*
%TO.N,A16*%
X139700000Y-133350000D02*
X139700000Y-138430000D01*
X137795000Y-131445000D02*
X139700000Y-133350000D01*
X121920000Y-118110000D02*
X121920000Y-115570000D01*
X121920000Y-115570000D02*
X122555000Y-114935000D01*
X121920000Y-123825000D02*
X121920000Y-118110000D01*
X125095000Y-127000000D02*
X121920000Y-123825000D01*
X125095000Y-131445000D02*
X125095000Y-127000000D01*
X106680000Y-101600000D02*
X106680000Y-105918000D01*
%TO.N,A17*%
X135255000Y-125730000D02*
X135255000Y-127000000D01*
X135255000Y-127000000D02*
X142240000Y-133985000D01*
X142240000Y-133985000D02*
X142240000Y-138430000D01*
X124460000Y-115570000D02*
X125730000Y-114300000D01*
X124460000Y-120015000D02*
X124460000Y-115570000D01*
X110490000Y-87630000D02*
X110490000Y-102824988D01*
X109474000Y-105918002D02*
X110490000Y-106934002D01*
X109220000Y-86360000D02*
X110490000Y-87630000D01*
X110490000Y-102824988D02*
X109474000Y-103840988D01*
X109474000Y-103840988D02*
X109474000Y-105918002D01*
%TO.N,A18*%
X144780000Y-138430000D02*
X144780000Y-132715000D01*
X144780000Y-132715000D02*
X137795000Y-125730000D01*
X127000000Y-116840000D02*
X127000000Y-115570000D01*
X127000000Y-118110000D02*
X127000000Y-116840000D01*
X127000000Y-118110000D02*
X127000000Y-120015000D01*
X137160000Y-125095000D02*
X137160000Y-122380000D01*
X137795000Y-125730000D02*
X137160000Y-125095000D01*
%TO.N,A19*%
X147320000Y-131444978D02*
X140335022Y-124460000D01*
X147320000Y-138430000D02*
X147320000Y-131444978D01*
X129540000Y-86360000D02*
X129540000Y-89535000D01*
X140335022Y-122555022D02*
X139700000Y-121920000D01*
X140335022Y-124460000D02*
X140335022Y-122555022D01*
X130175000Y-119380000D02*
X129540000Y-120015000D01*
X130175000Y-115606356D02*
X130175000Y-119380000D01*
X132715000Y-113066356D02*
X130175000Y-115606356D01*
X132715000Y-111125000D02*
X132715000Y-113066356D01*
X133350000Y-110490000D02*
X132715000Y-111125000D01*
X133350000Y-90805000D02*
X133350000Y-110490000D01*
%TO.N,D0*%
X154940000Y-133985000D02*
X154940000Y-138430000D01*
X153670000Y-132715000D02*
X154940000Y-133985000D01*
X153670000Y-132715000D02*
X151130000Y-132715000D01*
X151130000Y-132715000D02*
X145415000Y-127000000D01*
X145415000Y-127000000D02*
X145415000Y-126365000D01*
X145415000Y-126365000D02*
X139700000Y-120650000D01*
X139700000Y-120650000D02*
X139700000Y-120015000D01*
%TO.N,D1*%
X157480000Y-133985000D02*
X157480000Y-138430000D01*
X155575000Y-133350000D02*
X156845000Y-133350000D01*
X156845000Y-133350000D02*
X157480000Y-133985000D01*
X151765000Y-129540000D02*
X155575000Y-133350000D01*
X151130000Y-129540000D02*
X151765000Y-129540000D01*
X142240000Y-120650000D02*
X151130000Y-129540000D01*
X142240000Y-120015000D02*
X142240000Y-120650000D01*
%TO.N,D2*%
X157480000Y-132715000D02*
X158750000Y-132715000D01*
X158750000Y-132715000D02*
X160020000Y-133985000D01*
X160020000Y-133985000D02*
X160020000Y-138430000D01*
X156210000Y-132715000D02*
X157480000Y-132715000D01*
X144780000Y-121285000D02*
X156210000Y-132715000D01*
X144780000Y-120015000D02*
X144780000Y-121285000D01*
%TO.N,D3*%
X162560000Y-138430000D02*
X162560000Y-133985000D01*
X160020000Y-131445000D02*
X162560000Y-133985000D01*
X156210000Y-131445000D02*
X160020000Y-131445000D01*
X147320000Y-122555000D02*
X156210000Y-131445000D01*
X147320000Y-120015000D02*
X147320000Y-122555000D01*
%TO.N,D4*%
X165100000Y-133985000D02*
X165100000Y-138430000D01*
X164465000Y-133350000D02*
X165100000Y-133985000D01*
X161290000Y-130175000D02*
X164465000Y-133350000D01*
X156845000Y-130175000D02*
X161290000Y-130175000D01*
X149860000Y-123190000D02*
X156845000Y-130175000D01*
X149860000Y-120015000D02*
X149860000Y-123190000D01*
%TO.N,D5*%
X161475259Y-128905000D02*
X157480000Y-128905000D01*
X165920259Y-133350000D02*
X161475259Y-128905000D01*
X167005000Y-133350000D02*
X165920259Y-133350000D01*
X157480000Y-128905000D02*
X152400000Y-123825000D01*
X167640000Y-133985000D02*
X167005000Y-133350000D01*
X152400000Y-123825000D02*
X152400000Y-120015000D01*
X167640000Y-138430000D02*
X167640000Y-133985000D01*
%TO.N,D6*%
X161925000Y-121920000D02*
X156845000Y-121920000D01*
X167132000Y-129921000D02*
X167132000Y-127127000D01*
X156845000Y-121920000D02*
X154940000Y-120015000D01*
X170180000Y-132969000D02*
X167132000Y-129921000D01*
X167132000Y-127127000D02*
X161925000Y-121920000D01*
X170180000Y-138430000D02*
X170180000Y-132969000D01*
%TO.N,D7*%
X172720000Y-134270000D02*
X172720000Y-138430000D01*
X172720000Y-133350000D02*
X172720000Y-134270000D01*
X173355000Y-132715000D02*
X172720000Y-133350000D01*
X172720000Y-129540000D02*
X173355000Y-130175000D01*
X171450000Y-129540000D02*
X172720000Y-129540000D01*
X158115000Y-121285000D02*
X163195000Y-121285000D01*
X157480000Y-120650000D02*
X158115000Y-121285000D01*
X173355000Y-130175000D02*
X173355000Y-132715000D01*
X163195000Y-121285000D02*
X171450000Y-129540000D01*
X157480000Y-120015000D02*
X157480000Y-120650000D01*
D23*
%TO.N,GND*%
X167640000Y-82677000D02*
X170307000Y-82677000D01*
X170815000Y-83185000D02*
X170815000Y-89535000D01*
X170307000Y-82677000D02*
X170815000Y-83185000D01*
X170815000Y-91440000D02*
X170815000Y-93345000D01*
X170815000Y-89535000D02*
X170815000Y-91440000D01*
X142240000Y-82550000D02*
X144780000Y-82550000D01*
X160020000Y-120015000D02*
X161925000Y-120015000D01*
X165100000Y-108077000D02*
X165100000Y-110490000D01*
X162687016Y-85217000D02*
X162560000Y-85089984D01*
X165100000Y-85217000D02*
X162687016Y-85217000D01*
X162687000Y-87757000D02*
X162560000Y-87630000D01*
X165100000Y-87757000D02*
X162687000Y-87757000D01*
X163084936Y-90297000D02*
X162568468Y-90813468D01*
X165100000Y-90297000D02*
X163084936Y-90297000D01*
X165100000Y-59817000D02*
X162052000Y-59817000D01*
X121920000Y-55880000D02*
X121920000Y-53340000D01*
X142240000Y-101600000D02*
X144780000Y-101600000D01*
X142240000Y-101600000D02*
X142240000Y-97790000D01*
X142240000Y-97790000D02*
X144780000Y-97790000D01*
X129540000Y-112395000D02*
X129540000Y-113665000D01*
X130810000Y-112395000D02*
X131445000Y-111760000D01*
X129540000Y-112395000D02*
X130810000Y-112395000D01*
X130810000Y-112395000D02*
X131445000Y-112395000D01*
X142240000Y-97790000D02*
X142240000Y-94615000D01*
X142240000Y-94615000D02*
X144780000Y-94615000D01*
X144780000Y-69215000D02*
X144780000Y-82550000D01*
X144780000Y-61595000D02*
X144780000Y-69215000D01*
X130810000Y-112395000D02*
X131191000Y-112776000D01*
X129540000Y-113665000D02*
X130048000Y-114173000D01*
X128651000Y-114935000D02*
X128651000Y-117475000D01*
X128651000Y-114554000D02*
X129540000Y-113665000D01*
X128651000Y-114935000D02*
X128651000Y-114554000D01*
D24*
%TO.N,VCC*%
X102235000Y-127635000D02*
X102235000Y-129540000D01*
D23*
X98425000Y-108585000D02*
X98425000Y-107950000D01*
X99060000Y-109855000D02*
X98425000Y-109855000D01*
D24*
X98425000Y-109855000D02*
X98425000Y-111760000D01*
D23*
X99060000Y-111760000D02*
X98425000Y-111760000D01*
D24*
X98425000Y-111760000D02*
X98425000Y-113665000D01*
D23*
X100965000Y-67310000D02*
X104140000Y-67310000D01*
X104140000Y-67310000D02*
X104140000Y-66040000D01*
X104140000Y-66040000D02*
X103505000Y-65405000D01*
X104140000Y-67310000D02*
X104140000Y-68580000D01*
X104140000Y-68580000D02*
X103505000Y-69215000D01*
X99060000Y-66040000D02*
X98425000Y-66040000D01*
X99695000Y-65405000D02*
X99060000Y-66040000D01*
X99695000Y-65405000D02*
X98425000Y-65405000D01*
X99695000Y-65405000D02*
X98425000Y-64135000D01*
X99695000Y-67310000D02*
X98425000Y-66040000D01*
X100965000Y-67310000D02*
X99695000Y-67310000D01*
X99695000Y-67310000D02*
X98425000Y-67310000D01*
X99695000Y-67310000D02*
X98425000Y-68580000D01*
X99060000Y-68580000D02*
X98425000Y-68580000D01*
X99695000Y-69215000D02*
X99060000Y-68580000D01*
D24*
X98425000Y-91440000D02*
X98425000Y-86360000D01*
D25*
X100965000Y-127635000D02*
X98425000Y-125095000D01*
D24*
X98425000Y-91440000D02*
X98425000Y-88900000D01*
D23*
X100965000Y-66040000D02*
X101600000Y-65405000D01*
X101600000Y-65405000D02*
X100965000Y-65405000D01*
X103505000Y-65405000D02*
X101600000Y-65405000D01*
X100965000Y-66040000D02*
X100965000Y-65405000D01*
X100965000Y-66040000D02*
X100330000Y-65405000D01*
X100330000Y-65405000D02*
X99695000Y-65405000D01*
X100965000Y-65405000D02*
X100330000Y-65405000D01*
X100965000Y-68580000D02*
X100330000Y-69215000D01*
X100330000Y-69215000D02*
X99695000Y-69215000D01*
X100965000Y-69215000D02*
X100330000Y-69215000D01*
X100965000Y-69215000D02*
X100965000Y-68580000D01*
X100965000Y-68580000D02*
X100965000Y-66040000D01*
X100965000Y-68580000D02*
X101600000Y-69215000D01*
X101600000Y-69215000D02*
X100965000Y-69215000D01*
X103505000Y-69215000D02*
X101600000Y-69215000D01*
X180340000Y-57785000D02*
X181610000Y-57785000D01*
X179705000Y-58420000D02*
X180340000Y-57785000D01*
X181951000Y-58126000D02*
X181951000Y-59817000D01*
X179705000Y-59309000D02*
X179705000Y-58420000D01*
X181610000Y-57785000D02*
X181951000Y-58126000D01*
X180213000Y-59817000D02*
X179705000Y-59309000D01*
X179705000Y-60325000D02*
X180213000Y-59817000D01*
X180213000Y-59817000D02*
X181951000Y-59817000D01*
X179705000Y-59309000D02*
X179705000Y-60325000D01*
D24*
X173990000Y-120015000D02*
X172085000Y-120015000D01*
X173990000Y-120015000D02*
X173990000Y-118110000D01*
X173990000Y-118110000D02*
X172085000Y-120015000D01*
X172085000Y-120015000D02*
X172085000Y-120015000D01*
D23*
X173482000Y-95377000D02*
X173990000Y-95885000D01*
D24*
X173990000Y-118110000D02*
X173990000Y-95885000D01*
D22*
X169037000Y-103472202D02*
X169037000Y-95377000D01*
X168237203Y-104271999D02*
X169037000Y-103472202D01*
X165100000Y-105537000D02*
X166365001Y-104271999D01*
X166365001Y-104271999D02*
X168237203Y-104271999D01*
X169037000Y-95377000D02*
X173482000Y-95377000D01*
X167640000Y-95377000D02*
X169037000Y-95377000D01*
D24*
X98425000Y-106045000D02*
X98425000Y-107315000D01*
D23*
X101600000Y-113665000D02*
X100965000Y-114300000D01*
X101600000Y-112395000D02*
X101600000Y-113665000D01*
X99060000Y-110490000D02*
X98425000Y-109855000D01*
D24*
X98425000Y-107315000D02*
X98425000Y-109220000D01*
X98425000Y-109220000D02*
X98425000Y-109855000D01*
X98425000Y-104775000D02*
X98425000Y-106045000D01*
X98425000Y-91440000D02*
X98425000Y-104775000D01*
D23*
X99695000Y-112395000D02*
X98425000Y-111125000D01*
X101600000Y-112395000D02*
X99695000Y-112395000D01*
X99695000Y-112395000D02*
X98425000Y-113665000D01*
X99695000Y-114300000D02*
X99060000Y-113665000D01*
X100965000Y-114300000D02*
X99695000Y-114300000D01*
X99695000Y-114300000D02*
X98425000Y-115570000D01*
X101600000Y-112395000D02*
X101600000Y-111125000D01*
X100965000Y-110490000D02*
X100965000Y-109220000D01*
X101600000Y-111125000D02*
X100965000Y-110490000D01*
X100965000Y-109220000D02*
X100965000Y-107950000D01*
X100965000Y-107950000D02*
X100330000Y-107315000D01*
X99060000Y-106045000D02*
X98425000Y-106045000D01*
X99695000Y-107315000D02*
X99060000Y-107950000D01*
X100330000Y-107315000D02*
X99695000Y-107315000D01*
X99060000Y-84455000D02*
X98425000Y-84455000D01*
X98425000Y-108585000D02*
X98425000Y-109220000D01*
X99695000Y-109220000D02*
X98425000Y-110490000D01*
X100965000Y-109220000D02*
X99695000Y-109220000D01*
X99695000Y-107315000D02*
X98425000Y-107315000D01*
X99695000Y-109220000D02*
X98425000Y-107950000D01*
X133985000Y-112395000D02*
X137160000Y-112395000D01*
X133985000Y-114300000D02*
X133350000Y-114935000D01*
X137160000Y-113665000D02*
X137160000Y-112395000D01*
X133985000Y-113665000D02*
X134620000Y-114300000D01*
X133985000Y-112395000D02*
X133985000Y-113665000D01*
X133985000Y-113665000D02*
X133985000Y-114300000D01*
X133985000Y-113665000D02*
X133350000Y-114300000D01*
X136525000Y-114300000D02*
X134620000Y-114300000D01*
X135890000Y-114935000D02*
X136525000Y-114300000D01*
X136525000Y-114300000D02*
X137160000Y-113665000D01*
X136525000Y-114300000D02*
X136525000Y-114935000D01*
X136525000Y-114935000D02*
X134620000Y-114935000D01*
D26*
X134620000Y-114935000D02*
X135890000Y-114935000D01*
X133350000Y-114935000D02*
X134620000Y-114935000D01*
X129540000Y-127635000D02*
X132080000Y-127635000D01*
D23*
X104140000Y-87630000D02*
X103505000Y-88265000D01*
X99695000Y-84455000D02*
X98425000Y-84455000D01*
X99695000Y-84455000D02*
X99060000Y-85090000D01*
X99695000Y-86360000D02*
X98425000Y-85090000D01*
X104140000Y-86360000D02*
X104140000Y-87630000D01*
X99695000Y-86360000D02*
X98425000Y-87630000D01*
X100965000Y-86360000D02*
X104140000Y-86360000D01*
X104140000Y-85090000D02*
X103505000Y-84455000D01*
X100965000Y-86360000D02*
X99695000Y-86360000D01*
X99060000Y-85090000D02*
X98425000Y-85090000D01*
X99695000Y-86360000D02*
X98425000Y-86360000D01*
X99695000Y-88265000D02*
X99060000Y-87630000D01*
X99060000Y-87630000D02*
X98425000Y-87630000D01*
X99695000Y-84455000D02*
X98425000Y-83185000D01*
X104140000Y-86360000D02*
X104140000Y-85090000D01*
X100965000Y-85090000D02*
X100965000Y-84455000D01*
X100330000Y-84455000D02*
X99695000Y-84455000D01*
X101600000Y-88265000D02*
X100965000Y-88265000D01*
X100965000Y-85090000D02*
X101600000Y-84455000D01*
X100965000Y-87630000D02*
X101600000Y-88265000D01*
X101600000Y-84455000D02*
X100965000Y-84455000D01*
X100965000Y-88265000D02*
X100330000Y-88265000D01*
X103505000Y-88265000D02*
X101600000Y-88265000D01*
X100965000Y-87630000D02*
X100330000Y-88265000D01*
X100965000Y-85090000D02*
X100330000Y-84455000D01*
X100965000Y-87630000D02*
X100965000Y-85090000D01*
X100330000Y-88265000D02*
X99695000Y-88265000D01*
X103505000Y-84455000D02*
X101600000Y-84455000D01*
X100965000Y-88265000D02*
X100965000Y-87630000D01*
X100965000Y-84455000D02*
X100330000Y-84455000D01*
X98425000Y-90805000D02*
X98425000Y-91440000D01*
X99695000Y-88265000D02*
X98425000Y-89535000D01*
D24*
X98425000Y-85090000D02*
X98425000Y-86360000D01*
X100330000Y-53340000D02*
X98425000Y-55245000D01*
D23*
X99695000Y-69215000D02*
X98425000Y-70485000D01*
D24*
X98425000Y-70485000D02*
X98425000Y-85090000D01*
X98425000Y-55245000D02*
X98425000Y-70485000D01*
D23*
X113665000Y-53975000D02*
X114300000Y-53340000D01*
X113665000Y-55880000D02*
X113665000Y-53975000D01*
D24*
X114935000Y-53340000D02*
X114300000Y-53340000D01*
D23*
X114935000Y-53975000D02*
X114935000Y-53340000D01*
X116840000Y-55880000D02*
X114935000Y-53975000D01*
D22*
X101600000Y-53975000D02*
X102235000Y-53340000D01*
X101600000Y-55880000D02*
X101600000Y-53975000D01*
D24*
X102235000Y-53340000D02*
X100330000Y-53340000D01*
D22*
X104140000Y-53975000D02*
X103505000Y-53340000D01*
X104140000Y-55880000D02*
X104140000Y-53975000D01*
D24*
X103505000Y-53340000D02*
X102235000Y-53340000D01*
D22*
X106680000Y-53975000D02*
X107315000Y-53340000D01*
X106680000Y-55880000D02*
X106680000Y-53975000D01*
D24*
X107315000Y-53340000D02*
X103505000Y-53340000D01*
X114300000Y-53340000D02*
X107315000Y-53340000D01*
D23*
X99060000Y-104775000D02*
X98425000Y-104775000D01*
X99695000Y-107315000D02*
X99060000Y-106680000D01*
D24*
X98425000Y-127635000D02*
X102235000Y-127635000D01*
X102235000Y-129540000D02*
X100965000Y-127635000D01*
X98425000Y-129540000D02*
X102235000Y-129540000D01*
X98425000Y-127000000D02*
X98425000Y-129540000D01*
X98425000Y-113665000D02*
X98425000Y-127000000D01*
D26*
X133334990Y-114935000D02*
X133350000Y-114935000D01*
X131826000Y-116443990D02*
X133334990Y-114935000D01*
X131826000Y-127381000D02*
X131826000Y-116443990D01*
X132080000Y-127635000D02*
X131826000Y-127381000D01*
X131826000Y-125349000D02*
X131826000Y-124968000D01*
X129540000Y-127635000D02*
X131826000Y-125349000D01*
X132080000Y-127635000D02*
X131826000Y-125730000D01*
D24*
X173990000Y-95885000D02*
X173990000Y-65405000D01*
D23*
X181951000Y-59817000D02*
X181951000Y-61254000D01*
X181951000Y-61254000D02*
X181610000Y-61595000D01*
X181610000Y-61595000D02*
X180340000Y-61595000D01*
X180340000Y-61595000D02*
X179070000Y-60325000D01*
D24*
X179070000Y-60325000D02*
X179705000Y-59690000D01*
X173990000Y-65405000D02*
X179070000Y-60325000D01*
D22*
%TO.N,~IOR*%
X164338000Y-91567000D02*
X162560000Y-93345000D01*
X166370000Y-91567000D02*
X164338000Y-91567000D01*
X167640000Y-90297000D02*
X166370000Y-91567000D01*
X162560000Y-93345000D02*
X162560000Y-103505000D01*
X140970000Y-109289313D02*
X137090687Y-105410000D01*
X140970000Y-113665000D02*
X140970000Y-109289313D01*
X135949999Y-125224314D02*
X135949999Y-118685001D01*
X135949999Y-118685001D02*
X140970000Y-113665000D01*
X141605000Y-130879315D02*
X135949999Y-125224314D01*
X137090687Y-105410000D02*
X136525002Y-105410000D01*
X141605000Y-131445000D02*
X141605000Y-130879315D01*
X111614001Y-104793999D02*
X112014000Y-104394000D01*
X109220000Y-109982000D02*
X111614001Y-107587999D01*
X111614001Y-107587999D02*
X111614001Y-104793999D01*
X109220000Y-112395000D02*
X109220000Y-109982000D01*
%TO.N,~IOW*%
X145415000Y-131445000D02*
X139699991Y-125729991D01*
X162433000Y-89027000D02*
X166370000Y-89027000D01*
X160020000Y-114300000D02*
X161344990Y-112975010D01*
X161344990Y-90115010D02*
X162433000Y-89027000D01*
X156959198Y-114300000D02*
X160020000Y-114300000D01*
X153670000Y-117589198D02*
X156959198Y-114300000D01*
X153670000Y-123190000D02*
X153670000Y-117589198D01*
X166370000Y-89027000D02*
X167640000Y-87757000D01*
X161344990Y-112975010D02*
X161344990Y-90115010D01*
X156210000Y-125730000D02*
X153670000Y-123190000D01*
%TO.N,~MEMR*%
X124460000Y-69215000D02*
X124460000Y-67310000D01*
X125730000Y-70485000D02*
X124460000Y-69215000D01*
X125730000Y-83820000D02*
X125730000Y-70485000D01*
X124460000Y-85090000D02*
X125730000Y-83820000D01*
X124460000Y-86360000D02*
X124460000Y-85090000D01*
X125729990Y-107950010D02*
X125729990Y-107441990D01*
X121920000Y-111760000D02*
X125729990Y-107950010D01*
X121920000Y-112395000D02*
X121920000Y-111760000D01*
X125729990Y-88899990D02*
X125729990Y-107441990D01*
X124460000Y-87630000D02*
X125729990Y-88899990D01*
X124460000Y-86360000D02*
X124460000Y-87630000D01*
X123939198Y-67310000D02*
X124460000Y-67310000D01*
X120650000Y-64020802D02*
X123939198Y-67310000D01*
X120650000Y-62230000D02*
X120650000Y-64020802D01*
X127000000Y-55880000D02*
X120650000Y-62230000D01*
X146050000Y-114300000D02*
X146050000Y-109220000D01*
X140970000Y-119380000D02*
X146050000Y-114300000D01*
X140970000Y-120650000D02*
X140970000Y-119380000D01*
X151130000Y-130810000D02*
X140970000Y-120650000D01*
%TO.N,~MEMW*%
X106680000Y-67310000D02*
X106680000Y-79375000D01*
X106680000Y-79375000D02*
X107950000Y-80645000D01*
X142240000Y-125025685D02*
X142240000Y-124460000D01*
X149860000Y-132645685D02*
X142240000Y-125025685D01*
X149860000Y-133350000D02*
X149860000Y-132645685D01*
X151130000Y-107950000D02*
X151130000Y-121920000D01*
X148590000Y-105410000D02*
X151130000Y-107950000D01*
X148590000Y-90805000D02*
X148590000Y-105410000D01*
%TO.N,RESET*%
X115570000Y-123190000D02*
X120650000Y-128270000D01*
X115570000Y-116725937D02*
X115570000Y-123190000D01*
X120650000Y-128270000D02*
X120650000Y-130810006D01*
X119380000Y-112915937D02*
X115570000Y-116725937D01*
X119380000Y-112395000D02*
X119380000Y-112915937D01*
X169545000Y-130810000D02*
X172085000Y-130810000D01*
X168275000Y-129540000D02*
X169545000Y-130810000D01*
%TO.N,~CS1~_ATA*%
X114300000Y-112395000D02*
X114300000Y-110236006D01*
X114300000Y-110236006D02*
X115824003Y-108712003D01*
%TO.N,D0_BUF*%
X134620000Y-102235000D02*
X134620000Y-101600000D01*
X160020000Y-85090000D02*
X160020000Y-109220000D01*
X167640000Y-80137000D02*
X166360001Y-81416999D01*
X166360001Y-81416999D02*
X163693001Y-81416999D01*
X163693001Y-81416999D02*
X160020000Y-85090000D01*
X136525000Y-103505000D02*
X134620000Y-101600000D01*
X142240000Y-109220000D02*
X136525000Y-103505000D01*
X142240000Y-112395000D02*
X142240000Y-109220000D01*
X134620000Y-83820000D02*
X134620000Y-82550000D01*
X135890000Y-85090000D02*
X134620000Y-83820000D01*
X135890000Y-100330000D02*
X135890000Y-85090000D01*
X134620000Y-101600000D02*
X135890000Y-100330000D01*
X132715000Y-63500000D02*
X132080000Y-63500000D01*
X135890000Y-66675000D02*
X132715000Y-63500000D01*
X135890000Y-69160001D02*
X135890000Y-66675000D01*
X134620000Y-70430001D02*
X135890000Y-69160001D01*
X134620000Y-82550000D02*
X134620000Y-70430001D01*
%TO.N,D1_BUF*%
X143510000Y-107950000D02*
X145415000Y-107950000D01*
X137160000Y-101600000D02*
X143510000Y-107950000D01*
X144780000Y-108585000D02*
X145415000Y-107950000D01*
X144780000Y-112395000D02*
X144780000Y-108585000D01*
X158750000Y-84622198D02*
X158750000Y-106045000D01*
X166379999Y-78857001D02*
X164515197Y-78857001D01*
X167640000Y-77597000D02*
X166379999Y-78857001D01*
X164515197Y-78857001D02*
X158750000Y-84622198D01*
X137160000Y-83820000D02*
X137160000Y-82550000D01*
X138430000Y-85090000D02*
X137160000Y-83820000D01*
X138430000Y-100330000D02*
X138430000Y-85090000D01*
X137160000Y-101600000D02*
X138430000Y-100330000D01*
%TO.N,D2_BUF*%
X147320000Y-112395000D02*
X147320000Y-109220000D01*
X157480000Y-106680000D02*
X158750000Y-107950000D01*
X157480000Y-83352198D02*
X157480000Y-106680000D01*
X164515197Y-76317001D02*
X157480000Y-83352198D01*
X166379999Y-76317001D02*
X164515197Y-76317001D01*
X167640000Y-75057000D02*
X166379999Y-76317001D01*
X147320000Y-108019315D02*
X147320000Y-109220000D01*
X144710685Y-105410000D02*
X147320000Y-108019315D01*
X144251798Y-105410000D02*
X144710685Y-105410000D01*
X140441798Y-101600000D02*
X144251798Y-105410000D01*
X139700000Y-101600000D02*
X140441798Y-101600000D01*
X139700000Y-83820000D02*
X139700000Y-82550000D01*
X140970000Y-85090000D02*
X139700000Y-83820000D01*
X140970000Y-87630000D02*
X140970000Y-85090000D01*
X139700000Y-88900000D02*
X140970000Y-87630000D01*
X139700000Y-101600000D02*
X139700000Y-88900000D01*
%TO.N,D3_BUF*%
X149860000Y-112395000D02*
X149860000Y-107950000D01*
X149860000Y-107950000D02*
X147320000Y-105410000D01*
X147320000Y-105410000D02*
X147320000Y-86359994D01*
X147320000Y-86359994D02*
X148590000Y-85089994D01*
X141029999Y-68520001D02*
X142240000Y-67310000D01*
X141029999Y-83914656D02*
X141029999Y-68520001D01*
X142240000Y-85124657D02*
X141029999Y-83914656D01*
X142240000Y-86360000D02*
X142240000Y-85124657D01*
X148590000Y-84455000D02*
X148590000Y-85089994D01*
X157479994Y-75565006D02*
X148590000Y-84455000D01*
X157479994Y-73660000D02*
X157479994Y-75565006D01*
%TO.N,D4_BUF*%
X149860000Y-84455000D02*
X159385000Y-74930000D01*
X159385000Y-74930000D02*
X159385000Y-71120000D01*
X149860000Y-105410000D02*
X149860000Y-84455000D01*
X152400000Y-107950000D02*
X149860000Y-105410000D01*
X152400000Y-112395000D02*
X152400000Y-107950000D01*
X138370001Y-68639999D02*
X139700000Y-67310000D01*
X138370001Y-83760001D02*
X138370001Y-68639999D01*
X139700000Y-85090000D02*
X138370001Y-83760001D01*
X139700000Y-86360000D02*
X139700000Y-85090000D01*
%TO.N,D5_BUF*%
X160655000Y-74930000D02*
X160655000Y-68580000D01*
X151130000Y-84455000D02*
X160655000Y-74930000D01*
X151130000Y-88265000D02*
X151130000Y-84455000D01*
X154940000Y-109220000D02*
X151130000Y-105410000D01*
X154940000Y-112395000D02*
X154940000Y-109220000D01*
X151130000Y-105410000D02*
X151130000Y-87630000D01*
X151130000Y-88265000D02*
X151130000Y-87630000D01*
X137160000Y-69850000D02*
X137160000Y-67310000D01*
X135890000Y-71120000D02*
X137160000Y-69850000D01*
X135890000Y-83820000D02*
X135890000Y-71120000D01*
X137160000Y-85090000D02*
X135890000Y-83820000D01*
X137160000Y-86360000D02*
X137160000Y-85090000D01*
%TO.N,D6_BUF*%
X161925000Y-74930000D02*
X161925000Y-66040000D01*
X152400000Y-84455000D02*
X161925000Y-74930000D01*
X152400000Y-86995000D02*
X152400000Y-84455000D01*
X157480000Y-110490000D02*
X152400000Y-105410000D01*
X157480000Y-112395000D02*
X157480000Y-110490000D01*
X152400000Y-105410000D02*
X152400000Y-88900014D01*
X152400000Y-86995000D02*
X152400000Y-88900014D01*
X134620000Y-68441370D02*
X134620000Y-67310000D01*
X133350000Y-69711370D02*
X134620000Y-68441370D01*
X133350000Y-83820000D02*
X133350000Y-69711370D01*
X134620000Y-85090000D02*
X133350000Y-83820000D01*
X134620000Y-86360000D02*
X134620000Y-85090000D01*
%TO.N,D7_BUF*%
X130810000Y-68580000D02*
X132080000Y-67310000D01*
X130810000Y-83820000D02*
X130810000Y-68580000D01*
X132080000Y-85090000D02*
X130810000Y-83820000D01*
X132080000Y-86360000D02*
X132080000Y-85090000D01*
X163195000Y-74930000D02*
X163195000Y-63500000D01*
X154940000Y-83185000D02*
X163195000Y-74930000D01*
X154940000Y-90170000D02*
X154940000Y-83185000D01*
X160020000Y-111053802D02*
X160020000Y-112395000D01*
X154940000Y-105973802D02*
X160020000Y-111053802D01*
X154940000Y-90170000D02*
X154940000Y-105973802D01*
%TO.N,~RESET*%
X156168399Y-83320803D02*
X156168399Y-102727406D01*
X163834999Y-74449799D02*
X163834999Y-75654203D01*
X165697203Y-73791999D02*
X164492799Y-73791999D01*
X164492799Y-73791999D02*
X163834999Y-74449799D01*
X163834999Y-75654203D02*
X156168399Y-83320803D01*
X166374999Y-73114203D02*
X165697203Y-73791999D01*
X166374999Y-61082001D02*
X166374999Y-73114203D01*
X167640000Y-59817000D02*
X166374999Y-61082001D01*
X115316000Y-105156000D02*
X114554000Y-104394000D01*
X115316000Y-106680000D02*
X115316000Y-105156000D01*
X111760000Y-110236000D02*
X115316000Y-106680000D01*
X111760000Y-112395000D02*
X111760000Y-110236000D01*
%TO.N,V20_JUMPER*%
X109220000Y-69439871D02*
X109220000Y-82550000D01*
X107950000Y-66111198D02*
X107950000Y-68169871D01*
X105410000Y-63571198D02*
X107950000Y-66111198D01*
X105410000Y-57825198D02*
X105410000Y-63571198D01*
X104744801Y-57159999D02*
X105410000Y-57825198D01*
X107950000Y-68169871D02*
X109220000Y-69439871D01*
X102860001Y-57159999D02*
X104744801Y-57159999D01*
X101600000Y-58420000D02*
X102860001Y-57159999D01*
%TO.N,~CE~_BIOS*%
X128270000Y-66040000D02*
X128270000Y-59055010D01*
X129540000Y-67310000D02*
X128270000Y-66040000D01*
%TO.N,ROM_ADDR_JUMPER*%
X106680000Y-109543315D02*
X106680000Y-112395000D01*
X107696000Y-103124000D02*
X107696000Y-108527315D01*
X107696000Y-108527315D02*
X106680000Y-109543315D01*
X107950000Y-85725000D02*
X107950000Y-102870000D01*
X110490000Y-83185000D02*
X107950000Y-85725000D01*
X110490000Y-66789198D02*
X110490000Y-83185000D01*
X107940001Y-64239199D02*
X110490000Y-66789198D01*
X107950000Y-102870000D02*
X107696000Y-103124000D01*
X107940001Y-59680001D02*
X107940001Y-64239199D01*
X106680000Y-58420000D02*
X107940001Y-59680001D01*
%TO.N,ATA_ADDR_JUMPER*%
X102879999Y-62239999D02*
X105410000Y-64770000D01*
X102879999Y-59680001D02*
X102879999Y-62239999D01*
X104140000Y-58420000D02*
X102879999Y-59680001D01*
X104775000Y-98425000D02*
X102870000Y-100330000D01*
X102870000Y-100330000D02*
X105410000Y-97790000D01*
X105410000Y-64770000D02*
X105410000Y-97790000D01*
X104140000Y-111263630D02*
X104140000Y-112395000D01*
X104140000Y-105664397D02*
X104140000Y-111263630D01*
X102870000Y-104394397D02*
X104140000Y-105664397D01*
X102870000Y-100330000D02*
X102870000Y-104394397D01*
%TO.N,A14*%
X134620000Y-138430000D02*
X134620000Y-132715000D01*
X116840000Y-122555000D02*
X116840000Y-121285000D01*
X121920000Y-127635000D02*
X116840000Y-122555000D01*
X121920000Y-132080000D02*
X121920000Y-127635000D01*
X116840000Y-121285000D02*
X116840000Y-120015000D01*
X122555000Y-132715000D02*
X121920000Y-132080000D01*
X105469999Y-120710007D02*
X107314992Y-122555000D01*
X105469999Y-116145001D02*
X105469999Y-120710007D01*
X107950000Y-113665000D02*
X105469999Y-116145001D01*
X107950000Y-109728000D02*
X107950000Y-113665000D01*
X108712000Y-103378000D02*
X108712000Y-108966000D01*
X109220000Y-102870000D02*
X108712000Y-103378000D01*
X108712000Y-108966000D02*
X107950000Y-109728000D01*
X109220000Y-101600000D02*
X109220000Y-102870000D01*
%TO.N,~IOR_OR_MEMR*%
X137160000Y-119380000D02*
X137160000Y-120015000D01*
X142240000Y-114300000D02*
X137160000Y-119380000D01*
D27*
%TO.N,/XTAL2*%
X119380000Y-59055000D02*
X119380000Y-63500000D01*
X120650000Y-57785000D02*
X119380000Y-59055000D01*
X120650000Y-52075000D02*
X120650000Y-57785000D01*
X119380000Y-50805000D02*
X120650000Y-52075000D01*
%TO.N,/XTAL1*%
X118110000Y-62230000D02*
X116840000Y-63500000D01*
X118110000Y-53975000D02*
X118110000Y-62230000D01*
X119380000Y-52705000D02*
X118110000Y-53975000D01*
D22*
%TO.N,~CE~_BIOS_DECODE*%
X110490000Y-57150000D02*
X109220000Y-55880000D01*
X113030000Y-68580000D02*
X111760000Y-69850000D01*
X113030000Y-66410899D02*
X113030000Y-68580000D01*
X111760000Y-69850000D02*
X111760000Y-80645000D01*
X110490000Y-63870899D02*
X110490000Y-57150000D01*
X113030000Y-66410899D02*
X110490000Y-63870899D01*
X116840000Y-110489998D02*
X118617998Y-108712000D01*
X116840000Y-112395000D02*
X116840000Y-110489998D01*
X120649982Y-108712000D02*
X122428000Y-108712000D01*
X122428000Y-108712000D02*
X123190000Y-107950000D01*
X123190000Y-107950000D02*
X123190000Y-89535000D01*
%TD*%
D28*
%TO.N,GND*%
X154787141Y-121567000D02*
X155092859Y-121567000D01*
X155195886Y-121546506D01*
X156175859Y-122526480D01*
X156204104Y-122560896D01*
X156238517Y-122589138D01*
X156238519Y-122589140D01*
X156250908Y-122599307D01*
X156341451Y-122673614D01*
X156498150Y-122757371D01*
X156668177Y-122808948D01*
X156800693Y-122822000D01*
X156800700Y-122822000D01*
X156845000Y-122826363D01*
X156889299Y-122822000D01*
X161551380Y-122822000D01*
X166230001Y-127500622D01*
X166230000Y-129876700D01*
X166225637Y-129921000D01*
X166230000Y-129965299D01*
X166230000Y-129965306D01*
X166243052Y-130097822D01*
X166294629Y-130267849D01*
X166378386Y-130424548D01*
X166491104Y-130561896D01*
X166525523Y-130590143D01*
X169278001Y-133342622D01*
X169278001Y-133858000D01*
X168533855Y-133858000D01*
X168528948Y-133808177D01*
X168516291Y-133766452D01*
X168477371Y-133638150D01*
X168393614Y-133481451D01*
X168309140Y-133378519D01*
X168309138Y-133378517D01*
X168280896Y-133344104D01*
X168246482Y-133315861D01*
X167674143Y-132743523D01*
X167645896Y-132709104D01*
X167508549Y-132596386D01*
X167351850Y-132512629D01*
X167181823Y-132461052D01*
X167049307Y-132448000D01*
X167049299Y-132448000D01*
X167005000Y-132443637D01*
X166960701Y-132448000D01*
X166293879Y-132448000D01*
X162144402Y-128298523D01*
X162116155Y-128264104D01*
X161978808Y-128151386D01*
X161822109Y-128067629D01*
X161652082Y-128016052D01*
X161519566Y-128003000D01*
X161519558Y-128003000D01*
X161475259Y-127998637D01*
X161430960Y-128003000D01*
X157853621Y-128003000D01*
X156646664Y-126796043D01*
X156755677Y-126750889D01*
X156944357Y-126624817D01*
X157104817Y-126464357D01*
X157230889Y-126275677D01*
X157317729Y-126066026D01*
X157362000Y-125843462D01*
X157362000Y-125616538D01*
X157317729Y-125393974D01*
X157230889Y-125184323D01*
X157104817Y-124995643D01*
X156944357Y-124835183D01*
X156755677Y-124709111D01*
X156546026Y-124622271D01*
X156336142Y-124580522D01*
X154572000Y-122816380D01*
X154572000Y-121524205D01*
X154787141Y-121567000D01*
%TA.AperFunction,Conductor*%
D29*
G36*
X154787141Y-121567000D02*
G01*
X155092859Y-121567000D01*
X155195886Y-121546506D01*
X156175859Y-122526480D01*
X156204104Y-122560896D01*
X156238517Y-122589138D01*
X156238519Y-122589140D01*
X156250908Y-122599307D01*
X156341451Y-122673614D01*
X156498150Y-122757371D01*
X156668177Y-122808948D01*
X156800693Y-122822000D01*
X156800700Y-122822000D01*
X156845000Y-122826363D01*
X156889299Y-122822000D01*
X161551380Y-122822000D01*
X166230001Y-127500622D01*
X166230000Y-129876700D01*
X166225637Y-129921000D01*
X166230000Y-129965299D01*
X166230000Y-129965306D01*
X166243052Y-130097822D01*
X166294629Y-130267849D01*
X166378386Y-130424548D01*
X166491104Y-130561896D01*
X166525523Y-130590143D01*
X169278001Y-133342622D01*
X169278001Y-133858000D01*
X168533855Y-133858000D01*
X168528948Y-133808177D01*
X168516291Y-133766452D01*
X168477371Y-133638150D01*
X168393614Y-133481451D01*
X168309140Y-133378519D01*
X168309138Y-133378517D01*
X168280896Y-133344104D01*
X168246482Y-133315861D01*
X167674143Y-132743523D01*
X167645896Y-132709104D01*
X167508549Y-132596386D01*
X167351850Y-132512629D01*
X167181823Y-132461052D01*
X167049307Y-132448000D01*
X167049299Y-132448000D01*
X167005000Y-132443637D01*
X166960701Y-132448000D01*
X166293879Y-132448000D01*
X162144402Y-128298523D01*
X162116155Y-128264104D01*
X161978808Y-128151386D01*
X161822109Y-128067629D01*
X161652082Y-128016052D01*
X161519566Y-128003000D01*
X161519558Y-128003000D01*
X161475259Y-127998637D01*
X161430960Y-128003000D01*
X157853621Y-128003000D01*
X156646664Y-126796043D01*
X156755677Y-126750889D01*
X156944357Y-126624817D01*
X157104817Y-126464357D01*
X157230889Y-126275677D01*
X157317729Y-126066026D01*
X157362000Y-125843462D01*
X157362000Y-125616538D01*
X157317729Y-125393974D01*
X157230889Y-125184323D01*
X157104817Y-124995643D01*
X156944357Y-124835183D01*
X156755677Y-124709111D01*
X156546026Y-124622271D01*
X156336142Y-124580522D01*
X154572000Y-122816380D01*
X154572000Y-121524205D01*
X154787141Y-121567000D01*
G37*
%TD.AperFunction*%
D28*
X195421033Y-43081044D02*
X195512449Y-43108645D01*
X195596759Y-43153473D01*
X195670759Y-43213826D01*
X195731627Y-43287402D01*
X195777043Y-43371398D01*
X195805281Y-43462618D01*
X195819000Y-43593152D01*
X195819000Y-48427318D01*
X195464126Y-48072444D01*
X194808658Y-47634474D01*
X194080340Y-47332795D01*
X193307163Y-47179000D01*
X192518837Y-47179000D01*
X191745660Y-47332795D01*
X191017342Y-47634474D01*
X190361874Y-48072444D01*
X189804444Y-48629874D01*
X189366474Y-49285342D01*
X189064795Y-50013660D01*
X188911000Y-50786837D01*
X188911000Y-51575163D01*
X189064795Y-52348340D01*
X189366474Y-53076658D01*
X189804444Y-53732126D01*
X190361874Y-54289556D01*
X191017342Y-54727526D01*
X191745660Y-55029205D01*
X192518837Y-55183000D01*
X193307163Y-55183000D01*
X194080340Y-55029205D01*
X194808658Y-54727526D01*
X195464126Y-54289556D01*
X195819000Y-53934682D01*
X195819001Y-113959319D01*
X195464126Y-113604444D01*
X194808658Y-113166474D01*
X194080340Y-112864795D01*
X193307163Y-112711000D01*
X192518837Y-112711000D01*
X191745660Y-112864795D01*
X191017342Y-113166474D01*
X190361874Y-113604444D01*
X189804444Y-114161874D01*
X189366474Y-114817342D01*
X189064795Y-115545660D01*
X188911000Y-116318837D01*
X188911000Y-117107163D01*
X189064795Y-117880340D01*
X189366474Y-118608658D01*
X189804444Y-119264126D01*
X190361874Y-119821556D01*
X191017342Y-120259526D01*
X191745660Y-120561205D01*
X192518837Y-120715000D01*
X193307163Y-120715000D01*
X194080340Y-120561205D01*
X194808658Y-120259526D01*
X195464126Y-119821556D01*
X195819001Y-119466681D01*
X195819001Y-133311985D01*
X195805956Y-133445033D01*
X195778355Y-133536449D01*
X195733527Y-133620759D01*
X195673174Y-133694759D01*
X195599595Y-133755629D01*
X195515605Y-133801042D01*
X195424382Y-133829281D01*
X195293848Y-133843000D01*
X177711166Y-133843000D01*
X177673000Y-133839241D01*
X177634834Y-133843000D01*
X177520681Y-133854243D01*
X177508296Y-133858000D01*
X173622000Y-133858000D01*
X173622000Y-133723620D01*
X173961482Y-133384139D01*
X173995896Y-133355896D01*
X174035679Y-133307421D01*
X174108614Y-133218549D01*
X174173460Y-133097230D01*
X174192371Y-133061850D01*
X174243948Y-132891823D01*
X174257000Y-132759307D01*
X174261364Y-132715000D01*
X174257000Y-132670693D01*
X174257000Y-130219307D01*
X174261364Y-130175000D01*
X174243948Y-129998177D01*
X174220552Y-129921052D01*
X174192371Y-129828150D01*
X174108614Y-129671451D01*
X173995896Y-129534104D01*
X173961483Y-129505862D01*
X173389143Y-128933523D01*
X173360896Y-128899104D01*
X173223549Y-128786386D01*
X173066850Y-128702629D01*
X172896823Y-128651052D01*
X172764307Y-128638000D01*
X172764299Y-128638000D01*
X172720000Y-128633637D01*
X172675701Y-128638000D01*
X171823621Y-128638000D01*
X167480621Y-124295000D01*
X173069362Y-124295000D01*
X173069362Y-125895000D01*
X173083881Y-126042418D01*
X173126882Y-126184170D01*
X173196710Y-126314810D01*
X173290683Y-126429317D01*
X173405190Y-126523290D01*
X173535830Y-126593118D01*
X173677582Y-126636119D01*
X173825000Y-126650638D01*
X175425000Y-126650638D01*
X175572418Y-126636119D01*
X175714170Y-126593118D01*
X175844810Y-126523290D01*
X175959317Y-126429317D01*
X176053290Y-126314810D01*
X176086959Y-126251818D01*
X176135658Y-126300517D01*
X176389853Y-126470364D01*
X176672298Y-126587357D01*
X176972141Y-126647000D01*
X177277859Y-126647000D01*
X177577702Y-126587357D01*
X177860147Y-126470364D01*
X178114342Y-126300517D01*
X178330517Y-126084342D01*
X178500364Y-125830147D01*
X178617357Y-125547702D01*
X178677000Y-125247859D01*
X178677000Y-124942141D01*
X178617357Y-124642298D01*
X178500364Y-124359853D01*
X178330517Y-124105658D01*
X178114342Y-123889483D01*
X177860147Y-123719636D01*
X177577702Y-123602643D01*
X177277859Y-123543000D01*
X176972141Y-123543000D01*
X176672298Y-123602643D01*
X176389853Y-123719636D01*
X176135658Y-123889483D01*
X176086959Y-123938182D01*
X176053290Y-123875190D01*
X175959317Y-123760683D01*
X175844810Y-123666710D01*
X175714170Y-123596882D01*
X175572418Y-123553881D01*
X175425000Y-123539362D01*
X173825000Y-123539362D01*
X173677582Y-123553881D01*
X173535830Y-123596882D01*
X173405190Y-123666710D01*
X173290683Y-123760683D01*
X173196710Y-123875190D01*
X173126882Y-124005830D01*
X173083881Y-124147582D01*
X173069362Y-124295000D01*
X167480621Y-124295000D01*
X163864143Y-120678523D01*
X163835896Y-120644104D01*
X163698549Y-120531386D01*
X163541850Y-120447629D01*
X163371823Y-120396052D01*
X163239307Y-120383000D01*
X163239299Y-120383000D01*
X163195000Y-120378637D01*
X163150701Y-120383000D01*
X161529205Y-120383000D01*
X161572000Y-120167859D01*
X161572000Y-119862141D01*
X161512357Y-119562298D01*
X161395364Y-119279853D01*
X161225517Y-119025658D01*
X161009342Y-118809483D01*
X160755147Y-118639636D01*
X160472702Y-118522643D01*
X160172859Y-118463000D01*
X159867141Y-118463000D01*
X159567298Y-118522643D01*
X159284853Y-118639636D01*
X159030658Y-118809483D01*
X158814483Y-119025658D01*
X158750000Y-119122164D01*
X158685517Y-119025658D01*
X158469342Y-118809483D01*
X158215147Y-118639636D01*
X157932702Y-118522643D01*
X157632859Y-118463000D01*
X157327141Y-118463000D01*
X157027298Y-118522643D01*
X156744853Y-118639636D01*
X156490658Y-118809483D01*
X156274483Y-119025658D01*
X156210000Y-119122164D01*
X156145517Y-119025658D01*
X155929342Y-118809483D01*
X155675147Y-118639636D01*
X155392702Y-118522643D01*
X155092859Y-118463000D01*
X154787141Y-118463000D01*
X154572000Y-118505795D01*
X154572000Y-117962818D01*
X156215981Y-116318837D01*
X162368000Y-116318837D01*
X162368000Y-117107163D01*
X162521795Y-117880340D01*
X162823474Y-118608658D01*
X163261444Y-119264126D01*
X163818874Y-119821556D01*
X164474342Y-120259526D01*
X165202660Y-120561205D01*
X165975837Y-120715000D01*
X166764163Y-120715000D01*
X167537340Y-120561205D01*
X168265658Y-120259526D01*
X168921126Y-119821556D01*
X169478556Y-119264126D01*
X169916526Y-118608658D01*
X170218205Y-117880340D01*
X170372000Y-117107163D01*
X170372000Y-116318837D01*
X170218205Y-115545660D01*
X169916526Y-114817342D01*
X169478556Y-114161874D01*
X168921126Y-113604444D01*
X168265658Y-113166474D01*
X167537340Y-112864795D01*
X166764163Y-112711000D01*
X165975837Y-112711000D01*
X165202660Y-112864795D01*
X164474342Y-113166474D01*
X163818874Y-113604444D01*
X163261444Y-114161874D01*
X162823474Y-114817342D01*
X162521795Y-115545660D01*
X162368000Y-116318837D01*
X156215981Y-116318837D01*
X157332818Y-115202000D01*
X159975701Y-115202000D01*
X160020000Y-115206363D01*
X160064299Y-115202000D01*
X160064307Y-115202000D01*
X160196823Y-115188948D01*
X160366850Y-115137371D01*
X160523549Y-115053614D01*
X160660896Y-114940896D01*
X160689143Y-114906477D01*
X161951473Y-113644147D01*
X161985886Y-113615906D01*
X162034498Y-113556673D01*
X162098604Y-113478559D01*
X162107119Y-113462629D01*
X162182361Y-113321860D01*
X162233938Y-113151833D01*
X162246990Y-113019317D01*
X162246990Y-113019310D01*
X162251353Y-112975010D01*
X162246990Y-112930711D01*
X162246990Y-104617307D01*
X162446538Y-104657000D01*
X162673462Y-104657000D01*
X162896026Y-104612729D01*
X163105677Y-104525889D01*
X163294357Y-104399817D01*
X163454817Y-104239357D01*
X163580889Y-104050677D01*
X163667729Y-103841026D01*
X163683678Y-103760847D01*
X163855646Y-104018215D01*
X164078785Y-104241354D01*
X164117167Y-104267000D01*
X164078785Y-104292646D01*
X163855646Y-104515785D01*
X163680326Y-104778169D01*
X163559564Y-105069714D01*
X163498000Y-105379217D01*
X163498000Y-105694783D01*
X163559564Y-106004286D01*
X163680326Y-106295831D01*
X163855646Y-106558215D01*
X164078785Y-106781354D01*
X164117167Y-106807000D01*
X164078785Y-106832646D01*
X163855646Y-107055785D01*
X163680326Y-107318169D01*
X163559564Y-107609714D01*
X163498000Y-107919217D01*
X163498000Y-108234783D01*
X163559564Y-108544286D01*
X163680326Y-108835831D01*
X163855646Y-109098215D01*
X164078785Y-109321354D01*
X164341169Y-109496674D01*
X164632714Y-109617436D01*
X164942217Y-109679000D01*
X165257783Y-109679000D01*
X165567286Y-109617436D01*
X165858831Y-109496674D01*
X166121215Y-109321354D01*
X166344354Y-109098215D01*
X166370000Y-109059833D01*
X166395646Y-109098215D01*
X166618785Y-109321354D01*
X166881169Y-109496674D01*
X167172714Y-109617436D01*
X167482217Y-109679000D01*
X167797783Y-109679000D01*
X168107286Y-109617436D01*
X168398831Y-109496674D01*
X168661215Y-109321354D01*
X168884354Y-109098215D01*
X169059674Y-108835831D01*
X169180436Y-108544286D01*
X169242000Y-108234783D01*
X169242000Y-107919217D01*
X169180436Y-107609714D01*
X169059674Y-107318169D01*
X168884354Y-107055785D01*
X168661215Y-106832646D01*
X168622833Y-106807000D01*
X168661215Y-106781354D01*
X168884354Y-106558215D01*
X169059674Y-106295831D01*
X169180436Y-106004286D01*
X169242000Y-105694783D01*
X169242000Y-105379217D01*
X169180436Y-105069714D01*
X169059674Y-104778169D01*
X169038437Y-104746385D01*
X169643483Y-104141340D01*
X169677896Y-104113098D01*
X169731693Y-104047547D01*
X169790614Y-103975751D01*
X169836207Y-103890452D01*
X169874371Y-103819052D01*
X169925948Y-103649025D01*
X169939000Y-103516509D01*
X169939000Y-103516502D01*
X169943363Y-103472202D01*
X169939000Y-103427903D01*
X169939000Y-96279000D01*
X172238001Y-96279000D01*
X172238000Y-117384298D01*
X170907008Y-118715290D01*
X170840155Y-118770155D01*
X170621217Y-119036931D01*
X170458531Y-119341295D01*
X170358350Y-119671548D01*
X170324523Y-120015000D01*
X170358350Y-120358452D01*
X170458531Y-120688705D01*
X170621217Y-120993069D01*
X170840155Y-121259845D01*
X171106931Y-121478783D01*
X171411295Y-121641469D01*
X171741548Y-121741650D01*
X171998931Y-121767000D01*
X171998939Y-121767000D01*
X172085000Y-121775476D01*
X172171061Y-121767000D01*
X173903931Y-121767000D01*
X173990000Y-121775477D01*
X174076068Y-121767000D01*
X174076069Y-121767000D01*
X174333452Y-121741650D01*
X174663705Y-121641469D01*
X174968069Y-121478783D01*
X175234845Y-121259845D01*
X175453783Y-120993069D01*
X175616469Y-120688705D01*
X175716650Y-120358452D01*
X175731621Y-120206451D01*
X175742000Y-120101069D01*
X175742000Y-120101068D01*
X175750477Y-120015000D01*
X175742000Y-119928931D01*
X175742000Y-118196061D01*
X175750476Y-118110000D01*
X175742000Y-118023939D01*
X175742000Y-66130702D01*
X179599970Y-62272733D01*
X179628051Y-62306949D01*
X179780625Y-62432164D01*
X179954696Y-62525206D01*
X180075989Y-62562000D01*
X180143573Y-62582502D01*
X180163612Y-62584476D01*
X180290777Y-62597000D01*
X180290783Y-62597000D01*
X180339999Y-62601847D01*
X180389215Y-62597000D01*
X181560784Y-62597000D01*
X181610000Y-62601847D01*
X181659216Y-62597000D01*
X181659223Y-62597000D01*
X181806426Y-62582502D01*
X181995304Y-62525206D01*
X182169375Y-62432164D01*
X182321949Y-62306949D01*
X182353332Y-62268709D01*
X182624709Y-61997332D01*
X182662949Y-61965949D01*
X182788164Y-61813375D01*
X182881206Y-61639304D01*
X182938502Y-61450426D01*
X182941909Y-61415839D01*
X182942613Y-61408691D01*
X182948418Y-61408119D01*
X183090170Y-61365118D01*
X183220810Y-61295290D01*
X183335317Y-61201317D01*
X183429290Y-61086810D01*
X183499118Y-60956170D01*
X183542119Y-60814418D01*
X183556638Y-60667000D01*
X183556638Y-58967000D01*
X183542119Y-58819582D01*
X183499118Y-58677830D01*
X183429290Y-58547190D01*
X183335317Y-58432683D01*
X183220810Y-58338710D01*
X183090170Y-58268882D01*
X182953000Y-58227271D01*
X182953000Y-58175223D01*
X182957848Y-58126000D01*
X182938502Y-57929573D01*
X182894646Y-57785001D01*
X182881206Y-57740696D01*
X182788164Y-57566625D01*
X182662949Y-57414051D01*
X182624709Y-57382668D01*
X182353332Y-57111291D01*
X182321949Y-57073051D01*
X182169375Y-56947836D01*
X181995304Y-56854794D01*
X181806426Y-56797498D01*
X181659223Y-56783000D01*
X181659216Y-56783000D01*
X181610000Y-56778153D01*
X181560784Y-56783000D01*
X180389223Y-56783000D01*
X180340000Y-56778152D01*
X180143573Y-56797498D01*
X179954696Y-56854794D01*
X179780625Y-56947836D01*
X179628051Y-57073051D01*
X179596668Y-57111291D01*
X179031286Y-57676673D01*
X178993052Y-57708051D01*
X178961674Y-57746285D01*
X178867837Y-57860625D01*
X178774794Y-58034697D01*
X178717498Y-58223574D01*
X178716385Y-58234872D01*
X178527010Y-58390289D01*
X177892014Y-59025284D01*
X177892008Y-59025289D01*
X172812003Y-64105295D01*
X172745156Y-64160155D01*
X172690296Y-64227002D01*
X172690289Y-64227009D01*
X172526217Y-64426932D01*
X172363532Y-64731295D01*
X172263350Y-65061549D01*
X172229524Y-65405000D01*
X172238001Y-65491071D01*
X172238000Y-94475000D01*
X169081307Y-94475000D01*
X169037000Y-94470636D01*
X168992693Y-94475000D01*
X168964011Y-94475000D01*
X168884354Y-94355785D01*
X168661215Y-94132646D01*
X168622833Y-94107000D01*
X168661215Y-94081354D01*
X168884354Y-93858215D01*
X169059674Y-93595831D01*
X169180436Y-93304286D01*
X169242000Y-92994783D01*
X169242000Y-92679217D01*
X169180436Y-92369714D01*
X169059674Y-92078169D01*
X168884354Y-91815785D01*
X168661215Y-91592646D01*
X168622833Y-91567000D01*
X168661215Y-91541354D01*
X168884354Y-91318215D01*
X169059674Y-91055831D01*
X169180436Y-90764286D01*
X169242000Y-90454783D01*
X169242000Y-90139217D01*
X169180436Y-89829714D01*
X169059674Y-89538169D01*
X168884354Y-89275785D01*
X168661215Y-89052646D01*
X168622833Y-89027000D01*
X168661215Y-89001354D01*
X168884354Y-88778215D01*
X169059674Y-88515831D01*
X169180436Y-88224286D01*
X169242000Y-87914783D01*
X169242000Y-87599217D01*
X169180436Y-87289714D01*
X169059674Y-86998169D01*
X168884354Y-86735785D01*
X168661215Y-86512646D01*
X168622833Y-86487000D01*
X168661215Y-86461354D01*
X168884354Y-86238215D01*
X169059674Y-85975831D01*
X169180436Y-85684286D01*
X169242000Y-85374783D01*
X169242000Y-85059217D01*
X169180436Y-84749714D01*
X169059674Y-84458169D01*
X168884354Y-84195785D01*
X168661215Y-83972646D01*
X168622833Y-83947000D01*
X168661215Y-83921354D01*
X168884354Y-83698215D01*
X169059674Y-83435831D01*
X169180436Y-83144286D01*
X169242000Y-82834783D01*
X169242000Y-82519217D01*
X169180436Y-82209714D01*
X169059674Y-81918169D01*
X168884354Y-81655785D01*
X168661215Y-81432646D01*
X168622833Y-81407000D01*
X168661215Y-81381354D01*
X168884354Y-81158215D01*
X169059674Y-80895831D01*
X169180436Y-80604286D01*
X169242000Y-80294783D01*
X169242000Y-79979217D01*
X169180436Y-79669714D01*
X169059674Y-79378169D01*
X168884354Y-79115785D01*
X168661215Y-78892646D01*
X168622833Y-78867000D01*
X168661215Y-78841354D01*
X168884354Y-78618215D01*
X169059674Y-78355831D01*
X169180436Y-78064286D01*
X169242000Y-77754783D01*
X169242000Y-77439217D01*
X169180436Y-77129714D01*
X169059674Y-76838169D01*
X168884354Y-76575785D01*
X168661215Y-76352646D01*
X168622833Y-76327000D01*
X168661215Y-76301354D01*
X168884354Y-76078215D01*
X169059674Y-75815831D01*
X169180436Y-75524286D01*
X169242000Y-75214783D01*
X169242000Y-74899217D01*
X169180436Y-74589714D01*
X169059674Y-74298169D01*
X168884354Y-74035785D01*
X168661215Y-73812646D01*
X168622833Y-73787000D01*
X168661215Y-73761354D01*
X168884354Y-73538215D01*
X169059674Y-73275831D01*
X169180436Y-72984286D01*
X169242000Y-72674783D01*
X169242000Y-72359217D01*
X169180436Y-72049714D01*
X169059674Y-71758169D01*
X168884354Y-71495785D01*
X168661215Y-71272646D01*
X168622833Y-71247000D01*
X168661215Y-71221354D01*
X168884354Y-70998215D01*
X169059674Y-70735831D01*
X169180436Y-70444286D01*
X169242000Y-70134783D01*
X169242000Y-69819217D01*
X169180436Y-69509714D01*
X169059674Y-69218169D01*
X168884354Y-68955785D01*
X168661215Y-68732646D01*
X168622833Y-68707000D01*
X168661215Y-68681354D01*
X168884354Y-68458215D01*
X169059674Y-68195831D01*
X169180436Y-67904286D01*
X169242000Y-67594783D01*
X169242000Y-67279217D01*
X169180436Y-66969714D01*
X169059674Y-66678169D01*
X168884354Y-66415785D01*
X168661215Y-66192646D01*
X168622833Y-66167000D01*
X168661215Y-66141354D01*
X168884354Y-65918215D01*
X169059674Y-65655831D01*
X169180436Y-65364286D01*
X169242000Y-65054783D01*
X169242000Y-64739217D01*
X169180436Y-64429714D01*
X169059674Y-64138169D01*
X168884354Y-63875785D01*
X168661215Y-63652646D01*
X168622833Y-63627000D01*
X168661215Y-63601354D01*
X168884354Y-63378215D01*
X169059674Y-63115831D01*
X169180436Y-62824286D01*
X169242000Y-62514783D01*
X169242000Y-62199217D01*
X169180436Y-61889714D01*
X169059674Y-61598169D01*
X168884354Y-61335785D01*
X168866831Y-61318262D01*
X168909810Y-61295290D01*
X169024317Y-61201317D01*
X169118290Y-61086810D01*
X169188118Y-60956170D01*
X169231119Y-60814418D01*
X169245638Y-60667000D01*
X169245638Y-58967000D01*
X169231119Y-58819582D01*
X169188118Y-58677830D01*
X169118290Y-58547190D01*
X169024317Y-58432683D01*
X168909810Y-58338710D01*
X168779170Y-58268882D01*
X168637418Y-58225881D01*
X168490000Y-58211362D01*
X166790000Y-58211362D01*
X166642582Y-58225881D01*
X166500830Y-58268882D01*
X166370190Y-58338710D01*
X166255683Y-58432683D01*
X166161710Y-58547190D01*
X166138738Y-58590169D01*
X166121215Y-58572646D01*
X165858831Y-58397326D01*
X165567286Y-58276564D01*
X165257783Y-58215000D01*
X164942217Y-58215000D01*
X164632714Y-58276564D01*
X164341169Y-58397326D01*
X164078785Y-58572646D01*
X163855646Y-58795785D01*
X163680326Y-59058169D01*
X163559564Y-59349714D01*
X163498000Y-59659217D01*
X163498000Y-59974783D01*
X163559564Y-60284286D01*
X163680326Y-60575831D01*
X163855646Y-60838215D01*
X164078785Y-61061354D01*
X164117167Y-61087000D01*
X164078785Y-61112646D01*
X163855646Y-61335785D01*
X163680326Y-61598169D01*
X163559564Y-61889714D01*
X163498000Y-62199217D01*
X163498000Y-62385702D01*
X163308462Y-62348000D01*
X163081538Y-62348000D01*
X162858974Y-62392271D01*
X162649323Y-62479111D01*
X162460643Y-62605183D01*
X162300183Y-62765643D01*
X162174111Y-62954323D01*
X162087271Y-63163974D01*
X162043000Y-63386538D01*
X162043000Y-63613462D01*
X162087271Y-63836026D01*
X162174111Y-64045677D01*
X162293001Y-64223608D01*
X162293001Y-64945515D01*
X162261026Y-64932271D01*
X162038462Y-64888000D01*
X161811538Y-64888000D01*
X161588974Y-64932271D01*
X161379323Y-65019111D01*
X161190643Y-65145183D01*
X161030183Y-65305643D01*
X160904111Y-65494323D01*
X160817271Y-65703974D01*
X160773000Y-65926538D01*
X160773000Y-66153462D01*
X160817271Y-66376026D01*
X160904111Y-66585677D01*
X161023001Y-66763608D01*
X161023001Y-67485515D01*
X160991026Y-67472271D01*
X160768462Y-67428000D01*
X160541538Y-67428000D01*
X160318974Y-67472271D01*
X160109323Y-67559111D01*
X159920643Y-67685183D01*
X159760183Y-67845643D01*
X159634111Y-68034323D01*
X159547271Y-68243974D01*
X159503000Y-68466538D01*
X159503000Y-68693462D01*
X159547271Y-68916026D01*
X159634111Y-69125677D01*
X159753001Y-69303608D01*
X159753001Y-70025515D01*
X159721026Y-70012271D01*
X159498462Y-69968000D01*
X159271538Y-69968000D01*
X159048974Y-70012271D01*
X158839323Y-70099111D01*
X158650643Y-70225183D01*
X158490183Y-70385643D01*
X158364111Y-70574323D01*
X158277271Y-70783974D01*
X158233000Y-71006538D01*
X158233000Y-71233462D01*
X158277271Y-71456026D01*
X158364111Y-71665677D01*
X158483001Y-71843608D01*
X158483000Y-73087560D01*
X158374811Y-72925643D01*
X158214351Y-72765183D01*
X158025671Y-72639111D01*
X157816020Y-72552271D01*
X157593456Y-72508000D01*
X157366532Y-72508000D01*
X157143968Y-72552271D01*
X156934317Y-72639111D01*
X156745637Y-72765183D01*
X156585177Y-72925643D01*
X156459105Y-73114323D01*
X156372265Y-73323974D01*
X156327994Y-73546538D01*
X156327994Y-73773462D01*
X156372265Y-73996026D01*
X156459105Y-74205677D01*
X156577994Y-74383607D01*
X156577995Y-75191384D01*
X147983523Y-83785857D01*
X147949104Y-83814104D01*
X147836386Y-83951452D01*
X147752629Y-84108151D01*
X147701052Y-84278178D01*
X147693118Y-84358727D01*
X147569111Y-84544317D01*
X147482271Y-84753968D01*
X147440522Y-84963852D01*
X146713518Y-85690856D01*
X146679105Y-85719098D01*
X146650863Y-85753511D01*
X146650860Y-85753514D01*
X146621951Y-85788740D01*
X146566387Y-85856445D01*
X146503181Y-85974695D01*
X146482630Y-86013144D01*
X146431052Y-86183172D01*
X146413637Y-86359994D01*
X146418001Y-86404304D01*
X146418001Y-89710515D01*
X146386026Y-89697271D01*
X146163462Y-89653000D01*
X145936538Y-89653000D01*
X145713974Y-89697271D01*
X145504323Y-89784111D01*
X145315643Y-89910183D01*
X145155183Y-90070643D01*
X145029111Y-90259323D01*
X144942271Y-90468974D01*
X144898000Y-90691538D01*
X144898000Y-90918462D01*
X144942271Y-91141026D01*
X145029111Y-91350677D01*
X145148000Y-91528607D01*
X145148001Y-104620984D01*
X145057535Y-104572629D01*
X144887508Y-104521052D01*
X144754992Y-104508000D01*
X144754984Y-104508000D01*
X144710685Y-104503637D01*
X144666386Y-104508000D01*
X144625419Y-104508000D01*
X143045664Y-102928246D01*
X143229342Y-102805517D01*
X143445517Y-102589342D01*
X143615364Y-102335147D01*
X143732357Y-102052702D01*
X143792000Y-101752859D01*
X143792000Y-101447141D01*
X143732357Y-101147298D01*
X143615364Y-100864853D01*
X143445517Y-100610658D01*
X143229342Y-100394483D01*
X142975147Y-100224636D01*
X142692702Y-100107643D01*
X142392859Y-100048000D01*
X142087141Y-100048000D01*
X141787298Y-100107643D01*
X141504853Y-100224636D01*
X141250658Y-100394483D01*
X141034483Y-100610658D01*
X140970000Y-100707164D01*
X140905517Y-100610658D01*
X140689342Y-100394483D01*
X140602000Y-100336123D01*
X140602000Y-89273620D01*
X141576478Y-88299142D01*
X141610896Y-88270896D01*
X141723614Y-88133549D01*
X141807371Y-87976850D01*
X141841844Y-87863207D01*
X142087141Y-87912000D01*
X142392859Y-87912000D01*
X142692702Y-87852357D01*
X142975147Y-87735364D01*
X143229342Y-87565517D01*
X143445517Y-87349342D01*
X143615364Y-87095147D01*
X143732357Y-86812702D01*
X143792000Y-86512859D01*
X143792000Y-86207141D01*
X143732357Y-85907298D01*
X143615364Y-85624853D01*
X143445517Y-85370658D01*
X143229342Y-85154483D01*
X143143662Y-85097234D01*
X143142000Y-85080357D01*
X143142000Y-85080350D01*
X143128948Y-84947834D01*
X143077371Y-84777807D01*
X142993614Y-84621108D01*
X142966225Y-84587734D01*
X142909140Y-84518176D01*
X142909138Y-84518174D01*
X142880896Y-84483761D01*
X142846482Y-84455518D01*
X142476355Y-84085391D01*
X142692702Y-84042357D01*
X142975147Y-83925364D01*
X143229342Y-83755517D01*
X143445517Y-83539342D01*
X143615364Y-83285147D01*
X143732357Y-83002702D01*
X143792000Y-82702859D01*
X143792000Y-82397141D01*
X143732357Y-82097298D01*
X143615364Y-81814853D01*
X143445517Y-81560658D01*
X143229342Y-81344483D01*
X142975147Y-81174636D01*
X142692702Y-81057643D01*
X142392859Y-80998000D01*
X142087141Y-80998000D01*
X141931999Y-81028860D01*
X141931999Y-68893621D01*
X141984114Y-68841506D01*
X142087141Y-68862000D01*
X142392859Y-68862000D01*
X142692702Y-68802357D01*
X142975147Y-68685364D01*
X143229342Y-68515517D01*
X143394859Y-68350000D01*
X146969362Y-68350000D01*
X146969362Y-71350000D01*
X146983881Y-71497418D01*
X147026882Y-71639170D01*
X147096710Y-71769810D01*
X147190683Y-71884317D01*
X147305190Y-71978290D01*
X147435830Y-72048118D01*
X147577582Y-72091119D01*
X147725000Y-72105638D01*
X150725000Y-72105638D01*
X150872418Y-72091119D01*
X151014170Y-72048118D01*
X151144810Y-71978290D01*
X151259317Y-71884317D01*
X151353290Y-71769810D01*
X151423118Y-71639170D01*
X151466119Y-71497418D01*
X151480638Y-71350000D01*
X151480638Y-68350000D01*
X151466119Y-68202582D01*
X151423118Y-68060830D01*
X151353290Y-67930190D01*
X151259317Y-67815683D01*
X151144810Y-67721710D01*
X151014170Y-67651882D01*
X150872418Y-67608881D01*
X150725000Y-67594362D01*
X147725000Y-67594362D01*
X147577582Y-67608881D01*
X147435830Y-67651882D01*
X147305190Y-67721710D01*
X147190683Y-67815683D01*
X147096710Y-67930190D01*
X147026882Y-68060830D01*
X146983881Y-68202582D01*
X146969362Y-68350000D01*
X143394859Y-68350000D01*
X143445517Y-68299342D01*
X143615364Y-68045147D01*
X143732357Y-67762702D01*
X143792000Y-67462859D01*
X143792000Y-67157141D01*
X143732357Y-66857298D01*
X143615364Y-66574853D01*
X143445517Y-66320658D01*
X143229342Y-66104483D01*
X142975147Y-65934636D01*
X142692702Y-65817643D01*
X142392859Y-65758000D01*
X142087141Y-65758000D01*
X141787298Y-65817643D01*
X141504853Y-65934636D01*
X141250658Y-66104483D01*
X141034483Y-66320658D01*
X140970000Y-66417164D01*
X140905517Y-66320658D01*
X140689342Y-66104483D01*
X140435147Y-65934636D01*
X140152702Y-65817643D01*
X139852859Y-65758000D01*
X139547141Y-65758000D01*
X139247298Y-65817643D01*
X138964853Y-65934636D01*
X138710658Y-66104483D01*
X138494483Y-66320658D01*
X138430000Y-66417164D01*
X138365517Y-66320658D01*
X138149342Y-66104483D01*
X137895147Y-65934636D01*
X137612702Y-65817643D01*
X137312859Y-65758000D01*
X137007141Y-65758000D01*
X136707298Y-65817643D01*
X136425139Y-65934518D01*
X135361644Y-64871023D01*
X135609342Y-64705517D01*
X135825517Y-64489342D01*
X135995364Y-64235147D01*
X136112357Y-63952702D01*
X136172000Y-63652859D01*
X136172000Y-63347141D01*
X136112357Y-63047298D01*
X135995364Y-62764853D01*
X135825517Y-62510658D01*
X135609342Y-62294483D01*
X135355147Y-62124636D01*
X135072702Y-62007643D01*
X134772859Y-61948000D01*
X134467141Y-61948000D01*
X134167298Y-62007643D01*
X133884853Y-62124636D01*
X133630658Y-62294483D01*
X133414483Y-62510658D01*
X133350000Y-62607164D01*
X133285517Y-62510658D01*
X133069342Y-62294483D01*
X132815147Y-62124636D01*
X132532702Y-62007643D01*
X132232859Y-61948000D01*
X131927141Y-61948000D01*
X131627298Y-62007643D01*
X131344853Y-62124636D01*
X131090658Y-62294483D01*
X130874483Y-62510658D01*
X130810000Y-62607164D01*
X130745517Y-62510658D01*
X130529342Y-62294483D01*
X130275147Y-62124636D01*
X129992702Y-62007643D01*
X129692859Y-61948000D01*
X129387141Y-61948000D01*
X129172000Y-61990795D01*
X129172000Y-59778617D01*
X129290889Y-59600687D01*
X129377729Y-59391036D01*
X129422000Y-59168472D01*
X129422000Y-58941548D01*
X129377729Y-58718984D01*
X129290889Y-58509333D01*
X129164817Y-58320653D01*
X129004357Y-58160193D01*
X128815677Y-58034121D01*
X128606026Y-57947281D01*
X128383462Y-57903010D01*
X128156538Y-57903010D01*
X127933974Y-57947281D01*
X127724323Y-58034121D01*
X127535643Y-58160193D01*
X127375183Y-58320653D01*
X127249111Y-58509333D01*
X127162271Y-58718984D01*
X127118000Y-58941548D01*
X127118000Y-59168472D01*
X127162271Y-59391036D01*
X127249111Y-59600687D01*
X127368001Y-59778618D01*
X127368001Y-61990795D01*
X127152859Y-61948000D01*
X126847141Y-61948000D01*
X126547298Y-62007643D01*
X126264853Y-62124636D01*
X126010658Y-62294483D01*
X125794483Y-62510658D01*
X125730000Y-62607164D01*
X125665517Y-62510658D01*
X125449342Y-62294483D01*
X125195147Y-62124636D01*
X124912702Y-62007643D01*
X124612859Y-61948000D01*
X124307141Y-61948000D01*
X124007298Y-62007643D01*
X123724853Y-62124636D01*
X123470658Y-62294483D01*
X123254483Y-62510658D01*
X123190000Y-62607164D01*
X123125517Y-62510658D01*
X122909342Y-62294483D01*
X122655147Y-62124636D01*
X122372702Y-62007643D01*
X122185262Y-61970358D01*
X126744114Y-57411507D01*
X126847141Y-57432000D01*
X127152859Y-57432000D01*
X127452702Y-57372357D01*
X127735147Y-57255364D01*
X127989342Y-57085517D01*
X128205517Y-56869342D01*
X128270000Y-56772836D01*
X128334483Y-56869342D01*
X128550658Y-57085517D01*
X128804853Y-57255364D01*
X129087298Y-57372357D01*
X129387141Y-57432000D01*
X129692859Y-57432000D01*
X129992702Y-57372357D01*
X130275147Y-57255364D01*
X130529342Y-57085517D01*
X130745517Y-56869342D01*
X130810000Y-56772836D01*
X130874483Y-56869342D01*
X131090658Y-57085517D01*
X131344853Y-57255364D01*
X131627298Y-57372357D01*
X131927141Y-57432000D01*
X132232859Y-57432000D01*
X132532702Y-57372357D01*
X132815147Y-57255364D01*
X133069342Y-57085517D01*
X133285517Y-56869342D01*
X133350000Y-56772836D01*
X133414483Y-56869342D01*
X133630658Y-57085517D01*
X133884853Y-57255364D01*
X134167298Y-57372357D01*
X134467141Y-57432000D01*
X134772859Y-57432000D01*
X135072702Y-57372357D01*
X135355147Y-57255364D01*
X135609342Y-57085517D01*
X135825517Y-56869342D01*
X135995364Y-56615147D01*
X136112357Y-56332702D01*
X136172000Y-56032859D01*
X136172000Y-55727141D01*
X136112357Y-55427298D01*
X135995364Y-55144853D01*
X135825517Y-54890658D01*
X135609342Y-54674483D01*
X135355147Y-54504636D01*
X135072702Y-54387643D01*
X134772859Y-54328000D01*
X134467141Y-54328000D01*
X134167298Y-54387643D01*
X133884853Y-54504636D01*
X133630658Y-54674483D01*
X133414483Y-54890658D01*
X133350000Y-54987164D01*
X133285517Y-54890658D01*
X133069342Y-54674483D01*
X132815147Y-54504636D01*
X132532702Y-54387643D01*
X132232859Y-54328000D01*
X131927141Y-54328000D01*
X131627298Y-54387643D01*
X131344853Y-54504636D01*
X131090658Y-54674483D01*
X130874483Y-54890658D01*
X130810000Y-54987164D01*
X130745517Y-54890658D01*
X130529342Y-54674483D01*
X130275147Y-54504636D01*
X129992702Y-54387643D01*
X129692859Y-54328000D01*
X129387141Y-54328000D01*
X129087298Y-54387643D01*
X128804853Y-54504636D01*
X128550658Y-54674483D01*
X128334483Y-54890658D01*
X128270000Y-54987164D01*
X128205517Y-54890658D01*
X127989342Y-54674483D01*
X127735147Y-54504636D01*
X127452702Y-54387643D01*
X127152859Y-54328000D01*
X126847141Y-54328000D01*
X126547298Y-54387643D01*
X126264853Y-54504636D01*
X126010658Y-54674483D01*
X125794483Y-54890658D01*
X125730000Y-54987164D01*
X125665517Y-54890658D01*
X125449342Y-54674483D01*
X125195147Y-54504636D01*
X124912702Y-54387643D01*
X124612859Y-54328000D01*
X124307141Y-54328000D01*
X124007298Y-54387643D01*
X123724853Y-54504636D01*
X123470658Y-54674483D01*
X123254483Y-54890658D01*
X123190000Y-54987164D01*
X123125517Y-54890658D01*
X122909342Y-54674483D01*
X122655147Y-54504636D01*
X122372702Y-54387643D01*
X122072859Y-54328000D01*
X121767141Y-54328000D01*
X121527000Y-54375767D01*
X121527000Y-52118069D01*
X121531242Y-52074999D01*
X121527000Y-52031930D01*
X121527000Y-52031921D01*
X121514310Y-51903078D01*
X121464162Y-51737763D01*
X121382727Y-51585408D01*
X121273133Y-51451867D01*
X121239669Y-51424404D01*
X120632000Y-50816735D01*
X120632000Y-50681689D01*
X120583886Y-50439805D01*
X120489508Y-50211956D01*
X120352492Y-50006896D01*
X120178104Y-49832508D01*
X119973044Y-49695492D01*
X119745195Y-49601114D01*
X119503311Y-49553000D01*
X119256689Y-49553000D01*
X119014805Y-49601114D01*
X118786956Y-49695492D01*
X118581896Y-49832508D01*
X118407508Y-50006896D01*
X118270492Y-50211956D01*
X118176114Y-50439805D01*
X118128000Y-50681689D01*
X118128000Y-50928311D01*
X118176114Y-51170195D01*
X118270492Y-51398044D01*
X118407508Y-51603104D01*
X118559404Y-51755000D01*
X118407508Y-51906896D01*
X118270492Y-52111956D01*
X118176114Y-52339805D01*
X118128000Y-52581689D01*
X118128000Y-52716735D01*
X117520332Y-53324403D01*
X117486867Y-53351867D01*
X117377273Y-53485409D01*
X117321531Y-53589696D01*
X117295838Y-53637764D01*
X117245690Y-53803078D01*
X117228757Y-53975000D01*
X117233000Y-54018080D01*
X117233000Y-54375767D01*
X116992859Y-54328000D01*
X116705042Y-54328000D01*
X116502002Y-54124960D01*
X116561469Y-54013705D01*
X116661650Y-53683452D01*
X116695477Y-53340000D01*
X116661650Y-52996548D01*
X116561469Y-52666295D01*
X116398783Y-52361931D01*
X116179845Y-52095155D01*
X115913069Y-51876217D01*
X115608705Y-51713531D01*
X115278452Y-51613350D01*
X115021069Y-51588000D01*
X100416061Y-51588000D01*
X100330000Y-51579524D01*
X100243939Y-51588000D01*
X100243931Y-51588000D01*
X99986548Y-51613350D01*
X99656295Y-51713531D01*
X99351931Y-51876217D01*
X99162206Y-52031921D01*
X99085155Y-52095155D01*
X99030290Y-52162008D01*
X97424000Y-53768298D01*
X97424000Y-49138197D01*
X146973000Y-49138197D01*
X146973000Y-49581803D01*
X147059544Y-50016884D01*
X147229304Y-50426722D01*
X147475758Y-50795566D01*
X147789434Y-51109242D01*
X148158278Y-51355696D01*
X148568116Y-51525456D01*
X149003197Y-51612000D01*
X149446803Y-51612000D01*
X149881884Y-51525456D01*
X150291722Y-51355696D01*
X150660566Y-51109242D01*
X150974242Y-50795566D01*
X150980074Y-50786837D01*
X162368000Y-50786837D01*
X162368000Y-51575163D01*
X162521795Y-52348340D01*
X162823474Y-53076658D01*
X163261444Y-53732126D01*
X163818874Y-54289556D01*
X164474342Y-54727526D01*
X165202660Y-55029205D01*
X165975837Y-55183000D01*
X166764163Y-55183000D01*
X167537340Y-55029205D01*
X168265658Y-54727526D01*
X168921126Y-54289556D01*
X169478556Y-53732126D01*
X169916526Y-53076658D01*
X170218205Y-52348340D01*
X170372000Y-51575163D01*
X170372000Y-50786837D01*
X170218205Y-50013660D01*
X169916526Y-49285342D01*
X169478556Y-48629874D01*
X168921126Y-48072444D01*
X168265658Y-47634474D01*
X167537340Y-47332795D01*
X166764163Y-47179000D01*
X165975837Y-47179000D01*
X165202660Y-47332795D01*
X164474342Y-47634474D01*
X163818874Y-48072444D01*
X163261444Y-48629874D01*
X162823474Y-49285342D01*
X162521795Y-50013660D01*
X162368000Y-50786837D01*
X150980074Y-50786837D01*
X151220696Y-50426722D01*
X151390456Y-50016884D01*
X151477000Y-49581803D01*
X151477000Y-49138197D01*
X151390456Y-48703116D01*
X151220696Y-48293278D01*
X150974242Y-47924434D01*
X150660566Y-47610758D01*
X150291722Y-47364304D01*
X149881884Y-47194544D01*
X149446803Y-47108000D01*
X149003197Y-47108000D01*
X148568116Y-47194544D01*
X148158278Y-47364304D01*
X147789434Y-47610758D01*
X147475758Y-47924434D01*
X147229304Y-48293278D01*
X147059544Y-48703116D01*
X146973000Y-49138197D01*
X97424000Y-49138197D01*
X97424000Y-43599005D01*
X97437044Y-43465967D01*
X97464645Y-43374551D01*
X97509473Y-43290241D01*
X97569826Y-43216241D01*
X97643402Y-43155373D01*
X97727398Y-43109957D01*
X97818618Y-43081719D01*
X97949152Y-43068000D01*
X195287995Y-43068000D01*
X195421033Y-43081044D01*
%TA.AperFunction,Conductor*%
D29*
G36*
X195421033Y-43081044D02*
G01*
X195512449Y-43108645D01*
X195596759Y-43153473D01*
X195670759Y-43213826D01*
X195731627Y-43287402D01*
X195777043Y-43371398D01*
X195805281Y-43462618D01*
X195819000Y-43593152D01*
X195819000Y-48427318D01*
X195464126Y-48072444D01*
X194808658Y-47634474D01*
X194080340Y-47332795D01*
X193307163Y-47179000D01*
X192518837Y-47179000D01*
X191745660Y-47332795D01*
X191017342Y-47634474D01*
X190361874Y-48072444D01*
X189804444Y-48629874D01*
X189366474Y-49285342D01*
X189064795Y-50013660D01*
X188911000Y-50786837D01*
X188911000Y-51575163D01*
X189064795Y-52348340D01*
X189366474Y-53076658D01*
X189804444Y-53732126D01*
X190361874Y-54289556D01*
X191017342Y-54727526D01*
X191745660Y-55029205D01*
X192518837Y-55183000D01*
X193307163Y-55183000D01*
X194080340Y-55029205D01*
X194808658Y-54727526D01*
X195464126Y-54289556D01*
X195819000Y-53934682D01*
X195819001Y-113959319D01*
X195464126Y-113604444D01*
X194808658Y-113166474D01*
X194080340Y-112864795D01*
X193307163Y-112711000D01*
X192518837Y-112711000D01*
X191745660Y-112864795D01*
X191017342Y-113166474D01*
X190361874Y-113604444D01*
X189804444Y-114161874D01*
X189366474Y-114817342D01*
X189064795Y-115545660D01*
X188911000Y-116318837D01*
X188911000Y-117107163D01*
X189064795Y-117880340D01*
X189366474Y-118608658D01*
X189804444Y-119264126D01*
X190361874Y-119821556D01*
X191017342Y-120259526D01*
X191745660Y-120561205D01*
X192518837Y-120715000D01*
X193307163Y-120715000D01*
X194080340Y-120561205D01*
X194808658Y-120259526D01*
X195464126Y-119821556D01*
X195819001Y-119466681D01*
X195819001Y-133311985D01*
X195805956Y-133445033D01*
X195778355Y-133536449D01*
X195733527Y-133620759D01*
X195673174Y-133694759D01*
X195599595Y-133755629D01*
X195515605Y-133801042D01*
X195424382Y-133829281D01*
X195293848Y-133843000D01*
X177711166Y-133843000D01*
X177673000Y-133839241D01*
X177634834Y-133843000D01*
X177520681Y-133854243D01*
X177508296Y-133858000D01*
X173622000Y-133858000D01*
X173622000Y-133723620D01*
X173961482Y-133384139D01*
X173995896Y-133355896D01*
X174035679Y-133307421D01*
X174108614Y-133218549D01*
X174173460Y-133097230D01*
X174192371Y-133061850D01*
X174243948Y-132891823D01*
X174257000Y-132759307D01*
X174261364Y-132715000D01*
X174257000Y-132670693D01*
X174257000Y-130219307D01*
X174261364Y-130175000D01*
X174243948Y-129998177D01*
X174220552Y-129921052D01*
X174192371Y-129828150D01*
X174108614Y-129671451D01*
X173995896Y-129534104D01*
X173961483Y-129505862D01*
X173389143Y-128933523D01*
X173360896Y-128899104D01*
X173223549Y-128786386D01*
X173066850Y-128702629D01*
X172896823Y-128651052D01*
X172764307Y-128638000D01*
X172764299Y-128638000D01*
X172720000Y-128633637D01*
X172675701Y-128638000D01*
X171823621Y-128638000D01*
X167480621Y-124295000D01*
X173069362Y-124295000D01*
X173069362Y-125895000D01*
X173083881Y-126042418D01*
X173126882Y-126184170D01*
X173196710Y-126314810D01*
X173290683Y-126429317D01*
X173405190Y-126523290D01*
X173535830Y-126593118D01*
X173677582Y-126636119D01*
X173825000Y-126650638D01*
X175425000Y-126650638D01*
X175572418Y-126636119D01*
X175714170Y-126593118D01*
X175844810Y-126523290D01*
X175959317Y-126429317D01*
X176053290Y-126314810D01*
X176086959Y-126251818D01*
X176135658Y-126300517D01*
X176389853Y-126470364D01*
X176672298Y-126587357D01*
X176972141Y-126647000D01*
X177277859Y-126647000D01*
X177577702Y-126587357D01*
X177860147Y-126470364D01*
X178114342Y-126300517D01*
X178330517Y-126084342D01*
X178500364Y-125830147D01*
X178617357Y-125547702D01*
X178677000Y-125247859D01*
X178677000Y-124942141D01*
X178617357Y-124642298D01*
X178500364Y-124359853D01*
X178330517Y-124105658D01*
X178114342Y-123889483D01*
X177860147Y-123719636D01*
X177577702Y-123602643D01*
X177277859Y-123543000D01*
X176972141Y-123543000D01*
X176672298Y-123602643D01*
X176389853Y-123719636D01*
X176135658Y-123889483D01*
X176086959Y-123938182D01*
X176053290Y-123875190D01*
X175959317Y-123760683D01*
X175844810Y-123666710D01*
X175714170Y-123596882D01*
X175572418Y-123553881D01*
X175425000Y-123539362D01*
X173825000Y-123539362D01*
X173677582Y-123553881D01*
X173535830Y-123596882D01*
X173405190Y-123666710D01*
X173290683Y-123760683D01*
X173196710Y-123875190D01*
X173126882Y-124005830D01*
X173083881Y-124147582D01*
X173069362Y-124295000D01*
X167480621Y-124295000D01*
X163864143Y-120678523D01*
X163835896Y-120644104D01*
X163698549Y-120531386D01*
X163541850Y-120447629D01*
X163371823Y-120396052D01*
X163239307Y-120383000D01*
X163239299Y-120383000D01*
X163195000Y-120378637D01*
X163150701Y-120383000D01*
X161529205Y-120383000D01*
X161572000Y-120167859D01*
X161572000Y-119862141D01*
X161512357Y-119562298D01*
X161395364Y-119279853D01*
X161225517Y-119025658D01*
X161009342Y-118809483D01*
X160755147Y-118639636D01*
X160472702Y-118522643D01*
X160172859Y-118463000D01*
X159867141Y-118463000D01*
X159567298Y-118522643D01*
X159284853Y-118639636D01*
X159030658Y-118809483D01*
X158814483Y-119025658D01*
X158750000Y-119122164D01*
X158685517Y-119025658D01*
X158469342Y-118809483D01*
X158215147Y-118639636D01*
X157932702Y-118522643D01*
X157632859Y-118463000D01*
X157327141Y-118463000D01*
X157027298Y-118522643D01*
X156744853Y-118639636D01*
X156490658Y-118809483D01*
X156274483Y-119025658D01*
X156210000Y-119122164D01*
X156145517Y-119025658D01*
X155929342Y-118809483D01*
X155675147Y-118639636D01*
X155392702Y-118522643D01*
X155092859Y-118463000D01*
X154787141Y-118463000D01*
X154572000Y-118505795D01*
X154572000Y-117962818D01*
X156215981Y-116318837D01*
X162368000Y-116318837D01*
X162368000Y-117107163D01*
X162521795Y-117880340D01*
X162823474Y-118608658D01*
X163261444Y-119264126D01*
X163818874Y-119821556D01*
X164474342Y-120259526D01*
X165202660Y-120561205D01*
X165975837Y-120715000D01*
X166764163Y-120715000D01*
X167537340Y-120561205D01*
X168265658Y-120259526D01*
X168921126Y-119821556D01*
X169478556Y-119264126D01*
X169916526Y-118608658D01*
X170218205Y-117880340D01*
X170372000Y-117107163D01*
X170372000Y-116318837D01*
X170218205Y-115545660D01*
X169916526Y-114817342D01*
X169478556Y-114161874D01*
X168921126Y-113604444D01*
X168265658Y-113166474D01*
X167537340Y-112864795D01*
X166764163Y-112711000D01*
X165975837Y-112711000D01*
X165202660Y-112864795D01*
X164474342Y-113166474D01*
X163818874Y-113604444D01*
X163261444Y-114161874D01*
X162823474Y-114817342D01*
X162521795Y-115545660D01*
X162368000Y-116318837D01*
X156215981Y-116318837D01*
X157332818Y-115202000D01*
X159975701Y-115202000D01*
X160020000Y-115206363D01*
X160064299Y-115202000D01*
X160064307Y-115202000D01*
X160196823Y-115188948D01*
X160366850Y-115137371D01*
X160523549Y-115053614D01*
X160660896Y-114940896D01*
X160689143Y-114906477D01*
X161951473Y-113644147D01*
X161985886Y-113615906D01*
X162034498Y-113556673D01*
X162098604Y-113478559D01*
X162107119Y-113462629D01*
X162182361Y-113321860D01*
X162233938Y-113151833D01*
X162246990Y-113019317D01*
X162246990Y-113019310D01*
X162251353Y-112975010D01*
X162246990Y-112930711D01*
X162246990Y-104617307D01*
X162446538Y-104657000D01*
X162673462Y-104657000D01*
X162896026Y-104612729D01*
X163105677Y-104525889D01*
X163294357Y-104399817D01*
X163454817Y-104239357D01*
X163580889Y-104050677D01*
X163667729Y-103841026D01*
X163683678Y-103760847D01*
X163855646Y-104018215D01*
X164078785Y-104241354D01*
X164117167Y-104267000D01*
X164078785Y-104292646D01*
X163855646Y-104515785D01*
X163680326Y-104778169D01*
X163559564Y-105069714D01*
X163498000Y-105379217D01*
X163498000Y-105694783D01*
X163559564Y-106004286D01*
X163680326Y-106295831D01*
X163855646Y-106558215D01*
X164078785Y-106781354D01*
X164117167Y-106807000D01*
X164078785Y-106832646D01*
X163855646Y-107055785D01*
X163680326Y-107318169D01*
X163559564Y-107609714D01*
X163498000Y-107919217D01*
X163498000Y-108234783D01*
X163559564Y-108544286D01*
X163680326Y-108835831D01*
X163855646Y-109098215D01*
X164078785Y-109321354D01*
X164341169Y-109496674D01*
X164632714Y-109617436D01*
X164942217Y-109679000D01*
X165257783Y-109679000D01*
X165567286Y-109617436D01*
X165858831Y-109496674D01*
X166121215Y-109321354D01*
X166344354Y-109098215D01*
X166370000Y-109059833D01*
X166395646Y-109098215D01*
X166618785Y-109321354D01*
X166881169Y-109496674D01*
X167172714Y-109617436D01*
X167482217Y-109679000D01*
X167797783Y-109679000D01*
X168107286Y-109617436D01*
X168398831Y-109496674D01*
X168661215Y-109321354D01*
X168884354Y-109098215D01*
X169059674Y-108835831D01*
X169180436Y-108544286D01*
X169242000Y-108234783D01*
X169242000Y-107919217D01*
X169180436Y-107609714D01*
X169059674Y-107318169D01*
X168884354Y-107055785D01*
X168661215Y-106832646D01*
X168622833Y-106807000D01*
X168661215Y-106781354D01*
X168884354Y-106558215D01*
X169059674Y-106295831D01*
X169180436Y-106004286D01*
X169242000Y-105694783D01*
X169242000Y-105379217D01*
X169180436Y-105069714D01*
X169059674Y-104778169D01*
X169038437Y-104746385D01*
X169643483Y-104141340D01*
X169677896Y-104113098D01*
X169731693Y-104047547D01*
X169790614Y-103975751D01*
X169836207Y-103890452D01*
X169874371Y-103819052D01*
X169925948Y-103649025D01*
X169939000Y-103516509D01*
X169939000Y-103516502D01*
X169943363Y-103472202D01*
X169939000Y-103427903D01*
X169939000Y-96279000D01*
X172238001Y-96279000D01*
X172238000Y-117384298D01*
X170907008Y-118715290D01*
X170840155Y-118770155D01*
X170621217Y-119036931D01*
X170458531Y-119341295D01*
X170358350Y-119671548D01*
X170324523Y-120015000D01*
X170358350Y-120358452D01*
X170458531Y-120688705D01*
X170621217Y-120993069D01*
X170840155Y-121259845D01*
X171106931Y-121478783D01*
X171411295Y-121641469D01*
X171741548Y-121741650D01*
X171998931Y-121767000D01*
X171998939Y-121767000D01*
X172085000Y-121775476D01*
X172171061Y-121767000D01*
X173903931Y-121767000D01*
X173990000Y-121775477D01*
X174076068Y-121767000D01*
X174076069Y-121767000D01*
X174333452Y-121741650D01*
X174663705Y-121641469D01*
X174968069Y-121478783D01*
X175234845Y-121259845D01*
X175453783Y-120993069D01*
X175616469Y-120688705D01*
X175716650Y-120358452D01*
X175731621Y-120206451D01*
X175742000Y-120101069D01*
X175742000Y-120101068D01*
X175750477Y-120015000D01*
X175742000Y-119928931D01*
X175742000Y-118196061D01*
X175750476Y-118110000D01*
X175742000Y-118023939D01*
X175742000Y-66130702D01*
X179599970Y-62272733D01*
X179628051Y-62306949D01*
X179780625Y-62432164D01*
X179954696Y-62525206D01*
X180075989Y-62562000D01*
X180143573Y-62582502D01*
X180163612Y-62584476D01*
X180290777Y-62597000D01*
X180290783Y-62597000D01*
X180339999Y-62601847D01*
X180389215Y-62597000D01*
X181560784Y-62597000D01*
X181610000Y-62601847D01*
X181659216Y-62597000D01*
X181659223Y-62597000D01*
X181806426Y-62582502D01*
X181995304Y-62525206D01*
X182169375Y-62432164D01*
X182321949Y-62306949D01*
X182353332Y-62268709D01*
X182624709Y-61997332D01*
X182662949Y-61965949D01*
X182788164Y-61813375D01*
X182881206Y-61639304D01*
X182938502Y-61450426D01*
X182941909Y-61415839D01*
X182942613Y-61408691D01*
X182948418Y-61408119D01*
X183090170Y-61365118D01*
X183220810Y-61295290D01*
X183335317Y-61201317D01*
X183429290Y-61086810D01*
X183499118Y-60956170D01*
X183542119Y-60814418D01*
X183556638Y-60667000D01*
X183556638Y-58967000D01*
X183542119Y-58819582D01*
X183499118Y-58677830D01*
X183429290Y-58547190D01*
X183335317Y-58432683D01*
X183220810Y-58338710D01*
X183090170Y-58268882D01*
X182953000Y-58227271D01*
X182953000Y-58175223D01*
X182957848Y-58126000D01*
X182938502Y-57929573D01*
X182894646Y-57785001D01*
X182881206Y-57740696D01*
X182788164Y-57566625D01*
X182662949Y-57414051D01*
X182624709Y-57382668D01*
X182353332Y-57111291D01*
X182321949Y-57073051D01*
X182169375Y-56947836D01*
X181995304Y-56854794D01*
X181806426Y-56797498D01*
X181659223Y-56783000D01*
X181659216Y-56783000D01*
X181610000Y-56778153D01*
X181560784Y-56783000D01*
X180389223Y-56783000D01*
X180340000Y-56778152D01*
X180143573Y-56797498D01*
X179954696Y-56854794D01*
X179780625Y-56947836D01*
X179628051Y-57073051D01*
X179596668Y-57111291D01*
X179031286Y-57676673D01*
X178993052Y-57708051D01*
X178961674Y-57746285D01*
X178867837Y-57860625D01*
X178774794Y-58034697D01*
X178717498Y-58223574D01*
X178716385Y-58234872D01*
X178527010Y-58390289D01*
X177892014Y-59025284D01*
X177892008Y-59025289D01*
X172812003Y-64105295D01*
X172745156Y-64160155D01*
X172690296Y-64227002D01*
X172690289Y-64227009D01*
X172526217Y-64426932D01*
X172363532Y-64731295D01*
X172263350Y-65061549D01*
X172229524Y-65405000D01*
X172238001Y-65491071D01*
X172238000Y-94475000D01*
X169081307Y-94475000D01*
X169037000Y-94470636D01*
X168992693Y-94475000D01*
X168964011Y-94475000D01*
X168884354Y-94355785D01*
X168661215Y-94132646D01*
X168622833Y-94107000D01*
X168661215Y-94081354D01*
X168884354Y-93858215D01*
X169059674Y-93595831D01*
X169180436Y-93304286D01*
X169242000Y-92994783D01*
X169242000Y-92679217D01*
X169180436Y-92369714D01*
X169059674Y-92078169D01*
X168884354Y-91815785D01*
X168661215Y-91592646D01*
X168622833Y-91567000D01*
X168661215Y-91541354D01*
X168884354Y-91318215D01*
X169059674Y-91055831D01*
X169180436Y-90764286D01*
X169242000Y-90454783D01*
X169242000Y-90139217D01*
X169180436Y-89829714D01*
X169059674Y-89538169D01*
X168884354Y-89275785D01*
X168661215Y-89052646D01*
X168622833Y-89027000D01*
X168661215Y-89001354D01*
X168884354Y-88778215D01*
X169059674Y-88515831D01*
X169180436Y-88224286D01*
X169242000Y-87914783D01*
X169242000Y-87599217D01*
X169180436Y-87289714D01*
X169059674Y-86998169D01*
X168884354Y-86735785D01*
X168661215Y-86512646D01*
X168622833Y-86487000D01*
X168661215Y-86461354D01*
X168884354Y-86238215D01*
X169059674Y-85975831D01*
X169180436Y-85684286D01*
X169242000Y-85374783D01*
X169242000Y-85059217D01*
X169180436Y-84749714D01*
X169059674Y-84458169D01*
X168884354Y-84195785D01*
X168661215Y-83972646D01*
X168622833Y-83947000D01*
X168661215Y-83921354D01*
X168884354Y-83698215D01*
X169059674Y-83435831D01*
X169180436Y-83144286D01*
X169242000Y-82834783D01*
X169242000Y-82519217D01*
X169180436Y-82209714D01*
X169059674Y-81918169D01*
X168884354Y-81655785D01*
X168661215Y-81432646D01*
X168622833Y-81407000D01*
X168661215Y-81381354D01*
X168884354Y-81158215D01*
X169059674Y-80895831D01*
X169180436Y-80604286D01*
X169242000Y-80294783D01*
X169242000Y-79979217D01*
X169180436Y-79669714D01*
X169059674Y-79378169D01*
X168884354Y-79115785D01*
X168661215Y-78892646D01*
X168622833Y-78867000D01*
X168661215Y-78841354D01*
X168884354Y-78618215D01*
X169059674Y-78355831D01*
X169180436Y-78064286D01*
X169242000Y-77754783D01*
X169242000Y-77439217D01*
X169180436Y-77129714D01*
X169059674Y-76838169D01*
X168884354Y-76575785D01*
X168661215Y-76352646D01*
X168622833Y-76327000D01*
X168661215Y-76301354D01*
X168884354Y-76078215D01*
X169059674Y-75815831D01*
X169180436Y-75524286D01*
X169242000Y-75214783D01*
X169242000Y-74899217D01*
X169180436Y-74589714D01*
X169059674Y-74298169D01*
X168884354Y-74035785D01*
X168661215Y-73812646D01*
X168622833Y-73787000D01*
X168661215Y-73761354D01*
X168884354Y-73538215D01*
X169059674Y-73275831D01*
X169180436Y-72984286D01*
X169242000Y-72674783D01*
X169242000Y-72359217D01*
X169180436Y-72049714D01*
X169059674Y-71758169D01*
X168884354Y-71495785D01*
X168661215Y-71272646D01*
X168622833Y-71247000D01*
X168661215Y-71221354D01*
X168884354Y-70998215D01*
X169059674Y-70735831D01*
X169180436Y-70444286D01*
X169242000Y-70134783D01*
X169242000Y-69819217D01*
X169180436Y-69509714D01*
X169059674Y-69218169D01*
X168884354Y-68955785D01*
X168661215Y-68732646D01*
X168622833Y-68707000D01*
X168661215Y-68681354D01*
X168884354Y-68458215D01*
X169059674Y-68195831D01*
X169180436Y-67904286D01*
X169242000Y-67594783D01*
X169242000Y-67279217D01*
X169180436Y-66969714D01*
X169059674Y-66678169D01*
X168884354Y-66415785D01*
X168661215Y-66192646D01*
X168622833Y-66167000D01*
X168661215Y-66141354D01*
X168884354Y-65918215D01*
X169059674Y-65655831D01*
X169180436Y-65364286D01*
X169242000Y-65054783D01*
X169242000Y-64739217D01*
X169180436Y-64429714D01*
X169059674Y-64138169D01*
X168884354Y-63875785D01*
X168661215Y-63652646D01*
X168622833Y-63627000D01*
X168661215Y-63601354D01*
X168884354Y-63378215D01*
X169059674Y-63115831D01*
X169180436Y-62824286D01*
X169242000Y-62514783D01*
X169242000Y-62199217D01*
X169180436Y-61889714D01*
X169059674Y-61598169D01*
X168884354Y-61335785D01*
X168866831Y-61318262D01*
X168909810Y-61295290D01*
X169024317Y-61201317D01*
X169118290Y-61086810D01*
X169188118Y-60956170D01*
X169231119Y-60814418D01*
X169245638Y-60667000D01*
X169245638Y-58967000D01*
X169231119Y-58819582D01*
X169188118Y-58677830D01*
X169118290Y-58547190D01*
X169024317Y-58432683D01*
X168909810Y-58338710D01*
X168779170Y-58268882D01*
X168637418Y-58225881D01*
X168490000Y-58211362D01*
X166790000Y-58211362D01*
X166642582Y-58225881D01*
X166500830Y-58268882D01*
X166370190Y-58338710D01*
X166255683Y-58432683D01*
X166161710Y-58547190D01*
X166138738Y-58590169D01*
X166121215Y-58572646D01*
X165858831Y-58397326D01*
X165567286Y-58276564D01*
X165257783Y-58215000D01*
X164942217Y-58215000D01*
X164632714Y-58276564D01*
X164341169Y-58397326D01*
X164078785Y-58572646D01*
X163855646Y-58795785D01*
X163680326Y-59058169D01*
X163559564Y-59349714D01*
X163498000Y-59659217D01*
X163498000Y-59974783D01*
X163559564Y-60284286D01*
X163680326Y-60575831D01*
X163855646Y-60838215D01*
X164078785Y-61061354D01*
X164117167Y-61087000D01*
X164078785Y-61112646D01*
X163855646Y-61335785D01*
X163680326Y-61598169D01*
X163559564Y-61889714D01*
X163498000Y-62199217D01*
X163498000Y-62385702D01*
X163308462Y-62348000D01*
X163081538Y-62348000D01*
X162858974Y-62392271D01*
X162649323Y-62479111D01*
X162460643Y-62605183D01*
X162300183Y-62765643D01*
X162174111Y-62954323D01*
X162087271Y-63163974D01*
X162043000Y-63386538D01*
X162043000Y-63613462D01*
X162087271Y-63836026D01*
X162174111Y-64045677D01*
X162293001Y-64223608D01*
X162293001Y-64945515D01*
X162261026Y-64932271D01*
X162038462Y-64888000D01*
X161811538Y-64888000D01*
X161588974Y-64932271D01*
X161379323Y-65019111D01*
X161190643Y-65145183D01*
X161030183Y-65305643D01*
X160904111Y-65494323D01*
X160817271Y-65703974D01*
X160773000Y-65926538D01*
X160773000Y-66153462D01*
X160817271Y-66376026D01*
X160904111Y-66585677D01*
X161023001Y-66763608D01*
X161023001Y-67485515D01*
X160991026Y-67472271D01*
X160768462Y-67428000D01*
X160541538Y-67428000D01*
X160318974Y-67472271D01*
X160109323Y-67559111D01*
X159920643Y-67685183D01*
X159760183Y-67845643D01*
X159634111Y-68034323D01*
X159547271Y-68243974D01*
X159503000Y-68466538D01*
X159503000Y-68693462D01*
X159547271Y-68916026D01*
X159634111Y-69125677D01*
X159753001Y-69303608D01*
X159753001Y-70025515D01*
X159721026Y-70012271D01*
X159498462Y-69968000D01*
X159271538Y-69968000D01*
X159048974Y-70012271D01*
X158839323Y-70099111D01*
X158650643Y-70225183D01*
X158490183Y-70385643D01*
X158364111Y-70574323D01*
X158277271Y-70783974D01*
X158233000Y-71006538D01*
X158233000Y-71233462D01*
X158277271Y-71456026D01*
X158364111Y-71665677D01*
X158483001Y-71843608D01*
X158483000Y-73087560D01*
X158374811Y-72925643D01*
X158214351Y-72765183D01*
X158025671Y-72639111D01*
X157816020Y-72552271D01*
X157593456Y-72508000D01*
X157366532Y-72508000D01*
X157143968Y-72552271D01*
X156934317Y-72639111D01*
X156745637Y-72765183D01*
X156585177Y-72925643D01*
X156459105Y-73114323D01*
X156372265Y-73323974D01*
X156327994Y-73546538D01*
X156327994Y-73773462D01*
X156372265Y-73996026D01*
X156459105Y-74205677D01*
X156577994Y-74383607D01*
X156577995Y-75191384D01*
X147983523Y-83785857D01*
X147949104Y-83814104D01*
X147836386Y-83951452D01*
X147752629Y-84108151D01*
X147701052Y-84278178D01*
X147693118Y-84358727D01*
X147569111Y-84544317D01*
X147482271Y-84753968D01*
X147440522Y-84963852D01*
X146713518Y-85690856D01*
X146679105Y-85719098D01*
X146650863Y-85753511D01*
X146650860Y-85753514D01*
X146621951Y-85788740D01*
X146566387Y-85856445D01*
X146503181Y-85974695D01*
X146482630Y-86013144D01*
X146431052Y-86183172D01*
X146413637Y-86359994D01*
X146418001Y-86404304D01*
X146418001Y-89710515D01*
X146386026Y-89697271D01*
X146163462Y-89653000D01*
X145936538Y-89653000D01*
X145713974Y-89697271D01*
X145504323Y-89784111D01*
X145315643Y-89910183D01*
X145155183Y-90070643D01*
X145029111Y-90259323D01*
X144942271Y-90468974D01*
X144898000Y-90691538D01*
X144898000Y-90918462D01*
X144942271Y-91141026D01*
X145029111Y-91350677D01*
X145148000Y-91528607D01*
X145148001Y-104620984D01*
X145057535Y-104572629D01*
X144887508Y-104521052D01*
X144754992Y-104508000D01*
X144754984Y-104508000D01*
X144710685Y-104503637D01*
X144666386Y-104508000D01*
X144625419Y-104508000D01*
X143045664Y-102928246D01*
X143229342Y-102805517D01*
X143445517Y-102589342D01*
X143615364Y-102335147D01*
X143732357Y-102052702D01*
X143792000Y-101752859D01*
X143792000Y-101447141D01*
X143732357Y-101147298D01*
X143615364Y-100864853D01*
X143445517Y-100610658D01*
X143229342Y-100394483D01*
X142975147Y-100224636D01*
X142692702Y-100107643D01*
X142392859Y-100048000D01*
X142087141Y-100048000D01*
X141787298Y-100107643D01*
X141504853Y-100224636D01*
X141250658Y-100394483D01*
X141034483Y-100610658D01*
X140970000Y-100707164D01*
X140905517Y-100610658D01*
X140689342Y-100394483D01*
X140602000Y-100336123D01*
X140602000Y-89273620D01*
X141576478Y-88299142D01*
X141610896Y-88270896D01*
X141723614Y-88133549D01*
X141807371Y-87976850D01*
X141841844Y-87863207D01*
X142087141Y-87912000D01*
X142392859Y-87912000D01*
X142692702Y-87852357D01*
X142975147Y-87735364D01*
X143229342Y-87565517D01*
X143445517Y-87349342D01*
X143615364Y-87095147D01*
X143732357Y-86812702D01*
X143792000Y-86512859D01*
X143792000Y-86207141D01*
X143732357Y-85907298D01*
X143615364Y-85624853D01*
X143445517Y-85370658D01*
X143229342Y-85154483D01*
X143143662Y-85097234D01*
X143142000Y-85080357D01*
X143142000Y-85080350D01*
X143128948Y-84947834D01*
X143077371Y-84777807D01*
X142993614Y-84621108D01*
X142966225Y-84587734D01*
X142909140Y-84518176D01*
X142909138Y-84518174D01*
X142880896Y-84483761D01*
X142846482Y-84455518D01*
X142476355Y-84085391D01*
X142692702Y-84042357D01*
X142975147Y-83925364D01*
X143229342Y-83755517D01*
X143445517Y-83539342D01*
X143615364Y-83285147D01*
X143732357Y-83002702D01*
X143792000Y-82702859D01*
X143792000Y-82397141D01*
X143732357Y-82097298D01*
X143615364Y-81814853D01*
X143445517Y-81560658D01*
X143229342Y-81344483D01*
X142975147Y-81174636D01*
X142692702Y-81057643D01*
X142392859Y-80998000D01*
X142087141Y-80998000D01*
X141931999Y-81028860D01*
X141931999Y-68893621D01*
X141984114Y-68841506D01*
X142087141Y-68862000D01*
X142392859Y-68862000D01*
X142692702Y-68802357D01*
X142975147Y-68685364D01*
X143229342Y-68515517D01*
X143394859Y-68350000D01*
X146969362Y-68350000D01*
X146969362Y-71350000D01*
X146983881Y-71497418D01*
X147026882Y-71639170D01*
X147096710Y-71769810D01*
X147190683Y-71884317D01*
X147305190Y-71978290D01*
X147435830Y-72048118D01*
X147577582Y-72091119D01*
X147725000Y-72105638D01*
X150725000Y-72105638D01*
X150872418Y-72091119D01*
X151014170Y-72048118D01*
X151144810Y-71978290D01*
X151259317Y-71884317D01*
X151353290Y-71769810D01*
X151423118Y-71639170D01*
X151466119Y-71497418D01*
X151480638Y-71350000D01*
X151480638Y-68350000D01*
X151466119Y-68202582D01*
X151423118Y-68060830D01*
X151353290Y-67930190D01*
X151259317Y-67815683D01*
X151144810Y-67721710D01*
X151014170Y-67651882D01*
X150872418Y-67608881D01*
X150725000Y-67594362D01*
X147725000Y-67594362D01*
X147577582Y-67608881D01*
X147435830Y-67651882D01*
X147305190Y-67721710D01*
X147190683Y-67815683D01*
X147096710Y-67930190D01*
X147026882Y-68060830D01*
X146983881Y-68202582D01*
X146969362Y-68350000D01*
X143394859Y-68350000D01*
X143445517Y-68299342D01*
X143615364Y-68045147D01*
X143732357Y-67762702D01*
X143792000Y-67462859D01*
X143792000Y-67157141D01*
X143732357Y-66857298D01*
X143615364Y-66574853D01*
X143445517Y-66320658D01*
X143229342Y-66104483D01*
X142975147Y-65934636D01*
X142692702Y-65817643D01*
X142392859Y-65758000D01*
X142087141Y-65758000D01*
X141787298Y-65817643D01*
X141504853Y-65934636D01*
X141250658Y-66104483D01*
X141034483Y-66320658D01*
X140970000Y-66417164D01*
X140905517Y-66320658D01*
X140689342Y-66104483D01*
X140435147Y-65934636D01*
X140152702Y-65817643D01*
X139852859Y-65758000D01*
X139547141Y-65758000D01*
X139247298Y-65817643D01*
X138964853Y-65934636D01*
X138710658Y-66104483D01*
X138494483Y-66320658D01*
X138430000Y-66417164D01*
X138365517Y-66320658D01*
X138149342Y-66104483D01*
X137895147Y-65934636D01*
X137612702Y-65817643D01*
X137312859Y-65758000D01*
X137007141Y-65758000D01*
X136707298Y-65817643D01*
X136425139Y-65934518D01*
X135361644Y-64871023D01*
X135609342Y-64705517D01*
X135825517Y-64489342D01*
X135995364Y-64235147D01*
X136112357Y-63952702D01*
X136172000Y-63652859D01*
X136172000Y-63347141D01*
X136112357Y-63047298D01*
X135995364Y-62764853D01*
X135825517Y-62510658D01*
X135609342Y-62294483D01*
X135355147Y-62124636D01*
X135072702Y-62007643D01*
X134772859Y-61948000D01*
X134467141Y-61948000D01*
X134167298Y-62007643D01*
X133884853Y-62124636D01*
X133630658Y-62294483D01*
X133414483Y-62510658D01*
X133350000Y-62607164D01*
X133285517Y-62510658D01*
X133069342Y-62294483D01*
X132815147Y-62124636D01*
X132532702Y-62007643D01*
X132232859Y-61948000D01*
X131927141Y-61948000D01*
X131627298Y-62007643D01*
X131344853Y-62124636D01*
X131090658Y-62294483D01*
X130874483Y-62510658D01*
X130810000Y-62607164D01*
X130745517Y-62510658D01*
X130529342Y-62294483D01*
X130275147Y-62124636D01*
X129992702Y-62007643D01*
X129692859Y-61948000D01*
X129387141Y-61948000D01*
X129172000Y-61990795D01*
X129172000Y-59778617D01*
X129290889Y-59600687D01*
X129377729Y-59391036D01*
X129422000Y-59168472D01*
X129422000Y-58941548D01*
X129377729Y-58718984D01*
X129290889Y-58509333D01*
X129164817Y-58320653D01*
X129004357Y-58160193D01*
X128815677Y-58034121D01*
X128606026Y-57947281D01*
X128383462Y-57903010D01*
X128156538Y-57903010D01*
X127933974Y-57947281D01*
X127724323Y-58034121D01*
X127535643Y-58160193D01*
X127375183Y-58320653D01*
X127249111Y-58509333D01*
X127162271Y-58718984D01*
X127118000Y-58941548D01*
X127118000Y-59168472D01*
X127162271Y-59391036D01*
X127249111Y-59600687D01*
X127368001Y-59778618D01*
X127368001Y-61990795D01*
X127152859Y-61948000D01*
X126847141Y-61948000D01*
X126547298Y-62007643D01*
X126264853Y-62124636D01*
X126010658Y-62294483D01*
X125794483Y-62510658D01*
X125730000Y-62607164D01*
X125665517Y-62510658D01*
X125449342Y-62294483D01*
X125195147Y-62124636D01*
X124912702Y-62007643D01*
X124612859Y-61948000D01*
X124307141Y-61948000D01*
X124007298Y-62007643D01*
X123724853Y-62124636D01*
X123470658Y-62294483D01*
X123254483Y-62510658D01*
X123190000Y-62607164D01*
X123125517Y-62510658D01*
X122909342Y-62294483D01*
X122655147Y-62124636D01*
X122372702Y-62007643D01*
X122185262Y-61970358D01*
X126744114Y-57411507D01*
X126847141Y-57432000D01*
X127152859Y-57432000D01*
X127452702Y-57372357D01*
X127735147Y-57255364D01*
X127989342Y-57085517D01*
X128205517Y-56869342D01*
X128270000Y-56772836D01*
X128334483Y-56869342D01*
X128550658Y-57085517D01*
X128804853Y-57255364D01*
X129087298Y-57372357D01*
X129387141Y-57432000D01*
X129692859Y-57432000D01*
X129992702Y-57372357D01*
X130275147Y-57255364D01*
X130529342Y-57085517D01*
X130745517Y-56869342D01*
X130810000Y-56772836D01*
X130874483Y-56869342D01*
X131090658Y-57085517D01*
X131344853Y-57255364D01*
X131627298Y-57372357D01*
X131927141Y-57432000D01*
X132232859Y-57432000D01*
X132532702Y-57372357D01*
X132815147Y-57255364D01*
X133069342Y-57085517D01*
X133285517Y-56869342D01*
X133350000Y-56772836D01*
X133414483Y-56869342D01*
X133630658Y-57085517D01*
X133884853Y-57255364D01*
X134167298Y-57372357D01*
X134467141Y-57432000D01*
X134772859Y-57432000D01*
X135072702Y-57372357D01*
X135355147Y-57255364D01*
X135609342Y-57085517D01*
X135825517Y-56869342D01*
X135995364Y-56615147D01*
X136112357Y-56332702D01*
X136172000Y-56032859D01*
X136172000Y-55727141D01*
X136112357Y-55427298D01*
X135995364Y-55144853D01*
X135825517Y-54890658D01*
X135609342Y-54674483D01*
X135355147Y-54504636D01*
X135072702Y-54387643D01*
X134772859Y-54328000D01*
X134467141Y-54328000D01*
X134167298Y-54387643D01*
X133884853Y-54504636D01*
X133630658Y-54674483D01*
X133414483Y-54890658D01*
X133350000Y-54987164D01*
X133285517Y-54890658D01*
X133069342Y-54674483D01*
X132815147Y-54504636D01*
X132532702Y-54387643D01*
X132232859Y-54328000D01*
X131927141Y-54328000D01*
X131627298Y-54387643D01*
X131344853Y-54504636D01*
X131090658Y-54674483D01*
X130874483Y-54890658D01*
X130810000Y-54987164D01*
X130745517Y-54890658D01*
X130529342Y-54674483D01*
X130275147Y-54504636D01*
X129992702Y-54387643D01*
X129692859Y-54328000D01*
X129387141Y-54328000D01*
X129087298Y-54387643D01*
X128804853Y-54504636D01*
X128550658Y-54674483D01*
X128334483Y-54890658D01*
X128270000Y-54987164D01*
X128205517Y-54890658D01*
X127989342Y-54674483D01*
X127735147Y-54504636D01*
X127452702Y-54387643D01*
X127152859Y-54328000D01*
X126847141Y-54328000D01*
X126547298Y-54387643D01*
X126264853Y-54504636D01*
X126010658Y-54674483D01*
X125794483Y-54890658D01*
X125730000Y-54987164D01*
X125665517Y-54890658D01*
X125449342Y-54674483D01*
X125195147Y-54504636D01*
X124912702Y-54387643D01*
X124612859Y-54328000D01*
X124307141Y-54328000D01*
X124007298Y-54387643D01*
X123724853Y-54504636D01*
X123470658Y-54674483D01*
X123254483Y-54890658D01*
X123190000Y-54987164D01*
X123125517Y-54890658D01*
X122909342Y-54674483D01*
X122655147Y-54504636D01*
X122372702Y-54387643D01*
X122072859Y-54328000D01*
X121767141Y-54328000D01*
X121527000Y-54375767D01*
X121527000Y-52118069D01*
X121531242Y-52074999D01*
X121527000Y-52031930D01*
X121527000Y-52031921D01*
X121514310Y-51903078D01*
X121464162Y-51737763D01*
X121382727Y-51585408D01*
X121273133Y-51451867D01*
X121239669Y-51424404D01*
X120632000Y-50816735D01*
X120632000Y-50681689D01*
X120583886Y-50439805D01*
X120489508Y-50211956D01*
X120352492Y-50006896D01*
X120178104Y-49832508D01*
X119973044Y-49695492D01*
X119745195Y-49601114D01*
X119503311Y-49553000D01*
X119256689Y-49553000D01*
X119014805Y-49601114D01*
X118786956Y-49695492D01*
X118581896Y-49832508D01*
X118407508Y-50006896D01*
X118270492Y-50211956D01*
X118176114Y-50439805D01*
X118128000Y-50681689D01*
X118128000Y-50928311D01*
X118176114Y-51170195D01*
X118270492Y-51398044D01*
X118407508Y-51603104D01*
X118559404Y-51755000D01*
X118407508Y-51906896D01*
X118270492Y-52111956D01*
X118176114Y-52339805D01*
X118128000Y-52581689D01*
X118128000Y-52716735D01*
X117520332Y-53324403D01*
X117486867Y-53351867D01*
X117377273Y-53485409D01*
X117321531Y-53589696D01*
X117295838Y-53637764D01*
X117245690Y-53803078D01*
X117228757Y-53975000D01*
X117233000Y-54018080D01*
X117233000Y-54375767D01*
X116992859Y-54328000D01*
X116705042Y-54328000D01*
X116502002Y-54124960D01*
X116561469Y-54013705D01*
X116661650Y-53683452D01*
X116695477Y-53340000D01*
X116661650Y-52996548D01*
X116561469Y-52666295D01*
X116398783Y-52361931D01*
X116179845Y-52095155D01*
X115913069Y-51876217D01*
X115608705Y-51713531D01*
X115278452Y-51613350D01*
X115021069Y-51588000D01*
X100416061Y-51588000D01*
X100330000Y-51579524D01*
X100243939Y-51588000D01*
X100243931Y-51588000D01*
X99986548Y-51613350D01*
X99656295Y-51713531D01*
X99351931Y-51876217D01*
X99162206Y-52031921D01*
X99085155Y-52095155D01*
X99030290Y-52162008D01*
X97424000Y-53768298D01*
X97424000Y-49138197D01*
X146973000Y-49138197D01*
X146973000Y-49581803D01*
X147059544Y-50016884D01*
X147229304Y-50426722D01*
X147475758Y-50795566D01*
X147789434Y-51109242D01*
X148158278Y-51355696D01*
X148568116Y-51525456D01*
X149003197Y-51612000D01*
X149446803Y-51612000D01*
X149881884Y-51525456D01*
X150291722Y-51355696D01*
X150660566Y-51109242D01*
X150974242Y-50795566D01*
X150980074Y-50786837D01*
X162368000Y-50786837D01*
X162368000Y-51575163D01*
X162521795Y-52348340D01*
X162823474Y-53076658D01*
X163261444Y-53732126D01*
X163818874Y-54289556D01*
X164474342Y-54727526D01*
X165202660Y-55029205D01*
X165975837Y-55183000D01*
X166764163Y-55183000D01*
X167537340Y-55029205D01*
X168265658Y-54727526D01*
X168921126Y-54289556D01*
X169478556Y-53732126D01*
X169916526Y-53076658D01*
X170218205Y-52348340D01*
X170372000Y-51575163D01*
X170372000Y-50786837D01*
X170218205Y-50013660D01*
X169916526Y-49285342D01*
X169478556Y-48629874D01*
X168921126Y-48072444D01*
X168265658Y-47634474D01*
X167537340Y-47332795D01*
X166764163Y-47179000D01*
X165975837Y-47179000D01*
X165202660Y-47332795D01*
X164474342Y-47634474D01*
X163818874Y-48072444D01*
X163261444Y-48629874D01*
X162823474Y-49285342D01*
X162521795Y-50013660D01*
X162368000Y-50786837D01*
X150980074Y-50786837D01*
X151220696Y-50426722D01*
X151390456Y-50016884D01*
X151477000Y-49581803D01*
X151477000Y-49138197D01*
X151390456Y-48703116D01*
X151220696Y-48293278D01*
X150974242Y-47924434D01*
X150660566Y-47610758D01*
X150291722Y-47364304D01*
X149881884Y-47194544D01*
X149446803Y-47108000D01*
X149003197Y-47108000D01*
X148568116Y-47194544D01*
X148158278Y-47364304D01*
X147789434Y-47610758D01*
X147475758Y-47924434D01*
X147229304Y-48293278D01*
X147059544Y-48703116D01*
X146973000Y-49138197D01*
X97424000Y-49138197D01*
X97424000Y-43599005D01*
X97437044Y-43465967D01*
X97464645Y-43374551D01*
X97509473Y-43290241D01*
X97569826Y-43216241D01*
X97643402Y-43155373D01*
X97727398Y-43109957D01*
X97818618Y-43081719D01*
X97949152Y-43068000D01*
X195287995Y-43068000D01*
X195421033Y-43081044D01*
G37*
%TD.AperFunction*%
D28*
X132448001Y-110116378D02*
X132108523Y-110455857D01*
X132074104Y-110484104D01*
X131961386Y-110621452D01*
X131877629Y-110778151D01*
X131826052Y-110948178D01*
X131813000Y-111080694D01*
X131813000Y-111080701D01*
X131808637Y-111125000D01*
X131813000Y-111169300D01*
X131813001Y-112692735D01*
X129568523Y-114937213D01*
X129534104Y-114965460D01*
X129421386Y-115102808D01*
X129337629Y-115259507D01*
X129286052Y-115429534D01*
X129273000Y-115562050D01*
X129273000Y-115562057D01*
X129268637Y-115606356D01*
X129273000Y-115650656D01*
X129273001Y-118485704D01*
X129087298Y-118522643D01*
X128804853Y-118639636D01*
X128550658Y-118809483D01*
X128334483Y-119025658D01*
X128270000Y-119122164D01*
X128205517Y-119025658D01*
X127989342Y-118809483D01*
X127902000Y-118751123D01*
X127902000Y-116293607D01*
X128020889Y-116115677D01*
X128107729Y-115906026D01*
X128152000Y-115683462D01*
X128152000Y-115456538D01*
X128107729Y-115233974D01*
X128020889Y-115024323D01*
X127894817Y-114835643D01*
X127817397Y-114758223D01*
X128805138Y-113770482D01*
X129087298Y-113887357D01*
X129387141Y-113947000D01*
X129692859Y-113947000D01*
X129992702Y-113887357D01*
X130275147Y-113770364D01*
X130529342Y-113600517D01*
X130745517Y-113384342D01*
X130915364Y-113130147D01*
X131032357Y-112847702D01*
X131092000Y-112547859D01*
X131092000Y-112242141D01*
X131032357Y-111942298D01*
X130915364Y-111659853D01*
X130745517Y-111405658D01*
X130529342Y-111189483D01*
X130275147Y-111019636D01*
X129992702Y-110902643D01*
X129805262Y-110865358D01*
X132448001Y-108222620D01*
X132448001Y-110116378D01*
%TA.AperFunction,Conductor*%
D29*
G36*
X132448001Y-110116378D02*
G01*
X132108523Y-110455857D01*
X132074104Y-110484104D01*
X131961386Y-110621452D01*
X131877629Y-110778151D01*
X131826052Y-110948178D01*
X131813000Y-111080694D01*
X131813000Y-111080701D01*
X131808637Y-111125000D01*
X131813000Y-111169300D01*
X131813001Y-112692735D01*
X129568523Y-114937213D01*
X129534104Y-114965460D01*
X129421386Y-115102808D01*
X129337629Y-115259507D01*
X129286052Y-115429534D01*
X129273000Y-115562050D01*
X129273000Y-115562057D01*
X129268637Y-115606356D01*
X129273000Y-115650656D01*
X129273001Y-118485704D01*
X129087298Y-118522643D01*
X128804853Y-118639636D01*
X128550658Y-118809483D01*
X128334483Y-119025658D01*
X128270000Y-119122164D01*
X128205517Y-119025658D01*
X127989342Y-118809483D01*
X127902000Y-118751123D01*
X127902000Y-116293607D01*
X128020889Y-116115677D01*
X128107729Y-115906026D01*
X128152000Y-115683462D01*
X128152000Y-115456538D01*
X128107729Y-115233974D01*
X128020889Y-115024323D01*
X127894817Y-114835643D01*
X127817397Y-114758223D01*
X128805138Y-113770482D01*
X129087298Y-113887357D01*
X129387141Y-113947000D01*
X129692859Y-113947000D01*
X129992702Y-113887357D01*
X130275147Y-113770364D01*
X130529342Y-113600517D01*
X130745517Y-113384342D01*
X130915364Y-113130147D01*
X131032357Y-112847702D01*
X131092000Y-112547859D01*
X131092000Y-112242141D01*
X131032357Y-111942298D01*
X130915364Y-111659853D01*
X130745517Y-111405658D01*
X130529342Y-111189483D01*
X130275147Y-111019636D01*
X129992702Y-110902643D01*
X129805262Y-110865358D01*
X132448001Y-108222620D01*
X132448001Y-110116378D01*
G37*
%TD.AperFunction*%
D28*
X163498000Y-90139217D02*
X163498000Y-90454783D01*
X163559564Y-90764286D01*
X163649051Y-90980328D01*
X162246990Y-92382390D01*
X162246990Y-90488630D01*
X162806620Y-89929000D01*
X163539815Y-89929000D01*
X163498000Y-90139217D01*
%TA.AperFunction,Conductor*%
D29*
G36*
X163498000Y-90139217D02*
G01*
X163498000Y-90454783D01*
X163559564Y-90764286D01*
X163649051Y-90980328D01*
X162246990Y-92382390D01*
X162246990Y-90488630D01*
X162806620Y-89929000D01*
X163539815Y-89929000D01*
X163498000Y-90139217D01*
G37*
%TD.AperFunction*%
D28*
X163559564Y-83144286D02*
X163680326Y-83435831D01*
X163855646Y-83698215D01*
X164078785Y-83921354D01*
X164117167Y-83947000D01*
X164078785Y-83972646D01*
X163855646Y-84195785D01*
X163680326Y-84458169D01*
X163559564Y-84749714D01*
X163498000Y-85059217D01*
X163498000Y-85374783D01*
X163559564Y-85684286D01*
X163680326Y-85975831D01*
X163855646Y-86238215D01*
X164078785Y-86461354D01*
X164117167Y-86487000D01*
X164078785Y-86512646D01*
X163855646Y-86735785D01*
X163680326Y-86998169D01*
X163559564Y-87289714D01*
X163498000Y-87599217D01*
X163498000Y-87914783D01*
X163539815Y-88125000D01*
X162477299Y-88125000D01*
X162432999Y-88120637D01*
X162388699Y-88125000D01*
X162388693Y-88125000D01*
X162274255Y-88136271D01*
X162256176Y-88138052D01*
X162228736Y-88146376D01*
X162086150Y-88189629D01*
X161929451Y-88273386D01*
X161792104Y-88386104D01*
X161763857Y-88420523D01*
X160922000Y-89262380D01*
X160922000Y-85463620D01*
X163506766Y-82878854D01*
X163559564Y-83144286D01*
%TA.AperFunction,Conductor*%
D29*
G36*
X163559564Y-83144286D02*
G01*
X163680326Y-83435831D01*
X163855646Y-83698215D01*
X164078785Y-83921354D01*
X164117167Y-83947000D01*
X164078785Y-83972646D01*
X163855646Y-84195785D01*
X163680326Y-84458169D01*
X163559564Y-84749714D01*
X163498000Y-85059217D01*
X163498000Y-85374783D01*
X163559564Y-85684286D01*
X163680326Y-85975831D01*
X163855646Y-86238215D01*
X164078785Y-86461354D01*
X164117167Y-86487000D01*
X164078785Y-86512646D01*
X163855646Y-86735785D01*
X163680326Y-86998169D01*
X163559564Y-87289714D01*
X163498000Y-87599217D01*
X163498000Y-87914783D01*
X163539815Y-88125000D01*
X162477299Y-88125000D01*
X162432999Y-88120637D01*
X162388699Y-88125000D01*
X162388693Y-88125000D01*
X162274255Y-88136271D01*
X162256176Y-88138052D01*
X162228736Y-88146376D01*
X162086150Y-88189629D01*
X161929451Y-88273386D01*
X161792104Y-88386104D01*
X161763857Y-88420523D01*
X160922000Y-89262380D01*
X160922000Y-85463620D01*
X163506766Y-82878854D01*
X163559564Y-83144286D01*
G37*
%TD.AperFunction*%
%TD*%
D28*
%TO.N,GND*%
X172238000Y-117384298D02*
X170907008Y-118715290D01*
X170840155Y-118770155D01*
X170621217Y-119036931D01*
X170458531Y-119341295D01*
X170358350Y-119671548D01*
X170324523Y-120015000D01*
X170358350Y-120358452D01*
X170458531Y-120688705D01*
X170621217Y-120993069D01*
X170756573Y-121158000D01*
X165152606Y-121158000D01*
X162052000Y-118057394D01*
X162052000Y-114987606D01*
X164517606Y-112522000D01*
X172238000Y-112522000D01*
X172238000Y-117384298D01*
%TA.AperFunction,Conductor*%
D29*
G36*
X172238000Y-117384298D02*
G01*
X170907008Y-118715290D01*
X170840155Y-118770155D01*
X170621217Y-119036931D01*
X170458531Y-119341295D01*
X170358350Y-119671548D01*
X170324523Y-120015000D01*
X170358350Y-120358452D01*
X170458531Y-120688705D01*
X170621217Y-120993069D01*
X170756573Y-121158000D01*
X165152606Y-121158000D01*
X162052000Y-118057394D01*
X162052000Y-114987606D01*
X164517606Y-112522000D01*
X172238000Y-112522000D01*
X172238000Y-117384298D01*
G37*
%TD.AperFunction*%
D28*
X195819001Y-121158000D02*
X175318427Y-121158000D01*
X175453783Y-120993069D01*
X175616469Y-120688705D01*
X175716650Y-120358452D01*
X175750477Y-120015000D01*
X175742000Y-119928931D01*
X175742000Y-118196061D01*
X175750476Y-118110000D01*
X175742000Y-118023939D01*
X175742000Y-112522000D01*
X195819001Y-112522000D01*
X195819001Y-121158000D01*
%TA.AperFunction,Conductor*%
D29*
G36*
X195819001Y-121158000D02*
G01*
X175318427Y-121158000D01*
X175453783Y-120993069D01*
X175616469Y-120688705D01*
X175716650Y-120358452D01*
X175750477Y-120015000D01*
X175742000Y-119928931D01*
X175742000Y-118196061D01*
X175750476Y-118110000D01*
X175742000Y-118023939D01*
X175742000Y-112522000D01*
X195819001Y-112522000D01*
X195819001Y-121158000D01*
G37*
%TD.AperFunction*%
%TD*%
D28*
%TO.N,GND*%
X195819000Y-55753000D02*
X165152606Y-55753000D01*
X162052000Y-52652394D01*
X162052000Y-49582606D01*
X164517606Y-47117000D01*
X195819000Y-47117000D01*
X195819000Y-55753000D01*
%TA.AperFunction,Conductor*%
D29*
G36*
X195819000Y-55753000D02*
G01*
X165152606Y-55753000D01*
X162052000Y-52652394D01*
X162052000Y-49582606D01*
X164517606Y-47117000D01*
X195819000Y-47117000D01*
X195819000Y-55753000D01*
G37*
%TD.AperFunction*%
%TD*%
M02*
