%TF.GenerationSoftware,KiCad,Pcbnew,(5.1.9)-1*%
%TF.CreationDate,2021-05-05T16:33:14+08:00*%
%TF.ProjectId,Tandy1000Essentials,54616e64-7931-4303-9030-457373656e74,rev?*%
%TF.SameCoordinates,Original*%
%TF.FileFunction,Legend,Top*%
%TF.FilePolarity,Positive*%
%FSLAX46Y46*%
G04 Gerber Fmt 4.6, Leading zero omitted, Abs format (unit mm)*
G04 Created by KiCad (PCBNEW (5.1.9)-1) date 2021-05-05 16:33:14*
%MOMM*%
%LPD*%
G01*
G04 APERTURE LIST*
%ADD10C,0.120000*%
%ADD11C,0.150000*%
%ADD12C,0.100000*%
%ADD13C,0.300000*%
G04 APERTURE END LIST*
D10*
X151424640Y-134244080D02*
X116499640Y-134244080D01*
X116499640Y-124084080D02*
X151424640Y-124084080D01*
X151424640Y-121544080D02*
X116499640Y-121544080D01*
X127294640Y-121544080D02*
X127294640Y-134244080D01*
X139359640Y-121544080D02*
X139359640Y-134244080D01*
X116499640Y-134244080D02*
X116499640Y-124084080D01*
X151424640Y-121544080D02*
X151424640Y-134244080D01*
X116499640Y-124084080D02*
X116499640Y-121544080D01*
D11*
X117755949Y-122266460D02*
X117755949Y-122980746D01*
X117708330Y-123123603D01*
X117613092Y-123218841D01*
X117470235Y-123266460D01*
X117374997Y-123266460D01*
X118232140Y-122266460D02*
X118232140Y-123075984D01*
X118279759Y-123171222D01*
X118327378Y-123218841D01*
X118422616Y-123266460D01*
X118613092Y-123266460D01*
X118708330Y-123218841D01*
X118755949Y-123171222D01*
X118803568Y-123075984D01*
X118803568Y-122266460D01*
X119279759Y-123266460D02*
X119279759Y-122266460D01*
X119613092Y-122980746D01*
X119946425Y-122266460D01*
X119946425Y-123266460D01*
X120422616Y-123266460D02*
X120422616Y-122266460D01*
X120803568Y-122266460D01*
X120898806Y-122314080D01*
X120946425Y-122361699D01*
X120994044Y-122456937D01*
X120994044Y-122599794D01*
X120946425Y-122695032D01*
X120898806Y-122742651D01*
X120803568Y-122790270D01*
X120422616Y-122790270D01*
X121422616Y-122742651D02*
X121755949Y-122742651D01*
X121898806Y-123266460D02*
X121422616Y-123266460D01*
X121422616Y-122266460D01*
X121898806Y-122266460D01*
X122898806Y-123266460D02*
X122565473Y-122790270D01*
X122327378Y-123266460D02*
X122327378Y-122266460D01*
X122708330Y-122266460D01*
X122803568Y-122314080D01*
X122851187Y-122361699D01*
X122898806Y-122456937D01*
X122898806Y-122599794D01*
X122851187Y-122695032D01*
X122803568Y-122742651D01*
X122708330Y-122790270D01*
X122327378Y-122790270D01*
X123279759Y-123218841D02*
X123422616Y-123266460D01*
X123660711Y-123266460D01*
X123755949Y-123218841D01*
X123803568Y-123171222D01*
X123851187Y-123075984D01*
X123851187Y-122980746D01*
X123803568Y-122885508D01*
X123755949Y-122837889D01*
X123660711Y-122790270D01*
X123470235Y-122742651D01*
X123374997Y-122695032D01*
X123327378Y-122647413D01*
X123279759Y-122552175D01*
X123279759Y-122456937D01*
X123327378Y-122361699D01*
X123374997Y-122314080D01*
X123470235Y-122266460D01*
X123708330Y-122266460D01*
X123851187Y-122314080D01*
X133297616Y-122980746D02*
X133773806Y-122980746D01*
X133202378Y-123266460D02*
X133535711Y-122266460D01*
X133869044Y-123266460D01*
X145743568Y-122742651D02*
X145886425Y-122790270D01*
X145934044Y-122837889D01*
X145981663Y-122933127D01*
X145981663Y-123075984D01*
X145934044Y-123171222D01*
X145886425Y-123218841D01*
X145791187Y-123266460D01*
X145410235Y-123266460D01*
X145410235Y-122266460D01*
X145743568Y-122266460D01*
X145838806Y-122314080D01*
X145886425Y-122361699D01*
X145934044Y-122456937D01*
X145934044Y-122552175D01*
X145886425Y-122647413D01*
X145838806Y-122695032D01*
X145743568Y-122742651D01*
X145410235Y-122742651D01*
D10*
X128564640Y-123449080D02*
X132374640Y-123449080D01*
X128564640Y-122179080D02*
X128564640Y-123449080D01*
X132374640Y-123449080D02*
X132374640Y-122179080D01*
X144439640Y-123449080D02*
X144439640Y-122179080D01*
X132374640Y-122179080D02*
X128564640Y-122179080D01*
X144439640Y-122179080D02*
X140629640Y-122179080D01*
X140629640Y-122179080D02*
X140629640Y-123449080D01*
D12*
G36*
X144439640Y-123449080D02*
G01*
X141899640Y-123449080D01*
X141899640Y-122179080D01*
X144439640Y-122179080D01*
X144439640Y-123449080D01*
G37*
X144439640Y-123449080D02*
X141899640Y-123449080D01*
X141899640Y-122179080D01*
X144439640Y-122179080D01*
X144439640Y-123449080D01*
G36*
X131104640Y-123449080D02*
G01*
X128564640Y-123449080D01*
X128564640Y-122179080D01*
X131104640Y-122179080D01*
X131104640Y-123449080D01*
G37*
X131104640Y-123449080D02*
X128564640Y-123449080D01*
X128564640Y-122179080D01*
X131104640Y-122179080D01*
X131104640Y-123449080D01*
D10*
X140629640Y-123449080D02*
X144439640Y-123449080D01*
D11*
X141536663Y-133426460D02*
X141203330Y-132950270D01*
X140965235Y-133426460D02*
X140965235Y-132426460D01*
X141346187Y-132426460D01*
X141441425Y-132474080D01*
X141489044Y-132521699D01*
X141536663Y-132616937D01*
X141536663Y-132759794D01*
X141489044Y-132855032D01*
X141441425Y-132902651D01*
X141346187Y-132950270D01*
X140965235Y-132950270D01*
X141822378Y-132426460D02*
X142393806Y-132426460D01*
X142108092Y-133426460D02*
X142108092Y-132426460D01*
X143298568Y-133331222D02*
X143250949Y-133378841D01*
X143108092Y-133426460D01*
X143012854Y-133426460D01*
X142869997Y-133378841D01*
X142774759Y-133283603D01*
X142727140Y-133188365D01*
X142679520Y-132997889D01*
X142679520Y-132855032D01*
X142727140Y-132664556D01*
X142774759Y-132569318D01*
X142869997Y-132474080D01*
X143012854Y-132426460D01*
X143108092Y-132426460D01*
X143250949Y-132474080D01*
X143298568Y-132521699D01*
X144441425Y-133140746D02*
X144917616Y-133140746D01*
X144346187Y-133426460D02*
X144679520Y-132426460D01*
X145012854Y-133426460D01*
X145679520Y-132902651D02*
X145822378Y-132950270D01*
X145869997Y-132997889D01*
X145917616Y-133093127D01*
X145917616Y-133235984D01*
X145869997Y-133331222D01*
X145822378Y-133378841D01*
X145727140Y-133426460D01*
X145346187Y-133426460D01*
X145346187Y-132426460D01*
X145679520Y-132426460D01*
X145774759Y-132474080D01*
X145822378Y-132521699D01*
X145869997Y-132616937D01*
X145869997Y-132712175D01*
X145822378Y-132807413D01*
X145774759Y-132855032D01*
X145679520Y-132902651D01*
X145346187Y-132902651D01*
X146298568Y-133378841D02*
X146441425Y-133426460D01*
X146679520Y-133426460D01*
X146774759Y-133378841D01*
X146822378Y-133331222D01*
X146869997Y-133235984D01*
X146869997Y-133140746D01*
X146822378Y-133045508D01*
X146774759Y-132997889D01*
X146679520Y-132950270D01*
X146489044Y-132902651D01*
X146393806Y-132855032D01*
X146346187Y-132807413D01*
X146298568Y-132712175D01*
X146298568Y-132616937D01*
X146346187Y-132521699D01*
X146393806Y-132474080D01*
X146489044Y-132426460D01*
X146727140Y-132426460D01*
X146869997Y-132474080D01*
X147298568Y-132902651D02*
X147631901Y-132902651D01*
X147774759Y-133426460D02*
X147298568Y-133426460D01*
X147298568Y-132426460D01*
X147774759Y-132426460D01*
X148203330Y-133426460D02*
X148203330Y-132426460D01*
X148774759Y-133426460D01*
X148774759Y-132426460D01*
X149108092Y-132426460D02*
X149679520Y-132426460D01*
X149393806Y-133426460D02*
X149393806Y-132426460D01*
X129406544Y-133426460D02*
X129073211Y-132950270D01*
X128835116Y-133426460D02*
X128835116Y-132426460D01*
X129216068Y-132426460D01*
X129311306Y-132474080D01*
X129358925Y-132521699D01*
X129406544Y-132616937D01*
X129406544Y-132759794D01*
X129358925Y-132855032D01*
X129311306Y-132902651D01*
X129216068Y-132950270D01*
X128835116Y-132950270D01*
X129692259Y-132426460D02*
X130263687Y-132426460D01*
X129977973Y-133426460D02*
X129977973Y-132426460D01*
X131168449Y-133331222D02*
X131120830Y-133378841D01*
X130977973Y-133426460D01*
X130882735Y-133426460D01*
X130739878Y-133378841D01*
X130644640Y-133283603D01*
X130597020Y-133188365D01*
X130549401Y-132997889D01*
X130549401Y-132855032D01*
X130597020Y-132664556D01*
X130644640Y-132569318D01*
X130739878Y-132474080D01*
X130882735Y-132426460D01*
X130977973Y-132426460D01*
X131120830Y-132474080D01*
X131168449Y-132521699D01*
X132358925Y-133426460D02*
X132358925Y-132426460D01*
X132739878Y-132426460D01*
X132835116Y-132474080D01*
X132882735Y-132521699D01*
X132930354Y-132616937D01*
X132930354Y-132759794D01*
X132882735Y-132855032D01*
X132835116Y-132902651D01*
X132739878Y-132950270D01*
X132358925Y-132950270D01*
X133930354Y-133426460D02*
X133597020Y-132950270D01*
X133358925Y-133426460D02*
X133358925Y-132426460D01*
X133739878Y-132426460D01*
X133835116Y-132474080D01*
X133882735Y-132521699D01*
X133930354Y-132616937D01*
X133930354Y-132759794D01*
X133882735Y-132855032D01*
X133835116Y-132902651D01*
X133739878Y-132950270D01*
X133358925Y-132950270D01*
X134358925Y-132902651D02*
X134692259Y-132902651D01*
X134835116Y-133426460D02*
X134358925Y-133426460D01*
X134358925Y-132426460D01*
X134835116Y-132426460D01*
X135216068Y-133378841D02*
X135358925Y-133426460D01*
X135597020Y-133426460D01*
X135692259Y-133378841D01*
X135739878Y-133331222D01*
X135787497Y-133235984D01*
X135787497Y-133140746D01*
X135739878Y-133045508D01*
X135692259Y-132997889D01*
X135597020Y-132950270D01*
X135406544Y-132902651D01*
X135311306Y-132855032D01*
X135263687Y-132807413D01*
X135216068Y-132712175D01*
X135216068Y-132616937D01*
X135263687Y-132521699D01*
X135311306Y-132474080D01*
X135406544Y-132426460D01*
X135644640Y-132426460D01*
X135787497Y-132474080D01*
X136216068Y-132902651D02*
X136549401Y-132902651D01*
X136692259Y-133426460D02*
X136216068Y-133426460D01*
X136216068Y-132426460D01*
X136692259Y-132426460D01*
X137120830Y-133426460D02*
X137120830Y-132426460D01*
X137692259Y-133426460D01*
X137692259Y-132426460D01*
X138025592Y-132426460D02*
X138597020Y-132426460D01*
X138311306Y-133426460D02*
X138311306Y-132426460D01*
X141536663Y-130886460D02*
X141203330Y-130410270D01*
X140965235Y-130886460D02*
X140965235Y-129886460D01*
X141346187Y-129886460D01*
X141441425Y-129934080D01*
X141489044Y-129981699D01*
X141536663Y-130076937D01*
X141536663Y-130219794D01*
X141489044Y-130315032D01*
X141441425Y-130362651D01*
X141346187Y-130410270D01*
X140965235Y-130410270D01*
X142155711Y-129886460D02*
X142346187Y-129886460D01*
X142441425Y-129934080D01*
X142536663Y-130029318D01*
X142584282Y-130219794D01*
X142584282Y-130553127D01*
X142536663Y-130743603D01*
X142441425Y-130838841D01*
X142346187Y-130886460D01*
X142155711Y-130886460D01*
X142060473Y-130838841D01*
X141965235Y-130743603D01*
X141917616Y-130553127D01*
X141917616Y-130219794D01*
X141965235Y-130029318D01*
X142060473Y-129934080D01*
X142155711Y-129886460D01*
X143012854Y-130886460D02*
X143012854Y-129886460D01*
X143346187Y-130600746D01*
X143679520Y-129886460D01*
X143679520Y-130886460D01*
X144917616Y-130886460D02*
X144917616Y-129886460D01*
X145155711Y-129886460D01*
X145298568Y-129934080D01*
X145393806Y-130029318D01*
X145441425Y-130124556D01*
X145489044Y-130315032D01*
X145489044Y-130457889D01*
X145441425Y-130648365D01*
X145393806Y-130743603D01*
X145298568Y-130838841D01*
X145155711Y-130886460D01*
X144917616Y-130886460D01*
X146060473Y-130315032D02*
X145965235Y-130267413D01*
X145917616Y-130219794D01*
X145869997Y-130124556D01*
X145869997Y-130076937D01*
X145917616Y-129981699D01*
X145965235Y-129934080D01*
X146060473Y-129886460D01*
X146250949Y-129886460D01*
X146346187Y-129934080D01*
X146393806Y-129981699D01*
X146441425Y-130076937D01*
X146441425Y-130124556D01*
X146393806Y-130219794D01*
X146346187Y-130267413D01*
X146250949Y-130315032D01*
X146060473Y-130315032D01*
X145965235Y-130362651D01*
X145917616Y-130410270D01*
X145869997Y-130505508D01*
X145869997Y-130695984D01*
X145917616Y-130791222D01*
X145965235Y-130838841D01*
X146060473Y-130886460D01*
X146250949Y-130886460D01*
X146346187Y-130838841D01*
X146393806Y-130791222D01*
X146441425Y-130695984D01*
X146441425Y-130505508D01*
X146393806Y-130410270D01*
X146346187Y-130362651D01*
X146250949Y-130315032D01*
X147060473Y-129886460D02*
X147155711Y-129886460D01*
X147250949Y-129934080D01*
X147298568Y-129981699D01*
X147346187Y-130076937D01*
X147393806Y-130267413D01*
X147393806Y-130505508D01*
X147346187Y-130695984D01*
X147298568Y-130791222D01*
X147250949Y-130838841D01*
X147155711Y-130886460D01*
X147060473Y-130886460D01*
X146965235Y-130838841D01*
X146917616Y-130791222D01*
X146869997Y-130695984D01*
X146822378Y-130505508D01*
X146822378Y-130267413D01*
X146869997Y-130076937D01*
X146917616Y-129981699D01*
X146965235Y-129934080D01*
X147060473Y-129886460D01*
X148012854Y-129886460D02*
X148108092Y-129886460D01*
X148203330Y-129934080D01*
X148250949Y-129981699D01*
X148298568Y-130076937D01*
X148346187Y-130267413D01*
X148346187Y-130505508D01*
X148298568Y-130695984D01*
X148250949Y-130791222D01*
X148203330Y-130838841D01*
X148108092Y-130886460D01*
X148012854Y-130886460D01*
X147917616Y-130838841D01*
X147869997Y-130791222D01*
X147822378Y-130695984D01*
X147774759Y-130505508D01*
X147774759Y-130267413D01*
X147822378Y-130076937D01*
X147869997Y-129981699D01*
X147917616Y-129934080D01*
X148012854Y-129886460D01*
X148774759Y-130886460D02*
X148774759Y-129886460D01*
X149203330Y-130886460D02*
X149203330Y-130362651D01*
X149155711Y-130267413D01*
X149060473Y-130219794D01*
X148917616Y-130219794D01*
X148822378Y-130267413D01*
X148774759Y-130315032D01*
X129471663Y-130886460D02*
X129138330Y-130410270D01*
X128900235Y-130886460D02*
X128900235Y-129886460D01*
X129281187Y-129886460D01*
X129376425Y-129934080D01*
X129424044Y-129981699D01*
X129471663Y-130076937D01*
X129471663Y-130219794D01*
X129424044Y-130315032D01*
X129376425Y-130362651D01*
X129281187Y-130410270D01*
X128900235Y-130410270D01*
X130090711Y-129886460D02*
X130281187Y-129886460D01*
X130376425Y-129934080D01*
X130471663Y-130029318D01*
X130519282Y-130219794D01*
X130519282Y-130553127D01*
X130471663Y-130743603D01*
X130376425Y-130838841D01*
X130281187Y-130886460D01*
X130090711Y-130886460D01*
X129995473Y-130838841D01*
X129900235Y-130743603D01*
X129852616Y-130553127D01*
X129852616Y-130219794D01*
X129900235Y-130029318D01*
X129995473Y-129934080D01*
X130090711Y-129886460D01*
X130947854Y-130886460D02*
X130947854Y-129886460D01*
X131281187Y-130600746D01*
X131614520Y-129886460D01*
X131614520Y-130886460D01*
X133424044Y-130791222D02*
X133376425Y-130838841D01*
X133233568Y-130886460D01*
X133138330Y-130886460D01*
X132995473Y-130838841D01*
X132900235Y-130743603D01*
X132852616Y-130648365D01*
X132804997Y-130457889D01*
X132804997Y-130315032D01*
X132852616Y-130124556D01*
X132900235Y-130029318D01*
X132995473Y-129934080D01*
X133138330Y-129886460D01*
X133233568Y-129886460D01*
X133376425Y-129934080D01*
X133424044Y-129981699D01*
X133995473Y-130315032D02*
X133900235Y-130267413D01*
X133852616Y-130219794D01*
X133804997Y-130124556D01*
X133804997Y-130076937D01*
X133852616Y-129981699D01*
X133900235Y-129934080D01*
X133995473Y-129886460D01*
X134185949Y-129886460D01*
X134281187Y-129934080D01*
X134328806Y-129981699D01*
X134376425Y-130076937D01*
X134376425Y-130124556D01*
X134328806Y-130219794D01*
X134281187Y-130267413D01*
X134185949Y-130315032D01*
X133995473Y-130315032D01*
X133900235Y-130362651D01*
X133852616Y-130410270D01*
X133804997Y-130505508D01*
X133804997Y-130695984D01*
X133852616Y-130791222D01*
X133900235Y-130838841D01*
X133995473Y-130886460D01*
X134185949Y-130886460D01*
X134281187Y-130838841D01*
X134328806Y-130791222D01*
X134376425Y-130695984D01*
X134376425Y-130505508D01*
X134328806Y-130410270D01*
X134281187Y-130362651D01*
X134185949Y-130315032D01*
X134995473Y-129886460D02*
X135090711Y-129886460D01*
X135185949Y-129934080D01*
X135233568Y-129981699D01*
X135281187Y-130076937D01*
X135328806Y-130267413D01*
X135328806Y-130505508D01*
X135281187Y-130695984D01*
X135233568Y-130791222D01*
X135185949Y-130838841D01*
X135090711Y-130886460D01*
X134995473Y-130886460D01*
X134900235Y-130838841D01*
X134852616Y-130791222D01*
X134804997Y-130695984D01*
X134757378Y-130505508D01*
X134757378Y-130267413D01*
X134804997Y-130076937D01*
X134852616Y-129981699D01*
X134900235Y-129934080D01*
X134995473Y-129886460D01*
X135947854Y-129886460D02*
X136043092Y-129886460D01*
X136138330Y-129934080D01*
X136185949Y-129981699D01*
X136233568Y-130076937D01*
X136281187Y-130267413D01*
X136281187Y-130505508D01*
X136233568Y-130695984D01*
X136185949Y-130791222D01*
X136138330Y-130838841D01*
X136043092Y-130886460D01*
X135947854Y-130886460D01*
X135852616Y-130838841D01*
X135804997Y-130791222D01*
X135757378Y-130695984D01*
X135709759Y-130505508D01*
X135709759Y-130267413D01*
X135757378Y-130076937D01*
X135804997Y-129981699D01*
X135852616Y-129934080D01*
X135947854Y-129886460D01*
X136709759Y-130886460D02*
X136709759Y-129886460D01*
X137138330Y-130886460D02*
X137138330Y-130362651D01*
X137090711Y-130267413D01*
X136995473Y-130219794D01*
X136852616Y-130219794D01*
X136757378Y-130267413D01*
X136709759Y-130315032D01*
X140965235Y-128346460D02*
X140965235Y-127346460D01*
X141346187Y-127346460D01*
X141441425Y-127394080D01*
X141489044Y-127441699D01*
X141536663Y-127536937D01*
X141536663Y-127679794D01*
X141489044Y-127775032D01*
X141441425Y-127822651D01*
X141346187Y-127870270D01*
X140965235Y-127870270D01*
X142155711Y-127346460D02*
X142346187Y-127346460D01*
X142441425Y-127394080D01*
X142536663Y-127489318D01*
X142584282Y-127679794D01*
X142584282Y-128013127D01*
X142536663Y-128203603D01*
X142441425Y-128298841D01*
X142346187Y-128346460D01*
X142155711Y-128346460D01*
X142060473Y-128298841D01*
X141965235Y-128203603D01*
X141917616Y-128013127D01*
X141917616Y-127679794D01*
X141965235Y-127489318D01*
X142060473Y-127394080D01*
X142155711Y-127346460D01*
X143584282Y-128346460D02*
X143250949Y-127870270D01*
X143012854Y-128346460D02*
X143012854Y-127346460D01*
X143393806Y-127346460D01*
X143489044Y-127394080D01*
X143536663Y-127441699D01*
X143584282Y-127536937D01*
X143584282Y-127679794D01*
X143536663Y-127775032D01*
X143489044Y-127822651D01*
X143393806Y-127870270D01*
X143012854Y-127870270D01*
X143869997Y-127346460D02*
X144441425Y-127346460D01*
X144155711Y-128346460D02*
X144155711Y-127346460D01*
X146060473Y-128346460D02*
X145489044Y-128346460D01*
X145774759Y-128346460D02*
X145774759Y-127346460D01*
X145679520Y-127489318D01*
X145584282Y-127584556D01*
X145489044Y-127632175D01*
X146822378Y-127822651D02*
X146489044Y-127822651D01*
X146489044Y-128346460D02*
X146489044Y-127346460D01*
X146965235Y-127346460D01*
X147536663Y-127346460D02*
X147631901Y-127346460D01*
X147727140Y-127394080D01*
X147774759Y-127441699D01*
X147822378Y-127536937D01*
X147869997Y-127727413D01*
X147869997Y-127965508D01*
X147822378Y-128155984D01*
X147774759Y-128251222D01*
X147727140Y-128298841D01*
X147631901Y-128346460D01*
X147536663Y-128346460D01*
X147441425Y-128298841D01*
X147393806Y-128251222D01*
X147346187Y-128155984D01*
X147298568Y-127965508D01*
X147298568Y-127727413D01*
X147346187Y-127536937D01*
X147393806Y-127441699D01*
X147441425Y-127394080D01*
X147536663Y-127346460D01*
X148298568Y-128346460D02*
X148298568Y-127346460D01*
X148727140Y-128346460D02*
X148727140Y-127822651D01*
X148679520Y-127727413D01*
X148584282Y-127679794D01*
X148441425Y-127679794D01*
X148346187Y-127727413D01*
X148298568Y-127775032D01*
X128900235Y-128346460D02*
X128900235Y-127346460D01*
X129281187Y-127346460D01*
X129376425Y-127394080D01*
X129424044Y-127441699D01*
X129471663Y-127536937D01*
X129471663Y-127679794D01*
X129424044Y-127775032D01*
X129376425Y-127822651D01*
X129281187Y-127870270D01*
X128900235Y-127870270D01*
X130043092Y-128346460D02*
X129947854Y-128298841D01*
X129900235Y-128251222D01*
X129852616Y-128155984D01*
X129852616Y-127870270D01*
X129900235Y-127775032D01*
X129947854Y-127727413D01*
X130043092Y-127679794D01*
X130185949Y-127679794D01*
X130281187Y-127727413D01*
X130328806Y-127775032D01*
X130376425Y-127870270D01*
X130376425Y-128155984D01*
X130328806Y-128251222D01*
X130281187Y-128298841D01*
X130185949Y-128346460D01*
X130043092Y-128346460D01*
X130804997Y-128346460D02*
X130804997Y-127679794D01*
X130804997Y-127870270D02*
X130852616Y-127775032D01*
X130900235Y-127727413D01*
X130995473Y-127679794D01*
X131090711Y-127679794D01*
X131281187Y-127679794D02*
X131662140Y-127679794D01*
X131424044Y-127346460D02*
X131424044Y-128203603D01*
X131471663Y-128298841D01*
X131566901Y-128346460D01*
X131662140Y-128346460D01*
X132662140Y-127346460D02*
X133281187Y-127346460D01*
X132947854Y-127727413D01*
X133090711Y-127727413D01*
X133185949Y-127775032D01*
X133233568Y-127822651D01*
X133281187Y-127917889D01*
X133281187Y-128155984D01*
X133233568Y-128251222D01*
X133185949Y-128298841D01*
X133090711Y-128346460D01*
X132804997Y-128346460D01*
X132709759Y-128298841D01*
X132662140Y-128251222D01*
X133662140Y-127441699D02*
X133709759Y-127394080D01*
X133804997Y-127346460D01*
X134043092Y-127346460D01*
X134138330Y-127394080D01*
X134185949Y-127441699D01*
X134233568Y-127536937D01*
X134233568Y-127632175D01*
X134185949Y-127775032D01*
X133614520Y-128346460D01*
X134233568Y-128346460D01*
X134852616Y-127346460D02*
X134947854Y-127346460D01*
X135043092Y-127394080D01*
X135090711Y-127441699D01*
X135138330Y-127536937D01*
X135185949Y-127727413D01*
X135185949Y-127965508D01*
X135138330Y-128155984D01*
X135090711Y-128251222D01*
X135043092Y-128298841D01*
X134947854Y-128346460D01*
X134852616Y-128346460D01*
X134757378Y-128298841D01*
X134709759Y-128251222D01*
X134662140Y-128155984D01*
X134614520Y-127965508D01*
X134614520Y-127727413D01*
X134662140Y-127536937D01*
X134709759Y-127441699D01*
X134757378Y-127394080D01*
X134852616Y-127346460D01*
X135614520Y-128346460D02*
X135614520Y-127346460D01*
X136043092Y-128346460D02*
X136043092Y-127822651D01*
X135995473Y-127727413D01*
X135900235Y-127679794D01*
X135757378Y-127679794D01*
X135662140Y-127727413D01*
X135614520Y-127775032D01*
X140822378Y-124806460D02*
X141155711Y-125806460D01*
X141489044Y-124806460D01*
X141774759Y-124901699D02*
X141822378Y-124854080D01*
X141917616Y-124806460D01*
X142155711Y-124806460D01*
X142250949Y-124854080D01*
X142298568Y-124901699D01*
X142346187Y-124996937D01*
X142346187Y-125092175D01*
X142298568Y-125235032D01*
X141727140Y-125806460D01*
X142346187Y-125806460D01*
X142965235Y-124806460D02*
X143060473Y-124806460D01*
X143155711Y-124854080D01*
X143203330Y-124901699D01*
X143250949Y-124996937D01*
X143298568Y-125187413D01*
X143298568Y-125425508D01*
X143250949Y-125615984D01*
X143203330Y-125711222D01*
X143155711Y-125758841D01*
X143060473Y-125806460D01*
X142965235Y-125806460D01*
X142869997Y-125758841D01*
X142822378Y-125711222D01*
X142774759Y-125615984D01*
X142727140Y-125425508D01*
X142727140Y-125187413D01*
X142774759Y-124996937D01*
X142822378Y-124901699D01*
X142869997Y-124854080D01*
X142965235Y-124806460D01*
X143774759Y-125758841D02*
X143774759Y-125806460D01*
X143727140Y-125901699D01*
X143679520Y-125949318D01*
X144917616Y-124901699D02*
X144965235Y-124854080D01*
X145060473Y-124806460D01*
X145298568Y-124806460D01*
X145393806Y-124854080D01*
X145441425Y-124901699D01*
X145489044Y-124996937D01*
X145489044Y-125092175D01*
X145441425Y-125235032D01*
X144869997Y-125806460D01*
X145489044Y-125806460D01*
X146060473Y-125235032D02*
X145965235Y-125187413D01*
X145917616Y-125139794D01*
X145869997Y-125044556D01*
X145869997Y-124996937D01*
X145917616Y-124901699D01*
X145965235Y-124854080D01*
X146060473Y-124806460D01*
X146250949Y-124806460D01*
X146346187Y-124854080D01*
X146393806Y-124901699D01*
X146441425Y-124996937D01*
X146441425Y-125044556D01*
X146393806Y-125139794D01*
X146346187Y-125187413D01*
X146250949Y-125235032D01*
X146060473Y-125235032D01*
X145965235Y-125282651D01*
X145917616Y-125330270D01*
X145869997Y-125425508D01*
X145869997Y-125615984D01*
X145917616Y-125711222D01*
X145965235Y-125758841D01*
X146060473Y-125806460D01*
X146250949Y-125806460D01*
X146346187Y-125758841D01*
X146393806Y-125711222D01*
X146441425Y-125615984D01*
X146441425Y-125425508D01*
X146393806Y-125330270D01*
X146346187Y-125282651D01*
X146250949Y-125235032D01*
X147298568Y-124806460D02*
X147108092Y-124806460D01*
X147012854Y-124854080D01*
X146965235Y-124901699D01*
X146869997Y-125044556D01*
X146822378Y-125235032D01*
X146822378Y-125615984D01*
X146869997Y-125711222D01*
X146917616Y-125758841D01*
X147012854Y-125806460D01*
X147203330Y-125806460D01*
X147298568Y-125758841D01*
X147346187Y-125711222D01*
X147393806Y-125615984D01*
X147393806Y-125377889D01*
X147346187Y-125282651D01*
X147298568Y-125235032D01*
X147203330Y-125187413D01*
X147012854Y-125187413D01*
X146917616Y-125235032D01*
X146869997Y-125282651D01*
X146822378Y-125377889D01*
X147869997Y-125758841D02*
X147869997Y-125806460D01*
X147822378Y-125901699D01*
X147774759Y-125949318D01*
X148298568Y-125711222D02*
X148346187Y-125758841D01*
X148298568Y-125806460D01*
X148250949Y-125758841D01*
X148298568Y-125711222D01*
X148298568Y-125806460D01*
X148774759Y-125711222D02*
X148822378Y-125758841D01*
X148774759Y-125806460D01*
X148727140Y-125758841D01*
X148774759Y-125711222D01*
X148774759Y-125806460D01*
X149250949Y-125711222D02*
X149298568Y-125758841D01*
X149250949Y-125806460D01*
X149203330Y-125758841D01*
X149250949Y-125711222D01*
X149250949Y-125806460D01*
X129043092Y-125235032D02*
X128947854Y-125187413D01*
X128900235Y-125139794D01*
X128852616Y-125044556D01*
X128852616Y-124996937D01*
X128900235Y-124901699D01*
X128947854Y-124854080D01*
X129043092Y-124806460D01*
X129233568Y-124806460D01*
X129328806Y-124854080D01*
X129376425Y-124901699D01*
X129424044Y-124996937D01*
X129424044Y-125044556D01*
X129376425Y-125139794D01*
X129328806Y-125187413D01*
X129233568Y-125235032D01*
X129043092Y-125235032D01*
X128947854Y-125282651D01*
X128900235Y-125330270D01*
X128852616Y-125425508D01*
X128852616Y-125615984D01*
X128900235Y-125711222D01*
X128947854Y-125758841D01*
X129043092Y-125806460D01*
X129233568Y-125806460D01*
X129328806Y-125758841D01*
X129376425Y-125711222D01*
X129424044Y-125615984D01*
X129424044Y-125425508D01*
X129376425Y-125330270D01*
X129328806Y-125282651D01*
X129233568Y-125235032D01*
X130043092Y-124806460D02*
X130138330Y-124806460D01*
X130233568Y-124854080D01*
X130281187Y-124901699D01*
X130328806Y-124996937D01*
X130376425Y-125187413D01*
X130376425Y-125425508D01*
X130328806Y-125615984D01*
X130281187Y-125711222D01*
X130233568Y-125758841D01*
X130138330Y-125806460D01*
X130043092Y-125806460D01*
X129947854Y-125758841D01*
X129900235Y-125711222D01*
X129852616Y-125615984D01*
X129804997Y-125425508D01*
X129804997Y-125187413D01*
X129852616Y-124996937D01*
X129900235Y-124901699D01*
X129947854Y-124854080D01*
X130043092Y-124806460D01*
X130947854Y-125235032D02*
X130852616Y-125187413D01*
X130804997Y-125139794D01*
X130757378Y-125044556D01*
X130757378Y-124996937D01*
X130804997Y-124901699D01*
X130852616Y-124854080D01*
X130947854Y-124806460D01*
X131138330Y-124806460D01*
X131233568Y-124854080D01*
X131281187Y-124901699D01*
X131328806Y-124996937D01*
X131328806Y-125044556D01*
X131281187Y-125139794D01*
X131233568Y-125187413D01*
X131138330Y-125235032D01*
X130947854Y-125235032D01*
X130852616Y-125282651D01*
X130804997Y-125330270D01*
X130757378Y-125425508D01*
X130757378Y-125615984D01*
X130804997Y-125711222D01*
X130852616Y-125758841D01*
X130947854Y-125806460D01*
X131138330Y-125806460D01*
X131233568Y-125758841D01*
X131281187Y-125711222D01*
X131328806Y-125615984D01*
X131328806Y-125425508D01*
X131281187Y-125330270D01*
X131233568Y-125282651D01*
X131138330Y-125235032D01*
X132185949Y-124806460D02*
X131995473Y-124806460D01*
X131900235Y-124854080D01*
X131852616Y-124901699D01*
X131757378Y-125044556D01*
X131709759Y-125235032D01*
X131709759Y-125615984D01*
X131757378Y-125711222D01*
X131804997Y-125758841D01*
X131900235Y-125806460D01*
X132090711Y-125806460D01*
X132185949Y-125758841D01*
X132233568Y-125711222D01*
X132281187Y-125615984D01*
X132281187Y-125377889D01*
X132233568Y-125282651D01*
X132185949Y-125235032D01*
X132090711Y-125187413D01*
X131900235Y-125187413D01*
X131804997Y-125235032D01*
X131757378Y-125282651D01*
X131709759Y-125377889D01*
X133424044Y-124758841D02*
X132566901Y-126044556D01*
X133900235Y-125235032D02*
X133804997Y-125187413D01*
X133757378Y-125139794D01*
X133709759Y-125044556D01*
X133709759Y-124996937D01*
X133757378Y-124901699D01*
X133804997Y-124854080D01*
X133900235Y-124806460D01*
X134090711Y-124806460D01*
X134185949Y-124854080D01*
X134233568Y-124901699D01*
X134281187Y-124996937D01*
X134281187Y-125044556D01*
X134233568Y-125139794D01*
X134185949Y-125187413D01*
X134090711Y-125235032D01*
X133900235Y-125235032D01*
X133804997Y-125282651D01*
X133757378Y-125330270D01*
X133709759Y-125425508D01*
X133709759Y-125615984D01*
X133757378Y-125711222D01*
X133804997Y-125758841D01*
X133900235Y-125806460D01*
X134090711Y-125806460D01*
X134185949Y-125758841D01*
X134233568Y-125711222D01*
X134281187Y-125615984D01*
X134281187Y-125425508D01*
X134233568Y-125330270D01*
X134185949Y-125282651D01*
X134090711Y-125235032D01*
X134900235Y-124806460D02*
X134995473Y-124806460D01*
X135090711Y-124854080D01*
X135138330Y-124901699D01*
X135185949Y-124996937D01*
X135233568Y-125187413D01*
X135233568Y-125425508D01*
X135185949Y-125615984D01*
X135138330Y-125711222D01*
X135090711Y-125758841D01*
X134995473Y-125806460D01*
X134900235Y-125806460D01*
X134804997Y-125758841D01*
X134757378Y-125711222D01*
X134709759Y-125615984D01*
X134662140Y-125425508D01*
X134662140Y-125187413D01*
X134709759Y-124996937D01*
X134757378Y-124901699D01*
X134804997Y-124854080D01*
X134900235Y-124806460D01*
X135804997Y-125235032D02*
X135709759Y-125187413D01*
X135662140Y-125139794D01*
X135614520Y-125044556D01*
X135614520Y-124996937D01*
X135662140Y-124901699D01*
X135709759Y-124854080D01*
X135804997Y-124806460D01*
X135995473Y-124806460D01*
X136090711Y-124854080D01*
X136138330Y-124901699D01*
X136185949Y-124996937D01*
X136185949Y-125044556D01*
X136138330Y-125139794D01*
X136090711Y-125187413D01*
X135995473Y-125235032D01*
X135804997Y-125235032D01*
X135709759Y-125282651D01*
X135662140Y-125330270D01*
X135614520Y-125425508D01*
X135614520Y-125615984D01*
X135662140Y-125711222D01*
X135709759Y-125758841D01*
X135804997Y-125806460D01*
X135995473Y-125806460D01*
X136090711Y-125758841D01*
X136138330Y-125711222D01*
X136185949Y-125615984D01*
X136185949Y-125425508D01*
X136138330Y-125330270D01*
X136090711Y-125282651D01*
X135995473Y-125235032D01*
X136757378Y-125235032D02*
X136662140Y-125187413D01*
X136614520Y-125139794D01*
X136566901Y-125044556D01*
X136566901Y-124996937D01*
X136614520Y-124901699D01*
X136662140Y-124854080D01*
X136757378Y-124806460D01*
X136947854Y-124806460D01*
X137043092Y-124854080D01*
X137090711Y-124901699D01*
X137138330Y-124996937D01*
X137138330Y-125044556D01*
X137090711Y-125139794D01*
X137043092Y-125187413D01*
X136947854Y-125235032D01*
X136757378Y-125235032D01*
X136662140Y-125282651D01*
X136614520Y-125330270D01*
X136566901Y-125425508D01*
X136566901Y-125615984D01*
X136614520Y-125711222D01*
X136662140Y-125758841D01*
X136757378Y-125806460D01*
X136947854Y-125806460D01*
X137043092Y-125758841D01*
X137090711Y-125711222D01*
X137138330Y-125615984D01*
X137138330Y-125425508D01*
X137090711Y-125330270D01*
X137043092Y-125282651D01*
X136947854Y-125235032D01*
X118041663Y-125711222D02*
X117994044Y-125758841D01*
X117851187Y-125806460D01*
X117755949Y-125806460D01*
X117613092Y-125758841D01*
X117517854Y-125663603D01*
X117470235Y-125568365D01*
X117422616Y-125377889D01*
X117422616Y-125235032D01*
X117470235Y-125044556D01*
X117517854Y-124949318D01*
X117613092Y-124854080D01*
X117755949Y-124806460D01*
X117851187Y-124806460D01*
X117994044Y-124854080D01*
X118041663Y-124901699D01*
X118470235Y-125806460D02*
X118470235Y-124806460D01*
X118851187Y-124806460D01*
X118946425Y-124854080D01*
X118994044Y-124901699D01*
X119041663Y-124996937D01*
X119041663Y-125139794D01*
X118994044Y-125235032D01*
X118946425Y-125282651D01*
X118851187Y-125330270D01*
X118470235Y-125330270D01*
X119470235Y-124806460D02*
X119470235Y-125615984D01*
X119517854Y-125711222D01*
X119565473Y-125758841D01*
X119660711Y-125806460D01*
X119851187Y-125806460D01*
X119946425Y-125758841D01*
X119994044Y-125711222D01*
X120041663Y-125615984D01*
X120041663Y-124806460D01*
X121136901Y-124806460D02*
X121708330Y-124806460D01*
X121422616Y-125806460D02*
X121422616Y-124806460D01*
X122232140Y-125330270D02*
X122232140Y-125806460D01*
X121898806Y-124806460D02*
X122232140Y-125330270D01*
X122565473Y-124806460D01*
X122898806Y-125806460D02*
X122898806Y-124806460D01*
X123279759Y-124806460D01*
X123374997Y-124854080D01*
X123422616Y-124901699D01*
X123470235Y-124996937D01*
X123470235Y-125139794D01*
X123422616Y-125235032D01*
X123374997Y-125282651D01*
X123279759Y-125330270D01*
X122898806Y-125330270D01*
X123898806Y-125282651D02*
X124232140Y-125282651D01*
X124374997Y-125806460D02*
X123898806Y-125806460D01*
X123898806Y-124806460D01*
X124374997Y-124806460D01*
X118041663Y-133426460D02*
X117708330Y-132950270D01*
X117470235Y-133426460D02*
X117470235Y-132426460D01*
X117851187Y-132426460D01*
X117946425Y-132474080D01*
X117994044Y-132521699D01*
X118041663Y-132616937D01*
X118041663Y-132759794D01*
X117994044Y-132855032D01*
X117946425Y-132902651D01*
X117851187Y-132950270D01*
X117470235Y-132950270D01*
X118327378Y-132426460D02*
X118898806Y-132426460D01*
X118613092Y-133426460D02*
X118613092Y-132426460D01*
X119803568Y-133331222D02*
X119755949Y-133378841D01*
X119613092Y-133426460D01*
X119517854Y-133426460D01*
X119374997Y-133378841D01*
X119279759Y-133283603D01*
X119232140Y-133188365D01*
X119184520Y-132997889D01*
X119184520Y-132855032D01*
X119232140Y-132664556D01*
X119279759Y-132569318D01*
X119374997Y-132474080D01*
X119517854Y-132426460D01*
X119613092Y-132426460D01*
X119755949Y-132474080D01*
X119803568Y-132521699D01*
X121184520Y-132426460D02*
X121374997Y-132426460D01*
X121470235Y-132474080D01*
X121565473Y-132569318D01*
X121613092Y-132759794D01*
X121613092Y-133093127D01*
X121565473Y-133283603D01*
X121470235Y-133378841D01*
X121374997Y-133426460D01*
X121184520Y-133426460D01*
X121089282Y-133378841D01*
X120994044Y-133283603D01*
X120946425Y-133093127D01*
X120946425Y-132759794D01*
X120994044Y-132569318D01*
X121089282Y-132474080D01*
X121184520Y-132426460D01*
X122041663Y-133426460D02*
X122041663Y-132426460D01*
X122422616Y-132426460D01*
X122517854Y-132474080D01*
X122565473Y-132521699D01*
X122613092Y-132616937D01*
X122613092Y-132759794D01*
X122565473Y-132855032D01*
X122517854Y-132902651D01*
X122422616Y-132950270D01*
X122041663Y-132950270D01*
X122898806Y-132426460D02*
X123470235Y-132426460D01*
X123184520Y-133426460D02*
X123184520Y-132426460D01*
X123803568Y-133426460D02*
X123803568Y-132426460D01*
X124470235Y-132426460D02*
X124660711Y-132426460D01*
X124755949Y-132474080D01*
X124851187Y-132569318D01*
X124898806Y-132759794D01*
X124898806Y-133093127D01*
X124851187Y-133283603D01*
X124755949Y-133378841D01*
X124660711Y-133426460D01*
X124470235Y-133426460D01*
X124374997Y-133378841D01*
X124279759Y-133283603D01*
X124232140Y-133093127D01*
X124232140Y-132759794D01*
X124279759Y-132569318D01*
X124374997Y-132474080D01*
X124470235Y-132426460D01*
X125327378Y-133426460D02*
X125327378Y-132426460D01*
X125898806Y-133426460D01*
X125898806Y-132426460D01*
X118041663Y-130886460D02*
X117708330Y-130410270D01*
X117470235Y-130886460D02*
X117470235Y-129886460D01*
X117851187Y-129886460D01*
X117946425Y-129934080D01*
X117994044Y-129981699D01*
X118041663Y-130076937D01*
X118041663Y-130219794D01*
X117994044Y-130315032D01*
X117946425Y-130362651D01*
X117851187Y-130410270D01*
X117470235Y-130410270D01*
X118660711Y-129886460D02*
X118851187Y-129886460D01*
X118946425Y-129934080D01*
X119041663Y-130029318D01*
X119089282Y-130219794D01*
X119089282Y-130553127D01*
X119041663Y-130743603D01*
X118946425Y-130838841D01*
X118851187Y-130886460D01*
X118660711Y-130886460D01*
X118565473Y-130838841D01*
X118470235Y-130743603D01*
X118422616Y-130553127D01*
X118422616Y-130219794D01*
X118470235Y-130029318D01*
X118565473Y-129934080D01*
X118660711Y-129886460D01*
X119517854Y-130886460D02*
X119517854Y-129886460D01*
X119851187Y-130600746D01*
X120184520Y-129886460D01*
X120184520Y-130886460D01*
X121374997Y-130600746D02*
X121851187Y-130600746D01*
X121279759Y-130886460D02*
X121613092Y-129886460D01*
X121946425Y-130886460D01*
X122279759Y-130886460D02*
X122279759Y-129886460D01*
X122517854Y-129886460D01*
X122660711Y-129934080D01*
X122755949Y-130029318D01*
X122803568Y-130124556D01*
X122851187Y-130315032D01*
X122851187Y-130457889D01*
X122803568Y-130648365D01*
X122755949Y-130743603D01*
X122660711Y-130838841D01*
X122517854Y-130886460D01*
X122279759Y-130886460D01*
X123279759Y-130886460D02*
X123279759Y-129886460D01*
X123517854Y-129886460D01*
X123660711Y-129934080D01*
X123755949Y-130029318D01*
X123803568Y-130124556D01*
X123851187Y-130315032D01*
X123851187Y-130457889D01*
X123803568Y-130648365D01*
X123755949Y-130743603D01*
X123660711Y-130838841D01*
X123517854Y-130886460D01*
X123279759Y-130886460D01*
X124851187Y-130886460D02*
X124517854Y-130410270D01*
X124279759Y-130886460D02*
X124279759Y-129886460D01*
X124660711Y-129886460D01*
X124755949Y-129934080D01*
X124803568Y-129981699D01*
X124851187Y-130076937D01*
X124851187Y-130219794D01*
X124803568Y-130315032D01*
X124755949Y-130362651D01*
X124660711Y-130410270D01*
X124279759Y-130410270D01*
X125279759Y-130791222D02*
X125327378Y-130838841D01*
X125279759Y-130886460D01*
X125232140Y-130838841D01*
X125279759Y-130791222D01*
X125279759Y-130886460D01*
X117422616Y-128060746D02*
X117898806Y-128060746D01*
X117327378Y-128346460D02*
X117660711Y-127346460D01*
X117994044Y-128346460D01*
X118184520Y-127346460D02*
X118755949Y-127346460D01*
X118470235Y-128346460D02*
X118470235Y-127346460D01*
X119041663Y-128060746D02*
X119517854Y-128060746D01*
X118946425Y-128346460D02*
X119279759Y-127346460D01*
X119613092Y-128346460D01*
X120708330Y-128346460D02*
X120708330Y-127346460D01*
X121089282Y-127346460D01*
X121184520Y-127394080D01*
X121232140Y-127441699D01*
X121279759Y-127536937D01*
X121279759Y-127679794D01*
X121232140Y-127775032D01*
X121184520Y-127822651D01*
X121089282Y-127870270D01*
X120708330Y-127870270D01*
X121898806Y-127346460D02*
X122089282Y-127346460D01*
X122184520Y-127394080D01*
X122279759Y-127489318D01*
X122327378Y-127679794D01*
X122327378Y-128013127D01*
X122279759Y-128203603D01*
X122184520Y-128298841D01*
X122089282Y-128346460D01*
X121898806Y-128346460D01*
X121803568Y-128298841D01*
X121708330Y-128203603D01*
X121660711Y-128013127D01*
X121660711Y-127679794D01*
X121708330Y-127489318D01*
X121803568Y-127394080D01*
X121898806Y-127346460D01*
X123327378Y-128346460D02*
X122994044Y-127870270D01*
X122755949Y-128346460D02*
X122755949Y-127346460D01*
X123136901Y-127346460D01*
X123232140Y-127394080D01*
X123279759Y-127441699D01*
X123327378Y-127536937D01*
X123327378Y-127679794D01*
X123279759Y-127775032D01*
X123232140Y-127822651D01*
X123136901Y-127870270D01*
X122755949Y-127870270D01*
X123613092Y-127346460D02*
X124184520Y-127346460D01*
X123898806Y-128346460D02*
X123898806Y-127346460D01*
X156590244Y-43420794D02*
X156017824Y-43993214D01*
X155984153Y-44094229D01*
X155984153Y-44161572D01*
X156017824Y-44262588D01*
X156152511Y-44397275D01*
X156253527Y-44430946D01*
X156320870Y-44430946D01*
X156421885Y-44397275D01*
X156994305Y-43824855D01*
X156623916Y-44801336D02*
X156691259Y-44936023D01*
X156859618Y-45104381D01*
X156960633Y-45138053D01*
X157027977Y-45138053D01*
X157128992Y-45104381D01*
X157196336Y-45037038D01*
X157230007Y-44936023D01*
X157230007Y-44868679D01*
X157196336Y-44767664D01*
X157095320Y-44599305D01*
X157061649Y-44498290D01*
X157061649Y-44430946D01*
X157095320Y-44329931D01*
X157162664Y-44262588D01*
X157263679Y-44228916D01*
X157331023Y-44228916D01*
X157432038Y-44262588D01*
X157600397Y-44430946D01*
X157667740Y-44565633D01*
X157667740Y-45171725D02*
X157903442Y-45407427D01*
X157634068Y-45878832D02*
X157297351Y-45542114D01*
X158004458Y-44835007D01*
X158341175Y-45171725D01*
X158947267Y-47057343D02*
X158879923Y-47057343D01*
X158745236Y-46990000D01*
X158677893Y-46922656D01*
X158610549Y-46787969D01*
X158610549Y-46653282D01*
X158644221Y-46552267D01*
X158745236Y-46383908D01*
X158846251Y-46282893D01*
X159014610Y-46181877D01*
X159115625Y-46148206D01*
X159250312Y-46148206D01*
X159385000Y-46215549D01*
X159452343Y-46282893D01*
X159519687Y-46417580D01*
X159519687Y-46484923D01*
X159587030Y-47831793D02*
X159688045Y-47259374D01*
X159182969Y-47427732D02*
X159890076Y-46720625D01*
X160159450Y-46990000D01*
X160193122Y-47091015D01*
X160193122Y-47158358D01*
X160159450Y-47259374D01*
X160058435Y-47360389D01*
X159957419Y-47394061D01*
X159890076Y-47394061D01*
X159789061Y-47360389D01*
X159519687Y-47091015D01*
X160496167Y-47461404D02*
X160563511Y-47461404D01*
X160664526Y-47495076D01*
X160832885Y-47663435D01*
X160866557Y-47764450D01*
X160866557Y-47831793D01*
X160832885Y-47932809D01*
X160765541Y-48000152D01*
X160630854Y-48067496D01*
X159822732Y-48067496D01*
X160260465Y-48505228D01*
X161405305Y-48235854D02*
X161472648Y-48303198D01*
X161506320Y-48404213D01*
X161506320Y-48471557D01*
X161472648Y-48572572D01*
X161371633Y-48740931D01*
X161203274Y-48909289D01*
X161034915Y-49010305D01*
X160933900Y-49043976D01*
X160866557Y-49043976D01*
X160765541Y-49010305D01*
X160698198Y-48942961D01*
X160664526Y-48841946D01*
X160664526Y-48774602D01*
X160698198Y-48673587D01*
X160799213Y-48505228D01*
X160967572Y-48336870D01*
X161135931Y-48235854D01*
X161236946Y-48202183D01*
X161304289Y-48202183D01*
X161405305Y-48235854D01*
X161876709Y-48707259D02*
X162314442Y-49144992D01*
X161809366Y-49178663D01*
X161910381Y-49279679D01*
X161944053Y-49380694D01*
X161944053Y-49448037D01*
X161910381Y-49549053D01*
X161742022Y-49717411D01*
X161641007Y-49751083D01*
X161573663Y-49751083D01*
X161472648Y-49717411D01*
X161270618Y-49515381D01*
X161236946Y-49414366D01*
X161236946Y-49347022D01*
X162516472Y-49481709D02*
X162583816Y-49481709D01*
X162684831Y-49515381D01*
X162853190Y-49683740D01*
X162886862Y-49784755D01*
X162886862Y-49852098D01*
X162853190Y-49953114D01*
X162785846Y-50020457D01*
X162651159Y-50087801D01*
X161843037Y-50087801D01*
X162280770Y-50525533D01*
X135495794Y-49784755D02*
X136068214Y-50357175D01*
X136169229Y-50390846D01*
X136236572Y-50390846D01*
X136337588Y-50357175D01*
X136472275Y-50222488D01*
X136505946Y-50121472D01*
X136505946Y-50054129D01*
X136472275Y-49953114D01*
X135899855Y-49380694D01*
X136876336Y-49751083D02*
X137011023Y-49683740D01*
X137179381Y-49515381D01*
X137213053Y-49414366D01*
X137213053Y-49347022D01*
X137179381Y-49246007D01*
X137112038Y-49178663D01*
X137011023Y-49144992D01*
X136943679Y-49144992D01*
X136842664Y-49178663D01*
X136674305Y-49279679D01*
X136573290Y-49313350D01*
X136505946Y-49313350D01*
X136404931Y-49279679D01*
X136337588Y-49212335D01*
X136303916Y-49111320D01*
X136303916Y-49043976D01*
X136337588Y-48942961D01*
X136505946Y-48774602D01*
X136640633Y-48707259D01*
X137246725Y-48707259D02*
X137482427Y-48471557D01*
X137953832Y-48740931D02*
X137617114Y-49077648D01*
X136910007Y-48370541D01*
X137246725Y-48033824D01*
X139132343Y-47427732D02*
X139132343Y-47495076D01*
X139065000Y-47629763D01*
X138997656Y-47697106D01*
X138862969Y-47764450D01*
X138728282Y-47764450D01*
X138627267Y-47730778D01*
X138458908Y-47629763D01*
X138357893Y-47528748D01*
X138256877Y-47360389D01*
X138223206Y-47259374D01*
X138223206Y-47124687D01*
X138290549Y-46990000D01*
X138357893Y-46922656D01*
X138492580Y-46855312D01*
X138559923Y-46855312D01*
X139906793Y-46787969D02*
X139334374Y-46686954D01*
X139502732Y-47192030D02*
X138795625Y-46484923D01*
X139065000Y-46215549D01*
X139166015Y-46181877D01*
X139233358Y-46181877D01*
X139334374Y-46215549D01*
X139435389Y-46316564D01*
X139469061Y-46417580D01*
X139469061Y-46484923D01*
X139435389Y-46585938D01*
X139166015Y-46855312D01*
X139536404Y-45878832D02*
X139536404Y-45811488D01*
X139570076Y-45710473D01*
X139738435Y-45542114D01*
X139839450Y-45508442D01*
X139906793Y-45508442D01*
X140007809Y-45542114D01*
X140075152Y-45609458D01*
X140142496Y-45744145D01*
X140142496Y-46552267D01*
X140580228Y-46114534D01*
X140310854Y-44969694D02*
X140378198Y-44902351D01*
X140479213Y-44868679D01*
X140546557Y-44868679D01*
X140647572Y-44902351D01*
X140815931Y-45003366D01*
X140984289Y-45171725D01*
X141085305Y-45340084D01*
X141118976Y-45441099D01*
X141118976Y-45508442D01*
X141085305Y-45609458D01*
X141017961Y-45676801D01*
X140916946Y-45710473D01*
X140849602Y-45710473D01*
X140748587Y-45676801D01*
X140580228Y-45575786D01*
X140411870Y-45407427D01*
X140310854Y-45239068D01*
X140277183Y-45138053D01*
X140277183Y-45070710D01*
X140310854Y-44969694D01*
X140782259Y-44498290D02*
X141219992Y-44060557D01*
X141253663Y-44565633D01*
X141354679Y-44464618D01*
X141455694Y-44430946D01*
X141523037Y-44430946D01*
X141624053Y-44464618D01*
X141792411Y-44632977D01*
X141826083Y-44733992D01*
X141826083Y-44801336D01*
X141792411Y-44902351D01*
X141590381Y-45104381D01*
X141489366Y-45138053D01*
X141422022Y-45138053D01*
X141556709Y-43858527D02*
X141556709Y-43791183D01*
X141590381Y-43690168D01*
X141758740Y-43521809D01*
X141859755Y-43488137D01*
X141927098Y-43488137D01*
X142028114Y-43521809D01*
X142095457Y-43589153D01*
X142162801Y-43723840D01*
X142162801Y-44531962D01*
X142600533Y-44094229D01*
X109672380Y-52432976D02*
X109196190Y-52766309D01*
X109672380Y-53004404D02*
X108672380Y-53004404D01*
X108672380Y-52623452D01*
X108720000Y-52528214D01*
X108767619Y-52480595D01*
X108862857Y-52432976D01*
X109005714Y-52432976D01*
X109100952Y-52480595D01*
X109148571Y-52528214D01*
X109196190Y-52623452D01*
X109196190Y-53004404D01*
X108672380Y-52147261D02*
X108672380Y-51575833D01*
X109672380Y-51861547D02*
X108672380Y-51861547D01*
X109577142Y-50671071D02*
X109624761Y-50718690D01*
X109672380Y-50861547D01*
X109672380Y-50956785D01*
X109624761Y-51099642D01*
X109529523Y-51194880D01*
X109434285Y-51242500D01*
X109243809Y-51290119D01*
X109100952Y-51290119D01*
X108910476Y-51242500D01*
X108815238Y-51194880D01*
X108720000Y-51099642D01*
X108672380Y-50956785D01*
X108672380Y-50861547D01*
X108720000Y-50718690D01*
X108767619Y-50671071D01*
X108672380Y-49290119D02*
X108672380Y-49099642D01*
X108720000Y-49004404D01*
X108815238Y-48909166D01*
X109005714Y-48861547D01*
X109339047Y-48861547D01*
X109529523Y-48909166D01*
X109624761Y-49004404D01*
X109672380Y-49099642D01*
X109672380Y-49290119D01*
X109624761Y-49385357D01*
X109529523Y-49480595D01*
X109339047Y-49528214D01*
X109005714Y-49528214D01*
X108815238Y-49480595D01*
X108720000Y-49385357D01*
X108672380Y-49290119D01*
X109672380Y-48432976D02*
X108672380Y-48432976D01*
X108672380Y-48052023D01*
X108720000Y-47956785D01*
X108767619Y-47909166D01*
X108862857Y-47861547D01*
X109005714Y-47861547D01*
X109100952Y-47909166D01*
X109148571Y-47956785D01*
X109196190Y-48052023D01*
X109196190Y-48432976D01*
X108672380Y-47575833D02*
X108672380Y-47004404D01*
X109672380Y-47290119D02*
X108672380Y-47290119D01*
X109672380Y-46671071D02*
X108672380Y-46671071D01*
X108672380Y-46004404D02*
X108672380Y-45813928D01*
X108720000Y-45718690D01*
X108815238Y-45623452D01*
X109005714Y-45575833D01*
X109339047Y-45575833D01*
X109529523Y-45623452D01*
X109624761Y-45718690D01*
X109672380Y-45813928D01*
X109672380Y-46004404D01*
X109624761Y-46099642D01*
X109529523Y-46194880D01*
X109339047Y-46242500D01*
X109005714Y-46242500D01*
X108815238Y-46194880D01*
X108720000Y-46099642D01*
X108672380Y-46004404D01*
X109672380Y-45147261D02*
X108672380Y-45147261D01*
X109672380Y-44575833D01*
X108672380Y-44575833D01*
D12*
G36*
X99060000Y-55245000D02*
G01*
X97790000Y-55245000D01*
X97790000Y-52705000D01*
X99060000Y-52705000D01*
X99060000Y-55245000D01*
G37*
X99060000Y-55245000D02*
X97790000Y-55245000D01*
X97790000Y-52705000D01*
X99060000Y-52705000D01*
X99060000Y-55245000D01*
G36*
X99060000Y-64135000D02*
G01*
X97790000Y-64135000D01*
X97790000Y-61595000D01*
X99060000Y-61595000D01*
X99060000Y-64135000D01*
G37*
X99060000Y-64135000D02*
X97790000Y-64135000D01*
X97790000Y-61595000D01*
X99060000Y-61595000D01*
X99060000Y-64135000D01*
D11*
X147274780Y-78212142D02*
X147227161Y-78259761D01*
X147084304Y-78307380D01*
X146989066Y-78307380D01*
X146846209Y-78259761D01*
X146750971Y-78164523D01*
X146703352Y-78069285D01*
X146655733Y-77878809D01*
X146655733Y-77735952D01*
X146703352Y-77545476D01*
X146750971Y-77450238D01*
X146846209Y-77355000D01*
X146989066Y-77307380D01*
X147084304Y-77307380D01*
X147227161Y-77355000D01*
X147274780Y-77402619D01*
X147846209Y-78307380D02*
X147750971Y-78259761D01*
X147703352Y-78212142D01*
X147655733Y-78116904D01*
X147655733Y-77831190D01*
X147703352Y-77735952D01*
X147750971Y-77688333D01*
X147846209Y-77640714D01*
X147989066Y-77640714D01*
X148084304Y-77688333D01*
X148131923Y-77735952D01*
X148179542Y-77831190D01*
X148179542Y-78116904D01*
X148131923Y-78212142D01*
X148084304Y-78259761D01*
X147989066Y-78307380D01*
X147846209Y-78307380D01*
X148608114Y-77640714D02*
X148608114Y-78640714D01*
X148608114Y-77688333D02*
X148703352Y-77640714D01*
X148893828Y-77640714D01*
X148989066Y-77688333D01*
X149036685Y-77735952D01*
X149084304Y-77831190D01*
X149084304Y-78116904D01*
X149036685Y-78212142D01*
X148989066Y-78259761D01*
X148893828Y-78307380D01*
X148703352Y-78307380D01*
X148608114Y-78259761D01*
X149417638Y-77640714D02*
X149655733Y-78307380D01*
X149893828Y-77640714D02*
X149655733Y-78307380D01*
X149560495Y-78545476D01*
X149512876Y-78593095D01*
X149417638Y-78640714D01*
X150274780Y-78307380D02*
X150274780Y-77640714D01*
X150274780Y-77831190D02*
X150322400Y-77735952D01*
X150370019Y-77688333D01*
X150465257Y-77640714D01*
X150560495Y-77640714D01*
X150893828Y-78307380D02*
X150893828Y-77640714D01*
X150893828Y-77307380D02*
X150846209Y-77355000D01*
X150893828Y-77402619D01*
X150941447Y-77355000D01*
X150893828Y-77307380D01*
X150893828Y-77402619D01*
X151798590Y-77640714D02*
X151798590Y-78450238D01*
X151750971Y-78545476D01*
X151703352Y-78593095D01*
X151608114Y-78640714D01*
X151465257Y-78640714D01*
X151370019Y-78593095D01*
X151798590Y-78259761D02*
X151703352Y-78307380D01*
X151512876Y-78307380D01*
X151417638Y-78259761D01*
X151370019Y-78212142D01*
X151322400Y-78116904D01*
X151322400Y-77831190D01*
X151370019Y-77735952D01*
X151417638Y-77688333D01*
X151512876Y-77640714D01*
X151703352Y-77640714D01*
X151798590Y-77688333D01*
X152274780Y-78307380D02*
X152274780Y-77307380D01*
X152703352Y-78307380D02*
X152703352Y-77783571D01*
X152655733Y-77688333D01*
X152560495Y-77640714D01*
X152417638Y-77640714D01*
X152322400Y-77688333D01*
X152274780Y-77735952D01*
X153036685Y-77640714D02*
X153417638Y-77640714D01*
X153179542Y-77307380D02*
X153179542Y-78164523D01*
X153227161Y-78259761D01*
X153322400Y-78307380D01*
X153417638Y-78307380D01*
X154798590Y-78688333D02*
X154750971Y-78640714D01*
X154655733Y-78497857D01*
X154608114Y-78402619D01*
X154560495Y-78259761D01*
X154512876Y-78021666D01*
X154512876Y-77831190D01*
X154560495Y-77593095D01*
X154608114Y-77450238D01*
X154655733Y-77355000D01*
X154750971Y-77212142D01*
X154798590Y-77164523D01*
X155750971Y-78212142D02*
X155703352Y-78259761D01*
X155560495Y-78307380D01*
X155465257Y-78307380D01*
X155322400Y-78259761D01*
X155227161Y-78164523D01*
X155179542Y-78069285D01*
X155131923Y-77878809D01*
X155131923Y-77735952D01*
X155179542Y-77545476D01*
X155227161Y-77450238D01*
X155322400Y-77355000D01*
X155465257Y-77307380D01*
X155560495Y-77307380D01*
X155703352Y-77355000D01*
X155750971Y-77402619D01*
X156084304Y-78688333D02*
X156131923Y-78640714D01*
X156227161Y-78497857D01*
X156274780Y-78402619D01*
X156322400Y-78259761D01*
X156370019Y-78021666D01*
X156370019Y-77831190D01*
X156322400Y-77593095D01*
X156274780Y-77450238D01*
X156227161Y-77355000D01*
X156131923Y-77212142D01*
X156084304Y-77164523D01*
X157560495Y-77402619D02*
X157608114Y-77355000D01*
X157703352Y-77307380D01*
X157941447Y-77307380D01*
X158036685Y-77355000D01*
X158084304Y-77402619D01*
X158131923Y-77497857D01*
X158131923Y-77593095D01*
X158084304Y-77735952D01*
X157512876Y-78307380D01*
X158131923Y-78307380D01*
X158750971Y-77307380D02*
X158846209Y-77307380D01*
X158941447Y-77355000D01*
X158989066Y-77402619D01*
X159036685Y-77497857D01*
X159084304Y-77688333D01*
X159084304Y-77926428D01*
X159036685Y-78116904D01*
X158989066Y-78212142D01*
X158941447Y-78259761D01*
X158846209Y-78307380D01*
X158750971Y-78307380D01*
X158655733Y-78259761D01*
X158608114Y-78212142D01*
X158560495Y-78116904D01*
X158512876Y-77926428D01*
X158512876Y-77688333D01*
X158560495Y-77497857D01*
X158608114Y-77402619D01*
X158655733Y-77355000D01*
X158750971Y-77307380D01*
X159465257Y-77402619D02*
X159512876Y-77355000D01*
X159608114Y-77307380D01*
X159846209Y-77307380D01*
X159941447Y-77355000D01*
X159989066Y-77402619D01*
X160036685Y-77497857D01*
X160036685Y-77593095D01*
X159989066Y-77735952D01*
X159417638Y-78307380D01*
X160036685Y-78307380D01*
X160989066Y-78307380D02*
X160417638Y-78307380D01*
X160703352Y-78307380D02*
X160703352Y-77307380D01*
X160608114Y-77450238D01*
X160512876Y-77545476D01*
X160417638Y-77593095D01*
X144536685Y-78957380D02*
X145108114Y-78957380D01*
X144822400Y-79957380D02*
X144822400Y-78957380D01*
X145441447Y-79957380D02*
X145441447Y-79290714D01*
X145441447Y-78957380D02*
X145393828Y-79005000D01*
X145441447Y-79052619D01*
X145489066Y-79005000D01*
X145441447Y-78957380D01*
X145441447Y-79052619D01*
X145774780Y-79290714D02*
X146155733Y-79290714D01*
X145917638Y-78957380D02*
X145917638Y-79814523D01*
X145965257Y-79909761D01*
X146060495Y-79957380D01*
X146155733Y-79957380D01*
X146917638Y-79957380D02*
X146917638Y-79433571D01*
X146870019Y-79338333D01*
X146774780Y-79290714D01*
X146584304Y-79290714D01*
X146489066Y-79338333D01*
X146917638Y-79909761D02*
X146822400Y-79957380D01*
X146584304Y-79957380D01*
X146489066Y-79909761D01*
X146441447Y-79814523D01*
X146441447Y-79719285D01*
X146489066Y-79624047D01*
X146584304Y-79576428D01*
X146822400Y-79576428D01*
X146917638Y-79528809D01*
X147393828Y-79290714D02*
X147393828Y-79957380D01*
X147393828Y-79385952D02*
X147441447Y-79338333D01*
X147536685Y-79290714D01*
X147679542Y-79290714D01*
X147774780Y-79338333D01*
X147822400Y-79433571D01*
X147822400Y-79957380D01*
X148298590Y-79957380D02*
X148298590Y-79290714D01*
X148298590Y-78957380D02*
X148250971Y-79005000D01*
X148298590Y-79052619D01*
X148346209Y-79005000D01*
X148298590Y-78957380D01*
X148298590Y-79052619D01*
X149203352Y-79290714D02*
X149203352Y-79957380D01*
X148774780Y-79290714D02*
X148774780Y-79814523D01*
X148822400Y-79909761D01*
X148917638Y-79957380D01*
X149060495Y-79957380D01*
X149155733Y-79909761D01*
X149203352Y-79862142D01*
X149679542Y-79957380D02*
X149679542Y-79290714D01*
X149679542Y-79385952D02*
X149727161Y-79338333D01*
X149822400Y-79290714D01*
X149965257Y-79290714D01*
X150060495Y-79338333D01*
X150108114Y-79433571D01*
X150108114Y-79957380D01*
X150108114Y-79433571D02*
X150155733Y-79338333D01*
X150250971Y-79290714D01*
X150393828Y-79290714D01*
X150489066Y-79338333D01*
X150536685Y-79433571D01*
X150536685Y-79957380D01*
X151727161Y-79909761D02*
X151870019Y-79957380D01*
X152108114Y-79957380D01*
X152203352Y-79909761D01*
X152250971Y-79862142D01*
X152298590Y-79766904D01*
X152298590Y-79671666D01*
X152250971Y-79576428D01*
X152203352Y-79528809D01*
X152108114Y-79481190D01*
X151917638Y-79433571D01*
X151822400Y-79385952D01*
X151774780Y-79338333D01*
X151727161Y-79243095D01*
X151727161Y-79147857D01*
X151774780Y-79052619D01*
X151822400Y-79005000D01*
X151917638Y-78957380D01*
X152155733Y-78957380D01*
X152298590Y-79005000D01*
X152584304Y-79290714D02*
X152965257Y-79290714D01*
X152727161Y-78957380D02*
X152727161Y-79814523D01*
X152774780Y-79909761D01*
X152870019Y-79957380D01*
X152965257Y-79957380D01*
X153727161Y-79290714D02*
X153727161Y-79957380D01*
X153298590Y-79290714D02*
X153298590Y-79814523D01*
X153346209Y-79909761D01*
X153441447Y-79957380D01*
X153584304Y-79957380D01*
X153679542Y-79909761D01*
X153727161Y-79862142D01*
X154631923Y-79957380D02*
X154631923Y-78957380D01*
X154631923Y-79909761D02*
X154536685Y-79957380D01*
X154346209Y-79957380D01*
X154250971Y-79909761D01*
X154203352Y-79862142D01*
X154155733Y-79766904D01*
X154155733Y-79481190D01*
X154203352Y-79385952D01*
X154250971Y-79338333D01*
X154346209Y-79290714D01*
X154536685Y-79290714D01*
X154631923Y-79338333D01*
X155108114Y-79957380D02*
X155108114Y-79290714D01*
X155108114Y-78957380D02*
X155060495Y-79005000D01*
X155108114Y-79052619D01*
X155155733Y-79005000D01*
X155108114Y-78957380D01*
X155108114Y-79052619D01*
X155727161Y-79957380D02*
X155631923Y-79909761D01*
X155584304Y-79862142D01*
X155536685Y-79766904D01*
X155536685Y-79481190D01*
X155584304Y-79385952D01*
X155631923Y-79338333D01*
X155727161Y-79290714D01*
X155870019Y-79290714D01*
X155965257Y-79338333D01*
X156012876Y-79385952D01*
X156060495Y-79481190D01*
X156060495Y-79766904D01*
X156012876Y-79862142D01*
X155965257Y-79909761D01*
X155870019Y-79957380D01*
X155727161Y-79957380D01*
X156441447Y-79909761D02*
X156536685Y-79957380D01*
X156727161Y-79957380D01*
X156822400Y-79909761D01*
X156870019Y-79814523D01*
X156870019Y-79766904D01*
X156822400Y-79671666D01*
X156727161Y-79624047D01*
X156584304Y-79624047D01*
X156489066Y-79576428D01*
X156441447Y-79481190D01*
X156441447Y-79433571D01*
X156489066Y-79338333D01*
X156584304Y-79290714D01*
X156727161Y-79290714D01*
X156822400Y-79338333D01*
X158060495Y-79957380D02*
X158060495Y-78957380D01*
X158441447Y-78957380D01*
X158536685Y-79005000D01*
X158584304Y-79052619D01*
X158631923Y-79147857D01*
X158631923Y-79290714D01*
X158584304Y-79385952D01*
X158536685Y-79433571D01*
X158441447Y-79481190D01*
X158060495Y-79481190D01*
X158917638Y-79290714D02*
X159298590Y-79290714D01*
X159060495Y-78957380D02*
X159060495Y-79814523D01*
X159108114Y-79909761D01*
X159203352Y-79957380D01*
X159298590Y-79957380D01*
X159536685Y-79290714D02*
X159774780Y-79957380D01*
X160012876Y-79290714D02*
X159774780Y-79957380D01*
X159679542Y-80195476D01*
X159631923Y-80243095D01*
X159536685Y-80290714D01*
X161631923Y-79957380D02*
X161155733Y-79957380D01*
X161155733Y-78957380D01*
X161822400Y-79290714D02*
X162203352Y-79290714D01*
X161965257Y-78957380D02*
X161965257Y-79814523D01*
X162012876Y-79909761D01*
X162108114Y-79957380D01*
X162203352Y-79957380D01*
X162965257Y-79957380D02*
X162965257Y-78957380D01*
X162965257Y-79909761D02*
X162870019Y-79957380D01*
X162679542Y-79957380D01*
X162584304Y-79909761D01*
X162536685Y-79862142D01*
X162489066Y-79766904D01*
X162489066Y-79481190D01*
X162536685Y-79385952D01*
X162584304Y-79338333D01*
X162679542Y-79290714D01*
X162870019Y-79290714D01*
X162965257Y-79338333D01*
X147631923Y-83162142D02*
X147584304Y-83209761D01*
X147441447Y-83257380D01*
X147346209Y-83257380D01*
X147203352Y-83209761D01*
X147108114Y-83114523D01*
X147060495Y-83019285D01*
X147012876Y-82828809D01*
X147012876Y-82685952D01*
X147060495Y-82495476D01*
X147108114Y-82400238D01*
X147203352Y-82305000D01*
X147346209Y-82257380D01*
X147441447Y-82257380D01*
X147584304Y-82305000D01*
X147631923Y-82352619D01*
X148060495Y-83257380D02*
X148060495Y-82590714D01*
X148060495Y-82781190D02*
X148108114Y-82685952D01*
X148155733Y-82638333D01*
X148250971Y-82590714D01*
X148346209Y-82590714D01*
X149060495Y-83209761D02*
X148965257Y-83257380D01*
X148774780Y-83257380D01*
X148679542Y-83209761D01*
X148631923Y-83114523D01*
X148631923Y-82733571D01*
X148679542Y-82638333D01*
X148774780Y-82590714D01*
X148965257Y-82590714D01*
X149060495Y-82638333D01*
X149108114Y-82733571D01*
X149108114Y-82828809D01*
X148631923Y-82924047D01*
X149965257Y-83257380D02*
X149965257Y-82733571D01*
X149917638Y-82638333D01*
X149822400Y-82590714D01*
X149631923Y-82590714D01*
X149536685Y-82638333D01*
X149965257Y-83209761D02*
X149870019Y-83257380D01*
X149631923Y-83257380D01*
X149536685Y-83209761D01*
X149489066Y-83114523D01*
X149489066Y-83019285D01*
X149536685Y-82924047D01*
X149631923Y-82876428D01*
X149870019Y-82876428D01*
X149965257Y-82828809D01*
X150298590Y-82590714D02*
X150679542Y-82590714D01*
X150441447Y-82257380D02*
X150441447Y-83114523D01*
X150489066Y-83209761D01*
X150584304Y-83257380D01*
X150679542Y-83257380D01*
X151012876Y-83257380D02*
X151012876Y-82590714D01*
X151012876Y-82257380D02*
X150965257Y-82305000D01*
X151012876Y-82352619D01*
X151060495Y-82305000D01*
X151012876Y-82257380D01*
X151012876Y-82352619D01*
X151393828Y-82590714D02*
X151631923Y-83257380D01*
X151870019Y-82590714D01*
X152631923Y-83209761D02*
X152536685Y-83257380D01*
X152346209Y-83257380D01*
X152250971Y-83209761D01*
X152203352Y-83114523D01*
X152203352Y-82733571D01*
X152250971Y-82638333D01*
X152346209Y-82590714D01*
X152536685Y-82590714D01*
X152631923Y-82638333D01*
X152679542Y-82733571D01*
X152679542Y-82828809D01*
X152203352Y-82924047D01*
X154441447Y-83162142D02*
X154393828Y-83209761D01*
X154250971Y-83257380D01*
X154155733Y-83257380D01*
X154012876Y-83209761D01*
X153917638Y-83114523D01*
X153870019Y-83019285D01*
X153822400Y-82828809D01*
X153822400Y-82685952D01*
X153870019Y-82495476D01*
X153917638Y-82400238D01*
X154012876Y-82305000D01*
X154155733Y-82257380D01*
X154250971Y-82257380D01*
X154393828Y-82305000D01*
X154441447Y-82352619D01*
X155012876Y-83257380D02*
X154917638Y-83209761D01*
X154870019Y-83162142D01*
X154822400Y-83066904D01*
X154822400Y-82781190D01*
X154870019Y-82685952D01*
X154917638Y-82638333D01*
X155012876Y-82590714D01*
X155155733Y-82590714D01*
X155250971Y-82638333D01*
X155298590Y-82685952D01*
X155346209Y-82781190D01*
X155346209Y-83066904D01*
X155298590Y-83162142D01*
X155250971Y-83209761D01*
X155155733Y-83257380D01*
X155012876Y-83257380D01*
X155774780Y-83257380D02*
X155774780Y-82590714D01*
X155774780Y-82685952D02*
X155822400Y-82638333D01*
X155917638Y-82590714D01*
X156060495Y-82590714D01*
X156155733Y-82638333D01*
X156203352Y-82733571D01*
X156203352Y-83257380D01*
X156203352Y-82733571D02*
X156250971Y-82638333D01*
X156346209Y-82590714D01*
X156489066Y-82590714D01*
X156584304Y-82638333D01*
X156631923Y-82733571D01*
X156631923Y-83257380D01*
X157108114Y-83257380D02*
X157108114Y-82590714D01*
X157108114Y-82685952D02*
X157155733Y-82638333D01*
X157250971Y-82590714D01*
X157393828Y-82590714D01*
X157489066Y-82638333D01*
X157536685Y-82733571D01*
X157536685Y-83257380D01*
X157536685Y-82733571D02*
X157584304Y-82638333D01*
X157679542Y-82590714D01*
X157822400Y-82590714D01*
X157917638Y-82638333D01*
X157965257Y-82733571D01*
X157965257Y-83257380D01*
X158584304Y-83257380D02*
X158489066Y-83209761D01*
X158441447Y-83162142D01*
X158393828Y-83066904D01*
X158393828Y-82781190D01*
X158441447Y-82685952D01*
X158489066Y-82638333D01*
X158584304Y-82590714D01*
X158727161Y-82590714D01*
X158822400Y-82638333D01*
X158870019Y-82685952D01*
X158917638Y-82781190D01*
X158917638Y-83066904D01*
X158870019Y-83162142D01*
X158822400Y-83209761D01*
X158727161Y-83257380D01*
X158584304Y-83257380D01*
X159346209Y-82590714D02*
X159346209Y-83257380D01*
X159346209Y-82685952D02*
X159393828Y-82638333D01*
X159489066Y-82590714D01*
X159631923Y-82590714D01*
X159727161Y-82638333D01*
X159774780Y-82733571D01*
X159774780Y-83257380D01*
X160203352Y-83209761D02*
X160298590Y-83257380D01*
X160489066Y-83257380D01*
X160584304Y-83209761D01*
X160631923Y-83114523D01*
X160631923Y-83066904D01*
X160584304Y-82971666D01*
X160489066Y-82924047D01*
X160346209Y-82924047D01*
X160250971Y-82876428D01*
X160203352Y-82781190D01*
X160203352Y-82733571D01*
X160250971Y-82638333D01*
X160346209Y-82590714D01*
X160489066Y-82590714D01*
X160584304Y-82638333D01*
X144060495Y-84621666D02*
X144536685Y-84621666D01*
X143965257Y-84907380D02*
X144298590Y-83907380D01*
X144631923Y-84907380D01*
X144822400Y-84240714D02*
X145203352Y-84240714D01*
X144965257Y-83907380D02*
X144965257Y-84764523D01*
X145012876Y-84859761D01*
X145108114Y-84907380D01*
X145203352Y-84907380D01*
X145393828Y-84240714D02*
X145774780Y-84240714D01*
X145536685Y-83907380D02*
X145536685Y-84764523D01*
X145584304Y-84859761D01*
X145679542Y-84907380D01*
X145774780Y-84907380D01*
X146108114Y-84907380D02*
X146108114Y-84240714D01*
X146108114Y-84431190D02*
X146155733Y-84335952D01*
X146203352Y-84288333D01*
X146298590Y-84240714D01*
X146393828Y-84240714D01*
X146727161Y-84907380D02*
X146727161Y-84240714D01*
X146727161Y-83907380D02*
X146679542Y-83955000D01*
X146727161Y-84002619D01*
X146774780Y-83955000D01*
X146727161Y-83907380D01*
X146727161Y-84002619D01*
X147203352Y-84907380D02*
X147203352Y-83907380D01*
X147203352Y-84288333D02*
X147298590Y-84240714D01*
X147489066Y-84240714D01*
X147584304Y-84288333D01*
X147631923Y-84335952D01*
X147679542Y-84431190D01*
X147679542Y-84716904D01*
X147631923Y-84812142D01*
X147584304Y-84859761D01*
X147489066Y-84907380D01*
X147298590Y-84907380D01*
X147203352Y-84859761D01*
X148536685Y-84240714D02*
X148536685Y-84907380D01*
X148108114Y-84240714D02*
X148108114Y-84764523D01*
X148155733Y-84859761D01*
X148250971Y-84907380D01*
X148393828Y-84907380D01*
X148489066Y-84859761D01*
X148536685Y-84812142D01*
X148870019Y-84240714D02*
X149250971Y-84240714D01*
X149012876Y-83907380D02*
X149012876Y-84764523D01*
X149060495Y-84859761D01*
X149155733Y-84907380D01*
X149250971Y-84907380D01*
X149584304Y-84907380D02*
X149584304Y-84240714D01*
X149584304Y-83907380D02*
X149536685Y-83955000D01*
X149584304Y-84002619D01*
X149631923Y-83955000D01*
X149584304Y-83907380D01*
X149584304Y-84002619D01*
X150203352Y-84907380D02*
X150108114Y-84859761D01*
X150060495Y-84812142D01*
X150012876Y-84716904D01*
X150012876Y-84431190D01*
X150060495Y-84335952D01*
X150108114Y-84288333D01*
X150203352Y-84240714D01*
X150346209Y-84240714D01*
X150441447Y-84288333D01*
X150489066Y-84335952D01*
X150536685Y-84431190D01*
X150536685Y-84716904D01*
X150489066Y-84812142D01*
X150441447Y-84859761D01*
X150346209Y-84907380D01*
X150203352Y-84907380D01*
X150965257Y-84240714D02*
X150965257Y-84907380D01*
X150965257Y-84335952D02*
X151012876Y-84288333D01*
X151108114Y-84240714D01*
X151250971Y-84240714D01*
X151346209Y-84288333D01*
X151393828Y-84383571D01*
X151393828Y-84907380D01*
X151870019Y-84526428D02*
X152631923Y-84526428D01*
X153060495Y-84859761D02*
X153203352Y-84907380D01*
X153441447Y-84907380D01*
X153536685Y-84859761D01*
X153584304Y-84812142D01*
X153631923Y-84716904D01*
X153631923Y-84621666D01*
X153584304Y-84526428D01*
X153536685Y-84478809D01*
X153441447Y-84431190D01*
X153250971Y-84383571D01*
X153155733Y-84335952D01*
X153108114Y-84288333D01*
X153060495Y-84193095D01*
X153060495Y-84097857D01*
X153108114Y-84002619D01*
X153155733Y-83955000D01*
X153250971Y-83907380D01*
X153489066Y-83907380D01*
X153631923Y-83955000D01*
X154060495Y-84907380D02*
X154060495Y-83907380D01*
X154489066Y-84907380D02*
X154489066Y-84383571D01*
X154441447Y-84288333D01*
X154346209Y-84240714D01*
X154203352Y-84240714D01*
X154108114Y-84288333D01*
X154060495Y-84335952D01*
X155393828Y-84907380D02*
X155393828Y-84383571D01*
X155346209Y-84288333D01*
X155250971Y-84240714D01*
X155060495Y-84240714D01*
X154965257Y-84288333D01*
X155393828Y-84859761D02*
X155298590Y-84907380D01*
X155060495Y-84907380D01*
X154965257Y-84859761D01*
X154917638Y-84764523D01*
X154917638Y-84669285D01*
X154965257Y-84574047D01*
X155060495Y-84526428D01*
X155298590Y-84526428D01*
X155393828Y-84478809D01*
X155870019Y-84907380D02*
X155870019Y-84240714D01*
X155870019Y-84431190D02*
X155917638Y-84335952D01*
X155965257Y-84288333D01*
X156060495Y-84240714D01*
X156155733Y-84240714D01*
X156870019Y-84859761D02*
X156774780Y-84907380D01*
X156584304Y-84907380D01*
X156489066Y-84859761D01*
X156441447Y-84764523D01*
X156441447Y-84383571D01*
X156489066Y-84288333D01*
X156584304Y-84240714D01*
X156774780Y-84240714D01*
X156870019Y-84288333D01*
X156917638Y-84383571D01*
X156917638Y-84478809D01*
X156441447Y-84574047D01*
X157298590Y-84621666D02*
X157774780Y-84621666D01*
X157203352Y-84907380D02*
X157536685Y-83907380D01*
X157870019Y-84907380D01*
X158346209Y-84907380D02*
X158250971Y-84859761D01*
X158203352Y-84764523D01*
X158203352Y-83907380D01*
X158727161Y-84907380D02*
X158727161Y-84240714D01*
X158727161Y-83907380D02*
X158679542Y-83955000D01*
X158727161Y-84002619D01*
X158774780Y-83955000D01*
X158727161Y-83907380D01*
X158727161Y-84002619D01*
X159203352Y-84907380D02*
X159203352Y-83907380D01*
X159298590Y-84526428D02*
X159584304Y-84907380D01*
X159584304Y-84240714D02*
X159203352Y-84621666D01*
X160393828Y-84859761D02*
X160298590Y-84907380D01*
X160108114Y-84907380D01*
X160012876Y-84859761D01*
X159965257Y-84764523D01*
X159965257Y-84383571D01*
X160012876Y-84288333D01*
X160108114Y-84240714D01*
X160298590Y-84240714D01*
X160393828Y-84288333D01*
X160441447Y-84383571D01*
X160441447Y-84478809D01*
X159965257Y-84574047D01*
X162060495Y-84240714D02*
X162060495Y-84907380D01*
X161822400Y-83859761D02*
X161584304Y-84574047D01*
X162203352Y-84574047D01*
X162584304Y-84812142D02*
X162631923Y-84859761D01*
X162584304Y-84907380D01*
X162536685Y-84859761D01*
X162584304Y-84812142D01*
X162584304Y-84907380D01*
X163250971Y-83907380D02*
X163346209Y-83907380D01*
X163441447Y-83955000D01*
X163489066Y-84002619D01*
X163536685Y-84097857D01*
X163584304Y-84288333D01*
X163584304Y-84526428D01*
X163536685Y-84716904D01*
X163489066Y-84812142D01*
X163441447Y-84859761D01*
X163346209Y-84907380D01*
X163250971Y-84907380D01*
X163155733Y-84859761D01*
X163108114Y-84812142D01*
X163060495Y-84716904D01*
X163012876Y-84526428D01*
X163012876Y-84288333D01*
X163060495Y-84097857D01*
X163108114Y-84002619D01*
X163155733Y-83955000D01*
X163250971Y-83907380D01*
X149298590Y-86557380D02*
X149298590Y-85557380D01*
X149774780Y-85890714D02*
X149774780Y-86557380D01*
X149774780Y-85985952D02*
X149822400Y-85938333D01*
X149917638Y-85890714D01*
X150060495Y-85890714D01*
X150155733Y-85938333D01*
X150203352Y-86033571D01*
X150203352Y-86557380D01*
X150536685Y-85890714D02*
X150917638Y-85890714D01*
X150679542Y-85557380D02*
X150679542Y-86414523D01*
X150727161Y-86509761D01*
X150822400Y-86557380D01*
X150917638Y-86557380D01*
X151631923Y-86509761D02*
X151536685Y-86557380D01*
X151346209Y-86557380D01*
X151250971Y-86509761D01*
X151203352Y-86414523D01*
X151203352Y-86033571D01*
X151250971Y-85938333D01*
X151346209Y-85890714D01*
X151536685Y-85890714D01*
X151631923Y-85938333D01*
X151679542Y-86033571D01*
X151679542Y-86128809D01*
X151203352Y-86224047D01*
X152108114Y-86557380D02*
X152108114Y-85890714D01*
X152108114Y-86081190D02*
X152155733Y-85985952D01*
X152203352Y-85938333D01*
X152298590Y-85890714D01*
X152393828Y-85890714D01*
X152727161Y-85890714D02*
X152727161Y-86557380D01*
X152727161Y-85985952D02*
X152774780Y-85938333D01*
X152870019Y-85890714D01*
X153012876Y-85890714D01*
X153108114Y-85938333D01*
X153155733Y-86033571D01*
X153155733Y-86557380D01*
X154060495Y-86557380D02*
X154060495Y-86033571D01*
X154012876Y-85938333D01*
X153917638Y-85890714D01*
X153727161Y-85890714D01*
X153631923Y-85938333D01*
X154060495Y-86509761D02*
X153965257Y-86557380D01*
X153727161Y-86557380D01*
X153631923Y-86509761D01*
X153584304Y-86414523D01*
X153584304Y-86319285D01*
X153631923Y-86224047D01*
X153727161Y-86176428D01*
X153965257Y-86176428D01*
X154060495Y-86128809D01*
X154393828Y-85890714D02*
X154774780Y-85890714D01*
X154536685Y-85557380D02*
X154536685Y-86414523D01*
X154584304Y-86509761D01*
X154679542Y-86557380D01*
X154774780Y-86557380D01*
X155108114Y-86557380D02*
X155108114Y-85890714D01*
X155108114Y-85557380D02*
X155060495Y-85605000D01*
X155108114Y-85652619D01*
X155155733Y-85605000D01*
X155108114Y-85557380D01*
X155108114Y-85652619D01*
X155727161Y-86557380D02*
X155631923Y-86509761D01*
X155584304Y-86462142D01*
X155536685Y-86366904D01*
X155536685Y-86081190D01*
X155584304Y-85985952D01*
X155631923Y-85938333D01*
X155727161Y-85890714D01*
X155870019Y-85890714D01*
X155965257Y-85938333D01*
X156012876Y-85985952D01*
X156060495Y-86081190D01*
X156060495Y-86366904D01*
X156012876Y-86462142D01*
X155965257Y-86509761D01*
X155870019Y-86557380D01*
X155727161Y-86557380D01*
X156489066Y-85890714D02*
X156489066Y-86557380D01*
X156489066Y-85985952D02*
X156536685Y-85938333D01*
X156631923Y-85890714D01*
X156774780Y-85890714D01*
X156870019Y-85938333D01*
X156917638Y-86033571D01*
X156917638Y-86557380D01*
X157822400Y-86557380D02*
X157822400Y-86033571D01*
X157774780Y-85938333D01*
X157679542Y-85890714D01*
X157489066Y-85890714D01*
X157393828Y-85938333D01*
X157822400Y-86509761D02*
X157727161Y-86557380D01*
X157489066Y-86557380D01*
X157393828Y-86509761D01*
X157346209Y-86414523D01*
X157346209Y-86319285D01*
X157393828Y-86224047D01*
X157489066Y-86176428D01*
X157727161Y-86176428D01*
X157822400Y-86128809D01*
X158441447Y-86557380D02*
X158346209Y-86509761D01*
X158298590Y-86414523D01*
X158298590Y-85557380D01*
X146250971Y-89857380D02*
X146250971Y-88857380D01*
X146679542Y-89857380D02*
X146679542Y-89333571D01*
X146631923Y-89238333D01*
X146536685Y-89190714D01*
X146393828Y-89190714D01*
X146298590Y-89238333D01*
X146250971Y-89285952D01*
X147012876Y-89190714D02*
X147393828Y-89190714D01*
X147155733Y-88857380D02*
X147155733Y-89714523D01*
X147203352Y-89809761D01*
X147298590Y-89857380D01*
X147393828Y-89857380D01*
X147584304Y-89190714D02*
X147965257Y-89190714D01*
X147727161Y-88857380D02*
X147727161Y-89714523D01*
X147774780Y-89809761D01*
X147870019Y-89857380D01*
X147965257Y-89857380D01*
X148298590Y-89190714D02*
X148298590Y-90190714D01*
X148298590Y-89238333D02*
X148393828Y-89190714D01*
X148584304Y-89190714D01*
X148679542Y-89238333D01*
X148727161Y-89285952D01*
X148774780Y-89381190D01*
X148774780Y-89666904D01*
X148727161Y-89762142D01*
X148679542Y-89809761D01*
X148584304Y-89857380D01*
X148393828Y-89857380D01*
X148298590Y-89809761D01*
X149155733Y-89809761D02*
X149250971Y-89857380D01*
X149441447Y-89857380D01*
X149536685Y-89809761D01*
X149584304Y-89714523D01*
X149584304Y-89666904D01*
X149536685Y-89571666D01*
X149441447Y-89524047D01*
X149298590Y-89524047D01*
X149203352Y-89476428D01*
X149155733Y-89381190D01*
X149155733Y-89333571D01*
X149203352Y-89238333D01*
X149298590Y-89190714D01*
X149441447Y-89190714D01*
X149536685Y-89238333D01*
X150012876Y-89762142D02*
X150060495Y-89809761D01*
X150012876Y-89857380D01*
X149965257Y-89809761D01*
X150012876Y-89762142D01*
X150012876Y-89857380D01*
X150012876Y-89238333D02*
X150060495Y-89285952D01*
X150012876Y-89333571D01*
X149965257Y-89285952D01*
X150012876Y-89238333D01*
X150012876Y-89333571D01*
X151203352Y-88809761D02*
X150346209Y-90095476D01*
X152250971Y-88809761D02*
X151393828Y-90095476D01*
X153012876Y-89190714D02*
X153012876Y-90000238D01*
X152965257Y-90095476D01*
X152917638Y-90143095D01*
X152822400Y-90190714D01*
X152679542Y-90190714D01*
X152584304Y-90143095D01*
X153012876Y-89809761D02*
X152917638Y-89857380D01*
X152727161Y-89857380D01*
X152631923Y-89809761D01*
X152584304Y-89762142D01*
X152536685Y-89666904D01*
X152536685Y-89381190D01*
X152584304Y-89285952D01*
X152631923Y-89238333D01*
X152727161Y-89190714D01*
X152917638Y-89190714D01*
X153012876Y-89238333D01*
X153489066Y-89857380D02*
X153489066Y-89190714D01*
X153489066Y-88857380D02*
X153441447Y-88905000D01*
X153489066Y-88952619D01*
X153536685Y-88905000D01*
X153489066Y-88857380D01*
X153489066Y-88952619D01*
X153822400Y-89190714D02*
X154203352Y-89190714D01*
X153965257Y-88857380D02*
X153965257Y-89714523D01*
X154012876Y-89809761D01*
X154108114Y-89857380D01*
X154203352Y-89857380D01*
X154536685Y-89857380D02*
X154536685Y-88857380D01*
X154965257Y-89857380D02*
X154965257Y-89333571D01*
X154917638Y-89238333D01*
X154822400Y-89190714D01*
X154679542Y-89190714D01*
X154584304Y-89238333D01*
X154536685Y-89285952D01*
X155870019Y-89190714D02*
X155870019Y-89857380D01*
X155441447Y-89190714D02*
X155441447Y-89714523D01*
X155489066Y-89809761D01*
X155584304Y-89857380D01*
X155727161Y-89857380D01*
X155822400Y-89809761D01*
X155870019Y-89762142D01*
X156346209Y-89857380D02*
X156346209Y-88857380D01*
X156346209Y-89238333D02*
X156441447Y-89190714D01*
X156631923Y-89190714D01*
X156727161Y-89238333D01*
X156774780Y-89285952D01*
X156822400Y-89381190D01*
X156822400Y-89666904D01*
X156774780Y-89762142D01*
X156727161Y-89809761D01*
X156631923Y-89857380D01*
X156441447Y-89857380D01*
X156346209Y-89809761D01*
X157250971Y-89762142D02*
X157298590Y-89809761D01*
X157250971Y-89857380D01*
X157203352Y-89809761D01*
X157250971Y-89762142D01*
X157250971Y-89857380D01*
X158155733Y-89809761D02*
X158060495Y-89857380D01*
X157870019Y-89857380D01*
X157774780Y-89809761D01*
X157727161Y-89762142D01*
X157679542Y-89666904D01*
X157679542Y-89381190D01*
X157727161Y-89285952D01*
X157774780Y-89238333D01*
X157870019Y-89190714D01*
X158060495Y-89190714D01*
X158155733Y-89238333D01*
X158727161Y-89857380D02*
X158631923Y-89809761D01*
X158584304Y-89762142D01*
X158536685Y-89666904D01*
X158536685Y-89381190D01*
X158584304Y-89285952D01*
X158631923Y-89238333D01*
X158727161Y-89190714D01*
X158870019Y-89190714D01*
X158965257Y-89238333D01*
X159012876Y-89285952D01*
X159060495Y-89381190D01*
X159060495Y-89666904D01*
X159012876Y-89762142D01*
X158965257Y-89809761D01*
X158870019Y-89857380D01*
X158727161Y-89857380D01*
X159489066Y-89857380D02*
X159489066Y-89190714D01*
X159489066Y-89285952D02*
X159536685Y-89238333D01*
X159631923Y-89190714D01*
X159774780Y-89190714D01*
X159870019Y-89238333D01*
X159917638Y-89333571D01*
X159917638Y-89857380D01*
X159917638Y-89333571D02*
X159965257Y-89238333D01*
X160060495Y-89190714D01*
X160203352Y-89190714D01*
X160298590Y-89238333D01*
X160346209Y-89333571D01*
X160346209Y-89857380D01*
X161536685Y-88809761D02*
X160679542Y-90095476D01*
X146108114Y-90507380D02*
X146108114Y-91221666D01*
X146060495Y-91364523D01*
X145965257Y-91459761D01*
X145822400Y-91507380D01*
X145727161Y-91507380D01*
X147012876Y-91507380D02*
X147012876Y-90983571D01*
X146965257Y-90888333D01*
X146870019Y-90840714D01*
X146679542Y-90840714D01*
X146584304Y-90888333D01*
X147012876Y-91459761D02*
X146917638Y-91507380D01*
X146679542Y-91507380D01*
X146584304Y-91459761D01*
X146536685Y-91364523D01*
X146536685Y-91269285D01*
X146584304Y-91174047D01*
X146679542Y-91126428D01*
X146917638Y-91126428D01*
X147012876Y-91078809D01*
X147393828Y-90840714D02*
X147631923Y-91507380D01*
X147870019Y-90840714D02*
X147631923Y-91507380D01*
X147536685Y-91745476D01*
X147489066Y-91793095D01*
X147393828Y-91840714D01*
X148631923Y-91459761D02*
X148536685Y-91507380D01*
X148346209Y-91507380D01*
X148250971Y-91459761D01*
X148203352Y-91364523D01*
X148203352Y-90983571D01*
X148250971Y-90888333D01*
X148346209Y-90840714D01*
X148536685Y-90840714D01*
X148631923Y-90888333D01*
X148679542Y-90983571D01*
X148679542Y-91078809D01*
X148203352Y-91174047D01*
X149060495Y-91459761D02*
X149155733Y-91507380D01*
X149346209Y-91507380D01*
X149441447Y-91459761D01*
X149489066Y-91364523D01*
X149489066Y-91316904D01*
X149441447Y-91221666D01*
X149346209Y-91174047D01*
X149203352Y-91174047D01*
X149108114Y-91126428D01*
X149060495Y-91031190D01*
X149060495Y-90983571D01*
X149108114Y-90888333D01*
X149203352Y-90840714D01*
X149346209Y-90840714D01*
X149441447Y-90888333D01*
X150060495Y-91507380D02*
X149965257Y-91459761D01*
X149917638Y-91412142D01*
X149870019Y-91316904D01*
X149870019Y-91031190D01*
X149917638Y-90935952D01*
X149965257Y-90888333D01*
X150060495Y-90840714D01*
X150203352Y-90840714D01*
X150298590Y-90888333D01*
X150346209Y-90935952D01*
X150393828Y-91031190D01*
X150393828Y-91316904D01*
X150346209Y-91412142D01*
X150298590Y-91459761D01*
X150203352Y-91507380D01*
X150060495Y-91507380D01*
X150822400Y-90840714D02*
X150822400Y-91507380D01*
X150822400Y-90935952D02*
X150870019Y-90888333D01*
X150965257Y-90840714D01*
X151108114Y-90840714D01*
X151203352Y-90888333D01*
X151250971Y-90983571D01*
X151250971Y-91507380D01*
X152203352Y-91507380D02*
X151727161Y-91507380D01*
X151727161Y-90507380D01*
X152489066Y-91459761D02*
X152631923Y-91507380D01*
X152870019Y-91507380D01*
X152965257Y-91459761D01*
X153012876Y-91412142D01*
X153060495Y-91316904D01*
X153060495Y-91221666D01*
X153012876Y-91126428D01*
X152965257Y-91078809D01*
X152870019Y-91031190D01*
X152679542Y-90983571D01*
X152584304Y-90935952D01*
X152536685Y-90888333D01*
X152489066Y-90793095D01*
X152489066Y-90697857D01*
X152536685Y-90602619D01*
X152584304Y-90555000D01*
X152679542Y-90507380D01*
X152917638Y-90507380D01*
X153060495Y-90555000D01*
X154203352Y-90459761D02*
X153346209Y-91745476D01*
X154536685Y-91507380D02*
X154536685Y-90507380D01*
X154965257Y-91459761D02*
X155108114Y-91507380D01*
X155346209Y-91507380D01*
X155441447Y-91459761D01*
X155489066Y-91412142D01*
X155536685Y-91316904D01*
X155536685Y-91221666D01*
X155489066Y-91126428D01*
X155441447Y-91078809D01*
X155346209Y-91031190D01*
X155155733Y-90983571D01*
X155060495Y-90935952D01*
X155012876Y-90888333D01*
X154965257Y-90793095D01*
X154965257Y-90697857D01*
X155012876Y-90602619D01*
X155060495Y-90555000D01*
X155155733Y-90507380D01*
X155393828Y-90507380D01*
X155536685Y-90555000D01*
X155917638Y-91221666D02*
X156393828Y-91221666D01*
X155822400Y-91507380D02*
X156155733Y-90507380D01*
X156489066Y-91507380D01*
X156822400Y-91126428D02*
X157584304Y-91126428D01*
X158631923Y-91412142D02*
X158584304Y-91459761D01*
X158441447Y-91507380D01*
X158346209Y-91507380D01*
X158203352Y-91459761D01*
X158108114Y-91364523D01*
X158060495Y-91269285D01*
X158012876Y-91078809D01*
X158012876Y-90935952D01*
X158060495Y-90745476D01*
X158108114Y-90650238D01*
X158203352Y-90555000D01*
X158346209Y-90507380D01*
X158441447Y-90507380D01*
X158584304Y-90555000D01*
X158631923Y-90602619D01*
X159489066Y-91507380D02*
X159489066Y-90983571D01*
X159441447Y-90888333D01*
X159346209Y-90840714D01*
X159155733Y-90840714D01*
X159060495Y-90888333D01*
X159489066Y-91459761D02*
X159393828Y-91507380D01*
X159155733Y-91507380D01*
X159060495Y-91459761D01*
X159012876Y-91364523D01*
X159012876Y-91269285D01*
X159060495Y-91174047D01*
X159155733Y-91126428D01*
X159393828Y-91126428D01*
X159489066Y-91078809D01*
X159965257Y-91507380D02*
X159965257Y-90840714D01*
X159965257Y-91031190D02*
X160012876Y-90935952D01*
X160060495Y-90888333D01*
X160155733Y-90840714D01*
X160250971Y-90840714D01*
X161012876Y-91507380D02*
X161012876Y-90507380D01*
X161012876Y-91459761D02*
X160917638Y-91507380D01*
X160727161Y-91507380D01*
X160631923Y-91459761D01*
X160584304Y-91412142D01*
X160536685Y-91316904D01*
X160536685Y-91031190D01*
X160584304Y-90935952D01*
X160631923Y-90888333D01*
X160727161Y-90840714D01*
X160917638Y-90840714D01*
X161012876Y-90888333D01*
X161441447Y-91459761D02*
X161536685Y-91507380D01*
X161727161Y-91507380D01*
X161822400Y-91459761D01*
X161870019Y-91364523D01*
X161870019Y-91316904D01*
X161822400Y-91221666D01*
X161727161Y-91174047D01*
X161584304Y-91174047D01*
X161489066Y-91126428D01*
X161441447Y-91031190D01*
X161441447Y-90983571D01*
X161489066Y-90888333D01*
X161584304Y-90840714D01*
X161727161Y-90840714D01*
X161822400Y-90888333D01*
D13*
X116475952Y-43609761D02*
X117618809Y-43609761D01*
X117047380Y-45609761D02*
X117047380Y-43609761D01*
X119142619Y-45609761D02*
X119142619Y-44562142D01*
X119047380Y-44371666D01*
X118856904Y-44276428D01*
X118475952Y-44276428D01*
X118285476Y-44371666D01*
X119142619Y-45514523D02*
X118952142Y-45609761D01*
X118475952Y-45609761D01*
X118285476Y-45514523D01*
X118190238Y-45324047D01*
X118190238Y-45133571D01*
X118285476Y-44943095D01*
X118475952Y-44847857D01*
X118952142Y-44847857D01*
X119142619Y-44752619D01*
X120095000Y-44276428D02*
X120095000Y-45609761D01*
X120095000Y-44466904D02*
X120190238Y-44371666D01*
X120380714Y-44276428D01*
X120666428Y-44276428D01*
X120856904Y-44371666D01*
X120952142Y-44562142D01*
X120952142Y-45609761D01*
X122761666Y-45609761D02*
X122761666Y-43609761D01*
X122761666Y-45514523D02*
X122571190Y-45609761D01*
X122190238Y-45609761D01*
X121999761Y-45514523D01*
X121904523Y-45419285D01*
X121809285Y-45228809D01*
X121809285Y-44657380D01*
X121904523Y-44466904D01*
X121999761Y-44371666D01*
X122190238Y-44276428D01*
X122571190Y-44276428D01*
X122761666Y-44371666D01*
X123523571Y-44276428D02*
X123999761Y-45609761D01*
X124475952Y-44276428D02*
X123999761Y-45609761D01*
X123809285Y-46085952D01*
X123714047Y-46181190D01*
X123523571Y-46276428D01*
X127809285Y-45609761D02*
X126666428Y-45609761D01*
X127237857Y-45609761D02*
X127237857Y-43609761D01*
X127047380Y-43895476D01*
X126856904Y-44085952D01*
X126666428Y-44181190D01*
X129047380Y-43609761D02*
X129237857Y-43609761D01*
X129428333Y-43705000D01*
X129523571Y-43800238D01*
X129618809Y-43990714D01*
X129714047Y-44371666D01*
X129714047Y-44847857D01*
X129618809Y-45228809D01*
X129523571Y-45419285D01*
X129428333Y-45514523D01*
X129237857Y-45609761D01*
X129047380Y-45609761D01*
X128856904Y-45514523D01*
X128761666Y-45419285D01*
X128666428Y-45228809D01*
X128571190Y-44847857D01*
X128571190Y-44371666D01*
X128666428Y-43990714D01*
X128761666Y-43800238D01*
X128856904Y-43705000D01*
X129047380Y-43609761D01*
X130952142Y-43609761D02*
X131142619Y-43609761D01*
X131333095Y-43705000D01*
X131428333Y-43800238D01*
X131523571Y-43990714D01*
X131618809Y-44371666D01*
X131618809Y-44847857D01*
X131523571Y-45228809D01*
X131428333Y-45419285D01*
X131333095Y-45514523D01*
X131142619Y-45609761D01*
X130952142Y-45609761D01*
X130761666Y-45514523D01*
X130666428Y-45419285D01*
X130571190Y-45228809D01*
X130475952Y-44847857D01*
X130475952Y-44371666D01*
X130571190Y-43990714D01*
X130666428Y-43800238D01*
X130761666Y-43705000D01*
X130952142Y-43609761D01*
X132856904Y-43609761D02*
X133047380Y-43609761D01*
X133237857Y-43705000D01*
X133333095Y-43800238D01*
X133428333Y-43990714D01*
X133523571Y-44371666D01*
X133523571Y-44847857D01*
X133428333Y-45228809D01*
X133333095Y-45419285D01*
X133237857Y-45514523D01*
X133047380Y-45609761D01*
X132856904Y-45609761D01*
X132666428Y-45514523D01*
X132571190Y-45419285D01*
X132475952Y-45228809D01*
X132380714Y-44847857D01*
X132380714Y-44371666D01*
X132475952Y-43990714D01*
X132571190Y-43800238D01*
X132666428Y-43705000D01*
X132856904Y-43609761D01*
X117999761Y-47862142D02*
X118666428Y-47862142D01*
X118952142Y-48909761D02*
X117999761Y-48909761D01*
X117999761Y-46909761D01*
X118952142Y-46909761D01*
X119714047Y-48814523D02*
X119904523Y-48909761D01*
X120285476Y-48909761D01*
X120475952Y-48814523D01*
X120571190Y-48624047D01*
X120571190Y-48528809D01*
X120475952Y-48338333D01*
X120285476Y-48243095D01*
X119999761Y-48243095D01*
X119809285Y-48147857D01*
X119714047Y-47957380D01*
X119714047Y-47862142D01*
X119809285Y-47671666D01*
X119999761Y-47576428D01*
X120285476Y-47576428D01*
X120475952Y-47671666D01*
X121333095Y-48814523D02*
X121523571Y-48909761D01*
X121904523Y-48909761D01*
X122095000Y-48814523D01*
X122190238Y-48624047D01*
X122190238Y-48528809D01*
X122095000Y-48338333D01*
X121904523Y-48243095D01*
X121618809Y-48243095D01*
X121428333Y-48147857D01*
X121333095Y-47957380D01*
X121333095Y-47862142D01*
X121428333Y-47671666D01*
X121618809Y-47576428D01*
X121904523Y-47576428D01*
X122095000Y-47671666D01*
X123809285Y-48814523D02*
X123618809Y-48909761D01*
X123237857Y-48909761D01*
X123047380Y-48814523D01*
X122952142Y-48624047D01*
X122952142Y-47862142D01*
X123047380Y-47671666D01*
X123237857Y-47576428D01*
X123618809Y-47576428D01*
X123809285Y-47671666D01*
X123904523Y-47862142D01*
X123904523Y-48052619D01*
X122952142Y-48243095D01*
X124761666Y-47576428D02*
X124761666Y-48909761D01*
X124761666Y-47766904D02*
X124856904Y-47671666D01*
X125047380Y-47576428D01*
X125333095Y-47576428D01*
X125523571Y-47671666D01*
X125618809Y-47862142D01*
X125618809Y-48909761D01*
X126285476Y-47576428D02*
X127047380Y-47576428D01*
X126571190Y-46909761D02*
X126571190Y-48624047D01*
X126666428Y-48814523D01*
X126856904Y-48909761D01*
X127047380Y-48909761D01*
X127714047Y-48909761D02*
X127714047Y-47576428D01*
X127714047Y-46909761D02*
X127618809Y-47005000D01*
X127714047Y-47100238D01*
X127809285Y-47005000D01*
X127714047Y-46909761D01*
X127714047Y-47100238D01*
X129523571Y-48909761D02*
X129523571Y-47862142D01*
X129428333Y-47671666D01*
X129237857Y-47576428D01*
X128856904Y-47576428D01*
X128666428Y-47671666D01*
X129523571Y-48814523D02*
X129333095Y-48909761D01*
X128856904Y-48909761D01*
X128666428Y-48814523D01*
X128571190Y-48624047D01*
X128571190Y-48433571D01*
X128666428Y-48243095D01*
X128856904Y-48147857D01*
X129333095Y-48147857D01*
X129523571Y-48052619D01*
X130761666Y-48909761D02*
X130571190Y-48814523D01*
X130475952Y-48624047D01*
X130475952Y-46909761D01*
X131428333Y-48814523D02*
X131618809Y-48909761D01*
X131999761Y-48909761D01*
X132190238Y-48814523D01*
X132285476Y-48624047D01*
X132285476Y-48528809D01*
X132190238Y-48338333D01*
X131999761Y-48243095D01*
X131714047Y-48243095D01*
X131523571Y-48147857D01*
X131428333Y-47957380D01*
X131428333Y-47862142D01*
X131523571Y-47671666D01*
X131714047Y-47576428D01*
X131999761Y-47576428D01*
X132190238Y-47671666D01*
D11*
X106935238Y-73874761D02*
X107078095Y-73922380D01*
X107316190Y-73922380D01*
X107411428Y-73874761D01*
X107459047Y-73827142D01*
X107506666Y-73731904D01*
X107506666Y-73636666D01*
X107459047Y-73541428D01*
X107411428Y-73493809D01*
X107316190Y-73446190D01*
X107125714Y-73398571D01*
X107030476Y-73350952D01*
X106982857Y-73303333D01*
X106935238Y-73208095D01*
X106935238Y-73112857D01*
X106982857Y-73017619D01*
X107030476Y-72970000D01*
X107125714Y-72922380D01*
X107363809Y-72922380D01*
X107506666Y-72970000D01*
X107887619Y-73874761D02*
X108030476Y-73922380D01*
X108268571Y-73922380D01*
X108363809Y-73874761D01*
X108411428Y-73827142D01*
X108459047Y-73731904D01*
X108459047Y-73636666D01*
X108411428Y-73541428D01*
X108363809Y-73493809D01*
X108268571Y-73446190D01*
X108078095Y-73398571D01*
X107982857Y-73350952D01*
X107935238Y-73303333D01*
X107887619Y-73208095D01*
X107887619Y-73112857D01*
X107935238Y-73017619D01*
X107982857Y-72970000D01*
X108078095Y-72922380D01*
X108316190Y-72922380D01*
X108459047Y-72970000D01*
X108744761Y-72922380D02*
X109316190Y-72922380D01*
X109030476Y-73922380D02*
X109030476Y-72922380D01*
X109554285Y-72922380D02*
X110173333Y-72922380D01*
X109840000Y-73303333D01*
X109982857Y-73303333D01*
X110078095Y-73350952D01*
X110125714Y-73398571D01*
X110173333Y-73493809D01*
X110173333Y-73731904D01*
X110125714Y-73827142D01*
X110078095Y-73874761D01*
X109982857Y-73922380D01*
X109697142Y-73922380D01*
X109601904Y-73874761D01*
X109554285Y-73827142D01*
X110649523Y-73922380D02*
X110840000Y-73922380D01*
X110935238Y-73874761D01*
X110982857Y-73827142D01*
X111078095Y-73684285D01*
X111125714Y-73493809D01*
X111125714Y-73112857D01*
X111078095Y-73017619D01*
X111030476Y-72970000D01*
X110935238Y-72922380D01*
X110744761Y-72922380D01*
X110649523Y-72970000D01*
X110601904Y-73017619D01*
X110554285Y-73112857D01*
X110554285Y-73350952D01*
X110601904Y-73446190D01*
X110649523Y-73493809D01*
X110744761Y-73541428D01*
X110935238Y-73541428D01*
X111030476Y-73493809D01*
X111078095Y-73446190D01*
X111125714Y-73350952D01*
X111506666Y-73874761D02*
X111649523Y-73922380D01*
X111887619Y-73922380D01*
X111982857Y-73874761D01*
X112030476Y-73827142D01*
X112078095Y-73731904D01*
X112078095Y-73636666D01*
X112030476Y-73541428D01*
X111982857Y-73493809D01*
X111887619Y-73446190D01*
X111697142Y-73398571D01*
X111601904Y-73350952D01*
X111554285Y-73303333D01*
X111506666Y-73208095D01*
X111506666Y-73112857D01*
X111554285Y-73017619D01*
X111601904Y-72970000D01*
X111697142Y-72922380D01*
X111935238Y-72922380D01*
X112078095Y-72970000D01*
X112840000Y-73398571D02*
X112506666Y-73398571D01*
X112506666Y-73922380D02*
X112506666Y-72922380D01*
X112982857Y-72922380D01*
X113554285Y-72922380D02*
X113649523Y-72922380D01*
X113744761Y-72970000D01*
X113792380Y-73017619D01*
X113840000Y-73112857D01*
X113887619Y-73303333D01*
X113887619Y-73541428D01*
X113840000Y-73731904D01*
X113792380Y-73827142D01*
X113744761Y-73874761D01*
X113649523Y-73922380D01*
X113554285Y-73922380D01*
X113459047Y-73874761D01*
X113411428Y-73827142D01*
X113363809Y-73731904D01*
X113316190Y-73541428D01*
X113316190Y-73303333D01*
X113363809Y-73112857D01*
X113411428Y-73017619D01*
X113459047Y-72970000D01*
X113554285Y-72922380D01*
X114840000Y-73922380D02*
X114268571Y-73922380D01*
X114554285Y-73922380D02*
X114554285Y-72922380D01*
X114459047Y-73065238D01*
X114363809Y-73160476D01*
X114268571Y-73208095D01*
X115459047Y-72922380D02*
X115554285Y-72922380D01*
X115649523Y-72970000D01*
X115697142Y-73017619D01*
X115744761Y-73112857D01*
X115792380Y-73303333D01*
X115792380Y-73541428D01*
X115744761Y-73731904D01*
X115697142Y-73827142D01*
X115649523Y-73874761D01*
X115554285Y-73922380D01*
X115459047Y-73922380D01*
X115363809Y-73874761D01*
X115316190Y-73827142D01*
X115268571Y-73731904D01*
X115220952Y-73541428D01*
X115220952Y-73303333D01*
X115268571Y-73112857D01*
X115316190Y-73017619D01*
X115363809Y-72970000D01*
X115459047Y-72922380D01*
X116268571Y-73874761D02*
X116268571Y-73922380D01*
X116220952Y-74017619D01*
X116173333Y-74065238D01*
X117411428Y-73874761D02*
X117554285Y-73922380D01*
X117792380Y-73922380D01*
X117887619Y-73874761D01*
X117935238Y-73827142D01*
X117982857Y-73731904D01*
X117982857Y-73636666D01*
X117935238Y-73541428D01*
X117887619Y-73493809D01*
X117792380Y-73446190D01*
X117601904Y-73398571D01*
X117506666Y-73350952D01*
X117459047Y-73303333D01*
X117411428Y-73208095D01*
X117411428Y-73112857D01*
X117459047Y-73017619D01*
X117506666Y-72970000D01*
X117601904Y-72922380D01*
X117840000Y-72922380D01*
X117982857Y-72970000D01*
X118363809Y-73874761D02*
X118506666Y-73922380D01*
X118744761Y-73922380D01*
X118840000Y-73874761D01*
X118887619Y-73827142D01*
X118935238Y-73731904D01*
X118935238Y-73636666D01*
X118887619Y-73541428D01*
X118840000Y-73493809D01*
X118744761Y-73446190D01*
X118554285Y-73398571D01*
X118459047Y-73350952D01*
X118411428Y-73303333D01*
X118363809Y-73208095D01*
X118363809Y-73112857D01*
X118411428Y-73017619D01*
X118459047Y-72970000D01*
X118554285Y-72922380D01*
X118792380Y-72922380D01*
X118935238Y-72970000D01*
X119220952Y-72922380D02*
X119792380Y-72922380D01*
X119506666Y-73922380D02*
X119506666Y-72922380D01*
X120030476Y-72922380D02*
X120649523Y-72922380D01*
X120316190Y-73303333D01*
X120459047Y-73303333D01*
X120554285Y-73350952D01*
X120601904Y-73398571D01*
X120649523Y-73493809D01*
X120649523Y-73731904D01*
X120601904Y-73827142D01*
X120554285Y-73874761D01*
X120459047Y-73922380D01*
X120173333Y-73922380D01*
X120078095Y-73874761D01*
X120030476Y-73827142D01*
X121125714Y-73922380D02*
X121316190Y-73922380D01*
X121411428Y-73874761D01*
X121459047Y-73827142D01*
X121554285Y-73684285D01*
X121601904Y-73493809D01*
X121601904Y-73112857D01*
X121554285Y-73017619D01*
X121506666Y-72970000D01*
X121411428Y-72922380D01*
X121220952Y-72922380D01*
X121125714Y-72970000D01*
X121078095Y-73017619D01*
X121030476Y-73112857D01*
X121030476Y-73350952D01*
X121078095Y-73446190D01*
X121125714Y-73493809D01*
X121220952Y-73541428D01*
X121411428Y-73541428D01*
X121506666Y-73493809D01*
X121554285Y-73446190D01*
X121601904Y-73350952D01*
X121982857Y-73874761D02*
X122125714Y-73922380D01*
X122363809Y-73922380D01*
X122459047Y-73874761D01*
X122506666Y-73827142D01*
X122554285Y-73731904D01*
X122554285Y-73636666D01*
X122506666Y-73541428D01*
X122459047Y-73493809D01*
X122363809Y-73446190D01*
X122173333Y-73398571D01*
X122078095Y-73350952D01*
X122030476Y-73303333D01*
X121982857Y-73208095D01*
X121982857Y-73112857D01*
X122030476Y-73017619D01*
X122078095Y-72970000D01*
X122173333Y-72922380D01*
X122411428Y-72922380D01*
X122554285Y-72970000D01*
X123316190Y-73398571D02*
X122982857Y-73398571D01*
X122982857Y-73922380D02*
X122982857Y-72922380D01*
X123459047Y-72922380D01*
X124030476Y-72922380D02*
X124125714Y-72922380D01*
X124220952Y-72970000D01*
X124268571Y-73017619D01*
X124316190Y-73112857D01*
X124363809Y-73303333D01*
X124363809Y-73541428D01*
X124316190Y-73731904D01*
X124268571Y-73827142D01*
X124220952Y-73874761D01*
X124125714Y-73922380D01*
X124030476Y-73922380D01*
X123935238Y-73874761D01*
X123887619Y-73827142D01*
X123840000Y-73731904D01*
X123792380Y-73541428D01*
X123792380Y-73303333D01*
X123840000Y-73112857D01*
X123887619Y-73017619D01*
X123935238Y-72970000D01*
X124030476Y-72922380D01*
X124744761Y-73017619D02*
X124792380Y-72970000D01*
X124887619Y-72922380D01*
X125125714Y-72922380D01*
X125220952Y-72970000D01*
X125268571Y-73017619D01*
X125316190Y-73112857D01*
X125316190Y-73208095D01*
X125268571Y-73350952D01*
X124697142Y-73922380D01*
X125316190Y-73922380D01*
X125935238Y-72922380D02*
X126030476Y-72922380D01*
X126125714Y-72970000D01*
X126173333Y-73017619D01*
X126220952Y-73112857D01*
X126268571Y-73303333D01*
X126268571Y-73541428D01*
X126220952Y-73731904D01*
X126173333Y-73827142D01*
X126125714Y-73874761D01*
X126030476Y-73922380D01*
X125935238Y-73922380D01*
X125840000Y-73874761D01*
X125792380Y-73827142D01*
X125744761Y-73731904D01*
X125697142Y-73541428D01*
X125697142Y-73303333D01*
X125744761Y-73112857D01*
X125792380Y-73017619D01*
X125840000Y-72970000D01*
X125935238Y-72922380D01*
X126744761Y-73874761D02*
X126744761Y-73922380D01*
X126697142Y-74017619D01*
X126649523Y-74065238D01*
X108316190Y-75524761D02*
X108459047Y-75572380D01*
X108697142Y-75572380D01*
X108792380Y-75524761D01*
X108840000Y-75477142D01*
X108887619Y-75381904D01*
X108887619Y-75286666D01*
X108840000Y-75191428D01*
X108792380Y-75143809D01*
X108697142Y-75096190D01*
X108506666Y-75048571D01*
X108411428Y-75000952D01*
X108363809Y-74953333D01*
X108316190Y-74858095D01*
X108316190Y-74762857D01*
X108363809Y-74667619D01*
X108411428Y-74620000D01*
X108506666Y-74572380D01*
X108744761Y-74572380D01*
X108887619Y-74620000D01*
X109268571Y-75524761D02*
X109411428Y-75572380D01*
X109649523Y-75572380D01*
X109744761Y-75524761D01*
X109792380Y-75477142D01*
X109840000Y-75381904D01*
X109840000Y-75286666D01*
X109792380Y-75191428D01*
X109744761Y-75143809D01*
X109649523Y-75096190D01*
X109459047Y-75048571D01*
X109363809Y-75000952D01*
X109316190Y-74953333D01*
X109268571Y-74858095D01*
X109268571Y-74762857D01*
X109316190Y-74667619D01*
X109363809Y-74620000D01*
X109459047Y-74572380D01*
X109697142Y-74572380D01*
X109840000Y-74620000D01*
X110125714Y-74572380D02*
X110697142Y-74572380D01*
X110411428Y-75572380D02*
X110411428Y-74572380D01*
X110935238Y-74572380D02*
X111554285Y-74572380D01*
X111220952Y-74953333D01*
X111363809Y-74953333D01*
X111459047Y-75000952D01*
X111506666Y-75048571D01*
X111554285Y-75143809D01*
X111554285Y-75381904D01*
X111506666Y-75477142D01*
X111459047Y-75524761D01*
X111363809Y-75572380D01*
X111078095Y-75572380D01*
X110982857Y-75524761D01*
X110935238Y-75477142D01*
X112030476Y-75572380D02*
X112220952Y-75572380D01*
X112316190Y-75524761D01*
X112363809Y-75477142D01*
X112459047Y-75334285D01*
X112506666Y-75143809D01*
X112506666Y-74762857D01*
X112459047Y-74667619D01*
X112411428Y-74620000D01*
X112316190Y-74572380D01*
X112125714Y-74572380D01*
X112030476Y-74620000D01*
X111982857Y-74667619D01*
X111935238Y-74762857D01*
X111935238Y-75000952D01*
X111982857Y-75096190D01*
X112030476Y-75143809D01*
X112125714Y-75191428D01*
X112316190Y-75191428D01*
X112411428Y-75143809D01*
X112459047Y-75096190D01*
X112506666Y-75000952D01*
X112887619Y-75524761D02*
X113030476Y-75572380D01*
X113268571Y-75572380D01*
X113363809Y-75524761D01*
X113411428Y-75477142D01*
X113459047Y-75381904D01*
X113459047Y-75286666D01*
X113411428Y-75191428D01*
X113363809Y-75143809D01*
X113268571Y-75096190D01*
X113078095Y-75048571D01*
X112982857Y-75000952D01*
X112935238Y-74953333D01*
X112887619Y-74858095D01*
X112887619Y-74762857D01*
X112935238Y-74667619D01*
X112982857Y-74620000D01*
X113078095Y-74572380D01*
X113316190Y-74572380D01*
X113459047Y-74620000D01*
X114220952Y-75048571D02*
X113887619Y-75048571D01*
X113887619Y-75572380D02*
X113887619Y-74572380D01*
X114363809Y-74572380D01*
X114935238Y-74572380D02*
X115030476Y-74572380D01*
X115125714Y-74620000D01*
X115173333Y-74667619D01*
X115220952Y-74762857D01*
X115268571Y-74953333D01*
X115268571Y-75191428D01*
X115220952Y-75381904D01*
X115173333Y-75477142D01*
X115125714Y-75524761D01*
X115030476Y-75572380D01*
X114935238Y-75572380D01*
X114840000Y-75524761D01*
X114792380Y-75477142D01*
X114744761Y-75381904D01*
X114697142Y-75191428D01*
X114697142Y-74953333D01*
X114744761Y-74762857D01*
X114792380Y-74667619D01*
X114840000Y-74620000D01*
X114935238Y-74572380D01*
X116125714Y-74905714D02*
X116125714Y-75572380D01*
X115887619Y-74524761D02*
X115649523Y-75239047D01*
X116268571Y-75239047D01*
X116840000Y-74572380D02*
X116935238Y-74572380D01*
X117030476Y-74620000D01*
X117078095Y-74667619D01*
X117125714Y-74762857D01*
X117173333Y-74953333D01*
X117173333Y-75191428D01*
X117125714Y-75381904D01*
X117078095Y-75477142D01*
X117030476Y-75524761D01*
X116935238Y-75572380D01*
X116840000Y-75572380D01*
X116744761Y-75524761D01*
X116697142Y-75477142D01*
X116649523Y-75381904D01*
X116601904Y-75191428D01*
X116601904Y-74953333D01*
X116649523Y-74762857D01*
X116697142Y-74667619D01*
X116744761Y-74620000D01*
X116840000Y-74572380D01*
X118506666Y-75572380D02*
X118411428Y-75524761D01*
X118363809Y-75477142D01*
X118316190Y-75381904D01*
X118316190Y-75096190D01*
X118363809Y-75000952D01*
X118411428Y-74953333D01*
X118506666Y-74905714D01*
X118649523Y-74905714D01*
X118744761Y-74953333D01*
X118792380Y-75000952D01*
X118840000Y-75096190D01*
X118840000Y-75381904D01*
X118792380Y-75477142D01*
X118744761Y-75524761D01*
X118649523Y-75572380D01*
X118506666Y-75572380D01*
X119268571Y-75572380D02*
X119268571Y-74905714D01*
X119268571Y-75096190D02*
X119316190Y-75000952D01*
X119363809Y-74953333D01*
X119459047Y-74905714D01*
X119554285Y-74905714D01*
X120601904Y-75524761D02*
X120697142Y-75572380D01*
X120887619Y-75572380D01*
X120982857Y-75524761D01*
X121030476Y-75429523D01*
X121030476Y-75381904D01*
X120982857Y-75286666D01*
X120887619Y-75239047D01*
X120744761Y-75239047D01*
X120649523Y-75191428D01*
X120601904Y-75096190D01*
X120601904Y-75048571D01*
X120649523Y-74953333D01*
X120744761Y-74905714D01*
X120887619Y-74905714D01*
X120982857Y-74953333D01*
X121459047Y-75572380D02*
X121459047Y-74905714D01*
X121459047Y-74572380D02*
X121411428Y-74620000D01*
X121459047Y-74667619D01*
X121506666Y-74620000D01*
X121459047Y-74572380D01*
X121459047Y-74667619D01*
X121935238Y-75572380D02*
X121935238Y-74905714D01*
X121935238Y-75000952D02*
X121982857Y-74953333D01*
X122078095Y-74905714D01*
X122220952Y-74905714D01*
X122316190Y-74953333D01*
X122363809Y-75048571D01*
X122363809Y-75572380D01*
X122363809Y-75048571D02*
X122411428Y-74953333D01*
X122506666Y-74905714D01*
X122649523Y-74905714D01*
X122744761Y-74953333D01*
X122792380Y-75048571D01*
X122792380Y-75572380D01*
X123268571Y-75572380D02*
X123268571Y-74905714D01*
X123268571Y-74572380D02*
X123220952Y-74620000D01*
X123268571Y-74667619D01*
X123316190Y-74620000D01*
X123268571Y-74572380D01*
X123268571Y-74667619D01*
X123887619Y-75572380D02*
X123792380Y-75524761D01*
X123744761Y-75429523D01*
X123744761Y-74572380D01*
X124697142Y-75572380D02*
X124697142Y-75048571D01*
X124649523Y-74953333D01*
X124554285Y-74905714D01*
X124363809Y-74905714D01*
X124268571Y-74953333D01*
X124697142Y-75524761D02*
X124601904Y-75572380D01*
X124363809Y-75572380D01*
X124268571Y-75524761D01*
X124220952Y-75429523D01*
X124220952Y-75334285D01*
X124268571Y-75239047D01*
X124363809Y-75191428D01*
X124601904Y-75191428D01*
X124697142Y-75143809D01*
X125173333Y-75572380D02*
X125173333Y-74905714D01*
X125173333Y-75096190D02*
X125220952Y-75000952D01*
X125268571Y-74953333D01*
X125363809Y-74905714D01*
X125459047Y-74905714D01*
X98591666Y-59402023D02*
X98591666Y-58925833D01*
X98877380Y-59497261D02*
X97877380Y-59163928D01*
X98877380Y-58830595D01*
X101957142Y-52432976D02*
X102004761Y-52480595D01*
X102052380Y-52623452D01*
X102052380Y-52718690D01*
X102004761Y-52861547D01*
X101909523Y-52956785D01*
X101814285Y-53004404D01*
X101623809Y-53052023D01*
X101480952Y-53052023D01*
X101290476Y-53004404D01*
X101195238Y-52956785D01*
X101100000Y-52861547D01*
X101052380Y-52718690D01*
X101052380Y-52623452D01*
X101100000Y-52480595D01*
X101147619Y-52432976D01*
X102052380Y-52004404D02*
X101052380Y-52004404D01*
X101052380Y-51623452D01*
X101100000Y-51528214D01*
X101147619Y-51480595D01*
X101242857Y-51432976D01*
X101385714Y-51432976D01*
X101480952Y-51480595D01*
X101528571Y-51528214D01*
X101576190Y-51623452D01*
X101576190Y-52004404D01*
X101052380Y-51004404D02*
X101861904Y-51004404D01*
X101957142Y-50956785D01*
X102004761Y-50909166D01*
X102052380Y-50813928D01*
X102052380Y-50623452D01*
X102004761Y-50528214D01*
X101957142Y-50480595D01*
X101861904Y-50432976D01*
X101052380Y-50432976D01*
X101052380Y-49337738D02*
X101052380Y-48766309D01*
X102052380Y-49052023D02*
X101052380Y-49052023D01*
X101576190Y-48242500D02*
X102052380Y-48242500D01*
X101052380Y-48575833D02*
X101576190Y-48242500D01*
X101052380Y-47909166D01*
X102052380Y-47575833D02*
X101052380Y-47575833D01*
X101052380Y-47194880D01*
X101100000Y-47099642D01*
X101147619Y-47052023D01*
X101242857Y-47004404D01*
X101385714Y-47004404D01*
X101480952Y-47052023D01*
X101528571Y-47099642D01*
X101576190Y-47194880D01*
X101576190Y-47575833D01*
X101528571Y-46575833D02*
X101528571Y-46242500D01*
X102052380Y-46099642D02*
X102052380Y-46575833D01*
X101052380Y-46575833D01*
X101052380Y-46099642D01*
X98353571Y-51401071D02*
X98401190Y-51258214D01*
X98448809Y-51210595D01*
X98544047Y-51162976D01*
X98686904Y-51162976D01*
X98782142Y-51210595D01*
X98829761Y-51258214D01*
X98877380Y-51353452D01*
X98877380Y-51734404D01*
X97877380Y-51734404D01*
X97877380Y-51401071D01*
X97925000Y-51305833D01*
X97972619Y-51258214D01*
X98067857Y-51210595D01*
X98163095Y-51210595D01*
X98258333Y-51258214D01*
X98305952Y-51305833D01*
X98353571Y-51401071D01*
X98353571Y-51734404D01*
X104306666Y-53052023D02*
X104306666Y-52575833D01*
X104592380Y-53147261D02*
X103592380Y-52813928D01*
X104592380Y-52480595D01*
X103592380Y-52290119D02*
X103592380Y-51718690D01*
X104592380Y-52004404D02*
X103592380Y-52004404D01*
X104306666Y-51432976D02*
X104306666Y-50956785D01*
X104592380Y-51528214D02*
X103592380Y-51194880D01*
X104592380Y-50861547D01*
X104592380Y-49766309D02*
X103592380Y-49766309D01*
X103592380Y-49385357D01*
X103640000Y-49290119D01*
X103687619Y-49242500D01*
X103782857Y-49194880D01*
X103925714Y-49194880D01*
X104020952Y-49242500D01*
X104068571Y-49290119D01*
X104116190Y-49385357D01*
X104116190Y-49766309D01*
X103592380Y-48575833D02*
X103592380Y-48385357D01*
X103640000Y-48290119D01*
X103735238Y-48194880D01*
X103925714Y-48147261D01*
X104259047Y-48147261D01*
X104449523Y-48194880D01*
X104544761Y-48290119D01*
X104592380Y-48385357D01*
X104592380Y-48575833D01*
X104544761Y-48671071D01*
X104449523Y-48766309D01*
X104259047Y-48813928D01*
X103925714Y-48813928D01*
X103735238Y-48766309D01*
X103640000Y-48671071D01*
X103592380Y-48575833D01*
X104592380Y-47147261D02*
X104116190Y-47480595D01*
X104592380Y-47718690D02*
X103592380Y-47718690D01*
X103592380Y-47337738D01*
X103640000Y-47242500D01*
X103687619Y-47194880D01*
X103782857Y-47147261D01*
X103925714Y-47147261D01*
X104020952Y-47194880D01*
X104068571Y-47242500D01*
X104116190Y-47337738D01*
X104116190Y-47718690D01*
X103592380Y-46861547D02*
X103592380Y-46290119D01*
X104592380Y-46575833D02*
X103592380Y-46575833D01*
X107132380Y-52432976D02*
X106656190Y-52766309D01*
X107132380Y-53004404D02*
X106132380Y-53004404D01*
X106132380Y-52623452D01*
X106180000Y-52528214D01*
X106227619Y-52480595D01*
X106322857Y-52432976D01*
X106465714Y-52432976D01*
X106560952Y-52480595D01*
X106608571Y-52528214D01*
X106656190Y-52623452D01*
X106656190Y-53004404D01*
X106132380Y-51813928D02*
X106132380Y-51623452D01*
X106180000Y-51528214D01*
X106275238Y-51432976D01*
X106465714Y-51385357D01*
X106799047Y-51385357D01*
X106989523Y-51432976D01*
X107084761Y-51528214D01*
X107132380Y-51623452D01*
X107132380Y-51813928D01*
X107084761Y-51909166D01*
X106989523Y-52004404D01*
X106799047Y-52052023D01*
X106465714Y-52052023D01*
X106275238Y-52004404D01*
X106180000Y-51909166D01*
X106132380Y-51813928D01*
X107132380Y-50956785D02*
X106132380Y-50956785D01*
X106846666Y-50623452D01*
X106132380Y-50290119D01*
X107132380Y-50290119D01*
X106846666Y-49099642D02*
X106846666Y-48623452D01*
X107132380Y-49194880D02*
X106132380Y-48861547D01*
X107132380Y-48528214D01*
X107132380Y-48194880D02*
X106132380Y-48194880D01*
X106132380Y-47956785D01*
X106180000Y-47813928D01*
X106275238Y-47718690D01*
X106370476Y-47671071D01*
X106560952Y-47623452D01*
X106703809Y-47623452D01*
X106894285Y-47671071D01*
X106989523Y-47718690D01*
X107084761Y-47813928D01*
X107132380Y-47956785D01*
X107132380Y-48194880D01*
X107132380Y-47194880D02*
X106132380Y-47194880D01*
X106132380Y-46956785D01*
X106180000Y-46813928D01*
X106275238Y-46718690D01*
X106370476Y-46671071D01*
X106560952Y-46623452D01*
X106703809Y-46623452D01*
X106894285Y-46671071D01*
X106989523Y-46718690D01*
X107084761Y-46813928D01*
X107132380Y-46956785D01*
X107132380Y-47194880D01*
X107132380Y-45623452D02*
X106656190Y-45956785D01*
X107132380Y-46194880D02*
X106132380Y-46194880D01*
X106132380Y-45813928D01*
X106180000Y-45718690D01*
X106227619Y-45671071D01*
X106322857Y-45623452D01*
X106465714Y-45623452D01*
X106560952Y-45671071D01*
X106608571Y-45718690D01*
X106656190Y-45813928D01*
X106656190Y-46194880D01*
X107037142Y-45194880D02*
X107084761Y-45147261D01*
X107132380Y-45194880D01*
X107084761Y-45242500D01*
X107037142Y-45194880D01*
X107132380Y-45194880D01*
D10*
X97790000Y-56515000D02*
X99060000Y-56515000D01*
X99060000Y-56515000D02*
X99060000Y-52705000D01*
X97790000Y-52705000D02*
X97790000Y-56515000D01*
X99060000Y-52705000D02*
X97790000Y-52705000D01*
X99060000Y-60325000D02*
X97790000Y-60325000D01*
X99060000Y-64135000D02*
X99060000Y-60325000D01*
X97790000Y-64135000D02*
X99060000Y-64135000D01*
X97790000Y-60325000D02*
X97790000Y-64135000D01*
%TO.C,J2*%
X180621000Y-59817000D02*
X180621000Y-58487000D01*
X180621000Y-58487000D02*
X181951000Y-58487000D01*
X183161000Y-58487000D02*
X183281000Y-58487000D01*
X183161000Y-61147000D02*
X183281000Y-61147000D01*
X183281000Y-61147000D02*
X183281000Y-58487000D01*
%TO.C,U1*%
X102750000Y-65980000D02*
X102750000Y-83880000D01*
X143630000Y-65980000D02*
X102750000Y-65980000D01*
X143630000Y-83880000D02*
X143630000Y-65980000D01*
X102750000Y-83880000D02*
X143630000Y-83880000D01*
X102810000Y-68470000D02*
X102810000Y-73930000D01*
X143570000Y-68470000D02*
X102810000Y-68470000D01*
X143570000Y-81390000D02*
X143570000Y-68470000D01*
X102810000Y-81390000D02*
X143570000Y-81390000D01*
X102810000Y-75930000D02*
X102810000Y-81390000D01*
X102810000Y-73930000D02*
G75*
G02*
X102810000Y-75930000I0J-1000000D01*
G01*
%TO.C,U4*%
X115510000Y-60690000D02*
X115510000Y-62340000D01*
X115510000Y-62340000D02*
X135950000Y-62340000D01*
X135950000Y-62340000D02*
X135950000Y-57040000D01*
X135950000Y-57040000D02*
X115510000Y-57040000D01*
X115510000Y-57040000D02*
X115510000Y-58690000D01*
X115450000Y-64830000D02*
X136010000Y-64830000D01*
X136010000Y-64830000D02*
X136010000Y-54550000D01*
X136010000Y-54550000D02*
X115450000Y-54550000D01*
X115450000Y-54550000D02*
X115450000Y-64830000D01*
X115510000Y-58690000D02*
G75*
G02*
X115510000Y-60690000I0J-1000000D01*
G01*
%TO.C,U5*%
X102810000Y-94980000D02*
X102810000Y-100440000D01*
X102810000Y-100440000D02*
X143570000Y-100440000D01*
X143570000Y-100440000D02*
X143570000Y-87520000D01*
X143570000Y-87520000D02*
X102810000Y-87520000D01*
X102810000Y-87520000D02*
X102810000Y-92980000D01*
X102750000Y-102930000D02*
X143630000Y-102930000D01*
X143630000Y-102930000D02*
X143630000Y-85030000D01*
X143630000Y-85030000D02*
X102750000Y-85030000D01*
X102750000Y-85030000D02*
X102750000Y-102930000D01*
X102810000Y-92980000D02*
G75*
G02*
X102810000Y-94980000I0J-1000000D01*
G01*
%TO.C,BAT1*%
X152225000Y-72050000D02*
X152225000Y-66350000D01*
X152225000Y-72050000D02*
X146225000Y-72050000D01*
X146225000Y-72050000D02*
X146225000Y-66350000D01*
X149179719Y-43154329D02*
G75*
G02*
X152725000Y-65600000I45281J-11495671D01*
G01*
X152751384Y-65598246D02*
G75*
G03*
X152225000Y-66350000I273616J-751754D01*
G01*
X149270281Y-43154329D02*
G75*
G03*
X145725000Y-65600000I-45281J-11495671D01*
G01*
X145698616Y-65598246D02*
G75*
G02*
X146225000Y-66350000I-273616J-751754D01*
G01*
%TO.C,C5*%
X102335000Y-85740000D02*
X102335000Y-91980000D01*
X99595000Y-85740000D02*
X99595000Y-91980000D01*
X102335000Y-85740000D02*
X101890000Y-85740000D01*
X100040000Y-85740000D02*
X99595000Y-85740000D01*
X102335000Y-91980000D02*
X101890000Y-91980000D01*
X100040000Y-91980000D02*
X99595000Y-91980000D01*
%TO.C,J3*%
X110550000Y-62290000D02*
X110550000Y-54550000D01*
X102870000Y-62290000D02*
X110550000Y-62290000D01*
X100270000Y-54550000D02*
X110550000Y-54550000D01*
X102870000Y-62290000D02*
X102870000Y-59690000D01*
X102870000Y-59690000D02*
X100270000Y-59690000D01*
X100270000Y-59690000D02*
X100270000Y-54550000D01*
X101600000Y-62290000D02*
X100270000Y-62290000D01*
X100270000Y-62290000D02*
X100270000Y-60960000D01*
%TO.C,C4*%
X115035000Y-55260000D02*
X115035000Y-61500000D01*
X112295000Y-55260000D02*
X112295000Y-61500000D01*
X115035000Y-55260000D02*
X114590000Y-55260000D01*
X112740000Y-55260000D02*
X112295000Y-55260000D01*
X115035000Y-61500000D02*
X114590000Y-61500000D01*
X112740000Y-61500000D02*
X112295000Y-61500000D01*
%TO.C,Y1*%
X121680000Y-53455000D02*
X130080000Y-53455000D01*
X130080000Y-53455000D02*
X130080000Y-50055000D01*
X130080000Y-50055000D02*
X121680000Y-50055000D01*
X121680000Y-50055000D02*
X121680000Y-53455000D01*
X121680000Y-52300000D02*
X120530000Y-52705000D01*
X120530000Y-52705000D02*
X120080000Y-52705000D01*
X121680000Y-51210000D02*
X120530000Y-50805000D01*
X120530000Y-50805000D02*
X120080000Y-50805000D01*
%TO.C,U3*%
X100210000Y-111065000D02*
X100210000Y-121345000D01*
X130930000Y-111065000D02*
X100210000Y-111065000D01*
X130930000Y-121345000D02*
X130930000Y-111065000D01*
X100210000Y-121345000D02*
X130930000Y-121345000D01*
X100270000Y-113555000D02*
X100270000Y-115205000D01*
X130870000Y-113555000D02*
X100270000Y-113555000D01*
X130870000Y-118855000D02*
X130870000Y-113555000D01*
X100270000Y-118855000D02*
X130870000Y-118855000D01*
X100270000Y-117205000D02*
X100270000Y-118855000D01*
X100270000Y-115205000D02*
G75*
G02*
X100270000Y-117205000I0J-1000000D01*
G01*
%TO.C,J1*%
X167640000Y-58487000D02*
X168970000Y-58487000D01*
X168970000Y-58487000D02*
X168970000Y-59817000D01*
X166370000Y-58487000D02*
X166370000Y-61087000D01*
X166370000Y-61087000D02*
X168970000Y-61087000D01*
X168970000Y-61087000D02*
X168970000Y-109407000D01*
X163770000Y-109407000D02*
X168970000Y-109407000D01*
X163770000Y-58487000D02*
X163770000Y-109407000D01*
X163770000Y-58487000D02*
X166370000Y-58487000D01*
%TO.C,C6*%
X173320225Y-123370000D02*
X173320225Y-123870000D01*
X173070225Y-123620000D02*
X173570225Y-123620000D01*
X178476000Y-124811000D02*
X178476000Y-125379000D01*
X178436000Y-124577000D02*
X178436000Y-125613000D01*
X178396000Y-124418000D02*
X178396000Y-125772000D01*
X178356000Y-124290000D02*
X178356000Y-125900000D01*
X178316000Y-124180000D02*
X178316000Y-126010000D01*
X178276000Y-124084000D02*
X178276000Y-126106000D01*
X178236000Y-123997000D02*
X178236000Y-126193000D01*
X178196000Y-123917000D02*
X178196000Y-126273000D01*
X178156000Y-126135000D02*
X178156000Y-126346000D01*
X178156000Y-123844000D02*
X178156000Y-124055000D01*
X178116000Y-126135000D02*
X178116000Y-126414000D01*
X178116000Y-123776000D02*
X178116000Y-124055000D01*
X178076000Y-126135000D02*
X178076000Y-126478000D01*
X178076000Y-123712000D02*
X178076000Y-124055000D01*
X178036000Y-126135000D02*
X178036000Y-126538000D01*
X178036000Y-123652000D02*
X178036000Y-124055000D01*
X177996000Y-126135000D02*
X177996000Y-126595000D01*
X177996000Y-123595000D02*
X177996000Y-124055000D01*
X177956000Y-126135000D02*
X177956000Y-126649000D01*
X177956000Y-123541000D02*
X177956000Y-124055000D01*
X177916000Y-126135000D02*
X177916000Y-126700000D01*
X177916000Y-123490000D02*
X177916000Y-124055000D01*
X177876000Y-126135000D02*
X177876000Y-126748000D01*
X177876000Y-123442000D02*
X177876000Y-124055000D01*
X177836000Y-126135000D02*
X177836000Y-126794000D01*
X177836000Y-123396000D02*
X177836000Y-124055000D01*
X177796000Y-126135000D02*
X177796000Y-126838000D01*
X177796000Y-123352000D02*
X177796000Y-124055000D01*
X177756000Y-126135000D02*
X177756000Y-126880000D01*
X177756000Y-123310000D02*
X177756000Y-124055000D01*
X177716000Y-126135000D02*
X177716000Y-126921000D01*
X177716000Y-123269000D02*
X177716000Y-124055000D01*
X177676000Y-126135000D02*
X177676000Y-126959000D01*
X177676000Y-123231000D02*
X177676000Y-124055000D01*
X177636000Y-126135000D02*
X177636000Y-126996000D01*
X177636000Y-123194000D02*
X177636000Y-124055000D01*
X177596000Y-126135000D02*
X177596000Y-127032000D01*
X177596000Y-123158000D02*
X177596000Y-124055000D01*
X177556000Y-126135000D02*
X177556000Y-127066000D01*
X177556000Y-123124000D02*
X177556000Y-124055000D01*
X177516000Y-126135000D02*
X177516000Y-127099000D01*
X177516000Y-123091000D02*
X177516000Y-124055000D01*
X177476000Y-126135000D02*
X177476000Y-127130000D01*
X177476000Y-123060000D02*
X177476000Y-124055000D01*
X177436000Y-126135000D02*
X177436000Y-127160000D01*
X177436000Y-123030000D02*
X177436000Y-124055000D01*
X177396000Y-126135000D02*
X177396000Y-127190000D01*
X177396000Y-123000000D02*
X177396000Y-124055000D01*
X177356000Y-126135000D02*
X177356000Y-127217000D01*
X177356000Y-122973000D02*
X177356000Y-124055000D01*
X177316000Y-126135000D02*
X177316000Y-127244000D01*
X177316000Y-122946000D02*
X177316000Y-124055000D01*
X177276000Y-126135000D02*
X177276000Y-127270000D01*
X177276000Y-122920000D02*
X177276000Y-124055000D01*
X177236000Y-126135000D02*
X177236000Y-127295000D01*
X177236000Y-122895000D02*
X177236000Y-124055000D01*
X177196000Y-126135000D02*
X177196000Y-127319000D01*
X177196000Y-122871000D02*
X177196000Y-124055000D01*
X177156000Y-126135000D02*
X177156000Y-127342000D01*
X177156000Y-122848000D02*
X177156000Y-124055000D01*
X177116000Y-126135000D02*
X177116000Y-127363000D01*
X177116000Y-122827000D02*
X177116000Y-124055000D01*
X177076000Y-126135000D02*
X177076000Y-127385000D01*
X177076000Y-122805000D02*
X177076000Y-124055000D01*
X177036000Y-126135000D02*
X177036000Y-127405000D01*
X177036000Y-122785000D02*
X177036000Y-124055000D01*
X176996000Y-126135000D02*
X176996000Y-127424000D01*
X176996000Y-122766000D02*
X176996000Y-124055000D01*
X176956000Y-126135000D02*
X176956000Y-127443000D01*
X176956000Y-122747000D02*
X176956000Y-124055000D01*
X176916000Y-126135000D02*
X176916000Y-127460000D01*
X176916000Y-122730000D02*
X176916000Y-124055000D01*
X176876000Y-126135000D02*
X176876000Y-127477000D01*
X176876000Y-122713000D02*
X176876000Y-124055000D01*
X176836000Y-126135000D02*
X176836000Y-127493000D01*
X176836000Y-122697000D02*
X176836000Y-124055000D01*
X176796000Y-126135000D02*
X176796000Y-127509000D01*
X176796000Y-122681000D02*
X176796000Y-124055000D01*
X176756000Y-126135000D02*
X176756000Y-127523000D01*
X176756000Y-122667000D02*
X176756000Y-124055000D01*
X176716000Y-126135000D02*
X176716000Y-127537000D01*
X176716000Y-122653000D02*
X176716000Y-124055000D01*
X176676000Y-126135000D02*
X176676000Y-127550000D01*
X176676000Y-122640000D02*
X176676000Y-124055000D01*
X176636000Y-126135000D02*
X176636000Y-127563000D01*
X176636000Y-122627000D02*
X176636000Y-124055000D01*
X176596000Y-126135000D02*
X176596000Y-127575000D01*
X176596000Y-122615000D02*
X176596000Y-124055000D01*
X176555000Y-126135000D02*
X176555000Y-127586000D01*
X176555000Y-122604000D02*
X176555000Y-124055000D01*
X176515000Y-126135000D02*
X176515000Y-127596000D01*
X176515000Y-122594000D02*
X176515000Y-124055000D01*
X176475000Y-126135000D02*
X176475000Y-127606000D01*
X176475000Y-122584000D02*
X176475000Y-124055000D01*
X176435000Y-126135000D02*
X176435000Y-127615000D01*
X176435000Y-122575000D02*
X176435000Y-124055000D01*
X176395000Y-126135000D02*
X176395000Y-127623000D01*
X176395000Y-122567000D02*
X176395000Y-124055000D01*
X176355000Y-126135000D02*
X176355000Y-127631000D01*
X176355000Y-122559000D02*
X176355000Y-124055000D01*
X176315000Y-126135000D02*
X176315000Y-127638000D01*
X176315000Y-122552000D02*
X176315000Y-124055000D01*
X176275000Y-126135000D02*
X176275000Y-127645000D01*
X176275000Y-122545000D02*
X176275000Y-124055000D01*
X176235000Y-126135000D02*
X176235000Y-127651000D01*
X176235000Y-122539000D02*
X176235000Y-124055000D01*
X176195000Y-126135000D02*
X176195000Y-127656000D01*
X176195000Y-122534000D02*
X176195000Y-124055000D01*
X176155000Y-126135000D02*
X176155000Y-127660000D01*
X176155000Y-122530000D02*
X176155000Y-124055000D01*
X176115000Y-126135000D02*
X176115000Y-127664000D01*
X176115000Y-122526000D02*
X176115000Y-124055000D01*
X176075000Y-122522000D02*
X176075000Y-127668000D01*
X176035000Y-122519000D02*
X176035000Y-127671000D01*
X175995000Y-122517000D02*
X175995000Y-127673000D01*
X175955000Y-122516000D02*
X175955000Y-127674000D01*
X175915000Y-122515000D02*
X175915000Y-127675000D01*
X175875000Y-122515000D02*
X175875000Y-127675000D01*
X178495000Y-125095000D02*
G75*
G03*
X178495000Y-125095000I-2620000J0D01*
G01*
%TO.C,C3*%
X133060000Y-118015000D02*
X132615000Y-118015000D01*
X135355000Y-118015000D02*
X134910000Y-118015000D01*
X133060000Y-111775000D02*
X132615000Y-111775000D01*
X135355000Y-111775000D02*
X134910000Y-111775000D01*
X132615000Y-111775000D02*
X132615000Y-118015000D01*
X135355000Y-111775000D02*
X135355000Y-118015000D01*
%TO.C,C2*%
X101890000Y-103600000D02*
X102335000Y-103600000D01*
X99595000Y-103600000D02*
X100040000Y-103600000D01*
X101890000Y-109840000D02*
X102335000Y-109840000D01*
X99595000Y-109840000D02*
X100040000Y-109840000D01*
X102335000Y-109840000D02*
X102335000Y-103600000D01*
X99595000Y-109840000D02*
X99595000Y-103600000D01*
%TO.C,C1*%
X100040000Y-72930000D02*
X99595000Y-72930000D01*
X102335000Y-72930000D02*
X101890000Y-72930000D01*
X100040000Y-66690000D02*
X99595000Y-66690000D01*
X102335000Y-66690000D02*
X101890000Y-66690000D01*
X99595000Y-66690000D02*
X99595000Y-72930000D01*
X102335000Y-66690000D02*
X102335000Y-72930000D01*
%TO.C,U2*%
X135770000Y-111065000D02*
X135770000Y-121345000D01*
X161410000Y-111065000D02*
X135770000Y-111065000D01*
X161410000Y-121345000D02*
X161410000Y-111065000D01*
X135770000Y-121345000D02*
X161410000Y-121345000D01*
X135830000Y-113555000D02*
X135830000Y-115205000D01*
X161350000Y-113555000D02*
X135830000Y-113555000D01*
X161350000Y-118855000D02*
X161350000Y-113555000D01*
X135830000Y-118855000D02*
X161350000Y-118855000D01*
X135830000Y-117205000D02*
X135830000Y-118855000D01*
X135830000Y-115205000D02*
G75*
G02*
X135830000Y-117205000I0J-1000000D01*
G01*
%TO.C,J2*%
D11*
X182546666Y-56602380D02*
X182546666Y-57316666D01*
X182499047Y-57459523D01*
X182403809Y-57554761D01*
X182260952Y-57602380D01*
X182165714Y-57602380D01*
X182975238Y-56697619D02*
X183022857Y-56650000D01*
X183118095Y-56602380D01*
X183356190Y-56602380D01*
X183451428Y-56650000D01*
X183499047Y-56697619D01*
X183546666Y-56792857D01*
X183546666Y-56888095D01*
X183499047Y-57030952D01*
X182927619Y-57602380D01*
X183546666Y-57602380D01*
X178245238Y-62587142D02*
X178197619Y-62634761D01*
X178054761Y-62682380D01*
X177959523Y-62682380D01*
X177816666Y-62634761D01*
X177721428Y-62539523D01*
X177673809Y-62444285D01*
X177626190Y-62253809D01*
X177626190Y-62110952D01*
X177673809Y-61920476D01*
X177721428Y-61825238D01*
X177816666Y-61730000D01*
X177959523Y-61682380D01*
X178054761Y-61682380D01*
X178197619Y-61730000D01*
X178245238Y-61777619D01*
X179007142Y-62158571D02*
X178673809Y-62158571D01*
X178673809Y-62682380D02*
X178673809Y-61682380D01*
X179150000Y-61682380D01*
X180245238Y-62396666D02*
X180721428Y-62396666D01*
X180150000Y-62682380D02*
X180483333Y-61682380D01*
X180816666Y-62682380D01*
X181578571Y-62682380D02*
X181578571Y-61682380D01*
X181578571Y-62634761D02*
X181483333Y-62682380D01*
X181292857Y-62682380D01*
X181197619Y-62634761D01*
X181150000Y-62587142D01*
X181102380Y-62491904D01*
X181102380Y-62206190D01*
X181150000Y-62110952D01*
X181197619Y-62063333D01*
X181292857Y-62015714D01*
X181483333Y-62015714D01*
X181578571Y-62063333D01*
X182483333Y-62682380D02*
X182483333Y-62158571D01*
X182435714Y-62063333D01*
X182340476Y-62015714D01*
X182150000Y-62015714D01*
X182054761Y-62063333D01*
X182483333Y-62634761D02*
X182388095Y-62682380D01*
X182150000Y-62682380D01*
X182054761Y-62634761D01*
X182007142Y-62539523D01*
X182007142Y-62444285D01*
X182054761Y-62349047D01*
X182150000Y-62301428D01*
X182388095Y-62301428D01*
X182483333Y-62253809D01*
X182959523Y-62015714D02*
X182959523Y-63015714D01*
X182959523Y-62063333D02*
X183054761Y-62015714D01*
X183245238Y-62015714D01*
X183340476Y-62063333D01*
X183388095Y-62110952D01*
X183435714Y-62206190D01*
X183435714Y-62491904D01*
X183388095Y-62587142D01*
X183340476Y-62634761D01*
X183245238Y-62682380D01*
X183054761Y-62682380D01*
X182959523Y-62634761D01*
X183721428Y-62015714D02*
X184102380Y-62015714D01*
X183864285Y-61682380D02*
X183864285Y-62539523D01*
X183911904Y-62634761D01*
X184007142Y-62682380D01*
X184102380Y-62682380D01*
X184816666Y-62634761D02*
X184721428Y-62682380D01*
X184530952Y-62682380D01*
X184435714Y-62634761D01*
X184388095Y-62539523D01*
X184388095Y-62158571D01*
X184435714Y-62063333D01*
X184530952Y-62015714D01*
X184721428Y-62015714D01*
X184816666Y-62063333D01*
X184864285Y-62158571D01*
X184864285Y-62253809D01*
X184388095Y-62349047D01*
X185292857Y-62682380D02*
X185292857Y-62015714D01*
X185292857Y-62206190D02*
X185340476Y-62110952D01*
X185388095Y-62063333D01*
X185483333Y-62015714D01*
X185578571Y-62015714D01*
X186673809Y-62682380D02*
X186673809Y-61682380D01*
X187054761Y-61682380D01*
X187150000Y-61730000D01*
X187197619Y-61777619D01*
X187245238Y-61872857D01*
X187245238Y-62015714D01*
X187197619Y-62110952D01*
X187150000Y-62158571D01*
X187054761Y-62206190D01*
X186673809Y-62206190D01*
X187816666Y-62682380D02*
X187721428Y-62634761D01*
X187673809Y-62587142D01*
X187626190Y-62491904D01*
X187626190Y-62206190D01*
X187673809Y-62110952D01*
X187721428Y-62063333D01*
X187816666Y-62015714D01*
X187959523Y-62015714D01*
X188054761Y-62063333D01*
X188102380Y-62110952D01*
X188150000Y-62206190D01*
X188150000Y-62491904D01*
X188102380Y-62587142D01*
X188054761Y-62634761D01*
X187959523Y-62682380D01*
X187816666Y-62682380D01*
X188483333Y-62015714D02*
X188673809Y-62682380D01*
X188864285Y-62206190D01*
X189054761Y-62682380D01*
X189245238Y-62015714D01*
X190007142Y-62634761D02*
X189911904Y-62682380D01*
X189721428Y-62682380D01*
X189626190Y-62634761D01*
X189578571Y-62539523D01*
X189578571Y-62158571D01*
X189626190Y-62063333D01*
X189721428Y-62015714D01*
X189911904Y-62015714D01*
X190007142Y-62063333D01*
X190054761Y-62158571D01*
X190054761Y-62253809D01*
X189578571Y-62349047D01*
X190483333Y-62682380D02*
X190483333Y-62015714D01*
X190483333Y-62206190D02*
X190530952Y-62110952D01*
X190578571Y-62063333D01*
X190673809Y-62015714D01*
X190769047Y-62015714D01*
%TO.C,U1*%
X102743095Y-64222380D02*
X102743095Y-65031904D01*
X102790714Y-65127142D01*
X102838333Y-65174761D01*
X102933571Y-65222380D01*
X103124047Y-65222380D01*
X103219285Y-65174761D01*
X103266904Y-65127142D01*
X103314523Y-65031904D01*
X103314523Y-64222380D01*
X104314523Y-65222380D02*
X103743095Y-65222380D01*
X104028809Y-65222380D02*
X104028809Y-64222380D01*
X103933571Y-64365238D01*
X103838333Y-64460476D01*
X103743095Y-64508095D01*
X106045476Y-64698571D02*
X106188333Y-64746190D01*
X106235952Y-64793809D01*
X106283571Y-64889047D01*
X106283571Y-65031904D01*
X106235952Y-65127142D01*
X106188333Y-65174761D01*
X106093095Y-65222380D01*
X105712142Y-65222380D01*
X105712142Y-64222380D01*
X106045476Y-64222380D01*
X106140714Y-64270000D01*
X106188333Y-64317619D01*
X106235952Y-64412857D01*
X106235952Y-64508095D01*
X106188333Y-64603333D01*
X106140714Y-64650952D01*
X106045476Y-64698571D01*
X105712142Y-64698571D01*
X106712142Y-65222380D02*
X106712142Y-64222380D01*
X107378809Y-64222380D02*
X107569285Y-64222380D01*
X107664523Y-64270000D01*
X107759761Y-64365238D01*
X107807380Y-64555714D01*
X107807380Y-64889047D01*
X107759761Y-65079523D01*
X107664523Y-65174761D01*
X107569285Y-65222380D01*
X107378809Y-65222380D01*
X107283571Y-65174761D01*
X107188333Y-65079523D01*
X107140714Y-64889047D01*
X107140714Y-64555714D01*
X107188333Y-64365238D01*
X107283571Y-64270000D01*
X107378809Y-64222380D01*
X108188333Y-65174761D02*
X108331190Y-65222380D01*
X108569285Y-65222380D01*
X108664523Y-65174761D01*
X108712142Y-65127142D01*
X108759761Y-65031904D01*
X108759761Y-64936666D01*
X108712142Y-64841428D01*
X108664523Y-64793809D01*
X108569285Y-64746190D01*
X108378809Y-64698571D01*
X108283571Y-64650952D01*
X108235952Y-64603333D01*
X108188333Y-64508095D01*
X108188333Y-64412857D01*
X108235952Y-64317619D01*
X108283571Y-64270000D01*
X108378809Y-64222380D01*
X108616904Y-64222380D01*
X108759761Y-64270000D01*
X110283571Y-64698571D02*
X109950238Y-64698571D01*
X109950238Y-65222380D02*
X109950238Y-64222380D01*
X110426428Y-64222380D01*
X111283571Y-65222380D02*
X110807380Y-65222380D01*
X110807380Y-64222380D01*
X111569285Y-64936666D02*
X112045476Y-64936666D01*
X111474047Y-65222380D02*
X111807380Y-64222380D01*
X112140714Y-65222380D01*
X112426428Y-65174761D02*
X112569285Y-65222380D01*
X112807380Y-65222380D01*
X112902619Y-65174761D01*
X112950238Y-65127142D01*
X112997857Y-65031904D01*
X112997857Y-64936666D01*
X112950238Y-64841428D01*
X112902619Y-64793809D01*
X112807380Y-64746190D01*
X112616904Y-64698571D01*
X112521666Y-64650952D01*
X112474047Y-64603333D01*
X112426428Y-64508095D01*
X112426428Y-64412857D01*
X112474047Y-64317619D01*
X112521666Y-64270000D01*
X112616904Y-64222380D01*
X112855000Y-64222380D01*
X112997857Y-64270000D01*
X113426428Y-65222380D02*
X113426428Y-64222380D01*
X113426428Y-64698571D02*
X113997857Y-64698571D01*
X113997857Y-65222380D02*
X113997857Y-64222380D01*
%TO.C,U4*%
X130683095Y-51522380D02*
X130683095Y-52331904D01*
X130730714Y-52427142D01*
X130778333Y-52474761D01*
X130873571Y-52522380D01*
X131064047Y-52522380D01*
X131159285Y-52474761D01*
X131206904Y-52427142D01*
X131254523Y-52331904D01*
X131254523Y-51522380D01*
X132159285Y-51855714D02*
X132159285Y-52522380D01*
X131921190Y-51474761D02*
X131683095Y-52189047D01*
X132302142Y-52189047D01*
X130707142Y-53792380D02*
X130707142Y-52792380D01*
X130945238Y-52792380D01*
X131088095Y-52840000D01*
X131183333Y-52935238D01*
X131230952Y-53030476D01*
X131278571Y-53220952D01*
X131278571Y-53363809D01*
X131230952Y-53554285D01*
X131183333Y-53649523D01*
X131088095Y-53744761D01*
X130945238Y-53792380D01*
X130707142Y-53792380D01*
X131659523Y-53744761D02*
X131802380Y-53792380D01*
X132040476Y-53792380D01*
X132135714Y-53744761D01*
X132183333Y-53697142D01*
X132230952Y-53601904D01*
X132230952Y-53506666D01*
X132183333Y-53411428D01*
X132135714Y-53363809D01*
X132040476Y-53316190D01*
X131850000Y-53268571D01*
X131754761Y-53220952D01*
X131707142Y-53173333D01*
X131659523Y-53078095D01*
X131659523Y-52982857D01*
X131707142Y-52887619D01*
X131754761Y-52840000D01*
X131850000Y-52792380D01*
X132088095Y-52792380D01*
X132230952Y-52840000D01*
X133183333Y-53792380D02*
X132611904Y-53792380D01*
X132897619Y-53792380D02*
X132897619Y-52792380D01*
X132802380Y-52935238D01*
X132707142Y-53030476D01*
X132611904Y-53078095D01*
X133516666Y-52792380D02*
X134135714Y-52792380D01*
X133802380Y-53173333D01*
X133945238Y-53173333D01*
X134040476Y-53220952D01*
X134088095Y-53268571D01*
X134135714Y-53363809D01*
X134135714Y-53601904D01*
X134088095Y-53697142D01*
X134040476Y-53744761D01*
X133945238Y-53792380D01*
X133659523Y-53792380D01*
X133564285Y-53744761D01*
X133516666Y-53697142D01*
X135088095Y-53792380D02*
X134516666Y-53792380D01*
X134802380Y-53792380D02*
X134802380Y-52792380D01*
X134707142Y-52935238D01*
X134611904Y-53030476D01*
X134516666Y-53078095D01*
X135992857Y-52792380D02*
X135516666Y-52792380D01*
X135469047Y-53268571D01*
X135516666Y-53220952D01*
X135611904Y-53173333D01*
X135850000Y-53173333D01*
X135945238Y-53220952D01*
X135992857Y-53268571D01*
X136040476Y-53363809D01*
X136040476Y-53601904D01*
X135992857Y-53697142D01*
X135945238Y-53744761D01*
X135850000Y-53792380D01*
X135611904Y-53792380D01*
X135516666Y-53744761D01*
X135469047Y-53697142D01*
%TO.C,U5*%
X101262380Y-94741904D02*
X102071904Y-94741904D01*
X102167142Y-94694285D01*
X102214761Y-94646666D01*
X102262380Y-94551428D01*
X102262380Y-94360952D01*
X102214761Y-94265714D01*
X102167142Y-94218095D01*
X102071904Y-94170476D01*
X101262380Y-94170476D01*
X101262380Y-93218095D02*
X101262380Y-93694285D01*
X101738571Y-93741904D01*
X101690952Y-93694285D01*
X101643333Y-93599047D01*
X101643333Y-93360952D01*
X101690952Y-93265714D01*
X101738571Y-93218095D01*
X101833809Y-93170476D01*
X102071904Y-93170476D01*
X102167142Y-93218095D01*
X102214761Y-93265714D01*
X102262380Y-93360952D01*
X102262380Y-93599047D01*
X102214761Y-93694285D01*
X102167142Y-93741904D01*
%TO.C,BAT1*%
X148010714Y-72953571D02*
X148153571Y-73001190D01*
X148201190Y-73048809D01*
X148248809Y-73144047D01*
X148248809Y-73286904D01*
X148201190Y-73382142D01*
X148153571Y-73429761D01*
X148058333Y-73477380D01*
X147677380Y-73477380D01*
X147677380Y-72477380D01*
X148010714Y-72477380D01*
X148105952Y-72525000D01*
X148153571Y-72572619D01*
X148201190Y-72667857D01*
X148201190Y-72763095D01*
X148153571Y-72858333D01*
X148105952Y-72905952D01*
X148010714Y-72953571D01*
X147677380Y-72953571D01*
X148629761Y-73191666D02*
X149105952Y-73191666D01*
X148534523Y-73477380D02*
X148867857Y-72477380D01*
X149201190Y-73477380D01*
X149391666Y-72477380D02*
X149963095Y-72477380D01*
X149677380Y-73477380D02*
X149677380Y-72477380D01*
X150820238Y-73477380D02*
X150248809Y-73477380D01*
X150534523Y-73477380D02*
X150534523Y-72477380D01*
X150439285Y-72620238D01*
X150344047Y-72715476D01*
X150248809Y-72763095D01*
X149332142Y-67671428D02*
X149332142Y-66528571D01*
X149903571Y-67100000D02*
X148760714Y-67100000D01*
%TO.C,C5*%
X103822142Y-89026666D02*
X103869761Y-89074285D01*
X103917380Y-89217142D01*
X103917380Y-89312380D01*
X103869761Y-89455238D01*
X103774523Y-89550476D01*
X103679285Y-89598095D01*
X103488809Y-89645714D01*
X103345952Y-89645714D01*
X103155476Y-89598095D01*
X103060238Y-89550476D01*
X102965000Y-89455238D01*
X102917380Y-89312380D01*
X102917380Y-89217142D01*
X102965000Y-89074285D01*
X103012619Y-89026666D01*
X102917380Y-88121904D02*
X102917380Y-88598095D01*
X103393571Y-88645714D01*
X103345952Y-88598095D01*
X103298333Y-88502857D01*
X103298333Y-88264761D01*
X103345952Y-88169523D01*
X103393571Y-88121904D01*
X103488809Y-88074285D01*
X103726904Y-88074285D01*
X103822142Y-88121904D01*
X103869761Y-88169523D01*
X103917380Y-88264761D01*
X103917380Y-88502857D01*
X103869761Y-88598095D01*
X103822142Y-88645714D01*
%TO.C,J3*%
X104441666Y-62952380D02*
X104441666Y-63666666D01*
X104394047Y-63809523D01*
X104298809Y-63904761D01*
X104155952Y-63952380D01*
X104060714Y-63952380D01*
X104822619Y-62952380D02*
X105441666Y-62952380D01*
X105108333Y-63333333D01*
X105251190Y-63333333D01*
X105346428Y-63380952D01*
X105394047Y-63428571D01*
X105441666Y-63523809D01*
X105441666Y-63761904D01*
X105394047Y-63857142D01*
X105346428Y-63904761D01*
X105251190Y-63952380D01*
X104965476Y-63952380D01*
X104870238Y-63904761D01*
X104822619Y-63857142D01*
%TO.C,C4*%
X113498333Y-54332142D02*
X113450714Y-54379761D01*
X113307857Y-54427380D01*
X113212619Y-54427380D01*
X113069761Y-54379761D01*
X112974523Y-54284523D01*
X112926904Y-54189285D01*
X112879285Y-53998809D01*
X112879285Y-53855952D01*
X112926904Y-53665476D01*
X112974523Y-53570238D01*
X113069761Y-53475000D01*
X113212619Y-53427380D01*
X113307857Y-53427380D01*
X113450714Y-53475000D01*
X113498333Y-53522619D01*
X114355476Y-53760714D02*
X114355476Y-54427380D01*
X114117380Y-53379761D02*
X113879285Y-54094047D01*
X114498333Y-54094047D01*
X111387142Y-62317380D02*
X111482380Y-62317380D01*
X111577619Y-62365000D01*
X111625238Y-62412619D01*
X111672857Y-62507857D01*
X111720476Y-62698333D01*
X111720476Y-62936428D01*
X111672857Y-63126904D01*
X111625238Y-63222142D01*
X111577619Y-63269761D01*
X111482380Y-63317380D01*
X111387142Y-63317380D01*
X111291904Y-63269761D01*
X111244285Y-63222142D01*
X111196666Y-63126904D01*
X111149047Y-62936428D01*
X111149047Y-62698333D01*
X111196666Y-62507857D01*
X111244285Y-62412619D01*
X111291904Y-62365000D01*
X111387142Y-62317380D01*
X112149047Y-63222142D02*
X112196666Y-63269761D01*
X112149047Y-63317380D01*
X112101428Y-63269761D01*
X112149047Y-63222142D01*
X112149047Y-63317380D01*
X113149047Y-63317380D02*
X112577619Y-63317380D01*
X112863333Y-63317380D02*
X112863333Y-62317380D01*
X112768095Y-62460238D01*
X112672857Y-62555476D01*
X112577619Y-62603095D01*
X114006190Y-62650714D02*
X114006190Y-63317380D01*
X113577619Y-62650714D02*
X113577619Y-63174523D01*
X113625238Y-63269761D01*
X113720476Y-63317380D01*
X113863333Y-63317380D01*
X113958571Y-63269761D01*
X114006190Y-63222142D01*
X114815714Y-62793571D02*
X114482380Y-62793571D01*
X114482380Y-63317380D02*
X114482380Y-62317380D01*
X114958571Y-62317380D01*
%TO.C,Y1*%
X116998809Y-52046190D02*
X116998809Y-52522380D01*
X116665476Y-51522380D02*
X116998809Y-52046190D01*
X117332142Y-51522380D01*
X118189285Y-52522380D02*
X117617857Y-52522380D01*
X117903571Y-52522380D02*
X117903571Y-51522380D01*
X117808333Y-51665238D01*
X117713095Y-51760476D01*
X117617857Y-51808095D01*
X122301428Y-50307142D02*
X122796666Y-50307142D01*
X122530000Y-50650000D01*
X122644285Y-50650000D01*
X122720476Y-50692857D01*
X122758571Y-50735714D01*
X122796666Y-50821428D01*
X122796666Y-51035714D01*
X122758571Y-51121428D01*
X122720476Y-51164285D01*
X122644285Y-51207142D01*
X122415714Y-51207142D01*
X122339523Y-51164285D01*
X122301428Y-51121428D01*
X123101428Y-50392857D02*
X123139523Y-50350000D01*
X123215714Y-50307142D01*
X123406190Y-50307142D01*
X123482380Y-50350000D01*
X123520476Y-50392857D01*
X123558571Y-50478571D01*
X123558571Y-50564285D01*
X123520476Y-50692857D01*
X123063333Y-51207142D01*
X123558571Y-51207142D01*
X123901428Y-51121428D02*
X123939523Y-51164285D01*
X123901428Y-51207142D01*
X123863333Y-51164285D01*
X123901428Y-51121428D01*
X123901428Y-51207142D01*
X124206190Y-50307142D02*
X124739523Y-50307142D01*
X124396666Y-51207142D01*
X125387142Y-50307142D02*
X125234761Y-50307142D01*
X125158571Y-50350000D01*
X125120476Y-50392857D01*
X125044285Y-50521428D01*
X125006190Y-50692857D01*
X125006190Y-51035714D01*
X125044285Y-51121428D01*
X125082380Y-51164285D01*
X125158571Y-51207142D01*
X125310952Y-51207142D01*
X125387142Y-51164285D01*
X125425238Y-51121428D01*
X125463333Y-51035714D01*
X125463333Y-50821428D01*
X125425238Y-50735714D01*
X125387142Y-50692857D01*
X125310952Y-50650000D01*
X125158571Y-50650000D01*
X125082380Y-50692857D01*
X125044285Y-50735714D01*
X125006190Y-50821428D01*
X125920476Y-50692857D02*
X125844285Y-50650000D01*
X125806190Y-50607142D01*
X125768095Y-50521428D01*
X125768095Y-50478571D01*
X125806190Y-50392857D01*
X125844285Y-50350000D01*
X125920476Y-50307142D01*
X126072857Y-50307142D01*
X126149047Y-50350000D01*
X126187142Y-50392857D01*
X126225238Y-50478571D01*
X126225238Y-50521428D01*
X126187142Y-50607142D01*
X126149047Y-50650000D01*
X126072857Y-50692857D01*
X125920476Y-50692857D01*
X125844285Y-50735714D01*
X125806190Y-50778571D01*
X125768095Y-50864285D01*
X125768095Y-51035714D01*
X125806190Y-51121428D01*
X125844285Y-51164285D01*
X125920476Y-51207142D01*
X126072857Y-51207142D01*
X126149047Y-51164285D01*
X126187142Y-51121428D01*
X126225238Y-51035714D01*
X126225238Y-50864285D01*
X126187142Y-50778571D01*
X126149047Y-50735714D01*
X126072857Y-50692857D01*
X127177619Y-51207142D02*
X127177619Y-50307142D01*
X127634761Y-51207142D02*
X127291904Y-50692857D01*
X127634761Y-50307142D02*
X127177619Y-50821428D01*
X127977619Y-51207142D02*
X127977619Y-50307142D01*
X127977619Y-50735714D02*
X128434761Y-50735714D01*
X128434761Y-51207142D02*
X128434761Y-50307142D01*
X128739523Y-50607142D02*
X129158571Y-50607142D01*
X128739523Y-51207142D01*
X129158571Y-51207142D01*
%TO.C,U3*%
X110998095Y-109307380D02*
X110998095Y-110116904D01*
X111045714Y-110212142D01*
X111093333Y-110259761D01*
X111188571Y-110307380D01*
X111379047Y-110307380D01*
X111474285Y-110259761D01*
X111521904Y-110212142D01*
X111569523Y-110116904D01*
X111569523Y-109307380D01*
X111950476Y-109307380D02*
X112569523Y-109307380D01*
X112236190Y-109688333D01*
X112379047Y-109688333D01*
X112474285Y-109735952D01*
X112521904Y-109783571D01*
X112569523Y-109878809D01*
X112569523Y-110116904D01*
X112521904Y-110212142D01*
X112474285Y-110259761D01*
X112379047Y-110307380D01*
X112093333Y-110307380D01*
X111998095Y-110259761D01*
X111950476Y-110212142D01*
X114570238Y-109355000D02*
X114475000Y-109307380D01*
X114332142Y-109307380D01*
X114189285Y-109355000D01*
X114094047Y-109450238D01*
X114046428Y-109545476D01*
X113998809Y-109735952D01*
X113998809Y-109878809D01*
X114046428Y-110069285D01*
X114094047Y-110164523D01*
X114189285Y-110259761D01*
X114332142Y-110307380D01*
X114427380Y-110307380D01*
X114570238Y-110259761D01*
X114617857Y-110212142D01*
X114617857Y-109878809D01*
X114427380Y-109878809D01*
X114998809Y-110021666D02*
X115475000Y-110021666D01*
X114903571Y-110307380D02*
X115236904Y-109307380D01*
X115570238Y-110307380D01*
X116379761Y-110307380D02*
X115903571Y-110307380D01*
X115903571Y-109307380D01*
X116665476Y-109402619D02*
X116713095Y-109355000D01*
X116808333Y-109307380D01*
X117046428Y-109307380D01*
X117141666Y-109355000D01*
X117189285Y-109402619D01*
X117236904Y-109497857D01*
X117236904Y-109593095D01*
X117189285Y-109735952D01*
X116617857Y-110307380D01*
X117236904Y-110307380D01*
X117617857Y-109402619D02*
X117665476Y-109355000D01*
X117760714Y-109307380D01*
X117998809Y-109307380D01*
X118094047Y-109355000D01*
X118141666Y-109402619D01*
X118189285Y-109497857D01*
X118189285Y-109593095D01*
X118141666Y-109735952D01*
X117570238Y-110307380D01*
X118189285Y-110307380D01*
X118475000Y-109307380D02*
X118808333Y-110307380D01*
X119141666Y-109307380D01*
X119998809Y-110307380D02*
X119427380Y-110307380D01*
X119713095Y-110307380D02*
X119713095Y-109307380D01*
X119617857Y-109450238D01*
X119522619Y-109545476D01*
X119427380Y-109593095D01*
X120617857Y-109307380D02*
X120713095Y-109307380D01*
X120808333Y-109355000D01*
X120855952Y-109402619D01*
X120903571Y-109497857D01*
X120951190Y-109688333D01*
X120951190Y-109926428D01*
X120903571Y-110116904D01*
X120855952Y-110212142D01*
X120808333Y-110259761D01*
X120713095Y-110307380D01*
X120617857Y-110307380D01*
X120522619Y-110259761D01*
X120475000Y-110212142D01*
X120427380Y-110116904D01*
X120379761Y-109926428D01*
X120379761Y-109688333D01*
X120427380Y-109497857D01*
X120475000Y-109402619D01*
X120522619Y-109355000D01*
X120617857Y-109307380D01*
%TO.C,J1*%
X166036666Y-56499380D02*
X166036666Y-57213666D01*
X165989047Y-57356523D01*
X165893809Y-57451761D01*
X165750952Y-57499380D01*
X165655714Y-57499380D01*
X167036666Y-57499380D02*
X166465238Y-57499380D01*
X166750952Y-57499380D02*
X166750952Y-56499380D01*
X166655714Y-56642238D01*
X166560476Y-56737476D01*
X166465238Y-56785095D01*
X170632380Y-88311904D02*
X169632380Y-88311904D01*
X170632380Y-87835714D02*
X169632380Y-87835714D01*
X169632380Y-87597619D01*
X169680000Y-87454761D01*
X169775238Y-87359523D01*
X169870476Y-87311904D01*
X170060952Y-87264285D01*
X170203809Y-87264285D01*
X170394285Y-87311904D01*
X170489523Y-87359523D01*
X170584761Y-87454761D01*
X170632380Y-87597619D01*
X170632380Y-87835714D01*
X170108571Y-86835714D02*
X170108571Y-86502380D01*
X170632380Y-86359523D02*
X170632380Y-86835714D01*
X169632380Y-86835714D01*
X169632380Y-86359523D01*
X170727619Y-86169047D02*
X170727619Y-85407142D01*
X170537142Y-84597619D02*
X170584761Y-84645238D01*
X170632380Y-84788095D01*
X170632380Y-84883333D01*
X170584761Y-85026190D01*
X170489523Y-85121428D01*
X170394285Y-85169047D01*
X170203809Y-85216666D01*
X170060952Y-85216666D01*
X169870476Y-85169047D01*
X169775238Y-85121428D01*
X169680000Y-85026190D01*
X169632380Y-84883333D01*
X169632380Y-84788095D01*
X169680000Y-84645238D01*
X169727619Y-84597619D01*
X169632380Y-83978571D02*
X169632380Y-83788095D01*
X169680000Y-83692857D01*
X169775238Y-83597619D01*
X169965714Y-83550000D01*
X170299047Y-83550000D01*
X170489523Y-83597619D01*
X170584761Y-83692857D01*
X170632380Y-83788095D01*
X170632380Y-83978571D01*
X170584761Y-84073809D01*
X170489523Y-84169047D01*
X170299047Y-84216666D01*
X169965714Y-84216666D01*
X169775238Y-84169047D01*
X169680000Y-84073809D01*
X169632380Y-83978571D01*
X170632380Y-83121428D02*
X169632380Y-83121428D01*
X170632380Y-82550000D01*
X169632380Y-82550000D01*
X170632380Y-82073809D02*
X169632380Y-82073809D01*
X170632380Y-81502380D01*
X169632380Y-81502380D01*
X170108571Y-81026190D02*
X170108571Y-80692857D01*
X170632380Y-80550000D02*
X170632380Y-81026190D01*
X169632380Y-81026190D01*
X169632380Y-80550000D01*
X170537142Y-79550000D02*
X170584761Y-79597619D01*
X170632380Y-79740476D01*
X170632380Y-79835714D01*
X170584761Y-79978571D01*
X170489523Y-80073809D01*
X170394285Y-80121428D01*
X170203809Y-80169047D01*
X170060952Y-80169047D01*
X169870476Y-80121428D01*
X169775238Y-80073809D01*
X169680000Y-79978571D01*
X169632380Y-79835714D01*
X169632380Y-79740476D01*
X169680000Y-79597619D01*
X169727619Y-79550000D01*
X169632380Y-79264285D02*
X169632380Y-78692857D01*
X170632380Y-78978571D02*
X169632380Y-78978571D01*
X169632380Y-78169047D02*
X169632380Y-77978571D01*
X169680000Y-77883333D01*
X169775238Y-77788095D01*
X169965714Y-77740476D01*
X170299047Y-77740476D01*
X170489523Y-77788095D01*
X170584761Y-77883333D01*
X170632380Y-77978571D01*
X170632380Y-78169047D01*
X170584761Y-78264285D01*
X170489523Y-78359523D01*
X170299047Y-78407142D01*
X169965714Y-78407142D01*
X169775238Y-78359523D01*
X169680000Y-78264285D01*
X169632380Y-78169047D01*
X170632380Y-76740476D02*
X170156190Y-77073809D01*
X170632380Y-77311904D02*
X169632380Y-77311904D01*
X169632380Y-76930952D01*
X169680000Y-76835714D01*
X169727619Y-76788095D01*
X169822857Y-76740476D01*
X169965714Y-76740476D01*
X170060952Y-76788095D01*
X170108571Y-76835714D01*
X170156190Y-76930952D01*
X170156190Y-77311904D01*
%TO.C,C6*%
X175708333Y-121702142D02*
X175660714Y-121749761D01*
X175517857Y-121797380D01*
X175422619Y-121797380D01*
X175279761Y-121749761D01*
X175184523Y-121654523D01*
X175136904Y-121559285D01*
X175089285Y-121368809D01*
X175089285Y-121225952D01*
X175136904Y-121035476D01*
X175184523Y-120940238D01*
X175279761Y-120845000D01*
X175422619Y-120797380D01*
X175517857Y-120797380D01*
X175660714Y-120845000D01*
X175708333Y-120892619D01*
X176565476Y-120797380D02*
X176375000Y-120797380D01*
X176279761Y-120845000D01*
X176232142Y-120892619D01*
X176136904Y-121035476D01*
X176089285Y-121225952D01*
X176089285Y-121606904D01*
X176136904Y-121702142D01*
X176184523Y-121749761D01*
X176279761Y-121797380D01*
X176470238Y-121797380D01*
X176565476Y-121749761D01*
X176613095Y-121702142D01*
X176660714Y-121606904D01*
X176660714Y-121368809D01*
X176613095Y-121273571D01*
X176565476Y-121225952D01*
X176470238Y-121178333D01*
X176279761Y-121178333D01*
X176184523Y-121225952D01*
X176136904Y-121273571D01*
X176089285Y-121368809D01*
X174232142Y-128392619D02*
X174279761Y-128345000D01*
X174375000Y-128297380D01*
X174613095Y-128297380D01*
X174708333Y-128345000D01*
X174755952Y-128392619D01*
X174803571Y-128487857D01*
X174803571Y-128583095D01*
X174755952Y-128725952D01*
X174184523Y-129297380D01*
X174803571Y-129297380D01*
X175184523Y-128392619D02*
X175232142Y-128345000D01*
X175327380Y-128297380D01*
X175565476Y-128297380D01*
X175660714Y-128345000D01*
X175708333Y-128392619D01*
X175755952Y-128487857D01*
X175755952Y-128583095D01*
X175708333Y-128725952D01*
X175136904Y-129297380D01*
X175755952Y-129297380D01*
X176613095Y-128630714D02*
X176613095Y-129297380D01*
X176184523Y-128630714D02*
X176184523Y-129154523D01*
X176232142Y-129249761D01*
X176327380Y-129297380D01*
X176470238Y-129297380D01*
X176565476Y-129249761D01*
X176613095Y-129202142D01*
X177422619Y-128773571D02*
X177089285Y-128773571D01*
X177089285Y-129297380D02*
X177089285Y-128297380D01*
X177565476Y-128297380D01*
%TO.C,C3*%
X133818333Y-110847142D02*
X133770714Y-110894761D01*
X133627857Y-110942380D01*
X133532619Y-110942380D01*
X133389761Y-110894761D01*
X133294523Y-110799523D01*
X133246904Y-110704285D01*
X133199285Y-110513809D01*
X133199285Y-110370952D01*
X133246904Y-110180476D01*
X133294523Y-110085238D01*
X133389761Y-109990000D01*
X133532619Y-109942380D01*
X133627857Y-109942380D01*
X133770714Y-109990000D01*
X133818333Y-110037619D01*
X134151666Y-109942380D02*
X134770714Y-109942380D01*
X134437380Y-110323333D01*
X134580238Y-110323333D01*
X134675476Y-110370952D01*
X134723095Y-110418571D01*
X134770714Y-110513809D01*
X134770714Y-110751904D01*
X134723095Y-110847142D01*
X134675476Y-110894761D01*
X134580238Y-110942380D01*
X134294523Y-110942380D01*
X134199285Y-110894761D01*
X134151666Y-110847142D01*
X131707142Y-118832380D02*
X131802380Y-118832380D01*
X131897619Y-118880000D01*
X131945238Y-118927619D01*
X131992857Y-119022857D01*
X132040476Y-119213333D01*
X132040476Y-119451428D01*
X131992857Y-119641904D01*
X131945238Y-119737142D01*
X131897619Y-119784761D01*
X131802380Y-119832380D01*
X131707142Y-119832380D01*
X131611904Y-119784761D01*
X131564285Y-119737142D01*
X131516666Y-119641904D01*
X131469047Y-119451428D01*
X131469047Y-119213333D01*
X131516666Y-119022857D01*
X131564285Y-118927619D01*
X131611904Y-118880000D01*
X131707142Y-118832380D01*
X132469047Y-119737142D02*
X132516666Y-119784761D01*
X132469047Y-119832380D01*
X132421428Y-119784761D01*
X132469047Y-119737142D01*
X132469047Y-119832380D01*
X133469047Y-119832380D02*
X132897619Y-119832380D01*
X133183333Y-119832380D02*
X133183333Y-118832380D01*
X133088095Y-118975238D01*
X132992857Y-119070476D01*
X132897619Y-119118095D01*
X134326190Y-119165714D02*
X134326190Y-119832380D01*
X133897619Y-119165714D02*
X133897619Y-119689523D01*
X133945238Y-119784761D01*
X134040476Y-119832380D01*
X134183333Y-119832380D01*
X134278571Y-119784761D01*
X134326190Y-119737142D01*
X135135714Y-119308571D02*
X134802380Y-119308571D01*
X134802380Y-119832380D02*
X134802380Y-118832380D01*
X135278571Y-118832380D01*
%TO.C,C2*%
X101322142Y-101766666D02*
X101369761Y-101814285D01*
X101417380Y-101957142D01*
X101417380Y-102052380D01*
X101369761Y-102195238D01*
X101274523Y-102290476D01*
X101179285Y-102338095D01*
X100988809Y-102385714D01*
X100845952Y-102385714D01*
X100655476Y-102338095D01*
X100560238Y-102290476D01*
X100465000Y-102195238D01*
X100417380Y-102052380D01*
X100417380Y-101957142D01*
X100465000Y-101814285D01*
X100512619Y-101766666D01*
X100512619Y-101385714D02*
X100465000Y-101338095D01*
X100417380Y-101242857D01*
X100417380Y-101004761D01*
X100465000Y-100909523D01*
X100512619Y-100861904D01*
X100607857Y-100814285D01*
X100703095Y-100814285D01*
X100845952Y-100861904D01*
X101417380Y-101433333D01*
X101417380Y-100814285D01*
X97877380Y-108322857D02*
X97877380Y-108227619D01*
X97925000Y-108132380D01*
X97972619Y-108084761D01*
X98067857Y-108037142D01*
X98258333Y-107989523D01*
X98496428Y-107989523D01*
X98686904Y-108037142D01*
X98782142Y-108084761D01*
X98829761Y-108132380D01*
X98877380Y-108227619D01*
X98877380Y-108322857D01*
X98829761Y-108418095D01*
X98782142Y-108465714D01*
X98686904Y-108513333D01*
X98496428Y-108560952D01*
X98258333Y-108560952D01*
X98067857Y-108513333D01*
X97972619Y-108465714D01*
X97925000Y-108418095D01*
X97877380Y-108322857D01*
X98782142Y-107560952D02*
X98829761Y-107513333D01*
X98877380Y-107560952D01*
X98829761Y-107608571D01*
X98782142Y-107560952D01*
X98877380Y-107560952D01*
X98877380Y-106560952D02*
X98877380Y-107132380D01*
X98877380Y-106846666D02*
X97877380Y-106846666D01*
X98020238Y-106941904D01*
X98115476Y-107037142D01*
X98163095Y-107132380D01*
X98210714Y-105703809D02*
X98877380Y-105703809D01*
X98210714Y-106132380D02*
X98734523Y-106132380D01*
X98829761Y-106084761D01*
X98877380Y-105989523D01*
X98877380Y-105846666D01*
X98829761Y-105751428D01*
X98782142Y-105703809D01*
X98353571Y-104894285D02*
X98353571Y-105227619D01*
X98877380Y-105227619D02*
X97877380Y-105227619D01*
X97877380Y-104751428D01*
%TO.C,C1*%
X101322142Y-74461666D02*
X101369761Y-74509285D01*
X101417380Y-74652142D01*
X101417380Y-74747380D01*
X101369761Y-74890238D01*
X101274523Y-74985476D01*
X101179285Y-75033095D01*
X100988809Y-75080714D01*
X100845952Y-75080714D01*
X100655476Y-75033095D01*
X100560238Y-74985476D01*
X100465000Y-74890238D01*
X100417380Y-74747380D01*
X100417380Y-74652142D01*
X100465000Y-74509285D01*
X100512619Y-74461666D01*
X101417380Y-73509285D02*
X101417380Y-74080714D01*
X101417380Y-73795000D02*
X100417380Y-73795000D01*
X100560238Y-73890238D01*
X100655476Y-73985476D01*
X100703095Y-74080714D01*
X100417380Y-65777857D02*
X100417380Y-65682619D01*
X100465000Y-65587380D01*
X100512619Y-65539761D01*
X100607857Y-65492142D01*
X100798333Y-65444523D01*
X101036428Y-65444523D01*
X101226904Y-65492142D01*
X101322142Y-65539761D01*
X101369761Y-65587380D01*
X101417380Y-65682619D01*
X101417380Y-65777857D01*
X101369761Y-65873095D01*
X101322142Y-65920714D01*
X101226904Y-65968333D01*
X101036428Y-66015952D01*
X100798333Y-66015952D01*
X100607857Y-65968333D01*
X100512619Y-65920714D01*
X100465000Y-65873095D01*
X100417380Y-65777857D01*
X101322142Y-65015952D02*
X101369761Y-64968333D01*
X101417380Y-65015952D01*
X101369761Y-65063571D01*
X101322142Y-65015952D01*
X101417380Y-65015952D01*
X101417380Y-64015952D02*
X101417380Y-64587380D01*
X101417380Y-64301666D02*
X100417380Y-64301666D01*
X100560238Y-64396904D01*
X100655476Y-64492142D01*
X100703095Y-64587380D01*
X100750714Y-63158809D02*
X101417380Y-63158809D01*
X100750714Y-63587380D02*
X101274523Y-63587380D01*
X101369761Y-63539761D01*
X101417380Y-63444523D01*
X101417380Y-63301666D01*
X101369761Y-63206428D01*
X101322142Y-63158809D01*
X100893571Y-62349285D02*
X100893571Y-62682619D01*
X101417380Y-62682619D02*
X100417380Y-62682619D01*
X100417380Y-62206428D01*
%TO.C,U2*%
X143383095Y-109307380D02*
X143383095Y-110116904D01*
X143430714Y-110212142D01*
X143478333Y-110259761D01*
X143573571Y-110307380D01*
X143764047Y-110307380D01*
X143859285Y-110259761D01*
X143906904Y-110212142D01*
X143954523Y-110116904D01*
X143954523Y-109307380D01*
X144383095Y-109402619D02*
X144430714Y-109355000D01*
X144525952Y-109307380D01*
X144764047Y-109307380D01*
X144859285Y-109355000D01*
X144906904Y-109402619D01*
X144954523Y-109497857D01*
X144954523Y-109593095D01*
X144906904Y-109735952D01*
X144335476Y-110307380D01*
X144954523Y-110307380D01*
X146217142Y-109307380D02*
X146883809Y-109307380D01*
X146455238Y-110307380D01*
X147693333Y-109640714D02*
X147693333Y-110307380D01*
X147455238Y-109259761D02*
X147217142Y-109974047D01*
X147836190Y-109974047D01*
X148217142Y-110307380D02*
X148217142Y-109307380D01*
X148217142Y-109783571D02*
X148788571Y-109783571D01*
X148788571Y-110307380D02*
X148788571Y-109307380D01*
X149836190Y-110212142D02*
X149788571Y-110259761D01*
X149645714Y-110307380D01*
X149550476Y-110307380D01*
X149407619Y-110259761D01*
X149312380Y-110164523D01*
X149264761Y-110069285D01*
X149217142Y-109878809D01*
X149217142Y-109735952D01*
X149264761Y-109545476D01*
X149312380Y-109450238D01*
X149407619Y-109355000D01*
X149550476Y-109307380D01*
X149645714Y-109307380D01*
X149788571Y-109355000D01*
X149836190Y-109402619D01*
X150121904Y-109307380D02*
X150693333Y-109307380D01*
X150407619Y-110307380D02*
X150407619Y-109307380D01*
X150979047Y-109402619D02*
X151026666Y-109355000D01*
X151121904Y-109307380D01*
X151360000Y-109307380D01*
X151455238Y-109355000D01*
X151502857Y-109402619D01*
X151550476Y-109497857D01*
X151550476Y-109593095D01*
X151502857Y-109735952D01*
X150931428Y-110307380D01*
X151550476Y-110307380D01*
X152407619Y-109640714D02*
X152407619Y-110307380D01*
X152169523Y-109259761D02*
X151931428Y-109974047D01*
X152550476Y-109974047D01*
X153407619Y-109307380D02*
X152931428Y-109307380D01*
X152883809Y-109783571D01*
X152931428Y-109735952D01*
X153026666Y-109688333D01*
X153264761Y-109688333D01*
X153360000Y-109735952D01*
X153407619Y-109783571D01*
X153455238Y-109878809D01*
X153455238Y-110116904D01*
X153407619Y-110212142D01*
X153360000Y-110259761D01*
X153264761Y-110307380D01*
X153026666Y-110307380D01*
X152931428Y-110259761D01*
X152883809Y-110212142D01*
%TD*%
M02*
