M48
; DRILL file {KiCad (5.1.9)-1} date 05/05/21 16:33:17
; FORMAT={-:-/ absolute / metric / decimal}
; #@! TF.CreationDate,2021-05-05T16:33:17+08:00
; #@! TF.GenerationSoftware,Kicad,Pcbnew,(5.1.9)-1
FMAT,2
METRIC
T1C0.400
T2C0.500
T3C0.600
T4C0.800
T5C1.000
T6C1.500
T7C3.200
%
G90
G05
T1
X101.6Y-121.92
X101.6Y-125.095
X102.87Y-123.19
X102.87Y-125.73
X103.124Y-106.68
X104.648Y-104.14
X105.41Y-64.77
X106.68Y-105.918
X106.68Y-107.696
X107.315Y-122.555
X107.95Y-80.645
X110.49Y-105.41
X110.49Y-106.934
X111.252Y-114.046
X111.76Y-80.645
X112.014Y-104.394
X112.522Y-106.172
X114.046Y-106.426
X114.3Y-129.54
X114.554Y-104.394
X115.824Y-108.712
X118.11Y-121.92
X118.364Y-106.68
X118.618Y-108.712
X120.65Y-108.712
X120.65Y-114.3
X120.65Y-121.92
X120.65Y-130.81
X121.793Y-107.569
X122.555Y-114.935
X122.555Y-132.715
X123.19Y-89.535
X123.19Y-121.92
X123.19Y-131.445
X124.46Y-90.805
X124.46Y-123.19
X125.095Y-131.445
X125.73Y-107.442
X125.73Y-114.3
X127.0Y-115.57
X128.27Y-59.055
X128.27Y-123.19
X129.54Y-89.535
X129.54Y-124.46
X129.54Y-127.635
X129.54Y-130.175
X130.81Y-127.635
X132.08Y-127.635
X133.35Y-90.805
X134.62Y-132.715
X135.255Y-125.73
X136.525Y-105.41
X137.16Y-122.38
X137.16Y-132.715
X137.795Y-131.445
X138.43Y-125.095
X139.7Y-125.73
X139.7Y-109.4
X139.7Y-121.92
X141.605Y-131.445
X142.24Y-114.3
X142.24Y-124.46
X143.51Y-109.22
X145.415Y-107.95
X145.415Y-131.445
X146.05Y-90.805
X146.05Y-109.22
X147.32Y-109.22
X148.59Y-85.09
X148.59Y-90.805
X148.59Y-121.92
X149.86Y-86.36
X149.86Y-133.35
X151.13Y-87.63
X151.13Y-121.92
X151.13Y-130.81
X152.4Y-88.9
X154.94Y-90.17
X156.168Y-102.727
X156.21Y-125.73
X157.48Y-73.66
X158.75Y-106.045
X158.75Y-107.95
X159.385Y-71.12
X160.02Y-109.22
X160.655Y-68.58
X161.925Y-66.04
X162.56Y-103.505
X163.195Y-63.5
X168.275Y-129.54
X172.085Y-130.81
T2
X119.38Y-50.805
X119.38Y-52.705
T3
X98.425Y-45.085
X98.425Y-46.99
X98.425Y-46.99
X98.425Y-48.895
X99.695Y-45.085
X99.695Y-46.99
X99.695Y-48.895
X102.235Y-127.635
X102.235Y-129.54
X128.651Y-114.935
X128.651Y-117.475
X142.24Y-94.615
X142.24Y-97.79
X144.78Y-61.595
X144.78Y-63.5
X144.78Y-67.945
X144.78Y-69.85
X144.78Y-82.55
X144.78Y-94.615
X144.78Y-97.79
X144.78Y-101.6
X156.845Y-123.19
X158.75Y-123.19
X158.75Y-125.095
X160.655Y-123.19
X160.655Y-125.095
X162.56Y-85.09
X162.56Y-87.63
X162.56Y-125.095
X162.568Y-90.813
X165.735Y-130.81
X167.005Y-132.08
X170.815Y-89.535
X170.815Y-91.44
X170.815Y-93.345
X170.815Y-97.155
X170.815Y-99.06
X170.815Y-100.965
X172.085Y-120.015
X173.99Y-120.015
X175.26Y-130.81
X175.26Y-132.715
T4
X100.965Y-67.31
X100.965Y-72.31
X100.965Y-86.36
X100.965Y-91.36
X100.965Y-104.22
X100.965Y-109.22
X101.6Y-112.395
X101.6Y-120.015
X104.14Y-67.31
X104.14Y-82.55
X104.14Y-86.36
X104.14Y-101.6
X104.14Y-112.395
X104.14Y-120.015
X106.68Y-67.31
X106.68Y-82.55
X106.68Y-86.36
X106.68Y-101.6
X106.68Y-112.395
X106.68Y-120.015
X109.22Y-67.31
X109.22Y-82.55
X109.22Y-86.36
X109.22Y-101.6
X109.22Y-112.395
X109.22Y-120.015
X111.76Y-67.31
X111.76Y-82.55
X111.76Y-86.36
X111.76Y-101.6
X111.76Y-112.395
X111.76Y-120.015
X113.665Y-55.88
X113.665Y-60.88
X114.3Y-67.31
X114.3Y-82.55
X114.3Y-86.36
X114.3Y-101.6
X114.3Y-112.395
X114.3Y-120.015
X116.84Y-55.88
X116.84Y-63.5
X116.84Y-67.31
X116.84Y-82.55
X116.84Y-86.36
X116.84Y-101.6
X116.84Y-112.395
X116.84Y-120.015
X119.38Y-55.88
X119.38Y-63.5
X119.38Y-67.31
X119.38Y-82.55
X119.38Y-86.36
X119.38Y-101.6
X119.38Y-112.395
X119.38Y-120.015
X121.92Y-55.88
X121.92Y-63.5
X121.92Y-67.31
X121.92Y-82.55
X121.92Y-86.36
X121.92Y-101.6
X121.92Y-112.395
X121.92Y-120.015
X124.46Y-55.88
X124.46Y-63.5
X124.46Y-67.31
X124.46Y-82.55
X124.46Y-86.36
X124.46Y-101.6
X124.46Y-112.395
X124.46Y-120.015
X127.0Y-55.88
X127.0Y-63.5
X127.0Y-67.31
X127.0Y-82.55
X127.0Y-86.36
X127.0Y-101.6
X127.0Y-112.395
X127.0Y-120.015
X129.54Y-55.88
X129.54Y-63.5
X129.54Y-67.31
X129.54Y-82.55
X129.54Y-86.36
X129.54Y-101.6
X129.54Y-112.395
X129.54Y-120.015
X132.08Y-55.88
X132.08Y-63.5
X132.08Y-67.31
X132.08Y-82.55
X132.08Y-86.36
X132.08Y-101.6
X133.985Y-112.395
X133.985Y-117.395
X134.62Y-55.88
X134.62Y-63.5
X134.62Y-67.31
X134.62Y-82.55
X134.62Y-86.36
X134.62Y-101.6
X137.16Y-67.31
X137.16Y-82.55
X137.16Y-86.36
X137.16Y-101.6
X137.16Y-112.395
X137.16Y-120.015
X139.7Y-67.31
X139.7Y-82.55
X139.7Y-86.36
X139.7Y-101.6
X139.7Y-112.395
X139.7Y-120.015
X142.24Y-67.31
X142.24Y-82.55
X142.24Y-86.36
X142.24Y-101.6
X142.24Y-112.395
X142.24Y-120.015
X144.78Y-112.395
X144.78Y-120.015
X147.32Y-112.395
X147.32Y-120.015
X149.86Y-112.395
X149.86Y-120.015
X152.4Y-112.395
X152.4Y-120.015
X154.94Y-112.395
X154.94Y-120.015
X157.48Y-112.395
X157.48Y-120.015
X160.02Y-112.395
X160.02Y-120.015
X174.625Y-125.095
X177.125Y-125.095
T5
X101.6Y-55.88
X101.6Y-58.42
X101.6Y-60.96
X104.14Y-55.88
X104.14Y-58.42
X104.14Y-60.96
X106.68Y-55.88
X106.68Y-58.42
X106.68Y-60.96
X109.22Y-55.88
X109.22Y-58.42
X109.22Y-60.96
X165.1Y-59.817
X165.1Y-62.357
X165.1Y-64.897
X165.1Y-67.437
X165.1Y-69.977
X165.1Y-72.517
X165.1Y-75.057
X165.1Y-77.597
X165.1Y-80.137
X165.1Y-82.677
X165.1Y-85.217
X165.1Y-87.757
X165.1Y-90.297
X165.1Y-92.837
X165.1Y-95.377
X165.1Y-97.917
X165.1Y-100.457
X165.1Y-102.997
X165.1Y-105.537
X165.1Y-108.077
X167.64Y-59.817
X167.64Y-62.357
X167.64Y-64.897
X167.64Y-67.437
X167.64Y-69.977
X167.64Y-72.517
X167.64Y-75.057
X167.64Y-77.597
X167.64Y-80.137
X167.64Y-82.677
X167.64Y-85.217
X167.64Y-87.757
X167.64Y-90.297
X167.64Y-92.837
X167.64Y-95.377
X167.64Y-97.917
X167.64Y-100.457
X167.64Y-102.997
X167.64Y-105.537
X167.64Y-108.077
X181.951Y-59.817
T6
X149.225Y-49.36
X149.225Y-69.85
T7
X166.37Y-51.181
X166.37Y-116.713
X192.913Y-51.181
X192.913Y-116.713
T0
M30
