%TF.GenerationSoftware,KiCad,Pcbnew,(5.1.9)-1*%
%TF.CreationDate,2021-10-06T12:09:34+08:00*%
%TF.ProjectId,Tandy1000Essentials,54616e64-7931-4303-9030-457373656e74,rev?*%
%TF.SameCoordinates,Original*%
%TF.FileFunction,Copper,L1,Top*%
%TF.FilePolarity,Positive*%
%FSLAX46Y46*%
G04 Gerber Fmt 4.6, Leading zero omitted, Abs format (unit mm)*
G04 Created by KiCad (PCBNEW (5.1.9)-1) date 2021-10-06 12:09:34*
%MOMM*%
%LPD*%
G01*
G04 APERTURE LIST*
%TA.AperFunction,NonConductor*%
%ADD10C,0.300000*%
%TD*%
%TA.AperFunction,ConnectorPad*%
%ADD11R,1.780000X6.820000*%
%TD*%
%TA.AperFunction,ComponentPad*%
%ADD12C,1.600000*%
%TD*%
%TA.AperFunction,ComponentPad*%
%ADD13O,1.700000X1.700000*%
%TD*%
%TA.AperFunction,ComponentPad*%
%ADD14R,1.700000X1.700000*%
%TD*%
%TA.AperFunction,ComponentPad*%
%ADD15O,1.600000X1.600000*%
%TD*%
%TA.AperFunction,ComponentPad*%
%ADD16R,1.600000X1.600000*%
%TD*%
%TA.AperFunction,ComponentPad*%
%ADD17C,3.000000*%
%TD*%
%TA.AperFunction,ComponentPad*%
%ADD18R,3.000000X3.000000*%
%TD*%
%TA.AperFunction,ComponentPad*%
%ADD19C,1.000000*%
%TD*%
%TA.AperFunction,ComponentPad*%
%ADD20C,6.500000*%
%TD*%
%TA.AperFunction,ViaPad*%
%ADD21C,0.800000*%
%TD*%
%TA.AperFunction,ViaPad*%
%ADD22C,1.000000*%
%TD*%
%TA.AperFunction,Conductor*%
%ADD23C,0.300000*%
%TD*%
%TA.AperFunction,Conductor*%
%ADD24C,0.500000*%
%TD*%
%TA.AperFunction,Conductor*%
%ADD25C,2.000000*%
%TD*%
%TA.AperFunction,Conductor*%
%ADD26C,1.000000*%
%TD*%
%TA.AperFunction,Conductor*%
%ADD27C,1.750000*%
%TD*%
%TA.AperFunction,Conductor*%
%ADD28C,1.600000*%
%TD*%
%TA.AperFunction,Conductor*%
%ADD29C,1.700000*%
%TD*%
%TA.AperFunction,Conductor*%
%ADD30C,0.250000*%
%TD*%
%TA.AperFunction,Conductor*%
%ADD31C,0.254000*%
%TD*%
%TA.AperFunction,Conductor*%
%ADD32C,0.100000*%
%TD*%
G04 APERTURE END LIST*
D10*
X190897142Y-132393571D02*
X191254285Y-133393571D01*
X191611428Y-132393571D01*
X192968571Y-133393571D02*
X192111428Y-133393571D01*
X192540000Y-133393571D02*
X192540000Y-131893571D01*
X192397142Y-132107857D01*
X192254285Y-132250714D01*
X192111428Y-132322142D01*
X193611428Y-133250714D02*
X193682857Y-133322142D01*
X193611428Y-133393571D01*
X193540000Y-133322142D01*
X193611428Y-133250714D01*
X193611428Y-133393571D01*
X195111428Y-133393571D02*
X194254285Y-133393571D01*
X194682857Y-133393571D02*
X194682857Y-131893571D01*
X194540000Y-132107857D01*
X194397142Y-132250714D01*
X194254285Y-132322142D01*
D11*
%TO.P,J3,62*%
%TO.N,A00*%
X99060000Y-138030000D03*
%TO.P,J3,61*%
%TO.N,A01*%
X101600000Y-138030000D03*
%TO.P,J3,60*%
%TO.N,A02*%
X104140000Y-138030000D03*
%TO.P,J3,59*%
%TO.N,A03*%
X106680000Y-138030000D03*
%TO.P,J3,58*%
%TO.N,A04*%
X109220000Y-138030000D03*
%TO.P,J3,57*%
%TO.N,A05*%
X111760000Y-138030000D03*
%TO.P,J3,56*%
%TO.N,A06*%
X114300000Y-138030000D03*
%TO.P,J3,55*%
%TO.N,A07*%
X116840000Y-138030000D03*
%TO.P,J3,54*%
%TO.N,A08*%
X119380000Y-138030000D03*
%TO.P,J3,53*%
%TO.N,A09*%
X121920000Y-138030000D03*
%TO.P,J3,52*%
%TO.N,A10*%
X124460000Y-138030000D03*
%TO.P,J3,51*%
%TO.N,A11*%
X127000000Y-138030000D03*
%TO.P,J3,50*%
%TO.N,A12*%
X129540000Y-138030000D03*
%TO.P,J3,49*%
%TO.N,A13*%
X132080000Y-138030000D03*
%TO.P,J3,48*%
%TO.N,A14*%
X134620000Y-138030000D03*
%TO.P,J3,47*%
%TO.N,A15*%
X137160000Y-138030000D03*
%TO.P,J3,46*%
%TO.N,A16*%
X139700000Y-138030000D03*
%TO.P,J3,45*%
%TO.N,A17*%
X142240000Y-138030000D03*
%TO.P,J3,44*%
%TO.N,A18*%
X144780000Y-138030000D03*
%TO.P,J3,43*%
%TO.N,A19*%
X147320000Y-138030000D03*
%TO.P,J3,42*%
%TO.N,Net-(J3-Pad42)*%
X149860000Y-138030000D03*
%TO.P,J3,41*%
%TO.N,Net-(J3-Pad41)*%
X152400000Y-138030000D03*
%TO.P,J3,40*%
%TO.N,D0*%
X154940000Y-138030000D03*
%TO.P,J3,39*%
%TO.N,D1*%
X157480000Y-138030000D03*
%TO.P,J3,38*%
%TO.N,D2*%
X160020000Y-138030000D03*
%TO.P,J3,37*%
%TO.N,D3*%
X162560000Y-138030000D03*
%TO.P,J3,36*%
%TO.N,D4*%
X165100000Y-138030000D03*
%TO.P,J3,35*%
%TO.N,D5*%
X167640000Y-138030000D03*
%TO.P,J3,34*%
%TO.N,D6*%
X170180000Y-138030000D03*
%TO.P,J3,33*%
%TO.N,D7*%
X172720000Y-138030000D03*
%TO.P,J3,32*%
%TO.N,Net-(J3-Pad32)*%
X175260000Y-138030000D03*
%TD*%
D12*
%TO.P,C6,1*%
%TO.N,VCC*%
X185420000Y-59817000D03*
%TO.P,C6,2*%
%TO.N,GND*%
X190420000Y-59817000D03*
%TD*%
D13*
%TO.P,J2,2*%
%TO.N,GND*%
X179411000Y-59817000D03*
D14*
%TO.P,J2,1*%
%TO.N,VCC*%
X181951000Y-59817000D03*
%TD*%
D12*
%TO.P,C2,2*%
%TO.N,GND*%
X100965000Y-104220000D03*
%TO.P,C2,1*%
%TO.N,VCC*%
X100965000Y-109220000D03*
%TD*%
D15*
%TO.P,U1,32*%
%TO.N,VCC*%
X104140000Y-67310000D03*
%TO.P,U1,16*%
%TO.N,GND*%
X142240000Y-82550000D03*
%TO.P,U1,31*%
%TO.N,~MEMW*%
X106680000Y-67310000D03*
%TO.P,U1,15*%
%TO.N,D2_BUF*%
X139700000Y-82550000D03*
%TO.P,U1,30*%
%TO.N,GND*%
X109220000Y-67310000D03*
%TO.P,U1,14*%
%TO.N,D1_BUF*%
X137160000Y-82550000D03*
%TO.P,U1,29*%
%TO.N,A14*%
X111760000Y-67310000D03*
%TO.P,U1,13*%
%TO.N,D0_BUF*%
X134620000Y-82550000D03*
%TO.P,U1,28*%
%TO.N,A13*%
X114300000Y-67310000D03*
%TO.P,U1,12*%
%TO.N,A00*%
X132080000Y-82550000D03*
%TO.P,U1,27*%
%TO.N,A08*%
X116840000Y-67310000D03*
%TO.P,U1,11*%
%TO.N,A01*%
X129540000Y-82550000D03*
%TO.P,U1,26*%
%TO.N,A09*%
X119380000Y-67310000D03*
%TO.P,U1,10*%
%TO.N,A02*%
X127000000Y-82550000D03*
%TO.P,U1,25*%
%TO.N,A11*%
X121920000Y-67310000D03*
%TO.P,U1,9*%
%TO.N,A03*%
X124460000Y-82550000D03*
%TO.P,U1,24*%
%TO.N,~MEMR~_DELAYED*%
X124460000Y-67310000D03*
%TO.P,U1,8*%
%TO.N,A04*%
X121920000Y-82550000D03*
%TO.P,U1,23*%
%TO.N,A10*%
X127000000Y-67310000D03*
%TO.P,U1,7*%
%TO.N,A05*%
X119380000Y-82550000D03*
%TO.P,U1,22*%
%TO.N,~CE~_BIOS*%
X129540000Y-67310000D03*
%TO.P,U1,6*%
%TO.N,A06*%
X116840000Y-82550000D03*
%TO.P,U1,21*%
%TO.N,D7_BUF*%
X132080000Y-67310000D03*
%TO.P,U1,5*%
%TO.N,A07*%
X114300000Y-82550000D03*
%TO.P,U1,20*%
%TO.N,D6_BUF*%
X134620000Y-67310000D03*
%TO.P,U1,4*%
%TO.N,A12*%
X111760000Y-82550000D03*
%TO.P,U1,19*%
%TO.N,D5_BUF*%
X137160000Y-67310000D03*
%TO.P,U1,3*%
%TO.N,ATA_ADDR_JUMPER*%
X109220000Y-82550000D03*
%TO.P,U1,18*%
%TO.N,D4_BUF*%
X139700000Y-67310000D03*
%TO.P,U1,2*%
%TO.N,V20_JUMPER*%
X106680000Y-82550000D03*
%TO.P,U1,17*%
%TO.N,D3_BUF*%
X142240000Y-67310000D03*
D16*
%TO.P,U1,1*%
%TO.N,GND*%
X104140000Y-82550000D03*
%TD*%
D13*
%TO.P,J5,6*%
%TO.N,~CE~_BIOS_THRU*%
X110490000Y-60960000D03*
%TO.P,J5,5*%
%TO.N,GND*%
X107950000Y-60960000D03*
%TO.P,J5,4*%
%TO.N,~CE~_BIOS*%
X110490000Y-58420000D03*
%TO.P,J5,3*%
%TO.N,V20_JUMPER*%
X107950000Y-58420000D03*
%TO.P,J5,2*%
%TO.N,~CE~_BIOS_DECODE*%
X110490000Y-55880000D03*
D14*
%TO.P,J5,1*%
%TO.N,VCC*%
X107950000Y-55880000D03*
%TD*%
D13*
%TO.P,J4,6*%
%TO.N,GND*%
X104140000Y-60960000D03*
%TO.P,J4,5*%
X101600000Y-60960000D03*
%TO.P,J4,4*%
%TO.N,ATA_ADDR_JUMPER*%
X104140000Y-58420000D03*
%TO.P,J4,3*%
%TO.N,ROM_ADDR_JUMPER*%
X101600000Y-58420000D03*
%TO.P,J4,2*%
%TO.N,VCC*%
X104140000Y-55880000D03*
D14*
%TO.P,J4,1*%
X101600000Y-55880000D03*
%TD*%
D15*
%TO.P,U5,32*%
%TO.N,VCC*%
X104140000Y-86360000D03*
%TO.P,U5,16*%
%TO.N,GND*%
X142240000Y-101600000D03*
%TO.P,U5,31*%
%TO.N,A15*%
X106680000Y-86360000D03*
%TO.P,U5,15*%
%TO.N,D2_BUF*%
X139700000Y-101600000D03*
%TO.P,U5,30*%
%TO.N,A17*%
X109220000Y-86360000D03*
%TO.P,U5,14*%
%TO.N,D1_BUF*%
X137160000Y-101600000D03*
%TO.P,U5,29*%
%TO.N,~MEMW*%
X111760000Y-86360000D03*
%TO.P,U5,13*%
%TO.N,D0_BUF*%
X134620000Y-101600000D03*
%TO.P,U5,28*%
%TO.N,A13*%
X114300000Y-86360000D03*
%TO.P,U5,12*%
%TO.N,A00*%
X132080000Y-101600000D03*
%TO.P,U5,27*%
%TO.N,A08*%
X116840000Y-86360000D03*
%TO.P,U5,11*%
%TO.N,A01*%
X129540000Y-101600000D03*
%TO.P,U5,26*%
%TO.N,A09*%
X119380000Y-86360000D03*
%TO.P,U5,10*%
%TO.N,A02*%
X127000000Y-101600000D03*
%TO.P,U5,25*%
%TO.N,A11*%
X121920000Y-86360000D03*
%TO.P,U5,9*%
%TO.N,A03*%
X124460000Y-101600000D03*
%TO.P,U5,24*%
%TO.N,~MEMR~_DELAYED*%
X124460000Y-86360000D03*
%TO.P,U5,8*%
%TO.N,A04*%
X121920000Y-101600000D03*
%TO.P,U5,23*%
%TO.N,A10*%
X127000000Y-86360000D03*
%TO.P,U5,7*%
%TO.N,A05*%
X119380000Y-101600000D03*
%TO.P,U5,22*%
%TO.N,A19*%
X129540000Y-86360000D03*
%TO.P,U5,6*%
%TO.N,A06*%
X116840000Y-101600000D03*
%TO.P,U5,21*%
%TO.N,D7_BUF*%
X132080000Y-86360000D03*
%TO.P,U5,5*%
%TO.N,A07*%
X114300000Y-101600000D03*
%TO.P,U5,20*%
%TO.N,D6_BUF*%
X134620000Y-86360000D03*
%TO.P,U5,4*%
%TO.N,A12*%
X111760000Y-101600000D03*
%TO.P,U5,19*%
%TO.N,D5_BUF*%
X137160000Y-86360000D03*
%TO.P,U5,3*%
%TO.N,A14*%
X109220000Y-101600000D03*
%TO.P,U5,18*%
%TO.N,D4_BUF*%
X139700000Y-86360000D03*
%TO.P,U5,2*%
%TO.N,A16*%
X106680000Y-101600000D03*
%TO.P,U5,17*%
%TO.N,D3_BUF*%
X142240000Y-86360000D03*
D16*
%TO.P,U5,1*%
%TO.N,A18*%
X104140000Y-101600000D03*
%TD*%
D13*
%TO.P,J1,40*%
%TO.N,GND*%
X167640000Y-59817000D03*
%TO.P,J1,39*%
%TO.N,Net-(J1-Pad39)*%
X165100000Y-59817000D03*
%TO.P,J1,38*%
%TO.N,VCC*%
X167640000Y-62357000D03*
%TO.P,J1,37*%
%TO.N,~CS1~_ATA*%
X165100000Y-62357000D03*
%TO.P,J1,36*%
%TO.N,A03*%
X167640000Y-64897000D03*
%TO.P,J1,35*%
%TO.N,A01*%
X165100000Y-64897000D03*
%TO.P,J1,34*%
%TO.N,Net-(J1-Pad34)*%
X167640000Y-67437000D03*
%TO.P,J1,33*%
%TO.N,A02*%
X165100000Y-67437000D03*
%TO.P,J1,32*%
%TO.N,Net-(J1-Pad32)*%
X167640000Y-69977000D03*
%TO.P,J1,31*%
%TO.N,Net-(J1-Pad31)*%
X165100000Y-69977000D03*
%TO.P,J1,30*%
%TO.N,GND*%
X167640000Y-72517000D03*
%TO.P,J1,29*%
%TO.N,VCC*%
X165100000Y-72517000D03*
%TO.P,J1,28*%
%TO.N,Net-(J1-Pad28)*%
X167640000Y-75057000D03*
%TO.P,J1,27*%
%TO.N,Net-(J1-Pad27)*%
X165100000Y-75057000D03*
%TO.P,J1,26*%
%TO.N,GND*%
X167640000Y-77597000D03*
%TO.P,J1,25*%
%TO.N,~IOR~_DELAYED*%
X165100000Y-77597000D03*
%TO.P,J1,24*%
%TO.N,GND*%
X167640000Y-80137000D03*
%TO.P,J1,23*%
%TO.N,~IOW*%
X165100000Y-80137000D03*
%TO.P,J1,22*%
%TO.N,GND*%
X167640000Y-82677000D03*
%TO.P,J1,21*%
%TO.N,Net-(J1-Pad21)*%
X165100000Y-82677000D03*
%TO.P,J1,20*%
%TO.N,Net-(J1-Pad20)*%
X167640000Y-85217000D03*
%TO.P,J1,19*%
%TO.N,GND*%
X165100000Y-85217000D03*
%TO.P,J1,18*%
%TO.N,Net-(J1-Pad18)*%
X167640000Y-87757000D03*
%TO.P,J1,17*%
%TO.N,D0_BUF*%
X165100000Y-87757000D03*
%TO.P,J1,16*%
%TO.N,Net-(J1-Pad16)*%
X167640000Y-90297000D03*
%TO.P,J1,15*%
%TO.N,D1_BUF*%
X165100000Y-90297000D03*
%TO.P,J1,14*%
%TO.N,Net-(J1-Pad14)*%
X167640000Y-92837000D03*
%TO.P,J1,13*%
%TO.N,D2_BUF*%
X165100000Y-92837000D03*
%TO.P,J1,12*%
%TO.N,Net-(J1-Pad12)*%
X167640000Y-95377000D03*
%TO.P,J1,11*%
%TO.N,D3_BUF*%
X165100000Y-95377000D03*
%TO.P,J1,10*%
%TO.N,Net-(J1-Pad10)*%
X167640000Y-97917000D03*
%TO.P,J1,9*%
%TO.N,D4_BUF*%
X165100000Y-97917000D03*
%TO.P,J1,8*%
%TO.N,Net-(J1-Pad8)*%
X167640000Y-100457000D03*
%TO.P,J1,7*%
%TO.N,D5_BUF*%
X165100000Y-100457000D03*
%TO.P,J1,6*%
%TO.N,Net-(J1-Pad6)*%
X167640000Y-102997000D03*
%TO.P,J1,5*%
%TO.N,D6_BUF*%
X165100000Y-102997000D03*
%TO.P,J1,4*%
%TO.N,Net-(J1-Pad4)*%
X167640000Y-105537000D03*
%TO.P,J1,3*%
%TO.N,D7_BUF*%
X165100000Y-105537000D03*
%TO.P,J1,2*%
%TO.N,GND*%
X167640000Y-108077000D03*
D14*
%TO.P,J1,1*%
%TO.N,~RESET*%
X165100000Y-108077000D03*
%TD*%
D15*
%TO.P,U3,24*%
%TO.N,VCC*%
X101600000Y-112395000D03*
%TO.P,U3,12*%
%TO.N,GND*%
X129540000Y-120015000D03*
%TO.P,U3,23*%
%TO.N,ROM_ADDR_JUMPER*%
X104140000Y-112395000D03*
%TO.P,U3,11*%
%TO.N,A18*%
X127000000Y-120015000D03*
%TO.P,U3,22*%
%TO.N,ATA_ADDR_JUMPER*%
X106680000Y-112395000D03*
%TO.P,U3,10*%
%TO.N,A17*%
X124460000Y-120015000D03*
%TO.P,U3,21*%
%TO.N,~IOR*%
X109220000Y-112395000D03*
%TO.P,U3,9*%
%TO.N,A16*%
X121920000Y-120015000D03*
%TO.P,U3,20*%
%TO.N,~RESET*%
X111760000Y-112395000D03*
%TO.P,U3,8*%
%TO.N,A15*%
X119380000Y-120015000D03*
%TO.P,U3,19*%
%TO.N,~CS1~_ATA*%
X114300000Y-112395000D03*
%TO.P,U3,7*%
%TO.N,RESET*%
X116840000Y-120015000D03*
%TO.P,U3,18*%
%TO.N,~CE~_BIOS_DECODE*%
X116840000Y-112395000D03*
%TO.P,U3,6*%
%TO.N,A09*%
X114300000Y-120015000D03*
%TO.P,U3,17*%
%TO.N,~MEMR*%
X119380000Y-112395000D03*
%TO.P,U3,5*%
%TO.N,A08*%
X111760000Y-120015000D03*
%TO.P,U3,16*%
%TO.N,~MEMR~_DELAYED*%
X121920000Y-112395000D03*
%TO.P,U3,4*%
%TO.N,A07*%
X109220000Y-120015000D03*
%TO.P,U3,15*%
%TO.N,~IOR_OR_MEMR*%
X124460000Y-112395000D03*
%TO.P,U3,3*%
%TO.N,A06*%
X106680000Y-120015000D03*
%TO.P,U3,14*%
%TO.N,~IOR~_DELAYED*%
X127000000Y-112395000D03*
%TO.P,U3,2*%
%TO.N,A05*%
X104140000Y-120015000D03*
%TO.P,U3,13*%
%TO.N,A19*%
X129540000Y-112395000D03*
D16*
%TO.P,U3,1*%
%TO.N,A04*%
X101600000Y-120015000D03*
%TD*%
D15*
%TO.P,U4,16*%
%TO.N,VCC*%
X117475000Y-55880000D03*
%TO.P,U4,8*%
%TO.N,GND*%
X135255000Y-63500000D03*
%TO.P,U4,15*%
%TO.N,Net-(U4-Pad15)*%
X120015000Y-55880000D03*
%TO.P,U4,7*%
%TO.N,D0_BUF*%
X132715000Y-63500000D03*
%TO.P,U4,14*%
%TO.N,GND*%
X122555000Y-55880000D03*
%TO.P,U4,6*%
%TO.N,A00*%
X130175000Y-63500000D03*
%TO.P,U4,13*%
%TO.N,VCC*%
X125095000Y-55880000D03*
%TO.P,U4,5*%
%TO.N,GND*%
X127635000Y-63500000D03*
%TO.P,U4,12*%
%TO.N,~MEMR~_DELAYED*%
X127635000Y-55880000D03*
%TO.P,U4,4*%
%TO.N,Net-(BAT1-Pad1)*%
X125095000Y-63500000D03*
%TO.P,U4,11*%
%TO.N,~CE~_BIOS_DECODE*%
X130175000Y-55880000D03*
%TO.P,U4,3*%
%TO.N,A02*%
X122555000Y-63500000D03*
%TO.P,U4,10*%
%TO.N,~CE~_BIOS_THRU*%
X132715000Y-55880000D03*
%TO.P,U4,2*%
%TO.N,/XTAL2*%
X120015000Y-63500000D03*
%TO.P,U4,9*%
%TO.N,Net-(U4-Pad15)*%
X135255000Y-55880000D03*
D16*
%TO.P,U4,1*%
%TO.N,/XTAL1*%
X117475000Y-63500000D03*
%TD*%
D17*
%TO.P,BAT1,2*%
%TO.N,GND*%
X149225000Y-49360000D03*
D18*
%TO.P,BAT1,1*%
%TO.N,Net-(BAT1-Pad1)*%
X149225000Y-69850000D03*
%TD*%
D12*
%TO.P,C5,2*%
%TO.N,GND*%
X100965000Y-91360000D03*
%TO.P,C5,1*%
%TO.N,VCC*%
X100965000Y-86360000D03*
%TD*%
%TO.P,C4,2*%
%TO.N,GND*%
X114300000Y-60880000D03*
%TO.P,C4,1*%
%TO.N,VCC*%
X114300000Y-55880000D03*
%TD*%
D19*
%TO.P,Y1,2*%
%TO.N,/XTAL2*%
X120015000Y-50805000D03*
%TO.P,Y1,1*%
%TO.N,/XTAL1*%
X120015000Y-52705000D03*
%TD*%
D20*
%TO.P,H4,1*%
%TO.N,GND*%
X192913000Y-116713000D03*
%TD*%
D12*
%TO.P,C7,2*%
%TO.N,GND*%
X177125000Y-125095000D03*
D16*
%TO.P,C7,1*%
%TO.N,VCC*%
X174625000Y-125095000D03*
%TD*%
D12*
%TO.P,C3,2*%
%TO.N,GND*%
X133985000Y-117395000D03*
%TO.P,C3,1*%
%TO.N,VCC*%
X133985000Y-112395000D03*
%TD*%
%TO.P,C1,2*%
%TO.N,GND*%
X100965000Y-72310000D03*
%TO.P,C1,1*%
%TO.N,VCC*%
X100965000Y-67310000D03*
%TD*%
D15*
%TO.P,U2,20*%
%TO.N,VCC*%
X137160000Y-112395000D03*
%TO.P,U2,10*%
%TO.N,GND*%
X160020000Y-120015000D03*
%TO.P,U2,19*%
X139700000Y-112395000D03*
%TO.P,U2,9*%
%TO.N,D7*%
X157480000Y-120015000D03*
%TO.P,U2,18*%
%TO.N,D0_BUF*%
X142240000Y-112395000D03*
%TO.P,U2,8*%
%TO.N,D6*%
X154940000Y-120015000D03*
%TO.P,U2,17*%
%TO.N,D1_BUF*%
X144780000Y-112395000D03*
%TO.P,U2,7*%
%TO.N,D5*%
X152400000Y-120015000D03*
%TO.P,U2,16*%
%TO.N,D2_BUF*%
X147320000Y-112395000D03*
%TO.P,U2,6*%
%TO.N,D4*%
X149860000Y-120015000D03*
%TO.P,U2,15*%
%TO.N,D3_BUF*%
X149860000Y-112395000D03*
%TO.P,U2,5*%
%TO.N,D3*%
X147320000Y-120015000D03*
%TO.P,U2,14*%
%TO.N,D4_BUF*%
X152400000Y-112395000D03*
%TO.P,U2,4*%
%TO.N,D2*%
X144780000Y-120015000D03*
%TO.P,U2,13*%
%TO.N,D5_BUF*%
X154940000Y-112395000D03*
%TO.P,U2,3*%
%TO.N,D1*%
X142240000Y-120015000D03*
%TO.P,U2,12*%
%TO.N,D6_BUF*%
X157480000Y-112395000D03*
%TO.P,U2,2*%
%TO.N,D0*%
X139700000Y-120015000D03*
%TO.P,U2,11*%
%TO.N,D7_BUF*%
X160020000Y-112395000D03*
D16*
%TO.P,U2,1*%
%TO.N,~IOR_OR_MEMR*%
X137160000Y-120015000D03*
%TD*%
D20*
%TO.P,H3,1*%
%TO.N,GND*%
X166370000Y-116713000D03*
%TD*%
%TO.P,H1,1*%
%TO.N,GND*%
X166370000Y-51181000D03*
%TD*%
%TO.P,H2,1*%
%TO.N,GND*%
X192913000Y-51181000D03*
%TD*%
D21*
%TO.N,A00*%
X123825000Y-124460000D03*
X102235000Y-125730000D03*
%TO.N,A01*%
X123190000Y-121920006D03*
X101600000Y-124460000D03*
X129540000Y-72390000D03*
%TO.N,A02*%
X120650000Y-121920000D03*
X128285322Y-74914678D03*
X102235000Y-123190000D03*
%TO.N,A03*%
X101600000Y-121920000D03*
X118110000Y-121920000D03*
X124460000Y-89359990D03*
X124460000Y-73660000D03*
%TO.N,A04*%
X103505000Y-106680000D03*
%TO.N,A05*%
X104711491Y-104203509D03*
%TO.N,A06*%
X119380000Y-106045000D03*
X114300000Y-107315000D03*
%TO.N,A10*%
X148590000Y-121920000D03*
X127000000Y-123825000D03*
X153035000Y-85725000D03*
%TO.N,A11*%
X138430000Y-125095000D03*
X129540000Y-124460000D03*
X138430000Y-91440000D03*
X120650000Y-91440000D03*
%TO.N,A12*%
X129540000Y-130175000D03*
X111252000Y-114046000D03*
X115570000Y-129540000D03*
X112395008Y-105410000D03*
%TO.N,A13*%
X133350000Y-92075000D03*
X113030000Y-90170000D03*
%TO.N,A15*%
X137160000Y-132715000D03*
X123190000Y-131445000D03*
X120650000Y-114300000D03*
X107315000Y-107950000D03*
%TO.N,A16*%
X125095000Y-131445000D03*
X137795000Y-131445000D03*
X122555000Y-114935000D03*
X107315000Y-106045006D03*
%TO.N,A17*%
X135255000Y-125730000D03*
X125730000Y-114300000D03*
X111125000Y-106680000D03*
%TO.N,A18*%
X127000000Y-115570000D03*
X137160000Y-122380000D03*
%TO.N,A19*%
X139700000Y-121920000D03*
X128270000Y-121285000D03*
X133350000Y-108484990D03*
X127635000Y-108484990D03*
D22*
%TO.N,GND*%
X175260000Y-130810000D03*
X144780000Y-81915000D03*
X160655000Y-123190000D03*
X156845000Y-123190000D03*
X158750000Y-123190000D03*
X98425000Y-48895000D03*
X98425000Y-46990000D03*
X98425000Y-46990000D03*
X98425000Y-45085000D03*
X99695000Y-45085000D03*
X99695000Y-46990000D03*
X99695000Y-48895000D03*
X167005000Y-132080000D03*
X165735002Y-130810000D03*
X142240000Y-97790000D03*
X142240000Y-94615000D03*
X144780000Y-67945000D03*
X144780000Y-63500000D03*
X144780000Y-69850000D03*
X144780000Y-61595000D03*
X162560000Y-125095000D03*
X160655000Y-125095000D03*
X158750000Y-125095000D03*
X129540000Y-117475000D03*
X129540000Y-114935000D03*
X145415000Y-94615000D03*
X145415000Y-97790000D03*
X145415000Y-101600000D03*
X148590000Y-94615000D03*
X148590000Y-97790000D03*
X148590000Y-101600000D03*
X144780000Y-76835000D03*
X144780000Y-79375000D03*
X158115000Y-81915000D03*
X158115000Y-79375000D03*
X158115000Y-76835000D03*
X149225000Y-76835000D03*
X149225000Y-79375000D03*
X149225000Y-81915000D03*
X153670000Y-76835000D03*
X153670000Y-79375000D03*
X153670000Y-81915000D03*
X154305000Y-69850000D03*
X156210000Y-67945000D03*
X158115000Y-66040000D03*
X160020000Y-64135000D03*
X161925000Y-62230000D03*
X141605000Y-63500000D03*
X139065000Y-63500000D03*
X170815000Y-59690000D03*
X170815000Y-74930000D03*
X170815000Y-67310000D03*
X170815000Y-69850000D03*
X170815000Y-72390000D03*
X170815000Y-77470000D03*
X170815000Y-80010000D03*
X170815000Y-82550000D03*
X177165000Y-130810000D03*
X177165000Y-132715000D03*
X179070000Y-132715000D03*
X179070000Y-130810000D03*
X175260000Y-128905000D03*
X177165000Y-128905000D03*
X179070000Y-128905000D03*
%TO.N,VCC*%
X102235000Y-127635000D03*
X102235000Y-129540000D03*
D21*
X130810000Y-127635000D03*
D22*
X173990000Y-120015000D03*
X172085000Y-120015000D03*
D21*
X129540000Y-127635000D03*
X132080000Y-127635000D03*
%TO.N,~IOR*%
X141605000Y-131445000D03*
X114300000Y-105410000D03*
X135255000Y-104140000D03*
%TO.N,~IOW*%
X145415000Y-131445000D03*
X156210000Y-125730000D03*
X139699991Y-125729991D03*
%TO.N,~MEMR*%
X151130000Y-130810000D03*
X148590000Y-107950000D03*
X123190000Y-107315000D03*
%TO.N,~MEMW*%
X149860000Y-133350000D03*
X151130000Y-121920000D03*
X142240000Y-124460000D03*
X155575000Y-90805000D03*
X106680000Y-79375000D03*
%TO.N,RESET*%
X172085000Y-130810000D03*
X168275000Y-129540000D03*
X120650000Y-130810006D03*
%TO.N,~CS1~_ATA*%
X160654986Y-106680000D03*
X116840000Y-107315000D03*
%TO.N,D2_BUF*%
X140969992Y-91440000D03*
%TO.N,D3_BUF*%
X151765000Y-86360000D03*
X151765000Y-95250000D03*
%TO.N,D4_BUF*%
X154305000Y-97790000D03*
X154305000Y-86995000D03*
%TO.N,D5_BUF*%
X156845000Y-100330000D03*
X156845000Y-86995000D03*
%TO.N,D6_BUF*%
X158115000Y-102870000D03*
X158115000Y-87692230D03*
%TO.N,D7_BUF*%
X159385000Y-107950000D03*
X159385000Y-89534990D03*
%TO.N,~RESET*%
X113664994Y-109220000D03*
%TO.N,~CE~_BIOS*%
X128905000Y-59055010D03*
%TO.N,A14*%
X134620000Y-132715000D03*
X113030000Y-132715000D03*
X110490000Y-88265000D03*
X109220000Y-90805000D03*
%TO.N,~IOR_OR_MEMR*%
X143510000Y-110665010D03*
%TO.N,~CE~_BIOS_DECODE*%
X121920000Y-89359990D03*
X121920000Y-107315000D03*
X119380000Y-108585000D03*
X113030000Y-80010000D03*
%TO.N,~IOR~_DELAYED*%
X161925000Y-104775008D03*
X130810000Y-105410000D03*
%TD*%
D23*
%TO.N,A00*%
X132080000Y-83820000D02*
X132080000Y-82550000D01*
X133350000Y-85090000D02*
X132080000Y-83820000D01*
X133350000Y-87630000D02*
X133350000Y-85090000D01*
X132080000Y-88900000D02*
X133350000Y-87630000D01*
X132080000Y-101600000D02*
X132080000Y-88900000D01*
X133350000Y-68580000D02*
X133350000Y-66675000D01*
X132080000Y-69850000D02*
X133350000Y-68580000D01*
X132080000Y-82550000D02*
X132080000Y-69850000D01*
X131445000Y-65405000D02*
X132080000Y-65405000D01*
X129540000Y-63500000D02*
X131445000Y-65405000D01*
X133350000Y-66675000D02*
X132080000Y-65405000D01*
X125730000Y-122555000D02*
X123825000Y-124460000D01*
X128270000Y-113030000D02*
X125730000Y-115570000D01*
X128270000Y-111760000D02*
X128270000Y-113030000D01*
X132080000Y-107950000D02*
X128270000Y-111760000D01*
X132080000Y-101600000D02*
X132080000Y-107950000D01*
X125730000Y-115570000D02*
X125730000Y-122555000D01*
X102870000Y-125730000D02*
X102235000Y-125730000D01*
X104775000Y-127635000D02*
X102870000Y-125730000D01*
X104775000Y-130175000D02*
X104775000Y-127635000D01*
X102870000Y-132080000D02*
X104775000Y-130175000D01*
X100965000Y-132080000D02*
X102870000Y-132080000D01*
X99060000Y-133985000D02*
X100965000Y-132080000D01*
X99060000Y-138430000D02*
X99060000Y-133985000D01*
%TO.N,A01*%
X123190000Y-115570000D02*
X123190000Y-115641194D01*
X123190000Y-115570000D02*
X123190000Y-121920006D01*
X129540000Y-101600000D02*
X130810000Y-100330000D01*
X130810000Y-100330000D02*
X130810000Y-85090000D01*
X130810000Y-85090000D02*
X129540000Y-83820000D01*
X129540000Y-83820000D02*
X129540000Y-82550000D01*
X125730000Y-113030000D02*
X123190000Y-115570000D01*
X125730000Y-111760000D02*
X125730000Y-113030000D01*
X129540000Y-107950000D02*
X125730000Y-111760000D01*
X129540000Y-101600000D02*
X129540000Y-107950000D01*
X101600000Y-133985000D02*
X101600000Y-138430000D01*
X102235000Y-133350000D02*
X101600000Y-133985000D01*
X103251250Y-133350000D02*
X102235000Y-133350000D01*
X106045000Y-130556250D02*
X103251250Y-133350000D01*
X106045000Y-127635000D02*
X106045000Y-130556250D01*
X102870000Y-124460000D02*
X106045000Y-127635000D01*
X101600000Y-124460000D02*
X102870000Y-124460000D01*
X129540000Y-82550000D02*
X129540000Y-72390000D01*
%TO.N,A02*%
X127000000Y-107950000D02*
X127000000Y-101600000D01*
X123190000Y-111760000D02*
X127000000Y-107950000D01*
X123190000Y-113082618D02*
X123190000Y-111760000D01*
X120650000Y-115622618D02*
X123190000Y-113082618D01*
X120650000Y-121920000D02*
X120650000Y-115622618D01*
X121920000Y-63500000D02*
X122555000Y-63500000D01*
X124460000Y-65405000D02*
X122555000Y-63500000D01*
X127000000Y-65405000D02*
X124460000Y-65405000D01*
X128270000Y-66675000D02*
X127000000Y-65405000D01*
X127000000Y-100270001D02*
X128329999Y-98940002D01*
X127000000Y-101600000D02*
X127000000Y-100270001D01*
X128285322Y-74914678D02*
X128270000Y-66675000D01*
X127000000Y-82550000D02*
X128297108Y-81252892D01*
X128297108Y-81252892D02*
X128285322Y-74914678D01*
X127000000Y-82550000D02*
X128301941Y-83851941D01*
X128329999Y-98940002D02*
X128301941Y-83851941D01*
X102870000Y-123190000D02*
X102235000Y-123190000D01*
X107315000Y-130810000D02*
X107315000Y-127635000D01*
X104140000Y-133985000D02*
X107315000Y-130810000D01*
X107315000Y-127635000D02*
X102870000Y-123190000D01*
X104140000Y-138430000D02*
X104140000Y-133985000D01*
%TO.N,A03*%
X102870000Y-121920000D02*
X101600000Y-121920000D01*
X108585000Y-127635000D02*
X102870000Y-121920000D01*
X108585000Y-131445000D02*
X108585000Y-127635000D01*
X106680000Y-133350000D02*
X108585000Y-131445000D01*
X106680000Y-138430000D02*
X106680000Y-133350000D01*
X118110000Y-121920000D02*
X118110000Y-115455802D01*
X124460000Y-107918486D02*
X124460000Y-89359990D01*
X118110000Y-115455802D02*
X120659832Y-112905970D01*
X120659832Y-111718654D02*
X124460000Y-107918486D01*
X120659832Y-112905970D02*
X120659832Y-111718654D01*
X124460000Y-82550000D02*
X124460000Y-73660000D01*
%TO.N,A04*%
X101600000Y-120015000D02*
X102870000Y-120015000D01*
X109220000Y-133350000D02*
X109220000Y-134620000D01*
X109855000Y-132715000D02*
X109220000Y-133350000D01*
X109220000Y-134620000D02*
X109220000Y-138430000D01*
X109855000Y-127635000D02*
X109855000Y-132715000D01*
X102870000Y-120650000D02*
X109855000Y-127635000D01*
X102870000Y-120015000D02*
X102870000Y-120650000D01*
X121920000Y-83820000D02*
X121920000Y-82550000D01*
X123190000Y-85090000D02*
X121920000Y-83820000D01*
X123190000Y-100330000D02*
X123190000Y-85090000D01*
X121920000Y-101600000D02*
X123190000Y-100330000D01*
X102870000Y-120015000D02*
X102870000Y-107315000D01*
X102870000Y-107315000D02*
X103505000Y-106680000D01*
%TO.N,A05*%
X119380000Y-83820000D02*
X119380000Y-82550000D01*
X120650000Y-87630000D02*
X120650000Y-85090000D01*
X120650000Y-85090000D02*
X119380000Y-83820000D01*
X119380000Y-88900000D02*
X120650000Y-87630000D01*
X119380000Y-101600000D02*
X119380000Y-88900000D01*
X111760000Y-138430000D02*
X111760000Y-128270000D01*
X111760000Y-128270000D02*
X104140000Y-120650000D01*
X104140000Y-120650000D02*
X104140000Y-114935000D01*
X104140000Y-114935000D02*
X105410000Y-113665000D01*
X105410000Y-104902018D02*
X104711491Y-104203509D01*
X105410000Y-113665000D02*
X105410000Y-104902018D01*
%TO.N,A06*%
X116840000Y-83681370D02*
X116840000Y-82550000D01*
X118110000Y-84951370D02*
X116840000Y-83681370D01*
X118110000Y-87630000D02*
X118110000Y-84951370D01*
X116840000Y-88900000D02*
X118110000Y-87630000D01*
X116840000Y-101600000D02*
X116840000Y-88900000D01*
X114300000Y-128270000D02*
X106680000Y-120650000D01*
X114300000Y-138430000D02*
X114300000Y-128270000D01*
X114300000Y-107315000D02*
X113665000Y-107315000D01*
X106680000Y-116840000D02*
X110490000Y-113030000D01*
X110490000Y-113030000D02*
X110490000Y-110490000D01*
X106680000Y-120650000D02*
X106680000Y-116840000D01*
X110490000Y-110490000D02*
X113665000Y-107315000D01*
X116840000Y-102933500D02*
X119380000Y-105473500D01*
X119380000Y-105473500D02*
X119380000Y-106045000D01*
X116840000Y-101600000D02*
X116840000Y-102933500D01*
%TO.N,A07*%
X114300000Y-83681370D02*
X114300000Y-82550000D01*
X115570000Y-84951370D02*
X114300000Y-83681370D01*
X115570000Y-87630000D02*
X115570000Y-84951370D01*
X114300000Y-88900000D02*
X115570000Y-87630000D01*
X114300000Y-101600000D02*
X114300000Y-88900000D01*
X114300000Y-103505000D02*
X114300000Y-101600000D01*
X115570000Y-109220000D02*
X115570000Y-104775000D01*
X113030000Y-111760000D02*
X115570000Y-109220000D01*
X113030000Y-114300000D02*
X113030000Y-111760000D01*
X109220000Y-118110000D02*
X113030000Y-114300000D01*
X109220000Y-120650000D02*
X109220000Y-118110000D01*
X115570000Y-104775000D02*
X114300000Y-103505000D01*
X116840000Y-128270000D02*
X109220000Y-120650000D01*
X116840000Y-138430000D02*
X116840000Y-128270000D01*
%TO.N,A08*%
X115570000Y-68580000D02*
X116840000Y-67310000D01*
X116840000Y-85090000D02*
X115570000Y-83820000D01*
X115570000Y-83820000D02*
X115570000Y-68580000D01*
X116840000Y-86360000D02*
X116840000Y-85090000D01*
X119380000Y-133985000D02*
X119380000Y-138430000D01*
X118110000Y-128270000D02*
X118110000Y-132715000D01*
X111760000Y-118110000D02*
X111760000Y-121920000D01*
X118110000Y-132715000D02*
X119380000Y-133985000D01*
X115570000Y-114300000D02*
X111760000Y-118110000D01*
X115570000Y-111760000D02*
X115570000Y-114300000D01*
X118110000Y-106045000D02*
X118110000Y-109220000D01*
X115570000Y-103505000D02*
X118110000Y-106045000D01*
X115570000Y-88900000D02*
X115570000Y-103505000D01*
X111760000Y-121920000D02*
X118110000Y-128270000D01*
X118110000Y-109220000D02*
X115570000Y-111760000D01*
X116840000Y-87630000D02*
X115570000Y-88900000D01*
X116840000Y-86360000D02*
X116840000Y-87630000D01*
%TO.N,A09*%
X118110000Y-68580000D02*
X119380000Y-67310000D01*
X118110000Y-83748940D02*
X118110000Y-68580000D01*
X119380000Y-85018940D02*
X118110000Y-83748940D01*
X119380000Y-86288940D02*
X119380000Y-85018940D01*
X119380000Y-131445000D02*
X121920000Y-133985000D01*
X114300000Y-117475000D02*
X114300000Y-123190000D01*
X121920000Y-133985000D02*
X121920000Y-138430000D01*
X120650000Y-109220000D02*
X118110000Y-111760000D01*
X118110000Y-111760000D02*
X118110000Y-113665000D01*
X120650000Y-105156000D02*
X120650000Y-109220000D01*
X119380000Y-128270000D02*
X119380000Y-131445000D01*
X118164999Y-102670999D02*
X120650000Y-105156000D01*
X114300000Y-123190000D02*
X119380000Y-128270000D01*
X118164999Y-88845001D02*
X118164999Y-102670999D01*
X118110000Y-113665000D02*
X114300000Y-117475000D01*
X119380000Y-87630000D02*
X118164999Y-88845001D01*
X119380000Y-86360000D02*
X119380000Y-87630000D01*
%TO.N,A10*%
X127000000Y-85839198D02*
X126992600Y-85839198D01*
X124460000Y-133985000D02*
X124460000Y-138430000D01*
X126365000Y-132080000D02*
X124460000Y-133985000D01*
X126365000Y-124460000D02*
X126365000Y-132080000D01*
X127000000Y-123825000D02*
X126365000Y-124460000D01*
X125789999Y-84358026D02*
X127000000Y-85568027D01*
X127000000Y-85568027D02*
X127000000Y-86360000D01*
X125789999Y-68520001D02*
X125789999Y-84358026D01*
X127000000Y-67310000D02*
X125789999Y-68520001D01*
X148590000Y-117475000D02*
X151070001Y-114994999D01*
X153035000Y-108585000D02*
X153035000Y-90830032D01*
X151070001Y-110549999D02*
X153035000Y-108585000D01*
X151070001Y-114994999D02*
X151070001Y-110549999D01*
X148590000Y-121920000D02*
X148590000Y-117475000D01*
X153035000Y-90830032D02*
X153035000Y-85725000D01*
%TO.N,A11*%
X127635000Y-126365000D02*
X129540000Y-124460000D01*
X127635000Y-133350000D02*
X127635000Y-126365000D01*
X127000000Y-133985000D02*
X127635000Y-133350000D01*
X127000000Y-138430000D02*
X127000000Y-133985000D01*
X146109999Y-109800801D02*
X138430000Y-102120802D01*
X146109999Y-112855803D02*
X146109999Y-109800801D01*
X142240000Y-115570000D02*
X143395802Y-115570000D01*
X138430000Y-119380000D02*
X142240000Y-115570000D01*
X143395802Y-115570000D02*
X146109999Y-112855803D01*
X138430000Y-125095000D02*
X138430000Y-119380000D01*
X138430000Y-102120802D02*
X138430000Y-91440000D01*
X120650000Y-68580000D02*
X120650000Y-83820000D01*
X121920000Y-67310000D02*
X120650000Y-68580000D01*
X120650000Y-83820000D02*
X121920000Y-85090000D01*
X121920000Y-85090000D02*
X121920000Y-87630000D01*
X121920000Y-87630000D02*
X120650000Y-88900000D01*
X120650000Y-88900000D02*
X120650000Y-91440000D01*
%TO.N,A12*%
X129540000Y-138430000D02*
X129540000Y-130175000D01*
X111760000Y-83681370D02*
X111760000Y-82550000D01*
X113030000Y-84951370D02*
X111760000Y-83681370D01*
X113030000Y-87630000D02*
X113030000Y-84951370D01*
X111760000Y-88900000D02*
X113030000Y-87630000D01*
X111760000Y-101600000D02*
X111760000Y-88900000D01*
X108009999Y-120709999D02*
X115570000Y-128270000D01*
X108009999Y-117288001D02*
X108009999Y-120709999D01*
X111252000Y-114046000D02*
X108009999Y-117288001D01*
X115570000Y-128270000D02*
X115570000Y-129540000D01*
X112395000Y-105409992D02*
X112395008Y-105410000D01*
X112395000Y-102235000D02*
X112395000Y-105409992D01*
X111760000Y-101600000D02*
X112395000Y-102235000D01*
%TO.N,A13*%
X133350000Y-106045000D02*
X133350000Y-92075000D01*
X133985000Y-129540000D02*
X133985000Y-119380000D01*
X132080000Y-131445000D02*
X133985000Y-129540000D01*
X132080000Y-138430000D02*
X132080000Y-131445000D01*
X138430000Y-111125000D02*
X133350000Y-106045000D01*
X138430000Y-114935000D02*
X138430000Y-111125000D01*
X133985000Y-119380000D02*
X138430000Y-114935000D01*
X114300000Y-80645000D02*
X114300000Y-67310000D01*
X113030000Y-83820000D02*
X113030000Y-81915000D01*
X113030000Y-81915000D02*
X114300000Y-80645000D01*
X114300000Y-85090000D02*
X113030000Y-83820000D01*
X114300000Y-86360000D02*
X114300000Y-85090000D01*
X113030000Y-88900000D02*
X113030000Y-90170000D01*
X114300000Y-87630000D02*
X113030000Y-88900000D01*
X114300000Y-86360000D02*
X114300000Y-87630000D01*
%TO.N,A15*%
X137160000Y-132715000D02*
X137160000Y-138430000D01*
X119380000Y-115570000D02*
X120650000Y-114300000D01*
X119380000Y-125095000D02*
X119380000Y-115570000D01*
X123190000Y-128905000D02*
X119380000Y-125095000D01*
X123190000Y-131445000D02*
X123190000Y-128905000D01*
X106680000Y-99060000D02*
X105410000Y-100330000D01*
X106045000Y-103576198D02*
X106045000Y-106680000D01*
X106680000Y-86360000D02*
X106680000Y-99060000D01*
X105410000Y-102941198D02*
X106045000Y-103576198D01*
X105410000Y-100330000D02*
X105410000Y-102941198D01*
X106045000Y-106680000D02*
X107315000Y-107950000D01*
%TO.N,A16*%
X139700000Y-133350000D02*
X139700000Y-138430000D01*
X137795000Y-131445000D02*
X139700000Y-133350000D01*
X106680000Y-101600000D02*
X106680000Y-102870000D01*
X106680000Y-102870000D02*
X107315000Y-103505000D01*
X107315000Y-103505000D02*
X107315000Y-106045006D01*
X122155001Y-115334999D02*
X122555000Y-114935000D01*
X121920000Y-115570000D02*
X122155001Y-115334999D01*
X121920000Y-120015000D02*
X121920000Y-115570000D01*
X125095000Y-128905000D02*
X121920000Y-125730000D01*
X121920000Y-125730000D02*
X121920000Y-120015000D01*
X125095000Y-131445000D02*
X125095000Y-128905000D01*
%TO.N,A17*%
X135255000Y-125730000D02*
X135255000Y-127000000D01*
X135255000Y-127000000D02*
X142240000Y-133985000D01*
X142240000Y-133985000D02*
X142240000Y-138430000D01*
X124460000Y-115570000D02*
X125730000Y-114300000D01*
X124460000Y-120015000D02*
X124460000Y-115570000D01*
X111125000Y-103505000D02*
X111125000Y-106680000D01*
X110490000Y-102870000D02*
X111125000Y-103505000D01*
X110490000Y-90170000D02*
X110490000Y-102870000D01*
X109220000Y-88900000D02*
X110490000Y-90170000D01*
X109220000Y-86360000D02*
X109220000Y-88900000D01*
%TO.N,A18*%
X144780000Y-138430000D02*
X144780000Y-132715000D01*
X144780000Y-132715000D02*
X137795000Y-125730000D01*
X127000000Y-116840000D02*
X127000000Y-115570000D01*
X127000000Y-118110000D02*
X127000000Y-116840000D01*
X127000000Y-118110000D02*
X127000000Y-120015000D01*
X137160000Y-125095000D02*
X137160000Y-122380000D01*
X137795000Y-125730000D02*
X137160000Y-125095000D01*
%TO.N,A19*%
X129540000Y-113030000D02*
X129540000Y-112395000D01*
X128270000Y-114300000D02*
X129540000Y-113030000D01*
X128270000Y-121285000D02*
X128270000Y-114300000D01*
X129540000Y-112395000D02*
X133350000Y-108585000D01*
X133350000Y-108585000D02*
X133350000Y-108484990D01*
X129540000Y-99851972D02*
X129540000Y-86360000D01*
X128210001Y-101181971D02*
X129540000Y-99851972D01*
X128210001Y-107909989D02*
X128210001Y-101181971D01*
X127635000Y-108484990D02*
X128210001Y-107909989D01*
X147320000Y-131444978D02*
X139700000Y-123824978D01*
X139700000Y-123824978D02*
X139700000Y-121920000D01*
X147320000Y-138430000D02*
X147320000Y-131444978D01*
%TO.N,D0*%
X154940000Y-133985000D02*
X154940000Y-138430000D01*
X153670000Y-132715000D02*
X154940000Y-133985000D01*
X153670000Y-132715000D02*
X151130000Y-132715000D01*
X151130000Y-132715000D02*
X145415000Y-127000000D01*
X145415000Y-127000000D02*
X145415000Y-126365000D01*
X145415000Y-126365000D02*
X139700000Y-120650000D01*
X139700000Y-120650000D02*
X139700000Y-120015000D01*
%TO.N,D1*%
X157480000Y-133985000D02*
X157480000Y-138430000D01*
X156845000Y-133350000D02*
X157480000Y-133985000D01*
X155575000Y-133350000D02*
X156845000Y-133350000D01*
X151130000Y-129540000D02*
X151765000Y-129540000D01*
X151765000Y-129540000D02*
X155575000Y-133350000D01*
X142240000Y-120650000D02*
X151130000Y-129540000D01*
X142240000Y-120015000D02*
X142240000Y-120650000D01*
%TO.N,D2*%
X160020000Y-133985000D02*
X160020000Y-138430000D01*
X158115000Y-132080000D02*
X160020000Y-133985000D01*
X155575000Y-132080000D02*
X158115000Y-132080000D01*
X144780000Y-121285000D02*
X155575000Y-132080000D01*
X144780000Y-120015000D02*
X144780000Y-121285000D01*
%TO.N,D3*%
X162560000Y-133985000D02*
X162560000Y-138430000D01*
X159385000Y-130810000D02*
X162560000Y-133985000D01*
X155575000Y-130810000D02*
X159385000Y-130810000D01*
X147320000Y-122555000D02*
X155575000Y-130810000D01*
X147320000Y-120015000D02*
X147320000Y-122555000D01*
%TO.N,D4*%
X165100000Y-133985000D02*
X165100000Y-138430000D01*
X160655000Y-129540000D02*
X165100000Y-133985000D01*
X156210000Y-129540000D02*
X160655000Y-129540000D01*
X149860000Y-123190000D02*
X156210000Y-129540000D01*
X149860000Y-120015000D02*
X149860000Y-123190000D01*
%TO.N,D5*%
X156845000Y-128270000D02*
X152400000Y-123825000D01*
X160840259Y-128270000D02*
X156845000Y-128270000D01*
X165920259Y-133350000D02*
X160840259Y-128270000D01*
X152400000Y-123825000D02*
X152400000Y-120015000D01*
X167005000Y-133350000D02*
X165920259Y-133350000D01*
X167640000Y-133985000D02*
X167005000Y-133350000D01*
X167640000Y-138430000D02*
X167640000Y-133985000D01*
%TO.N,D6*%
X161925000Y-121920000D02*
X156845000Y-121920000D01*
X167132000Y-129921000D02*
X167132000Y-127127000D01*
X156845000Y-121920000D02*
X154940000Y-120015000D01*
X170180000Y-132969000D02*
X167132000Y-129921000D01*
X167132000Y-127127000D02*
X161925000Y-121920000D01*
X170180000Y-138430000D02*
X170180000Y-132969000D01*
%TO.N,D7*%
X172720000Y-134270000D02*
X172720000Y-138430000D01*
X172720000Y-133350000D02*
X172720000Y-134270000D01*
X173355000Y-132715000D02*
X172720000Y-133350000D01*
X172720000Y-129540000D02*
X173355000Y-130175000D01*
X171450000Y-129540000D02*
X172720000Y-129540000D01*
X158115000Y-121285000D02*
X163195000Y-121285000D01*
X157480000Y-120650000D02*
X158115000Y-121285000D01*
X173355000Y-130175000D02*
X173355000Y-132715000D01*
X163195000Y-121285000D02*
X171450000Y-129540000D01*
X157480000Y-120015000D02*
X157480000Y-120650000D01*
D24*
%TO.N,GND*%
X142240000Y-82550000D02*
X144780000Y-82550000D01*
X160020000Y-120015000D02*
X161925000Y-120015000D01*
X122555000Y-55880000D02*
X122555000Y-53340000D01*
X142240000Y-101600000D02*
X142240000Y-97790000D01*
X142240000Y-97790000D02*
X142240000Y-94615000D01*
X144780000Y-61595000D02*
X144780000Y-69215000D01*
X129540000Y-118110000D02*
X129540000Y-120015000D01*
X129540000Y-117475000D02*
X129540000Y-118110000D01*
X129540000Y-114935000D02*
X129540000Y-117475000D01*
X167640000Y-108077000D02*
X167640000Y-111125000D01*
X167640000Y-59817000D02*
X167640000Y-57150000D01*
X142240000Y-94615000D02*
X145415000Y-94615000D01*
X142240000Y-97790000D02*
X145415000Y-97790000D01*
X142240000Y-101600000D02*
X145415000Y-101600000D01*
X145415000Y-94615000D02*
X148590000Y-94615000D01*
X145415000Y-97790000D02*
X148590000Y-97790000D01*
X145415000Y-101600000D02*
X148590000Y-101600000D01*
X144780000Y-69215000D02*
X144780000Y-76835000D01*
X144780000Y-76835000D02*
X144780000Y-79375000D01*
X144780000Y-79375000D02*
X144780000Y-82550000D01*
X144780000Y-81915000D02*
X149225000Y-81915000D01*
X144780000Y-79375000D02*
X149225000Y-79375000D01*
X144780000Y-76835000D02*
X149225000Y-76835000D01*
X149225000Y-76835000D02*
X153670000Y-76835000D01*
X149225000Y-79375000D02*
X153670000Y-79375000D01*
X149225000Y-81915000D02*
X153670000Y-81915000D01*
X153670000Y-76835000D02*
X158115000Y-76835000D01*
X153670000Y-79375000D02*
X158115000Y-79375000D01*
X153670000Y-81915000D02*
X158115000Y-81915000D01*
X153035000Y-63500000D02*
X144780000Y-63500000D01*
X154305000Y-64770000D02*
X153035000Y-63500000D01*
X154305000Y-69850000D02*
X154305000Y-64770000D01*
X154305000Y-69850000D02*
X155575000Y-68580000D01*
X155575000Y-68580000D02*
X156210000Y-67945000D01*
X156210000Y-67945000D02*
X158115000Y-66040000D01*
X158115000Y-66040000D02*
X160020000Y-64135000D01*
X160020000Y-64135000D02*
X161925000Y-62230000D01*
X144780000Y-63500000D02*
X141605000Y-63500000D01*
X141605000Y-63500000D02*
X139065000Y-63500000D01*
X135255000Y-63500000D02*
X139065000Y-63500000D01*
X167640000Y-57150000D02*
X167640000Y-56515000D01*
X167640000Y-56515000D02*
X170815000Y-56515000D01*
X170815000Y-56515000D02*
X170815000Y-59690000D01*
X170688000Y-72517000D02*
X170815000Y-72390000D01*
X167640000Y-72517000D02*
X170688000Y-72517000D01*
X170688000Y-77597000D02*
X170815000Y-77470000D01*
X167640000Y-77597000D02*
X170688000Y-77597000D01*
X170688000Y-80137000D02*
X170815000Y-80010000D01*
X167640000Y-80137000D02*
X170688000Y-80137000D01*
X170688000Y-82677000D02*
X170815000Y-82550000D01*
X167640000Y-82677000D02*
X170688000Y-82677000D01*
X179411000Y-59817000D02*
X176657000Y-59817000D01*
D25*
%TO.N,VCC*%
X102235000Y-127635000D02*
X102235000Y-129540000D01*
D24*
X98425000Y-108585000D02*
X98425000Y-107950000D01*
X99060000Y-109855000D02*
X98425000Y-109855000D01*
D25*
X98425000Y-109855000D02*
X98425000Y-111760000D01*
D24*
X99060000Y-111760000D02*
X98425000Y-111760000D01*
D25*
X98425000Y-111760000D02*
X98425000Y-113665000D01*
D26*
X100965000Y-127635000D02*
X98425000Y-125095000D01*
D25*
X98425000Y-91440000D02*
X98425000Y-88900000D01*
X173990000Y-120015000D02*
X172085000Y-120015000D01*
X173990000Y-120015000D02*
X173990000Y-118110000D01*
X173990000Y-118110000D02*
X172085000Y-120015000D01*
X172085000Y-120015000D02*
X172085000Y-120015000D01*
X98425000Y-106045000D02*
X98425000Y-107315000D01*
D24*
X99060000Y-110490000D02*
X98425000Y-109855000D01*
D25*
X98425000Y-107315000D02*
X98425000Y-109220000D01*
X98425000Y-109220000D02*
X98425000Y-109855000D01*
X98425000Y-104775000D02*
X98425000Y-106045000D01*
X98425000Y-91440000D02*
X98425000Y-104775000D01*
D24*
X99060000Y-106045000D02*
X98425000Y-106045000D01*
X98425000Y-108585000D02*
X98425000Y-109220000D01*
D27*
X129540000Y-127635000D02*
X132080000Y-127635000D01*
D24*
X98425000Y-90805000D02*
X98425000Y-91440000D01*
D25*
X98425000Y-85090000D02*
X98425000Y-86360000D01*
X100330000Y-53340000D02*
X98425000Y-55245000D01*
X98425000Y-70485000D02*
X98425000Y-85090000D01*
D23*
X101600000Y-53975000D02*
X102235000Y-53340000D01*
X101600000Y-55880000D02*
X101600000Y-53975000D01*
D25*
X102235000Y-53340000D02*
X100330000Y-53340000D01*
D23*
X104140000Y-53975000D02*
X103505000Y-53340000D01*
X104140000Y-55880000D02*
X104140000Y-53975000D01*
D25*
X103505000Y-53340000D02*
X102235000Y-53340000D01*
D23*
X106680000Y-53975000D02*
X107315000Y-53340000D01*
X107950000Y-55880000D02*
X107950000Y-53975000D01*
D25*
X107315000Y-53340000D02*
X103505000Y-53340000D01*
D24*
X99060000Y-104775000D02*
X98425000Y-104775000D01*
D25*
X98425000Y-127635000D02*
X102235000Y-127635000D01*
X102235000Y-129540000D02*
X100965000Y-127635000D01*
X98425000Y-129540000D02*
X102235000Y-129540000D01*
X98425000Y-127000000D02*
X98425000Y-129540000D01*
X98425000Y-113665000D02*
X98425000Y-127000000D01*
D27*
X131826000Y-125349000D02*
X131826000Y-124968000D01*
X129540000Y-127635000D02*
X131826000Y-125349000D01*
X132080000Y-127635000D02*
X131826000Y-125730000D01*
D23*
X166379999Y-63617001D02*
X167640000Y-62357000D01*
X166379999Y-71237001D02*
X166379999Y-63617001D01*
X165100000Y-72517000D02*
X166379999Y-71237001D01*
D28*
X104140000Y-67310000D02*
X100965000Y-67310000D01*
X99060000Y-67310000D02*
X98425000Y-67945000D01*
X100965000Y-67310000D02*
X99060000Y-67310000D01*
D25*
X98425000Y-66040000D02*
X98425000Y-67945000D01*
X98425000Y-55245000D02*
X98425000Y-66040000D01*
D28*
X100965000Y-67310000D02*
X99695000Y-67310000D01*
D25*
X98425000Y-68580000D02*
X98425000Y-70485000D01*
X98425000Y-67945000D02*
X98425000Y-68580000D01*
D28*
X98425000Y-66421000D02*
X98425000Y-66040000D01*
X99314000Y-67310000D02*
X98425000Y-66421000D01*
X99695000Y-67310000D02*
X99314000Y-67310000D01*
X98425000Y-68199000D02*
X98425000Y-68580000D01*
X99314000Y-67310000D02*
X98425000Y-68199000D01*
X104140000Y-86360000D02*
X100965000Y-86360000D01*
X100965000Y-86360000D02*
X98425000Y-86360000D01*
D25*
X98425000Y-87757000D02*
X98425000Y-86360000D01*
X98425000Y-91440000D02*
X98425000Y-87757000D01*
D28*
X98425000Y-85471000D02*
X98425000Y-85090000D01*
X99314000Y-86360000D02*
X98425000Y-85471000D01*
X100965000Y-86360000D02*
X99314000Y-86360000D01*
X98425000Y-87249000D02*
X98425000Y-87757000D01*
X99314000Y-86360000D02*
X98425000Y-87249000D01*
X100965000Y-109220000D02*
X98425000Y-109220000D01*
X100965000Y-109220000D02*
X99256010Y-109220000D01*
X98425000Y-108388990D02*
X98425000Y-107315000D01*
X99256010Y-109220000D02*
X98425000Y-108388990D01*
X98425000Y-110051010D02*
X98425000Y-111760000D01*
X99256010Y-109220000D02*
X98425000Y-110051010D01*
D27*
X133985000Y-114300000D02*
X133350000Y-114935000D01*
X131826000Y-116443990D02*
X133985000Y-114300000D01*
X131826000Y-127381000D02*
X131826000Y-116443990D01*
X132080000Y-127635000D02*
X131826000Y-127381000D01*
D28*
X133985000Y-112395000D02*
X133985000Y-114300000D01*
X114300000Y-55880000D02*
X111760000Y-53340000D01*
D25*
X111760000Y-53340000D02*
X107315000Y-53340000D01*
D28*
X117475000Y-55880000D02*
X114300000Y-55880000D01*
D23*
X175895000Y-68580000D02*
X177165000Y-67310000D01*
X167640000Y-62357000D02*
X169672000Y-62357000D01*
D29*
X181951000Y-62524000D02*
X181951000Y-59817000D01*
D25*
X179070000Y-65405000D02*
X181951000Y-62524000D01*
X173990000Y-118110000D02*
X173990000Y-70485000D01*
D23*
X174942500Y-68897500D02*
X175260000Y-69215000D01*
D25*
X173990000Y-70485000D02*
X175260000Y-69215000D01*
D23*
X169672000Y-62357000D02*
X174942500Y-67627500D01*
X174942500Y-67627500D02*
X174942500Y-68897500D01*
X174942500Y-67627500D02*
X175895000Y-68580000D01*
X176212500Y-67627500D02*
X176530000Y-67945000D01*
X174942500Y-67627500D02*
X176212500Y-67627500D01*
D25*
X176530000Y-67945000D02*
X179070000Y-65405000D01*
X175260000Y-69215000D02*
X176530000Y-67945000D01*
D23*
%TO.N,~IOR*%
X109220000Y-112395000D02*
X109220000Y-110490000D01*
X114300000Y-105410000D02*
X109220000Y-110490000D01*
X140970000Y-109855000D02*
X135255000Y-104140000D01*
X135949999Y-118685001D02*
X140970000Y-113665000D01*
X141605000Y-131445000D02*
X141605000Y-130879315D01*
X140970000Y-113665000D02*
X140970000Y-109855000D01*
X141605000Y-130879315D02*
X135949999Y-125224314D01*
X135949999Y-125224314D02*
X135949999Y-118685001D01*
%TO.N,~IOW*%
X145415000Y-131445000D02*
X139699991Y-125729991D01*
X153670000Y-123190000D02*
X156210000Y-125730000D01*
X153670000Y-117589198D02*
X153670000Y-123190000D01*
X156959198Y-114300000D02*
X153670000Y-117589198D01*
X160020000Y-114300000D02*
X156959198Y-114300000D01*
X163195000Y-111125000D02*
X160020000Y-114300000D01*
X163195000Y-82042000D02*
X163195000Y-111125000D01*
X165100000Y-80137000D02*
X163195000Y-82042000D01*
%TO.N,~MEMR*%
X148590000Y-112915802D02*
X148590000Y-107950000D01*
X151130000Y-130810000D02*
X140970000Y-120650000D01*
X140970000Y-120650000D02*
X140970000Y-119380000D01*
X140970000Y-119380000D02*
X143827500Y-116522500D01*
X143827500Y-116522500D02*
X144983302Y-116522500D01*
X144983302Y-116522500D02*
X148590000Y-112915802D01*
X119380000Y-111760000D02*
X123190000Y-107950000D01*
X123190000Y-107950000D02*
X123190000Y-107315000D01*
X119380000Y-112395000D02*
X119380000Y-111760000D01*
%TO.N,~MEMW*%
X142240000Y-125025685D02*
X142240000Y-124460000D01*
X149860000Y-132645685D02*
X142240000Y-125025685D01*
X149860000Y-133350000D02*
X149860000Y-132645685D01*
X155575000Y-109890599D02*
X155575000Y-90805000D01*
X153610001Y-111855598D02*
X155575000Y-109890599D01*
X153610001Y-114994999D02*
X153610001Y-111855598D01*
X151130000Y-117475000D02*
X153610001Y-114994999D01*
X151130000Y-121920000D02*
X151130000Y-117475000D01*
X106680000Y-79375000D02*
X106680000Y-67310000D01*
%TO.N,RESET*%
X120650000Y-128270000D02*
X120650000Y-130810006D01*
X169545000Y-130810000D02*
X172085000Y-130810000D01*
X168275000Y-129540000D02*
X169545000Y-130810000D01*
X116840000Y-120015000D02*
X116840000Y-124460000D01*
X116840000Y-124460000D02*
X120650000Y-128270000D01*
%TO.N,~CS1~_ATA*%
X163258500Y-77406500D02*
X160654986Y-80010014D01*
X163258500Y-64198500D02*
X163258500Y-77406500D01*
X160654986Y-106680000D02*
X160654986Y-80010014D01*
X163258500Y-64198500D02*
X165100000Y-62357000D01*
X116840000Y-109220000D02*
X116840000Y-107315000D01*
X114300000Y-111760000D02*
X116840000Y-109220000D01*
X114300000Y-112395000D02*
X114300000Y-111760000D01*
%TO.N,D0_BUF*%
X134620000Y-102235000D02*
X134620000Y-101600000D01*
X134620000Y-83820000D02*
X134620000Y-82550000D01*
X135890000Y-85090000D02*
X134620000Y-83820000D01*
X135890000Y-99060000D02*
X135890000Y-85090000D01*
X134620000Y-100330000D02*
X135890000Y-99060000D01*
X134620000Y-101600000D02*
X134620000Y-100330000D01*
X142240000Y-109220000D02*
X142240000Y-112395000D01*
X134620000Y-101600000D02*
X142240000Y-109220000D01*
X135890000Y-66675000D02*
X135890000Y-71120000D01*
X134620000Y-65405000D02*
X135890000Y-66675000D01*
X134620000Y-72390000D02*
X134620000Y-82550000D01*
X133985000Y-65405000D02*
X134620000Y-65405000D01*
X135890000Y-71120000D02*
X134620000Y-72390000D01*
X132080000Y-63500000D02*
X133985000Y-65405000D01*
%TO.N,D1_BUF*%
X137160000Y-102235000D02*
X137160000Y-101600000D01*
X144780000Y-109855000D02*
X137160000Y-102235000D01*
X144780000Y-112395000D02*
X144780000Y-109855000D01*
X137160000Y-83820000D02*
X137160000Y-82550000D01*
X138430000Y-85090000D02*
X137160000Y-83820000D01*
X138430000Y-87312500D02*
X138430000Y-85090000D01*
X137160000Y-88582500D02*
X138430000Y-87312500D01*
X137160000Y-101600000D02*
X137160000Y-88582500D01*
%TO.N,D2_BUF*%
X147320000Y-109220000D02*
X147320000Y-112395000D01*
X139700000Y-101600000D02*
X147320000Y-109220000D01*
X139700000Y-82550000D02*
X139700000Y-83820000D01*
X140969992Y-85089992D02*
X140969992Y-91440000D01*
X139700000Y-83820000D02*
X140969992Y-85089992D01*
X139700000Y-92709992D02*
X140969992Y-91440000D01*
X139700000Y-101600000D02*
X139700000Y-92709992D01*
%TO.N,D3_BUF*%
X141029999Y-68520001D02*
X142240000Y-67310000D01*
X141029999Y-83914656D02*
X141029999Y-68520001D01*
X142240000Y-85124657D02*
X141029999Y-83914656D01*
X142240000Y-86360000D02*
X142240000Y-85124657D01*
X149860000Y-109855000D02*
X149860000Y-112395000D01*
X151765000Y-107950000D02*
X149860000Y-109855000D01*
X151765000Y-95250000D02*
X151765000Y-107950000D01*
X151765000Y-95250000D02*
X151765000Y-86360000D01*
%TO.N,D4_BUF*%
X138370001Y-68639999D02*
X139700000Y-67310000D01*
X138370001Y-83760001D02*
X138370001Y-68639999D01*
X139700000Y-85090000D02*
X138370001Y-83760001D01*
X139700000Y-86360000D02*
X139700000Y-85090000D01*
X154305000Y-109220000D02*
X154305000Y-97790000D01*
X152400000Y-111125000D02*
X154305000Y-109220000D01*
X152400000Y-112395000D02*
X152400000Y-111125000D01*
X154305000Y-97790000D02*
X154305000Y-87630000D01*
X154305000Y-86995000D02*
X154305000Y-87630000D01*
%TO.N,D5_BUF*%
X156669988Y-100505012D02*
X156845000Y-100330000D01*
X154940000Y-112395000D02*
X156669988Y-110665012D01*
X156669988Y-110665012D02*
X156669988Y-100505012D01*
X156845000Y-100330000D02*
X156845000Y-86995000D01*
X137160000Y-72390000D02*
X137160000Y-67310000D01*
X135890000Y-73660000D02*
X137160000Y-72390000D01*
X135890000Y-83820000D02*
X135890000Y-73660000D01*
X137160000Y-85090000D02*
X135890000Y-83820000D01*
X137160000Y-86360000D02*
X137160000Y-85090000D01*
%TO.N,D6_BUF*%
X158115000Y-111760000D02*
X158115000Y-102870000D01*
X157480000Y-112395000D02*
X158115000Y-111760000D01*
X158115000Y-102870000D02*
X158115000Y-87692230D01*
X133350000Y-71120000D02*
X134620000Y-69850000D01*
X134620000Y-69850000D02*
X134620000Y-67310000D01*
X134620000Y-85090000D02*
X133350000Y-83820000D01*
X133350000Y-83820000D02*
X133350000Y-71120000D01*
X134620000Y-86360000D02*
X134620000Y-85090000D01*
%TO.N,D7_BUF*%
X130810000Y-68580000D02*
X132080000Y-67310000D01*
X130810000Y-83820000D02*
X130810000Y-68580000D01*
X132080000Y-85090000D02*
X130810000Y-83820000D01*
X132080000Y-86360000D02*
X132080000Y-85090000D01*
X160020000Y-112395000D02*
X160020000Y-108585000D01*
X160020000Y-108585000D02*
X159385000Y-107950000D01*
X159385000Y-107950000D02*
X159385000Y-89534990D01*
%TO.N,~RESET*%
X111760000Y-112395000D02*
X111760000Y-111124994D01*
X111760000Y-111124994D02*
X113664994Y-109220000D01*
%TO.N,~CE~_BIOS*%
X128905000Y-65405000D02*
X128905000Y-59055010D01*
X129540000Y-66040000D02*
X128905000Y-65405000D01*
X129540000Y-67310000D02*
X129540000Y-66040000D01*
%TO.N,ROM_ADDR_JUMPER*%
X102879999Y-62239999D02*
X105410000Y-64770000D01*
X102879999Y-59699999D02*
X102879999Y-62239999D01*
X102879999Y-59699999D02*
X101600000Y-58420000D01*
X104775000Y-98425000D02*
X102870000Y-100330000D01*
X105410000Y-97790000D02*
X102870000Y-100330000D01*
X105410000Y-64770000D02*
X105410000Y-97790000D01*
X104775000Y-107315000D02*
X104140000Y-107950000D01*
X102870000Y-104140000D02*
X104775000Y-106045000D01*
X104140000Y-107950000D02*
X104140000Y-112395000D01*
X104775000Y-106045000D02*
X104775000Y-107315000D01*
X102870000Y-100330000D02*
X102870000Y-104140000D01*
%TO.N,ATA_ADDR_JUMPER*%
X109220000Y-82550000D02*
X109220000Y-83820000D01*
X108585000Y-103505000D02*
X108585000Y-108585000D01*
X109220000Y-83820000D02*
X107950000Y-85090000D01*
X107950000Y-85090000D02*
X107950000Y-102870000D01*
X107950000Y-102870000D02*
X108585000Y-103505000D01*
X108585000Y-108585000D02*
X106680000Y-110490000D01*
X106680000Y-110490000D02*
X106680000Y-112395000D01*
X109220000Y-69850000D02*
X109220000Y-82550000D01*
X110490000Y-68580000D02*
X109220000Y-69850000D01*
X109220000Y-63500000D02*
X110490000Y-64770000D01*
X109220000Y-57678099D02*
X109220000Y-63500000D01*
X108691901Y-57150000D02*
X109220000Y-57678099D01*
X105410000Y-57150000D02*
X108691901Y-57150000D01*
X110490000Y-64770000D02*
X110490000Y-68580000D01*
X104140000Y-58420000D02*
X105410000Y-57150000D01*
%TO.N,A14*%
X134620000Y-138430000D02*
X134620000Y-132715000D01*
X109220000Y-101600000D02*
X109220000Y-90805000D01*
X109855000Y-103505000D02*
X109220000Y-102870000D01*
X107950000Y-110490000D02*
X109855000Y-108585000D01*
X107950000Y-113665000D02*
X107950000Y-110490000D01*
X105469999Y-116145001D02*
X107950000Y-113665000D01*
X109220000Y-102870000D02*
X109220000Y-101600000D01*
X109855000Y-108585000D02*
X109855000Y-103505000D01*
X105469999Y-120710007D02*
X105469999Y-116145001D01*
X113030000Y-128270008D02*
X105469999Y-120710007D01*
X113030000Y-132715000D02*
X113030000Y-128270008D01*
X110490000Y-70485000D02*
X110490000Y-88265000D01*
X111760000Y-69215000D02*
X110490000Y-70485000D01*
X111760000Y-67310000D02*
X111760000Y-69215000D01*
%TO.N,~IOR_OR_MEMR*%
X137160000Y-119265802D02*
X143510000Y-112915802D01*
X137160000Y-120015000D02*
X137160000Y-119265802D01*
X143510000Y-112915802D02*
X143510000Y-110665010D01*
D30*
%TO.N,/XTAL2*%
X120015000Y-58420000D02*
X120015000Y-63500000D01*
X121285000Y-57150000D02*
X120015000Y-58420000D01*
X121285000Y-52075000D02*
X121285000Y-57150000D01*
X120015000Y-50805000D02*
X121285000Y-52075000D01*
%TO.N,/XTAL1*%
X118745000Y-62230000D02*
X117475000Y-63500000D01*
X118745000Y-53975000D02*
X118745000Y-62230000D01*
X120015000Y-52705000D02*
X118745000Y-53975000D01*
D23*
%TO.N,~CE~_BIOS_DECODE*%
X121920000Y-92638802D02*
X121920000Y-89359990D01*
X120650000Y-93908802D02*
X121920000Y-92638802D01*
X121920000Y-104140000D02*
X121920000Y-107315000D01*
X120650000Y-102870000D02*
X121920000Y-104140000D01*
X120650000Y-102870000D02*
X120650000Y-93908802D01*
X119380000Y-109220000D02*
X119380000Y-108585000D01*
X116840000Y-111760000D02*
X119380000Y-109220000D01*
X116840000Y-112395000D02*
X116840000Y-111760000D01*
X113030000Y-66675000D02*
X113030000Y-80010000D01*
X112141000Y-65786000D02*
X113030000Y-66675000D01*
X112141000Y-57531000D02*
X112141000Y-65786000D01*
X110490000Y-55880000D02*
X112141000Y-57531000D01*
%TO.N,~IOR~_DELAYED*%
X165100000Y-77597000D02*
X161925000Y-80772000D01*
X161925000Y-80772000D02*
X161925000Y-104775008D01*
X127000000Y-112395000D02*
X127000000Y-111760000D01*
X127000000Y-111760000D02*
X130810000Y-107950000D01*
X130810000Y-107950000D02*
X130810000Y-105410000D01*
%TO.N,~MEMR~_DELAYED*%
X125729990Y-88899990D02*
X124460000Y-87630000D01*
X124460000Y-87630000D02*
X124460000Y-86360000D01*
X125729990Y-107950010D02*
X125729990Y-88899990D01*
X121920000Y-111760000D02*
X125729990Y-107950010D01*
X121920000Y-112395000D02*
X121920000Y-111760000D01*
X121285000Y-64135000D02*
X124460000Y-67310000D01*
X121285000Y-62230000D02*
X121285000Y-64135000D01*
X127635000Y-55880000D02*
X121285000Y-62230000D01*
X124460000Y-85090000D02*
X124460000Y-86360000D01*
X123249999Y-83879999D02*
X124460000Y-85090000D01*
X123249999Y-68520001D02*
X123249999Y-83879999D01*
X124460000Y-67310000D02*
X123249999Y-68520001D01*
%TO.N,V20_JUMPER*%
X106680000Y-82550000D02*
X107950000Y-81280000D01*
X107950000Y-81280000D02*
X107950000Y-64770000D01*
X107950000Y-64770000D02*
X106045000Y-62865000D01*
X106045000Y-60325000D02*
X107950000Y-58420000D01*
X106045000Y-62865000D02*
X106045000Y-60325000D01*
%TD*%
D31*
%TO.N,GND*%
X195421033Y-43081044D02*
X195512449Y-43108645D01*
X195596759Y-43153473D01*
X195670759Y-43213826D01*
X195731627Y-43287402D01*
X195777043Y-43371398D01*
X195805281Y-43462618D01*
X195819000Y-43593152D01*
X195819000Y-48427318D01*
X195464126Y-48072444D01*
X194808658Y-47634474D01*
X194080340Y-47332795D01*
X193307163Y-47179000D01*
X192518837Y-47179000D01*
X191745660Y-47332795D01*
X191017342Y-47634474D01*
X190361874Y-48072444D01*
X189804444Y-48629874D01*
X189366474Y-49285342D01*
X189064795Y-50013660D01*
X188911000Y-50786837D01*
X188911000Y-51575163D01*
X189064795Y-52348340D01*
X189366474Y-53076658D01*
X189804444Y-53732126D01*
X190361874Y-54289556D01*
X191017342Y-54727526D01*
X191745660Y-55029205D01*
X192518837Y-55183000D01*
X193307163Y-55183000D01*
X194080340Y-55029205D01*
X194808658Y-54727526D01*
X195464126Y-54289556D01*
X195819000Y-53934682D01*
X195819001Y-113959319D01*
X195464126Y-113604444D01*
X194808658Y-113166474D01*
X194080340Y-112864795D01*
X193307163Y-112711000D01*
X192518837Y-112711000D01*
X191745660Y-112864795D01*
X191017342Y-113166474D01*
X190361874Y-113604444D01*
X189804444Y-114161874D01*
X189366474Y-114817342D01*
X189064795Y-115545660D01*
X188911000Y-116318837D01*
X188911000Y-117107163D01*
X189064795Y-117880340D01*
X189366474Y-118608658D01*
X189804444Y-119264126D01*
X190361874Y-119821556D01*
X191017342Y-120259526D01*
X191745660Y-120561205D01*
X192518837Y-120715000D01*
X193307163Y-120715000D01*
X194080340Y-120561205D01*
X194808658Y-120259526D01*
X195464126Y-119821556D01*
X195819001Y-119466681D01*
X195819001Y-130808000D01*
X189780857Y-130808000D01*
X189780857Y-133843000D01*
X177711166Y-133843000D01*
X177673000Y-133839241D01*
X177634834Y-133843000D01*
X177520681Y-133854243D01*
X177508296Y-133858000D01*
X173622000Y-133858000D01*
X173622000Y-133723620D01*
X173961482Y-133384139D01*
X173995896Y-133355896D01*
X174035679Y-133307421D01*
X174108614Y-133218549D01*
X174173460Y-133097230D01*
X174192371Y-133061850D01*
X174243948Y-132891823D01*
X174257000Y-132759307D01*
X174257000Y-132759306D01*
X174261364Y-132715000D01*
X174257000Y-132670693D01*
X174257000Y-130219306D01*
X174261364Y-130175000D01*
X174243948Y-129998177D01*
X174220552Y-129921052D01*
X174192371Y-129828150D01*
X174108614Y-129671451D01*
X173995896Y-129534104D01*
X173961483Y-129505862D01*
X173389143Y-128933523D01*
X173360896Y-128899104D01*
X173223549Y-128786386D01*
X173066850Y-128702629D01*
X172896823Y-128651052D01*
X172764307Y-128638000D01*
X172764299Y-128638000D01*
X172720000Y-128633637D01*
X172675701Y-128638000D01*
X171823621Y-128638000D01*
X167480621Y-124295000D01*
X173069362Y-124295000D01*
X173069362Y-125895000D01*
X173083881Y-126042418D01*
X173126882Y-126184170D01*
X173196710Y-126314810D01*
X173290683Y-126429317D01*
X173405190Y-126523290D01*
X173535830Y-126593118D01*
X173677582Y-126636119D01*
X173825000Y-126650638D01*
X175425000Y-126650638D01*
X175572418Y-126636119D01*
X175714170Y-126593118D01*
X175844810Y-126523290D01*
X175959317Y-126429317D01*
X176053290Y-126314810D01*
X176086959Y-126251818D01*
X176135658Y-126300517D01*
X176389853Y-126470364D01*
X176672298Y-126587357D01*
X176972141Y-126647000D01*
X177277859Y-126647000D01*
X177577702Y-126587357D01*
X177860147Y-126470364D01*
X178114342Y-126300517D01*
X178330517Y-126084342D01*
X178500364Y-125830147D01*
X178617357Y-125547702D01*
X178677000Y-125247859D01*
X178677000Y-124942141D01*
X178617357Y-124642298D01*
X178500364Y-124359853D01*
X178330517Y-124105658D01*
X178114342Y-123889483D01*
X177860147Y-123719636D01*
X177577702Y-123602643D01*
X177277859Y-123543000D01*
X176972141Y-123543000D01*
X176672298Y-123602643D01*
X176389853Y-123719636D01*
X176135658Y-123889483D01*
X176086959Y-123938182D01*
X176053290Y-123875190D01*
X175959317Y-123760683D01*
X175844810Y-123666710D01*
X175714170Y-123596882D01*
X175572418Y-123553881D01*
X175425000Y-123539362D01*
X173825000Y-123539362D01*
X173677582Y-123553881D01*
X173535830Y-123596882D01*
X173405190Y-123666710D01*
X173290683Y-123760683D01*
X173196710Y-123875190D01*
X173126882Y-124005830D01*
X173083881Y-124147582D01*
X173069362Y-124295000D01*
X167480621Y-124295000D01*
X163864143Y-120678523D01*
X163835896Y-120644104D01*
X163698549Y-120531386D01*
X163541850Y-120447629D01*
X163371823Y-120396052D01*
X163239307Y-120383000D01*
X163239299Y-120383000D01*
X163195000Y-120378637D01*
X163150701Y-120383000D01*
X161529205Y-120383000D01*
X161572000Y-120167859D01*
X161572000Y-119862141D01*
X161512357Y-119562298D01*
X161395364Y-119279853D01*
X161225517Y-119025658D01*
X161009342Y-118809483D01*
X160755147Y-118639636D01*
X160472702Y-118522643D01*
X160172859Y-118463000D01*
X159867141Y-118463000D01*
X159567298Y-118522643D01*
X159284853Y-118639636D01*
X159030658Y-118809483D01*
X158814483Y-119025658D01*
X158750000Y-119122164D01*
X158685517Y-119025658D01*
X158469342Y-118809483D01*
X158215147Y-118639636D01*
X157932702Y-118522643D01*
X157632859Y-118463000D01*
X157327141Y-118463000D01*
X157027298Y-118522643D01*
X156744853Y-118639636D01*
X156490658Y-118809483D01*
X156274483Y-119025658D01*
X156210000Y-119122164D01*
X156145517Y-119025658D01*
X155929342Y-118809483D01*
X155675147Y-118639636D01*
X155392702Y-118522643D01*
X155092859Y-118463000D01*
X154787141Y-118463000D01*
X154572000Y-118505795D01*
X154572000Y-117962818D01*
X156215981Y-116318837D01*
X162368000Y-116318837D01*
X162368000Y-117107163D01*
X162521795Y-117880340D01*
X162823474Y-118608658D01*
X163261444Y-119264126D01*
X163818874Y-119821556D01*
X164474342Y-120259526D01*
X165202660Y-120561205D01*
X165975837Y-120715000D01*
X166764163Y-120715000D01*
X167537340Y-120561205D01*
X168265658Y-120259526D01*
X168921126Y-119821556D01*
X169478556Y-119264126D01*
X169916526Y-118608658D01*
X170218205Y-117880340D01*
X170372000Y-117107163D01*
X170372000Y-116318837D01*
X170218205Y-115545660D01*
X169916526Y-114817342D01*
X169478556Y-114161874D01*
X168921126Y-113604444D01*
X168265658Y-113166474D01*
X167537340Y-112864795D01*
X166764163Y-112711000D01*
X165975837Y-112711000D01*
X165202660Y-112864795D01*
X164474342Y-113166474D01*
X163818874Y-113604444D01*
X163261444Y-114161874D01*
X162823474Y-114817342D01*
X162521795Y-115545660D01*
X162368000Y-116318837D01*
X156215981Y-116318837D01*
X157332818Y-115202000D01*
X159975701Y-115202000D01*
X160020000Y-115206363D01*
X160064299Y-115202000D01*
X160064307Y-115202000D01*
X160196823Y-115188948D01*
X160366850Y-115137371D01*
X160523549Y-115053614D01*
X160660896Y-114940896D01*
X160689143Y-114906477D01*
X163801482Y-111794139D01*
X163835896Y-111765896D01*
X163948614Y-111628549D01*
X164032371Y-111471850D01*
X164083948Y-111301823D01*
X164097000Y-111169307D01*
X164097000Y-111169300D01*
X164101363Y-111125001D01*
X164097000Y-111080701D01*
X164097000Y-109666426D01*
X164102582Y-109668119D01*
X164250000Y-109682638D01*
X165950000Y-109682638D01*
X166097418Y-109668119D01*
X166239170Y-109625118D01*
X166369810Y-109555290D01*
X166484317Y-109461317D01*
X166578290Y-109346810D01*
X166601262Y-109303831D01*
X166618785Y-109321354D01*
X166881169Y-109496674D01*
X167172714Y-109617436D01*
X167482217Y-109679000D01*
X167797783Y-109679000D01*
X168107286Y-109617436D01*
X168398831Y-109496674D01*
X168661215Y-109321354D01*
X168884354Y-109098215D01*
X169059674Y-108835831D01*
X169180436Y-108544286D01*
X169242000Y-108234783D01*
X169242000Y-107919217D01*
X169180436Y-107609714D01*
X169059674Y-107318169D01*
X168884354Y-107055785D01*
X168661215Y-106832646D01*
X168622833Y-106807000D01*
X168661215Y-106781354D01*
X168884354Y-106558215D01*
X169059674Y-106295831D01*
X169180436Y-106004286D01*
X169242000Y-105694783D01*
X169242000Y-105379217D01*
X169180436Y-105069714D01*
X169059674Y-104778169D01*
X168884354Y-104515785D01*
X168661215Y-104292646D01*
X168622833Y-104267000D01*
X168661215Y-104241354D01*
X168884354Y-104018215D01*
X169059674Y-103755831D01*
X169180436Y-103464286D01*
X169242000Y-103154783D01*
X169242000Y-102839217D01*
X169180436Y-102529714D01*
X169059674Y-102238169D01*
X168884354Y-101975785D01*
X168661215Y-101752646D01*
X168622833Y-101727000D01*
X168661215Y-101701354D01*
X168884354Y-101478215D01*
X169059674Y-101215831D01*
X169180436Y-100924286D01*
X169242000Y-100614783D01*
X169242000Y-100299217D01*
X169180436Y-99989714D01*
X169059674Y-99698169D01*
X168884354Y-99435785D01*
X168661215Y-99212646D01*
X168622833Y-99187000D01*
X168661215Y-99161354D01*
X168884354Y-98938215D01*
X169059674Y-98675831D01*
X169180436Y-98384286D01*
X169242000Y-98074783D01*
X169242000Y-97759217D01*
X169180436Y-97449714D01*
X169059674Y-97158169D01*
X168884354Y-96895785D01*
X168661215Y-96672646D01*
X168622833Y-96647000D01*
X168661215Y-96621354D01*
X168884354Y-96398215D01*
X169059674Y-96135831D01*
X169180436Y-95844286D01*
X169242000Y-95534783D01*
X169242000Y-95219217D01*
X169180436Y-94909714D01*
X169059674Y-94618169D01*
X168884354Y-94355785D01*
X168661215Y-94132646D01*
X168622833Y-94107000D01*
X168661215Y-94081354D01*
X168884354Y-93858215D01*
X169059674Y-93595831D01*
X169180436Y-93304286D01*
X169242000Y-92994783D01*
X169242000Y-92679217D01*
X169180436Y-92369714D01*
X169059674Y-92078169D01*
X168884354Y-91815785D01*
X168661215Y-91592646D01*
X168622833Y-91567000D01*
X168661215Y-91541354D01*
X168884354Y-91318215D01*
X169059674Y-91055831D01*
X169180436Y-90764286D01*
X169242000Y-90454783D01*
X169242000Y-90139217D01*
X169180436Y-89829714D01*
X169059674Y-89538169D01*
X168884354Y-89275785D01*
X168661215Y-89052646D01*
X168622833Y-89027000D01*
X168661215Y-89001354D01*
X168884354Y-88778215D01*
X169059674Y-88515831D01*
X169180436Y-88224286D01*
X169242000Y-87914783D01*
X169242000Y-87599217D01*
X169180436Y-87289714D01*
X169059674Y-86998169D01*
X168884354Y-86735785D01*
X168661215Y-86512646D01*
X168622833Y-86487000D01*
X168661215Y-86461354D01*
X168884354Y-86238215D01*
X169059674Y-85975831D01*
X169180436Y-85684286D01*
X169242000Y-85374783D01*
X169242000Y-85059217D01*
X169180436Y-84749714D01*
X169059674Y-84458169D01*
X168884354Y-84195785D01*
X168661215Y-83972646D01*
X168622833Y-83947000D01*
X168661215Y-83921354D01*
X168884354Y-83698215D01*
X169059674Y-83435831D01*
X169180436Y-83144286D01*
X169242000Y-82834783D01*
X169242000Y-82519217D01*
X169180436Y-82209714D01*
X169059674Y-81918169D01*
X168884354Y-81655785D01*
X168661215Y-81432646D01*
X168622833Y-81407000D01*
X168661215Y-81381354D01*
X168884354Y-81158215D01*
X169059674Y-80895831D01*
X169180436Y-80604286D01*
X169242000Y-80294783D01*
X169242000Y-79979217D01*
X169180436Y-79669714D01*
X169059674Y-79378169D01*
X168884354Y-79115785D01*
X168661215Y-78892646D01*
X168622833Y-78867000D01*
X168661215Y-78841354D01*
X168884354Y-78618215D01*
X169059674Y-78355831D01*
X169180436Y-78064286D01*
X169242000Y-77754783D01*
X169242000Y-77439217D01*
X169180436Y-77129714D01*
X169059674Y-76838169D01*
X168884354Y-76575785D01*
X168661215Y-76352646D01*
X168622833Y-76327000D01*
X168661215Y-76301354D01*
X168884354Y-76078215D01*
X169059674Y-75815831D01*
X169180436Y-75524286D01*
X169242000Y-75214783D01*
X169242000Y-74899217D01*
X169180436Y-74589714D01*
X169059674Y-74298169D01*
X168884354Y-74035785D01*
X168661215Y-73812646D01*
X168622833Y-73787000D01*
X168661215Y-73761354D01*
X168884354Y-73538215D01*
X169059674Y-73275831D01*
X169180436Y-72984286D01*
X169242000Y-72674783D01*
X169242000Y-72359217D01*
X169180436Y-72049714D01*
X169059674Y-71758169D01*
X168884354Y-71495785D01*
X168661215Y-71272646D01*
X168622833Y-71247000D01*
X168661215Y-71221354D01*
X168884354Y-70998215D01*
X169059674Y-70735831D01*
X169180436Y-70444286D01*
X169242000Y-70134783D01*
X169242000Y-69819217D01*
X169180436Y-69509714D01*
X169059674Y-69218169D01*
X168884354Y-68955785D01*
X168661215Y-68732646D01*
X168622833Y-68707000D01*
X168661215Y-68681354D01*
X168884354Y-68458215D01*
X169059674Y-68195831D01*
X169180436Y-67904286D01*
X169242000Y-67594783D01*
X169242000Y-67279217D01*
X169180436Y-66969714D01*
X169059674Y-66678169D01*
X168884354Y-66415785D01*
X168661215Y-66192646D01*
X168622833Y-66167000D01*
X168661215Y-66141354D01*
X168884354Y-65918215D01*
X169059674Y-65655831D01*
X169180436Y-65364286D01*
X169242000Y-65054783D01*
X169242000Y-64739217D01*
X169180436Y-64429714D01*
X169059674Y-64138169D01*
X168884354Y-63875785D01*
X168661215Y-63652646D01*
X168622833Y-63627000D01*
X168661215Y-63601354D01*
X168884354Y-63378215D01*
X168964011Y-63259000D01*
X169298380Y-63259000D01*
X174018339Y-67978959D01*
X172812003Y-69185295D01*
X172745156Y-69240155D01*
X172690296Y-69307002D01*
X172690289Y-69307009D01*
X172526217Y-69506932D01*
X172363532Y-69811295D01*
X172263350Y-70141549D01*
X172229524Y-70485000D01*
X172238001Y-70571069D01*
X172238000Y-117384298D01*
X170907008Y-118715290D01*
X170840155Y-118770155D01*
X170621217Y-119036931D01*
X170458531Y-119341295D01*
X170358350Y-119671548D01*
X170324523Y-120015000D01*
X170358350Y-120358452D01*
X170458531Y-120688705D01*
X170621217Y-120993069D01*
X170840155Y-121259845D01*
X171106931Y-121478783D01*
X171411295Y-121641469D01*
X171741548Y-121741650D01*
X171998931Y-121767000D01*
X171998939Y-121767000D01*
X172085000Y-121775476D01*
X172171061Y-121767000D01*
X173903931Y-121767000D01*
X173990000Y-121775477D01*
X174076068Y-121767000D01*
X174076069Y-121767000D01*
X174333452Y-121741650D01*
X174663705Y-121641469D01*
X174968069Y-121478783D01*
X175234845Y-121259845D01*
X175453783Y-120993069D01*
X175616469Y-120688705D01*
X175716650Y-120358452D01*
X175731621Y-120206451D01*
X175742000Y-120101069D01*
X175742000Y-120101068D01*
X175750477Y-120015000D01*
X175742000Y-119928931D01*
X175742000Y-118196061D01*
X175750476Y-118110000D01*
X175742000Y-118023939D01*
X175742000Y-71210702D01*
X183250710Y-63701992D01*
X183414782Y-63502069D01*
X183577468Y-63197707D01*
X183677649Y-62867452D01*
X183711476Y-62524001D01*
X183677649Y-62180549D01*
X183577468Y-61850295D01*
X183553000Y-61804519D01*
X183553000Y-60703938D01*
X183556638Y-60667000D01*
X183556638Y-59664141D01*
X183868000Y-59664141D01*
X183868000Y-59969859D01*
X183927643Y-60269702D01*
X184044636Y-60552147D01*
X184214483Y-60806342D01*
X184430658Y-61022517D01*
X184684853Y-61192364D01*
X184967298Y-61309357D01*
X185267141Y-61369000D01*
X185572859Y-61369000D01*
X185872702Y-61309357D01*
X186155147Y-61192364D01*
X186409342Y-61022517D01*
X186625517Y-60806342D01*
X186795364Y-60552147D01*
X186912357Y-60269702D01*
X186972000Y-59969859D01*
X186972000Y-59664141D01*
X188868000Y-59664141D01*
X188868000Y-59969859D01*
X188927643Y-60269702D01*
X189044636Y-60552147D01*
X189214483Y-60806342D01*
X189430658Y-61022517D01*
X189684853Y-61192364D01*
X189967298Y-61309357D01*
X190267141Y-61369000D01*
X190572859Y-61369000D01*
X190872702Y-61309357D01*
X191155147Y-61192364D01*
X191409342Y-61022517D01*
X191625517Y-60806342D01*
X191795364Y-60552147D01*
X191912357Y-60269702D01*
X191972000Y-59969859D01*
X191972000Y-59664141D01*
X191912357Y-59364298D01*
X191795364Y-59081853D01*
X191625517Y-58827658D01*
X191409342Y-58611483D01*
X191155147Y-58441636D01*
X190872702Y-58324643D01*
X190572859Y-58265000D01*
X190267141Y-58265000D01*
X189967298Y-58324643D01*
X189684853Y-58441636D01*
X189430658Y-58611483D01*
X189214483Y-58827658D01*
X189044636Y-59081853D01*
X188927643Y-59364298D01*
X188868000Y-59664141D01*
X186972000Y-59664141D01*
X186912357Y-59364298D01*
X186795364Y-59081853D01*
X186625517Y-58827658D01*
X186409342Y-58611483D01*
X186155147Y-58441636D01*
X185872702Y-58324643D01*
X185572859Y-58265000D01*
X185267141Y-58265000D01*
X184967298Y-58324643D01*
X184684853Y-58441636D01*
X184430658Y-58611483D01*
X184214483Y-58827658D01*
X184044636Y-59081853D01*
X183927643Y-59364298D01*
X183868000Y-59664141D01*
X183556638Y-59664141D01*
X183556638Y-58967000D01*
X183542119Y-58819582D01*
X183499118Y-58677830D01*
X183429290Y-58547190D01*
X183335317Y-58432683D01*
X183220810Y-58338710D01*
X183090170Y-58268882D01*
X182948418Y-58225881D01*
X182801000Y-58211362D01*
X181992760Y-58211362D01*
X181951000Y-58207249D01*
X181909240Y-58211362D01*
X181101000Y-58211362D01*
X180953582Y-58225881D01*
X180811830Y-58268882D01*
X180681190Y-58338710D01*
X180566683Y-58432683D01*
X180472710Y-58547190D01*
X180449738Y-58590169D01*
X180432215Y-58572646D01*
X180169831Y-58397326D01*
X179878286Y-58276564D01*
X179568783Y-58215000D01*
X179253217Y-58215000D01*
X178943714Y-58276564D01*
X178652169Y-58397326D01*
X178389785Y-58572646D01*
X178166646Y-58795785D01*
X177991326Y-59058169D01*
X177870564Y-59349714D01*
X177809000Y-59659217D01*
X177809000Y-59974783D01*
X177870564Y-60284286D01*
X177991326Y-60575831D01*
X178166646Y-60838215D01*
X178389785Y-61061354D01*
X178652169Y-61236674D01*
X178943714Y-61357436D01*
X179253217Y-61419000D01*
X179568783Y-61419000D01*
X179878286Y-61357436D01*
X180169831Y-61236674D01*
X180349001Y-61116956D01*
X180349000Y-61648298D01*
X175293959Y-66703339D01*
X170341143Y-61750523D01*
X170312896Y-61716104D01*
X170175549Y-61603386D01*
X170018850Y-61519629D01*
X169848823Y-61468052D01*
X169716307Y-61455000D01*
X169716299Y-61455000D01*
X169672000Y-61450637D01*
X169627701Y-61455000D01*
X168964011Y-61455000D01*
X168884354Y-61335785D01*
X168661215Y-61112646D01*
X168622833Y-61087000D01*
X168661215Y-61061354D01*
X168884354Y-60838215D01*
X169059674Y-60575831D01*
X169180436Y-60284286D01*
X169242000Y-59974783D01*
X169242000Y-59659217D01*
X169180436Y-59349714D01*
X169059674Y-59058169D01*
X168884354Y-58795785D01*
X168661215Y-58572646D01*
X168398831Y-58397326D01*
X168107286Y-58276564D01*
X167797783Y-58215000D01*
X167482217Y-58215000D01*
X167172714Y-58276564D01*
X166881169Y-58397326D01*
X166618785Y-58572646D01*
X166395646Y-58795785D01*
X166370000Y-58834167D01*
X166344354Y-58795785D01*
X166121215Y-58572646D01*
X165858831Y-58397326D01*
X165567286Y-58276564D01*
X165257783Y-58215000D01*
X164942217Y-58215000D01*
X164632714Y-58276564D01*
X164341169Y-58397326D01*
X164078785Y-58572646D01*
X163855646Y-58795785D01*
X163680326Y-59058169D01*
X163559564Y-59349714D01*
X163498000Y-59659217D01*
X163498000Y-59974783D01*
X163559564Y-60284286D01*
X163680326Y-60575831D01*
X163855646Y-60838215D01*
X164078785Y-61061354D01*
X164117167Y-61087000D01*
X164078785Y-61112646D01*
X163855646Y-61335785D01*
X163680326Y-61598169D01*
X163559564Y-61889714D01*
X163498000Y-62199217D01*
X163498000Y-62514783D01*
X163525972Y-62655408D01*
X162652023Y-63529357D01*
X162617604Y-63557604D01*
X162504886Y-63694952D01*
X162421129Y-63851651D01*
X162369552Y-64021678D01*
X162356500Y-64154194D01*
X162356500Y-64154201D01*
X162352137Y-64198500D01*
X162356500Y-64242799D01*
X162356501Y-77032878D01*
X160048504Y-79340876D01*
X160014091Y-79369118D01*
X159985849Y-79403531D01*
X159985846Y-79403534D01*
X159972902Y-79419307D01*
X159901373Y-79506465D01*
X159877129Y-79551823D01*
X159817616Y-79663164D01*
X159766038Y-79833192D01*
X159748623Y-80010014D01*
X159752987Y-80054324D01*
X159752987Y-88440500D01*
X159721026Y-88427261D01*
X159498462Y-88382990D01*
X159271538Y-88382990D01*
X159048974Y-88427261D01*
X159017000Y-88440505D01*
X159017000Y-88415837D01*
X159135889Y-88237907D01*
X159222729Y-88028256D01*
X159267000Y-87805692D01*
X159267000Y-87578768D01*
X159222729Y-87356204D01*
X159135889Y-87146553D01*
X159009817Y-86957873D01*
X158849357Y-86797413D01*
X158660677Y-86671341D01*
X158451026Y-86584501D01*
X158228462Y-86540230D01*
X158001538Y-86540230D01*
X157911003Y-86558239D01*
X157865889Y-86449323D01*
X157739817Y-86260643D01*
X157579357Y-86100183D01*
X157390677Y-85974111D01*
X157181026Y-85887271D01*
X156958462Y-85843000D01*
X156731538Y-85843000D01*
X156508974Y-85887271D01*
X156299323Y-85974111D01*
X156110643Y-86100183D01*
X155950183Y-86260643D01*
X155824111Y-86449323D01*
X155737271Y-86658974D01*
X155693000Y-86881538D01*
X155693000Y-87108462D01*
X155737271Y-87331026D01*
X155824111Y-87540677D01*
X155943001Y-87718608D01*
X155943001Y-89710515D01*
X155911026Y-89697271D01*
X155688462Y-89653000D01*
X155461538Y-89653000D01*
X155238974Y-89697271D01*
X155207000Y-89710515D01*
X155207000Y-87718607D01*
X155325889Y-87540677D01*
X155412729Y-87331026D01*
X155457000Y-87108462D01*
X155457000Y-86881538D01*
X155412729Y-86658974D01*
X155325889Y-86449323D01*
X155199817Y-86260643D01*
X155039357Y-86100183D01*
X154850677Y-85974111D01*
X154641026Y-85887271D01*
X154418462Y-85843000D01*
X154191538Y-85843000D01*
X154185873Y-85844127D01*
X154187000Y-85838462D01*
X154187000Y-85611538D01*
X154142729Y-85388974D01*
X154055889Y-85179323D01*
X153929817Y-84990643D01*
X153769357Y-84830183D01*
X153580677Y-84704111D01*
X153371026Y-84617271D01*
X153148462Y-84573000D01*
X152921538Y-84573000D01*
X152698974Y-84617271D01*
X152489323Y-84704111D01*
X152300643Y-84830183D01*
X152140183Y-84990643D01*
X152014111Y-85179323D01*
X151992811Y-85230746D01*
X151878462Y-85208000D01*
X151651538Y-85208000D01*
X151428974Y-85252271D01*
X151219323Y-85339111D01*
X151030643Y-85465183D01*
X150870183Y-85625643D01*
X150744111Y-85814323D01*
X150657271Y-86023974D01*
X150613000Y-86246538D01*
X150613000Y-86473462D01*
X150657271Y-86696026D01*
X150744111Y-86905677D01*
X150863001Y-87083608D01*
X150863000Y-94526393D01*
X150744111Y-94704323D01*
X150657271Y-94913974D01*
X150613000Y-95136538D01*
X150613000Y-95363462D01*
X150657271Y-95586026D01*
X150744111Y-95795677D01*
X150863000Y-95973607D01*
X150863001Y-107576378D01*
X149492000Y-108947380D01*
X149492000Y-108673607D01*
X149610889Y-108495677D01*
X149697729Y-108286026D01*
X149742000Y-108063462D01*
X149742000Y-107836538D01*
X149697729Y-107613974D01*
X149610889Y-107404323D01*
X149484817Y-107215643D01*
X149324357Y-107055183D01*
X149135677Y-106929111D01*
X148926026Y-106842271D01*
X148703462Y-106798000D01*
X148476538Y-106798000D01*
X148253974Y-106842271D01*
X148044323Y-106929111D01*
X147855643Y-107055183D01*
X147695183Y-107215643D01*
X147569111Y-107404323D01*
X147482271Y-107613974D01*
X147438000Y-107836538D01*
X147438000Y-108062380D01*
X142505262Y-103129642D01*
X142692702Y-103092357D01*
X142975147Y-102975364D01*
X143229342Y-102805517D01*
X143445517Y-102589342D01*
X143615364Y-102335147D01*
X143732357Y-102052702D01*
X143792000Y-101752859D01*
X143792000Y-101447141D01*
X143732357Y-101147298D01*
X143615364Y-100864853D01*
X143445517Y-100610658D01*
X143229342Y-100394483D01*
X142975147Y-100224636D01*
X142692702Y-100107643D01*
X142392859Y-100048000D01*
X142087141Y-100048000D01*
X141787298Y-100107643D01*
X141504853Y-100224636D01*
X141250658Y-100394483D01*
X141034483Y-100610658D01*
X140970000Y-100707164D01*
X140905517Y-100610658D01*
X140689342Y-100394483D01*
X140602000Y-100336123D01*
X140602000Y-93083612D01*
X141096135Y-92589478D01*
X141306018Y-92547729D01*
X141515669Y-92460889D01*
X141704349Y-92334817D01*
X141864809Y-92174357D01*
X141990881Y-91985677D01*
X142077721Y-91776026D01*
X142121992Y-91553462D01*
X142121992Y-91326538D01*
X142077721Y-91103974D01*
X141990881Y-90894323D01*
X141871992Y-90716393D01*
X141871992Y-87869204D01*
X142087141Y-87912000D01*
X142392859Y-87912000D01*
X142692702Y-87852357D01*
X142975147Y-87735364D01*
X143229342Y-87565517D01*
X143445517Y-87349342D01*
X143615364Y-87095147D01*
X143732357Y-86812702D01*
X143792000Y-86512859D01*
X143792000Y-86207141D01*
X143732357Y-85907298D01*
X143615364Y-85624853D01*
X143445517Y-85370658D01*
X143229342Y-85154483D01*
X143143662Y-85097234D01*
X143142000Y-85080357D01*
X143142000Y-85080350D01*
X143128948Y-84947834D01*
X143077371Y-84777807D01*
X142993614Y-84621108D01*
X142966225Y-84587734D01*
X142909140Y-84518176D01*
X142909138Y-84518174D01*
X142880896Y-84483761D01*
X142846482Y-84455518D01*
X142476355Y-84085391D01*
X142692702Y-84042357D01*
X142975147Y-83925364D01*
X143229342Y-83755517D01*
X143445517Y-83539342D01*
X143615364Y-83285147D01*
X143732357Y-83002702D01*
X143792000Y-82702859D01*
X143792000Y-82397141D01*
X143732357Y-82097298D01*
X143615364Y-81814853D01*
X143445517Y-81560658D01*
X143229342Y-81344483D01*
X142975147Y-81174636D01*
X142692702Y-81057643D01*
X142392859Y-80998000D01*
X142087141Y-80998000D01*
X141931999Y-81028860D01*
X141931999Y-68893621D01*
X141984114Y-68841506D01*
X142087141Y-68862000D01*
X142392859Y-68862000D01*
X142692702Y-68802357D01*
X142975147Y-68685364D01*
X143229342Y-68515517D01*
X143394859Y-68350000D01*
X146969362Y-68350000D01*
X146969362Y-71350000D01*
X146983881Y-71497418D01*
X147026882Y-71639170D01*
X147096710Y-71769810D01*
X147190683Y-71884317D01*
X147305190Y-71978290D01*
X147435830Y-72048118D01*
X147577582Y-72091119D01*
X147725000Y-72105638D01*
X150725000Y-72105638D01*
X150872418Y-72091119D01*
X151014170Y-72048118D01*
X151144810Y-71978290D01*
X151259317Y-71884317D01*
X151353290Y-71769810D01*
X151423118Y-71639170D01*
X151466119Y-71497418D01*
X151480638Y-71350000D01*
X151480638Y-68350000D01*
X151466119Y-68202582D01*
X151423118Y-68060830D01*
X151353290Y-67930190D01*
X151259317Y-67815683D01*
X151144810Y-67721710D01*
X151014170Y-67651882D01*
X150872418Y-67608881D01*
X150725000Y-67594362D01*
X147725000Y-67594362D01*
X147577582Y-67608881D01*
X147435830Y-67651882D01*
X147305190Y-67721710D01*
X147190683Y-67815683D01*
X147096710Y-67930190D01*
X147026882Y-68060830D01*
X146983881Y-68202582D01*
X146969362Y-68350000D01*
X143394859Y-68350000D01*
X143445517Y-68299342D01*
X143615364Y-68045147D01*
X143732357Y-67762702D01*
X143792000Y-67462859D01*
X143792000Y-67157141D01*
X143732357Y-66857298D01*
X143615364Y-66574853D01*
X143445517Y-66320658D01*
X143229342Y-66104483D01*
X142975147Y-65934636D01*
X142692702Y-65817643D01*
X142392859Y-65758000D01*
X142087141Y-65758000D01*
X141787298Y-65817643D01*
X141504853Y-65934636D01*
X141250658Y-66104483D01*
X141034483Y-66320658D01*
X140970000Y-66417164D01*
X140905517Y-66320658D01*
X140689342Y-66104483D01*
X140435147Y-65934636D01*
X140152702Y-65817643D01*
X139852859Y-65758000D01*
X139547141Y-65758000D01*
X139247298Y-65817643D01*
X138964853Y-65934636D01*
X138710658Y-66104483D01*
X138494483Y-66320658D01*
X138430000Y-66417164D01*
X138365517Y-66320658D01*
X138149342Y-66104483D01*
X137895147Y-65934636D01*
X137612702Y-65817643D01*
X137312859Y-65758000D01*
X137007141Y-65758000D01*
X136707298Y-65817643D01*
X136425138Y-65934518D01*
X135520262Y-65029642D01*
X135707702Y-64992357D01*
X135990147Y-64875364D01*
X136244342Y-64705517D01*
X136460517Y-64489342D01*
X136630364Y-64235147D01*
X136747357Y-63952702D01*
X136807000Y-63652859D01*
X136807000Y-63347141D01*
X136747357Y-63047298D01*
X136630364Y-62764853D01*
X136460517Y-62510658D01*
X136244342Y-62294483D01*
X135990147Y-62124636D01*
X135707702Y-62007643D01*
X135407859Y-61948000D01*
X135102141Y-61948000D01*
X134802298Y-62007643D01*
X134519853Y-62124636D01*
X134265658Y-62294483D01*
X134049483Y-62510658D01*
X133985000Y-62607164D01*
X133920517Y-62510658D01*
X133704342Y-62294483D01*
X133450147Y-62124636D01*
X133167702Y-62007643D01*
X132867859Y-61948000D01*
X132562141Y-61948000D01*
X132262298Y-62007643D01*
X131979853Y-62124636D01*
X131725658Y-62294483D01*
X131509483Y-62510658D01*
X131445000Y-62607164D01*
X131380517Y-62510658D01*
X131164342Y-62294483D01*
X130910147Y-62124636D01*
X130627702Y-62007643D01*
X130327859Y-61948000D01*
X130022141Y-61948000D01*
X129807000Y-61990795D01*
X129807000Y-59778617D01*
X129925889Y-59600687D01*
X130012729Y-59391036D01*
X130057000Y-59168472D01*
X130057000Y-58941548D01*
X130012729Y-58718984D01*
X129925889Y-58509333D01*
X129799817Y-58320653D01*
X129639357Y-58160193D01*
X129450677Y-58034121D01*
X129241026Y-57947281D01*
X129018462Y-57903010D01*
X128791538Y-57903010D01*
X128568974Y-57947281D01*
X128359323Y-58034121D01*
X128170643Y-58160193D01*
X128010183Y-58320653D01*
X127884111Y-58509333D01*
X127797271Y-58718984D01*
X127753000Y-58941548D01*
X127753000Y-59168472D01*
X127797271Y-59391036D01*
X127884111Y-59600687D01*
X128003001Y-59778618D01*
X128003001Y-61990795D01*
X127787859Y-61948000D01*
X127482141Y-61948000D01*
X127182298Y-62007643D01*
X126899853Y-62124636D01*
X126645658Y-62294483D01*
X126429483Y-62510658D01*
X126365000Y-62607164D01*
X126300517Y-62510658D01*
X126084342Y-62294483D01*
X125830147Y-62124636D01*
X125547702Y-62007643D01*
X125247859Y-61948000D01*
X124942141Y-61948000D01*
X124642298Y-62007643D01*
X124359853Y-62124636D01*
X124105658Y-62294483D01*
X123889483Y-62510658D01*
X123825000Y-62607164D01*
X123760517Y-62510658D01*
X123544342Y-62294483D01*
X123290147Y-62124636D01*
X123007702Y-62007643D01*
X122820262Y-61970358D01*
X127379114Y-57411507D01*
X127482141Y-57432000D01*
X127787859Y-57432000D01*
X128087702Y-57372357D01*
X128370147Y-57255364D01*
X128624342Y-57085517D01*
X128840517Y-56869342D01*
X128905000Y-56772836D01*
X128969483Y-56869342D01*
X129185658Y-57085517D01*
X129439853Y-57255364D01*
X129722298Y-57372357D01*
X130022141Y-57432000D01*
X130327859Y-57432000D01*
X130627702Y-57372357D01*
X130910147Y-57255364D01*
X131164342Y-57085517D01*
X131380517Y-56869342D01*
X131445000Y-56772836D01*
X131509483Y-56869342D01*
X131725658Y-57085517D01*
X131979853Y-57255364D01*
X132262298Y-57372357D01*
X132562141Y-57432000D01*
X132867859Y-57432000D01*
X133167702Y-57372357D01*
X133450147Y-57255364D01*
X133704342Y-57085517D01*
X133920517Y-56869342D01*
X133985000Y-56772836D01*
X134049483Y-56869342D01*
X134265658Y-57085517D01*
X134519853Y-57255364D01*
X134802298Y-57372357D01*
X135102141Y-57432000D01*
X135407859Y-57432000D01*
X135707702Y-57372357D01*
X135990147Y-57255364D01*
X136244342Y-57085517D01*
X136460517Y-56869342D01*
X136630364Y-56615147D01*
X136747357Y-56332702D01*
X136807000Y-56032859D01*
X136807000Y-55727141D01*
X136747357Y-55427298D01*
X136630364Y-55144853D01*
X136460517Y-54890658D01*
X136244342Y-54674483D01*
X135990147Y-54504636D01*
X135707702Y-54387643D01*
X135407859Y-54328000D01*
X135102141Y-54328000D01*
X134802298Y-54387643D01*
X134519853Y-54504636D01*
X134265658Y-54674483D01*
X134049483Y-54890658D01*
X133985000Y-54987164D01*
X133920517Y-54890658D01*
X133704342Y-54674483D01*
X133450147Y-54504636D01*
X133167702Y-54387643D01*
X132867859Y-54328000D01*
X132562141Y-54328000D01*
X132262298Y-54387643D01*
X131979853Y-54504636D01*
X131725658Y-54674483D01*
X131509483Y-54890658D01*
X131445000Y-54987164D01*
X131380517Y-54890658D01*
X131164342Y-54674483D01*
X130910147Y-54504636D01*
X130627702Y-54387643D01*
X130327859Y-54328000D01*
X130022141Y-54328000D01*
X129722298Y-54387643D01*
X129439853Y-54504636D01*
X129185658Y-54674483D01*
X128969483Y-54890658D01*
X128905000Y-54987164D01*
X128840517Y-54890658D01*
X128624342Y-54674483D01*
X128370147Y-54504636D01*
X128087702Y-54387643D01*
X127787859Y-54328000D01*
X127482141Y-54328000D01*
X127182298Y-54387643D01*
X126899853Y-54504636D01*
X126645658Y-54674483D01*
X126429483Y-54890658D01*
X126365000Y-54987164D01*
X126300517Y-54890658D01*
X126084342Y-54674483D01*
X125830147Y-54504636D01*
X125547702Y-54387643D01*
X125247859Y-54328000D01*
X124942141Y-54328000D01*
X124642298Y-54387643D01*
X124359853Y-54504636D01*
X124105658Y-54674483D01*
X123889483Y-54890658D01*
X123825000Y-54987164D01*
X123760517Y-54890658D01*
X123544342Y-54674483D01*
X123290147Y-54504636D01*
X123007702Y-54387643D01*
X122707859Y-54328000D01*
X122402141Y-54328000D01*
X122162000Y-54375767D01*
X122162000Y-52118069D01*
X122166242Y-52074999D01*
X122162000Y-52031930D01*
X122162000Y-52031921D01*
X122149310Y-51903078D01*
X122099162Y-51737763D01*
X122017727Y-51585408D01*
X121908133Y-51451867D01*
X121874669Y-51424404D01*
X121267000Y-50816735D01*
X121267000Y-50681689D01*
X121218886Y-50439805D01*
X121124508Y-50211956D01*
X120987492Y-50006896D01*
X120813104Y-49832508D01*
X120608044Y-49695492D01*
X120380195Y-49601114D01*
X120138311Y-49553000D01*
X119891689Y-49553000D01*
X119649805Y-49601114D01*
X119421956Y-49695492D01*
X119216896Y-49832508D01*
X119042508Y-50006896D01*
X118905492Y-50211956D01*
X118811114Y-50439805D01*
X118763000Y-50681689D01*
X118763000Y-50928311D01*
X118811114Y-51170195D01*
X118905492Y-51398044D01*
X119042508Y-51603104D01*
X119194404Y-51755000D01*
X119042508Y-51906896D01*
X118905492Y-52111956D01*
X118811114Y-52339805D01*
X118763000Y-52581689D01*
X118763000Y-52716735D01*
X118155332Y-53324403D01*
X118121867Y-53351867D01*
X118012273Y-53485409D01*
X117995482Y-53516823D01*
X117930838Y-53637764D01*
X117880690Y-53803078D01*
X117863757Y-53975000D01*
X117868000Y-54018080D01*
X117868000Y-54375767D01*
X117852554Y-54372695D01*
X117779245Y-54350457D01*
X117703008Y-54342948D01*
X117627859Y-54328000D01*
X114942859Y-54328000D01*
X113432327Y-52817469D01*
X113386469Y-52666295D01*
X113223783Y-52361931D01*
X113004845Y-52095155D01*
X112738069Y-51876217D01*
X112433705Y-51713531D01*
X112103452Y-51613350D01*
X111846069Y-51588000D01*
X100416061Y-51588000D01*
X100330000Y-51579524D01*
X100243939Y-51588000D01*
X100243931Y-51588000D01*
X99986548Y-51613350D01*
X99656295Y-51713531D01*
X99351931Y-51876217D01*
X99162206Y-52031921D01*
X99085155Y-52095155D01*
X99030290Y-52162008D01*
X97424000Y-53768298D01*
X97424000Y-49138197D01*
X146973000Y-49138197D01*
X146973000Y-49581803D01*
X147059544Y-50016884D01*
X147229304Y-50426722D01*
X147475758Y-50795566D01*
X147789434Y-51109242D01*
X148158278Y-51355696D01*
X148568116Y-51525456D01*
X149003197Y-51612000D01*
X149446803Y-51612000D01*
X149881884Y-51525456D01*
X150291722Y-51355696D01*
X150660566Y-51109242D01*
X150974242Y-50795566D01*
X150980074Y-50786837D01*
X162368000Y-50786837D01*
X162368000Y-51575163D01*
X162521795Y-52348340D01*
X162823474Y-53076658D01*
X163261444Y-53732126D01*
X163818874Y-54289556D01*
X164474342Y-54727526D01*
X165202660Y-55029205D01*
X165975837Y-55183000D01*
X166764163Y-55183000D01*
X167537340Y-55029205D01*
X168265658Y-54727526D01*
X168921126Y-54289556D01*
X169478556Y-53732126D01*
X169916526Y-53076658D01*
X170218205Y-52348340D01*
X170372000Y-51575163D01*
X170372000Y-50786837D01*
X170218205Y-50013660D01*
X169916526Y-49285342D01*
X169478556Y-48629874D01*
X168921126Y-48072444D01*
X168265658Y-47634474D01*
X167537340Y-47332795D01*
X166764163Y-47179000D01*
X165975837Y-47179000D01*
X165202660Y-47332795D01*
X164474342Y-47634474D01*
X163818874Y-48072444D01*
X163261444Y-48629874D01*
X162823474Y-49285342D01*
X162521795Y-50013660D01*
X162368000Y-50786837D01*
X150980074Y-50786837D01*
X151220696Y-50426722D01*
X151390456Y-50016884D01*
X151477000Y-49581803D01*
X151477000Y-49138197D01*
X151390456Y-48703116D01*
X151220696Y-48293278D01*
X150974242Y-47924434D01*
X150660566Y-47610758D01*
X150291722Y-47364304D01*
X149881884Y-47194544D01*
X149446803Y-47108000D01*
X149003197Y-47108000D01*
X148568116Y-47194544D01*
X148158278Y-47364304D01*
X147789434Y-47610758D01*
X147475758Y-47924434D01*
X147229304Y-48293278D01*
X147059544Y-48703116D01*
X146973000Y-49138197D01*
X97424000Y-49138197D01*
X97424000Y-43599005D01*
X97437044Y-43465967D01*
X97464645Y-43374551D01*
X97509473Y-43290241D01*
X97569826Y-43216241D01*
X97643402Y-43155373D01*
X97727398Y-43109957D01*
X97818618Y-43081719D01*
X97949152Y-43068000D01*
X195287995Y-43068000D01*
X195421033Y-43081044D01*
%TA.AperFunction,Conductor*%
D32*
G36*
X195421033Y-43081044D02*
G01*
X195512449Y-43108645D01*
X195596759Y-43153473D01*
X195670759Y-43213826D01*
X195731627Y-43287402D01*
X195777043Y-43371398D01*
X195805281Y-43462618D01*
X195819000Y-43593152D01*
X195819000Y-48427318D01*
X195464126Y-48072444D01*
X194808658Y-47634474D01*
X194080340Y-47332795D01*
X193307163Y-47179000D01*
X192518837Y-47179000D01*
X191745660Y-47332795D01*
X191017342Y-47634474D01*
X190361874Y-48072444D01*
X189804444Y-48629874D01*
X189366474Y-49285342D01*
X189064795Y-50013660D01*
X188911000Y-50786837D01*
X188911000Y-51575163D01*
X189064795Y-52348340D01*
X189366474Y-53076658D01*
X189804444Y-53732126D01*
X190361874Y-54289556D01*
X191017342Y-54727526D01*
X191745660Y-55029205D01*
X192518837Y-55183000D01*
X193307163Y-55183000D01*
X194080340Y-55029205D01*
X194808658Y-54727526D01*
X195464126Y-54289556D01*
X195819000Y-53934682D01*
X195819001Y-113959319D01*
X195464126Y-113604444D01*
X194808658Y-113166474D01*
X194080340Y-112864795D01*
X193307163Y-112711000D01*
X192518837Y-112711000D01*
X191745660Y-112864795D01*
X191017342Y-113166474D01*
X190361874Y-113604444D01*
X189804444Y-114161874D01*
X189366474Y-114817342D01*
X189064795Y-115545660D01*
X188911000Y-116318837D01*
X188911000Y-117107163D01*
X189064795Y-117880340D01*
X189366474Y-118608658D01*
X189804444Y-119264126D01*
X190361874Y-119821556D01*
X191017342Y-120259526D01*
X191745660Y-120561205D01*
X192518837Y-120715000D01*
X193307163Y-120715000D01*
X194080340Y-120561205D01*
X194808658Y-120259526D01*
X195464126Y-119821556D01*
X195819001Y-119466681D01*
X195819001Y-130808000D01*
X189780857Y-130808000D01*
X189780857Y-133843000D01*
X177711166Y-133843000D01*
X177673000Y-133839241D01*
X177634834Y-133843000D01*
X177520681Y-133854243D01*
X177508296Y-133858000D01*
X173622000Y-133858000D01*
X173622000Y-133723620D01*
X173961482Y-133384139D01*
X173995896Y-133355896D01*
X174035679Y-133307421D01*
X174108614Y-133218549D01*
X174173460Y-133097230D01*
X174192371Y-133061850D01*
X174243948Y-132891823D01*
X174257000Y-132759307D01*
X174257000Y-132759306D01*
X174261364Y-132715000D01*
X174257000Y-132670693D01*
X174257000Y-130219306D01*
X174261364Y-130175000D01*
X174243948Y-129998177D01*
X174220552Y-129921052D01*
X174192371Y-129828150D01*
X174108614Y-129671451D01*
X173995896Y-129534104D01*
X173961483Y-129505862D01*
X173389143Y-128933523D01*
X173360896Y-128899104D01*
X173223549Y-128786386D01*
X173066850Y-128702629D01*
X172896823Y-128651052D01*
X172764307Y-128638000D01*
X172764299Y-128638000D01*
X172720000Y-128633637D01*
X172675701Y-128638000D01*
X171823621Y-128638000D01*
X167480621Y-124295000D01*
X173069362Y-124295000D01*
X173069362Y-125895000D01*
X173083881Y-126042418D01*
X173126882Y-126184170D01*
X173196710Y-126314810D01*
X173290683Y-126429317D01*
X173405190Y-126523290D01*
X173535830Y-126593118D01*
X173677582Y-126636119D01*
X173825000Y-126650638D01*
X175425000Y-126650638D01*
X175572418Y-126636119D01*
X175714170Y-126593118D01*
X175844810Y-126523290D01*
X175959317Y-126429317D01*
X176053290Y-126314810D01*
X176086959Y-126251818D01*
X176135658Y-126300517D01*
X176389853Y-126470364D01*
X176672298Y-126587357D01*
X176972141Y-126647000D01*
X177277859Y-126647000D01*
X177577702Y-126587357D01*
X177860147Y-126470364D01*
X178114342Y-126300517D01*
X178330517Y-126084342D01*
X178500364Y-125830147D01*
X178617357Y-125547702D01*
X178677000Y-125247859D01*
X178677000Y-124942141D01*
X178617357Y-124642298D01*
X178500364Y-124359853D01*
X178330517Y-124105658D01*
X178114342Y-123889483D01*
X177860147Y-123719636D01*
X177577702Y-123602643D01*
X177277859Y-123543000D01*
X176972141Y-123543000D01*
X176672298Y-123602643D01*
X176389853Y-123719636D01*
X176135658Y-123889483D01*
X176086959Y-123938182D01*
X176053290Y-123875190D01*
X175959317Y-123760683D01*
X175844810Y-123666710D01*
X175714170Y-123596882D01*
X175572418Y-123553881D01*
X175425000Y-123539362D01*
X173825000Y-123539362D01*
X173677582Y-123553881D01*
X173535830Y-123596882D01*
X173405190Y-123666710D01*
X173290683Y-123760683D01*
X173196710Y-123875190D01*
X173126882Y-124005830D01*
X173083881Y-124147582D01*
X173069362Y-124295000D01*
X167480621Y-124295000D01*
X163864143Y-120678523D01*
X163835896Y-120644104D01*
X163698549Y-120531386D01*
X163541850Y-120447629D01*
X163371823Y-120396052D01*
X163239307Y-120383000D01*
X163239299Y-120383000D01*
X163195000Y-120378637D01*
X163150701Y-120383000D01*
X161529205Y-120383000D01*
X161572000Y-120167859D01*
X161572000Y-119862141D01*
X161512357Y-119562298D01*
X161395364Y-119279853D01*
X161225517Y-119025658D01*
X161009342Y-118809483D01*
X160755147Y-118639636D01*
X160472702Y-118522643D01*
X160172859Y-118463000D01*
X159867141Y-118463000D01*
X159567298Y-118522643D01*
X159284853Y-118639636D01*
X159030658Y-118809483D01*
X158814483Y-119025658D01*
X158750000Y-119122164D01*
X158685517Y-119025658D01*
X158469342Y-118809483D01*
X158215147Y-118639636D01*
X157932702Y-118522643D01*
X157632859Y-118463000D01*
X157327141Y-118463000D01*
X157027298Y-118522643D01*
X156744853Y-118639636D01*
X156490658Y-118809483D01*
X156274483Y-119025658D01*
X156210000Y-119122164D01*
X156145517Y-119025658D01*
X155929342Y-118809483D01*
X155675147Y-118639636D01*
X155392702Y-118522643D01*
X155092859Y-118463000D01*
X154787141Y-118463000D01*
X154572000Y-118505795D01*
X154572000Y-117962818D01*
X156215981Y-116318837D01*
X162368000Y-116318837D01*
X162368000Y-117107163D01*
X162521795Y-117880340D01*
X162823474Y-118608658D01*
X163261444Y-119264126D01*
X163818874Y-119821556D01*
X164474342Y-120259526D01*
X165202660Y-120561205D01*
X165975837Y-120715000D01*
X166764163Y-120715000D01*
X167537340Y-120561205D01*
X168265658Y-120259526D01*
X168921126Y-119821556D01*
X169478556Y-119264126D01*
X169916526Y-118608658D01*
X170218205Y-117880340D01*
X170372000Y-117107163D01*
X170372000Y-116318837D01*
X170218205Y-115545660D01*
X169916526Y-114817342D01*
X169478556Y-114161874D01*
X168921126Y-113604444D01*
X168265658Y-113166474D01*
X167537340Y-112864795D01*
X166764163Y-112711000D01*
X165975837Y-112711000D01*
X165202660Y-112864795D01*
X164474342Y-113166474D01*
X163818874Y-113604444D01*
X163261444Y-114161874D01*
X162823474Y-114817342D01*
X162521795Y-115545660D01*
X162368000Y-116318837D01*
X156215981Y-116318837D01*
X157332818Y-115202000D01*
X159975701Y-115202000D01*
X160020000Y-115206363D01*
X160064299Y-115202000D01*
X160064307Y-115202000D01*
X160196823Y-115188948D01*
X160366850Y-115137371D01*
X160523549Y-115053614D01*
X160660896Y-114940896D01*
X160689143Y-114906477D01*
X163801482Y-111794139D01*
X163835896Y-111765896D01*
X163948614Y-111628549D01*
X164032371Y-111471850D01*
X164083948Y-111301823D01*
X164097000Y-111169307D01*
X164097000Y-111169300D01*
X164101363Y-111125001D01*
X164097000Y-111080701D01*
X164097000Y-109666426D01*
X164102582Y-109668119D01*
X164250000Y-109682638D01*
X165950000Y-109682638D01*
X166097418Y-109668119D01*
X166239170Y-109625118D01*
X166369810Y-109555290D01*
X166484317Y-109461317D01*
X166578290Y-109346810D01*
X166601262Y-109303831D01*
X166618785Y-109321354D01*
X166881169Y-109496674D01*
X167172714Y-109617436D01*
X167482217Y-109679000D01*
X167797783Y-109679000D01*
X168107286Y-109617436D01*
X168398831Y-109496674D01*
X168661215Y-109321354D01*
X168884354Y-109098215D01*
X169059674Y-108835831D01*
X169180436Y-108544286D01*
X169242000Y-108234783D01*
X169242000Y-107919217D01*
X169180436Y-107609714D01*
X169059674Y-107318169D01*
X168884354Y-107055785D01*
X168661215Y-106832646D01*
X168622833Y-106807000D01*
X168661215Y-106781354D01*
X168884354Y-106558215D01*
X169059674Y-106295831D01*
X169180436Y-106004286D01*
X169242000Y-105694783D01*
X169242000Y-105379217D01*
X169180436Y-105069714D01*
X169059674Y-104778169D01*
X168884354Y-104515785D01*
X168661215Y-104292646D01*
X168622833Y-104267000D01*
X168661215Y-104241354D01*
X168884354Y-104018215D01*
X169059674Y-103755831D01*
X169180436Y-103464286D01*
X169242000Y-103154783D01*
X169242000Y-102839217D01*
X169180436Y-102529714D01*
X169059674Y-102238169D01*
X168884354Y-101975785D01*
X168661215Y-101752646D01*
X168622833Y-101727000D01*
X168661215Y-101701354D01*
X168884354Y-101478215D01*
X169059674Y-101215831D01*
X169180436Y-100924286D01*
X169242000Y-100614783D01*
X169242000Y-100299217D01*
X169180436Y-99989714D01*
X169059674Y-99698169D01*
X168884354Y-99435785D01*
X168661215Y-99212646D01*
X168622833Y-99187000D01*
X168661215Y-99161354D01*
X168884354Y-98938215D01*
X169059674Y-98675831D01*
X169180436Y-98384286D01*
X169242000Y-98074783D01*
X169242000Y-97759217D01*
X169180436Y-97449714D01*
X169059674Y-97158169D01*
X168884354Y-96895785D01*
X168661215Y-96672646D01*
X168622833Y-96647000D01*
X168661215Y-96621354D01*
X168884354Y-96398215D01*
X169059674Y-96135831D01*
X169180436Y-95844286D01*
X169242000Y-95534783D01*
X169242000Y-95219217D01*
X169180436Y-94909714D01*
X169059674Y-94618169D01*
X168884354Y-94355785D01*
X168661215Y-94132646D01*
X168622833Y-94107000D01*
X168661215Y-94081354D01*
X168884354Y-93858215D01*
X169059674Y-93595831D01*
X169180436Y-93304286D01*
X169242000Y-92994783D01*
X169242000Y-92679217D01*
X169180436Y-92369714D01*
X169059674Y-92078169D01*
X168884354Y-91815785D01*
X168661215Y-91592646D01*
X168622833Y-91567000D01*
X168661215Y-91541354D01*
X168884354Y-91318215D01*
X169059674Y-91055831D01*
X169180436Y-90764286D01*
X169242000Y-90454783D01*
X169242000Y-90139217D01*
X169180436Y-89829714D01*
X169059674Y-89538169D01*
X168884354Y-89275785D01*
X168661215Y-89052646D01*
X168622833Y-89027000D01*
X168661215Y-89001354D01*
X168884354Y-88778215D01*
X169059674Y-88515831D01*
X169180436Y-88224286D01*
X169242000Y-87914783D01*
X169242000Y-87599217D01*
X169180436Y-87289714D01*
X169059674Y-86998169D01*
X168884354Y-86735785D01*
X168661215Y-86512646D01*
X168622833Y-86487000D01*
X168661215Y-86461354D01*
X168884354Y-86238215D01*
X169059674Y-85975831D01*
X169180436Y-85684286D01*
X169242000Y-85374783D01*
X169242000Y-85059217D01*
X169180436Y-84749714D01*
X169059674Y-84458169D01*
X168884354Y-84195785D01*
X168661215Y-83972646D01*
X168622833Y-83947000D01*
X168661215Y-83921354D01*
X168884354Y-83698215D01*
X169059674Y-83435831D01*
X169180436Y-83144286D01*
X169242000Y-82834783D01*
X169242000Y-82519217D01*
X169180436Y-82209714D01*
X169059674Y-81918169D01*
X168884354Y-81655785D01*
X168661215Y-81432646D01*
X168622833Y-81407000D01*
X168661215Y-81381354D01*
X168884354Y-81158215D01*
X169059674Y-80895831D01*
X169180436Y-80604286D01*
X169242000Y-80294783D01*
X169242000Y-79979217D01*
X169180436Y-79669714D01*
X169059674Y-79378169D01*
X168884354Y-79115785D01*
X168661215Y-78892646D01*
X168622833Y-78867000D01*
X168661215Y-78841354D01*
X168884354Y-78618215D01*
X169059674Y-78355831D01*
X169180436Y-78064286D01*
X169242000Y-77754783D01*
X169242000Y-77439217D01*
X169180436Y-77129714D01*
X169059674Y-76838169D01*
X168884354Y-76575785D01*
X168661215Y-76352646D01*
X168622833Y-76327000D01*
X168661215Y-76301354D01*
X168884354Y-76078215D01*
X169059674Y-75815831D01*
X169180436Y-75524286D01*
X169242000Y-75214783D01*
X169242000Y-74899217D01*
X169180436Y-74589714D01*
X169059674Y-74298169D01*
X168884354Y-74035785D01*
X168661215Y-73812646D01*
X168622833Y-73787000D01*
X168661215Y-73761354D01*
X168884354Y-73538215D01*
X169059674Y-73275831D01*
X169180436Y-72984286D01*
X169242000Y-72674783D01*
X169242000Y-72359217D01*
X169180436Y-72049714D01*
X169059674Y-71758169D01*
X168884354Y-71495785D01*
X168661215Y-71272646D01*
X168622833Y-71247000D01*
X168661215Y-71221354D01*
X168884354Y-70998215D01*
X169059674Y-70735831D01*
X169180436Y-70444286D01*
X169242000Y-70134783D01*
X169242000Y-69819217D01*
X169180436Y-69509714D01*
X169059674Y-69218169D01*
X168884354Y-68955785D01*
X168661215Y-68732646D01*
X168622833Y-68707000D01*
X168661215Y-68681354D01*
X168884354Y-68458215D01*
X169059674Y-68195831D01*
X169180436Y-67904286D01*
X169242000Y-67594783D01*
X169242000Y-67279217D01*
X169180436Y-66969714D01*
X169059674Y-66678169D01*
X168884354Y-66415785D01*
X168661215Y-66192646D01*
X168622833Y-66167000D01*
X168661215Y-66141354D01*
X168884354Y-65918215D01*
X169059674Y-65655831D01*
X169180436Y-65364286D01*
X169242000Y-65054783D01*
X169242000Y-64739217D01*
X169180436Y-64429714D01*
X169059674Y-64138169D01*
X168884354Y-63875785D01*
X168661215Y-63652646D01*
X168622833Y-63627000D01*
X168661215Y-63601354D01*
X168884354Y-63378215D01*
X168964011Y-63259000D01*
X169298380Y-63259000D01*
X174018339Y-67978959D01*
X172812003Y-69185295D01*
X172745156Y-69240155D01*
X172690296Y-69307002D01*
X172690289Y-69307009D01*
X172526217Y-69506932D01*
X172363532Y-69811295D01*
X172263350Y-70141549D01*
X172229524Y-70485000D01*
X172238001Y-70571069D01*
X172238000Y-117384298D01*
X170907008Y-118715290D01*
X170840155Y-118770155D01*
X170621217Y-119036931D01*
X170458531Y-119341295D01*
X170358350Y-119671548D01*
X170324523Y-120015000D01*
X170358350Y-120358452D01*
X170458531Y-120688705D01*
X170621217Y-120993069D01*
X170840155Y-121259845D01*
X171106931Y-121478783D01*
X171411295Y-121641469D01*
X171741548Y-121741650D01*
X171998931Y-121767000D01*
X171998939Y-121767000D01*
X172085000Y-121775476D01*
X172171061Y-121767000D01*
X173903931Y-121767000D01*
X173990000Y-121775477D01*
X174076068Y-121767000D01*
X174076069Y-121767000D01*
X174333452Y-121741650D01*
X174663705Y-121641469D01*
X174968069Y-121478783D01*
X175234845Y-121259845D01*
X175453783Y-120993069D01*
X175616469Y-120688705D01*
X175716650Y-120358452D01*
X175731621Y-120206451D01*
X175742000Y-120101069D01*
X175742000Y-120101068D01*
X175750477Y-120015000D01*
X175742000Y-119928931D01*
X175742000Y-118196061D01*
X175750476Y-118110000D01*
X175742000Y-118023939D01*
X175742000Y-71210702D01*
X183250710Y-63701992D01*
X183414782Y-63502069D01*
X183577468Y-63197707D01*
X183677649Y-62867452D01*
X183711476Y-62524001D01*
X183677649Y-62180549D01*
X183577468Y-61850295D01*
X183553000Y-61804519D01*
X183553000Y-60703938D01*
X183556638Y-60667000D01*
X183556638Y-59664141D01*
X183868000Y-59664141D01*
X183868000Y-59969859D01*
X183927643Y-60269702D01*
X184044636Y-60552147D01*
X184214483Y-60806342D01*
X184430658Y-61022517D01*
X184684853Y-61192364D01*
X184967298Y-61309357D01*
X185267141Y-61369000D01*
X185572859Y-61369000D01*
X185872702Y-61309357D01*
X186155147Y-61192364D01*
X186409342Y-61022517D01*
X186625517Y-60806342D01*
X186795364Y-60552147D01*
X186912357Y-60269702D01*
X186972000Y-59969859D01*
X186972000Y-59664141D01*
X188868000Y-59664141D01*
X188868000Y-59969859D01*
X188927643Y-60269702D01*
X189044636Y-60552147D01*
X189214483Y-60806342D01*
X189430658Y-61022517D01*
X189684853Y-61192364D01*
X189967298Y-61309357D01*
X190267141Y-61369000D01*
X190572859Y-61369000D01*
X190872702Y-61309357D01*
X191155147Y-61192364D01*
X191409342Y-61022517D01*
X191625517Y-60806342D01*
X191795364Y-60552147D01*
X191912357Y-60269702D01*
X191972000Y-59969859D01*
X191972000Y-59664141D01*
X191912357Y-59364298D01*
X191795364Y-59081853D01*
X191625517Y-58827658D01*
X191409342Y-58611483D01*
X191155147Y-58441636D01*
X190872702Y-58324643D01*
X190572859Y-58265000D01*
X190267141Y-58265000D01*
X189967298Y-58324643D01*
X189684853Y-58441636D01*
X189430658Y-58611483D01*
X189214483Y-58827658D01*
X189044636Y-59081853D01*
X188927643Y-59364298D01*
X188868000Y-59664141D01*
X186972000Y-59664141D01*
X186912357Y-59364298D01*
X186795364Y-59081853D01*
X186625517Y-58827658D01*
X186409342Y-58611483D01*
X186155147Y-58441636D01*
X185872702Y-58324643D01*
X185572859Y-58265000D01*
X185267141Y-58265000D01*
X184967298Y-58324643D01*
X184684853Y-58441636D01*
X184430658Y-58611483D01*
X184214483Y-58827658D01*
X184044636Y-59081853D01*
X183927643Y-59364298D01*
X183868000Y-59664141D01*
X183556638Y-59664141D01*
X183556638Y-58967000D01*
X183542119Y-58819582D01*
X183499118Y-58677830D01*
X183429290Y-58547190D01*
X183335317Y-58432683D01*
X183220810Y-58338710D01*
X183090170Y-58268882D01*
X182948418Y-58225881D01*
X182801000Y-58211362D01*
X181992760Y-58211362D01*
X181951000Y-58207249D01*
X181909240Y-58211362D01*
X181101000Y-58211362D01*
X180953582Y-58225881D01*
X180811830Y-58268882D01*
X180681190Y-58338710D01*
X180566683Y-58432683D01*
X180472710Y-58547190D01*
X180449738Y-58590169D01*
X180432215Y-58572646D01*
X180169831Y-58397326D01*
X179878286Y-58276564D01*
X179568783Y-58215000D01*
X179253217Y-58215000D01*
X178943714Y-58276564D01*
X178652169Y-58397326D01*
X178389785Y-58572646D01*
X178166646Y-58795785D01*
X177991326Y-59058169D01*
X177870564Y-59349714D01*
X177809000Y-59659217D01*
X177809000Y-59974783D01*
X177870564Y-60284286D01*
X177991326Y-60575831D01*
X178166646Y-60838215D01*
X178389785Y-61061354D01*
X178652169Y-61236674D01*
X178943714Y-61357436D01*
X179253217Y-61419000D01*
X179568783Y-61419000D01*
X179878286Y-61357436D01*
X180169831Y-61236674D01*
X180349001Y-61116956D01*
X180349000Y-61648298D01*
X175293959Y-66703339D01*
X170341143Y-61750523D01*
X170312896Y-61716104D01*
X170175549Y-61603386D01*
X170018850Y-61519629D01*
X169848823Y-61468052D01*
X169716307Y-61455000D01*
X169716299Y-61455000D01*
X169672000Y-61450637D01*
X169627701Y-61455000D01*
X168964011Y-61455000D01*
X168884354Y-61335785D01*
X168661215Y-61112646D01*
X168622833Y-61087000D01*
X168661215Y-61061354D01*
X168884354Y-60838215D01*
X169059674Y-60575831D01*
X169180436Y-60284286D01*
X169242000Y-59974783D01*
X169242000Y-59659217D01*
X169180436Y-59349714D01*
X169059674Y-59058169D01*
X168884354Y-58795785D01*
X168661215Y-58572646D01*
X168398831Y-58397326D01*
X168107286Y-58276564D01*
X167797783Y-58215000D01*
X167482217Y-58215000D01*
X167172714Y-58276564D01*
X166881169Y-58397326D01*
X166618785Y-58572646D01*
X166395646Y-58795785D01*
X166370000Y-58834167D01*
X166344354Y-58795785D01*
X166121215Y-58572646D01*
X165858831Y-58397326D01*
X165567286Y-58276564D01*
X165257783Y-58215000D01*
X164942217Y-58215000D01*
X164632714Y-58276564D01*
X164341169Y-58397326D01*
X164078785Y-58572646D01*
X163855646Y-58795785D01*
X163680326Y-59058169D01*
X163559564Y-59349714D01*
X163498000Y-59659217D01*
X163498000Y-59974783D01*
X163559564Y-60284286D01*
X163680326Y-60575831D01*
X163855646Y-60838215D01*
X164078785Y-61061354D01*
X164117167Y-61087000D01*
X164078785Y-61112646D01*
X163855646Y-61335785D01*
X163680326Y-61598169D01*
X163559564Y-61889714D01*
X163498000Y-62199217D01*
X163498000Y-62514783D01*
X163525972Y-62655408D01*
X162652023Y-63529357D01*
X162617604Y-63557604D01*
X162504886Y-63694952D01*
X162421129Y-63851651D01*
X162369552Y-64021678D01*
X162356500Y-64154194D01*
X162356500Y-64154201D01*
X162352137Y-64198500D01*
X162356500Y-64242799D01*
X162356501Y-77032878D01*
X160048504Y-79340876D01*
X160014091Y-79369118D01*
X159985849Y-79403531D01*
X159985846Y-79403534D01*
X159972902Y-79419307D01*
X159901373Y-79506465D01*
X159877129Y-79551823D01*
X159817616Y-79663164D01*
X159766038Y-79833192D01*
X159748623Y-80010014D01*
X159752987Y-80054324D01*
X159752987Y-88440500D01*
X159721026Y-88427261D01*
X159498462Y-88382990D01*
X159271538Y-88382990D01*
X159048974Y-88427261D01*
X159017000Y-88440505D01*
X159017000Y-88415837D01*
X159135889Y-88237907D01*
X159222729Y-88028256D01*
X159267000Y-87805692D01*
X159267000Y-87578768D01*
X159222729Y-87356204D01*
X159135889Y-87146553D01*
X159009817Y-86957873D01*
X158849357Y-86797413D01*
X158660677Y-86671341D01*
X158451026Y-86584501D01*
X158228462Y-86540230D01*
X158001538Y-86540230D01*
X157911003Y-86558239D01*
X157865889Y-86449323D01*
X157739817Y-86260643D01*
X157579357Y-86100183D01*
X157390677Y-85974111D01*
X157181026Y-85887271D01*
X156958462Y-85843000D01*
X156731538Y-85843000D01*
X156508974Y-85887271D01*
X156299323Y-85974111D01*
X156110643Y-86100183D01*
X155950183Y-86260643D01*
X155824111Y-86449323D01*
X155737271Y-86658974D01*
X155693000Y-86881538D01*
X155693000Y-87108462D01*
X155737271Y-87331026D01*
X155824111Y-87540677D01*
X155943001Y-87718608D01*
X155943001Y-89710515D01*
X155911026Y-89697271D01*
X155688462Y-89653000D01*
X155461538Y-89653000D01*
X155238974Y-89697271D01*
X155207000Y-89710515D01*
X155207000Y-87718607D01*
X155325889Y-87540677D01*
X155412729Y-87331026D01*
X155457000Y-87108462D01*
X155457000Y-86881538D01*
X155412729Y-86658974D01*
X155325889Y-86449323D01*
X155199817Y-86260643D01*
X155039357Y-86100183D01*
X154850677Y-85974111D01*
X154641026Y-85887271D01*
X154418462Y-85843000D01*
X154191538Y-85843000D01*
X154185873Y-85844127D01*
X154187000Y-85838462D01*
X154187000Y-85611538D01*
X154142729Y-85388974D01*
X154055889Y-85179323D01*
X153929817Y-84990643D01*
X153769357Y-84830183D01*
X153580677Y-84704111D01*
X153371026Y-84617271D01*
X153148462Y-84573000D01*
X152921538Y-84573000D01*
X152698974Y-84617271D01*
X152489323Y-84704111D01*
X152300643Y-84830183D01*
X152140183Y-84990643D01*
X152014111Y-85179323D01*
X151992811Y-85230746D01*
X151878462Y-85208000D01*
X151651538Y-85208000D01*
X151428974Y-85252271D01*
X151219323Y-85339111D01*
X151030643Y-85465183D01*
X150870183Y-85625643D01*
X150744111Y-85814323D01*
X150657271Y-86023974D01*
X150613000Y-86246538D01*
X150613000Y-86473462D01*
X150657271Y-86696026D01*
X150744111Y-86905677D01*
X150863001Y-87083608D01*
X150863000Y-94526393D01*
X150744111Y-94704323D01*
X150657271Y-94913974D01*
X150613000Y-95136538D01*
X150613000Y-95363462D01*
X150657271Y-95586026D01*
X150744111Y-95795677D01*
X150863000Y-95973607D01*
X150863001Y-107576378D01*
X149492000Y-108947380D01*
X149492000Y-108673607D01*
X149610889Y-108495677D01*
X149697729Y-108286026D01*
X149742000Y-108063462D01*
X149742000Y-107836538D01*
X149697729Y-107613974D01*
X149610889Y-107404323D01*
X149484817Y-107215643D01*
X149324357Y-107055183D01*
X149135677Y-106929111D01*
X148926026Y-106842271D01*
X148703462Y-106798000D01*
X148476538Y-106798000D01*
X148253974Y-106842271D01*
X148044323Y-106929111D01*
X147855643Y-107055183D01*
X147695183Y-107215643D01*
X147569111Y-107404323D01*
X147482271Y-107613974D01*
X147438000Y-107836538D01*
X147438000Y-108062380D01*
X142505262Y-103129642D01*
X142692702Y-103092357D01*
X142975147Y-102975364D01*
X143229342Y-102805517D01*
X143445517Y-102589342D01*
X143615364Y-102335147D01*
X143732357Y-102052702D01*
X143792000Y-101752859D01*
X143792000Y-101447141D01*
X143732357Y-101147298D01*
X143615364Y-100864853D01*
X143445517Y-100610658D01*
X143229342Y-100394483D01*
X142975147Y-100224636D01*
X142692702Y-100107643D01*
X142392859Y-100048000D01*
X142087141Y-100048000D01*
X141787298Y-100107643D01*
X141504853Y-100224636D01*
X141250658Y-100394483D01*
X141034483Y-100610658D01*
X140970000Y-100707164D01*
X140905517Y-100610658D01*
X140689342Y-100394483D01*
X140602000Y-100336123D01*
X140602000Y-93083612D01*
X141096135Y-92589478D01*
X141306018Y-92547729D01*
X141515669Y-92460889D01*
X141704349Y-92334817D01*
X141864809Y-92174357D01*
X141990881Y-91985677D01*
X142077721Y-91776026D01*
X142121992Y-91553462D01*
X142121992Y-91326538D01*
X142077721Y-91103974D01*
X141990881Y-90894323D01*
X141871992Y-90716393D01*
X141871992Y-87869204D01*
X142087141Y-87912000D01*
X142392859Y-87912000D01*
X142692702Y-87852357D01*
X142975147Y-87735364D01*
X143229342Y-87565517D01*
X143445517Y-87349342D01*
X143615364Y-87095147D01*
X143732357Y-86812702D01*
X143792000Y-86512859D01*
X143792000Y-86207141D01*
X143732357Y-85907298D01*
X143615364Y-85624853D01*
X143445517Y-85370658D01*
X143229342Y-85154483D01*
X143143662Y-85097234D01*
X143142000Y-85080357D01*
X143142000Y-85080350D01*
X143128948Y-84947834D01*
X143077371Y-84777807D01*
X142993614Y-84621108D01*
X142966225Y-84587734D01*
X142909140Y-84518176D01*
X142909138Y-84518174D01*
X142880896Y-84483761D01*
X142846482Y-84455518D01*
X142476355Y-84085391D01*
X142692702Y-84042357D01*
X142975147Y-83925364D01*
X143229342Y-83755517D01*
X143445517Y-83539342D01*
X143615364Y-83285147D01*
X143732357Y-83002702D01*
X143792000Y-82702859D01*
X143792000Y-82397141D01*
X143732357Y-82097298D01*
X143615364Y-81814853D01*
X143445517Y-81560658D01*
X143229342Y-81344483D01*
X142975147Y-81174636D01*
X142692702Y-81057643D01*
X142392859Y-80998000D01*
X142087141Y-80998000D01*
X141931999Y-81028860D01*
X141931999Y-68893621D01*
X141984114Y-68841506D01*
X142087141Y-68862000D01*
X142392859Y-68862000D01*
X142692702Y-68802357D01*
X142975147Y-68685364D01*
X143229342Y-68515517D01*
X143394859Y-68350000D01*
X146969362Y-68350000D01*
X146969362Y-71350000D01*
X146983881Y-71497418D01*
X147026882Y-71639170D01*
X147096710Y-71769810D01*
X147190683Y-71884317D01*
X147305190Y-71978290D01*
X147435830Y-72048118D01*
X147577582Y-72091119D01*
X147725000Y-72105638D01*
X150725000Y-72105638D01*
X150872418Y-72091119D01*
X151014170Y-72048118D01*
X151144810Y-71978290D01*
X151259317Y-71884317D01*
X151353290Y-71769810D01*
X151423118Y-71639170D01*
X151466119Y-71497418D01*
X151480638Y-71350000D01*
X151480638Y-68350000D01*
X151466119Y-68202582D01*
X151423118Y-68060830D01*
X151353290Y-67930190D01*
X151259317Y-67815683D01*
X151144810Y-67721710D01*
X151014170Y-67651882D01*
X150872418Y-67608881D01*
X150725000Y-67594362D01*
X147725000Y-67594362D01*
X147577582Y-67608881D01*
X147435830Y-67651882D01*
X147305190Y-67721710D01*
X147190683Y-67815683D01*
X147096710Y-67930190D01*
X147026882Y-68060830D01*
X146983881Y-68202582D01*
X146969362Y-68350000D01*
X143394859Y-68350000D01*
X143445517Y-68299342D01*
X143615364Y-68045147D01*
X143732357Y-67762702D01*
X143792000Y-67462859D01*
X143792000Y-67157141D01*
X143732357Y-66857298D01*
X143615364Y-66574853D01*
X143445517Y-66320658D01*
X143229342Y-66104483D01*
X142975147Y-65934636D01*
X142692702Y-65817643D01*
X142392859Y-65758000D01*
X142087141Y-65758000D01*
X141787298Y-65817643D01*
X141504853Y-65934636D01*
X141250658Y-66104483D01*
X141034483Y-66320658D01*
X140970000Y-66417164D01*
X140905517Y-66320658D01*
X140689342Y-66104483D01*
X140435147Y-65934636D01*
X140152702Y-65817643D01*
X139852859Y-65758000D01*
X139547141Y-65758000D01*
X139247298Y-65817643D01*
X138964853Y-65934636D01*
X138710658Y-66104483D01*
X138494483Y-66320658D01*
X138430000Y-66417164D01*
X138365517Y-66320658D01*
X138149342Y-66104483D01*
X137895147Y-65934636D01*
X137612702Y-65817643D01*
X137312859Y-65758000D01*
X137007141Y-65758000D01*
X136707298Y-65817643D01*
X136425138Y-65934518D01*
X135520262Y-65029642D01*
X135707702Y-64992357D01*
X135990147Y-64875364D01*
X136244342Y-64705517D01*
X136460517Y-64489342D01*
X136630364Y-64235147D01*
X136747357Y-63952702D01*
X136807000Y-63652859D01*
X136807000Y-63347141D01*
X136747357Y-63047298D01*
X136630364Y-62764853D01*
X136460517Y-62510658D01*
X136244342Y-62294483D01*
X135990147Y-62124636D01*
X135707702Y-62007643D01*
X135407859Y-61948000D01*
X135102141Y-61948000D01*
X134802298Y-62007643D01*
X134519853Y-62124636D01*
X134265658Y-62294483D01*
X134049483Y-62510658D01*
X133985000Y-62607164D01*
X133920517Y-62510658D01*
X133704342Y-62294483D01*
X133450147Y-62124636D01*
X133167702Y-62007643D01*
X132867859Y-61948000D01*
X132562141Y-61948000D01*
X132262298Y-62007643D01*
X131979853Y-62124636D01*
X131725658Y-62294483D01*
X131509483Y-62510658D01*
X131445000Y-62607164D01*
X131380517Y-62510658D01*
X131164342Y-62294483D01*
X130910147Y-62124636D01*
X130627702Y-62007643D01*
X130327859Y-61948000D01*
X130022141Y-61948000D01*
X129807000Y-61990795D01*
X129807000Y-59778617D01*
X129925889Y-59600687D01*
X130012729Y-59391036D01*
X130057000Y-59168472D01*
X130057000Y-58941548D01*
X130012729Y-58718984D01*
X129925889Y-58509333D01*
X129799817Y-58320653D01*
X129639357Y-58160193D01*
X129450677Y-58034121D01*
X129241026Y-57947281D01*
X129018462Y-57903010D01*
X128791538Y-57903010D01*
X128568974Y-57947281D01*
X128359323Y-58034121D01*
X128170643Y-58160193D01*
X128010183Y-58320653D01*
X127884111Y-58509333D01*
X127797271Y-58718984D01*
X127753000Y-58941548D01*
X127753000Y-59168472D01*
X127797271Y-59391036D01*
X127884111Y-59600687D01*
X128003001Y-59778618D01*
X128003001Y-61990795D01*
X127787859Y-61948000D01*
X127482141Y-61948000D01*
X127182298Y-62007643D01*
X126899853Y-62124636D01*
X126645658Y-62294483D01*
X126429483Y-62510658D01*
X126365000Y-62607164D01*
X126300517Y-62510658D01*
X126084342Y-62294483D01*
X125830147Y-62124636D01*
X125547702Y-62007643D01*
X125247859Y-61948000D01*
X124942141Y-61948000D01*
X124642298Y-62007643D01*
X124359853Y-62124636D01*
X124105658Y-62294483D01*
X123889483Y-62510658D01*
X123825000Y-62607164D01*
X123760517Y-62510658D01*
X123544342Y-62294483D01*
X123290147Y-62124636D01*
X123007702Y-62007643D01*
X122820262Y-61970358D01*
X127379114Y-57411507D01*
X127482141Y-57432000D01*
X127787859Y-57432000D01*
X128087702Y-57372357D01*
X128370147Y-57255364D01*
X128624342Y-57085517D01*
X128840517Y-56869342D01*
X128905000Y-56772836D01*
X128969483Y-56869342D01*
X129185658Y-57085517D01*
X129439853Y-57255364D01*
X129722298Y-57372357D01*
X130022141Y-57432000D01*
X130327859Y-57432000D01*
X130627702Y-57372357D01*
X130910147Y-57255364D01*
X131164342Y-57085517D01*
X131380517Y-56869342D01*
X131445000Y-56772836D01*
X131509483Y-56869342D01*
X131725658Y-57085517D01*
X131979853Y-57255364D01*
X132262298Y-57372357D01*
X132562141Y-57432000D01*
X132867859Y-57432000D01*
X133167702Y-57372357D01*
X133450147Y-57255364D01*
X133704342Y-57085517D01*
X133920517Y-56869342D01*
X133985000Y-56772836D01*
X134049483Y-56869342D01*
X134265658Y-57085517D01*
X134519853Y-57255364D01*
X134802298Y-57372357D01*
X135102141Y-57432000D01*
X135407859Y-57432000D01*
X135707702Y-57372357D01*
X135990147Y-57255364D01*
X136244342Y-57085517D01*
X136460517Y-56869342D01*
X136630364Y-56615147D01*
X136747357Y-56332702D01*
X136807000Y-56032859D01*
X136807000Y-55727141D01*
X136747357Y-55427298D01*
X136630364Y-55144853D01*
X136460517Y-54890658D01*
X136244342Y-54674483D01*
X135990147Y-54504636D01*
X135707702Y-54387643D01*
X135407859Y-54328000D01*
X135102141Y-54328000D01*
X134802298Y-54387643D01*
X134519853Y-54504636D01*
X134265658Y-54674483D01*
X134049483Y-54890658D01*
X133985000Y-54987164D01*
X133920517Y-54890658D01*
X133704342Y-54674483D01*
X133450147Y-54504636D01*
X133167702Y-54387643D01*
X132867859Y-54328000D01*
X132562141Y-54328000D01*
X132262298Y-54387643D01*
X131979853Y-54504636D01*
X131725658Y-54674483D01*
X131509483Y-54890658D01*
X131445000Y-54987164D01*
X131380517Y-54890658D01*
X131164342Y-54674483D01*
X130910147Y-54504636D01*
X130627702Y-54387643D01*
X130327859Y-54328000D01*
X130022141Y-54328000D01*
X129722298Y-54387643D01*
X129439853Y-54504636D01*
X129185658Y-54674483D01*
X128969483Y-54890658D01*
X128905000Y-54987164D01*
X128840517Y-54890658D01*
X128624342Y-54674483D01*
X128370147Y-54504636D01*
X128087702Y-54387643D01*
X127787859Y-54328000D01*
X127482141Y-54328000D01*
X127182298Y-54387643D01*
X126899853Y-54504636D01*
X126645658Y-54674483D01*
X126429483Y-54890658D01*
X126365000Y-54987164D01*
X126300517Y-54890658D01*
X126084342Y-54674483D01*
X125830147Y-54504636D01*
X125547702Y-54387643D01*
X125247859Y-54328000D01*
X124942141Y-54328000D01*
X124642298Y-54387643D01*
X124359853Y-54504636D01*
X124105658Y-54674483D01*
X123889483Y-54890658D01*
X123825000Y-54987164D01*
X123760517Y-54890658D01*
X123544342Y-54674483D01*
X123290147Y-54504636D01*
X123007702Y-54387643D01*
X122707859Y-54328000D01*
X122402141Y-54328000D01*
X122162000Y-54375767D01*
X122162000Y-52118069D01*
X122166242Y-52074999D01*
X122162000Y-52031930D01*
X122162000Y-52031921D01*
X122149310Y-51903078D01*
X122099162Y-51737763D01*
X122017727Y-51585408D01*
X121908133Y-51451867D01*
X121874669Y-51424404D01*
X121267000Y-50816735D01*
X121267000Y-50681689D01*
X121218886Y-50439805D01*
X121124508Y-50211956D01*
X120987492Y-50006896D01*
X120813104Y-49832508D01*
X120608044Y-49695492D01*
X120380195Y-49601114D01*
X120138311Y-49553000D01*
X119891689Y-49553000D01*
X119649805Y-49601114D01*
X119421956Y-49695492D01*
X119216896Y-49832508D01*
X119042508Y-50006896D01*
X118905492Y-50211956D01*
X118811114Y-50439805D01*
X118763000Y-50681689D01*
X118763000Y-50928311D01*
X118811114Y-51170195D01*
X118905492Y-51398044D01*
X119042508Y-51603104D01*
X119194404Y-51755000D01*
X119042508Y-51906896D01*
X118905492Y-52111956D01*
X118811114Y-52339805D01*
X118763000Y-52581689D01*
X118763000Y-52716735D01*
X118155332Y-53324403D01*
X118121867Y-53351867D01*
X118012273Y-53485409D01*
X117995482Y-53516823D01*
X117930838Y-53637764D01*
X117880690Y-53803078D01*
X117863757Y-53975000D01*
X117868000Y-54018080D01*
X117868000Y-54375767D01*
X117852554Y-54372695D01*
X117779245Y-54350457D01*
X117703008Y-54342948D01*
X117627859Y-54328000D01*
X114942859Y-54328000D01*
X113432327Y-52817469D01*
X113386469Y-52666295D01*
X113223783Y-52361931D01*
X113004845Y-52095155D01*
X112738069Y-51876217D01*
X112433705Y-51713531D01*
X112103452Y-51613350D01*
X111846069Y-51588000D01*
X100416061Y-51588000D01*
X100330000Y-51579524D01*
X100243939Y-51588000D01*
X100243931Y-51588000D01*
X99986548Y-51613350D01*
X99656295Y-51713531D01*
X99351931Y-51876217D01*
X99162206Y-52031921D01*
X99085155Y-52095155D01*
X99030290Y-52162008D01*
X97424000Y-53768298D01*
X97424000Y-49138197D01*
X146973000Y-49138197D01*
X146973000Y-49581803D01*
X147059544Y-50016884D01*
X147229304Y-50426722D01*
X147475758Y-50795566D01*
X147789434Y-51109242D01*
X148158278Y-51355696D01*
X148568116Y-51525456D01*
X149003197Y-51612000D01*
X149446803Y-51612000D01*
X149881884Y-51525456D01*
X150291722Y-51355696D01*
X150660566Y-51109242D01*
X150974242Y-50795566D01*
X150980074Y-50786837D01*
X162368000Y-50786837D01*
X162368000Y-51575163D01*
X162521795Y-52348340D01*
X162823474Y-53076658D01*
X163261444Y-53732126D01*
X163818874Y-54289556D01*
X164474342Y-54727526D01*
X165202660Y-55029205D01*
X165975837Y-55183000D01*
X166764163Y-55183000D01*
X167537340Y-55029205D01*
X168265658Y-54727526D01*
X168921126Y-54289556D01*
X169478556Y-53732126D01*
X169916526Y-53076658D01*
X170218205Y-52348340D01*
X170372000Y-51575163D01*
X170372000Y-50786837D01*
X170218205Y-50013660D01*
X169916526Y-49285342D01*
X169478556Y-48629874D01*
X168921126Y-48072444D01*
X168265658Y-47634474D01*
X167537340Y-47332795D01*
X166764163Y-47179000D01*
X165975837Y-47179000D01*
X165202660Y-47332795D01*
X164474342Y-47634474D01*
X163818874Y-48072444D01*
X163261444Y-48629874D01*
X162823474Y-49285342D01*
X162521795Y-50013660D01*
X162368000Y-50786837D01*
X150980074Y-50786837D01*
X151220696Y-50426722D01*
X151390456Y-50016884D01*
X151477000Y-49581803D01*
X151477000Y-49138197D01*
X151390456Y-48703116D01*
X151220696Y-48293278D01*
X150974242Y-47924434D01*
X150660566Y-47610758D01*
X150291722Y-47364304D01*
X149881884Y-47194544D01*
X149446803Y-47108000D01*
X149003197Y-47108000D01*
X148568116Y-47194544D01*
X148158278Y-47364304D01*
X147789434Y-47610758D01*
X147475758Y-47924434D01*
X147229304Y-48293278D01*
X147059544Y-48703116D01*
X146973000Y-49138197D01*
X97424000Y-49138197D01*
X97424000Y-43599005D01*
X97437044Y-43465967D01*
X97464645Y-43374551D01*
X97509473Y-43290241D01*
X97569826Y-43216241D01*
X97643402Y-43155373D01*
X97727398Y-43109957D01*
X97818618Y-43081719D01*
X97949152Y-43068000D01*
X195287995Y-43068000D01*
X195421033Y-43081044D01*
G37*
%TD.AperFunction*%
D31*
X154787141Y-121567000D02*
X155092859Y-121567000D01*
X155195886Y-121546506D01*
X156175859Y-122526480D01*
X156204104Y-122560896D01*
X156341451Y-122673614D01*
X156498150Y-122757371D01*
X156668177Y-122808948D01*
X156800693Y-122822000D01*
X156800700Y-122822000D01*
X156845000Y-122826363D01*
X156889299Y-122822000D01*
X161551380Y-122822000D01*
X166230001Y-127500622D01*
X166230000Y-129876700D01*
X166225637Y-129921000D01*
X166230000Y-129965299D01*
X166230000Y-129965306D01*
X166243052Y-130097822D01*
X166294629Y-130267849D01*
X166378386Y-130424548D01*
X166491104Y-130561896D01*
X166525523Y-130590143D01*
X169278001Y-133342622D01*
X169278001Y-133858000D01*
X168533855Y-133858000D01*
X168528948Y-133808177D01*
X168516291Y-133766452D01*
X168477371Y-133638150D01*
X168393614Y-133481451D01*
X168309140Y-133378519D01*
X168309138Y-133378517D01*
X168280896Y-133344104D01*
X168246482Y-133315861D01*
X167674143Y-132743523D01*
X167645896Y-132709104D01*
X167508549Y-132596386D01*
X167351850Y-132512629D01*
X167181823Y-132461052D01*
X167049307Y-132448000D01*
X167049299Y-132448000D01*
X167005000Y-132443637D01*
X166960701Y-132448000D01*
X166293880Y-132448000D01*
X161509402Y-127663523D01*
X161481155Y-127629104D01*
X161343808Y-127516386D01*
X161187109Y-127432629D01*
X161017082Y-127381052D01*
X160884566Y-127368000D01*
X160884558Y-127368000D01*
X160840259Y-127363637D01*
X160795960Y-127368000D01*
X157218620Y-127368000D01*
X156646664Y-126796044D01*
X156755677Y-126750889D01*
X156944357Y-126624817D01*
X157104817Y-126464357D01*
X157230889Y-126275677D01*
X157317729Y-126066026D01*
X157362000Y-125843462D01*
X157362000Y-125616538D01*
X157317729Y-125393974D01*
X157230889Y-125184323D01*
X157104817Y-124995643D01*
X156944357Y-124835183D01*
X156755677Y-124709111D01*
X156546026Y-124622271D01*
X156336142Y-124580522D01*
X154572000Y-122816380D01*
X154572000Y-121524205D01*
X154787141Y-121567000D01*
%TA.AperFunction,Conductor*%
D32*
G36*
X154787141Y-121567000D02*
G01*
X155092859Y-121567000D01*
X155195886Y-121546506D01*
X156175859Y-122526480D01*
X156204104Y-122560896D01*
X156341451Y-122673614D01*
X156498150Y-122757371D01*
X156668177Y-122808948D01*
X156800693Y-122822000D01*
X156800700Y-122822000D01*
X156845000Y-122826363D01*
X156889299Y-122822000D01*
X161551380Y-122822000D01*
X166230001Y-127500622D01*
X166230000Y-129876700D01*
X166225637Y-129921000D01*
X166230000Y-129965299D01*
X166230000Y-129965306D01*
X166243052Y-130097822D01*
X166294629Y-130267849D01*
X166378386Y-130424548D01*
X166491104Y-130561896D01*
X166525523Y-130590143D01*
X169278001Y-133342622D01*
X169278001Y-133858000D01*
X168533855Y-133858000D01*
X168528948Y-133808177D01*
X168516291Y-133766452D01*
X168477371Y-133638150D01*
X168393614Y-133481451D01*
X168309140Y-133378519D01*
X168309138Y-133378517D01*
X168280896Y-133344104D01*
X168246482Y-133315861D01*
X167674143Y-132743523D01*
X167645896Y-132709104D01*
X167508549Y-132596386D01*
X167351850Y-132512629D01*
X167181823Y-132461052D01*
X167049307Y-132448000D01*
X167049299Y-132448000D01*
X167005000Y-132443637D01*
X166960701Y-132448000D01*
X166293880Y-132448000D01*
X161509402Y-127663523D01*
X161481155Y-127629104D01*
X161343808Y-127516386D01*
X161187109Y-127432629D01*
X161017082Y-127381052D01*
X160884566Y-127368000D01*
X160884558Y-127368000D01*
X160840259Y-127363637D01*
X160795960Y-127368000D01*
X157218620Y-127368000D01*
X156646664Y-126796044D01*
X156755677Y-126750889D01*
X156944357Y-126624817D01*
X157104817Y-126464357D01*
X157230889Y-126275677D01*
X157317729Y-126066026D01*
X157362000Y-125843462D01*
X157362000Y-125616538D01*
X157317729Y-125393974D01*
X157230889Y-125184323D01*
X157104817Y-124995643D01*
X156944357Y-124835183D01*
X156755677Y-124709111D01*
X156546026Y-124622271D01*
X156336142Y-124580522D01*
X154572000Y-122816380D01*
X154572000Y-121524205D01*
X154787141Y-121567000D01*
G37*
%TD.AperFunction*%
D31*
X136894738Y-110865359D02*
X136707298Y-110902643D01*
X136424853Y-111019636D01*
X136170658Y-111189483D01*
X135954483Y-111405658D01*
X135784636Y-111659853D01*
X135667643Y-111942298D01*
X135608000Y-112242141D01*
X135608000Y-112547859D01*
X135667643Y-112847702D01*
X135784636Y-113130147D01*
X135954483Y-113384342D01*
X136170658Y-113600517D01*
X136424853Y-113770364D01*
X136707298Y-113887357D01*
X137007141Y-113947000D01*
X137312859Y-113947000D01*
X137528000Y-113904205D01*
X137528000Y-114561380D01*
X135380621Y-116708759D01*
X135360364Y-116659853D01*
X135190517Y-116405658D01*
X134974342Y-116189483D01*
X134720147Y-116019636D01*
X134611353Y-115974572D01*
X135133365Y-115452559D01*
X135188154Y-115398151D01*
X135189969Y-115395955D01*
X135191978Y-115393946D01*
X135240832Y-115334417D01*
X135341169Y-115213022D01*
X135342529Y-115210499D01*
X135344346Y-115208285D01*
X135418508Y-115069538D01*
X135493233Y-114930904D01*
X135494075Y-114928163D01*
X135495424Y-114925639D01*
X135541125Y-114774983D01*
X135587335Y-114624539D01*
X135587625Y-114621693D01*
X135588458Y-114618948D01*
X135603897Y-114462196D01*
X135619862Y-114305703D01*
X135619591Y-114302851D01*
X135619872Y-114300000D01*
X135604431Y-114143224D01*
X135589560Y-113986648D01*
X135588739Y-113983908D01*
X135588458Y-113981053D01*
X135542722Y-113830281D01*
X135537000Y-113811179D01*
X135537000Y-112242141D01*
X135522052Y-112166992D01*
X135514543Y-112090755D01*
X135492305Y-112017446D01*
X135477357Y-111942298D01*
X135448036Y-111871512D01*
X135425798Y-111798202D01*
X135389684Y-111730637D01*
X135360364Y-111659853D01*
X135317799Y-111596150D01*
X135281684Y-111528583D01*
X135233083Y-111469362D01*
X135190517Y-111405658D01*
X135136339Y-111351480D01*
X135087739Y-111292261D01*
X135028522Y-111243663D01*
X134974342Y-111189483D01*
X134910634Y-111146915D01*
X134851416Y-111098316D01*
X134783854Y-111062203D01*
X134720147Y-111019636D01*
X134649359Y-110990314D01*
X134581797Y-110954202D01*
X134508491Y-110931965D01*
X134437702Y-110902643D01*
X134362551Y-110887694D01*
X134289244Y-110865457D01*
X134213009Y-110857948D01*
X134137859Y-110843000D01*
X134061239Y-110843000D01*
X133985000Y-110835491D01*
X133908761Y-110843000D01*
X133832141Y-110843000D01*
X133756992Y-110857948D01*
X133680755Y-110865457D01*
X133607446Y-110887695D01*
X133532298Y-110902643D01*
X133461512Y-110931964D01*
X133388202Y-110954202D01*
X133320637Y-110990316D01*
X133249853Y-111019636D01*
X133186150Y-111062201D01*
X133118583Y-111098316D01*
X133059362Y-111146917D01*
X132995658Y-111189483D01*
X132941480Y-111243661D01*
X132882261Y-111292261D01*
X132833663Y-111351478D01*
X132779483Y-111405658D01*
X132736915Y-111469366D01*
X132688316Y-111528584D01*
X132652203Y-111596146D01*
X132609636Y-111659853D01*
X132580314Y-111730641D01*
X132544202Y-111798203D01*
X132521965Y-111871509D01*
X132492643Y-111942298D01*
X132477694Y-112017449D01*
X132455457Y-112090756D01*
X132447948Y-112166991D01*
X132433000Y-112242141D01*
X132433000Y-112318762D01*
X132433001Y-113548269D01*
X130734255Y-115235205D01*
X130669972Y-115287961D01*
X130570051Y-115409715D01*
X130469831Y-115530969D01*
X130468473Y-115533489D01*
X130466655Y-115535704D01*
X130392488Y-115674460D01*
X130317767Y-115813087D01*
X130316925Y-115815828D01*
X130315576Y-115818352D01*
X130269903Y-115968918D01*
X130223665Y-116119452D01*
X130223374Y-116122302D01*
X130222543Y-116125042D01*
X130207115Y-116281687D01*
X130191139Y-116438288D01*
X130199001Y-116521071D01*
X130199001Y-118608095D01*
X129992702Y-118522643D01*
X129692859Y-118463000D01*
X129387141Y-118463000D01*
X129172000Y-118505795D01*
X129172000Y-114673620D01*
X129949712Y-113895908D01*
X129992702Y-113887357D01*
X130275147Y-113770364D01*
X130529342Y-113600517D01*
X130745517Y-113384342D01*
X130915364Y-113130147D01*
X131032357Y-112847702D01*
X131092000Y-112547859D01*
X131092000Y-112242141D01*
X131071506Y-112139114D01*
X133600986Y-109609635D01*
X133686026Y-109592719D01*
X133895677Y-109505879D01*
X134084357Y-109379807D01*
X134244817Y-109219347D01*
X134370889Y-109030667D01*
X134457729Y-108821016D01*
X134502000Y-108598452D01*
X134502000Y-108472620D01*
X136894738Y-110865359D01*
%TA.AperFunction,Conductor*%
D32*
G36*
X136894738Y-110865359D02*
G01*
X136707298Y-110902643D01*
X136424853Y-111019636D01*
X136170658Y-111189483D01*
X135954483Y-111405658D01*
X135784636Y-111659853D01*
X135667643Y-111942298D01*
X135608000Y-112242141D01*
X135608000Y-112547859D01*
X135667643Y-112847702D01*
X135784636Y-113130147D01*
X135954483Y-113384342D01*
X136170658Y-113600517D01*
X136424853Y-113770364D01*
X136707298Y-113887357D01*
X137007141Y-113947000D01*
X137312859Y-113947000D01*
X137528000Y-113904205D01*
X137528000Y-114561380D01*
X135380621Y-116708759D01*
X135360364Y-116659853D01*
X135190517Y-116405658D01*
X134974342Y-116189483D01*
X134720147Y-116019636D01*
X134611353Y-115974572D01*
X135133365Y-115452559D01*
X135188154Y-115398151D01*
X135189969Y-115395955D01*
X135191978Y-115393946D01*
X135240832Y-115334417D01*
X135341169Y-115213022D01*
X135342529Y-115210499D01*
X135344346Y-115208285D01*
X135418508Y-115069538D01*
X135493233Y-114930904D01*
X135494075Y-114928163D01*
X135495424Y-114925639D01*
X135541125Y-114774983D01*
X135587335Y-114624539D01*
X135587625Y-114621693D01*
X135588458Y-114618948D01*
X135603897Y-114462196D01*
X135619862Y-114305703D01*
X135619591Y-114302851D01*
X135619872Y-114300000D01*
X135604431Y-114143224D01*
X135589560Y-113986648D01*
X135588739Y-113983908D01*
X135588458Y-113981053D01*
X135542722Y-113830281D01*
X135537000Y-113811179D01*
X135537000Y-112242141D01*
X135522052Y-112166992D01*
X135514543Y-112090755D01*
X135492305Y-112017446D01*
X135477357Y-111942298D01*
X135448036Y-111871512D01*
X135425798Y-111798202D01*
X135389684Y-111730637D01*
X135360364Y-111659853D01*
X135317799Y-111596150D01*
X135281684Y-111528583D01*
X135233083Y-111469362D01*
X135190517Y-111405658D01*
X135136339Y-111351480D01*
X135087739Y-111292261D01*
X135028522Y-111243663D01*
X134974342Y-111189483D01*
X134910634Y-111146915D01*
X134851416Y-111098316D01*
X134783854Y-111062203D01*
X134720147Y-111019636D01*
X134649359Y-110990314D01*
X134581797Y-110954202D01*
X134508491Y-110931965D01*
X134437702Y-110902643D01*
X134362551Y-110887694D01*
X134289244Y-110865457D01*
X134213009Y-110857948D01*
X134137859Y-110843000D01*
X134061239Y-110843000D01*
X133985000Y-110835491D01*
X133908761Y-110843000D01*
X133832141Y-110843000D01*
X133756992Y-110857948D01*
X133680755Y-110865457D01*
X133607446Y-110887695D01*
X133532298Y-110902643D01*
X133461512Y-110931964D01*
X133388202Y-110954202D01*
X133320637Y-110990316D01*
X133249853Y-111019636D01*
X133186150Y-111062201D01*
X133118583Y-111098316D01*
X133059362Y-111146917D01*
X132995658Y-111189483D01*
X132941480Y-111243661D01*
X132882261Y-111292261D01*
X132833663Y-111351478D01*
X132779483Y-111405658D01*
X132736915Y-111469366D01*
X132688316Y-111528584D01*
X132652203Y-111596146D01*
X132609636Y-111659853D01*
X132580314Y-111730641D01*
X132544202Y-111798203D01*
X132521965Y-111871509D01*
X132492643Y-111942298D01*
X132477694Y-112017449D01*
X132455457Y-112090756D01*
X132447948Y-112166991D01*
X132433000Y-112242141D01*
X132433000Y-112318762D01*
X132433001Y-113548269D01*
X130734255Y-115235205D01*
X130669972Y-115287961D01*
X130570051Y-115409715D01*
X130469831Y-115530969D01*
X130468473Y-115533489D01*
X130466655Y-115535704D01*
X130392488Y-115674460D01*
X130317767Y-115813087D01*
X130316925Y-115815828D01*
X130315576Y-115818352D01*
X130269903Y-115968918D01*
X130223665Y-116119452D01*
X130223374Y-116122302D01*
X130222543Y-116125042D01*
X130207115Y-116281687D01*
X130191139Y-116438288D01*
X130199001Y-116521071D01*
X130199001Y-118608095D01*
X129992702Y-118522643D01*
X129692859Y-118463000D01*
X129387141Y-118463000D01*
X129172000Y-118505795D01*
X129172000Y-114673620D01*
X129949712Y-113895908D01*
X129992702Y-113887357D01*
X130275147Y-113770364D01*
X130529342Y-113600517D01*
X130745517Y-113384342D01*
X130915364Y-113130147D01*
X131032357Y-112847702D01*
X131092000Y-112547859D01*
X131092000Y-112242141D01*
X131071506Y-112139114D01*
X133600986Y-109609635D01*
X133686026Y-109592719D01*
X133895677Y-109505879D01*
X134084357Y-109379807D01*
X134244817Y-109219347D01*
X134370889Y-109030667D01*
X134457729Y-108821016D01*
X134502000Y-108598452D01*
X134502000Y-108472620D01*
X136894738Y-110865359D01*
G37*
%TD.AperFunction*%
%TD*%
D31*
%TO.N,GND*%
X172238000Y-117384298D02*
X170907008Y-118715290D01*
X170840155Y-118770155D01*
X170621217Y-119036931D01*
X170458531Y-119341295D01*
X170358350Y-119671548D01*
X170324523Y-120015000D01*
X170358350Y-120358452D01*
X170458531Y-120688705D01*
X170621217Y-120993069D01*
X170756573Y-121158000D01*
X165152606Y-121158000D01*
X162052000Y-118057394D01*
X162052000Y-114987606D01*
X164517606Y-112522000D01*
X172238000Y-112522000D01*
X172238000Y-117384298D01*
%TA.AperFunction,Conductor*%
D32*
G36*
X172238000Y-117384298D02*
G01*
X170907008Y-118715290D01*
X170840155Y-118770155D01*
X170621217Y-119036931D01*
X170458531Y-119341295D01*
X170358350Y-119671548D01*
X170324523Y-120015000D01*
X170358350Y-120358452D01*
X170458531Y-120688705D01*
X170621217Y-120993069D01*
X170756573Y-121158000D01*
X165152606Y-121158000D01*
X162052000Y-118057394D01*
X162052000Y-114987606D01*
X164517606Y-112522000D01*
X172238000Y-112522000D01*
X172238000Y-117384298D01*
G37*
%TD.AperFunction*%
D31*
X195819001Y-121158000D02*
X175318427Y-121158000D01*
X175453783Y-120993069D01*
X175616469Y-120688705D01*
X175716650Y-120358452D01*
X175750477Y-120015000D01*
X175742000Y-119928931D01*
X175742000Y-118196061D01*
X175750476Y-118110000D01*
X175742000Y-118023939D01*
X175742000Y-112522000D01*
X195819001Y-112522000D01*
X195819001Y-121158000D01*
%TA.AperFunction,Conductor*%
D32*
G36*
X195819001Y-121158000D02*
G01*
X175318427Y-121158000D01*
X175453783Y-120993069D01*
X175616469Y-120688705D01*
X175716650Y-120358452D01*
X175750477Y-120015000D01*
X175742000Y-119928931D01*
X175742000Y-118196061D01*
X175750476Y-118110000D01*
X175742000Y-118023939D01*
X175742000Y-112522000D01*
X195819001Y-112522000D01*
X195819001Y-121158000D01*
G37*
%TD.AperFunction*%
%TD*%
D31*
%TO.N,GND*%
X195819000Y-55753000D02*
X165152606Y-55753000D01*
X162052000Y-52652394D01*
X162052000Y-49582606D01*
X164517606Y-47117000D01*
X195819000Y-47117000D01*
X195819000Y-55753000D01*
%TA.AperFunction,Conductor*%
D32*
G36*
X195819000Y-55753000D02*
G01*
X165152606Y-55753000D01*
X162052000Y-52652394D01*
X162052000Y-49582606D01*
X164517606Y-47117000D01*
X195819000Y-47117000D01*
X195819000Y-55753000D01*
G37*
%TD.AperFunction*%
%TD*%
M02*
