%TF.GenerationSoftware,KiCad,Pcbnew,(5.1.9)-1*%
%TF.CreationDate,2021-08-18T21:25:33+08:00*%
%TF.ProjectId,EX-HX-Combo-Backplate,45582d48-582d-4436-9f6d-626f2d426163,rev?*%
%TF.SameCoordinates,Original*%
%TF.FileFunction,Copper,L1,Top*%
%TF.FilePolarity,Positive*%
%FSLAX46Y46*%
G04 Gerber Fmt 4.6, Leading zero omitted, Abs format (unit mm)*
G04 Created by KiCad (PCBNEW (5.1.9)-1) date 2021-08-18 21:25:33*
%MOMM*%
%LPD*%
G01*
G04 APERTURE LIST*
%TA.AperFunction,NonConductor*%
%ADD10C,0.300000*%
%TD*%
G04 APERTURE END LIST*
D10*
X158774285Y-32698571D02*
X159131428Y-33698571D01*
X159488571Y-32698571D01*
X160845714Y-33698571D02*
X159988571Y-33698571D01*
X160417142Y-33698571D02*
X160417142Y-32198571D01*
X160274285Y-32412857D01*
X160131428Y-32555714D01*
X159988571Y-32627142D01*
X161488571Y-33555714D02*
X161560000Y-33627142D01*
X161488571Y-33698571D01*
X161417142Y-33627142D01*
X161488571Y-33555714D01*
X161488571Y-33698571D01*
X162488571Y-32198571D02*
X162631428Y-32198571D01*
X162774285Y-32270000D01*
X162845714Y-32341428D01*
X162917142Y-32484285D01*
X162988571Y-32770000D01*
X162988571Y-33127142D01*
X162917142Y-33412857D01*
X162845714Y-33555714D01*
X162774285Y-33627142D01*
X162631428Y-33698571D01*
X162488571Y-33698571D01*
X162345714Y-33627142D01*
X162274285Y-33555714D01*
X162202857Y-33412857D01*
X162131428Y-33127142D01*
X162131428Y-32770000D01*
X162202857Y-32484285D01*
X162274285Y-32341428D01*
X162345714Y-32270000D01*
X162488571Y-32198571D01*
X163274285Y-33841428D02*
X164417142Y-33841428D01*
X165417142Y-33698571D02*
X165417142Y-32912857D01*
X165345714Y-32770000D01*
X165202857Y-32698571D01*
X164917142Y-32698571D01*
X164774285Y-32770000D01*
X165417142Y-33627142D02*
X165274285Y-33698571D01*
X164917142Y-33698571D01*
X164774285Y-33627142D01*
X164702857Y-33484285D01*
X164702857Y-33341428D01*
X164774285Y-33198571D01*
X164917142Y-33127142D01*
X165274285Y-33127142D01*
X165417142Y-33055714D01*
X166345714Y-33698571D02*
X166202857Y-33627142D01*
X166131428Y-33484285D01*
X166131428Y-32198571D01*
M02*
