%TF.GenerationSoftware,KiCad,Pcbnew,(5.1.9)-1*%
%TF.CreationDate,2021-09-26T20:48:04+08:00*%
%TF.ProjectId,EX-HX-Combo-Backplate,45582d48-582d-4436-9f6d-626f2d426163,rev?*%
%TF.SameCoordinates,Original*%
%TF.FileFunction,Profile,NP*%
%FSLAX46Y46*%
G04 Gerber Fmt 4.6, Leading zero omitted, Abs format (unit mm)*
G04 Created by KiCad (PCBNEW (5.1.9)-1) date 2021-09-26 20:48:04*
%MOMM*%
%LPD*%
G01*
G04 APERTURE LIST*
%TA.AperFunction,Profile*%
%ADD10C,0.100000*%
%TD*%
G04 APERTURE END LIST*
D10*
X256880000Y-102860000D02*
X256880000Y-51140000D01*
X262180000Y-53540000D02*
X262180000Y-100260000D01*
X266860096Y-127745835D02*
X266860000Y-112285000D01*
X258265880Y-129207019D02*
X263925041Y-130206969D01*
X256199904Y-113285835D02*
X256200000Y-126745000D01*
X263925880Y-109822981D02*
X258265041Y-110823031D01*
X266860096Y-127745835D02*
G75*
G02*
X263925041Y-130206969I-2500096J835D01*
G01*
X258265880Y-129207019D02*
G75*
G02*
X256200000Y-126745000I434120J2462019D01*
G01*
X256199904Y-113285835D02*
G75*
G02*
X258265041Y-110823031I2500096J835D01*
G01*
X263925880Y-109822981D02*
G75*
G02*
X266860000Y-112285000I434120J-2462019D01*
G01*
X258780000Y-102260000D02*
X258480000Y-102260000D01*
X258480000Y-102860000D02*
G75*
G02*
X256880000Y-102860000I-800000J0D01*
G01*
X259580000Y-101460000D02*
G75*
G02*
X258780000Y-102260000I-800000J0D01*
G01*
X262180000Y-100260000D02*
G75*
G02*
X261380000Y-101060000I-800000J0D01*
G01*
X261380000Y-52740000D02*
G75*
G02*
X262180000Y-53540000I0J-800000D01*
G01*
X259580000Y-52540000D02*
X259580000Y-52740000D01*
X258480000Y-51740000D02*
X258780000Y-51740000D01*
X258780000Y-51740000D02*
G75*
G02*
X259580000Y-52540000I0J-800000D01*
G01*
X256880000Y-51140000D02*
G75*
G02*
X258480000Y-51140000I800000J0D01*
G01*
X269230000Y-32810000D02*
G75*
G02*
X270230000Y-33810000I0J-1000000D01*
G01*
X270230000Y-151970000D02*
G75*
G02*
X269230000Y-152970000I-1000000J0D01*
G01*
X253730000Y-152970000D02*
G75*
G02*
X252730000Y-151970000I0J1000000D01*
G01*
X252730000Y-33810000D02*
G75*
G02*
X253730000Y-32810000I1000000J0D01*
G01*
X270230000Y-151970000D02*
X270230000Y-33810000D01*
X252730000Y-33810000D02*
X252730000Y-151970000D01*
X259580000Y-101060000D02*
X259580000Y-101460000D01*
X258480000Y-51740000D02*
X258480000Y-51140000D01*
X258480000Y-102860000D02*
X258480000Y-102260000D01*
X259580000Y-52740000D02*
X261380000Y-52740000D01*
X259580000Y-101060000D02*
X261380000Y-101060000D01*
X253730000Y-152970000D02*
X269230000Y-152970000D01*
X253730000Y-32810000D02*
X269230000Y-32810000D01*
M02*
