%TF.GenerationSoftware,KiCad,Pcbnew,(5.1.9)-1*%
%TF.CreationDate,2021-08-19T10:25:23+08:00*%
%TF.ProjectId,EX-HX-Combo-Backplate,45582d48-582d-4436-9f6d-626f2d426163,rev?*%
%TF.SameCoordinates,Original*%
%TF.FileFunction,Profile,NP*%
%FSLAX46Y46*%
G04 Gerber Fmt 4.6, Leading zero omitted, Abs format (unit mm)*
G04 Created by KiCad (PCBNEW (5.1.9)-1) date 2021-08-19 10:25:23*
%MOMM*%
%LPD*%
G01*
G04 APERTURE LIST*
%TA.AperFunction,Profile*%
%ADD10C,0.100000*%
%TD*%
G04 APERTURE END LIST*
D10*
X270230000Y-151970000D02*
X270230000Y-27460000D01*
X252730000Y-27460000D02*
X252730000Y-151970000D01*
X256530000Y-127140000D02*
X256530000Y-112890000D01*
X264530000Y-129140000D02*
X258432300Y-129137612D01*
X266530000Y-112890000D02*
X266530000Y-127140000D01*
X258530000Y-110890000D02*
X264530000Y-110890000D01*
X266530000Y-127140000D02*
G75*
G02*
X264530000Y-129140000I-2000000J0D01*
G01*
X258432300Y-129137612D02*
G75*
G02*
X256530000Y-127140000I97700J1997612D01*
G01*
X264530000Y-110890000D02*
G75*
G02*
X266530000Y-112890000I0J-2000000D01*
G01*
X256530000Y-112890000D02*
G75*
G02*
X258530000Y-110890000I2000000J0D01*
G01*
X257280000Y-103460000D02*
X257680000Y-103460000D01*
X257280000Y-103460000D02*
G75*
G02*
X256880000Y-103060000I0J400000D01*
G01*
X258080000Y-103060000D02*
G75*
G02*
X257680000Y-103460000I-400000J0D01*
G01*
X257280000Y-50540000D02*
X257680000Y-50540000D01*
X257680000Y-50540000D02*
G75*
G02*
X258080000Y-50940000I0J-400000D01*
G01*
X256880000Y-50940000D02*
G75*
G02*
X257280000Y-50540000I400000J0D01*
G01*
X259580000Y-52940000D02*
X259580000Y-51940000D01*
X262180000Y-100860000D02*
X262180000Y-52940000D01*
X259580000Y-100860000D02*
X259580000Y-102060000D01*
X256880000Y-50940000D02*
X256880000Y-103060000D01*
X258080000Y-51940000D02*
X258080000Y-50940000D01*
X258080000Y-103060000D02*
X258080000Y-102060000D01*
X258080000Y-51940000D02*
X259580000Y-51940000D01*
X259580000Y-52940000D02*
X262180000Y-52940000D01*
X259580000Y-100860000D02*
X262180000Y-100860000D01*
X258080000Y-102060000D02*
X259580000Y-102060000D01*
X252730000Y-151970000D02*
X270230000Y-151970000D01*
X252730000Y-27460000D02*
X270230000Y-27460000D01*
M02*
