%TF.GenerationSoftware,KiCad,Pcbnew,(5.1.9)-1*%
%TF.CreationDate,2021-09-26T20:48:04+08:00*%
%TF.ProjectId,EX-HX-Combo-Backplate,45582d48-582d-4436-9f6d-626f2d426163,rev?*%
%TF.SameCoordinates,Original*%
%TF.FileFunction,Legend,Bot*%
%TF.FilePolarity,Positive*%
%FSLAX46Y46*%
G04 Gerber Fmt 4.6, Leading zero omitted, Abs format (unit mm)*
G04 Created by KiCad (PCBNEW (5.1.9)-1) date 2021-09-26 20:48:04*
%MOMM*%
%LPD*%
G01*
G04 APERTURE LIST*
%ADD10C,0.150000*%
G04 APERTURE END LIST*
D10*
X264492142Y-60525476D02*
X264539761Y-60477857D01*
X264587380Y-60335000D01*
X264587380Y-60239761D01*
X264539761Y-60096904D01*
X264444523Y-60001666D01*
X264349285Y-59954047D01*
X264158809Y-59906428D01*
X264015952Y-59906428D01*
X263825476Y-59954047D01*
X263730238Y-60001666D01*
X263635000Y-60096904D01*
X263587380Y-60239761D01*
X263587380Y-60335000D01*
X263635000Y-60477857D01*
X263682619Y-60525476D01*
X264587380Y-61096904D02*
X264539761Y-61001666D01*
X264492142Y-60954047D01*
X264396904Y-60906428D01*
X264111190Y-60906428D01*
X264015952Y-60954047D01*
X263968333Y-61001666D01*
X263920714Y-61096904D01*
X263920714Y-61239761D01*
X263968333Y-61335000D01*
X264015952Y-61382619D01*
X264111190Y-61430238D01*
X264396904Y-61430238D01*
X264492142Y-61382619D01*
X264539761Y-61335000D01*
X264587380Y-61239761D01*
X264587380Y-61096904D01*
X263920714Y-61858809D02*
X264920714Y-61858809D01*
X263968333Y-61858809D02*
X263920714Y-61954047D01*
X263920714Y-62144523D01*
X263968333Y-62239761D01*
X264015952Y-62287380D01*
X264111190Y-62335000D01*
X264396904Y-62335000D01*
X264492142Y-62287380D01*
X264539761Y-62239761D01*
X264587380Y-62144523D01*
X264587380Y-61954047D01*
X264539761Y-61858809D01*
X263920714Y-62668333D02*
X264587380Y-62906428D01*
X263920714Y-63144523D02*
X264587380Y-62906428D01*
X264825476Y-62811190D01*
X264873095Y-62763571D01*
X264920714Y-62668333D01*
X264587380Y-63525476D02*
X263920714Y-63525476D01*
X264111190Y-63525476D02*
X264015952Y-63573095D01*
X263968333Y-63620714D01*
X263920714Y-63715952D01*
X263920714Y-63811190D01*
X264587380Y-64144523D02*
X263920714Y-64144523D01*
X263587380Y-64144523D02*
X263635000Y-64096904D01*
X263682619Y-64144523D01*
X263635000Y-64192142D01*
X263587380Y-64144523D01*
X263682619Y-64144523D01*
X263920714Y-65049285D02*
X264730238Y-65049285D01*
X264825476Y-65001666D01*
X264873095Y-64954047D01*
X264920714Y-64858809D01*
X264920714Y-64715952D01*
X264873095Y-64620714D01*
X264539761Y-65049285D02*
X264587380Y-64954047D01*
X264587380Y-64763571D01*
X264539761Y-64668333D01*
X264492142Y-64620714D01*
X264396904Y-64573095D01*
X264111190Y-64573095D01*
X264015952Y-64620714D01*
X263968333Y-64668333D01*
X263920714Y-64763571D01*
X263920714Y-64954047D01*
X263968333Y-65049285D01*
X264587380Y-65525476D02*
X263587380Y-65525476D01*
X264587380Y-65954047D02*
X264063571Y-65954047D01*
X263968333Y-65906428D01*
X263920714Y-65811190D01*
X263920714Y-65668333D01*
X263968333Y-65573095D01*
X264015952Y-65525476D01*
X263920714Y-66287380D02*
X263920714Y-66668333D01*
X263587380Y-66430238D02*
X264444523Y-66430238D01*
X264539761Y-66477857D01*
X264587380Y-66573095D01*
X264587380Y-66668333D01*
X264968333Y-68049285D02*
X264920714Y-68001666D01*
X264777857Y-67906428D01*
X264682619Y-67858809D01*
X264539761Y-67811190D01*
X264301666Y-67763571D01*
X264111190Y-67763571D01*
X263873095Y-67811190D01*
X263730238Y-67858809D01*
X263635000Y-67906428D01*
X263492142Y-68001666D01*
X263444523Y-68049285D01*
X264492142Y-69001666D02*
X264539761Y-68954047D01*
X264587380Y-68811190D01*
X264587380Y-68715952D01*
X264539761Y-68573095D01*
X264444523Y-68477857D01*
X264349285Y-68430238D01*
X264158809Y-68382619D01*
X264015952Y-68382619D01*
X263825476Y-68430238D01*
X263730238Y-68477857D01*
X263635000Y-68573095D01*
X263587380Y-68715952D01*
X263587380Y-68811190D01*
X263635000Y-68954047D01*
X263682619Y-69001666D01*
X264968333Y-69335000D02*
X264920714Y-69382619D01*
X264777857Y-69477857D01*
X264682619Y-69525476D01*
X264539761Y-69573095D01*
X264301666Y-69620714D01*
X264111190Y-69620714D01*
X263873095Y-69573095D01*
X263730238Y-69525476D01*
X263635000Y-69477857D01*
X263492142Y-69382619D01*
X263444523Y-69335000D01*
X263682619Y-70811190D02*
X263635000Y-70858809D01*
X263587380Y-70954047D01*
X263587380Y-71192142D01*
X263635000Y-71287380D01*
X263682619Y-71335000D01*
X263777857Y-71382619D01*
X263873095Y-71382619D01*
X264015952Y-71335000D01*
X264587380Y-70763571D01*
X264587380Y-71382619D01*
X263587380Y-72001666D02*
X263587380Y-72096904D01*
X263635000Y-72192142D01*
X263682619Y-72239761D01*
X263777857Y-72287380D01*
X263968333Y-72335000D01*
X264206428Y-72335000D01*
X264396904Y-72287380D01*
X264492142Y-72239761D01*
X264539761Y-72192142D01*
X264587380Y-72096904D01*
X264587380Y-72001666D01*
X264539761Y-71906428D01*
X264492142Y-71858809D01*
X264396904Y-71811190D01*
X264206428Y-71763571D01*
X263968333Y-71763571D01*
X263777857Y-71811190D01*
X263682619Y-71858809D01*
X263635000Y-71906428D01*
X263587380Y-72001666D01*
X263682619Y-72715952D02*
X263635000Y-72763571D01*
X263587380Y-72858809D01*
X263587380Y-73096904D01*
X263635000Y-73192142D01*
X263682619Y-73239761D01*
X263777857Y-73287380D01*
X263873095Y-73287380D01*
X264015952Y-73239761D01*
X264587380Y-72668333D01*
X264587380Y-73287380D01*
X264587380Y-74239761D02*
X264587380Y-73668333D01*
X264587380Y-73954047D02*
X263587380Y-73954047D01*
X263730238Y-73858809D01*
X263825476Y-73763571D01*
X263873095Y-73668333D01*
X263587380Y-75287380D02*
X263587380Y-75858809D01*
X264587380Y-75573095D02*
X263587380Y-75573095D01*
X264587380Y-76192142D02*
X263920714Y-76192142D01*
X263587380Y-76192142D02*
X263635000Y-76144523D01*
X263682619Y-76192142D01*
X263635000Y-76239761D01*
X263587380Y-76192142D01*
X263682619Y-76192142D01*
X263920714Y-76525476D02*
X263920714Y-76906428D01*
X263587380Y-76668333D02*
X264444523Y-76668333D01*
X264539761Y-76715952D01*
X264587380Y-76811190D01*
X264587380Y-76906428D01*
X264587380Y-77668333D02*
X264063571Y-77668333D01*
X263968333Y-77620714D01*
X263920714Y-77525476D01*
X263920714Y-77334999D01*
X263968333Y-77239761D01*
X264539761Y-77668333D02*
X264587380Y-77573095D01*
X264587380Y-77334999D01*
X264539761Y-77239761D01*
X264444523Y-77192142D01*
X264349285Y-77192142D01*
X264254047Y-77239761D01*
X264206428Y-77334999D01*
X264206428Y-77573095D01*
X264158809Y-77668333D01*
X263920714Y-78144523D02*
X264587380Y-78144523D01*
X264015952Y-78144523D02*
X263968333Y-78192142D01*
X263920714Y-78287380D01*
X263920714Y-78430238D01*
X263968333Y-78525476D01*
X264063571Y-78573095D01*
X264587380Y-78573095D01*
X264587380Y-79049285D02*
X263920714Y-79049285D01*
X263587380Y-79049285D02*
X263635000Y-79001666D01*
X263682619Y-79049285D01*
X263635000Y-79096904D01*
X263587380Y-79049285D01*
X263682619Y-79049285D01*
X263920714Y-79954047D02*
X264587380Y-79954047D01*
X263920714Y-79525476D02*
X264444523Y-79525476D01*
X264539761Y-79573095D01*
X264587380Y-79668333D01*
X264587380Y-79811190D01*
X264539761Y-79906428D01*
X264492142Y-79954047D01*
X264587380Y-80430238D02*
X263920714Y-80430238D01*
X264015952Y-80430238D02*
X263968333Y-80477857D01*
X263920714Y-80573095D01*
X263920714Y-80715952D01*
X263968333Y-80811190D01*
X264063571Y-80858809D01*
X264587380Y-80858809D01*
X264063571Y-80858809D02*
X263968333Y-80906428D01*
X263920714Y-81001666D01*
X263920714Y-81144523D01*
X263968333Y-81239761D01*
X264063571Y-81287380D01*
X264587380Y-81287380D01*
X264539761Y-82477857D02*
X264587380Y-82620714D01*
X264587380Y-82858809D01*
X264539761Y-82954047D01*
X264492142Y-83001666D01*
X264396904Y-83049285D01*
X264301666Y-83049285D01*
X264206428Y-83001666D01*
X264158809Y-82954047D01*
X264111190Y-82858809D01*
X264063571Y-82668333D01*
X264015952Y-82573095D01*
X263968333Y-82525476D01*
X263873095Y-82477857D01*
X263777857Y-82477857D01*
X263682619Y-82525476D01*
X263635000Y-82573095D01*
X263587380Y-82668333D01*
X263587380Y-82906428D01*
X263635000Y-83049285D01*
X263920714Y-83334999D02*
X263920714Y-83715952D01*
X263587380Y-83477857D02*
X264444523Y-83477857D01*
X264539761Y-83525476D01*
X264587380Y-83620714D01*
X264587380Y-83715952D01*
X263920714Y-84477857D02*
X264587380Y-84477857D01*
X263920714Y-84049285D02*
X264444523Y-84049285D01*
X264539761Y-84096904D01*
X264587380Y-84192142D01*
X264587380Y-84334999D01*
X264539761Y-84430238D01*
X264492142Y-84477857D01*
X264587380Y-85382619D02*
X263587380Y-85382619D01*
X264539761Y-85382619D02*
X264587380Y-85287380D01*
X264587380Y-85096904D01*
X264539761Y-85001666D01*
X264492142Y-84954047D01*
X264396904Y-84906428D01*
X264111190Y-84906428D01*
X264015952Y-84954047D01*
X263968333Y-85001666D01*
X263920714Y-85096904D01*
X263920714Y-85287380D01*
X263968333Y-85382619D01*
X264587380Y-85858809D02*
X263920714Y-85858809D01*
X263587380Y-85858809D02*
X263635000Y-85811190D01*
X263682619Y-85858809D01*
X263635000Y-85906428D01*
X263587380Y-85858809D01*
X263682619Y-85858809D01*
X264587380Y-86477857D02*
X264539761Y-86382619D01*
X264492142Y-86334999D01*
X264396904Y-86287380D01*
X264111190Y-86287380D01*
X264015952Y-86334999D01*
X263968333Y-86382619D01*
X263920714Y-86477857D01*
X263920714Y-86620714D01*
X263968333Y-86715952D01*
X264015952Y-86763571D01*
X264111190Y-86811190D01*
X264396904Y-86811190D01*
X264492142Y-86763571D01*
X264539761Y-86715952D01*
X264587380Y-86620714D01*
X264587380Y-86477857D01*
X264539761Y-87192142D02*
X264587380Y-87287380D01*
X264587380Y-87477857D01*
X264539761Y-87573095D01*
X264444523Y-87620714D01*
X264396904Y-87620714D01*
X264301666Y-87573095D01*
X264254047Y-87477857D01*
X264254047Y-87334999D01*
X264206428Y-87239761D01*
X264111190Y-87192142D01*
X264063571Y-87192142D01*
X263968333Y-87239761D01*
X263920714Y-87334999D01*
X263920714Y-87477857D01*
X263968333Y-87573095D01*
X264587380Y-88811190D02*
X263587380Y-88811190D01*
X263587380Y-89192142D01*
X263635000Y-89287380D01*
X263682619Y-89334999D01*
X263777857Y-89382619D01*
X263920714Y-89382619D01*
X264015952Y-89334999D01*
X264063571Y-89287380D01*
X264111190Y-89192142D01*
X264111190Y-88811190D01*
X263920714Y-89668333D02*
X263920714Y-90049285D01*
X263587380Y-89811190D02*
X264444523Y-89811190D01*
X264539761Y-89858809D01*
X264587380Y-89954047D01*
X264587380Y-90049285D01*
X263920714Y-90287380D02*
X264587380Y-90525476D01*
X263920714Y-90763571D02*
X264587380Y-90525476D01*
X264825476Y-90430238D01*
X264873095Y-90382619D01*
X264920714Y-90287380D01*
X264587380Y-92382619D02*
X264587380Y-91906428D01*
X263587380Y-91906428D01*
X263920714Y-92573095D02*
X263920714Y-92954047D01*
X263587380Y-92715952D02*
X264444523Y-92715952D01*
X264539761Y-92763571D01*
X264587380Y-92858809D01*
X264587380Y-92954047D01*
X264587380Y-93715952D02*
X263587380Y-93715952D01*
X264539761Y-93715952D02*
X264587380Y-93620714D01*
X264587380Y-93430238D01*
X264539761Y-93334999D01*
X264492142Y-93287380D01*
X264396904Y-93239761D01*
X264111190Y-93239761D01*
X264015952Y-93287380D01*
X263968333Y-93334999D01*
X263920714Y-93430238D01*
X263920714Y-93620714D01*
X263968333Y-93715952D01*
X266142142Y-55168333D02*
X266189761Y-55120714D01*
X266237380Y-54977857D01*
X266237380Y-54882619D01*
X266189761Y-54739761D01*
X266094523Y-54644523D01*
X265999285Y-54596904D01*
X265808809Y-54549285D01*
X265665952Y-54549285D01*
X265475476Y-54596904D01*
X265380238Y-54644523D01*
X265285000Y-54739761D01*
X265237380Y-54882619D01*
X265237380Y-54977857D01*
X265285000Y-55120714D01*
X265332619Y-55168333D01*
X266237380Y-55596904D02*
X265570714Y-55596904D01*
X265761190Y-55596904D02*
X265665952Y-55644523D01*
X265618333Y-55692142D01*
X265570714Y-55787380D01*
X265570714Y-55882619D01*
X266189761Y-56596904D02*
X266237380Y-56501666D01*
X266237380Y-56311190D01*
X266189761Y-56215952D01*
X266094523Y-56168333D01*
X265713571Y-56168333D01*
X265618333Y-56215952D01*
X265570714Y-56311190D01*
X265570714Y-56501666D01*
X265618333Y-56596904D01*
X265713571Y-56644523D01*
X265808809Y-56644523D01*
X265904047Y-56168333D01*
X266237380Y-57501666D02*
X265713571Y-57501666D01*
X265618333Y-57454047D01*
X265570714Y-57358809D01*
X265570714Y-57168333D01*
X265618333Y-57073095D01*
X266189761Y-57501666D02*
X266237380Y-57406428D01*
X266237380Y-57168333D01*
X266189761Y-57073095D01*
X266094523Y-57025476D01*
X265999285Y-57025476D01*
X265904047Y-57073095D01*
X265856428Y-57168333D01*
X265856428Y-57406428D01*
X265808809Y-57501666D01*
X265570714Y-57835000D02*
X265570714Y-58215952D01*
X265237380Y-57977857D02*
X266094523Y-57977857D01*
X266189761Y-58025476D01*
X266237380Y-58120714D01*
X266237380Y-58215952D01*
X266237380Y-58549285D02*
X265570714Y-58549285D01*
X265237380Y-58549285D02*
X265285000Y-58501666D01*
X265332619Y-58549285D01*
X265285000Y-58596904D01*
X265237380Y-58549285D01*
X265332619Y-58549285D01*
X265570714Y-58930238D02*
X266237380Y-59168333D01*
X265570714Y-59406428D01*
X266189761Y-60168333D02*
X266237380Y-60073095D01*
X266237380Y-59882619D01*
X266189761Y-59787380D01*
X266094523Y-59739761D01*
X265713571Y-59739761D01*
X265618333Y-59787380D01*
X265570714Y-59882619D01*
X265570714Y-60073095D01*
X265618333Y-60168333D01*
X265713571Y-60215952D01*
X265808809Y-60215952D01*
X265904047Y-59739761D01*
X266142142Y-61977857D02*
X266189761Y-61930238D01*
X266237380Y-61787380D01*
X266237380Y-61692142D01*
X266189761Y-61549285D01*
X266094523Y-61454047D01*
X265999285Y-61406428D01*
X265808809Y-61358809D01*
X265665952Y-61358809D01*
X265475476Y-61406428D01*
X265380238Y-61454047D01*
X265285000Y-61549285D01*
X265237380Y-61692142D01*
X265237380Y-61787380D01*
X265285000Y-61930238D01*
X265332619Y-61977857D01*
X266237380Y-62549285D02*
X266189761Y-62454047D01*
X266142142Y-62406428D01*
X266046904Y-62358809D01*
X265761190Y-62358809D01*
X265665952Y-62406428D01*
X265618333Y-62454047D01*
X265570714Y-62549285D01*
X265570714Y-62692142D01*
X265618333Y-62787380D01*
X265665952Y-62835000D01*
X265761190Y-62882619D01*
X266046904Y-62882619D01*
X266142142Y-62835000D01*
X266189761Y-62787380D01*
X266237380Y-62692142D01*
X266237380Y-62549285D01*
X266237380Y-63311190D02*
X265570714Y-63311190D01*
X265665952Y-63311190D02*
X265618333Y-63358809D01*
X265570714Y-63454047D01*
X265570714Y-63596904D01*
X265618333Y-63692142D01*
X265713571Y-63739761D01*
X266237380Y-63739761D01*
X265713571Y-63739761D02*
X265618333Y-63787380D01*
X265570714Y-63882619D01*
X265570714Y-64025476D01*
X265618333Y-64120714D01*
X265713571Y-64168333D01*
X266237380Y-64168333D01*
X266237380Y-64644523D02*
X265570714Y-64644523D01*
X265665952Y-64644523D02*
X265618333Y-64692142D01*
X265570714Y-64787380D01*
X265570714Y-64930238D01*
X265618333Y-65025476D01*
X265713571Y-65073095D01*
X266237380Y-65073095D01*
X265713571Y-65073095D02*
X265618333Y-65120714D01*
X265570714Y-65215952D01*
X265570714Y-65358809D01*
X265618333Y-65454047D01*
X265713571Y-65501666D01*
X266237380Y-65501666D01*
X266237380Y-66120714D02*
X266189761Y-66025476D01*
X266142142Y-65977857D01*
X266046904Y-65930238D01*
X265761190Y-65930238D01*
X265665952Y-65977857D01*
X265618333Y-66025476D01*
X265570714Y-66120714D01*
X265570714Y-66263571D01*
X265618333Y-66358809D01*
X265665952Y-66406428D01*
X265761190Y-66454047D01*
X266046904Y-66454047D01*
X266142142Y-66406428D01*
X266189761Y-66358809D01*
X266237380Y-66263571D01*
X266237380Y-66120714D01*
X265570714Y-66882619D02*
X266237380Y-66882619D01*
X265665952Y-66882619D02*
X265618333Y-66930238D01*
X265570714Y-67025476D01*
X265570714Y-67168333D01*
X265618333Y-67263571D01*
X265713571Y-67311190D01*
X266237380Y-67311190D01*
X266189761Y-67739761D02*
X266237380Y-67835000D01*
X266237380Y-68025476D01*
X266189761Y-68120714D01*
X266094523Y-68168333D01*
X266046904Y-68168333D01*
X265951666Y-68120714D01*
X265904047Y-68025476D01*
X265904047Y-67882619D01*
X265856428Y-67787380D01*
X265761190Y-67739761D01*
X265713571Y-67739761D01*
X265618333Y-67787380D01*
X265570714Y-67882619D01*
X265570714Y-68025476D01*
X265618333Y-68120714D01*
X265951666Y-69311190D02*
X265951666Y-69787380D01*
X266237380Y-69215952D02*
X265237380Y-69549285D01*
X266237380Y-69882619D01*
X265570714Y-70073095D02*
X265570714Y-70454047D01*
X265237380Y-70215952D02*
X266094523Y-70215952D01*
X266189761Y-70263571D01*
X266237380Y-70358809D01*
X266237380Y-70454047D01*
X265570714Y-70644523D02*
X265570714Y-71025476D01*
X265237380Y-70787380D02*
X266094523Y-70787380D01*
X266189761Y-70835000D01*
X266237380Y-70930238D01*
X266237380Y-71025476D01*
X266237380Y-71358809D02*
X265570714Y-71358809D01*
X265761190Y-71358809D02*
X265665952Y-71406428D01*
X265618333Y-71454047D01*
X265570714Y-71549285D01*
X265570714Y-71644523D01*
X266237380Y-71977857D02*
X265570714Y-71977857D01*
X265237380Y-71977857D02*
X265285000Y-71930238D01*
X265332619Y-71977857D01*
X265285000Y-72025476D01*
X265237380Y-71977857D01*
X265332619Y-71977857D01*
X266237380Y-72454047D02*
X265237380Y-72454047D01*
X265618333Y-72454047D02*
X265570714Y-72549285D01*
X265570714Y-72739761D01*
X265618333Y-72835000D01*
X265665952Y-72882619D01*
X265761190Y-72930238D01*
X266046904Y-72930238D01*
X266142142Y-72882619D01*
X266189761Y-72835000D01*
X266237380Y-72739761D01*
X266237380Y-72549285D01*
X266189761Y-72454047D01*
X265570714Y-73787380D02*
X266237380Y-73787380D01*
X265570714Y-73358809D02*
X266094523Y-73358809D01*
X266189761Y-73406428D01*
X266237380Y-73501666D01*
X266237380Y-73644523D01*
X266189761Y-73739761D01*
X266142142Y-73787380D01*
X265570714Y-74120714D02*
X265570714Y-74501666D01*
X265237380Y-74263571D02*
X266094523Y-74263571D01*
X266189761Y-74311190D01*
X266237380Y-74406428D01*
X266237380Y-74501666D01*
X266237380Y-74835000D02*
X265570714Y-74835000D01*
X265237380Y-74835000D02*
X265285000Y-74787380D01*
X265332619Y-74835000D01*
X265285000Y-74882619D01*
X265237380Y-74835000D01*
X265332619Y-74835000D01*
X266237380Y-75454047D02*
X266189761Y-75358809D01*
X266142142Y-75311190D01*
X266046904Y-75263571D01*
X265761190Y-75263571D01*
X265665952Y-75311190D01*
X265618333Y-75358809D01*
X265570714Y-75454047D01*
X265570714Y-75596904D01*
X265618333Y-75692142D01*
X265665952Y-75739761D01*
X265761190Y-75787380D01*
X266046904Y-75787380D01*
X266142142Y-75739761D01*
X266189761Y-75692142D01*
X266237380Y-75596904D01*
X266237380Y-75454047D01*
X265570714Y-76215952D02*
X266237380Y-76215952D01*
X265665952Y-76215952D02*
X265618333Y-76263571D01*
X265570714Y-76358809D01*
X265570714Y-76501666D01*
X265618333Y-76596904D01*
X265713571Y-76644523D01*
X266237380Y-76644523D01*
X265856428Y-77120714D02*
X265856428Y-77882619D01*
X266189761Y-78311190D02*
X266237380Y-78454047D01*
X266237380Y-78692142D01*
X266189761Y-78787380D01*
X266142142Y-78835000D01*
X266046904Y-78882619D01*
X265951666Y-78882619D01*
X265856428Y-78835000D01*
X265808809Y-78787380D01*
X265761190Y-78692142D01*
X265713571Y-78501666D01*
X265665952Y-78406428D01*
X265618333Y-78358809D01*
X265523095Y-78311190D01*
X265427857Y-78311190D01*
X265332619Y-78358809D01*
X265285000Y-78406428D01*
X265237380Y-78501666D01*
X265237380Y-78739761D01*
X265285000Y-78882619D01*
X266237380Y-79311190D02*
X265237380Y-79311190D01*
X266237380Y-79739761D02*
X265713571Y-79739761D01*
X265618333Y-79692142D01*
X265570714Y-79596904D01*
X265570714Y-79454047D01*
X265618333Y-79358809D01*
X265665952Y-79311190D01*
X266237380Y-80644523D02*
X265713571Y-80644523D01*
X265618333Y-80596904D01*
X265570714Y-80501666D01*
X265570714Y-80311190D01*
X265618333Y-80215952D01*
X266189761Y-80644523D02*
X266237380Y-80549285D01*
X266237380Y-80311190D01*
X266189761Y-80215952D01*
X266094523Y-80168333D01*
X265999285Y-80168333D01*
X265904047Y-80215952D01*
X265856428Y-80311190D01*
X265856428Y-80549285D01*
X265808809Y-80644523D01*
X266237380Y-81120714D02*
X265570714Y-81120714D01*
X265761190Y-81120714D02*
X265665952Y-81168333D01*
X265618333Y-81215952D01*
X265570714Y-81311190D01*
X265570714Y-81406428D01*
X266189761Y-82120714D02*
X266237380Y-82025476D01*
X266237380Y-81835000D01*
X266189761Y-81739761D01*
X266094523Y-81692142D01*
X265713571Y-81692142D01*
X265618333Y-81739761D01*
X265570714Y-81835000D01*
X265570714Y-82025476D01*
X265618333Y-82120714D01*
X265713571Y-82168333D01*
X265808809Y-82168333D01*
X265904047Y-81692142D01*
X265951666Y-82549285D02*
X265951666Y-83025476D01*
X266237380Y-82454047D02*
X265237380Y-82787380D01*
X266237380Y-83120714D01*
X266237380Y-83596904D02*
X266189761Y-83501666D01*
X266094523Y-83454047D01*
X265237380Y-83454047D01*
X266237380Y-83977857D02*
X265570714Y-83977857D01*
X265237380Y-83977857D02*
X265285000Y-83930238D01*
X265332619Y-83977857D01*
X265285000Y-84025476D01*
X265237380Y-83977857D01*
X265332619Y-83977857D01*
X266237380Y-84454047D02*
X265237380Y-84454047D01*
X265856428Y-84549285D02*
X266237380Y-84835000D01*
X265570714Y-84835000D02*
X265951666Y-84454047D01*
X266189761Y-85644523D02*
X266237380Y-85549285D01*
X266237380Y-85358809D01*
X266189761Y-85263571D01*
X266094523Y-85215952D01*
X265713571Y-85215952D01*
X265618333Y-85263571D01*
X265570714Y-85358809D01*
X265570714Y-85549285D01*
X265618333Y-85644523D01*
X265713571Y-85692142D01*
X265808809Y-85692142D01*
X265904047Y-85215952D01*
X265570714Y-87311190D02*
X266237380Y-87311190D01*
X265189761Y-87073095D02*
X265904047Y-86835000D01*
X265904047Y-87454047D01*
X266142142Y-87835000D02*
X266189761Y-87882619D01*
X266237380Y-87835000D01*
X266189761Y-87787380D01*
X266142142Y-87835000D01*
X266237380Y-87835000D01*
X265237380Y-88501666D02*
X265237380Y-88596904D01*
X265285000Y-88692142D01*
X265332619Y-88739761D01*
X265427857Y-88787380D01*
X265618333Y-88835000D01*
X265856428Y-88835000D01*
X266046904Y-88787380D01*
X266142142Y-88739761D01*
X266189761Y-88692142D01*
X266237380Y-88596904D01*
X266237380Y-88501666D01*
X266189761Y-88406428D01*
X266142142Y-88358809D01*
X266046904Y-88311190D01*
X265856428Y-88263571D01*
X265618333Y-88263571D01*
X265427857Y-88311190D01*
X265332619Y-88358809D01*
X265285000Y-88406428D01*
X265237380Y-88501666D01*
X266237380Y-90025476D02*
X265237380Y-90025476D01*
X265570714Y-90501666D02*
X266237380Y-90501666D01*
X265665952Y-90501666D02*
X265618333Y-90549285D01*
X265570714Y-90644523D01*
X265570714Y-90787380D01*
X265618333Y-90882619D01*
X265713571Y-90930238D01*
X266237380Y-90930238D01*
X265570714Y-91263571D02*
X265570714Y-91644523D01*
X265237380Y-91406428D02*
X266094523Y-91406428D01*
X266189761Y-91454047D01*
X266237380Y-91549285D01*
X266237380Y-91644523D01*
X266189761Y-92358809D02*
X266237380Y-92263571D01*
X266237380Y-92073095D01*
X266189761Y-91977857D01*
X266094523Y-91930238D01*
X265713571Y-91930238D01*
X265618333Y-91977857D01*
X265570714Y-92073095D01*
X265570714Y-92263571D01*
X265618333Y-92358809D01*
X265713571Y-92406428D01*
X265808809Y-92406428D01*
X265904047Y-91930238D01*
X266237380Y-92835000D02*
X265570714Y-92835000D01*
X265761190Y-92835000D02*
X265665952Y-92882619D01*
X265618333Y-92930238D01*
X265570714Y-93025476D01*
X265570714Y-93120714D01*
X265570714Y-93454047D02*
X266237380Y-93454047D01*
X265665952Y-93454047D02*
X265618333Y-93501666D01*
X265570714Y-93596904D01*
X265570714Y-93739761D01*
X265618333Y-93835000D01*
X265713571Y-93882619D01*
X266237380Y-93882619D01*
X266237380Y-94787380D02*
X265713571Y-94787380D01*
X265618333Y-94739761D01*
X265570714Y-94644523D01*
X265570714Y-94454047D01*
X265618333Y-94358809D01*
X266189761Y-94787380D02*
X266237380Y-94692142D01*
X266237380Y-94454047D01*
X266189761Y-94358809D01*
X266094523Y-94311190D01*
X265999285Y-94311190D01*
X265904047Y-94358809D01*
X265856428Y-94454047D01*
X265856428Y-94692142D01*
X265808809Y-94787380D01*
X265570714Y-95120714D02*
X265570714Y-95501666D01*
X265237380Y-95263571D02*
X266094523Y-95263571D01*
X266189761Y-95311190D01*
X266237380Y-95406428D01*
X266237380Y-95501666D01*
X266237380Y-95835000D02*
X265570714Y-95835000D01*
X265237380Y-95835000D02*
X265285000Y-95787380D01*
X265332619Y-95835000D01*
X265285000Y-95882619D01*
X265237380Y-95835000D01*
X265332619Y-95835000D01*
X266237380Y-96454047D02*
X266189761Y-96358809D01*
X266142142Y-96311190D01*
X266046904Y-96263571D01*
X265761190Y-96263571D01*
X265665952Y-96311190D01*
X265618333Y-96358809D01*
X265570714Y-96454047D01*
X265570714Y-96596904D01*
X265618333Y-96692142D01*
X265665952Y-96739761D01*
X265761190Y-96787380D01*
X266046904Y-96787380D01*
X266142142Y-96739761D01*
X266189761Y-96692142D01*
X266237380Y-96596904D01*
X266237380Y-96454047D01*
X265570714Y-97215952D02*
X266237380Y-97215952D01*
X265665952Y-97215952D02*
X265618333Y-97263571D01*
X265570714Y-97358809D01*
X265570714Y-97501666D01*
X265618333Y-97596904D01*
X265713571Y-97644523D01*
X266237380Y-97644523D01*
X266237380Y-98549285D02*
X265713571Y-98549285D01*
X265618333Y-98501666D01*
X265570714Y-98406428D01*
X265570714Y-98215952D01*
X265618333Y-98120714D01*
X266189761Y-98549285D02*
X266237380Y-98454047D01*
X266237380Y-98215952D01*
X266189761Y-98120714D01*
X266094523Y-98073095D01*
X265999285Y-98073095D01*
X265904047Y-98120714D01*
X265856428Y-98215952D01*
X265856428Y-98454047D01*
X265808809Y-98549285D01*
X266237380Y-99168333D02*
X266189761Y-99073095D01*
X266094523Y-99025476D01*
X265237380Y-99025476D01*
X267887380Y-61025476D02*
X266887380Y-61025476D01*
X267887380Y-61454047D02*
X267363571Y-61454047D01*
X267268333Y-61406428D01*
X267220714Y-61311190D01*
X267220714Y-61168333D01*
X267268333Y-61073095D01*
X267315952Y-61025476D01*
X267220714Y-61787380D02*
X267220714Y-62168333D01*
X266887380Y-61930238D02*
X267744523Y-61930238D01*
X267839761Y-61977857D01*
X267887380Y-62073095D01*
X267887380Y-62168333D01*
X267220714Y-62358809D02*
X267220714Y-62739761D01*
X266887380Y-62501666D02*
X267744523Y-62501666D01*
X267839761Y-62549285D01*
X267887380Y-62644523D01*
X267887380Y-62739761D01*
X267220714Y-63073095D02*
X268220714Y-63073095D01*
X267268333Y-63073095D02*
X267220714Y-63168333D01*
X267220714Y-63358809D01*
X267268333Y-63454047D01*
X267315952Y-63501666D01*
X267411190Y-63549285D01*
X267696904Y-63549285D01*
X267792142Y-63501666D01*
X267839761Y-63454047D01*
X267887380Y-63358809D01*
X267887380Y-63168333D01*
X267839761Y-63073095D01*
X267839761Y-63930238D02*
X267887380Y-64025476D01*
X267887380Y-64215952D01*
X267839761Y-64311190D01*
X267744523Y-64358809D01*
X267696904Y-64358809D01*
X267601666Y-64311190D01*
X267554047Y-64215952D01*
X267554047Y-64073095D01*
X267506428Y-63977857D01*
X267411190Y-63930238D01*
X267363571Y-63930238D01*
X267268333Y-63977857D01*
X267220714Y-64073095D01*
X267220714Y-64215952D01*
X267268333Y-64311190D01*
X267792142Y-64787380D02*
X267839761Y-64835000D01*
X267887380Y-64787380D01*
X267839761Y-64739761D01*
X267792142Y-64787380D01*
X267887380Y-64787380D01*
X267268333Y-64787380D02*
X267315952Y-64835000D01*
X267363571Y-64787380D01*
X267315952Y-64739761D01*
X267268333Y-64787380D01*
X267363571Y-64787380D01*
X266839761Y-65977857D02*
X268125476Y-65120714D01*
X266839761Y-67025476D02*
X268125476Y-66168333D01*
X267220714Y-67787380D02*
X268030238Y-67787380D01*
X268125476Y-67739761D01*
X268173095Y-67692142D01*
X268220714Y-67596904D01*
X268220714Y-67454047D01*
X268173095Y-67358809D01*
X267839761Y-67787380D02*
X267887380Y-67692142D01*
X267887380Y-67501666D01*
X267839761Y-67406428D01*
X267792142Y-67358809D01*
X267696904Y-67311190D01*
X267411190Y-67311190D01*
X267315952Y-67358809D01*
X267268333Y-67406428D01*
X267220714Y-67501666D01*
X267220714Y-67692142D01*
X267268333Y-67787380D01*
X267887380Y-68263571D02*
X267220714Y-68263571D01*
X266887380Y-68263571D02*
X266935000Y-68215952D01*
X266982619Y-68263571D01*
X266935000Y-68311190D01*
X266887380Y-68263571D01*
X266982619Y-68263571D01*
X267220714Y-68596904D02*
X267220714Y-68977857D01*
X266887380Y-68739761D02*
X267744523Y-68739761D01*
X267839761Y-68787380D01*
X267887380Y-68882619D01*
X267887380Y-68977857D01*
X267887380Y-69311190D02*
X266887380Y-69311190D01*
X267887380Y-69739761D02*
X267363571Y-69739761D01*
X267268333Y-69692142D01*
X267220714Y-69596904D01*
X267220714Y-69454047D01*
X267268333Y-69358809D01*
X267315952Y-69311190D01*
X267220714Y-70644523D02*
X267887380Y-70644523D01*
X267220714Y-70215952D02*
X267744523Y-70215952D01*
X267839761Y-70263571D01*
X267887380Y-70358809D01*
X267887380Y-70501666D01*
X267839761Y-70596904D01*
X267792142Y-70644523D01*
X267887380Y-71120714D02*
X266887380Y-71120714D01*
X267268333Y-71120714D02*
X267220714Y-71215952D01*
X267220714Y-71406428D01*
X267268333Y-71501666D01*
X267315952Y-71549285D01*
X267411190Y-71596904D01*
X267696904Y-71596904D01*
X267792142Y-71549285D01*
X267839761Y-71501666D01*
X267887380Y-71406428D01*
X267887380Y-71215952D01*
X267839761Y-71120714D01*
X267792142Y-72025476D02*
X267839761Y-72073095D01*
X267887380Y-72025476D01*
X267839761Y-71977857D01*
X267792142Y-72025476D01*
X267887380Y-72025476D01*
X267839761Y-72930238D02*
X267887380Y-72835000D01*
X267887380Y-72644523D01*
X267839761Y-72549285D01*
X267792142Y-72501666D01*
X267696904Y-72454047D01*
X267411190Y-72454047D01*
X267315952Y-72501666D01*
X267268333Y-72549285D01*
X267220714Y-72644523D01*
X267220714Y-72835000D01*
X267268333Y-72930238D01*
X267887380Y-73501666D02*
X267839761Y-73406428D01*
X267792142Y-73358809D01*
X267696904Y-73311190D01*
X267411190Y-73311190D01*
X267315952Y-73358809D01*
X267268333Y-73406428D01*
X267220714Y-73501666D01*
X267220714Y-73644523D01*
X267268333Y-73739761D01*
X267315952Y-73787380D01*
X267411190Y-73835000D01*
X267696904Y-73835000D01*
X267792142Y-73787380D01*
X267839761Y-73739761D01*
X267887380Y-73644523D01*
X267887380Y-73501666D01*
X267887380Y-74263571D02*
X267220714Y-74263571D01*
X267315952Y-74263571D02*
X267268333Y-74311190D01*
X267220714Y-74406428D01*
X267220714Y-74549285D01*
X267268333Y-74644523D01*
X267363571Y-74692142D01*
X267887380Y-74692142D01*
X267363571Y-74692142D02*
X267268333Y-74739761D01*
X267220714Y-74835000D01*
X267220714Y-74977857D01*
X267268333Y-75073095D01*
X267363571Y-75120714D01*
X267887380Y-75120714D01*
X266839761Y-76311190D02*
X268125476Y-75454047D01*
X266887380Y-76930238D02*
X267601666Y-76930238D01*
X267744523Y-76882619D01*
X267839761Y-76787380D01*
X267887380Y-76644523D01*
X267887380Y-76549285D01*
X267887380Y-77834999D02*
X267363571Y-77834999D01*
X267268333Y-77787380D01*
X267220714Y-77692142D01*
X267220714Y-77501666D01*
X267268333Y-77406428D01*
X267839761Y-77834999D02*
X267887380Y-77739761D01*
X267887380Y-77501666D01*
X267839761Y-77406428D01*
X267744523Y-77358809D01*
X267649285Y-77358809D01*
X267554047Y-77406428D01*
X267506428Y-77501666D01*
X267506428Y-77739761D01*
X267458809Y-77834999D01*
X267220714Y-78215952D02*
X267887380Y-78454047D01*
X267220714Y-78692142D02*
X267887380Y-78454047D01*
X268125476Y-78358809D01*
X268173095Y-78311190D01*
X268220714Y-78215952D01*
X267839761Y-79454047D02*
X267887380Y-79358809D01*
X267887380Y-79168333D01*
X267839761Y-79073095D01*
X267744523Y-79025476D01*
X267363571Y-79025476D01*
X267268333Y-79073095D01*
X267220714Y-79168333D01*
X267220714Y-79358809D01*
X267268333Y-79454047D01*
X267363571Y-79501666D01*
X267458809Y-79501666D01*
X267554047Y-79025476D01*
X267839761Y-79882619D02*
X267887380Y-79977857D01*
X267887380Y-80168333D01*
X267839761Y-80263571D01*
X267744523Y-80311190D01*
X267696904Y-80311190D01*
X267601666Y-80263571D01*
X267554047Y-80168333D01*
X267554047Y-80025476D01*
X267506428Y-79930238D01*
X267411190Y-79882619D01*
X267363571Y-79882619D01*
X267268333Y-79930238D01*
X267220714Y-80025476D01*
X267220714Y-80168333D01*
X267268333Y-80263571D01*
X267887380Y-80882619D02*
X267839761Y-80787380D01*
X267792142Y-80739761D01*
X267696904Y-80692142D01*
X267411190Y-80692142D01*
X267315952Y-80739761D01*
X267268333Y-80787380D01*
X267220714Y-80882619D01*
X267220714Y-81025476D01*
X267268333Y-81120714D01*
X267315952Y-81168333D01*
X267411190Y-81215952D01*
X267696904Y-81215952D01*
X267792142Y-81168333D01*
X267839761Y-81120714D01*
X267887380Y-81025476D01*
X267887380Y-80882619D01*
X267220714Y-81644523D02*
X267887380Y-81644523D01*
X267315952Y-81644523D02*
X267268333Y-81692142D01*
X267220714Y-81787380D01*
X267220714Y-81930238D01*
X267268333Y-82025476D01*
X267363571Y-82073095D01*
X267887380Y-82073095D01*
X267887380Y-83025476D02*
X267887380Y-82549285D01*
X266887380Y-82549285D01*
X267839761Y-83311190D02*
X267887380Y-83454047D01*
X267887380Y-83692142D01*
X267839761Y-83787380D01*
X267792142Y-83834999D01*
X267696904Y-83882619D01*
X267601666Y-83882619D01*
X267506428Y-83834999D01*
X267458809Y-83787380D01*
X267411190Y-83692142D01*
X267363571Y-83501666D01*
X267315952Y-83406428D01*
X267268333Y-83358809D01*
X267173095Y-83311190D01*
X267077857Y-83311190D01*
X266982619Y-83358809D01*
X266935000Y-83406428D01*
X266887380Y-83501666D01*
X266887380Y-83739761D01*
X266935000Y-83882619D01*
X266839761Y-85025476D02*
X268125476Y-84168333D01*
X267887380Y-85358809D02*
X266887380Y-85358809D01*
X267839761Y-85787380D02*
X267887380Y-85930238D01*
X267887380Y-86168333D01*
X267839761Y-86263571D01*
X267792142Y-86311190D01*
X267696904Y-86358809D01*
X267601666Y-86358809D01*
X267506428Y-86311190D01*
X267458809Y-86263571D01*
X267411190Y-86168333D01*
X267363571Y-85977857D01*
X267315952Y-85882619D01*
X267268333Y-85834999D01*
X267173095Y-85787380D01*
X267077857Y-85787380D01*
X266982619Y-85834999D01*
X266935000Y-85882619D01*
X266887380Y-85977857D01*
X266887380Y-86215952D01*
X266935000Y-86358809D01*
X267601666Y-86739761D02*
X267601666Y-87215952D01*
X267887380Y-86644523D02*
X266887380Y-86977857D01*
X267887380Y-87311190D01*
X267506428Y-87644523D02*
X267506428Y-88406428D01*
X267792142Y-89454047D02*
X267839761Y-89406428D01*
X267887380Y-89263571D01*
X267887380Y-89168333D01*
X267839761Y-89025476D01*
X267744523Y-88930238D01*
X267649285Y-88882619D01*
X267458809Y-88834999D01*
X267315952Y-88834999D01*
X267125476Y-88882619D01*
X267030238Y-88930238D01*
X266935000Y-89025476D01*
X266887380Y-89168333D01*
X266887380Y-89263571D01*
X266935000Y-89406428D01*
X266982619Y-89454047D01*
X267887380Y-90311190D02*
X267363571Y-90311190D01*
X267268333Y-90263571D01*
X267220714Y-90168333D01*
X267220714Y-89977857D01*
X267268333Y-89882619D01*
X267839761Y-90311190D02*
X267887380Y-90215952D01*
X267887380Y-89977857D01*
X267839761Y-89882619D01*
X267744523Y-89834999D01*
X267649285Y-89834999D01*
X267554047Y-89882619D01*
X267506428Y-89977857D01*
X267506428Y-90215952D01*
X267458809Y-90311190D01*
X267887380Y-90787380D02*
X267220714Y-90787380D01*
X267411190Y-90787380D02*
X267315952Y-90834999D01*
X267268333Y-90882619D01*
X267220714Y-90977857D01*
X267220714Y-91073095D01*
X267887380Y-91834999D02*
X266887380Y-91834999D01*
X267839761Y-91834999D02*
X267887380Y-91739761D01*
X267887380Y-91549285D01*
X267839761Y-91454047D01*
X267792142Y-91406428D01*
X267696904Y-91358809D01*
X267411190Y-91358809D01*
X267315952Y-91406428D01*
X267268333Y-91454047D01*
X267220714Y-91549285D01*
X267220714Y-91739761D01*
X267268333Y-91834999D01*
X267839761Y-92263571D02*
X267887380Y-92358809D01*
X267887380Y-92549285D01*
X267839761Y-92644523D01*
X267744523Y-92692142D01*
X267696904Y-92692142D01*
X267601666Y-92644523D01*
X267554047Y-92549285D01*
X267554047Y-92406428D01*
X267506428Y-92311190D01*
X267411190Y-92263571D01*
X267363571Y-92263571D01*
X267268333Y-92311190D01*
X267220714Y-92406428D01*
X267220714Y-92549285D01*
X267268333Y-92644523D01*
X252730000Y-69850000D02*
X255270000Y-69850000D01*
X252730000Y-67310000D02*
X255270000Y-67310000D01*
X252730000Y-68580000D02*
X255270000Y-68580000D01*
M02*
