%TF.GenerationSoftware,KiCad,Pcbnew,(5.1.9)-1*%
%TF.CreationDate,2021-08-19T10:25:23+08:00*%
%TF.ProjectId,EX-HX-Combo-Backplate,45582d48-582d-4436-9f6d-626f2d426163,rev?*%
%TF.SameCoordinates,Original*%
%TF.FileFunction,Legend,Top*%
%TF.FilePolarity,Positive*%
%FSLAX46Y46*%
G04 Gerber Fmt 4.6, Leading zero omitted, Abs format (unit mm)*
G04 Created by KiCad (PCBNEW (5.1.9)-1) date 2021-08-19 10:25:23*
%MOMM*%
%LPD*%
G01*
G04 APERTURE LIST*
%ADD10C,0.600000*%
%ADD11C,0.225000*%
G04 APERTURE END LIST*
D10*
X265144285Y-97535000D02*
X265144285Y-96635000D01*
X267239523Y-96249285D02*
X267239523Y-97535000D01*
X263239523Y-97535000D01*
X263239523Y-96249285D01*
X263239523Y-95349285D02*
X267239523Y-93549285D01*
X263239523Y-93549285D02*
X267239523Y-95349285D01*
X263049047Y-90592142D02*
X268191904Y-92906428D01*
X267239523Y-89692142D02*
X263239523Y-89692142D01*
X265144285Y-89692142D02*
X265144285Y-88149285D01*
X267239523Y-88149285D02*
X263239523Y-88149285D01*
X263239523Y-87120714D02*
X267239523Y-85320714D01*
X263239523Y-85320714D02*
X267239523Y-87120714D01*
X266858571Y-80692142D02*
X267049047Y-80820714D01*
X267239523Y-81206428D01*
X267239523Y-81463571D01*
X267049047Y-81849285D01*
X266668095Y-82106428D01*
X266287142Y-82235000D01*
X265525238Y-82363571D01*
X264953809Y-82363571D01*
X264191904Y-82235000D01*
X263810952Y-82106428D01*
X263430000Y-81849285D01*
X263239523Y-81463571D01*
X263239523Y-81206428D01*
X263430000Y-80820714D01*
X263620476Y-80692142D01*
X267239523Y-79149285D02*
X267049047Y-79406428D01*
X266858571Y-79535000D01*
X266477619Y-79663571D01*
X265334761Y-79663571D01*
X264953809Y-79535000D01*
X264763333Y-79406428D01*
X264572857Y-79149285D01*
X264572857Y-78763571D01*
X264763333Y-78506428D01*
X264953809Y-78377857D01*
X265334761Y-78249285D01*
X266477619Y-78249285D01*
X266858571Y-78377857D01*
X267049047Y-78506428D01*
X267239523Y-78763571D01*
X267239523Y-79149285D01*
X267239523Y-77092142D02*
X264572857Y-77092142D01*
X264953809Y-77092142D02*
X264763333Y-76963571D01*
X264572857Y-76706428D01*
X264572857Y-76320714D01*
X264763333Y-76063571D01*
X265144285Y-75935000D01*
X267239523Y-75935000D01*
X265144285Y-75935000D02*
X264763333Y-75806428D01*
X264572857Y-75549285D01*
X264572857Y-75163571D01*
X264763333Y-74906428D01*
X265144285Y-74777857D01*
X267239523Y-74777857D01*
X267239523Y-73492142D02*
X263239523Y-73492142D01*
X264763333Y-73492142D02*
X264572857Y-73235000D01*
X264572857Y-72720714D01*
X264763333Y-72463571D01*
X264953809Y-72335000D01*
X265334761Y-72206428D01*
X266477619Y-72206428D01*
X266858571Y-72335000D01*
X267049047Y-72463571D01*
X267239523Y-72720714D01*
X267239523Y-73235000D01*
X267049047Y-73492142D01*
X267239523Y-70663571D02*
X267049047Y-70920714D01*
X266858571Y-71049285D01*
X266477619Y-71177857D01*
X265334761Y-71177857D01*
X264953809Y-71049285D01*
X264763333Y-70920714D01*
X264572857Y-70663571D01*
X264572857Y-70277857D01*
X264763333Y-70020714D01*
X264953809Y-69892142D01*
X265334761Y-69763571D01*
X266477619Y-69763571D01*
X266858571Y-69892142D01*
X267049047Y-70020714D01*
X267239523Y-70277857D01*
X267239523Y-70663571D01*
X265144285Y-65649285D02*
X265334761Y-65263571D01*
X265525238Y-65135000D01*
X265906190Y-65006428D01*
X266477619Y-65006428D01*
X266858571Y-65135000D01*
X267049047Y-65263571D01*
X267239523Y-65520714D01*
X267239523Y-66549285D01*
X263239523Y-66549285D01*
X263239523Y-65649285D01*
X263430000Y-65392142D01*
X263620476Y-65263571D01*
X264001428Y-65135000D01*
X264382380Y-65135000D01*
X264763333Y-65263571D01*
X264953809Y-65392142D01*
X265144285Y-65649285D01*
X265144285Y-66549285D01*
X267239523Y-63463571D02*
X267049047Y-63720714D01*
X266858571Y-63849285D01*
X266477619Y-63977857D01*
X265334761Y-63977857D01*
X264953809Y-63849285D01*
X264763333Y-63720714D01*
X264572857Y-63463571D01*
X264572857Y-63077857D01*
X264763333Y-62820714D01*
X264953809Y-62692142D01*
X265334761Y-62563571D01*
X266477619Y-62563571D01*
X266858571Y-62692142D01*
X267049047Y-62820714D01*
X267239523Y-63077857D01*
X267239523Y-63463571D01*
X267239523Y-60249285D02*
X265144285Y-60249285D01*
X264763333Y-60377857D01*
X264572857Y-60635000D01*
X264572857Y-61149285D01*
X264763333Y-61406428D01*
X267049047Y-60249285D02*
X267239523Y-60506428D01*
X267239523Y-61149285D01*
X267049047Y-61406428D01*
X266668095Y-61535000D01*
X266287142Y-61535000D01*
X265906190Y-61406428D01*
X265715714Y-61149285D01*
X265715714Y-60506428D01*
X265525238Y-60249285D01*
X267239523Y-58963571D02*
X264572857Y-58963571D01*
X265334761Y-58963571D02*
X264953809Y-58835000D01*
X264763333Y-58706428D01*
X264572857Y-58449285D01*
X264572857Y-58192142D01*
X267239523Y-56135000D02*
X263239523Y-56135000D01*
X267049047Y-56135000D02*
X267239523Y-56392142D01*
X267239523Y-56906428D01*
X267049047Y-57163571D01*
X266858571Y-57292142D01*
X266477619Y-57420714D01*
X265334761Y-57420714D01*
X264953809Y-57292142D01*
X264763333Y-57163571D01*
X264572857Y-56906428D01*
X264572857Y-56392142D01*
X264763333Y-56135000D01*
D11*
X255091428Y-95227857D02*
X255020000Y-95370714D01*
X254948571Y-95442142D01*
X254805714Y-95513571D01*
X254734285Y-95513571D01*
X254591428Y-95442142D01*
X254520000Y-95370714D01*
X254448571Y-95227857D01*
X254448571Y-94942142D01*
X254520000Y-94799285D01*
X254591428Y-94727857D01*
X254734285Y-94656428D01*
X254805714Y-94656428D01*
X254948571Y-94727857D01*
X255020000Y-94799285D01*
X255091428Y-94942142D01*
X255091428Y-95227857D01*
X255162857Y-95370714D01*
X255234285Y-95442142D01*
X255377142Y-95513571D01*
X255662857Y-95513571D01*
X255805714Y-95442142D01*
X255877142Y-95370714D01*
X255948571Y-95227857D01*
X255948571Y-94942142D01*
X255877142Y-94799285D01*
X255805714Y-94727857D01*
X255662857Y-94656428D01*
X255377142Y-94656428D01*
X255234285Y-94727857D01*
X255162857Y-94799285D01*
X255091428Y-94942142D01*
X255377142Y-94013571D02*
X255377142Y-92870714D01*
X255948571Y-92156428D02*
X254448571Y-92156428D01*
X255020000Y-92156428D02*
X254948571Y-92013571D01*
X254948571Y-91727857D01*
X255020000Y-91585000D01*
X255091428Y-91513571D01*
X255234285Y-91442142D01*
X255662857Y-91442142D01*
X255805714Y-91513571D01*
X255877142Y-91585000D01*
X255948571Y-91727857D01*
X255948571Y-92013571D01*
X255877142Y-92156428D01*
X255948571Y-90799285D02*
X254948571Y-90799285D01*
X254448571Y-90799285D02*
X254520000Y-90870714D01*
X254591428Y-90799285D01*
X254520000Y-90727857D01*
X254448571Y-90799285D01*
X254591428Y-90799285D01*
X254948571Y-90299285D02*
X254948571Y-89727857D01*
X254448571Y-90085000D02*
X255734285Y-90085000D01*
X255877142Y-90013571D01*
X255948571Y-89870714D01*
X255948571Y-89727857D01*
X255805714Y-87227857D02*
X255877142Y-87299285D01*
X255948571Y-87513571D01*
X255948571Y-87656428D01*
X255877142Y-87870714D01*
X255734285Y-88013571D01*
X255591428Y-88085000D01*
X255305714Y-88156428D01*
X255091428Y-88156428D01*
X254805714Y-88085000D01*
X254662857Y-88013571D01*
X254520000Y-87870714D01*
X254448571Y-87656428D01*
X254448571Y-87513571D01*
X254520000Y-87299285D01*
X254591428Y-87227857D01*
X255948571Y-86370714D02*
X255877142Y-86513571D01*
X255805714Y-86585000D01*
X255662857Y-86656428D01*
X255234285Y-86656428D01*
X255091428Y-86585000D01*
X255020000Y-86513571D01*
X254948571Y-86370714D01*
X254948571Y-86156428D01*
X255020000Y-86013571D01*
X255091428Y-85942142D01*
X255234285Y-85870714D01*
X255662857Y-85870714D01*
X255805714Y-85942142D01*
X255877142Y-86013571D01*
X255948571Y-86156428D01*
X255948571Y-86370714D01*
X255948571Y-85227857D02*
X254948571Y-85227857D01*
X255091428Y-85227857D02*
X255020000Y-85156428D01*
X254948571Y-85013571D01*
X254948571Y-84799285D01*
X255020000Y-84656428D01*
X255162857Y-84585000D01*
X255948571Y-84585000D01*
X255162857Y-84585000D02*
X255020000Y-84513571D01*
X254948571Y-84370714D01*
X254948571Y-84156428D01*
X255020000Y-84013571D01*
X255162857Y-83942142D01*
X255948571Y-83942142D01*
X254948571Y-83227857D02*
X256448571Y-83227857D01*
X255020000Y-83227857D02*
X254948571Y-83085000D01*
X254948571Y-82799285D01*
X255020000Y-82656428D01*
X255091428Y-82585000D01*
X255234285Y-82513571D01*
X255662857Y-82513571D01*
X255805714Y-82585000D01*
X255877142Y-82656428D01*
X255948571Y-82799285D01*
X255948571Y-83085000D01*
X255877142Y-83227857D01*
X255948571Y-81227857D02*
X255162857Y-81227857D01*
X255020000Y-81299285D01*
X254948571Y-81442142D01*
X254948571Y-81727857D01*
X255020000Y-81870714D01*
X255877142Y-81227857D02*
X255948571Y-81370714D01*
X255948571Y-81727857D01*
X255877142Y-81870714D01*
X255734285Y-81942142D01*
X255591428Y-81942142D01*
X255448571Y-81870714D01*
X255377142Y-81727857D01*
X255377142Y-81370714D01*
X255305714Y-81227857D01*
X254948571Y-80727857D02*
X254948571Y-80156428D01*
X254448571Y-80513571D02*
X255734285Y-80513571D01*
X255877142Y-80442142D01*
X255948571Y-80299285D01*
X255948571Y-80156428D01*
X255948571Y-79656428D02*
X254948571Y-79656428D01*
X254448571Y-79656428D02*
X254520000Y-79727857D01*
X254591428Y-79656428D01*
X254520000Y-79585000D01*
X254448571Y-79656428D01*
X254591428Y-79656428D01*
X255948571Y-78942142D02*
X254448571Y-78942142D01*
X255020000Y-78942142D02*
X254948571Y-78799285D01*
X254948571Y-78513571D01*
X255020000Y-78370714D01*
X255091428Y-78299285D01*
X255234285Y-78227857D01*
X255662857Y-78227857D01*
X255805714Y-78299285D01*
X255877142Y-78370714D01*
X255948571Y-78513571D01*
X255948571Y-78799285D01*
X255877142Y-78942142D01*
X255948571Y-77370714D02*
X255877142Y-77513571D01*
X255734285Y-77585000D01*
X254448571Y-77585000D01*
X255877142Y-76227857D02*
X255948571Y-76370714D01*
X255948571Y-76656428D01*
X255877142Y-76799285D01*
X255734285Y-76870714D01*
X255162857Y-76870714D01*
X255020000Y-76799285D01*
X254948571Y-76656428D01*
X254948571Y-76370714D01*
X255020000Y-76227857D01*
X255162857Y-76156428D01*
X255305714Y-76156428D01*
X255448571Y-76870714D01*
X255805714Y-73513571D02*
X255877142Y-73585000D01*
X255948571Y-73799285D01*
X255948571Y-73942142D01*
X255877142Y-74156428D01*
X255734285Y-74299285D01*
X255591428Y-74370714D01*
X255305714Y-74442142D01*
X255091428Y-74442142D01*
X254805714Y-74370714D01*
X254662857Y-74299285D01*
X254520000Y-74156428D01*
X254448571Y-73942142D01*
X254448571Y-73799285D01*
X254520000Y-73585000D01*
X254591428Y-73513571D01*
X255948571Y-72656428D02*
X255877142Y-72799285D01*
X255805714Y-72870714D01*
X255662857Y-72942142D01*
X255234285Y-72942142D01*
X255091428Y-72870714D01*
X255020000Y-72799285D01*
X254948571Y-72656428D01*
X254948571Y-72442142D01*
X255020000Y-72299285D01*
X255091428Y-72227857D01*
X255234285Y-72156428D01*
X255662857Y-72156428D01*
X255805714Y-72227857D01*
X255877142Y-72299285D01*
X255948571Y-72442142D01*
X255948571Y-72656428D01*
X255948571Y-71513571D02*
X254948571Y-71513571D01*
X255091428Y-71513571D02*
X255020000Y-71442142D01*
X254948571Y-71299285D01*
X254948571Y-71085000D01*
X255020000Y-70942142D01*
X255162857Y-70870714D01*
X255948571Y-70870714D01*
X255162857Y-70870714D02*
X255020000Y-70799285D01*
X254948571Y-70656428D01*
X254948571Y-70442142D01*
X255020000Y-70299285D01*
X255162857Y-70227857D01*
X255948571Y-70227857D01*
X254948571Y-69513571D02*
X256448571Y-69513571D01*
X255020000Y-69513571D02*
X254948571Y-69370714D01*
X254948571Y-69085000D01*
X255020000Y-68942142D01*
X255091428Y-68870714D01*
X255234285Y-68799285D01*
X255662857Y-68799285D01*
X255805714Y-68870714D01*
X255877142Y-68942142D01*
X255948571Y-69085000D01*
X255948571Y-69370714D01*
X255877142Y-69513571D01*
X255948571Y-67513571D02*
X255162857Y-67513571D01*
X255020000Y-67585000D01*
X254948571Y-67727857D01*
X254948571Y-68013571D01*
X255020000Y-68156428D01*
X255877142Y-67513571D02*
X255948571Y-67656428D01*
X255948571Y-68013571D01*
X255877142Y-68156428D01*
X255734285Y-68227857D01*
X255591428Y-68227857D01*
X255448571Y-68156428D01*
X255377142Y-68013571D01*
X255377142Y-67656428D01*
X255305714Y-67513571D01*
X255877142Y-66156428D02*
X255948571Y-66299285D01*
X255948571Y-66585000D01*
X255877142Y-66727857D01*
X255805714Y-66799285D01*
X255662857Y-66870714D01*
X255234285Y-66870714D01*
X255091428Y-66799285D01*
X255020000Y-66727857D01*
X254948571Y-66585000D01*
X254948571Y-66299285D01*
X255020000Y-66156428D01*
X254948571Y-65727857D02*
X254948571Y-65156428D01*
X254448571Y-65513571D02*
X255734285Y-65513571D01*
X255877142Y-65442142D01*
X255948571Y-65299285D01*
X255948571Y-65156428D01*
X255162857Y-63013571D02*
X255162857Y-63513571D01*
X255948571Y-63513571D02*
X254448571Y-63513571D01*
X254448571Y-62799285D01*
X255948571Y-62013571D02*
X255877142Y-62156428D01*
X255734285Y-62227857D01*
X254448571Y-62227857D01*
X255948571Y-60799285D02*
X255162857Y-60799285D01*
X255020000Y-60870714D01*
X254948571Y-61013571D01*
X254948571Y-61299285D01*
X255020000Y-61442142D01*
X255877142Y-60799285D02*
X255948571Y-60942142D01*
X255948571Y-61299285D01*
X255877142Y-61442142D01*
X255734285Y-61513571D01*
X255591428Y-61513571D01*
X255448571Y-61442142D01*
X255377142Y-61299285D01*
X255377142Y-60942142D01*
X255305714Y-60799285D01*
X255877142Y-60156428D02*
X255948571Y-60013571D01*
X255948571Y-59727857D01*
X255877142Y-59585000D01*
X255734285Y-59513571D01*
X255662857Y-59513571D01*
X255520000Y-59585000D01*
X255448571Y-59727857D01*
X255448571Y-59942142D01*
X255377142Y-60085000D01*
X255234285Y-60156428D01*
X255162857Y-60156428D01*
X255020000Y-60085000D01*
X254948571Y-59942142D01*
X254948571Y-59727857D01*
X255020000Y-59585000D01*
X255948571Y-58870714D02*
X254448571Y-58870714D01*
X255948571Y-58227857D02*
X255162857Y-58227857D01*
X255020000Y-58299285D01*
X254948571Y-58442142D01*
X254948571Y-58656428D01*
X255020000Y-58799285D01*
X255091428Y-58870714D01*
X255948571Y-127157857D02*
X255234285Y-127657857D01*
X255948571Y-128015000D02*
X254448571Y-128015000D01*
X254448571Y-127443571D01*
X254520000Y-127300714D01*
X254591428Y-127229285D01*
X254734285Y-127157857D01*
X254948571Y-127157857D01*
X255091428Y-127229285D01*
X255162857Y-127300714D01*
X255234285Y-127443571D01*
X255234285Y-128015000D01*
X255877142Y-126586428D02*
X255948571Y-126372142D01*
X255948571Y-126015000D01*
X255877142Y-125872142D01*
X255805714Y-125800714D01*
X255662857Y-125729285D01*
X255520000Y-125729285D01*
X255377142Y-125800714D01*
X255305714Y-125872142D01*
X255234285Y-126015000D01*
X255162857Y-126300714D01*
X255091428Y-126443571D01*
X255020000Y-126515000D01*
X254877142Y-126586428D01*
X254734285Y-126586428D01*
X254591428Y-126515000D01*
X254520000Y-126443571D01*
X254448571Y-126300714D01*
X254448571Y-125943571D01*
X254520000Y-125729285D01*
X255377142Y-125086428D02*
X255377142Y-123943571D01*
X254591428Y-123300714D02*
X254520000Y-123229285D01*
X254448571Y-123086428D01*
X254448571Y-122729285D01*
X254520000Y-122586428D01*
X254591428Y-122515000D01*
X254734285Y-122443571D01*
X254877142Y-122443571D01*
X255091428Y-122515000D01*
X255948571Y-123372142D01*
X255948571Y-122443571D01*
X254448571Y-121943571D02*
X254448571Y-121015000D01*
X255020000Y-121515000D01*
X255020000Y-121300714D01*
X255091428Y-121157857D01*
X255162857Y-121086428D01*
X255305714Y-121015000D01*
X255662857Y-121015000D01*
X255805714Y-121086428D01*
X255877142Y-121157857D01*
X255948571Y-121300714D01*
X255948571Y-121729285D01*
X255877142Y-121872142D01*
X255805714Y-121943571D01*
X254591428Y-120443571D02*
X254520000Y-120372142D01*
X254448571Y-120229285D01*
X254448571Y-119872142D01*
X254520000Y-119729285D01*
X254591428Y-119657857D01*
X254734285Y-119586428D01*
X254877142Y-119586428D01*
X255091428Y-119657857D01*
X255948571Y-120515000D01*
X255948571Y-119586428D01*
X255877142Y-117872142D02*
X255948571Y-117657857D01*
X255948571Y-117300714D01*
X255877142Y-117157857D01*
X255805714Y-117086428D01*
X255662857Y-117015000D01*
X255520000Y-117015000D01*
X255377142Y-117086428D01*
X255305714Y-117157857D01*
X255234285Y-117300714D01*
X255162857Y-117586428D01*
X255091428Y-117729285D01*
X255020000Y-117800714D01*
X254877142Y-117872142D01*
X254734285Y-117872142D01*
X254591428Y-117800714D01*
X254520000Y-117729285D01*
X254448571Y-117586428D01*
X254448571Y-117229285D01*
X254520000Y-117015000D01*
X255877142Y-115800714D02*
X255948571Y-115943571D01*
X255948571Y-116229285D01*
X255877142Y-116372142D01*
X255734285Y-116443571D01*
X255162857Y-116443571D01*
X255020000Y-116372142D01*
X254948571Y-116229285D01*
X254948571Y-115943571D01*
X255020000Y-115800714D01*
X255162857Y-115729285D01*
X255305714Y-115729285D01*
X255448571Y-116443571D01*
X255948571Y-115086428D02*
X254948571Y-115086428D01*
X255234285Y-115086428D02*
X255091428Y-115015000D01*
X255020000Y-114943571D01*
X254948571Y-114800714D01*
X254948571Y-114657857D01*
X255948571Y-114157857D02*
X254948571Y-114157857D01*
X254448571Y-114157857D02*
X254520000Y-114229285D01*
X254591428Y-114157857D01*
X254520000Y-114086428D01*
X254448571Y-114157857D01*
X254591428Y-114157857D01*
X255948571Y-112800714D02*
X255162857Y-112800714D01*
X255020000Y-112872142D01*
X254948571Y-113015000D01*
X254948571Y-113300714D01*
X255020000Y-113443571D01*
X255877142Y-112800714D02*
X255948571Y-112943571D01*
X255948571Y-113300714D01*
X255877142Y-113443571D01*
X255734285Y-113515000D01*
X255591428Y-113515000D01*
X255448571Y-113443571D01*
X255377142Y-113300714D01*
X255377142Y-112943571D01*
X255305714Y-112800714D01*
X255948571Y-111872142D02*
X255877142Y-112015000D01*
X255734285Y-112086428D01*
X254448571Y-112086428D01*
M02*
