%TF.GenerationSoftware,KiCad,Pcbnew,(5.1.9)-1*%
%TF.CreationDate,2021-06-13T16:48:13+08:00*%
%TF.ProjectId,CF-Combo-Super-Lite,43462d43-6f6d-4626-9f2d-53757065722d,rev?*%
%TF.SameCoordinates,Original*%
%TF.FileFunction,Soldermask,Top*%
%TF.FilePolarity,Negative*%
%FSLAX46Y46*%
G04 Gerber Fmt 4.6, Leading zero omitted, Abs format (unit mm)*
G04 Created by KiCad (PCBNEW (5.1.9)-1) date 2021-06-13 16:48:13*
%MOMM*%
%LPD*%
G01*
G04 APERTURE LIST*
%ADD10C,0.100000*%
%ADD11O,1.700000X1.700000*%
%ADD12R,1.700000X1.700000*%
%ADD13C,1.600000*%
%ADD14O,1.600000X1.600000*%
%ADD15R,1.600000X1.600000*%
%ADD16C,3.000000*%
%ADD17R,3.000000X3.000000*%
%ADD18C,1.000000*%
%ADD19C,6.500000*%
%ADD20R,1.780000X7.620000*%
G04 APERTURE END LIST*
D10*
G36*
X177800000Y-142240000D02*
G01*
X96520000Y-142240000D01*
X96520000Y-134620000D01*
X177800000Y-134620000D01*
X177800000Y-142240000D01*
G37*
X177800000Y-142240000D02*
X96520000Y-142240000D01*
X96520000Y-134620000D01*
X177800000Y-134620000D01*
X177800000Y-142240000D01*
D11*
%TO.C,J2*%
X179411000Y-59817000D03*
D12*
X181951000Y-59817000D03*
%TD*%
D13*
%TO.C,C2*%
X100965000Y-104220000D03*
X100965000Y-109220000D03*
%TD*%
D14*
%TO.C,U1*%
X104140000Y-67310000D03*
X142240000Y-82550000D03*
X106680000Y-67310000D03*
X139700000Y-82550000D03*
X109220000Y-67310000D03*
X137160000Y-82550000D03*
X111760000Y-67310000D03*
X134620000Y-82550000D03*
X114300000Y-67310000D03*
X132080000Y-82550000D03*
X116840000Y-67310000D03*
X129540000Y-82550000D03*
X119380000Y-67310000D03*
X127000000Y-82550000D03*
X121920000Y-67310000D03*
X124460000Y-82550000D03*
X124460000Y-67310000D03*
X121920000Y-82550000D03*
X127000000Y-67310000D03*
X119380000Y-82550000D03*
X129540000Y-67310000D03*
X116840000Y-82550000D03*
X132080000Y-67310000D03*
X114300000Y-82550000D03*
X134620000Y-67310000D03*
X111760000Y-82550000D03*
X137160000Y-67310000D03*
X109220000Y-82550000D03*
X139700000Y-67310000D03*
X106680000Y-82550000D03*
X142240000Y-67310000D03*
D15*
X104140000Y-82550000D03*
%TD*%
D11*
%TO.C,J5*%
X110490000Y-60960000D03*
X107950000Y-60960000D03*
X110490000Y-58420000D03*
X107950000Y-58420000D03*
X110490000Y-55880000D03*
D12*
X107950000Y-55880000D03*
%TD*%
D11*
%TO.C,J4*%
X104140000Y-60960000D03*
X101600000Y-60960000D03*
X104140000Y-58420000D03*
X101600000Y-58420000D03*
X104140000Y-55880000D03*
D12*
X101600000Y-55880000D03*
%TD*%
D14*
%TO.C,U5*%
X104140000Y-86360000D03*
X142240000Y-101600000D03*
X106680000Y-86360000D03*
X139700000Y-101600000D03*
X109220000Y-86360000D03*
X137160000Y-101600000D03*
X111760000Y-86360000D03*
X134620000Y-101600000D03*
X114300000Y-86360000D03*
X132080000Y-101600000D03*
X116840000Y-86360000D03*
X129540000Y-101600000D03*
X119380000Y-86360000D03*
X127000000Y-101600000D03*
X121920000Y-86360000D03*
X124460000Y-101600000D03*
X124460000Y-86360000D03*
X121920000Y-101600000D03*
X127000000Y-86360000D03*
X119380000Y-101600000D03*
X129540000Y-86360000D03*
X116840000Y-101600000D03*
X132080000Y-86360000D03*
X114300000Y-101600000D03*
X134620000Y-86360000D03*
X111760000Y-101600000D03*
X137160000Y-86360000D03*
X109220000Y-101600000D03*
X139700000Y-86360000D03*
X106680000Y-101600000D03*
X142240000Y-86360000D03*
D15*
X104140000Y-101600000D03*
%TD*%
D11*
%TO.C,J1*%
X167640000Y-59817000D03*
X165100000Y-59817000D03*
X167640000Y-62357000D03*
X165100000Y-62357000D03*
X167640000Y-64897000D03*
X165100000Y-64897000D03*
X167640000Y-67437000D03*
X165100000Y-67437000D03*
X167640000Y-69977000D03*
X165100000Y-69977000D03*
X167640000Y-72517000D03*
X165100000Y-72517000D03*
X167640000Y-75057000D03*
X165100000Y-75057000D03*
X167640000Y-77597000D03*
X165100000Y-77597000D03*
X167640000Y-80137000D03*
X165100000Y-80137000D03*
X167640000Y-82677000D03*
X165100000Y-82677000D03*
X167640000Y-85217000D03*
X165100000Y-85217000D03*
X167640000Y-87757000D03*
X165100000Y-87757000D03*
X167640000Y-90297000D03*
X165100000Y-90297000D03*
X167640000Y-92837000D03*
X165100000Y-92837000D03*
X167640000Y-95377000D03*
X165100000Y-95377000D03*
X167640000Y-97917000D03*
X165100000Y-97917000D03*
X167640000Y-100457000D03*
X165100000Y-100457000D03*
X167640000Y-102997000D03*
X165100000Y-102997000D03*
X167640000Y-105537000D03*
X165100000Y-105537000D03*
X167640000Y-108077000D03*
D12*
X165100000Y-108077000D03*
%TD*%
D14*
%TO.C,U3*%
X101600000Y-112395000D03*
X129540000Y-120015000D03*
X104140000Y-112395000D03*
X127000000Y-120015000D03*
X106680000Y-112395000D03*
X124460000Y-120015000D03*
X109220000Y-112395000D03*
X121920000Y-120015000D03*
X111760000Y-112395000D03*
X119380000Y-120015000D03*
X114300000Y-112395000D03*
X116840000Y-120015000D03*
X116840000Y-112395000D03*
X114300000Y-120015000D03*
X119380000Y-112395000D03*
X111760000Y-120015000D03*
X121920000Y-112395000D03*
X109220000Y-120015000D03*
X124460000Y-112395000D03*
X106680000Y-120015000D03*
X127000000Y-112395000D03*
X104140000Y-120015000D03*
X129540000Y-112395000D03*
D15*
X101600000Y-120015000D03*
%TD*%
D14*
%TO.C,U4*%
X117475000Y-55880000D03*
X135255000Y-63500000D03*
X120015000Y-55880000D03*
X132715000Y-63500000D03*
X122555000Y-55880000D03*
X130175000Y-63500000D03*
X125095000Y-55880000D03*
X127635000Y-63500000D03*
X127635000Y-55880000D03*
X125095000Y-63500000D03*
X130175000Y-55880000D03*
X122555000Y-63500000D03*
X132715000Y-55880000D03*
X120015000Y-63500000D03*
X135255000Y-55880000D03*
D15*
X117475000Y-63500000D03*
%TD*%
D16*
%TO.C,BAT1*%
X149225000Y-49360000D03*
D17*
X149225000Y-69850000D03*
%TD*%
D13*
%TO.C,C5*%
X100965000Y-91360000D03*
X100965000Y-86360000D03*
%TD*%
%TO.C,C4*%
X114300000Y-60880000D03*
X114300000Y-55880000D03*
%TD*%
D18*
%TO.C,Y1*%
X120015000Y-50805000D03*
X120015000Y-52705000D03*
%TD*%
D19*
%TO.C,H4*%
X192913000Y-116713000D03*
%TD*%
D13*
%TO.C,C6*%
X177125000Y-125095000D03*
D15*
X174625000Y-125095000D03*
%TD*%
D13*
%TO.C,C3*%
X133985000Y-117395000D03*
X133985000Y-112395000D03*
%TD*%
%TO.C,C1*%
X100965000Y-72310000D03*
X100965000Y-67310000D03*
%TD*%
D14*
%TO.C,U2*%
X137160000Y-112395000D03*
X160020000Y-120015000D03*
X139700000Y-112395000D03*
X157480000Y-120015000D03*
X142240000Y-112395000D03*
X154940000Y-120015000D03*
X144780000Y-112395000D03*
X152400000Y-120015000D03*
X147320000Y-112395000D03*
X149860000Y-120015000D03*
X149860000Y-112395000D03*
X147320000Y-120015000D03*
X152400000Y-112395000D03*
X144780000Y-120015000D03*
X154940000Y-112395000D03*
X142240000Y-120015000D03*
X157480000Y-112395000D03*
X139700000Y-120015000D03*
X160020000Y-112395000D03*
D15*
X137160000Y-120015000D03*
%TD*%
D19*
%TO.C,H3*%
X166370000Y-116713000D03*
%TD*%
%TO.C,H1*%
X166370000Y-51181000D03*
%TD*%
%TO.C,H2*%
X192913000Y-51181000D03*
%TD*%
D20*
%TO.C,J3*%
X99060000Y-138430000D03*
X101600000Y-138430000D03*
X104140000Y-138430000D03*
X106680000Y-138430000D03*
X109220000Y-138430000D03*
X111760000Y-138430000D03*
X114300000Y-138430000D03*
X116840000Y-138430000D03*
X119380000Y-138430000D03*
X121920000Y-138430000D03*
X124460000Y-138430000D03*
X127000000Y-138430000D03*
X129540000Y-138430000D03*
X132080000Y-138430000D03*
X134620000Y-138430000D03*
X137160000Y-138430000D03*
X139700000Y-138430000D03*
X142240000Y-138430000D03*
X144780000Y-138430000D03*
X147320000Y-138430000D03*
X149860000Y-138430000D03*
X152400000Y-138430000D03*
X154940000Y-138430000D03*
X157480000Y-138430000D03*
X160020000Y-138430000D03*
X162560000Y-138430000D03*
X165100000Y-138430000D03*
X167640000Y-138430000D03*
X170180000Y-138430000D03*
X172720000Y-138430000D03*
X175260000Y-138430000D03*
%TD*%
M02*
