%TF.GenerationSoftware,KiCad,Pcbnew,(5.1.9)-1*%
%TF.CreationDate,2021-06-13T16:48:13+08:00*%
%TF.ProjectId,CF-Combo-Super-Lite,43462d43-6f6d-4626-9f2d-53757065722d,rev?*%
%TF.SameCoordinates,Original*%
%TF.FileFunction,Legend,Bot*%
%TF.FilePolarity,Positive*%
%FSLAX46Y46*%
G04 Gerber Fmt 4.6, Leading zero omitted, Abs format (unit mm)*
G04 Created by KiCad (PCBNEW (5.1.9)-1) date 2021-06-13 16:48:13*
%MOMM*%
%LPD*%
G01*
G04 APERTURE LIST*
%ADD10C,0.225000*%
%ADD11C,0.175000*%
G04 APERTURE END LIST*
D10*
X189361607Y-44907071D02*
X189361607Y-43407071D01*
X188647321Y-43907071D02*
X188647321Y-44907071D01*
X188647321Y-44049928D02*
X188575892Y-43978500D01*
X188433035Y-43907071D01*
X188218750Y-43907071D01*
X188075892Y-43978500D01*
X188004464Y-44121357D01*
X188004464Y-44907071D01*
X186147321Y-44907071D02*
X186147321Y-43907071D01*
X186147321Y-44049928D02*
X186075892Y-43978500D01*
X185933035Y-43907071D01*
X185718750Y-43907071D01*
X185575892Y-43978500D01*
X185504464Y-44121357D01*
X185504464Y-44907071D01*
X185504464Y-44121357D02*
X185433035Y-43978500D01*
X185290178Y-43907071D01*
X185075892Y-43907071D01*
X184933035Y-43978500D01*
X184861607Y-44121357D01*
X184861607Y-44907071D01*
X183575892Y-44835642D02*
X183718750Y-44907071D01*
X184004464Y-44907071D01*
X184147321Y-44835642D01*
X184218750Y-44692785D01*
X184218750Y-44121357D01*
X184147321Y-43978500D01*
X184004464Y-43907071D01*
X183718750Y-43907071D01*
X183575892Y-43978500D01*
X183504464Y-44121357D01*
X183504464Y-44264214D01*
X184218750Y-44407071D01*
X182861607Y-44907071D02*
X182861607Y-43907071D01*
X182861607Y-44049928D02*
X182790178Y-43978500D01*
X182647321Y-43907071D01*
X182433035Y-43907071D01*
X182290178Y-43978500D01*
X182218750Y-44121357D01*
X182218750Y-44907071D01*
X182218750Y-44121357D02*
X182147321Y-43978500D01*
X182004464Y-43907071D01*
X181790178Y-43907071D01*
X181647321Y-43978500D01*
X181575892Y-44121357D01*
X181575892Y-44907071D01*
X180647321Y-44907071D02*
X180790178Y-44835642D01*
X180861607Y-44764214D01*
X180933035Y-44621357D01*
X180933035Y-44192785D01*
X180861607Y-44049928D01*
X180790178Y-43978500D01*
X180647321Y-43907071D01*
X180433035Y-43907071D01*
X180290178Y-43978500D01*
X180218750Y-44049928D01*
X180147321Y-44192785D01*
X180147321Y-44621357D01*
X180218750Y-44764214D01*
X180290178Y-44835642D01*
X180433035Y-44907071D01*
X180647321Y-44907071D01*
X179504464Y-44907071D02*
X179504464Y-43907071D01*
X179504464Y-44192785D02*
X179433035Y-44049928D01*
X179361607Y-43978500D01*
X179218750Y-43907071D01*
X179075892Y-43907071D01*
X178718750Y-43907071D02*
X178361607Y-44907071D01*
X178004464Y-43907071D02*
X178361607Y-44907071D01*
X178504464Y-45264214D01*
X178575892Y-45335642D01*
X178718750Y-45407071D01*
X176075892Y-44907071D02*
X176218750Y-44835642D01*
X176290178Y-44764214D01*
X176361607Y-44621357D01*
X176361607Y-44192785D01*
X176290178Y-44049928D01*
X176218750Y-43978500D01*
X176075892Y-43907071D01*
X175861607Y-43907071D01*
X175718750Y-43978500D01*
X175647321Y-44049928D01*
X175575892Y-44192785D01*
X175575892Y-44621357D01*
X175647321Y-44764214D01*
X175718750Y-44835642D01*
X175861607Y-44907071D01*
X176075892Y-44907071D01*
X175147321Y-43907071D02*
X174575892Y-43907071D01*
X174933035Y-44907071D02*
X174933035Y-43621357D01*
X174861607Y-43478500D01*
X174718750Y-43407071D01*
X174575892Y-43407071D01*
X172933035Y-44907071D02*
X172933035Y-43907071D01*
X172933035Y-44049928D02*
X172861607Y-43978500D01*
X172718750Y-43907071D01*
X172504464Y-43907071D01*
X172361607Y-43978500D01*
X172290178Y-44121357D01*
X172290178Y-44907071D01*
X172290178Y-44121357D02*
X172218750Y-43978500D01*
X172075892Y-43907071D01*
X171861607Y-43907071D01*
X171718750Y-43978500D01*
X171647321Y-44121357D01*
X171647321Y-44907071D01*
X171075892Y-43907071D02*
X170718750Y-44907071D01*
X170361607Y-43907071D02*
X170718750Y-44907071D01*
X170861607Y-45264214D01*
X170933035Y-45335642D01*
X171075892Y-45407071D01*
X168861607Y-43907071D02*
X168290178Y-43907071D01*
X168647321Y-44907071D02*
X168647321Y-43621357D01*
X168575892Y-43478500D01*
X168433035Y-43407071D01*
X168290178Y-43407071D01*
X167147321Y-44907071D02*
X167147321Y-44121357D01*
X167218750Y-43978500D01*
X167361607Y-43907071D01*
X167647321Y-43907071D01*
X167790178Y-43978500D01*
X167147321Y-44835642D02*
X167290178Y-44907071D01*
X167647321Y-44907071D01*
X167790178Y-44835642D01*
X167861607Y-44692785D01*
X167861607Y-44549928D01*
X167790178Y-44407071D01*
X167647321Y-44335642D01*
X167290178Y-44335642D01*
X167147321Y-44264214D01*
X166647321Y-43907071D02*
X166075892Y-43907071D01*
X166433035Y-43407071D02*
X166433035Y-44692785D01*
X166361607Y-44835642D01*
X166218750Y-44907071D01*
X166075892Y-44907071D01*
X165575892Y-44907071D02*
X165575892Y-43407071D01*
X164933035Y-44907071D02*
X164933035Y-44121357D01*
X165004464Y-43978500D01*
X165147321Y-43907071D01*
X165361607Y-43907071D01*
X165504464Y-43978500D01*
X165575892Y-44049928D01*
X163647321Y-44835642D02*
X163790178Y-44907071D01*
X164075892Y-44907071D01*
X164218750Y-44835642D01*
X164290178Y-44692785D01*
X164290178Y-44121357D01*
X164218750Y-43978500D01*
X164075892Y-43907071D01*
X163790178Y-43907071D01*
X163647321Y-43978500D01*
X163575892Y-44121357D01*
X163575892Y-44264214D01*
X164290178Y-44407071D01*
X162933035Y-44907071D02*
X162933035Y-43907071D01*
X162933035Y-44192785D02*
X162861607Y-44049928D01*
X162790178Y-43978500D01*
X162647321Y-43907071D01*
X162504464Y-43907071D01*
X161933035Y-44835642D02*
X161933035Y-44907071D01*
X162004464Y-45049928D01*
X162075892Y-45121357D01*
X160147321Y-44907071D02*
X160147321Y-43407071D01*
X159647321Y-44478500D01*
X159147321Y-43407071D01*
X159147321Y-44907071D01*
X158433035Y-44907071D02*
X158433035Y-43907071D01*
X158433035Y-43407071D02*
X158504464Y-43478500D01*
X158433035Y-43549928D01*
X158361607Y-43478500D01*
X158433035Y-43407071D01*
X158433035Y-43549928D01*
X157075892Y-44835642D02*
X157218750Y-44907071D01*
X157504464Y-44907071D01*
X157647321Y-44835642D01*
X157718750Y-44764214D01*
X157790178Y-44621357D01*
X157790178Y-44192785D01*
X157718750Y-44049928D01*
X157647321Y-43978500D01*
X157504464Y-43907071D01*
X157218750Y-43907071D01*
X157075892Y-43978500D01*
X156433035Y-44907071D02*
X156433035Y-43407071D01*
X155790178Y-44907071D02*
X155790178Y-44121357D01*
X155861607Y-43978500D01*
X156004464Y-43907071D01*
X156218750Y-43907071D01*
X156361607Y-43978500D01*
X156433035Y-44049928D01*
X154433035Y-44907071D02*
X154433035Y-44121357D01*
X154504464Y-43978500D01*
X154647321Y-43907071D01*
X154933035Y-43907071D01*
X155075892Y-43978500D01*
X154433035Y-44835642D02*
X154575892Y-44907071D01*
X154933035Y-44907071D01*
X155075892Y-44835642D01*
X155147321Y-44692785D01*
X155147321Y-44549928D01*
X155075892Y-44407071D01*
X154933035Y-44335642D01*
X154575892Y-44335642D01*
X154433035Y-44264214D01*
X153147321Y-44835642D02*
X153290178Y-44907071D01*
X153575892Y-44907071D01*
X153718750Y-44835642D01*
X153790178Y-44692785D01*
X153790178Y-44121357D01*
X153718750Y-43978500D01*
X153575892Y-43907071D01*
X153290178Y-43907071D01*
X153147321Y-43978500D01*
X153075892Y-44121357D01*
X153075892Y-44264214D01*
X153790178Y-44407071D01*
X152218750Y-44907071D02*
X152361607Y-44835642D01*
X152433035Y-44692785D01*
X152433035Y-43407071D01*
X150075892Y-43407071D02*
X150075892Y-44478500D01*
X150147321Y-44692785D01*
X150290178Y-44835642D01*
X150504464Y-44907071D01*
X150647321Y-44907071D01*
X148718750Y-44907071D02*
X148718750Y-44121357D01*
X148790178Y-43978500D01*
X148933035Y-43907071D01*
X149218750Y-43907071D01*
X149361607Y-43978500D01*
X148718750Y-44835642D02*
X148861607Y-44907071D01*
X149218750Y-44907071D01*
X149361607Y-44835642D01*
X149433035Y-44692785D01*
X149433035Y-44549928D01*
X149361607Y-44407071D01*
X149218750Y-44335642D01*
X148861607Y-44335642D01*
X148718750Y-44264214D01*
X148004464Y-44907071D02*
X148004464Y-43907071D01*
X148004464Y-44049928D02*
X147933035Y-43978500D01*
X147790178Y-43907071D01*
X147575892Y-43907071D01*
X147433035Y-43978500D01*
X147361607Y-44121357D01*
X147361607Y-44907071D01*
X147361607Y-44121357D02*
X147290178Y-43978500D01*
X147147321Y-43907071D01*
X146933035Y-43907071D01*
X146790178Y-43978500D01*
X146718750Y-44121357D01*
X146718750Y-44907071D01*
X145433035Y-44835642D02*
X145575892Y-44907071D01*
X145861607Y-44907071D01*
X146004464Y-44835642D01*
X146075892Y-44692785D01*
X146075892Y-44121357D01*
X146004464Y-43978500D01*
X145861607Y-43907071D01*
X145575892Y-43907071D01*
X145433035Y-43978500D01*
X145361607Y-44121357D01*
X145361607Y-44264214D01*
X146075892Y-44407071D01*
X144790178Y-44835642D02*
X144647321Y-44907071D01*
X144361607Y-44907071D01*
X144218750Y-44835642D01*
X144147321Y-44692785D01*
X144147321Y-44621357D01*
X144218750Y-44478500D01*
X144361607Y-44407071D01*
X144575892Y-44407071D01*
X144718750Y-44335642D01*
X144790178Y-44192785D01*
X144790178Y-44121357D01*
X144718750Y-43978500D01*
X144575892Y-43907071D01*
X144361607Y-43907071D01*
X144218750Y-43978500D01*
X141647321Y-44907071D02*
X142361607Y-44907071D01*
X142361607Y-43407071D01*
X140575892Y-44835642D02*
X140718750Y-44907071D01*
X141004464Y-44907071D01*
X141147321Y-44835642D01*
X141218750Y-44692785D01*
X141218750Y-44121357D01*
X141147321Y-43978500D01*
X141004464Y-43907071D01*
X140718750Y-43907071D01*
X140575892Y-43978500D01*
X140504464Y-44121357D01*
X140504464Y-44264214D01*
X141218750Y-44407071D01*
X139290178Y-44835642D02*
X139433035Y-44907071D01*
X139718750Y-44907071D01*
X139861607Y-44835642D01*
X139933035Y-44692785D01*
X139933035Y-44121357D01*
X139861607Y-43978500D01*
X139718750Y-43907071D01*
X139433035Y-43907071D01*
X139290178Y-43978500D01*
X139218750Y-44121357D01*
X139218750Y-44264214D01*
X139933035Y-44407071D01*
X138575892Y-44335642D02*
X137433035Y-44335642D01*
X136790178Y-44835642D02*
X136575892Y-44907071D01*
X136218750Y-44907071D01*
X136075892Y-44835642D01*
X136004464Y-44764214D01*
X135933035Y-44621357D01*
X135933035Y-44478500D01*
X136004464Y-44335642D01*
X136075892Y-44264214D01*
X136218750Y-44192785D01*
X136504464Y-44121357D01*
X136647321Y-44049928D01*
X136718750Y-43978500D01*
X136790178Y-43835642D01*
X136790178Y-43692785D01*
X136718750Y-43549928D01*
X136647321Y-43478500D01*
X136504464Y-43407071D01*
X136147321Y-43407071D01*
X135933035Y-43478500D01*
X135504464Y-43907071D02*
X134933035Y-43907071D01*
X135290178Y-43407071D02*
X135290178Y-44692785D01*
X135218750Y-44835642D01*
X135075892Y-44907071D01*
X134933035Y-44907071D01*
X133861607Y-44835642D02*
X134004464Y-44907071D01*
X134290178Y-44907071D01*
X134433035Y-44835642D01*
X134504464Y-44692785D01*
X134504464Y-44121357D01*
X134433035Y-43978500D01*
X134290178Y-43907071D01*
X134004464Y-43907071D01*
X133861607Y-43978500D01*
X133790178Y-44121357D01*
X133790178Y-44264214D01*
X134504464Y-44407071D01*
X132575892Y-44835642D02*
X132718750Y-44907071D01*
X133004464Y-44907071D01*
X133147321Y-44835642D01*
X133218750Y-44692785D01*
X133218750Y-44121357D01*
X133147321Y-43978500D01*
X133004464Y-43907071D01*
X132718750Y-43907071D01*
X132575892Y-43978500D01*
X132504464Y-44121357D01*
X132504464Y-44264214D01*
X133218750Y-44407071D01*
X131861607Y-44907071D02*
X131861607Y-43907071D01*
X131861607Y-44192785D02*
X131790178Y-44049928D01*
X131718750Y-43978500D01*
X131575892Y-43907071D01*
X131433035Y-43907071D01*
X130361607Y-44835642D02*
X130504464Y-44907071D01*
X130790178Y-44907071D01*
X130933035Y-44835642D01*
X131004464Y-44692785D01*
X131004464Y-44121357D01*
X130933035Y-43978500D01*
X130790178Y-43907071D01*
X130504464Y-43907071D01*
X130361607Y-43978500D01*
X130290178Y-44121357D01*
X130290178Y-44264214D01*
X131004464Y-44407071D01*
X129647321Y-44764214D02*
X129575892Y-44835642D01*
X129647321Y-44907071D01*
X129718750Y-44835642D01*
X129647321Y-44764214D01*
X129647321Y-44907071D01*
X127504464Y-43407071D02*
X127218750Y-43407071D01*
X127075892Y-43478500D01*
X126933035Y-43621357D01*
X126861607Y-43907071D01*
X126861607Y-44407071D01*
X126933035Y-44692785D01*
X127075892Y-44835642D01*
X127218750Y-44907071D01*
X127504464Y-44907071D01*
X127647321Y-44835642D01*
X127790178Y-44692785D01*
X127861607Y-44407071D01*
X127861607Y-43907071D01*
X127790178Y-43621357D01*
X127647321Y-43478500D01*
X127504464Y-43407071D01*
X125575892Y-43907071D02*
X125575892Y-44907071D01*
X126218750Y-43907071D02*
X126218750Y-44692785D01*
X126147321Y-44835642D01*
X126004464Y-44907071D01*
X125790178Y-44907071D01*
X125647321Y-44835642D01*
X125575892Y-44764214D01*
X124861607Y-44907071D02*
X124861607Y-43907071D01*
X124861607Y-44192785D02*
X124790178Y-44049928D01*
X124718750Y-43978500D01*
X124575892Y-43907071D01*
X124433035Y-43907071D01*
X122218750Y-44835642D02*
X122361607Y-44907071D01*
X122647321Y-44907071D01*
X122790178Y-44835642D01*
X122861607Y-44692785D01*
X122861607Y-44121357D01*
X122790178Y-43978500D01*
X122647321Y-43907071D01*
X122361607Y-43907071D01*
X122218750Y-43978500D01*
X122147321Y-44121357D01*
X122147321Y-44264214D01*
X122861607Y-44407071D01*
X120861607Y-44907071D02*
X120861607Y-44121357D01*
X120933035Y-43978500D01*
X121075892Y-43907071D01*
X121361607Y-43907071D01*
X121504464Y-43978500D01*
X120861607Y-44835642D02*
X121004464Y-44907071D01*
X121361607Y-44907071D01*
X121504464Y-44835642D01*
X121575892Y-44692785D01*
X121575892Y-44549928D01*
X121504464Y-44407071D01*
X121361607Y-44335642D01*
X121004464Y-44335642D01*
X120861607Y-44264214D01*
X120147321Y-44907071D02*
X120147321Y-43907071D01*
X120147321Y-44192785D02*
X120075892Y-44049928D01*
X120004464Y-43978500D01*
X119861607Y-43907071D01*
X119718750Y-43907071D01*
X119004464Y-44907071D02*
X119147321Y-44835642D01*
X119218750Y-44692785D01*
X119218750Y-43407071D01*
X118575892Y-43907071D02*
X118218750Y-44907071D01*
X117861607Y-43907071D02*
X118218750Y-44907071D01*
X118361607Y-45264214D01*
X118433035Y-45335642D01*
X118575892Y-45407071D01*
X115575892Y-44835642D02*
X115718750Y-44907071D01*
X116004464Y-44907071D01*
X116147321Y-44835642D01*
X116218750Y-44692785D01*
X116218750Y-44121357D01*
X116147321Y-43978500D01*
X116004464Y-43907071D01*
X115718750Y-43907071D01*
X115575892Y-43978500D01*
X115504464Y-44121357D01*
X115504464Y-44264214D01*
X116218750Y-44407071D01*
X115004464Y-44907071D02*
X114218750Y-43907071D01*
X115004464Y-43907071D02*
X114218750Y-44907071D01*
X113647321Y-43907071D02*
X113647321Y-45407071D01*
X113647321Y-43978500D02*
X113504464Y-43907071D01*
X113218750Y-43907071D01*
X113075892Y-43978500D01*
X113004464Y-44049928D01*
X112933035Y-44192785D01*
X112933035Y-44621357D01*
X113004464Y-44764214D01*
X113075892Y-44835642D01*
X113218750Y-44907071D01*
X113504464Y-44907071D01*
X113647321Y-44835642D01*
X111718750Y-44835642D02*
X111861607Y-44907071D01*
X112147321Y-44907071D01*
X112290178Y-44835642D01*
X112361607Y-44692785D01*
X112361607Y-44121357D01*
X112290178Y-43978500D01*
X112147321Y-43907071D01*
X111861607Y-43907071D01*
X111718750Y-43978500D01*
X111647321Y-44121357D01*
X111647321Y-44264214D01*
X112361607Y-44407071D01*
X111004464Y-44907071D02*
X111004464Y-43907071D01*
X111004464Y-44192785D02*
X110933035Y-44049928D01*
X110861607Y-43978500D01*
X110718750Y-43907071D01*
X110575892Y-43907071D01*
X110075892Y-44907071D02*
X110075892Y-43907071D01*
X110075892Y-43407071D02*
X110147321Y-43478500D01*
X110075892Y-43549928D01*
X110004464Y-43478500D01*
X110075892Y-43407071D01*
X110075892Y-43549928D01*
X108790178Y-44835642D02*
X108933035Y-44907071D01*
X109218750Y-44907071D01*
X109361607Y-44835642D01*
X109433035Y-44692785D01*
X109433035Y-44121357D01*
X109361607Y-43978500D01*
X109218750Y-43907071D01*
X108933035Y-43907071D01*
X108790178Y-43978500D01*
X108718750Y-44121357D01*
X108718750Y-44264214D01*
X109433035Y-44407071D01*
X108075892Y-43907071D02*
X108075892Y-44907071D01*
X108075892Y-44049928D02*
X108004464Y-43978500D01*
X107861607Y-43907071D01*
X107647321Y-43907071D01*
X107504464Y-43978500D01*
X107433035Y-44121357D01*
X107433035Y-44907071D01*
X106075892Y-44835642D02*
X106218750Y-44907071D01*
X106504464Y-44907071D01*
X106647321Y-44835642D01*
X106718750Y-44764214D01*
X106790178Y-44621357D01*
X106790178Y-44192785D01*
X106718750Y-44049928D01*
X106647321Y-43978500D01*
X106504464Y-43907071D01*
X106218750Y-43907071D01*
X106075892Y-43978500D01*
X104861607Y-44835642D02*
X105004464Y-44907071D01*
X105290178Y-44907071D01*
X105433035Y-44835642D01*
X105504464Y-44692785D01*
X105504464Y-44121357D01*
X105433035Y-43978500D01*
X105290178Y-43907071D01*
X105004464Y-43907071D01*
X104861607Y-43978500D01*
X104790178Y-44121357D01*
X104790178Y-44264214D01*
X105504464Y-44407071D01*
X104218750Y-44835642D02*
X104075892Y-44907071D01*
X103790178Y-44907071D01*
X103647321Y-44835642D01*
X103575892Y-44692785D01*
X103575892Y-44621357D01*
X103647321Y-44478500D01*
X103790178Y-44407071D01*
X104004464Y-44407071D01*
X104147321Y-44335642D01*
X104218750Y-44192785D01*
X104218750Y-44121357D01*
X104147321Y-43978500D01*
X104004464Y-43907071D01*
X103790178Y-43907071D01*
X103647321Y-43978500D01*
X189504464Y-46382071D02*
X189218750Y-47382071D01*
X188933035Y-46667785D01*
X188647321Y-47382071D01*
X188361607Y-46382071D01*
X187790178Y-47382071D02*
X187790178Y-46382071D01*
X187790178Y-45882071D02*
X187861607Y-45953500D01*
X187790178Y-46024928D01*
X187718750Y-45953500D01*
X187790178Y-45882071D01*
X187790178Y-46024928D01*
X187290178Y-46382071D02*
X186718750Y-46382071D01*
X187075892Y-45882071D02*
X187075892Y-47167785D01*
X187004464Y-47310642D01*
X186861607Y-47382071D01*
X186718750Y-47382071D01*
X186218750Y-47382071D02*
X186218750Y-45882071D01*
X185575892Y-47382071D02*
X185575892Y-46596357D01*
X185647321Y-46453500D01*
X185790178Y-46382071D01*
X186004464Y-46382071D01*
X186147321Y-46453500D01*
X186218750Y-46524928D01*
X183933035Y-46382071D02*
X183361607Y-46382071D01*
X183718750Y-45882071D02*
X183718750Y-47167785D01*
X183647321Y-47310642D01*
X183504464Y-47382071D01*
X183361607Y-47382071D01*
X182861607Y-47382071D02*
X182861607Y-45882071D01*
X182218750Y-47382071D02*
X182218750Y-46596357D01*
X182290178Y-46453500D01*
X182433035Y-46382071D01*
X182647321Y-46382071D01*
X182790178Y-46453500D01*
X182861607Y-46524928D01*
X180933035Y-47310642D02*
X181075892Y-47382071D01*
X181361607Y-47382071D01*
X181504464Y-47310642D01*
X181575892Y-47167785D01*
X181575892Y-46596357D01*
X181504464Y-46453500D01*
X181361607Y-46382071D01*
X181075892Y-46382071D01*
X180933035Y-46453500D01*
X180861607Y-46596357D01*
X180861607Y-46739214D01*
X181575892Y-46882071D01*
X179290178Y-45882071D02*
X178433035Y-45882071D01*
X178861607Y-47382071D02*
X178861607Y-45882071D01*
X177290178Y-47382071D02*
X177290178Y-46596357D01*
X177361607Y-46453500D01*
X177504464Y-46382071D01*
X177790178Y-46382071D01*
X177933035Y-46453500D01*
X177290178Y-47310642D02*
X177433035Y-47382071D01*
X177790178Y-47382071D01*
X177933035Y-47310642D01*
X178004464Y-47167785D01*
X178004464Y-47024928D01*
X177933035Y-46882071D01*
X177790178Y-46810642D01*
X177433035Y-46810642D01*
X177290178Y-46739214D01*
X176575892Y-46382071D02*
X176575892Y-47382071D01*
X176575892Y-46524928D02*
X176504464Y-46453500D01*
X176361607Y-46382071D01*
X176147321Y-46382071D01*
X176004464Y-46453500D01*
X175933035Y-46596357D01*
X175933035Y-47382071D01*
X174575892Y-47382071D02*
X174575892Y-45882071D01*
X174575892Y-47310642D02*
X174718750Y-47382071D01*
X175004464Y-47382071D01*
X175147321Y-47310642D01*
X175218750Y-47239214D01*
X175290178Y-47096357D01*
X175290178Y-46667785D01*
X175218750Y-46524928D01*
X175147321Y-46453500D01*
X175004464Y-46382071D01*
X174718750Y-46382071D01*
X174575892Y-46453500D01*
X174004464Y-46382071D02*
X173647321Y-47382071D01*
X173290178Y-46382071D02*
X173647321Y-47382071D01*
X173790178Y-47739214D01*
X173861607Y-47810642D01*
X174004464Y-47882071D01*
X170790178Y-47382071D02*
X171647321Y-47382071D01*
X171218750Y-47382071D02*
X171218750Y-45882071D01*
X171361607Y-46096357D01*
X171504464Y-46239214D01*
X171647321Y-46310642D01*
X169861607Y-45882071D02*
X169718750Y-45882071D01*
X169575892Y-45953500D01*
X169504464Y-46024928D01*
X169433035Y-46167785D01*
X169361607Y-46453500D01*
X169361607Y-46810642D01*
X169433035Y-47096357D01*
X169504464Y-47239214D01*
X169575892Y-47310642D01*
X169718750Y-47382071D01*
X169861607Y-47382071D01*
X170004464Y-47310642D01*
X170075892Y-47239214D01*
X170147321Y-47096357D01*
X170218750Y-46810642D01*
X170218750Y-46453500D01*
X170147321Y-46167785D01*
X170075892Y-46024928D01*
X170004464Y-45953500D01*
X169861607Y-45882071D01*
X168433035Y-45882071D02*
X168290178Y-45882071D01*
X168147321Y-45953500D01*
X168075892Y-46024928D01*
X168004464Y-46167785D01*
X167933035Y-46453500D01*
X167933035Y-46810642D01*
X168004464Y-47096357D01*
X168075892Y-47239214D01*
X168147321Y-47310642D01*
X168290178Y-47382071D01*
X168433035Y-47382071D01*
X168575892Y-47310642D01*
X168647321Y-47239214D01*
X168718750Y-47096357D01*
X168790178Y-46810642D01*
X168790178Y-46453500D01*
X168718750Y-46167785D01*
X168647321Y-46024928D01*
X168575892Y-45953500D01*
X168433035Y-45882071D01*
X167004464Y-45882071D02*
X166861607Y-45882071D01*
X166718750Y-45953500D01*
X166647321Y-46024928D01*
X166575892Y-46167785D01*
X166504464Y-46453500D01*
X166504464Y-46810642D01*
X166575892Y-47096357D01*
X166647321Y-47239214D01*
X166718750Y-47310642D01*
X166861607Y-47382071D01*
X167004464Y-47382071D01*
X167147321Y-47310642D01*
X167218750Y-47239214D01*
X167290178Y-47096357D01*
X167361607Y-46810642D01*
X167361607Y-46453500D01*
X167290178Y-46167785D01*
X167218750Y-46024928D01*
X167147321Y-45953500D01*
X167004464Y-45882071D01*
X164718750Y-46382071D02*
X164718750Y-47882071D01*
X164718750Y-46453500D02*
X164575892Y-46382071D01*
X164290178Y-46382071D01*
X164147321Y-46453500D01*
X164075892Y-46524928D01*
X164004464Y-46667785D01*
X164004464Y-47096357D01*
X164075892Y-47239214D01*
X164147321Y-47310642D01*
X164290178Y-47382071D01*
X164575892Y-47382071D01*
X164718750Y-47310642D01*
X163361607Y-47382071D02*
X163361607Y-46382071D01*
X163361607Y-46667785D02*
X163290178Y-46524928D01*
X163218750Y-46453500D01*
X163075892Y-46382071D01*
X162933035Y-46382071D01*
X162218750Y-47382071D02*
X162361607Y-47310642D01*
X162433035Y-47239214D01*
X162504464Y-47096357D01*
X162504464Y-46667785D01*
X162433035Y-46524928D01*
X162361607Y-46453500D01*
X162218750Y-46382071D01*
X162004464Y-46382071D01*
X161861607Y-46453500D01*
X161790178Y-46524928D01*
X161718750Y-46667785D01*
X161718750Y-47096357D01*
X161790178Y-47239214D01*
X161861607Y-47310642D01*
X162004464Y-47382071D01*
X162218750Y-47382071D01*
X161218750Y-46382071D02*
X160861607Y-47382071D01*
X160504464Y-46382071D01*
X159933035Y-47382071D02*
X159933035Y-46382071D01*
X159933035Y-45882071D02*
X160004464Y-45953500D01*
X159933035Y-46024928D01*
X159861607Y-45953500D01*
X159933035Y-45882071D01*
X159933035Y-46024928D01*
X158575892Y-47382071D02*
X158575892Y-45882071D01*
X158575892Y-47310642D02*
X158718750Y-47382071D01*
X159004464Y-47382071D01*
X159147321Y-47310642D01*
X159218750Y-47239214D01*
X159290178Y-47096357D01*
X159290178Y-46667785D01*
X159218750Y-46524928D01*
X159147321Y-46453500D01*
X159004464Y-46382071D01*
X158718750Y-46382071D01*
X158575892Y-46453500D01*
X157290178Y-47310642D02*
X157433035Y-47382071D01*
X157718750Y-47382071D01*
X157861607Y-47310642D01*
X157933035Y-47167785D01*
X157933035Y-46596357D01*
X157861607Y-46453500D01*
X157718750Y-46382071D01*
X157433035Y-46382071D01*
X157290178Y-46453500D01*
X157218750Y-46596357D01*
X157218750Y-46739214D01*
X157933035Y-46882071D01*
X155933035Y-47382071D02*
X155933035Y-45882071D01*
X155933035Y-47310642D02*
X156075892Y-47382071D01*
X156361607Y-47382071D01*
X156504464Y-47310642D01*
X156575892Y-47239214D01*
X156647321Y-47096357D01*
X156647321Y-46667785D01*
X156575892Y-46524928D01*
X156504464Y-46453500D01*
X156361607Y-46382071D01*
X156075892Y-46382071D01*
X155933035Y-46453500D01*
X154290178Y-46382071D02*
X153718750Y-46382071D01*
X154075892Y-45882071D02*
X154075892Y-47167785D01*
X154004464Y-47310642D01*
X153861607Y-47382071D01*
X153718750Y-47382071D01*
X153218750Y-47382071D02*
X153218750Y-45882071D01*
X152575892Y-47382071D02*
X152575892Y-46596357D01*
X152647321Y-46453500D01*
X152790178Y-46382071D01*
X153004464Y-46382071D01*
X153147321Y-46453500D01*
X153218750Y-46524928D01*
X151290178Y-47310642D02*
X151433035Y-47382071D01*
X151718750Y-47382071D01*
X151861607Y-47310642D01*
X151933035Y-47167785D01*
X151933035Y-46596357D01*
X151861607Y-46453500D01*
X151718750Y-46382071D01*
X151433035Y-46382071D01*
X151290178Y-46453500D01*
X151218750Y-46596357D01*
X151218750Y-46739214D01*
X151933035Y-46882071D01*
X149433035Y-47382071D02*
X149433035Y-46382071D01*
X149433035Y-45882071D02*
X149504464Y-45953500D01*
X149433035Y-46024928D01*
X149361607Y-45953500D01*
X149433035Y-45882071D01*
X149433035Y-46024928D01*
X148718750Y-46382071D02*
X148718750Y-47382071D01*
X148718750Y-46524928D02*
X148647321Y-46453500D01*
X148504464Y-46382071D01*
X148290178Y-46382071D01*
X148147321Y-46453500D01*
X148075892Y-46596357D01*
X148075892Y-47382071D01*
X147433035Y-47310642D02*
X147290178Y-47382071D01*
X147004464Y-47382071D01*
X146861607Y-47310642D01*
X146790178Y-47167785D01*
X146790178Y-47096357D01*
X146861607Y-46953500D01*
X147004464Y-46882071D01*
X147218750Y-46882071D01*
X147361607Y-46810642D01*
X147433035Y-46667785D01*
X147433035Y-46596357D01*
X147361607Y-46453500D01*
X147218750Y-46382071D01*
X147004464Y-46382071D01*
X146861607Y-46453500D01*
X146147321Y-46382071D02*
X146147321Y-47882071D01*
X146147321Y-46453500D02*
X146004464Y-46382071D01*
X145718750Y-46382071D01*
X145575892Y-46453500D01*
X145504464Y-46524928D01*
X145433035Y-46667785D01*
X145433035Y-47096357D01*
X145504464Y-47239214D01*
X145575892Y-47310642D01*
X145718750Y-47382071D01*
X146004464Y-47382071D01*
X146147321Y-47310642D01*
X144790178Y-47382071D02*
X144790178Y-46382071D01*
X144790178Y-45882071D02*
X144861607Y-45953500D01*
X144790178Y-46024928D01*
X144718750Y-45953500D01*
X144790178Y-45882071D01*
X144790178Y-46024928D01*
X144075892Y-47382071D02*
X144075892Y-46382071D01*
X144075892Y-46667785D02*
X144004464Y-46524928D01*
X143933035Y-46453500D01*
X143790178Y-46382071D01*
X143647321Y-46382071D01*
X142504464Y-47382071D02*
X142504464Y-46596357D01*
X142575892Y-46453500D01*
X142718750Y-46382071D01*
X143004464Y-46382071D01*
X143147321Y-46453500D01*
X142504464Y-47310642D02*
X142647321Y-47382071D01*
X143004464Y-47382071D01*
X143147321Y-47310642D01*
X143218750Y-47167785D01*
X143218750Y-47024928D01*
X143147321Y-46882071D01*
X143004464Y-46810642D01*
X142647321Y-46810642D01*
X142504464Y-46739214D01*
X142004464Y-46382071D02*
X141433035Y-46382071D01*
X141790178Y-45882071D02*
X141790178Y-47167785D01*
X141718750Y-47310642D01*
X141575892Y-47382071D01*
X141433035Y-47382071D01*
X140933035Y-47382071D02*
X140933035Y-46382071D01*
X140933035Y-45882071D02*
X141004464Y-45953500D01*
X140933035Y-46024928D01*
X140861607Y-45953500D01*
X140933035Y-45882071D01*
X140933035Y-46024928D01*
X140004464Y-47382071D02*
X140147321Y-47310642D01*
X140218750Y-47239214D01*
X140290178Y-47096357D01*
X140290178Y-46667785D01*
X140218750Y-46524928D01*
X140147321Y-46453500D01*
X140004464Y-46382071D01*
X139790178Y-46382071D01*
X139647321Y-46453500D01*
X139575892Y-46524928D01*
X139504464Y-46667785D01*
X139504464Y-47096357D01*
X139575892Y-47239214D01*
X139647321Y-47310642D01*
X139790178Y-47382071D01*
X140004464Y-47382071D01*
X138861607Y-46382071D02*
X138861607Y-47382071D01*
X138861607Y-46524928D02*
X138790178Y-46453500D01*
X138647321Y-46382071D01*
X138433035Y-46382071D01*
X138290178Y-46453500D01*
X138218750Y-46596357D01*
X138218750Y-47382071D01*
X136575892Y-46382071D02*
X136004464Y-46382071D01*
X136361607Y-47382071D02*
X136361607Y-46096357D01*
X136290178Y-45953500D01*
X136147321Y-45882071D01*
X136004464Y-45882071D01*
X135290178Y-47382071D02*
X135433035Y-47310642D01*
X135504464Y-47239214D01*
X135575892Y-47096357D01*
X135575892Y-46667785D01*
X135504464Y-46524928D01*
X135433035Y-46453500D01*
X135290178Y-46382071D01*
X135075892Y-46382071D01*
X134933035Y-46453500D01*
X134861607Y-46524928D01*
X134790178Y-46667785D01*
X134790178Y-47096357D01*
X134861607Y-47239214D01*
X134933035Y-47310642D01*
X135075892Y-47382071D01*
X135290178Y-47382071D01*
X134147321Y-47382071D02*
X134147321Y-46382071D01*
X134147321Y-46667785D02*
X134075892Y-46524928D01*
X134004464Y-46453500D01*
X133861607Y-46382071D01*
X133718750Y-46382071D01*
X131433035Y-47310642D02*
X131575892Y-47382071D01*
X131861607Y-47382071D01*
X132004464Y-47310642D01*
X132075892Y-47239214D01*
X132147321Y-47096357D01*
X132147321Y-46667785D01*
X132075892Y-46524928D01*
X132004464Y-46453500D01*
X131861607Y-46382071D01*
X131575892Y-46382071D01*
X131433035Y-46453500D01*
X130790178Y-47382071D02*
X130790178Y-46382071D01*
X130790178Y-46667785D02*
X130718750Y-46524928D01*
X130647321Y-46453500D01*
X130504464Y-46382071D01*
X130361607Y-46382071D01*
X129290178Y-47310642D02*
X129433035Y-47382071D01*
X129718750Y-47382071D01*
X129861607Y-47310642D01*
X129933035Y-47167785D01*
X129933035Y-46596357D01*
X129861607Y-46453500D01*
X129718750Y-46382071D01*
X129433035Y-46382071D01*
X129290178Y-46453500D01*
X129218750Y-46596357D01*
X129218750Y-46739214D01*
X129933035Y-46882071D01*
X127933035Y-47382071D02*
X127933035Y-46596357D01*
X128004464Y-46453500D01*
X128147321Y-46382071D01*
X128433035Y-46382071D01*
X128575892Y-46453500D01*
X127933035Y-47310642D02*
X128075892Y-47382071D01*
X128433035Y-47382071D01*
X128575892Y-47310642D01*
X128647321Y-47167785D01*
X128647321Y-47024928D01*
X128575892Y-46882071D01*
X128433035Y-46810642D01*
X128075892Y-46810642D01*
X127933035Y-46739214D01*
X127433035Y-46382071D02*
X126861607Y-46382071D01*
X127218750Y-45882071D02*
X127218750Y-47167785D01*
X127147321Y-47310642D01*
X127004464Y-47382071D01*
X126861607Y-47382071D01*
X126361607Y-47382071D02*
X126361607Y-46382071D01*
X126361607Y-45882071D02*
X126433035Y-45953500D01*
X126361607Y-46024928D01*
X126290178Y-45953500D01*
X126361607Y-45882071D01*
X126361607Y-46024928D01*
X125647321Y-46382071D02*
X125647321Y-47382071D01*
X125647321Y-46524928D02*
X125575892Y-46453500D01*
X125433035Y-46382071D01*
X125218750Y-46382071D01*
X125075892Y-46453500D01*
X125004464Y-46596357D01*
X125004464Y-47382071D01*
X123647321Y-46382071D02*
X123647321Y-47596357D01*
X123718750Y-47739214D01*
X123790178Y-47810642D01*
X123933035Y-47882071D01*
X124147321Y-47882071D01*
X124290178Y-47810642D01*
X123647321Y-47310642D02*
X123790178Y-47382071D01*
X124075892Y-47382071D01*
X124218750Y-47310642D01*
X124290178Y-47239214D01*
X124361607Y-47096357D01*
X124361607Y-46667785D01*
X124290178Y-46524928D01*
X124218750Y-46453500D01*
X124075892Y-46382071D01*
X123790178Y-46382071D01*
X123647321Y-46453500D01*
X122004464Y-46382071D02*
X121433035Y-46382071D01*
X121790178Y-45882071D02*
X121790178Y-47167785D01*
X121718750Y-47310642D01*
X121575892Y-47382071D01*
X121433035Y-47382071D01*
X120933035Y-47382071D02*
X120933035Y-45882071D01*
X120290178Y-47382071D02*
X120290178Y-46596357D01*
X120361607Y-46453500D01*
X120504464Y-46382071D01*
X120718750Y-46382071D01*
X120861607Y-46453500D01*
X120933035Y-46524928D01*
X119575892Y-47382071D02*
X119575892Y-46382071D01*
X119575892Y-45882071D02*
X119647321Y-45953500D01*
X119575892Y-46024928D01*
X119504464Y-45953500D01*
X119575892Y-45882071D01*
X119575892Y-46024928D01*
X118933035Y-47310642D02*
X118790178Y-47382071D01*
X118504464Y-47382071D01*
X118361607Y-47310642D01*
X118290178Y-47167785D01*
X118290178Y-47096357D01*
X118361607Y-46953500D01*
X118504464Y-46882071D01*
X118718750Y-46882071D01*
X118861607Y-46810642D01*
X118933035Y-46667785D01*
X118933035Y-46596357D01*
X118861607Y-46453500D01*
X118718750Y-46382071D01*
X118504464Y-46382071D01*
X118361607Y-46453500D01*
X115861607Y-46382071D02*
X115861607Y-47382071D01*
X116504464Y-46382071D02*
X116504464Y-47167785D01*
X116433035Y-47310642D01*
X116290178Y-47382071D01*
X116075892Y-47382071D01*
X115933035Y-47310642D01*
X115861607Y-47239214D01*
X115147321Y-46382071D02*
X115147321Y-47882071D01*
X115147321Y-46453500D02*
X115004464Y-46382071D01*
X114718750Y-46382071D01*
X114575892Y-46453500D01*
X114504464Y-46524928D01*
X114433035Y-46667785D01*
X114433035Y-47096357D01*
X114504464Y-47239214D01*
X114575892Y-47310642D01*
X114718750Y-47382071D01*
X115004464Y-47382071D01*
X115147321Y-47310642D01*
X113147321Y-46382071D02*
X113147321Y-47596357D01*
X113218750Y-47739214D01*
X113290178Y-47810642D01*
X113433035Y-47882071D01*
X113647321Y-47882071D01*
X113790178Y-47810642D01*
X113147321Y-47310642D02*
X113290178Y-47382071D01*
X113575892Y-47382071D01*
X113718750Y-47310642D01*
X113790178Y-47239214D01*
X113861607Y-47096357D01*
X113861607Y-46667785D01*
X113790178Y-46524928D01*
X113718750Y-46453500D01*
X113575892Y-46382071D01*
X113290178Y-46382071D01*
X113147321Y-46453500D01*
X112433035Y-47382071D02*
X112433035Y-46382071D01*
X112433035Y-46667785D02*
X112361607Y-46524928D01*
X112290178Y-46453500D01*
X112147321Y-46382071D01*
X112004464Y-46382071D01*
X110861607Y-47382071D02*
X110861607Y-46596357D01*
X110933035Y-46453500D01*
X111075892Y-46382071D01*
X111361607Y-46382071D01*
X111504464Y-46453500D01*
X110861607Y-47310642D02*
X111004464Y-47382071D01*
X111361607Y-47382071D01*
X111504464Y-47310642D01*
X111575892Y-47167785D01*
X111575892Y-47024928D01*
X111504464Y-46882071D01*
X111361607Y-46810642D01*
X111004464Y-46810642D01*
X110861607Y-46739214D01*
X109504464Y-47382071D02*
X109504464Y-45882071D01*
X109504464Y-47310642D02*
X109647321Y-47382071D01*
X109933035Y-47382071D01*
X110075892Y-47310642D01*
X110147321Y-47239214D01*
X110218750Y-47096357D01*
X110218750Y-46667785D01*
X110147321Y-46524928D01*
X110075892Y-46453500D01*
X109933035Y-46382071D01*
X109647321Y-46382071D01*
X109504464Y-46453500D01*
X108218750Y-47310642D02*
X108361607Y-47382071D01*
X108647321Y-47382071D01*
X108790178Y-47310642D01*
X108861607Y-47167785D01*
X108861607Y-46596357D01*
X108790178Y-46453500D01*
X108647321Y-46382071D01*
X108361607Y-46382071D01*
X108218750Y-46453500D01*
X108147321Y-46596357D01*
X108147321Y-46739214D01*
X108861607Y-46882071D01*
X107504464Y-47239214D02*
X107433035Y-47310642D01*
X107504464Y-47382071D01*
X107575892Y-47310642D01*
X107504464Y-47239214D01*
X107504464Y-47382071D01*
D11*
X143916964Y-69335357D02*
X143231250Y-69335357D01*
X143574107Y-70535357D02*
X143574107Y-69335357D01*
X142831250Y-70535357D02*
X142831250Y-69335357D01*
X142316964Y-70535357D02*
X142316964Y-69906785D01*
X142374107Y-69792500D01*
X142488392Y-69735357D01*
X142659821Y-69735357D01*
X142774107Y-69792500D01*
X142831250Y-69849642D01*
X141231250Y-70535357D02*
X141231250Y-69906785D01*
X141288392Y-69792500D01*
X141402678Y-69735357D01*
X141631250Y-69735357D01*
X141745535Y-69792500D01*
X141231250Y-70478214D02*
X141345535Y-70535357D01*
X141631250Y-70535357D01*
X141745535Y-70478214D01*
X141802678Y-70363928D01*
X141802678Y-70249642D01*
X141745535Y-70135357D01*
X141631250Y-70078214D01*
X141345535Y-70078214D01*
X141231250Y-70021071D01*
X140659821Y-69735357D02*
X140659821Y-70535357D01*
X140659821Y-69849642D02*
X140602678Y-69792500D01*
X140488392Y-69735357D01*
X140316964Y-69735357D01*
X140202678Y-69792500D01*
X140145535Y-69906785D01*
X140145535Y-70535357D01*
X139574107Y-70535357D02*
X139574107Y-69335357D01*
X139459821Y-70078214D02*
X139116964Y-70535357D01*
X139116964Y-69735357D02*
X139574107Y-70192500D01*
X138659821Y-70478214D02*
X138545535Y-70535357D01*
X138316964Y-70535357D01*
X138202678Y-70478214D01*
X138145535Y-70363928D01*
X138145535Y-70306785D01*
X138202678Y-70192500D01*
X138316964Y-70135357D01*
X138488392Y-70135357D01*
X138602678Y-70078214D01*
X138659821Y-69963928D01*
X138659821Y-69906785D01*
X138602678Y-69792500D01*
X138488392Y-69735357D01*
X138316964Y-69735357D01*
X138202678Y-69792500D01*
X136888392Y-69735357D02*
X136431250Y-69735357D01*
X136716964Y-69335357D02*
X136716964Y-70363928D01*
X136659821Y-70478214D01*
X136545535Y-70535357D01*
X136431250Y-70535357D01*
X135859821Y-70535357D02*
X135974107Y-70478214D01*
X136031250Y-70421071D01*
X136088392Y-70306785D01*
X136088392Y-69963928D01*
X136031250Y-69849642D01*
X135974107Y-69792500D01*
X135859821Y-69735357D01*
X135688392Y-69735357D01*
X135574107Y-69792500D01*
X135516964Y-69849642D01*
X135459821Y-69963928D01*
X135459821Y-70306785D01*
X135516964Y-70421071D01*
X135574107Y-70478214D01*
X135688392Y-70535357D01*
X135859821Y-70535357D01*
X134202678Y-69735357D02*
X133745535Y-69735357D01*
X134031250Y-69335357D02*
X134031250Y-70363928D01*
X133974107Y-70478214D01*
X133859821Y-70535357D01*
X133745535Y-70535357D01*
X133345535Y-70535357D02*
X133345535Y-69335357D01*
X132831250Y-70535357D02*
X132831250Y-69906785D01*
X132888392Y-69792500D01*
X133002678Y-69735357D01*
X133174107Y-69735357D01*
X133288392Y-69792500D01*
X133345535Y-69849642D01*
X131802678Y-70478214D02*
X131916964Y-70535357D01*
X132145535Y-70535357D01*
X132259821Y-70478214D01*
X132316964Y-70363928D01*
X132316964Y-69906785D01*
X132259821Y-69792500D01*
X132145535Y-69735357D01*
X131916964Y-69735357D01*
X131802678Y-69792500D01*
X131745535Y-69906785D01*
X131745535Y-70021071D01*
X132316964Y-70135357D01*
X130431250Y-69335357D02*
X129631250Y-70535357D01*
X129631250Y-69335357D02*
X130431250Y-70535357D01*
X129345535Y-69335357D02*
X128659821Y-69335357D01*
X129002678Y-70535357D02*
X129002678Y-69335357D01*
X128259821Y-70535357D02*
X128259821Y-69335357D01*
X127688392Y-70535357D02*
X127688392Y-69335357D01*
X127402678Y-69335357D01*
X127231250Y-69392500D01*
X127116964Y-69506785D01*
X127059821Y-69621071D01*
X127002678Y-69849642D01*
X127002678Y-70021071D01*
X127059821Y-70249642D01*
X127116964Y-70363928D01*
X127231250Y-70478214D01*
X127402678Y-70535357D01*
X127688392Y-70535357D01*
X126488392Y-69906785D02*
X126088392Y-69906785D01*
X125916964Y-70535357D02*
X126488392Y-70535357D01*
X126488392Y-69335357D01*
X125916964Y-69335357D01*
X124488392Y-69335357D02*
X124488392Y-70306785D01*
X124431250Y-70421071D01*
X124374107Y-70478214D01*
X124259821Y-70535357D01*
X124031250Y-70535357D01*
X123916964Y-70478214D01*
X123859821Y-70421071D01*
X123802678Y-70306785D01*
X123802678Y-69335357D01*
X123231250Y-69735357D02*
X123231250Y-70535357D01*
X123231250Y-69849642D02*
X123174107Y-69792500D01*
X123059821Y-69735357D01*
X122888392Y-69735357D01*
X122774107Y-69792500D01*
X122716964Y-69906785D01*
X122716964Y-70535357D01*
X122145535Y-70535357D02*
X122145535Y-69735357D01*
X122145535Y-69335357D02*
X122202678Y-69392500D01*
X122145535Y-69449642D01*
X122088392Y-69392500D01*
X122145535Y-69335357D01*
X122145535Y-69449642D01*
X121688392Y-69735357D02*
X121402678Y-70535357D01*
X121116964Y-69735357D01*
X120202678Y-70478214D02*
X120316964Y-70535357D01*
X120545535Y-70535357D01*
X120659821Y-70478214D01*
X120716964Y-70363928D01*
X120716964Y-69906785D01*
X120659821Y-69792500D01*
X120545535Y-69735357D01*
X120316964Y-69735357D01*
X120202678Y-69792500D01*
X120145535Y-69906785D01*
X120145535Y-70021071D01*
X120716964Y-70135357D01*
X119631250Y-70535357D02*
X119631250Y-69735357D01*
X119631250Y-69963928D02*
X119574107Y-69849642D01*
X119516964Y-69792500D01*
X119402678Y-69735357D01*
X119288392Y-69735357D01*
X118945535Y-70478214D02*
X118831250Y-70535357D01*
X118602678Y-70535357D01*
X118488392Y-70478214D01*
X118431250Y-70363928D01*
X118431250Y-70306785D01*
X118488392Y-70192500D01*
X118602678Y-70135357D01*
X118774107Y-70135357D01*
X118888392Y-70078214D01*
X118945535Y-69963928D01*
X118945535Y-69906785D01*
X118888392Y-69792500D01*
X118774107Y-69735357D01*
X118602678Y-69735357D01*
X118488392Y-69792500D01*
X117402678Y-70535357D02*
X117402678Y-69906785D01*
X117459821Y-69792500D01*
X117574107Y-69735357D01*
X117802678Y-69735357D01*
X117916964Y-69792500D01*
X117402678Y-70478214D02*
X117516964Y-70535357D01*
X117802678Y-70535357D01*
X117916964Y-70478214D01*
X117974107Y-70363928D01*
X117974107Y-70249642D01*
X117916964Y-70135357D01*
X117802678Y-70078214D01*
X117516964Y-70078214D01*
X117402678Y-70021071D01*
X116659821Y-70535357D02*
X116774107Y-70478214D01*
X116831250Y-70363928D01*
X116831250Y-69335357D01*
X114888392Y-69906785D02*
X114716964Y-69963928D01*
X114659821Y-70021071D01*
X114602678Y-70135357D01*
X114602678Y-70306785D01*
X114659821Y-70421071D01*
X114716964Y-70478214D01*
X114831250Y-70535357D01*
X115288392Y-70535357D01*
X115288392Y-69335357D01*
X114888392Y-69335357D01*
X114774107Y-69392500D01*
X114716964Y-69449642D01*
X114659821Y-69563928D01*
X114659821Y-69678214D01*
X114716964Y-69792500D01*
X114774107Y-69849642D01*
X114888392Y-69906785D01*
X115288392Y-69906785D01*
X114088392Y-70535357D02*
X114088392Y-69335357D01*
X113288392Y-69335357D02*
X113059821Y-69335357D01*
X112945535Y-69392500D01*
X112831250Y-69506785D01*
X112774107Y-69735357D01*
X112774107Y-70135357D01*
X112831250Y-70363928D01*
X112945535Y-70478214D01*
X113059821Y-70535357D01*
X113288392Y-70535357D01*
X113402678Y-70478214D01*
X113516964Y-70363928D01*
X113574107Y-70135357D01*
X113574107Y-69735357D01*
X113516964Y-69506785D01*
X113402678Y-69392500D01*
X113288392Y-69335357D01*
X112316964Y-70478214D02*
X112145535Y-70535357D01*
X111859821Y-70535357D01*
X111745535Y-70478214D01*
X111688392Y-70421071D01*
X111631250Y-70306785D01*
X111631250Y-70192500D01*
X111688392Y-70078214D01*
X111745535Y-70021071D01*
X111859821Y-69963928D01*
X112088392Y-69906785D01*
X112202678Y-69849642D01*
X112259821Y-69792500D01*
X112316964Y-69678214D01*
X112316964Y-69563928D01*
X112259821Y-69449642D01*
X112202678Y-69392500D01*
X112088392Y-69335357D01*
X111802678Y-69335357D01*
X111631250Y-69392500D01*
X110374107Y-69335357D02*
X109688392Y-69335357D01*
X110031250Y-70535357D02*
X110031250Y-69335357D01*
X108831250Y-70478214D02*
X108945535Y-70535357D01*
X109174107Y-70535357D01*
X109288392Y-70478214D01*
X109345535Y-70363928D01*
X109345535Y-69906785D01*
X109288392Y-69792500D01*
X109174107Y-69735357D01*
X108945535Y-69735357D01*
X108831250Y-69792500D01*
X108774107Y-69906785D01*
X108774107Y-70021071D01*
X109345535Y-70135357D01*
X107745535Y-70535357D02*
X107745535Y-69906785D01*
X107802678Y-69792500D01*
X107916964Y-69735357D01*
X108145535Y-69735357D01*
X108259821Y-69792500D01*
X107745535Y-70478214D02*
X107859821Y-70535357D01*
X108145535Y-70535357D01*
X108259821Y-70478214D01*
X108316964Y-70363928D01*
X108316964Y-70249642D01*
X108259821Y-70135357D01*
X108145535Y-70078214D01*
X107859821Y-70078214D01*
X107745535Y-70021071D01*
X107174107Y-70535357D02*
X107174107Y-69735357D01*
X107174107Y-69849642D02*
X107116964Y-69792500D01*
X107002678Y-69735357D01*
X106831250Y-69735357D01*
X106716964Y-69792500D01*
X106659821Y-69906785D01*
X106659821Y-70535357D01*
X106659821Y-69906785D02*
X106602678Y-69792500D01*
X106488392Y-69735357D01*
X106316964Y-69735357D01*
X106202678Y-69792500D01*
X106145535Y-69906785D01*
X106145535Y-70535357D01*
X104145535Y-70535357D02*
X104145535Y-69906785D01*
X104202678Y-69792500D01*
X104316964Y-69735357D01*
X104545535Y-69735357D01*
X104659821Y-69792500D01*
X104145535Y-70478214D02*
X104259821Y-70535357D01*
X104545535Y-70535357D01*
X104659821Y-70478214D01*
X104716964Y-70363928D01*
X104716964Y-70249642D01*
X104659821Y-70135357D01*
X104545535Y-70078214D01*
X104259821Y-70078214D01*
X104145535Y-70021071D01*
X103574107Y-69735357D02*
X103574107Y-70535357D01*
X103574107Y-69849642D02*
X103516964Y-69792500D01*
X103402678Y-69735357D01*
X103231250Y-69735357D01*
X103116964Y-69792500D01*
X103059821Y-69906785D01*
X103059821Y-70535357D01*
X101974107Y-70535357D02*
X101974107Y-69335357D01*
X101974107Y-70478214D02*
X102088392Y-70535357D01*
X102316964Y-70535357D01*
X102431250Y-70478214D01*
X102488392Y-70421071D01*
X102545535Y-70306785D01*
X102545535Y-69963928D01*
X102488392Y-69849642D01*
X102431250Y-69792500D01*
X102316964Y-69735357D01*
X102088392Y-69735357D01*
X101974107Y-69792500D01*
X143574107Y-72510357D02*
X143688392Y-72453214D01*
X143745535Y-72396071D01*
X143802678Y-72281785D01*
X143802678Y-71938928D01*
X143745535Y-71824642D01*
X143688392Y-71767500D01*
X143574107Y-71710357D01*
X143402678Y-71710357D01*
X143288392Y-71767500D01*
X143231250Y-71824642D01*
X143174107Y-71938928D01*
X143174107Y-72281785D01*
X143231250Y-72396071D01*
X143288392Y-72453214D01*
X143402678Y-72510357D01*
X143574107Y-72510357D01*
X142831250Y-71710357D02*
X142374107Y-71710357D01*
X142659821Y-71310357D02*
X142659821Y-72338928D01*
X142602678Y-72453214D01*
X142488392Y-72510357D01*
X142374107Y-72510357D01*
X141974107Y-72510357D02*
X141974107Y-71310357D01*
X141459821Y-72510357D02*
X141459821Y-71881785D01*
X141516964Y-71767500D01*
X141631250Y-71710357D01*
X141802678Y-71710357D01*
X141916964Y-71767500D01*
X141974107Y-71824642D01*
X140431250Y-72453214D02*
X140545535Y-72510357D01*
X140774107Y-72510357D01*
X140888392Y-72453214D01*
X140945535Y-72338928D01*
X140945535Y-71881785D01*
X140888392Y-71767500D01*
X140774107Y-71710357D01*
X140545535Y-71710357D01*
X140431250Y-71767500D01*
X140374107Y-71881785D01*
X140374107Y-71996071D01*
X140945535Y-72110357D01*
X139859821Y-72510357D02*
X139859821Y-71710357D01*
X139859821Y-71938928D02*
X139802678Y-71824642D01*
X139745535Y-71767500D01*
X139631250Y-71710357D01*
X139516964Y-71710357D01*
X139174107Y-72453214D02*
X139059821Y-72510357D01*
X138831250Y-72510357D01*
X138716964Y-72453214D01*
X138659821Y-72338928D01*
X138659821Y-72281785D01*
X138716964Y-72167500D01*
X138831250Y-72110357D01*
X139002678Y-72110357D01*
X139116964Y-72053214D01*
X139174107Y-71938928D01*
X139174107Y-71881785D01*
X139116964Y-71767500D01*
X139002678Y-71710357D01*
X138831250Y-71710357D01*
X138716964Y-71767500D01*
X137345535Y-71710357D02*
X137116964Y-72510357D01*
X136888392Y-71938928D01*
X136659821Y-72510357D01*
X136431250Y-71710357D01*
X135974107Y-72510357D02*
X135974107Y-71310357D01*
X135459821Y-72510357D02*
X135459821Y-71881785D01*
X135516964Y-71767500D01*
X135631250Y-71710357D01*
X135802678Y-71710357D01*
X135916964Y-71767500D01*
X135974107Y-71824642D01*
X134716964Y-72510357D02*
X134831250Y-72453214D01*
X134888392Y-72396071D01*
X134945535Y-72281785D01*
X134945535Y-71938928D01*
X134888392Y-71824642D01*
X134831250Y-71767500D01*
X134716964Y-71710357D01*
X134545535Y-71710357D01*
X134431250Y-71767500D01*
X134374107Y-71824642D01*
X134316964Y-71938928D01*
X134316964Y-72281785D01*
X134374107Y-72396071D01*
X134431250Y-72453214D01*
X134545535Y-72510357D01*
X134716964Y-72510357D01*
X132374107Y-72453214D02*
X132488392Y-72510357D01*
X132716964Y-72510357D01*
X132831250Y-72453214D01*
X132888392Y-72396071D01*
X132945535Y-72281785D01*
X132945535Y-71938928D01*
X132888392Y-71824642D01*
X132831250Y-71767500D01*
X132716964Y-71710357D01*
X132488392Y-71710357D01*
X132374107Y-71767500D01*
X131688392Y-72510357D02*
X131802678Y-72453214D01*
X131859821Y-72396071D01*
X131916964Y-72281785D01*
X131916964Y-71938928D01*
X131859821Y-71824642D01*
X131802678Y-71767500D01*
X131688392Y-71710357D01*
X131516964Y-71710357D01*
X131402678Y-71767500D01*
X131345535Y-71824642D01*
X131288392Y-71938928D01*
X131288392Y-72281785D01*
X131345535Y-72396071D01*
X131402678Y-72453214D01*
X131516964Y-72510357D01*
X131688392Y-72510357D01*
X130774107Y-71710357D02*
X130774107Y-72510357D01*
X130774107Y-71824642D02*
X130716964Y-71767500D01*
X130602678Y-71710357D01*
X130431250Y-71710357D01*
X130316964Y-71767500D01*
X130259821Y-71881785D01*
X130259821Y-72510357D01*
X129859821Y-71710357D02*
X129402678Y-71710357D01*
X129688392Y-71310357D02*
X129688392Y-72338928D01*
X129631250Y-72453214D01*
X129516964Y-72510357D01*
X129402678Y-72510357D01*
X129002678Y-72510357D02*
X129002678Y-71710357D01*
X129002678Y-71938928D02*
X128945535Y-71824642D01*
X128888392Y-71767500D01*
X128774107Y-71710357D01*
X128659821Y-71710357D01*
X128259821Y-72510357D02*
X128259821Y-71710357D01*
X128259821Y-71310357D02*
X128316964Y-71367500D01*
X128259821Y-71424642D01*
X128202678Y-71367500D01*
X128259821Y-71310357D01*
X128259821Y-71424642D01*
X127688392Y-72510357D02*
X127688392Y-71310357D01*
X127688392Y-71767500D02*
X127574107Y-71710357D01*
X127345535Y-71710357D01*
X127231249Y-71767500D01*
X127174107Y-71824642D01*
X127116964Y-71938928D01*
X127116964Y-72281785D01*
X127174107Y-72396071D01*
X127231249Y-72453214D01*
X127345535Y-72510357D01*
X127574107Y-72510357D01*
X127688392Y-72453214D01*
X126088392Y-71710357D02*
X126088392Y-72510357D01*
X126602678Y-71710357D02*
X126602678Y-72338928D01*
X126545535Y-72453214D01*
X126431250Y-72510357D01*
X126259821Y-72510357D01*
X126145535Y-72453214D01*
X126088392Y-72396071D01*
X125688392Y-71710357D02*
X125231250Y-71710357D01*
X125516964Y-71310357D02*
X125516964Y-72338928D01*
X125459821Y-72453214D01*
X125345535Y-72510357D01*
X125231250Y-72510357D01*
X124374107Y-72453214D02*
X124488392Y-72510357D01*
X124716964Y-72510357D01*
X124831250Y-72453214D01*
X124888392Y-72338928D01*
X124888392Y-71881785D01*
X124831250Y-71767500D01*
X124716964Y-71710357D01*
X124488392Y-71710357D01*
X124374107Y-71767500D01*
X124316964Y-71881785D01*
X124316964Y-71996071D01*
X124888392Y-72110357D01*
X123288392Y-72510357D02*
X123288392Y-71310357D01*
X123288392Y-72453214D02*
X123402678Y-72510357D01*
X123631250Y-72510357D01*
X123745535Y-72453214D01*
X123802678Y-72396071D01*
X123859821Y-72281785D01*
X123859821Y-71938928D01*
X123802678Y-71824642D01*
X123745535Y-71767500D01*
X123631250Y-71710357D01*
X123402678Y-71710357D01*
X123288392Y-71767500D01*
X121974107Y-71710357D02*
X121516964Y-71710357D01*
X121802678Y-71310357D02*
X121802678Y-72338928D01*
X121745535Y-72453214D01*
X121631250Y-72510357D01*
X121516964Y-72510357D01*
X120945535Y-72510357D02*
X121059821Y-72453214D01*
X121116964Y-72396071D01*
X121174107Y-72281785D01*
X121174107Y-71938928D01*
X121116964Y-71824642D01*
X121059821Y-71767500D01*
X120945535Y-71710357D01*
X120774107Y-71710357D01*
X120659821Y-71767500D01*
X120602678Y-71824642D01*
X120545535Y-71938928D01*
X120545535Y-72281785D01*
X120602678Y-72396071D01*
X120659821Y-72453214D01*
X120774107Y-72510357D01*
X120945535Y-72510357D01*
X119288392Y-71710357D02*
X118831250Y-71710357D01*
X119116964Y-71310357D02*
X119116964Y-72338928D01*
X119059821Y-72453214D01*
X118945535Y-72510357D01*
X118831250Y-72510357D01*
X118431250Y-72510357D02*
X118431250Y-71310357D01*
X117916964Y-72510357D02*
X117916964Y-71881785D01*
X117974107Y-71767500D01*
X118088392Y-71710357D01*
X118259821Y-71710357D01*
X118374107Y-71767500D01*
X118431250Y-71824642D01*
X116888392Y-72453214D02*
X117002678Y-72510357D01*
X117231250Y-72510357D01*
X117345535Y-72453214D01*
X117402678Y-72338928D01*
X117402678Y-71881785D01*
X117345535Y-71767500D01*
X117231250Y-71710357D01*
X117002678Y-71710357D01*
X116888392Y-71767500D01*
X116831250Y-71881785D01*
X116831250Y-71996071D01*
X117402678Y-72110357D01*
X115516964Y-71310357D02*
X114716964Y-72510357D01*
X114716964Y-71310357D02*
X115516964Y-72510357D01*
X114431250Y-71310357D02*
X113745535Y-71310357D01*
X114088392Y-72510357D02*
X114088392Y-71310357D01*
X113345535Y-72510357D02*
X113345535Y-71310357D01*
X112774107Y-72510357D02*
X112774107Y-71310357D01*
X112488392Y-71310357D01*
X112316964Y-71367500D01*
X112202678Y-71481785D01*
X112145535Y-71596071D01*
X112088392Y-71824642D01*
X112088392Y-71996071D01*
X112145535Y-72224642D01*
X112202678Y-72338928D01*
X112316964Y-72453214D01*
X112488392Y-72510357D01*
X112774107Y-72510357D01*
X111574107Y-71881785D02*
X111174107Y-71881785D01*
X111002678Y-72510357D02*
X111574107Y-72510357D01*
X111574107Y-71310357D01*
X111002678Y-71310357D01*
X143745535Y-73285357D02*
X143745535Y-74256785D01*
X143688392Y-74371071D01*
X143631250Y-74428214D01*
X143516964Y-74485357D01*
X143288392Y-74485357D01*
X143174107Y-74428214D01*
X143116964Y-74371071D01*
X143059821Y-74256785D01*
X143059821Y-73285357D01*
X142488392Y-73685357D02*
X142488392Y-74485357D01*
X142488392Y-73799642D02*
X142431250Y-73742500D01*
X142316964Y-73685357D01*
X142145535Y-73685357D01*
X142031250Y-73742500D01*
X141974107Y-73856785D01*
X141974107Y-74485357D01*
X141402678Y-74485357D02*
X141402678Y-73685357D01*
X141402678Y-73285357D02*
X141459821Y-73342500D01*
X141402678Y-73399642D01*
X141345535Y-73342500D01*
X141402678Y-73285357D01*
X141402678Y-73399642D01*
X140945535Y-73685357D02*
X140659821Y-74485357D01*
X140374107Y-73685357D01*
X139459821Y-74428214D02*
X139574107Y-74485357D01*
X139802678Y-74485357D01*
X139916964Y-74428214D01*
X139974107Y-74313928D01*
X139974107Y-73856785D01*
X139916964Y-73742500D01*
X139802678Y-73685357D01*
X139574107Y-73685357D01*
X139459821Y-73742500D01*
X139402678Y-73856785D01*
X139402678Y-73971071D01*
X139974107Y-74085357D01*
X138888392Y-74485357D02*
X138888392Y-73685357D01*
X138888392Y-73913928D02*
X138831250Y-73799642D01*
X138774107Y-73742500D01*
X138659821Y-73685357D01*
X138545535Y-73685357D01*
X138202678Y-74428214D02*
X138088392Y-74485357D01*
X137859821Y-74485357D01*
X137745535Y-74428214D01*
X137688392Y-74313928D01*
X137688392Y-74256785D01*
X137745535Y-74142500D01*
X137859821Y-74085357D01*
X138031250Y-74085357D01*
X138145535Y-74028214D01*
X138202678Y-73913928D01*
X138202678Y-73856785D01*
X138145535Y-73742500D01*
X138031250Y-73685357D01*
X137859821Y-73685357D01*
X137745535Y-73742500D01*
X136659821Y-74485357D02*
X136659821Y-73856785D01*
X136716964Y-73742500D01*
X136831250Y-73685357D01*
X137059821Y-73685357D01*
X137174107Y-73742500D01*
X136659821Y-74428214D02*
X136774107Y-74485357D01*
X137059821Y-74485357D01*
X137174107Y-74428214D01*
X137231250Y-74313928D01*
X137231250Y-74199642D01*
X137174107Y-74085357D01*
X137059821Y-74028214D01*
X136774107Y-74028214D01*
X136659821Y-73971071D01*
X135916964Y-74485357D02*
X136031250Y-74428214D01*
X136088392Y-74313928D01*
X136088392Y-73285357D01*
X134145535Y-73856785D02*
X133974107Y-73913928D01*
X133916964Y-73971071D01*
X133859821Y-74085357D01*
X133859821Y-74256785D01*
X133916964Y-74371071D01*
X133974107Y-74428214D01*
X134088392Y-74485357D01*
X134545535Y-74485357D01*
X134545535Y-73285357D01*
X134145535Y-73285357D01*
X134031250Y-73342500D01*
X133974107Y-73399642D01*
X133916964Y-73513928D01*
X133916964Y-73628214D01*
X133974107Y-73742500D01*
X134031250Y-73799642D01*
X134145535Y-73856785D01*
X134545535Y-73856785D01*
X133345535Y-74485357D02*
X133345535Y-73285357D01*
X132545535Y-73285357D02*
X132316964Y-73285357D01*
X132202678Y-73342500D01*
X132088392Y-73456785D01*
X132031250Y-73685357D01*
X132031250Y-74085357D01*
X132088392Y-74313928D01*
X132202678Y-74428214D01*
X132316964Y-74485357D01*
X132545535Y-74485357D01*
X132659821Y-74428214D01*
X132774107Y-74313928D01*
X132831250Y-74085357D01*
X132831250Y-73685357D01*
X132774107Y-73456785D01*
X132659821Y-73342500D01*
X132545535Y-73285357D01*
X131574107Y-74428214D02*
X131402678Y-74485357D01*
X131116964Y-74485357D01*
X131002678Y-74428214D01*
X130945535Y-74371071D01*
X130888392Y-74256785D01*
X130888392Y-74142500D01*
X130945535Y-74028214D01*
X131002678Y-73971071D01*
X131116964Y-73913928D01*
X131345535Y-73856785D01*
X131459821Y-73799642D01*
X131516964Y-73742500D01*
X131574107Y-73628214D01*
X131574107Y-73513928D01*
X131516964Y-73399642D01*
X131459821Y-73342500D01*
X131345535Y-73285357D01*
X131059821Y-73285357D01*
X130888392Y-73342500D01*
X130374107Y-74371071D02*
X130316964Y-74428214D01*
X130374107Y-74485357D01*
X130431250Y-74428214D01*
X130374107Y-74371071D01*
X130374107Y-74485357D01*
X128945535Y-74142500D02*
X128374107Y-74142500D01*
X129059821Y-74485357D02*
X128659821Y-73285357D01*
X128259821Y-74485357D01*
X127345535Y-74485357D02*
X127345535Y-73285357D01*
X127345535Y-74428214D02*
X127459821Y-74485357D01*
X127688392Y-74485357D01*
X127802678Y-74428214D01*
X127859821Y-74371071D01*
X127916964Y-74256785D01*
X127916964Y-73913928D01*
X127859821Y-73799642D01*
X127802678Y-73742500D01*
X127688392Y-73685357D01*
X127459821Y-73685357D01*
X127345535Y-73742500D01*
X126259821Y-74485357D02*
X126259821Y-73285357D01*
X126259821Y-74428214D02*
X126374107Y-74485357D01*
X126602678Y-74485357D01*
X126716964Y-74428214D01*
X126774107Y-74371071D01*
X126831250Y-74256785D01*
X126831250Y-73913928D01*
X126774107Y-73799642D01*
X126716964Y-73742500D01*
X126602678Y-73685357D01*
X126374107Y-73685357D01*
X126259821Y-73742500D01*
X125688392Y-74485357D02*
X125688392Y-73685357D01*
X125688392Y-73285357D02*
X125745535Y-73342500D01*
X125688392Y-73399642D01*
X125631250Y-73342500D01*
X125688392Y-73285357D01*
X125688392Y-73399642D01*
X125288392Y-73685357D02*
X124831250Y-73685357D01*
X125116964Y-73285357D02*
X125116964Y-74313928D01*
X125059821Y-74428214D01*
X124945535Y-74485357D01*
X124831250Y-74485357D01*
X124431250Y-74485357D02*
X124431250Y-73685357D01*
X124431250Y-73285357D02*
X124488392Y-73342500D01*
X124431250Y-73399642D01*
X124374107Y-73342500D01*
X124431250Y-73285357D01*
X124431250Y-73399642D01*
X123688392Y-74485357D02*
X123802678Y-74428214D01*
X123859821Y-74371071D01*
X123916964Y-74256785D01*
X123916964Y-73913928D01*
X123859821Y-73799642D01*
X123802678Y-73742500D01*
X123688392Y-73685357D01*
X123516964Y-73685357D01*
X123402678Y-73742500D01*
X123345535Y-73799642D01*
X123288392Y-73913928D01*
X123288392Y-74256785D01*
X123345535Y-74371071D01*
X123402678Y-74428214D01*
X123516964Y-74485357D01*
X123688392Y-74485357D01*
X122774107Y-73685357D02*
X122774107Y-74485357D01*
X122774107Y-73799642D02*
X122716964Y-73742500D01*
X122602678Y-73685357D01*
X122431250Y-73685357D01*
X122316964Y-73742500D01*
X122259821Y-73856785D01*
X122259821Y-74485357D01*
X121174107Y-74485357D02*
X121174107Y-73856785D01*
X121231250Y-73742500D01*
X121345535Y-73685357D01*
X121574107Y-73685357D01*
X121688392Y-73742500D01*
X121174107Y-74428214D02*
X121288392Y-74485357D01*
X121574107Y-74485357D01*
X121688392Y-74428214D01*
X121745535Y-74313928D01*
X121745535Y-74199642D01*
X121688392Y-74085357D01*
X121574107Y-74028214D01*
X121288392Y-74028214D01*
X121174107Y-73971071D01*
X120431250Y-74485357D02*
X120545535Y-74428214D01*
X120602678Y-74313928D01*
X120602678Y-73285357D01*
X119231250Y-73685357D02*
X118774107Y-73685357D01*
X119059821Y-73285357D02*
X119059821Y-74313928D01*
X119002678Y-74428214D01*
X118888392Y-74485357D01*
X118774107Y-74485357D01*
X118374107Y-74485357D02*
X118374107Y-73285357D01*
X117859821Y-74485357D02*
X117859821Y-73856785D01*
X117916964Y-73742500D01*
X118031250Y-73685357D01*
X118202678Y-73685357D01*
X118316964Y-73742500D01*
X118374107Y-73799642D01*
X116774107Y-74485357D02*
X116774107Y-73856785D01*
X116831250Y-73742500D01*
X116945535Y-73685357D01*
X117174107Y-73685357D01*
X117288392Y-73742500D01*
X116774107Y-74428214D02*
X116888392Y-74485357D01*
X117174107Y-74485357D01*
X117288392Y-74428214D01*
X117345535Y-74313928D01*
X117345535Y-74199642D01*
X117288392Y-74085357D01*
X117174107Y-74028214D01*
X116888392Y-74028214D01*
X116774107Y-73971071D01*
X116202678Y-73685357D02*
X116202678Y-74485357D01*
X116202678Y-73799642D02*
X116145535Y-73742500D01*
X116031250Y-73685357D01*
X115859821Y-73685357D01*
X115745535Y-73742500D01*
X115688392Y-73856785D01*
X115688392Y-74485357D01*
X115116964Y-74485357D02*
X115116964Y-73285357D01*
X115002678Y-74028214D02*
X114659821Y-74485357D01*
X114659821Y-73685357D02*
X115116964Y-74142500D01*
X114202678Y-74428214D02*
X114088392Y-74485357D01*
X113859821Y-74485357D01*
X113745535Y-74428214D01*
X113688392Y-74313928D01*
X113688392Y-74256785D01*
X113745535Y-74142500D01*
X113859821Y-74085357D01*
X114031250Y-74085357D01*
X114145535Y-74028214D01*
X114202678Y-73913928D01*
X114202678Y-73856785D01*
X114145535Y-73742500D01*
X114031250Y-73685357D01*
X113859821Y-73685357D01*
X113745535Y-73742500D01*
X112431250Y-73685357D02*
X111974107Y-73685357D01*
X112259821Y-73285357D02*
X112259821Y-74313928D01*
X112202678Y-74428214D01*
X112088392Y-74485357D01*
X111974107Y-74485357D01*
X111402678Y-74485357D02*
X111516964Y-74428214D01*
X111574107Y-74371071D01*
X111631250Y-74256785D01*
X111631250Y-73913928D01*
X111574107Y-73799642D01*
X111516964Y-73742500D01*
X111402678Y-73685357D01*
X111231250Y-73685357D01*
X111116964Y-73742500D01*
X111059821Y-73799642D01*
X111002678Y-73913928D01*
X111002678Y-74256785D01*
X111059821Y-74371071D01*
X111116964Y-74428214D01*
X111231250Y-74485357D01*
X111402678Y-74485357D01*
X108888392Y-74485357D02*
X109288392Y-73913928D01*
X109574107Y-74485357D02*
X109574107Y-73285357D01*
X109116964Y-73285357D01*
X109002678Y-73342500D01*
X108945535Y-73399642D01*
X108888392Y-73513928D01*
X108888392Y-73685357D01*
X108945535Y-73799642D01*
X109002678Y-73856785D01*
X109116964Y-73913928D01*
X109574107Y-73913928D01*
X108202678Y-74485357D02*
X108316964Y-74428214D01*
X108374107Y-74371071D01*
X108431250Y-74256785D01*
X108431250Y-73913928D01*
X108374107Y-73799642D01*
X108316964Y-73742500D01*
X108202678Y-73685357D01*
X108031250Y-73685357D01*
X107916964Y-73742500D01*
X107859821Y-73799642D01*
X107802678Y-73913928D01*
X107802678Y-74256785D01*
X107859821Y-74371071D01*
X107916964Y-74428214D01*
X108031250Y-74485357D01*
X108202678Y-74485357D01*
X107288392Y-74485357D02*
X107288392Y-73285357D01*
X107288392Y-73742500D02*
X107174107Y-73685357D01*
X106945535Y-73685357D01*
X106831250Y-73742500D01*
X106774107Y-73799642D01*
X106716964Y-73913928D01*
X106716964Y-74256785D01*
X106774107Y-74371071D01*
X106831250Y-74428214D01*
X106945535Y-74485357D01*
X107174107Y-74485357D01*
X107288392Y-74428214D01*
X143745535Y-76460357D02*
X143745535Y-75260357D01*
X143059821Y-76460357D02*
X143574107Y-75774642D01*
X143059821Y-75260357D02*
X143745535Y-75946071D01*
X142545535Y-76460357D02*
X142545535Y-75660357D01*
X142545535Y-75888928D02*
X142488392Y-75774642D01*
X142431250Y-75717500D01*
X142316964Y-75660357D01*
X142202678Y-75660357D01*
X141345535Y-76403214D02*
X141459821Y-76460357D01*
X141688392Y-76460357D01*
X141802678Y-76403214D01*
X141859821Y-76288928D01*
X141859821Y-75831785D01*
X141802678Y-75717500D01*
X141688392Y-75660357D01*
X141459821Y-75660357D01*
X141345535Y-75717500D01*
X141288392Y-75831785D01*
X141288392Y-75946071D01*
X141859821Y-76060357D01*
X140774107Y-75660357D02*
X140774107Y-76460357D01*
X140774107Y-75774642D02*
X140716964Y-75717500D01*
X140602678Y-75660357D01*
X140431250Y-75660357D01*
X140316964Y-75717500D01*
X140259821Y-75831785D01*
X140259821Y-76460357D01*
X139688392Y-76460357D02*
X139688392Y-75660357D01*
X139688392Y-75260357D02*
X139745535Y-75317500D01*
X139688392Y-75374642D01*
X139631250Y-75317500D01*
X139688392Y-75260357D01*
X139688392Y-75374642D01*
X138602678Y-76403214D02*
X138716964Y-76460357D01*
X138945535Y-76460357D01*
X139059821Y-76403214D01*
X139116964Y-76346071D01*
X139174107Y-76231785D01*
X139174107Y-75888928D01*
X139116964Y-75774642D01*
X139059821Y-75717500D01*
X138945535Y-75660357D01*
X138716964Y-75660357D01*
X138602678Y-75717500D01*
X138088392Y-76460357D02*
X138088392Y-75260357D01*
X137974107Y-76003214D02*
X137631250Y-76460357D01*
X137631250Y-75660357D02*
X138088392Y-76117500D01*
X137116964Y-76460357D02*
X137116964Y-75660357D01*
X137116964Y-75260357D02*
X137174107Y-75317500D01*
X137116964Y-75374642D01*
X137059821Y-75317500D01*
X137116964Y-75260357D01*
X137116964Y-75374642D01*
X136488392Y-76403214D02*
X136488392Y-76460357D01*
X136545535Y-76574642D01*
X136602678Y-76631785D01*
X134716964Y-75260357D02*
X134716964Y-76117500D01*
X134774107Y-76288928D01*
X134888392Y-76403214D01*
X135059821Y-76460357D01*
X135174107Y-76460357D01*
X133631250Y-76460357D02*
X133631250Y-75831785D01*
X133688392Y-75717500D01*
X133802678Y-75660357D01*
X134031250Y-75660357D01*
X134145535Y-75717500D01*
X133631250Y-76403214D02*
X133745535Y-76460357D01*
X134031250Y-76460357D01*
X134145535Y-76403214D01*
X134202678Y-76288928D01*
X134202678Y-76174642D01*
X134145535Y-76060357D01*
X134031250Y-76003214D01*
X133745535Y-76003214D01*
X133631250Y-75946071D01*
X132545535Y-76403214D02*
X132659821Y-76460357D01*
X132888392Y-76460357D01*
X133002678Y-76403214D01*
X133059821Y-76346071D01*
X133116964Y-76231785D01*
X133116964Y-75888928D01*
X133059821Y-75774642D01*
X133002678Y-75717500D01*
X132888392Y-75660357D01*
X132659821Y-75660357D01*
X132545535Y-75717500D01*
X131859821Y-76460357D02*
X131974107Y-76403214D01*
X132031250Y-76346071D01*
X132088392Y-76231785D01*
X132088392Y-75888928D01*
X132031250Y-75774642D01*
X131974107Y-75717500D01*
X131859821Y-75660357D01*
X131688392Y-75660357D01*
X131574107Y-75717500D01*
X131516964Y-75774642D01*
X131459821Y-75888928D01*
X131459821Y-76231785D01*
X131516964Y-76346071D01*
X131574107Y-76403214D01*
X131688392Y-76460357D01*
X131859821Y-76460357D01*
X130945535Y-76460357D02*
X130945535Y-75260357D01*
X130945535Y-75717500D02*
X130831250Y-75660357D01*
X130602678Y-75660357D01*
X130488392Y-75717500D01*
X130431250Y-75774642D01*
X130374107Y-75888928D01*
X130374107Y-76231785D01*
X130431250Y-76346071D01*
X130488392Y-76403214D01*
X130602678Y-76460357D01*
X130831250Y-76460357D01*
X130945535Y-76403214D01*
X128945535Y-76460357D02*
X128945535Y-75260357D01*
X128659821Y-75260357D01*
X128488392Y-75317500D01*
X128374107Y-75431785D01*
X128316964Y-75546071D01*
X128259821Y-75774642D01*
X128259821Y-75946071D01*
X128316964Y-76174642D01*
X128374107Y-76288928D01*
X128488392Y-76403214D01*
X128659821Y-76460357D01*
X128945535Y-76460357D01*
X127574107Y-76460357D02*
X127688392Y-76403214D01*
X127745535Y-76346071D01*
X127802678Y-76231785D01*
X127802678Y-75888928D01*
X127745535Y-75774642D01*
X127688392Y-75717500D01*
X127574107Y-75660357D01*
X127402678Y-75660357D01*
X127288392Y-75717500D01*
X127231250Y-75774642D01*
X127174107Y-75888928D01*
X127174107Y-76231785D01*
X127231250Y-76346071D01*
X127288392Y-76403214D01*
X127402678Y-76460357D01*
X127574107Y-76460357D01*
X126659821Y-76460357D02*
X126659821Y-75660357D01*
X126659821Y-75888928D02*
X126602678Y-75774642D01*
X126545535Y-75717500D01*
X126431250Y-75660357D01*
X126316964Y-75660357D01*
X125916964Y-75660357D02*
X125916964Y-76460357D01*
X125916964Y-75774642D02*
X125859821Y-75717500D01*
X125745535Y-75660357D01*
X125574107Y-75660357D01*
X125459821Y-75717500D01*
X125402678Y-75831785D01*
X125402678Y-76460357D01*
X124374107Y-76403214D02*
X124488392Y-76460357D01*
X124716964Y-76460357D01*
X124831250Y-76403214D01*
X124888392Y-76288928D01*
X124888392Y-75831785D01*
X124831250Y-75717500D01*
X124716964Y-75660357D01*
X124488392Y-75660357D01*
X124374107Y-75717500D01*
X124316964Y-75831785D01*
X124316964Y-75946071D01*
X124888392Y-76060357D01*
X122945535Y-75203214D02*
X123974107Y-76746071D01*
X122545535Y-76460357D02*
X122545535Y-75260357D01*
X122145535Y-76117500D01*
X121745535Y-75260357D01*
X121745535Y-76460357D01*
X121002678Y-76460357D02*
X121116964Y-76403214D01*
X121174107Y-76346071D01*
X121231250Y-76231785D01*
X121231250Y-75888928D01*
X121174107Y-75774642D01*
X121116964Y-75717500D01*
X121002678Y-75660357D01*
X120831250Y-75660357D01*
X120716964Y-75717500D01*
X120659821Y-75774642D01*
X120602678Y-75888928D01*
X120602678Y-76231785D01*
X120659821Y-76346071D01*
X120716964Y-76403214D01*
X120831250Y-76460357D01*
X121002678Y-76460357D01*
X120088392Y-75660357D02*
X120088392Y-76460357D01*
X120088392Y-75774642D02*
X120031250Y-75717500D01*
X119916964Y-75660357D01*
X119745535Y-75660357D01*
X119631250Y-75717500D01*
X119574107Y-75831785D01*
X119574107Y-76460357D01*
X118831250Y-76460357D02*
X118945535Y-76403214D01*
X119002678Y-76346071D01*
X119059821Y-76231785D01*
X119059821Y-75888928D01*
X119002678Y-75774642D01*
X118945535Y-75717500D01*
X118831250Y-75660357D01*
X118659821Y-75660357D01*
X118545535Y-75717500D01*
X118488392Y-75774642D01*
X118431250Y-75888928D01*
X118431250Y-76231785D01*
X118488392Y-76346071D01*
X118545535Y-76403214D01*
X118659821Y-76460357D01*
X118831250Y-76460357D01*
X118088392Y-75660357D02*
X117631250Y-75660357D01*
X117916964Y-75260357D02*
X117916964Y-76288928D01*
X117859821Y-76403214D01*
X117745535Y-76460357D01*
X117631250Y-76460357D01*
X116774107Y-76403214D02*
X116888392Y-76460357D01*
X117116964Y-76460357D01*
X117231250Y-76403214D01*
X117288392Y-76288928D01*
X117288392Y-75831785D01*
X117231250Y-75717500D01*
X117116964Y-75660357D01*
X116888392Y-75660357D01*
X116774107Y-75717500D01*
X116716964Y-75831785D01*
X116716964Y-75946071D01*
X117288392Y-76060357D01*
X115688392Y-76403214D02*
X115802678Y-76460357D01*
X116031250Y-76460357D01*
X116145535Y-76403214D01*
X116202678Y-76346071D01*
X116259821Y-76231785D01*
X116259821Y-75888928D01*
X116202678Y-75774642D01*
X116145535Y-75717500D01*
X116031250Y-75660357D01*
X115802678Y-75660357D01*
X115688392Y-75717500D01*
X115174107Y-76460357D02*
X115174107Y-75260357D01*
X114659821Y-76460357D02*
X114659821Y-75831785D01*
X114716964Y-75717500D01*
X114831250Y-75660357D01*
X115002678Y-75660357D01*
X115116964Y-75717500D01*
X115174107Y-75774642D01*
X113174107Y-76460357D02*
X113174107Y-75260357D01*
X112716964Y-75260357D01*
X112602678Y-75317500D01*
X112545535Y-75374642D01*
X112488392Y-75488928D01*
X112488392Y-75660357D01*
X112545535Y-75774642D01*
X112602678Y-75831785D01*
X112716964Y-75888928D01*
X113174107Y-75888928D01*
X111288392Y-76346071D02*
X111345535Y-76403214D01*
X111516964Y-76460357D01*
X111631250Y-76460357D01*
X111802678Y-76403214D01*
X111916964Y-76288928D01*
X111974107Y-76174642D01*
X112031250Y-75946071D01*
X112031250Y-75774642D01*
X111974107Y-75546071D01*
X111916964Y-75431785D01*
X111802678Y-75317500D01*
X111631250Y-75260357D01*
X111516964Y-75260357D01*
X111345535Y-75317500D01*
X111288392Y-75374642D01*
X110831250Y-76403214D02*
X110716964Y-76460357D01*
X110488392Y-76460357D01*
X110374107Y-76403214D01*
X110316964Y-76288928D01*
X110316964Y-76231785D01*
X110374107Y-76117500D01*
X110488392Y-76060357D01*
X110659821Y-76060357D01*
X110774107Y-76003214D01*
X110831250Y-75888928D01*
X110831250Y-75831785D01*
X110774107Y-75717500D01*
X110659821Y-75660357D01*
X110488392Y-75660357D01*
X110374107Y-75717500D01*
X143231250Y-78435357D02*
X143231250Y-77806785D01*
X143288392Y-77692500D01*
X143402678Y-77635357D01*
X143631250Y-77635357D01*
X143745535Y-77692500D01*
X143231250Y-78378214D02*
X143345535Y-78435357D01*
X143631250Y-78435357D01*
X143745535Y-78378214D01*
X143802678Y-78263928D01*
X143802678Y-78149642D01*
X143745535Y-78035357D01*
X143631250Y-77978214D01*
X143345535Y-77978214D01*
X143231250Y-77921071D01*
X142659821Y-77635357D02*
X142659821Y-78435357D01*
X142659821Y-77749642D02*
X142602678Y-77692500D01*
X142488392Y-77635357D01*
X142316964Y-77635357D01*
X142202678Y-77692500D01*
X142145535Y-77806785D01*
X142145535Y-78435357D01*
X141059821Y-78435357D02*
X141059821Y-77235357D01*
X141059821Y-78378214D02*
X141174107Y-78435357D01*
X141402678Y-78435357D01*
X141516964Y-78378214D01*
X141574107Y-78321071D01*
X141631250Y-78206785D01*
X141631250Y-77863928D01*
X141574107Y-77749642D01*
X141516964Y-77692500D01*
X141402678Y-77635357D01*
X141174107Y-77635357D01*
X141059821Y-77692500D01*
X139231250Y-77235357D02*
X139231250Y-78092500D01*
X139288392Y-78263928D01*
X139402678Y-78378214D01*
X139574107Y-78435357D01*
X139688392Y-78435357D01*
X138145535Y-78435357D02*
X138145535Y-77806785D01*
X138202678Y-77692500D01*
X138316964Y-77635357D01*
X138545535Y-77635357D01*
X138659821Y-77692500D01*
X138145535Y-78378214D02*
X138259821Y-78435357D01*
X138545535Y-78435357D01*
X138659821Y-78378214D01*
X138716964Y-78263928D01*
X138716964Y-78149642D01*
X138659821Y-78035357D01*
X138545535Y-77978214D01*
X138259821Y-77978214D01*
X138145535Y-77921071D01*
X137574107Y-78435357D02*
X137574107Y-77635357D01*
X137574107Y-77749642D02*
X137516964Y-77692500D01*
X137402678Y-77635357D01*
X137231250Y-77635357D01*
X137116964Y-77692500D01*
X137059821Y-77806785D01*
X137059821Y-78435357D01*
X137059821Y-77806785D02*
X137002678Y-77692500D01*
X136888392Y-77635357D01*
X136716964Y-77635357D01*
X136602678Y-77692500D01*
X136545535Y-77806785D01*
X136545535Y-78435357D01*
X135516964Y-78378214D02*
X135631250Y-78435357D01*
X135859821Y-78435357D01*
X135974107Y-78378214D01*
X136031250Y-78263928D01*
X136031250Y-77806785D01*
X135974107Y-77692500D01*
X135859821Y-77635357D01*
X135631250Y-77635357D01*
X135516964Y-77692500D01*
X135459821Y-77806785D01*
X135459821Y-77921071D01*
X136031250Y-78035357D01*
X135002678Y-78378214D02*
X134888392Y-78435357D01*
X134659821Y-78435357D01*
X134545535Y-78378214D01*
X134488392Y-78263928D01*
X134488392Y-78206785D01*
X134545535Y-78092500D01*
X134659821Y-78035357D01*
X134831250Y-78035357D01*
X134945535Y-77978214D01*
X135002678Y-77863928D01*
X135002678Y-77806785D01*
X134945535Y-77692500D01*
X134831250Y-77635357D01*
X134659821Y-77635357D01*
X134545535Y-77692500D01*
X133059821Y-78435357D02*
X133059821Y-77235357D01*
X132602678Y-77235357D01*
X132488392Y-77292500D01*
X132431250Y-77349642D01*
X132374107Y-77463928D01*
X132374107Y-77635357D01*
X132431250Y-77749642D01*
X132488392Y-77806785D01*
X132602678Y-77863928D01*
X133059821Y-77863928D01*
X131402678Y-78378214D02*
X131516964Y-78435357D01*
X131745535Y-78435357D01*
X131859821Y-78378214D01*
X131916964Y-78263928D01*
X131916964Y-77806785D01*
X131859821Y-77692500D01*
X131745535Y-77635357D01*
X131516964Y-77635357D01*
X131402678Y-77692500D01*
X131345535Y-77806785D01*
X131345535Y-77921071D01*
X131916964Y-78035357D01*
X130316964Y-78435357D02*
X130316964Y-77806785D01*
X130374107Y-77692500D01*
X130488392Y-77635357D01*
X130716964Y-77635357D01*
X130831250Y-77692500D01*
X130316964Y-78378214D02*
X130431250Y-78435357D01*
X130716964Y-78435357D01*
X130831250Y-78378214D01*
X130888392Y-78263928D01*
X130888392Y-78149642D01*
X130831250Y-78035357D01*
X130716964Y-77978214D01*
X130431250Y-77978214D01*
X130316964Y-77921071D01*
X129745535Y-78435357D02*
X129745535Y-77635357D01*
X129745535Y-77863928D02*
X129688392Y-77749642D01*
X129631250Y-77692500D01*
X129516964Y-77635357D01*
X129402678Y-77635357D01*
X128488392Y-78378214D02*
X128602678Y-78435357D01*
X128831250Y-78435357D01*
X128945535Y-78378214D01*
X129002678Y-78321071D01*
X129059821Y-78206785D01*
X129059821Y-77863928D01*
X129002678Y-77749642D01*
X128945535Y-77692500D01*
X128831250Y-77635357D01*
X128602678Y-77635357D01*
X128488392Y-77692500D01*
X127516964Y-78378214D02*
X127631250Y-78435357D01*
X127859821Y-78435357D01*
X127974107Y-78378214D01*
X128031250Y-78263928D01*
X128031250Y-77806785D01*
X127974107Y-77692500D01*
X127859821Y-77635357D01*
X127631250Y-77635357D01*
X127516964Y-77692500D01*
X127459821Y-77806785D01*
X127459821Y-77921071D01*
X128031250Y-78035357D01*
X126088392Y-77178214D02*
X127116964Y-78721071D01*
X125116964Y-78435357D02*
X125688392Y-78435357D01*
X125688392Y-77235357D01*
X124545535Y-78435357D02*
X124659821Y-78378214D01*
X124716964Y-78321071D01*
X124774107Y-78206785D01*
X124774107Y-77863928D01*
X124716964Y-77749642D01*
X124659821Y-77692500D01*
X124545535Y-77635357D01*
X124374107Y-77635357D01*
X124259821Y-77692500D01*
X124202678Y-77749642D01*
X124145535Y-77863928D01*
X124145535Y-78206785D01*
X124202678Y-78321071D01*
X124259821Y-78378214D01*
X124374107Y-78435357D01*
X124545535Y-78435357D01*
X123631250Y-77978214D02*
X122716964Y-77978214D01*
X122316964Y-77635357D02*
X121859821Y-77635357D01*
X122145535Y-77235357D02*
X122145535Y-78263928D01*
X122088392Y-78378214D01*
X121974107Y-78435357D01*
X121859821Y-78435357D01*
X121002678Y-78378214D02*
X121116964Y-78435357D01*
X121345535Y-78435357D01*
X121459821Y-78378214D01*
X121516964Y-78263928D01*
X121516964Y-77806785D01*
X121459821Y-77692500D01*
X121345535Y-77635357D01*
X121116964Y-77635357D01*
X121002678Y-77692500D01*
X120945535Y-77806785D01*
X120945535Y-77921071D01*
X121516964Y-78035357D01*
X119916964Y-78378214D02*
X120031250Y-78435357D01*
X120259821Y-78435357D01*
X120374107Y-78378214D01*
X120431250Y-78321071D01*
X120488392Y-78206785D01*
X120488392Y-77863928D01*
X120431250Y-77749642D01*
X120374107Y-77692500D01*
X120259821Y-77635357D01*
X120031250Y-77635357D01*
X119916964Y-77692500D01*
X119402678Y-78435357D02*
X119402678Y-77235357D01*
X118888392Y-78435357D02*
X118888392Y-77806785D01*
X118945535Y-77692500D01*
X119059821Y-77635357D01*
X119231250Y-77635357D01*
X119345535Y-77692500D01*
X119402678Y-77749642D01*
X117574107Y-77635357D02*
X117116964Y-77635357D01*
X117402678Y-78435357D02*
X117402678Y-77406785D01*
X117345535Y-77292500D01*
X117231250Y-77235357D01*
X117116964Y-77235357D01*
X116545535Y-78435357D02*
X116659821Y-78378214D01*
X116716964Y-78321071D01*
X116774107Y-78206785D01*
X116774107Y-77863928D01*
X116716964Y-77749642D01*
X116659821Y-77692500D01*
X116545535Y-77635357D01*
X116374107Y-77635357D01*
X116259821Y-77692500D01*
X116202678Y-77749642D01*
X116145535Y-77863928D01*
X116145535Y-78206785D01*
X116202678Y-78321071D01*
X116259821Y-78378214D01*
X116374107Y-78435357D01*
X116545535Y-78435357D01*
X115631250Y-78435357D02*
X115631250Y-77635357D01*
X115631250Y-77863928D02*
X115574107Y-77749642D01*
X115516964Y-77692500D01*
X115402678Y-77635357D01*
X115288392Y-77635357D01*
X114145535Y-77635357D02*
X113688392Y-77635357D01*
X113974107Y-77235357D02*
X113974107Y-78263928D01*
X113916964Y-78378214D01*
X113802678Y-78435357D01*
X113688392Y-78435357D01*
X113288392Y-78435357D02*
X113288392Y-77235357D01*
X112774107Y-78435357D02*
X112774107Y-77806785D01*
X112831250Y-77692500D01*
X112945535Y-77635357D01*
X113116964Y-77635357D01*
X113231250Y-77692500D01*
X113288392Y-77749642D01*
X111745535Y-78378214D02*
X111859821Y-78435357D01*
X112088392Y-78435357D01*
X112202678Y-78378214D01*
X112259821Y-78263928D01*
X112259821Y-77806785D01*
X112202678Y-77692500D01*
X112088392Y-77635357D01*
X111859821Y-77635357D01*
X111745535Y-77692500D01*
X111688392Y-77806785D01*
X111688392Y-77921071D01*
X112259821Y-78035357D01*
X111174107Y-78435357D02*
X111174107Y-77635357D01*
X111174107Y-77235357D02*
X111231250Y-77292500D01*
X111174107Y-77349642D01*
X111116964Y-77292500D01*
X111174107Y-77235357D01*
X111174107Y-77349642D01*
X110602678Y-78435357D02*
X110602678Y-77635357D01*
X110602678Y-77863928D02*
X110545535Y-77749642D01*
X110488392Y-77692500D01*
X110374107Y-77635357D01*
X110259821Y-77635357D01*
X143745535Y-80410357D02*
X143745535Y-79610357D01*
X143745535Y-79210357D02*
X143802678Y-79267500D01*
X143745535Y-79324642D01*
X143688392Y-79267500D01*
X143745535Y-79210357D01*
X143745535Y-79324642D01*
X143174107Y-79610357D02*
X143174107Y-80410357D01*
X143174107Y-79724642D02*
X143116964Y-79667500D01*
X143002678Y-79610357D01*
X142831250Y-79610357D01*
X142716964Y-79667500D01*
X142659821Y-79781785D01*
X142659821Y-80410357D01*
X142259821Y-79610357D02*
X141802678Y-79610357D01*
X142088392Y-80410357D02*
X142088392Y-79381785D01*
X142031250Y-79267500D01*
X141916964Y-79210357D01*
X141802678Y-79210357D01*
X141231250Y-80410357D02*
X141345535Y-80353214D01*
X141402678Y-80238928D01*
X141402678Y-79210357D01*
X140259821Y-79610357D02*
X140259821Y-80410357D01*
X140774107Y-79610357D02*
X140774107Y-80238928D01*
X140716964Y-80353214D01*
X140602678Y-80410357D01*
X140431250Y-80410357D01*
X140316964Y-80353214D01*
X140259821Y-80296071D01*
X139231250Y-80353214D02*
X139345535Y-80410357D01*
X139574107Y-80410357D01*
X139688392Y-80353214D01*
X139745535Y-80238928D01*
X139745535Y-79781785D01*
X139688392Y-79667500D01*
X139574107Y-79610357D01*
X139345535Y-79610357D01*
X139231250Y-79667500D01*
X139174107Y-79781785D01*
X139174107Y-79896071D01*
X139745535Y-80010357D01*
X138659821Y-79610357D02*
X138659821Y-80410357D01*
X138659821Y-79724642D02*
X138602678Y-79667500D01*
X138488392Y-79610357D01*
X138316964Y-79610357D01*
X138202678Y-79667500D01*
X138145535Y-79781785D01*
X138145535Y-80410357D01*
X137059821Y-80353214D02*
X137174107Y-80410357D01*
X137402678Y-80410357D01*
X137516964Y-80353214D01*
X137574107Y-80296071D01*
X137631250Y-80181785D01*
X137631250Y-79838928D01*
X137574107Y-79724642D01*
X137516964Y-79667500D01*
X137402678Y-79610357D01*
X137174107Y-79610357D01*
X137059821Y-79667500D01*
X136545535Y-80410357D02*
X136545535Y-79610357D01*
X136545535Y-79210357D02*
X136602678Y-79267500D01*
X136545535Y-79324642D01*
X136488392Y-79267500D01*
X136545535Y-79210357D01*
X136545535Y-79324642D01*
X135974107Y-79610357D02*
X135974107Y-80410357D01*
X135974107Y-79724642D02*
X135916964Y-79667500D01*
X135802678Y-79610357D01*
X135631250Y-79610357D01*
X135516964Y-79667500D01*
X135459821Y-79781785D01*
X135459821Y-80410357D01*
X134374107Y-79610357D02*
X134374107Y-80581785D01*
X134431250Y-80696071D01*
X134488392Y-80753214D01*
X134602678Y-80810357D01*
X134774107Y-80810357D01*
X134888392Y-80753214D01*
X134374107Y-80353214D02*
X134488392Y-80410357D01*
X134716964Y-80410357D01*
X134831250Y-80353214D01*
X134888392Y-80296071D01*
X134945535Y-80181785D01*
X134945535Y-79838928D01*
X134888392Y-79724642D01*
X134831250Y-79667500D01*
X134716964Y-79610357D01*
X134488392Y-79610357D01*
X134374107Y-79667500D01*
X133002678Y-79610357D02*
X132774107Y-80410357D01*
X132545535Y-79838928D01*
X132316964Y-80410357D01*
X132088392Y-79610357D01*
X131459821Y-80410357D02*
X131574107Y-80353214D01*
X131631250Y-80296071D01*
X131688392Y-80181785D01*
X131688392Y-79838928D01*
X131631250Y-79724642D01*
X131574107Y-79667500D01*
X131459821Y-79610357D01*
X131288392Y-79610357D01*
X131174107Y-79667500D01*
X131116964Y-79724642D01*
X131059821Y-79838928D01*
X131059821Y-80181785D01*
X131116964Y-80296071D01*
X131174107Y-80353214D01*
X131288392Y-80410357D01*
X131459821Y-80410357D01*
X130545535Y-80410357D02*
X130545535Y-79610357D01*
X130545535Y-79838928D02*
X130488392Y-79724642D01*
X130431250Y-79667500D01*
X130316964Y-79610357D01*
X130202678Y-79610357D01*
X129802678Y-80410357D02*
X129802678Y-79210357D01*
X129688392Y-79953214D02*
X129345535Y-80410357D01*
X129345535Y-79610357D02*
X129802678Y-80067500D01*
X128888392Y-80353214D02*
X128774107Y-80410357D01*
X128545535Y-80410357D01*
X128431250Y-80353214D01*
X128374107Y-80238928D01*
X128374107Y-80181785D01*
X128431250Y-80067500D01*
X128545535Y-80010357D01*
X128716964Y-80010357D01*
X128831250Y-79953214D01*
X128888392Y-79838928D01*
X128888392Y-79781785D01*
X128831250Y-79667500D01*
X128716964Y-79610357D01*
X128545535Y-79610357D01*
X128431250Y-79667500D01*
X127859821Y-80296071D02*
X127802678Y-80353214D01*
X127859821Y-80410357D01*
X127916964Y-80353214D01*
X127859821Y-80296071D01*
X127859821Y-80410357D01*
D10*
X172720000Y-63500000D02*
X172720000Y-67310000D01*
X176530000Y-67310000D02*
X176530000Y-63500000D01*
X176530000Y-63500000D02*
X172720000Y-63500000D01*
X172720000Y-67310000D02*
X176530000Y-67310000D01*
X182245000Y-67310000D02*
X182245000Y-63500000D01*
X178435000Y-63500000D02*
X178435000Y-67310000D01*
X182245000Y-63500000D02*
X178435000Y-63500000D01*
X178435000Y-67310000D02*
X182245000Y-67310000D01*
X191135000Y-63500000D02*
X187325000Y-63500000D01*
X191135000Y-67310000D02*
X191135000Y-63500000D01*
X187325000Y-67310000D02*
X191135000Y-67310000D01*
X187325000Y-63500000D02*
X187325000Y-67310000D01*
X186053214Y-69940535D02*
X186124642Y-69869107D01*
X186196071Y-69654821D01*
X186196071Y-69511964D01*
X186124642Y-69297678D01*
X185981785Y-69154821D01*
X185838928Y-69083392D01*
X185553214Y-69011964D01*
X185338928Y-69011964D01*
X185053214Y-69083392D01*
X184910357Y-69154821D01*
X184767500Y-69297678D01*
X184696071Y-69511964D01*
X184696071Y-69654821D01*
X184767500Y-69869107D01*
X184838928Y-69940535D01*
X186196071Y-70797678D02*
X186124642Y-70654821D01*
X186053214Y-70583392D01*
X185910357Y-70511964D01*
X185481785Y-70511964D01*
X185338928Y-70583392D01*
X185267500Y-70654821D01*
X185196071Y-70797678D01*
X185196071Y-71011964D01*
X185267500Y-71154821D01*
X185338928Y-71226250D01*
X185481785Y-71297678D01*
X185910357Y-71297678D01*
X186053214Y-71226250D01*
X186124642Y-71154821D01*
X186196071Y-71011964D01*
X186196071Y-70797678D01*
X186196071Y-71940535D02*
X185196071Y-71940535D01*
X185338928Y-71940535D02*
X185267500Y-72011964D01*
X185196071Y-72154821D01*
X185196071Y-72369107D01*
X185267500Y-72511964D01*
X185410357Y-72583392D01*
X186196071Y-72583392D01*
X185410357Y-72583392D02*
X185267500Y-72654821D01*
X185196071Y-72797678D01*
X185196071Y-73011964D01*
X185267500Y-73154821D01*
X185410357Y-73226250D01*
X186196071Y-73226250D01*
X185196071Y-73940535D02*
X186696071Y-73940535D01*
X185267500Y-73940535D02*
X185196071Y-74083392D01*
X185196071Y-74369107D01*
X185267500Y-74511964D01*
X185338928Y-74583392D01*
X185481785Y-74654821D01*
X185910357Y-74654821D01*
X186053214Y-74583392D01*
X186124642Y-74511964D01*
X186196071Y-74369107D01*
X186196071Y-74083392D01*
X186124642Y-73940535D01*
X186196071Y-75940535D02*
X185410357Y-75940535D01*
X185267500Y-75869107D01*
X185196071Y-75726250D01*
X185196071Y-75440535D01*
X185267500Y-75297678D01*
X186124642Y-75940535D02*
X186196071Y-75797678D01*
X186196071Y-75440535D01*
X186124642Y-75297678D01*
X185981785Y-75226250D01*
X185838928Y-75226250D01*
X185696071Y-75297678D01*
X185624642Y-75440535D01*
X185624642Y-75797678D01*
X185553214Y-75940535D01*
X186124642Y-77297678D02*
X186196071Y-77154821D01*
X186196071Y-76869107D01*
X186124642Y-76726250D01*
X186053214Y-76654821D01*
X185910357Y-76583392D01*
X185481785Y-76583392D01*
X185338928Y-76654821D01*
X185267500Y-76726250D01*
X185196071Y-76869107D01*
X185196071Y-77154821D01*
X185267500Y-77297678D01*
X185196071Y-77726250D02*
X185196071Y-78297678D01*
X184696071Y-77940535D02*
X185981785Y-77940535D01*
X186124642Y-78011964D01*
X186196071Y-78154821D01*
X186196071Y-78297678D01*
X185410357Y-80440535D02*
X185410357Y-79940535D01*
X186196071Y-79940535D02*
X184696071Y-79940535D01*
X184696071Y-80654821D01*
X186196071Y-81440535D02*
X186124642Y-81297678D01*
X185981785Y-81226250D01*
X184696071Y-81226250D01*
X186196071Y-82654821D02*
X185410357Y-82654821D01*
X185267500Y-82583392D01*
X185196071Y-82440535D01*
X185196071Y-82154821D01*
X185267500Y-82011964D01*
X186124642Y-82654821D02*
X186196071Y-82511964D01*
X186196071Y-82154821D01*
X186124642Y-82011964D01*
X185981785Y-81940535D01*
X185838928Y-81940535D01*
X185696071Y-82011964D01*
X185624642Y-82154821D01*
X185624642Y-82511964D01*
X185553214Y-82654821D01*
X186124642Y-83297678D02*
X186196071Y-83440535D01*
X186196071Y-83726250D01*
X186124642Y-83869107D01*
X185981785Y-83940535D01*
X185910357Y-83940535D01*
X185767500Y-83869107D01*
X185696071Y-83726250D01*
X185696071Y-83511964D01*
X185624642Y-83369107D01*
X185481785Y-83297678D01*
X185410357Y-83297678D01*
X185267500Y-83369107D01*
X185196071Y-83511964D01*
X185196071Y-83726250D01*
X185267500Y-83869107D01*
X186196071Y-84583392D02*
X184696071Y-84583392D01*
X186196071Y-85226250D02*
X185410357Y-85226250D01*
X185267500Y-85154821D01*
X185196071Y-85011964D01*
X185196071Y-84797678D01*
X185267500Y-84654821D01*
X185338928Y-84583392D01*
X185196071Y-86940535D02*
X186196071Y-87226250D01*
X185481785Y-87511964D01*
X186196071Y-87797678D01*
X185196071Y-88083392D01*
X186196071Y-88654821D02*
X185196071Y-88654821D01*
X184696071Y-88654821D02*
X184767500Y-88583392D01*
X184838928Y-88654821D01*
X184767500Y-88726250D01*
X184696071Y-88654821D01*
X184838928Y-88654821D01*
X185196071Y-89154821D02*
X185196071Y-89726250D01*
X184696071Y-89369107D02*
X185981785Y-89369107D01*
X186124642Y-89440535D01*
X186196071Y-89583392D01*
X186196071Y-89726250D01*
X186196071Y-90226250D02*
X184696071Y-90226250D01*
X186196071Y-90869107D02*
X185410357Y-90869107D01*
X185267500Y-90797678D01*
X185196071Y-90654821D01*
X185196071Y-90440535D01*
X185267500Y-90297678D01*
X185338928Y-90226250D01*
X184696071Y-92583392D02*
X186196071Y-93583392D01*
X184696071Y-93583392D02*
X186196071Y-92583392D01*
X184696071Y-93940535D02*
X184696071Y-94797678D01*
X186196071Y-94369107D02*
X184696071Y-94369107D01*
X185624642Y-95297678D02*
X185624642Y-96440535D01*
X186196071Y-97154821D02*
X184696071Y-97154821D01*
X186196071Y-97869107D02*
X184696071Y-97869107D01*
X184696071Y-98226250D01*
X184767500Y-98440535D01*
X184910357Y-98583392D01*
X185053214Y-98654821D01*
X185338928Y-98726250D01*
X185553214Y-98726250D01*
X185838928Y-98654821D01*
X185981785Y-98583392D01*
X186124642Y-98440535D01*
X186196071Y-98226250D01*
X186196071Y-97869107D01*
X185410357Y-99369107D02*
X185410357Y-99869107D01*
X186196071Y-100083392D02*
X186196071Y-99369107D01*
X184696071Y-99369107D01*
X184696071Y-100083392D01*
X185410357Y-102369107D02*
X185481785Y-102583392D01*
X185553214Y-102654821D01*
X185696071Y-102726250D01*
X185910357Y-102726250D01*
X186053214Y-102654821D01*
X186124642Y-102583392D01*
X186196071Y-102440535D01*
X186196071Y-101869107D01*
X184696071Y-101869107D01*
X184696071Y-102369107D01*
X184767500Y-102511964D01*
X184838928Y-102583392D01*
X184981785Y-102654821D01*
X185124642Y-102654821D01*
X185267500Y-102583392D01*
X185338928Y-102511964D01*
X185410357Y-102369107D01*
X185410357Y-101869107D01*
X186196071Y-103369107D02*
X184696071Y-103369107D01*
X184696071Y-104369107D02*
X184696071Y-104654821D01*
X184767500Y-104797678D01*
X184910357Y-104940535D01*
X185196071Y-105011964D01*
X185696071Y-105011964D01*
X185981785Y-104940535D01*
X186124642Y-104797678D01*
X186196071Y-104654821D01*
X186196071Y-104369107D01*
X186124642Y-104226250D01*
X185981785Y-104083392D01*
X185696071Y-104011964D01*
X185196071Y-104011964D01*
X184910357Y-104083392D01*
X184767500Y-104226250D01*
X184696071Y-104369107D01*
X186124642Y-105583392D02*
X186196071Y-105797678D01*
X186196071Y-106154821D01*
X186124642Y-106297678D01*
X186053214Y-106369107D01*
X185910357Y-106440535D01*
X185767500Y-106440535D01*
X185624642Y-106369107D01*
X185553214Y-106297678D01*
X185481785Y-106154821D01*
X185410357Y-105869107D01*
X185338928Y-105726250D01*
X185267500Y-105654821D01*
X185124642Y-105583392D01*
X184981785Y-105583392D01*
X184838928Y-105654821D01*
X184767500Y-105726250D01*
X184696071Y-105869107D01*
X184696071Y-106226250D01*
X184767500Y-106440535D01*
X186124642Y-107154821D02*
X186196071Y-107154821D01*
X186338928Y-107083392D01*
X186410357Y-107011964D01*
X186124642Y-108869107D02*
X186196071Y-109083392D01*
X186196071Y-109440535D01*
X186124642Y-109583392D01*
X186053214Y-109654821D01*
X185910357Y-109726250D01*
X185767500Y-109726250D01*
X185624642Y-109654821D01*
X185553214Y-109583392D01*
X185481785Y-109440535D01*
X185410357Y-109154821D01*
X185338928Y-109011964D01*
X185267500Y-108940535D01*
X185124642Y-108869107D01*
X184981785Y-108869107D01*
X184838928Y-108940535D01*
X184767500Y-109011964D01*
X184696071Y-109154821D01*
X184696071Y-109511964D01*
X184767500Y-109726250D01*
X186196071Y-110369107D02*
X185196071Y-110369107D01*
X185338928Y-110369107D02*
X185267500Y-110440535D01*
X185196071Y-110583392D01*
X185196071Y-110797678D01*
X185267500Y-110940535D01*
X185410357Y-111011964D01*
X186196071Y-111011964D01*
X185410357Y-111011964D02*
X185267500Y-111083392D01*
X185196071Y-111226250D01*
X185196071Y-111440535D01*
X185267500Y-111583392D01*
X185410357Y-111654821D01*
X186196071Y-111654821D01*
X186196071Y-113011964D02*
X185410357Y-113011964D01*
X185267500Y-112940535D01*
X185196071Y-112797678D01*
X185196071Y-112511964D01*
X185267500Y-112369107D01*
X186124642Y-113011964D02*
X186196071Y-112869107D01*
X186196071Y-112511964D01*
X186124642Y-112369107D01*
X185981785Y-112297678D01*
X185838928Y-112297678D01*
X185696071Y-112369107D01*
X185624642Y-112511964D01*
X185624642Y-112869107D01*
X185553214Y-113011964D01*
X186196071Y-113726250D02*
X185196071Y-113726250D01*
X185481785Y-113726250D02*
X185338928Y-113797678D01*
X185267500Y-113869107D01*
X185196071Y-114011964D01*
X185196071Y-114154821D01*
X185196071Y-114440535D02*
X185196071Y-115011964D01*
X184696071Y-114654821D02*
X185981785Y-114654821D01*
X186124642Y-114726250D01*
X186196071Y-114869107D01*
X186196071Y-115011964D01*
X184696071Y-115369107D02*
X186196071Y-115726250D01*
X185124642Y-116011964D01*
X186196071Y-116297678D01*
X184696071Y-116654821D01*
X186196071Y-117869107D02*
X185410357Y-117869107D01*
X185267500Y-117797678D01*
X185196071Y-117654821D01*
X185196071Y-117369107D01*
X185267500Y-117226250D01*
X186124642Y-117869107D02*
X186196071Y-117726250D01*
X186196071Y-117369107D01*
X186124642Y-117226250D01*
X185981785Y-117154821D01*
X185838928Y-117154821D01*
X185696071Y-117226250D01*
X185624642Y-117369107D01*
X185624642Y-117726250D01*
X185553214Y-117869107D01*
X185196071Y-118369107D02*
X185196071Y-118940535D01*
X184696071Y-118583392D02*
X185981785Y-118583392D01*
X186124642Y-118654821D01*
X186196071Y-118797678D01*
X186196071Y-118940535D01*
X186124642Y-120083392D02*
X186196071Y-119940535D01*
X186196071Y-119654821D01*
X186124642Y-119511964D01*
X186053214Y-119440535D01*
X185910357Y-119369107D01*
X185481785Y-119369107D01*
X185338928Y-119440535D01*
X185267500Y-119511964D01*
X185196071Y-119654821D01*
X185196071Y-119940535D01*
X185267500Y-120083392D01*
X186196071Y-120726250D02*
X184696071Y-120726250D01*
X186196071Y-121369107D02*
X185410357Y-121369107D01*
X185267500Y-121297678D01*
X185196071Y-121154821D01*
X185196071Y-120940535D01*
X185267500Y-120797678D01*
X185338928Y-120726250D01*
X188671071Y-69726250D02*
X187885357Y-69726250D01*
X187742500Y-69654821D01*
X187671071Y-69511964D01*
X187671071Y-69226250D01*
X187742500Y-69083392D01*
X188599642Y-69726250D02*
X188671071Y-69583392D01*
X188671071Y-69226250D01*
X188599642Y-69083392D01*
X188456785Y-69011964D01*
X188313928Y-69011964D01*
X188171071Y-69083392D01*
X188099642Y-69226250D01*
X188099642Y-69583392D01*
X188028214Y-69726250D01*
X187671071Y-70440535D02*
X188671071Y-70440535D01*
X187813928Y-70440535D02*
X187742500Y-70511964D01*
X187671071Y-70654821D01*
X187671071Y-70869107D01*
X187742500Y-71011964D01*
X187885357Y-71083392D01*
X188671071Y-71083392D01*
X188671071Y-72440535D02*
X187171071Y-72440535D01*
X188599642Y-72440535D02*
X188671071Y-72297678D01*
X188671071Y-72011964D01*
X188599642Y-71869107D01*
X188528214Y-71797678D01*
X188385357Y-71726250D01*
X187956785Y-71726250D01*
X187813928Y-71797678D01*
X187742500Y-71869107D01*
X187671071Y-72011964D01*
X187671071Y-72297678D01*
X187742500Y-72440535D01*
X187171071Y-75011964D02*
X187171071Y-74297678D01*
X187885357Y-74226250D01*
X187813928Y-74297678D01*
X187742500Y-74440535D01*
X187742500Y-74797678D01*
X187813928Y-74940535D01*
X187885357Y-75011964D01*
X188028214Y-75083392D01*
X188385357Y-75083392D01*
X188528214Y-75011964D01*
X188599642Y-74940535D01*
X188671071Y-74797678D01*
X188671071Y-74440535D01*
X188599642Y-74297678D01*
X188528214Y-74226250D01*
X188671071Y-76511964D02*
X188671071Y-75654821D01*
X188671071Y-76083392D02*
X187171071Y-76083392D01*
X187385357Y-75940535D01*
X187528214Y-75797678D01*
X187599642Y-75654821D01*
X187313928Y-77083392D02*
X187242500Y-77154821D01*
X187171071Y-77297678D01*
X187171071Y-77654821D01*
X187242500Y-77797678D01*
X187313928Y-77869107D01*
X187456785Y-77940535D01*
X187599642Y-77940535D01*
X187813928Y-77869107D01*
X188671071Y-77011964D01*
X188671071Y-77940535D01*
X188671071Y-78583392D02*
X187171071Y-78583392D01*
X188671071Y-79440535D02*
X187813928Y-78797678D01*
X187171071Y-79440535D02*
X188028214Y-78583392D01*
X188599642Y-81154821D02*
X188671071Y-81369107D01*
X188671071Y-81726250D01*
X188599642Y-81869107D01*
X188528214Y-81940535D01*
X188385357Y-82011964D01*
X188242500Y-82011964D01*
X188099642Y-81940535D01*
X188028214Y-81869107D01*
X187956785Y-81726250D01*
X187885357Y-81440535D01*
X187813928Y-81297678D01*
X187742500Y-81226250D01*
X187599642Y-81154821D01*
X187456785Y-81154821D01*
X187313928Y-81226250D01*
X187242500Y-81297678D01*
X187171071Y-81440535D01*
X187171071Y-81797678D01*
X187242500Y-82011964D01*
X188671071Y-83511964D02*
X187956785Y-83011964D01*
X188671071Y-82654821D02*
X187171071Y-82654821D01*
X187171071Y-83226250D01*
X187242500Y-83369107D01*
X187313928Y-83440535D01*
X187456785Y-83511964D01*
X187671071Y-83511964D01*
X187813928Y-83440535D01*
X187885357Y-83369107D01*
X187956785Y-83226250D01*
X187956785Y-82654821D01*
X188242500Y-84083392D02*
X188242500Y-84797678D01*
X188671071Y-83940535D02*
X187171071Y-84440535D01*
X188671071Y-84940535D01*
X188671071Y-85440535D02*
X187171071Y-85440535D01*
X188242500Y-85940535D01*
X187171071Y-86440535D01*
X188671071Y-86440535D01*
X188528214Y-87154821D02*
X188599642Y-87226250D01*
X188671071Y-87154821D01*
X188599642Y-87083392D01*
X188528214Y-87154821D01*
X188671071Y-87154821D01*
X187885357Y-89511964D02*
X187885357Y-89011964D01*
X188671071Y-89011964D02*
X187171071Y-89011964D01*
X187171071Y-89726250D01*
X188671071Y-90511964D02*
X188599642Y-90369107D01*
X188528214Y-90297678D01*
X188385357Y-90226250D01*
X187956785Y-90226250D01*
X187813928Y-90297678D01*
X187742500Y-90369107D01*
X187671071Y-90511964D01*
X187671071Y-90726250D01*
X187742500Y-90869107D01*
X187813928Y-90940535D01*
X187956785Y-91011964D01*
X188385357Y-91011964D01*
X188528214Y-90940535D01*
X188599642Y-90869107D01*
X188671071Y-90726250D01*
X188671071Y-90511964D01*
X188671071Y-91654821D02*
X187671071Y-91654821D01*
X187956785Y-91654821D02*
X187813928Y-91726250D01*
X187742500Y-91797678D01*
X187671071Y-91940535D01*
X187671071Y-92083392D01*
X188671071Y-93940535D02*
X188599642Y-93797678D01*
X188528214Y-93726250D01*
X188385357Y-93654821D01*
X187956785Y-93654821D01*
X187813928Y-93726250D01*
X187742500Y-93797678D01*
X187671071Y-93940535D01*
X187671071Y-94154821D01*
X187742500Y-94297678D01*
X187813928Y-94369107D01*
X187956785Y-94440535D01*
X188385357Y-94440535D01*
X188528214Y-94369107D01*
X188599642Y-94297678D01*
X188671071Y-94154821D01*
X188671071Y-93940535D01*
X188671071Y-95083392D02*
X187671071Y-95083392D01*
X187956785Y-95083392D02*
X187813928Y-95154821D01*
X187742500Y-95226250D01*
X187671071Y-95369107D01*
X187671071Y-95511964D01*
X188671071Y-96011964D02*
X187671071Y-96011964D01*
X187171071Y-96011964D02*
X187242500Y-95940535D01*
X187313928Y-96011964D01*
X187242500Y-96083392D01*
X187171071Y-96011964D01*
X187313928Y-96011964D01*
X187671071Y-97369107D02*
X188885357Y-97369107D01*
X189028214Y-97297678D01*
X189099642Y-97226250D01*
X189171071Y-97083392D01*
X189171071Y-96869107D01*
X189099642Y-96726250D01*
X188599642Y-97369107D02*
X188671071Y-97226250D01*
X188671071Y-96940535D01*
X188599642Y-96797678D01*
X188528214Y-96726250D01*
X188385357Y-96654821D01*
X187956785Y-96654821D01*
X187813928Y-96726250D01*
X187742500Y-96797678D01*
X187671071Y-96940535D01*
X187671071Y-97226250D01*
X187742500Y-97369107D01*
X188671071Y-98083392D02*
X187671071Y-98083392D01*
X187171071Y-98083392D02*
X187242500Y-98011964D01*
X187313928Y-98083392D01*
X187242500Y-98154821D01*
X187171071Y-98083392D01*
X187313928Y-98083392D01*
X187671071Y-98797678D02*
X188671071Y-98797678D01*
X187813928Y-98797678D02*
X187742500Y-98869107D01*
X187671071Y-99011964D01*
X187671071Y-99226250D01*
X187742500Y-99369107D01*
X187885357Y-99440535D01*
X188671071Y-99440535D01*
X188671071Y-100797678D02*
X187885357Y-100797678D01*
X187742500Y-100726250D01*
X187671071Y-100583392D01*
X187671071Y-100297678D01*
X187742500Y-100154821D01*
X188599642Y-100797678D02*
X188671071Y-100654821D01*
X188671071Y-100297678D01*
X188599642Y-100154821D01*
X188456785Y-100083392D01*
X188313928Y-100083392D01*
X188171071Y-100154821D01*
X188099642Y-100297678D01*
X188099642Y-100654821D01*
X188028214Y-100797678D01*
X188671071Y-101726250D02*
X188599642Y-101583392D01*
X188456785Y-101511964D01*
X187171071Y-101511964D01*
X187171071Y-103226250D02*
X187171071Y-104083392D01*
X188671071Y-103654821D02*
X187171071Y-103654821D01*
X188671071Y-105226250D02*
X187885357Y-105226250D01*
X187742500Y-105154821D01*
X187671071Y-105011964D01*
X187671071Y-104726250D01*
X187742500Y-104583392D01*
X188599642Y-105226250D02*
X188671071Y-105083392D01*
X188671071Y-104726250D01*
X188599642Y-104583392D01*
X188456785Y-104511964D01*
X188313928Y-104511964D01*
X188171071Y-104583392D01*
X188099642Y-104726250D01*
X188099642Y-105083392D01*
X188028214Y-105226250D01*
X187671071Y-105940535D02*
X188671071Y-105940535D01*
X187813928Y-105940535D02*
X187742500Y-106011964D01*
X187671071Y-106154821D01*
X187671071Y-106369107D01*
X187742500Y-106511964D01*
X187885357Y-106583392D01*
X188671071Y-106583392D01*
X188671071Y-107940535D02*
X187171071Y-107940535D01*
X188599642Y-107940535D02*
X188671071Y-107797678D01*
X188671071Y-107511964D01*
X188599642Y-107369107D01*
X188528214Y-107297678D01*
X188385357Y-107226250D01*
X187956785Y-107226250D01*
X187813928Y-107297678D01*
X187742500Y-107369107D01*
X187671071Y-107511964D01*
X187671071Y-107797678D01*
X187742500Y-107940535D01*
X187671071Y-108511964D02*
X188671071Y-108869107D01*
X187671071Y-109226250D02*
X188671071Y-108869107D01*
X189028214Y-108726250D01*
X189099642Y-108654821D01*
X189171071Y-108511964D01*
X188671071Y-111726250D02*
X188671071Y-110869107D01*
X188671071Y-111297678D02*
X187171071Y-111297678D01*
X187385357Y-111154821D01*
X187528214Y-111011964D01*
X187599642Y-110869107D01*
X187171071Y-112654821D02*
X187171071Y-112797678D01*
X187242500Y-112940535D01*
X187313928Y-113011964D01*
X187456785Y-113083392D01*
X187742500Y-113154821D01*
X188099642Y-113154821D01*
X188385357Y-113083392D01*
X188528214Y-113011964D01*
X188599642Y-112940535D01*
X188671071Y-112797678D01*
X188671071Y-112654821D01*
X188599642Y-112511964D01*
X188528214Y-112440535D01*
X188385357Y-112369107D01*
X188099642Y-112297678D01*
X187742500Y-112297678D01*
X187456785Y-112369107D01*
X187313928Y-112440535D01*
X187242500Y-112511964D01*
X187171071Y-112654821D01*
X187171071Y-114083392D02*
X187171071Y-114226250D01*
X187242500Y-114369107D01*
X187313928Y-114440535D01*
X187456785Y-114511964D01*
X187742500Y-114583392D01*
X188099642Y-114583392D01*
X188385357Y-114511964D01*
X188528214Y-114440535D01*
X188599642Y-114369107D01*
X188671071Y-114226250D01*
X188671071Y-114083392D01*
X188599642Y-113940535D01*
X188528214Y-113869107D01*
X188385357Y-113797678D01*
X188099642Y-113726250D01*
X187742500Y-113726250D01*
X187456785Y-113797678D01*
X187313928Y-113869107D01*
X187242500Y-113940535D01*
X187171071Y-114083392D01*
X187171071Y-115511964D02*
X187171071Y-115654821D01*
X187242500Y-115797678D01*
X187313928Y-115869107D01*
X187456785Y-115940535D01*
X187742500Y-116011964D01*
X188099642Y-116011964D01*
X188385357Y-115940535D01*
X188528214Y-115869107D01*
X188599642Y-115797678D01*
X188671071Y-115654821D01*
X188671071Y-115511964D01*
X188599642Y-115369107D01*
X188528214Y-115297678D01*
X188385357Y-115226250D01*
X188099642Y-115154821D01*
X187742500Y-115154821D01*
X187456785Y-115226250D01*
X187313928Y-115297678D01*
X187242500Y-115369107D01*
X187171071Y-115511964D01*
X188599642Y-116726250D02*
X188671071Y-116726250D01*
X188813928Y-116654821D01*
X188885357Y-116583392D01*
X191146071Y-69869107D02*
X191146071Y-69011964D01*
X191146071Y-69440535D02*
X189646071Y-69440535D01*
X189860357Y-69297678D01*
X190003214Y-69154821D01*
X190074642Y-69011964D01*
X189646071Y-70797678D02*
X189646071Y-70940535D01*
X189717500Y-71083392D01*
X189788928Y-71154821D01*
X189931785Y-71226250D01*
X190217500Y-71297678D01*
X190574642Y-71297678D01*
X190860357Y-71226250D01*
X191003214Y-71154821D01*
X191074642Y-71083392D01*
X191146071Y-70940535D01*
X191146071Y-70797678D01*
X191074642Y-70654821D01*
X191003214Y-70583392D01*
X190860357Y-70511964D01*
X190574642Y-70440535D01*
X190217500Y-70440535D01*
X189931785Y-70511964D01*
X189788928Y-70583392D01*
X189717500Y-70654821D01*
X189646071Y-70797678D01*
X189646071Y-72226250D02*
X189646071Y-72369107D01*
X189717500Y-72511964D01*
X189788928Y-72583392D01*
X189931785Y-72654821D01*
X190217500Y-72726250D01*
X190574642Y-72726250D01*
X190860357Y-72654821D01*
X191003214Y-72583392D01*
X191074642Y-72511964D01*
X191146071Y-72369107D01*
X191146071Y-72226250D01*
X191074642Y-72083392D01*
X191003214Y-72011964D01*
X190860357Y-71940535D01*
X190574642Y-71869107D01*
X190217500Y-71869107D01*
X189931785Y-71940535D01*
X189788928Y-72011964D01*
X189717500Y-72083392D01*
X189646071Y-72226250D01*
X189646071Y-73654821D02*
X189646071Y-73797678D01*
X189717500Y-73940535D01*
X189788928Y-74011964D01*
X189931785Y-74083392D01*
X190217500Y-74154821D01*
X190574642Y-74154821D01*
X190860357Y-74083392D01*
X191003214Y-74011964D01*
X191074642Y-73940535D01*
X191146071Y-73797678D01*
X191146071Y-73654821D01*
X191074642Y-73511964D01*
X191003214Y-73440535D01*
X190860357Y-73369107D01*
X190574642Y-73297678D01*
X190217500Y-73297678D01*
X189931785Y-73369107D01*
X189788928Y-73440535D01*
X189717500Y-73511964D01*
X189646071Y-73654821D01*
X190717500Y-74726250D02*
X190717500Y-75440535D01*
X191146071Y-74583392D02*
X189646071Y-75083392D01*
X191146071Y-75583392D01*
X191146071Y-77440535D02*
X191074642Y-77297678D01*
X191003214Y-77226250D01*
X190860357Y-77154821D01*
X190431785Y-77154821D01*
X190288928Y-77226250D01*
X190217500Y-77297678D01*
X190146071Y-77440535D01*
X190146071Y-77654821D01*
X190217500Y-77797678D01*
X190288928Y-77869107D01*
X190431785Y-77940535D01*
X190860357Y-77940535D01*
X191003214Y-77869107D01*
X191074642Y-77797678D01*
X191146071Y-77654821D01*
X191146071Y-77440535D01*
X191146071Y-78583392D02*
X190146071Y-78583392D01*
X190431785Y-78583392D02*
X190288928Y-78654821D01*
X190217500Y-78726250D01*
X190146071Y-78869107D01*
X190146071Y-79011964D01*
X191146071Y-81440535D02*
X191146071Y-80583392D01*
X191146071Y-81011964D02*
X189646071Y-81011964D01*
X189860357Y-80869107D01*
X190003214Y-80726250D01*
X190074642Y-80583392D01*
X189646071Y-82369107D02*
X189646071Y-82511964D01*
X189717500Y-82654821D01*
X189788928Y-82726250D01*
X189931785Y-82797678D01*
X190217500Y-82869107D01*
X190574642Y-82869107D01*
X190860357Y-82797678D01*
X191003214Y-82726250D01*
X191074642Y-82654821D01*
X191146071Y-82511964D01*
X191146071Y-82369107D01*
X191074642Y-82226250D01*
X191003214Y-82154821D01*
X190860357Y-82083392D01*
X190574642Y-82011964D01*
X190217500Y-82011964D01*
X189931785Y-82083392D01*
X189788928Y-82154821D01*
X189717500Y-82226250D01*
X189646071Y-82369107D01*
X189646071Y-83797678D02*
X189646071Y-83940535D01*
X189717500Y-84083392D01*
X189788928Y-84154821D01*
X189931785Y-84226250D01*
X190217500Y-84297678D01*
X190574642Y-84297678D01*
X190860357Y-84226250D01*
X191003214Y-84154821D01*
X191074642Y-84083392D01*
X191146071Y-83940535D01*
X191146071Y-83797678D01*
X191074642Y-83654821D01*
X191003214Y-83583392D01*
X190860357Y-83511964D01*
X190574642Y-83440535D01*
X190217500Y-83440535D01*
X189931785Y-83511964D01*
X189788928Y-83583392D01*
X189717500Y-83654821D01*
X189646071Y-83797678D01*
X189646071Y-85226250D02*
X189646071Y-85369107D01*
X189717500Y-85511964D01*
X189788928Y-85583392D01*
X189931785Y-85654821D01*
X190217500Y-85726250D01*
X190574642Y-85726250D01*
X190860357Y-85654821D01*
X191003214Y-85583392D01*
X191074642Y-85511964D01*
X191146071Y-85369107D01*
X191146071Y-85226250D01*
X191074642Y-85083392D01*
X191003214Y-85011964D01*
X190860357Y-84940535D01*
X190574642Y-84869107D01*
X190217500Y-84869107D01*
X189931785Y-84940535D01*
X189788928Y-85011964D01*
X189717500Y-85083392D01*
X189646071Y-85226250D01*
X191146071Y-87511964D02*
X189646071Y-87511964D01*
X190360357Y-87511964D02*
X190360357Y-88369107D01*
X191146071Y-88369107D02*
X189646071Y-88369107D01*
X191146071Y-89083392D02*
X189646071Y-89083392D01*
X189646071Y-89440535D01*
X189717500Y-89654821D01*
X189860357Y-89797678D01*
X190003214Y-89869107D01*
X190288928Y-89940535D01*
X190503214Y-89940535D01*
X190788928Y-89869107D01*
X190931785Y-89797678D01*
X191074642Y-89654821D01*
X191146071Y-89440535D01*
X191146071Y-89083392D01*
X191146071Y-91940535D02*
X191074642Y-91797678D01*
X191003214Y-91726250D01*
X190860357Y-91654821D01*
X190431785Y-91654821D01*
X190288928Y-91726250D01*
X190217500Y-91797678D01*
X190146071Y-91940535D01*
X190146071Y-92154821D01*
X190217500Y-92297678D01*
X190288928Y-92369107D01*
X190431785Y-92440535D01*
X190860357Y-92440535D01*
X191003214Y-92369107D01*
X191074642Y-92297678D01*
X191146071Y-92154821D01*
X191146071Y-91940535D01*
X190146071Y-93083392D02*
X191146071Y-93083392D01*
X190288928Y-93083392D02*
X190217500Y-93154821D01*
X190146071Y-93297678D01*
X190146071Y-93511964D01*
X190217500Y-93654821D01*
X190360357Y-93726250D01*
X191146071Y-93726250D01*
X191146071Y-94654821D02*
X191074642Y-94511964D01*
X190931785Y-94440535D01*
X189646071Y-94440535D01*
X190146071Y-95083392D02*
X191146071Y-95440535D01*
X190146071Y-95797678D02*
X191146071Y-95440535D01*
X191503214Y-95297678D01*
X191574642Y-95226250D01*
X191646071Y-95083392D01*
X191003214Y-96369107D02*
X191074642Y-96440535D01*
X191146071Y-96369107D01*
X191074642Y-96297678D01*
X191003214Y-96369107D01*
X191146071Y-96369107D01*
X191146071Y-99083392D02*
X190431785Y-98583392D01*
X191146071Y-98226250D02*
X189646071Y-98226250D01*
X189646071Y-98797678D01*
X189717500Y-98940535D01*
X189788928Y-99011964D01*
X189931785Y-99083392D01*
X190146071Y-99083392D01*
X190288928Y-99011964D01*
X190360357Y-98940535D01*
X190431785Y-98797678D01*
X190431785Y-98226250D01*
X191074642Y-100297678D02*
X191146071Y-100154821D01*
X191146071Y-99869107D01*
X191074642Y-99726250D01*
X190931785Y-99654821D01*
X190360357Y-99654821D01*
X190217500Y-99726250D01*
X190146071Y-99869107D01*
X190146071Y-100154821D01*
X190217500Y-100297678D01*
X190360357Y-100369107D01*
X190503214Y-100369107D01*
X190646071Y-99654821D01*
X191146071Y-101011964D02*
X190146071Y-101011964D01*
X190288928Y-101011964D02*
X190217500Y-101083392D01*
X190146071Y-101226250D01*
X190146071Y-101440535D01*
X190217500Y-101583392D01*
X190360357Y-101654821D01*
X191146071Y-101654821D01*
X190360357Y-101654821D02*
X190217500Y-101726250D01*
X190146071Y-101869107D01*
X190146071Y-102083392D01*
X190217500Y-102226250D01*
X190360357Y-102297678D01*
X191146071Y-102297678D01*
X191146071Y-103226250D02*
X191074642Y-103083392D01*
X191003214Y-103011964D01*
X190860357Y-102940535D01*
X190431785Y-102940535D01*
X190288928Y-103011964D01*
X190217500Y-103083392D01*
X190146071Y-103226250D01*
X190146071Y-103440535D01*
X190217500Y-103583392D01*
X190288928Y-103654821D01*
X190431785Y-103726250D01*
X190860357Y-103726250D01*
X191003214Y-103654821D01*
X191074642Y-103583392D01*
X191146071Y-103440535D01*
X191146071Y-103226250D01*
X190146071Y-104226250D02*
X191146071Y-104583392D01*
X190146071Y-104940535D01*
X191074642Y-106083392D02*
X191146071Y-105940535D01*
X191146071Y-105654821D01*
X191074642Y-105511964D01*
X190931785Y-105440535D01*
X190360357Y-105440535D01*
X190217500Y-105511964D01*
X190146071Y-105654821D01*
X190146071Y-105940535D01*
X190217500Y-106083392D01*
X190360357Y-106154821D01*
X190503214Y-106154821D01*
X190646071Y-105440535D01*
X191146071Y-108583392D02*
X190360357Y-108583392D01*
X190217500Y-108511964D01*
X190146071Y-108369107D01*
X190146071Y-108083392D01*
X190217500Y-107940535D01*
X191074642Y-108583392D02*
X191146071Y-108440535D01*
X191146071Y-108083392D01*
X191074642Y-107940535D01*
X190931785Y-107869107D01*
X190788928Y-107869107D01*
X190646071Y-107940535D01*
X190574642Y-108083392D01*
X190574642Y-108440535D01*
X190503214Y-108583392D01*
X190146071Y-109297678D02*
X191146071Y-109297678D01*
X190288928Y-109297678D02*
X190217500Y-109369107D01*
X190146071Y-109511964D01*
X190146071Y-109726250D01*
X190217500Y-109869107D01*
X190360357Y-109940535D01*
X191146071Y-109940535D01*
X190146071Y-110511964D02*
X191146071Y-110869107D01*
X190146071Y-111226250D02*
X191146071Y-110869107D01*
X191503214Y-110726250D01*
X191574642Y-110654821D01*
X191646071Y-110511964D01*
X193621071Y-69297678D02*
X193549642Y-69154821D01*
X193478214Y-69083392D01*
X193335357Y-69011964D01*
X192906785Y-69011964D01*
X192763928Y-69083392D01*
X192692500Y-69154821D01*
X192621071Y-69297678D01*
X192621071Y-69511964D01*
X192692500Y-69654821D01*
X192763928Y-69726250D01*
X192906785Y-69797678D01*
X193335357Y-69797678D01*
X193478214Y-69726250D01*
X193549642Y-69654821D01*
X193621071Y-69511964D01*
X193621071Y-69297678D01*
X192621071Y-70226250D02*
X192621071Y-70797678D01*
X192121071Y-70440535D02*
X193406785Y-70440535D01*
X193549642Y-70511964D01*
X193621071Y-70654821D01*
X193621071Y-70797678D01*
X193621071Y-71297678D02*
X192121071Y-71297678D01*
X193621071Y-71940535D02*
X192835357Y-71940535D01*
X192692500Y-71869107D01*
X192621071Y-71726250D01*
X192621071Y-71511964D01*
X192692500Y-71369107D01*
X192763928Y-71297678D01*
X193549642Y-73226250D02*
X193621071Y-73083392D01*
X193621071Y-72797678D01*
X193549642Y-72654821D01*
X193406785Y-72583392D01*
X192835357Y-72583392D01*
X192692500Y-72654821D01*
X192621071Y-72797678D01*
X192621071Y-73083392D01*
X192692500Y-73226250D01*
X192835357Y-73297678D01*
X192978214Y-73297678D01*
X193121071Y-72583392D01*
X193621071Y-73940535D02*
X192621071Y-73940535D01*
X192906785Y-73940535D02*
X192763928Y-74011964D01*
X192692500Y-74083392D01*
X192621071Y-74226250D01*
X192621071Y-74369107D01*
X193621071Y-76869107D02*
X192906785Y-76369107D01*
X193621071Y-76011964D02*
X192121071Y-76011964D01*
X192121071Y-76583392D01*
X192192500Y-76726250D01*
X192263928Y-76797678D01*
X192406785Y-76869107D01*
X192621071Y-76869107D01*
X192763928Y-76797678D01*
X192835357Y-76726250D01*
X192906785Y-76583392D01*
X192906785Y-76011964D01*
X193192500Y-77440535D02*
X193192500Y-78154821D01*
X193621071Y-77297678D02*
X192121071Y-77797678D01*
X193621071Y-78297678D01*
X193621071Y-78797678D02*
X192121071Y-78797678D01*
X193192500Y-79297678D01*
X192121071Y-79797678D01*
X193621071Y-79797678D01*
X192621071Y-82297678D02*
X193621071Y-82297678D01*
X192621071Y-81654821D02*
X193406785Y-81654821D01*
X193549642Y-81726250D01*
X193621071Y-81869107D01*
X193621071Y-82083392D01*
X193549642Y-82226250D01*
X193478214Y-82297678D01*
X192621071Y-83011964D02*
X194121071Y-83011964D01*
X192692500Y-83011964D02*
X192621071Y-83154821D01*
X192621071Y-83440535D01*
X192692500Y-83583392D01*
X192763928Y-83654821D01*
X192906785Y-83726250D01*
X193335357Y-83726250D01*
X193478214Y-83654821D01*
X193549642Y-83583392D01*
X193621071Y-83440535D01*
X193621071Y-83154821D01*
X193549642Y-83011964D01*
X192621071Y-85011964D02*
X193835357Y-85011964D01*
X193978214Y-84940535D01*
X194049642Y-84869107D01*
X194121071Y-84726250D01*
X194121071Y-84511964D01*
X194049642Y-84369107D01*
X193549642Y-85011964D02*
X193621071Y-84869107D01*
X193621071Y-84583392D01*
X193549642Y-84440535D01*
X193478214Y-84369107D01*
X193335357Y-84297678D01*
X192906785Y-84297678D01*
X192763928Y-84369107D01*
X192692500Y-84440535D01*
X192621071Y-84583392D01*
X192621071Y-84869107D01*
X192692500Y-85011964D01*
X193621071Y-85726250D02*
X192621071Y-85726250D01*
X192906785Y-85726250D02*
X192763928Y-85797678D01*
X192692500Y-85869107D01*
X192621071Y-86011964D01*
X192621071Y-86154821D01*
X193621071Y-87297678D02*
X192835357Y-87297678D01*
X192692500Y-87226250D01*
X192621071Y-87083392D01*
X192621071Y-86797678D01*
X192692500Y-86654821D01*
X193549642Y-87297678D02*
X193621071Y-87154821D01*
X193621071Y-86797678D01*
X193549642Y-86654821D01*
X193406785Y-86583392D01*
X193263928Y-86583392D01*
X193121071Y-86654821D01*
X193049642Y-86797678D01*
X193049642Y-87154821D01*
X192978214Y-87297678D01*
X193621071Y-88654821D02*
X192121071Y-88654821D01*
X193549642Y-88654821D02*
X193621071Y-88511964D01*
X193621071Y-88226250D01*
X193549642Y-88083392D01*
X193478214Y-88011964D01*
X193335357Y-87940535D01*
X192906785Y-87940535D01*
X192763928Y-88011964D01*
X192692500Y-88083392D01*
X192621071Y-88226250D01*
X192621071Y-88511964D01*
X192692500Y-88654821D01*
X193549642Y-89940535D02*
X193621071Y-89797678D01*
X193621071Y-89511964D01*
X193549642Y-89369107D01*
X193406785Y-89297678D01*
X192835357Y-89297678D01*
X192692500Y-89369107D01*
X192621071Y-89511964D01*
X192621071Y-89797678D01*
X192692500Y-89940535D01*
X192835357Y-90011964D01*
X192978214Y-90011964D01*
X193121071Y-89297678D01*
X193621071Y-91797678D02*
X192121071Y-91797678D01*
X192692500Y-91797678D02*
X192621071Y-91940535D01*
X192621071Y-92226250D01*
X192692500Y-92369107D01*
X192763928Y-92440535D01*
X192906785Y-92511964D01*
X193335357Y-92511964D01*
X193478214Y-92440535D01*
X193549642Y-92369107D01*
X193621071Y-92226250D01*
X193621071Y-91940535D01*
X193549642Y-91797678D01*
X193549642Y-93726250D02*
X193621071Y-93583392D01*
X193621071Y-93297678D01*
X193549642Y-93154821D01*
X193406785Y-93083392D01*
X192835357Y-93083392D01*
X192692500Y-93154821D01*
X192621071Y-93297678D01*
X192621071Y-93583392D01*
X192692500Y-93726250D01*
X192835357Y-93797678D01*
X192978214Y-93797678D01*
X193121071Y-93083392D01*
X192621071Y-94226250D02*
X192621071Y-94797678D01*
X193621071Y-94440535D02*
X192335357Y-94440535D01*
X192192500Y-94511964D01*
X192121071Y-94654821D01*
X192121071Y-94797678D01*
X193621071Y-95511964D02*
X193549642Y-95369107D01*
X193478214Y-95297678D01*
X193335357Y-95226250D01*
X192906785Y-95226250D01*
X192763928Y-95297678D01*
X192692500Y-95369107D01*
X192621071Y-95511964D01*
X192621071Y-95726250D01*
X192692500Y-95869107D01*
X192763928Y-95940535D01*
X192906785Y-96011964D01*
X193335357Y-96011964D01*
X193478214Y-95940535D01*
X193549642Y-95869107D01*
X193621071Y-95726250D01*
X193621071Y-95511964D01*
X193621071Y-96654821D02*
X192621071Y-96654821D01*
X192906785Y-96654821D02*
X192763928Y-96726250D01*
X192692500Y-96797678D01*
X192621071Y-96940535D01*
X192621071Y-97083392D01*
X193549642Y-98154821D02*
X193621071Y-98011964D01*
X193621071Y-97726250D01*
X193549642Y-97583392D01*
X193406785Y-97511964D01*
X192835357Y-97511964D01*
X192692500Y-97583392D01*
X192621071Y-97726250D01*
X192621071Y-98011964D01*
X192692500Y-98154821D01*
X192835357Y-98226250D01*
X192978214Y-98226250D01*
X193121071Y-97511964D01*
X193621071Y-100011964D02*
X192621071Y-100011964D01*
X192121071Y-100011964D02*
X192192500Y-99940535D01*
X192263928Y-100011964D01*
X192192500Y-100083392D01*
X192121071Y-100011964D01*
X192263928Y-100011964D01*
X192621071Y-100726250D02*
X193621071Y-100726250D01*
X192763928Y-100726250D02*
X192692500Y-100797678D01*
X192621071Y-100940535D01*
X192621071Y-101154821D01*
X192692500Y-101297678D01*
X192835357Y-101369107D01*
X193621071Y-101369107D01*
X193549642Y-102011964D02*
X193621071Y-102154821D01*
X193621071Y-102440535D01*
X193549642Y-102583392D01*
X193406785Y-102654821D01*
X193335357Y-102654821D01*
X193192500Y-102583392D01*
X193121071Y-102440535D01*
X193121071Y-102226250D01*
X193049642Y-102083392D01*
X192906785Y-102011964D01*
X192835357Y-102011964D01*
X192692500Y-102083392D01*
X192621071Y-102226250D01*
X192621071Y-102440535D01*
X192692500Y-102583392D01*
X192621071Y-103083392D02*
X192621071Y-103654821D01*
X192121071Y-103297678D02*
X193406785Y-103297678D01*
X193549642Y-103369107D01*
X193621071Y-103511964D01*
X193621071Y-103654821D01*
X193621071Y-104797678D02*
X192835357Y-104797678D01*
X192692500Y-104726250D01*
X192621071Y-104583392D01*
X192621071Y-104297678D01*
X192692500Y-104154821D01*
X193549642Y-104797678D02*
X193621071Y-104654821D01*
X193621071Y-104297678D01*
X193549642Y-104154821D01*
X193406785Y-104083392D01*
X193263928Y-104083392D01*
X193121071Y-104154821D01*
X193049642Y-104297678D01*
X193049642Y-104654821D01*
X192978214Y-104797678D01*
X193621071Y-105726250D02*
X193549642Y-105583392D01*
X193406785Y-105511964D01*
X192121071Y-105511964D01*
X193621071Y-106511964D02*
X193549642Y-106369107D01*
X193406785Y-106297678D01*
X192121071Y-106297678D01*
X193621071Y-107083392D02*
X192621071Y-107083392D01*
X192121071Y-107083392D02*
X192192500Y-107011964D01*
X192263928Y-107083392D01*
X192192500Y-107154821D01*
X192121071Y-107083392D01*
X192263928Y-107083392D01*
X192621071Y-107797678D02*
X193621071Y-107797678D01*
X192763928Y-107797678D02*
X192692500Y-107869107D01*
X192621071Y-108011964D01*
X192621071Y-108226250D01*
X192692500Y-108369107D01*
X192835357Y-108440535D01*
X193621071Y-108440535D01*
X192621071Y-109797678D02*
X193835357Y-109797678D01*
X193978214Y-109726250D01*
X194049642Y-109654821D01*
X194121071Y-109511964D01*
X194121071Y-109297678D01*
X194049642Y-109154821D01*
X193549642Y-109797678D02*
X193621071Y-109654821D01*
X193621071Y-109369107D01*
X193549642Y-109226250D01*
X193478214Y-109154821D01*
X193335357Y-109083392D01*
X192906785Y-109083392D01*
X192763928Y-109154821D01*
X192692500Y-109226250D01*
X192621071Y-109369107D01*
X192621071Y-109654821D01*
X192692500Y-109797678D01*
X193478214Y-110511964D02*
X193549642Y-110583392D01*
X193621071Y-110511964D01*
X193549642Y-110440535D01*
X193478214Y-110511964D01*
X193621071Y-110511964D01*
X180875714Y-69940535D02*
X180947142Y-69869107D01*
X181018571Y-69654821D01*
X181018571Y-69511964D01*
X180947142Y-69297678D01*
X180804285Y-69154821D01*
X180661428Y-69083392D01*
X180375714Y-69011964D01*
X180161428Y-69011964D01*
X179875714Y-69083392D01*
X179732857Y-69154821D01*
X179590000Y-69297678D01*
X179518571Y-69511964D01*
X179518571Y-69654821D01*
X179590000Y-69869107D01*
X179661428Y-69940535D01*
X181018571Y-70797678D02*
X180947142Y-70654821D01*
X180875714Y-70583392D01*
X180732857Y-70511964D01*
X180304285Y-70511964D01*
X180161428Y-70583392D01*
X180090000Y-70654821D01*
X180018571Y-70797678D01*
X180018571Y-71011964D01*
X180090000Y-71154821D01*
X180161428Y-71226250D01*
X180304285Y-71297678D01*
X180732857Y-71297678D01*
X180875714Y-71226250D01*
X180947142Y-71154821D01*
X181018571Y-71011964D01*
X181018571Y-70797678D01*
X181018571Y-71940535D02*
X180018571Y-71940535D01*
X180161428Y-71940535D02*
X180090000Y-72011964D01*
X180018571Y-72154821D01*
X180018571Y-72369107D01*
X180090000Y-72511964D01*
X180232857Y-72583392D01*
X181018571Y-72583392D01*
X180232857Y-72583392D02*
X180090000Y-72654821D01*
X180018571Y-72797678D01*
X180018571Y-73011964D01*
X180090000Y-73154821D01*
X180232857Y-73226250D01*
X181018571Y-73226250D01*
X180018571Y-73940535D02*
X181518571Y-73940535D01*
X180090000Y-73940535D02*
X180018571Y-74083392D01*
X180018571Y-74369107D01*
X180090000Y-74511964D01*
X180161428Y-74583392D01*
X180304285Y-74654821D01*
X180732857Y-74654821D01*
X180875714Y-74583392D01*
X180947142Y-74511964D01*
X181018571Y-74369107D01*
X181018571Y-74083392D01*
X180947142Y-73940535D01*
X181018571Y-75940535D02*
X180232857Y-75940535D01*
X180090000Y-75869107D01*
X180018571Y-75726250D01*
X180018571Y-75440535D01*
X180090000Y-75297678D01*
X180947142Y-75940535D02*
X181018571Y-75797678D01*
X181018571Y-75440535D01*
X180947142Y-75297678D01*
X180804285Y-75226250D01*
X180661428Y-75226250D01*
X180518571Y-75297678D01*
X180447142Y-75440535D01*
X180447142Y-75797678D01*
X180375714Y-75940535D01*
X180947142Y-77297678D02*
X181018571Y-77154821D01*
X181018571Y-76869107D01*
X180947142Y-76726250D01*
X180875714Y-76654821D01*
X180732857Y-76583392D01*
X180304285Y-76583392D01*
X180161428Y-76654821D01*
X180090000Y-76726250D01*
X180018571Y-76869107D01*
X180018571Y-77154821D01*
X180090000Y-77297678D01*
X180018571Y-77726250D02*
X180018571Y-78297678D01*
X179518571Y-77940535D02*
X180804285Y-77940535D01*
X180947142Y-78011964D01*
X181018571Y-78154821D01*
X181018571Y-78297678D01*
X180232857Y-80440535D02*
X180232857Y-79940535D01*
X181018571Y-79940535D02*
X179518571Y-79940535D01*
X179518571Y-80654821D01*
X181018571Y-81440535D02*
X180947142Y-81297678D01*
X180804285Y-81226250D01*
X179518571Y-81226250D01*
X181018571Y-82654821D02*
X180232857Y-82654821D01*
X180090000Y-82583392D01*
X180018571Y-82440535D01*
X180018571Y-82154821D01*
X180090000Y-82011964D01*
X180947142Y-82654821D02*
X181018571Y-82511964D01*
X181018571Y-82154821D01*
X180947142Y-82011964D01*
X180804285Y-81940535D01*
X180661428Y-81940535D01*
X180518571Y-82011964D01*
X180447142Y-82154821D01*
X180447142Y-82511964D01*
X180375714Y-82654821D01*
X180947142Y-83297678D02*
X181018571Y-83440535D01*
X181018571Y-83726250D01*
X180947142Y-83869107D01*
X180804285Y-83940535D01*
X180732857Y-83940535D01*
X180590000Y-83869107D01*
X180518571Y-83726250D01*
X180518571Y-83511964D01*
X180447142Y-83369107D01*
X180304285Y-83297678D01*
X180232857Y-83297678D01*
X180090000Y-83369107D01*
X180018571Y-83511964D01*
X180018571Y-83726250D01*
X180090000Y-83869107D01*
X181018571Y-84583392D02*
X179518571Y-84583392D01*
X181018571Y-85226250D02*
X180232857Y-85226250D01*
X180090000Y-85154821D01*
X180018571Y-85011964D01*
X180018571Y-84797678D01*
X180090000Y-84654821D01*
X180161428Y-84583392D01*
X180018571Y-86940535D02*
X181018571Y-87226250D01*
X180304285Y-87511964D01*
X181018571Y-87797678D01*
X180018571Y-88083392D01*
X181018571Y-88654821D02*
X180018571Y-88654821D01*
X179518571Y-88654821D02*
X179590000Y-88583392D01*
X179661428Y-88654821D01*
X179590000Y-88726250D01*
X179518571Y-88654821D01*
X179661428Y-88654821D01*
X180018571Y-89154821D02*
X180018571Y-89726250D01*
X179518571Y-89369107D02*
X180804285Y-89369107D01*
X180947142Y-89440535D01*
X181018571Y-89583392D01*
X181018571Y-89726250D01*
X181018571Y-90226250D02*
X179518571Y-90226250D01*
X181018571Y-90869107D02*
X180232857Y-90869107D01*
X180090000Y-90797678D01*
X180018571Y-90654821D01*
X180018571Y-90440535D01*
X180090000Y-90297678D01*
X180161428Y-90226250D01*
X179518571Y-92583392D02*
X181018571Y-93583392D01*
X179518571Y-93583392D02*
X181018571Y-92583392D01*
X179518571Y-93940535D02*
X179518571Y-94797678D01*
X181018571Y-94369107D02*
X179518571Y-94369107D01*
X180447142Y-95297678D02*
X180447142Y-96440535D01*
X181018571Y-97154821D02*
X179518571Y-97154821D01*
X181018571Y-97869107D02*
X179518571Y-97869107D01*
X179518571Y-98226250D01*
X179590000Y-98440535D01*
X179732857Y-98583392D01*
X179875714Y-98654821D01*
X180161428Y-98726250D01*
X180375714Y-98726250D01*
X180661428Y-98654821D01*
X180804285Y-98583392D01*
X180947142Y-98440535D01*
X181018571Y-98226250D01*
X181018571Y-97869107D01*
X180232857Y-99369107D02*
X180232857Y-99869107D01*
X181018571Y-100083392D02*
X181018571Y-99369107D01*
X179518571Y-99369107D01*
X179518571Y-100083392D01*
X180232857Y-102369107D02*
X180304285Y-102583392D01*
X180375714Y-102654821D01*
X180518571Y-102726250D01*
X180732857Y-102726250D01*
X180875714Y-102654821D01*
X180947142Y-102583392D01*
X181018571Y-102440535D01*
X181018571Y-101869107D01*
X179518571Y-101869107D01*
X179518571Y-102369107D01*
X179590000Y-102511964D01*
X179661428Y-102583392D01*
X179804285Y-102654821D01*
X179947142Y-102654821D01*
X180090000Y-102583392D01*
X180161428Y-102511964D01*
X180232857Y-102369107D01*
X180232857Y-101869107D01*
X181018571Y-103369107D02*
X179518571Y-103369107D01*
X179518571Y-104369107D02*
X179518571Y-104654821D01*
X179590000Y-104797678D01*
X179732857Y-104940535D01*
X180018571Y-105011964D01*
X180518571Y-105011964D01*
X180804285Y-104940535D01*
X180947142Y-104797678D01*
X181018571Y-104654821D01*
X181018571Y-104369107D01*
X180947142Y-104226250D01*
X180804285Y-104083392D01*
X180518571Y-104011964D01*
X180018571Y-104011964D01*
X179732857Y-104083392D01*
X179590000Y-104226250D01*
X179518571Y-104369107D01*
X180947142Y-105583392D02*
X181018571Y-105797678D01*
X181018571Y-106154821D01*
X180947142Y-106297678D01*
X180875714Y-106369107D01*
X180732857Y-106440535D01*
X180590000Y-106440535D01*
X180447142Y-106369107D01*
X180375714Y-106297678D01*
X180304285Y-106154821D01*
X180232857Y-105869107D01*
X180161428Y-105726250D01*
X180090000Y-105654821D01*
X179947142Y-105583392D01*
X179804285Y-105583392D01*
X179661428Y-105654821D01*
X179590000Y-105726250D01*
X179518571Y-105869107D01*
X179518571Y-106226250D01*
X179590000Y-106440535D01*
X181018571Y-108869107D02*
X180232857Y-108869107D01*
X180090000Y-108797678D01*
X180018571Y-108654821D01*
X180018571Y-108369107D01*
X180090000Y-108226250D01*
X180947142Y-108869107D02*
X181018571Y-108726250D01*
X181018571Y-108369107D01*
X180947142Y-108226250D01*
X180804285Y-108154821D01*
X180661428Y-108154821D01*
X180518571Y-108226250D01*
X180447142Y-108369107D01*
X180447142Y-108726250D01*
X180375714Y-108869107D01*
X180018571Y-109583392D02*
X181018571Y-109583392D01*
X180161428Y-109583392D02*
X180090000Y-109654821D01*
X180018571Y-109797678D01*
X180018571Y-110011964D01*
X180090000Y-110154821D01*
X180232857Y-110226250D01*
X181018571Y-110226250D01*
X181018571Y-111583392D02*
X179518571Y-111583392D01*
X180947142Y-111583392D02*
X181018571Y-111440535D01*
X181018571Y-111154821D01*
X180947142Y-111011964D01*
X180875714Y-110940535D01*
X180732857Y-110869107D01*
X180304285Y-110869107D01*
X180161428Y-110940535D01*
X180090000Y-111011964D01*
X180018571Y-111154821D01*
X180018571Y-111440535D01*
X180090000Y-111583392D01*
X180947142Y-113369107D02*
X181018571Y-113583392D01*
X181018571Y-113940535D01*
X180947142Y-114083392D01*
X180875714Y-114154821D01*
X180732857Y-114226250D01*
X180590000Y-114226250D01*
X180447142Y-114154821D01*
X180375714Y-114083392D01*
X180304285Y-113940535D01*
X180232857Y-113654821D01*
X180161428Y-113511964D01*
X180090000Y-113440535D01*
X179947142Y-113369107D01*
X179804285Y-113369107D01*
X179661428Y-113440535D01*
X179590000Y-113511964D01*
X179518571Y-113654821D01*
X179518571Y-114011964D01*
X179590000Y-114226250D01*
X181018571Y-114869107D02*
X180018571Y-114869107D01*
X180161428Y-114869107D02*
X180090000Y-114940535D01*
X180018571Y-115083392D01*
X180018571Y-115297678D01*
X180090000Y-115440535D01*
X180232857Y-115511964D01*
X181018571Y-115511964D01*
X180232857Y-115511964D02*
X180090000Y-115583392D01*
X180018571Y-115726250D01*
X180018571Y-115940535D01*
X180090000Y-116083392D01*
X180232857Y-116154821D01*
X181018571Y-116154821D01*
X181018571Y-117511964D02*
X180232857Y-117511964D01*
X180090000Y-117440535D01*
X180018571Y-117297678D01*
X180018571Y-117011964D01*
X180090000Y-116869107D01*
X180947142Y-117511964D02*
X181018571Y-117369107D01*
X181018571Y-117011964D01*
X180947142Y-116869107D01*
X180804285Y-116797678D01*
X180661428Y-116797678D01*
X180518571Y-116869107D01*
X180447142Y-117011964D01*
X180447142Y-117369107D01*
X180375714Y-117511964D01*
X181018571Y-118226250D02*
X180018571Y-118226250D01*
X180304285Y-118226250D02*
X180161428Y-118297678D01*
X180090000Y-118369107D01*
X180018571Y-118511964D01*
X180018571Y-118654821D01*
X180018571Y-118940535D02*
X180018571Y-119511964D01*
X179518571Y-119154821D02*
X180804285Y-119154821D01*
X180947142Y-119226250D01*
X181018571Y-119369107D01*
X181018571Y-119511964D01*
X179518571Y-119869107D02*
X181018571Y-120226250D01*
X179947142Y-120511964D01*
X181018571Y-120797678D01*
X179518571Y-121154821D01*
X181018571Y-122369107D02*
X180232857Y-122369107D01*
X180090000Y-122297678D01*
X180018571Y-122154821D01*
X180018571Y-121869107D01*
X180090000Y-121726250D01*
X180947142Y-122369107D02*
X181018571Y-122226250D01*
X181018571Y-121869107D01*
X180947142Y-121726250D01*
X180804285Y-121654821D01*
X180661428Y-121654821D01*
X180518571Y-121726250D01*
X180447142Y-121869107D01*
X180447142Y-122226250D01*
X180375714Y-122369107D01*
X180018571Y-122869107D02*
X180018571Y-123440535D01*
X179518571Y-123083392D02*
X180804285Y-123083392D01*
X180947142Y-123154821D01*
X181018571Y-123297678D01*
X181018571Y-123440535D01*
X180947142Y-124583392D02*
X181018571Y-124440535D01*
X181018571Y-124154821D01*
X180947142Y-124011964D01*
X180875714Y-123940535D01*
X180732857Y-123869107D01*
X180304285Y-123869107D01*
X180161428Y-123940535D01*
X180090000Y-124011964D01*
X180018571Y-124154821D01*
X180018571Y-124440535D01*
X180090000Y-124583392D01*
X181018571Y-125226250D02*
X179518571Y-125226250D01*
X181018571Y-125869107D02*
X180232857Y-125869107D01*
X180090000Y-125797678D01*
X180018571Y-125654821D01*
X180018571Y-125440535D01*
X180090000Y-125297678D01*
X180161428Y-125226250D01*
X175160714Y-69940535D02*
X175232142Y-69869107D01*
X175303571Y-69654821D01*
X175303571Y-69511964D01*
X175232142Y-69297678D01*
X175089285Y-69154821D01*
X174946428Y-69083392D01*
X174660714Y-69011964D01*
X174446428Y-69011964D01*
X174160714Y-69083392D01*
X174017857Y-69154821D01*
X173875000Y-69297678D01*
X173803571Y-69511964D01*
X173803571Y-69654821D01*
X173875000Y-69869107D01*
X173946428Y-69940535D01*
X175303571Y-70797678D02*
X175232142Y-70654821D01*
X175160714Y-70583392D01*
X175017857Y-70511964D01*
X174589285Y-70511964D01*
X174446428Y-70583392D01*
X174375000Y-70654821D01*
X174303571Y-70797678D01*
X174303571Y-71011964D01*
X174375000Y-71154821D01*
X174446428Y-71226250D01*
X174589285Y-71297678D01*
X175017857Y-71297678D01*
X175160714Y-71226250D01*
X175232142Y-71154821D01*
X175303571Y-71011964D01*
X175303571Y-70797678D01*
X175303571Y-71940535D02*
X174303571Y-71940535D01*
X174446428Y-71940535D02*
X174375000Y-72011964D01*
X174303571Y-72154821D01*
X174303571Y-72369107D01*
X174375000Y-72511964D01*
X174517857Y-72583392D01*
X175303571Y-72583392D01*
X174517857Y-72583392D02*
X174375000Y-72654821D01*
X174303571Y-72797678D01*
X174303571Y-73011964D01*
X174375000Y-73154821D01*
X174517857Y-73226250D01*
X175303571Y-73226250D01*
X174303571Y-73940535D02*
X175803571Y-73940535D01*
X174375000Y-73940535D02*
X174303571Y-74083392D01*
X174303571Y-74369107D01*
X174375000Y-74511964D01*
X174446428Y-74583392D01*
X174589285Y-74654821D01*
X175017857Y-74654821D01*
X175160714Y-74583392D01*
X175232142Y-74511964D01*
X175303571Y-74369107D01*
X175303571Y-74083392D01*
X175232142Y-73940535D01*
X175303571Y-75940535D02*
X174517857Y-75940535D01*
X174375000Y-75869107D01*
X174303571Y-75726250D01*
X174303571Y-75440535D01*
X174375000Y-75297678D01*
X175232142Y-75940535D02*
X175303571Y-75797678D01*
X175303571Y-75440535D01*
X175232142Y-75297678D01*
X175089285Y-75226250D01*
X174946428Y-75226250D01*
X174803571Y-75297678D01*
X174732142Y-75440535D01*
X174732142Y-75797678D01*
X174660714Y-75940535D01*
X175232142Y-77297678D02*
X175303571Y-77154821D01*
X175303571Y-76869107D01*
X175232142Y-76726250D01*
X175160714Y-76654821D01*
X175017857Y-76583392D01*
X174589285Y-76583392D01*
X174446428Y-76654821D01*
X174375000Y-76726250D01*
X174303571Y-76869107D01*
X174303571Y-77154821D01*
X174375000Y-77297678D01*
X174303571Y-77726250D02*
X174303571Y-78297678D01*
X173803571Y-77940535D02*
X175089285Y-77940535D01*
X175232142Y-78011964D01*
X175303571Y-78154821D01*
X175303571Y-78297678D01*
X174517857Y-80440535D02*
X174517857Y-79940535D01*
X175303571Y-79940535D02*
X173803571Y-79940535D01*
X173803571Y-80654821D01*
X175303571Y-81440535D02*
X175232142Y-81297678D01*
X175089285Y-81226250D01*
X173803571Y-81226250D01*
X175303571Y-82654821D02*
X174517857Y-82654821D01*
X174375000Y-82583392D01*
X174303571Y-82440535D01*
X174303571Y-82154821D01*
X174375000Y-82011964D01*
X175232142Y-82654821D02*
X175303571Y-82511964D01*
X175303571Y-82154821D01*
X175232142Y-82011964D01*
X175089285Y-81940535D01*
X174946428Y-81940535D01*
X174803571Y-82011964D01*
X174732142Y-82154821D01*
X174732142Y-82511964D01*
X174660714Y-82654821D01*
X175232142Y-83297678D02*
X175303571Y-83440535D01*
X175303571Y-83726250D01*
X175232142Y-83869107D01*
X175089285Y-83940535D01*
X175017857Y-83940535D01*
X174875000Y-83869107D01*
X174803571Y-83726250D01*
X174803571Y-83511964D01*
X174732142Y-83369107D01*
X174589285Y-83297678D01*
X174517857Y-83297678D01*
X174375000Y-83369107D01*
X174303571Y-83511964D01*
X174303571Y-83726250D01*
X174375000Y-83869107D01*
X175303571Y-84583392D02*
X173803571Y-84583392D01*
X175303571Y-85226250D02*
X174517857Y-85226250D01*
X174375000Y-85154821D01*
X174303571Y-85011964D01*
X174303571Y-84797678D01*
X174375000Y-84654821D01*
X174446428Y-84583392D01*
X174303571Y-86940535D02*
X175303571Y-87226250D01*
X174589285Y-87511964D01*
X175303571Y-87797678D01*
X174303571Y-88083392D01*
X175303571Y-88654821D02*
X174303571Y-88654821D01*
X173803571Y-88654821D02*
X173875000Y-88583392D01*
X173946428Y-88654821D01*
X173875000Y-88726250D01*
X173803571Y-88654821D01*
X173946428Y-88654821D01*
X174303571Y-89154821D02*
X174303571Y-89726250D01*
X173803571Y-89369107D02*
X175089285Y-89369107D01*
X175232142Y-89440535D01*
X175303571Y-89583392D01*
X175303571Y-89726250D01*
X175303571Y-90226250D02*
X173803571Y-90226250D01*
X175303571Y-90869107D02*
X174517857Y-90869107D01*
X174375000Y-90797678D01*
X174303571Y-90654821D01*
X174303571Y-90440535D01*
X174375000Y-90297678D01*
X174446428Y-90226250D01*
X173803571Y-92583392D02*
X175303571Y-93583392D01*
X173803571Y-93583392D02*
X175303571Y-92583392D01*
X173803571Y-93940535D02*
X173803571Y-94797678D01*
X175303571Y-94369107D02*
X173803571Y-94369107D01*
X174732142Y-95297678D02*
X174732142Y-96440535D01*
X175303571Y-97154821D02*
X173803571Y-97154821D01*
X175303571Y-97869107D02*
X173803571Y-97869107D01*
X173803571Y-98226250D01*
X173875000Y-98440535D01*
X174017857Y-98583392D01*
X174160714Y-98654821D01*
X174446428Y-98726250D01*
X174660714Y-98726250D01*
X174946428Y-98654821D01*
X175089285Y-98583392D01*
X175232142Y-98440535D01*
X175303571Y-98226250D01*
X175303571Y-97869107D01*
X174517857Y-99369107D02*
X174517857Y-99869107D01*
X175303571Y-100083392D02*
X175303571Y-99369107D01*
X173803571Y-99369107D01*
X173803571Y-100083392D01*
X174517857Y-102369107D02*
X174589285Y-102583392D01*
X174660714Y-102654821D01*
X174803571Y-102726250D01*
X175017857Y-102726250D01*
X175160714Y-102654821D01*
X175232142Y-102583392D01*
X175303571Y-102440535D01*
X175303571Y-101869107D01*
X173803571Y-101869107D01*
X173803571Y-102369107D01*
X173875000Y-102511964D01*
X173946428Y-102583392D01*
X174089285Y-102654821D01*
X174232142Y-102654821D01*
X174375000Y-102583392D01*
X174446428Y-102511964D01*
X174517857Y-102369107D01*
X174517857Y-101869107D01*
X175303571Y-103369107D02*
X173803571Y-103369107D01*
X173803571Y-104369107D02*
X173803571Y-104654821D01*
X173875000Y-104797678D01*
X174017857Y-104940535D01*
X174303571Y-105011964D01*
X174803571Y-105011964D01*
X175089285Y-104940535D01*
X175232142Y-104797678D01*
X175303571Y-104654821D01*
X175303571Y-104369107D01*
X175232142Y-104226250D01*
X175089285Y-104083392D01*
X174803571Y-104011964D01*
X174303571Y-104011964D01*
X174017857Y-104083392D01*
X173875000Y-104226250D01*
X173803571Y-104369107D01*
X175232142Y-105583392D02*
X175303571Y-105797678D01*
X175303571Y-106154821D01*
X175232142Y-106297678D01*
X175160714Y-106369107D01*
X175017857Y-106440535D01*
X174875000Y-106440535D01*
X174732142Y-106369107D01*
X174660714Y-106297678D01*
X174589285Y-106154821D01*
X174517857Y-105869107D01*
X174446428Y-105726250D01*
X174375000Y-105654821D01*
X174232142Y-105583392D01*
X174089285Y-105583392D01*
X173946428Y-105654821D01*
X173875000Y-105726250D01*
X173803571Y-105869107D01*
X173803571Y-106226250D01*
X173875000Y-106440535D01*
M02*
