%TF.GenerationSoftware,KiCad,Pcbnew,(5.1.9)-1*%
%TF.CreationDate,2021-08-16T20:15:10+08:00*%
%TF.ProjectId,EX-HX-Combo,45582d48-582d-4436-9f6d-626f2e6b6963,rev?*%
%TF.SameCoordinates,Original*%
%TF.FileFunction,Soldermask,Bot*%
%TF.FilePolarity,Negative*%
%FSLAX46Y46*%
G04 Gerber Fmt 4.6, Leading zero omitted, Abs format (unit mm)*
G04 Created by KiCad (PCBNEW (5.1.9)-1) date 2021-08-16 20:15:10*
%MOMM*%
%LPD*%
G01*
G04 APERTURE LIST*
%ADD10C,0.100000*%
%ADD11C,3.000000*%
%ADD12O,1.700000X1.700000*%
%ADD13R,1.700000X1.700000*%
%ADD14O,1.600000X1.600000*%
%ADD15R,1.600000X1.600000*%
%ADD16C,5.001260*%
%ADD17O,1.998980X1.501140*%
%ADD18C,5.950000*%
%ADD19O,4.600000X4.800000*%
%ADD20O,7.280000X2.360000*%
%ADD21R,1.350000X1.350000*%
%ADD22O,1.350000X1.350000*%
%ADD23C,1.000000*%
G04 APERTURE END LIST*
D10*
G36*
X244525800Y-105404920D02*
G01*
X244530880Y-109474000D01*
X241802920Y-109476540D01*
X241795300Y-105397300D01*
X244525800Y-105404920D01*
G37*
X244525800Y-105404920D02*
X244530880Y-109474000D01*
X241802920Y-109476540D01*
X241795300Y-105397300D01*
X244525800Y-105404920D01*
G36*
X244538500Y-39453820D02*
G01*
X244543580Y-43522900D01*
X241815620Y-43525440D01*
X241808000Y-39446200D01*
X244538500Y-39453820D01*
G37*
X244538500Y-39453820D02*
X244543580Y-43522900D01*
X241815620Y-43525440D01*
X241808000Y-39446200D01*
X244538500Y-39453820D01*
G36*
X244533420Y-130550920D02*
G01*
X244538500Y-134620000D01*
X241810540Y-134622540D01*
X241802920Y-130543300D01*
X244533420Y-130550920D01*
G37*
X244533420Y-130550920D02*
X244538500Y-134620000D01*
X241810540Y-134622540D01*
X241802920Y-130543300D01*
X244533420Y-130550920D01*
D11*
%TO.C,H5*%
X141952000Y-17905000D02*
X136872000Y-17905000D01*
%TO.C,H7*%
X233048000Y-17905000D02*
X227968000Y-17905000D01*
%TO.C,H6*%
X167098000Y-17905000D02*
X162018000Y-17905000D01*
%TD*%
D12*
%TO.C,J2*%
X142240000Y-128270000D03*
X142240000Y-130810000D03*
X144780000Y-128270000D03*
X144780000Y-130810000D03*
X147320000Y-128270000D03*
X147320000Y-130810000D03*
X149860000Y-128270000D03*
X149860000Y-130810000D03*
X152400000Y-128270000D03*
X152400000Y-130810000D03*
X154940000Y-128270000D03*
X154940000Y-130810000D03*
X157480000Y-128270000D03*
X157480000Y-130810000D03*
X160020000Y-128270000D03*
X160020000Y-130810000D03*
X162560000Y-128270000D03*
X162560000Y-130810000D03*
X165100000Y-128270000D03*
X165100000Y-130810000D03*
X167640000Y-128270000D03*
X167640000Y-130810000D03*
X170180000Y-128270000D03*
X170180000Y-130810000D03*
X172720000Y-128270000D03*
X172720000Y-130810000D03*
X175260000Y-128270000D03*
X175260000Y-130810000D03*
X177800000Y-128270000D03*
X177800000Y-130810000D03*
X180340000Y-128270000D03*
X180340000Y-130810000D03*
X182880000Y-128270000D03*
X182880000Y-130810000D03*
X185420000Y-128270000D03*
X185420000Y-130810000D03*
X187960000Y-128270000D03*
X187960000Y-130810000D03*
X190500000Y-128270000D03*
X190500000Y-130810000D03*
X193040000Y-128270000D03*
X193040000Y-130810000D03*
X195580000Y-128270000D03*
X195580000Y-130810000D03*
X198120000Y-128270000D03*
X198120000Y-130810000D03*
X200660000Y-128270000D03*
X200660000Y-130810000D03*
X203200000Y-128270000D03*
X203200000Y-130810000D03*
X205740000Y-128270000D03*
X205740000Y-130810000D03*
X208280000Y-128270000D03*
X208280000Y-130810000D03*
X210820000Y-128270000D03*
X210820000Y-130810000D03*
X213360000Y-128270000D03*
X213360000Y-130810000D03*
X215900000Y-128270000D03*
X215900000Y-130810000D03*
X218440000Y-128270000D03*
D13*
X218440000Y-130810000D03*
%TD*%
D14*
%TO.C,U4*%
X175895000Y-43815000D03*
X193675000Y-51435000D03*
X178435000Y-43815000D03*
X191135000Y-51435000D03*
X180975000Y-43815000D03*
X188595000Y-51435000D03*
X183515000Y-43815000D03*
X186055000Y-51435000D03*
X186055000Y-43815000D03*
X183515000Y-51435000D03*
X188595000Y-43815000D03*
X180975000Y-51435000D03*
X191135000Y-43815000D03*
X178435000Y-51435000D03*
X193675000Y-43815000D03*
D15*
X175895000Y-51435000D03*
%TD*%
D16*
%TO.C,CN1*%
X231556000Y-107520740D03*
D17*
X233074920Y-124170440D03*
X233074920Y-121399300D03*
X233074920Y-118630700D03*
X233074920Y-115859560D03*
X230037080Y-114475260D03*
X230037080Y-117243860D03*
X230037080Y-125554740D03*
X230037080Y-122786140D03*
X230037080Y-120015000D03*
D16*
X231556000Y-132509260D03*
%TD*%
D14*
%TO.C,U2*%
X174625000Y-100965000D03*
X197485000Y-108585000D03*
X177165000Y-100965000D03*
X194945000Y-108585000D03*
X179705000Y-100965000D03*
X192405000Y-108585000D03*
X182245000Y-100965000D03*
X189865000Y-108585000D03*
X184785000Y-100965000D03*
X187325000Y-108585000D03*
X187325000Y-100965000D03*
X184785000Y-108585000D03*
X189865000Y-100965000D03*
X182245000Y-108585000D03*
X192405000Y-100965000D03*
X179705000Y-108585000D03*
X194945000Y-100965000D03*
X177165000Y-108585000D03*
X197485000Y-100965000D03*
D15*
X174625000Y-108585000D03*
%TD*%
D14*
%TO.C,U5*%
X156845000Y-80645000D03*
X194945000Y-95885000D03*
X159385000Y-80645000D03*
X192405000Y-95885000D03*
X161925000Y-80645000D03*
X189865000Y-95885000D03*
X164465000Y-80645000D03*
X187325000Y-95885000D03*
X167005000Y-80645000D03*
X184785000Y-95885000D03*
X169545000Y-80645000D03*
X182245000Y-95885000D03*
X172085000Y-80645000D03*
X179705000Y-95885000D03*
X174625000Y-80645000D03*
X177165000Y-95885000D03*
X177165000Y-80645000D03*
X174625000Y-95885000D03*
X179705000Y-80645000D03*
X172085000Y-95885000D03*
X182245000Y-80645000D03*
X169545000Y-95885000D03*
X184785000Y-80645000D03*
X167005000Y-95885000D03*
X187325000Y-80645000D03*
X164465000Y-95885000D03*
X189865000Y-80645000D03*
X161925000Y-95885000D03*
X192405000Y-80645000D03*
X159385000Y-95885000D03*
X194945000Y-80645000D03*
D15*
X156845000Y-95885000D03*
%TD*%
D14*
%TO.C,U1*%
X156845000Y-60960000D03*
X194945000Y-76200000D03*
X159385000Y-60960000D03*
X192405000Y-76200000D03*
X161925000Y-60960000D03*
X189865000Y-76200000D03*
X164465000Y-60960000D03*
X187325000Y-76200000D03*
X167005000Y-60960000D03*
X184785000Y-76200000D03*
X169545000Y-60960000D03*
X182245000Y-76200000D03*
X172085000Y-60960000D03*
X179705000Y-76200000D03*
X174625000Y-60960000D03*
X177165000Y-76200000D03*
X177165000Y-60960000D03*
X174625000Y-76200000D03*
X179705000Y-60960000D03*
X172085000Y-76200000D03*
X182245000Y-60960000D03*
X169545000Y-76200000D03*
X184785000Y-60960000D03*
X167005000Y-76200000D03*
X187325000Y-60960000D03*
X164465000Y-76200000D03*
X189865000Y-60960000D03*
X161925000Y-76200000D03*
X192405000Y-60960000D03*
X159385000Y-76200000D03*
X194945000Y-60960000D03*
D15*
X156845000Y-76200000D03*
%TD*%
D18*
%TO.C,H2*%
X228640000Y-24905000D03*
%TD*%
%TO.C,H1*%
X234990000Y-24905000D03*
%TD*%
%TO.C,H3*%
X129580000Y-24905000D03*
%TD*%
%TO.C,H4*%
X123230000Y-24905000D03*
%TD*%
D14*
%TO.C,SW1*%
X132080000Y-66675000D03*
X139700000Y-43815000D03*
X132080000Y-64135000D03*
X139700000Y-46355000D03*
X132080000Y-61595000D03*
X139700000Y-48895000D03*
X132080000Y-59055000D03*
X139700000Y-51435000D03*
X132080000Y-56515000D03*
X139700000Y-53975000D03*
X132080000Y-53975000D03*
X139700000Y-56515000D03*
X132080000Y-51435000D03*
X139700000Y-59055000D03*
X132080000Y-48895000D03*
X139700000Y-61595000D03*
X132080000Y-46355000D03*
X139700000Y-64135000D03*
X132080000Y-43815000D03*
D15*
X139700000Y-66675000D03*
%TD*%
D19*
%TO.C,H8*%
X139490740Y-24955000D03*
X164479260Y-24955000D03*
%TD*%
D20*
%TO.C,H5*%
X139412000Y-17905000D03*
%TD*%
%TO.C,H7*%
X230508000Y-17905000D03*
%TD*%
%TO.C,H6*%
X164558000Y-17905000D03*
%TD*%
D15*
%TO.C,U9*%
X125095000Y-103505000D03*
D14*
X147955000Y-95885000D03*
X127635000Y-103505000D03*
X145415000Y-95885000D03*
X130175000Y-103505000D03*
X142875000Y-95885000D03*
X132715000Y-103505000D03*
X140335000Y-95885000D03*
X135255000Y-103505000D03*
X137795000Y-95885000D03*
X137795000Y-103505000D03*
X135255000Y-95885000D03*
X140335000Y-103505000D03*
X132715000Y-95885000D03*
X142875000Y-103505000D03*
X130175000Y-95885000D03*
X145415000Y-103505000D03*
X127635000Y-95885000D03*
X147955000Y-103505000D03*
X125095000Y-95885000D03*
%TD*%
%TO.C,U8*%
X125095000Y-76200000D03*
X147955000Y-83820000D03*
X127635000Y-76200000D03*
X145415000Y-83820000D03*
X130175000Y-76200000D03*
X142875000Y-83820000D03*
X132715000Y-76200000D03*
X140335000Y-83820000D03*
X135255000Y-76200000D03*
X137795000Y-83820000D03*
X137795000Y-76200000D03*
X135255000Y-83820000D03*
X140335000Y-76200000D03*
X132715000Y-83820000D03*
X142875000Y-76200000D03*
X130175000Y-83820000D03*
X145415000Y-76200000D03*
X127635000Y-83820000D03*
X147955000Y-76200000D03*
D15*
X125095000Y-83820000D03*
%TD*%
D21*
%TO.C,J1*%
X204540000Y-56000000D03*
D22*
X206540000Y-56000000D03*
X204540000Y-58000000D03*
X206540000Y-58000000D03*
X204540000Y-60000000D03*
X206540000Y-60000000D03*
X204540000Y-62000000D03*
X206540000Y-62000000D03*
X204540000Y-64000000D03*
X206540000Y-64000000D03*
X204540000Y-66000000D03*
X206540000Y-66000000D03*
X204540000Y-68000000D03*
X206540000Y-68000000D03*
X204540000Y-70000000D03*
X206540000Y-70000000D03*
X204540000Y-72000000D03*
X206540000Y-72000000D03*
X204540000Y-74000000D03*
X206540000Y-74000000D03*
X204540000Y-76000000D03*
X206540000Y-76000000D03*
X204540000Y-78000000D03*
X206540000Y-78000000D03*
X204540000Y-80000000D03*
X206540000Y-80000000D03*
X204540000Y-82000000D03*
X206540000Y-82000000D03*
X204540000Y-84000000D03*
X206540000Y-84000000D03*
X204540000Y-86000000D03*
X206540000Y-86000000D03*
X204540000Y-88000000D03*
X206540000Y-88000000D03*
X204540000Y-90000000D03*
X206540000Y-90000000D03*
X204540000Y-92000000D03*
X206540000Y-92000000D03*
X204540000Y-94000000D03*
X206540000Y-94000000D03*
X204540000Y-96000000D03*
X206540000Y-96000000D03*
X204540000Y-98000000D03*
X206540000Y-98000000D03*
%TD*%
D23*
%TO.C,Y1*%
X172720000Y-53335000D03*
X172720000Y-51435000D03*
%TD*%
D12*
%TO.C,J3*%
X142240000Y-121920000D03*
X142240000Y-124460000D03*
X144780000Y-121920000D03*
X144780000Y-124460000D03*
X147320000Y-121920000D03*
X147320000Y-124460000D03*
X149860000Y-121920000D03*
X149860000Y-124460000D03*
X152400000Y-121920000D03*
X152400000Y-124460000D03*
X154940000Y-121920000D03*
X154940000Y-124460000D03*
X157480000Y-121920000D03*
X157480000Y-124460000D03*
X160020000Y-121920000D03*
X160020000Y-124460000D03*
X162560000Y-121920000D03*
X162560000Y-124460000D03*
X165100000Y-121920000D03*
X165100000Y-124460000D03*
X167640000Y-121920000D03*
X167640000Y-124460000D03*
X170180000Y-121920000D03*
X170180000Y-124460000D03*
X172720000Y-121920000D03*
X172720000Y-124460000D03*
X175260000Y-121920000D03*
X175260000Y-124460000D03*
X177800000Y-121920000D03*
X177800000Y-124460000D03*
X180340000Y-121920000D03*
X180340000Y-124460000D03*
X182880000Y-121920000D03*
X182880000Y-124460000D03*
X185420000Y-121920000D03*
X185420000Y-124460000D03*
X187960000Y-121920000D03*
X187960000Y-124460000D03*
X190500000Y-121920000D03*
X190500000Y-124460000D03*
X193040000Y-121920000D03*
X193040000Y-124460000D03*
X195580000Y-121920000D03*
X195580000Y-124460000D03*
X198120000Y-121920000D03*
X198120000Y-124460000D03*
X200660000Y-121920000D03*
X200660000Y-124460000D03*
X203200000Y-121920000D03*
X203200000Y-124460000D03*
X205740000Y-121920000D03*
X205740000Y-124460000D03*
X208280000Y-121920000D03*
X208280000Y-124460000D03*
X210820000Y-121920000D03*
X210820000Y-124460000D03*
X213360000Y-121920000D03*
X213360000Y-124460000D03*
X215900000Y-121920000D03*
X215900000Y-124460000D03*
X218440000Y-121920000D03*
D13*
X218440000Y-124460000D03*
%TD*%
M02*
