%TF.GenerationSoftware,KiCad,Pcbnew,(5.1.9)-1*%
%TF.CreationDate,2021-08-16T20:15:10+08:00*%
%TF.ProjectId,EX-HX-Combo,45582d48-582d-4436-9f6d-626f2e6b6963,rev?*%
%TF.SameCoordinates,Original*%
%TF.FileFunction,Profile,NP*%
%FSLAX46Y46*%
G04 Gerber Fmt 4.6, Leading zero omitted, Abs format (unit mm)*
G04 Created by KiCad (PCBNEW (5.1.9)-1) date 2021-08-16 20:15:10*
%MOMM*%
%LPD*%
G01*
G04 APERTURE LIST*
%TA.AperFunction,Profile*%
%ADD10C,0.100000*%
%TD*%
G04 APERTURE END LIST*
D10*
X240665000Y-33655000D02*
X244540000Y-33655000D01*
X123825000Y-33655000D02*
X120030000Y-33655000D01*
X123825000Y-37540000D02*
X120030000Y-37540000D01*
X126365000Y-37540000D02*
X142875000Y-37540000D01*
X142875000Y-33655000D02*
X126365000Y-33655000D01*
X145415000Y-37540000D02*
X161925000Y-37540000D01*
X161925000Y-33655000D02*
X145415000Y-33655000D01*
X164465000Y-37540000D02*
X180975000Y-37540000D01*
X180975000Y-33655000D02*
X164465000Y-33655000D01*
X183515000Y-37540000D02*
X200025000Y-37540000D01*
X200025000Y-33655000D02*
X183515000Y-33655000D01*
X219075000Y-37540000D02*
X202565000Y-37540000D01*
X202565000Y-33655000D02*
X219075000Y-33655000D01*
X221615000Y-33655000D02*
X238125000Y-33655000D01*
X238125000Y-37540000D02*
X221615000Y-37540000D01*
X243240000Y-37540000D02*
X240665000Y-37540000D01*
X240030000Y-34290000D02*
X240030000Y-36905000D01*
X238760000Y-36905000D02*
X238760000Y-34290000D01*
X220980000Y-36905000D02*
X220980000Y-34290000D01*
X219710000Y-36905000D02*
X219710000Y-34290000D01*
X201930000Y-36905000D02*
X201930000Y-34290000D01*
X200660000Y-36905000D02*
X200660000Y-34290000D01*
X182880000Y-36905000D02*
X182880000Y-34290000D01*
X181610000Y-36905000D02*
X181610000Y-34290000D01*
X163830000Y-36905000D02*
X163830000Y-34290000D01*
X162560000Y-34290000D02*
X162560000Y-36905000D01*
X144780000Y-36905000D02*
X144780000Y-34290000D01*
X143510000Y-34290000D02*
X143510000Y-36905000D01*
X125730000Y-34290000D02*
X125730000Y-36905000D01*
X124460000Y-36905000D02*
X124460000Y-34290000D01*
X124460000Y-36905000D02*
G75*
G02*
X123825000Y-37540000I-635000J0D01*
G01*
X126365000Y-37540000D02*
G75*
G02*
X125730000Y-36905000I0J635000D01*
G01*
X143510000Y-36905000D02*
G75*
G02*
X142875000Y-37540000I-635000J0D01*
G01*
X145415000Y-37540000D02*
G75*
G02*
X144780000Y-36905000I0J635000D01*
G01*
X162560000Y-36905000D02*
G75*
G02*
X161925000Y-37540000I-635000J0D01*
G01*
X164465000Y-37540000D02*
G75*
G02*
X163830000Y-36905000I0J635000D01*
G01*
X181610000Y-36905000D02*
G75*
G02*
X180975000Y-37540000I-635000J0D01*
G01*
X183515000Y-37540000D02*
G75*
G02*
X182880000Y-36905000I0J635000D01*
G01*
X202565000Y-37540000D02*
G75*
G02*
X201930000Y-36905000I0J635000D01*
G01*
X200660000Y-36905000D02*
G75*
G02*
X200025000Y-37540000I-635000J0D01*
G01*
X221615000Y-37540000D02*
G75*
G02*
X220980000Y-36905000I0J635000D01*
G01*
X219710000Y-36905000D02*
G75*
G02*
X219075000Y-37540000I-635000J0D01*
G01*
X240665000Y-37540000D02*
G75*
G02*
X240030000Y-36905000I0J635000D01*
G01*
X238760000Y-36905000D02*
G75*
G02*
X238125000Y-37540000I-635000J0D01*
G01*
X238125000Y-33655000D02*
G75*
G02*
X238760000Y-34290000I0J-635000D01*
G01*
X240030000Y-34290000D02*
G75*
G02*
X240665000Y-33655000I635000J0D01*
G01*
X219075000Y-33655000D02*
G75*
G02*
X219710000Y-34290000I0J-635000D01*
G01*
X220980000Y-34290000D02*
G75*
G02*
X221615000Y-33655000I635000J0D01*
G01*
X201930000Y-34290000D02*
G75*
G02*
X202565000Y-33655000I635000J0D01*
G01*
X200025000Y-33655000D02*
G75*
G02*
X200660000Y-34290000I0J-635000D01*
G01*
X182880000Y-34290000D02*
G75*
G02*
X183515000Y-33655000I635000J0D01*
G01*
X180975000Y-33655000D02*
G75*
G02*
X181610000Y-34290000I0J-635000D01*
G01*
X123825000Y-33655000D02*
G75*
G02*
X124460000Y-34290000I0J-635000D01*
G01*
X125730000Y-34290000D02*
G75*
G02*
X126365000Y-33655000I635000J0D01*
G01*
X142875000Y-33655000D02*
G75*
G02*
X143510000Y-34290000I0J-635000D01*
G01*
X144780000Y-34290000D02*
G75*
G02*
X145415000Y-33655000I635000J0D01*
G01*
X161925000Y-33655000D02*
G75*
G02*
X162560000Y-34290000I0J-635000D01*
G01*
X163830000Y-34290000D02*
G75*
G02*
X164465000Y-33655000I635000J0D01*
G01*
X244540000Y-16155000D02*
X120030000Y-16155000D01*
X243240000Y-103902000D02*
X243240000Y-45032000D01*
X144860000Y-19955000D02*
X159110000Y-19955000D01*
X142860000Y-27955000D02*
X142862388Y-21857300D01*
X159110000Y-29955000D02*
X144860000Y-29955000D01*
X161110000Y-21955000D02*
X161110000Y-27955000D01*
X144860000Y-29955000D02*
G75*
G02*
X142860000Y-27955000I0J2000000D01*
G01*
X142862388Y-21857300D02*
G75*
G02*
X144860000Y-19955000I1997612J-97700D01*
G01*
X161110000Y-27955000D02*
G75*
G02*
X159110000Y-29955000I-2000000J0D01*
G01*
X159110000Y-19955000D02*
G75*
G02*
X161110000Y-21955000I0J-2000000D01*
G01*
X243240000Y-136128000D02*
X243240000Y-136540000D01*
X243240000Y-37540000D02*
X243240000Y-37952000D01*
X243240000Y-38952000D02*
G75*
G02*
X243240000Y-37952000I0J500000D01*
G01*
X243240000Y-45032000D02*
G75*
G02*
X243240000Y-44032000I0J500000D01*
G01*
X243240000Y-104902000D02*
G75*
G02*
X243240000Y-103902000I0J500000D01*
G01*
X243240000Y-129048000D02*
X243240000Y-110982000D01*
X243240000Y-110982000D02*
G75*
G02*
X243240000Y-109982000I0J500000D01*
G01*
X243240000Y-130048000D02*
G75*
G02*
X243240000Y-129048000I0J500000D01*
G01*
X243240000Y-136128000D02*
G75*
G02*
X243240000Y-135128000I0J500000D01*
G01*
X244540000Y-38952000D02*
X244540000Y-44032000D01*
X243240000Y-38952000D02*
X244540000Y-38952000D01*
X244540000Y-135128000D02*
X244540000Y-130048000D01*
X243240000Y-130048000D02*
X244540000Y-130048000D01*
X244540000Y-104902000D02*
X244540000Y-109982000D01*
X243240000Y-104902000D02*
X244540000Y-104902000D01*
X243240000Y-135128000D02*
X244540000Y-135128000D01*
X168540000Y-20705000D02*
X168540000Y-21105000D01*
X168540000Y-20705000D02*
G75*
G02*
X168940000Y-20305000I400000J0D01*
G01*
X168940000Y-21505000D02*
G75*
G02*
X168540000Y-21105000I0J400000D01*
G01*
X221460000Y-20705000D02*
X221460000Y-21105000D01*
X221460000Y-21105000D02*
G75*
G02*
X221060000Y-21505000I-400000J0D01*
G01*
X221060000Y-20305000D02*
G75*
G02*
X221460000Y-20705000I0J-400000D01*
G01*
X219060000Y-23005000D02*
X220060000Y-23005000D01*
X171140000Y-25605000D02*
X219060000Y-25605000D01*
X171140000Y-23005000D02*
X169940000Y-23005000D01*
X221060000Y-20305000D02*
X168940000Y-20305000D01*
X220060000Y-21505000D02*
X221060000Y-21505000D01*
X168940000Y-21505000D02*
X169940000Y-21505000D01*
X220060000Y-21505000D02*
X220060000Y-23005000D01*
X219060000Y-23005000D02*
X219060000Y-25605000D01*
X171140000Y-23005000D02*
X171140000Y-25605000D01*
X169940000Y-21505000D02*
X169940000Y-23005000D01*
X243240000Y-136540000D02*
X120030000Y-136540000D01*
X243240000Y-109982000D02*
X244540000Y-109982000D01*
X243240000Y-44032000D02*
X244540000Y-44032000D01*
X120030000Y-136540000D02*
X120030000Y-37540000D01*
X120030000Y-16155000D02*
X120030000Y-33655000D01*
X244540000Y-16155000D02*
X244540000Y-33655000D01*
M02*
