M48
; DRILL file {KiCad (5.1.9)-1} date 09/26/21 19:59:12
; FORMAT={-:-/ absolute / metric / decimal}
; #@! TF.CreationDate,2021-09-26T19:59:12+08:00
; #@! TF.GenerationSoftware,Kicad,Pcbnew,(5.1.9)-1
FMAT,2
METRIC
T1C0.400
T2C0.500
T3C0.600
T4C0.800
T5C1.000
T6C3.200
%
G90
G05
T1
X126.365Y-47.625
X126.365Y-50.8
X126.365Y-53.975
X126.365Y-57.15
X126.365Y-60.325
X126.365Y-63.5
X126.365Y-66.675
X128.524Y-81.788
X133.858Y-114.3
X133.985Y-111.76
X137.16Y-118.364
X137.668Y-51.435
X137.795Y-111.76
X138.43Y-116.84
X138.684Y-114.3
X139.7Y-115.824
X141.224Y-115.062
X141.605Y-52.705
X141.605Y-55.245
X142.24Y-74.295
X142.24Y-74.295
X142.875Y-109.347
X145.542Y-117.856
X149.225Y-109.347
X149.513Y-117.554
X149.86Y-119.888
X150.876Y-115.824
X151.384Y-119.38
X152.4Y-115.824
X154.94Y-109.474
X154.94Y-119.392
X155.956Y-108.585
X157.099Y-107.95
X157.988Y-84.074
X158.115Y-74.549
X158.115Y-92.19
X158.75Y-116.332
X159.131Y-107.315
X159.385Y-64.77
X159.385Y-67.056
X160.401Y-107.315
X160.655Y-84.836
X161.925Y-66.421
X162.04Y-119.392
X162.982Y-109.474
X166.878Y-119.38
X167.005Y-106.934
X167.767Y-107.95
X168.627Y-108.839
X169.094Y-93.91
X169.799Y-109.474
X170.307Y-115.443
X171.45Y-93.98
X173.736Y-90.932
X174.498Y-92.456
X174.625Y-74.295
X175.768Y-115.062
X175.895Y-59.055
X175.895Y-74.295
X176.911Y-92.456
X178.308Y-92.456
X178.435Y-84.836
X178.435Y-112.776
X179.07Y-121.031
X179.705Y-90.932
X180.975Y-74.295
X180.975Y-90.932
X180.975Y-113.792
X182.245Y-84.836
X182.88Y-92.456
X183.515Y-114.681
X187.325Y-70.104
X187.325Y-110.49
X188.468Y-84.836
X188.595Y-65.024
X189.865Y-69.088
X190.246Y-116.332
X191.135Y-66.04
X192.405Y-68.072
X193.675Y-67.056
X195.58Y-71.755
X195.58Y-73.977
X196.85Y-84.455
X196.85Y-86.36
X196.85Y-116.332
X197.485Y-76.2
X197.485Y-78.105
X198.755Y-84.455
X198.755Y-86.36
X199.185Y-71.755
X199.185Y-73.977
X200.406Y-78.74
X202.184Y-105.664
X202.946Y-106.934
X203.708Y-108.966
X205.232Y-108.712
X206.502Y-109.728
X207.645Y-50.165
X208.534Y-109.728
X208.75Y-65.0
X209.55Y-106.292
X210.566Y-108.585
X211.25Y-54.25
X211.25Y-57.75
X211.25Y-59.5
X211.25Y-61.25
X211.582Y-107.442
X211.582Y-112.014
X212.598Y-109.982
X213.0Y-57.75
X213.0Y-59.5
X213.0Y-61.25
X214.775Y-50.75
X214.775Y-54.25
X214.775Y-57.75
X214.775Y-59.5
X216.25Y-76.25
X216.25Y-78.75
X217.5Y-106.0
X217.5Y-107.5
X217.5Y-109.0
X217.5Y-110.5
X217.5Y-112.0
X217.5Y-113.501
X217.5Y-115.0
X218.0Y-76.25
X219.25Y-88.25
X219.5Y-72.75
X220.25Y-76.0
X220.75Y-86.75
X221.0Y-72.75
X222.25Y-85.25
X224.0Y-80.5
X224.25Y-76.0
X225.425Y-107.95
X225.425Y-109.855
X229.966Y-112.014
X237.624Y-117.245
X237.858Y-72.746
X237.858Y-75.794
X237.858Y-78.842
X237.858Y-81.89
X238.0Y-102.0
X238.125Y-41.91
X238.125Y-55.245
X239.522Y-100.94
X239.522Y-103.124
X241.935Y-41.91
X241.935Y-59.055
T2
X172.72Y-51.435
X172.72Y-53.335
T3
X125.095Y-68.805
X125.095Y-71.755
X125.095Y-86.36
X125.095Y-88.265
X125.095Y-91.44
X125.095Y-98.425
X127.0Y-70.28
X127.0Y-88.265
X127.0Y-91.44
X127.902Y-41.91
X127.902Y-45.72
X128.27Y-112.395
X128.27Y-120.65
X129.54Y-43.815
X130.81Y-115.57
X132.398Y-125.412
X135.128Y-116.84
X135.89Y-42.291
X136.081Y-72.39
X136.207Y-67.945
X137.795Y-130.81
X137.795Y-130.81
X139.7Y-70.485
X139.7Y-120.65
X140.335Y-126.365
X142.875Y-42.291
X142.875Y-47.625
X144.78Y-62.865
X146.05Y-69.215
X146.368Y-42.291
X146.939Y-47.625
X147.32Y-80.01
X147.955Y-62.865
X148.59Y-69.215
X148.59Y-86.995
X148.59Y-100.965
X149.225Y-60.325
X149.225Y-80.645
X149.86Y-42.291
X150.925Y-47.625
X150.925Y-50.165
X150.925Y-55.245
X150.925Y-57.785
X150.925Y-62.865
X151.13Y-69.215
X151.765Y-82.55
X151.765Y-86.995
X152.4Y-100.965
X152.4Y-104.775
X152.4Y-108.585
X153.67Y-82.55
X153.67Y-89.154
X153.67Y-95.885
X153.67Y-98.425
X155.448Y-89.154
X155.575Y-82.55
X160.02Y-46.99
X160.02Y-50.8
X160.02Y-53.975
X160.02Y-57.785
X162.56Y-41.91
X166.37Y-41.91
X168.91Y-103.915
X169.975Y-41.91
X169.975Y-45.72
X170.18Y-105.41
X171.45Y-102.64
X171.45Y-106.68
X172.72Y-105.41
X173.99Y-103.915
X175.895Y-48.26
X177.165Y-55.88
X178.435Y-48.26
X187.96Y-48.26
X191.135Y-53.975
X192.278Y-117.856
X193.04Y-47.625
X194.31Y-117.856
X194.31Y-119.38
X196.215Y-53.975
X196.215Y-63.5
X197.485Y-96.0
X198.12Y-46.99
X198.12Y-60.96
X198.755Y-117.475
X199.185Y-94.0
X199.185Y-98.0
X199.39Y-51.435
X200.025Y-63.5
X202.5Y-83.0
X202.5Y-85.0
X202.565Y-101.1
X203.2Y-119.38
X204.47Y-101.6
X205.867Y-100.076
X213.995Y-107.061
X214.757Y-105.918
X220.84Y-116.205
X220.84Y-117.45
X224.155Y-116.522
X224.155Y-121.602
X225.044Y-112.014
X226.25Y-116.865
X226.25Y-120.65
X227.698Y-124.466
X227.698Y-126.086
X239.44Y-46.99
X239.44Y-53.34
T4
X125.095Y-76.2
X125.095Y-83.82
X125.095Y-95.885
X125.095Y-103.505
X127.635Y-76.2
X127.635Y-83.82
X127.635Y-95.885
X127.635Y-103.505
X130.175Y-76.2
X130.175Y-83.82
X130.175Y-95.885
X130.175Y-103.505
X132.08Y-46.355
X132.08Y-48.895
X132.08Y-51.435
X132.08Y-53.975
X132.08Y-56.515
X132.08Y-59.055
X132.08Y-61.595
X132.08Y-64.135
X132.715Y-76.2
X132.715Y-83.82
X132.715Y-95.885
X132.715Y-103.505
X135.255Y-76.2
X135.255Y-83.82
X135.255Y-95.885
X135.255Y-103.505
X137.795Y-76.2
X137.795Y-83.82
X137.795Y-95.885
X137.795Y-103.505
X139.7Y-46.355
X139.7Y-48.895
X139.7Y-51.435
X139.7Y-53.975
X139.7Y-56.515
X139.7Y-59.055
X139.7Y-61.595
X139.7Y-64.135
X140.335Y-76.2
X140.335Y-83.82
X140.335Y-95.885
X140.335Y-103.505
X142.875Y-76.2
X142.875Y-83.82
X142.875Y-95.885
X142.875Y-103.505
X145.415Y-76.2
X145.415Y-83.82
X145.415Y-95.885
X145.415Y-103.505
X147.955Y-76.2
X147.955Y-83.82
X147.955Y-95.885
X147.955Y-103.505
X156.845Y-60.96
X156.845Y-76.2
X156.845Y-80.645
X156.845Y-95.885
X159.385Y-60.96
X159.385Y-76.2
X159.385Y-80.645
X159.385Y-95.885
X161.925Y-60.96
X161.925Y-76.2
X161.925Y-80.645
X161.925Y-95.885
X164.465Y-60.96
X164.465Y-76.2
X164.465Y-80.645
X164.465Y-95.885
X167.005Y-60.96
X167.005Y-76.2
X167.005Y-80.645
X167.005Y-95.885
X169.545Y-60.96
X169.545Y-76.2
X169.545Y-80.645
X169.545Y-95.885
X172.085Y-60.96
X172.085Y-76.2
X172.085Y-80.645
X172.085Y-95.885
X174.625Y-60.96
X174.625Y-76.2
X174.625Y-80.645
X174.625Y-95.885
X174.625Y-100.965
X174.625Y-108.585
X175.895Y-43.815
X175.895Y-51.435
X177.165Y-60.96
X177.165Y-76.2
X177.165Y-80.645
X177.165Y-95.885
X177.165Y-100.965
X177.165Y-108.585
X178.435Y-43.815
X178.435Y-51.435
X179.705Y-60.96
X179.705Y-76.2
X179.705Y-80.645
X179.705Y-95.885
X179.705Y-100.965
X179.705Y-108.585
X180.975Y-43.815
X180.975Y-51.435
X182.245Y-60.96
X182.245Y-76.2
X182.245Y-80.645
X182.245Y-95.885
X182.245Y-100.965
X182.245Y-108.585
X183.515Y-43.815
X183.515Y-51.435
X184.785Y-60.96
X184.785Y-76.2
X184.785Y-80.645
X184.785Y-95.885
X184.785Y-100.965
X184.785Y-108.585
X186.055Y-43.815
X186.055Y-51.435
X187.325Y-60.96
X187.325Y-76.2
X187.325Y-80.645
X187.325Y-95.885
X187.325Y-100.965
X187.325Y-108.585
X188.595Y-43.815
X188.595Y-51.435
X189.865Y-60.96
X189.865Y-76.2
X189.865Y-80.645
X189.865Y-95.885
X189.865Y-100.965
X189.865Y-108.585
X191.135Y-43.815
X191.135Y-51.435
X192.405Y-60.96
X192.405Y-76.2
X192.405Y-80.645
X192.405Y-95.885
X192.405Y-100.965
X192.405Y-108.585
X193.675Y-43.815
X193.675Y-51.435
X194.945Y-60.96
X194.945Y-76.2
X194.945Y-80.645
X194.945Y-95.885
X194.945Y-100.965
X194.945Y-108.585
X197.485Y-100.965
X197.485Y-108.585
X204.54Y-56.0
X204.54Y-58.0
X204.54Y-60.0
X204.54Y-62.0
X204.54Y-64.0
X204.54Y-66.0
X204.54Y-68.0
X204.54Y-70.0
X204.54Y-72.0
X204.54Y-74.0
X204.54Y-76.0
X204.54Y-78.0
X204.54Y-80.0
X204.54Y-82.0
X204.54Y-84.0
X204.54Y-86.0
X204.54Y-88.0
X204.54Y-90.0
X204.54Y-92.0
X204.54Y-94.0
X204.54Y-96.0
X204.54Y-98.0
X206.54Y-56.0
X206.54Y-58.0
X206.54Y-60.0
X206.54Y-62.0
X206.54Y-64.0
X206.54Y-66.0
X206.54Y-68.0
X206.54Y-70.0
X206.54Y-72.0
X206.54Y-74.0
X206.54Y-76.0
X206.54Y-78.0
X206.54Y-80.0
X206.54Y-82.0
X206.54Y-84.0
X206.54Y-86.0
X206.54Y-88.0
X206.54Y-90.0
X206.54Y-92.0
X206.54Y-94.0
X206.54Y-96.0
X206.54Y-98.0
T5
X142.24Y-121.92
X142.24Y-124.46
X142.24Y-128.27
X142.24Y-130.81
X144.78Y-121.92
X144.78Y-124.46
X144.78Y-128.27
X144.78Y-130.81
X147.32Y-121.92
X147.32Y-124.46
X147.32Y-128.27
X147.32Y-130.81
X149.86Y-121.92
X149.86Y-124.46
X149.86Y-128.27
X149.86Y-130.81
X152.4Y-121.92
X152.4Y-124.46
X152.4Y-128.27
X152.4Y-130.81
X154.94Y-121.92
X154.94Y-124.46
X154.94Y-128.27
X154.94Y-130.81
X157.48Y-121.92
X157.48Y-124.46
X157.48Y-128.27
X157.48Y-130.81
X160.02Y-121.92
X160.02Y-124.46
X160.02Y-128.27
X160.02Y-130.81
X162.56Y-121.92
X162.56Y-124.46
X162.56Y-128.27
X162.56Y-130.81
X165.1Y-121.92
X165.1Y-124.46
X165.1Y-128.27
X165.1Y-130.81
X167.64Y-121.92
X167.64Y-124.46
X167.64Y-128.27
X167.64Y-130.81
X170.18Y-121.92
X170.18Y-124.46
X170.18Y-128.27
X170.18Y-130.81
X172.72Y-121.92
X172.72Y-124.46
X172.72Y-128.27
X172.72Y-130.81
X175.26Y-121.92
X175.26Y-124.46
X175.26Y-128.27
X175.26Y-130.81
X177.8Y-121.92
X177.8Y-124.46
X177.8Y-128.27
X177.8Y-130.81
X180.34Y-121.92
X180.34Y-124.46
X180.34Y-128.27
X180.34Y-130.81
X182.88Y-121.92
X182.88Y-124.46
X182.88Y-128.27
X182.88Y-130.81
X185.42Y-121.92
X185.42Y-124.46
X185.42Y-128.27
X185.42Y-130.81
X187.96Y-121.92
X187.96Y-124.46
X187.96Y-128.27
X187.96Y-130.81
X190.5Y-121.92
X190.5Y-124.46
X190.5Y-128.27
X190.5Y-130.81
X193.04Y-121.92
X193.04Y-124.46
X193.04Y-128.27
X193.04Y-130.81
X195.58Y-121.92
X195.58Y-124.46
X195.58Y-128.27
X195.58Y-130.81
X198.12Y-121.92
X198.12Y-124.46
X198.12Y-128.27
X198.12Y-130.81
X200.66Y-121.92
X200.66Y-124.46
X200.66Y-128.27
X200.66Y-130.81
X203.2Y-121.92
X203.2Y-124.46
X203.2Y-128.27
X203.2Y-130.81
X205.74Y-121.92
X205.74Y-124.46
X205.74Y-128.27
X205.74Y-130.81
X208.28Y-121.92
X208.28Y-124.46
X208.28Y-128.27
X208.28Y-130.81
X210.82Y-121.92
X210.82Y-124.46
X210.82Y-128.27
X210.82Y-130.81
X213.36Y-121.92
X213.36Y-124.46
X213.36Y-128.27
X213.36Y-130.81
X215.9Y-121.92
X215.9Y-124.46
X215.9Y-128.27
X215.9Y-130.81
X218.44Y-121.92
X218.44Y-124.46
X218.44Y-128.27
X218.44Y-130.81
X233.1Y-114.475
X233.1Y-117.245
X233.1Y-120.015
X233.1Y-122.785
X233.1Y-125.555
X235.94Y-115.86
X235.94Y-118.63
X235.94Y-121.4
X235.94Y-124.17
T6
X234.52Y-107.515
X234.52Y-132.515
T0
M30
