%TF.GenerationSoftware,KiCad,Pcbnew,(5.1.9)-1*%
%TF.CreationDate,2021-09-26T20:12:30+08:00*%
%TF.ProjectId,EX-HX-Combo,45582d48-582d-4436-9f6d-626f2e6b6963,rev?*%
%TF.SameCoordinates,Original*%
%TF.FileFunction,Soldermask,Bot*%
%TF.FilePolarity,Negative*%
%FSLAX46Y46*%
G04 Gerber Fmt 4.6, Leading zero omitted, Abs format (unit mm)*
G04 Created by KiCad (PCBNEW (5.1.9)-1) date 2021-09-26 20:12:30*
%MOMM*%
%LPD*%
G01*
G04 APERTURE LIST*
%ADD10O,1.600000X1.600000*%
%ADD11R,1.600000X1.600000*%
%ADD12C,4.000000*%
%ADD13C,1.600000*%
%ADD14O,1.700000X1.700000*%
%ADD15R,1.700000X1.700000*%
%ADD16R,1.350000X1.350000*%
%ADD17O,1.350000X1.350000*%
%ADD18C,1.000000*%
G04 APERTURE END LIST*
D10*
%TO.C,U5*%
X156845000Y-80645000D03*
X194945000Y-95885000D03*
X159385000Y-80645000D03*
X192405000Y-95885000D03*
X161925000Y-80645000D03*
X189865000Y-95885000D03*
X164465000Y-80645000D03*
X187325000Y-95885000D03*
X167005000Y-80645000D03*
X184785000Y-95885000D03*
X169545000Y-80645000D03*
X182245000Y-95885000D03*
X172085000Y-80645000D03*
X179705000Y-95885000D03*
X174625000Y-80645000D03*
X177165000Y-95885000D03*
X177165000Y-80645000D03*
X174625000Y-95885000D03*
X179705000Y-80645000D03*
X172085000Y-95885000D03*
X182245000Y-80645000D03*
X169545000Y-95885000D03*
X184785000Y-80645000D03*
X167005000Y-95885000D03*
X187325000Y-80645000D03*
X164465000Y-95885000D03*
X189865000Y-80645000D03*
X161925000Y-95885000D03*
X192405000Y-80645000D03*
X159385000Y-95885000D03*
X194945000Y-80645000D03*
D11*
X156845000Y-95885000D03*
%TD*%
D10*
%TO.C,SW1*%
X139700000Y-46355000D03*
X132080000Y-64135000D03*
X139700000Y-48895000D03*
X132080000Y-61595000D03*
X139700000Y-51435000D03*
X132080000Y-59055000D03*
X139700000Y-53975000D03*
X132080000Y-56515000D03*
X139700000Y-56515000D03*
X132080000Y-53975000D03*
X139700000Y-59055000D03*
X132080000Y-51435000D03*
X139700000Y-61595000D03*
X132080000Y-48895000D03*
X139700000Y-64135000D03*
D11*
X132080000Y-46355000D03*
%TD*%
D12*
%TO.C,CN1*%
X234520000Y-132515260D03*
X234520000Y-107515260D03*
D13*
X235940000Y-124170260D03*
X235940000Y-121400260D03*
X235940000Y-118630260D03*
X235940000Y-115860260D03*
D10*
X233100000Y-125555260D03*
D13*
X233100000Y-122785260D03*
X233100000Y-120015260D03*
X233100000Y-117245260D03*
D11*
X233100000Y-114475260D03*
%TD*%
D14*
%TO.C,J2*%
X142240000Y-128270000D03*
X142240000Y-130810000D03*
X144780000Y-128270000D03*
X144780000Y-130810000D03*
X147320000Y-128270000D03*
X147320000Y-130810000D03*
X149860000Y-128270000D03*
X149860000Y-130810000D03*
X152400000Y-128270000D03*
X152400000Y-130810000D03*
X154940000Y-128270000D03*
X154940000Y-130810000D03*
X157480000Y-128270000D03*
X157480000Y-130810000D03*
X160020000Y-128270000D03*
X160020000Y-130810000D03*
X162560000Y-128270000D03*
X162560000Y-130810000D03*
X165100000Y-128270000D03*
X165100000Y-130810000D03*
X167640000Y-128270000D03*
X167640000Y-130810000D03*
X170180000Y-128270000D03*
X170180000Y-130810000D03*
X172720000Y-128270000D03*
X172720000Y-130810000D03*
X175260000Y-128270000D03*
X175260000Y-130810000D03*
X177800000Y-128270000D03*
X177800000Y-130810000D03*
X180340000Y-128270000D03*
X180340000Y-130810000D03*
X182880000Y-128270000D03*
X182880000Y-130810000D03*
X185420000Y-128270000D03*
X185420000Y-130810000D03*
X187960000Y-128270000D03*
X187960000Y-130810000D03*
X190500000Y-128270000D03*
X190500000Y-130810000D03*
X193040000Y-128270000D03*
X193040000Y-130810000D03*
X195580000Y-128270000D03*
X195580000Y-130810000D03*
X198120000Y-128270000D03*
X198120000Y-130810000D03*
X200660000Y-128270000D03*
X200660000Y-130810000D03*
X203200000Y-128270000D03*
X203200000Y-130810000D03*
X205740000Y-128270000D03*
X205740000Y-130810000D03*
X208280000Y-128270000D03*
X208280000Y-130810000D03*
X210820000Y-128270000D03*
X210820000Y-130810000D03*
X213360000Y-128270000D03*
X213360000Y-130810000D03*
X215900000Y-128270000D03*
X215900000Y-130810000D03*
X218440000Y-128270000D03*
D15*
X218440000Y-130810000D03*
%TD*%
D10*
%TO.C,U4*%
X175895000Y-43815000D03*
X193675000Y-51435000D03*
X178435000Y-43815000D03*
X191135000Y-51435000D03*
X180975000Y-43815000D03*
X188595000Y-51435000D03*
X183515000Y-43815000D03*
X186055000Y-51435000D03*
X186055000Y-43815000D03*
X183515000Y-51435000D03*
X188595000Y-43815000D03*
X180975000Y-51435000D03*
X191135000Y-43815000D03*
X178435000Y-51435000D03*
X193675000Y-43815000D03*
D11*
X175895000Y-51435000D03*
%TD*%
D10*
%TO.C,U2*%
X174625000Y-100965000D03*
X197485000Y-108585000D03*
X177165000Y-100965000D03*
X194945000Y-108585000D03*
X179705000Y-100965000D03*
X192405000Y-108585000D03*
X182245000Y-100965000D03*
X189865000Y-108585000D03*
X184785000Y-100965000D03*
X187325000Y-108585000D03*
X187325000Y-100965000D03*
X184785000Y-108585000D03*
X189865000Y-100965000D03*
X182245000Y-108585000D03*
X192405000Y-100965000D03*
X179705000Y-108585000D03*
X194945000Y-100965000D03*
X177165000Y-108585000D03*
X197485000Y-100965000D03*
D11*
X174625000Y-108585000D03*
%TD*%
D10*
%TO.C,U1*%
X156845000Y-60960000D03*
X194945000Y-76200000D03*
X159385000Y-60960000D03*
X192405000Y-76200000D03*
X161925000Y-60960000D03*
X189865000Y-76200000D03*
X164465000Y-60960000D03*
X187325000Y-76200000D03*
X167005000Y-60960000D03*
X184785000Y-76200000D03*
X169545000Y-60960000D03*
X182245000Y-76200000D03*
X172085000Y-60960000D03*
X179705000Y-76200000D03*
X174625000Y-60960000D03*
X177165000Y-76200000D03*
X177165000Y-60960000D03*
X174625000Y-76200000D03*
X179705000Y-60960000D03*
X172085000Y-76200000D03*
X182245000Y-60960000D03*
X169545000Y-76200000D03*
X184785000Y-60960000D03*
X167005000Y-76200000D03*
X187325000Y-60960000D03*
X164465000Y-76200000D03*
X189865000Y-60960000D03*
X161925000Y-76200000D03*
X192405000Y-60960000D03*
X159385000Y-76200000D03*
X194945000Y-60960000D03*
D11*
X156845000Y-76200000D03*
%TD*%
%TO.C,U9*%
X125095000Y-103505000D03*
D10*
X147955000Y-95885000D03*
X127635000Y-103505000D03*
X145415000Y-95885000D03*
X130175000Y-103505000D03*
X142875000Y-95885000D03*
X132715000Y-103505000D03*
X140335000Y-95885000D03*
X135255000Y-103505000D03*
X137795000Y-95885000D03*
X137795000Y-103505000D03*
X135255000Y-95885000D03*
X140335000Y-103505000D03*
X132715000Y-95885000D03*
X142875000Y-103505000D03*
X130175000Y-95885000D03*
X145415000Y-103505000D03*
X127635000Y-95885000D03*
X147955000Y-103505000D03*
X125095000Y-95885000D03*
%TD*%
%TO.C,U8*%
X125095000Y-76200000D03*
X147955000Y-83820000D03*
X127635000Y-76200000D03*
X145415000Y-83820000D03*
X130175000Y-76200000D03*
X142875000Y-83820000D03*
X132715000Y-76200000D03*
X140335000Y-83820000D03*
X135255000Y-76200000D03*
X137795000Y-83820000D03*
X137795000Y-76200000D03*
X135255000Y-83820000D03*
X140335000Y-76200000D03*
X132715000Y-83820000D03*
X142875000Y-76200000D03*
X130175000Y-83820000D03*
X145415000Y-76200000D03*
X127635000Y-83820000D03*
X147955000Y-76200000D03*
D11*
X125095000Y-83820000D03*
%TD*%
D16*
%TO.C,J1*%
X204540000Y-56000000D03*
D17*
X206540000Y-56000000D03*
X204540000Y-58000000D03*
X206540000Y-58000000D03*
X204540000Y-60000000D03*
X206540000Y-60000000D03*
X204540000Y-62000000D03*
X206540000Y-62000000D03*
X204540000Y-64000000D03*
X206540000Y-64000000D03*
X204540000Y-66000000D03*
X206540000Y-66000000D03*
X204540000Y-68000000D03*
X206540000Y-68000000D03*
X204540000Y-70000000D03*
X206540000Y-70000000D03*
X204540000Y-72000000D03*
X206540000Y-72000000D03*
X204540000Y-74000000D03*
X206540000Y-74000000D03*
X204540000Y-76000000D03*
X206540000Y-76000000D03*
X204540000Y-78000000D03*
X206540000Y-78000000D03*
X204540000Y-80000000D03*
X206540000Y-80000000D03*
X204540000Y-82000000D03*
X206540000Y-82000000D03*
X204540000Y-84000000D03*
X206540000Y-84000000D03*
X204540000Y-86000000D03*
X206540000Y-86000000D03*
X204540000Y-88000000D03*
X206540000Y-88000000D03*
X204540000Y-90000000D03*
X206540000Y-90000000D03*
X204540000Y-92000000D03*
X206540000Y-92000000D03*
X204540000Y-94000000D03*
X206540000Y-94000000D03*
X204540000Y-96000000D03*
X206540000Y-96000000D03*
X204540000Y-98000000D03*
X206540000Y-98000000D03*
%TD*%
D18*
%TO.C,Y1*%
X172720000Y-53335000D03*
X172720000Y-51435000D03*
%TD*%
D14*
%TO.C,J3*%
X142240000Y-121920000D03*
X142240000Y-124460000D03*
X144780000Y-121920000D03*
X144780000Y-124460000D03*
X147320000Y-121920000D03*
X147320000Y-124460000D03*
X149860000Y-121920000D03*
X149860000Y-124460000D03*
X152400000Y-121920000D03*
X152400000Y-124460000D03*
X154940000Y-121920000D03*
X154940000Y-124460000D03*
X157480000Y-121920000D03*
X157480000Y-124460000D03*
X160020000Y-121920000D03*
X160020000Y-124460000D03*
X162560000Y-121920000D03*
X162560000Y-124460000D03*
X165100000Y-121920000D03*
X165100000Y-124460000D03*
X167640000Y-121920000D03*
X167640000Y-124460000D03*
X170180000Y-121920000D03*
X170180000Y-124460000D03*
X172720000Y-121920000D03*
X172720000Y-124460000D03*
X175260000Y-121920000D03*
X175260000Y-124460000D03*
X177800000Y-121920000D03*
X177800000Y-124460000D03*
X180340000Y-121920000D03*
X180340000Y-124460000D03*
X182880000Y-121920000D03*
X182880000Y-124460000D03*
X185420000Y-121920000D03*
X185420000Y-124460000D03*
X187960000Y-121920000D03*
X187960000Y-124460000D03*
X190500000Y-121920000D03*
X190500000Y-124460000D03*
X193040000Y-121920000D03*
X193040000Y-124460000D03*
X195580000Y-121920000D03*
X195580000Y-124460000D03*
X198120000Y-121920000D03*
X198120000Y-124460000D03*
X200660000Y-121920000D03*
X200660000Y-124460000D03*
X203200000Y-121920000D03*
X203200000Y-124460000D03*
X205740000Y-121920000D03*
X205740000Y-124460000D03*
X208280000Y-121920000D03*
X208280000Y-124460000D03*
X210820000Y-121920000D03*
X210820000Y-124460000D03*
X213360000Y-121920000D03*
X213360000Y-124460000D03*
X215900000Y-121920000D03*
X215900000Y-124460000D03*
X218440000Y-121920000D03*
D15*
X218440000Y-124460000D03*
%TD*%
M02*
