%TF.GenerationSoftware,KiCad,Pcbnew,(5.1.9)-1*%
%TF.CreationDate,2021-09-26T20:12:30+08:00*%
%TF.ProjectId,EX-HX-Combo,45582d48-582d-4436-9f6d-626f2e6b6963,rev?*%
%TF.SameCoordinates,Original*%
%TF.FileFunction,Legend,Bot*%
%TF.FilePolarity,Positive*%
%FSLAX46Y46*%
G04 Gerber Fmt 4.6, Leading zero omitted, Abs format (unit mm)*
G04 Created by KiCad (PCBNEW (5.1.9)-1) date 2021-09-26 20:12:30*
%MOMM*%
%LPD*%
G01*
G04 APERTURE LIST*
%ADD10C,0.150000*%
%ADD11C,0.100000*%
%ADD12C,0.175000*%
%ADD13C,0.120000*%
G04 APERTURE END LIST*
D10*
X223184404Y-109037380D02*
X223184404Y-108037380D01*
X222946309Y-108037380D01*
X222803452Y-108085000D01*
X222708214Y-108180238D01*
X222660595Y-108275476D01*
X222612976Y-108465952D01*
X222612976Y-108608809D01*
X222660595Y-108799285D01*
X222708214Y-108894523D01*
X222803452Y-108989761D01*
X222946309Y-109037380D01*
X223184404Y-109037380D01*
X222184404Y-109037380D02*
X222184404Y-108037380D01*
X221708214Y-109037380D02*
X221708214Y-108037380D01*
X221327261Y-108037380D01*
X221232023Y-108085000D01*
X221184404Y-108132619D01*
X221136785Y-108227857D01*
X221136785Y-108370714D01*
X221184404Y-108465952D01*
X221232023Y-108513571D01*
X221327261Y-108561190D01*
X221708214Y-108561190D01*
X219993928Y-108989761D02*
X219851071Y-109037380D01*
X219612976Y-109037380D01*
X219517738Y-108989761D01*
X219470119Y-108942142D01*
X219422500Y-108846904D01*
X219422500Y-108751666D01*
X219470119Y-108656428D01*
X219517738Y-108608809D01*
X219612976Y-108561190D01*
X219803452Y-108513571D01*
X219898690Y-108465952D01*
X219946309Y-108418333D01*
X219993928Y-108323095D01*
X219993928Y-108227857D01*
X219946309Y-108132619D01*
X219898690Y-108085000D01*
X219803452Y-108037380D01*
X219565357Y-108037380D01*
X219422500Y-108085000D01*
X219089166Y-108370714D02*
X218898690Y-109037380D01*
X218708214Y-108561190D01*
X218517738Y-109037380D01*
X218327261Y-108370714D01*
X217946309Y-109037380D02*
X217946309Y-108370714D01*
X217946309Y-108037380D02*
X217993928Y-108085000D01*
X217946309Y-108132619D01*
X217898690Y-108085000D01*
X217946309Y-108037380D01*
X217946309Y-108132619D01*
X217612976Y-108370714D02*
X217232023Y-108370714D01*
X217470119Y-108037380D02*
X217470119Y-108894523D01*
X217422500Y-108989761D01*
X217327261Y-109037380D01*
X217232023Y-109037380D01*
X216470119Y-108989761D02*
X216565357Y-109037380D01*
X216755833Y-109037380D01*
X216851071Y-108989761D01*
X216898690Y-108942142D01*
X216946309Y-108846904D01*
X216946309Y-108561190D01*
X216898690Y-108465952D01*
X216851071Y-108418333D01*
X216755833Y-108370714D01*
X216565357Y-108370714D01*
X216470119Y-108418333D01*
X216041547Y-109037380D02*
X216041547Y-108037380D01*
X215612976Y-109037380D02*
X215612976Y-108513571D01*
X215660595Y-108418333D01*
X215755833Y-108370714D01*
X215898690Y-108370714D01*
X215993928Y-108418333D01*
X216041547Y-108465952D01*
X214755833Y-108989761D02*
X214851071Y-109037380D01*
X215041547Y-109037380D01*
X215136785Y-108989761D01*
X215184404Y-108894523D01*
X215184404Y-108513571D01*
X215136785Y-108418333D01*
X215041547Y-108370714D01*
X214851071Y-108370714D01*
X214755833Y-108418333D01*
X214708214Y-108513571D01*
X214708214Y-108608809D01*
X215184404Y-108704047D01*
X214327261Y-108989761D02*
X214232023Y-109037380D01*
X214041547Y-109037380D01*
X213946309Y-108989761D01*
X213898690Y-108894523D01*
X213898690Y-108846904D01*
X213946309Y-108751666D01*
X214041547Y-108704047D01*
X214184404Y-108704047D01*
X214279642Y-108656428D01*
X214327261Y-108561190D01*
X214327261Y-108513571D01*
X214279642Y-108418333D01*
X214184404Y-108370714D01*
X214041547Y-108370714D01*
X213946309Y-108418333D01*
X213470119Y-108942142D02*
X213422500Y-108989761D01*
X213470119Y-109037380D01*
X213517738Y-108989761D01*
X213470119Y-108942142D01*
X213470119Y-109037380D01*
X213470119Y-108418333D02*
X213422500Y-108465952D01*
X213470119Y-108513571D01*
X213517738Y-108465952D01*
X213470119Y-108418333D01*
X213470119Y-108513571D01*
X189865000Y-120015000D02*
X189865000Y-109855000D01*
X203835000Y-120015000D02*
X203835000Y-109855000D01*
X223520000Y-120015000D02*
X223520000Y-109855000D01*
X175895000Y-120015000D02*
X223520000Y-120015000D01*
X175895000Y-109855000D02*
X175895000Y-120015000D01*
X170180000Y-109855000D02*
X170180000Y-114935000D01*
X172720000Y-109855000D02*
X172720000Y-114935000D01*
X153035000Y-114935000D02*
X153035000Y-109855000D01*
X139065000Y-114935000D02*
X139065000Y-109855000D01*
X125095000Y-114935000D02*
X125095000Y-109855000D01*
X170180000Y-114935000D02*
X170180000Y-120015000D01*
X153035000Y-114935000D02*
X153035000Y-120015000D01*
X139065000Y-114935000D02*
X139065000Y-120015000D01*
X172720000Y-117475000D02*
X125095000Y-117475000D01*
X125095000Y-120015000D02*
X125095000Y-114935000D01*
X172720000Y-120015000D02*
X125095000Y-120015000D01*
X172720000Y-114935000D02*
X172720000Y-120015000D01*
X146879642Y-116085952D02*
X146965357Y-116038333D01*
X147008214Y-115990714D01*
X147051071Y-115895476D01*
X147051071Y-115847857D01*
X147008214Y-115752619D01*
X146965357Y-115705000D01*
X146879642Y-115657380D01*
X146708214Y-115657380D01*
X146622500Y-115705000D01*
X146579642Y-115752619D01*
X146536785Y-115847857D01*
X146536785Y-115895476D01*
X146579642Y-115990714D01*
X146622500Y-116038333D01*
X146708214Y-116085952D01*
X146879642Y-116085952D01*
X146965357Y-116133571D01*
X147008214Y-116181190D01*
X147051071Y-116276428D01*
X147051071Y-116466904D01*
X147008214Y-116562142D01*
X146965357Y-116609761D01*
X146879642Y-116657380D01*
X146708214Y-116657380D01*
X146622500Y-116609761D01*
X146579642Y-116562142D01*
X146536785Y-116466904D01*
X146536785Y-116276428D01*
X146579642Y-116181190D01*
X146622500Y-116133571D01*
X146708214Y-116085952D01*
X145979642Y-115657380D02*
X145893928Y-115657380D01*
X145808214Y-115705000D01*
X145765357Y-115752619D01*
X145722500Y-115847857D01*
X145679642Y-116038333D01*
X145679642Y-116276428D01*
X145722500Y-116466904D01*
X145765357Y-116562142D01*
X145808214Y-116609761D01*
X145893928Y-116657380D01*
X145979642Y-116657380D01*
X146065357Y-116609761D01*
X146108214Y-116562142D01*
X146151071Y-116466904D01*
X146193928Y-116276428D01*
X146193928Y-116038333D01*
X146151071Y-115847857D01*
X146108214Y-115752619D01*
X146065357Y-115705000D01*
X145979642Y-115657380D01*
X145165357Y-116085952D02*
X145251071Y-116038333D01*
X145293928Y-115990714D01*
X145336785Y-115895476D01*
X145336785Y-115847857D01*
X145293928Y-115752619D01*
X145251071Y-115705000D01*
X145165357Y-115657380D01*
X144993928Y-115657380D01*
X144908214Y-115705000D01*
X144865357Y-115752619D01*
X144822500Y-115847857D01*
X144822500Y-115895476D01*
X144865357Y-115990714D01*
X144908214Y-116038333D01*
X144993928Y-116085952D01*
X145165357Y-116085952D01*
X145251071Y-116133571D01*
X145293928Y-116181190D01*
X145336785Y-116276428D01*
X145336785Y-116466904D01*
X145293928Y-116562142D01*
X145251071Y-116609761D01*
X145165357Y-116657380D01*
X144993928Y-116657380D01*
X144908214Y-116609761D01*
X144865357Y-116562142D01*
X144822500Y-116466904D01*
X144822500Y-116276428D01*
X144865357Y-116181190D01*
X144908214Y-116133571D01*
X144993928Y-116085952D01*
X144308214Y-116085952D02*
X144393928Y-116038333D01*
X144436785Y-115990714D01*
X144479642Y-115895476D01*
X144479642Y-115847857D01*
X144436785Y-115752619D01*
X144393928Y-115705000D01*
X144308214Y-115657380D01*
X144136785Y-115657380D01*
X144051071Y-115705000D01*
X144008214Y-115752619D01*
X143965357Y-115847857D01*
X143965357Y-115895476D01*
X144008214Y-115990714D01*
X144051071Y-116038333D01*
X144136785Y-116085952D01*
X144308214Y-116085952D01*
X144393928Y-116133571D01*
X144436785Y-116181190D01*
X144479642Y-116276428D01*
X144479642Y-116466904D01*
X144436785Y-116562142D01*
X144393928Y-116609761D01*
X144308214Y-116657380D01*
X144136785Y-116657380D01*
X144051071Y-116609761D01*
X144008214Y-116562142D01*
X143965357Y-116466904D01*
X143965357Y-116276428D01*
X144008214Y-116181190D01*
X144051071Y-116133571D01*
X144136785Y-116085952D01*
X133801785Y-115657380D02*
X133501785Y-116657380D01*
X133201785Y-115657380D01*
X132944642Y-115752619D02*
X132901785Y-115705000D01*
X132816071Y-115657380D01*
X132601785Y-115657380D01*
X132516071Y-115705000D01*
X132473214Y-115752619D01*
X132430357Y-115847857D01*
X132430357Y-115943095D01*
X132473214Y-116085952D01*
X132987500Y-116657380D01*
X132430357Y-116657380D01*
X131873214Y-115657380D02*
X131787500Y-115657380D01*
X131701785Y-115705000D01*
X131658928Y-115752619D01*
X131616071Y-115847857D01*
X131573214Y-116038333D01*
X131573214Y-116276428D01*
X131616071Y-116466904D01*
X131658928Y-116562142D01*
X131701785Y-116609761D01*
X131787500Y-116657380D01*
X131873214Y-116657380D01*
X131958928Y-116609761D01*
X132001785Y-116562142D01*
X132044642Y-116466904D01*
X132087500Y-116276428D01*
X132087500Y-116038333D01*
X132044642Y-115847857D01*
X132001785Y-115752619D01*
X131958928Y-115705000D01*
X131873214Y-115657380D01*
X146984404Y-118673571D02*
X146651071Y-118673571D01*
X146508214Y-119197380D02*
X146984404Y-119197380D01*
X146984404Y-118197380D01*
X146508214Y-118197380D01*
X146079642Y-118530714D02*
X146079642Y-119197380D01*
X146079642Y-118625952D02*
X146032023Y-118578333D01*
X145936785Y-118530714D01*
X145793928Y-118530714D01*
X145698690Y-118578333D01*
X145651071Y-118673571D01*
X145651071Y-119197380D01*
X144746309Y-119197380D02*
X144746309Y-118673571D01*
X144793928Y-118578333D01*
X144889166Y-118530714D01*
X145079642Y-118530714D01*
X145174880Y-118578333D01*
X144746309Y-119149761D02*
X144841547Y-119197380D01*
X145079642Y-119197380D01*
X145174880Y-119149761D01*
X145222500Y-119054523D01*
X145222500Y-118959285D01*
X145174880Y-118864047D01*
X145079642Y-118816428D01*
X144841547Y-118816428D01*
X144746309Y-118768809D01*
X144270119Y-119197380D02*
X144270119Y-118197380D01*
X144270119Y-118578333D02*
X144174880Y-118530714D01*
X143984404Y-118530714D01*
X143889166Y-118578333D01*
X143841547Y-118625952D01*
X143793928Y-118721190D01*
X143793928Y-119006904D01*
X143841547Y-119102142D01*
X143889166Y-119149761D01*
X143984404Y-119197380D01*
X144174880Y-119197380D01*
X144270119Y-119149761D01*
X143222500Y-119197380D02*
X143317738Y-119149761D01*
X143365357Y-119054523D01*
X143365357Y-118197380D01*
X142460595Y-119149761D02*
X142555833Y-119197380D01*
X142746309Y-119197380D01*
X142841547Y-119149761D01*
X142889166Y-119054523D01*
X142889166Y-118673571D01*
X142841547Y-118578333D01*
X142746309Y-118530714D01*
X142555833Y-118530714D01*
X142460595Y-118578333D01*
X142412976Y-118673571D01*
X142412976Y-118768809D01*
X142889166Y-118864047D01*
X141555833Y-119197380D02*
X141555833Y-118197380D01*
X141555833Y-119149761D02*
X141651071Y-119197380D01*
X141841547Y-119197380D01*
X141936785Y-119149761D01*
X141984404Y-119102142D01*
X142032023Y-119006904D01*
X142032023Y-118721190D01*
X141984404Y-118625952D01*
X141936785Y-118578333D01*
X141841547Y-118530714D01*
X141651071Y-118530714D01*
X141555833Y-118578333D01*
X133649404Y-119197380D02*
X133649404Y-118197380D01*
X133411309Y-118197380D01*
X133268452Y-118245000D01*
X133173214Y-118340238D01*
X133125595Y-118435476D01*
X133077976Y-118625952D01*
X133077976Y-118768809D01*
X133125595Y-118959285D01*
X133173214Y-119054523D01*
X133268452Y-119149761D01*
X133411309Y-119197380D01*
X133649404Y-119197380D01*
X132649404Y-119197380D02*
X132649404Y-118530714D01*
X132649404Y-118197380D02*
X132697023Y-118245000D01*
X132649404Y-118292619D01*
X132601785Y-118245000D01*
X132649404Y-118197380D01*
X132649404Y-118292619D01*
X132220833Y-119149761D02*
X132125595Y-119197380D01*
X131935119Y-119197380D01*
X131839880Y-119149761D01*
X131792261Y-119054523D01*
X131792261Y-119006904D01*
X131839880Y-118911666D01*
X131935119Y-118864047D01*
X132077976Y-118864047D01*
X132173214Y-118816428D01*
X132220833Y-118721190D01*
X132220833Y-118673571D01*
X132173214Y-118578333D01*
X132077976Y-118530714D01*
X131935119Y-118530714D01*
X131839880Y-118578333D01*
X130935119Y-119197380D02*
X130935119Y-118673571D01*
X130982738Y-118578333D01*
X131077976Y-118530714D01*
X131268452Y-118530714D01*
X131363690Y-118578333D01*
X130935119Y-119149761D02*
X131030357Y-119197380D01*
X131268452Y-119197380D01*
X131363690Y-119149761D01*
X131411309Y-119054523D01*
X131411309Y-118959285D01*
X131363690Y-118864047D01*
X131268452Y-118816428D01*
X131030357Y-118816428D01*
X130935119Y-118768809D01*
X130458928Y-119197380D02*
X130458928Y-118197380D01*
X130458928Y-118578333D02*
X130363690Y-118530714D01*
X130173214Y-118530714D01*
X130077976Y-118578333D01*
X130030357Y-118625952D01*
X129982738Y-118721190D01*
X129982738Y-119006904D01*
X130030357Y-119102142D01*
X130077976Y-119149761D01*
X130173214Y-119197380D01*
X130363690Y-119197380D01*
X130458928Y-119149761D01*
X129411309Y-119197380D02*
X129506547Y-119149761D01*
X129554166Y-119054523D01*
X129554166Y-118197380D01*
X128649404Y-119149761D02*
X128744642Y-119197380D01*
X128935119Y-119197380D01*
X129030357Y-119149761D01*
X129077976Y-119054523D01*
X129077976Y-118673571D01*
X129030357Y-118578333D01*
X128935119Y-118530714D01*
X128744642Y-118530714D01*
X128649404Y-118578333D01*
X128601785Y-118673571D01*
X128601785Y-118768809D01*
X129077976Y-118864047D01*
X127744642Y-119197380D02*
X127744642Y-118197380D01*
X127744642Y-119149761D02*
X127839880Y-119197380D01*
X128030357Y-119197380D01*
X128125595Y-119149761D01*
X128173214Y-119102142D01*
X128220833Y-119006904D01*
X128220833Y-118721190D01*
X128173214Y-118625952D01*
X128125595Y-118578333D01*
X128030357Y-118530714D01*
X127839880Y-118530714D01*
X127744642Y-118578333D01*
X138430000Y-118110000D02*
X134620000Y-118110000D01*
X134620000Y-119380000D02*
X138430000Y-119380000D01*
X138430000Y-119380000D02*
X138430000Y-118110000D01*
D11*
G36*
X135890000Y-119380000D02*
G01*
X134620000Y-119380000D01*
X134620000Y-118110000D01*
X135890000Y-118110000D01*
X135890000Y-119380000D01*
G37*
X135890000Y-119380000D02*
X134620000Y-119380000D01*
X134620000Y-118110000D01*
X135890000Y-118110000D01*
X135890000Y-119380000D01*
D10*
X134620000Y-118110000D02*
X134620000Y-119380000D01*
X134620000Y-116840000D02*
X138430000Y-116840000D01*
X138430000Y-116840000D02*
X138430000Y-115570000D01*
X134620000Y-115570000D02*
X134620000Y-116840000D01*
D11*
G36*
X135890000Y-116840000D02*
G01*
X134620000Y-116840000D01*
X134620000Y-115570000D01*
X135890000Y-115570000D01*
X135890000Y-116840000D01*
G37*
X135890000Y-116840000D02*
X134620000Y-116840000D01*
X134620000Y-115570000D01*
X135890000Y-115570000D01*
X135890000Y-116840000D01*
D10*
X138430000Y-115570000D02*
X134620000Y-115570000D01*
X138430000Y-115570000D02*
X134620000Y-115570000D01*
X134620000Y-116840000D02*
X138430000Y-116840000D01*
D11*
G36*
X135890000Y-116840000D02*
G01*
X134620000Y-116840000D01*
X134620000Y-115570000D01*
X135890000Y-115570000D01*
X135890000Y-116840000D01*
G37*
X135890000Y-116840000D02*
X134620000Y-116840000D01*
X134620000Y-115570000D01*
X135890000Y-115570000D01*
X135890000Y-116840000D01*
D10*
X138430000Y-116840000D02*
X138430000Y-115570000D01*
X134620000Y-115570000D02*
X134620000Y-116840000D01*
D11*
G36*
X151765000Y-119380000D02*
G01*
X150495000Y-119380000D01*
X150495000Y-118110000D01*
X151765000Y-118110000D01*
X151765000Y-119380000D01*
G37*
X151765000Y-119380000D02*
X150495000Y-119380000D01*
X150495000Y-118110000D01*
X151765000Y-118110000D01*
X151765000Y-119380000D01*
D10*
X147955000Y-119380000D02*
X151765000Y-119380000D01*
X151765000Y-119380000D02*
X151765000Y-118110000D01*
X151765000Y-118110000D02*
X147955000Y-118110000D01*
X147955000Y-118110000D02*
X147955000Y-119380000D01*
X151765000Y-116840000D02*
X151765000Y-115570000D01*
X147955000Y-116840000D02*
X151765000Y-116840000D01*
X151765000Y-115570000D02*
X147955000Y-115570000D01*
D11*
G36*
X151765000Y-116840000D02*
G01*
X150495000Y-116840000D01*
X150495000Y-115570000D01*
X151765000Y-115570000D01*
X151765000Y-116840000D01*
G37*
X151765000Y-116840000D02*
X150495000Y-116840000D01*
X150495000Y-115570000D01*
X151765000Y-115570000D01*
X151765000Y-116840000D01*
D10*
X147955000Y-115570000D02*
X147955000Y-116840000D01*
X171545238Y-118625952D02*
X171640476Y-118578333D01*
X171688095Y-118530714D01*
X171735714Y-118435476D01*
X171735714Y-118387857D01*
X171688095Y-118292619D01*
X171640476Y-118245000D01*
X171545238Y-118197380D01*
X171354761Y-118197380D01*
X171259523Y-118245000D01*
X171211904Y-118292619D01*
X171164285Y-118387857D01*
X171164285Y-118435476D01*
X171211904Y-118530714D01*
X171259523Y-118578333D01*
X171354761Y-118625952D01*
X171545238Y-118625952D01*
X171640476Y-118673571D01*
X171688095Y-118721190D01*
X171735714Y-118816428D01*
X171735714Y-119006904D01*
X171688095Y-119102142D01*
X171640476Y-119149761D01*
X171545238Y-119197380D01*
X171354761Y-119197380D01*
X171259523Y-119149761D01*
X171211904Y-119102142D01*
X171164285Y-119006904D01*
X171164285Y-118816428D01*
X171211904Y-118721190D01*
X171259523Y-118673571D01*
X171354761Y-118625952D01*
X171783333Y-115657380D02*
X171116666Y-115657380D01*
X171545238Y-116657380D01*
X168637976Y-116562142D02*
X168685595Y-116609761D01*
X168828452Y-116657380D01*
X168923690Y-116657380D01*
X169066547Y-116609761D01*
X169161785Y-116514523D01*
X169209404Y-116419285D01*
X169257023Y-116228809D01*
X169257023Y-116085952D01*
X169209404Y-115895476D01*
X169161785Y-115800238D01*
X169066547Y-115705000D01*
X168923690Y-115657380D01*
X168828452Y-115657380D01*
X168685595Y-115705000D01*
X168637976Y-115752619D01*
X168209404Y-116657380D02*
X168209404Y-115657380D01*
X167828452Y-115657380D01*
X167733214Y-115705000D01*
X167685595Y-115752619D01*
X167637976Y-115847857D01*
X167637976Y-115990714D01*
X167685595Y-116085952D01*
X167733214Y-116133571D01*
X167828452Y-116181190D01*
X168209404Y-116181190D01*
X167209404Y-115657380D02*
X167209404Y-116466904D01*
X167161785Y-116562142D01*
X167114166Y-116609761D01*
X167018928Y-116657380D01*
X166828452Y-116657380D01*
X166733214Y-116609761D01*
X166685595Y-116562142D01*
X166637976Y-116466904D01*
X166637976Y-115657380D01*
X165542738Y-115657380D02*
X164971309Y-115657380D01*
X165257023Y-116657380D02*
X165257023Y-115657380D01*
X164733214Y-115990714D02*
X164495119Y-116657380D01*
X164257023Y-115990714D02*
X164495119Y-116657380D01*
X164590357Y-116895476D01*
X164637976Y-116943095D01*
X164733214Y-116990714D01*
X163876071Y-115990714D02*
X163876071Y-116990714D01*
X163876071Y-116038333D02*
X163780833Y-115990714D01*
X163590357Y-115990714D01*
X163495119Y-116038333D01*
X163447500Y-116085952D01*
X163399880Y-116181190D01*
X163399880Y-116466904D01*
X163447500Y-116562142D01*
X163495119Y-116609761D01*
X163590357Y-116657380D01*
X163780833Y-116657380D01*
X163876071Y-116609761D01*
X162590357Y-116609761D02*
X162685595Y-116657380D01*
X162876071Y-116657380D01*
X162971309Y-116609761D01*
X163018928Y-116514523D01*
X163018928Y-116133571D01*
X162971309Y-116038333D01*
X162876071Y-115990714D01*
X162685595Y-115990714D01*
X162590357Y-116038333D01*
X162542738Y-116133571D01*
X162542738Y-116228809D01*
X163018928Y-116324047D01*
X168637976Y-119102142D02*
X168685595Y-119149761D01*
X168828452Y-119197380D01*
X168923690Y-119197380D01*
X169066547Y-119149761D01*
X169161785Y-119054523D01*
X169209404Y-118959285D01*
X169257023Y-118768809D01*
X169257023Y-118625952D01*
X169209404Y-118435476D01*
X169161785Y-118340238D01*
X169066547Y-118245000D01*
X168923690Y-118197380D01*
X168828452Y-118197380D01*
X168685595Y-118245000D01*
X168637976Y-118292619D01*
X168018928Y-118197380D02*
X167828452Y-118197380D01*
X167733214Y-118245000D01*
X167637976Y-118340238D01*
X167590357Y-118530714D01*
X167590357Y-118864047D01*
X167637976Y-119054523D01*
X167733214Y-119149761D01*
X167828452Y-119197380D01*
X168018928Y-119197380D01*
X168114166Y-119149761D01*
X168209404Y-119054523D01*
X168257023Y-118864047D01*
X168257023Y-118530714D01*
X168209404Y-118340238D01*
X168114166Y-118245000D01*
X168018928Y-118197380D01*
X167161785Y-119197380D02*
X167161785Y-118197380D01*
X166828452Y-118911666D01*
X166495119Y-118197380D01*
X166495119Y-119197380D01*
X165495119Y-119197380D02*
X166066547Y-119197380D01*
X165780833Y-119197380D02*
X165780833Y-118197380D01*
X165876071Y-118340238D01*
X165971309Y-118435476D01*
X166066547Y-118483095D01*
X188769047Y-134072380D02*
X188769047Y-134786666D01*
X188816666Y-134929523D01*
X188911904Y-135024761D01*
X189054761Y-135072380D01*
X189150000Y-135072380D01*
X187816666Y-135072380D02*
X188292857Y-135072380D01*
X188292857Y-134072380D01*
X186911904Y-134977142D02*
X186959523Y-135024761D01*
X187102380Y-135072380D01*
X187197619Y-135072380D01*
X187340476Y-135024761D01*
X187435714Y-134929523D01*
X187483333Y-134834285D01*
X187530952Y-134643809D01*
X187530952Y-134500952D01*
X187483333Y-134310476D01*
X187435714Y-134215238D01*
X187340476Y-134120000D01*
X187197619Y-134072380D01*
X187102380Y-134072380D01*
X186959523Y-134120000D01*
X186911904Y-134167619D01*
X186197619Y-134072380D02*
X186197619Y-134786666D01*
X186245238Y-134929523D01*
X186340476Y-135024761D01*
X186483333Y-135072380D01*
X186578571Y-135072380D01*
X185245238Y-135072380D02*
X185721428Y-135072380D01*
X185721428Y-134072380D01*
X184340476Y-134977142D02*
X184388095Y-135024761D01*
X184530952Y-135072380D01*
X184626190Y-135072380D01*
X184769047Y-135024761D01*
X184864285Y-134929523D01*
X184911904Y-134834285D01*
X184959523Y-134643809D01*
X184959523Y-134500952D01*
X184911904Y-134310476D01*
X184864285Y-134215238D01*
X184769047Y-134120000D01*
X184626190Y-134072380D01*
X184530952Y-134072380D01*
X184388095Y-134120000D01*
X184340476Y-134167619D01*
X183626190Y-134072380D02*
X183626190Y-134786666D01*
X183673809Y-134929523D01*
X183769047Y-135024761D01*
X183911904Y-135072380D01*
X184007142Y-135072380D01*
X182673809Y-135072380D02*
X183150000Y-135072380D01*
X183150000Y-134072380D01*
X181769047Y-134977142D02*
X181816666Y-135024761D01*
X181959523Y-135072380D01*
X182054761Y-135072380D01*
X182197619Y-135024761D01*
X182292857Y-134929523D01*
X182340476Y-134834285D01*
X182388095Y-134643809D01*
X182388095Y-134500952D01*
X182340476Y-134310476D01*
X182292857Y-134215238D01*
X182197619Y-134120000D01*
X182054761Y-134072380D01*
X181959523Y-134072380D01*
X181816666Y-134120000D01*
X181769047Y-134167619D01*
X181054761Y-134072380D02*
X181054761Y-134786666D01*
X181102380Y-134929523D01*
X181197619Y-135024761D01*
X181340476Y-135072380D01*
X181435714Y-135072380D01*
X180102380Y-135072380D02*
X180578571Y-135072380D01*
X180578571Y-134072380D01*
X179197619Y-134977142D02*
X179245238Y-135024761D01*
X179388095Y-135072380D01*
X179483333Y-135072380D01*
X179626190Y-135024761D01*
X179721428Y-134929523D01*
X179769047Y-134834285D01*
X179816666Y-134643809D01*
X179816666Y-134500952D01*
X179769047Y-134310476D01*
X179721428Y-134215238D01*
X179626190Y-134120000D01*
X179483333Y-134072380D01*
X179388095Y-134072380D01*
X179245238Y-134120000D01*
X179197619Y-134167619D01*
X211589523Y-53697142D02*
X211637142Y-53744761D01*
X211780000Y-53792380D01*
X211875238Y-53792380D01*
X212018095Y-53744761D01*
X212113333Y-53649523D01*
X212160952Y-53554285D01*
X212208571Y-53363809D01*
X212208571Y-53220952D01*
X212160952Y-53030476D01*
X212113333Y-52935238D01*
X212018095Y-52840000D01*
X211875238Y-52792380D01*
X211780000Y-52792380D01*
X211637142Y-52840000D01*
X211589523Y-52887619D01*
X210827619Y-53268571D02*
X211160952Y-53268571D01*
X211160952Y-53792380D02*
X211160952Y-52792380D01*
X210684761Y-52792380D01*
X209589523Y-53506666D02*
X209113333Y-53506666D01*
X209684761Y-53792380D02*
X209351428Y-52792380D01*
X209018095Y-53792380D01*
X208256190Y-53792380D02*
X208256190Y-52792380D01*
X208256190Y-53744761D02*
X208351428Y-53792380D01*
X208541904Y-53792380D01*
X208637142Y-53744761D01*
X208684761Y-53697142D01*
X208732380Y-53601904D01*
X208732380Y-53316190D01*
X208684761Y-53220952D01*
X208637142Y-53173333D01*
X208541904Y-53125714D01*
X208351428Y-53125714D01*
X208256190Y-53173333D01*
X207351428Y-53792380D02*
X207351428Y-53268571D01*
X207399047Y-53173333D01*
X207494285Y-53125714D01*
X207684761Y-53125714D01*
X207780000Y-53173333D01*
X207351428Y-53744761D02*
X207446666Y-53792380D01*
X207684761Y-53792380D01*
X207780000Y-53744761D01*
X207827619Y-53649523D01*
X207827619Y-53554285D01*
X207780000Y-53459047D01*
X207684761Y-53411428D01*
X207446666Y-53411428D01*
X207351428Y-53363809D01*
X206875238Y-53125714D02*
X206875238Y-54125714D01*
X206875238Y-53173333D02*
X206780000Y-53125714D01*
X206589523Y-53125714D01*
X206494285Y-53173333D01*
X206446666Y-53220952D01*
X206399047Y-53316190D01*
X206399047Y-53601904D01*
X206446666Y-53697142D01*
X206494285Y-53744761D01*
X206589523Y-53792380D01*
X206780000Y-53792380D01*
X206875238Y-53744761D01*
X206113333Y-53125714D02*
X205732380Y-53125714D01*
X205970476Y-52792380D02*
X205970476Y-53649523D01*
X205922857Y-53744761D01*
X205827619Y-53792380D01*
X205732380Y-53792380D01*
X205018095Y-53744761D02*
X205113333Y-53792380D01*
X205303809Y-53792380D01*
X205399047Y-53744761D01*
X205446666Y-53649523D01*
X205446666Y-53268571D01*
X205399047Y-53173333D01*
X205303809Y-53125714D01*
X205113333Y-53125714D01*
X205018095Y-53173333D01*
X204970476Y-53268571D01*
X204970476Y-53363809D01*
X205446666Y-53459047D01*
X204541904Y-53792380D02*
X204541904Y-53125714D01*
X204541904Y-53316190D02*
X204494285Y-53220952D01*
X204446666Y-53173333D01*
X204351428Y-53125714D01*
X204256190Y-53125714D01*
X230392142Y-125357095D02*
X230439761Y-125309476D01*
X230487380Y-125166619D01*
X230487380Y-125071380D01*
X230439761Y-124928523D01*
X230344523Y-124833285D01*
X230249285Y-124785666D01*
X230058809Y-124738047D01*
X229915952Y-124738047D01*
X229725476Y-124785666D01*
X229630238Y-124833285D01*
X229535000Y-124928523D01*
X229487380Y-125071380D01*
X229487380Y-125166619D01*
X229535000Y-125309476D01*
X229582619Y-125357095D01*
X229487380Y-125976142D02*
X229487380Y-126166619D01*
X229535000Y-126261857D01*
X229630238Y-126357095D01*
X229820714Y-126404714D01*
X230154047Y-126404714D01*
X230344523Y-126357095D01*
X230439761Y-126261857D01*
X230487380Y-126166619D01*
X230487380Y-125976142D01*
X230439761Y-125880904D01*
X230344523Y-125785666D01*
X230154047Y-125738047D01*
X229820714Y-125738047D01*
X229630238Y-125785666D01*
X229535000Y-125880904D01*
X229487380Y-125976142D01*
X230487380Y-126833285D02*
X229487380Y-126833285D01*
X230201666Y-127166619D01*
X229487380Y-127499952D01*
X230487380Y-127499952D01*
X230487380Y-128499952D02*
X230487380Y-127928523D01*
X230487380Y-128214238D02*
X229487380Y-128214238D01*
X229630238Y-128119000D01*
X229725476Y-128023761D01*
X229773095Y-127928523D01*
X140491547Y-122582380D02*
X140491547Y-122820476D01*
X140729642Y-122725238D02*
X140491547Y-122820476D01*
X140253452Y-122725238D01*
X140634404Y-123010952D02*
X140491547Y-122820476D01*
X140348690Y-123010952D01*
X139253452Y-122582380D02*
X138682023Y-122582380D01*
X138967738Y-123582380D02*
X138967738Y-122582380D01*
X138348690Y-123582380D02*
X138348690Y-122582380D01*
X137920119Y-123582380D02*
X137920119Y-123058571D01*
X137967738Y-122963333D01*
X138062976Y-122915714D01*
X138205833Y-122915714D01*
X138301071Y-122963333D01*
X138348690Y-123010952D01*
X137062976Y-123534761D02*
X137158214Y-123582380D01*
X137348690Y-123582380D01*
X137443928Y-123534761D01*
X137491547Y-123439523D01*
X137491547Y-123058571D01*
X137443928Y-122963333D01*
X137348690Y-122915714D01*
X137158214Y-122915714D01*
X137062976Y-122963333D01*
X137015357Y-123058571D01*
X137015357Y-123153809D01*
X137491547Y-123249047D01*
X135301071Y-123582380D02*
X135872500Y-123582380D01*
X135586785Y-123582380D02*
X135586785Y-122582380D01*
X135682023Y-122725238D01*
X135777261Y-122820476D01*
X135872500Y-122868095D01*
X134920119Y-122677619D02*
X134872500Y-122630000D01*
X134777261Y-122582380D01*
X134539166Y-122582380D01*
X134443928Y-122630000D01*
X134396309Y-122677619D01*
X134348690Y-122772857D01*
X134348690Y-122868095D01*
X134396309Y-123010952D01*
X134967738Y-123582380D01*
X134348690Y-123582380D01*
X133777261Y-123010952D02*
X133872500Y-122963333D01*
X133920119Y-122915714D01*
X133967738Y-122820476D01*
X133967738Y-122772857D01*
X133920119Y-122677619D01*
X133872500Y-122630000D01*
X133777261Y-122582380D01*
X133586785Y-122582380D01*
X133491547Y-122630000D01*
X133443928Y-122677619D01*
X133396309Y-122772857D01*
X133396309Y-122820476D01*
X133443928Y-122915714D01*
X133491547Y-122963333D01*
X133586785Y-123010952D01*
X133777261Y-123010952D01*
X133872500Y-123058571D01*
X133920119Y-123106190D01*
X133967738Y-123201428D01*
X133967738Y-123391904D01*
X133920119Y-123487142D01*
X133872500Y-123534761D01*
X133777261Y-123582380D01*
X133586785Y-123582380D01*
X133491547Y-123534761D01*
X133443928Y-123487142D01*
X133396309Y-123391904D01*
X133396309Y-123201428D01*
X133443928Y-123106190D01*
X133491547Y-123058571D01*
X133586785Y-123010952D01*
X132967738Y-123582380D02*
X132967738Y-122582380D01*
X132872500Y-123201428D02*
X132586785Y-123582380D01*
X132586785Y-122915714D02*
X132967738Y-123296666D01*
X132158214Y-123201428D02*
X131396309Y-123201428D01*
X130396309Y-123582380D02*
X130967738Y-123582380D01*
X130682023Y-123582380D02*
X130682023Y-122582380D01*
X130777261Y-122725238D01*
X130872500Y-122820476D01*
X130967738Y-122868095D01*
X129539166Y-122582380D02*
X129729642Y-122582380D01*
X129824880Y-122630000D01*
X129872500Y-122677619D01*
X129967738Y-122820476D01*
X130015357Y-123010952D01*
X130015357Y-123391904D01*
X129967738Y-123487142D01*
X129920119Y-123534761D01*
X129824880Y-123582380D01*
X129634404Y-123582380D01*
X129539166Y-123534761D01*
X129491547Y-123487142D01*
X129443928Y-123391904D01*
X129443928Y-123153809D01*
X129491547Y-123058571D01*
X129539166Y-123010952D01*
X129634404Y-122963333D01*
X129824880Y-122963333D01*
X129920119Y-123010952D01*
X129967738Y-123058571D01*
X130015357Y-123153809D01*
X128824880Y-122582380D02*
X128729642Y-122582380D01*
X128634404Y-122630000D01*
X128586785Y-122677619D01*
X128539166Y-122772857D01*
X128491547Y-122963333D01*
X128491547Y-123201428D01*
X128539166Y-123391904D01*
X128586785Y-123487142D01*
X128634404Y-123534761D01*
X128729642Y-123582380D01*
X128824880Y-123582380D01*
X128920119Y-123534761D01*
X128967738Y-123487142D01*
X129015357Y-123391904D01*
X129062976Y-123201428D01*
X129062976Y-122963333D01*
X129015357Y-122772857D01*
X128967738Y-122677619D01*
X128920119Y-122630000D01*
X128824880Y-122582380D01*
X128062976Y-123582380D02*
X128062976Y-122582380D01*
X127967738Y-123201428D02*
X127682023Y-123582380D01*
X127682023Y-122915714D02*
X128062976Y-123296666D01*
X126491547Y-122582380D02*
X126491547Y-123391904D01*
X126443928Y-123487142D01*
X126396309Y-123534761D01*
X126301071Y-123582380D01*
X126110595Y-123582380D01*
X126015357Y-123534761D01*
X125967738Y-123487142D01*
X125920119Y-123391904D01*
X125920119Y-122582380D01*
X125443928Y-123582380D02*
X125443928Y-122582380D01*
X125110595Y-123296666D01*
X124777261Y-122582380D01*
X124777261Y-123582380D01*
X123967738Y-123058571D02*
X123824880Y-123106190D01*
X123777261Y-123153809D01*
X123729642Y-123249047D01*
X123729642Y-123391904D01*
X123777261Y-123487142D01*
X123824880Y-123534761D01*
X123920119Y-123582380D01*
X124301071Y-123582380D01*
X124301071Y-122582380D01*
X123967738Y-122582380D01*
X123872500Y-122630000D01*
X123824880Y-122677619D01*
X123777261Y-122772857D01*
X123777261Y-122868095D01*
X123824880Y-122963333D01*
X123872500Y-123010952D01*
X123967738Y-123058571D01*
X124301071Y-123058571D01*
X138967738Y-125232380D02*
X139062976Y-125184761D01*
X139110595Y-125137142D01*
X139158214Y-125041904D01*
X139158214Y-124756190D01*
X139110595Y-124660952D01*
X139062976Y-124613333D01*
X138967738Y-124565714D01*
X138824880Y-124565714D01*
X138729642Y-124613333D01*
X138682023Y-124660952D01*
X138634404Y-124756190D01*
X138634404Y-125041904D01*
X138682023Y-125137142D01*
X138729642Y-125184761D01*
X138824880Y-125232380D01*
X138967738Y-125232380D01*
X138205833Y-124565714D02*
X138205833Y-125565714D01*
X138205833Y-124613333D02*
X138110595Y-124565714D01*
X137920119Y-124565714D01*
X137824880Y-124613333D01*
X137777261Y-124660952D01*
X137729642Y-124756190D01*
X137729642Y-125041904D01*
X137777261Y-125137142D01*
X137824880Y-125184761D01*
X137920119Y-125232380D01*
X138110595Y-125232380D01*
X138205833Y-125184761D01*
X137443928Y-124565714D02*
X137062976Y-124565714D01*
X137301071Y-124232380D02*
X137301071Y-125089523D01*
X137253452Y-125184761D01*
X137158214Y-125232380D01*
X137062976Y-125232380D01*
X136729642Y-125232380D02*
X136729642Y-124565714D01*
X136729642Y-124232380D02*
X136777261Y-124280000D01*
X136729642Y-124327619D01*
X136682023Y-124280000D01*
X136729642Y-124232380D01*
X136729642Y-124327619D01*
X136110595Y-125232380D02*
X136205833Y-125184761D01*
X136253452Y-125137142D01*
X136301071Y-125041904D01*
X136301071Y-124756190D01*
X136253452Y-124660952D01*
X136205833Y-124613333D01*
X136110595Y-124565714D01*
X135967738Y-124565714D01*
X135872500Y-124613333D01*
X135824880Y-124660952D01*
X135777261Y-124756190D01*
X135777261Y-125041904D01*
X135824880Y-125137142D01*
X135872500Y-125184761D01*
X135967738Y-125232380D01*
X136110595Y-125232380D01*
X135348690Y-124565714D02*
X135348690Y-125232380D01*
X135348690Y-124660952D02*
X135301071Y-124613333D01*
X135205833Y-124565714D01*
X135062976Y-124565714D01*
X134967738Y-124613333D01*
X134920119Y-124708571D01*
X134920119Y-125232380D01*
X133682023Y-125232380D02*
X133682023Y-124565714D01*
X133682023Y-124232380D02*
X133729642Y-124280000D01*
X133682023Y-124327619D01*
X133634404Y-124280000D01*
X133682023Y-124232380D01*
X133682023Y-124327619D01*
X133253452Y-125184761D02*
X133158214Y-125232380D01*
X132967738Y-125232380D01*
X132872500Y-125184761D01*
X132824880Y-125089523D01*
X132824880Y-125041904D01*
X132872500Y-124946666D01*
X132967738Y-124899047D01*
X133110595Y-124899047D01*
X133205833Y-124851428D01*
X133253452Y-124756190D01*
X133253452Y-124708571D01*
X133205833Y-124613333D01*
X133110595Y-124565714D01*
X132967738Y-124565714D01*
X132872500Y-124613333D01*
X131491547Y-125232380D02*
X131586785Y-125184761D01*
X131634404Y-125137142D01*
X131682023Y-125041904D01*
X131682023Y-124756190D01*
X131634404Y-124660952D01*
X131586785Y-124613333D01*
X131491547Y-124565714D01*
X131348690Y-124565714D01*
X131253452Y-124613333D01*
X131205833Y-124660952D01*
X131158214Y-124756190D01*
X131158214Y-125041904D01*
X131205833Y-125137142D01*
X131253452Y-125184761D01*
X131348690Y-125232380D01*
X131491547Y-125232380D01*
X130729642Y-124565714D02*
X130729642Y-125232380D01*
X130729642Y-124660952D02*
X130682023Y-124613333D01*
X130586785Y-124565714D01*
X130443928Y-124565714D01*
X130348690Y-124613333D01*
X130301071Y-124708571D01*
X130301071Y-125232380D01*
X129682023Y-125232380D02*
X129777261Y-125184761D01*
X129824880Y-125089523D01*
X129824880Y-124232380D01*
X129396309Y-124565714D02*
X129158214Y-125232380D01*
X128920119Y-124565714D02*
X129158214Y-125232380D01*
X129253452Y-125470476D01*
X129301071Y-125518095D01*
X129396309Y-125565714D01*
X127920119Y-124565714D02*
X127539166Y-124565714D01*
X127777261Y-125232380D02*
X127777261Y-124375238D01*
X127729642Y-124280000D01*
X127634404Y-124232380D01*
X127539166Y-124232380D01*
X127062976Y-125232380D02*
X127158214Y-125184761D01*
X127205833Y-125137142D01*
X127253452Y-125041904D01*
X127253452Y-124756190D01*
X127205833Y-124660952D01*
X127158214Y-124613333D01*
X127062976Y-124565714D01*
X126920119Y-124565714D01*
X126824880Y-124613333D01*
X126777261Y-124660952D01*
X126729642Y-124756190D01*
X126729642Y-125041904D01*
X126777261Y-125137142D01*
X126824880Y-125184761D01*
X126920119Y-125232380D01*
X127062976Y-125232380D01*
X126301071Y-125232380D02*
X126301071Y-124565714D01*
X126301071Y-124756190D02*
X126253452Y-124660952D01*
X126205833Y-124613333D01*
X126110595Y-124565714D01*
X126015357Y-124565714D01*
X124491547Y-124565714D02*
X124491547Y-125232380D01*
X124920119Y-124565714D02*
X124920119Y-125089523D01*
X124872500Y-125184761D01*
X124777261Y-125232380D01*
X124634404Y-125232380D01*
X124539166Y-125184761D01*
X124491547Y-125137142D01*
X124062976Y-125184761D02*
X123967738Y-125232380D01*
X123777261Y-125232380D01*
X123682023Y-125184761D01*
X123634404Y-125089523D01*
X123634404Y-125041904D01*
X123682023Y-124946666D01*
X123777261Y-124899047D01*
X123920119Y-124899047D01*
X124015357Y-124851428D01*
X124062976Y-124756190D01*
X124062976Y-124708571D01*
X124015357Y-124613333D01*
X123920119Y-124565714D01*
X123777261Y-124565714D01*
X123682023Y-124613333D01*
X122824880Y-125184761D02*
X122920119Y-125232380D01*
X123110595Y-125232380D01*
X123205833Y-125184761D01*
X123253452Y-125089523D01*
X123253452Y-124708571D01*
X123205833Y-124613333D01*
X123110595Y-124565714D01*
X122920119Y-124565714D01*
X122824880Y-124613333D01*
X122777261Y-124708571D01*
X122777261Y-124803809D01*
X123253452Y-124899047D01*
X138967738Y-126882380D02*
X139062976Y-126834761D01*
X139110595Y-126787142D01*
X139158214Y-126691904D01*
X139158214Y-126406190D01*
X139110595Y-126310952D01*
X139062976Y-126263333D01*
X138967738Y-126215714D01*
X138824880Y-126215714D01*
X138729642Y-126263333D01*
X138682023Y-126310952D01*
X138634404Y-126406190D01*
X138634404Y-126691904D01*
X138682023Y-126787142D01*
X138729642Y-126834761D01*
X138824880Y-126882380D01*
X138967738Y-126882380D01*
X138205833Y-126215714D02*
X138205833Y-126882380D01*
X138205833Y-126310952D02*
X138158214Y-126263333D01*
X138062976Y-126215714D01*
X137920119Y-126215714D01*
X137824880Y-126263333D01*
X137777261Y-126358571D01*
X137777261Y-126882380D01*
X136682023Y-126215714D02*
X136301071Y-126215714D01*
X136539166Y-125882380D02*
X136539166Y-126739523D01*
X136491547Y-126834761D01*
X136396309Y-126882380D01*
X136301071Y-126882380D01*
X135967738Y-126882380D02*
X135967738Y-125882380D01*
X135539166Y-126882380D02*
X135539166Y-126358571D01*
X135586785Y-126263333D01*
X135682023Y-126215714D01*
X135824880Y-126215714D01*
X135920119Y-126263333D01*
X135967738Y-126310952D01*
X134682023Y-126834761D02*
X134777261Y-126882380D01*
X134967738Y-126882380D01*
X135062976Y-126834761D01*
X135110595Y-126739523D01*
X135110595Y-126358571D01*
X135062976Y-126263333D01*
X134967738Y-126215714D01*
X134777261Y-126215714D01*
X134682023Y-126263333D01*
X134634404Y-126358571D01*
X134634404Y-126453809D01*
X135110595Y-126549047D01*
X133586785Y-125882380D02*
X133015357Y-125882380D01*
X133301071Y-126882380D02*
X133301071Y-125882380D01*
X132253452Y-126882380D02*
X132253452Y-126358571D01*
X132301071Y-126263333D01*
X132396309Y-126215714D01*
X132586785Y-126215714D01*
X132682023Y-126263333D01*
X132253452Y-126834761D02*
X132348690Y-126882380D01*
X132586785Y-126882380D01*
X132682023Y-126834761D01*
X132729642Y-126739523D01*
X132729642Y-126644285D01*
X132682023Y-126549047D01*
X132586785Y-126501428D01*
X132348690Y-126501428D01*
X132253452Y-126453809D01*
X131777261Y-126215714D02*
X131777261Y-126882380D01*
X131777261Y-126310952D02*
X131729642Y-126263333D01*
X131634404Y-126215714D01*
X131491547Y-126215714D01*
X131396309Y-126263333D01*
X131348690Y-126358571D01*
X131348690Y-126882380D01*
X130443928Y-126882380D02*
X130443928Y-125882380D01*
X130443928Y-126834761D02*
X130539166Y-126882380D01*
X130729642Y-126882380D01*
X130824880Y-126834761D01*
X130872500Y-126787142D01*
X130920119Y-126691904D01*
X130920119Y-126406190D01*
X130872500Y-126310952D01*
X130824880Y-126263333D01*
X130729642Y-126215714D01*
X130539166Y-126215714D01*
X130443928Y-126263333D01*
X130062976Y-126215714D02*
X129824880Y-126882380D01*
X129586785Y-126215714D02*
X129824880Y-126882380D01*
X129920119Y-127120476D01*
X129967738Y-127168095D01*
X130062976Y-127215714D01*
X127920119Y-126882380D02*
X128491547Y-126882380D01*
X128205833Y-126882380D02*
X128205833Y-125882380D01*
X128301071Y-126025238D01*
X128396309Y-126120476D01*
X128491547Y-126168095D01*
X127301071Y-125882380D02*
X127205833Y-125882380D01*
X127110595Y-125930000D01*
X127062976Y-125977619D01*
X127015357Y-126072857D01*
X126967738Y-126263333D01*
X126967738Y-126501428D01*
X127015357Y-126691904D01*
X127062976Y-126787142D01*
X127110595Y-126834761D01*
X127205833Y-126882380D01*
X127301071Y-126882380D01*
X127396309Y-126834761D01*
X127443928Y-126787142D01*
X127491547Y-126691904D01*
X127539166Y-126501428D01*
X127539166Y-126263333D01*
X127491547Y-126072857D01*
X127443928Y-125977619D01*
X127396309Y-125930000D01*
X127301071Y-125882380D01*
X126348690Y-125882380D02*
X126253452Y-125882380D01*
X126158214Y-125930000D01*
X126110595Y-125977619D01*
X126062976Y-126072857D01*
X126015357Y-126263333D01*
X126015357Y-126501428D01*
X126062976Y-126691904D01*
X126110595Y-126787142D01*
X126158214Y-126834761D01*
X126253452Y-126882380D01*
X126348690Y-126882380D01*
X126443928Y-126834761D01*
X126491547Y-126787142D01*
X126539166Y-126691904D01*
X126586785Y-126501428D01*
X126586785Y-126263333D01*
X126539166Y-126072857D01*
X126491547Y-125977619D01*
X126443928Y-125930000D01*
X126348690Y-125882380D01*
X125396309Y-125882380D02*
X125301071Y-125882380D01*
X125205833Y-125930000D01*
X125158214Y-125977619D01*
X125110595Y-126072857D01*
X125062976Y-126263333D01*
X125062976Y-126501428D01*
X125110595Y-126691904D01*
X125158214Y-126787142D01*
X125205833Y-126834761D01*
X125301071Y-126882380D01*
X125396309Y-126882380D01*
X125491547Y-126834761D01*
X125539166Y-126787142D01*
X125586785Y-126691904D01*
X125634404Y-126501428D01*
X125634404Y-126263333D01*
X125586785Y-126072857D01*
X125539166Y-125977619D01*
X125491547Y-125930000D01*
X125396309Y-125882380D01*
X123872500Y-126358571D02*
X123539166Y-126358571D01*
X123396309Y-126882380D02*
X123872500Y-126882380D01*
X123872500Y-125882380D01*
X123396309Y-125882380D01*
X123062976Y-125882380D02*
X122396309Y-126882380D01*
X122396309Y-125882380D02*
X123062976Y-126882380D01*
X122015357Y-126787142D02*
X121967738Y-126834761D01*
X122015357Y-126882380D01*
X122062976Y-126834761D01*
X122015357Y-126787142D01*
X122015357Y-126882380D01*
X139205833Y-127532380D02*
X138967738Y-128532380D01*
X138777261Y-127818095D01*
X138586785Y-128532380D01*
X138348690Y-127532380D01*
X137967738Y-128532380D02*
X137967738Y-127532380D01*
X137539166Y-128532380D02*
X137539166Y-128008571D01*
X137586785Y-127913333D01*
X137682023Y-127865714D01*
X137824880Y-127865714D01*
X137920119Y-127913333D01*
X137967738Y-127960952D01*
X136682023Y-128484761D02*
X136777261Y-128532380D01*
X136967738Y-128532380D01*
X137062976Y-128484761D01*
X137110595Y-128389523D01*
X137110595Y-128008571D01*
X137062976Y-127913333D01*
X136967738Y-127865714D01*
X136777261Y-127865714D01*
X136682023Y-127913333D01*
X136634404Y-128008571D01*
X136634404Y-128103809D01*
X137110595Y-128199047D01*
X136205833Y-127865714D02*
X136205833Y-128532380D01*
X136205833Y-127960952D02*
X136158214Y-127913333D01*
X136062976Y-127865714D01*
X135920119Y-127865714D01*
X135824880Y-127913333D01*
X135777261Y-128008571D01*
X135777261Y-128532380D01*
X134682023Y-127865714D02*
X134301071Y-127865714D01*
X134539166Y-127532380D02*
X134539166Y-128389523D01*
X134491547Y-128484761D01*
X134396309Y-128532380D01*
X134301071Y-128532380D01*
X133967738Y-128532380D02*
X133967738Y-127532380D01*
X133539166Y-128532380D02*
X133539166Y-128008571D01*
X133586785Y-127913333D01*
X133682023Y-127865714D01*
X133824880Y-127865714D01*
X133920119Y-127913333D01*
X133967738Y-127960952D01*
X132682023Y-128484761D02*
X132777261Y-128532380D01*
X132967738Y-128532380D01*
X133062976Y-128484761D01*
X133110595Y-128389523D01*
X133110595Y-128008571D01*
X133062976Y-127913333D01*
X132967738Y-127865714D01*
X132777261Y-127865714D01*
X132682023Y-127913333D01*
X132634404Y-128008571D01*
X132634404Y-128103809D01*
X133110595Y-128199047D01*
X131443928Y-128532380D02*
X131443928Y-127532380D01*
X131443928Y-127913333D02*
X131348690Y-127865714D01*
X131158214Y-127865714D01*
X131062976Y-127913333D01*
X131015357Y-127960952D01*
X130967738Y-128056190D01*
X130967738Y-128341904D01*
X131015357Y-128437142D01*
X131062976Y-128484761D01*
X131158214Y-128532380D01*
X131348690Y-128532380D01*
X131443928Y-128484761D01*
X130110595Y-128532380D02*
X130110595Y-128008571D01*
X130158214Y-127913333D01*
X130253452Y-127865714D01*
X130443928Y-127865714D01*
X130539166Y-127913333D01*
X130110595Y-128484761D02*
X130205833Y-128532380D01*
X130443928Y-128532380D01*
X130539166Y-128484761D01*
X130586785Y-128389523D01*
X130586785Y-128294285D01*
X130539166Y-128199047D01*
X130443928Y-128151428D01*
X130205833Y-128151428D01*
X130110595Y-128103809D01*
X129682023Y-128484761D02*
X129586785Y-128532380D01*
X129396309Y-128532380D01*
X129301071Y-128484761D01*
X129253452Y-128389523D01*
X129253452Y-128341904D01*
X129301071Y-128246666D01*
X129396309Y-128199047D01*
X129539166Y-128199047D01*
X129634404Y-128151428D01*
X129682023Y-128056190D01*
X129682023Y-128008571D01*
X129634404Y-127913333D01*
X129539166Y-127865714D01*
X129396309Y-127865714D01*
X129301071Y-127913333D01*
X128443928Y-128484761D02*
X128539166Y-128532380D01*
X128729642Y-128532380D01*
X128824880Y-128484761D01*
X128872500Y-128389523D01*
X128872500Y-128008571D01*
X128824880Y-127913333D01*
X128729642Y-127865714D01*
X128539166Y-127865714D01*
X128443928Y-127913333D01*
X128396309Y-128008571D01*
X128396309Y-128103809D01*
X128872500Y-128199047D01*
X126634404Y-128532380D02*
X126967738Y-128056190D01*
X127205833Y-128532380D02*
X127205833Y-127532380D01*
X126824880Y-127532380D01*
X126729642Y-127580000D01*
X126682023Y-127627619D01*
X126634404Y-127722857D01*
X126634404Y-127865714D01*
X126682023Y-127960952D01*
X126729642Y-128008571D01*
X126824880Y-128056190D01*
X127205833Y-128056190D01*
X126253452Y-128246666D02*
X125777261Y-128246666D01*
X126348690Y-128532380D02*
X126015357Y-127532380D01*
X125682023Y-128532380D01*
X125348690Y-128532380D02*
X125348690Y-127532380D01*
X125015357Y-128246666D01*
X124682023Y-127532380D01*
X124682023Y-128532380D01*
X139158214Y-130134761D02*
X139062976Y-130182380D01*
X138872500Y-130182380D01*
X138777261Y-130134761D01*
X138729642Y-130039523D01*
X138729642Y-129991904D01*
X138777261Y-129896666D01*
X138872500Y-129849047D01*
X139015357Y-129849047D01*
X139110595Y-129801428D01*
X139158214Y-129706190D01*
X139158214Y-129658571D01*
X139110595Y-129563333D01*
X139015357Y-129515714D01*
X138872500Y-129515714D01*
X138777261Y-129563333D01*
X138301071Y-130182380D02*
X138301071Y-129515714D01*
X138301071Y-129182380D02*
X138348690Y-129230000D01*
X138301071Y-129277619D01*
X138253452Y-129230000D01*
X138301071Y-129182380D01*
X138301071Y-129277619D01*
X137920119Y-129515714D02*
X137396309Y-129515714D01*
X137920119Y-130182380D01*
X137396309Y-130182380D01*
X136634404Y-130134761D02*
X136729642Y-130182380D01*
X136920119Y-130182380D01*
X137015357Y-130134761D01*
X137062976Y-130039523D01*
X137062976Y-129658571D01*
X137015357Y-129563333D01*
X136920119Y-129515714D01*
X136729642Y-129515714D01*
X136634404Y-129563333D01*
X136586785Y-129658571D01*
X136586785Y-129753809D01*
X137062976Y-129849047D01*
X135396309Y-130182380D02*
X135396309Y-129515714D01*
X135396309Y-129182380D02*
X135443928Y-129230000D01*
X135396309Y-129277619D01*
X135348690Y-129230000D01*
X135396309Y-129182380D01*
X135396309Y-129277619D01*
X134967738Y-130134761D02*
X134872500Y-130182380D01*
X134682023Y-130182380D01*
X134586785Y-130134761D01*
X134539166Y-130039523D01*
X134539166Y-129991904D01*
X134586785Y-129896666D01*
X134682023Y-129849047D01*
X134824880Y-129849047D01*
X134920119Y-129801428D01*
X134967738Y-129706190D01*
X134967738Y-129658571D01*
X134920119Y-129563333D01*
X134824880Y-129515714D01*
X134682023Y-129515714D01*
X134586785Y-129563333D01*
X133443928Y-129182380D02*
X132824880Y-129182380D01*
X133158214Y-129563333D01*
X133015357Y-129563333D01*
X132920119Y-129610952D01*
X132872500Y-129658571D01*
X132824880Y-129753809D01*
X132824880Y-129991904D01*
X132872500Y-130087142D01*
X132920119Y-130134761D01*
X133015357Y-130182380D01*
X133301071Y-130182380D01*
X133396309Y-130134761D01*
X133443928Y-130087142D01*
X132253452Y-129610952D02*
X132348690Y-129563333D01*
X132396309Y-129515714D01*
X132443928Y-129420476D01*
X132443928Y-129372857D01*
X132396309Y-129277619D01*
X132348690Y-129230000D01*
X132253452Y-129182380D01*
X132062976Y-129182380D01*
X131967738Y-129230000D01*
X131920119Y-129277619D01*
X131872500Y-129372857D01*
X131872500Y-129420476D01*
X131920119Y-129515714D01*
X131967738Y-129563333D01*
X132062976Y-129610952D01*
X132253452Y-129610952D01*
X132348690Y-129658571D01*
X132396309Y-129706190D01*
X132443928Y-129801428D01*
X132443928Y-129991904D01*
X132396309Y-130087142D01*
X132348690Y-130134761D01*
X132253452Y-130182380D01*
X132062976Y-130182380D01*
X131967738Y-130134761D01*
X131920119Y-130087142D01*
X131872500Y-129991904D01*
X131872500Y-129801428D01*
X131920119Y-129706190D01*
X131967738Y-129658571D01*
X132062976Y-129610952D01*
X131015357Y-129515714D02*
X131015357Y-130182380D01*
X131253452Y-129134761D02*
X131491547Y-129849047D01*
X130872500Y-129849047D01*
X130491547Y-130182380D02*
X130491547Y-129182380D01*
X130396309Y-129801428D02*
X130110595Y-130182380D01*
X130110595Y-129515714D02*
X130491547Y-129896666D01*
X129634404Y-130134761D02*
X129634404Y-130182380D01*
X129682023Y-130277619D01*
X129729642Y-130325238D01*
X128586785Y-129515714D02*
X128205833Y-129515714D01*
X128443928Y-129182380D02*
X128443928Y-130039523D01*
X128396309Y-130134761D01*
X128301071Y-130182380D01*
X128205833Y-130182380D01*
X127872500Y-130182380D02*
X127872500Y-129182380D01*
X127443928Y-130182380D02*
X127443928Y-129658571D01*
X127491547Y-129563333D01*
X127586785Y-129515714D01*
X127729642Y-129515714D01*
X127824880Y-129563333D01*
X127872500Y-129610952D01*
X126586785Y-130134761D02*
X126682023Y-130182380D01*
X126872500Y-130182380D01*
X126967738Y-130134761D01*
X127015357Y-130039523D01*
X127015357Y-129658571D01*
X126967738Y-129563333D01*
X126872500Y-129515714D01*
X126682023Y-129515714D01*
X126586785Y-129563333D01*
X126539166Y-129658571D01*
X126539166Y-129753809D01*
X127015357Y-129849047D01*
X125348690Y-129182380D02*
X125348690Y-129991904D01*
X125301071Y-130087142D01*
X125253452Y-130134761D01*
X125158214Y-130182380D01*
X124967738Y-130182380D01*
X124872500Y-130134761D01*
X124824880Y-130087142D01*
X124777261Y-129991904D01*
X124777261Y-129182380D01*
X124301071Y-130182380D02*
X124301071Y-129182380D01*
X123967738Y-129896666D01*
X123634404Y-129182380D01*
X123634404Y-130182380D01*
X122824880Y-129658571D02*
X122682023Y-129706190D01*
X122634404Y-129753809D01*
X122586785Y-129849047D01*
X122586785Y-129991904D01*
X122634404Y-130087142D01*
X122682023Y-130134761D01*
X122777261Y-130182380D01*
X123158214Y-130182380D01*
X123158214Y-129182380D01*
X122824880Y-129182380D01*
X122729642Y-129230000D01*
X122682023Y-129277619D01*
X122634404Y-129372857D01*
X122634404Y-129468095D01*
X122682023Y-129563333D01*
X122729642Y-129610952D01*
X122824880Y-129658571D01*
X123158214Y-129658571D01*
X139158214Y-131784761D02*
X139062976Y-131832380D01*
X138872500Y-131832380D01*
X138777261Y-131784761D01*
X138729642Y-131689523D01*
X138729642Y-131641904D01*
X138777261Y-131546666D01*
X138872500Y-131499047D01*
X139015357Y-131499047D01*
X139110595Y-131451428D01*
X139158214Y-131356190D01*
X139158214Y-131308571D01*
X139110595Y-131213333D01*
X139015357Y-131165714D01*
X138872500Y-131165714D01*
X138777261Y-131213333D01*
X138301071Y-131832380D02*
X138301071Y-131165714D01*
X138301071Y-130832380D02*
X138348690Y-130880000D01*
X138301071Y-130927619D01*
X138253452Y-130880000D01*
X138301071Y-130832380D01*
X138301071Y-130927619D01*
X137920119Y-131165714D02*
X137396309Y-131165714D01*
X137920119Y-131832380D01*
X137396309Y-131832380D01*
X136634404Y-131784761D02*
X136729642Y-131832380D01*
X136920119Y-131832380D01*
X137015357Y-131784761D01*
X137062976Y-131689523D01*
X137062976Y-131308571D01*
X137015357Y-131213333D01*
X136920119Y-131165714D01*
X136729642Y-131165714D01*
X136634404Y-131213333D01*
X136586785Y-131308571D01*
X136586785Y-131403809D01*
X137062976Y-131499047D01*
X135491547Y-131165714D02*
X135301071Y-131832380D01*
X135110595Y-131356190D01*
X134920119Y-131832380D01*
X134729642Y-131165714D01*
X134348690Y-131832380D02*
X134348690Y-131165714D01*
X134348690Y-130832380D02*
X134396309Y-130880000D01*
X134348690Y-130927619D01*
X134301071Y-130880000D01*
X134348690Y-130832380D01*
X134348690Y-130927619D01*
X133729642Y-131832380D02*
X133824880Y-131784761D01*
X133872500Y-131689523D01*
X133872500Y-130832380D01*
X133205833Y-131832380D02*
X133301071Y-131784761D01*
X133348690Y-131689523D01*
X133348690Y-130832380D01*
X132062976Y-131832380D02*
X132062976Y-130832380D01*
X132062976Y-131213333D02*
X131967738Y-131165714D01*
X131777261Y-131165714D01*
X131682023Y-131213333D01*
X131634404Y-131260952D01*
X131586785Y-131356190D01*
X131586785Y-131641904D01*
X131634404Y-131737142D01*
X131682023Y-131784761D01*
X131777261Y-131832380D01*
X131967738Y-131832380D01*
X132062976Y-131784761D01*
X130777261Y-131784761D02*
X130872500Y-131832380D01*
X131062976Y-131832380D01*
X131158214Y-131784761D01*
X131205833Y-131689523D01*
X131205833Y-131308571D01*
X131158214Y-131213333D01*
X131062976Y-131165714D01*
X130872500Y-131165714D01*
X130777261Y-131213333D01*
X130729642Y-131308571D01*
X130729642Y-131403809D01*
X131205833Y-131499047D01*
X129015357Y-131832380D02*
X129586785Y-131832380D01*
X129301071Y-131832380D02*
X129301071Y-130832380D01*
X129396309Y-130975238D01*
X129491547Y-131070476D01*
X129586785Y-131118095D01*
X128634404Y-130927619D02*
X128586785Y-130880000D01*
X128491547Y-130832380D01*
X128253452Y-130832380D01*
X128158214Y-130880000D01*
X128110595Y-130927619D01*
X128062976Y-131022857D01*
X128062976Y-131118095D01*
X128110595Y-131260952D01*
X128682023Y-131832380D01*
X128062976Y-131832380D01*
X127491547Y-131260952D02*
X127586785Y-131213333D01*
X127634404Y-131165714D01*
X127682023Y-131070476D01*
X127682023Y-131022857D01*
X127634404Y-130927619D01*
X127586785Y-130880000D01*
X127491547Y-130832380D01*
X127301071Y-130832380D01*
X127205833Y-130880000D01*
X127158214Y-130927619D01*
X127110595Y-131022857D01*
X127110595Y-131070476D01*
X127158214Y-131165714D01*
X127205833Y-131213333D01*
X127301071Y-131260952D01*
X127491547Y-131260952D01*
X127586785Y-131308571D01*
X127634404Y-131356190D01*
X127682023Y-131451428D01*
X127682023Y-131641904D01*
X127634404Y-131737142D01*
X127586785Y-131784761D01*
X127491547Y-131832380D01*
X127301071Y-131832380D01*
X127205833Y-131784761D01*
X127158214Y-131737142D01*
X127110595Y-131641904D01*
X127110595Y-131451428D01*
X127158214Y-131356190D01*
X127205833Y-131308571D01*
X127301071Y-131260952D01*
X126682023Y-131832380D02*
X126682023Y-130832380D01*
X126586785Y-131451428D02*
X126301071Y-131832380D01*
X126301071Y-131165714D02*
X126682023Y-131546666D01*
X125872500Y-131737142D02*
X125824880Y-131784761D01*
X125872500Y-131832380D01*
X125920119Y-131784761D01*
X125872500Y-131737142D01*
X125872500Y-131832380D01*
X138920119Y-132482380D02*
X138729642Y-132482380D01*
X138634404Y-132530000D01*
X138539166Y-132625238D01*
X138491547Y-132815714D01*
X138491547Y-133149047D01*
X138539166Y-133339523D01*
X138634404Y-133434761D01*
X138729642Y-133482380D01*
X138920119Y-133482380D01*
X139015357Y-133434761D01*
X139110595Y-133339523D01*
X139158214Y-133149047D01*
X139158214Y-132815714D01*
X139110595Y-132625238D01*
X139015357Y-132530000D01*
X138920119Y-132482380D01*
X138205833Y-132815714D02*
X137824880Y-132815714D01*
X138062976Y-132482380D02*
X138062976Y-133339523D01*
X138015357Y-133434761D01*
X137920119Y-133482380D01*
X137824880Y-133482380D01*
X137491547Y-133482380D02*
X137491547Y-132482380D01*
X137062976Y-133482380D02*
X137062976Y-132958571D01*
X137110595Y-132863333D01*
X137205833Y-132815714D01*
X137348690Y-132815714D01*
X137443928Y-132863333D01*
X137491547Y-132910952D01*
X136205833Y-133434761D02*
X136301071Y-133482380D01*
X136491547Y-133482380D01*
X136586785Y-133434761D01*
X136634404Y-133339523D01*
X136634404Y-132958571D01*
X136586785Y-132863333D01*
X136491547Y-132815714D01*
X136301071Y-132815714D01*
X136205833Y-132863333D01*
X136158214Y-132958571D01*
X136158214Y-133053809D01*
X136634404Y-133149047D01*
X135729642Y-133482380D02*
X135729642Y-132815714D01*
X135729642Y-133006190D02*
X135682023Y-132910952D01*
X135634404Y-132863333D01*
X135539166Y-132815714D01*
X135443928Y-132815714D01*
X135205833Y-132815714D02*
X135015357Y-133482380D01*
X134824880Y-133006190D01*
X134634404Y-133482380D01*
X134443928Y-132815714D01*
X134062976Y-133482380D02*
X134062976Y-132815714D01*
X134062976Y-132482380D02*
X134110595Y-132530000D01*
X134062976Y-132577619D01*
X134015357Y-132530000D01*
X134062976Y-132482380D01*
X134062976Y-132577619D01*
X133634404Y-133434761D02*
X133539166Y-133482380D01*
X133348690Y-133482380D01*
X133253452Y-133434761D01*
X133205833Y-133339523D01*
X133205833Y-133291904D01*
X133253452Y-133196666D01*
X133348690Y-133149047D01*
X133491547Y-133149047D01*
X133586785Y-133101428D01*
X133634404Y-133006190D01*
X133634404Y-132958571D01*
X133586785Y-132863333D01*
X133491547Y-132815714D01*
X133348690Y-132815714D01*
X133253452Y-132863333D01*
X132396309Y-133434761D02*
X132491547Y-133482380D01*
X132682023Y-133482380D01*
X132777261Y-133434761D01*
X132824880Y-133339523D01*
X132824880Y-132958571D01*
X132777261Y-132863333D01*
X132682023Y-132815714D01*
X132491547Y-132815714D01*
X132396309Y-132863333D01*
X132348690Y-132958571D01*
X132348690Y-133053809D01*
X132824880Y-133149047D01*
X131158214Y-133482380D02*
X131158214Y-132815714D01*
X131158214Y-132482380D02*
X131205833Y-132530000D01*
X131158214Y-132577619D01*
X131110595Y-132530000D01*
X131158214Y-132482380D01*
X131158214Y-132577619D01*
X130824880Y-132815714D02*
X130443928Y-132815714D01*
X130682023Y-132482380D02*
X130682023Y-133339523D01*
X130634404Y-133434761D01*
X130539166Y-133482380D01*
X130443928Y-133482380D01*
X129443928Y-132815714D02*
X129253452Y-133482380D01*
X129062976Y-133006190D01*
X128872500Y-133482380D01*
X128682023Y-132815714D01*
X128301071Y-133482380D02*
X128301071Y-132815714D01*
X128301071Y-132482380D02*
X128348690Y-132530000D01*
X128301071Y-132577619D01*
X128253452Y-132530000D01*
X128301071Y-132482380D01*
X128301071Y-132577619D01*
X127682023Y-133482380D02*
X127777261Y-133434761D01*
X127824880Y-133339523D01*
X127824880Y-132482380D01*
X127158214Y-133482380D02*
X127253452Y-133434761D01*
X127301071Y-133339523D01*
X127301071Y-132482380D01*
X126015357Y-133482380D02*
X126015357Y-132482380D01*
X126015357Y-132863333D02*
X125920119Y-132815714D01*
X125729642Y-132815714D01*
X125634404Y-132863333D01*
X125586785Y-132910952D01*
X125539166Y-133006190D01*
X125539166Y-133291904D01*
X125586785Y-133387142D01*
X125634404Y-133434761D01*
X125729642Y-133482380D01*
X125920119Y-133482380D01*
X126015357Y-133434761D01*
X124729642Y-133434761D02*
X124824880Y-133482380D01*
X125015357Y-133482380D01*
X125110595Y-133434761D01*
X125158214Y-133339523D01*
X125158214Y-132958571D01*
X125110595Y-132863333D01*
X125015357Y-132815714D01*
X124824880Y-132815714D01*
X124729642Y-132863333D01*
X124682023Y-132958571D01*
X124682023Y-133053809D01*
X125158214Y-133149047D01*
X138586785Y-135132380D02*
X139158214Y-135132380D01*
X138872500Y-135132380D02*
X138872500Y-134132380D01*
X138967738Y-134275238D01*
X139062976Y-134370476D01*
X139158214Y-134418095D01*
X137729642Y-134132380D02*
X137920119Y-134132380D01*
X138015357Y-134180000D01*
X138062976Y-134227619D01*
X138158214Y-134370476D01*
X138205833Y-134560952D01*
X138205833Y-134941904D01*
X138158214Y-135037142D01*
X138110595Y-135084761D01*
X138015357Y-135132380D01*
X137824880Y-135132380D01*
X137729642Y-135084761D01*
X137682023Y-135037142D01*
X137634404Y-134941904D01*
X137634404Y-134703809D01*
X137682023Y-134608571D01*
X137729642Y-134560952D01*
X137824880Y-134513333D01*
X138015357Y-134513333D01*
X138110595Y-134560952D01*
X138158214Y-134608571D01*
X138205833Y-134703809D01*
X137015357Y-134132380D02*
X136920119Y-134132380D01*
X136824880Y-134180000D01*
X136777261Y-134227619D01*
X136729642Y-134322857D01*
X136682023Y-134513333D01*
X136682023Y-134751428D01*
X136729642Y-134941904D01*
X136777261Y-135037142D01*
X136824880Y-135084761D01*
X136920119Y-135132380D01*
X137015357Y-135132380D01*
X137110595Y-135084761D01*
X137158214Y-135037142D01*
X137205833Y-134941904D01*
X137253452Y-134751428D01*
X137253452Y-134513333D01*
X137205833Y-134322857D01*
X137158214Y-134227619D01*
X137110595Y-134180000D01*
X137015357Y-134132380D01*
X136253452Y-135132380D02*
X136253452Y-134132380D01*
X136158214Y-134751428D02*
X135872500Y-135132380D01*
X135872500Y-134465714D02*
X136253452Y-134846666D01*
X135443928Y-135037142D02*
X135396309Y-135084761D01*
X135443928Y-135132380D01*
X135491547Y-135084761D01*
X135443928Y-135037142D01*
X135443928Y-135132380D01*
D12*
X195986964Y-62985357D02*
X195301250Y-62985357D01*
X195644107Y-64185357D02*
X195644107Y-62985357D01*
X194901250Y-64185357D02*
X194901250Y-62985357D01*
X194386964Y-64185357D02*
X194386964Y-63556785D01*
X194444107Y-63442500D01*
X194558392Y-63385357D01*
X194729821Y-63385357D01*
X194844107Y-63442500D01*
X194901250Y-63499642D01*
X193301250Y-64185357D02*
X193301250Y-63556785D01*
X193358392Y-63442500D01*
X193472678Y-63385357D01*
X193701250Y-63385357D01*
X193815535Y-63442500D01*
X193301250Y-64128214D02*
X193415535Y-64185357D01*
X193701250Y-64185357D01*
X193815535Y-64128214D01*
X193872678Y-64013928D01*
X193872678Y-63899642D01*
X193815535Y-63785357D01*
X193701250Y-63728214D01*
X193415535Y-63728214D01*
X193301250Y-63671071D01*
X192729821Y-63385357D02*
X192729821Y-64185357D01*
X192729821Y-63499642D02*
X192672678Y-63442500D01*
X192558392Y-63385357D01*
X192386964Y-63385357D01*
X192272678Y-63442500D01*
X192215535Y-63556785D01*
X192215535Y-64185357D01*
X191644107Y-64185357D02*
X191644107Y-62985357D01*
X191529821Y-63728214D02*
X191186964Y-64185357D01*
X191186964Y-63385357D02*
X191644107Y-63842500D01*
X190729821Y-64128214D02*
X190615535Y-64185357D01*
X190386964Y-64185357D01*
X190272678Y-64128214D01*
X190215535Y-64013928D01*
X190215535Y-63956785D01*
X190272678Y-63842500D01*
X190386964Y-63785357D01*
X190558392Y-63785357D01*
X190672678Y-63728214D01*
X190729821Y-63613928D01*
X190729821Y-63556785D01*
X190672678Y-63442500D01*
X190558392Y-63385357D01*
X190386964Y-63385357D01*
X190272678Y-63442500D01*
X188958392Y-63385357D02*
X188501250Y-63385357D01*
X188786964Y-62985357D02*
X188786964Y-64013928D01*
X188729821Y-64128214D01*
X188615535Y-64185357D01*
X188501250Y-64185357D01*
X187929821Y-64185357D02*
X188044107Y-64128214D01*
X188101250Y-64071071D01*
X188158392Y-63956785D01*
X188158392Y-63613928D01*
X188101250Y-63499642D01*
X188044107Y-63442500D01*
X187929821Y-63385357D01*
X187758392Y-63385357D01*
X187644107Y-63442500D01*
X187586964Y-63499642D01*
X187529821Y-63613928D01*
X187529821Y-63956785D01*
X187586964Y-64071071D01*
X187644107Y-64128214D01*
X187758392Y-64185357D01*
X187929821Y-64185357D01*
X186272678Y-63385357D02*
X185815535Y-63385357D01*
X186101250Y-62985357D02*
X186101250Y-64013928D01*
X186044107Y-64128214D01*
X185929821Y-64185357D01*
X185815535Y-64185357D01*
X185415535Y-64185357D02*
X185415535Y-62985357D01*
X184901250Y-64185357D02*
X184901250Y-63556785D01*
X184958392Y-63442500D01*
X185072678Y-63385357D01*
X185244107Y-63385357D01*
X185358392Y-63442500D01*
X185415535Y-63499642D01*
X183872678Y-64128214D02*
X183986964Y-64185357D01*
X184215535Y-64185357D01*
X184329821Y-64128214D01*
X184386964Y-64013928D01*
X184386964Y-63556785D01*
X184329821Y-63442500D01*
X184215535Y-63385357D01*
X183986964Y-63385357D01*
X183872678Y-63442500D01*
X183815535Y-63556785D01*
X183815535Y-63671071D01*
X184386964Y-63785357D01*
X182501250Y-62985357D02*
X181701250Y-64185357D01*
X181701250Y-62985357D02*
X182501250Y-64185357D01*
X181415535Y-62985357D02*
X180729821Y-62985357D01*
X181072678Y-64185357D02*
X181072678Y-62985357D01*
X180329821Y-64185357D02*
X180329821Y-62985357D01*
X179758392Y-64185357D02*
X179758392Y-62985357D01*
X179472678Y-62985357D01*
X179301250Y-63042500D01*
X179186964Y-63156785D01*
X179129821Y-63271071D01*
X179072678Y-63499642D01*
X179072678Y-63671071D01*
X179129821Y-63899642D01*
X179186964Y-64013928D01*
X179301250Y-64128214D01*
X179472678Y-64185357D01*
X179758392Y-64185357D01*
X178558392Y-63556785D02*
X178158392Y-63556785D01*
X177986964Y-64185357D02*
X178558392Y-64185357D01*
X178558392Y-62985357D01*
X177986964Y-62985357D01*
X176558392Y-62985357D02*
X176558392Y-63956785D01*
X176501250Y-64071071D01*
X176444107Y-64128214D01*
X176329821Y-64185357D01*
X176101250Y-64185357D01*
X175986964Y-64128214D01*
X175929821Y-64071071D01*
X175872678Y-63956785D01*
X175872678Y-62985357D01*
X175301250Y-63385357D02*
X175301250Y-64185357D01*
X175301250Y-63499642D02*
X175244107Y-63442500D01*
X175129821Y-63385357D01*
X174958392Y-63385357D01*
X174844107Y-63442500D01*
X174786964Y-63556785D01*
X174786964Y-64185357D01*
X174215535Y-64185357D02*
X174215535Y-63385357D01*
X174215535Y-62985357D02*
X174272678Y-63042500D01*
X174215535Y-63099642D01*
X174158392Y-63042500D01*
X174215535Y-62985357D01*
X174215535Y-63099642D01*
X173758392Y-63385357D02*
X173472678Y-64185357D01*
X173186964Y-63385357D01*
X172272678Y-64128214D02*
X172386964Y-64185357D01*
X172615535Y-64185357D01*
X172729821Y-64128214D01*
X172786964Y-64013928D01*
X172786964Y-63556785D01*
X172729821Y-63442500D01*
X172615535Y-63385357D01*
X172386964Y-63385357D01*
X172272678Y-63442500D01*
X172215535Y-63556785D01*
X172215535Y-63671071D01*
X172786964Y-63785357D01*
X171701250Y-64185357D02*
X171701250Y-63385357D01*
X171701250Y-63613928D02*
X171644107Y-63499642D01*
X171586964Y-63442500D01*
X171472678Y-63385357D01*
X171358392Y-63385357D01*
X171015535Y-64128214D02*
X170901250Y-64185357D01*
X170672678Y-64185357D01*
X170558392Y-64128214D01*
X170501250Y-64013928D01*
X170501250Y-63956785D01*
X170558392Y-63842500D01*
X170672678Y-63785357D01*
X170844107Y-63785357D01*
X170958392Y-63728214D01*
X171015535Y-63613928D01*
X171015535Y-63556785D01*
X170958392Y-63442500D01*
X170844107Y-63385357D01*
X170672678Y-63385357D01*
X170558392Y-63442500D01*
X169472678Y-64185357D02*
X169472678Y-63556785D01*
X169529821Y-63442500D01*
X169644107Y-63385357D01*
X169872678Y-63385357D01*
X169986964Y-63442500D01*
X169472678Y-64128214D02*
X169586964Y-64185357D01*
X169872678Y-64185357D01*
X169986964Y-64128214D01*
X170044107Y-64013928D01*
X170044107Y-63899642D01*
X169986964Y-63785357D01*
X169872678Y-63728214D01*
X169586964Y-63728214D01*
X169472678Y-63671071D01*
X168729821Y-64185357D02*
X168844107Y-64128214D01*
X168901250Y-64013928D01*
X168901250Y-62985357D01*
X166958392Y-63556785D02*
X166786964Y-63613928D01*
X166729821Y-63671071D01*
X166672678Y-63785357D01*
X166672678Y-63956785D01*
X166729821Y-64071071D01*
X166786964Y-64128214D01*
X166901250Y-64185357D01*
X167358392Y-64185357D01*
X167358392Y-62985357D01*
X166958392Y-62985357D01*
X166844107Y-63042500D01*
X166786964Y-63099642D01*
X166729821Y-63213928D01*
X166729821Y-63328214D01*
X166786964Y-63442500D01*
X166844107Y-63499642D01*
X166958392Y-63556785D01*
X167358392Y-63556785D01*
X166158392Y-64185357D02*
X166158392Y-62985357D01*
X165358392Y-62985357D02*
X165129821Y-62985357D01*
X165015535Y-63042500D01*
X164901250Y-63156785D01*
X164844107Y-63385357D01*
X164844107Y-63785357D01*
X164901250Y-64013928D01*
X165015535Y-64128214D01*
X165129821Y-64185357D01*
X165358392Y-64185357D01*
X165472678Y-64128214D01*
X165586964Y-64013928D01*
X165644107Y-63785357D01*
X165644107Y-63385357D01*
X165586964Y-63156785D01*
X165472678Y-63042500D01*
X165358392Y-62985357D01*
X164386964Y-64128214D02*
X164215535Y-64185357D01*
X163929821Y-64185357D01*
X163815535Y-64128214D01*
X163758392Y-64071071D01*
X163701250Y-63956785D01*
X163701250Y-63842500D01*
X163758392Y-63728214D01*
X163815535Y-63671071D01*
X163929821Y-63613928D01*
X164158392Y-63556785D01*
X164272678Y-63499642D01*
X164329821Y-63442500D01*
X164386964Y-63328214D01*
X164386964Y-63213928D01*
X164329821Y-63099642D01*
X164272678Y-63042500D01*
X164158392Y-62985357D01*
X163872678Y-62985357D01*
X163701250Y-63042500D01*
X162444107Y-62985357D02*
X161758392Y-62985357D01*
X162101250Y-64185357D02*
X162101250Y-62985357D01*
X160901250Y-64128214D02*
X161015535Y-64185357D01*
X161244107Y-64185357D01*
X161358392Y-64128214D01*
X161415535Y-64013928D01*
X161415535Y-63556785D01*
X161358392Y-63442500D01*
X161244107Y-63385357D01*
X161015535Y-63385357D01*
X160901250Y-63442500D01*
X160844107Y-63556785D01*
X160844107Y-63671071D01*
X161415535Y-63785357D01*
X159815535Y-64185357D02*
X159815535Y-63556785D01*
X159872678Y-63442500D01*
X159986964Y-63385357D01*
X160215535Y-63385357D01*
X160329821Y-63442500D01*
X159815535Y-64128214D02*
X159929821Y-64185357D01*
X160215535Y-64185357D01*
X160329821Y-64128214D01*
X160386964Y-64013928D01*
X160386964Y-63899642D01*
X160329821Y-63785357D01*
X160215535Y-63728214D01*
X159929821Y-63728214D01*
X159815535Y-63671071D01*
X159244107Y-64185357D02*
X159244107Y-63385357D01*
X159244107Y-63499642D02*
X159186964Y-63442500D01*
X159072678Y-63385357D01*
X158901250Y-63385357D01*
X158786964Y-63442500D01*
X158729821Y-63556785D01*
X158729821Y-64185357D01*
X158729821Y-63556785D02*
X158672678Y-63442500D01*
X158558392Y-63385357D01*
X158386964Y-63385357D01*
X158272678Y-63442500D01*
X158215535Y-63556785D01*
X158215535Y-64185357D01*
X195301250Y-66160357D02*
X195301250Y-65531785D01*
X195358392Y-65417500D01*
X195472678Y-65360357D01*
X195701250Y-65360357D01*
X195815535Y-65417500D01*
X195301250Y-66103214D02*
X195415535Y-66160357D01*
X195701250Y-66160357D01*
X195815535Y-66103214D01*
X195872678Y-65988928D01*
X195872678Y-65874642D01*
X195815535Y-65760357D01*
X195701250Y-65703214D01*
X195415535Y-65703214D01*
X195301250Y-65646071D01*
X194729821Y-65360357D02*
X194729821Y-66160357D01*
X194729821Y-65474642D02*
X194672678Y-65417500D01*
X194558392Y-65360357D01*
X194386964Y-65360357D01*
X194272678Y-65417500D01*
X194215535Y-65531785D01*
X194215535Y-66160357D01*
X193129821Y-66160357D02*
X193129821Y-64960357D01*
X193129821Y-66103214D02*
X193244107Y-66160357D01*
X193472678Y-66160357D01*
X193586964Y-66103214D01*
X193644107Y-66046071D01*
X193701250Y-65931785D01*
X193701250Y-65588928D01*
X193644107Y-65474642D01*
X193586964Y-65417500D01*
X193472678Y-65360357D01*
X193244107Y-65360357D01*
X193129821Y-65417500D01*
X191472678Y-66160357D02*
X191586964Y-66103214D01*
X191644107Y-66046071D01*
X191701250Y-65931785D01*
X191701250Y-65588928D01*
X191644107Y-65474642D01*
X191586964Y-65417500D01*
X191472678Y-65360357D01*
X191301250Y-65360357D01*
X191186964Y-65417500D01*
X191129821Y-65474642D01*
X191072678Y-65588928D01*
X191072678Y-65931785D01*
X191129821Y-66046071D01*
X191186964Y-66103214D01*
X191301250Y-66160357D01*
X191472678Y-66160357D01*
X190729821Y-65360357D02*
X190272678Y-65360357D01*
X190558392Y-64960357D02*
X190558392Y-65988928D01*
X190501250Y-66103214D01*
X190386964Y-66160357D01*
X190272678Y-66160357D01*
X189872678Y-66160357D02*
X189872678Y-64960357D01*
X189358392Y-66160357D02*
X189358392Y-65531785D01*
X189415535Y-65417500D01*
X189529821Y-65360357D01*
X189701250Y-65360357D01*
X189815535Y-65417500D01*
X189872678Y-65474642D01*
X188329821Y-66103214D02*
X188444107Y-66160357D01*
X188672678Y-66160357D01*
X188786964Y-66103214D01*
X188844107Y-65988928D01*
X188844107Y-65531785D01*
X188786964Y-65417500D01*
X188672678Y-65360357D01*
X188444107Y-65360357D01*
X188329821Y-65417500D01*
X188272678Y-65531785D01*
X188272678Y-65646071D01*
X188844107Y-65760357D01*
X187758392Y-66160357D02*
X187758392Y-65360357D01*
X187758392Y-65588928D02*
X187701250Y-65474642D01*
X187644107Y-65417500D01*
X187529821Y-65360357D01*
X187415535Y-65360357D01*
X187072678Y-66103214D02*
X186958392Y-66160357D01*
X186729821Y-66160357D01*
X186615535Y-66103214D01*
X186558392Y-65988928D01*
X186558392Y-65931785D01*
X186615535Y-65817500D01*
X186729821Y-65760357D01*
X186901250Y-65760357D01*
X187015535Y-65703214D01*
X187072678Y-65588928D01*
X187072678Y-65531785D01*
X187015535Y-65417500D01*
X186901250Y-65360357D01*
X186729821Y-65360357D01*
X186615535Y-65417500D01*
X185244107Y-65360357D02*
X185015535Y-66160357D01*
X184786964Y-65588928D01*
X184558392Y-66160357D01*
X184329821Y-65360357D01*
X183872678Y-66160357D02*
X183872678Y-64960357D01*
X183358392Y-66160357D02*
X183358392Y-65531785D01*
X183415535Y-65417500D01*
X183529821Y-65360357D01*
X183701250Y-65360357D01*
X183815535Y-65417500D01*
X183872678Y-65474642D01*
X182615535Y-66160357D02*
X182729821Y-66103214D01*
X182786964Y-66046071D01*
X182844107Y-65931785D01*
X182844107Y-65588928D01*
X182786964Y-65474642D01*
X182729821Y-65417500D01*
X182615535Y-65360357D01*
X182444107Y-65360357D01*
X182329821Y-65417500D01*
X182272678Y-65474642D01*
X182215535Y-65588928D01*
X182215535Y-65931785D01*
X182272678Y-66046071D01*
X182329821Y-66103214D01*
X182444107Y-66160357D01*
X182615535Y-66160357D01*
X180272678Y-66103214D02*
X180386964Y-66160357D01*
X180615535Y-66160357D01*
X180729821Y-66103214D01*
X180786964Y-66046071D01*
X180844107Y-65931785D01*
X180844107Y-65588928D01*
X180786964Y-65474642D01*
X180729821Y-65417500D01*
X180615535Y-65360357D01*
X180386964Y-65360357D01*
X180272678Y-65417500D01*
X179586964Y-66160357D02*
X179701250Y-66103214D01*
X179758392Y-66046071D01*
X179815535Y-65931785D01*
X179815535Y-65588928D01*
X179758392Y-65474642D01*
X179701250Y-65417500D01*
X179586964Y-65360357D01*
X179415535Y-65360357D01*
X179301250Y-65417500D01*
X179244107Y-65474642D01*
X179186964Y-65588928D01*
X179186964Y-65931785D01*
X179244107Y-66046071D01*
X179301250Y-66103214D01*
X179415535Y-66160357D01*
X179586964Y-66160357D01*
X178672678Y-65360357D02*
X178672678Y-66160357D01*
X178672678Y-65474642D02*
X178615535Y-65417500D01*
X178501250Y-65360357D01*
X178329821Y-65360357D01*
X178215535Y-65417500D01*
X178158392Y-65531785D01*
X178158392Y-66160357D01*
X177758392Y-65360357D02*
X177301250Y-65360357D01*
X177586964Y-64960357D02*
X177586964Y-65988928D01*
X177529821Y-66103214D01*
X177415535Y-66160357D01*
X177301250Y-66160357D01*
X176901250Y-66160357D02*
X176901250Y-65360357D01*
X176901250Y-65588928D02*
X176844107Y-65474642D01*
X176786964Y-65417500D01*
X176672678Y-65360357D01*
X176558392Y-65360357D01*
X176158392Y-66160357D02*
X176158392Y-65360357D01*
X176158392Y-64960357D02*
X176215535Y-65017500D01*
X176158392Y-65074642D01*
X176101250Y-65017500D01*
X176158392Y-64960357D01*
X176158392Y-65074642D01*
X175586964Y-66160357D02*
X175586964Y-64960357D01*
X175586964Y-65417500D02*
X175472678Y-65360357D01*
X175244107Y-65360357D01*
X175129821Y-65417500D01*
X175072678Y-65474642D01*
X175015535Y-65588928D01*
X175015535Y-65931785D01*
X175072678Y-66046071D01*
X175129821Y-66103214D01*
X175244107Y-66160357D01*
X175472678Y-66160357D01*
X175586964Y-66103214D01*
X173986964Y-65360357D02*
X173986964Y-66160357D01*
X174501250Y-65360357D02*
X174501250Y-65988928D01*
X174444107Y-66103214D01*
X174329821Y-66160357D01*
X174158392Y-66160357D01*
X174044107Y-66103214D01*
X173986964Y-66046071D01*
X173586964Y-65360357D02*
X173129821Y-65360357D01*
X173415535Y-64960357D02*
X173415535Y-65988928D01*
X173358392Y-66103214D01*
X173244107Y-66160357D01*
X173129821Y-66160357D01*
X172272678Y-66103214D02*
X172386964Y-66160357D01*
X172615535Y-66160357D01*
X172729821Y-66103214D01*
X172786964Y-65988928D01*
X172786964Y-65531785D01*
X172729821Y-65417500D01*
X172615535Y-65360357D01*
X172386964Y-65360357D01*
X172272678Y-65417500D01*
X172215535Y-65531785D01*
X172215535Y-65646071D01*
X172786964Y-65760357D01*
X171186964Y-66160357D02*
X171186964Y-64960357D01*
X171186964Y-66103214D02*
X171301250Y-66160357D01*
X171529821Y-66160357D01*
X171644107Y-66103214D01*
X171701250Y-66046071D01*
X171758392Y-65931785D01*
X171758392Y-65588928D01*
X171701250Y-65474642D01*
X171644107Y-65417500D01*
X171529821Y-65360357D01*
X171301250Y-65360357D01*
X171186964Y-65417500D01*
X169872678Y-65360357D02*
X169415535Y-65360357D01*
X169701250Y-64960357D02*
X169701250Y-65988928D01*
X169644107Y-66103214D01*
X169529821Y-66160357D01*
X169415535Y-66160357D01*
X168844107Y-66160357D02*
X168958392Y-66103214D01*
X169015535Y-66046071D01*
X169072678Y-65931785D01*
X169072678Y-65588928D01*
X169015535Y-65474642D01*
X168958392Y-65417500D01*
X168844107Y-65360357D01*
X168672678Y-65360357D01*
X168558392Y-65417500D01*
X168501250Y-65474642D01*
X168444107Y-65588928D01*
X168444107Y-65931785D01*
X168501250Y-66046071D01*
X168558392Y-66103214D01*
X168672678Y-66160357D01*
X168844107Y-66160357D01*
X167186964Y-65360357D02*
X166729821Y-65360357D01*
X167015535Y-64960357D02*
X167015535Y-65988928D01*
X166958392Y-66103214D01*
X166844107Y-66160357D01*
X166729821Y-66160357D01*
X166329821Y-66160357D02*
X166329821Y-64960357D01*
X165815535Y-66160357D02*
X165815535Y-65531785D01*
X165872678Y-65417500D01*
X165986964Y-65360357D01*
X166158392Y-65360357D01*
X166272678Y-65417500D01*
X166329821Y-65474642D01*
X164786964Y-66103214D02*
X164901250Y-66160357D01*
X165129821Y-66160357D01*
X165244107Y-66103214D01*
X165301250Y-65988928D01*
X165301250Y-65531785D01*
X165244107Y-65417500D01*
X165129821Y-65360357D01*
X164901250Y-65360357D01*
X164786964Y-65417500D01*
X164729821Y-65531785D01*
X164729821Y-65646071D01*
X165301250Y-65760357D01*
X163415535Y-64960357D02*
X162615535Y-66160357D01*
X162615535Y-64960357D02*
X163415535Y-66160357D01*
X162329821Y-64960357D02*
X161644107Y-64960357D01*
X161986964Y-66160357D02*
X161986964Y-64960357D01*
X161244107Y-66160357D02*
X161244107Y-64960357D01*
X160672678Y-66160357D02*
X160672678Y-64960357D01*
X160386964Y-64960357D01*
X160215535Y-65017500D01*
X160101250Y-65131785D01*
X160044107Y-65246071D01*
X159986964Y-65474642D01*
X159986964Y-65646071D01*
X160044107Y-65874642D01*
X160101250Y-65988928D01*
X160215535Y-66103214D01*
X160386964Y-66160357D01*
X160672678Y-66160357D01*
X159472678Y-65531785D02*
X159072678Y-65531785D01*
X158901250Y-66160357D02*
X159472678Y-66160357D01*
X159472678Y-64960357D01*
X158901250Y-64960357D01*
X195815535Y-66935357D02*
X195815535Y-67906785D01*
X195758392Y-68021071D01*
X195701250Y-68078214D01*
X195586964Y-68135357D01*
X195358392Y-68135357D01*
X195244107Y-68078214D01*
X195186964Y-68021071D01*
X195129821Y-67906785D01*
X195129821Y-66935357D01*
X194558392Y-67335357D02*
X194558392Y-68135357D01*
X194558392Y-67449642D02*
X194501250Y-67392500D01*
X194386964Y-67335357D01*
X194215535Y-67335357D01*
X194101250Y-67392500D01*
X194044107Y-67506785D01*
X194044107Y-68135357D01*
X193472678Y-68135357D02*
X193472678Y-67335357D01*
X193472678Y-66935357D02*
X193529821Y-66992500D01*
X193472678Y-67049642D01*
X193415535Y-66992500D01*
X193472678Y-66935357D01*
X193472678Y-67049642D01*
X193015535Y-67335357D02*
X192729821Y-68135357D01*
X192444107Y-67335357D01*
X191529821Y-68078214D02*
X191644107Y-68135357D01*
X191872678Y-68135357D01*
X191986964Y-68078214D01*
X192044107Y-67963928D01*
X192044107Y-67506785D01*
X191986964Y-67392500D01*
X191872678Y-67335357D01*
X191644107Y-67335357D01*
X191529821Y-67392500D01*
X191472678Y-67506785D01*
X191472678Y-67621071D01*
X192044107Y-67735357D01*
X190958392Y-68135357D02*
X190958392Y-67335357D01*
X190958392Y-67563928D02*
X190901250Y-67449642D01*
X190844107Y-67392500D01*
X190729821Y-67335357D01*
X190615535Y-67335357D01*
X190272678Y-68078214D02*
X190158392Y-68135357D01*
X189929821Y-68135357D01*
X189815535Y-68078214D01*
X189758392Y-67963928D01*
X189758392Y-67906785D01*
X189815535Y-67792500D01*
X189929821Y-67735357D01*
X190101250Y-67735357D01*
X190215535Y-67678214D01*
X190272678Y-67563928D01*
X190272678Y-67506785D01*
X190215535Y-67392500D01*
X190101250Y-67335357D01*
X189929821Y-67335357D01*
X189815535Y-67392500D01*
X188729821Y-68135357D02*
X188729821Y-67506785D01*
X188786964Y-67392500D01*
X188901250Y-67335357D01*
X189129821Y-67335357D01*
X189244107Y-67392500D01*
X188729821Y-68078214D02*
X188844107Y-68135357D01*
X189129821Y-68135357D01*
X189244107Y-68078214D01*
X189301250Y-67963928D01*
X189301250Y-67849642D01*
X189244107Y-67735357D01*
X189129821Y-67678214D01*
X188844107Y-67678214D01*
X188729821Y-67621071D01*
X187986964Y-68135357D02*
X188101250Y-68078214D01*
X188158392Y-67963928D01*
X188158392Y-66935357D01*
X186215535Y-67506785D02*
X186044107Y-67563928D01*
X185986964Y-67621071D01*
X185929821Y-67735357D01*
X185929821Y-67906785D01*
X185986964Y-68021071D01*
X186044107Y-68078214D01*
X186158392Y-68135357D01*
X186615535Y-68135357D01*
X186615535Y-66935357D01*
X186215535Y-66935357D01*
X186101250Y-66992500D01*
X186044107Y-67049642D01*
X185986964Y-67163928D01*
X185986964Y-67278214D01*
X186044107Y-67392500D01*
X186101250Y-67449642D01*
X186215535Y-67506785D01*
X186615535Y-67506785D01*
X185415535Y-68135357D02*
X185415535Y-66935357D01*
X184615535Y-66935357D02*
X184386964Y-66935357D01*
X184272678Y-66992500D01*
X184158392Y-67106785D01*
X184101250Y-67335357D01*
X184101250Y-67735357D01*
X184158392Y-67963928D01*
X184272678Y-68078214D01*
X184386964Y-68135357D01*
X184615535Y-68135357D01*
X184729821Y-68078214D01*
X184844107Y-67963928D01*
X184901250Y-67735357D01*
X184901250Y-67335357D01*
X184844107Y-67106785D01*
X184729821Y-66992500D01*
X184615535Y-66935357D01*
X183644107Y-68078214D02*
X183472678Y-68135357D01*
X183186964Y-68135357D01*
X183072678Y-68078214D01*
X183015535Y-68021071D01*
X182958392Y-67906785D01*
X182958392Y-67792500D01*
X183015535Y-67678214D01*
X183072678Y-67621071D01*
X183186964Y-67563928D01*
X183415535Y-67506785D01*
X183529821Y-67449642D01*
X183586964Y-67392500D01*
X183644107Y-67278214D01*
X183644107Y-67163928D01*
X183586964Y-67049642D01*
X183529821Y-66992500D01*
X183415535Y-66935357D01*
X183129821Y-66935357D01*
X182958392Y-66992500D01*
X182444107Y-68021071D02*
X182386964Y-68078214D01*
X182444107Y-68135357D01*
X182501250Y-68078214D01*
X182444107Y-68021071D01*
X182444107Y-68135357D01*
X181015535Y-67792500D02*
X180444107Y-67792500D01*
X181129821Y-68135357D02*
X180729821Y-66935357D01*
X180329821Y-68135357D01*
X179415535Y-68135357D02*
X179415535Y-66935357D01*
X179415535Y-68078214D02*
X179529821Y-68135357D01*
X179758392Y-68135357D01*
X179872678Y-68078214D01*
X179929821Y-68021071D01*
X179986964Y-67906785D01*
X179986964Y-67563928D01*
X179929821Y-67449642D01*
X179872678Y-67392500D01*
X179758392Y-67335357D01*
X179529821Y-67335357D01*
X179415535Y-67392500D01*
X178329821Y-68135357D02*
X178329821Y-66935357D01*
X178329821Y-68078214D02*
X178444107Y-68135357D01*
X178672678Y-68135357D01*
X178786964Y-68078214D01*
X178844107Y-68021071D01*
X178901250Y-67906785D01*
X178901250Y-67563928D01*
X178844107Y-67449642D01*
X178786964Y-67392500D01*
X178672678Y-67335357D01*
X178444107Y-67335357D01*
X178329821Y-67392500D01*
X177758392Y-68135357D02*
X177758392Y-67335357D01*
X177758392Y-66935357D02*
X177815535Y-66992500D01*
X177758392Y-67049642D01*
X177701250Y-66992500D01*
X177758392Y-66935357D01*
X177758392Y-67049642D01*
X177358392Y-67335357D02*
X176901250Y-67335357D01*
X177186964Y-66935357D02*
X177186964Y-67963928D01*
X177129821Y-68078214D01*
X177015535Y-68135357D01*
X176901250Y-68135357D01*
X176501250Y-68135357D02*
X176501250Y-67335357D01*
X176501250Y-66935357D02*
X176558392Y-66992500D01*
X176501250Y-67049642D01*
X176444107Y-66992500D01*
X176501250Y-66935357D01*
X176501250Y-67049642D01*
X175758392Y-68135357D02*
X175872678Y-68078214D01*
X175929821Y-68021071D01*
X175986964Y-67906785D01*
X175986964Y-67563928D01*
X175929821Y-67449642D01*
X175872678Y-67392500D01*
X175758392Y-67335357D01*
X175586964Y-67335357D01*
X175472678Y-67392500D01*
X175415535Y-67449642D01*
X175358392Y-67563928D01*
X175358392Y-67906785D01*
X175415535Y-68021071D01*
X175472678Y-68078214D01*
X175586964Y-68135357D01*
X175758392Y-68135357D01*
X174844107Y-67335357D02*
X174844107Y-68135357D01*
X174844107Y-67449642D02*
X174786964Y-67392500D01*
X174672678Y-67335357D01*
X174501250Y-67335357D01*
X174386964Y-67392500D01*
X174329821Y-67506785D01*
X174329821Y-68135357D01*
X173244107Y-68135357D02*
X173244107Y-67506785D01*
X173301250Y-67392500D01*
X173415535Y-67335357D01*
X173644107Y-67335357D01*
X173758392Y-67392500D01*
X173244107Y-68078214D02*
X173358392Y-68135357D01*
X173644107Y-68135357D01*
X173758392Y-68078214D01*
X173815535Y-67963928D01*
X173815535Y-67849642D01*
X173758392Y-67735357D01*
X173644107Y-67678214D01*
X173358392Y-67678214D01*
X173244107Y-67621071D01*
X172501250Y-68135357D02*
X172615535Y-68078214D01*
X172672678Y-67963928D01*
X172672678Y-66935357D01*
X171301250Y-67335357D02*
X170844107Y-67335357D01*
X171129821Y-66935357D02*
X171129821Y-67963928D01*
X171072678Y-68078214D01*
X170958392Y-68135357D01*
X170844107Y-68135357D01*
X170444107Y-68135357D02*
X170444107Y-66935357D01*
X169929821Y-68135357D02*
X169929821Y-67506785D01*
X169986964Y-67392500D01*
X170101250Y-67335357D01*
X170272678Y-67335357D01*
X170386964Y-67392500D01*
X170444107Y-67449642D01*
X168844107Y-68135357D02*
X168844107Y-67506785D01*
X168901250Y-67392500D01*
X169015535Y-67335357D01*
X169244107Y-67335357D01*
X169358392Y-67392500D01*
X168844107Y-68078214D02*
X168958392Y-68135357D01*
X169244107Y-68135357D01*
X169358392Y-68078214D01*
X169415535Y-67963928D01*
X169415535Y-67849642D01*
X169358392Y-67735357D01*
X169244107Y-67678214D01*
X168958392Y-67678214D01*
X168844107Y-67621071D01*
X168272678Y-67335357D02*
X168272678Y-68135357D01*
X168272678Y-67449642D02*
X168215535Y-67392500D01*
X168101250Y-67335357D01*
X167929821Y-67335357D01*
X167815535Y-67392500D01*
X167758392Y-67506785D01*
X167758392Y-68135357D01*
X167186964Y-68135357D02*
X167186964Y-66935357D01*
X167072678Y-67678214D02*
X166729821Y-68135357D01*
X166729821Y-67335357D02*
X167186964Y-67792500D01*
X166272678Y-68078214D02*
X166158392Y-68135357D01*
X165929821Y-68135357D01*
X165815535Y-68078214D01*
X165758392Y-67963928D01*
X165758392Y-67906785D01*
X165815535Y-67792500D01*
X165929821Y-67735357D01*
X166101250Y-67735357D01*
X166215535Y-67678214D01*
X166272678Y-67563928D01*
X166272678Y-67506785D01*
X166215535Y-67392500D01*
X166101250Y-67335357D01*
X165929821Y-67335357D01*
X165815535Y-67392500D01*
X164501250Y-67335357D02*
X164044107Y-67335357D01*
X164329821Y-66935357D02*
X164329821Y-67963928D01*
X164272678Y-68078214D01*
X164158392Y-68135357D01*
X164044107Y-68135357D01*
X163472678Y-68135357D02*
X163586964Y-68078214D01*
X163644107Y-68021071D01*
X163701250Y-67906785D01*
X163701250Y-67563928D01*
X163644107Y-67449642D01*
X163586964Y-67392500D01*
X163472678Y-67335357D01*
X163301250Y-67335357D01*
X163186964Y-67392500D01*
X163129821Y-67449642D01*
X163072678Y-67563928D01*
X163072678Y-67906785D01*
X163129821Y-68021071D01*
X163186964Y-68078214D01*
X163301250Y-68135357D01*
X163472678Y-68135357D01*
X160958392Y-68135357D02*
X161358392Y-67563928D01*
X161644107Y-68135357D02*
X161644107Y-66935357D01*
X161186964Y-66935357D01*
X161072678Y-66992500D01*
X161015535Y-67049642D01*
X160958392Y-67163928D01*
X160958392Y-67335357D01*
X161015535Y-67449642D01*
X161072678Y-67506785D01*
X161186964Y-67563928D01*
X161644107Y-67563928D01*
X160272678Y-68135357D02*
X160386964Y-68078214D01*
X160444107Y-68021071D01*
X160501250Y-67906785D01*
X160501250Y-67563928D01*
X160444107Y-67449642D01*
X160386964Y-67392500D01*
X160272678Y-67335357D01*
X160101250Y-67335357D01*
X159986964Y-67392500D01*
X159929821Y-67449642D01*
X159872678Y-67563928D01*
X159872678Y-67906785D01*
X159929821Y-68021071D01*
X159986964Y-68078214D01*
X160101250Y-68135357D01*
X160272678Y-68135357D01*
X159358392Y-68135357D02*
X159358392Y-66935357D01*
X159358392Y-67392500D02*
X159244107Y-67335357D01*
X159015535Y-67335357D01*
X158901250Y-67392500D01*
X158844107Y-67449642D01*
X158786964Y-67563928D01*
X158786964Y-67906785D01*
X158844107Y-68021071D01*
X158901250Y-68078214D01*
X159015535Y-68135357D01*
X159244107Y-68135357D01*
X159358392Y-68078214D01*
X195815535Y-70110357D02*
X195815535Y-68910357D01*
X195129821Y-70110357D02*
X195644107Y-69424642D01*
X195129821Y-68910357D02*
X195815535Y-69596071D01*
X194615535Y-70110357D02*
X194615535Y-69310357D01*
X194615535Y-69538928D02*
X194558392Y-69424642D01*
X194501250Y-69367500D01*
X194386964Y-69310357D01*
X194272678Y-69310357D01*
X193415535Y-70053214D02*
X193529821Y-70110357D01*
X193758392Y-70110357D01*
X193872678Y-70053214D01*
X193929821Y-69938928D01*
X193929821Y-69481785D01*
X193872678Y-69367500D01*
X193758392Y-69310357D01*
X193529821Y-69310357D01*
X193415535Y-69367500D01*
X193358392Y-69481785D01*
X193358392Y-69596071D01*
X193929821Y-69710357D01*
X192844107Y-69310357D02*
X192844107Y-70110357D01*
X192844107Y-69424642D02*
X192786964Y-69367500D01*
X192672678Y-69310357D01*
X192501250Y-69310357D01*
X192386964Y-69367500D01*
X192329821Y-69481785D01*
X192329821Y-70110357D01*
X191758392Y-70110357D02*
X191758392Y-69310357D01*
X191758392Y-68910357D02*
X191815535Y-68967500D01*
X191758392Y-69024642D01*
X191701250Y-68967500D01*
X191758392Y-68910357D01*
X191758392Y-69024642D01*
X190672678Y-70053214D02*
X190786964Y-70110357D01*
X191015535Y-70110357D01*
X191129821Y-70053214D01*
X191186964Y-69996071D01*
X191244107Y-69881785D01*
X191244107Y-69538928D01*
X191186964Y-69424642D01*
X191129821Y-69367500D01*
X191015535Y-69310357D01*
X190786964Y-69310357D01*
X190672678Y-69367500D01*
X190158392Y-70110357D02*
X190158392Y-68910357D01*
X190044107Y-69653214D02*
X189701250Y-70110357D01*
X189701250Y-69310357D02*
X190158392Y-69767500D01*
X189186964Y-70110357D02*
X189186964Y-69310357D01*
X189186964Y-68910357D02*
X189244107Y-68967500D01*
X189186964Y-69024642D01*
X189129821Y-68967500D01*
X189186964Y-68910357D01*
X189186964Y-69024642D01*
X188558392Y-70053214D02*
X188558392Y-70110357D01*
X188615535Y-70224642D01*
X188672678Y-70281785D01*
X186786964Y-68910357D02*
X186786964Y-69767500D01*
X186844107Y-69938928D01*
X186958392Y-70053214D01*
X187129821Y-70110357D01*
X187244107Y-70110357D01*
X185701250Y-70110357D02*
X185701250Y-69481785D01*
X185758392Y-69367500D01*
X185872678Y-69310357D01*
X186101250Y-69310357D01*
X186215535Y-69367500D01*
X185701250Y-70053214D02*
X185815535Y-70110357D01*
X186101250Y-70110357D01*
X186215535Y-70053214D01*
X186272678Y-69938928D01*
X186272678Y-69824642D01*
X186215535Y-69710357D01*
X186101250Y-69653214D01*
X185815535Y-69653214D01*
X185701250Y-69596071D01*
X184615535Y-70053214D02*
X184729821Y-70110357D01*
X184958392Y-70110357D01*
X185072678Y-70053214D01*
X185129821Y-69996071D01*
X185186964Y-69881785D01*
X185186964Y-69538928D01*
X185129821Y-69424642D01*
X185072678Y-69367500D01*
X184958392Y-69310357D01*
X184729821Y-69310357D01*
X184615535Y-69367500D01*
X183929821Y-70110357D02*
X184044107Y-70053214D01*
X184101250Y-69996071D01*
X184158392Y-69881785D01*
X184158392Y-69538928D01*
X184101250Y-69424642D01*
X184044107Y-69367500D01*
X183929821Y-69310357D01*
X183758392Y-69310357D01*
X183644107Y-69367500D01*
X183586964Y-69424642D01*
X183529821Y-69538928D01*
X183529821Y-69881785D01*
X183586964Y-69996071D01*
X183644107Y-70053214D01*
X183758392Y-70110357D01*
X183929821Y-70110357D01*
X183015535Y-70110357D02*
X183015535Y-68910357D01*
X183015535Y-69367500D02*
X182901250Y-69310357D01*
X182672678Y-69310357D01*
X182558392Y-69367500D01*
X182501250Y-69424642D01*
X182444107Y-69538928D01*
X182444107Y-69881785D01*
X182501250Y-69996071D01*
X182558392Y-70053214D01*
X182672678Y-70110357D01*
X182901250Y-70110357D01*
X183015535Y-70053214D01*
X181015535Y-70110357D02*
X181015535Y-68910357D01*
X180729821Y-68910357D01*
X180558392Y-68967500D01*
X180444107Y-69081785D01*
X180386964Y-69196071D01*
X180329821Y-69424642D01*
X180329821Y-69596071D01*
X180386964Y-69824642D01*
X180444107Y-69938928D01*
X180558392Y-70053214D01*
X180729821Y-70110357D01*
X181015535Y-70110357D01*
X179644107Y-70110357D02*
X179758392Y-70053214D01*
X179815535Y-69996071D01*
X179872678Y-69881785D01*
X179872678Y-69538928D01*
X179815535Y-69424642D01*
X179758392Y-69367500D01*
X179644107Y-69310357D01*
X179472678Y-69310357D01*
X179358392Y-69367500D01*
X179301250Y-69424642D01*
X179244107Y-69538928D01*
X179244107Y-69881785D01*
X179301250Y-69996071D01*
X179358392Y-70053214D01*
X179472678Y-70110357D01*
X179644107Y-70110357D01*
X178729821Y-70110357D02*
X178729821Y-69310357D01*
X178729821Y-69538928D02*
X178672678Y-69424642D01*
X178615535Y-69367500D01*
X178501250Y-69310357D01*
X178386964Y-69310357D01*
X177986964Y-69310357D02*
X177986964Y-70110357D01*
X177986964Y-69424642D02*
X177929821Y-69367500D01*
X177815535Y-69310357D01*
X177644107Y-69310357D01*
X177529821Y-69367500D01*
X177472678Y-69481785D01*
X177472678Y-70110357D01*
X176444107Y-70053214D02*
X176558392Y-70110357D01*
X176786964Y-70110357D01*
X176901250Y-70053214D01*
X176958392Y-69938928D01*
X176958392Y-69481785D01*
X176901250Y-69367500D01*
X176786964Y-69310357D01*
X176558392Y-69310357D01*
X176444107Y-69367500D01*
X176386964Y-69481785D01*
X176386964Y-69596071D01*
X176958392Y-69710357D01*
X175015535Y-68853214D02*
X176044107Y-70396071D01*
X174615535Y-70110357D02*
X174615535Y-68910357D01*
X174215535Y-69767500D01*
X173815535Y-68910357D01*
X173815535Y-70110357D01*
X173072678Y-70110357D02*
X173186964Y-70053214D01*
X173244107Y-69996071D01*
X173301250Y-69881785D01*
X173301250Y-69538928D01*
X173244107Y-69424642D01*
X173186964Y-69367500D01*
X173072678Y-69310357D01*
X172901250Y-69310357D01*
X172786964Y-69367500D01*
X172729821Y-69424642D01*
X172672678Y-69538928D01*
X172672678Y-69881785D01*
X172729821Y-69996071D01*
X172786964Y-70053214D01*
X172901250Y-70110357D01*
X173072678Y-70110357D01*
X172158392Y-69310357D02*
X172158392Y-70110357D01*
X172158392Y-69424642D02*
X172101250Y-69367500D01*
X171986964Y-69310357D01*
X171815535Y-69310357D01*
X171701250Y-69367500D01*
X171644107Y-69481785D01*
X171644107Y-70110357D01*
X170901250Y-70110357D02*
X171015535Y-70053214D01*
X171072678Y-69996071D01*
X171129821Y-69881785D01*
X171129821Y-69538928D01*
X171072678Y-69424642D01*
X171015535Y-69367500D01*
X170901250Y-69310357D01*
X170729821Y-69310357D01*
X170615535Y-69367500D01*
X170558392Y-69424642D01*
X170501250Y-69538928D01*
X170501250Y-69881785D01*
X170558392Y-69996071D01*
X170615535Y-70053214D01*
X170729821Y-70110357D01*
X170901250Y-70110357D01*
X170158392Y-69310357D02*
X169701250Y-69310357D01*
X169986964Y-68910357D02*
X169986964Y-69938928D01*
X169929821Y-70053214D01*
X169815535Y-70110357D01*
X169701250Y-70110357D01*
X168844107Y-70053214D02*
X168958392Y-70110357D01*
X169186964Y-70110357D01*
X169301250Y-70053214D01*
X169358392Y-69938928D01*
X169358392Y-69481785D01*
X169301250Y-69367500D01*
X169186964Y-69310357D01*
X168958392Y-69310357D01*
X168844107Y-69367500D01*
X168786964Y-69481785D01*
X168786964Y-69596071D01*
X169358392Y-69710357D01*
X167758392Y-70053214D02*
X167872678Y-70110357D01*
X168101250Y-70110357D01*
X168215535Y-70053214D01*
X168272678Y-69996071D01*
X168329821Y-69881785D01*
X168329821Y-69538928D01*
X168272678Y-69424642D01*
X168215535Y-69367500D01*
X168101250Y-69310357D01*
X167872678Y-69310357D01*
X167758392Y-69367500D01*
X167244107Y-70110357D02*
X167244107Y-68910357D01*
X166729821Y-70110357D02*
X166729821Y-69481785D01*
X166786964Y-69367500D01*
X166901250Y-69310357D01*
X167072678Y-69310357D01*
X167186964Y-69367500D01*
X167244107Y-69424642D01*
X165244107Y-70110357D02*
X165244107Y-68910357D01*
X164786964Y-68910357D01*
X164672678Y-68967500D01*
X164615535Y-69024642D01*
X164558392Y-69138928D01*
X164558392Y-69310357D01*
X164615535Y-69424642D01*
X164672678Y-69481785D01*
X164786964Y-69538928D01*
X165244107Y-69538928D01*
X163358392Y-69996071D02*
X163415535Y-70053214D01*
X163586964Y-70110357D01*
X163701250Y-70110357D01*
X163872678Y-70053214D01*
X163986964Y-69938928D01*
X164044107Y-69824642D01*
X164101250Y-69596071D01*
X164101250Y-69424642D01*
X164044107Y-69196071D01*
X163986964Y-69081785D01*
X163872678Y-68967500D01*
X163701250Y-68910357D01*
X163586964Y-68910357D01*
X163415535Y-68967500D01*
X163358392Y-69024642D01*
X162901250Y-70053214D02*
X162786964Y-70110357D01*
X162558392Y-70110357D01*
X162444107Y-70053214D01*
X162386964Y-69938928D01*
X162386964Y-69881785D01*
X162444107Y-69767500D01*
X162558392Y-69710357D01*
X162729821Y-69710357D01*
X162844107Y-69653214D01*
X162901250Y-69538928D01*
X162901250Y-69481785D01*
X162844107Y-69367500D01*
X162729821Y-69310357D01*
X162558392Y-69310357D01*
X162444107Y-69367500D01*
X161815535Y-70053214D02*
X161815535Y-70110357D01*
X161872678Y-70224642D01*
X161929821Y-70281785D01*
X195472678Y-70885357D02*
X195472678Y-71742500D01*
X195529821Y-71913928D01*
X195644107Y-72028214D01*
X195815535Y-72085357D01*
X195929821Y-72085357D01*
X194386964Y-72085357D02*
X194386964Y-71456785D01*
X194444107Y-71342500D01*
X194558392Y-71285357D01*
X194786964Y-71285357D01*
X194901250Y-71342500D01*
X194386964Y-72028214D02*
X194501250Y-72085357D01*
X194786964Y-72085357D01*
X194901250Y-72028214D01*
X194958392Y-71913928D01*
X194958392Y-71799642D01*
X194901250Y-71685357D01*
X194786964Y-71628214D01*
X194501250Y-71628214D01*
X194386964Y-71571071D01*
X193815535Y-72085357D02*
X193815535Y-71285357D01*
X193815535Y-71399642D02*
X193758392Y-71342500D01*
X193644107Y-71285357D01*
X193472678Y-71285357D01*
X193358392Y-71342500D01*
X193301250Y-71456785D01*
X193301250Y-72085357D01*
X193301250Y-71456785D02*
X193244107Y-71342500D01*
X193129821Y-71285357D01*
X192958392Y-71285357D01*
X192844107Y-71342500D01*
X192786964Y-71456785D01*
X192786964Y-72085357D01*
X191758392Y-72028214D02*
X191872678Y-72085357D01*
X192101250Y-72085357D01*
X192215535Y-72028214D01*
X192272678Y-71913928D01*
X192272678Y-71456785D01*
X192215535Y-71342500D01*
X192101250Y-71285357D01*
X191872678Y-71285357D01*
X191758392Y-71342500D01*
X191701250Y-71456785D01*
X191701250Y-71571071D01*
X192272678Y-71685357D01*
X191244107Y-72028214D02*
X191129821Y-72085357D01*
X190901250Y-72085357D01*
X190786964Y-72028214D01*
X190729821Y-71913928D01*
X190729821Y-71856785D01*
X190786964Y-71742500D01*
X190901250Y-71685357D01*
X191072678Y-71685357D01*
X191186964Y-71628214D01*
X191244107Y-71513928D01*
X191244107Y-71456785D01*
X191186964Y-71342500D01*
X191072678Y-71285357D01*
X190901250Y-71285357D01*
X190786964Y-71342500D01*
X189301250Y-72085357D02*
X189301250Y-70885357D01*
X188844107Y-70885357D01*
X188729821Y-70942500D01*
X188672678Y-70999642D01*
X188615535Y-71113928D01*
X188615535Y-71285357D01*
X188672678Y-71399642D01*
X188729821Y-71456785D01*
X188844107Y-71513928D01*
X189301250Y-71513928D01*
X187644107Y-72028214D02*
X187758392Y-72085357D01*
X187986964Y-72085357D01*
X188101250Y-72028214D01*
X188158392Y-71913928D01*
X188158392Y-71456785D01*
X188101250Y-71342500D01*
X187986964Y-71285357D01*
X187758392Y-71285357D01*
X187644107Y-71342500D01*
X187586964Y-71456785D01*
X187586964Y-71571071D01*
X188158392Y-71685357D01*
X186558392Y-72085357D02*
X186558392Y-71456785D01*
X186615535Y-71342500D01*
X186729821Y-71285357D01*
X186958392Y-71285357D01*
X187072678Y-71342500D01*
X186558392Y-72028214D02*
X186672678Y-72085357D01*
X186958392Y-72085357D01*
X187072678Y-72028214D01*
X187129821Y-71913928D01*
X187129821Y-71799642D01*
X187072678Y-71685357D01*
X186958392Y-71628214D01*
X186672678Y-71628214D01*
X186558392Y-71571071D01*
X185986964Y-72085357D02*
X185986964Y-71285357D01*
X185986964Y-71513928D02*
X185929821Y-71399642D01*
X185872678Y-71342500D01*
X185758392Y-71285357D01*
X185644107Y-71285357D01*
X184729821Y-72028214D02*
X184844107Y-72085357D01*
X185072678Y-72085357D01*
X185186964Y-72028214D01*
X185244107Y-71971071D01*
X185301250Y-71856785D01*
X185301250Y-71513928D01*
X185244107Y-71399642D01*
X185186964Y-71342500D01*
X185072678Y-71285357D01*
X184844107Y-71285357D01*
X184729821Y-71342500D01*
X183758392Y-72028214D02*
X183872678Y-72085357D01*
X184101250Y-72085357D01*
X184215535Y-72028214D01*
X184272678Y-71913928D01*
X184272678Y-71456785D01*
X184215535Y-71342500D01*
X184101250Y-71285357D01*
X183872678Y-71285357D01*
X183758392Y-71342500D01*
X183701250Y-71456785D01*
X183701250Y-71571071D01*
X184272678Y-71685357D01*
X182329821Y-70828214D02*
X183358392Y-72371071D01*
X181358392Y-72085357D02*
X181929821Y-72085357D01*
X181929821Y-70885357D01*
X180786964Y-72085357D02*
X180901250Y-72028214D01*
X180958392Y-71971071D01*
X181015535Y-71856785D01*
X181015535Y-71513928D01*
X180958392Y-71399642D01*
X180901250Y-71342500D01*
X180786964Y-71285357D01*
X180615535Y-71285357D01*
X180501250Y-71342500D01*
X180444107Y-71399642D01*
X180386964Y-71513928D01*
X180386964Y-71856785D01*
X180444107Y-71971071D01*
X180501250Y-72028214D01*
X180615535Y-72085357D01*
X180786964Y-72085357D01*
X179872678Y-71628214D02*
X178958392Y-71628214D01*
X178558392Y-71285357D02*
X178101250Y-71285357D01*
X178386964Y-70885357D02*
X178386964Y-71913928D01*
X178329821Y-72028214D01*
X178215535Y-72085357D01*
X178101250Y-72085357D01*
X177244107Y-72028214D02*
X177358392Y-72085357D01*
X177586964Y-72085357D01*
X177701250Y-72028214D01*
X177758392Y-71913928D01*
X177758392Y-71456785D01*
X177701250Y-71342500D01*
X177586964Y-71285357D01*
X177358392Y-71285357D01*
X177244107Y-71342500D01*
X177186964Y-71456785D01*
X177186964Y-71571071D01*
X177758392Y-71685357D01*
X176158392Y-72028214D02*
X176272678Y-72085357D01*
X176501250Y-72085357D01*
X176615535Y-72028214D01*
X176672678Y-71971071D01*
X176729821Y-71856785D01*
X176729821Y-71513928D01*
X176672678Y-71399642D01*
X176615535Y-71342500D01*
X176501250Y-71285357D01*
X176272678Y-71285357D01*
X176158392Y-71342500D01*
X175644107Y-72085357D02*
X175644107Y-70885357D01*
X175129821Y-72085357D02*
X175129821Y-71456785D01*
X175186964Y-71342500D01*
X175301250Y-71285357D01*
X175472678Y-71285357D01*
X175586964Y-71342500D01*
X175644107Y-71399642D01*
X173129821Y-72085357D02*
X173129821Y-71456785D01*
X173186964Y-71342500D01*
X173301250Y-71285357D01*
X173529821Y-71285357D01*
X173644107Y-71342500D01*
X173129821Y-72028214D02*
X173244107Y-72085357D01*
X173529821Y-72085357D01*
X173644107Y-72028214D01*
X173701250Y-71913928D01*
X173701250Y-71799642D01*
X173644107Y-71685357D01*
X173529821Y-71628214D01*
X173244107Y-71628214D01*
X173129821Y-71571071D01*
X172558392Y-71285357D02*
X172558392Y-72085357D01*
X172558392Y-71399642D02*
X172501250Y-71342500D01*
X172386964Y-71285357D01*
X172215535Y-71285357D01*
X172101250Y-71342500D01*
X172044107Y-71456785D01*
X172044107Y-72085357D01*
X170958392Y-72085357D02*
X170958392Y-70885357D01*
X170958392Y-72028214D02*
X171072678Y-72085357D01*
X171301250Y-72085357D01*
X171415535Y-72028214D01*
X171472678Y-71971071D01*
X171529821Y-71856785D01*
X171529821Y-71513928D01*
X171472678Y-71399642D01*
X171415535Y-71342500D01*
X171301250Y-71285357D01*
X171072678Y-71285357D01*
X170958392Y-71342500D01*
X169472678Y-72085357D02*
X169472678Y-70885357D01*
X169186964Y-70885357D01*
X169015535Y-70942500D01*
X168901250Y-71056785D01*
X168844107Y-71171071D01*
X168786964Y-71399642D01*
X168786964Y-71571071D01*
X168844107Y-71799642D01*
X168901250Y-71913928D01*
X169015535Y-72028214D01*
X169186964Y-72085357D01*
X169472678Y-72085357D01*
X167815535Y-72028214D02*
X167929821Y-72085357D01*
X168158392Y-72085357D01*
X168272678Y-72028214D01*
X168329821Y-71913928D01*
X168329821Y-71456785D01*
X168272678Y-71342500D01*
X168158392Y-71285357D01*
X167929821Y-71285357D01*
X167815535Y-71342500D01*
X167758392Y-71456785D01*
X167758392Y-71571071D01*
X168329821Y-71685357D01*
X167244107Y-72085357D02*
X167244107Y-71285357D01*
X167244107Y-71513928D02*
X167186964Y-71399642D01*
X167129821Y-71342500D01*
X167015535Y-71285357D01*
X166901250Y-71285357D01*
X166044107Y-72028214D02*
X166158392Y-72085357D01*
X166386964Y-72085357D01*
X166501250Y-72028214D01*
X166558392Y-71913928D01*
X166558392Y-71456785D01*
X166501250Y-71342500D01*
X166386964Y-71285357D01*
X166158392Y-71285357D01*
X166044107Y-71342500D01*
X165986964Y-71456785D01*
X165986964Y-71571071D01*
X166558392Y-71685357D01*
X165472678Y-72085357D02*
X165472678Y-70885357D01*
X165358392Y-71628214D02*
X165015535Y-72085357D01*
X165015535Y-71285357D02*
X165472678Y-71742500D01*
X163358392Y-70885357D02*
X163129821Y-70885357D01*
X163015535Y-70942500D01*
X162901250Y-71056785D01*
X162844107Y-71285357D01*
X162844107Y-71685357D01*
X162901250Y-71913928D01*
X163015535Y-72028214D01*
X163129821Y-72085357D01*
X163358392Y-72085357D01*
X163472678Y-72028214D01*
X163586964Y-71913928D01*
X163644107Y-71685357D01*
X163644107Y-71285357D01*
X163586964Y-71056785D01*
X163472678Y-70942500D01*
X163358392Y-70885357D01*
X162386964Y-72028214D02*
X162272678Y-72085357D01*
X162044107Y-72085357D01*
X161929821Y-72028214D01*
X161872678Y-71913928D01*
X161872678Y-71856785D01*
X161929821Y-71742500D01*
X162044107Y-71685357D01*
X162215535Y-71685357D01*
X162329821Y-71628214D01*
X162386964Y-71513928D01*
X162386964Y-71456785D01*
X162329821Y-71342500D01*
X162215535Y-71285357D01*
X162044107Y-71285357D01*
X161929821Y-71342500D01*
X161358392Y-72085357D02*
X161358392Y-70885357D01*
X161358392Y-71342500D02*
X161244107Y-71285357D01*
X161015535Y-71285357D01*
X160901250Y-71342500D01*
X160844107Y-71399642D01*
X160786964Y-71513928D01*
X160786964Y-71856785D01*
X160844107Y-71971071D01*
X160901250Y-72028214D01*
X161015535Y-72085357D01*
X161244107Y-72085357D01*
X161358392Y-72028214D01*
X160101250Y-72085357D02*
X160215535Y-72028214D01*
X160272678Y-71971071D01*
X160329821Y-71856785D01*
X160329821Y-71513928D01*
X160272678Y-71399642D01*
X160215535Y-71342500D01*
X160101250Y-71285357D01*
X159929821Y-71285357D01*
X159815535Y-71342500D01*
X159758392Y-71399642D01*
X159701250Y-71513928D01*
X159701250Y-71856785D01*
X159758392Y-71971071D01*
X159815535Y-72028214D01*
X159929821Y-72085357D01*
X160101250Y-72085357D01*
X159186964Y-72085357D02*
X159186964Y-71285357D01*
X159186964Y-71513928D02*
X159129821Y-71399642D01*
X159072678Y-71342500D01*
X158958392Y-71285357D01*
X158844107Y-71285357D01*
X158444107Y-71285357D02*
X158444107Y-72085357D01*
X158444107Y-71399642D02*
X158386964Y-71342500D01*
X158272678Y-71285357D01*
X158101250Y-71285357D01*
X157986964Y-71342500D01*
X157929821Y-71456785D01*
X157929821Y-72085357D01*
X195986964Y-73260357D02*
X195529821Y-73260357D01*
X195815535Y-74060357D02*
X195815535Y-73031785D01*
X195758392Y-72917500D01*
X195644107Y-72860357D01*
X195529821Y-72860357D01*
X194958392Y-74060357D02*
X195072678Y-74003214D01*
X195129821Y-73946071D01*
X195186964Y-73831785D01*
X195186964Y-73488928D01*
X195129821Y-73374642D01*
X195072678Y-73317500D01*
X194958392Y-73260357D01*
X194786964Y-73260357D01*
X194672678Y-73317500D01*
X194615535Y-73374642D01*
X194558392Y-73488928D01*
X194558392Y-73831785D01*
X194615535Y-73946071D01*
X194672678Y-74003214D01*
X194786964Y-74060357D01*
X194958392Y-74060357D01*
X194044107Y-74060357D02*
X194044107Y-73260357D01*
X194044107Y-73488928D02*
X193986964Y-73374642D01*
X193929821Y-73317500D01*
X193815535Y-73260357D01*
X193701249Y-73260357D01*
X192558392Y-73260357D02*
X192101250Y-73260357D01*
X192386964Y-72860357D02*
X192386964Y-73888928D01*
X192329821Y-74003214D01*
X192215535Y-74060357D01*
X192101250Y-74060357D01*
X191701249Y-74060357D02*
X191701249Y-72860357D01*
X191186964Y-74060357D02*
X191186964Y-73431785D01*
X191244107Y-73317500D01*
X191358392Y-73260357D01*
X191529821Y-73260357D01*
X191644107Y-73317500D01*
X191701249Y-73374642D01*
X190158392Y-74003214D02*
X190272678Y-74060357D01*
X190501249Y-74060357D01*
X190615535Y-74003214D01*
X190672678Y-73888928D01*
X190672678Y-73431785D01*
X190615535Y-73317500D01*
X190501249Y-73260357D01*
X190272678Y-73260357D01*
X190158392Y-73317500D01*
X190101249Y-73431785D01*
X190101249Y-73546071D01*
X190672678Y-73660357D01*
X189586964Y-74060357D02*
X189586964Y-73260357D01*
X189586964Y-72860357D02*
X189644107Y-72917500D01*
X189586964Y-72974642D01*
X189529821Y-72917500D01*
X189586964Y-72860357D01*
X189586964Y-72974642D01*
X189015535Y-74060357D02*
X189015535Y-73260357D01*
X189015535Y-73488928D02*
X188958392Y-73374642D01*
X188901249Y-73317500D01*
X188786964Y-73260357D01*
X188672678Y-73260357D01*
X187358392Y-74060357D02*
X187358392Y-73260357D01*
X187358392Y-72860357D02*
X187415535Y-72917500D01*
X187358392Y-72974642D01*
X187301249Y-72917500D01*
X187358392Y-72860357D01*
X187358392Y-72974642D01*
X186786964Y-73260357D02*
X186786964Y-74060357D01*
X186786964Y-73374642D02*
X186729821Y-73317500D01*
X186615535Y-73260357D01*
X186444107Y-73260357D01*
X186329821Y-73317500D01*
X186272678Y-73431785D01*
X186272678Y-74060357D01*
X185872678Y-73260357D02*
X185415535Y-73260357D01*
X185701249Y-74060357D02*
X185701249Y-73031785D01*
X185644107Y-72917500D01*
X185529821Y-72860357D01*
X185415535Y-72860357D01*
X184844107Y-74060357D02*
X184958392Y-74003214D01*
X185015535Y-73888928D01*
X185015535Y-72860357D01*
X183872678Y-73260357D02*
X183872678Y-74060357D01*
X184386964Y-73260357D02*
X184386964Y-73888928D01*
X184329821Y-74003214D01*
X184215535Y-74060357D01*
X184044107Y-74060357D01*
X183929821Y-74003214D01*
X183872678Y-73946071D01*
X182844107Y-74003214D02*
X182958392Y-74060357D01*
X183186964Y-74060357D01*
X183301249Y-74003214D01*
X183358392Y-73888928D01*
X183358392Y-73431785D01*
X183301249Y-73317500D01*
X183186964Y-73260357D01*
X182958392Y-73260357D01*
X182844107Y-73317500D01*
X182786964Y-73431785D01*
X182786964Y-73546071D01*
X183358392Y-73660357D01*
X182272678Y-73260357D02*
X182272678Y-74060357D01*
X182272678Y-73374642D02*
X182215535Y-73317500D01*
X182101249Y-73260357D01*
X181929821Y-73260357D01*
X181815535Y-73317500D01*
X181758392Y-73431785D01*
X181758392Y-74060357D01*
X180672678Y-74003214D02*
X180786964Y-74060357D01*
X181015535Y-74060357D01*
X181129821Y-74003214D01*
X181186964Y-73946071D01*
X181244107Y-73831785D01*
X181244107Y-73488928D01*
X181186964Y-73374642D01*
X181129821Y-73317500D01*
X181015535Y-73260357D01*
X180786964Y-73260357D01*
X180672678Y-73317500D01*
X180158392Y-74060357D02*
X180158392Y-73260357D01*
X180158392Y-72860357D02*
X180215535Y-72917500D01*
X180158392Y-72974642D01*
X180101249Y-72917500D01*
X180158392Y-72860357D01*
X180158392Y-72974642D01*
X179586964Y-73260357D02*
X179586964Y-74060357D01*
X179586964Y-73374642D02*
X179529821Y-73317500D01*
X179415535Y-73260357D01*
X179244107Y-73260357D01*
X179129821Y-73317500D01*
X179072678Y-73431785D01*
X179072678Y-74060357D01*
X177986964Y-73260357D02*
X177986964Y-74231785D01*
X178044107Y-74346071D01*
X178101249Y-74403214D01*
X178215535Y-74460357D01*
X178386964Y-74460357D01*
X178501249Y-74403214D01*
X177986964Y-74003214D02*
X178101249Y-74060357D01*
X178329821Y-74060357D01*
X178444107Y-74003214D01*
X178501249Y-73946071D01*
X178558392Y-73831785D01*
X178558392Y-73488928D01*
X178501249Y-73374642D01*
X178444107Y-73317500D01*
X178329821Y-73260357D01*
X178101249Y-73260357D01*
X177986964Y-73317500D01*
X176615535Y-73260357D02*
X176386964Y-74060357D01*
X176158392Y-73488928D01*
X175929821Y-74060357D01*
X175701249Y-73260357D01*
X175072678Y-74060357D02*
X175186964Y-74003214D01*
X175244107Y-73946071D01*
X175301249Y-73831785D01*
X175301249Y-73488928D01*
X175244107Y-73374642D01*
X175186964Y-73317500D01*
X175072678Y-73260357D01*
X174901249Y-73260357D01*
X174786964Y-73317500D01*
X174729821Y-73374642D01*
X174672678Y-73488928D01*
X174672678Y-73831785D01*
X174729821Y-73946071D01*
X174786964Y-74003214D01*
X174901249Y-74060357D01*
X175072678Y-74060357D01*
X174158392Y-74060357D02*
X174158392Y-73260357D01*
X174158392Y-73488928D02*
X174101249Y-73374642D01*
X174044107Y-73317500D01*
X173929821Y-73260357D01*
X173815535Y-73260357D01*
X173415535Y-74060357D02*
X173415535Y-72860357D01*
X173301249Y-73603214D02*
X172958392Y-74060357D01*
X172958392Y-73260357D02*
X173415535Y-73717500D01*
X172501249Y-74003214D02*
X172386964Y-74060357D01*
X172158392Y-74060357D01*
X172044107Y-74003214D01*
X171986964Y-73888928D01*
X171986964Y-73831785D01*
X172044107Y-73717500D01*
X172158392Y-73660357D01*
X172329821Y-73660357D01*
X172444107Y-73603214D01*
X172501249Y-73488928D01*
X172501249Y-73431785D01*
X172444107Y-73317500D01*
X172329821Y-73260357D01*
X172158392Y-73260357D01*
X172044107Y-73317500D01*
X171472678Y-73946071D02*
X171415535Y-74003214D01*
X171472678Y-74060357D01*
X171529821Y-74003214D01*
X171472678Y-73946071D01*
X171472678Y-74060357D01*
D10*
X125095000Y-112395000D02*
X172720000Y-112395000D01*
X172720000Y-109855000D02*
X125095000Y-109855000D01*
X175895000Y-117475000D02*
X223520000Y-117475000D01*
X223520000Y-114935000D02*
X175895000Y-114935000D01*
X175895000Y-112395000D02*
X223520000Y-112395000D01*
X153035000Y-114935000D02*
X139065000Y-114935000D01*
X189865000Y-109855000D02*
X203835000Y-109855000D01*
X125095000Y-114935000D02*
X139065000Y-114935000D01*
X189865000Y-109855000D02*
X175895000Y-109855000D01*
X153035000Y-114935000D02*
X172720000Y-114935000D01*
X223520000Y-109855000D02*
X203835000Y-109855000D01*
X168637976Y-114022142D02*
X168685595Y-114069761D01*
X168828452Y-114117380D01*
X168923690Y-114117380D01*
X169066547Y-114069761D01*
X169161785Y-113974523D01*
X169209404Y-113879285D01*
X169257023Y-113688809D01*
X169257023Y-113545952D01*
X169209404Y-113355476D01*
X169161785Y-113260238D01*
X169066547Y-113165000D01*
X168923690Y-113117380D01*
X168828452Y-113117380D01*
X168685595Y-113165000D01*
X168637976Y-113212619D01*
X167876071Y-113593571D02*
X168209404Y-113593571D01*
X168209404Y-114117380D02*
X168209404Y-113117380D01*
X167733214Y-113117380D01*
X166637976Y-113831666D02*
X166161785Y-113831666D01*
X166733214Y-114117380D02*
X166399880Y-113117380D01*
X166066547Y-114117380D01*
X165876071Y-113117380D02*
X165304642Y-113117380D01*
X165590357Y-114117380D02*
X165590357Y-113117380D01*
X165018928Y-113831666D02*
X164542738Y-113831666D01*
X165114166Y-114117380D02*
X164780833Y-113117380D01*
X164447500Y-114117380D01*
X163399880Y-113831666D02*
X162923690Y-113831666D01*
X163495119Y-114117380D02*
X163161785Y-113117380D01*
X162828452Y-114117380D01*
X162066547Y-114117380D02*
X162066547Y-113117380D01*
X162066547Y-114069761D02*
X162161785Y-114117380D01*
X162352261Y-114117380D01*
X162447500Y-114069761D01*
X162495119Y-114022142D01*
X162542738Y-113926904D01*
X162542738Y-113641190D01*
X162495119Y-113545952D01*
X162447500Y-113498333D01*
X162352261Y-113450714D01*
X162161785Y-113450714D01*
X162066547Y-113498333D01*
X161161785Y-114117380D02*
X161161785Y-113117380D01*
X161161785Y-114069761D02*
X161257023Y-114117380D01*
X161447500Y-114117380D01*
X161542738Y-114069761D01*
X161590357Y-114022142D01*
X161637976Y-113926904D01*
X161637976Y-113641190D01*
X161590357Y-113545952D01*
X161542738Y-113498333D01*
X161447500Y-113450714D01*
X161257023Y-113450714D01*
X161161785Y-113498333D01*
X160685595Y-114117380D02*
X160685595Y-113450714D01*
X160685595Y-113641190D02*
X160637976Y-113545952D01*
X160590357Y-113498333D01*
X160495119Y-113450714D01*
X160399880Y-113450714D01*
X159685595Y-114069761D02*
X159780833Y-114117380D01*
X159971309Y-114117380D01*
X160066547Y-114069761D01*
X160114166Y-113974523D01*
X160114166Y-113593571D01*
X160066547Y-113498333D01*
X159971309Y-113450714D01*
X159780833Y-113450714D01*
X159685595Y-113498333D01*
X159637976Y-113593571D01*
X159637976Y-113688809D01*
X160114166Y-113784047D01*
X159257023Y-114069761D02*
X159161785Y-114117380D01*
X158971309Y-114117380D01*
X158876071Y-114069761D01*
X158828452Y-113974523D01*
X158828452Y-113926904D01*
X158876071Y-113831666D01*
X158971309Y-113784047D01*
X159114166Y-113784047D01*
X159209404Y-113736428D01*
X159257023Y-113641190D01*
X159257023Y-113593571D01*
X159209404Y-113498333D01*
X159114166Y-113450714D01*
X158971309Y-113450714D01*
X158876071Y-113498333D01*
X158447500Y-114069761D02*
X158352261Y-114117380D01*
X158161785Y-114117380D01*
X158066547Y-114069761D01*
X158018928Y-113974523D01*
X158018928Y-113926904D01*
X158066547Y-113831666D01*
X158161785Y-113784047D01*
X158304642Y-113784047D01*
X158399880Y-113736428D01*
X158447500Y-113641190D01*
X158447500Y-113593571D01*
X158399880Y-113498333D01*
X158304642Y-113450714D01*
X158161785Y-113450714D01*
X158066547Y-113498333D01*
X169209404Y-110577380D02*
X169209404Y-111386904D01*
X169161785Y-111482142D01*
X169114166Y-111529761D01*
X169018928Y-111577380D01*
X168828452Y-111577380D01*
X168733214Y-111529761D01*
X168685595Y-111482142D01*
X168637976Y-111386904D01*
X168637976Y-110577380D01*
X168161785Y-110910714D02*
X168161785Y-111910714D01*
X168161785Y-110958333D02*
X168066547Y-110910714D01*
X167876071Y-110910714D01*
X167780833Y-110958333D01*
X167733214Y-111005952D01*
X167685595Y-111101190D01*
X167685595Y-111386904D01*
X167733214Y-111482142D01*
X167780833Y-111529761D01*
X167876071Y-111577380D01*
X168066547Y-111577380D01*
X168161785Y-111529761D01*
X167257023Y-110910714D02*
X167257023Y-111910714D01*
X167257023Y-110958333D02*
X167161785Y-110910714D01*
X166971309Y-110910714D01*
X166876071Y-110958333D01*
X166828452Y-111005952D01*
X166780833Y-111101190D01*
X166780833Y-111386904D01*
X166828452Y-111482142D01*
X166876071Y-111529761D01*
X166971309Y-111577380D01*
X167161785Y-111577380D01*
X167257023Y-111529761D01*
X165971309Y-111529761D02*
X166066547Y-111577380D01*
X166257023Y-111577380D01*
X166352261Y-111529761D01*
X166399880Y-111434523D01*
X166399880Y-111053571D01*
X166352261Y-110958333D01*
X166257023Y-110910714D01*
X166066547Y-110910714D01*
X165971309Y-110958333D01*
X165923690Y-111053571D01*
X165923690Y-111148809D01*
X166399880Y-111244047D01*
X165495119Y-111577380D02*
X165495119Y-110910714D01*
X165495119Y-111101190D02*
X165447500Y-111005952D01*
X165399880Y-110958333D01*
X165304642Y-110910714D01*
X165209404Y-110910714D01*
X164114166Y-111577380D02*
X164114166Y-110577380D01*
X163780833Y-111291666D01*
X163447500Y-110577380D01*
X163447500Y-111577380D01*
X162590357Y-111529761D02*
X162685595Y-111577380D01*
X162876071Y-111577380D01*
X162971309Y-111529761D01*
X163018928Y-111434523D01*
X163018928Y-111053571D01*
X162971309Y-110958333D01*
X162876071Y-110910714D01*
X162685595Y-110910714D01*
X162590357Y-110958333D01*
X162542738Y-111053571D01*
X162542738Y-111148809D01*
X163018928Y-111244047D01*
X162114166Y-111577380D02*
X162114166Y-110910714D01*
X162114166Y-111005952D02*
X162066547Y-110958333D01*
X161971309Y-110910714D01*
X161828452Y-110910714D01*
X161733214Y-110958333D01*
X161685595Y-111053571D01*
X161685595Y-111577380D01*
X161685595Y-111053571D02*
X161637976Y-110958333D01*
X161542738Y-110910714D01*
X161399880Y-110910714D01*
X161304642Y-110958333D01*
X161257023Y-111053571D01*
X161257023Y-111577380D01*
X160637976Y-111577380D02*
X160733214Y-111529761D01*
X160780833Y-111482142D01*
X160828452Y-111386904D01*
X160828452Y-111101190D01*
X160780833Y-111005952D01*
X160733214Y-110958333D01*
X160637976Y-110910714D01*
X160495119Y-110910714D01*
X160399880Y-110958333D01*
X160352261Y-111005952D01*
X160304642Y-111101190D01*
X160304642Y-111386904D01*
X160352261Y-111482142D01*
X160399880Y-111529761D01*
X160495119Y-111577380D01*
X160637976Y-111577380D01*
X159876071Y-111577380D02*
X159876071Y-110910714D01*
X159876071Y-111101190D02*
X159828452Y-111005952D01*
X159780833Y-110958333D01*
X159685595Y-110910714D01*
X159590357Y-110910714D01*
X159352261Y-110910714D02*
X159114166Y-111577380D01*
X158876071Y-110910714D02*
X159114166Y-111577380D01*
X159209404Y-111815476D01*
X159257023Y-111863095D01*
X159352261Y-111910714D01*
X157780833Y-111529761D02*
X157637976Y-111577380D01*
X157399880Y-111577380D01*
X157304642Y-111529761D01*
X157257023Y-111482142D01*
X157209404Y-111386904D01*
X157209404Y-111291666D01*
X157257023Y-111196428D01*
X157304642Y-111148809D01*
X157399880Y-111101190D01*
X157590357Y-111053571D01*
X157685595Y-111005952D01*
X157733214Y-110958333D01*
X157780833Y-110863095D01*
X157780833Y-110767857D01*
X157733214Y-110672619D01*
X157685595Y-110625000D01*
X157590357Y-110577380D01*
X157352261Y-110577380D01*
X157209404Y-110625000D01*
X156780833Y-111577380D02*
X156780833Y-110910714D01*
X156780833Y-110577380D02*
X156828452Y-110625000D01*
X156780833Y-110672619D01*
X156733214Y-110625000D01*
X156780833Y-110577380D01*
X156780833Y-110672619D01*
X156399880Y-110910714D02*
X155876071Y-110910714D01*
X156399880Y-111577380D01*
X155876071Y-111577380D01*
X155114166Y-111529761D02*
X155209404Y-111577380D01*
X155399880Y-111577380D01*
X155495119Y-111529761D01*
X155542738Y-111434523D01*
X155542738Y-111053571D01*
X155495119Y-110958333D01*
X155399880Y-110910714D01*
X155209404Y-110910714D01*
X155114166Y-110958333D01*
X155066547Y-111053571D01*
X155066547Y-111148809D01*
X155542738Y-111244047D01*
X154495119Y-110577380D02*
X154495119Y-110815476D01*
X154733214Y-110720238D02*
X154495119Y-110815476D01*
X154257023Y-110720238D01*
X154637976Y-111005952D02*
X154495119Y-110815476D01*
X154352261Y-111005952D01*
X197784404Y-118673571D02*
X197451071Y-118673571D01*
X197308214Y-119197380D02*
X197784404Y-119197380D01*
X197784404Y-118197380D01*
X197308214Y-118197380D01*
X196879642Y-118530714D02*
X196879642Y-119197380D01*
X196879642Y-118625952D02*
X196832023Y-118578333D01*
X196736785Y-118530714D01*
X196593928Y-118530714D01*
X196498690Y-118578333D01*
X196451071Y-118673571D01*
X196451071Y-119197380D01*
X195546309Y-119197380D02*
X195546309Y-118673571D01*
X195593928Y-118578333D01*
X195689166Y-118530714D01*
X195879642Y-118530714D01*
X195974880Y-118578333D01*
X195546309Y-119149761D02*
X195641547Y-119197380D01*
X195879642Y-119197380D01*
X195974880Y-119149761D01*
X196022500Y-119054523D01*
X196022500Y-118959285D01*
X195974880Y-118864047D01*
X195879642Y-118816428D01*
X195641547Y-118816428D01*
X195546309Y-118768809D01*
X195070119Y-119197380D02*
X195070119Y-118197380D01*
X195070119Y-118578333D02*
X194974880Y-118530714D01*
X194784404Y-118530714D01*
X194689166Y-118578333D01*
X194641547Y-118625952D01*
X194593928Y-118721190D01*
X194593928Y-119006904D01*
X194641547Y-119102142D01*
X194689166Y-119149761D01*
X194784404Y-119197380D01*
X194974880Y-119197380D01*
X195070119Y-119149761D01*
X194022500Y-119197380D02*
X194117738Y-119149761D01*
X194165357Y-119054523D01*
X194165357Y-118197380D01*
X193260595Y-119149761D02*
X193355833Y-119197380D01*
X193546309Y-119197380D01*
X193641547Y-119149761D01*
X193689166Y-119054523D01*
X193689166Y-118673571D01*
X193641547Y-118578333D01*
X193546309Y-118530714D01*
X193355833Y-118530714D01*
X193260595Y-118578333D01*
X193212976Y-118673571D01*
X193212976Y-118768809D01*
X193689166Y-118864047D01*
X192355833Y-119197380D02*
X192355833Y-118197380D01*
X192355833Y-119149761D02*
X192451071Y-119197380D01*
X192641547Y-119197380D01*
X192736785Y-119149761D01*
X192784404Y-119102142D01*
X192832023Y-119006904D01*
X192832023Y-118721190D01*
X192784404Y-118625952D01*
X192736785Y-118578333D01*
X192641547Y-118530714D01*
X192451071Y-118530714D01*
X192355833Y-118578333D01*
X184449404Y-119197380D02*
X184449404Y-118197380D01*
X184211309Y-118197380D01*
X184068452Y-118245000D01*
X183973214Y-118340238D01*
X183925595Y-118435476D01*
X183877976Y-118625952D01*
X183877976Y-118768809D01*
X183925595Y-118959285D01*
X183973214Y-119054523D01*
X184068452Y-119149761D01*
X184211309Y-119197380D01*
X184449404Y-119197380D01*
X183449404Y-119197380D02*
X183449404Y-118530714D01*
X183449404Y-118197380D02*
X183497023Y-118245000D01*
X183449404Y-118292619D01*
X183401785Y-118245000D01*
X183449404Y-118197380D01*
X183449404Y-118292619D01*
X183020833Y-119149761D02*
X182925595Y-119197380D01*
X182735119Y-119197380D01*
X182639880Y-119149761D01*
X182592261Y-119054523D01*
X182592261Y-119006904D01*
X182639880Y-118911666D01*
X182735119Y-118864047D01*
X182877976Y-118864047D01*
X182973214Y-118816428D01*
X183020833Y-118721190D01*
X183020833Y-118673571D01*
X182973214Y-118578333D01*
X182877976Y-118530714D01*
X182735119Y-118530714D01*
X182639880Y-118578333D01*
X181735119Y-119197380D02*
X181735119Y-118673571D01*
X181782738Y-118578333D01*
X181877976Y-118530714D01*
X182068452Y-118530714D01*
X182163690Y-118578333D01*
X181735119Y-119149761D02*
X181830357Y-119197380D01*
X182068452Y-119197380D01*
X182163690Y-119149761D01*
X182211309Y-119054523D01*
X182211309Y-118959285D01*
X182163690Y-118864047D01*
X182068452Y-118816428D01*
X181830357Y-118816428D01*
X181735119Y-118768809D01*
X181258928Y-119197380D02*
X181258928Y-118197380D01*
X181258928Y-118578333D02*
X181163690Y-118530714D01*
X180973214Y-118530714D01*
X180877976Y-118578333D01*
X180830357Y-118625952D01*
X180782738Y-118721190D01*
X180782738Y-119006904D01*
X180830357Y-119102142D01*
X180877976Y-119149761D01*
X180973214Y-119197380D01*
X181163690Y-119197380D01*
X181258928Y-119149761D01*
X180211309Y-119197380D02*
X180306547Y-119149761D01*
X180354166Y-119054523D01*
X180354166Y-118197380D01*
X179449404Y-119149761D02*
X179544642Y-119197380D01*
X179735119Y-119197380D01*
X179830357Y-119149761D01*
X179877976Y-119054523D01*
X179877976Y-118673571D01*
X179830357Y-118578333D01*
X179735119Y-118530714D01*
X179544642Y-118530714D01*
X179449404Y-118578333D01*
X179401785Y-118673571D01*
X179401785Y-118768809D01*
X179877976Y-118864047D01*
X178544642Y-119197380D02*
X178544642Y-118197380D01*
X178544642Y-119149761D02*
X178639880Y-119197380D01*
X178830357Y-119197380D01*
X178925595Y-119149761D01*
X178973214Y-119102142D01*
X179020833Y-119006904D01*
X179020833Y-118721190D01*
X178973214Y-118625952D01*
X178925595Y-118578333D01*
X178830357Y-118530714D01*
X178639880Y-118530714D01*
X178544642Y-118578333D01*
X220009404Y-118197380D02*
X220009404Y-119006904D01*
X219961785Y-119102142D01*
X219914166Y-119149761D01*
X219818928Y-119197380D01*
X219628452Y-119197380D01*
X219533214Y-119149761D01*
X219485595Y-119102142D01*
X219437976Y-119006904D01*
X219437976Y-118197380D01*
X218961785Y-118530714D02*
X218961785Y-119530714D01*
X218961785Y-118578333D02*
X218866547Y-118530714D01*
X218676071Y-118530714D01*
X218580833Y-118578333D01*
X218533214Y-118625952D01*
X218485595Y-118721190D01*
X218485595Y-119006904D01*
X218533214Y-119102142D01*
X218580833Y-119149761D01*
X218676071Y-119197380D01*
X218866547Y-119197380D01*
X218961785Y-119149761D01*
X218057023Y-118530714D02*
X218057023Y-119530714D01*
X218057023Y-118578333D02*
X217961785Y-118530714D01*
X217771309Y-118530714D01*
X217676071Y-118578333D01*
X217628452Y-118625952D01*
X217580833Y-118721190D01*
X217580833Y-119006904D01*
X217628452Y-119102142D01*
X217676071Y-119149761D01*
X217771309Y-119197380D01*
X217961785Y-119197380D01*
X218057023Y-119149761D01*
X216771309Y-119149761D02*
X216866547Y-119197380D01*
X217057023Y-119197380D01*
X217152261Y-119149761D01*
X217199880Y-119054523D01*
X217199880Y-118673571D01*
X217152261Y-118578333D01*
X217057023Y-118530714D01*
X216866547Y-118530714D01*
X216771309Y-118578333D01*
X216723690Y-118673571D01*
X216723690Y-118768809D01*
X217199880Y-118864047D01*
X216295119Y-119197380D02*
X216295119Y-118530714D01*
X216295119Y-118721190D02*
X216247500Y-118625952D01*
X216199880Y-118578333D01*
X216104642Y-118530714D01*
X216009404Y-118530714D01*
X214914166Y-119197380D02*
X214914166Y-118197380D01*
X214580833Y-118911666D01*
X214247500Y-118197380D01*
X214247500Y-119197380D01*
X213390357Y-119149761D02*
X213485595Y-119197380D01*
X213676071Y-119197380D01*
X213771309Y-119149761D01*
X213818928Y-119054523D01*
X213818928Y-118673571D01*
X213771309Y-118578333D01*
X213676071Y-118530714D01*
X213485595Y-118530714D01*
X213390357Y-118578333D01*
X213342738Y-118673571D01*
X213342738Y-118768809D01*
X213818928Y-118864047D01*
X212914166Y-119197380D02*
X212914166Y-118530714D01*
X212914166Y-118625952D02*
X212866547Y-118578333D01*
X212771309Y-118530714D01*
X212628452Y-118530714D01*
X212533214Y-118578333D01*
X212485595Y-118673571D01*
X212485595Y-119197380D01*
X212485595Y-118673571D02*
X212437976Y-118578333D01*
X212342738Y-118530714D01*
X212199880Y-118530714D01*
X212104642Y-118578333D01*
X212057023Y-118673571D01*
X212057023Y-119197380D01*
X211437976Y-119197380D02*
X211533214Y-119149761D01*
X211580833Y-119102142D01*
X211628452Y-119006904D01*
X211628452Y-118721190D01*
X211580833Y-118625952D01*
X211533214Y-118578333D01*
X211437976Y-118530714D01*
X211295119Y-118530714D01*
X211199880Y-118578333D01*
X211152261Y-118625952D01*
X211104642Y-118721190D01*
X211104642Y-119006904D01*
X211152261Y-119102142D01*
X211199880Y-119149761D01*
X211295119Y-119197380D01*
X211437976Y-119197380D01*
X210676071Y-119197380D02*
X210676071Y-118530714D01*
X210676071Y-118721190D02*
X210628452Y-118625952D01*
X210580833Y-118578333D01*
X210485595Y-118530714D01*
X210390357Y-118530714D01*
X210152261Y-118530714D02*
X209914166Y-119197380D01*
X209676071Y-118530714D02*
X209914166Y-119197380D01*
X210009404Y-119435476D01*
X210057023Y-119483095D01*
X210152261Y-119530714D01*
X208247500Y-119578333D02*
X208295119Y-119530714D01*
X208390357Y-119387857D01*
X208437976Y-119292619D01*
X208485595Y-119149761D01*
X208533214Y-118911666D01*
X208533214Y-118721190D01*
X208485595Y-118483095D01*
X208437976Y-118340238D01*
X208390357Y-118245000D01*
X208295119Y-118102142D01*
X208247500Y-118054523D01*
X207866547Y-118197380D02*
X207866547Y-119006904D01*
X207818928Y-119102142D01*
X207771309Y-119149761D01*
X207676071Y-119197380D01*
X207485595Y-119197380D01*
X207390357Y-119149761D01*
X207342738Y-119102142D01*
X207295119Y-119006904D01*
X207295119Y-118197380D01*
X206818928Y-119197380D02*
X206818928Y-118197380D01*
X206485595Y-118911666D01*
X206152261Y-118197380D01*
X206152261Y-119197380D01*
X205342738Y-118673571D02*
X205199880Y-118721190D01*
X205152261Y-118768809D01*
X205104642Y-118864047D01*
X205104642Y-119006904D01*
X205152261Y-119102142D01*
X205199880Y-119149761D01*
X205295119Y-119197380D01*
X205676071Y-119197380D01*
X205676071Y-118197380D01*
X205342738Y-118197380D01*
X205247500Y-118245000D01*
X205199880Y-118292619D01*
X205152261Y-118387857D01*
X205152261Y-118483095D01*
X205199880Y-118578333D01*
X205247500Y-118625952D01*
X205342738Y-118673571D01*
X205676071Y-118673571D01*
X204771309Y-119578333D02*
X204723690Y-119530714D01*
X204628452Y-119387857D01*
X204580833Y-119292619D01*
X204533214Y-119149761D01*
X204485595Y-118911666D01*
X204485595Y-118721190D01*
X204533214Y-118483095D01*
X204580833Y-118340238D01*
X204628452Y-118245000D01*
X204723690Y-118102142D01*
X204771309Y-118054523D01*
X219676071Y-116133571D02*
X219533214Y-116181190D01*
X219485595Y-116228809D01*
X219437976Y-116324047D01*
X219437976Y-116466904D01*
X219485595Y-116562142D01*
X219533214Y-116609761D01*
X219628452Y-116657380D01*
X220009404Y-116657380D01*
X220009404Y-115657380D01*
X219676071Y-115657380D01*
X219580833Y-115705000D01*
X219533214Y-115752619D01*
X219485595Y-115847857D01*
X219485595Y-115943095D01*
X219533214Y-116038333D01*
X219580833Y-116085952D01*
X219676071Y-116133571D01*
X220009404Y-116133571D01*
X218580833Y-116657380D02*
X218580833Y-116133571D01*
X218628452Y-116038333D01*
X218723690Y-115990714D01*
X218914166Y-115990714D01*
X219009404Y-116038333D01*
X218580833Y-116609761D02*
X218676071Y-116657380D01*
X218914166Y-116657380D01*
X219009404Y-116609761D01*
X219057023Y-116514523D01*
X219057023Y-116419285D01*
X219009404Y-116324047D01*
X218914166Y-116276428D01*
X218676071Y-116276428D01*
X218580833Y-116228809D01*
X218152261Y-116609761D02*
X218057023Y-116657380D01*
X217866547Y-116657380D01*
X217771309Y-116609761D01*
X217723690Y-116514523D01*
X217723690Y-116466904D01*
X217771309Y-116371666D01*
X217866547Y-116324047D01*
X218009404Y-116324047D01*
X218104642Y-116276428D01*
X218152261Y-116181190D01*
X218152261Y-116133571D01*
X218104642Y-116038333D01*
X218009404Y-115990714D01*
X217866547Y-115990714D01*
X217771309Y-116038333D01*
X216914166Y-116609761D02*
X217009404Y-116657380D01*
X217199880Y-116657380D01*
X217295119Y-116609761D01*
X217342738Y-116514523D01*
X217342738Y-116133571D01*
X217295119Y-116038333D01*
X217199880Y-115990714D01*
X217009404Y-115990714D01*
X216914166Y-116038333D01*
X216866547Y-116133571D01*
X216866547Y-116228809D01*
X217342738Y-116324047D01*
X215104642Y-116657380D02*
X215437976Y-116181190D01*
X215676071Y-116657380D02*
X215676071Y-115657380D01*
X215295119Y-115657380D01*
X215199880Y-115705000D01*
X215152261Y-115752619D01*
X215104642Y-115847857D01*
X215104642Y-115990714D01*
X215152261Y-116085952D01*
X215199880Y-116133571D01*
X215295119Y-116181190D01*
X215676071Y-116181190D01*
X214723690Y-116371666D02*
X214247500Y-116371666D01*
X214818928Y-116657380D02*
X214485595Y-115657380D01*
X214152261Y-116657380D01*
X213818928Y-116657380D02*
X213818928Y-115657380D01*
X213485595Y-116371666D01*
X213152261Y-115657380D01*
X213152261Y-116657380D01*
X211961785Y-116609761D02*
X211818928Y-116657380D01*
X211580833Y-116657380D01*
X211485595Y-116609761D01*
X211437976Y-116562142D01*
X211390357Y-116466904D01*
X211390357Y-116371666D01*
X211437976Y-116276428D01*
X211485595Y-116228809D01*
X211580833Y-116181190D01*
X211771309Y-116133571D01*
X211866547Y-116085952D01*
X211914166Y-116038333D01*
X211961785Y-115943095D01*
X211961785Y-115847857D01*
X211914166Y-115752619D01*
X211866547Y-115705000D01*
X211771309Y-115657380D01*
X211533214Y-115657380D01*
X211390357Y-115705000D01*
X210961785Y-116657380D02*
X210961785Y-115990714D01*
X210961785Y-115657380D02*
X211009404Y-115705000D01*
X210961785Y-115752619D01*
X210914166Y-115705000D01*
X210961785Y-115657380D01*
X210961785Y-115752619D01*
X210580833Y-115990714D02*
X210057023Y-115990714D01*
X210580833Y-116657380D01*
X210057023Y-116657380D01*
X209295119Y-116609761D02*
X209390357Y-116657380D01*
X209580833Y-116657380D01*
X209676071Y-116609761D01*
X209723690Y-116514523D01*
X209723690Y-116133571D01*
X209676071Y-116038333D01*
X209580833Y-115990714D01*
X209390357Y-115990714D01*
X209295119Y-116038333D01*
X209247500Y-116133571D01*
X209247500Y-116228809D01*
X209723690Y-116324047D01*
X197784404Y-113593571D02*
X197451071Y-113593571D01*
X197308214Y-114117380D02*
X197784404Y-114117380D01*
X197784404Y-113117380D01*
X197308214Y-113117380D01*
X196879642Y-113450714D02*
X196879642Y-114117380D01*
X196879642Y-113545952D02*
X196832023Y-113498333D01*
X196736785Y-113450714D01*
X196593928Y-113450714D01*
X196498690Y-113498333D01*
X196451071Y-113593571D01*
X196451071Y-114117380D01*
X195546309Y-114117380D02*
X195546309Y-113593571D01*
X195593928Y-113498333D01*
X195689166Y-113450714D01*
X195879642Y-113450714D01*
X195974880Y-113498333D01*
X195546309Y-114069761D02*
X195641547Y-114117380D01*
X195879642Y-114117380D01*
X195974880Y-114069761D01*
X196022500Y-113974523D01*
X196022500Y-113879285D01*
X195974880Y-113784047D01*
X195879642Y-113736428D01*
X195641547Y-113736428D01*
X195546309Y-113688809D01*
X195070119Y-114117380D02*
X195070119Y-113117380D01*
X195070119Y-113498333D02*
X194974880Y-113450714D01*
X194784404Y-113450714D01*
X194689166Y-113498333D01*
X194641547Y-113545952D01*
X194593928Y-113641190D01*
X194593928Y-113926904D01*
X194641547Y-114022142D01*
X194689166Y-114069761D01*
X194784404Y-114117380D01*
X194974880Y-114117380D01*
X195070119Y-114069761D01*
X194022500Y-114117380D02*
X194117738Y-114069761D01*
X194165357Y-113974523D01*
X194165357Y-113117380D01*
X193260595Y-114069761D02*
X193355833Y-114117380D01*
X193546309Y-114117380D01*
X193641547Y-114069761D01*
X193689166Y-113974523D01*
X193689166Y-113593571D01*
X193641547Y-113498333D01*
X193546309Y-113450714D01*
X193355833Y-113450714D01*
X193260595Y-113498333D01*
X193212976Y-113593571D01*
X193212976Y-113688809D01*
X193689166Y-113784047D01*
X192355833Y-114117380D02*
X192355833Y-113117380D01*
X192355833Y-114069761D02*
X192451071Y-114117380D01*
X192641547Y-114117380D01*
X192736785Y-114069761D01*
X192784404Y-114022142D01*
X192832023Y-113926904D01*
X192832023Y-113641190D01*
X192784404Y-113545952D01*
X192736785Y-113498333D01*
X192641547Y-113450714D01*
X192451071Y-113450714D01*
X192355833Y-113498333D01*
X219437976Y-111577380D02*
X219771309Y-111101190D01*
X220009404Y-111577380D02*
X220009404Y-110577380D01*
X219628452Y-110577380D01*
X219533214Y-110625000D01*
X219485595Y-110672619D01*
X219437976Y-110767857D01*
X219437976Y-110910714D01*
X219485595Y-111005952D01*
X219533214Y-111053571D01*
X219628452Y-111101190D01*
X220009404Y-111101190D01*
X218628452Y-111529761D02*
X218723690Y-111577380D01*
X218914166Y-111577380D01*
X219009404Y-111529761D01*
X219057023Y-111434523D01*
X219057023Y-111053571D01*
X219009404Y-110958333D01*
X218914166Y-110910714D01*
X218723690Y-110910714D01*
X218628452Y-110958333D01*
X218580833Y-111053571D01*
X218580833Y-111148809D01*
X219057023Y-111244047D01*
X217723690Y-111577380D02*
X217723690Y-111053571D01*
X217771309Y-110958333D01*
X217866547Y-110910714D01*
X218057023Y-110910714D01*
X218152261Y-110958333D01*
X217723690Y-111529761D02*
X217818928Y-111577380D01*
X218057023Y-111577380D01*
X218152261Y-111529761D01*
X218199880Y-111434523D01*
X218199880Y-111339285D01*
X218152261Y-111244047D01*
X218057023Y-111196428D01*
X217818928Y-111196428D01*
X217723690Y-111148809D01*
X217104642Y-111577380D02*
X217199880Y-111529761D01*
X217247500Y-111434523D01*
X217247500Y-110577380D01*
X216104642Y-110577380D02*
X215533214Y-110577380D01*
X215818928Y-111577380D02*
X215818928Y-110577380D01*
X215199880Y-111577380D02*
X215199880Y-110910714D01*
X215199880Y-110577380D02*
X215247500Y-110625000D01*
X215199880Y-110672619D01*
X215152261Y-110625000D01*
X215199880Y-110577380D01*
X215199880Y-110672619D01*
X214723690Y-111577380D02*
X214723690Y-110910714D01*
X214723690Y-111005952D02*
X214676071Y-110958333D01*
X214580833Y-110910714D01*
X214437976Y-110910714D01*
X214342738Y-110958333D01*
X214295119Y-111053571D01*
X214295119Y-111577380D01*
X214295119Y-111053571D02*
X214247500Y-110958333D01*
X214152261Y-110910714D01*
X214009404Y-110910714D01*
X213914166Y-110958333D01*
X213866547Y-111053571D01*
X213866547Y-111577380D01*
X213009404Y-111529761D02*
X213104642Y-111577380D01*
X213295119Y-111577380D01*
X213390357Y-111529761D01*
X213437976Y-111434523D01*
X213437976Y-111053571D01*
X213390357Y-110958333D01*
X213295119Y-110910714D01*
X213104642Y-110910714D01*
X213009404Y-110958333D01*
X212961785Y-111053571D01*
X212961785Y-111148809D01*
X213437976Y-111244047D01*
X211199880Y-111482142D02*
X211247500Y-111529761D01*
X211390357Y-111577380D01*
X211485595Y-111577380D01*
X211628452Y-111529761D01*
X211723690Y-111434523D01*
X211771309Y-111339285D01*
X211818928Y-111148809D01*
X211818928Y-111005952D01*
X211771309Y-110815476D01*
X211723690Y-110720238D01*
X211628452Y-110625000D01*
X211485595Y-110577380D01*
X211390357Y-110577380D01*
X211247500Y-110625000D01*
X211199880Y-110672619D01*
X210628452Y-111577380D02*
X210723690Y-111529761D01*
X210771309Y-111434523D01*
X210771309Y-110577380D01*
X210104642Y-111577380D02*
X210199880Y-111529761D01*
X210247500Y-111482142D01*
X210295119Y-111386904D01*
X210295119Y-111101190D01*
X210247500Y-111005952D01*
X210199880Y-110958333D01*
X210104642Y-110910714D01*
X209961785Y-110910714D01*
X209866547Y-110958333D01*
X209818928Y-111005952D01*
X209771309Y-111101190D01*
X209771309Y-111386904D01*
X209818928Y-111482142D01*
X209866547Y-111529761D01*
X209961785Y-111577380D01*
X210104642Y-111577380D01*
X208914166Y-111529761D02*
X209009404Y-111577380D01*
X209199880Y-111577380D01*
X209295119Y-111529761D01*
X209342738Y-111482142D01*
X209390357Y-111386904D01*
X209390357Y-111101190D01*
X209342738Y-111005952D01*
X209295119Y-110958333D01*
X209199880Y-110910714D01*
X209009404Y-110910714D01*
X208914166Y-110958333D01*
X208485595Y-111577380D02*
X208485595Y-110577380D01*
X208390357Y-111196428D02*
X208104642Y-111577380D01*
X208104642Y-110910714D02*
X208485595Y-111291666D01*
X133125595Y-111577380D02*
X133697023Y-111577380D01*
X133411309Y-111577380D02*
X133411309Y-110577380D01*
X133506547Y-110720238D01*
X133601785Y-110815476D01*
X133697023Y-110863095D01*
X132744642Y-110672619D02*
X132697023Y-110625000D01*
X132601785Y-110577380D01*
X132363690Y-110577380D01*
X132268452Y-110625000D01*
X132220833Y-110672619D01*
X132173214Y-110767857D01*
X132173214Y-110863095D01*
X132220833Y-111005952D01*
X132792261Y-111577380D01*
X132173214Y-111577380D01*
X131601785Y-111005952D02*
X131697023Y-110958333D01*
X131744642Y-110910714D01*
X131792261Y-110815476D01*
X131792261Y-110767857D01*
X131744642Y-110672619D01*
X131697023Y-110625000D01*
X131601785Y-110577380D01*
X131411309Y-110577380D01*
X131316071Y-110625000D01*
X131268452Y-110672619D01*
X131220833Y-110767857D01*
X131220833Y-110815476D01*
X131268452Y-110910714D01*
X131316071Y-110958333D01*
X131411309Y-111005952D01*
X131601785Y-111005952D01*
X131697023Y-111053571D01*
X131744642Y-111101190D01*
X131792261Y-111196428D01*
X131792261Y-111386904D01*
X131744642Y-111482142D01*
X131697023Y-111529761D01*
X131601785Y-111577380D01*
X131411309Y-111577380D01*
X131316071Y-111529761D01*
X131268452Y-111482142D01*
X131220833Y-111386904D01*
X131220833Y-111196428D01*
X131268452Y-111101190D01*
X131316071Y-111053571D01*
X131411309Y-111005952D01*
X130792261Y-111577380D02*
X130792261Y-110577380D01*
X130697023Y-111196428D02*
X130411309Y-111577380D01*
X130411309Y-110910714D02*
X130792261Y-111291666D01*
X129982738Y-111196428D02*
X129220833Y-111196428D01*
X128220833Y-111577380D02*
X128792261Y-111577380D01*
X128506547Y-111577380D02*
X128506547Y-110577380D01*
X128601785Y-110720238D01*
X128697023Y-110815476D01*
X128792261Y-110863095D01*
X127363690Y-110577380D02*
X127554166Y-110577380D01*
X127649404Y-110625000D01*
X127697023Y-110672619D01*
X127792261Y-110815476D01*
X127839880Y-111005952D01*
X127839880Y-111386904D01*
X127792261Y-111482142D01*
X127744642Y-111529761D01*
X127649404Y-111577380D01*
X127458928Y-111577380D01*
X127363690Y-111529761D01*
X127316071Y-111482142D01*
X127268452Y-111386904D01*
X127268452Y-111148809D01*
X127316071Y-111053571D01*
X127363690Y-111005952D01*
X127458928Y-110958333D01*
X127649404Y-110958333D01*
X127744642Y-111005952D01*
X127792261Y-111053571D01*
X127839880Y-111148809D01*
X126649404Y-110577380D02*
X126554166Y-110577380D01*
X126458928Y-110625000D01*
X126411309Y-110672619D01*
X126363690Y-110767857D01*
X126316071Y-110958333D01*
X126316071Y-111196428D01*
X126363690Y-111386904D01*
X126411309Y-111482142D01*
X126458928Y-111529761D01*
X126554166Y-111577380D01*
X126649404Y-111577380D01*
X126744642Y-111529761D01*
X126792261Y-111482142D01*
X126839880Y-111386904D01*
X126887500Y-111196428D01*
X126887500Y-110958333D01*
X126839880Y-110767857D01*
X126792261Y-110672619D01*
X126744642Y-110625000D01*
X126649404Y-110577380D01*
X125887500Y-111577380D02*
X125887500Y-110577380D01*
X125792261Y-111196428D02*
X125506547Y-111577380D01*
X125506547Y-110910714D02*
X125887500Y-111291666D01*
X134620000Y-111760000D02*
X138430000Y-111760000D01*
X134620000Y-110490000D02*
X134620000Y-111760000D01*
X134620000Y-113030000D02*
X134620000Y-114300000D01*
X138430000Y-111760000D02*
X138430000Y-110490000D01*
D11*
G36*
X135890000Y-111760000D02*
G01*
X134620000Y-111760000D01*
X134620000Y-110490000D01*
X135890000Y-110490000D01*
X135890000Y-111760000D01*
G37*
X135890000Y-111760000D02*
X134620000Y-111760000D01*
X134620000Y-110490000D01*
X135890000Y-110490000D01*
X135890000Y-111760000D01*
D10*
X138430000Y-114300000D02*
X138430000Y-113030000D01*
D11*
G36*
X135890000Y-114300000D02*
G01*
X134620000Y-114300000D01*
X134620000Y-113030000D01*
X135890000Y-113030000D01*
X135890000Y-114300000D01*
G37*
X135890000Y-114300000D02*
X134620000Y-114300000D01*
X134620000Y-113030000D01*
X135890000Y-113030000D01*
X135890000Y-114300000D01*
D10*
X134620000Y-114300000D02*
X138430000Y-114300000D01*
X138430000Y-110490000D02*
X134620000Y-110490000D01*
X138430000Y-113030000D02*
X134620000Y-113030000D01*
X189230000Y-111760000D02*
X189230000Y-110490000D01*
D11*
G36*
X186690000Y-111760000D02*
G01*
X185420000Y-111760000D01*
X185420000Y-110490000D01*
X186690000Y-110490000D01*
X186690000Y-111760000D01*
G37*
X186690000Y-111760000D02*
X185420000Y-111760000D01*
X185420000Y-110490000D01*
X186690000Y-110490000D01*
X186690000Y-111760000D01*
D10*
X185420000Y-111760000D02*
X189230000Y-111760000D01*
X189230000Y-110490000D02*
X185420000Y-110490000D01*
X185420000Y-110490000D02*
X185420000Y-111760000D01*
X189230000Y-118110000D02*
X185420000Y-118110000D01*
X189230000Y-116840000D02*
X189230000Y-115570000D01*
D11*
G36*
X186690000Y-116840000D02*
G01*
X185420000Y-116840000D01*
X185420000Y-115570000D01*
X186690000Y-115570000D01*
X186690000Y-116840000D01*
G37*
X186690000Y-116840000D02*
X185420000Y-116840000D01*
X185420000Y-115570000D01*
X186690000Y-115570000D01*
X186690000Y-116840000D01*
D10*
X185420000Y-119380000D02*
X189230000Y-119380000D01*
X189230000Y-115570000D02*
X185420000Y-115570000D01*
X189230000Y-119380000D02*
X189230000Y-118110000D01*
X189230000Y-113030000D02*
X185420000Y-113030000D01*
D11*
G36*
X186690000Y-114300000D02*
G01*
X185420000Y-114300000D01*
X185420000Y-113030000D01*
X186690000Y-113030000D01*
X186690000Y-114300000D01*
G37*
X186690000Y-114300000D02*
X185420000Y-114300000D01*
X185420000Y-113030000D01*
X186690000Y-113030000D01*
X186690000Y-114300000D01*
D10*
X185420000Y-116840000D02*
X189230000Y-116840000D01*
X185420000Y-115570000D02*
X185420000Y-116840000D01*
D11*
G36*
X186690000Y-119380000D02*
G01*
X185420000Y-119380000D01*
X185420000Y-118110000D01*
X186690000Y-118110000D01*
X186690000Y-119380000D01*
G37*
X186690000Y-119380000D02*
X185420000Y-119380000D01*
X185420000Y-118110000D01*
X186690000Y-118110000D01*
X186690000Y-119380000D01*
D10*
X189230000Y-114300000D02*
X189230000Y-113030000D01*
X185420000Y-114300000D02*
X189230000Y-114300000D01*
X185420000Y-118110000D02*
X185420000Y-119380000D01*
X185420000Y-113030000D02*
X185420000Y-114300000D01*
X184449404Y-114117380D02*
X184449404Y-113117380D01*
X184211309Y-113117380D01*
X184068452Y-113165000D01*
X183973214Y-113260238D01*
X183925595Y-113355476D01*
X183877976Y-113545952D01*
X183877976Y-113688809D01*
X183925595Y-113879285D01*
X183973214Y-113974523D01*
X184068452Y-114069761D01*
X184211309Y-114117380D01*
X184449404Y-114117380D01*
X183449404Y-114117380D02*
X183449404Y-113450714D01*
X183449404Y-113117380D02*
X183497023Y-113165000D01*
X183449404Y-113212619D01*
X183401785Y-113165000D01*
X183449404Y-113117380D01*
X183449404Y-113212619D01*
X183020833Y-114069761D02*
X182925595Y-114117380D01*
X182735119Y-114117380D01*
X182639880Y-114069761D01*
X182592261Y-113974523D01*
X182592261Y-113926904D01*
X182639880Y-113831666D01*
X182735119Y-113784047D01*
X182877976Y-113784047D01*
X182973214Y-113736428D01*
X183020833Y-113641190D01*
X183020833Y-113593571D01*
X182973214Y-113498333D01*
X182877976Y-113450714D01*
X182735119Y-113450714D01*
X182639880Y-113498333D01*
X181735119Y-114117380D02*
X181735119Y-113593571D01*
X181782738Y-113498333D01*
X181877976Y-113450714D01*
X182068452Y-113450714D01*
X182163690Y-113498333D01*
X181735119Y-114069761D02*
X181830357Y-114117380D01*
X182068452Y-114117380D01*
X182163690Y-114069761D01*
X182211309Y-113974523D01*
X182211309Y-113879285D01*
X182163690Y-113784047D01*
X182068452Y-113736428D01*
X181830357Y-113736428D01*
X181735119Y-113688809D01*
X181258928Y-114117380D02*
X181258928Y-113117380D01*
X181258928Y-113498333D02*
X181163690Y-113450714D01*
X180973214Y-113450714D01*
X180877976Y-113498333D01*
X180830357Y-113545952D01*
X180782738Y-113641190D01*
X180782738Y-113926904D01*
X180830357Y-114022142D01*
X180877976Y-114069761D01*
X180973214Y-114117380D01*
X181163690Y-114117380D01*
X181258928Y-114069761D01*
X180211309Y-114117380D02*
X180306547Y-114069761D01*
X180354166Y-113974523D01*
X180354166Y-113117380D01*
X179449404Y-114069761D02*
X179544642Y-114117380D01*
X179735119Y-114117380D01*
X179830357Y-114069761D01*
X179877976Y-113974523D01*
X179877976Y-113593571D01*
X179830357Y-113498333D01*
X179735119Y-113450714D01*
X179544642Y-113450714D01*
X179449404Y-113498333D01*
X179401785Y-113593571D01*
X179401785Y-113688809D01*
X179877976Y-113784047D01*
X178544642Y-114117380D02*
X178544642Y-113117380D01*
X178544642Y-114069761D02*
X178639880Y-114117380D01*
X178830357Y-114117380D01*
X178925595Y-114069761D01*
X178973214Y-114022142D01*
X179020833Y-113926904D01*
X179020833Y-113641190D01*
X178973214Y-113545952D01*
X178925595Y-113498333D01*
X178830357Y-113450714D01*
X178639880Y-113450714D01*
X178544642Y-113498333D01*
X184497023Y-111291666D02*
X184020833Y-111291666D01*
X184592261Y-111577380D02*
X184258928Y-110577380D01*
X183925595Y-111577380D01*
X183592261Y-111577380D02*
X183592261Y-110577380D01*
X183592261Y-110958333D02*
X183497023Y-110910714D01*
X183306547Y-110910714D01*
X183211309Y-110958333D01*
X183163690Y-111005952D01*
X183116071Y-111101190D01*
X183116071Y-111386904D01*
X183163690Y-111482142D01*
X183211309Y-111529761D01*
X183306547Y-111577380D01*
X183497023Y-111577380D01*
X183592261Y-111529761D01*
X182735119Y-111529761D02*
X182639880Y-111577380D01*
X182449404Y-111577380D01*
X182354166Y-111529761D01*
X182306547Y-111434523D01*
X182306547Y-111386904D01*
X182354166Y-111291666D01*
X182449404Y-111244047D01*
X182592261Y-111244047D01*
X182687500Y-111196428D01*
X182735119Y-111101190D01*
X182735119Y-111053571D01*
X182687500Y-110958333D01*
X182592261Y-110910714D01*
X182449404Y-110910714D01*
X182354166Y-110958333D01*
X181497023Y-111529761D02*
X181592261Y-111577380D01*
X181782738Y-111577380D01*
X181877976Y-111529761D01*
X181925595Y-111434523D01*
X181925595Y-111053571D01*
X181877976Y-110958333D01*
X181782738Y-110910714D01*
X181592261Y-110910714D01*
X181497023Y-110958333D01*
X181449404Y-111053571D01*
X181449404Y-111148809D01*
X181925595Y-111244047D01*
X181020833Y-110910714D02*
X181020833Y-111577380D01*
X181020833Y-111005952D02*
X180973214Y-110958333D01*
X180877976Y-110910714D01*
X180735119Y-110910714D01*
X180639880Y-110958333D01*
X180592261Y-111053571D01*
X180592261Y-111577380D01*
X180258928Y-110910714D02*
X179877976Y-110910714D01*
X180116071Y-110577380D02*
X180116071Y-111434523D01*
X180068452Y-111529761D01*
X179973214Y-111577380D01*
X179877976Y-111577380D01*
X133125595Y-114117380D02*
X133697023Y-114117380D01*
X133411309Y-114117380D02*
X133411309Y-113117380D01*
X133506547Y-113260238D01*
X133601785Y-113355476D01*
X133697023Y-113403095D01*
X132363690Y-113593571D02*
X132697023Y-113593571D01*
X132697023Y-114117380D02*
X132697023Y-113117380D01*
X132220833Y-113117380D01*
X131649404Y-113117380D02*
X131554166Y-113117380D01*
X131458928Y-113165000D01*
X131411309Y-113212619D01*
X131363690Y-113307857D01*
X131316071Y-113498333D01*
X131316071Y-113736428D01*
X131363690Y-113926904D01*
X131411309Y-114022142D01*
X131458928Y-114069761D01*
X131554166Y-114117380D01*
X131649404Y-114117380D01*
X131744642Y-114069761D01*
X131792261Y-114022142D01*
X131839880Y-113926904D01*
X131887500Y-113736428D01*
X131887500Y-113498333D01*
X131839880Y-113307857D01*
X131792261Y-113212619D01*
X131744642Y-113165000D01*
X131649404Y-113117380D01*
X184449404Y-116276428D02*
X183687500Y-116276428D01*
X184068452Y-116657380D02*
X184068452Y-115895476D01*
X183258928Y-115752619D02*
X183211309Y-115705000D01*
X183116071Y-115657380D01*
X182877976Y-115657380D01*
X182782738Y-115705000D01*
X182735119Y-115752619D01*
X182687500Y-115847857D01*
X182687500Y-115943095D01*
X182735119Y-116085952D01*
X183306547Y-116657380D01*
X182687500Y-116657380D01*
X181782738Y-115657380D02*
X182258928Y-115657380D01*
X182306547Y-116133571D01*
X182258928Y-116085952D01*
X182163690Y-116038333D01*
X181925595Y-116038333D01*
X181830357Y-116085952D01*
X181782738Y-116133571D01*
X181735119Y-116228809D01*
X181735119Y-116466904D01*
X181782738Y-116562142D01*
X181830357Y-116609761D01*
X181925595Y-116657380D01*
X182163690Y-116657380D01*
X182258928Y-116609761D01*
X182306547Y-116562142D01*
X180877976Y-115657380D02*
X181068452Y-115657380D01*
X181163690Y-115705000D01*
X181211309Y-115752619D01*
X181306547Y-115895476D01*
X181354166Y-116085952D01*
X181354166Y-116466904D01*
X181306547Y-116562142D01*
X181258928Y-116609761D01*
X181163690Y-116657380D01*
X180973214Y-116657380D01*
X180877976Y-116609761D01*
X180830357Y-116562142D01*
X180782738Y-116466904D01*
X180782738Y-116228809D01*
X180830357Y-116133571D01*
X180877976Y-116085952D01*
X180973214Y-116038333D01*
X181163690Y-116038333D01*
X181258928Y-116085952D01*
X181306547Y-116133571D01*
X181354166Y-116228809D01*
X180354166Y-116657380D02*
X180354166Y-115657380D01*
X180258928Y-116276428D02*
X179973214Y-116657380D01*
X179973214Y-115990714D02*
X180354166Y-116371666D01*
X151765000Y-111760000D02*
X151765000Y-110490000D01*
D11*
G36*
X151765000Y-111760000D02*
G01*
X150495000Y-111760000D01*
X150495000Y-110490000D01*
X151765000Y-110490000D01*
X151765000Y-111760000D01*
G37*
X151765000Y-111760000D02*
X150495000Y-111760000D01*
X150495000Y-110490000D01*
X151765000Y-110490000D01*
X151765000Y-111760000D01*
D10*
X147955000Y-111760000D02*
X151765000Y-111760000D01*
X151765000Y-110490000D02*
X147955000Y-110490000D01*
X147955000Y-110490000D02*
X147955000Y-111760000D01*
X151765000Y-113030000D02*
X147955000Y-113030000D01*
D11*
G36*
X151765000Y-114300000D02*
G01*
X150495000Y-114300000D01*
X150495000Y-113030000D01*
X151765000Y-113030000D01*
X151765000Y-114300000D01*
G37*
X151765000Y-114300000D02*
X150495000Y-114300000D01*
X150495000Y-113030000D01*
X151765000Y-113030000D01*
X151765000Y-114300000D01*
D10*
X151765000Y-114300000D02*
X151765000Y-113030000D01*
X147955000Y-114300000D02*
X151765000Y-114300000D01*
X147955000Y-113030000D02*
X147955000Y-114300000D01*
X146936785Y-111577380D02*
X146746309Y-111577380D01*
X146651071Y-111529761D01*
X146603452Y-111482142D01*
X146508214Y-111339285D01*
X146460595Y-111148809D01*
X146460595Y-110767857D01*
X146508214Y-110672619D01*
X146555833Y-110625000D01*
X146651071Y-110577380D01*
X146841547Y-110577380D01*
X146936785Y-110625000D01*
X146984404Y-110672619D01*
X147032023Y-110767857D01*
X147032023Y-111005952D01*
X146984404Y-111101190D01*
X146936785Y-111148809D01*
X146841547Y-111196428D01*
X146651071Y-111196428D01*
X146555833Y-111148809D01*
X146508214Y-111101190D01*
X146460595Y-111005952D01*
X145603452Y-110577380D02*
X145793928Y-110577380D01*
X145889166Y-110625000D01*
X145936785Y-110672619D01*
X146032023Y-110815476D01*
X146079642Y-111005952D01*
X146079642Y-111386904D01*
X146032023Y-111482142D01*
X145984404Y-111529761D01*
X145889166Y-111577380D01*
X145698690Y-111577380D01*
X145603452Y-111529761D01*
X145555833Y-111482142D01*
X145508214Y-111386904D01*
X145508214Y-111148809D01*
X145555833Y-111053571D01*
X145603452Y-111005952D01*
X145698690Y-110958333D01*
X145889166Y-110958333D01*
X145984404Y-111005952D01*
X146032023Y-111053571D01*
X146079642Y-111148809D01*
X145079642Y-111577380D02*
X145079642Y-110577380D01*
X144508214Y-111577380D02*
X144936785Y-111005952D01*
X144508214Y-110577380D02*
X145079642Y-111148809D01*
X171259523Y-113117380D02*
X171450000Y-113117380D01*
X171545238Y-113165000D01*
X171592857Y-113212619D01*
X171688095Y-113355476D01*
X171735714Y-113545952D01*
X171735714Y-113926904D01*
X171688095Y-114022142D01*
X171640476Y-114069761D01*
X171545238Y-114117380D01*
X171354761Y-114117380D01*
X171259523Y-114069761D01*
X171211904Y-114022142D01*
X171164285Y-113926904D01*
X171164285Y-113688809D01*
X171211904Y-113593571D01*
X171259523Y-113545952D01*
X171354761Y-113498333D01*
X171545238Y-113498333D01*
X171640476Y-113545952D01*
X171688095Y-113593571D01*
X171735714Y-113688809D01*
X171211904Y-110577380D02*
X171688095Y-110577380D01*
X171735714Y-111053571D01*
X171688095Y-111005952D01*
X171592857Y-110958333D01*
X171354761Y-110958333D01*
X171259523Y-111005952D01*
X171211904Y-111053571D01*
X171164285Y-111148809D01*
X171164285Y-111386904D01*
X171211904Y-111482142D01*
X171259523Y-111529761D01*
X171354761Y-111577380D01*
X171592857Y-111577380D01*
X171688095Y-111529761D01*
X171735714Y-111482142D01*
X202565000Y-116840000D02*
X202565000Y-115570000D01*
D11*
G36*
X202565000Y-116840000D02*
G01*
X201295000Y-116840000D01*
X201295000Y-115570000D01*
X202565000Y-115570000D01*
X202565000Y-116840000D01*
G37*
X202565000Y-116840000D02*
X201295000Y-116840000D01*
X201295000Y-115570000D01*
X202565000Y-115570000D01*
X202565000Y-116840000D01*
D10*
X198755000Y-116840000D02*
X202565000Y-116840000D01*
X202565000Y-115570000D02*
X198755000Y-115570000D01*
X198755000Y-115570000D02*
X198755000Y-116840000D01*
X202565000Y-118110000D02*
X198755000Y-118110000D01*
D11*
G36*
X202565000Y-119380000D02*
G01*
X201295000Y-119380000D01*
X201295000Y-118110000D01*
X202565000Y-118110000D01*
X202565000Y-119380000D01*
G37*
X202565000Y-119380000D02*
X201295000Y-119380000D01*
X201295000Y-118110000D01*
X202565000Y-118110000D01*
X202565000Y-119380000D01*
D10*
X202565000Y-119380000D02*
X202565000Y-118110000D01*
X198755000Y-119380000D02*
X202565000Y-119380000D01*
X198755000Y-118110000D02*
X198755000Y-119380000D01*
X147079642Y-113117380D02*
X146460595Y-113117380D01*
X146793928Y-113498333D01*
X146651071Y-113498333D01*
X146555833Y-113545952D01*
X146508214Y-113593571D01*
X146460595Y-113688809D01*
X146460595Y-113926904D01*
X146508214Y-114022142D01*
X146555833Y-114069761D01*
X146651071Y-114117380D01*
X146936785Y-114117380D01*
X147032023Y-114069761D01*
X147079642Y-114022142D01*
X146079642Y-113212619D02*
X146032023Y-113165000D01*
X145936785Y-113117380D01*
X145698690Y-113117380D01*
X145603452Y-113165000D01*
X145555833Y-113212619D01*
X145508214Y-113307857D01*
X145508214Y-113403095D01*
X145555833Y-113545952D01*
X146127261Y-114117380D01*
X145508214Y-114117380D01*
X144889166Y-113117380D02*
X144793928Y-113117380D01*
X144698690Y-113165000D01*
X144651071Y-113212619D01*
X144603452Y-113307857D01*
X144555833Y-113498333D01*
X144555833Y-113736428D01*
X144603452Y-113926904D01*
X144651071Y-114022142D01*
X144698690Y-114069761D01*
X144793928Y-114117380D01*
X144889166Y-114117380D01*
X144984404Y-114069761D01*
X145032023Y-114022142D01*
X145079642Y-113926904D01*
X145127261Y-113736428D01*
X145127261Y-113498333D01*
X145079642Y-113307857D01*
X145032023Y-113212619D01*
X144984404Y-113165000D01*
X144889166Y-113117380D01*
X222059523Y-118530714D02*
X222059523Y-119197380D01*
X222297619Y-118149761D02*
X222535714Y-118864047D01*
X221916666Y-118864047D01*
X197784404Y-116276428D02*
X197022500Y-116276428D01*
X197403452Y-116657380D02*
X197403452Y-115895476D01*
X196641547Y-115657380D02*
X196022500Y-115657380D01*
X196355833Y-116038333D01*
X196212976Y-116038333D01*
X196117738Y-116085952D01*
X196070119Y-116133571D01*
X196022500Y-116228809D01*
X196022500Y-116466904D01*
X196070119Y-116562142D01*
X196117738Y-116609761D01*
X196212976Y-116657380D01*
X196498690Y-116657380D01*
X196593928Y-116609761D01*
X196641547Y-116562142D01*
X195451071Y-116085952D02*
X195546309Y-116038333D01*
X195593928Y-115990714D01*
X195641547Y-115895476D01*
X195641547Y-115847857D01*
X195593928Y-115752619D01*
X195546309Y-115705000D01*
X195451071Y-115657380D01*
X195260595Y-115657380D01*
X195165357Y-115705000D01*
X195117738Y-115752619D01*
X195070119Y-115847857D01*
X195070119Y-115895476D01*
X195117738Y-115990714D01*
X195165357Y-116038333D01*
X195260595Y-116085952D01*
X195451071Y-116085952D01*
X195546309Y-116133571D01*
X195593928Y-116181190D01*
X195641547Y-116276428D01*
X195641547Y-116466904D01*
X195593928Y-116562142D01*
X195546309Y-116609761D01*
X195451071Y-116657380D01*
X195260595Y-116657380D01*
X195165357Y-116609761D01*
X195117738Y-116562142D01*
X195070119Y-116466904D01*
X195070119Y-116276428D01*
X195117738Y-116181190D01*
X195165357Y-116133571D01*
X195260595Y-116085952D01*
X194212976Y-115990714D02*
X194212976Y-116657380D01*
X194451071Y-115609761D02*
X194689166Y-116324047D01*
X194070119Y-116324047D01*
X193689166Y-116657380D02*
X193689166Y-115657380D01*
X193593928Y-116276428D02*
X193308214Y-116657380D01*
X193308214Y-115990714D02*
X193689166Y-116371666D01*
X222583333Y-115657380D02*
X221964285Y-115657380D01*
X222297619Y-116038333D01*
X222154761Y-116038333D01*
X222059523Y-116085952D01*
X222011904Y-116133571D01*
X221964285Y-116228809D01*
X221964285Y-116466904D01*
X222011904Y-116562142D01*
X222059523Y-116609761D01*
X222154761Y-116657380D01*
X222440476Y-116657380D01*
X222535714Y-116609761D01*
X222583333Y-116562142D01*
X202565000Y-114300000D02*
X202565000Y-113030000D01*
D11*
G36*
X202565000Y-114300000D02*
G01*
X201295000Y-114300000D01*
X201295000Y-113030000D01*
X202565000Y-113030000D01*
X202565000Y-114300000D01*
G37*
X202565000Y-114300000D02*
X201295000Y-114300000D01*
X201295000Y-113030000D01*
X202565000Y-113030000D01*
X202565000Y-114300000D01*
D10*
X198755000Y-114300000D02*
X202565000Y-114300000D01*
X202565000Y-113030000D02*
X198755000Y-113030000D01*
X198755000Y-113030000D02*
X198755000Y-114300000D01*
X219676071Y-113593571D02*
X219533214Y-113641190D01*
X219485595Y-113688809D01*
X219437976Y-113784047D01*
X219437976Y-113926904D01*
X219485595Y-114022142D01*
X219533214Y-114069761D01*
X219628452Y-114117380D01*
X220009404Y-114117380D01*
X220009404Y-113117380D01*
X219676071Y-113117380D01*
X219580833Y-113165000D01*
X219533214Y-113212619D01*
X219485595Y-113307857D01*
X219485595Y-113403095D01*
X219533214Y-113498333D01*
X219580833Y-113545952D01*
X219676071Y-113593571D01*
X220009404Y-113593571D01*
X218580833Y-114117380D02*
X218580833Y-113593571D01*
X218628452Y-113498333D01*
X218723690Y-113450714D01*
X218914166Y-113450714D01*
X219009404Y-113498333D01*
X218580833Y-114069761D02*
X218676071Y-114117380D01*
X218914166Y-114117380D01*
X219009404Y-114069761D01*
X219057023Y-113974523D01*
X219057023Y-113879285D01*
X219009404Y-113784047D01*
X218914166Y-113736428D01*
X218676071Y-113736428D01*
X218580833Y-113688809D01*
X218152261Y-114069761D02*
X218057023Y-114117380D01*
X217866547Y-114117380D01*
X217771309Y-114069761D01*
X217723690Y-113974523D01*
X217723690Y-113926904D01*
X217771309Y-113831666D01*
X217866547Y-113784047D01*
X218009404Y-113784047D01*
X218104642Y-113736428D01*
X218152261Y-113641190D01*
X218152261Y-113593571D01*
X218104642Y-113498333D01*
X218009404Y-113450714D01*
X217866547Y-113450714D01*
X217771309Y-113498333D01*
X216914166Y-114069761D02*
X217009404Y-114117380D01*
X217199880Y-114117380D01*
X217295119Y-114069761D01*
X217342738Y-113974523D01*
X217342738Y-113593571D01*
X217295119Y-113498333D01*
X217199880Y-113450714D01*
X217009404Y-113450714D01*
X216914166Y-113498333D01*
X216866547Y-113593571D01*
X216866547Y-113688809D01*
X217342738Y-113784047D01*
X215104642Y-114117380D02*
X215437976Y-113641190D01*
X215676071Y-114117380D02*
X215676071Y-113117380D01*
X215295119Y-113117380D01*
X215199880Y-113165000D01*
X215152261Y-113212619D01*
X215104642Y-113307857D01*
X215104642Y-113450714D01*
X215152261Y-113545952D01*
X215199880Y-113593571D01*
X215295119Y-113641190D01*
X215676071Y-113641190D01*
X214723690Y-113831666D02*
X214247500Y-113831666D01*
X214818928Y-114117380D02*
X214485595Y-113117380D01*
X214152261Y-114117380D01*
X213818928Y-114117380D02*
X213818928Y-113117380D01*
X213485595Y-113831666D01*
X213152261Y-113117380D01*
X213152261Y-114117380D01*
X222535714Y-113212619D02*
X222488095Y-113165000D01*
X222392857Y-113117380D01*
X222154761Y-113117380D01*
X222059523Y-113165000D01*
X222011904Y-113212619D01*
X221964285Y-113307857D01*
X221964285Y-113403095D01*
X222011904Y-113545952D01*
X222583333Y-114117380D01*
X221964285Y-114117380D01*
X197784404Y-111577380D02*
X197784404Y-110577380D01*
X197403452Y-110577380D01*
X197308214Y-110625000D01*
X197260595Y-110672619D01*
X197212976Y-110767857D01*
X197212976Y-110910714D01*
X197260595Y-111005952D01*
X197308214Y-111053571D01*
X197403452Y-111101190D01*
X197784404Y-111101190D01*
X196784404Y-111577380D02*
X196784404Y-110910714D01*
X196784404Y-111101190D02*
X196736785Y-111005952D01*
X196689166Y-110958333D01*
X196593928Y-110910714D01*
X196498690Y-110910714D01*
X195784404Y-111529761D02*
X195879642Y-111577380D01*
X196070119Y-111577380D01*
X196165357Y-111529761D01*
X196212976Y-111434523D01*
X196212976Y-111053571D01*
X196165357Y-110958333D01*
X196070119Y-110910714D01*
X195879642Y-110910714D01*
X195784404Y-110958333D01*
X195736785Y-111053571D01*
X195736785Y-111148809D01*
X196212976Y-111244047D01*
X195355833Y-111529761D02*
X195260595Y-111577380D01*
X195070119Y-111577380D01*
X194974880Y-111529761D01*
X194927261Y-111434523D01*
X194927261Y-111386904D01*
X194974880Y-111291666D01*
X195070119Y-111244047D01*
X195212976Y-111244047D01*
X195308214Y-111196428D01*
X195355833Y-111101190D01*
X195355833Y-111053571D01*
X195308214Y-110958333D01*
X195212976Y-110910714D01*
X195070119Y-110910714D01*
X194974880Y-110958333D01*
X194117738Y-111529761D02*
X194212976Y-111577380D01*
X194403452Y-111577380D01*
X194498690Y-111529761D01*
X194546309Y-111434523D01*
X194546309Y-111053571D01*
X194498690Y-110958333D01*
X194403452Y-110910714D01*
X194212976Y-110910714D01*
X194117738Y-110958333D01*
X194070119Y-111053571D01*
X194070119Y-111148809D01*
X194546309Y-111244047D01*
X193641547Y-110910714D02*
X193641547Y-111577380D01*
X193641547Y-111005952D02*
X193593928Y-110958333D01*
X193498690Y-110910714D01*
X193355833Y-110910714D01*
X193260595Y-110958333D01*
X193212976Y-111053571D01*
X193212976Y-111577380D01*
X192879642Y-110910714D02*
X192498690Y-110910714D01*
X192736785Y-110577380D02*
X192736785Y-111434523D01*
X192689166Y-111529761D01*
X192593928Y-111577380D01*
X192498690Y-111577380D01*
X221964285Y-111577380D02*
X222535714Y-111577380D01*
X222250000Y-111577380D02*
X222250000Y-110577380D01*
X222345238Y-110720238D01*
X222440476Y-110815476D01*
X222535714Y-110863095D01*
D11*
G36*
X202565000Y-111760000D02*
G01*
X201295000Y-111760000D01*
X201295000Y-110490000D01*
X202565000Y-110490000D01*
X202565000Y-111760000D01*
G37*
X202565000Y-111760000D02*
X201295000Y-111760000D01*
X201295000Y-110490000D01*
X202565000Y-110490000D01*
X202565000Y-111760000D01*
D10*
X202565000Y-110490000D02*
X198755000Y-110490000D01*
X198755000Y-110490000D02*
X198755000Y-111760000D01*
X198755000Y-111760000D02*
X202565000Y-111760000D01*
X202565000Y-111760000D02*
X202565000Y-110490000D01*
X193340000Y-56540000D02*
G75*
G03*
X193340000Y-56540000I-3700000J0D01*
G01*
X115440000Y-50040000D02*
X109440000Y-50040000D01*
X125140000Y-44240000D02*
X115440000Y-44240000D01*
X125140000Y-50040000D02*
X131140000Y-50040000D01*
X109440000Y-37540000D02*
X109440000Y-50040000D01*
X115440000Y-50040000D02*
X115440000Y-44240000D01*
X131140000Y-37540000D02*
X131140000Y-50040000D01*
X125140000Y-50040000D02*
X125140000Y-44240000D01*
X210840000Y-50040000D02*
X216840000Y-50040000D01*
X201140000Y-44240000D02*
X210840000Y-44240000D01*
X195140000Y-50040000D02*
X201140000Y-50040000D01*
X195140000Y-37540000D02*
X195140000Y-50040000D01*
X201140000Y-50040000D02*
X201140000Y-44240000D01*
X210840000Y-50040000D02*
X210840000Y-44240000D01*
X216840000Y-37540000D02*
X216840000Y-50040000D01*
D13*
%TO.C,CN1*%
X230778675Y-114475260D02*
X230345662Y-114225260D01*
X230345662Y-114725260D02*
X230778675Y-114475260D01*
X230345662Y-114225260D02*
X230345662Y-114725260D01*
X231240000Y-135500260D02*
X243580000Y-135500260D01*
X231240000Y-104530260D02*
X231240000Y-135500260D01*
X243580000Y-104530260D02*
X231240000Y-104530260D01*
%TO.C,J2*%
X140910000Y-132140000D02*
X140910000Y-126940000D01*
X217170000Y-132140000D02*
X140910000Y-132140000D01*
X219770000Y-126940000D02*
X140910000Y-126940000D01*
X217170000Y-132140000D02*
X217170000Y-129540000D01*
X217170000Y-129540000D02*
X219770000Y-129540000D01*
X219770000Y-129540000D02*
X219770000Y-126940000D01*
X218440000Y-132140000D02*
X219770000Y-132140000D01*
X219770000Y-132140000D02*
X219770000Y-130810000D01*
%TO.C,J1*%
X224840000Y-102355000D02*
X224840000Y-51555000D01*
X249040000Y-103060000D02*
X249040000Y-50940000D01*
X213240000Y-103060000D02*
X249040000Y-103060000D01*
X213240000Y-50940000D02*
X249040000Y-50940000D01*
X213240000Y-99060000D02*
X213240000Y-103060000D01*
X213240000Y-54940000D02*
X213240000Y-50940000D01*
X207750000Y-55640000D02*
X207402917Y-55640000D01*
X205677083Y-55640000D02*
X205475000Y-55640000D01*
X207750000Y-56360000D02*
X207402917Y-56360000D01*
X205677083Y-56360000D02*
X205475000Y-56360000D01*
X207750000Y-57640000D02*
X207402917Y-57640000D01*
X205677083Y-57640000D02*
X205402917Y-57640000D01*
X207750000Y-58360000D02*
X207402917Y-58360000D01*
X205677083Y-58360000D02*
X205402917Y-58360000D01*
X207750000Y-59640000D02*
X207402917Y-59640000D01*
X205677083Y-59640000D02*
X205402917Y-59640000D01*
X207750000Y-60360000D02*
X207402917Y-60360000D01*
X205677083Y-60360000D02*
X205402917Y-60360000D01*
X207750000Y-61640000D02*
X207402917Y-61640000D01*
X205677083Y-61640000D02*
X205402917Y-61640000D01*
X207750000Y-62360000D02*
X207402917Y-62360000D01*
X205677083Y-62360000D02*
X205402917Y-62360000D01*
X207750000Y-63640000D02*
X207402917Y-63640000D01*
X205677083Y-63640000D02*
X205402917Y-63640000D01*
X207750000Y-64360000D02*
X207402917Y-64360000D01*
X205677083Y-64360000D02*
X205402917Y-64360000D01*
X207750000Y-65640000D02*
X207402917Y-65640000D01*
X205677083Y-65640000D02*
X205402917Y-65640000D01*
X207750000Y-66360000D02*
X207402917Y-66360000D01*
X205677083Y-66360000D02*
X205402917Y-66360000D01*
X207750000Y-67640000D02*
X207402917Y-67640000D01*
X205677083Y-67640000D02*
X205402917Y-67640000D01*
X207750000Y-68360000D02*
X207402917Y-68360000D01*
X205677083Y-68360000D02*
X205402917Y-68360000D01*
X207750000Y-69640000D02*
X207402917Y-69640000D01*
X205677083Y-69640000D02*
X205402917Y-69640000D01*
X207750000Y-70360000D02*
X207402917Y-70360000D01*
X205677083Y-70360000D02*
X205402917Y-70360000D01*
X207750000Y-71640000D02*
X207402917Y-71640000D01*
X205677083Y-71640000D02*
X205402917Y-71640000D01*
X207750000Y-72360000D02*
X207402917Y-72360000D01*
X205677083Y-72360000D02*
X205402917Y-72360000D01*
X207750000Y-73640000D02*
X207402917Y-73640000D01*
X205677083Y-73640000D02*
X205402917Y-73640000D01*
X207750000Y-74360000D02*
X207402917Y-74360000D01*
X205677083Y-74360000D02*
X205402917Y-74360000D01*
X207750000Y-75640000D02*
X207402917Y-75640000D01*
X205677083Y-75640000D02*
X205402917Y-75640000D01*
X207750000Y-76360000D02*
X207402917Y-76360000D01*
X205677083Y-76360000D02*
X205402917Y-76360000D01*
X207750000Y-77640000D02*
X207402917Y-77640000D01*
X205677083Y-77640000D02*
X205402917Y-77640000D01*
X207750000Y-78360000D02*
X207402917Y-78360000D01*
X205677083Y-78360000D02*
X205402917Y-78360000D01*
X207750000Y-79640000D02*
X207402917Y-79640000D01*
X205677083Y-79640000D02*
X205402917Y-79640000D01*
X207750000Y-80360000D02*
X207402917Y-80360000D01*
X205677083Y-80360000D02*
X205402917Y-80360000D01*
X207750000Y-81640000D02*
X207402917Y-81640000D01*
X205677083Y-81640000D02*
X205402917Y-81640000D01*
X207750000Y-82360000D02*
X207402917Y-82360000D01*
X205677083Y-82360000D02*
X205402917Y-82360000D01*
X207750000Y-83640000D02*
X207402917Y-83640000D01*
X205677083Y-83640000D02*
X205402917Y-83640000D01*
X207750000Y-84360000D02*
X207402917Y-84360000D01*
X205677083Y-84360000D02*
X205402917Y-84360000D01*
X207750000Y-85640000D02*
X207402917Y-85640000D01*
X205677083Y-85640000D02*
X205402917Y-85640000D01*
X207750000Y-86360000D02*
X207402917Y-86360000D01*
X205677083Y-86360000D02*
X205402917Y-86360000D01*
X207750000Y-87640000D02*
X207402917Y-87640000D01*
X205677083Y-87640000D02*
X205402917Y-87640000D01*
X207750000Y-88360000D02*
X207402917Y-88360000D01*
X205677083Y-88360000D02*
X205402917Y-88360000D01*
X207750000Y-89640000D02*
X207402917Y-89640000D01*
X205677083Y-89640000D02*
X205402917Y-89640000D01*
X207750000Y-90360000D02*
X207402917Y-90360000D01*
X205677083Y-90360000D02*
X205402917Y-90360000D01*
X207750000Y-91640000D02*
X207402917Y-91640000D01*
X205677083Y-91640000D02*
X205402917Y-91640000D01*
X207750000Y-92360000D02*
X207402917Y-92360000D01*
X205677083Y-92360000D02*
X205402917Y-92360000D01*
X207750000Y-93640000D02*
X207402917Y-93640000D01*
X205677083Y-93640000D02*
X205402917Y-93640000D01*
X207750000Y-94360000D02*
X207402917Y-94360000D01*
X205677083Y-94360000D02*
X205402917Y-94360000D01*
X207750000Y-95640000D02*
X207402917Y-95640000D01*
X205677083Y-95640000D02*
X205402917Y-95640000D01*
X207750000Y-96360000D02*
X207402917Y-96360000D01*
X205677083Y-96360000D02*
X205402917Y-96360000D01*
X207750000Y-97640000D02*
X207402917Y-97640000D01*
X205677083Y-97640000D02*
X205402917Y-97640000D01*
X207750000Y-98360000D02*
X207402917Y-98360000D01*
X205677083Y-98360000D02*
X205402917Y-98360000D01*
X211740000Y-57000000D02*
X207750000Y-57000000D01*
X211740000Y-59000000D02*
X207750000Y-59000000D01*
X211740000Y-61000000D02*
X207750000Y-61000000D01*
X211740000Y-63000000D02*
X207750000Y-63000000D01*
X211740000Y-65000000D02*
X207750000Y-65000000D01*
X211740000Y-67000000D02*
X207750000Y-67000000D01*
X211740000Y-69000000D02*
X207750000Y-69000000D01*
X211740000Y-71000000D02*
X207750000Y-71000000D01*
X211740000Y-73000000D02*
X207750000Y-73000000D01*
X211740000Y-75000000D02*
X207750000Y-75000000D01*
X211740000Y-77000000D02*
X207750000Y-77000000D01*
X211740000Y-79000000D02*
X207750000Y-79000000D01*
X211740000Y-81000000D02*
X207750000Y-81000000D01*
X211740000Y-83000000D02*
X207750000Y-83000000D01*
X211740000Y-85000000D02*
X207750000Y-85000000D01*
X211740000Y-87000000D02*
X207750000Y-87000000D01*
X211740000Y-89000000D02*
X207750000Y-89000000D01*
X211740000Y-91000000D02*
X207750000Y-91000000D01*
X211740000Y-93000000D02*
X207750000Y-93000000D01*
X211740000Y-95000000D02*
X207750000Y-95000000D01*
X211740000Y-97000000D02*
X207750000Y-97000000D01*
X211740000Y-54940000D02*
X207750000Y-54940000D01*
X207750000Y-54940000D02*
X207750000Y-99060000D01*
X211740000Y-99060000D02*
X207750000Y-99060000D01*
X211740000Y-54940000D02*
X211740000Y-99060000D01*
X203605000Y-54940000D02*
X203605000Y-56000000D01*
X204540000Y-54940000D02*
X203605000Y-54940000D01*
X211740000Y-54940000D02*
X213240000Y-54940000D01*
X211740000Y-99060000D02*
X213240000Y-99060000D01*
X213240000Y-54940000D02*
X213240000Y-99060000D01*
%TO.C,CN1*%
D10*
X230392142Y-111498783D02*
X230439761Y-111451164D01*
X230487380Y-111308307D01*
X230487380Y-111213069D01*
X230439761Y-111070212D01*
X230344523Y-110974974D01*
X230249285Y-110927355D01*
X230058809Y-110879736D01*
X229915952Y-110879736D01*
X229725476Y-110927355D01*
X229630238Y-110974974D01*
X229535000Y-111070212D01*
X229487380Y-111213069D01*
X229487380Y-111308307D01*
X229535000Y-111451164D01*
X229582619Y-111498783D01*
X230487380Y-111927355D02*
X229487380Y-111927355D01*
X230487380Y-112498783D01*
X229487380Y-112498783D01*
X230487380Y-113498783D02*
X230487380Y-112927355D01*
X230487380Y-113213069D02*
X229487380Y-113213069D01*
X229630238Y-113117831D01*
X229725476Y-113022593D01*
X229773095Y-112927355D01*
X230487380Y-115840926D02*
X229487380Y-115840926D01*
X229487380Y-116079021D01*
X229535000Y-116221879D01*
X229630238Y-116317117D01*
X229725476Y-116364736D01*
X229915952Y-116412355D01*
X230058809Y-116412355D01*
X230249285Y-116364736D01*
X230344523Y-116317117D01*
X230439761Y-116221879D01*
X230487380Y-116079021D01*
X230487380Y-115840926D01*
X229963571Y-117174260D02*
X230011190Y-117317117D01*
X230058809Y-117364736D01*
X230154047Y-117412355D01*
X230296904Y-117412355D01*
X230392142Y-117364736D01*
X230439761Y-117317117D01*
X230487380Y-117221879D01*
X230487380Y-116840926D01*
X229487380Y-116840926D01*
X229487380Y-117174260D01*
X229535000Y-117269498D01*
X229582619Y-117317117D01*
X229677857Y-117364736D01*
X229773095Y-117364736D01*
X229868333Y-117317117D01*
X229915952Y-117269498D01*
X229963571Y-117174260D01*
X229963571Y-116840926D01*
X230487380Y-117888545D02*
X230487380Y-118079021D01*
X230439761Y-118174260D01*
X230392142Y-118221879D01*
X230249285Y-118317117D01*
X230058809Y-118364736D01*
X229677857Y-118364736D01*
X229582619Y-118317117D01*
X229535000Y-118269498D01*
X229487380Y-118174260D01*
X229487380Y-117983783D01*
X229535000Y-117888545D01*
X229582619Y-117840926D01*
X229677857Y-117793307D01*
X229915952Y-117793307D01*
X230011190Y-117840926D01*
X230058809Y-117888545D01*
X230106428Y-117983783D01*
X230106428Y-118174260D01*
X230058809Y-118269498D01*
X230011190Y-118317117D01*
X229915952Y-118364736D01*
X230487380Y-119555212D02*
X229487380Y-119555212D01*
X230201666Y-119888545D01*
X229487380Y-120221879D01*
X230487380Y-120221879D01*
X230487380Y-121126640D02*
X229963571Y-121126640D01*
X229868333Y-121079021D01*
X229820714Y-120983783D01*
X229820714Y-120793307D01*
X229868333Y-120698069D01*
X230439761Y-121126640D02*
X230487380Y-121031402D01*
X230487380Y-120793307D01*
X230439761Y-120698069D01*
X230344523Y-120650450D01*
X230249285Y-120650450D01*
X230154047Y-120698069D01*
X230106428Y-120793307D01*
X230106428Y-121031402D01*
X230058809Y-121126640D01*
X230487380Y-121745688D02*
X230439761Y-121650450D01*
X230344523Y-121602831D01*
X229487380Y-121602831D01*
X230439761Y-122507593D02*
X230487380Y-122412355D01*
X230487380Y-122221879D01*
X230439761Y-122126640D01*
X230344523Y-122079021D01*
X229963571Y-122079021D01*
X229868333Y-122126640D01*
X229820714Y-122221879D01*
X229820714Y-122412355D01*
X229868333Y-122507593D01*
X229963571Y-122555212D01*
X230058809Y-122555212D01*
X230154047Y-122079021D01*
%TO.C,J2*%
X221313333Y-128992380D02*
X221313333Y-129706666D01*
X221360952Y-129849523D01*
X221456190Y-129944761D01*
X221599047Y-129992380D01*
X221694285Y-129992380D01*
X220884761Y-129087619D02*
X220837142Y-129040000D01*
X220741904Y-128992380D01*
X220503809Y-128992380D01*
X220408571Y-129040000D01*
X220360952Y-129087619D01*
X220313333Y-129182857D01*
X220313333Y-129278095D01*
X220360952Y-129420952D01*
X220932380Y-129992380D01*
X220313333Y-129992380D01*
%TO.C,J1*%
X208613333Y-50887380D02*
X208613333Y-51601666D01*
X208660952Y-51744523D01*
X208756190Y-51839761D01*
X208899047Y-51887380D01*
X208994285Y-51887380D01*
X207613333Y-51887380D02*
X208184761Y-51887380D01*
X207899047Y-51887380D02*
X207899047Y-50887380D01*
X207994285Y-51030238D01*
X208089523Y-51125476D01*
X208184761Y-51173095D01*
%TD*%
M02*
