%TF.GenerationSoftware,KiCad,Pcbnew,(5.1.9)-1*%
%TF.CreationDate,2021-08-16T20:15:10+08:00*%
%TF.ProjectId,EX-HX-Combo,45582d48-582d-4436-9f6d-626f2e6b6963,rev?*%
%TF.SameCoordinates,Original*%
%TF.FileFunction,Soldermask,Top*%
%TF.FilePolarity,Negative*%
%FSLAX46Y46*%
G04 Gerber Fmt 4.6, Leading zero omitted, Abs format (unit mm)*
G04 Created by KiCad (PCBNEW (5.1.9)-1) date 2021-08-16 20:15:10*
%MOMM*%
%LPD*%
G01*
G04 APERTURE LIST*
%ADD10C,0.100000*%
%ADD11C,6.200000*%
%ADD12O,1.700000X1.700000*%
%ADD13R,1.700000X1.700000*%
%ADD14O,1.600000X1.600000*%
%ADD15R,1.600000X1.600000*%
%ADD16R,1.800000X2.000000*%
%ADD17C,5.001260*%
%ADD18O,1.998980X1.501140*%
%ADD19C,5.950000*%
%ADD20O,4.600000X4.800000*%
%ADD21O,7.280000X2.360000*%
%ADD22R,1.350000X1.350000*%
%ADD23O,1.350000X1.350000*%
%ADD24C,1.000000*%
%ADD25R,2.600000X3.600000*%
G04 APERTURE END LIST*
D10*
G36*
X246054880Y-105407460D02*
G01*
X246059960Y-109476540D01*
X243332000Y-109479080D01*
X243324380Y-105399840D01*
X246054880Y-105407460D01*
G37*
X246054880Y-105407460D02*
X246059960Y-109476540D01*
X243332000Y-109479080D01*
X243324380Y-105399840D01*
X246054880Y-105407460D01*
G36*
X244543580Y-39456360D02*
G01*
X244548660Y-43525440D01*
X241820700Y-43527980D01*
X241813080Y-39448740D01*
X244543580Y-39456360D01*
G37*
X244543580Y-39456360D02*
X244548660Y-43525440D01*
X241820700Y-43527980D01*
X241813080Y-39448740D01*
X244543580Y-39456360D01*
G36*
X244538500Y-130553460D02*
G01*
X244543580Y-134622540D01*
X241815620Y-134625080D01*
X241808000Y-130545840D01*
X244538500Y-130553460D01*
G37*
X244538500Y-130553460D02*
X244543580Y-134622540D01*
X241815620Y-134625080D01*
X241808000Y-130545840D01*
X244538500Y-130553460D01*
D11*
%TO.C,H8*%
X139490740Y-25255000D02*
X139490740Y-24655000D01*
X164479260Y-25255000D02*
X164479260Y-24655000D01*
%TD*%
D12*
%TO.C,J2*%
X142240000Y-128270000D03*
X142240000Y-130810000D03*
X144780000Y-128270000D03*
X144780000Y-130810000D03*
X147320000Y-128270000D03*
X147320000Y-130810000D03*
X149860000Y-128270000D03*
X149860000Y-130810000D03*
X152400000Y-128270000D03*
X152400000Y-130810000D03*
X154940000Y-128270000D03*
X154940000Y-130810000D03*
X157480000Y-128270000D03*
X157480000Y-130810000D03*
X160020000Y-128270000D03*
X160020000Y-130810000D03*
X162560000Y-128270000D03*
X162560000Y-130810000D03*
X165100000Y-128270000D03*
X165100000Y-130810000D03*
X167640000Y-128270000D03*
X167640000Y-130810000D03*
X170180000Y-128270000D03*
X170180000Y-130810000D03*
X172720000Y-128270000D03*
X172720000Y-130810000D03*
X175260000Y-128270000D03*
X175260000Y-130810000D03*
X177800000Y-128270000D03*
X177800000Y-130810000D03*
X180340000Y-128270000D03*
X180340000Y-130810000D03*
X182880000Y-128270000D03*
X182880000Y-130810000D03*
X185420000Y-128270000D03*
X185420000Y-130810000D03*
X187960000Y-128270000D03*
X187960000Y-130810000D03*
X190500000Y-128270000D03*
X190500000Y-130810000D03*
X193040000Y-128270000D03*
X193040000Y-130810000D03*
X195580000Y-128270000D03*
X195580000Y-130810000D03*
X198120000Y-128270000D03*
X198120000Y-130810000D03*
X200660000Y-128270000D03*
X200660000Y-130810000D03*
X203200000Y-128270000D03*
X203200000Y-130810000D03*
X205740000Y-128270000D03*
X205740000Y-130810000D03*
X208280000Y-128270000D03*
X208280000Y-130810000D03*
X210820000Y-128270000D03*
X210820000Y-130810000D03*
X213360000Y-128270000D03*
X213360000Y-130810000D03*
X215900000Y-128270000D03*
X215900000Y-130810000D03*
X218440000Y-128270000D03*
D13*
X218440000Y-130810000D03*
%TD*%
D14*
%TO.C,U4*%
X175895000Y-43815000D03*
X193675000Y-51435000D03*
X178435000Y-43815000D03*
X191135000Y-51435000D03*
X180975000Y-43815000D03*
X188595000Y-51435000D03*
X183515000Y-43815000D03*
X186055000Y-51435000D03*
X186055000Y-43815000D03*
X183515000Y-51435000D03*
X188595000Y-43815000D03*
X180975000Y-51435000D03*
X191135000Y-43815000D03*
X178435000Y-51435000D03*
X193675000Y-43815000D03*
D15*
X175895000Y-51435000D03*
%TD*%
D16*
%TO.C,U3*%
X218960000Y-82600000D03*
X224040000Y-82600000D03*
X224040000Y-78400000D03*
X218960000Y-78400000D03*
%TD*%
D17*
%TO.C,CN1*%
X231556000Y-107520740D03*
D18*
X233074920Y-124170440D03*
X233074920Y-121399300D03*
X233074920Y-118630700D03*
X233074920Y-115859560D03*
X230037080Y-114475260D03*
X230037080Y-117243860D03*
X230037080Y-125554740D03*
X230037080Y-122786140D03*
X230037080Y-120015000D03*
D17*
X231556000Y-132509260D03*
%TD*%
%TO.C,U7*%
G36*
G01*
X236375000Y-89660000D02*
X236375000Y-89360000D01*
G75*
G02*
X236525000Y-89210000I150000J0D01*
G01*
X238275000Y-89210000D01*
G75*
G02*
X238425000Y-89360000I0J-150000D01*
G01*
X238425000Y-89660000D01*
G75*
G02*
X238275000Y-89810000I-150000J0D01*
G01*
X236525000Y-89810000D01*
G75*
G02*
X236375000Y-89660000I0J150000D01*
G01*
G37*
G36*
G01*
X236375000Y-90930000D02*
X236375000Y-90630000D01*
G75*
G02*
X236525000Y-90480000I150000J0D01*
G01*
X238275000Y-90480000D01*
G75*
G02*
X238425000Y-90630000I0J-150000D01*
G01*
X238425000Y-90930000D01*
G75*
G02*
X238275000Y-91080000I-150000J0D01*
G01*
X236525000Y-91080000D01*
G75*
G02*
X236375000Y-90930000I0J150000D01*
G01*
G37*
G36*
G01*
X236375000Y-92200000D02*
X236375000Y-91900000D01*
G75*
G02*
X236525000Y-91750000I150000J0D01*
G01*
X238275000Y-91750000D01*
G75*
G02*
X238425000Y-91900000I0J-150000D01*
G01*
X238425000Y-92200000D01*
G75*
G02*
X238275000Y-92350000I-150000J0D01*
G01*
X236525000Y-92350000D01*
G75*
G02*
X236375000Y-92200000I0J150000D01*
G01*
G37*
G36*
G01*
X236375000Y-93470000D02*
X236375000Y-93170000D01*
G75*
G02*
X236525000Y-93020000I150000J0D01*
G01*
X238275000Y-93020000D01*
G75*
G02*
X238425000Y-93170000I0J-150000D01*
G01*
X238425000Y-93470000D01*
G75*
G02*
X238275000Y-93620000I-150000J0D01*
G01*
X236525000Y-93620000D01*
G75*
G02*
X236375000Y-93470000I0J150000D01*
G01*
G37*
G36*
G01*
X236375000Y-94740000D02*
X236375000Y-94440000D01*
G75*
G02*
X236525000Y-94290000I150000J0D01*
G01*
X238275000Y-94290000D01*
G75*
G02*
X238425000Y-94440000I0J-150000D01*
G01*
X238425000Y-94740000D01*
G75*
G02*
X238275000Y-94890000I-150000J0D01*
G01*
X236525000Y-94890000D01*
G75*
G02*
X236375000Y-94740000I0J150000D01*
G01*
G37*
G36*
G01*
X236375000Y-96010000D02*
X236375000Y-95710000D01*
G75*
G02*
X236525000Y-95560000I150000J0D01*
G01*
X238275000Y-95560000D01*
G75*
G02*
X238425000Y-95710000I0J-150000D01*
G01*
X238425000Y-96010000D01*
G75*
G02*
X238275000Y-96160000I-150000J0D01*
G01*
X236525000Y-96160000D01*
G75*
G02*
X236375000Y-96010000I0J150000D01*
G01*
G37*
G36*
G01*
X236375000Y-97280000D02*
X236375000Y-96980000D01*
G75*
G02*
X236525000Y-96830000I150000J0D01*
G01*
X238275000Y-96830000D01*
G75*
G02*
X238425000Y-96980000I0J-150000D01*
G01*
X238425000Y-97280000D01*
G75*
G02*
X238275000Y-97430000I-150000J0D01*
G01*
X236525000Y-97430000D01*
G75*
G02*
X236375000Y-97280000I0J150000D01*
G01*
G37*
G36*
G01*
X236375000Y-98550000D02*
X236375000Y-98250000D01*
G75*
G02*
X236525000Y-98100000I150000J0D01*
G01*
X238275000Y-98100000D01*
G75*
G02*
X238425000Y-98250000I0J-150000D01*
G01*
X238425000Y-98550000D01*
G75*
G02*
X238275000Y-98700000I-150000J0D01*
G01*
X236525000Y-98700000D01*
G75*
G02*
X236375000Y-98550000I0J150000D01*
G01*
G37*
G36*
G01*
X236375000Y-99820000D02*
X236375000Y-99520000D01*
G75*
G02*
X236525000Y-99370000I150000J0D01*
G01*
X238275000Y-99370000D01*
G75*
G02*
X238425000Y-99520000I0J-150000D01*
G01*
X238425000Y-99820000D01*
G75*
G02*
X238275000Y-99970000I-150000J0D01*
G01*
X236525000Y-99970000D01*
G75*
G02*
X236375000Y-99820000I0J150000D01*
G01*
G37*
G36*
G01*
X236375000Y-101090000D02*
X236375000Y-100790000D01*
G75*
G02*
X236525000Y-100640000I150000J0D01*
G01*
X238275000Y-100640000D01*
G75*
G02*
X238425000Y-100790000I0J-150000D01*
G01*
X238425000Y-101090000D01*
G75*
G02*
X238275000Y-101240000I-150000J0D01*
G01*
X236525000Y-101240000D01*
G75*
G02*
X236375000Y-101090000I0J150000D01*
G01*
G37*
G36*
G01*
X227075000Y-101090000D02*
X227075000Y-100790000D01*
G75*
G02*
X227225000Y-100640000I150000J0D01*
G01*
X228975000Y-100640000D01*
G75*
G02*
X229125000Y-100790000I0J-150000D01*
G01*
X229125000Y-101090000D01*
G75*
G02*
X228975000Y-101240000I-150000J0D01*
G01*
X227225000Y-101240000D01*
G75*
G02*
X227075000Y-101090000I0J150000D01*
G01*
G37*
G36*
G01*
X227075000Y-99820000D02*
X227075000Y-99520000D01*
G75*
G02*
X227225000Y-99370000I150000J0D01*
G01*
X228975000Y-99370000D01*
G75*
G02*
X229125000Y-99520000I0J-150000D01*
G01*
X229125000Y-99820000D01*
G75*
G02*
X228975000Y-99970000I-150000J0D01*
G01*
X227225000Y-99970000D01*
G75*
G02*
X227075000Y-99820000I0J150000D01*
G01*
G37*
G36*
G01*
X227075000Y-98550000D02*
X227075000Y-98250000D01*
G75*
G02*
X227225000Y-98100000I150000J0D01*
G01*
X228975000Y-98100000D01*
G75*
G02*
X229125000Y-98250000I0J-150000D01*
G01*
X229125000Y-98550000D01*
G75*
G02*
X228975000Y-98700000I-150000J0D01*
G01*
X227225000Y-98700000D01*
G75*
G02*
X227075000Y-98550000I0J150000D01*
G01*
G37*
G36*
G01*
X227075000Y-97280000D02*
X227075000Y-96980000D01*
G75*
G02*
X227225000Y-96830000I150000J0D01*
G01*
X228975000Y-96830000D01*
G75*
G02*
X229125000Y-96980000I0J-150000D01*
G01*
X229125000Y-97280000D01*
G75*
G02*
X228975000Y-97430000I-150000J0D01*
G01*
X227225000Y-97430000D01*
G75*
G02*
X227075000Y-97280000I0J150000D01*
G01*
G37*
G36*
G01*
X227075000Y-96010000D02*
X227075000Y-95710000D01*
G75*
G02*
X227225000Y-95560000I150000J0D01*
G01*
X228975000Y-95560000D01*
G75*
G02*
X229125000Y-95710000I0J-150000D01*
G01*
X229125000Y-96010000D01*
G75*
G02*
X228975000Y-96160000I-150000J0D01*
G01*
X227225000Y-96160000D01*
G75*
G02*
X227075000Y-96010000I0J150000D01*
G01*
G37*
G36*
G01*
X227075000Y-94740000D02*
X227075000Y-94440000D01*
G75*
G02*
X227225000Y-94290000I150000J0D01*
G01*
X228975000Y-94290000D01*
G75*
G02*
X229125000Y-94440000I0J-150000D01*
G01*
X229125000Y-94740000D01*
G75*
G02*
X228975000Y-94890000I-150000J0D01*
G01*
X227225000Y-94890000D01*
G75*
G02*
X227075000Y-94740000I0J150000D01*
G01*
G37*
G36*
G01*
X227075000Y-93470000D02*
X227075000Y-93170000D01*
G75*
G02*
X227225000Y-93020000I150000J0D01*
G01*
X228975000Y-93020000D01*
G75*
G02*
X229125000Y-93170000I0J-150000D01*
G01*
X229125000Y-93470000D01*
G75*
G02*
X228975000Y-93620000I-150000J0D01*
G01*
X227225000Y-93620000D01*
G75*
G02*
X227075000Y-93470000I0J150000D01*
G01*
G37*
G36*
G01*
X227075000Y-92200000D02*
X227075000Y-91900000D01*
G75*
G02*
X227225000Y-91750000I150000J0D01*
G01*
X228975000Y-91750000D01*
G75*
G02*
X229125000Y-91900000I0J-150000D01*
G01*
X229125000Y-92200000D01*
G75*
G02*
X228975000Y-92350000I-150000J0D01*
G01*
X227225000Y-92350000D01*
G75*
G02*
X227075000Y-92200000I0J150000D01*
G01*
G37*
G36*
G01*
X227075000Y-90930000D02*
X227075000Y-90630000D01*
G75*
G02*
X227225000Y-90480000I150000J0D01*
G01*
X228975000Y-90480000D01*
G75*
G02*
X229125000Y-90630000I0J-150000D01*
G01*
X229125000Y-90930000D01*
G75*
G02*
X228975000Y-91080000I-150000J0D01*
G01*
X227225000Y-91080000D01*
G75*
G02*
X227075000Y-90930000I0J150000D01*
G01*
G37*
G36*
G01*
X227075000Y-89660000D02*
X227075000Y-89360000D01*
G75*
G02*
X227225000Y-89210000I150000J0D01*
G01*
X228975000Y-89210000D01*
G75*
G02*
X229125000Y-89360000I0J-150000D01*
G01*
X229125000Y-89660000D01*
G75*
G02*
X228975000Y-89810000I-150000J0D01*
G01*
X227225000Y-89810000D01*
G75*
G02*
X227075000Y-89660000I0J150000D01*
G01*
G37*
%TD*%
%TO.C,U6*%
G36*
G01*
X217850000Y-66750000D02*
X217850000Y-65425000D01*
G75*
G02*
X217925000Y-65350000I75000J0D01*
G01*
X218075000Y-65350000D01*
G75*
G02*
X218150000Y-65425000I0J-75000D01*
G01*
X218150000Y-66750000D01*
G75*
G02*
X218075000Y-66825000I-75000J0D01*
G01*
X217925000Y-66825000D01*
G75*
G02*
X217850000Y-66750000I0J75000D01*
G01*
G37*
G36*
G01*
X218350000Y-66750000D02*
X218350000Y-65425000D01*
G75*
G02*
X218425000Y-65350000I75000J0D01*
G01*
X218575000Y-65350000D01*
G75*
G02*
X218650000Y-65425000I0J-75000D01*
G01*
X218650000Y-66750000D01*
G75*
G02*
X218575000Y-66825000I-75000J0D01*
G01*
X218425000Y-66825000D01*
G75*
G02*
X218350000Y-66750000I0J75000D01*
G01*
G37*
G36*
G01*
X218850000Y-66750000D02*
X218850000Y-65425000D01*
G75*
G02*
X218925000Y-65350000I75000J0D01*
G01*
X219075000Y-65350000D01*
G75*
G02*
X219150000Y-65425000I0J-75000D01*
G01*
X219150000Y-66750000D01*
G75*
G02*
X219075000Y-66825000I-75000J0D01*
G01*
X218925000Y-66825000D01*
G75*
G02*
X218850000Y-66750000I0J75000D01*
G01*
G37*
G36*
G01*
X219350000Y-66750000D02*
X219350000Y-65425000D01*
G75*
G02*
X219425000Y-65350000I75000J0D01*
G01*
X219575000Y-65350000D01*
G75*
G02*
X219650000Y-65425000I0J-75000D01*
G01*
X219650000Y-66750000D01*
G75*
G02*
X219575000Y-66825000I-75000J0D01*
G01*
X219425000Y-66825000D01*
G75*
G02*
X219350000Y-66750000I0J75000D01*
G01*
G37*
G36*
G01*
X219850000Y-66750000D02*
X219850000Y-65425000D01*
G75*
G02*
X219925000Y-65350000I75000J0D01*
G01*
X220075000Y-65350000D01*
G75*
G02*
X220150000Y-65425000I0J-75000D01*
G01*
X220150000Y-66750000D01*
G75*
G02*
X220075000Y-66825000I-75000J0D01*
G01*
X219925000Y-66825000D01*
G75*
G02*
X219850000Y-66750000I0J75000D01*
G01*
G37*
G36*
G01*
X220350000Y-66750000D02*
X220350000Y-65425000D01*
G75*
G02*
X220425000Y-65350000I75000J0D01*
G01*
X220575000Y-65350000D01*
G75*
G02*
X220650000Y-65425000I0J-75000D01*
G01*
X220650000Y-66750000D01*
G75*
G02*
X220575000Y-66825000I-75000J0D01*
G01*
X220425000Y-66825000D01*
G75*
G02*
X220350000Y-66750000I0J75000D01*
G01*
G37*
G36*
G01*
X220850000Y-66750000D02*
X220850000Y-65425000D01*
G75*
G02*
X220925000Y-65350000I75000J0D01*
G01*
X221075000Y-65350000D01*
G75*
G02*
X221150000Y-65425000I0J-75000D01*
G01*
X221150000Y-66750000D01*
G75*
G02*
X221075000Y-66825000I-75000J0D01*
G01*
X220925000Y-66825000D01*
G75*
G02*
X220850000Y-66750000I0J75000D01*
G01*
G37*
G36*
G01*
X221350000Y-66750000D02*
X221350000Y-65425000D01*
G75*
G02*
X221425000Y-65350000I75000J0D01*
G01*
X221575000Y-65350000D01*
G75*
G02*
X221650000Y-65425000I0J-75000D01*
G01*
X221650000Y-66750000D01*
G75*
G02*
X221575000Y-66825000I-75000J0D01*
G01*
X221425000Y-66825000D01*
G75*
G02*
X221350000Y-66750000I0J75000D01*
G01*
G37*
G36*
G01*
X221850000Y-66750000D02*
X221850000Y-65425000D01*
G75*
G02*
X221925000Y-65350000I75000J0D01*
G01*
X222075000Y-65350000D01*
G75*
G02*
X222150000Y-65425000I0J-75000D01*
G01*
X222150000Y-66750000D01*
G75*
G02*
X222075000Y-66825000I-75000J0D01*
G01*
X221925000Y-66825000D01*
G75*
G02*
X221850000Y-66750000I0J75000D01*
G01*
G37*
G36*
G01*
X222350000Y-66750000D02*
X222350000Y-65425000D01*
G75*
G02*
X222425000Y-65350000I75000J0D01*
G01*
X222575000Y-65350000D01*
G75*
G02*
X222650000Y-65425000I0J-75000D01*
G01*
X222650000Y-66750000D01*
G75*
G02*
X222575000Y-66825000I-75000J0D01*
G01*
X222425000Y-66825000D01*
G75*
G02*
X222350000Y-66750000I0J75000D01*
G01*
G37*
G36*
G01*
X222850000Y-66750000D02*
X222850000Y-65425000D01*
G75*
G02*
X222925000Y-65350000I75000J0D01*
G01*
X223075000Y-65350000D01*
G75*
G02*
X223150000Y-65425000I0J-75000D01*
G01*
X223150000Y-66750000D01*
G75*
G02*
X223075000Y-66825000I-75000J0D01*
G01*
X222925000Y-66825000D01*
G75*
G02*
X222850000Y-66750000I0J75000D01*
G01*
G37*
G36*
G01*
X223350000Y-66750000D02*
X223350000Y-65425000D01*
G75*
G02*
X223425000Y-65350000I75000J0D01*
G01*
X223575000Y-65350000D01*
G75*
G02*
X223650000Y-65425000I0J-75000D01*
G01*
X223650000Y-66750000D01*
G75*
G02*
X223575000Y-66825000I-75000J0D01*
G01*
X223425000Y-66825000D01*
G75*
G02*
X223350000Y-66750000I0J75000D01*
G01*
G37*
G36*
G01*
X224175000Y-67575000D02*
X224175000Y-67425000D01*
G75*
G02*
X224250000Y-67350000I75000J0D01*
G01*
X225575000Y-67350000D01*
G75*
G02*
X225650000Y-67425000I0J-75000D01*
G01*
X225650000Y-67575000D01*
G75*
G02*
X225575000Y-67650000I-75000J0D01*
G01*
X224250000Y-67650000D01*
G75*
G02*
X224175000Y-67575000I0J75000D01*
G01*
G37*
G36*
G01*
X224175000Y-68075000D02*
X224175000Y-67925000D01*
G75*
G02*
X224250000Y-67850000I75000J0D01*
G01*
X225575000Y-67850000D01*
G75*
G02*
X225650000Y-67925000I0J-75000D01*
G01*
X225650000Y-68075000D01*
G75*
G02*
X225575000Y-68150000I-75000J0D01*
G01*
X224250000Y-68150000D01*
G75*
G02*
X224175000Y-68075000I0J75000D01*
G01*
G37*
G36*
G01*
X224175000Y-68575000D02*
X224175000Y-68425000D01*
G75*
G02*
X224250000Y-68350000I75000J0D01*
G01*
X225575000Y-68350000D01*
G75*
G02*
X225650000Y-68425000I0J-75000D01*
G01*
X225650000Y-68575000D01*
G75*
G02*
X225575000Y-68650000I-75000J0D01*
G01*
X224250000Y-68650000D01*
G75*
G02*
X224175000Y-68575000I0J75000D01*
G01*
G37*
G36*
G01*
X224175000Y-69075000D02*
X224175000Y-68925000D01*
G75*
G02*
X224250000Y-68850000I75000J0D01*
G01*
X225575000Y-68850000D01*
G75*
G02*
X225650000Y-68925000I0J-75000D01*
G01*
X225650000Y-69075000D01*
G75*
G02*
X225575000Y-69150000I-75000J0D01*
G01*
X224250000Y-69150000D01*
G75*
G02*
X224175000Y-69075000I0J75000D01*
G01*
G37*
G36*
G01*
X224175000Y-69575000D02*
X224175000Y-69425000D01*
G75*
G02*
X224250000Y-69350000I75000J0D01*
G01*
X225575000Y-69350000D01*
G75*
G02*
X225650000Y-69425000I0J-75000D01*
G01*
X225650000Y-69575000D01*
G75*
G02*
X225575000Y-69650000I-75000J0D01*
G01*
X224250000Y-69650000D01*
G75*
G02*
X224175000Y-69575000I0J75000D01*
G01*
G37*
G36*
G01*
X224175000Y-70075000D02*
X224175000Y-69925000D01*
G75*
G02*
X224250000Y-69850000I75000J0D01*
G01*
X225575000Y-69850000D01*
G75*
G02*
X225650000Y-69925000I0J-75000D01*
G01*
X225650000Y-70075000D01*
G75*
G02*
X225575000Y-70150000I-75000J0D01*
G01*
X224250000Y-70150000D01*
G75*
G02*
X224175000Y-70075000I0J75000D01*
G01*
G37*
G36*
G01*
X224175000Y-70575000D02*
X224175000Y-70425000D01*
G75*
G02*
X224250000Y-70350000I75000J0D01*
G01*
X225575000Y-70350000D01*
G75*
G02*
X225650000Y-70425000I0J-75000D01*
G01*
X225650000Y-70575000D01*
G75*
G02*
X225575000Y-70650000I-75000J0D01*
G01*
X224250000Y-70650000D01*
G75*
G02*
X224175000Y-70575000I0J75000D01*
G01*
G37*
G36*
G01*
X224175000Y-71075000D02*
X224175000Y-70925000D01*
G75*
G02*
X224250000Y-70850000I75000J0D01*
G01*
X225575000Y-70850000D01*
G75*
G02*
X225650000Y-70925000I0J-75000D01*
G01*
X225650000Y-71075000D01*
G75*
G02*
X225575000Y-71150000I-75000J0D01*
G01*
X224250000Y-71150000D01*
G75*
G02*
X224175000Y-71075000I0J75000D01*
G01*
G37*
G36*
G01*
X224175000Y-71575000D02*
X224175000Y-71425000D01*
G75*
G02*
X224250000Y-71350000I75000J0D01*
G01*
X225575000Y-71350000D01*
G75*
G02*
X225650000Y-71425000I0J-75000D01*
G01*
X225650000Y-71575000D01*
G75*
G02*
X225575000Y-71650000I-75000J0D01*
G01*
X224250000Y-71650000D01*
G75*
G02*
X224175000Y-71575000I0J75000D01*
G01*
G37*
G36*
G01*
X224175000Y-72075000D02*
X224175000Y-71925000D01*
G75*
G02*
X224250000Y-71850000I75000J0D01*
G01*
X225575000Y-71850000D01*
G75*
G02*
X225650000Y-71925000I0J-75000D01*
G01*
X225650000Y-72075000D01*
G75*
G02*
X225575000Y-72150000I-75000J0D01*
G01*
X224250000Y-72150000D01*
G75*
G02*
X224175000Y-72075000I0J75000D01*
G01*
G37*
G36*
G01*
X224175000Y-72575000D02*
X224175000Y-72425000D01*
G75*
G02*
X224250000Y-72350000I75000J0D01*
G01*
X225575000Y-72350000D01*
G75*
G02*
X225650000Y-72425000I0J-75000D01*
G01*
X225650000Y-72575000D01*
G75*
G02*
X225575000Y-72650000I-75000J0D01*
G01*
X224250000Y-72650000D01*
G75*
G02*
X224175000Y-72575000I0J75000D01*
G01*
G37*
G36*
G01*
X224175000Y-73075000D02*
X224175000Y-72925000D01*
G75*
G02*
X224250000Y-72850000I75000J0D01*
G01*
X225575000Y-72850000D01*
G75*
G02*
X225650000Y-72925000I0J-75000D01*
G01*
X225650000Y-73075000D01*
G75*
G02*
X225575000Y-73150000I-75000J0D01*
G01*
X224250000Y-73150000D01*
G75*
G02*
X224175000Y-73075000I0J75000D01*
G01*
G37*
G36*
G01*
X223350000Y-75075000D02*
X223350000Y-73750000D01*
G75*
G02*
X223425000Y-73675000I75000J0D01*
G01*
X223575000Y-73675000D01*
G75*
G02*
X223650000Y-73750000I0J-75000D01*
G01*
X223650000Y-75075000D01*
G75*
G02*
X223575000Y-75150000I-75000J0D01*
G01*
X223425000Y-75150000D01*
G75*
G02*
X223350000Y-75075000I0J75000D01*
G01*
G37*
G36*
G01*
X222850000Y-75075000D02*
X222850000Y-73750000D01*
G75*
G02*
X222925000Y-73675000I75000J0D01*
G01*
X223075000Y-73675000D01*
G75*
G02*
X223150000Y-73750000I0J-75000D01*
G01*
X223150000Y-75075000D01*
G75*
G02*
X223075000Y-75150000I-75000J0D01*
G01*
X222925000Y-75150000D01*
G75*
G02*
X222850000Y-75075000I0J75000D01*
G01*
G37*
G36*
G01*
X222350000Y-75075000D02*
X222350000Y-73750000D01*
G75*
G02*
X222425000Y-73675000I75000J0D01*
G01*
X222575000Y-73675000D01*
G75*
G02*
X222650000Y-73750000I0J-75000D01*
G01*
X222650000Y-75075000D01*
G75*
G02*
X222575000Y-75150000I-75000J0D01*
G01*
X222425000Y-75150000D01*
G75*
G02*
X222350000Y-75075000I0J75000D01*
G01*
G37*
G36*
G01*
X221850000Y-75075000D02*
X221850000Y-73750000D01*
G75*
G02*
X221925000Y-73675000I75000J0D01*
G01*
X222075000Y-73675000D01*
G75*
G02*
X222150000Y-73750000I0J-75000D01*
G01*
X222150000Y-75075000D01*
G75*
G02*
X222075000Y-75150000I-75000J0D01*
G01*
X221925000Y-75150000D01*
G75*
G02*
X221850000Y-75075000I0J75000D01*
G01*
G37*
G36*
G01*
X221350000Y-75075000D02*
X221350000Y-73750000D01*
G75*
G02*
X221425000Y-73675000I75000J0D01*
G01*
X221575000Y-73675000D01*
G75*
G02*
X221650000Y-73750000I0J-75000D01*
G01*
X221650000Y-75075000D01*
G75*
G02*
X221575000Y-75150000I-75000J0D01*
G01*
X221425000Y-75150000D01*
G75*
G02*
X221350000Y-75075000I0J75000D01*
G01*
G37*
G36*
G01*
X220850000Y-75075000D02*
X220850000Y-73750000D01*
G75*
G02*
X220925000Y-73675000I75000J0D01*
G01*
X221075000Y-73675000D01*
G75*
G02*
X221150000Y-73750000I0J-75000D01*
G01*
X221150000Y-75075000D01*
G75*
G02*
X221075000Y-75150000I-75000J0D01*
G01*
X220925000Y-75150000D01*
G75*
G02*
X220850000Y-75075000I0J75000D01*
G01*
G37*
G36*
G01*
X220350000Y-75075000D02*
X220350000Y-73750000D01*
G75*
G02*
X220425000Y-73675000I75000J0D01*
G01*
X220575000Y-73675000D01*
G75*
G02*
X220650000Y-73750000I0J-75000D01*
G01*
X220650000Y-75075000D01*
G75*
G02*
X220575000Y-75150000I-75000J0D01*
G01*
X220425000Y-75150000D01*
G75*
G02*
X220350000Y-75075000I0J75000D01*
G01*
G37*
G36*
G01*
X219850000Y-75075000D02*
X219850000Y-73750000D01*
G75*
G02*
X219925000Y-73675000I75000J0D01*
G01*
X220075000Y-73675000D01*
G75*
G02*
X220150000Y-73750000I0J-75000D01*
G01*
X220150000Y-75075000D01*
G75*
G02*
X220075000Y-75150000I-75000J0D01*
G01*
X219925000Y-75150000D01*
G75*
G02*
X219850000Y-75075000I0J75000D01*
G01*
G37*
G36*
G01*
X219350000Y-75075000D02*
X219350000Y-73750000D01*
G75*
G02*
X219425000Y-73675000I75000J0D01*
G01*
X219575000Y-73675000D01*
G75*
G02*
X219650000Y-73750000I0J-75000D01*
G01*
X219650000Y-75075000D01*
G75*
G02*
X219575000Y-75150000I-75000J0D01*
G01*
X219425000Y-75150000D01*
G75*
G02*
X219350000Y-75075000I0J75000D01*
G01*
G37*
G36*
G01*
X218850000Y-75075000D02*
X218850000Y-73750000D01*
G75*
G02*
X218925000Y-73675000I75000J0D01*
G01*
X219075000Y-73675000D01*
G75*
G02*
X219150000Y-73750000I0J-75000D01*
G01*
X219150000Y-75075000D01*
G75*
G02*
X219075000Y-75150000I-75000J0D01*
G01*
X218925000Y-75150000D01*
G75*
G02*
X218850000Y-75075000I0J75000D01*
G01*
G37*
G36*
G01*
X218350000Y-75075000D02*
X218350000Y-73750000D01*
G75*
G02*
X218425000Y-73675000I75000J0D01*
G01*
X218575000Y-73675000D01*
G75*
G02*
X218650000Y-73750000I0J-75000D01*
G01*
X218650000Y-75075000D01*
G75*
G02*
X218575000Y-75150000I-75000J0D01*
G01*
X218425000Y-75150000D01*
G75*
G02*
X218350000Y-75075000I0J75000D01*
G01*
G37*
G36*
G01*
X217850000Y-75075000D02*
X217850000Y-73750000D01*
G75*
G02*
X217925000Y-73675000I75000J0D01*
G01*
X218075000Y-73675000D01*
G75*
G02*
X218150000Y-73750000I0J-75000D01*
G01*
X218150000Y-75075000D01*
G75*
G02*
X218075000Y-75150000I-75000J0D01*
G01*
X217925000Y-75150000D01*
G75*
G02*
X217850000Y-75075000I0J75000D01*
G01*
G37*
G36*
G01*
X215850000Y-73075000D02*
X215850000Y-72925000D01*
G75*
G02*
X215925000Y-72850000I75000J0D01*
G01*
X217250000Y-72850000D01*
G75*
G02*
X217325000Y-72925000I0J-75000D01*
G01*
X217325000Y-73075000D01*
G75*
G02*
X217250000Y-73150000I-75000J0D01*
G01*
X215925000Y-73150000D01*
G75*
G02*
X215850000Y-73075000I0J75000D01*
G01*
G37*
G36*
G01*
X215850000Y-72575000D02*
X215850000Y-72425000D01*
G75*
G02*
X215925000Y-72350000I75000J0D01*
G01*
X217250000Y-72350000D01*
G75*
G02*
X217325000Y-72425000I0J-75000D01*
G01*
X217325000Y-72575000D01*
G75*
G02*
X217250000Y-72650000I-75000J0D01*
G01*
X215925000Y-72650000D01*
G75*
G02*
X215850000Y-72575000I0J75000D01*
G01*
G37*
G36*
G01*
X215850000Y-72075000D02*
X215850000Y-71925000D01*
G75*
G02*
X215925000Y-71850000I75000J0D01*
G01*
X217250000Y-71850000D01*
G75*
G02*
X217325000Y-71925000I0J-75000D01*
G01*
X217325000Y-72075000D01*
G75*
G02*
X217250000Y-72150000I-75000J0D01*
G01*
X215925000Y-72150000D01*
G75*
G02*
X215850000Y-72075000I0J75000D01*
G01*
G37*
G36*
G01*
X215850000Y-71575000D02*
X215850000Y-71425000D01*
G75*
G02*
X215925000Y-71350000I75000J0D01*
G01*
X217250000Y-71350000D01*
G75*
G02*
X217325000Y-71425000I0J-75000D01*
G01*
X217325000Y-71575000D01*
G75*
G02*
X217250000Y-71650000I-75000J0D01*
G01*
X215925000Y-71650000D01*
G75*
G02*
X215850000Y-71575000I0J75000D01*
G01*
G37*
G36*
G01*
X215850000Y-71075000D02*
X215850000Y-70925000D01*
G75*
G02*
X215925000Y-70850000I75000J0D01*
G01*
X217250000Y-70850000D01*
G75*
G02*
X217325000Y-70925000I0J-75000D01*
G01*
X217325000Y-71075000D01*
G75*
G02*
X217250000Y-71150000I-75000J0D01*
G01*
X215925000Y-71150000D01*
G75*
G02*
X215850000Y-71075000I0J75000D01*
G01*
G37*
G36*
G01*
X215850000Y-70575000D02*
X215850000Y-70425000D01*
G75*
G02*
X215925000Y-70350000I75000J0D01*
G01*
X217250000Y-70350000D01*
G75*
G02*
X217325000Y-70425000I0J-75000D01*
G01*
X217325000Y-70575000D01*
G75*
G02*
X217250000Y-70650000I-75000J0D01*
G01*
X215925000Y-70650000D01*
G75*
G02*
X215850000Y-70575000I0J75000D01*
G01*
G37*
G36*
G01*
X215850000Y-70075000D02*
X215850000Y-69925000D01*
G75*
G02*
X215925000Y-69850000I75000J0D01*
G01*
X217250000Y-69850000D01*
G75*
G02*
X217325000Y-69925000I0J-75000D01*
G01*
X217325000Y-70075000D01*
G75*
G02*
X217250000Y-70150000I-75000J0D01*
G01*
X215925000Y-70150000D01*
G75*
G02*
X215850000Y-70075000I0J75000D01*
G01*
G37*
G36*
G01*
X215850000Y-69575000D02*
X215850000Y-69425000D01*
G75*
G02*
X215925000Y-69350000I75000J0D01*
G01*
X217250000Y-69350000D01*
G75*
G02*
X217325000Y-69425000I0J-75000D01*
G01*
X217325000Y-69575000D01*
G75*
G02*
X217250000Y-69650000I-75000J0D01*
G01*
X215925000Y-69650000D01*
G75*
G02*
X215850000Y-69575000I0J75000D01*
G01*
G37*
G36*
G01*
X215850000Y-69075000D02*
X215850000Y-68925000D01*
G75*
G02*
X215925000Y-68850000I75000J0D01*
G01*
X217250000Y-68850000D01*
G75*
G02*
X217325000Y-68925000I0J-75000D01*
G01*
X217325000Y-69075000D01*
G75*
G02*
X217250000Y-69150000I-75000J0D01*
G01*
X215925000Y-69150000D01*
G75*
G02*
X215850000Y-69075000I0J75000D01*
G01*
G37*
G36*
G01*
X215850000Y-68575000D02*
X215850000Y-68425000D01*
G75*
G02*
X215925000Y-68350000I75000J0D01*
G01*
X217250000Y-68350000D01*
G75*
G02*
X217325000Y-68425000I0J-75000D01*
G01*
X217325000Y-68575000D01*
G75*
G02*
X217250000Y-68650000I-75000J0D01*
G01*
X215925000Y-68650000D01*
G75*
G02*
X215850000Y-68575000I0J75000D01*
G01*
G37*
G36*
G01*
X215850000Y-68075000D02*
X215850000Y-67925000D01*
G75*
G02*
X215925000Y-67850000I75000J0D01*
G01*
X217250000Y-67850000D01*
G75*
G02*
X217325000Y-67925000I0J-75000D01*
G01*
X217325000Y-68075000D01*
G75*
G02*
X217250000Y-68150000I-75000J0D01*
G01*
X215925000Y-68150000D01*
G75*
G02*
X215850000Y-68075000I0J75000D01*
G01*
G37*
G36*
G01*
X215850000Y-67575000D02*
X215850000Y-67425000D01*
G75*
G02*
X215925000Y-67350000I75000J0D01*
G01*
X217250000Y-67350000D01*
G75*
G02*
X217325000Y-67425000I0J-75000D01*
G01*
X217325000Y-67575000D01*
G75*
G02*
X217250000Y-67650000I-75000J0D01*
G01*
X215925000Y-67650000D01*
G75*
G02*
X215850000Y-67575000I0J75000D01*
G01*
G37*
%TD*%
D14*
%TO.C,U2*%
X174625000Y-100965000D03*
X197485000Y-108585000D03*
X177165000Y-100965000D03*
X194945000Y-108585000D03*
X179705000Y-100965000D03*
X192405000Y-108585000D03*
X182245000Y-100965000D03*
X189865000Y-108585000D03*
X184785000Y-100965000D03*
X187325000Y-108585000D03*
X187325000Y-100965000D03*
X184785000Y-108585000D03*
X189865000Y-100965000D03*
X182245000Y-108585000D03*
X192405000Y-100965000D03*
X179705000Y-108585000D03*
X194945000Y-100965000D03*
X177165000Y-108585000D03*
X197485000Y-100965000D03*
D15*
X174625000Y-108585000D03*
%TD*%
D14*
%TO.C,U5*%
X156845000Y-80645000D03*
X194945000Y-95885000D03*
X159385000Y-80645000D03*
X192405000Y-95885000D03*
X161925000Y-80645000D03*
X189865000Y-95885000D03*
X164465000Y-80645000D03*
X187325000Y-95885000D03*
X167005000Y-80645000D03*
X184785000Y-95885000D03*
X169545000Y-80645000D03*
X182245000Y-95885000D03*
X172085000Y-80645000D03*
X179705000Y-95885000D03*
X174625000Y-80645000D03*
X177165000Y-95885000D03*
X177165000Y-80645000D03*
X174625000Y-95885000D03*
X179705000Y-80645000D03*
X172085000Y-95885000D03*
X182245000Y-80645000D03*
X169545000Y-95885000D03*
X184785000Y-80645000D03*
X167005000Y-95885000D03*
X187325000Y-80645000D03*
X164465000Y-95885000D03*
X189865000Y-80645000D03*
X161925000Y-95885000D03*
X192405000Y-80645000D03*
X159385000Y-95885000D03*
X194945000Y-80645000D03*
D15*
X156845000Y-95885000D03*
%TD*%
D14*
%TO.C,U1*%
X156845000Y-60960000D03*
X194945000Y-76200000D03*
X159385000Y-60960000D03*
X192405000Y-76200000D03*
X161925000Y-60960000D03*
X189865000Y-76200000D03*
X164465000Y-60960000D03*
X187325000Y-76200000D03*
X167005000Y-60960000D03*
X184785000Y-76200000D03*
X169545000Y-60960000D03*
X182245000Y-76200000D03*
X172085000Y-60960000D03*
X179705000Y-76200000D03*
X174625000Y-60960000D03*
X177165000Y-76200000D03*
X177165000Y-60960000D03*
X174625000Y-76200000D03*
X179705000Y-60960000D03*
X172085000Y-76200000D03*
X182245000Y-60960000D03*
X169545000Y-76200000D03*
X184785000Y-60960000D03*
X167005000Y-76200000D03*
X187325000Y-60960000D03*
X164465000Y-76200000D03*
X189865000Y-60960000D03*
X161925000Y-76200000D03*
X192405000Y-60960000D03*
X159385000Y-76200000D03*
X194945000Y-60960000D03*
D15*
X156845000Y-76200000D03*
%TD*%
%TO.C,C13*%
G36*
G01*
X127240000Y-46010002D02*
X127240000Y-44159998D01*
G75*
G02*
X127489998Y-43910000I249998J0D01*
G01*
X128315002Y-43910000D01*
G75*
G02*
X128565000Y-44159998I0J-249998D01*
G01*
X128565000Y-46010002D01*
G75*
G02*
X128315002Y-46260000I-249998J0D01*
G01*
X127489998Y-46260000D01*
G75*
G02*
X127240000Y-46010002I0J249998D01*
G01*
G37*
G36*
G01*
X124165000Y-46010002D02*
X124165000Y-44159998D01*
G75*
G02*
X124414998Y-43910000I249998J0D01*
G01*
X125240002Y-43910000D01*
G75*
G02*
X125490000Y-44159998I0J-249998D01*
G01*
X125490000Y-46010002D01*
G75*
G02*
X125240002Y-46260000I-249998J0D01*
G01*
X124414998Y-46260000D01*
G75*
G02*
X124165000Y-46010002I0J249998D01*
G01*
G37*
%TD*%
D19*
%TO.C,H2*%
X228640000Y-24905000D03*
%TD*%
%TO.C,H1*%
X234990000Y-24905000D03*
%TD*%
%TO.C,H3*%
X129580000Y-24905000D03*
%TD*%
%TO.C,H4*%
X123230000Y-24905000D03*
%TD*%
D14*
%TO.C,SW1*%
X132080000Y-66675000D03*
X139700000Y-43815000D03*
X132080000Y-64135000D03*
X139700000Y-46355000D03*
X132080000Y-61595000D03*
X139700000Y-48895000D03*
X132080000Y-59055000D03*
X139700000Y-51435000D03*
X132080000Y-56515000D03*
X139700000Y-53975000D03*
X132080000Y-53975000D03*
X139700000Y-56515000D03*
X132080000Y-51435000D03*
X139700000Y-59055000D03*
X132080000Y-48895000D03*
X139700000Y-61595000D03*
X132080000Y-46355000D03*
X139700000Y-64135000D03*
X132080000Y-43815000D03*
D15*
X139700000Y-66675000D03*
%TD*%
D20*
%TO.C,H8*%
X139490740Y-24955000D03*
X164479260Y-24955000D03*
%TD*%
D21*
%TO.C,H5*%
X139412000Y-17905000D03*
%TD*%
%TO.C,H7*%
X230508000Y-17905000D03*
%TD*%
%TO.C,H6*%
X164558000Y-17905000D03*
%TD*%
%TO.C,C11*%
G36*
G01*
X199760000Y-75549999D02*
X199760000Y-76850001D01*
G75*
G02*
X199510001Y-77100000I-249999J0D01*
G01*
X198859999Y-77100000D01*
G75*
G02*
X198610000Y-76850001I0J249999D01*
G01*
X198610000Y-75549999D01*
G75*
G02*
X198859999Y-75300000I249999J0D01*
G01*
X199510001Y-75300000D01*
G75*
G02*
X199760000Y-75549999I0J-249999D01*
G01*
G37*
G36*
G01*
X202710000Y-75549999D02*
X202710000Y-76850001D01*
G75*
G02*
X202460001Y-77100000I-249999J0D01*
G01*
X201809999Y-77100000D01*
G75*
G02*
X201560000Y-76850001I0J249999D01*
G01*
X201560000Y-75549999D01*
G75*
G02*
X201809999Y-75300000I249999J0D01*
G01*
X202460001Y-75300000D01*
G75*
G02*
X202710000Y-75549999I0J-249999D01*
G01*
G37*
%TD*%
D15*
%TO.C,U9*%
X125095000Y-103505000D03*
D14*
X147955000Y-95885000D03*
X127635000Y-103505000D03*
X145415000Y-95885000D03*
X130175000Y-103505000D03*
X142875000Y-95885000D03*
X132715000Y-103505000D03*
X140335000Y-95885000D03*
X135255000Y-103505000D03*
X137795000Y-95885000D03*
X137795000Y-103505000D03*
X135255000Y-95885000D03*
X140335000Y-103505000D03*
X132715000Y-95885000D03*
X142875000Y-103505000D03*
X130175000Y-95885000D03*
X145415000Y-103505000D03*
X127635000Y-95885000D03*
X147955000Y-103505000D03*
X125095000Y-95885000D03*
%TD*%
%TO.C,U8*%
X125095000Y-76200000D03*
X147955000Y-83820000D03*
X127635000Y-76200000D03*
X145415000Y-83820000D03*
X130175000Y-76200000D03*
X142875000Y-83820000D03*
X132715000Y-76200000D03*
X140335000Y-83820000D03*
X135255000Y-76200000D03*
X137795000Y-83820000D03*
X137795000Y-76200000D03*
X135255000Y-83820000D03*
X140335000Y-76200000D03*
X132715000Y-83820000D03*
X142875000Y-76200000D03*
X130175000Y-83820000D03*
X145415000Y-76200000D03*
X127635000Y-83820000D03*
X147955000Y-76200000D03*
D15*
X125095000Y-83820000D03*
%TD*%
%TO.C,C10*%
G36*
G01*
X199760000Y-95349999D02*
X199760000Y-96650001D01*
G75*
G02*
X199510001Y-96900000I-249999J0D01*
G01*
X198859999Y-96900000D01*
G75*
G02*
X198610000Y-96650001I0J249999D01*
G01*
X198610000Y-95349999D01*
G75*
G02*
X198859999Y-95100000I249999J0D01*
G01*
X199510001Y-95100000D01*
G75*
G02*
X199760000Y-95349999I0J-249999D01*
G01*
G37*
G36*
G01*
X202710000Y-95349999D02*
X202710000Y-96650001D01*
G75*
G02*
X202460001Y-96900000I-249999J0D01*
G01*
X201809999Y-96900000D01*
G75*
G02*
X201560000Y-96650001I0J249999D01*
G01*
X201560000Y-95349999D01*
G75*
G02*
X201809999Y-95100000I249999J0D01*
G01*
X202460001Y-95100000D01*
G75*
G02*
X202710000Y-95349999I0J-249999D01*
G01*
G37*
%TD*%
%TO.C,C15*%
G36*
G01*
X225030000Y-119670002D02*
X225030000Y-117819998D01*
G75*
G02*
X225279998Y-117570000I249998J0D01*
G01*
X226105002Y-117570000D01*
G75*
G02*
X226355000Y-117819998I0J-249998D01*
G01*
X226355000Y-119670002D01*
G75*
G02*
X226105002Y-119920000I-249998J0D01*
G01*
X225279998Y-119920000D01*
G75*
G02*
X225030000Y-119670002I0J249998D01*
G01*
G37*
G36*
G01*
X221955000Y-119670002D02*
X221955000Y-117819998D01*
G75*
G02*
X222204998Y-117570000I249998J0D01*
G01*
X223030002Y-117570000D01*
G75*
G02*
X223280000Y-117819998I0J-249998D01*
G01*
X223280000Y-119670002D01*
G75*
G02*
X223030002Y-119920000I-249998J0D01*
G01*
X222204998Y-119920000D01*
G75*
G02*
X221955000Y-119670002I0J249998D01*
G01*
G37*
%TD*%
%TO.C,C14*%
G36*
G01*
X225030000Y-115225002D02*
X225030000Y-113374998D01*
G75*
G02*
X225279998Y-113125000I249998J0D01*
G01*
X226105002Y-113125000D01*
G75*
G02*
X226355000Y-113374998I0J-249998D01*
G01*
X226355000Y-115225002D01*
G75*
G02*
X226105002Y-115475000I-249998J0D01*
G01*
X225279998Y-115475000D01*
G75*
G02*
X225030000Y-115225002I0J249998D01*
G01*
G37*
G36*
G01*
X221955000Y-115225002D02*
X221955000Y-113374998D01*
G75*
G02*
X222204998Y-113125000I249998J0D01*
G01*
X223030002Y-113125000D01*
G75*
G02*
X223280000Y-113374998I0J-249998D01*
G01*
X223280000Y-115225002D01*
G75*
G02*
X223030002Y-115475000I-249998J0D01*
G01*
X222204998Y-115475000D01*
G75*
G02*
X221955000Y-115225002I0J249998D01*
G01*
G37*
%TD*%
D22*
%TO.C,J1*%
X204540000Y-56000000D03*
D23*
X206540000Y-56000000D03*
X204540000Y-58000000D03*
X206540000Y-58000000D03*
X204540000Y-60000000D03*
X206540000Y-60000000D03*
X204540000Y-62000000D03*
X206540000Y-62000000D03*
X204540000Y-64000000D03*
X206540000Y-64000000D03*
X204540000Y-66000000D03*
X206540000Y-66000000D03*
X204540000Y-68000000D03*
X206540000Y-68000000D03*
X204540000Y-70000000D03*
X206540000Y-70000000D03*
X204540000Y-72000000D03*
X206540000Y-72000000D03*
X204540000Y-74000000D03*
X206540000Y-74000000D03*
X204540000Y-76000000D03*
X206540000Y-76000000D03*
X204540000Y-78000000D03*
X206540000Y-78000000D03*
X204540000Y-80000000D03*
X206540000Y-80000000D03*
X204540000Y-82000000D03*
X206540000Y-82000000D03*
X204540000Y-84000000D03*
X206540000Y-84000000D03*
X204540000Y-86000000D03*
X206540000Y-86000000D03*
X204540000Y-88000000D03*
X206540000Y-88000000D03*
X204540000Y-90000000D03*
X206540000Y-90000000D03*
X204540000Y-92000000D03*
X206540000Y-92000000D03*
X204540000Y-94000000D03*
X206540000Y-94000000D03*
X204540000Y-96000000D03*
X206540000Y-96000000D03*
X204540000Y-98000000D03*
X206540000Y-98000000D03*
%TD*%
D24*
%TO.C,Y1*%
X172720000Y-53335000D03*
X172720000Y-51435000D03*
%TD*%
%TO.C,R7*%
G36*
G01*
X127265000Y-52060002D02*
X127265000Y-50809998D01*
G75*
G02*
X127514998Y-50560000I249998J0D01*
G01*
X128140002Y-50560000D01*
G75*
G02*
X128390000Y-50809998I0J-249998D01*
G01*
X128390000Y-52060002D01*
G75*
G02*
X128140002Y-52310000I-249998J0D01*
G01*
X127514998Y-52310000D01*
G75*
G02*
X127265000Y-52060002I0J249998D01*
G01*
G37*
G36*
G01*
X124340000Y-52060002D02*
X124340000Y-50809998D01*
G75*
G02*
X124589998Y-50560000I249998J0D01*
G01*
X125215002Y-50560000D01*
G75*
G02*
X125465000Y-50809998I0J-249998D01*
G01*
X125465000Y-52060002D01*
G75*
G02*
X125215002Y-52310000I-249998J0D01*
G01*
X124589998Y-52310000D01*
G75*
G02*
X124340000Y-52060002I0J249998D01*
G01*
G37*
%TD*%
%TO.C,R6*%
G36*
G01*
X127265000Y-54600002D02*
X127265000Y-53349998D01*
G75*
G02*
X127514998Y-53100000I249998J0D01*
G01*
X128140002Y-53100000D01*
G75*
G02*
X128390000Y-53349998I0J-249998D01*
G01*
X128390000Y-54600002D01*
G75*
G02*
X128140002Y-54850000I-249998J0D01*
G01*
X127514998Y-54850000D01*
G75*
G02*
X127265000Y-54600002I0J249998D01*
G01*
G37*
G36*
G01*
X124340000Y-54600002D02*
X124340000Y-53349998D01*
G75*
G02*
X124589998Y-53100000I249998J0D01*
G01*
X125215002Y-53100000D01*
G75*
G02*
X125465000Y-53349998I0J-249998D01*
G01*
X125465000Y-54600002D01*
G75*
G02*
X125215002Y-54850000I-249998J0D01*
G01*
X124589998Y-54850000D01*
G75*
G02*
X124340000Y-54600002I0J249998D01*
G01*
G37*
%TD*%
%TO.C,R5*%
G36*
G01*
X127265000Y-57140002D02*
X127265000Y-55889998D01*
G75*
G02*
X127514998Y-55640000I249998J0D01*
G01*
X128140002Y-55640000D01*
G75*
G02*
X128390000Y-55889998I0J-249998D01*
G01*
X128390000Y-57140002D01*
G75*
G02*
X128140002Y-57390000I-249998J0D01*
G01*
X127514998Y-57390000D01*
G75*
G02*
X127265000Y-57140002I0J249998D01*
G01*
G37*
G36*
G01*
X124340000Y-57140002D02*
X124340000Y-55889998D01*
G75*
G02*
X124589998Y-55640000I249998J0D01*
G01*
X125215002Y-55640000D01*
G75*
G02*
X125465000Y-55889998I0J-249998D01*
G01*
X125465000Y-57140002D01*
G75*
G02*
X125215002Y-57390000I-249998J0D01*
G01*
X124589998Y-57390000D01*
G75*
G02*
X124340000Y-57140002I0J249998D01*
G01*
G37*
%TD*%
%TO.C,R4*%
G36*
G01*
X127265000Y-59680002D02*
X127265000Y-58429998D01*
G75*
G02*
X127514998Y-58180000I249998J0D01*
G01*
X128140002Y-58180000D01*
G75*
G02*
X128390000Y-58429998I0J-249998D01*
G01*
X128390000Y-59680002D01*
G75*
G02*
X128140002Y-59930000I-249998J0D01*
G01*
X127514998Y-59930000D01*
G75*
G02*
X127265000Y-59680002I0J249998D01*
G01*
G37*
G36*
G01*
X124340000Y-59680002D02*
X124340000Y-58429998D01*
G75*
G02*
X124589998Y-58180000I249998J0D01*
G01*
X125215002Y-58180000D01*
G75*
G02*
X125465000Y-58429998I0J-249998D01*
G01*
X125465000Y-59680002D01*
G75*
G02*
X125215002Y-59930000I-249998J0D01*
G01*
X124589998Y-59930000D01*
G75*
G02*
X124340000Y-59680002I0J249998D01*
G01*
G37*
%TD*%
%TO.C,R3*%
G36*
G01*
X127265000Y-62220002D02*
X127265000Y-60969998D01*
G75*
G02*
X127514998Y-60720000I249998J0D01*
G01*
X128140002Y-60720000D01*
G75*
G02*
X128390000Y-60969998I0J-249998D01*
G01*
X128390000Y-62220002D01*
G75*
G02*
X128140002Y-62470000I-249998J0D01*
G01*
X127514998Y-62470000D01*
G75*
G02*
X127265000Y-62220002I0J249998D01*
G01*
G37*
G36*
G01*
X124340000Y-62220002D02*
X124340000Y-60969998D01*
G75*
G02*
X124589998Y-60720000I249998J0D01*
G01*
X125215002Y-60720000D01*
G75*
G02*
X125465000Y-60969998I0J-249998D01*
G01*
X125465000Y-62220002D01*
G75*
G02*
X125215002Y-62470000I-249998J0D01*
G01*
X124589998Y-62470000D01*
G75*
G02*
X124340000Y-62220002I0J249998D01*
G01*
G37*
%TD*%
%TO.C,R2*%
G36*
G01*
X127265000Y-64760002D02*
X127265000Y-63509998D01*
G75*
G02*
X127514998Y-63260000I249998J0D01*
G01*
X128140002Y-63260000D01*
G75*
G02*
X128390000Y-63509998I0J-249998D01*
G01*
X128390000Y-64760002D01*
G75*
G02*
X128140002Y-65010000I-249998J0D01*
G01*
X127514998Y-65010000D01*
G75*
G02*
X127265000Y-64760002I0J249998D01*
G01*
G37*
G36*
G01*
X124340000Y-64760002D02*
X124340000Y-63509998D01*
G75*
G02*
X124589998Y-63260000I249998J0D01*
G01*
X125215002Y-63260000D01*
G75*
G02*
X125465000Y-63509998I0J-249998D01*
G01*
X125465000Y-64760002D01*
G75*
G02*
X125215002Y-65010000I-249998J0D01*
G01*
X124589998Y-65010000D01*
G75*
G02*
X124340000Y-64760002I0J249998D01*
G01*
G37*
%TD*%
%TO.C,R1*%
G36*
G01*
X127265000Y-67300002D02*
X127265000Y-66049998D01*
G75*
G02*
X127514998Y-65800000I249998J0D01*
G01*
X128140002Y-65800000D01*
G75*
G02*
X128390000Y-66049998I0J-249998D01*
G01*
X128390000Y-67300002D01*
G75*
G02*
X128140002Y-67550000I-249998J0D01*
G01*
X127514998Y-67550000D01*
G75*
G02*
X127265000Y-67300002I0J249998D01*
G01*
G37*
G36*
G01*
X124340000Y-67300002D02*
X124340000Y-66049998D01*
G75*
G02*
X124589998Y-65800000I249998J0D01*
G01*
X125215002Y-65800000D01*
G75*
G02*
X125465000Y-66049998I0J-249998D01*
G01*
X125465000Y-67300002D01*
G75*
G02*
X125215002Y-67550000I-249998J0D01*
G01*
X124589998Y-67550000D01*
G75*
G02*
X124340000Y-67300002I0J249998D01*
G01*
G37*
%TD*%
%TO.C,C12*%
G36*
G01*
X225030000Y-125385002D02*
X225030000Y-123534998D01*
G75*
G02*
X225279998Y-123285000I249998J0D01*
G01*
X226105002Y-123285000D01*
G75*
G02*
X226355000Y-123534998I0J-249998D01*
G01*
X226355000Y-125385002D01*
G75*
G02*
X226105002Y-125635000I-249998J0D01*
G01*
X225279998Y-125635000D01*
G75*
G02*
X225030000Y-125385002I0J249998D01*
G01*
G37*
G36*
G01*
X221955000Y-125385002D02*
X221955000Y-123534998D01*
G75*
G02*
X222204998Y-123285000I249998J0D01*
G01*
X223030002Y-123285000D01*
G75*
G02*
X223280000Y-123534998I0J-249998D01*
G01*
X223280000Y-125385002D01*
G75*
G02*
X223030002Y-125635000I-249998J0D01*
G01*
X222204998Y-125635000D01*
G75*
G02*
X221955000Y-125385002I0J249998D01*
G01*
G37*
%TD*%
%TO.C,C9*%
G36*
G01*
X125745001Y-90540000D02*
X124444999Y-90540000D01*
G75*
G02*
X124195000Y-90290001I0J249999D01*
G01*
X124195000Y-89639999D01*
G75*
G02*
X124444999Y-89390000I249999J0D01*
G01*
X125745001Y-89390000D01*
G75*
G02*
X125995000Y-89639999I0J-249999D01*
G01*
X125995000Y-90290001D01*
G75*
G02*
X125745001Y-90540000I-249999J0D01*
G01*
G37*
G36*
G01*
X125745001Y-93490000D02*
X124444999Y-93490000D01*
G75*
G02*
X124195000Y-93240001I0J249999D01*
G01*
X124195000Y-92589999D01*
G75*
G02*
X124444999Y-92340000I249999J0D01*
G01*
X125745001Y-92340000D01*
G75*
G02*
X125995000Y-92589999I0J-249999D01*
G01*
X125995000Y-93240001D01*
G75*
G02*
X125745001Y-93490000I-249999J0D01*
G01*
G37*
%TD*%
%TO.C,C8*%
G36*
G01*
X125745001Y-70855000D02*
X124444999Y-70855000D01*
G75*
G02*
X124195000Y-70605001I0J249999D01*
G01*
X124195000Y-69954999D01*
G75*
G02*
X124444999Y-69705000I249999J0D01*
G01*
X125745001Y-69705000D01*
G75*
G02*
X125995000Y-69954999I0J-249999D01*
G01*
X125995000Y-70605001D01*
G75*
G02*
X125745001Y-70855000I-249999J0D01*
G01*
G37*
G36*
G01*
X125745001Y-73805000D02*
X124444999Y-73805000D01*
G75*
G02*
X124195000Y-73555001I0J249999D01*
G01*
X124195000Y-72904999D01*
G75*
G02*
X124444999Y-72655000I249999J0D01*
G01*
X125745001Y-72655000D01*
G75*
G02*
X125995000Y-72904999I0J-249999D01*
G01*
X125995000Y-73555001D01*
G75*
G02*
X125745001Y-73805000I-249999J0D01*
G01*
G37*
%TD*%
%TO.C,C7*%
G36*
G01*
X238050001Y-84850000D02*
X236749999Y-84850000D01*
G75*
G02*
X236500000Y-84600001I0J249999D01*
G01*
X236500000Y-83949999D01*
G75*
G02*
X236749999Y-83700000I249999J0D01*
G01*
X238050001Y-83700000D01*
G75*
G02*
X238300000Y-83949999I0J-249999D01*
G01*
X238300000Y-84600001D01*
G75*
G02*
X238050001Y-84850000I-249999J0D01*
G01*
G37*
G36*
G01*
X238050001Y-87800000D02*
X236749999Y-87800000D01*
G75*
G02*
X236500000Y-87550001I0J249999D01*
G01*
X236500000Y-86899999D01*
G75*
G02*
X236749999Y-86650000I249999J0D01*
G01*
X238050001Y-86650000D01*
G75*
G02*
X238300000Y-86899999I0J-249999D01*
G01*
X238300000Y-87550001D01*
G75*
G02*
X238050001Y-87800000I-249999J0D01*
G01*
G37*
%TD*%
%TO.C,C6*%
G36*
G01*
X215350000Y-60599999D02*
X215350000Y-61900001D01*
G75*
G02*
X215100001Y-62150000I-249999J0D01*
G01*
X214449999Y-62150000D01*
G75*
G02*
X214200000Y-61900001I0J249999D01*
G01*
X214200000Y-60599999D01*
G75*
G02*
X214449999Y-60350000I249999J0D01*
G01*
X215100001Y-60350000D01*
G75*
G02*
X215350000Y-60599999I0J-249999D01*
G01*
G37*
G36*
G01*
X218300000Y-60599999D02*
X218300000Y-61900001D01*
G75*
G02*
X218050001Y-62150000I-249999J0D01*
G01*
X217399999Y-62150000D01*
G75*
G02*
X217150000Y-61900001I0J249999D01*
G01*
X217150000Y-60599999D01*
G75*
G02*
X217399999Y-60350000I249999J0D01*
G01*
X218050001Y-60350000D01*
G75*
G02*
X218300000Y-60599999I0J-249999D01*
G01*
G37*
%TD*%
%TO.C,C1*%
G36*
G01*
X151500000Y-60309999D02*
X151500000Y-61610001D01*
G75*
G02*
X151250001Y-61860000I-249999J0D01*
G01*
X150599999Y-61860000D01*
G75*
G02*
X150350000Y-61610001I0J249999D01*
G01*
X150350000Y-60309999D01*
G75*
G02*
X150599999Y-60060000I249999J0D01*
G01*
X151250001Y-60060000D01*
G75*
G02*
X151500000Y-60309999I0J-249999D01*
G01*
G37*
G36*
G01*
X154450000Y-60309999D02*
X154450000Y-61610001D01*
G75*
G02*
X154200001Y-61860000I-249999J0D01*
G01*
X153549999Y-61860000D01*
G75*
G02*
X153300000Y-61610001I0J249999D01*
G01*
X153300000Y-60309999D01*
G75*
G02*
X153549999Y-60060000I249999J0D01*
G01*
X154200001Y-60060000D01*
G75*
G02*
X154450000Y-60309999I0J-249999D01*
G01*
G37*
%TD*%
%TO.C,C4*%
G36*
G01*
X170550000Y-43164999D02*
X170550000Y-44465001D01*
G75*
G02*
X170300001Y-44715000I-249999J0D01*
G01*
X169649999Y-44715000D01*
G75*
G02*
X169400000Y-44465001I0J249999D01*
G01*
X169400000Y-43164999D01*
G75*
G02*
X169649999Y-42915000I249999J0D01*
G01*
X170300001Y-42915000D01*
G75*
G02*
X170550000Y-43164999I0J-249999D01*
G01*
G37*
G36*
G01*
X173500000Y-43164999D02*
X173500000Y-44465001D01*
G75*
G02*
X173250001Y-44715000I-249999J0D01*
G01*
X172599999Y-44715000D01*
G75*
G02*
X172350000Y-44465001I0J249999D01*
G01*
X172350000Y-43164999D01*
G75*
G02*
X172599999Y-42915000I249999J0D01*
G01*
X173250001Y-42915000D01*
G75*
G02*
X173500000Y-43164999I0J-249999D01*
G01*
G37*
%TD*%
%TO.C,C3*%
G36*
G01*
X216900001Y-78100000D02*
X215599999Y-78100000D01*
G75*
G02*
X215350000Y-77850001I0J249999D01*
G01*
X215350000Y-77199999D01*
G75*
G02*
X215599999Y-76950000I249999J0D01*
G01*
X216900001Y-76950000D01*
G75*
G02*
X217150000Y-77199999I0J-249999D01*
G01*
X217150000Y-77850001D01*
G75*
G02*
X216900001Y-78100000I-249999J0D01*
G01*
G37*
G36*
G01*
X216900001Y-81050000D02*
X215599999Y-81050000D01*
G75*
G02*
X215350000Y-80800001I0J249999D01*
G01*
X215350000Y-80149999D01*
G75*
G02*
X215599999Y-79900000I249999J0D01*
G01*
X216900001Y-79900000D01*
G75*
G02*
X217150000Y-80149999I0J-249999D01*
G01*
X217150000Y-80800001D01*
G75*
G02*
X216900001Y-81050000I-249999J0D01*
G01*
G37*
%TD*%
%TO.C,C2*%
G36*
G01*
X170799999Y-103340000D02*
X172100001Y-103340000D01*
G75*
G02*
X172350000Y-103589999I0J-249999D01*
G01*
X172350000Y-104240001D01*
G75*
G02*
X172100001Y-104490000I-249999J0D01*
G01*
X170799999Y-104490000D01*
G75*
G02*
X170550000Y-104240001I0J249999D01*
G01*
X170550000Y-103589999D01*
G75*
G02*
X170799999Y-103340000I249999J0D01*
G01*
G37*
G36*
G01*
X170799999Y-100390000D02*
X172100001Y-100390000D01*
G75*
G02*
X172350000Y-100639999I0J-249999D01*
G01*
X172350000Y-101290001D01*
G75*
G02*
X172100001Y-101540000I-249999J0D01*
G01*
X170799999Y-101540000D01*
G75*
G02*
X170550000Y-101290001I0J249999D01*
G01*
X170550000Y-100639999D01*
G75*
G02*
X170799999Y-100390000I249999J0D01*
G01*
G37*
%TD*%
%TO.C,C5*%
G36*
G01*
X151500000Y-79994999D02*
X151500000Y-81295001D01*
G75*
G02*
X151250001Y-81545000I-249999J0D01*
G01*
X150599999Y-81545000D01*
G75*
G02*
X150350000Y-81295001I0J249999D01*
G01*
X150350000Y-79994999D01*
G75*
G02*
X150599999Y-79745000I249999J0D01*
G01*
X151250001Y-79745000D01*
G75*
G02*
X151500000Y-79994999I0J-249999D01*
G01*
G37*
G36*
G01*
X154450000Y-79994999D02*
X154450000Y-81295001D01*
G75*
G02*
X154200001Y-81545000I-249999J0D01*
G01*
X153549999Y-81545000D01*
G75*
G02*
X153300000Y-81295001I0J249999D01*
G01*
X153300000Y-79994999D01*
G75*
G02*
X153549999Y-79745000I249999J0D01*
G01*
X154200001Y-79745000D01*
G75*
G02*
X154450000Y-79994999I0J-249999D01*
G01*
G37*
%TD*%
D25*
%TO.C,BAT1*%
X210140000Y-50165000D03*
X239440000Y-50165000D03*
%TD*%
D12*
%TO.C,J3*%
X142240000Y-121920000D03*
X142240000Y-124460000D03*
X144780000Y-121920000D03*
X144780000Y-124460000D03*
X147320000Y-121920000D03*
X147320000Y-124460000D03*
X149860000Y-121920000D03*
X149860000Y-124460000D03*
X152400000Y-121920000D03*
X152400000Y-124460000D03*
X154940000Y-121920000D03*
X154940000Y-124460000D03*
X157480000Y-121920000D03*
X157480000Y-124460000D03*
X160020000Y-121920000D03*
X160020000Y-124460000D03*
X162560000Y-121920000D03*
X162560000Y-124460000D03*
X165100000Y-121920000D03*
X165100000Y-124460000D03*
X167640000Y-121920000D03*
X167640000Y-124460000D03*
X170180000Y-121920000D03*
X170180000Y-124460000D03*
X172720000Y-121920000D03*
X172720000Y-124460000D03*
X175260000Y-121920000D03*
X175260000Y-124460000D03*
X177800000Y-121920000D03*
X177800000Y-124460000D03*
X180340000Y-121920000D03*
X180340000Y-124460000D03*
X182880000Y-121920000D03*
X182880000Y-124460000D03*
X185420000Y-121920000D03*
X185420000Y-124460000D03*
X187960000Y-121920000D03*
X187960000Y-124460000D03*
X190500000Y-121920000D03*
X190500000Y-124460000D03*
X193040000Y-121920000D03*
X193040000Y-124460000D03*
X195580000Y-121920000D03*
X195580000Y-124460000D03*
X198120000Y-121920000D03*
X198120000Y-124460000D03*
X200660000Y-121920000D03*
X200660000Y-124460000D03*
X203200000Y-121920000D03*
X203200000Y-124460000D03*
X205740000Y-121920000D03*
X205740000Y-124460000D03*
X208280000Y-121920000D03*
X208280000Y-124460000D03*
X210820000Y-121920000D03*
X210820000Y-124460000D03*
X213360000Y-121920000D03*
X213360000Y-124460000D03*
X215900000Y-121920000D03*
X215900000Y-124460000D03*
X218440000Y-121920000D03*
D13*
X218440000Y-124460000D03*
%TD*%
M02*
