M48
; DRILL file {KiCad (5.1.9)-1} date 09/14/21 13:38:28
; FORMAT={-:-/ absolute / metric / decimal}
; #@! TF.CreationDate,2021-09-14T13:38:28+08:00
; #@! TF.GenerationSoftware,Kicad,Pcbnew,(5.1.9)-1
FMAT,2
METRIC
T1C0.400
T2C0.600
T3C0.800
T4C1.000
T5C3.000
T6C1.200
%
G90
G05
T1
X104.775Y-86.614
X108.585Y-87.122
X109.22Y-130.81
X111.125Y-87.122
X112.141Y-103.886
X112.649Y-130.556
X115.57Y-133.35
X116.205Y-90.424
X118.745Y-90.424
X120.015Y-51.435
X120.65Y-133.35
X121.285Y-52.705
X121.285Y-79.027
X122.557Y-53.342
X125.095Y-107.95
X126.365Y-87.63
X127.0Y-133.35
X127.635Y-107.315
X127.889Y-103.886
X128.905Y-75.438
X129.54Y-132.08
X131.036Y-115.471
X132.461Y-112.268
X132.715Y-83.566
X132.715Y-86.36
X133.477Y-115.062
X133.985Y-111.252
X135.89Y-133.35
X136.017Y-115.062
X136.525Y-107.188
X138.43Y-133.35
X138.557Y-116.078
X140.97Y-133.35
X143.51Y-133.35
X144.78Y-117.094
X146.05Y-99.06
X146.05Y-133.35
X147.193Y-82.296
X147.22Y-118.11
X148.59Y-133.35
X149.225Y-106.426
X149.479Y-111.252
X150.241Y-107.696
X151.257Y-101.092
X160.655Y-61.722
X160.655Y-83.312
X161.925Y-62.738
X163.195Y-84.328
X164.719Y-91.186
X164.719Y-105.41
X166.37Y-133.35
X166.751Y-91.186
X168.275Y-63.754
X171.45Y-64.77
X172.085Y-75.184
X172.72Y-131.445
X173.355Y-91.186
X174.371Y-51.562
X174.625Y-65.786
X174.625Y-76.2
X175.641Y-104.394
X176.53Y-66.802
X177.165Y-77.216
X178.435Y-67.818
X179.705Y-78.232
X180.721Y-68.834
X182.245Y-79.248
T2
X98.425Y-43.815
X100.33Y-43.815
X100.965Y-55.245
X100.965Y-63.5
X100.965Y-96.52
X100.965Y-101.6
X100.965Y-108.585
X100.965Y-113.03
X100.965Y-120.65
X101.346Y-76.2
X102.235Y-66.675
X102.235Y-69.596
X102.235Y-99.06
X102.235Y-127.635
X102.235Y-129.54
X102.87Y-76.2
X102.87Y-113.03
X102.87Y-120.65
X103.505Y-99.06
X104.14Y-68.121
X104.14Y-96.52
X104.775Y-108.585
X106.68Y-84.455
X107.95Y-92.456
X107.95Y-96.52
X109.855Y-46.99
X109.855Y-50.8
X110.49Y-80.645
X113.665Y-50.8
X113.665Y-82.55
X114.3Y-46.99
X114.3Y-76.2
X114.935Y-70.485
X116.205Y-94.615
X116.205Y-97.536
X116.459Y-111.252
X116.459Y-115.57
X116.459Y-120.65
X116.459Y-125.73
X116.84Y-92.456
X117.475Y-50.8
X118.11Y-60.325
X118.11Y-67.945
X118.745Y-46.99
X120.65Y-82.55
X122.555Y-91.44
X122.555Y-97.79
X123.063Y-115.57
X123.063Y-120.65
X123.063Y-125.73
X123.19Y-63.5
X123.19Y-70.485
X125.095Y-91.44
X125.095Y-97.79
X127.635Y-91.44
X127.635Y-97.79
X129.667Y-117.094
X129.667Y-120.65
X129.667Y-125.73
X130.175Y-91.44
X130.175Y-97.155
X132.715Y-91.44
X132.715Y-97.155
X133.35Y-130.81
X133.35Y-132.715
X135.255Y-91.44
X135.255Y-97.155
X137.795Y-91.44
X138.303Y-80.264
X138.43Y-97.155
X141.605Y-109.474
X142.24Y-117.475
X142.24Y-120.65
X143.51Y-88.9
X143.51Y-125.73
X144.145Y-97.155
X144.145Y-109.474
X145.415Y-80.645
X146.685Y-71.12
X146.685Y-78.74
X151.511Y-120.65
X151.511Y-125.73
X151.511Y-130.81
X151.765Y-132.715
X152.019Y-110.49
X153.67Y-71.12
X153.67Y-78.74
X153.67Y-81.28
X153.797Y-90.678
X153.797Y-97.536
X153.797Y-107.95
X153.797Y-110.49
X153.797Y-119.634
X154.305Y-123.19
X154.305Y-131.445
X155.575Y-123.19
X155.575Y-131.445
X156.083Y-120.65
X157.48Y-78.74
X158.75Y-126.365
X158.75Y-128.27
X158.877Y-91.694
X159.385Y-71.12
X159.385Y-94.615
X159.385Y-97.536
X161.29Y-78.74
X161.925Y-71.12
X164.465Y-71.12
X164.465Y-78.74
X167.005Y-71.12
X167.005Y-78.74
X172.72Y-53.34
X174.625Y-63.5
X175.26Y-120.015
X176.53Y-130.81
X177.165Y-44.45
X177.165Y-49.53
X177.165Y-53.34
X177.165Y-128.27
X178.435Y-65.405
X178.435Y-126.365
X178.435Y-130.81
X179.705Y-124.46
X179.705Y-128.27
X180.34Y-130.81
X181.61Y-126.365
X182.245Y-67.31
X183.515Y-54.61
X184.785Y-60.96
X184.785Y-72.39
X186.055Y-97.79
X186.055Y-106.045
X187.96Y-44.45
X188.595Y-60.96
X194.31Y-47.625
X194.31Y-57.15
T3
X102.235Y-73.66
X102.235Y-88.9
X104.775Y-73.66
X104.775Y-88.9
X107.315Y-73.66
X107.315Y-88.9
X109.855Y-73.66
X109.855Y-88.9
X112.395Y-73.66
X112.395Y-88.9
X114.935Y-73.66
X114.935Y-88.9
X116.205Y-101.6
X116.205Y-109.22
X117.475Y-73.66
X117.475Y-88.9
X118.745Y-101.6
X118.745Y-109.22
X120.015Y-73.66
X120.015Y-88.9
X121.285Y-101.6
X121.285Y-109.22
X122.555Y-73.66
X122.555Y-88.9
X123.825Y-101.6
X123.825Y-109.22
X125.095Y-73.66
X125.095Y-88.9
X126.365Y-101.6
X126.365Y-109.22
X127.635Y-73.66
X127.635Y-88.9
X128.905Y-101.6
X128.905Y-109.22
X130.175Y-73.66
X130.175Y-88.9
X131.445Y-101.6
X131.445Y-109.22
X132.715Y-73.66
X132.715Y-88.9
X133.985Y-101.6
X133.985Y-109.22
X135.255Y-73.66
X135.255Y-88.9
X136.525Y-101.6
X136.525Y-109.22
X137.795Y-73.66
X137.795Y-88.9
X139.065Y-101.6
X139.065Y-109.22
X140.335Y-73.66
X140.335Y-88.9
X159.385Y-81.28
X159.385Y-88.9
X159.385Y-101.6
X159.385Y-109.22
X161.925Y-81.28
X161.925Y-88.9
X161.925Y-101.6
X161.925Y-109.22
X164.465Y-81.28
X164.465Y-88.9
X164.465Y-101.6
X164.465Y-109.22
X167.005Y-81.28
X167.005Y-88.9
X167.005Y-101.6
X167.005Y-109.22
X169.545Y-81.28
X169.545Y-88.9
X169.545Y-101.6
X169.545Y-109.22
X172.085Y-81.28
X172.085Y-88.9
X172.085Y-101.6
X172.085Y-109.22
X174.625Y-81.28
X174.625Y-88.9
X174.625Y-101.6
X174.625Y-109.22
X177.165Y-81.28
X177.165Y-88.9
X177.165Y-101.6
X177.165Y-109.22
X179.705Y-81.28
X179.705Y-88.9
X179.705Y-101.6
X179.705Y-109.22
X182.245Y-81.28
X182.245Y-88.9
X182.245Y-101.6
X182.245Y-109.22
T4
X102.235Y-103.505
X102.235Y-106.045
X104.14Y-46.355
X104.14Y-48.895
X104.14Y-51.435
X104.775Y-103.505
X104.775Y-106.045
X106.68Y-46.355
X106.68Y-48.895
X106.68Y-51.435
X107.315Y-103.505
X107.315Y-106.045
X107.95Y-110.49
X107.95Y-113.03
X107.95Y-115.57
X107.95Y-118.11
X107.95Y-120.65
X107.95Y-123.19
X123.825Y-46.99
X123.825Y-49.53
X123.825Y-57.785
X123.825Y-60.325
X126.365Y-46.99
X126.365Y-49.53
X126.365Y-57.785
X126.365Y-60.325
X128.905Y-46.99
X128.905Y-49.53
X128.905Y-57.785
X128.905Y-60.325
X131.445Y-46.99
X131.445Y-49.53
X131.445Y-57.785
X131.445Y-60.325
X133.985Y-46.99
X133.985Y-49.53
X133.985Y-57.785
X133.985Y-60.325
X136.525Y-46.99
X136.525Y-49.53
X136.525Y-57.785
X136.525Y-60.325
X139.065Y-46.99
X139.065Y-49.53
X139.065Y-57.785
X139.065Y-60.325
X141.605Y-46.99
X141.605Y-49.53
X141.605Y-57.785
X141.605Y-60.325
X144.145Y-46.99
X144.145Y-49.53
X144.145Y-57.785
X144.145Y-60.325
X146.685Y-49.53
X146.685Y-60.325
X149.225Y-46.99
X149.225Y-49.53
X149.225Y-57.785
X149.225Y-60.325
X151.765Y-46.99
X151.765Y-49.53
X151.765Y-57.785
X151.765Y-60.325
X154.305Y-46.99
X154.305Y-49.53
X154.305Y-57.785
X154.305Y-60.325
X156.845Y-46.99
X156.845Y-49.53
X156.845Y-57.785
X156.845Y-60.325
X159.385Y-46.99
X159.385Y-49.53
X159.385Y-57.785
X159.385Y-60.325
X161.925Y-46.99
X161.925Y-49.53
X161.925Y-57.785
X161.925Y-60.325
X164.465Y-46.99
X164.465Y-49.53
X164.465Y-57.785
X164.465Y-60.325
X167.005Y-46.99
X167.005Y-49.53
X167.005Y-57.785
X167.005Y-60.325
X169.545Y-46.99
X169.545Y-49.53
X169.545Y-57.785
X169.545Y-60.325
X172.085Y-46.99
X172.085Y-49.53
X172.085Y-57.785
X172.085Y-60.325
X188.595Y-100.33
X188.595Y-102.87
X191.135Y-100.33
X191.135Y-102.87
X193.675Y-100.33
X193.675Y-102.87
T5
X192.383Y-73.67
X192.405Y-130.19
T6
X146.685Y-46.99
X146.685Y-57.785
T0
M30
