%TF.GenerationSoftware,KiCad,Pcbnew,(5.1.9)-1*%
%TF.CreationDate,2021-09-14T13:38:25+08:00*%
%TF.ProjectId,XTA-Interface,5854412d-496e-4746-9572-666163652e6b,rev?*%
%TF.SameCoordinates,Original*%
%TF.FileFunction,Soldermask,Bot*%
%TF.FilePolarity,Negative*%
%FSLAX46Y46*%
G04 Gerber Fmt 4.6, Leading zero omitted, Abs format (unit mm)*
G04 Created by KiCad (PCBNEW (5.1.9)-1) date 2021-09-14 13:38:25*
%MOMM*%
%LPD*%
G01*
G04 APERTURE LIST*
%ADD10C,0.100000*%
%ADD11O,1.700000X1.700000*%
%ADD12R,1.700000X1.700000*%
%ADD13O,1.600000X1.600000*%
%ADD14R,1.600000X1.600000*%
%ADD15C,6.500000*%
%ADD16R,1.780000X7.620000*%
G04 APERTURE END LIST*
D10*
G36*
X177800000Y-142240000D02*
G01*
X96520000Y-142240000D01*
X96520000Y-134620000D01*
X177800000Y-134620000D01*
X177800000Y-142240000D01*
G37*
X177800000Y-142240000D02*
X96520000Y-142240000D01*
X96520000Y-134620000D01*
X177800000Y-134620000D01*
X177800000Y-142240000D01*
D11*
%TO.C,CN4*%
X107950000Y-110490000D03*
X107950000Y-113030000D03*
X107950000Y-115570000D03*
X107950000Y-118110000D03*
X107950000Y-120650000D03*
D12*
X107950000Y-123190000D03*
%TD*%
D13*
%TO.C,U2*%
X159385000Y-81280000D03*
X182245000Y-88900000D03*
X161925000Y-81280000D03*
X179705000Y-88900000D03*
X164465000Y-81280000D03*
X177165000Y-88900000D03*
X167005000Y-81280000D03*
X174625000Y-88900000D03*
X169545000Y-81280000D03*
X172085000Y-88900000D03*
X172085000Y-81280000D03*
X169545000Y-88900000D03*
X174625000Y-81280000D03*
X167005000Y-88900000D03*
X177165000Y-81280000D03*
X164465000Y-88900000D03*
X179705000Y-81280000D03*
X161925000Y-88900000D03*
X182245000Y-81280000D03*
D14*
X159385000Y-88900000D03*
%TD*%
D13*
%TO.C,U4*%
X159385000Y-101600000D03*
X182245000Y-109220000D03*
X161925000Y-101600000D03*
X179705000Y-109220000D03*
X164465000Y-101600000D03*
X177165000Y-109220000D03*
X167005000Y-101600000D03*
X174625000Y-109220000D03*
X169545000Y-101600000D03*
X172085000Y-109220000D03*
X172085000Y-101600000D03*
X169545000Y-109220000D03*
X174625000Y-101600000D03*
X167005000Y-109220000D03*
X177165000Y-101600000D03*
X164465000Y-109220000D03*
X179705000Y-101600000D03*
X161925000Y-109220000D03*
X182245000Y-101600000D03*
D14*
X159385000Y-109220000D03*
%TD*%
D13*
%TO.C,U3*%
X116205000Y-101600000D03*
X139065000Y-109220000D03*
X118745000Y-101600000D03*
X136525000Y-109220000D03*
X121285000Y-101600000D03*
X133985000Y-109220000D03*
X123825000Y-101600000D03*
X131445000Y-109220000D03*
X126365000Y-101600000D03*
X128905000Y-109220000D03*
X128905000Y-101600000D03*
X126365000Y-109220000D03*
X131445000Y-101600000D03*
X123825000Y-109220000D03*
X133985000Y-101600000D03*
X121285000Y-109220000D03*
X136525000Y-101600000D03*
X118745000Y-109220000D03*
X139065000Y-101600000D03*
D14*
X116205000Y-109220000D03*
%TD*%
D13*
%TO.C,U1*%
X102235000Y-73660000D03*
X140335000Y-88900000D03*
X104775000Y-73660000D03*
X137795000Y-88900000D03*
X107315000Y-73660000D03*
X135255000Y-88900000D03*
X109855000Y-73660000D03*
X132715000Y-88900000D03*
X112395000Y-73660000D03*
X130175000Y-88900000D03*
X114935000Y-73660000D03*
X127635000Y-88900000D03*
X117475000Y-73660000D03*
X125095000Y-88900000D03*
X120015000Y-73660000D03*
X122555000Y-88900000D03*
X122555000Y-73660000D03*
X120015000Y-88900000D03*
X125095000Y-73660000D03*
X117475000Y-88900000D03*
X127635000Y-73660000D03*
X114935000Y-88900000D03*
X130175000Y-73660000D03*
X112395000Y-88900000D03*
X132715000Y-73660000D03*
X109855000Y-88900000D03*
X135255000Y-73660000D03*
X107315000Y-88900000D03*
X137795000Y-73660000D03*
X104775000Y-88900000D03*
X140335000Y-73660000D03*
D14*
X102235000Y-88900000D03*
%TD*%
D11*
%TO.C,JP2*%
X193675000Y-100330000D03*
X193675000Y-102870000D03*
X191135000Y-100330000D03*
X191135000Y-102870000D03*
X188595000Y-100330000D03*
D12*
X188595000Y-102870000D03*
%TD*%
D11*
%TO.C,JP1*%
X107315000Y-103505000D03*
X107315000Y-106045000D03*
X104775000Y-103505000D03*
X104775000Y-106045000D03*
X102235000Y-103505000D03*
D12*
X102235000Y-106045000D03*
%TD*%
D11*
%TO.C,CN3*%
X106680000Y-51435000D03*
X104140000Y-51435000D03*
X106680000Y-48895000D03*
X104140000Y-48895000D03*
X106680000Y-46355000D03*
D12*
X104140000Y-46355000D03*
%TD*%
D11*
%TO.C,CN2*%
X172085000Y-57785000D03*
X172085000Y-60325000D03*
X169545000Y-57785000D03*
X169545000Y-60325000D03*
X167005000Y-57785000D03*
X167005000Y-60325000D03*
X164465000Y-57785000D03*
X164465000Y-60325000D03*
X161925000Y-57785000D03*
X161925000Y-60325000D03*
X159385000Y-57785000D03*
X159385000Y-60325000D03*
X156845000Y-57785000D03*
X156845000Y-60325000D03*
X154305000Y-57785000D03*
X154305000Y-60325000D03*
X151765000Y-57785000D03*
X151765000Y-60325000D03*
X149225000Y-57785000D03*
X149225000Y-60325000D03*
X146685000Y-60325000D03*
X144145000Y-57785000D03*
X144145000Y-60325000D03*
X141605000Y-57785000D03*
X141605000Y-60325000D03*
X139065000Y-57785000D03*
X139065000Y-60325000D03*
X136525000Y-57785000D03*
X136525000Y-60325000D03*
X133985000Y-57785000D03*
X133985000Y-60325000D03*
X131445000Y-57785000D03*
X131445000Y-60325000D03*
X128905000Y-57785000D03*
X128905000Y-60325000D03*
X126365000Y-57785000D03*
X126365000Y-60325000D03*
X123825000Y-57785000D03*
D12*
X123825000Y-60325000D03*
%TD*%
D11*
%TO.C,CN1*%
X172085000Y-46990000D03*
X172085000Y-49530000D03*
X169545000Y-46990000D03*
X169545000Y-49530000D03*
X167005000Y-46990000D03*
X167005000Y-49530000D03*
X164465000Y-46990000D03*
X164465000Y-49530000D03*
X161925000Y-46990000D03*
X161925000Y-49530000D03*
X159385000Y-46990000D03*
X159385000Y-49530000D03*
X156845000Y-46990000D03*
X156845000Y-49530000D03*
X154305000Y-46990000D03*
X154305000Y-49530000D03*
X151765000Y-46990000D03*
X151765000Y-49530000D03*
X149225000Y-46990000D03*
X149225000Y-49530000D03*
X146685000Y-49530000D03*
X144145000Y-46990000D03*
X144145000Y-49530000D03*
X141605000Y-46990000D03*
X141605000Y-49530000D03*
X139065000Y-46990000D03*
X139065000Y-49530000D03*
X136525000Y-46990000D03*
X136525000Y-49530000D03*
X133985000Y-46990000D03*
X133985000Y-49530000D03*
X131445000Y-46990000D03*
X131445000Y-49530000D03*
X128905000Y-46990000D03*
X128905000Y-49530000D03*
X126365000Y-46990000D03*
X126365000Y-49530000D03*
X123825000Y-46990000D03*
D12*
X123825000Y-49530000D03*
%TD*%
D15*
%TO.C,H4*%
X192405000Y-130190000D03*
%TD*%
%TO.C,H2*%
X192383000Y-73670000D03*
%TD*%
D16*
%TO.C,J3*%
X99060000Y-138430000D03*
X101600000Y-138430000D03*
X104140000Y-138430000D03*
X106680000Y-138430000D03*
X109220000Y-138430000D03*
X111760000Y-138430000D03*
X114300000Y-138430000D03*
X116840000Y-138430000D03*
X119380000Y-138430000D03*
X121920000Y-138430000D03*
X124460000Y-138430000D03*
X127000000Y-138430000D03*
X129540000Y-138430000D03*
X132080000Y-138430000D03*
X134620000Y-138430000D03*
X137160000Y-138430000D03*
X139700000Y-138430000D03*
X142240000Y-138430000D03*
X144780000Y-138430000D03*
X147320000Y-138430000D03*
X149860000Y-138430000D03*
X152400000Y-138430000D03*
X154940000Y-138430000D03*
X157480000Y-138430000D03*
X160020000Y-138430000D03*
X162560000Y-138430000D03*
X165100000Y-138430000D03*
X167640000Y-138430000D03*
X170180000Y-138430000D03*
X172720000Y-138430000D03*
X175260000Y-138430000D03*
%TD*%
M02*
