%TF.GenerationSoftware,KiCad,Pcbnew,(5.1.9)-1*%
%TF.CreationDate,2021-09-14T13:38:25+08:00*%
%TF.ProjectId,XTA-Interface,5854412d-496e-4746-9572-666163652e6b,rev?*%
%TF.SameCoordinates,Original*%
%TF.FileFunction,Legend,Bot*%
%TF.FilePolarity,Positive*%
%FSLAX46Y46*%
G04 Gerber Fmt 4.6, Leading zero omitted, Abs format (unit mm)*
G04 Created by KiCad (PCBNEW (5.1.9)-1) date 2021-09-14 13:38:25*
%MOMM*%
%LPD*%
G01*
G04 APERTURE LIST*
%ADD10C,0.150000*%
G04 APERTURE END LIST*
D10*
X167399642Y-124422380D02*
X167161547Y-125422380D01*
X166971071Y-124708095D01*
X166780595Y-125422380D01*
X166542500Y-124422380D01*
X166161547Y-125422380D02*
X166161547Y-124422380D01*
X165923452Y-124422380D01*
X165780595Y-124470000D01*
X165685357Y-124565238D01*
X165637738Y-124660476D01*
X165590119Y-124850952D01*
X165590119Y-124993809D01*
X165637738Y-125184285D01*
X165685357Y-125279523D01*
X165780595Y-125374761D01*
X165923452Y-125422380D01*
X166161547Y-125422380D01*
X165256785Y-124422380D02*
X164590119Y-125422380D01*
X164590119Y-124422380D02*
X165256785Y-125422380D01*
X164352023Y-124422380D02*
X163780595Y-124422380D01*
X164066309Y-125422380D02*
X164066309Y-124422380D01*
X162685357Y-124755714D02*
X162685357Y-125422380D01*
X162685357Y-124850952D02*
X162637738Y-124803333D01*
X162542500Y-124755714D01*
X162399642Y-124755714D01*
X162304404Y-124803333D01*
X162256785Y-124898571D01*
X162256785Y-125422380D01*
X161637738Y-125422380D02*
X161732976Y-125374761D01*
X161780595Y-125327142D01*
X161828214Y-125231904D01*
X161828214Y-124946190D01*
X161780595Y-124850952D01*
X161732976Y-124803333D01*
X161637738Y-124755714D01*
X161494880Y-124755714D01*
X161399642Y-124803333D01*
X161352023Y-124850952D01*
X161304404Y-124946190D01*
X161304404Y-125231904D01*
X161352023Y-125327142D01*
X161399642Y-125374761D01*
X161494880Y-125422380D01*
X161637738Y-125422380D01*
X161018690Y-124755714D02*
X160637738Y-124755714D01*
X160875833Y-124422380D02*
X160875833Y-125279523D01*
X160828214Y-125374761D01*
X160732976Y-125422380D01*
X160637738Y-125422380D01*
X159923452Y-125374761D02*
X160018690Y-125422380D01*
X160209166Y-125422380D01*
X160304404Y-125374761D01*
X160352023Y-125279523D01*
X160352023Y-124898571D01*
X160304404Y-124803333D01*
X160209166Y-124755714D01*
X160018690Y-124755714D01*
X159923452Y-124803333D01*
X159875833Y-124898571D01*
X159875833Y-124993809D01*
X160352023Y-125089047D01*
X159494880Y-125374761D02*
X159399642Y-125422380D01*
X159209166Y-125422380D01*
X159113928Y-125374761D01*
X159066309Y-125279523D01*
X159066309Y-125231904D01*
X159113928Y-125136666D01*
X159209166Y-125089047D01*
X159352023Y-125089047D01*
X159447261Y-125041428D01*
X159494880Y-124946190D01*
X159494880Y-124898571D01*
X159447261Y-124803333D01*
X159352023Y-124755714D01*
X159209166Y-124755714D01*
X159113928Y-124803333D01*
X158637738Y-125327142D02*
X158590119Y-125374761D01*
X158637738Y-125422380D01*
X158685357Y-125374761D01*
X158637738Y-125327142D01*
X158637738Y-125422380D01*
X158637738Y-124803333D02*
X158590119Y-124850952D01*
X158637738Y-124898571D01*
X158685357Y-124850952D01*
X158637738Y-124803333D01*
X158637738Y-124898571D01*
X167304404Y-127072380D02*
X167304404Y-126072380D01*
X166971071Y-126405714D02*
X166590119Y-126405714D01*
X166828214Y-127072380D02*
X166828214Y-126215238D01*
X166780595Y-126120000D01*
X166685357Y-126072380D01*
X166590119Y-126072380D01*
X165494880Y-127072380D02*
X165494880Y-126072380D01*
X164447261Y-127072380D02*
X164780595Y-126596190D01*
X165018690Y-127072380D02*
X165018690Y-126072380D01*
X164637738Y-126072380D01*
X164542500Y-126120000D01*
X164494880Y-126167619D01*
X164447261Y-126262857D01*
X164447261Y-126405714D01*
X164494880Y-126500952D01*
X164542500Y-126548571D01*
X164637738Y-126596190D01*
X165018690Y-126596190D01*
X163352023Y-127167619D02*
X163447261Y-127120000D01*
X163542500Y-127024761D01*
X163685357Y-126881904D01*
X163780595Y-126834285D01*
X163875833Y-126834285D01*
X163828214Y-127072380D02*
X163923452Y-127024761D01*
X164018690Y-126929523D01*
X164066309Y-126739047D01*
X164066309Y-126405714D01*
X164018690Y-126215238D01*
X163923452Y-126120000D01*
X163828214Y-126072380D01*
X163637738Y-126072380D01*
X163542500Y-126120000D01*
X163447261Y-126215238D01*
X163399642Y-126405714D01*
X163399642Y-126739047D01*
X163447261Y-126929523D01*
X163542500Y-127024761D01*
X163637738Y-127072380D01*
X163828214Y-127072380D01*
X162256785Y-126167619D02*
X162209166Y-126120000D01*
X162113928Y-126072380D01*
X161875833Y-126072380D01*
X161780595Y-126120000D01*
X161732976Y-126167619D01*
X161685357Y-126262857D01*
X161685357Y-126358095D01*
X161732976Y-126500952D01*
X162304404Y-127072380D01*
X161685357Y-127072380D01*
X160494880Y-127072380D02*
X160494880Y-126405714D01*
X160494880Y-126072380D02*
X160542500Y-126120000D01*
X160494880Y-126167619D01*
X160447261Y-126120000D01*
X160494880Y-126072380D01*
X160494880Y-126167619D01*
X160066309Y-127024761D02*
X159971071Y-127072380D01*
X159780595Y-127072380D01*
X159685357Y-127024761D01*
X159637738Y-126929523D01*
X159637738Y-126881904D01*
X159685357Y-126786666D01*
X159780595Y-126739047D01*
X159923452Y-126739047D01*
X160018690Y-126691428D01*
X160066309Y-126596190D01*
X160066309Y-126548571D01*
X160018690Y-126453333D01*
X159923452Y-126405714D01*
X159780595Y-126405714D01*
X159685357Y-126453333D01*
X158494880Y-127024761D02*
X158399642Y-127072380D01*
X158209166Y-127072380D01*
X158113928Y-127024761D01*
X158066309Y-126929523D01*
X158066309Y-126881904D01*
X158113928Y-126786666D01*
X158209166Y-126739047D01*
X158352023Y-126739047D01*
X158447261Y-126691428D01*
X158494880Y-126596190D01*
X158494880Y-126548571D01*
X158447261Y-126453333D01*
X158352023Y-126405714D01*
X158209166Y-126405714D01*
X158113928Y-126453333D01*
X157256785Y-127024761D02*
X157352023Y-127072380D01*
X157542500Y-127072380D01*
X157637738Y-127024761D01*
X157685357Y-126929523D01*
X157685357Y-126548571D01*
X157637738Y-126453333D01*
X157542500Y-126405714D01*
X157352023Y-126405714D01*
X157256785Y-126453333D01*
X157209166Y-126548571D01*
X157209166Y-126643809D01*
X157685357Y-126739047D01*
X156637738Y-127072380D02*
X156732976Y-127024761D01*
X156780595Y-126929523D01*
X156780595Y-126072380D01*
X155875833Y-127024761D02*
X155971071Y-127072380D01*
X156161547Y-127072380D01*
X156256785Y-127024761D01*
X156304404Y-126929523D01*
X156304404Y-126548571D01*
X156256785Y-126453333D01*
X156161547Y-126405714D01*
X155971071Y-126405714D01*
X155875833Y-126453333D01*
X155828214Y-126548571D01*
X155828214Y-126643809D01*
X156304404Y-126739047D01*
X154971071Y-127024761D02*
X155066309Y-127072380D01*
X155256785Y-127072380D01*
X155352023Y-127024761D01*
X155399642Y-126977142D01*
X155447261Y-126881904D01*
X155447261Y-126596190D01*
X155399642Y-126500952D01*
X155352023Y-126453333D01*
X155256785Y-126405714D01*
X155066309Y-126405714D01*
X154971071Y-126453333D01*
X154685357Y-126405714D02*
X154304404Y-126405714D01*
X154542500Y-126072380D02*
X154542500Y-126929523D01*
X154494880Y-127024761D01*
X154399642Y-127072380D01*
X154304404Y-127072380D01*
X153590119Y-127024761D02*
X153685357Y-127072380D01*
X153875833Y-127072380D01*
X153971071Y-127024761D01*
X154018690Y-126929523D01*
X154018690Y-126548571D01*
X153971071Y-126453333D01*
X153875833Y-126405714D01*
X153685357Y-126405714D01*
X153590119Y-126453333D01*
X153542500Y-126548571D01*
X153542500Y-126643809D01*
X154018690Y-126739047D01*
X152685357Y-127072380D02*
X152685357Y-126072380D01*
X152685357Y-127024761D02*
X152780595Y-127072380D01*
X152971071Y-127072380D01*
X153066309Y-127024761D01*
X153113928Y-126977142D01*
X153161547Y-126881904D01*
X153161547Y-126596190D01*
X153113928Y-126500952D01*
X153066309Y-126453333D01*
X152971071Y-126405714D01*
X152780595Y-126405714D01*
X152685357Y-126453333D01*
X152161547Y-127024761D02*
X152161547Y-127072380D01*
X152209166Y-127167619D01*
X152256785Y-127215238D01*
X151113928Y-126405714D02*
X150732976Y-126405714D01*
X150971071Y-126072380D02*
X150971071Y-126929523D01*
X150923452Y-127024761D01*
X150828214Y-127072380D01*
X150732976Y-127072380D01*
X150399642Y-127072380D02*
X150399642Y-126072380D01*
X149971071Y-127072380D02*
X149971071Y-126548571D01*
X150018690Y-126453333D01*
X150113928Y-126405714D01*
X150256785Y-126405714D01*
X150352023Y-126453333D01*
X150399642Y-126500952D01*
X149113928Y-127024761D02*
X149209166Y-127072380D01*
X149399642Y-127072380D01*
X149494880Y-127024761D01*
X149542500Y-126929523D01*
X149542500Y-126548571D01*
X149494880Y-126453333D01*
X149399642Y-126405714D01*
X149209166Y-126405714D01*
X149113928Y-126453333D01*
X149066309Y-126548571D01*
X149066309Y-126643809D01*
X149542500Y-126739047D01*
X147971071Y-126072380D02*
X147732976Y-127072380D01*
X147542500Y-126358095D01*
X147352023Y-127072380D01*
X147113928Y-126072380D01*
X146732976Y-127072380D02*
X146732976Y-126072380D01*
X146494880Y-126072380D01*
X146352023Y-126120000D01*
X146256785Y-126215238D01*
X146209166Y-126310476D01*
X146161547Y-126500952D01*
X146161547Y-126643809D01*
X146209166Y-126834285D01*
X146256785Y-126929523D01*
X146352023Y-127024761D01*
X146494880Y-127072380D01*
X146732976Y-127072380D01*
X144542500Y-127072380D02*
X144542500Y-126072380D01*
X144542500Y-127024761D02*
X144637738Y-127072380D01*
X144828214Y-127072380D01*
X144923452Y-127024761D01*
X144971071Y-126977142D01*
X145018690Y-126881904D01*
X145018690Y-126596190D01*
X144971071Y-126500952D01*
X144923452Y-126453333D01*
X144828214Y-126405714D01*
X144637738Y-126405714D01*
X144542500Y-126453333D01*
X144066309Y-127072380D02*
X144066309Y-126405714D01*
X144066309Y-126596190D02*
X144018690Y-126500952D01*
X143971071Y-126453333D01*
X143875833Y-126405714D01*
X143780595Y-126405714D01*
X143447261Y-127072380D02*
X143447261Y-126405714D01*
X143447261Y-126072380D02*
X143494880Y-126120000D01*
X143447261Y-126167619D01*
X143399642Y-126120000D01*
X143447261Y-126072380D01*
X143447261Y-126167619D01*
X143066309Y-126405714D02*
X142828214Y-127072380D01*
X142590119Y-126405714D01*
X141828214Y-127024761D02*
X141923452Y-127072380D01*
X142113928Y-127072380D01*
X142209166Y-127024761D01*
X142256785Y-126929523D01*
X142256785Y-126548571D01*
X142209166Y-126453333D01*
X142113928Y-126405714D01*
X141923452Y-126405714D01*
X141828214Y-126453333D01*
X141780595Y-126548571D01*
X141780595Y-126643809D01*
X142256785Y-126739047D01*
X140590119Y-127072380D02*
X140590119Y-126405714D01*
X140590119Y-126500952D02*
X140542500Y-126453333D01*
X140447261Y-126405714D01*
X140304404Y-126405714D01*
X140209166Y-126453333D01*
X140161547Y-126548571D01*
X140161547Y-127072380D01*
X140161547Y-126548571D02*
X140113928Y-126453333D01*
X140018690Y-126405714D01*
X139875833Y-126405714D01*
X139780595Y-126453333D01*
X139732976Y-126548571D01*
X139732976Y-127072380D01*
X138828214Y-126405714D02*
X138828214Y-127072380D01*
X139256785Y-126405714D02*
X139256785Y-126929523D01*
X139209166Y-127024761D01*
X139113928Y-127072380D01*
X138971071Y-127072380D01*
X138875833Y-127024761D01*
X138828214Y-126977142D01*
X138399642Y-127024761D02*
X138304404Y-127072380D01*
X138113928Y-127072380D01*
X138018690Y-127024761D01*
X137971071Y-126929523D01*
X137971071Y-126881904D01*
X138018690Y-126786666D01*
X138113928Y-126739047D01*
X138256785Y-126739047D01*
X138352023Y-126691428D01*
X138399642Y-126596190D01*
X138399642Y-126548571D01*
X138352023Y-126453333D01*
X138256785Y-126405714D01*
X138113928Y-126405714D01*
X138018690Y-126453333D01*
X137685357Y-126405714D02*
X137304404Y-126405714D01*
X137542500Y-126072380D02*
X137542500Y-126929523D01*
X137494880Y-127024761D01*
X137399642Y-127072380D01*
X137304404Y-127072380D01*
X135780595Y-127072380D02*
X135780595Y-126548571D01*
X135828214Y-126453333D01*
X135923452Y-126405714D01*
X136113928Y-126405714D01*
X136209166Y-126453333D01*
X135780595Y-127024761D02*
X135875833Y-127072380D01*
X136113928Y-127072380D01*
X136209166Y-127024761D01*
X136256785Y-126929523D01*
X136256785Y-126834285D01*
X136209166Y-126739047D01*
X136113928Y-126691428D01*
X135875833Y-126691428D01*
X135780595Y-126643809D01*
X135161547Y-127072380D02*
X135256785Y-127024761D01*
X135304404Y-126929523D01*
X135304404Y-126072380D01*
X134828214Y-127024761D02*
X134732976Y-127072380D01*
X134542500Y-127072380D01*
X134447261Y-127024761D01*
X134399642Y-126929523D01*
X134399642Y-126881904D01*
X134447261Y-126786666D01*
X134542500Y-126739047D01*
X134685357Y-126739047D01*
X134780595Y-126691428D01*
X134828214Y-126596190D01*
X134828214Y-126548571D01*
X134780595Y-126453333D01*
X134685357Y-126405714D01*
X134542500Y-126405714D01*
X134447261Y-126453333D01*
X133828214Y-127072380D02*
X133923452Y-127024761D01*
X133971071Y-126977142D01*
X134018690Y-126881904D01*
X134018690Y-126596190D01*
X133971071Y-126500952D01*
X133923452Y-126453333D01*
X133828214Y-126405714D01*
X133685357Y-126405714D01*
X133590119Y-126453333D01*
X133542500Y-126500952D01*
X133494880Y-126596190D01*
X133494880Y-126881904D01*
X133542500Y-126977142D01*
X133590119Y-127024761D01*
X133685357Y-127072380D01*
X133828214Y-127072380D01*
X132304404Y-127072380D02*
X132304404Y-126072380D01*
X132304404Y-126453333D02*
X132209166Y-126405714D01*
X132018690Y-126405714D01*
X131923452Y-126453333D01*
X131875833Y-126500952D01*
X131828214Y-126596190D01*
X131828214Y-126881904D01*
X131875833Y-126977142D01*
X131923452Y-127024761D01*
X132018690Y-127072380D01*
X132209166Y-127072380D01*
X132304404Y-127024761D01*
X131018690Y-127024761D02*
X131113928Y-127072380D01*
X131304404Y-127072380D01*
X131399642Y-127024761D01*
X131447261Y-126929523D01*
X131447261Y-126548571D01*
X131399642Y-126453333D01*
X131304404Y-126405714D01*
X131113928Y-126405714D01*
X131018690Y-126453333D01*
X130971071Y-126548571D01*
X130971071Y-126643809D01*
X131447261Y-126739047D01*
X129352023Y-127024761D02*
X129447261Y-127072380D01*
X129637738Y-127072380D01*
X129732976Y-127024761D01*
X129780595Y-126977142D01*
X129828214Y-126881904D01*
X129828214Y-126596190D01*
X129780595Y-126500952D01*
X129732976Y-126453333D01*
X129637738Y-126405714D01*
X129447261Y-126405714D01*
X129352023Y-126453333D01*
X128780595Y-127072380D02*
X128875833Y-127024761D01*
X128923452Y-126977142D01*
X128971071Y-126881904D01*
X128971071Y-126596190D01*
X128923452Y-126500952D01*
X128875833Y-126453333D01*
X128780595Y-126405714D01*
X128637738Y-126405714D01*
X128542500Y-126453333D01*
X128494880Y-126500952D01*
X128447261Y-126596190D01*
X128447261Y-126881904D01*
X128494880Y-126977142D01*
X128542500Y-127024761D01*
X128637738Y-127072380D01*
X128780595Y-127072380D01*
X128018690Y-126405714D02*
X128018690Y-127072380D01*
X128018690Y-126500952D02*
X127971071Y-126453333D01*
X127875833Y-126405714D01*
X127732976Y-126405714D01*
X127637738Y-126453333D01*
X127590119Y-126548571D01*
X127590119Y-127072380D01*
X127256785Y-126405714D02*
X126875833Y-126405714D01*
X127113928Y-127072380D02*
X127113928Y-126215238D01*
X127066309Y-126120000D01*
X126971071Y-126072380D01*
X126875833Y-126072380D01*
X126542500Y-127072380D02*
X126542500Y-126405714D01*
X126542500Y-126072380D02*
X126590119Y-126120000D01*
X126542500Y-126167619D01*
X126494880Y-126120000D01*
X126542500Y-126072380D01*
X126542500Y-126167619D01*
X125637738Y-126405714D02*
X125637738Y-127215238D01*
X125685357Y-127310476D01*
X125732976Y-127358095D01*
X125828214Y-127405714D01*
X125971071Y-127405714D01*
X126066309Y-127358095D01*
X125637738Y-127024761D02*
X125732976Y-127072380D01*
X125923452Y-127072380D01*
X126018690Y-127024761D01*
X126066309Y-126977142D01*
X126113928Y-126881904D01*
X126113928Y-126596190D01*
X126066309Y-126500952D01*
X126018690Y-126453333D01*
X125923452Y-126405714D01*
X125732976Y-126405714D01*
X125637738Y-126453333D01*
X124732976Y-126405714D02*
X124732976Y-127072380D01*
X125161547Y-126405714D02*
X125161547Y-126929523D01*
X125113928Y-127024761D01*
X125018690Y-127072380D01*
X124875833Y-127072380D01*
X124780595Y-127024761D01*
X124732976Y-126977142D01*
X124256785Y-127072380D02*
X124256785Y-126405714D01*
X124256785Y-126596190D02*
X124209166Y-126500952D01*
X124161547Y-126453333D01*
X124066309Y-126405714D01*
X123971071Y-126405714D01*
X123256785Y-127024761D02*
X123352023Y-127072380D01*
X123542500Y-127072380D01*
X123637738Y-127024761D01*
X123685357Y-126929523D01*
X123685357Y-126548571D01*
X123637738Y-126453333D01*
X123542500Y-126405714D01*
X123352023Y-126405714D01*
X123256785Y-126453333D01*
X123209166Y-126548571D01*
X123209166Y-126643809D01*
X123685357Y-126739047D01*
X122352023Y-127072380D02*
X122352023Y-126072380D01*
X122352023Y-127024761D02*
X122447261Y-127072380D01*
X122637738Y-127072380D01*
X122732976Y-127024761D01*
X122780595Y-126977142D01*
X122828214Y-126881904D01*
X122828214Y-126596190D01*
X122780595Y-126500952D01*
X122732976Y-126453333D01*
X122637738Y-126405714D01*
X122447261Y-126405714D01*
X122352023Y-126453333D01*
X121256785Y-126405714D02*
X120875833Y-126405714D01*
X121113928Y-127072380D02*
X121113928Y-126215238D01*
X121066309Y-126120000D01*
X120971071Y-126072380D01*
X120875833Y-126072380D01*
X120399642Y-127072380D02*
X120494880Y-127024761D01*
X120542500Y-126977142D01*
X120590119Y-126881904D01*
X120590119Y-126596190D01*
X120542500Y-126500952D01*
X120494880Y-126453333D01*
X120399642Y-126405714D01*
X120256785Y-126405714D01*
X120161547Y-126453333D01*
X120113928Y-126500952D01*
X120066309Y-126596190D01*
X120066309Y-126881904D01*
X120113928Y-126977142D01*
X120161547Y-127024761D01*
X120256785Y-127072380D01*
X120399642Y-127072380D01*
X119637738Y-127072380D02*
X119637738Y-126405714D01*
X119637738Y-126596190D02*
X119590119Y-126500952D01*
X119542500Y-126453333D01*
X119447261Y-126405714D01*
X119352023Y-126405714D01*
X118256785Y-127072380D02*
X118256785Y-126072380D01*
X117209166Y-127072380D02*
X117542500Y-126596190D01*
X117780595Y-127072380D02*
X117780595Y-126072380D01*
X117399642Y-126072380D01*
X117304404Y-126120000D01*
X117256785Y-126167619D01*
X117209166Y-126262857D01*
X117209166Y-126405714D01*
X117256785Y-126500952D01*
X117304404Y-126548571D01*
X117399642Y-126596190D01*
X117780595Y-126596190D01*
X116113928Y-127167619D02*
X116209166Y-127120000D01*
X116304404Y-127024761D01*
X116447261Y-126881904D01*
X116542500Y-126834285D01*
X116637738Y-126834285D01*
X116590119Y-127072380D02*
X116685357Y-127024761D01*
X116780595Y-126929523D01*
X116828214Y-126739047D01*
X116828214Y-126405714D01*
X116780595Y-126215238D01*
X116685357Y-126120000D01*
X116590119Y-126072380D01*
X116399642Y-126072380D01*
X116304404Y-126120000D01*
X116209166Y-126215238D01*
X116161547Y-126405714D01*
X116161547Y-126739047D01*
X116209166Y-126929523D01*
X116304404Y-127024761D01*
X116399642Y-127072380D01*
X116590119Y-127072380D01*
X115018690Y-126167619D02*
X114971071Y-126120000D01*
X114875833Y-126072380D01*
X114637738Y-126072380D01*
X114542500Y-126120000D01*
X114494880Y-126167619D01*
X114447261Y-126262857D01*
X114447261Y-126358095D01*
X114494880Y-126500952D01*
X115066309Y-127072380D01*
X114447261Y-127072380D01*
X114018690Y-126977142D02*
X113971071Y-127024761D01*
X114018690Y-127072380D01*
X114066309Y-127024761D01*
X114018690Y-126977142D01*
X114018690Y-127072380D01*
X167304404Y-128722380D02*
X167304404Y-127722380D01*
X166256785Y-128722380D02*
X166590119Y-128246190D01*
X166828214Y-128722380D02*
X166828214Y-127722380D01*
X166447261Y-127722380D01*
X166352023Y-127770000D01*
X166304404Y-127817619D01*
X166256785Y-127912857D01*
X166256785Y-128055714D01*
X166304404Y-128150952D01*
X166352023Y-128198571D01*
X166447261Y-128246190D01*
X166828214Y-128246190D01*
X165161547Y-128817619D02*
X165256785Y-128770000D01*
X165352023Y-128674761D01*
X165494880Y-128531904D01*
X165590119Y-128484285D01*
X165685357Y-128484285D01*
X165637738Y-128722380D02*
X165732976Y-128674761D01*
X165828214Y-128579523D01*
X165875833Y-128389047D01*
X165875833Y-128055714D01*
X165828214Y-127865238D01*
X165732976Y-127770000D01*
X165637738Y-127722380D01*
X165447261Y-127722380D01*
X165352023Y-127770000D01*
X165256785Y-127865238D01*
X165209166Y-128055714D01*
X165209166Y-128389047D01*
X165256785Y-128579523D01*
X165352023Y-128674761D01*
X165447261Y-128722380D01*
X165637738Y-128722380D01*
X164066309Y-127817619D02*
X164018690Y-127770000D01*
X163923452Y-127722380D01*
X163685357Y-127722380D01*
X163590119Y-127770000D01*
X163542500Y-127817619D01*
X163494880Y-127912857D01*
X163494880Y-128008095D01*
X163542500Y-128150952D01*
X164113928Y-128722380D01*
X163494880Y-128722380D01*
X162304404Y-128722380D02*
X162304404Y-128055714D01*
X162304404Y-127722380D02*
X162352023Y-127770000D01*
X162304404Y-127817619D01*
X162256785Y-127770000D01*
X162304404Y-127722380D01*
X162304404Y-127817619D01*
X161875833Y-128674761D02*
X161780595Y-128722380D01*
X161590119Y-128722380D01*
X161494880Y-128674761D01*
X161447261Y-128579523D01*
X161447261Y-128531904D01*
X161494880Y-128436666D01*
X161590119Y-128389047D01*
X161732976Y-128389047D01*
X161828214Y-128341428D01*
X161875833Y-128246190D01*
X161875833Y-128198571D01*
X161828214Y-128103333D01*
X161732976Y-128055714D01*
X161590119Y-128055714D01*
X161494880Y-128103333D01*
X160256785Y-128055714D02*
X160256785Y-128722380D01*
X160256785Y-128150952D02*
X160209166Y-128103333D01*
X160113928Y-128055714D01*
X159971071Y-128055714D01*
X159875833Y-128103333D01*
X159828214Y-128198571D01*
X159828214Y-128722380D01*
X159209166Y-128722380D02*
X159304404Y-128674761D01*
X159352023Y-128627142D01*
X159399642Y-128531904D01*
X159399642Y-128246190D01*
X159352023Y-128150952D01*
X159304404Y-128103333D01*
X159209166Y-128055714D01*
X159066309Y-128055714D01*
X158971071Y-128103333D01*
X158923452Y-128150952D01*
X158875833Y-128246190D01*
X158875833Y-128531904D01*
X158923452Y-128627142D01*
X158971071Y-128674761D01*
X159066309Y-128722380D01*
X159209166Y-128722380D01*
X158590119Y-128055714D02*
X158209166Y-128055714D01*
X158447261Y-127722380D02*
X158447261Y-128579523D01*
X158399642Y-128674761D01*
X158304404Y-128722380D01*
X158209166Y-128722380D01*
X157161547Y-128674761D02*
X157066309Y-128722380D01*
X156875833Y-128722380D01*
X156780595Y-128674761D01*
X156732976Y-128579523D01*
X156732976Y-128531904D01*
X156780595Y-128436666D01*
X156875833Y-128389047D01*
X157018690Y-128389047D01*
X157113928Y-128341428D01*
X157161547Y-128246190D01*
X157161547Y-128198571D01*
X157113928Y-128103333D01*
X157018690Y-128055714D01*
X156875833Y-128055714D01*
X156780595Y-128103333D01*
X155875833Y-128055714D02*
X155875833Y-128722380D01*
X156304404Y-128055714D02*
X156304404Y-128579523D01*
X156256785Y-128674761D01*
X156161547Y-128722380D01*
X156018690Y-128722380D01*
X155923452Y-128674761D01*
X155875833Y-128627142D01*
X155399642Y-128055714D02*
X155399642Y-129055714D01*
X155399642Y-128103333D02*
X155304404Y-128055714D01*
X155113928Y-128055714D01*
X155018690Y-128103333D01*
X154971071Y-128150952D01*
X154923452Y-128246190D01*
X154923452Y-128531904D01*
X154971071Y-128627142D01*
X155018690Y-128674761D01*
X155113928Y-128722380D01*
X155304404Y-128722380D01*
X155399642Y-128674761D01*
X154494880Y-128055714D02*
X154494880Y-129055714D01*
X154494880Y-128103333D02*
X154399642Y-128055714D01*
X154209166Y-128055714D01*
X154113928Y-128103333D01*
X154066309Y-128150952D01*
X154018690Y-128246190D01*
X154018690Y-128531904D01*
X154066309Y-128627142D01*
X154113928Y-128674761D01*
X154209166Y-128722380D01*
X154399642Y-128722380D01*
X154494880Y-128674761D01*
X153447261Y-128722380D02*
X153542500Y-128674761D01*
X153590119Y-128627142D01*
X153637738Y-128531904D01*
X153637738Y-128246190D01*
X153590119Y-128150952D01*
X153542500Y-128103333D01*
X153447261Y-128055714D01*
X153304404Y-128055714D01*
X153209166Y-128103333D01*
X153161547Y-128150952D01*
X153113928Y-128246190D01*
X153113928Y-128531904D01*
X153161547Y-128627142D01*
X153209166Y-128674761D01*
X153304404Y-128722380D01*
X153447261Y-128722380D01*
X152685357Y-128722380D02*
X152685357Y-128055714D01*
X152685357Y-128246190D02*
X152637738Y-128150952D01*
X152590119Y-128103333D01*
X152494880Y-128055714D01*
X152399642Y-128055714D01*
X152209166Y-128055714D02*
X151828214Y-128055714D01*
X152066309Y-127722380D02*
X152066309Y-128579523D01*
X152018690Y-128674761D01*
X151923452Y-128722380D01*
X151828214Y-128722380D01*
X151113928Y-128674761D02*
X151209166Y-128722380D01*
X151399642Y-128722380D01*
X151494880Y-128674761D01*
X151542500Y-128579523D01*
X151542500Y-128198571D01*
X151494880Y-128103333D01*
X151399642Y-128055714D01*
X151209166Y-128055714D01*
X151113928Y-128103333D01*
X151066309Y-128198571D01*
X151066309Y-128293809D01*
X151542500Y-128389047D01*
X150209166Y-128722380D02*
X150209166Y-127722380D01*
X150209166Y-128674761D02*
X150304404Y-128722380D01*
X150494880Y-128722380D01*
X150590119Y-128674761D01*
X150637738Y-128627142D01*
X150685357Y-128531904D01*
X150685357Y-128246190D01*
X150637738Y-128150952D01*
X150590119Y-128103333D01*
X150494880Y-128055714D01*
X150304404Y-128055714D01*
X150209166Y-128103333D01*
X148828214Y-128722380D02*
X148923452Y-128674761D01*
X148971071Y-128627142D01*
X149018690Y-128531904D01*
X149018690Y-128246190D01*
X148971071Y-128150952D01*
X148923452Y-128103333D01*
X148828214Y-128055714D01*
X148685357Y-128055714D01*
X148590119Y-128103333D01*
X148542500Y-128150952D01*
X148494880Y-128246190D01*
X148494880Y-128531904D01*
X148542500Y-128627142D01*
X148590119Y-128674761D01*
X148685357Y-128722380D01*
X148828214Y-128722380D01*
X148066309Y-128055714D02*
X148066309Y-128722380D01*
X148066309Y-128150952D02*
X148018690Y-128103333D01*
X147923452Y-128055714D01*
X147780595Y-128055714D01*
X147685357Y-128103333D01*
X147637738Y-128198571D01*
X147637738Y-128722380D01*
X146447261Y-128674761D02*
X146304404Y-128722380D01*
X146066309Y-128722380D01*
X145971071Y-128674761D01*
X145923452Y-128627142D01*
X145875833Y-128531904D01*
X145875833Y-128436666D01*
X145923452Y-128341428D01*
X145971071Y-128293809D01*
X146066309Y-128246190D01*
X146256785Y-128198571D01*
X146352023Y-128150952D01*
X146399642Y-128103333D01*
X146447261Y-128008095D01*
X146447261Y-127912857D01*
X146399642Y-127817619D01*
X146352023Y-127770000D01*
X146256785Y-127722380D01*
X146018690Y-127722380D01*
X145875833Y-127770000D01*
X145066309Y-128674761D02*
X145161547Y-128722380D01*
X145352023Y-128722380D01*
X145447261Y-128674761D01*
X145494880Y-128579523D01*
X145494880Y-128198571D01*
X145447261Y-128103333D01*
X145352023Y-128055714D01*
X145161547Y-128055714D01*
X145066309Y-128103333D01*
X145018690Y-128198571D01*
X145018690Y-128293809D01*
X145494880Y-128389047D01*
X144161547Y-128722380D02*
X144161547Y-128198571D01*
X144209166Y-128103333D01*
X144304404Y-128055714D01*
X144494880Y-128055714D01*
X144590119Y-128103333D01*
X144161547Y-128674761D02*
X144256785Y-128722380D01*
X144494880Y-128722380D01*
X144590119Y-128674761D01*
X144637738Y-128579523D01*
X144637738Y-128484285D01*
X144590119Y-128389047D01*
X144494880Y-128341428D01*
X144256785Y-128341428D01*
X144161547Y-128293809D01*
X143256785Y-128055714D02*
X143256785Y-128865238D01*
X143304404Y-128960476D01*
X143352023Y-129008095D01*
X143447261Y-129055714D01*
X143590119Y-129055714D01*
X143685357Y-129008095D01*
X143256785Y-128674761D02*
X143352023Y-128722380D01*
X143542500Y-128722380D01*
X143637738Y-128674761D01*
X143685357Y-128627142D01*
X143732976Y-128531904D01*
X143732976Y-128246190D01*
X143685357Y-128150952D01*
X143637738Y-128103333D01*
X143542500Y-128055714D01*
X143352023Y-128055714D01*
X143256785Y-128103333D01*
X142352023Y-128722380D02*
X142352023Y-128198571D01*
X142399642Y-128103333D01*
X142494880Y-128055714D01*
X142685357Y-128055714D01*
X142780595Y-128103333D01*
X142352023Y-128674761D02*
X142447261Y-128722380D01*
X142685357Y-128722380D01*
X142780595Y-128674761D01*
X142828214Y-128579523D01*
X142828214Y-128484285D01*
X142780595Y-128389047D01*
X142685357Y-128341428D01*
X142447261Y-128341428D01*
X142352023Y-128293809D01*
X142018690Y-128055714D02*
X141637738Y-128055714D01*
X141875833Y-127722380D02*
X141875833Y-128579523D01*
X141828214Y-128674761D01*
X141732976Y-128722380D01*
X141637738Y-128722380D01*
X140923452Y-128674761D02*
X141018690Y-128722380D01*
X141209166Y-128722380D01*
X141304404Y-128674761D01*
X141352023Y-128579523D01*
X141352023Y-128198571D01*
X141304404Y-128103333D01*
X141209166Y-128055714D01*
X141018690Y-128055714D01*
X140923452Y-128103333D01*
X140875833Y-128198571D01*
X140875833Y-128293809D01*
X141352023Y-128389047D01*
X139256785Y-128722380D02*
X139256785Y-127722380D01*
X139256785Y-128674761D02*
X139352023Y-128722380D01*
X139542500Y-128722380D01*
X139637738Y-128674761D01*
X139685357Y-128627142D01*
X139732976Y-128531904D01*
X139732976Y-128246190D01*
X139685357Y-128150952D01*
X139637738Y-128103333D01*
X139542500Y-128055714D01*
X139352023Y-128055714D01*
X139256785Y-128103333D01*
X138780595Y-128722380D02*
X138780595Y-128055714D01*
X138780595Y-128246190D02*
X138732976Y-128150952D01*
X138685357Y-128103333D01*
X138590119Y-128055714D01*
X138494880Y-128055714D01*
X138161547Y-128722380D02*
X138161547Y-128055714D01*
X138161547Y-127722380D02*
X138209166Y-127770000D01*
X138161547Y-127817619D01*
X138113928Y-127770000D01*
X138161547Y-127722380D01*
X138161547Y-127817619D01*
X137780595Y-128055714D02*
X137542500Y-128722380D01*
X137304404Y-128055714D01*
X136542500Y-128674761D02*
X136637738Y-128722380D01*
X136828214Y-128722380D01*
X136923452Y-128674761D01*
X136971071Y-128579523D01*
X136971071Y-128198571D01*
X136923452Y-128103333D01*
X136828214Y-128055714D01*
X136637738Y-128055714D01*
X136542500Y-128103333D01*
X136494880Y-128198571D01*
X136494880Y-128293809D01*
X136971071Y-128389047D01*
X136113928Y-128674761D02*
X136018690Y-128722380D01*
X135828214Y-128722380D01*
X135732976Y-128674761D01*
X135685357Y-128579523D01*
X135685357Y-128531904D01*
X135732976Y-128436666D01*
X135828214Y-128389047D01*
X135971071Y-128389047D01*
X136066309Y-128341428D01*
X136113928Y-128246190D01*
X136113928Y-128198571D01*
X136066309Y-128103333D01*
X135971071Y-128055714D01*
X135828214Y-128055714D01*
X135732976Y-128103333D01*
X135256785Y-128627142D02*
X135209166Y-128674761D01*
X135256785Y-128722380D01*
X135304404Y-128674761D01*
X135256785Y-128627142D01*
X135256785Y-128722380D01*
X167399642Y-129372380D02*
X167161547Y-130372380D01*
X166971071Y-129658095D01*
X166780595Y-130372380D01*
X166542500Y-129372380D01*
X166161547Y-130372380D02*
X166161547Y-129372380D01*
X165732976Y-130372380D02*
X165732976Y-129848571D01*
X165780595Y-129753333D01*
X165875833Y-129705714D01*
X166018690Y-129705714D01*
X166113928Y-129753333D01*
X166161547Y-129800952D01*
X164875833Y-130324761D02*
X164971071Y-130372380D01*
X165161547Y-130372380D01*
X165256785Y-130324761D01*
X165304404Y-130229523D01*
X165304404Y-129848571D01*
X165256785Y-129753333D01*
X165161547Y-129705714D01*
X164971071Y-129705714D01*
X164875833Y-129753333D01*
X164828214Y-129848571D01*
X164828214Y-129943809D01*
X165304404Y-130039047D01*
X164399642Y-129705714D02*
X164399642Y-130372380D01*
X164399642Y-129800952D02*
X164352023Y-129753333D01*
X164256785Y-129705714D01*
X164113928Y-129705714D01*
X164018690Y-129753333D01*
X163971071Y-129848571D01*
X163971071Y-130372380D01*
X162780595Y-130324761D02*
X162685357Y-130372380D01*
X162494880Y-130372380D01*
X162399642Y-130324761D01*
X162352023Y-130229523D01*
X162352023Y-130181904D01*
X162399642Y-130086666D01*
X162494880Y-130039047D01*
X162637738Y-130039047D01*
X162732976Y-129991428D01*
X162780595Y-129896190D01*
X162780595Y-129848571D01*
X162732976Y-129753333D01*
X162637738Y-129705714D01*
X162494880Y-129705714D01*
X162399642Y-129753333D01*
X161542500Y-130324761D02*
X161637738Y-130372380D01*
X161828214Y-130372380D01*
X161923452Y-130324761D01*
X161971071Y-130229523D01*
X161971071Y-129848571D01*
X161923452Y-129753333D01*
X161828214Y-129705714D01*
X161637738Y-129705714D01*
X161542500Y-129753333D01*
X161494880Y-129848571D01*
X161494880Y-129943809D01*
X161971071Y-130039047D01*
X161209166Y-129705714D02*
X160828214Y-129705714D01*
X161066309Y-129372380D02*
X161066309Y-130229523D01*
X161018690Y-130324761D01*
X160923452Y-130372380D01*
X160828214Y-130372380D01*
X159875833Y-129705714D02*
X159494880Y-129705714D01*
X159732976Y-129372380D02*
X159732976Y-130229523D01*
X159685357Y-130324761D01*
X159590119Y-130372380D01*
X159494880Y-130372380D01*
X159018690Y-130372380D02*
X159113928Y-130324761D01*
X159161547Y-130277142D01*
X159209166Y-130181904D01*
X159209166Y-129896190D01*
X159161547Y-129800952D01*
X159113928Y-129753333D01*
X159018690Y-129705714D01*
X158875833Y-129705714D01*
X158780595Y-129753333D01*
X158732976Y-129800952D01*
X158685357Y-129896190D01*
X158685357Y-130181904D01*
X158732976Y-130277142D01*
X158780595Y-130324761D01*
X158875833Y-130372380D01*
X159018690Y-130372380D01*
X157494880Y-129705714D02*
X157494880Y-130705714D01*
X157494880Y-129753333D02*
X157399642Y-129705714D01*
X157209166Y-129705714D01*
X157113928Y-129753333D01*
X157066309Y-129800952D01*
X157018690Y-129896190D01*
X157018690Y-130181904D01*
X157066309Y-130277142D01*
X157113928Y-130324761D01*
X157209166Y-130372380D01*
X157399642Y-130372380D01*
X157494880Y-130324761D01*
X156590119Y-130372380D02*
X156590119Y-129705714D01*
X156590119Y-129896190D02*
X156542500Y-129800952D01*
X156494880Y-129753333D01*
X156399642Y-129705714D01*
X156304404Y-129705714D01*
X155971071Y-130372380D02*
X155971071Y-129705714D01*
X155971071Y-129372380D02*
X156018690Y-129420000D01*
X155971071Y-129467619D01*
X155923452Y-129420000D01*
X155971071Y-129372380D01*
X155971071Y-129467619D01*
X155494880Y-130372380D02*
X155494880Y-129705714D01*
X155494880Y-129800952D02*
X155447261Y-129753333D01*
X155352023Y-129705714D01*
X155209166Y-129705714D01*
X155113928Y-129753333D01*
X155066309Y-129848571D01*
X155066309Y-130372380D01*
X155066309Y-129848571D02*
X155018690Y-129753333D01*
X154923452Y-129705714D01*
X154780595Y-129705714D01*
X154685357Y-129753333D01*
X154637738Y-129848571D01*
X154637738Y-130372380D01*
X153732976Y-130372380D02*
X153732976Y-129848571D01*
X153780595Y-129753333D01*
X153875833Y-129705714D01*
X154066309Y-129705714D01*
X154161547Y-129753333D01*
X153732976Y-130324761D02*
X153828214Y-130372380D01*
X154066309Y-130372380D01*
X154161547Y-130324761D01*
X154209166Y-130229523D01*
X154209166Y-130134285D01*
X154161547Y-130039047D01*
X154066309Y-129991428D01*
X153828214Y-129991428D01*
X153732976Y-129943809D01*
X153256785Y-130372380D02*
X153256785Y-129705714D01*
X153256785Y-129896190D02*
X153209166Y-129800952D01*
X153161547Y-129753333D01*
X153066309Y-129705714D01*
X152971071Y-129705714D01*
X152732976Y-129705714D02*
X152494880Y-130372380D01*
X152256785Y-129705714D02*
X152494880Y-130372380D01*
X152590119Y-130610476D01*
X152637738Y-130658095D01*
X152732976Y-130705714D01*
X151828214Y-130324761D02*
X151828214Y-130372380D01*
X151875833Y-130467619D01*
X151923452Y-130515238D01*
X150304404Y-129848571D02*
X150161547Y-129896190D01*
X150113928Y-129943809D01*
X150066309Y-130039047D01*
X150066309Y-130181904D01*
X150113928Y-130277142D01*
X150161547Y-130324761D01*
X150256785Y-130372380D01*
X150637738Y-130372380D01*
X150637738Y-129372380D01*
X150304404Y-129372380D01*
X150209166Y-129420000D01*
X150161547Y-129467619D01*
X150113928Y-129562857D01*
X150113928Y-129658095D01*
X150161547Y-129753333D01*
X150209166Y-129800952D01*
X150304404Y-129848571D01*
X150637738Y-129848571D01*
X149637738Y-130372380D02*
X149637738Y-129372380D01*
X148971071Y-129372380D02*
X148780595Y-129372380D01*
X148685357Y-129420000D01*
X148590119Y-129515238D01*
X148542500Y-129705714D01*
X148542500Y-130039047D01*
X148590119Y-130229523D01*
X148685357Y-130324761D01*
X148780595Y-130372380D01*
X148971071Y-130372380D01*
X149066309Y-130324761D01*
X149161547Y-130229523D01*
X149209166Y-130039047D01*
X149209166Y-129705714D01*
X149161547Y-129515238D01*
X149066309Y-129420000D01*
X148971071Y-129372380D01*
X148161547Y-130324761D02*
X148018690Y-130372380D01*
X147780595Y-130372380D01*
X147685357Y-130324761D01*
X147637738Y-130277142D01*
X147590119Y-130181904D01*
X147590119Y-130086666D01*
X147637738Y-129991428D01*
X147685357Y-129943809D01*
X147780595Y-129896190D01*
X147971071Y-129848571D01*
X148066309Y-129800952D01*
X148113928Y-129753333D01*
X148161547Y-129658095D01*
X148161547Y-129562857D01*
X148113928Y-129467619D01*
X148066309Y-129420000D01*
X147971071Y-129372380D01*
X147732976Y-129372380D01*
X147590119Y-129420000D01*
X145971071Y-130372380D02*
X145971071Y-129848571D01*
X146018690Y-129753333D01*
X146113928Y-129705714D01*
X146304404Y-129705714D01*
X146399642Y-129753333D01*
X145971071Y-130324761D02*
X146066309Y-130372380D01*
X146304404Y-130372380D01*
X146399642Y-130324761D01*
X146447261Y-130229523D01*
X146447261Y-130134285D01*
X146399642Y-130039047D01*
X146304404Y-129991428D01*
X146066309Y-129991428D01*
X145971071Y-129943809D01*
X145066309Y-130372380D02*
X145066309Y-129372380D01*
X145066309Y-130324761D02*
X145161547Y-130372380D01*
X145352023Y-130372380D01*
X145447261Y-130324761D01*
X145494880Y-130277142D01*
X145542500Y-130181904D01*
X145542500Y-129896190D01*
X145494880Y-129800952D01*
X145447261Y-129753333D01*
X145352023Y-129705714D01*
X145161547Y-129705714D01*
X145066309Y-129753333D01*
X144161547Y-130372380D02*
X144161547Y-129372380D01*
X144161547Y-130324761D02*
X144256785Y-130372380D01*
X144447261Y-130372380D01*
X144542500Y-130324761D01*
X144590119Y-130277142D01*
X144637738Y-130181904D01*
X144637738Y-129896190D01*
X144590119Y-129800952D01*
X144542500Y-129753333D01*
X144447261Y-129705714D01*
X144256785Y-129705714D01*
X144161547Y-129753333D01*
X143685357Y-130372380D02*
X143685357Y-129705714D01*
X143685357Y-129896190D02*
X143637738Y-129800952D01*
X143590119Y-129753333D01*
X143494880Y-129705714D01*
X143399642Y-129705714D01*
X142685357Y-130324761D02*
X142780595Y-130372380D01*
X142971071Y-130372380D01*
X143066309Y-130324761D01*
X143113928Y-130229523D01*
X143113928Y-129848571D01*
X143066309Y-129753333D01*
X142971071Y-129705714D01*
X142780595Y-129705714D01*
X142685357Y-129753333D01*
X142637738Y-129848571D01*
X142637738Y-129943809D01*
X143113928Y-130039047D01*
X142256785Y-130324761D02*
X142161547Y-130372380D01*
X141971071Y-130372380D01*
X141875833Y-130324761D01*
X141828214Y-130229523D01*
X141828214Y-130181904D01*
X141875833Y-130086666D01*
X141971071Y-130039047D01*
X142113928Y-130039047D01*
X142209166Y-129991428D01*
X142256785Y-129896190D01*
X142256785Y-129848571D01*
X142209166Y-129753333D01*
X142113928Y-129705714D01*
X141971071Y-129705714D01*
X141875833Y-129753333D01*
X141447261Y-130324761D02*
X141352023Y-130372380D01*
X141161547Y-130372380D01*
X141066309Y-130324761D01*
X141018690Y-130229523D01*
X141018690Y-130181904D01*
X141066309Y-130086666D01*
X141161547Y-130039047D01*
X141304404Y-130039047D01*
X141399642Y-129991428D01*
X141447261Y-129896190D01*
X141447261Y-129848571D01*
X141399642Y-129753333D01*
X141304404Y-129705714D01*
X141161547Y-129705714D01*
X141066309Y-129753333D01*
X139828214Y-130372380D02*
X139828214Y-129705714D01*
X139828214Y-129372380D02*
X139875833Y-129420000D01*
X139828214Y-129467619D01*
X139780595Y-129420000D01*
X139828214Y-129372380D01*
X139828214Y-129467619D01*
X139399642Y-130324761D02*
X139304404Y-130372380D01*
X139113928Y-130372380D01*
X139018690Y-130324761D01*
X138971071Y-130229523D01*
X138971071Y-130181904D01*
X139018690Y-130086666D01*
X139113928Y-130039047D01*
X139256785Y-130039047D01*
X139352023Y-129991428D01*
X139399642Y-129896190D01*
X139399642Y-129848571D01*
X139352023Y-129753333D01*
X139256785Y-129705714D01*
X139113928Y-129705714D01*
X139018690Y-129753333D01*
X137209166Y-130277142D02*
X137256785Y-130324761D01*
X137399642Y-130372380D01*
X137494880Y-130372380D01*
X137637738Y-130324761D01*
X137732976Y-130229523D01*
X137780595Y-130134285D01*
X137828214Y-129943809D01*
X137828214Y-129800952D01*
X137780595Y-129610476D01*
X137732976Y-129515238D01*
X137637738Y-129420000D01*
X137494880Y-129372380D01*
X137399642Y-129372380D01*
X137256785Y-129420000D01*
X137209166Y-129467619D01*
X136637738Y-129800952D02*
X136732976Y-129753333D01*
X136780595Y-129705714D01*
X136828214Y-129610476D01*
X136828214Y-129562857D01*
X136780595Y-129467619D01*
X136732976Y-129420000D01*
X136637738Y-129372380D01*
X136447261Y-129372380D01*
X136352023Y-129420000D01*
X136304404Y-129467619D01*
X136256785Y-129562857D01*
X136256785Y-129610476D01*
X136304404Y-129705714D01*
X136352023Y-129753333D01*
X136447261Y-129800952D01*
X136637738Y-129800952D01*
X136732976Y-129848571D01*
X136780595Y-129896190D01*
X136828214Y-129991428D01*
X136828214Y-130181904D01*
X136780595Y-130277142D01*
X136732976Y-130324761D01*
X136637738Y-130372380D01*
X136447261Y-130372380D01*
X136352023Y-130324761D01*
X136304404Y-130277142D01*
X136256785Y-130181904D01*
X136256785Y-129991428D01*
X136304404Y-129896190D01*
X136352023Y-129848571D01*
X136447261Y-129800952D01*
X135637738Y-129372380D02*
X135542500Y-129372380D01*
X135447261Y-129420000D01*
X135399642Y-129467619D01*
X135352023Y-129562857D01*
X135304404Y-129753333D01*
X135304404Y-129991428D01*
X135352023Y-130181904D01*
X135399642Y-130277142D01*
X135447261Y-130324761D01*
X135542500Y-130372380D01*
X135637738Y-130372380D01*
X135732976Y-130324761D01*
X135780595Y-130277142D01*
X135828214Y-130181904D01*
X135875833Y-129991428D01*
X135875833Y-129753333D01*
X135828214Y-129562857D01*
X135780595Y-129467619D01*
X135732976Y-129420000D01*
X135637738Y-129372380D01*
X134685357Y-129372380D02*
X134590119Y-129372380D01*
X134494880Y-129420000D01*
X134447261Y-129467619D01*
X134399642Y-129562857D01*
X134352023Y-129753333D01*
X134352023Y-129991428D01*
X134399642Y-130181904D01*
X134447261Y-130277142D01*
X134494880Y-130324761D01*
X134590119Y-130372380D01*
X134685357Y-130372380D01*
X134780595Y-130324761D01*
X134828214Y-130277142D01*
X134875833Y-130181904D01*
X134923452Y-129991428D01*
X134923452Y-129753333D01*
X134875833Y-129562857D01*
X134828214Y-129467619D01*
X134780595Y-129420000D01*
X134685357Y-129372380D01*
X132732976Y-130372380D02*
X132732976Y-129848571D01*
X132780595Y-129753333D01*
X132875833Y-129705714D01*
X133066309Y-129705714D01*
X133161547Y-129753333D01*
X132732976Y-130324761D02*
X132828214Y-130372380D01*
X133066309Y-130372380D01*
X133161547Y-130324761D01*
X133209166Y-130229523D01*
X133209166Y-130134285D01*
X133161547Y-130039047D01*
X133066309Y-129991428D01*
X132828214Y-129991428D01*
X132732976Y-129943809D01*
X132256785Y-129705714D02*
X132256785Y-130372380D01*
X132256785Y-129800952D02*
X132209166Y-129753333D01*
X132113928Y-129705714D01*
X131971071Y-129705714D01*
X131875833Y-129753333D01*
X131828214Y-129848571D01*
X131828214Y-130372380D01*
X130923452Y-130372380D02*
X130923452Y-129372380D01*
X130923452Y-130324761D02*
X131018690Y-130372380D01*
X131209166Y-130372380D01*
X131304404Y-130324761D01*
X131352023Y-130277142D01*
X131399642Y-130181904D01*
X131399642Y-129896190D01*
X131352023Y-129800952D01*
X131304404Y-129753333D01*
X131209166Y-129705714D01*
X131018690Y-129705714D01*
X130923452Y-129753333D01*
X129685357Y-129705714D02*
X129685357Y-130705714D01*
X129685357Y-129753333D02*
X129590119Y-129705714D01*
X129399642Y-129705714D01*
X129304404Y-129753333D01*
X129256785Y-129800952D01*
X129209166Y-129896190D01*
X129209166Y-130181904D01*
X129256785Y-130277142D01*
X129304404Y-130324761D01*
X129399642Y-130372380D01*
X129590119Y-130372380D01*
X129685357Y-130324761D01*
X128637738Y-130372380D02*
X128732976Y-130324761D01*
X128780595Y-130277142D01*
X128828214Y-130181904D01*
X128828214Y-129896190D01*
X128780595Y-129800952D01*
X128732976Y-129753333D01*
X128637738Y-129705714D01*
X128494880Y-129705714D01*
X128399642Y-129753333D01*
X128352023Y-129800952D01*
X128304404Y-129896190D01*
X128304404Y-130181904D01*
X128352023Y-130277142D01*
X128399642Y-130324761D01*
X128494880Y-130372380D01*
X128637738Y-130372380D01*
X127875833Y-130372380D02*
X127875833Y-129705714D01*
X127875833Y-129896190D02*
X127828214Y-129800952D01*
X127780595Y-129753333D01*
X127685357Y-129705714D01*
X127590119Y-129705714D01*
X127399642Y-129705714D02*
X127018690Y-129705714D01*
X127256785Y-129372380D02*
X127256785Y-130229523D01*
X127209166Y-130324761D01*
X127113928Y-130372380D01*
X127018690Y-130372380D01*
X125923452Y-130372380D02*
X125923452Y-129705714D01*
X125923452Y-129372380D02*
X125971071Y-129420000D01*
X125923452Y-129467619D01*
X125875833Y-129420000D01*
X125923452Y-129372380D01*
X125923452Y-129467619D01*
X125494880Y-130324761D02*
X125399642Y-130372380D01*
X125209166Y-130372380D01*
X125113928Y-130324761D01*
X125066309Y-130229523D01*
X125066309Y-130181904D01*
X125113928Y-130086666D01*
X125209166Y-130039047D01*
X125352023Y-130039047D01*
X125447261Y-129991428D01*
X125494880Y-129896190D01*
X125494880Y-129848571D01*
X125447261Y-129753333D01*
X125352023Y-129705714D01*
X125209166Y-129705714D01*
X125113928Y-129753333D01*
X123971071Y-129372380D02*
X123352023Y-129372380D01*
X123685357Y-129753333D01*
X123542500Y-129753333D01*
X123447261Y-129800952D01*
X123399642Y-129848571D01*
X123352023Y-129943809D01*
X123352023Y-130181904D01*
X123399642Y-130277142D01*
X123447261Y-130324761D01*
X123542500Y-130372380D01*
X123828214Y-130372380D01*
X123923452Y-130324761D01*
X123971071Y-130277142D01*
X122971071Y-129467619D02*
X122923452Y-129420000D01*
X122828214Y-129372380D01*
X122590119Y-129372380D01*
X122494880Y-129420000D01*
X122447261Y-129467619D01*
X122399642Y-129562857D01*
X122399642Y-129658095D01*
X122447261Y-129800952D01*
X123018690Y-130372380D01*
X122399642Y-130372380D01*
X121780595Y-129372380D02*
X121685357Y-129372380D01*
X121590119Y-129420000D01*
X121542500Y-129467619D01*
X121494880Y-129562857D01*
X121447261Y-129753333D01*
X121447261Y-129991428D01*
X121494880Y-130181904D01*
X121542500Y-130277142D01*
X121590119Y-130324761D01*
X121685357Y-130372380D01*
X121780595Y-130372380D01*
X121875833Y-130324761D01*
X121923452Y-130277142D01*
X121971071Y-130181904D01*
X122018690Y-129991428D01*
X122018690Y-129753333D01*
X121971071Y-129562857D01*
X121923452Y-129467619D01*
X121875833Y-129420000D01*
X121780595Y-129372380D01*
X121018690Y-130277142D02*
X120971071Y-130324761D01*
X121018690Y-130372380D01*
X121066309Y-130324761D01*
X121018690Y-130277142D01*
X121018690Y-130372380D01*
X167399642Y-131022380D02*
X167161547Y-132022380D01*
X166971071Y-131308095D01*
X166780595Y-132022380D01*
X166542500Y-131022380D01*
X166161547Y-132022380D02*
X166161547Y-131022380D01*
X165732976Y-132022380D02*
X165732976Y-131498571D01*
X165780595Y-131403333D01*
X165875833Y-131355714D01*
X166018690Y-131355714D01*
X166113928Y-131403333D01*
X166161547Y-131450952D01*
X164875833Y-131974761D02*
X164971071Y-132022380D01*
X165161547Y-132022380D01*
X165256785Y-131974761D01*
X165304404Y-131879523D01*
X165304404Y-131498571D01*
X165256785Y-131403333D01*
X165161547Y-131355714D01*
X164971071Y-131355714D01*
X164875833Y-131403333D01*
X164828214Y-131498571D01*
X164828214Y-131593809D01*
X165304404Y-131689047D01*
X164399642Y-131355714D02*
X164399642Y-132022380D01*
X164399642Y-131450952D02*
X164352023Y-131403333D01*
X164256785Y-131355714D01*
X164113928Y-131355714D01*
X164018690Y-131403333D01*
X163971071Y-131498571D01*
X163971071Y-132022380D01*
X162780595Y-131974761D02*
X162685357Y-132022380D01*
X162494880Y-132022380D01*
X162399642Y-131974761D01*
X162352023Y-131879523D01*
X162352023Y-131831904D01*
X162399642Y-131736666D01*
X162494880Y-131689047D01*
X162637738Y-131689047D01*
X162732976Y-131641428D01*
X162780595Y-131546190D01*
X162780595Y-131498571D01*
X162732976Y-131403333D01*
X162637738Y-131355714D01*
X162494880Y-131355714D01*
X162399642Y-131403333D01*
X161542500Y-131974761D02*
X161637738Y-132022380D01*
X161828214Y-132022380D01*
X161923452Y-131974761D01*
X161971071Y-131879523D01*
X161971071Y-131498571D01*
X161923452Y-131403333D01*
X161828214Y-131355714D01*
X161637738Y-131355714D01*
X161542500Y-131403333D01*
X161494880Y-131498571D01*
X161494880Y-131593809D01*
X161971071Y-131689047D01*
X161209166Y-131355714D02*
X160828214Y-131355714D01*
X161066309Y-131022380D02*
X161066309Y-131879523D01*
X161018690Y-131974761D01*
X160923452Y-132022380D01*
X160828214Y-132022380D01*
X159875833Y-131355714D02*
X159494880Y-131355714D01*
X159732976Y-131022380D02*
X159732976Y-131879523D01*
X159685357Y-131974761D01*
X159590119Y-132022380D01*
X159494880Y-132022380D01*
X159018690Y-132022380D02*
X159113928Y-131974761D01*
X159161547Y-131927142D01*
X159209166Y-131831904D01*
X159209166Y-131546190D01*
X159161547Y-131450952D01*
X159113928Y-131403333D01*
X159018690Y-131355714D01*
X158875833Y-131355714D01*
X158780595Y-131403333D01*
X158732976Y-131450952D01*
X158685357Y-131546190D01*
X158685357Y-131831904D01*
X158732976Y-131927142D01*
X158780595Y-131974761D01*
X158875833Y-132022380D01*
X159018690Y-132022380D01*
X157542500Y-131974761D02*
X157447261Y-132022380D01*
X157256785Y-132022380D01*
X157161547Y-131974761D01*
X157113928Y-131879523D01*
X157113928Y-131831904D01*
X157161547Y-131736666D01*
X157256785Y-131689047D01*
X157399642Y-131689047D01*
X157494880Y-131641428D01*
X157542500Y-131546190D01*
X157542500Y-131498571D01*
X157494880Y-131403333D01*
X157399642Y-131355714D01*
X157256785Y-131355714D01*
X157161547Y-131403333D01*
X156304404Y-131974761D02*
X156399642Y-132022380D01*
X156590119Y-132022380D01*
X156685357Y-131974761D01*
X156732976Y-131879523D01*
X156732976Y-131498571D01*
X156685357Y-131403333D01*
X156590119Y-131355714D01*
X156399642Y-131355714D01*
X156304404Y-131403333D01*
X156256785Y-131498571D01*
X156256785Y-131593809D01*
X156732976Y-131689047D01*
X155399642Y-131974761D02*
X155494880Y-132022380D01*
X155685357Y-132022380D01*
X155780595Y-131974761D01*
X155828214Y-131927142D01*
X155875833Y-131831904D01*
X155875833Y-131546190D01*
X155828214Y-131450952D01*
X155780595Y-131403333D01*
X155685357Y-131355714D01*
X155494880Y-131355714D01*
X155399642Y-131403333D01*
X154828214Y-132022380D02*
X154923452Y-131974761D01*
X154971071Y-131927142D01*
X155018690Y-131831904D01*
X155018690Y-131546190D01*
X154971071Y-131450952D01*
X154923452Y-131403333D01*
X154828214Y-131355714D01*
X154685357Y-131355714D01*
X154590119Y-131403333D01*
X154542500Y-131450952D01*
X154494880Y-131546190D01*
X154494880Y-131831904D01*
X154542500Y-131927142D01*
X154590119Y-131974761D01*
X154685357Y-132022380D01*
X154828214Y-132022380D01*
X154066309Y-131355714D02*
X154066309Y-132022380D01*
X154066309Y-131450952D02*
X154018690Y-131403333D01*
X153923452Y-131355714D01*
X153780595Y-131355714D01*
X153685357Y-131403333D01*
X153637738Y-131498571D01*
X153637738Y-132022380D01*
X152732976Y-132022380D02*
X152732976Y-131022380D01*
X152732976Y-131974761D02*
X152828214Y-132022380D01*
X153018690Y-132022380D01*
X153113928Y-131974761D01*
X153161547Y-131927142D01*
X153209166Y-131831904D01*
X153209166Y-131546190D01*
X153161547Y-131450952D01*
X153113928Y-131403333D01*
X153018690Y-131355714D01*
X152828214Y-131355714D01*
X152732976Y-131403333D01*
X151828214Y-132022380D02*
X151828214Y-131498571D01*
X151875833Y-131403333D01*
X151971071Y-131355714D01*
X152161547Y-131355714D01*
X152256785Y-131403333D01*
X151828214Y-131974761D02*
X151923452Y-132022380D01*
X152161547Y-132022380D01*
X152256785Y-131974761D01*
X152304404Y-131879523D01*
X152304404Y-131784285D01*
X152256785Y-131689047D01*
X152161547Y-131641428D01*
X151923452Y-131641428D01*
X151828214Y-131593809D01*
X151352023Y-132022380D02*
X151352023Y-131355714D01*
X151352023Y-131546190D02*
X151304404Y-131450952D01*
X151256785Y-131403333D01*
X151161547Y-131355714D01*
X151066309Y-131355714D01*
X150828214Y-131355714D02*
X150590119Y-132022380D01*
X150352023Y-131355714D02*
X150590119Y-132022380D01*
X150685357Y-132260476D01*
X150732976Y-132308095D01*
X150828214Y-132355714D01*
X149923452Y-131974761D02*
X149923452Y-132022380D01*
X149971071Y-132117619D01*
X150018690Y-132165238D01*
X148399642Y-131498571D02*
X148256785Y-131546190D01*
X148209166Y-131593809D01*
X148161547Y-131689047D01*
X148161547Y-131831904D01*
X148209166Y-131927142D01*
X148256785Y-131974761D01*
X148352023Y-132022380D01*
X148732976Y-132022380D01*
X148732976Y-131022380D01*
X148399642Y-131022380D01*
X148304404Y-131070000D01*
X148256785Y-131117619D01*
X148209166Y-131212857D01*
X148209166Y-131308095D01*
X148256785Y-131403333D01*
X148304404Y-131450952D01*
X148399642Y-131498571D01*
X148732976Y-131498571D01*
X147732976Y-132022380D02*
X147732976Y-131022380D01*
X147066309Y-131022380D02*
X146875833Y-131022380D01*
X146780595Y-131070000D01*
X146685357Y-131165238D01*
X146637738Y-131355714D01*
X146637738Y-131689047D01*
X146685357Y-131879523D01*
X146780595Y-131974761D01*
X146875833Y-132022380D01*
X147066309Y-132022380D01*
X147161547Y-131974761D01*
X147256785Y-131879523D01*
X147304404Y-131689047D01*
X147304404Y-131355714D01*
X147256785Y-131165238D01*
X147161547Y-131070000D01*
X147066309Y-131022380D01*
X146256785Y-131974761D02*
X146113928Y-132022380D01*
X145875833Y-132022380D01*
X145780595Y-131974761D01*
X145732976Y-131927142D01*
X145685357Y-131831904D01*
X145685357Y-131736666D01*
X145732976Y-131641428D01*
X145780595Y-131593809D01*
X145875833Y-131546190D01*
X146066309Y-131498571D01*
X146161547Y-131450952D01*
X146209166Y-131403333D01*
X146256785Y-131308095D01*
X146256785Y-131212857D01*
X146209166Y-131117619D01*
X146161547Y-131070000D01*
X146066309Y-131022380D01*
X145828214Y-131022380D01*
X145685357Y-131070000D01*
X144066309Y-132022380D02*
X144066309Y-131498571D01*
X144113928Y-131403333D01*
X144209166Y-131355714D01*
X144399642Y-131355714D01*
X144494880Y-131403333D01*
X144066309Y-131974761D02*
X144161547Y-132022380D01*
X144399642Y-132022380D01*
X144494880Y-131974761D01*
X144542500Y-131879523D01*
X144542500Y-131784285D01*
X144494880Y-131689047D01*
X144399642Y-131641428D01*
X144161547Y-131641428D01*
X144066309Y-131593809D01*
X143161547Y-132022380D02*
X143161547Y-131022380D01*
X143161547Y-131974761D02*
X143256785Y-132022380D01*
X143447261Y-132022380D01*
X143542500Y-131974761D01*
X143590119Y-131927142D01*
X143637738Y-131831904D01*
X143637738Y-131546190D01*
X143590119Y-131450952D01*
X143542500Y-131403333D01*
X143447261Y-131355714D01*
X143256785Y-131355714D01*
X143161547Y-131403333D01*
X142256785Y-132022380D02*
X142256785Y-131022380D01*
X142256785Y-131974761D02*
X142352023Y-132022380D01*
X142542500Y-132022380D01*
X142637738Y-131974761D01*
X142685357Y-131927142D01*
X142732976Y-131831904D01*
X142732976Y-131546190D01*
X142685357Y-131450952D01*
X142637738Y-131403333D01*
X142542500Y-131355714D01*
X142352023Y-131355714D01*
X142256785Y-131403333D01*
X141780595Y-132022380D02*
X141780595Y-131355714D01*
X141780595Y-131546190D02*
X141732976Y-131450952D01*
X141685357Y-131403333D01*
X141590119Y-131355714D01*
X141494880Y-131355714D01*
X140780595Y-131974761D02*
X140875833Y-132022380D01*
X141066309Y-132022380D01*
X141161547Y-131974761D01*
X141209166Y-131879523D01*
X141209166Y-131498571D01*
X141161547Y-131403333D01*
X141066309Y-131355714D01*
X140875833Y-131355714D01*
X140780595Y-131403333D01*
X140732976Y-131498571D01*
X140732976Y-131593809D01*
X141209166Y-131689047D01*
X140352023Y-131974761D02*
X140256785Y-132022380D01*
X140066309Y-132022380D01*
X139971071Y-131974761D01*
X139923452Y-131879523D01*
X139923452Y-131831904D01*
X139971071Y-131736666D01*
X140066309Y-131689047D01*
X140209166Y-131689047D01*
X140304404Y-131641428D01*
X140352023Y-131546190D01*
X140352023Y-131498571D01*
X140304404Y-131403333D01*
X140209166Y-131355714D01*
X140066309Y-131355714D01*
X139971071Y-131403333D01*
X139542500Y-131974761D02*
X139447261Y-132022380D01*
X139256785Y-132022380D01*
X139161547Y-131974761D01*
X139113928Y-131879523D01*
X139113928Y-131831904D01*
X139161547Y-131736666D01*
X139256785Y-131689047D01*
X139399642Y-131689047D01*
X139494880Y-131641428D01*
X139542500Y-131546190D01*
X139542500Y-131498571D01*
X139494880Y-131403333D01*
X139399642Y-131355714D01*
X139256785Y-131355714D01*
X139161547Y-131403333D01*
X137923452Y-132022380D02*
X137923452Y-131355714D01*
X137923452Y-131022380D02*
X137971071Y-131070000D01*
X137923452Y-131117619D01*
X137875833Y-131070000D01*
X137923452Y-131022380D01*
X137923452Y-131117619D01*
X137494880Y-131974761D02*
X137399642Y-132022380D01*
X137209166Y-132022380D01*
X137113928Y-131974761D01*
X137066309Y-131879523D01*
X137066309Y-131831904D01*
X137113928Y-131736666D01*
X137209166Y-131689047D01*
X137352023Y-131689047D01*
X137447261Y-131641428D01*
X137494880Y-131546190D01*
X137494880Y-131498571D01*
X137447261Y-131403333D01*
X137352023Y-131355714D01*
X137209166Y-131355714D01*
X137113928Y-131403333D01*
X135304404Y-131927142D02*
X135352023Y-131974761D01*
X135494880Y-132022380D01*
X135590119Y-132022380D01*
X135732976Y-131974761D01*
X135828214Y-131879523D01*
X135875833Y-131784285D01*
X135923452Y-131593809D01*
X135923452Y-131450952D01*
X135875833Y-131260476D01*
X135828214Y-131165238D01*
X135732976Y-131070000D01*
X135590119Y-131022380D01*
X135494880Y-131022380D01*
X135352023Y-131070000D01*
X135304404Y-131117619D01*
X134923452Y-131736666D02*
X134447261Y-131736666D01*
X135018690Y-132022380D02*
X134685357Y-131022380D01*
X134352023Y-132022380D01*
X133828214Y-131022380D02*
X133732976Y-131022380D01*
X133637738Y-131070000D01*
X133590119Y-131117619D01*
X133542500Y-131212857D01*
X133494880Y-131403333D01*
X133494880Y-131641428D01*
X133542500Y-131831904D01*
X133590119Y-131927142D01*
X133637738Y-131974761D01*
X133732976Y-132022380D01*
X133828214Y-132022380D01*
X133923452Y-131974761D01*
X133971071Y-131927142D01*
X134018690Y-131831904D01*
X134066309Y-131641428D01*
X134066309Y-131403333D01*
X134018690Y-131212857D01*
X133971071Y-131117619D01*
X133923452Y-131070000D01*
X133828214Y-131022380D01*
X132875833Y-131022380D02*
X132780595Y-131022380D01*
X132685357Y-131070000D01*
X132637738Y-131117619D01*
X132590119Y-131212857D01*
X132542500Y-131403333D01*
X132542500Y-131641428D01*
X132590119Y-131831904D01*
X132637738Y-131927142D01*
X132685357Y-131974761D01*
X132780595Y-132022380D01*
X132875833Y-132022380D01*
X132971071Y-131974761D01*
X133018690Y-131927142D01*
X133066309Y-131831904D01*
X133113928Y-131641428D01*
X133113928Y-131403333D01*
X133066309Y-131212857D01*
X133018690Y-131117619D01*
X132971071Y-131070000D01*
X132875833Y-131022380D01*
X130923452Y-132022380D02*
X130923452Y-131498571D01*
X130971071Y-131403333D01*
X131066309Y-131355714D01*
X131256785Y-131355714D01*
X131352023Y-131403333D01*
X130923452Y-131974761D02*
X131018690Y-132022380D01*
X131256785Y-132022380D01*
X131352023Y-131974761D01*
X131399642Y-131879523D01*
X131399642Y-131784285D01*
X131352023Y-131689047D01*
X131256785Y-131641428D01*
X131018690Y-131641428D01*
X130923452Y-131593809D01*
X130447261Y-131355714D02*
X130447261Y-132022380D01*
X130447261Y-131450952D02*
X130399642Y-131403333D01*
X130304404Y-131355714D01*
X130161547Y-131355714D01*
X130066309Y-131403333D01*
X130018690Y-131498571D01*
X130018690Y-132022380D01*
X129113928Y-132022380D02*
X129113928Y-131022380D01*
X129113928Y-131974761D02*
X129209166Y-132022380D01*
X129399642Y-132022380D01*
X129494880Y-131974761D01*
X129542500Y-131927142D01*
X129590119Y-131831904D01*
X129590119Y-131546190D01*
X129542500Y-131450952D01*
X129494880Y-131403333D01*
X129399642Y-131355714D01*
X129209166Y-131355714D01*
X129113928Y-131403333D01*
X127875833Y-131355714D02*
X127875833Y-132355714D01*
X127875833Y-131403333D02*
X127780595Y-131355714D01*
X127590119Y-131355714D01*
X127494880Y-131403333D01*
X127447261Y-131450952D01*
X127399642Y-131546190D01*
X127399642Y-131831904D01*
X127447261Y-131927142D01*
X127494880Y-131974761D01*
X127590119Y-132022380D01*
X127780595Y-132022380D01*
X127875833Y-131974761D01*
X126828214Y-132022380D02*
X126923452Y-131974761D01*
X126971071Y-131927142D01*
X127018690Y-131831904D01*
X127018690Y-131546190D01*
X126971071Y-131450952D01*
X126923452Y-131403333D01*
X126828214Y-131355714D01*
X126685357Y-131355714D01*
X126590119Y-131403333D01*
X126542500Y-131450952D01*
X126494880Y-131546190D01*
X126494880Y-131831904D01*
X126542500Y-131927142D01*
X126590119Y-131974761D01*
X126685357Y-132022380D01*
X126828214Y-132022380D01*
X126066309Y-132022380D02*
X126066309Y-131355714D01*
X126066309Y-131546190D02*
X126018690Y-131450952D01*
X125971071Y-131403333D01*
X125875833Y-131355714D01*
X125780595Y-131355714D01*
X125590119Y-131355714D02*
X125209166Y-131355714D01*
X125447261Y-131022380D02*
X125447261Y-131879523D01*
X125399642Y-131974761D01*
X125304404Y-132022380D01*
X125209166Y-132022380D01*
X124113928Y-132022380D02*
X124113928Y-131355714D01*
X124113928Y-131022380D02*
X124161547Y-131070000D01*
X124113928Y-131117619D01*
X124066309Y-131070000D01*
X124113928Y-131022380D01*
X124113928Y-131117619D01*
X123685357Y-131974761D02*
X123590119Y-132022380D01*
X123399642Y-132022380D01*
X123304404Y-131974761D01*
X123256785Y-131879523D01*
X123256785Y-131831904D01*
X123304404Y-131736666D01*
X123399642Y-131689047D01*
X123542500Y-131689047D01*
X123637738Y-131641428D01*
X123685357Y-131546190D01*
X123685357Y-131498571D01*
X123637738Y-131403333D01*
X123542500Y-131355714D01*
X123399642Y-131355714D01*
X123304404Y-131403333D01*
X122161547Y-131022380D02*
X121542500Y-131022380D01*
X121875833Y-131403333D01*
X121732976Y-131403333D01*
X121637738Y-131450952D01*
X121590119Y-131498571D01*
X121542500Y-131593809D01*
X121542500Y-131831904D01*
X121590119Y-131927142D01*
X121637738Y-131974761D01*
X121732976Y-132022380D01*
X122018690Y-132022380D01*
X122113928Y-131974761D01*
X122161547Y-131927142D01*
X121161547Y-131117619D02*
X121113928Y-131070000D01*
X121018690Y-131022380D01*
X120780595Y-131022380D01*
X120685357Y-131070000D01*
X120637738Y-131117619D01*
X120590119Y-131212857D01*
X120590119Y-131308095D01*
X120637738Y-131450952D01*
X121209166Y-132022380D01*
X120590119Y-132022380D01*
X120209166Y-131117619D02*
X120161547Y-131070000D01*
X120066309Y-131022380D01*
X119828214Y-131022380D01*
X119732976Y-131070000D01*
X119685357Y-131117619D01*
X119637738Y-131212857D01*
X119637738Y-131308095D01*
X119685357Y-131450952D01*
X120256785Y-132022380D01*
X119637738Y-132022380D01*
X119209166Y-131927142D02*
X119161547Y-131974761D01*
X119209166Y-132022380D01*
X119256785Y-131974761D01*
X119209166Y-131927142D01*
X119209166Y-132022380D01*
M02*
