%TF.GenerationSoftware,KiCad,Pcbnew,(5.1.9)-1*%
%TF.CreationDate,2021-04-22T20:22:13+08:00*%
%TF.ProjectId,BasicSerial,42617369-6353-4657-9269-616c2e6b6963,rev?*%
%TF.SameCoordinates,Original*%
%TF.FileFunction,Soldermask,Bot*%
%TF.FilePolarity,Negative*%
%FSLAX46Y46*%
G04 Gerber Fmt 4.6, Leading zero omitted, Abs format (unit mm)*
G04 Created by KiCad (PCBNEW (5.1.9)-1) date 2021-04-22 20:22:13*
%MOMM*%
%LPD*%
G01*
G04 APERTURE LIST*
%ADD10C,0.100000*%
%ADD11C,5.001260*%
%ADD12O,1.998980X1.501140*%
%ADD13O,1.600000X1.600000*%
%ADD14R,1.600000X1.600000*%
%ADD15R,1.600000X1.501140*%
%ADD16O,1.600000X1.501140*%
%ADD17O,2.300000X1.600000*%
%ADD18R,2.300000X1.600000*%
%ADD19C,1.600000*%
%ADD20R,1.700000X1.700000*%
%ADD21O,1.700000X1.700000*%
%ADD22R,1.780000X7.620000*%
G04 APERTURE END LIST*
D10*
G36*
X177800000Y-142240000D02*
G01*
X96520000Y-142240000D01*
X96520000Y-134620000D01*
X177800000Y-134620000D01*
X177800000Y-142240000D01*
G37*
X177800000Y-142240000D02*
X96520000Y-142240000D01*
X96520000Y-134620000D01*
X177800000Y-134620000D01*
X177800000Y-142240000D01*
D11*
%TO.C,CN1*%
X189589000Y-98614260D03*
D12*
X191107920Y-81964560D03*
X191107920Y-84735700D03*
X191107920Y-87504300D03*
X191107920Y-90275440D03*
X188070080Y-91659740D03*
X188070080Y-88891140D03*
X188070080Y-80580260D03*
X188070080Y-83348860D03*
X188070080Y-86120000D03*
D11*
X189589000Y-73625740D03*
%TD*%
D13*
%TO.C,U2*%
X112395000Y-74930000D03*
X104775000Y-97790000D03*
X112395000Y-77470000D03*
X104775000Y-95250000D03*
X112395000Y-80010000D03*
X104775000Y-92710000D03*
X112395000Y-82550000D03*
X104775000Y-90170000D03*
X112395000Y-85090000D03*
X104775000Y-87630000D03*
X112395000Y-87630000D03*
X104775000Y-85090000D03*
X112395000Y-90170000D03*
X104775000Y-82550000D03*
X112395000Y-92710000D03*
X104775000Y-80010000D03*
X112395000Y-95250000D03*
X104775000Y-77470000D03*
X112395000Y-97790000D03*
D14*
X104775000Y-74930000D03*
%TD*%
D13*
%TO.C,U1*%
X156845000Y-74930000D03*
X141605000Y-123190000D03*
X156845000Y-77470000D03*
X141605000Y-120650000D03*
X156845000Y-80010000D03*
X141605000Y-118110000D03*
X156845000Y-82550000D03*
X141605000Y-115570000D03*
X156845000Y-85090000D03*
X141605000Y-113030000D03*
X156845000Y-87630000D03*
X141605000Y-110490000D03*
X156845000Y-90170000D03*
X141605000Y-107950000D03*
X156845000Y-92710000D03*
X141605000Y-105410000D03*
X156845000Y-95250000D03*
X141605000Y-102870000D03*
X156845000Y-97790000D03*
X141605000Y-100330000D03*
X156845000Y-100330000D03*
X141605000Y-97790000D03*
X156845000Y-102870000D03*
X141605000Y-95250000D03*
X156845000Y-105410000D03*
X141605000Y-92710000D03*
X156845000Y-107950000D03*
X141605000Y-90170000D03*
X156845000Y-110490000D03*
X141605000Y-87630000D03*
X156845000Y-113030000D03*
X141605000Y-85090000D03*
X156845000Y-115570000D03*
X141605000Y-82550000D03*
X156845000Y-118110000D03*
X141605000Y-80010000D03*
X156845000Y-120650000D03*
X141605000Y-77470000D03*
X156845000Y-123190000D03*
D14*
X141605000Y-74930000D03*
%TD*%
D15*
%TO.C,U3*%
X170815000Y-74930000D03*
D16*
X178435000Y-97790000D03*
X170815000Y-77470000D03*
X178435000Y-95250000D03*
X170815000Y-80010000D03*
X178435000Y-92710000D03*
X170815000Y-82550000D03*
X178435000Y-90170000D03*
X170815000Y-85090000D03*
X178435000Y-87630000D03*
X170815000Y-87630000D03*
X178435000Y-85090000D03*
X170815000Y-90170000D03*
X178435000Y-82550000D03*
X170815000Y-92710000D03*
X178435000Y-80010000D03*
X170815000Y-95250000D03*
X178435000Y-77470000D03*
X170815000Y-97790000D03*
X178435000Y-74930000D03*
%TD*%
D17*
%TO.C,U4*%
X130810000Y-77470000D03*
X130810000Y-85090000D03*
X130810000Y-92710000D03*
X123190000Y-92710000D03*
X123190000Y-85090000D03*
D18*
X123190000Y-77470000D03*
%TD*%
D19*
%TO.C,C3*%
X182245000Y-79930000D03*
X182245000Y-74930000D03*
%TD*%
%TO.C,C1*%
X160655000Y-79930000D03*
X160655000Y-74930000D03*
%TD*%
%TO.C,C4*%
X136525000Y-79930000D03*
X136525000Y-74930000D03*
%TD*%
%TO.C,C2*%
X116205000Y-79930000D03*
X116205000Y-74930000D03*
%TD*%
D13*
%TO.C,C7*%
X170815000Y-125690000D03*
D14*
X170815000Y-123190000D03*
%TD*%
D13*
%TO.C,C6*%
X170815000Y-116165000D03*
D14*
X170815000Y-113665000D03*
%TD*%
%TO.C,C5*%
X170815000Y-104140000D03*
D13*
X170815000Y-106640000D03*
%TD*%
D20*
%TO.C,J2*%
X121920000Y-113665000D03*
D21*
X124460000Y-113665000D03*
X121920000Y-116205000D03*
X124460000Y-116205000D03*
X121920000Y-118745000D03*
X124460000Y-118745000D03*
X121920000Y-121285000D03*
X124460000Y-121285000D03*
X121920000Y-123825000D03*
X124460000Y-123825000D03*
%TD*%
D20*
%TO.C,J1*%
X104140000Y-121285000D03*
D21*
X104140000Y-123825000D03*
X106680000Y-121285000D03*
X106680000Y-123825000D03*
X109220000Y-121285000D03*
X109220000Y-123825000D03*
%TD*%
D22*
%TO.C,J3*%
X99060000Y-138430000D03*
X101600000Y-138430000D03*
X104140000Y-138430000D03*
X106680000Y-138430000D03*
X109220000Y-138430000D03*
X111760000Y-138430000D03*
X114300000Y-138430000D03*
X116840000Y-138430000D03*
X119380000Y-138430000D03*
X121920000Y-138430000D03*
X124460000Y-138430000D03*
X127000000Y-138430000D03*
X129540000Y-138430000D03*
X132080000Y-138430000D03*
X134620000Y-138430000D03*
X137160000Y-138430000D03*
X139700000Y-138430000D03*
X142240000Y-138430000D03*
X144780000Y-138430000D03*
X147320000Y-138430000D03*
X149860000Y-138430000D03*
X152400000Y-138430000D03*
X154940000Y-138430000D03*
X157480000Y-138430000D03*
X160020000Y-138430000D03*
X162560000Y-138430000D03*
X165100000Y-138430000D03*
X167640000Y-138430000D03*
X170180000Y-138430000D03*
X172720000Y-138430000D03*
X175260000Y-138430000D03*
%TD*%
M02*
