%TF.GenerationSoftware,KiCad,Pcbnew,(5.1.9)-1*%
%TF.CreationDate,2021-05-05T16:21:53+08:00*%
%TF.ProjectId,BasicSerial,42617369-6353-4657-9269-616c2e6b6963,rev?*%
%TF.SameCoordinates,Original*%
%TF.FileFunction,Copper,L1,Top*%
%TF.FilePolarity,Positive*%
%FSLAX46Y46*%
G04 Gerber Fmt 4.6, Leading zero omitted, Abs format (unit mm)*
G04 Created by KiCad (PCBNEW (5.1.9)-1) date 2021-05-05 16:21:53*
%MOMM*%
%LPD*%
G01*
G04 APERTURE LIST*
%TA.AperFunction,ComponentPad*%
%ADD10C,5.001260*%
%TD*%
%TA.AperFunction,ComponentPad*%
%ADD11O,1.998980X1.501140*%
%TD*%
%TA.AperFunction,ComponentPad*%
%ADD12O,1.600000X1.600000*%
%TD*%
%TA.AperFunction,ComponentPad*%
%ADD13R,1.600000X1.600000*%
%TD*%
%TA.AperFunction,ComponentPad*%
%ADD14R,1.600000X1.501140*%
%TD*%
%TA.AperFunction,ComponentPad*%
%ADD15O,1.600000X1.501140*%
%TD*%
%TA.AperFunction,ComponentPad*%
%ADD16O,2.300000X1.600000*%
%TD*%
%TA.AperFunction,ComponentPad*%
%ADD17R,2.300000X1.600000*%
%TD*%
%TA.AperFunction,ComponentPad*%
%ADD18C,1.600000*%
%TD*%
%TA.AperFunction,ComponentPad*%
%ADD19R,1.700000X1.700000*%
%TD*%
%TA.AperFunction,ComponentPad*%
%ADD20O,1.700000X1.700000*%
%TD*%
%TA.AperFunction,ConnectorPad*%
%ADD21R,1.780000X7.620000*%
%TD*%
%TA.AperFunction,ViaPad*%
%ADD22C,0.800000*%
%TD*%
%TA.AperFunction,ViaPad*%
%ADD23C,1.000000*%
%TD*%
%TA.AperFunction,Conductor*%
%ADD24C,0.300000*%
%TD*%
%TA.AperFunction,Conductor*%
%ADD25C,0.500000*%
%TD*%
%TA.AperFunction,Conductor*%
%ADD26C,1.750000*%
%TD*%
%TA.AperFunction,Conductor*%
%ADD27C,0.254000*%
%TD*%
%TA.AperFunction,Conductor*%
%ADD28C,0.100000*%
%TD*%
G04 APERTURE END LIST*
D10*
%TO.P,CN1,5*%
%TO.N,GND*%
X189589000Y-98614260D03*
D11*
%TO.P,CN1,9*%
%TO.N,/SER_PIN9*%
X191107920Y-81964560D03*
%TO.P,CN1,8*%
%TO.N,/SER_PIN8*%
X191107920Y-84735700D03*
%TO.P,CN1,7*%
%TO.N,/SER_PIN7*%
X191107920Y-87504300D03*
%TO.P,CN1,6*%
%TO.N,/SER_PIN6*%
X191107920Y-90275440D03*
%TO.P,CN1,1*%
%TO.N,/SER_PIN1*%
X188070080Y-91659740D03*
%TO.P,CN1,2*%
%TO.N,/SER_PIN2*%
X188070080Y-88891140D03*
%TO.P,CN1,5*%
%TO.N,GND*%
X188070080Y-80580260D03*
%TO.P,CN1,4*%
%TO.N,/SER_PIN4*%
X188070080Y-83348860D03*
%TO.P,CN1,3*%
%TO.N,/SER_PIN3*%
X188070080Y-86120000D03*
D10*
%TO.P,CN1,5*%
%TO.N,GND*%
X189589000Y-73625740D03*
%TD*%
D12*
%TO.P,U2,20*%
%TO.N,VCC*%
X112395000Y-74930000D03*
%TO.P,U2,10*%
%TO.N,GND*%
X104775000Y-97790000D03*
%TO.P,U2,19*%
%TO.N,~UART_CS*%
X112395000Y-77470000D03*
%TO.P,U2,9*%
%TO.N,VCC*%
X104775000Y-95250000D03*
%TO.P,U2,18*%
X112395000Y-80010000D03*
%TO.P,U2,8*%
%TO.N,A05*%
X104775000Y-92710000D03*
%TO.P,U2,17*%
%TO.N,A09*%
X112395000Y-82550000D03*
%TO.P,U2,7*%
%TO.N,Net-(J1-Pad2)*%
X104775000Y-90170000D03*
%TO.P,U2,16*%
%TO.N,Net-(J1-Pad5)*%
X112395000Y-85090000D03*
%TO.P,U2,6*%
%TO.N,A04*%
X104775000Y-87630000D03*
%TO.P,U2,15*%
%TO.N,A08*%
X112395000Y-87630000D03*
%TO.P,U2,5*%
%TO.N,VCC*%
X104775000Y-85090000D03*
%TO.P,U2,14*%
X112395000Y-90170000D03*
%TO.P,U2,4*%
%TO.N,A03*%
X104775000Y-82550000D03*
%TO.P,U2,13*%
%TO.N,A07*%
X112395000Y-92710000D03*
%TO.P,U2,3*%
%TO.N,GND*%
X104775000Y-80010000D03*
%TO.P,U2,12*%
%TO.N,VCC*%
X112395000Y-95250000D03*
%TO.P,U2,2*%
%TO.N,GND*%
X104775000Y-77470000D03*
%TO.P,U2,11*%
%TO.N,A06*%
X112395000Y-97790000D03*
D13*
%TO.P,U2,1*%
%TO.N,AEN*%
X104775000Y-74930000D03*
%TD*%
D12*
%TO.P,U1,40*%
%TO.N,VCC*%
X156845000Y-74930000D03*
%TO.P,U1,20*%
%TO.N,GND*%
X141605000Y-123190000D03*
%TO.P,U1,39*%
%TO.N,Net-(U1-Pad39)*%
X156845000Y-77470000D03*
%TO.P,U1,19*%
%TO.N,GND*%
X141605000Y-120650000D03*
%TO.P,U1,38*%
%TO.N,Net-(U1-Pad38)*%
X156845000Y-80010000D03*
%TO.P,U1,18*%
%TO.N,~IOW*%
X141605000Y-118110000D03*
%TO.P,U1,37*%
%TO.N,Net-(U1-Pad37)*%
X156845000Y-82550000D03*
%TO.P,U1,17*%
%TO.N,UART_XOUT*%
X141605000Y-115570000D03*
%TO.P,U1,36*%
%TO.N,Net-(U1-Pad36)*%
X156845000Y-85090000D03*
%TO.P,U1,16*%
%TO.N,UART_XIN*%
X141605000Y-113030000D03*
%TO.P,U1,35*%
%TO.N,RESET*%
X156845000Y-87630000D03*
%TO.P,U1,15*%
%TO.N,Net-(U1-Pad15)*%
X141605000Y-110490000D03*
%TO.P,U1,34*%
%TO.N,Net-(U1-Pad34)*%
X156845000Y-90170000D03*
%TO.P,U1,14*%
%TO.N,~UART_CS*%
X141605000Y-107950000D03*
%TO.P,U1,33*%
%TO.N,Net-(U1-Pad33)*%
X156845000Y-92710000D03*
%TO.P,U1,13*%
%TO.N,VCC*%
X141605000Y-105410000D03*
%TO.P,U1,32*%
%TO.N,Net-(U1-Pad32)*%
X156845000Y-95250000D03*
%TO.P,U1,12*%
%TO.N,VCC*%
X141605000Y-102870000D03*
%TO.P,U1,31*%
%TO.N,Net-(U1-Pad31)*%
X156845000Y-97790000D03*
%TO.P,U1,11*%
%TO.N,Net-(U1-Pad11)*%
X141605000Y-100330000D03*
%TO.P,U1,30*%
%TO.N,Net-(J2-Pad10)*%
X156845000Y-100330000D03*
%TO.P,U1,10*%
%TO.N,Net-(U1-Pad10)*%
X141605000Y-97790000D03*
%TO.P,U1,29*%
%TO.N,Net-(U1-Pad29)*%
X156845000Y-102870000D03*
%TO.P,U1,9*%
%TO.N,Net-(U1-Pad15)*%
X141605000Y-95250000D03*
%TO.P,U1,28*%
%TO.N,A00*%
X156845000Y-105410000D03*
%TO.P,U1,8*%
%TO.N,D7*%
X141605000Y-92710000D03*
%TO.P,U1,27*%
%TO.N,A01*%
X156845000Y-107950000D03*
%TO.P,U1,7*%
%TO.N,D6*%
X141605000Y-90170000D03*
%TO.P,U1,26*%
%TO.N,A02*%
X156845000Y-110490000D03*
%TO.P,U1,6*%
%TO.N,D5*%
X141605000Y-87630000D03*
%TO.P,U1,25*%
%TO.N,GND*%
X156845000Y-113030000D03*
%TO.P,U1,5*%
%TO.N,D4*%
X141605000Y-85090000D03*
%TO.P,U1,24*%
%TO.N,Net-(U1-Pad24)*%
X156845000Y-115570000D03*
%TO.P,U1,4*%
%TO.N,D3*%
X141605000Y-82550000D03*
%TO.P,U1,23*%
%TO.N,Net-(U1-Pad23)*%
X156845000Y-118110000D03*
%TO.P,U1,3*%
%TO.N,D2*%
X141605000Y-80010000D03*
%TO.P,U1,22*%
%TO.N,GND*%
X156845000Y-120650000D03*
%TO.P,U1,2*%
%TO.N,D1*%
X141605000Y-77470000D03*
%TO.P,U1,21*%
%TO.N,~IOR*%
X156845000Y-123190000D03*
D13*
%TO.P,U1,1*%
%TO.N,D0*%
X141605000Y-74930000D03*
%TD*%
D14*
%TO.P,U3,1*%
%TO.N,+12V*%
X170815000Y-74930000D03*
D15*
%TO.P,U3,11*%
%TO.N,GND*%
X178435000Y-97790000D03*
%TO.P,U3,2*%
%TO.N,/SER_PIN1*%
X170815000Y-77470000D03*
%TO.P,U3,12*%
%TO.N,Net-(U1-Pad39)*%
X178435000Y-95250000D03*
%TO.P,U3,3*%
%TO.N,/SER_PIN6*%
X170815000Y-80010000D03*
%TO.P,U3,13*%
%TO.N,Net-(U1-Pad33)*%
X178435000Y-92710000D03*
%TO.P,U3,4*%
%TO.N,/SER_PIN2*%
X170815000Y-82550000D03*
%TO.P,U3,14*%
%TO.N,Net-(U1-Pad36)*%
X178435000Y-90170000D03*
%TO.P,U3,5*%
%TO.N,/SER_PIN7*%
X170815000Y-85090000D03*
%TO.P,U3,15*%
%TO.N,Net-(U1-Pad11)*%
X178435000Y-87630000D03*
%TO.P,U3,6*%
%TO.N,/SER_PIN3*%
X170815000Y-87630000D03*
%TO.P,U3,16*%
%TO.N,Net-(U1-Pad32)*%
X178435000Y-85090000D03*
%TO.P,U3,7*%
%TO.N,/SER_PIN8*%
X170815000Y-90170000D03*
%TO.P,U3,17*%
%TO.N,Net-(U1-Pad10)*%
X178435000Y-82550000D03*
%TO.P,U3,8*%
%TO.N,/SER_PIN4*%
X170815000Y-92710000D03*
%TO.P,U3,18*%
%TO.N,Net-(U1-Pad37)*%
X178435000Y-80010000D03*
%TO.P,U3,9*%
%TO.N,/SER_PIN9*%
X170815000Y-95250000D03*
%TO.P,U3,19*%
%TO.N,Net-(U1-Pad38)*%
X178435000Y-77470000D03*
%TO.P,U3,10*%
%TO.N,-12V*%
X170815000Y-97790000D03*
%TO.P,U3,20*%
%TO.N,VCC*%
X178435000Y-74930000D03*
%TD*%
D16*
%TO.P,U4,14*%
%TO.N,VCC*%
X130810000Y-77470000D03*
%TO.P,U4,11*%
X130810000Y-85090000D03*
%TO.P,U4,8*%
%TO.N,UART_XIN*%
X130810000Y-92710000D03*
%TO.P,U4,7*%
%TO.N,GND*%
X123190000Y-92710000D03*
%TO.P,U4,4*%
%TO.N,VCC*%
X123190000Y-85090000D03*
D17*
%TO.P,U4,1*%
X123190000Y-77470000D03*
%TD*%
D18*
%TO.P,C3,2*%
%TO.N,GND*%
X182245000Y-79930000D03*
%TO.P,C3,1*%
%TO.N,VCC*%
X182245000Y-74930000D03*
%TD*%
%TO.P,C1,2*%
%TO.N,GND*%
X160655000Y-79930000D03*
%TO.P,C1,1*%
%TO.N,VCC*%
X160655000Y-74930000D03*
%TD*%
%TO.P,C4,2*%
%TO.N,GND*%
X136525000Y-79930000D03*
%TO.P,C4,1*%
%TO.N,VCC*%
X136525000Y-74930000D03*
%TD*%
%TO.P,C2,2*%
%TO.N,GND*%
X116205000Y-79930000D03*
%TO.P,C2,1*%
%TO.N,VCC*%
X116205000Y-74930000D03*
%TD*%
D12*
%TO.P,C7,2*%
%TO.N,-12V*%
X170815000Y-125690000D03*
D13*
%TO.P,C7,1*%
%TO.N,GND*%
X170815000Y-123190000D03*
%TD*%
D12*
%TO.P,C6,2*%
%TO.N,GND*%
X170815000Y-116165000D03*
D13*
%TO.P,C6,1*%
%TO.N,+12V*%
X170815000Y-113665000D03*
%TD*%
%TO.P,C5,1*%
%TO.N,VCC*%
X170815000Y-104140000D03*
D12*
%TO.P,C5,2*%
%TO.N,GND*%
X170815000Y-106640000D03*
%TD*%
D19*
%TO.P,J2,1*%
%TO.N,IRQ2*%
X121920000Y-113665000D03*
D20*
%TO.P,J2,2*%
%TO.N,Net-(J2-Pad10)*%
X124460000Y-113665000D03*
%TO.P,J2,3*%
%TO.N,IRQ3*%
X121920000Y-116205000D03*
%TO.P,J2,4*%
%TO.N,Net-(J2-Pad10)*%
X124460000Y-116205000D03*
%TO.P,J2,5*%
%TO.N,IRQ4*%
X121920000Y-118745000D03*
%TO.P,J2,6*%
%TO.N,Net-(J2-Pad10)*%
X124460000Y-118745000D03*
%TO.P,J2,7*%
%TO.N,IRQ5*%
X121920000Y-121285000D03*
%TO.P,J2,8*%
%TO.N,Net-(J2-Pad10)*%
X124460000Y-121285000D03*
%TO.P,J2,9*%
%TO.N,IRQ7*%
X121920000Y-123825000D03*
%TO.P,J2,10*%
%TO.N,Net-(J2-Pad10)*%
X124460000Y-123825000D03*
%TD*%
D19*
%TO.P,J1,1*%
%TO.N,VCC*%
X104140000Y-121285000D03*
D20*
%TO.P,J1,4*%
X104140000Y-123825000D03*
%TO.P,J1,2*%
%TO.N,Net-(J1-Pad2)*%
X106680000Y-121285000D03*
%TO.P,J1,5*%
%TO.N,Net-(J1-Pad5)*%
X106680000Y-123825000D03*
%TO.P,J1,3*%
%TO.N,GND*%
X109220000Y-121285000D03*
%TO.P,J1,6*%
X109220000Y-123825000D03*
%TD*%
D21*
%TO.P,J3,62*%
%TO.N,A00*%
X99060000Y-138430000D03*
%TO.P,J3,61*%
%TO.N,A01*%
X101600000Y-138430000D03*
%TO.P,J3,60*%
%TO.N,A02*%
X104140000Y-138430000D03*
%TO.P,J3,59*%
%TO.N,A03*%
X106680000Y-138430000D03*
%TO.P,J3,58*%
%TO.N,A04*%
X109220000Y-138430000D03*
%TO.P,J3,57*%
%TO.N,A05*%
X111760000Y-138430000D03*
%TO.P,J3,56*%
%TO.N,A06*%
X114300000Y-138430000D03*
%TO.P,J3,55*%
%TO.N,A07*%
X116840000Y-138430000D03*
%TO.P,J3,54*%
%TO.N,A08*%
X119380000Y-138430000D03*
%TO.P,J3,53*%
%TO.N,A09*%
X121920000Y-138430000D03*
%TO.P,J3,52*%
%TO.N,Net-(J3-Pad52)*%
X124460000Y-138430000D03*
%TO.P,J3,51*%
%TO.N,Net-(J3-Pad51)*%
X127000000Y-138430000D03*
%TO.P,J3,50*%
%TO.N,Net-(J3-Pad50)*%
X129540000Y-138430000D03*
%TO.P,J3,49*%
%TO.N,Net-(J3-Pad49)*%
X132080000Y-138430000D03*
%TO.P,J3,48*%
%TO.N,Net-(J3-Pad48)*%
X134620000Y-138430000D03*
%TO.P,J3,47*%
%TO.N,Net-(J3-Pad47)*%
X137160000Y-138430000D03*
%TO.P,J3,46*%
%TO.N,Net-(J3-Pad46)*%
X139700000Y-138430000D03*
%TO.P,J3,45*%
%TO.N,Net-(J3-Pad45)*%
X142240000Y-138430000D03*
%TO.P,J3,44*%
%TO.N,Net-(J3-Pad44)*%
X144780000Y-138430000D03*
%TO.P,J3,43*%
%TO.N,Net-(J3-Pad43)*%
X147320000Y-138430000D03*
%TO.P,J3,42*%
%TO.N,AEN*%
X149860000Y-138430000D03*
%TO.P,J3,41*%
%TO.N,Net-(J3-Pad41)*%
X152400000Y-138430000D03*
%TO.P,J3,40*%
%TO.N,D0*%
X154940000Y-138430000D03*
%TO.P,J3,39*%
%TO.N,D1*%
X157480000Y-138430000D03*
%TO.P,J3,38*%
%TO.N,D2*%
X160020000Y-138430000D03*
%TO.P,J3,37*%
%TO.N,D3*%
X162560000Y-138430000D03*
%TO.P,J3,36*%
%TO.N,D4*%
X165100000Y-138430000D03*
%TO.P,J3,35*%
%TO.N,D5*%
X167640000Y-138430000D03*
%TO.P,J3,34*%
%TO.N,D6*%
X170180000Y-138430000D03*
%TO.P,J3,33*%
%TO.N,D7*%
X172720000Y-138430000D03*
%TO.P,J3,32*%
%TO.N,Net-(J3-Pad32)*%
X175260000Y-138430000D03*
%TD*%
D22*
%TO.N,A00*%
X127000000Y-125730000D03*
X127000000Y-106680000D03*
%TO.N,A01*%
X128270000Y-127000000D03*
X128270000Y-109220000D03*
%TO.N,A02*%
X129540000Y-128270000D03*
X129540000Y-111760000D03*
%TO.N,A03*%
X109220000Y-82550000D03*
X113030000Y-130810000D03*
%TO.N,A04*%
X109220000Y-132715000D03*
%TO.N,A05*%
X107315000Y-92710000D03*
X111760000Y-132715000D03*
%TO.N,A06*%
X114300000Y-131445000D03*
%TO.N,A07*%
X115570000Y-130810000D03*
%TO.N,A08*%
X116840000Y-131445002D03*
%TO.N,A09*%
X118110000Y-130810000D03*
%TO.N,AEN*%
X111760000Y-129540000D03*
%TO.N,D0*%
X147320000Y-124460000D03*
%TO.N,D1*%
X149225000Y-124460000D03*
X149225000Y-77470000D03*
%TO.N,D2*%
X151130000Y-124460000D03*
X150495000Y-80010000D03*
%TO.N,D3*%
X153034990Y-124460000D03*
X151765007Y-82550007D03*
%TO.N,D4*%
X153035000Y-85090000D03*
X154940000Y-124460000D03*
%TO.N,D5*%
X146685000Y-120650000D03*
%TO.N,D6*%
X144780000Y-117475000D03*
%TO.N,D7*%
X144024979Y-115737759D03*
D23*
%TO.N,GND*%
X178435000Y-132715000D03*
X104775000Y-100330000D03*
X170815000Y-119380000D03*
X170815000Y-109855000D03*
X97790000Y-127635000D03*
X99060000Y-128905000D03*
X100330000Y-130175000D03*
X97790000Y-130175000D03*
X99060000Y-131445000D03*
X194945000Y-132715000D03*
X141605000Y-130810000D03*
X141605000Y-126365000D03*
X137795000Y-121920000D03*
X133985000Y-121920000D03*
X135890000Y-128270000D03*
X149860000Y-130175002D03*
X161290000Y-101600000D03*
X161290000Y-110490000D03*
X161290000Y-106045000D03*
X178435000Y-71755000D03*
X181610000Y-71755000D03*
X184785000Y-71755000D03*
X194945000Y-71755000D03*
X194945000Y-86995000D03*
X194945000Y-102235000D03*
X178435000Y-102235000D03*
X178435000Y-117475000D03*
X194945000Y-117475000D03*
X147955000Y-128270012D03*
X151765000Y-132080010D03*
X123190000Y-88900000D03*
X130810000Y-88900000D03*
X130810000Y-81280000D03*
X130810000Y-74930000D03*
X136525000Y-85090000D03*
X136525000Y-88900000D03*
X120650000Y-81280000D03*
X120650000Y-74930000D03*
X125730000Y-81280000D03*
X125730000Y-74930000D03*
X102235000Y-80010000D03*
X164465000Y-80010000D03*
X164465000Y-76200000D03*
X123190000Y-97790000D03*
X123190000Y-102870000D03*
X135255000Y-97790000D03*
X135255000Y-102870000D03*
D22*
%TO.N,VCC*%
X110490000Y-83820000D03*
%TO.N,~IOR*%
X144780000Y-123190000D03*
D23*
%TO.N,+12V*%
X165100000Y-113665000D03*
X165100000Y-111760000D03*
D22*
%TO.N,IRQ2*%
X167005000Y-131445000D03*
%TO.N,RESET*%
X172720000Y-132080000D03*
X154305000Y-111760000D03*
%TO.N,Net-(J1-Pad5)*%
X102870000Y-86360000D03*
%TO.N,UART_XIN*%
X130810000Y-113030000D03*
%TO.N,Net-(J2-Pad10)*%
X154305000Y-114300000D03*
%TO.N,Net-(U1-Pad39)*%
X154305000Y-99060000D03*
%TO.N,Net-(U1-Pad36)*%
X158750000Y-91440000D03*
%TO.N,~UART_CS*%
X125095000Y-107950000D03*
%TO.N,Net-(U1-Pad32)*%
X160020000Y-86360000D03*
%TO.N,/SER_PIN6*%
X182245000Y-90170000D03*
X182245000Y-83820000D03*
%TO.N,/SER_PIN1*%
X184785000Y-82550000D03*
X184785000Y-92075000D03*
%TO.N,/SER_PIN2*%
X180975000Y-83820000D03*
X180975000Y-88900000D03*
%TO.N,/SER_PIN4*%
X183515000Y-83820000D03*
X183515000Y-92075000D03*
%TD*%
D24*
%TO.N,A00*%
X156845000Y-105410000D02*
X155575000Y-106680000D01*
X155575000Y-106680000D02*
X127000000Y-106680000D01*
X107610000Y-125730000D02*
X127000000Y-125730000D01*
X99060000Y-134280000D02*
X107610000Y-125730000D01*
X99060000Y-138430000D02*
X99060000Y-134280000D01*
%TO.N,A01*%
X155575000Y-109220000D02*
X128270000Y-109220000D01*
X156845000Y-107950000D02*
X155575000Y-109220000D01*
X108880000Y-127000000D02*
X128270000Y-127000000D01*
X101600000Y-134280000D02*
X108880000Y-127000000D01*
X101600000Y-138430000D02*
X101600000Y-134280000D01*
%TO.N,A02*%
X156845000Y-110490000D02*
X153035000Y-110490000D01*
X151765000Y-111760000D02*
X129540000Y-111760000D01*
X153035000Y-110490000D02*
X151765000Y-111760000D01*
X110150000Y-128270000D02*
X129540000Y-128270000D01*
X104140000Y-134280000D02*
X110150000Y-128270000D01*
X104140000Y-138430000D02*
X104140000Y-134280000D01*
%TO.N,A03*%
X104775000Y-82550000D02*
X109220000Y-82550000D01*
X106680000Y-133350000D02*
X106680000Y-138430000D01*
X109220000Y-130810000D02*
X106680000Y-133350000D01*
X113030000Y-130810000D02*
X109220000Y-130810000D01*
%TO.N,A04*%
X109220000Y-138430000D02*
X109220000Y-132715000D01*
%TO.N,A05*%
X107315000Y-92710000D02*
X104775000Y-92710000D01*
X111760000Y-138430000D02*
X111760000Y-132715000D01*
%TO.N,A06*%
X114300000Y-138430000D02*
X114300000Y-131445000D01*
%TO.N,A07*%
X115570000Y-132715000D02*
X115570000Y-130810000D01*
X116840000Y-133985000D02*
X115570000Y-132715000D01*
X116840000Y-138430000D02*
X116840000Y-133985000D01*
%TO.N,A08*%
X119380000Y-138430000D02*
X119380000Y-133985002D01*
X119380000Y-133985002D02*
X116840000Y-131445002D01*
%TO.N,A09*%
X118920010Y-130810000D02*
X118110000Y-130810000D01*
X121920000Y-133809990D02*
X118920010Y-130810000D01*
X121920000Y-138430000D02*
X121920000Y-133809990D01*
%TO.N,AEN*%
X120650000Y-129540000D02*
X111760000Y-129540000D01*
X123825000Y-132715000D02*
X120650000Y-129540000D01*
X149860000Y-138430000D02*
X149860000Y-133985000D01*
X149860000Y-133985000D02*
X148590000Y-132715000D01*
X148590000Y-132715000D02*
X123825000Y-132715000D01*
%TO.N,D0*%
X154940000Y-132080000D02*
X147320000Y-124460000D01*
X154940000Y-138430000D02*
X154940000Y-132080000D01*
%TO.N,D1*%
X157480000Y-138430000D02*
X157480000Y-132715000D01*
X157480000Y-132715000D02*
X149225000Y-124460000D01*
X141605000Y-77470000D02*
X149225000Y-77470000D01*
%TO.N,D2*%
X160020000Y-133350000D02*
X151130000Y-124460000D01*
X160020000Y-138430000D02*
X160020000Y-133350000D01*
X141605000Y-80010000D02*
X150495000Y-80010000D01*
%TO.N,D3*%
X162560000Y-138430000D02*
X162560000Y-133985010D01*
X162560000Y-133985010D02*
X153034990Y-124460000D01*
X141605000Y-82550000D02*
X151765000Y-82550000D01*
X151765000Y-82550000D02*
X151765007Y-82550007D01*
%TO.N,D4*%
X153035000Y-85090000D02*
X141605000Y-85090000D01*
X165100000Y-133985000D02*
X165100000Y-138430000D01*
X155575000Y-124460000D02*
X165100000Y-133985000D01*
X154940000Y-124460000D02*
X155575000Y-124460000D01*
%TO.N,D5*%
X147955000Y-121920000D02*
X146685000Y-120650000D01*
X157480000Y-121920000D02*
X147955000Y-121920000D01*
X158750000Y-124925000D02*
X158750000Y-123190000D01*
X158750000Y-123190000D02*
X157480000Y-121920000D01*
X167640000Y-133815000D02*
X158750000Y-124925000D01*
X167640000Y-138430000D02*
X167640000Y-133815000D01*
%TO.N,D6*%
X157480000Y-116840000D02*
X145415000Y-116840000D01*
X145415000Y-116840000D02*
X144780000Y-117475000D01*
X161290000Y-120650000D02*
X157480000Y-116840000D01*
X161290000Y-123825000D02*
X161290000Y-120650000D01*
X170180000Y-132715000D02*
X161290000Y-123825000D01*
X170180000Y-138430000D02*
X170180000Y-132715000D01*
%TO.N,D7*%
X156150001Y-114359999D02*
X154772241Y-115737759D01*
X157539999Y-114359999D02*
X156150001Y-114359999D01*
X162560000Y-119380000D02*
X157539999Y-114359999D01*
X162560000Y-123825000D02*
X162560000Y-119380000D01*
X172720000Y-133985000D02*
X162560000Y-123825000D01*
X154772241Y-115737759D02*
X144024979Y-115737759D01*
X172720000Y-138430000D02*
X172720000Y-133985000D01*
D25*
%TO.N,GND*%
X109220000Y-121285000D02*
X109220000Y-123825000D01*
X109220000Y-121285000D02*
X109220000Y-118745000D01*
X104775000Y-97790000D02*
X104775000Y-100330000D01*
X170815000Y-116165000D02*
X168950000Y-116165000D01*
X170815000Y-116165000D02*
X172680000Y-116165000D01*
X170815000Y-116165000D02*
X170815000Y-119380000D01*
X170815000Y-119380000D02*
X170815000Y-119380000D01*
X170815000Y-106640000D02*
X170815000Y-109855000D01*
X170815000Y-106640000D02*
X173315000Y-106640000D01*
X170815000Y-106640000D02*
X168950000Y-106640000D01*
X141605000Y-130810000D02*
X141605000Y-126365000D01*
X141605000Y-126365000D02*
X137795000Y-126365000D01*
X137795000Y-126365000D02*
X137795000Y-121920000D01*
X137795000Y-121920000D02*
X133985000Y-121920000D01*
X137795000Y-126365000D02*
X135890000Y-128270000D01*
X141605000Y-130810000D02*
X149225002Y-130810000D01*
X149225002Y-130810000D02*
X149860000Y-130175002D01*
X149860000Y-130175002D02*
X147955010Y-128270012D01*
X147955010Y-128270012D02*
X147955000Y-128270012D01*
X151765000Y-132080002D02*
X151765000Y-132080010D01*
X149860000Y-130175002D02*
X151765000Y-132080002D01*
X104775000Y-97790000D02*
X102870000Y-97790000D01*
X104775000Y-97790000D02*
X106680000Y-97790000D01*
X109220000Y-123825000D02*
X112395000Y-123825000D01*
X123190000Y-97790000D02*
X123897106Y-97790000D01*
X123897106Y-97790000D02*
X135255000Y-97790000D01*
X135255000Y-97790000D02*
X135255000Y-98497106D01*
X135255000Y-98497106D02*
X135255000Y-102870000D01*
D24*
%TO.N,VCC*%
X112395000Y-95250000D02*
X104775000Y-95250000D01*
X109220000Y-85090000D02*
X110490000Y-83820000D01*
X104775000Y-85090000D02*
X109220000Y-85090000D01*
%TO.N,~IOR*%
X156845000Y-123190000D02*
X144780000Y-123190000D01*
D25*
%TO.N,+12V*%
X170815000Y-113665000D02*
X170815000Y-112395000D01*
X170815000Y-112395000D02*
X170180000Y-111760000D01*
D26*
X165100000Y-111760000D02*
X165100000Y-113665000D01*
D25*
X170180000Y-111760000D02*
X168910000Y-111760000D01*
X170815000Y-113665000D02*
X168275000Y-113665000D01*
D26*
X168275000Y-113665000D02*
X165100000Y-113665000D01*
X168910000Y-111760000D02*
X165100000Y-111760000D01*
X168275000Y-112395000D02*
X168275000Y-113665000D01*
X168910000Y-111760000D02*
X168275000Y-112395000D01*
X165100000Y-111760000D02*
X166370000Y-113030000D01*
X167640000Y-113030000D02*
X168275000Y-112395000D01*
X166370000Y-113030000D02*
X167640000Y-113030000D01*
D24*
%TO.N,IRQ2*%
X160020000Y-124460000D02*
X167005000Y-131445000D01*
X157365802Y-119380000D02*
X160020000Y-122034198D01*
X160020000Y-122034198D02*
X160020000Y-124460000D01*
X121920000Y-113665000D02*
X122555000Y-113665000D01*
X121920000Y-113665000D02*
X123180001Y-114925001D01*
X125085001Y-114925001D02*
X129540000Y-119380000D01*
X123180001Y-114925001D02*
X125085001Y-114925001D01*
X129540000Y-119380000D02*
X157365802Y-119380000D01*
%TO.N,RESET*%
X158750000Y-111760000D02*
X154305000Y-111760000D01*
X163830000Y-116840000D02*
X158750000Y-111760000D01*
X172720000Y-132080000D02*
X163830000Y-123190000D01*
X163830000Y-123190000D02*
X163830000Y-116840000D01*
%TO.N,Net-(J1-Pad5)*%
X111125000Y-86360000D02*
X112395000Y-85090000D01*
X102870000Y-86360000D02*
X111125000Y-86360000D01*
%TO.N,UART_XIN*%
X141605000Y-113030000D02*
X130810000Y-113030000D01*
%TO.N,Net-(J2-Pad10)*%
X126365000Y-114300000D02*
X154305000Y-114300000D01*
X125730000Y-113665000D02*
X126365000Y-114300000D01*
X124460000Y-113665000D02*
X125730000Y-113665000D01*
%TO.N,Net-(U1-Pad39)*%
X157797500Y-99060000D02*
X154305000Y-99060000D01*
X158432500Y-99695000D02*
X157797500Y-99060000D01*
X173990000Y-99695000D02*
X158432500Y-99695000D01*
X178435000Y-95250000D02*
X173990000Y-99695000D01*
%TO.N,Net-(U1-Pad38)*%
X175260000Y-77470000D02*
X178435000Y-77470000D01*
X169545000Y-78749420D02*
X173980580Y-78749420D01*
X173980580Y-78749420D02*
X175260000Y-77470000D01*
X166379420Y-81915000D02*
X169545000Y-78749420D01*
X158750000Y-81915000D02*
X166379420Y-81915000D01*
X156845000Y-80010000D02*
X158750000Y-81915000D01*
%TO.N,Net-(U1-Pad37)*%
X175260000Y-80010000D02*
X178435000Y-80010000D01*
X173990000Y-81280000D02*
X175260000Y-80010000D01*
X169545000Y-81280000D02*
X173990000Y-81280000D01*
X158115000Y-83185000D02*
X167640000Y-83185000D01*
X167640000Y-83185000D02*
X169545000Y-81280000D01*
X157480000Y-82550000D02*
X158115000Y-83185000D01*
X156845000Y-82550000D02*
X157480000Y-82550000D01*
%TO.N,Net-(U1-Pad36)*%
X159315685Y-91440000D02*
X158750000Y-91440000D01*
X173903741Y-91440000D02*
X159315685Y-91440000D01*
X175173741Y-90170000D02*
X173903741Y-91440000D01*
X178435000Y-90170000D02*
X175173741Y-90170000D01*
%TO.N,~UART_CS*%
X141605000Y-107950000D02*
X125095000Y-107950000D01*
%TO.N,Net-(U1-Pad33)*%
X175260000Y-92710000D02*
X178435000Y-92710000D01*
X173990000Y-93980000D02*
X175260000Y-92710000D01*
X158115000Y-93980000D02*
X173990000Y-93980000D01*
X156845000Y-92710000D02*
X158115000Y-93980000D01*
%TO.N,Net-(U1-Pad32)*%
X160029420Y-86350580D02*
X160020000Y-86360000D01*
X173999420Y-86350580D02*
X160029420Y-86350580D01*
X178435000Y-85090000D02*
X175260000Y-85090000D01*
X175260000Y-85090000D02*
X173999420Y-86350580D01*
%TO.N,Net-(U1-Pad11)*%
X153035012Y-88900000D02*
X141605000Y-100330000D01*
X173999178Y-88900000D02*
X153035012Y-88900000D01*
X175188576Y-87710602D02*
X173999178Y-88900000D01*
X178354398Y-87710602D02*
X175188576Y-87710602D01*
X178435000Y-87630000D02*
X178354398Y-87710602D01*
%TO.N,Net-(U1-Pad10)*%
X169867210Y-83810579D02*
X169222789Y-84455000D01*
X175260000Y-82550000D02*
X173999421Y-83810579D01*
X173999421Y-83810579D02*
X169867210Y-83810579D01*
X178435000Y-82550000D02*
X175260000Y-82550000D01*
X159385000Y-84455000D02*
X157420001Y-86419999D01*
X169222789Y-84455000D02*
X159385000Y-84455000D01*
X152975023Y-86419999D02*
X152717511Y-86677511D01*
X157420001Y-86419999D02*
X152975023Y-86419999D01*
X152717511Y-86677511D02*
X141605000Y-97790000D01*
%TO.N,/SER_PIN9*%
X191330107Y-81964560D02*
X190859000Y-81964560D01*
X193297430Y-83931882D02*
X191330107Y-81964560D01*
X193297430Y-90117579D02*
X193297430Y-83931882D01*
X189435009Y-93980000D02*
X193297430Y-90117579D01*
X175260000Y-93980000D02*
X189435009Y-93980000D01*
X173990000Y-95250000D02*
X175260000Y-93980000D01*
X170815000Y-95250000D02*
X173990000Y-95250000D01*
%TO.N,/SER_PIN8*%
X179070000Y-88900000D02*
X175260000Y-88900000D01*
X180339440Y-87630560D02*
X179070000Y-88900000D01*
X188591169Y-87630560D02*
X180339440Y-87630560D01*
X173990000Y-90170000D02*
X170815000Y-90170000D01*
X190859000Y-85362729D02*
X188591169Y-87630560D01*
X175260000Y-88900000D02*
X173990000Y-90170000D01*
X190859000Y-84735700D02*
X190859000Y-85362729D01*
%TO.N,/SER_PIN7*%
X173990000Y-85090000D02*
X170815000Y-85090000D01*
X178997159Y-83820000D02*
X175260000Y-83820000D01*
X180036579Y-84859420D02*
X178997159Y-83820000D01*
X188591169Y-84859420D02*
X180036579Y-84859420D01*
X189975469Y-83475120D02*
X188591169Y-84859420D01*
X191878989Y-83475120D02*
X189975469Y-83475120D01*
X192617420Y-84213551D02*
X191878989Y-83475120D01*
X192617420Y-85745880D02*
X192617420Y-84213551D01*
X175260000Y-83820000D02*
X173990000Y-85090000D01*
X190859000Y-87504300D02*
X192617420Y-85745880D01*
%TO.N,/SER_PIN6*%
X182350440Y-90275440D02*
X182245000Y-90170000D01*
X190859000Y-90275440D02*
X182350440Y-90275440D01*
X175250580Y-78749420D02*
X173990000Y-80010000D01*
X179745010Y-79487851D02*
X179006579Y-78749420D01*
X179745010Y-80685010D02*
X179745010Y-79487851D01*
X173990000Y-80010000D02*
X170815000Y-80010000D01*
X182245000Y-83185000D02*
X179745010Y-80685010D01*
X179006579Y-78749420D02*
X175250580Y-78749420D01*
X182245000Y-83820000D02*
X182245000Y-83185000D01*
%TO.N,/SER_PIN1*%
X173990000Y-77470000D02*
X170815000Y-77470000D01*
X178997159Y-76200000D02*
X175260000Y-76200000D01*
X180425020Y-77627860D02*
X178997159Y-76200000D01*
X175260000Y-76200000D02*
X173990000Y-77470000D01*
X180425020Y-80095020D02*
X180425020Y-77627860D01*
X182880000Y-82550000D02*
X180425020Y-80095020D01*
X184785000Y-82550000D02*
X182880000Y-82550000D01*
X185200260Y-91659740D02*
X185835260Y-91659740D01*
X185835260Y-91659740D02*
X188319000Y-91659740D01*
X184785000Y-92075000D02*
X185200260Y-91659740D01*
%TO.N,/SER_PIN2*%
X180975000Y-88900000D02*
X181618860Y-88891140D01*
X181618860Y-88891140D02*
X188319000Y-88891140D01*
X173990000Y-82550000D02*
X170815000Y-82550000D01*
X175250580Y-81289420D02*
X173990000Y-82550000D01*
X179079420Y-81289420D02*
X175250580Y-81289420D01*
X180975000Y-83185000D02*
X179079420Y-81289420D01*
X180975000Y-83820000D02*
X180975000Y-83185000D01*
%TO.N,/SER_PIN4*%
X170815000Y-92710000D02*
X173990000Y-92710000D01*
X173990000Y-92710000D02*
X175260000Y-91440000D01*
X175260000Y-91440000D02*
X182880000Y-91440000D01*
X182880000Y-91440000D02*
X183515000Y-92075000D01*
X187847860Y-83820000D02*
X183515000Y-83820000D01*
X188319000Y-83348860D02*
X187847860Y-83820000D01*
%TO.N,/SER_PIN3*%
X173912920Y-87630000D02*
X170815000Y-87630000D01*
X175173500Y-86369420D02*
X173912920Y-87630000D01*
X188069580Y-86369420D02*
X175173500Y-86369420D01*
X188319000Y-86120000D02*
X188069580Y-86369420D01*
%TD*%
D27*
%TO.N,GND*%
X195421033Y-70005044D02*
X195512449Y-70032645D01*
X195596759Y-70077473D01*
X195670759Y-70137826D01*
X195731627Y-70211402D01*
X195777043Y-70295398D01*
X195805281Y-70386618D01*
X195819000Y-70517152D01*
X195819001Y-133311985D01*
X195805956Y-133445033D01*
X195778355Y-133536449D01*
X195733527Y-133620759D01*
X195673174Y-133694759D01*
X195599595Y-133755629D01*
X195515605Y-133801042D01*
X195424382Y-133829281D01*
X195293848Y-133843000D01*
X177711166Y-133843000D01*
X177673000Y-133839241D01*
X177634834Y-133843000D01*
X177520681Y-133854243D01*
X177508296Y-133858000D01*
X173613855Y-133858000D01*
X173608948Y-133808177D01*
X173557371Y-133638150D01*
X173473614Y-133481451D01*
X173458586Y-133463139D01*
X173389140Y-133378519D01*
X173389138Y-133378517D01*
X173360896Y-133344104D01*
X173326483Y-133315862D01*
X173156664Y-133146043D01*
X173265677Y-133100889D01*
X173454357Y-132974817D01*
X173614817Y-132814357D01*
X173740889Y-132625677D01*
X173827729Y-132416026D01*
X173872000Y-132193462D01*
X173872000Y-131966538D01*
X173827729Y-131743974D01*
X173740889Y-131534323D01*
X173614817Y-131345643D01*
X173454357Y-131185183D01*
X173265677Y-131059111D01*
X173056026Y-130972271D01*
X172846143Y-130930523D01*
X164732000Y-122816380D01*
X164732000Y-122390000D01*
X169259362Y-122390000D01*
X169259362Y-123990000D01*
X169273881Y-124137418D01*
X169316882Y-124279170D01*
X169386710Y-124409810D01*
X169480683Y-124524317D01*
X169595190Y-124618290D01*
X169658182Y-124651959D01*
X169609483Y-124700658D01*
X169439636Y-124954853D01*
X169322643Y-125237298D01*
X169263000Y-125537141D01*
X169263000Y-125842859D01*
X169322643Y-126142702D01*
X169439636Y-126425147D01*
X169609483Y-126679342D01*
X169825658Y-126895517D01*
X170079853Y-127065364D01*
X170362298Y-127182357D01*
X170662141Y-127242000D01*
X170967859Y-127242000D01*
X171267702Y-127182357D01*
X171550147Y-127065364D01*
X171804342Y-126895517D01*
X172020517Y-126679342D01*
X172190364Y-126425147D01*
X172307357Y-126142702D01*
X172367000Y-125842859D01*
X172367000Y-125537141D01*
X172307357Y-125237298D01*
X172190364Y-124954853D01*
X172020517Y-124700658D01*
X171971818Y-124651959D01*
X172034810Y-124618290D01*
X172149317Y-124524317D01*
X172243290Y-124409810D01*
X172313118Y-124279170D01*
X172356119Y-124137418D01*
X172370638Y-123990000D01*
X172370638Y-122390000D01*
X172356119Y-122242582D01*
X172313118Y-122100830D01*
X172243290Y-121970190D01*
X172149317Y-121855683D01*
X172034810Y-121761710D01*
X171904170Y-121691882D01*
X171762418Y-121648881D01*
X171615000Y-121634362D01*
X170015000Y-121634362D01*
X169867582Y-121648881D01*
X169725830Y-121691882D01*
X169595190Y-121761710D01*
X169480683Y-121855683D01*
X169386710Y-121970190D01*
X169316882Y-122100830D01*
X169273881Y-122242582D01*
X169259362Y-122390000D01*
X164732000Y-122390000D01*
X164732000Y-116884299D01*
X164736363Y-116840000D01*
X164732000Y-116795700D01*
X164732000Y-116795693D01*
X164718948Y-116663177D01*
X164667371Y-116493150D01*
X164583614Y-116336451D01*
X164470896Y-116199104D01*
X164436481Y-116170860D01*
X160025621Y-111760000D01*
X163465128Y-111760000D01*
X163473000Y-111839926D01*
X163473001Y-113585066D01*
X163465128Y-113665000D01*
X163496542Y-113983948D01*
X163589575Y-114290638D01*
X163740654Y-114573286D01*
X163943971Y-114821029D01*
X164191714Y-115024346D01*
X164474362Y-115175425D01*
X164781052Y-115268458D01*
X165020075Y-115292000D01*
X165100000Y-115299872D01*
X165179925Y-115292000D01*
X168195075Y-115292000D01*
X168275000Y-115299872D01*
X168593948Y-115268458D01*
X168900638Y-115175425D01*
X169183286Y-115024346D01*
X169376527Y-114865758D01*
X169386710Y-114884810D01*
X169480683Y-114999317D01*
X169595190Y-115093290D01*
X169658182Y-115126959D01*
X169609483Y-115175658D01*
X169439636Y-115429853D01*
X169322643Y-115712298D01*
X169263000Y-116012141D01*
X169263000Y-116317859D01*
X169322643Y-116617702D01*
X169439636Y-116900147D01*
X169609483Y-117154342D01*
X169825658Y-117370517D01*
X170079853Y-117540364D01*
X170362298Y-117657357D01*
X170662141Y-117717000D01*
X170967859Y-117717000D01*
X171267702Y-117657357D01*
X171550147Y-117540364D01*
X171804342Y-117370517D01*
X172020517Y-117154342D01*
X172190364Y-116900147D01*
X172307357Y-116617702D01*
X172367000Y-116317859D01*
X172367000Y-116012141D01*
X172307357Y-115712298D01*
X172190364Y-115429853D01*
X172020517Y-115175658D01*
X171971818Y-115126959D01*
X172034810Y-115093290D01*
X172149317Y-114999317D01*
X172243290Y-114884810D01*
X172313118Y-114754170D01*
X172356119Y-114612418D01*
X172370638Y-114465000D01*
X172370638Y-112865000D01*
X172356119Y-112717582D01*
X172313118Y-112575830D01*
X172243290Y-112445190D01*
X172149317Y-112330683D01*
X172034810Y-112236710D01*
X171904170Y-112166882D01*
X171781610Y-112129703D01*
X171745206Y-112009696D01*
X171705843Y-111936053D01*
X171652164Y-111835625D01*
X171526949Y-111683051D01*
X171488709Y-111651668D01*
X170923332Y-111086291D01*
X170891949Y-111048051D01*
X170739375Y-110922836D01*
X170565304Y-110829794D01*
X170376426Y-110772498D01*
X170229223Y-110758000D01*
X170229216Y-110758000D01*
X170189203Y-110754059D01*
X170066029Y-110603971D01*
X169818286Y-110400654D01*
X169535638Y-110249575D01*
X169228948Y-110156542D01*
X168989925Y-110133000D01*
X168910000Y-110125128D01*
X168830075Y-110133000D01*
X165179925Y-110133000D01*
X165100000Y-110125128D01*
X165020075Y-110133000D01*
X164781052Y-110156542D01*
X164474362Y-110249575D01*
X164191714Y-110400654D01*
X163943971Y-110603971D01*
X163740654Y-110851714D01*
X163589575Y-111134362D01*
X163496542Y-111441052D01*
X163465128Y-111760000D01*
X160025621Y-111760000D01*
X159419143Y-111153523D01*
X159390896Y-111119104D01*
X159253549Y-111006386D01*
X159096850Y-110922629D01*
X158926823Y-110871052D01*
X158794307Y-110858000D01*
X158794299Y-110858000D01*
X158750000Y-110853637D01*
X158705701Y-110858000D01*
X158354205Y-110858000D01*
X158397000Y-110642859D01*
X158397000Y-110337141D01*
X158337357Y-110037298D01*
X158220364Y-109754853D01*
X158050517Y-109500658D01*
X157834342Y-109284483D01*
X157737836Y-109220000D01*
X157834342Y-109155517D01*
X158050517Y-108939342D01*
X158220364Y-108685147D01*
X158337357Y-108402702D01*
X158397000Y-108102859D01*
X158397000Y-107797141D01*
X158337357Y-107497298D01*
X158220364Y-107214853D01*
X158050517Y-106960658D01*
X157834342Y-106744483D01*
X157737836Y-106680000D01*
X157834342Y-106615517D01*
X158050517Y-106399342D01*
X158220364Y-106145147D01*
X158337357Y-105862702D01*
X158397000Y-105562859D01*
X158397000Y-105257141D01*
X158337357Y-104957298D01*
X158220364Y-104674853D01*
X158050517Y-104420658D01*
X157834342Y-104204483D01*
X157737836Y-104140000D01*
X157834342Y-104075517D01*
X158050517Y-103859342D01*
X158220364Y-103605147D01*
X158330191Y-103340000D01*
X169259362Y-103340000D01*
X169259362Y-104940000D01*
X169273881Y-105087418D01*
X169316882Y-105229170D01*
X169386710Y-105359810D01*
X169480683Y-105474317D01*
X169595190Y-105568290D01*
X169658182Y-105601959D01*
X169609483Y-105650658D01*
X169439636Y-105904853D01*
X169322643Y-106187298D01*
X169263000Y-106487141D01*
X169263000Y-106792859D01*
X169322643Y-107092702D01*
X169439636Y-107375147D01*
X169609483Y-107629342D01*
X169825658Y-107845517D01*
X170079853Y-108015364D01*
X170362298Y-108132357D01*
X170662141Y-108192000D01*
X170967859Y-108192000D01*
X171267702Y-108132357D01*
X171550147Y-108015364D01*
X171804342Y-107845517D01*
X172020517Y-107629342D01*
X172190364Y-107375147D01*
X172307357Y-107092702D01*
X172367000Y-106792859D01*
X172367000Y-106487141D01*
X172307357Y-106187298D01*
X172190364Y-105904853D01*
X172020517Y-105650658D01*
X171971818Y-105601959D01*
X172034810Y-105568290D01*
X172149317Y-105474317D01*
X172243290Y-105359810D01*
X172313118Y-105229170D01*
X172356119Y-105087418D01*
X172370638Y-104940000D01*
X172370638Y-103340000D01*
X172356119Y-103192582D01*
X172313118Y-103050830D01*
X172243290Y-102920190D01*
X172149317Y-102805683D01*
X172034810Y-102711710D01*
X171904170Y-102641882D01*
X171762418Y-102598881D01*
X171615000Y-102584362D01*
X170015000Y-102584362D01*
X169867582Y-102598881D01*
X169725830Y-102641882D01*
X169595190Y-102711710D01*
X169480683Y-102805683D01*
X169386710Y-102920190D01*
X169316882Y-103050830D01*
X169273881Y-103192582D01*
X169259362Y-103340000D01*
X158330191Y-103340000D01*
X158337357Y-103322702D01*
X158397000Y-103022859D01*
X158397000Y-102717141D01*
X158337357Y-102417298D01*
X158220364Y-102134853D01*
X158050517Y-101880658D01*
X157834342Y-101664483D01*
X157737836Y-101600000D01*
X157834342Y-101535517D01*
X158050517Y-101319342D01*
X158220364Y-101065147D01*
X158337357Y-100782702D01*
X158374563Y-100595658D01*
X158432500Y-100601364D01*
X158476807Y-100597000D01*
X173945701Y-100597000D01*
X173990000Y-100601363D01*
X174034299Y-100597000D01*
X174034307Y-100597000D01*
X174166823Y-100583948D01*
X174336850Y-100532371D01*
X174493549Y-100448614D01*
X174630896Y-100335896D01*
X174659143Y-100301477D01*
X176902170Y-98058450D01*
X176904741Y-98084555D01*
X176990660Y-98367791D01*
X177130184Y-98628822D01*
X177317952Y-98857618D01*
X177546748Y-99045386D01*
X177807779Y-99184910D01*
X178091015Y-99270829D01*
X178311756Y-99292570D01*
X178558244Y-99292570D01*
X178778985Y-99270829D01*
X179062221Y-99184910D01*
X179323252Y-99045386D01*
X179552048Y-98857618D01*
X179739816Y-98628822D01*
X179879340Y-98367791D01*
X179901753Y-98293904D01*
X186336370Y-98293904D01*
X186336370Y-98934616D01*
X186461367Y-99563017D01*
X186706557Y-100154958D01*
X187062517Y-100687691D01*
X187515569Y-101140743D01*
X188048302Y-101496703D01*
X188640243Y-101741893D01*
X189268644Y-101866890D01*
X189909356Y-101866890D01*
X190537757Y-101741893D01*
X191129698Y-101496703D01*
X191662431Y-101140743D01*
X192115483Y-100687691D01*
X192471443Y-100154958D01*
X192716633Y-99563017D01*
X192841630Y-98934616D01*
X192841630Y-98293904D01*
X192716633Y-97665503D01*
X192471443Y-97073562D01*
X192115483Y-96540829D01*
X191662431Y-96087777D01*
X191129698Y-95731817D01*
X190537757Y-95486627D01*
X189909356Y-95361630D01*
X189268644Y-95361630D01*
X188640243Y-95486627D01*
X188048302Y-95731817D01*
X187515569Y-96087777D01*
X187062517Y-96540829D01*
X186706557Y-97073562D01*
X186461367Y-97665503D01*
X186336370Y-98293904D01*
X179901753Y-98293904D01*
X179965259Y-98084555D01*
X179994270Y-97790000D01*
X179965259Y-97495445D01*
X179879340Y-97212209D01*
X179739816Y-96951178D01*
X179552048Y-96722382D01*
X179323252Y-96534614D01*
X179295911Y-96520000D01*
X179323252Y-96505386D01*
X179552048Y-96317618D01*
X179739816Y-96088822D01*
X179879340Y-95827791D01*
X179965259Y-95544555D01*
X179994270Y-95250000D01*
X179965259Y-94955445D01*
X179942980Y-94882000D01*
X189390710Y-94882000D01*
X189435009Y-94886363D01*
X189479308Y-94882000D01*
X189479316Y-94882000D01*
X189611832Y-94868948D01*
X189781859Y-94817371D01*
X189938558Y-94733614D01*
X190075905Y-94620896D01*
X190104152Y-94586477D01*
X193903908Y-90786721D01*
X193938326Y-90758475D01*
X194051044Y-90621128D01*
X194134801Y-90464429D01*
X194186378Y-90294402D01*
X194199430Y-90161886D01*
X194199430Y-90161879D01*
X194203793Y-90117580D01*
X194199430Y-90073280D01*
X194199430Y-83976181D01*
X194203793Y-83931881D01*
X194199430Y-83887582D01*
X194199430Y-83887575D01*
X194186378Y-83755059D01*
X194134801Y-83585032D01*
X194051044Y-83428333D01*
X193938326Y-83290986D01*
X193903907Y-83262739D01*
X192843283Y-82202115D01*
X192866680Y-81964560D01*
X192837669Y-81670005D01*
X192751750Y-81386769D01*
X192612226Y-81125738D01*
X192424458Y-80896942D01*
X192195662Y-80709174D01*
X191934631Y-80569650D01*
X191651395Y-80483731D01*
X191430654Y-80461990D01*
X190785186Y-80461990D01*
X190564445Y-80483731D01*
X190281209Y-80569650D01*
X190020178Y-80709174D01*
X189793692Y-80895046D01*
X189799829Y-80874815D01*
X189828840Y-80580260D01*
X189799829Y-80285705D01*
X189713910Y-80002469D01*
X189574386Y-79741438D01*
X189386618Y-79512642D01*
X189157822Y-79324874D01*
X188896791Y-79185350D01*
X188613555Y-79099431D01*
X188392814Y-79077690D01*
X187747346Y-79077690D01*
X187526605Y-79099431D01*
X187243369Y-79185350D01*
X186982338Y-79324874D01*
X186753542Y-79512642D01*
X186565774Y-79741438D01*
X186426250Y-80002469D01*
X186340331Y-80285705D01*
X186311320Y-80580260D01*
X186340331Y-80874815D01*
X186426250Y-81158051D01*
X186565774Y-81419082D01*
X186753542Y-81647878D01*
X186982338Y-81835646D01*
X187223519Y-81964560D01*
X186982338Y-82093474D01*
X186753542Y-82281242D01*
X186565774Y-82510038D01*
X186426250Y-82771069D01*
X186381679Y-82918000D01*
X185879485Y-82918000D01*
X185892729Y-82886026D01*
X185937000Y-82663462D01*
X185937000Y-82436538D01*
X185892729Y-82213974D01*
X185805889Y-82004323D01*
X185679817Y-81815643D01*
X185519357Y-81655183D01*
X185330677Y-81529111D01*
X185121026Y-81442271D01*
X184898462Y-81398000D01*
X184671538Y-81398000D01*
X184448974Y-81442271D01*
X184239323Y-81529111D01*
X184061393Y-81648000D01*
X183253621Y-81648000D01*
X182931242Y-81325621D01*
X182980147Y-81305364D01*
X183234342Y-81135517D01*
X183450517Y-80919342D01*
X183620364Y-80665147D01*
X183737357Y-80382702D01*
X183797000Y-80082859D01*
X183797000Y-79777141D01*
X183737357Y-79477298D01*
X183620364Y-79194853D01*
X183450517Y-78940658D01*
X183234342Y-78724483D01*
X182980147Y-78554636D01*
X182697702Y-78437643D01*
X182397859Y-78378000D01*
X182092141Y-78378000D01*
X181792298Y-78437643D01*
X181509853Y-78554636D01*
X181327020Y-78676801D01*
X181327020Y-77672166D01*
X181331384Y-77627859D01*
X181313968Y-77451037D01*
X181273351Y-77317141D01*
X181262391Y-77281010D01*
X181178634Y-77124311D01*
X181065916Y-76986964D01*
X181031502Y-76958721D01*
X179775271Y-75702491D01*
X179879340Y-75507791D01*
X179965259Y-75224555D01*
X179994270Y-74930000D01*
X179979215Y-74777141D01*
X180693000Y-74777141D01*
X180693000Y-75082859D01*
X180752643Y-75382702D01*
X180869636Y-75665147D01*
X181039483Y-75919342D01*
X181255658Y-76135517D01*
X181509853Y-76305364D01*
X181792298Y-76422357D01*
X182092141Y-76482000D01*
X182397859Y-76482000D01*
X182697702Y-76422357D01*
X182980147Y-76305364D01*
X183234342Y-76135517D01*
X183450517Y-75919342D01*
X183620364Y-75665147D01*
X183737357Y-75382702D01*
X183797000Y-75082859D01*
X183797000Y-74777141D01*
X183737357Y-74477298D01*
X183620364Y-74194853D01*
X183450517Y-73940658D01*
X183234342Y-73724483D01*
X182980147Y-73554636D01*
X182697702Y-73437643D01*
X182397859Y-73378000D01*
X182092141Y-73378000D01*
X181792298Y-73437643D01*
X181509853Y-73554636D01*
X181255658Y-73724483D01*
X181039483Y-73940658D01*
X180869636Y-74194853D01*
X180752643Y-74477298D01*
X180693000Y-74777141D01*
X179979215Y-74777141D01*
X179965259Y-74635445D01*
X179879340Y-74352209D01*
X179739816Y-74091178D01*
X179552048Y-73862382D01*
X179323252Y-73674614D01*
X179062221Y-73535090D01*
X178778985Y-73449171D01*
X178558244Y-73427430D01*
X178311756Y-73427430D01*
X178091015Y-73449171D01*
X177807779Y-73535090D01*
X177546748Y-73674614D01*
X177317952Y-73862382D01*
X177130184Y-74091178D01*
X176990660Y-74352209D01*
X176904741Y-74635445D01*
X176875730Y-74930000D01*
X176904741Y-75224555D01*
X176927020Y-75298000D01*
X175304299Y-75298000D01*
X175259999Y-75293637D01*
X175215700Y-75298000D01*
X175215693Y-75298000D01*
X175083177Y-75311052D01*
X174913150Y-75362629D01*
X174756451Y-75446386D01*
X174619104Y-75559104D01*
X174590857Y-75593523D01*
X173616380Y-76568000D01*
X172067967Y-76568000D01*
X171932048Y-76402382D01*
X171903445Y-76378908D01*
X171904170Y-76378688D01*
X172034810Y-76308860D01*
X172149317Y-76214887D01*
X172243290Y-76100380D01*
X172313118Y-75969740D01*
X172356119Y-75827988D01*
X172370638Y-75680570D01*
X172370638Y-74179430D01*
X172356119Y-74032012D01*
X172313118Y-73890260D01*
X172243290Y-73759620D01*
X172149317Y-73645113D01*
X172034810Y-73551140D01*
X171904170Y-73481312D01*
X171762418Y-73438311D01*
X171615000Y-73423792D01*
X170015000Y-73423792D01*
X169867582Y-73438311D01*
X169725830Y-73481312D01*
X169595190Y-73551140D01*
X169480683Y-73645113D01*
X169386710Y-73759620D01*
X169316882Y-73890260D01*
X169273881Y-74032012D01*
X169259362Y-74179430D01*
X169259362Y-75680570D01*
X169273881Y-75827988D01*
X169316882Y-75969740D01*
X169386710Y-76100380D01*
X169480683Y-76214887D01*
X169595190Y-76308860D01*
X169725830Y-76378688D01*
X169726555Y-76378908D01*
X169697952Y-76402382D01*
X169510184Y-76631178D01*
X169370660Y-76892209D01*
X169284741Y-77175445D01*
X169255730Y-77470000D01*
X169284741Y-77764555D01*
X169318416Y-77875567D01*
X169198150Y-77912049D01*
X169041451Y-77995806D01*
X168904104Y-78108524D01*
X168875857Y-78142943D01*
X166005800Y-81013000D01*
X161766859Y-81013000D01*
X161860517Y-80919342D01*
X162030364Y-80665147D01*
X162147357Y-80382702D01*
X162207000Y-80082859D01*
X162207000Y-79777141D01*
X162147357Y-79477298D01*
X162030364Y-79194853D01*
X161860517Y-78940658D01*
X161644342Y-78724483D01*
X161390147Y-78554636D01*
X161107702Y-78437643D01*
X160807859Y-78378000D01*
X160502141Y-78378000D01*
X160202298Y-78437643D01*
X159919853Y-78554636D01*
X159665658Y-78724483D01*
X159449483Y-78940658D01*
X159279636Y-79194853D01*
X159162643Y-79477298D01*
X159103000Y-79777141D01*
X159103000Y-80082859D01*
X159162643Y-80382702D01*
X159279636Y-80665147D01*
X159449483Y-80919342D01*
X159543141Y-81013000D01*
X159123621Y-81013000D01*
X158376506Y-80265886D01*
X158397000Y-80162859D01*
X158397000Y-79857141D01*
X158337357Y-79557298D01*
X158220364Y-79274853D01*
X158050517Y-79020658D01*
X157834342Y-78804483D01*
X157737836Y-78740000D01*
X157834342Y-78675517D01*
X158050517Y-78459342D01*
X158220364Y-78205147D01*
X158337357Y-77922702D01*
X158397000Y-77622859D01*
X158397000Y-77317141D01*
X158337357Y-77017298D01*
X158220364Y-76734853D01*
X158050517Y-76480658D01*
X157834342Y-76264483D01*
X157737836Y-76200000D01*
X157834342Y-76135517D01*
X158050517Y-75919342D01*
X158220364Y-75665147D01*
X158337357Y-75382702D01*
X158397000Y-75082859D01*
X158397000Y-74777141D01*
X159103000Y-74777141D01*
X159103000Y-75082859D01*
X159162643Y-75382702D01*
X159279636Y-75665147D01*
X159449483Y-75919342D01*
X159665658Y-76135517D01*
X159919853Y-76305364D01*
X160202298Y-76422357D01*
X160502141Y-76482000D01*
X160807859Y-76482000D01*
X161107702Y-76422357D01*
X161390147Y-76305364D01*
X161644342Y-76135517D01*
X161860517Y-75919342D01*
X162030364Y-75665147D01*
X162147357Y-75382702D01*
X162207000Y-75082859D01*
X162207000Y-74777141D01*
X162147357Y-74477298D01*
X162030364Y-74194853D01*
X161860517Y-73940658D01*
X161644342Y-73724483D01*
X161390147Y-73554636D01*
X161107702Y-73437643D01*
X160807859Y-73378000D01*
X160502141Y-73378000D01*
X160202298Y-73437643D01*
X159919853Y-73554636D01*
X159665658Y-73724483D01*
X159449483Y-73940658D01*
X159279636Y-74194853D01*
X159162643Y-74477298D01*
X159103000Y-74777141D01*
X158397000Y-74777141D01*
X158337357Y-74477298D01*
X158220364Y-74194853D01*
X158050517Y-73940658D01*
X157834342Y-73724483D01*
X157580147Y-73554636D01*
X157297702Y-73437643D01*
X156997859Y-73378000D01*
X156692141Y-73378000D01*
X156392298Y-73437643D01*
X156109853Y-73554636D01*
X155855658Y-73724483D01*
X155639483Y-73940658D01*
X155469636Y-74194853D01*
X155352643Y-74477298D01*
X155293000Y-74777141D01*
X155293000Y-75082859D01*
X155352643Y-75382702D01*
X155469636Y-75665147D01*
X155639483Y-75919342D01*
X155855658Y-76135517D01*
X155952164Y-76200000D01*
X155855658Y-76264483D01*
X155639483Y-76480658D01*
X155469636Y-76734853D01*
X155352643Y-77017298D01*
X155293000Y-77317141D01*
X155293000Y-77622859D01*
X155352643Y-77922702D01*
X155469636Y-78205147D01*
X155639483Y-78459342D01*
X155855658Y-78675517D01*
X155952164Y-78740000D01*
X155855658Y-78804483D01*
X155639483Y-79020658D01*
X155469636Y-79274853D01*
X155352643Y-79557298D01*
X155293000Y-79857141D01*
X155293000Y-80162859D01*
X155352643Y-80462702D01*
X155469636Y-80745147D01*
X155639483Y-80999342D01*
X155855658Y-81215517D01*
X155952164Y-81280000D01*
X155855658Y-81344483D01*
X155639483Y-81560658D01*
X155469636Y-81814853D01*
X155352643Y-82097298D01*
X155293000Y-82397141D01*
X155293000Y-82702859D01*
X155352643Y-83002702D01*
X155469636Y-83285147D01*
X155639483Y-83539342D01*
X155855658Y-83755517D01*
X155952164Y-83820000D01*
X155855658Y-83884483D01*
X155639483Y-84100658D01*
X155469636Y-84354853D01*
X155352643Y-84637298D01*
X155293000Y-84937141D01*
X155293000Y-85242859D01*
X155347729Y-85517999D01*
X154104633Y-85517999D01*
X154142729Y-85426026D01*
X154187000Y-85203462D01*
X154187000Y-84976538D01*
X154142729Y-84753974D01*
X154055889Y-84544323D01*
X153929817Y-84355643D01*
X153769357Y-84195183D01*
X153580677Y-84069111D01*
X153371026Y-83982271D01*
X153148462Y-83938000D01*
X152921538Y-83938000D01*
X152698974Y-83982271D01*
X152489323Y-84069111D01*
X152311393Y-84188000D01*
X142868877Y-84188000D01*
X142810517Y-84100658D01*
X142594342Y-83884483D01*
X142497836Y-83820000D01*
X142594342Y-83755517D01*
X142810517Y-83539342D01*
X142868877Y-83452000D01*
X151041390Y-83452000D01*
X151219330Y-83570896D01*
X151428981Y-83657736D01*
X151651545Y-83702007D01*
X151878469Y-83702007D01*
X152101033Y-83657736D01*
X152310684Y-83570896D01*
X152499364Y-83444824D01*
X152659824Y-83284364D01*
X152785896Y-83095684D01*
X152872736Y-82886033D01*
X152917007Y-82663469D01*
X152917007Y-82436545D01*
X152872736Y-82213981D01*
X152785896Y-82004330D01*
X152659824Y-81815650D01*
X152499364Y-81655190D01*
X152310684Y-81529118D01*
X152101033Y-81442278D01*
X151878469Y-81398007D01*
X151651545Y-81398007D01*
X151428981Y-81442278D01*
X151219330Y-81529118D01*
X151041411Y-81648000D01*
X142868877Y-81648000D01*
X142810517Y-81560658D01*
X142594342Y-81344483D01*
X142497836Y-81280000D01*
X142594342Y-81215517D01*
X142810517Y-80999342D01*
X142868877Y-80912000D01*
X149771393Y-80912000D01*
X149949323Y-81030889D01*
X150158974Y-81117729D01*
X150381538Y-81162000D01*
X150608462Y-81162000D01*
X150831026Y-81117729D01*
X151040677Y-81030889D01*
X151229357Y-80904817D01*
X151389817Y-80744357D01*
X151515889Y-80555677D01*
X151602729Y-80346026D01*
X151647000Y-80123462D01*
X151647000Y-79896538D01*
X151602729Y-79673974D01*
X151515889Y-79464323D01*
X151389817Y-79275643D01*
X151229357Y-79115183D01*
X151040677Y-78989111D01*
X150831026Y-78902271D01*
X150608462Y-78858000D01*
X150381538Y-78858000D01*
X150158974Y-78902271D01*
X149949323Y-78989111D01*
X149771393Y-79108000D01*
X142868877Y-79108000D01*
X142810517Y-79020658D01*
X142594342Y-78804483D01*
X142497836Y-78740000D01*
X142594342Y-78675517D01*
X142810517Y-78459342D01*
X142868877Y-78372000D01*
X148501393Y-78372000D01*
X148679323Y-78490889D01*
X148888974Y-78577729D01*
X149111538Y-78622000D01*
X149338462Y-78622000D01*
X149561026Y-78577729D01*
X149770677Y-78490889D01*
X149959357Y-78364817D01*
X150119817Y-78204357D01*
X150245889Y-78015677D01*
X150332729Y-77806026D01*
X150377000Y-77583462D01*
X150377000Y-77356538D01*
X150332729Y-77133974D01*
X150245889Y-76924323D01*
X150119817Y-76735643D01*
X149959357Y-76575183D01*
X149770677Y-76449111D01*
X149561026Y-76362271D01*
X149338462Y-76318000D01*
X149111538Y-76318000D01*
X148888974Y-76362271D01*
X148679323Y-76449111D01*
X148501393Y-76568000D01*
X142868877Y-76568000D01*
X142810517Y-76480658D01*
X142735751Y-76405892D01*
X142824810Y-76358290D01*
X142939317Y-76264317D01*
X143033290Y-76149810D01*
X143103118Y-76019170D01*
X143146119Y-75877418D01*
X143160638Y-75730000D01*
X143160638Y-74130000D01*
X143146119Y-73982582D01*
X143103118Y-73840830D01*
X143033290Y-73710190D01*
X142939317Y-73595683D01*
X142824810Y-73501710D01*
X142694170Y-73431882D01*
X142552418Y-73388881D01*
X142405000Y-73374362D01*
X140805000Y-73374362D01*
X140657582Y-73388881D01*
X140515830Y-73431882D01*
X140385190Y-73501710D01*
X140270683Y-73595683D01*
X140176710Y-73710190D01*
X140106882Y-73840830D01*
X140063881Y-73982582D01*
X140049362Y-74130000D01*
X140049362Y-75730000D01*
X140063881Y-75877418D01*
X140106882Y-76019170D01*
X140176710Y-76149810D01*
X140270683Y-76264317D01*
X140385190Y-76358290D01*
X140474249Y-76405892D01*
X140399483Y-76480658D01*
X140229636Y-76734853D01*
X140112643Y-77017298D01*
X140053000Y-77317141D01*
X140053000Y-77622859D01*
X140112643Y-77922702D01*
X140229636Y-78205147D01*
X140399483Y-78459342D01*
X140615658Y-78675517D01*
X140712164Y-78740000D01*
X140615658Y-78804483D01*
X140399483Y-79020658D01*
X140229636Y-79274853D01*
X140112643Y-79557298D01*
X140053000Y-79857141D01*
X140053000Y-80162859D01*
X140112643Y-80462702D01*
X140229636Y-80745147D01*
X140399483Y-80999342D01*
X140615658Y-81215517D01*
X140712164Y-81280000D01*
X140615658Y-81344483D01*
X140399483Y-81560658D01*
X140229636Y-81814853D01*
X140112643Y-82097298D01*
X140053000Y-82397141D01*
X140053000Y-82702859D01*
X140112643Y-83002702D01*
X140229636Y-83285147D01*
X140399483Y-83539342D01*
X140615658Y-83755517D01*
X140712164Y-83820000D01*
X140615658Y-83884483D01*
X140399483Y-84100658D01*
X140229636Y-84354853D01*
X140112643Y-84637298D01*
X140053000Y-84937141D01*
X140053000Y-85242859D01*
X140112643Y-85542702D01*
X140229636Y-85825147D01*
X140399483Y-86079342D01*
X140615658Y-86295517D01*
X140712164Y-86360000D01*
X140615658Y-86424483D01*
X140399483Y-86640658D01*
X140229636Y-86894853D01*
X140112643Y-87177298D01*
X140053000Y-87477141D01*
X140053000Y-87782859D01*
X140112643Y-88082702D01*
X140229636Y-88365147D01*
X140399483Y-88619342D01*
X140615658Y-88835517D01*
X140712164Y-88900000D01*
X140615658Y-88964483D01*
X140399483Y-89180658D01*
X140229636Y-89434853D01*
X140112643Y-89717298D01*
X140053000Y-90017141D01*
X140053000Y-90322859D01*
X140112643Y-90622702D01*
X140229636Y-90905147D01*
X140399483Y-91159342D01*
X140615658Y-91375517D01*
X140712164Y-91440000D01*
X140615658Y-91504483D01*
X140399483Y-91720658D01*
X140229636Y-91974853D01*
X140112643Y-92257298D01*
X140053000Y-92557141D01*
X140053000Y-92862859D01*
X140112643Y-93162702D01*
X140229636Y-93445147D01*
X140399483Y-93699342D01*
X140615658Y-93915517D01*
X140712164Y-93980000D01*
X140615658Y-94044483D01*
X140399483Y-94260658D01*
X140229636Y-94514853D01*
X140112643Y-94797298D01*
X140053000Y-95097141D01*
X140053000Y-95402859D01*
X140112643Y-95702702D01*
X140229636Y-95985147D01*
X140399483Y-96239342D01*
X140615658Y-96455517D01*
X140712164Y-96520000D01*
X140615658Y-96584483D01*
X140399483Y-96800658D01*
X140229636Y-97054853D01*
X140112643Y-97337298D01*
X140053000Y-97637141D01*
X140053000Y-97942859D01*
X140112643Y-98242702D01*
X140229636Y-98525147D01*
X140399483Y-98779342D01*
X140615658Y-98995517D01*
X140712164Y-99060000D01*
X140615658Y-99124483D01*
X140399483Y-99340658D01*
X140229636Y-99594853D01*
X140112643Y-99877298D01*
X140053000Y-100177141D01*
X140053000Y-100482859D01*
X140112643Y-100782702D01*
X140229636Y-101065147D01*
X140399483Y-101319342D01*
X140615658Y-101535517D01*
X140712164Y-101600000D01*
X140615658Y-101664483D01*
X140399483Y-101880658D01*
X140229636Y-102134853D01*
X140112643Y-102417298D01*
X140053000Y-102717141D01*
X140053000Y-103022859D01*
X140112643Y-103322702D01*
X140229636Y-103605147D01*
X140399483Y-103859342D01*
X140615658Y-104075517D01*
X140712164Y-104140000D01*
X140615658Y-104204483D01*
X140399483Y-104420658D01*
X140229636Y-104674853D01*
X140112643Y-104957298D01*
X140053000Y-105257141D01*
X140053000Y-105562859D01*
X140095795Y-105778000D01*
X127723607Y-105778000D01*
X127545677Y-105659111D01*
X127336026Y-105572271D01*
X127113462Y-105528000D01*
X126886538Y-105528000D01*
X126663974Y-105572271D01*
X126454323Y-105659111D01*
X126265643Y-105785183D01*
X126105183Y-105945643D01*
X125979111Y-106134323D01*
X125892271Y-106343974D01*
X125848000Y-106566538D01*
X125848000Y-106793462D01*
X125892271Y-107016026D01*
X125905515Y-107048000D01*
X125818607Y-107048000D01*
X125640677Y-106929111D01*
X125431026Y-106842271D01*
X125208462Y-106798000D01*
X124981538Y-106798000D01*
X124758974Y-106842271D01*
X124549323Y-106929111D01*
X124360643Y-107055183D01*
X124200183Y-107215643D01*
X124074111Y-107404323D01*
X123987271Y-107613974D01*
X123943000Y-107836538D01*
X123943000Y-108063462D01*
X123987271Y-108286026D01*
X124074111Y-108495677D01*
X124200183Y-108684357D01*
X124360643Y-108844817D01*
X124549323Y-108970889D01*
X124758974Y-109057729D01*
X124981538Y-109102000D01*
X125208462Y-109102000D01*
X125431026Y-109057729D01*
X125640677Y-108970889D01*
X125818607Y-108852000D01*
X127175515Y-108852000D01*
X127162271Y-108883974D01*
X127118000Y-109106538D01*
X127118000Y-109333462D01*
X127162271Y-109556026D01*
X127249111Y-109765677D01*
X127375183Y-109954357D01*
X127535643Y-110114817D01*
X127724323Y-110240889D01*
X127933974Y-110327729D01*
X128156538Y-110372000D01*
X128383462Y-110372000D01*
X128606026Y-110327729D01*
X128815677Y-110240889D01*
X128993607Y-110122000D01*
X140095795Y-110122000D01*
X140053000Y-110337141D01*
X140053000Y-110642859D01*
X140095795Y-110858000D01*
X130263607Y-110858000D01*
X130085677Y-110739111D01*
X129876026Y-110652271D01*
X129653462Y-110608000D01*
X129426538Y-110608000D01*
X129203974Y-110652271D01*
X128994323Y-110739111D01*
X128805643Y-110865183D01*
X128645183Y-111025643D01*
X128519111Y-111214323D01*
X128432271Y-111423974D01*
X128388000Y-111646538D01*
X128388000Y-111873462D01*
X128432271Y-112096026D01*
X128519111Y-112305677D01*
X128645183Y-112494357D01*
X128805643Y-112654817D01*
X128994323Y-112780889D01*
X129203974Y-112867729D01*
X129426538Y-112912000D01*
X129653462Y-112912000D01*
X129659127Y-112910873D01*
X129658000Y-112916538D01*
X129658000Y-113143462D01*
X129702271Y-113366026D01*
X129715515Y-113398000D01*
X126738621Y-113398000D01*
X126399143Y-113058523D01*
X126370896Y-113024104D01*
X126233549Y-112911386D01*
X126076850Y-112827629D01*
X125906823Y-112776052D01*
X125784695Y-112764023D01*
X125704354Y-112643785D01*
X125481215Y-112420646D01*
X125218831Y-112245326D01*
X124927286Y-112124564D01*
X124617783Y-112063000D01*
X124302217Y-112063000D01*
X123992714Y-112124564D01*
X123701169Y-112245326D01*
X123438785Y-112420646D01*
X123421262Y-112438169D01*
X123398290Y-112395190D01*
X123304317Y-112280683D01*
X123189810Y-112186710D01*
X123059170Y-112116882D01*
X122917418Y-112073881D01*
X122770000Y-112059362D01*
X121070000Y-112059362D01*
X120922582Y-112073881D01*
X120780830Y-112116882D01*
X120650190Y-112186710D01*
X120535683Y-112280683D01*
X120441710Y-112395190D01*
X120371882Y-112525830D01*
X120328881Y-112667582D01*
X120314362Y-112815000D01*
X120314362Y-114515000D01*
X120328881Y-114662418D01*
X120371882Y-114804170D01*
X120441710Y-114934810D01*
X120535683Y-115049317D01*
X120650190Y-115143290D01*
X120693169Y-115166262D01*
X120675646Y-115183785D01*
X120500326Y-115446169D01*
X120379564Y-115737714D01*
X120318000Y-116047217D01*
X120318000Y-116362783D01*
X120379564Y-116672286D01*
X120500326Y-116963831D01*
X120675646Y-117226215D01*
X120898785Y-117449354D01*
X120937167Y-117475000D01*
X120898785Y-117500646D01*
X120675646Y-117723785D01*
X120500326Y-117986169D01*
X120379564Y-118277714D01*
X120318000Y-118587217D01*
X120318000Y-118902783D01*
X120379564Y-119212286D01*
X120500326Y-119503831D01*
X120675646Y-119766215D01*
X120898785Y-119989354D01*
X120937167Y-120015000D01*
X120898785Y-120040646D01*
X120675646Y-120263785D01*
X120500326Y-120526169D01*
X120379564Y-120817714D01*
X120318000Y-121127217D01*
X120318000Y-121442783D01*
X120379564Y-121752286D01*
X120500326Y-122043831D01*
X120675646Y-122306215D01*
X120898785Y-122529354D01*
X120937167Y-122555000D01*
X120898785Y-122580646D01*
X120675646Y-122803785D01*
X120500326Y-123066169D01*
X120379564Y-123357714D01*
X120318000Y-123667217D01*
X120318000Y-123982783D01*
X120379564Y-124292286D01*
X120500326Y-124583831D01*
X120663475Y-124828000D01*
X110476525Y-124828000D01*
X110639674Y-124583831D01*
X110760436Y-124292286D01*
X110822000Y-123982783D01*
X110822000Y-123667217D01*
X110760436Y-123357714D01*
X110639674Y-123066169D01*
X110464354Y-122803785D01*
X110241215Y-122580646D01*
X110202833Y-122555000D01*
X110241215Y-122529354D01*
X110464354Y-122306215D01*
X110639674Y-122043831D01*
X110760436Y-121752286D01*
X110822000Y-121442783D01*
X110822000Y-121127217D01*
X110760436Y-120817714D01*
X110639674Y-120526169D01*
X110464354Y-120263785D01*
X110241215Y-120040646D01*
X109978831Y-119865326D01*
X109687286Y-119744564D01*
X109377783Y-119683000D01*
X109062217Y-119683000D01*
X108752714Y-119744564D01*
X108461169Y-119865326D01*
X108198785Y-120040646D01*
X107975646Y-120263785D01*
X107950000Y-120302167D01*
X107924354Y-120263785D01*
X107701215Y-120040646D01*
X107438831Y-119865326D01*
X107147286Y-119744564D01*
X106837783Y-119683000D01*
X106522217Y-119683000D01*
X106212714Y-119744564D01*
X105921169Y-119865326D01*
X105658785Y-120040646D01*
X105641262Y-120058169D01*
X105618290Y-120015190D01*
X105524317Y-119900683D01*
X105409810Y-119806710D01*
X105279170Y-119736882D01*
X105137418Y-119693881D01*
X104990000Y-119679362D01*
X103290000Y-119679362D01*
X103142582Y-119693881D01*
X103000830Y-119736882D01*
X102870190Y-119806710D01*
X102755683Y-119900683D01*
X102661710Y-120015190D01*
X102591882Y-120145830D01*
X102548881Y-120287582D01*
X102534362Y-120435000D01*
X102534362Y-122135000D01*
X102548881Y-122282418D01*
X102591882Y-122424170D01*
X102661710Y-122554810D01*
X102755683Y-122669317D01*
X102870190Y-122763290D01*
X102913169Y-122786262D01*
X102895646Y-122803785D01*
X102720326Y-123066169D01*
X102599564Y-123357714D01*
X102538000Y-123667217D01*
X102538000Y-123982783D01*
X102599564Y-124292286D01*
X102720326Y-124583831D01*
X102895646Y-124846215D01*
X103118785Y-125069354D01*
X103381169Y-125244674D01*
X103672714Y-125365436D01*
X103982217Y-125427000D01*
X104297783Y-125427000D01*
X104607286Y-125365436D01*
X104898831Y-125244674D01*
X105161215Y-125069354D01*
X105384354Y-124846215D01*
X105410000Y-124807833D01*
X105435646Y-124846215D01*
X105658785Y-125069354D01*
X105921169Y-125244674D01*
X106212714Y-125365436D01*
X106522217Y-125427000D01*
X106637379Y-125427000D01*
X98453518Y-133610862D01*
X98419105Y-133639104D01*
X98306387Y-133776451D01*
X98262799Y-133858000D01*
X97424000Y-133858000D01*
X97424000Y-86246538D01*
X101718000Y-86246538D01*
X101718000Y-86473462D01*
X101762271Y-86696026D01*
X101849111Y-86905677D01*
X101975183Y-87094357D01*
X102135643Y-87254817D01*
X102324323Y-87380889D01*
X102533974Y-87467729D01*
X102756538Y-87512000D01*
X102983462Y-87512000D01*
X103206026Y-87467729D01*
X103226564Y-87459222D01*
X103223000Y-87477141D01*
X103223000Y-87782859D01*
X103282643Y-88082702D01*
X103399636Y-88365147D01*
X103569483Y-88619342D01*
X103785658Y-88835517D01*
X103882164Y-88900000D01*
X103785658Y-88964483D01*
X103569483Y-89180658D01*
X103399636Y-89434853D01*
X103282643Y-89717298D01*
X103223000Y-90017141D01*
X103223000Y-90322859D01*
X103282643Y-90622702D01*
X103399636Y-90905147D01*
X103569483Y-91159342D01*
X103785658Y-91375517D01*
X103882164Y-91440000D01*
X103785658Y-91504483D01*
X103569483Y-91720658D01*
X103399636Y-91974853D01*
X103282643Y-92257298D01*
X103223000Y-92557141D01*
X103223000Y-92862859D01*
X103282643Y-93162702D01*
X103399636Y-93445147D01*
X103569483Y-93699342D01*
X103785658Y-93915517D01*
X103882164Y-93980000D01*
X103785658Y-94044483D01*
X103569483Y-94260658D01*
X103399636Y-94514853D01*
X103282643Y-94797298D01*
X103223000Y-95097141D01*
X103223000Y-95402859D01*
X103282643Y-95702702D01*
X103399636Y-95985147D01*
X103569483Y-96239342D01*
X103785658Y-96455517D01*
X103882164Y-96520000D01*
X103785658Y-96584483D01*
X103569483Y-96800658D01*
X103399636Y-97054853D01*
X103282643Y-97337298D01*
X103223000Y-97637141D01*
X103223000Y-97942859D01*
X103282643Y-98242702D01*
X103399636Y-98525147D01*
X103569483Y-98779342D01*
X103785658Y-98995517D01*
X104039853Y-99165364D01*
X104322298Y-99282357D01*
X104622141Y-99342000D01*
X104927859Y-99342000D01*
X105227702Y-99282357D01*
X105510147Y-99165364D01*
X105764342Y-98995517D01*
X105980517Y-98779342D01*
X106150364Y-98525147D01*
X106267357Y-98242702D01*
X106327000Y-97942859D01*
X106327000Y-97637141D01*
X106267357Y-97337298D01*
X106150364Y-97054853D01*
X105980517Y-96800658D01*
X105764342Y-96584483D01*
X105667836Y-96520000D01*
X105764342Y-96455517D01*
X105980517Y-96239342D01*
X106038877Y-96152000D01*
X111131123Y-96152000D01*
X111189483Y-96239342D01*
X111405658Y-96455517D01*
X111502164Y-96520000D01*
X111405658Y-96584483D01*
X111189483Y-96800658D01*
X111019636Y-97054853D01*
X110902643Y-97337298D01*
X110843000Y-97637141D01*
X110843000Y-97942859D01*
X110902643Y-98242702D01*
X111019636Y-98525147D01*
X111189483Y-98779342D01*
X111405658Y-98995517D01*
X111659853Y-99165364D01*
X111942298Y-99282357D01*
X112242141Y-99342000D01*
X112547859Y-99342000D01*
X112847702Y-99282357D01*
X113130147Y-99165364D01*
X113384342Y-98995517D01*
X113600517Y-98779342D01*
X113770364Y-98525147D01*
X113887357Y-98242702D01*
X113947000Y-97942859D01*
X113947000Y-97637141D01*
X113887357Y-97337298D01*
X113770364Y-97054853D01*
X113600517Y-96800658D01*
X113384342Y-96584483D01*
X113287836Y-96520000D01*
X113384342Y-96455517D01*
X113600517Y-96239342D01*
X113770364Y-95985147D01*
X113887357Y-95702702D01*
X113947000Y-95402859D01*
X113947000Y-95097141D01*
X113887357Y-94797298D01*
X113770364Y-94514853D01*
X113600517Y-94260658D01*
X113384342Y-94044483D01*
X113287836Y-93980000D01*
X113384342Y-93915517D01*
X113600517Y-93699342D01*
X113770364Y-93445147D01*
X113887357Y-93162702D01*
X113947000Y-92862859D01*
X113947000Y-92710000D01*
X121280491Y-92710000D01*
X121310457Y-93014245D01*
X121399202Y-93306798D01*
X121543316Y-93576417D01*
X121737261Y-93812739D01*
X121973583Y-94006684D01*
X122243202Y-94150798D01*
X122535755Y-94239543D01*
X122763761Y-94262000D01*
X123616239Y-94262000D01*
X123844245Y-94239543D01*
X124136798Y-94150798D01*
X124406417Y-94006684D01*
X124642739Y-93812739D01*
X124836684Y-93576417D01*
X124980798Y-93306798D01*
X125069543Y-93014245D01*
X125099509Y-92710000D01*
X128900491Y-92710000D01*
X128930457Y-93014245D01*
X129019202Y-93306798D01*
X129163316Y-93576417D01*
X129357261Y-93812739D01*
X129593583Y-94006684D01*
X129863202Y-94150798D01*
X130155755Y-94239543D01*
X130383761Y-94262000D01*
X131236239Y-94262000D01*
X131464245Y-94239543D01*
X131756798Y-94150798D01*
X132026417Y-94006684D01*
X132262739Y-93812739D01*
X132456684Y-93576417D01*
X132600798Y-93306798D01*
X132689543Y-93014245D01*
X132719509Y-92710000D01*
X132689543Y-92405755D01*
X132600798Y-92113202D01*
X132456684Y-91843583D01*
X132262739Y-91607261D01*
X132026417Y-91413316D01*
X131756798Y-91269202D01*
X131464245Y-91180457D01*
X131236239Y-91158000D01*
X130383761Y-91158000D01*
X130155755Y-91180457D01*
X129863202Y-91269202D01*
X129593583Y-91413316D01*
X129357261Y-91607261D01*
X129163316Y-91843583D01*
X129019202Y-92113202D01*
X128930457Y-92405755D01*
X128900491Y-92710000D01*
X125099509Y-92710000D01*
X125069543Y-92405755D01*
X124980798Y-92113202D01*
X124836684Y-91843583D01*
X124642739Y-91607261D01*
X124406417Y-91413316D01*
X124136798Y-91269202D01*
X123844245Y-91180457D01*
X123616239Y-91158000D01*
X122763761Y-91158000D01*
X122535755Y-91180457D01*
X122243202Y-91269202D01*
X121973583Y-91413316D01*
X121737261Y-91607261D01*
X121543316Y-91843583D01*
X121399202Y-92113202D01*
X121310457Y-92405755D01*
X121280491Y-92710000D01*
X113947000Y-92710000D01*
X113947000Y-92557141D01*
X113887357Y-92257298D01*
X113770364Y-91974853D01*
X113600517Y-91720658D01*
X113384342Y-91504483D01*
X113287836Y-91440000D01*
X113384342Y-91375517D01*
X113600517Y-91159342D01*
X113770364Y-90905147D01*
X113887357Y-90622702D01*
X113947000Y-90322859D01*
X113947000Y-90017141D01*
X113887357Y-89717298D01*
X113770364Y-89434853D01*
X113600517Y-89180658D01*
X113384342Y-88964483D01*
X113287836Y-88900000D01*
X113384342Y-88835517D01*
X113600517Y-88619342D01*
X113770364Y-88365147D01*
X113887357Y-88082702D01*
X113947000Y-87782859D01*
X113947000Y-87477141D01*
X113887357Y-87177298D01*
X113770364Y-86894853D01*
X113600517Y-86640658D01*
X113384342Y-86424483D01*
X113287836Y-86360000D01*
X113384342Y-86295517D01*
X113600517Y-86079342D01*
X113770364Y-85825147D01*
X113887357Y-85542702D01*
X113947000Y-85242859D01*
X113947000Y-85090000D01*
X121280491Y-85090000D01*
X121310457Y-85394245D01*
X121399202Y-85686798D01*
X121543316Y-85956417D01*
X121737261Y-86192739D01*
X121973583Y-86386684D01*
X122243202Y-86530798D01*
X122535755Y-86619543D01*
X122763761Y-86642000D01*
X123616239Y-86642000D01*
X123844245Y-86619543D01*
X124136798Y-86530798D01*
X124406417Y-86386684D01*
X124642739Y-86192739D01*
X124836684Y-85956417D01*
X124980798Y-85686798D01*
X125069543Y-85394245D01*
X125099509Y-85090000D01*
X128900491Y-85090000D01*
X128930457Y-85394245D01*
X129019202Y-85686798D01*
X129163316Y-85956417D01*
X129357261Y-86192739D01*
X129593583Y-86386684D01*
X129863202Y-86530798D01*
X130155755Y-86619543D01*
X130383761Y-86642000D01*
X131236239Y-86642000D01*
X131464245Y-86619543D01*
X131756798Y-86530798D01*
X132026417Y-86386684D01*
X132262739Y-86192739D01*
X132456684Y-85956417D01*
X132600798Y-85686798D01*
X132689543Y-85394245D01*
X132719509Y-85090000D01*
X132689543Y-84785755D01*
X132600798Y-84493202D01*
X132456684Y-84223583D01*
X132262739Y-83987261D01*
X132026417Y-83793316D01*
X131756798Y-83649202D01*
X131464245Y-83560457D01*
X131236239Y-83538000D01*
X130383761Y-83538000D01*
X130155755Y-83560457D01*
X129863202Y-83649202D01*
X129593583Y-83793316D01*
X129357261Y-83987261D01*
X129163316Y-84223583D01*
X129019202Y-84493202D01*
X128930457Y-84785755D01*
X128900491Y-85090000D01*
X125099509Y-85090000D01*
X125069543Y-84785755D01*
X124980798Y-84493202D01*
X124836684Y-84223583D01*
X124642739Y-83987261D01*
X124406417Y-83793316D01*
X124136798Y-83649202D01*
X123844245Y-83560457D01*
X123616239Y-83538000D01*
X122763761Y-83538000D01*
X122535755Y-83560457D01*
X122243202Y-83649202D01*
X121973583Y-83793316D01*
X121737261Y-83987261D01*
X121543316Y-84223583D01*
X121399202Y-84493202D01*
X121310457Y-84785755D01*
X121280491Y-85090000D01*
X113947000Y-85090000D01*
X113947000Y-84937141D01*
X113887357Y-84637298D01*
X113770364Y-84354853D01*
X113600517Y-84100658D01*
X113384342Y-83884483D01*
X113287836Y-83820000D01*
X113384342Y-83755517D01*
X113600517Y-83539342D01*
X113770364Y-83285147D01*
X113887357Y-83002702D01*
X113947000Y-82702859D01*
X113947000Y-82397141D01*
X113887357Y-82097298D01*
X113770364Y-81814853D01*
X113600517Y-81560658D01*
X113384342Y-81344483D01*
X113287836Y-81280000D01*
X113384342Y-81215517D01*
X113600517Y-80999342D01*
X113770364Y-80745147D01*
X113887357Y-80462702D01*
X113947000Y-80162859D01*
X113947000Y-79857141D01*
X113931087Y-79777141D01*
X114653000Y-79777141D01*
X114653000Y-80082859D01*
X114712643Y-80382702D01*
X114829636Y-80665147D01*
X114999483Y-80919342D01*
X115215658Y-81135517D01*
X115469853Y-81305364D01*
X115752298Y-81422357D01*
X116052141Y-81482000D01*
X116357859Y-81482000D01*
X116657702Y-81422357D01*
X116940147Y-81305364D01*
X117194342Y-81135517D01*
X117410517Y-80919342D01*
X117580364Y-80665147D01*
X117697357Y-80382702D01*
X117757000Y-80082859D01*
X117757000Y-79777141D01*
X134973000Y-79777141D01*
X134973000Y-80082859D01*
X135032643Y-80382702D01*
X135149636Y-80665147D01*
X135319483Y-80919342D01*
X135535658Y-81135517D01*
X135789853Y-81305364D01*
X136072298Y-81422357D01*
X136372141Y-81482000D01*
X136677859Y-81482000D01*
X136977702Y-81422357D01*
X137260147Y-81305364D01*
X137514342Y-81135517D01*
X137730517Y-80919342D01*
X137900364Y-80665147D01*
X138017357Y-80382702D01*
X138077000Y-80082859D01*
X138077000Y-79777141D01*
X138017357Y-79477298D01*
X137900364Y-79194853D01*
X137730517Y-78940658D01*
X137514342Y-78724483D01*
X137260147Y-78554636D01*
X136977702Y-78437643D01*
X136677859Y-78378000D01*
X136372141Y-78378000D01*
X136072298Y-78437643D01*
X135789853Y-78554636D01*
X135535658Y-78724483D01*
X135319483Y-78940658D01*
X135149636Y-79194853D01*
X135032643Y-79477298D01*
X134973000Y-79777141D01*
X117757000Y-79777141D01*
X117697357Y-79477298D01*
X117580364Y-79194853D01*
X117410517Y-78940658D01*
X117194342Y-78724483D01*
X116940147Y-78554636D01*
X116657702Y-78437643D01*
X116357859Y-78378000D01*
X116052141Y-78378000D01*
X115752298Y-78437643D01*
X115469853Y-78554636D01*
X115215658Y-78724483D01*
X114999483Y-78940658D01*
X114829636Y-79194853D01*
X114712643Y-79477298D01*
X114653000Y-79777141D01*
X113931087Y-79777141D01*
X113887357Y-79557298D01*
X113770364Y-79274853D01*
X113600517Y-79020658D01*
X113384342Y-78804483D01*
X113287836Y-78740000D01*
X113384342Y-78675517D01*
X113600517Y-78459342D01*
X113770364Y-78205147D01*
X113887357Y-77922702D01*
X113947000Y-77622859D01*
X113947000Y-77317141D01*
X113887357Y-77017298D01*
X113770364Y-76734853D01*
X113727031Y-76670000D01*
X121284362Y-76670000D01*
X121284362Y-78270000D01*
X121298881Y-78417418D01*
X121341882Y-78559170D01*
X121411710Y-78689810D01*
X121505683Y-78804317D01*
X121620190Y-78898290D01*
X121750830Y-78968118D01*
X121892582Y-79011119D01*
X122040000Y-79025638D01*
X124340000Y-79025638D01*
X124487418Y-79011119D01*
X124629170Y-78968118D01*
X124759810Y-78898290D01*
X124874317Y-78804317D01*
X124968290Y-78689810D01*
X125038118Y-78559170D01*
X125081119Y-78417418D01*
X125095638Y-78270000D01*
X125095638Y-77470000D01*
X128900491Y-77470000D01*
X128930457Y-77774245D01*
X129019202Y-78066798D01*
X129163316Y-78336417D01*
X129357261Y-78572739D01*
X129593583Y-78766684D01*
X129863202Y-78910798D01*
X130155755Y-78999543D01*
X130383761Y-79022000D01*
X131236239Y-79022000D01*
X131464245Y-78999543D01*
X131756798Y-78910798D01*
X132026417Y-78766684D01*
X132262739Y-78572739D01*
X132456684Y-78336417D01*
X132600798Y-78066798D01*
X132689543Y-77774245D01*
X132719509Y-77470000D01*
X132689543Y-77165755D01*
X132600798Y-76873202D01*
X132456684Y-76603583D01*
X132262739Y-76367261D01*
X132026417Y-76173316D01*
X131756798Y-76029202D01*
X131464245Y-75940457D01*
X131236239Y-75918000D01*
X130383761Y-75918000D01*
X130155755Y-75940457D01*
X129863202Y-76029202D01*
X129593583Y-76173316D01*
X129357261Y-76367261D01*
X129163316Y-76603583D01*
X129019202Y-76873202D01*
X128930457Y-77165755D01*
X128900491Y-77470000D01*
X125095638Y-77470000D01*
X125095638Y-76670000D01*
X125081119Y-76522582D01*
X125038118Y-76380830D01*
X124968290Y-76250190D01*
X124874317Y-76135683D01*
X124759810Y-76041710D01*
X124629170Y-75971882D01*
X124487418Y-75928881D01*
X124340000Y-75914362D01*
X122040000Y-75914362D01*
X121892582Y-75928881D01*
X121750830Y-75971882D01*
X121620190Y-76041710D01*
X121505683Y-76135683D01*
X121411710Y-76250190D01*
X121341882Y-76380830D01*
X121298881Y-76522582D01*
X121284362Y-76670000D01*
X113727031Y-76670000D01*
X113600517Y-76480658D01*
X113384342Y-76264483D01*
X113287836Y-76200000D01*
X113384342Y-76135517D01*
X113600517Y-75919342D01*
X113770364Y-75665147D01*
X113887357Y-75382702D01*
X113947000Y-75082859D01*
X113947000Y-74777141D01*
X114653000Y-74777141D01*
X114653000Y-75082859D01*
X114712643Y-75382702D01*
X114829636Y-75665147D01*
X114999483Y-75919342D01*
X115215658Y-76135517D01*
X115469853Y-76305364D01*
X115752298Y-76422357D01*
X116052141Y-76482000D01*
X116357859Y-76482000D01*
X116657702Y-76422357D01*
X116940147Y-76305364D01*
X117194342Y-76135517D01*
X117410517Y-75919342D01*
X117580364Y-75665147D01*
X117697357Y-75382702D01*
X117757000Y-75082859D01*
X117757000Y-74777141D01*
X134973000Y-74777141D01*
X134973000Y-75082859D01*
X135032643Y-75382702D01*
X135149636Y-75665147D01*
X135319483Y-75919342D01*
X135535658Y-76135517D01*
X135789853Y-76305364D01*
X136072298Y-76422357D01*
X136372141Y-76482000D01*
X136677859Y-76482000D01*
X136977702Y-76422357D01*
X137260147Y-76305364D01*
X137514342Y-76135517D01*
X137730517Y-75919342D01*
X137900364Y-75665147D01*
X138017357Y-75382702D01*
X138077000Y-75082859D01*
X138077000Y-74777141D01*
X138017357Y-74477298D01*
X137900364Y-74194853D01*
X137730517Y-73940658D01*
X137514342Y-73724483D01*
X137260147Y-73554636D01*
X136977702Y-73437643D01*
X136677859Y-73378000D01*
X136372141Y-73378000D01*
X136072298Y-73437643D01*
X135789853Y-73554636D01*
X135535658Y-73724483D01*
X135319483Y-73940658D01*
X135149636Y-74194853D01*
X135032643Y-74477298D01*
X134973000Y-74777141D01*
X117757000Y-74777141D01*
X117697357Y-74477298D01*
X117580364Y-74194853D01*
X117410517Y-73940658D01*
X117194342Y-73724483D01*
X116940147Y-73554636D01*
X116657702Y-73437643D01*
X116357859Y-73378000D01*
X116052141Y-73378000D01*
X115752298Y-73437643D01*
X115469853Y-73554636D01*
X115215658Y-73724483D01*
X114999483Y-73940658D01*
X114829636Y-74194853D01*
X114712643Y-74477298D01*
X114653000Y-74777141D01*
X113947000Y-74777141D01*
X113887357Y-74477298D01*
X113770364Y-74194853D01*
X113600517Y-73940658D01*
X113384342Y-73724483D01*
X113130147Y-73554636D01*
X112847702Y-73437643D01*
X112547859Y-73378000D01*
X112242141Y-73378000D01*
X111942298Y-73437643D01*
X111659853Y-73554636D01*
X111405658Y-73724483D01*
X111189483Y-73940658D01*
X111019636Y-74194853D01*
X110902643Y-74477298D01*
X110843000Y-74777141D01*
X110843000Y-75082859D01*
X110902643Y-75382702D01*
X111019636Y-75665147D01*
X111189483Y-75919342D01*
X111405658Y-76135517D01*
X111502164Y-76200000D01*
X111405658Y-76264483D01*
X111189483Y-76480658D01*
X111019636Y-76734853D01*
X110902643Y-77017298D01*
X110843000Y-77317141D01*
X110843000Y-77622859D01*
X110902643Y-77922702D01*
X111019636Y-78205147D01*
X111189483Y-78459342D01*
X111405658Y-78675517D01*
X111502164Y-78740000D01*
X111405658Y-78804483D01*
X111189483Y-79020658D01*
X111019636Y-79274853D01*
X110902643Y-79557298D01*
X110843000Y-79857141D01*
X110843000Y-80162859D01*
X110902643Y-80462702D01*
X111019636Y-80745147D01*
X111189483Y-80999342D01*
X111405658Y-81215517D01*
X111502164Y-81280000D01*
X111405658Y-81344483D01*
X111189483Y-81560658D01*
X111019636Y-81814853D01*
X110902643Y-82097298D01*
X110843000Y-82397141D01*
X110843000Y-82702859D01*
X110846564Y-82720778D01*
X110826026Y-82712271D01*
X110603462Y-82668000D01*
X110376538Y-82668000D01*
X110370873Y-82669127D01*
X110372000Y-82663462D01*
X110372000Y-82436538D01*
X110327729Y-82213974D01*
X110240889Y-82004323D01*
X110114817Y-81815643D01*
X109954357Y-81655183D01*
X109765677Y-81529111D01*
X109556026Y-81442271D01*
X109333462Y-81398000D01*
X109106538Y-81398000D01*
X108883974Y-81442271D01*
X108674323Y-81529111D01*
X108496393Y-81648000D01*
X106038877Y-81648000D01*
X105980517Y-81560658D01*
X105764342Y-81344483D01*
X105667836Y-81280000D01*
X105764342Y-81215517D01*
X105980517Y-80999342D01*
X106150364Y-80745147D01*
X106267357Y-80462702D01*
X106327000Y-80162859D01*
X106327000Y-79857141D01*
X106267357Y-79557298D01*
X106150364Y-79274853D01*
X105980517Y-79020658D01*
X105764342Y-78804483D01*
X105667836Y-78740000D01*
X105764342Y-78675517D01*
X105980517Y-78459342D01*
X106150364Y-78205147D01*
X106267357Y-77922702D01*
X106327000Y-77622859D01*
X106327000Y-77317141D01*
X106267357Y-77017298D01*
X106150364Y-76734853D01*
X105980517Y-76480658D01*
X105905751Y-76405892D01*
X105994810Y-76358290D01*
X106109317Y-76264317D01*
X106203290Y-76149810D01*
X106273118Y-76019170D01*
X106316119Y-75877418D01*
X106330638Y-75730000D01*
X106330638Y-74130000D01*
X106316119Y-73982582D01*
X106273118Y-73840830D01*
X106203290Y-73710190D01*
X106109317Y-73595683D01*
X105994810Y-73501710D01*
X105864170Y-73431882D01*
X105722418Y-73388881D01*
X105575000Y-73374362D01*
X103975000Y-73374362D01*
X103827582Y-73388881D01*
X103685830Y-73431882D01*
X103555190Y-73501710D01*
X103440683Y-73595683D01*
X103346710Y-73710190D01*
X103276882Y-73840830D01*
X103233881Y-73982582D01*
X103219362Y-74130000D01*
X103219362Y-75730000D01*
X103233881Y-75877418D01*
X103276882Y-76019170D01*
X103346710Y-76149810D01*
X103440683Y-76264317D01*
X103555190Y-76358290D01*
X103644249Y-76405892D01*
X103569483Y-76480658D01*
X103399636Y-76734853D01*
X103282643Y-77017298D01*
X103223000Y-77317141D01*
X103223000Y-77622859D01*
X103282643Y-77922702D01*
X103399636Y-78205147D01*
X103569483Y-78459342D01*
X103785658Y-78675517D01*
X103882164Y-78740000D01*
X103785658Y-78804483D01*
X103569483Y-79020658D01*
X103399636Y-79274853D01*
X103282643Y-79557298D01*
X103223000Y-79857141D01*
X103223000Y-80162859D01*
X103282643Y-80462702D01*
X103399636Y-80745147D01*
X103569483Y-80999342D01*
X103785658Y-81215517D01*
X103882164Y-81280000D01*
X103785658Y-81344483D01*
X103569483Y-81560658D01*
X103399636Y-81814853D01*
X103282643Y-82097298D01*
X103223000Y-82397141D01*
X103223000Y-82702859D01*
X103282643Y-83002702D01*
X103399636Y-83285147D01*
X103569483Y-83539342D01*
X103785658Y-83755517D01*
X103882164Y-83820000D01*
X103785658Y-83884483D01*
X103569483Y-84100658D01*
X103399636Y-84354853D01*
X103282643Y-84637298D01*
X103223000Y-84937141D01*
X103223000Y-85242859D01*
X103226564Y-85260778D01*
X103206026Y-85252271D01*
X102983462Y-85208000D01*
X102756538Y-85208000D01*
X102533974Y-85252271D01*
X102324323Y-85339111D01*
X102135643Y-85465183D01*
X101975183Y-85625643D01*
X101849111Y-85814323D01*
X101762271Y-86023974D01*
X101718000Y-86246538D01*
X97424000Y-86246538D01*
X97424000Y-73305384D01*
X186336370Y-73305384D01*
X186336370Y-73946096D01*
X186461367Y-74574497D01*
X186706557Y-75166438D01*
X187062517Y-75699171D01*
X187515569Y-76152223D01*
X188048302Y-76508183D01*
X188640243Y-76753373D01*
X189268644Y-76878370D01*
X189909356Y-76878370D01*
X190537757Y-76753373D01*
X191129698Y-76508183D01*
X191662431Y-76152223D01*
X192115483Y-75699171D01*
X192471443Y-75166438D01*
X192716633Y-74574497D01*
X192841630Y-73946096D01*
X192841630Y-73305384D01*
X192716633Y-72676983D01*
X192471443Y-72085042D01*
X192115483Y-71552309D01*
X191662431Y-71099257D01*
X191129698Y-70743297D01*
X190537757Y-70498107D01*
X189909356Y-70373110D01*
X189268644Y-70373110D01*
X188640243Y-70498107D01*
X188048302Y-70743297D01*
X187515569Y-71099257D01*
X187062517Y-71552309D01*
X186706557Y-72085042D01*
X186461367Y-72676983D01*
X186336370Y-73305384D01*
X97424000Y-73305384D01*
X97424000Y-70523005D01*
X97437044Y-70389967D01*
X97464645Y-70298551D01*
X97509473Y-70214241D01*
X97569826Y-70140241D01*
X97643402Y-70079373D01*
X97727398Y-70033957D01*
X97818618Y-70005719D01*
X97949152Y-69992000D01*
X195287995Y-69992000D01*
X195421033Y-70005044D01*
%TA.AperFunction,Conductor*%
D28*
G36*
X195421033Y-70005044D02*
G01*
X195512449Y-70032645D01*
X195596759Y-70077473D01*
X195670759Y-70137826D01*
X195731627Y-70211402D01*
X195777043Y-70295398D01*
X195805281Y-70386618D01*
X195819000Y-70517152D01*
X195819001Y-133311985D01*
X195805956Y-133445033D01*
X195778355Y-133536449D01*
X195733527Y-133620759D01*
X195673174Y-133694759D01*
X195599595Y-133755629D01*
X195515605Y-133801042D01*
X195424382Y-133829281D01*
X195293848Y-133843000D01*
X177711166Y-133843000D01*
X177673000Y-133839241D01*
X177634834Y-133843000D01*
X177520681Y-133854243D01*
X177508296Y-133858000D01*
X173613855Y-133858000D01*
X173608948Y-133808177D01*
X173557371Y-133638150D01*
X173473614Y-133481451D01*
X173458586Y-133463139D01*
X173389140Y-133378519D01*
X173389138Y-133378517D01*
X173360896Y-133344104D01*
X173326483Y-133315862D01*
X173156664Y-133146043D01*
X173265677Y-133100889D01*
X173454357Y-132974817D01*
X173614817Y-132814357D01*
X173740889Y-132625677D01*
X173827729Y-132416026D01*
X173872000Y-132193462D01*
X173872000Y-131966538D01*
X173827729Y-131743974D01*
X173740889Y-131534323D01*
X173614817Y-131345643D01*
X173454357Y-131185183D01*
X173265677Y-131059111D01*
X173056026Y-130972271D01*
X172846143Y-130930523D01*
X164732000Y-122816380D01*
X164732000Y-122390000D01*
X169259362Y-122390000D01*
X169259362Y-123990000D01*
X169273881Y-124137418D01*
X169316882Y-124279170D01*
X169386710Y-124409810D01*
X169480683Y-124524317D01*
X169595190Y-124618290D01*
X169658182Y-124651959D01*
X169609483Y-124700658D01*
X169439636Y-124954853D01*
X169322643Y-125237298D01*
X169263000Y-125537141D01*
X169263000Y-125842859D01*
X169322643Y-126142702D01*
X169439636Y-126425147D01*
X169609483Y-126679342D01*
X169825658Y-126895517D01*
X170079853Y-127065364D01*
X170362298Y-127182357D01*
X170662141Y-127242000D01*
X170967859Y-127242000D01*
X171267702Y-127182357D01*
X171550147Y-127065364D01*
X171804342Y-126895517D01*
X172020517Y-126679342D01*
X172190364Y-126425147D01*
X172307357Y-126142702D01*
X172367000Y-125842859D01*
X172367000Y-125537141D01*
X172307357Y-125237298D01*
X172190364Y-124954853D01*
X172020517Y-124700658D01*
X171971818Y-124651959D01*
X172034810Y-124618290D01*
X172149317Y-124524317D01*
X172243290Y-124409810D01*
X172313118Y-124279170D01*
X172356119Y-124137418D01*
X172370638Y-123990000D01*
X172370638Y-122390000D01*
X172356119Y-122242582D01*
X172313118Y-122100830D01*
X172243290Y-121970190D01*
X172149317Y-121855683D01*
X172034810Y-121761710D01*
X171904170Y-121691882D01*
X171762418Y-121648881D01*
X171615000Y-121634362D01*
X170015000Y-121634362D01*
X169867582Y-121648881D01*
X169725830Y-121691882D01*
X169595190Y-121761710D01*
X169480683Y-121855683D01*
X169386710Y-121970190D01*
X169316882Y-122100830D01*
X169273881Y-122242582D01*
X169259362Y-122390000D01*
X164732000Y-122390000D01*
X164732000Y-116884299D01*
X164736363Y-116840000D01*
X164732000Y-116795700D01*
X164732000Y-116795693D01*
X164718948Y-116663177D01*
X164667371Y-116493150D01*
X164583614Y-116336451D01*
X164470896Y-116199104D01*
X164436481Y-116170860D01*
X160025621Y-111760000D01*
X163465128Y-111760000D01*
X163473000Y-111839926D01*
X163473001Y-113585066D01*
X163465128Y-113665000D01*
X163496542Y-113983948D01*
X163589575Y-114290638D01*
X163740654Y-114573286D01*
X163943971Y-114821029D01*
X164191714Y-115024346D01*
X164474362Y-115175425D01*
X164781052Y-115268458D01*
X165020075Y-115292000D01*
X165100000Y-115299872D01*
X165179925Y-115292000D01*
X168195075Y-115292000D01*
X168275000Y-115299872D01*
X168593948Y-115268458D01*
X168900638Y-115175425D01*
X169183286Y-115024346D01*
X169376527Y-114865758D01*
X169386710Y-114884810D01*
X169480683Y-114999317D01*
X169595190Y-115093290D01*
X169658182Y-115126959D01*
X169609483Y-115175658D01*
X169439636Y-115429853D01*
X169322643Y-115712298D01*
X169263000Y-116012141D01*
X169263000Y-116317859D01*
X169322643Y-116617702D01*
X169439636Y-116900147D01*
X169609483Y-117154342D01*
X169825658Y-117370517D01*
X170079853Y-117540364D01*
X170362298Y-117657357D01*
X170662141Y-117717000D01*
X170967859Y-117717000D01*
X171267702Y-117657357D01*
X171550147Y-117540364D01*
X171804342Y-117370517D01*
X172020517Y-117154342D01*
X172190364Y-116900147D01*
X172307357Y-116617702D01*
X172367000Y-116317859D01*
X172367000Y-116012141D01*
X172307357Y-115712298D01*
X172190364Y-115429853D01*
X172020517Y-115175658D01*
X171971818Y-115126959D01*
X172034810Y-115093290D01*
X172149317Y-114999317D01*
X172243290Y-114884810D01*
X172313118Y-114754170D01*
X172356119Y-114612418D01*
X172370638Y-114465000D01*
X172370638Y-112865000D01*
X172356119Y-112717582D01*
X172313118Y-112575830D01*
X172243290Y-112445190D01*
X172149317Y-112330683D01*
X172034810Y-112236710D01*
X171904170Y-112166882D01*
X171781610Y-112129703D01*
X171745206Y-112009696D01*
X171705843Y-111936053D01*
X171652164Y-111835625D01*
X171526949Y-111683051D01*
X171488709Y-111651668D01*
X170923332Y-111086291D01*
X170891949Y-111048051D01*
X170739375Y-110922836D01*
X170565304Y-110829794D01*
X170376426Y-110772498D01*
X170229223Y-110758000D01*
X170229216Y-110758000D01*
X170189203Y-110754059D01*
X170066029Y-110603971D01*
X169818286Y-110400654D01*
X169535638Y-110249575D01*
X169228948Y-110156542D01*
X168989925Y-110133000D01*
X168910000Y-110125128D01*
X168830075Y-110133000D01*
X165179925Y-110133000D01*
X165100000Y-110125128D01*
X165020075Y-110133000D01*
X164781052Y-110156542D01*
X164474362Y-110249575D01*
X164191714Y-110400654D01*
X163943971Y-110603971D01*
X163740654Y-110851714D01*
X163589575Y-111134362D01*
X163496542Y-111441052D01*
X163465128Y-111760000D01*
X160025621Y-111760000D01*
X159419143Y-111153523D01*
X159390896Y-111119104D01*
X159253549Y-111006386D01*
X159096850Y-110922629D01*
X158926823Y-110871052D01*
X158794307Y-110858000D01*
X158794299Y-110858000D01*
X158750000Y-110853637D01*
X158705701Y-110858000D01*
X158354205Y-110858000D01*
X158397000Y-110642859D01*
X158397000Y-110337141D01*
X158337357Y-110037298D01*
X158220364Y-109754853D01*
X158050517Y-109500658D01*
X157834342Y-109284483D01*
X157737836Y-109220000D01*
X157834342Y-109155517D01*
X158050517Y-108939342D01*
X158220364Y-108685147D01*
X158337357Y-108402702D01*
X158397000Y-108102859D01*
X158397000Y-107797141D01*
X158337357Y-107497298D01*
X158220364Y-107214853D01*
X158050517Y-106960658D01*
X157834342Y-106744483D01*
X157737836Y-106680000D01*
X157834342Y-106615517D01*
X158050517Y-106399342D01*
X158220364Y-106145147D01*
X158337357Y-105862702D01*
X158397000Y-105562859D01*
X158397000Y-105257141D01*
X158337357Y-104957298D01*
X158220364Y-104674853D01*
X158050517Y-104420658D01*
X157834342Y-104204483D01*
X157737836Y-104140000D01*
X157834342Y-104075517D01*
X158050517Y-103859342D01*
X158220364Y-103605147D01*
X158330191Y-103340000D01*
X169259362Y-103340000D01*
X169259362Y-104940000D01*
X169273881Y-105087418D01*
X169316882Y-105229170D01*
X169386710Y-105359810D01*
X169480683Y-105474317D01*
X169595190Y-105568290D01*
X169658182Y-105601959D01*
X169609483Y-105650658D01*
X169439636Y-105904853D01*
X169322643Y-106187298D01*
X169263000Y-106487141D01*
X169263000Y-106792859D01*
X169322643Y-107092702D01*
X169439636Y-107375147D01*
X169609483Y-107629342D01*
X169825658Y-107845517D01*
X170079853Y-108015364D01*
X170362298Y-108132357D01*
X170662141Y-108192000D01*
X170967859Y-108192000D01*
X171267702Y-108132357D01*
X171550147Y-108015364D01*
X171804342Y-107845517D01*
X172020517Y-107629342D01*
X172190364Y-107375147D01*
X172307357Y-107092702D01*
X172367000Y-106792859D01*
X172367000Y-106487141D01*
X172307357Y-106187298D01*
X172190364Y-105904853D01*
X172020517Y-105650658D01*
X171971818Y-105601959D01*
X172034810Y-105568290D01*
X172149317Y-105474317D01*
X172243290Y-105359810D01*
X172313118Y-105229170D01*
X172356119Y-105087418D01*
X172370638Y-104940000D01*
X172370638Y-103340000D01*
X172356119Y-103192582D01*
X172313118Y-103050830D01*
X172243290Y-102920190D01*
X172149317Y-102805683D01*
X172034810Y-102711710D01*
X171904170Y-102641882D01*
X171762418Y-102598881D01*
X171615000Y-102584362D01*
X170015000Y-102584362D01*
X169867582Y-102598881D01*
X169725830Y-102641882D01*
X169595190Y-102711710D01*
X169480683Y-102805683D01*
X169386710Y-102920190D01*
X169316882Y-103050830D01*
X169273881Y-103192582D01*
X169259362Y-103340000D01*
X158330191Y-103340000D01*
X158337357Y-103322702D01*
X158397000Y-103022859D01*
X158397000Y-102717141D01*
X158337357Y-102417298D01*
X158220364Y-102134853D01*
X158050517Y-101880658D01*
X157834342Y-101664483D01*
X157737836Y-101600000D01*
X157834342Y-101535517D01*
X158050517Y-101319342D01*
X158220364Y-101065147D01*
X158337357Y-100782702D01*
X158374563Y-100595658D01*
X158432500Y-100601364D01*
X158476807Y-100597000D01*
X173945701Y-100597000D01*
X173990000Y-100601363D01*
X174034299Y-100597000D01*
X174034307Y-100597000D01*
X174166823Y-100583948D01*
X174336850Y-100532371D01*
X174493549Y-100448614D01*
X174630896Y-100335896D01*
X174659143Y-100301477D01*
X176902170Y-98058450D01*
X176904741Y-98084555D01*
X176990660Y-98367791D01*
X177130184Y-98628822D01*
X177317952Y-98857618D01*
X177546748Y-99045386D01*
X177807779Y-99184910D01*
X178091015Y-99270829D01*
X178311756Y-99292570D01*
X178558244Y-99292570D01*
X178778985Y-99270829D01*
X179062221Y-99184910D01*
X179323252Y-99045386D01*
X179552048Y-98857618D01*
X179739816Y-98628822D01*
X179879340Y-98367791D01*
X179901753Y-98293904D01*
X186336370Y-98293904D01*
X186336370Y-98934616D01*
X186461367Y-99563017D01*
X186706557Y-100154958D01*
X187062517Y-100687691D01*
X187515569Y-101140743D01*
X188048302Y-101496703D01*
X188640243Y-101741893D01*
X189268644Y-101866890D01*
X189909356Y-101866890D01*
X190537757Y-101741893D01*
X191129698Y-101496703D01*
X191662431Y-101140743D01*
X192115483Y-100687691D01*
X192471443Y-100154958D01*
X192716633Y-99563017D01*
X192841630Y-98934616D01*
X192841630Y-98293904D01*
X192716633Y-97665503D01*
X192471443Y-97073562D01*
X192115483Y-96540829D01*
X191662431Y-96087777D01*
X191129698Y-95731817D01*
X190537757Y-95486627D01*
X189909356Y-95361630D01*
X189268644Y-95361630D01*
X188640243Y-95486627D01*
X188048302Y-95731817D01*
X187515569Y-96087777D01*
X187062517Y-96540829D01*
X186706557Y-97073562D01*
X186461367Y-97665503D01*
X186336370Y-98293904D01*
X179901753Y-98293904D01*
X179965259Y-98084555D01*
X179994270Y-97790000D01*
X179965259Y-97495445D01*
X179879340Y-97212209D01*
X179739816Y-96951178D01*
X179552048Y-96722382D01*
X179323252Y-96534614D01*
X179295911Y-96520000D01*
X179323252Y-96505386D01*
X179552048Y-96317618D01*
X179739816Y-96088822D01*
X179879340Y-95827791D01*
X179965259Y-95544555D01*
X179994270Y-95250000D01*
X179965259Y-94955445D01*
X179942980Y-94882000D01*
X189390710Y-94882000D01*
X189435009Y-94886363D01*
X189479308Y-94882000D01*
X189479316Y-94882000D01*
X189611832Y-94868948D01*
X189781859Y-94817371D01*
X189938558Y-94733614D01*
X190075905Y-94620896D01*
X190104152Y-94586477D01*
X193903908Y-90786721D01*
X193938326Y-90758475D01*
X194051044Y-90621128D01*
X194134801Y-90464429D01*
X194186378Y-90294402D01*
X194199430Y-90161886D01*
X194199430Y-90161879D01*
X194203793Y-90117580D01*
X194199430Y-90073280D01*
X194199430Y-83976181D01*
X194203793Y-83931881D01*
X194199430Y-83887582D01*
X194199430Y-83887575D01*
X194186378Y-83755059D01*
X194134801Y-83585032D01*
X194051044Y-83428333D01*
X193938326Y-83290986D01*
X193903907Y-83262739D01*
X192843283Y-82202115D01*
X192866680Y-81964560D01*
X192837669Y-81670005D01*
X192751750Y-81386769D01*
X192612226Y-81125738D01*
X192424458Y-80896942D01*
X192195662Y-80709174D01*
X191934631Y-80569650D01*
X191651395Y-80483731D01*
X191430654Y-80461990D01*
X190785186Y-80461990D01*
X190564445Y-80483731D01*
X190281209Y-80569650D01*
X190020178Y-80709174D01*
X189793692Y-80895046D01*
X189799829Y-80874815D01*
X189828840Y-80580260D01*
X189799829Y-80285705D01*
X189713910Y-80002469D01*
X189574386Y-79741438D01*
X189386618Y-79512642D01*
X189157822Y-79324874D01*
X188896791Y-79185350D01*
X188613555Y-79099431D01*
X188392814Y-79077690D01*
X187747346Y-79077690D01*
X187526605Y-79099431D01*
X187243369Y-79185350D01*
X186982338Y-79324874D01*
X186753542Y-79512642D01*
X186565774Y-79741438D01*
X186426250Y-80002469D01*
X186340331Y-80285705D01*
X186311320Y-80580260D01*
X186340331Y-80874815D01*
X186426250Y-81158051D01*
X186565774Y-81419082D01*
X186753542Y-81647878D01*
X186982338Y-81835646D01*
X187223519Y-81964560D01*
X186982338Y-82093474D01*
X186753542Y-82281242D01*
X186565774Y-82510038D01*
X186426250Y-82771069D01*
X186381679Y-82918000D01*
X185879485Y-82918000D01*
X185892729Y-82886026D01*
X185937000Y-82663462D01*
X185937000Y-82436538D01*
X185892729Y-82213974D01*
X185805889Y-82004323D01*
X185679817Y-81815643D01*
X185519357Y-81655183D01*
X185330677Y-81529111D01*
X185121026Y-81442271D01*
X184898462Y-81398000D01*
X184671538Y-81398000D01*
X184448974Y-81442271D01*
X184239323Y-81529111D01*
X184061393Y-81648000D01*
X183253621Y-81648000D01*
X182931242Y-81325621D01*
X182980147Y-81305364D01*
X183234342Y-81135517D01*
X183450517Y-80919342D01*
X183620364Y-80665147D01*
X183737357Y-80382702D01*
X183797000Y-80082859D01*
X183797000Y-79777141D01*
X183737357Y-79477298D01*
X183620364Y-79194853D01*
X183450517Y-78940658D01*
X183234342Y-78724483D01*
X182980147Y-78554636D01*
X182697702Y-78437643D01*
X182397859Y-78378000D01*
X182092141Y-78378000D01*
X181792298Y-78437643D01*
X181509853Y-78554636D01*
X181327020Y-78676801D01*
X181327020Y-77672166D01*
X181331384Y-77627859D01*
X181313968Y-77451037D01*
X181273351Y-77317141D01*
X181262391Y-77281010D01*
X181178634Y-77124311D01*
X181065916Y-76986964D01*
X181031502Y-76958721D01*
X179775271Y-75702491D01*
X179879340Y-75507791D01*
X179965259Y-75224555D01*
X179994270Y-74930000D01*
X179979215Y-74777141D01*
X180693000Y-74777141D01*
X180693000Y-75082859D01*
X180752643Y-75382702D01*
X180869636Y-75665147D01*
X181039483Y-75919342D01*
X181255658Y-76135517D01*
X181509853Y-76305364D01*
X181792298Y-76422357D01*
X182092141Y-76482000D01*
X182397859Y-76482000D01*
X182697702Y-76422357D01*
X182980147Y-76305364D01*
X183234342Y-76135517D01*
X183450517Y-75919342D01*
X183620364Y-75665147D01*
X183737357Y-75382702D01*
X183797000Y-75082859D01*
X183797000Y-74777141D01*
X183737357Y-74477298D01*
X183620364Y-74194853D01*
X183450517Y-73940658D01*
X183234342Y-73724483D01*
X182980147Y-73554636D01*
X182697702Y-73437643D01*
X182397859Y-73378000D01*
X182092141Y-73378000D01*
X181792298Y-73437643D01*
X181509853Y-73554636D01*
X181255658Y-73724483D01*
X181039483Y-73940658D01*
X180869636Y-74194853D01*
X180752643Y-74477298D01*
X180693000Y-74777141D01*
X179979215Y-74777141D01*
X179965259Y-74635445D01*
X179879340Y-74352209D01*
X179739816Y-74091178D01*
X179552048Y-73862382D01*
X179323252Y-73674614D01*
X179062221Y-73535090D01*
X178778985Y-73449171D01*
X178558244Y-73427430D01*
X178311756Y-73427430D01*
X178091015Y-73449171D01*
X177807779Y-73535090D01*
X177546748Y-73674614D01*
X177317952Y-73862382D01*
X177130184Y-74091178D01*
X176990660Y-74352209D01*
X176904741Y-74635445D01*
X176875730Y-74930000D01*
X176904741Y-75224555D01*
X176927020Y-75298000D01*
X175304299Y-75298000D01*
X175259999Y-75293637D01*
X175215700Y-75298000D01*
X175215693Y-75298000D01*
X175083177Y-75311052D01*
X174913150Y-75362629D01*
X174756451Y-75446386D01*
X174619104Y-75559104D01*
X174590857Y-75593523D01*
X173616380Y-76568000D01*
X172067967Y-76568000D01*
X171932048Y-76402382D01*
X171903445Y-76378908D01*
X171904170Y-76378688D01*
X172034810Y-76308860D01*
X172149317Y-76214887D01*
X172243290Y-76100380D01*
X172313118Y-75969740D01*
X172356119Y-75827988D01*
X172370638Y-75680570D01*
X172370638Y-74179430D01*
X172356119Y-74032012D01*
X172313118Y-73890260D01*
X172243290Y-73759620D01*
X172149317Y-73645113D01*
X172034810Y-73551140D01*
X171904170Y-73481312D01*
X171762418Y-73438311D01*
X171615000Y-73423792D01*
X170015000Y-73423792D01*
X169867582Y-73438311D01*
X169725830Y-73481312D01*
X169595190Y-73551140D01*
X169480683Y-73645113D01*
X169386710Y-73759620D01*
X169316882Y-73890260D01*
X169273881Y-74032012D01*
X169259362Y-74179430D01*
X169259362Y-75680570D01*
X169273881Y-75827988D01*
X169316882Y-75969740D01*
X169386710Y-76100380D01*
X169480683Y-76214887D01*
X169595190Y-76308860D01*
X169725830Y-76378688D01*
X169726555Y-76378908D01*
X169697952Y-76402382D01*
X169510184Y-76631178D01*
X169370660Y-76892209D01*
X169284741Y-77175445D01*
X169255730Y-77470000D01*
X169284741Y-77764555D01*
X169318416Y-77875567D01*
X169198150Y-77912049D01*
X169041451Y-77995806D01*
X168904104Y-78108524D01*
X168875857Y-78142943D01*
X166005800Y-81013000D01*
X161766859Y-81013000D01*
X161860517Y-80919342D01*
X162030364Y-80665147D01*
X162147357Y-80382702D01*
X162207000Y-80082859D01*
X162207000Y-79777141D01*
X162147357Y-79477298D01*
X162030364Y-79194853D01*
X161860517Y-78940658D01*
X161644342Y-78724483D01*
X161390147Y-78554636D01*
X161107702Y-78437643D01*
X160807859Y-78378000D01*
X160502141Y-78378000D01*
X160202298Y-78437643D01*
X159919853Y-78554636D01*
X159665658Y-78724483D01*
X159449483Y-78940658D01*
X159279636Y-79194853D01*
X159162643Y-79477298D01*
X159103000Y-79777141D01*
X159103000Y-80082859D01*
X159162643Y-80382702D01*
X159279636Y-80665147D01*
X159449483Y-80919342D01*
X159543141Y-81013000D01*
X159123621Y-81013000D01*
X158376506Y-80265886D01*
X158397000Y-80162859D01*
X158397000Y-79857141D01*
X158337357Y-79557298D01*
X158220364Y-79274853D01*
X158050517Y-79020658D01*
X157834342Y-78804483D01*
X157737836Y-78740000D01*
X157834342Y-78675517D01*
X158050517Y-78459342D01*
X158220364Y-78205147D01*
X158337357Y-77922702D01*
X158397000Y-77622859D01*
X158397000Y-77317141D01*
X158337357Y-77017298D01*
X158220364Y-76734853D01*
X158050517Y-76480658D01*
X157834342Y-76264483D01*
X157737836Y-76200000D01*
X157834342Y-76135517D01*
X158050517Y-75919342D01*
X158220364Y-75665147D01*
X158337357Y-75382702D01*
X158397000Y-75082859D01*
X158397000Y-74777141D01*
X159103000Y-74777141D01*
X159103000Y-75082859D01*
X159162643Y-75382702D01*
X159279636Y-75665147D01*
X159449483Y-75919342D01*
X159665658Y-76135517D01*
X159919853Y-76305364D01*
X160202298Y-76422357D01*
X160502141Y-76482000D01*
X160807859Y-76482000D01*
X161107702Y-76422357D01*
X161390147Y-76305364D01*
X161644342Y-76135517D01*
X161860517Y-75919342D01*
X162030364Y-75665147D01*
X162147357Y-75382702D01*
X162207000Y-75082859D01*
X162207000Y-74777141D01*
X162147357Y-74477298D01*
X162030364Y-74194853D01*
X161860517Y-73940658D01*
X161644342Y-73724483D01*
X161390147Y-73554636D01*
X161107702Y-73437643D01*
X160807859Y-73378000D01*
X160502141Y-73378000D01*
X160202298Y-73437643D01*
X159919853Y-73554636D01*
X159665658Y-73724483D01*
X159449483Y-73940658D01*
X159279636Y-74194853D01*
X159162643Y-74477298D01*
X159103000Y-74777141D01*
X158397000Y-74777141D01*
X158337357Y-74477298D01*
X158220364Y-74194853D01*
X158050517Y-73940658D01*
X157834342Y-73724483D01*
X157580147Y-73554636D01*
X157297702Y-73437643D01*
X156997859Y-73378000D01*
X156692141Y-73378000D01*
X156392298Y-73437643D01*
X156109853Y-73554636D01*
X155855658Y-73724483D01*
X155639483Y-73940658D01*
X155469636Y-74194853D01*
X155352643Y-74477298D01*
X155293000Y-74777141D01*
X155293000Y-75082859D01*
X155352643Y-75382702D01*
X155469636Y-75665147D01*
X155639483Y-75919342D01*
X155855658Y-76135517D01*
X155952164Y-76200000D01*
X155855658Y-76264483D01*
X155639483Y-76480658D01*
X155469636Y-76734853D01*
X155352643Y-77017298D01*
X155293000Y-77317141D01*
X155293000Y-77622859D01*
X155352643Y-77922702D01*
X155469636Y-78205147D01*
X155639483Y-78459342D01*
X155855658Y-78675517D01*
X155952164Y-78740000D01*
X155855658Y-78804483D01*
X155639483Y-79020658D01*
X155469636Y-79274853D01*
X155352643Y-79557298D01*
X155293000Y-79857141D01*
X155293000Y-80162859D01*
X155352643Y-80462702D01*
X155469636Y-80745147D01*
X155639483Y-80999342D01*
X155855658Y-81215517D01*
X155952164Y-81280000D01*
X155855658Y-81344483D01*
X155639483Y-81560658D01*
X155469636Y-81814853D01*
X155352643Y-82097298D01*
X155293000Y-82397141D01*
X155293000Y-82702859D01*
X155352643Y-83002702D01*
X155469636Y-83285147D01*
X155639483Y-83539342D01*
X155855658Y-83755517D01*
X155952164Y-83820000D01*
X155855658Y-83884483D01*
X155639483Y-84100658D01*
X155469636Y-84354853D01*
X155352643Y-84637298D01*
X155293000Y-84937141D01*
X155293000Y-85242859D01*
X155347729Y-85517999D01*
X154104633Y-85517999D01*
X154142729Y-85426026D01*
X154187000Y-85203462D01*
X154187000Y-84976538D01*
X154142729Y-84753974D01*
X154055889Y-84544323D01*
X153929817Y-84355643D01*
X153769357Y-84195183D01*
X153580677Y-84069111D01*
X153371026Y-83982271D01*
X153148462Y-83938000D01*
X152921538Y-83938000D01*
X152698974Y-83982271D01*
X152489323Y-84069111D01*
X152311393Y-84188000D01*
X142868877Y-84188000D01*
X142810517Y-84100658D01*
X142594342Y-83884483D01*
X142497836Y-83820000D01*
X142594342Y-83755517D01*
X142810517Y-83539342D01*
X142868877Y-83452000D01*
X151041390Y-83452000D01*
X151219330Y-83570896D01*
X151428981Y-83657736D01*
X151651545Y-83702007D01*
X151878469Y-83702007D01*
X152101033Y-83657736D01*
X152310684Y-83570896D01*
X152499364Y-83444824D01*
X152659824Y-83284364D01*
X152785896Y-83095684D01*
X152872736Y-82886033D01*
X152917007Y-82663469D01*
X152917007Y-82436545D01*
X152872736Y-82213981D01*
X152785896Y-82004330D01*
X152659824Y-81815650D01*
X152499364Y-81655190D01*
X152310684Y-81529118D01*
X152101033Y-81442278D01*
X151878469Y-81398007D01*
X151651545Y-81398007D01*
X151428981Y-81442278D01*
X151219330Y-81529118D01*
X151041411Y-81648000D01*
X142868877Y-81648000D01*
X142810517Y-81560658D01*
X142594342Y-81344483D01*
X142497836Y-81280000D01*
X142594342Y-81215517D01*
X142810517Y-80999342D01*
X142868877Y-80912000D01*
X149771393Y-80912000D01*
X149949323Y-81030889D01*
X150158974Y-81117729D01*
X150381538Y-81162000D01*
X150608462Y-81162000D01*
X150831026Y-81117729D01*
X151040677Y-81030889D01*
X151229357Y-80904817D01*
X151389817Y-80744357D01*
X151515889Y-80555677D01*
X151602729Y-80346026D01*
X151647000Y-80123462D01*
X151647000Y-79896538D01*
X151602729Y-79673974D01*
X151515889Y-79464323D01*
X151389817Y-79275643D01*
X151229357Y-79115183D01*
X151040677Y-78989111D01*
X150831026Y-78902271D01*
X150608462Y-78858000D01*
X150381538Y-78858000D01*
X150158974Y-78902271D01*
X149949323Y-78989111D01*
X149771393Y-79108000D01*
X142868877Y-79108000D01*
X142810517Y-79020658D01*
X142594342Y-78804483D01*
X142497836Y-78740000D01*
X142594342Y-78675517D01*
X142810517Y-78459342D01*
X142868877Y-78372000D01*
X148501393Y-78372000D01*
X148679323Y-78490889D01*
X148888974Y-78577729D01*
X149111538Y-78622000D01*
X149338462Y-78622000D01*
X149561026Y-78577729D01*
X149770677Y-78490889D01*
X149959357Y-78364817D01*
X150119817Y-78204357D01*
X150245889Y-78015677D01*
X150332729Y-77806026D01*
X150377000Y-77583462D01*
X150377000Y-77356538D01*
X150332729Y-77133974D01*
X150245889Y-76924323D01*
X150119817Y-76735643D01*
X149959357Y-76575183D01*
X149770677Y-76449111D01*
X149561026Y-76362271D01*
X149338462Y-76318000D01*
X149111538Y-76318000D01*
X148888974Y-76362271D01*
X148679323Y-76449111D01*
X148501393Y-76568000D01*
X142868877Y-76568000D01*
X142810517Y-76480658D01*
X142735751Y-76405892D01*
X142824810Y-76358290D01*
X142939317Y-76264317D01*
X143033290Y-76149810D01*
X143103118Y-76019170D01*
X143146119Y-75877418D01*
X143160638Y-75730000D01*
X143160638Y-74130000D01*
X143146119Y-73982582D01*
X143103118Y-73840830D01*
X143033290Y-73710190D01*
X142939317Y-73595683D01*
X142824810Y-73501710D01*
X142694170Y-73431882D01*
X142552418Y-73388881D01*
X142405000Y-73374362D01*
X140805000Y-73374362D01*
X140657582Y-73388881D01*
X140515830Y-73431882D01*
X140385190Y-73501710D01*
X140270683Y-73595683D01*
X140176710Y-73710190D01*
X140106882Y-73840830D01*
X140063881Y-73982582D01*
X140049362Y-74130000D01*
X140049362Y-75730000D01*
X140063881Y-75877418D01*
X140106882Y-76019170D01*
X140176710Y-76149810D01*
X140270683Y-76264317D01*
X140385190Y-76358290D01*
X140474249Y-76405892D01*
X140399483Y-76480658D01*
X140229636Y-76734853D01*
X140112643Y-77017298D01*
X140053000Y-77317141D01*
X140053000Y-77622859D01*
X140112643Y-77922702D01*
X140229636Y-78205147D01*
X140399483Y-78459342D01*
X140615658Y-78675517D01*
X140712164Y-78740000D01*
X140615658Y-78804483D01*
X140399483Y-79020658D01*
X140229636Y-79274853D01*
X140112643Y-79557298D01*
X140053000Y-79857141D01*
X140053000Y-80162859D01*
X140112643Y-80462702D01*
X140229636Y-80745147D01*
X140399483Y-80999342D01*
X140615658Y-81215517D01*
X140712164Y-81280000D01*
X140615658Y-81344483D01*
X140399483Y-81560658D01*
X140229636Y-81814853D01*
X140112643Y-82097298D01*
X140053000Y-82397141D01*
X140053000Y-82702859D01*
X140112643Y-83002702D01*
X140229636Y-83285147D01*
X140399483Y-83539342D01*
X140615658Y-83755517D01*
X140712164Y-83820000D01*
X140615658Y-83884483D01*
X140399483Y-84100658D01*
X140229636Y-84354853D01*
X140112643Y-84637298D01*
X140053000Y-84937141D01*
X140053000Y-85242859D01*
X140112643Y-85542702D01*
X140229636Y-85825147D01*
X140399483Y-86079342D01*
X140615658Y-86295517D01*
X140712164Y-86360000D01*
X140615658Y-86424483D01*
X140399483Y-86640658D01*
X140229636Y-86894853D01*
X140112643Y-87177298D01*
X140053000Y-87477141D01*
X140053000Y-87782859D01*
X140112643Y-88082702D01*
X140229636Y-88365147D01*
X140399483Y-88619342D01*
X140615658Y-88835517D01*
X140712164Y-88900000D01*
X140615658Y-88964483D01*
X140399483Y-89180658D01*
X140229636Y-89434853D01*
X140112643Y-89717298D01*
X140053000Y-90017141D01*
X140053000Y-90322859D01*
X140112643Y-90622702D01*
X140229636Y-90905147D01*
X140399483Y-91159342D01*
X140615658Y-91375517D01*
X140712164Y-91440000D01*
X140615658Y-91504483D01*
X140399483Y-91720658D01*
X140229636Y-91974853D01*
X140112643Y-92257298D01*
X140053000Y-92557141D01*
X140053000Y-92862859D01*
X140112643Y-93162702D01*
X140229636Y-93445147D01*
X140399483Y-93699342D01*
X140615658Y-93915517D01*
X140712164Y-93980000D01*
X140615658Y-94044483D01*
X140399483Y-94260658D01*
X140229636Y-94514853D01*
X140112643Y-94797298D01*
X140053000Y-95097141D01*
X140053000Y-95402859D01*
X140112643Y-95702702D01*
X140229636Y-95985147D01*
X140399483Y-96239342D01*
X140615658Y-96455517D01*
X140712164Y-96520000D01*
X140615658Y-96584483D01*
X140399483Y-96800658D01*
X140229636Y-97054853D01*
X140112643Y-97337298D01*
X140053000Y-97637141D01*
X140053000Y-97942859D01*
X140112643Y-98242702D01*
X140229636Y-98525147D01*
X140399483Y-98779342D01*
X140615658Y-98995517D01*
X140712164Y-99060000D01*
X140615658Y-99124483D01*
X140399483Y-99340658D01*
X140229636Y-99594853D01*
X140112643Y-99877298D01*
X140053000Y-100177141D01*
X140053000Y-100482859D01*
X140112643Y-100782702D01*
X140229636Y-101065147D01*
X140399483Y-101319342D01*
X140615658Y-101535517D01*
X140712164Y-101600000D01*
X140615658Y-101664483D01*
X140399483Y-101880658D01*
X140229636Y-102134853D01*
X140112643Y-102417298D01*
X140053000Y-102717141D01*
X140053000Y-103022859D01*
X140112643Y-103322702D01*
X140229636Y-103605147D01*
X140399483Y-103859342D01*
X140615658Y-104075517D01*
X140712164Y-104140000D01*
X140615658Y-104204483D01*
X140399483Y-104420658D01*
X140229636Y-104674853D01*
X140112643Y-104957298D01*
X140053000Y-105257141D01*
X140053000Y-105562859D01*
X140095795Y-105778000D01*
X127723607Y-105778000D01*
X127545677Y-105659111D01*
X127336026Y-105572271D01*
X127113462Y-105528000D01*
X126886538Y-105528000D01*
X126663974Y-105572271D01*
X126454323Y-105659111D01*
X126265643Y-105785183D01*
X126105183Y-105945643D01*
X125979111Y-106134323D01*
X125892271Y-106343974D01*
X125848000Y-106566538D01*
X125848000Y-106793462D01*
X125892271Y-107016026D01*
X125905515Y-107048000D01*
X125818607Y-107048000D01*
X125640677Y-106929111D01*
X125431026Y-106842271D01*
X125208462Y-106798000D01*
X124981538Y-106798000D01*
X124758974Y-106842271D01*
X124549323Y-106929111D01*
X124360643Y-107055183D01*
X124200183Y-107215643D01*
X124074111Y-107404323D01*
X123987271Y-107613974D01*
X123943000Y-107836538D01*
X123943000Y-108063462D01*
X123987271Y-108286026D01*
X124074111Y-108495677D01*
X124200183Y-108684357D01*
X124360643Y-108844817D01*
X124549323Y-108970889D01*
X124758974Y-109057729D01*
X124981538Y-109102000D01*
X125208462Y-109102000D01*
X125431026Y-109057729D01*
X125640677Y-108970889D01*
X125818607Y-108852000D01*
X127175515Y-108852000D01*
X127162271Y-108883974D01*
X127118000Y-109106538D01*
X127118000Y-109333462D01*
X127162271Y-109556026D01*
X127249111Y-109765677D01*
X127375183Y-109954357D01*
X127535643Y-110114817D01*
X127724323Y-110240889D01*
X127933974Y-110327729D01*
X128156538Y-110372000D01*
X128383462Y-110372000D01*
X128606026Y-110327729D01*
X128815677Y-110240889D01*
X128993607Y-110122000D01*
X140095795Y-110122000D01*
X140053000Y-110337141D01*
X140053000Y-110642859D01*
X140095795Y-110858000D01*
X130263607Y-110858000D01*
X130085677Y-110739111D01*
X129876026Y-110652271D01*
X129653462Y-110608000D01*
X129426538Y-110608000D01*
X129203974Y-110652271D01*
X128994323Y-110739111D01*
X128805643Y-110865183D01*
X128645183Y-111025643D01*
X128519111Y-111214323D01*
X128432271Y-111423974D01*
X128388000Y-111646538D01*
X128388000Y-111873462D01*
X128432271Y-112096026D01*
X128519111Y-112305677D01*
X128645183Y-112494357D01*
X128805643Y-112654817D01*
X128994323Y-112780889D01*
X129203974Y-112867729D01*
X129426538Y-112912000D01*
X129653462Y-112912000D01*
X129659127Y-112910873D01*
X129658000Y-112916538D01*
X129658000Y-113143462D01*
X129702271Y-113366026D01*
X129715515Y-113398000D01*
X126738621Y-113398000D01*
X126399143Y-113058523D01*
X126370896Y-113024104D01*
X126233549Y-112911386D01*
X126076850Y-112827629D01*
X125906823Y-112776052D01*
X125784695Y-112764023D01*
X125704354Y-112643785D01*
X125481215Y-112420646D01*
X125218831Y-112245326D01*
X124927286Y-112124564D01*
X124617783Y-112063000D01*
X124302217Y-112063000D01*
X123992714Y-112124564D01*
X123701169Y-112245326D01*
X123438785Y-112420646D01*
X123421262Y-112438169D01*
X123398290Y-112395190D01*
X123304317Y-112280683D01*
X123189810Y-112186710D01*
X123059170Y-112116882D01*
X122917418Y-112073881D01*
X122770000Y-112059362D01*
X121070000Y-112059362D01*
X120922582Y-112073881D01*
X120780830Y-112116882D01*
X120650190Y-112186710D01*
X120535683Y-112280683D01*
X120441710Y-112395190D01*
X120371882Y-112525830D01*
X120328881Y-112667582D01*
X120314362Y-112815000D01*
X120314362Y-114515000D01*
X120328881Y-114662418D01*
X120371882Y-114804170D01*
X120441710Y-114934810D01*
X120535683Y-115049317D01*
X120650190Y-115143290D01*
X120693169Y-115166262D01*
X120675646Y-115183785D01*
X120500326Y-115446169D01*
X120379564Y-115737714D01*
X120318000Y-116047217D01*
X120318000Y-116362783D01*
X120379564Y-116672286D01*
X120500326Y-116963831D01*
X120675646Y-117226215D01*
X120898785Y-117449354D01*
X120937167Y-117475000D01*
X120898785Y-117500646D01*
X120675646Y-117723785D01*
X120500326Y-117986169D01*
X120379564Y-118277714D01*
X120318000Y-118587217D01*
X120318000Y-118902783D01*
X120379564Y-119212286D01*
X120500326Y-119503831D01*
X120675646Y-119766215D01*
X120898785Y-119989354D01*
X120937167Y-120015000D01*
X120898785Y-120040646D01*
X120675646Y-120263785D01*
X120500326Y-120526169D01*
X120379564Y-120817714D01*
X120318000Y-121127217D01*
X120318000Y-121442783D01*
X120379564Y-121752286D01*
X120500326Y-122043831D01*
X120675646Y-122306215D01*
X120898785Y-122529354D01*
X120937167Y-122555000D01*
X120898785Y-122580646D01*
X120675646Y-122803785D01*
X120500326Y-123066169D01*
X120379564Y-123357714D01*
X120318000Y-123667217D01*
X120318000Y-123982783D01*
X120379564Y-124292286D01*
X120500326Y-124583831D01*
X120663475Y-124828000D01*
X110476525Y-124828000D01*
X110639674Y-124583831D01*
X110760436Y-124292286D01*
X110822000Y-123982783D01*
X110822000Y-123667217D01*
X110760436Y-123357714D01*
X110639674Y-123066169D01*
X110464354Y-122803785D01*
X110241215Y-122580646D01*
X110202833Y-122555000D01*
X110241215Y-122529354D01*
X110464354Y-122306215D01*
X110639674Y-122043831D01*
X110760436Y-121752286D01*
X110822000Y-121442783D01*
X110822000Y-121127217D01*
X110760436Y-120817714D01*
X110639674Y-120526169D01*
X110464354Y-120263785D01*
X110241215Y-120040646D01*
X109978831Y-119865326D01*
X109687286Y-119744564D01*
X109377783Y-119683000D01*
X109062217Y-119683000D01*
X108752714Y-119744564D01*
X108461169Y-119865326D01*
X108198785Y-120040646D01*
X107975646Y-120263785D01*
X107950000Y-120302167D01*
X107924354Y-120263785D01*
X107701215Y-120040646D01*
X107438831Y-119865326D01*
X107147286Y-119744564D01*
X106837783Y-119683000D01*
X106522217Y-119683000D01*
X106212714Y-119744564D01*
X105921169Y-119865326D01*
X105658785Y-120040646D01*
X105641262Y-120058169D01*
X105618290Y-120015190D01*
X105524317Y-119900683D01*
X105409810Y-119806710D01*
X105279170Y-119736882D01*
X105137418Y-119693881D01*
X104990000Y-119679362D01*
X103290000Y-119679362D01*
X103142582Y-119693881D01*
X103000830Y-119736882D01*
X102870190Y-119806710D01*
X102755683Y-119900683D01*
X102661710Y-120015190D01*
X102591882Y-120145830D01*
X102548881Y-120287582D01*
X102534362Y-120435000D01*
X102534362Y-122135000D01*
X102548881Y-122282418D01*
X102591882Y-122424170D01*
X102661710Y-122554810D01*
X102755683Y-122669317D01*
X102870190Y-122763290D01*
X102913169Y-122786262D01*
X102895646Y-122803785D01*
X102720326Y-123066169D01*
X102599564Y-123357714D01*
X102538000Y-123667217D01*
X102538000Y-123982783D01*
X102599564Y-124292286D01*
X102720326Y-124583831D01*
X102895646Y-124846215D01*
X103118785Y-125069354D01*
X103381169Y-125244674D01*
X103672714Y-125365436D01*
X103982217Y-125427000D01*
X104297783Y-125427000D01*
X104607286Y-125365436D01*
X104898831Y-125244674D01*
X105161215Y-125069354D01*
X105384354Y-124846215D01*
X105410000Y-124807833D01*
X105435646Y-124846215D01*
X105658785Y-125069354D01*
X105921169Y-125244674D01*
X106212714Y-125365436D01*
X106522217Y-125427000D01*
X106637379Y-125427000D01*
X98453518Y-133610862D01*
X98419105Y-133639104D01*
X98306387Y-133776451D01*
X98262799Y-133858000D01*
X97424000Y-133858000D01*
X97424000Y-86246538D01*
X101718000Y-86246538D01*
X101718000Y-86473462D01*
X101762271Y-86696026D01*
X101849111Y-86905677D01*
X101975183Y-87094357D01*
X102135643Y-87254817D01*
X102324323Y-87380889D01*
X102533974Y-87467729D01*
X102756538Y-87512000D01*
X102983462Y-87512000D01*
X103206026Y-87467729D01*
X103226564Y-87459222D01*
X103223000Y-87477141D01*
X103223000Y-87782859D01*
X103282643Y-88082702D01*
X103399636Y-88365147D01*
X103569483Y-88619342D01*
X103785658Y-88835517D01*
X103882164Y-88900000D01*
X103785658Y-88964483D01*
X103569483Y-89180658D01*
X103399636Y-89434853D01*
X103282643Y-89717298D01*
X103223000Y-90017141D01*
X103223000Y-90322859D01*
X103282643Y-90622702D01*
X103399636Y-90905147D01*
X103569483Y-91159342D01*
X103785658Y-91375517D01*
X103882164Y-91440000D01*
X103785658Y-91504483D01*
X103569483Y-91720658D01*
X103399636Y-91974853D01*
X103282643Y-92257298D01*
X103223000Y-92557141D01*
X103223000Y-92862859D01*
X103282643Y-93162702D01*
X103399636Y-93445147D01*
X103569483Y-93699342D01*
X103785658Y-93915517D01*
X103882164Y-93980000D01*
X103785658Y-94044483D01*
X103569483Y-94260658D01*
X103399636Y-94514853D01*
X103282643Y-94797298D01*
X103223000Y-95097141D01*
X103223000Y-95402859D01*
X103282643Y-95702702D01*
X103399636Y-95985147D01*
X103569483Y-96239342D01*
X103785658Y-96455517D01*
X103882164Y-96520000D01*
X103785658Y-96584483D01*
X103569483Y-96800658D01*
X103399636Y-97054853D01*
X103282643Y-97337298D01*
X103223000Y-97637141D01*
X103223000Y-97942859D01*
X103282643Y-98242702D01*
X103399636Y-98525147D01*
X103569483Y-98779342D01*
X103785658Y-98995517D01*
X104039853Y-99165364D01*
X104322298Y-99282357D01*
X104622141Y-99342000D01*
X104927859Y-99342000D01*
X105227702Y-99282357D01*
X105510147Y-99165364D01*
X105764342Y-98995517D01*
X105980517Y-98779342D01*
X106150364Y-98525147D01*
X106267357Y-98242702D01*
X106327000Y-97942859D01*
X106327000Y-97637141D01*
X106267357Y-97337298D01*
X106150364Y-97054853D01*
X105980517Y-96800658D01*
X105764342Y-96584483D01*
X105667836Y-96520000D01*
X105764342Y-96455517D01*
X105980517Y-96239342D01*
X106038877Y-96152000D01*
X111131123Y-96152000D01*
X111189483Y-96239342D01*
X111405658Y-96455517D01*
X111502164Y-96520000D01*
X111405658Y-96584483D01*
X111189483Y-96800658D01*
X111019636Y-97054853D01*
X110902643Y-97337298D01*
X110843000Y-97637141D01*
X110843000Y-97942859D01*
X110902643Y-98242702D01*
X111019636Y-98525147D01*
X111189483Y-98779342D01*
X111405658Y-98995517D01*
X111659853Y-99165364D01*
X111942298Y-99282357D01*
X112242141Y-99342000D01*
X112547859Y-99342000D01*
X112847702Y-99282357D01*
X113130147Y-99165364D01*
X113384342Y-98995517D01*
X113600517Y-98779342D01*
X113770364Y-98525147D01*
X113887357Y-98242702D01*
X113947000Y-97942859D01*
X113947000Y-97637141D01*
X113887357Y-97337298D01*
X113770364Y-97054853D01*
X113600517Y-96800658D01*
X113384342Y-96584483D01*
X113287836Y-96520000D01*
X113384342Y-96455517D01*
X113600517Y-96239342D01*
X113770364Y-95985147D01*
X113887357Y-95702702D01*
X113947000Y-95402859D01*
X113947000Y-95097141D01*
X113887357Y-94797298D01*
X113770364Y-94514853D01*
X113600517Y-94260658D01*
X113384342Y-94044483D01*
X113287836Y-93980000D01*
X113384342Y-93915517D01*
X113600517Y-93699342D01*
X113770364Y-93445147D01*
X113887357Y-93162702D01*
X113947000Y-92862859D01*
X113947000Y-92710000D01*
X121280491Y-92710000D01*
X121310457Y-93014245D01*
X121399202Y-93306798D01*
X121543316Y-93576417D01*
X121737261Y-93812739D01*
X121973583Y-94006684D01*
X122243202Y-94150798D01*
X122535755Y-94239543D01*
X122763761Y-94262000D01*
X123616239Y-94262000D01*
X123844245Y-94239543D01*
X124136798Y-94150798D01*
X124406417Y-94006684D01*
X124642739Y-93812739D01*
X124836684Y-93576417D01*
X124980798Y-93306798D01*
X125069543Y-93014245D01*
X125099509Y-92710000D01*
X128900491Y-92710000D01*
X128930457Y-93014245D01*
X129019202Y-93306798D01*
X129163316Y-93576417D01*
X129357261Y-93812739D01*
X129593583Y-94006684D01*
X129863202Y-94150798D01*
X130155755Y-94239543D01*
X130383761Y-94262000D01*
X131236239Y-94262000D01*
X131464245Y-94239543D01*
X131756798Y-94150798D01*
X132026417Y-94006684D01*
X132262739Y-93812739D01*
X132456684Y-93576417D01*
X132600798Y-93306798D01*
X132689543Y-93014245D01*
X132719509Y-92710000D01*
X132689543Y-92405755D01*
X132600798Y-92113202D01*
X132456684Y-91843583D01*
X132262739Y-91607261D01*
X132026417Y-91413316D01*
X131756798Y-91269202D01*
X131464245Y-91180457D01*
X131236239Y-91158000D01*
X130383761Y-91158000D01*
X130155755Y-91180457D01*
X129863202Y-91269202D01*
X129593583Y-91413316D01*
X129357261Y-91607261D01*
X129163316Y-91843583D01*
X129019202Y-92113202D01*
X128930457Y-92405755D01*
X128900491Y-92710000D01*
X125099509Y-92710000D01*
X125069543Y-92405755D01*
X124980798Y-92113202D01*
X124836684Y-91843583D01*
X124642739Y-91607261D01*
X124406417Y-91413316D01*
X124136798Y-91269202D01*
X123844245Y-91180457D01*
X123616239Y-91158000D01*
X122763761Y-91158000D01*
X122535755Y-91180457D01*
X122243202Y-91269202D01*
X121973583Y-91413316D01*
X121737261Y-91607261D01*
X121543316Y-91843583D01*
X121399202Y-92113202D01*
X121310457Y-92405755D01*
X121280491Y-92710000D01*
X113947000Y-92710000D01*
X113947000Y-92557141D01*
X113887357Y-92257298D01*
X113770364Y-91974853D01*
X113600517Y-91720658D01*
X113384342Y-91504483D01*
X113287836Y-91440000D01*
X113384342Y-91375517D01*
X113600517Y-91159342D01*
X113770364Y-90905147D01*
X113887357Y-90622702D01*
X113947000Y-90322859D01*
X113947000Y-90017141D01*
X113887357Y-89717298D01*
X113770364Y-89434853D01*
X113600517Y-89180658D01*
X113384342Y-88964483D01*
X113287836Y-88900000D01*
X113384342Y-88835517D01*
X113600517Y-88619342D01*
X113770364Y-88365147D01*
X113887357Y-88082702D01*
X113947000Y-87782859D01*
X113947000Y-87477141D01*
X113887357Y-87177298D01*
X113770364Y-86894853D01*
X113600517Y-86640658D01*
X113384342Y-86424483D01*
X113287836Y-86360000D01*
X113384342Y-86295517D01*
X113600517Y-86079342D01*
X113770364Y-85825147D01*
X113887357Y-85542702D01*
X113947000Y-85242859D01*
X113947000Y-85090000D01*
X121280491Y-85090000D01*
X121310457Y-85394245D01*
X121399202Y-85686798D01*
X121543316Y-85956417D01*
X121737261Y-86192739D01*
X121973583Y-86386684D01*
X122243202Y-86530798D01*
X122535755Y-86619543D01*
X122763761Y-86642000D01*
X123616239Y-86642000D01*
X123844245Y-86619543D01*
X124136798Y-86530798D01*
X124406417Y-86386684D01*
X124642739Y-86192739D01*
X124836684Y-85956417D01*
X124980798Y-85686798D01*
X125069543Y-85394245D01*
X125099509Y-85090000D01*
X128900491Y-85090000D01*
X128930457Y-85394245D01*
X129019202Y-85686798D01*
X129163316Y-85956417D01*
X129357261Y-86192739D01*
X129593583Y-86386684D01*
X129863202Y-86530798D01*
X130155755Y-86619543D01*
X130383761Y-86642000D01*
X131236239Y-86642000D01*
X131464245Y-86619543D01*
X131756798Y-86530798D01*
X132026417Y-86386684D01*
X132262739Y-86192739D01*
X132456684Y-85956417D01*
X132600798Y-85686798D01*
X132689543Y-85394245D01*
X132719509Y-85090000D01*
X132689543Y-84785755D01*
X132600798Y-84493202D01*
X132456684Y-84223583D01*
X132262739Y-83987261D01*
X132026417Y-83793316D01*
X131756798Y-83649202D01*
X131464245Y-83560457D01*
X131236239Y-83538000D01*
X130383761Y-83538000D01*
X130155755Y-83560457D01*
X129863202Y-83649202D01*
X129593583Y-83793316D01*
X129357261Y-83987261D01*
X129163316Y-84223583D01*
X129019202Y-84493202D01*
X128930457Y-84785755D01*
X128900491Y-85090000D01*
X125099509Y-85090000D01*
X125069543Y-84785755D01*
X124980798Y-84493202D01*
X124836684Y-84223583D01*
X124642739Y-83987261D01*
X124406417Y-83793316D01*
X124136798Y-83649202D01*
X123844245Y-83560457D01*
X123616239Y-83538000D01*
X122763761Y-83538000D01*
X122535755Y-83560457D01*
X122243202Y-83649202D01*
X121973583Y-83793316D01*
X121737261Y-83987261D01*
X121543316Y-84223583D01*
X121399202Y-84493202D01*
X121310457Y-84785755D01*
X121280491Y-85090000D01*
X113947000Y-85090000D01*
X113947000Y-84937141D01*
X113887357Y-84637298D01*
X113770364Y-84354853D01*
X113600517Y-84100658D01*
X113384342Y-83884483D01*
X113287836Y-83820000D01*
X113384342Y-83755517D01*
X113600517Y-83539342D01*
X113770364Y-83285147D01*
X113887357Y-83002702D01*
X113947000Y-82702859D01*
X113947000Y-82397141D01*
X113887357Y-82097298D01*
X113770364Y-81814853D01*
X113600517Y-81560658D01*
X113384342Y-81344483D01*
X113287836Y-81280000D01*
X113384342Y-81215517D01*
X113600517Y-80999342D01*
X113770364Y-80745147D01*
X113887357Y-80462702D01*
X113947000Y-80162859D01*
X113947000Y-79857141D01*
X113931087Y-79777141D01*
X114653000Y-79777141D01*
X114653000Y-80082859D01*
X114712643Y-80382702D01*
X114829636Y-80665147D01*
X114999483Y-80919342D01*
X115215658Y-81135517D01*
X115469853Y-81305364D01*
X115752298Y-81422357D01*
X116052141Y-81482000D01*
X116357859Y-81482000D01*
X116657702Y-81422357D01*
X116940147Y-81305364D01*
X117194342Y-81135517D01*
X117410517Y-80919342D01*
X117580364Y-80665147D01*
X117697357Y-80382702D01*
X117757000Y-80082859D01*
X117757000Y-79777141D01*
X134973000Y-79777141D01*
X134973000Y-80082859D01*
X135032643Y-80382702D01*
X135149636Y-80665147D01*
X135319483Y-80919342D01*
X135535658Y-81135517D01*
X135789853Y-81305364D01*
X136072298Y-81422357D01*
X136372141Y-81482000D01*
X136677859Y-81482000D01*
X136977702Y-81422357D01*
X137260147Y-81305364D01*
X137514342Y-81135517D01*
X137730517Y-80919342D01*
X137900364Y-80665147D01*
X138017357Y-80382702D01*
X138077000Y-80082859D01*
X138077000Y-79777141D01*
X138017357Y-79477298D01*
X137900364Y-79194853D01*
X137730517Y-78940658D01*
X137514342Y-78724483D01*
X137260147Y-78554636D01*
X136977702Y-78437643D01*
X136677859Y-78378000D01*
X136372141Y-78378000D01*
X136072298Y-78437643D01*
X135789853Y-78554636D01*
X135535658Y-78724483D01*
X135319483Y-78940658D01*
X135149636Y-79194853D01*
X135032643Y-79477298D01*
X134973000Y-79777141D01*
X117757000Y-79777141D01*
X117697357Y-79477298D01*
X117580364Y-79194853D01*
X117410517Y-78940658D01*
X117194342Y-78724483D01*
X116940147Y-78554636D01*
X116657702Y-78437643D01*
X116357859Y-78378000D01*
X116052141Y-78378000D01*
X115752298Y-78437643D01*
X115469853Y-78554636D01*
X115215658Y-78724483D01*
X114999483Y-78940658D01*
X114829636Y-79194853D01*
X114712643Y-79477298D01*
X114653000Y-79777141D01*
X113931087Y-79777141D01*
X113887357Y-79557298D01*
X113770364Y-79274853D01*
X113600517Y-79020658D01*
X113384342Y-78804483D01*
X113287836Y-78740000D01*
X113384342Y-78675517D01*
X113600517Y-78459342D01*
X113770364Y-78205147D01*
X113887357Y-77922702D01*
X113947000Y-77622859D01*
X113947000Y-77317141D01*
X113887357Y-77017298D01*
X113770364Y-76734853D01*
X113727031Y-76670000D01*
X121284362Y-76670000D01*
X121284362Y-78270000D01*
X121298881Y-78417418D01*
X121341882Y-78559170D01*
X121411710Y-78689810D01*
X121505683Y-78804317D01*
X121620190Y-78898290D01*
X121750830Y-78968118D01*
X121892582Y-79011119D01*
X122040000Y-79025638D01*
X124340000Y-79025638D01*
X124487418Y-79011119D01*
X124629170Y-78968118D01*
X124759810Y-78898290D01*
X124874317Y-78804317D01*
X124968290Y-78689810D01*
X125038118Y-78559170D01*
X125081119Y-78417418D01*
X125095638Y-78270000D01*
X125095638Y-77470000D01*
X128900491Y-77470000D01*
X128930457Y-77774245D01*
X129019202Y-78066798D01*
X129163316Y-78336417D01*
X129357261Y-78572739D01*
X129593583Y-78766684D01*
X129863202Y-78910798D01*
X130155755Y-78999543D01*
X130383761Y-79022000D01*
X131236239Y-79022000D01*
X131464245Y-78999543D01*
X131756798Y-78910798D01*
X132026417Y-78766684D01*
X132262739Y-78572739D01*
X132456684Y-78336417D01*
X132600798Y-78066798D01*
X132689543Y-77774245D01*
X132719509Y-77470000D01*
X132689543Y-77165755D01*
X132600798Y-76873202D01*
X132456684Y-76603583D01*
X132262739Y-76367261D01*
X132026417Y-76173316D01*
X131756798Y-76029202D01*
X131464245Y-75940457D01*
X131236239Y-75918000D01*
X130383761Y-75918000D01*
X130155755Y-75940457D01*
X129863202Y-76029202D01*
X129593583Y-76173316D01*
X129357261Y-76367261D01*
X129163316Y-76603583D01*
X129019202Y-76873202D01*
X128930457Y-77165755D01*
X128900491Y-77470000D01*
X125095638Y-77470000D01*
X125095638Y-76670000D01*
X125081119Y-76522582D01*
X125038118Y-76380830D01*
X124968290Y-76250190D01*
X124874317Y-76135683D01*
X124759810Y-76041710D01*
X124629170Y-75971882D01*
X124487418Y-75928881D01*
X124340000Y-75914362D01*
X122040000Y-75914362D01*
X121892582Y-75928881D01*
X121750830Y-75971882D01*
X121620190Y-76041710D01*
X121505683Y-76135683D01*
X121411710Y-76250190D01*
X121341882Y-76380830D01*
X121298881Y-76522582D01*
X121284362Y-76670000D01*
X113727031Y-76670000D01*
X113600517Y-76480658D01*
X113384342Y-76264483D01*
X113287836Y-76200000D01*
X113384342Y-76135517D01*
X113600517Y-75919342D01*
X113770364Y-75665147D01*
X113887357Y-75382702D01*
X113947000Y-75082859D01*
X113947000Y-74777141D01*
X114653000Y-74777141D01*
X114653000Y-75082859D01*
X114712643Y-75382702D01*
X114829636Y-75665147D01*
X114999483Y-75919342D01*
X115215658Y-76135517D01*
X115469853Y-76305364D01*
X115752298Y-76422357D01*
X116052141Y-76482000D01*
X116357859Y-76482000D01*
X116657702Y-76422357D01*
X116940147Y-76305364D01*
X117194342Y-76135517D01*
X117410517Y-75919342D01*
X117580364Y-75665147D01*
X117697357Y-75382702D01*
X117757000Y-75082859D01*
X117757000Y-74777141D01*
X134973000Y-74777141D01*
X134973000Y-75082859D01*
X135032643Y-75382702D01*
X135149636Y-75665147D01*
X135319483Y-75919342D01*
X135535658Y-76135517D01*
X135789853Y-76305364D01*
X136072298Y-76422357D01*
X136372141Y-76482000D01*
X136677859Y-76482000D01*
X136977702Y-76422357D01*
X137260147Y-76305364D01*
X137514342Y-76135517D01*
X137730517Y-75919342D01*
X137900364Y-75665147D01*
X138017357Y-75382702D01*
X138077000Y-75082859D01*
X138077000Y-74777141D01*
X138017357Y-74477298D01*
X137900364Y-74194853D01*
X137730517Y-73940658D01*
X137514342Y-73724483D01*
X137260147Y-73554636D01*
X136977702Y-73437643D01*
X136677859Y-73378000D01*
X136372141Y-73378000D01*
X136072298Y-73437643D01*
X135789853Y-73554636D01*
X135535658Y-73724483D01*
X135319483Y-73940658D01*
X135149636Y-74194853D01*
X135032643Y-74477298D01*
X134973000Y-74777141D01*
X117757000Y-74777141D01*
X117697357Y-74477298D01*
X117580364Y-74194853D01*
X117410517Y-73940658D01*
X117194342Y-73724483D01*
X116940147Y-73554636D01*
X116657702Y-73437643D01*
X116357859Y-73378000D01*
X116052141Y-73378000D01*
X115752298Y-73437643D01*
X115469853Y-73554636D01*
X115215658Y-73724483D01*
X114999483Y-73940658D01*
X114829636Y-74194853D01*
X114712643Y-74477298D01*
X114653000Y-74777141D01*
X113947000Y-74777141D01*
X113887357Y-74477298D01*
X113770364Y-74194853D01*
X113600517Y-73940658D01*
X113384342Y-73724483D01*
X113130147Y-73554636D01*
X112847702Y-73437643D01*
X112547859Y-73378000D01*
X112242141Y-73378000D01*
X111942298Y-73437643D01*
X111659853Y-73554636D01*
X111405658Y-73724483D01*
X111189483Y-73940658D01*
X111019636Y-74194853D01*
X110902643Y-74477298D01*
X110843000Y-74777141D01*
X110843000Y-75082859D01*
X110902643Y-75382702D01*
X111019636Y-75665147D01*
X111189483Y-75919342D01*
X111405658Y-76135517D01*
X111502164Y-76200000D01*
X111405658Y-76264483D01*
X111189483Y-76480658D01*
X111019636Y-76734853D01*
X110902643Y-77017298D01*
X110843000Y-77317141D01*
X110843000Y-77622859D01*
X110902643Y-77922702D01*
X111019636Y-78205147D01*
X111189483Y-78459342D01*
X111405658Y-78675517D01*
X111502164Y-78740000D01*
X111405658Y-78804483D01*
X111189483Y-79020658D01*
X111019636Y-79274853D01*
X110902643Y-79557298D01*
X110843000Y-79857141D01*
X110843000Y-80162859D01*
X110902643Y-80462702D01*
X111019636Y-80745147D01*
X111189483Y-80999342D01*
X111405658Y-81215517D01*
X111502164Y-81280000D01*
X111405658Y-81344483D01*
X111189483Y-81560658D01*
X111019636Y-81814853D01*
X110902643Y-82097298D01*
X110843000Y-82397141D01*
X110843000Y-82702859D01*
X110846564Y-82720778D01*
X110826026Y-82712271D01*
X110603462Y-82668000D01*
X110376538Y-82668000D01*
X110370873Y-82669127D01*
X110372000Y-82663462D01*
X110372000Y-82436538D01*
X110327729Y-82213974D01*
X110240889Y-82004323D01*
X110114817Y-81815643D01*
X109954357Y-81655183D01*
X109765677Y-81529111D01*
X109556026Y-81442271D01*
X109333462Y-81398000D01*
X109106538Y-81398000D01*
X108883974Y-81442271D01*
X108674323Y-81529111D01*
X108496393Y-81648000D01*
X106038877Y-81648000D01*
X105980517Y-81560658D01*
X105764342Y-81344483D01*
X105667836Y-81280000D01*
X105764342Y-81215517D01*
X105980517Y-80999342D01*
X106150364Y-80745147D01*
X106267357Y-80462702D01*
X106327000Y-80162859D01*
X106327000Y-79857141D01*
X106267357Y-79557298D01*
X106150364Y-79274853D01*
X105980517Y-79020658D01*
X105764342Y-78804483D01*
X105667836Y-78740000D01*
X105764342Y-78675517D01*
X105980517Y-78459342D01*
X106150364Y-78205147D01*
X106267357Y-77922702D01*
X106327000Y-77622859D01*
X106327000Y-77317141D01*
X106267357Y-77017298D01*
X106150364Y-76734853D01*
X105980517Y-76480658D01*
X105905751Y-76405892D01*
X105994810Y-76358290D01*
X106109317Y-76264317D01*
X106203290Y-76149810D01*
X106273118Y-76019170D01*
X106316119Y-75877418D01*
X106330638Y-75730000D01*
X106330638Y-74130000D01*
X106316119Y-73982582D01*
X106273118Y-73840830D01*
X106203290Y-73710190D01*
X106109317Y-73595683D01*
X105994810Y-73501710D01*
X105864170Y-73431882D01*
X105722418Y-73388881D01*
X105575000Y-73374362D01*
X103975000Y-73374362D01*
X103827582Y-73388881D01*
X103685830Y-73431882D01*
X103555190Y-73501710D01*
X103440683Y-73595683D01*
X103346710Y-73710190D01*
X103276882Y-73840830D01*
X103233881Y-73982582D01*
X103219362Y-74130000D01*
X103219362Y-75730000D01*
X103233881Y-75877418D01*
X103276882Y-76019170D01*
X103346710Y-76149810D01*
X103440683Y-76264317D01*
X103555190Y-76358290D01*
X103644249Y-76405892D01*
X103569483Y-76480658D01*
X103399636Y-76734853D01*
X103282643Y-77017298D01*
X103223000Y-77317141D01*
X103223000Y-77622859D01*
X103282643Y-77922702D01*
X103399636Y-78205147D01*
X103569483Y-78459342D01*
X103785658Y-78675517D01*
X103882164Y-78740000D01*
X103785658Y-78804483D01*
X103569483Y-79020658D01*
X103399636Y-79274853D01*
X103282643Y-79557298D01*
X103223000Y-79857141D01*
X103223000Y-80162859D01*
X103282643Y-80462702D01*
X103399636Y-80745147D01*
X103569483Y-80999342D01*
X103785658Y-81215517D01*
X103882164Y-81280000D01*
X103785658Y-81344483D01*
X103569483Y-81560658D01*
X103399636Y-81814853D01*
X103282643Y-82097298D01*
X103223000Y-82397141D01*
X103223000Y-82702859D01*
X103282643Y-83002702D01*
X103399636Y-83285147D01*
X103569483Y-83539342D01*
X103785658Y-83755517D01*
X103882164Y-83820000D01*
X103785658Y-83884483D01*
X103569483Y-84100658D01*
X103399636Y-84354853D01*
X103282643Y-84637298D01*
X103223000Y-84937141D01*
X103223000Y-85242859D01*
X103226564Y-85260778D01*
X103206026Y-85252271D01*
X102983462Y-85208000D01*
X102756538Y-85208000D01*
X102533974Y-85252271D01*
X102324323Y-85339111D01*
X102135643Y-85465183D01*
X101975183Y-85625643D01*
X101849111Y-85814323D01*
X101762271Y-86023974D01*
X101718000Y-86246538D01*
X97424000Y-86246538D01*
X97424000Y-73305384D01*
X186336370Y-73305384D01*
X186336370Y-73946096D01*
X186461367Y-74574497D01*
X186706557Y-75166438D01*
X187062517Y-75699171D01*
X187515569Y-76152223D01*
X188048302Y-76508183D01*
X188640243Y-76753373D01*
X189268644Y-76878370D01*
X189909356Y-76878370D01*
X190537757Y-76753373D01*
X191129698Y-76508183D01*
X191662431Y-76152223D01*
X192115483Y-75699171D01*
X192471443Y-75166438D01*
X192716633Y-74574497D01*
X192841630Y-73946096D01*
X192841630Y-73305384D01*
X192716633Y-72676983D01*
X192471443Y-72085042D01*
X192115483Y-71552309D01*
X191662431Y-71099257D01*
X191129698Y-70743297D01*
X190537757Y-70498107D01*
X189909356Y-70373110D01*
X189268644Y-70373110D01*
X188640243Y-70498107D01*
X188048302Y-70743297D01*
X187515569Y-71099257D01*
X187062517Y-71552309D01*
X186706557Y-72085042D01*
X186461367Y-72676983D01*
X186336370Y-73305384D01*
X97424000Y-73305384D01*
X97424000Y-70523005D01*
X97437044Y-70389967D01*
X97464645Y-70298551D01*
X97509473Y-70214241D01*
X97569826Y-70140241D01*
X97643402Y-70079373D01*
X97727398Y-70033957D01*
X97818618Y-70005719D01*
X97949152Y-69992000D01*
X195287995Y-69992000D01*
X195421033Y-70005044D01*
G37*
%TD.AperFunction*%
D27*
X128870859Y-119986480D02*
X128899104Y-120020896D01*
X129036451Y-120133614D01*
X129193150Y-120217371D01*
X129363177Y-120268948D01*
X129495693Y-120282000D01*
X129495700Y-120282000D01*
X129539999Y-120286363D01*
X129584299Y-120282000D01*
X140095795Y-120282000D01*
X140053000Y-120497141D01*
X140053000Y-120802859D01*
X140112643Y-121102702D01*
X140229636Y-121385147D01*
X140399483Y-121639342D01*
X140615658Y-121855517D01*
X140712164Y-121920000D01*
X140615658Y-121984483D01*
X140399483Y-122200658D01*
X140229636Y-122454853D01*
X140112643Y-122737298D01*
X140053000Y-123037141D01*
X140053000Y-123342859D01*
X140112643Y-123642702D01*
X140229636Y-123925147D01*
X140399483Y-124179342D01*
X140615658Y-124395517D01*
X140869853Y-124565364D01*
X141152298Y-124682357D01*
X141452141Y-124742000D01*
X141757859Y-124742000D01*
X142057702Y-124682357D01*
X142340147Y-124565364D01*
X142594342Y-124395517D01*
X142810517Y-124179342D01*
X142980364Y-123925147D01*
X143097357Y-123642702D01*
X143157000Y-123342859D01*
X143157000Y-123037141D01*
X143097357Y-122737298D01*
X142980364Y-122454853D01*
X142810517Y-122200658D01*
X142594342Y-121984483D01*
X142497836Y-121920000D01*
X142594342Y-121855517D01*
X142810517Y-121639342D01*
X142980364Y-121385147D01*
X143097357Y-121102702D01*
X143157000Y-120802859D01*
X143157000Y-120497141D01*
X143114205Y-120282000D01*
X145590515Y-120282000D01*
X145577271Y-120313974D01*
X145533000Y-120536538D01*
X145533000Y-120763462D01*
X145577271Y-120986026D01*
X145664111Y-121195677D01*
X145790183Y-121384357D01*
X145950643Y-121544817D01*
X146139323Y-121670889D01*
X146348974Y-121757729D01*
X146558858Y-121799478D01*
X147047380Y-122288000D01*
X145503607Y-122288000D01*
X145325677Y-122169111D01*
X145116026Y-122082271D01*
X144893462Y-122038000D01*
X144666538Y-122038000D01*
X144443974Y-122082271D01*
X144234323Y-122169111D01*
X144045643Y-122295183D01*
X143885183Y-122455643D01*
X143759111Y-122644323D01*
X143672271Y-122853974D01*
X143628000Y-123076538D01*
X143628000Y-123303462D01*
X143672271Y-123526026D01*
X143759111Y-123735677D01*
X143885183Y-123924357D01*
X144045643Y-124084817D01*
X144234323Y-124210889D01*
X144443974Y-124297729D01*
X144666538Y-124342000D01*
X144893462Y-124342000D01*
X145116026Y-124297729D01*
X145325677Y-124210889D01*
X145503607Y-124092000D01*
X146225515Y-124092000D01*
X146212271Y-124123974D01*
X146168000Y-124346538D01*
X146168000Y-124573462D01*
X146212271Y-124796026D01*
X146299111Y-125005677D01*
X146425183Y-125194357D01*
X146585643Y-125354817D01*
X146774323Y-125480889D01*
X146983974Y-125567729D01*
X147193858Y-125609478D01*
X154038001Y-132453621D01*
X154038001Y-133858000D01*
X150753855Y-133858000D01*
X150748948Y-133808177D01*
X150697371Y-133638150D01*
X150613614Y-133481451D01*
X150500896Y-133344104D01*
X150466477Y-133315857D01*
X149259143Y-132108523D01*
X149230896Y-132074104D01*
X149093549Y-131961386D01*
X148936850Y-131877629D01*
X148766823Y-131826052D01*
X148634307Y-131813000D01*
X148634299Y-131813000D01*
X148590000Y-131808637D01*
X148545701Y-131813000D01*
X124198621Y-131813000D01*
X121557620Y-129172000D01*
X128816393Y-129172000D01*
X128994323Y-129290889D01*
X129203974Y-129377729D01*
X129426538Y-129422000D01*
X129653462Y-129422000D01*
X129876026Y-129377729D01*
X130085677Y-129290889D01*
X130274357Y-129164817D01*
X130434817Y-129004357D01*
X130560889Y-128815677D01*
X130647729Y-128606026D01*
X130692000Y-128383462D01*
X130692000Y-128156538D01*
X130647729Y-127933974D01*
X130560889Y-127724323D01*
X130434817Y-127535643D01*
X130274357Y-127375183D01*
X130085677Y-127249111D01*
X129876026Y-127162271D01*
X129653462Y-127118000D01*
X129426538Y-127118000D01*
X129420873Y-127119127D01*
X129422000Y-127113462D01*
X129422000Y-126886538D01*
X129377729Y-126663974D01*
X129290889Y-126454323D01*
X129164817Y-126265643D01*
X129004357Y-126105183D01*
X128815677Y-125979111D01*
X128606026Y-125892271D01*
X128383462Y-125848000D01*
X128156538Y-125848000D01*
X128150873Y-125849127D01*
X128152000Y-125843462D01*
X128152000Y-125616538D01*
X128107729Y-125393974D01*
X128020889Y-125184323D01*
X127894817Y-124995643D01*
X127734357Y-124835183D01*
X127545677Y-124709111D01*
X127336026Y-124622271D01*
X127113462Y-124578000D01*
X126886538Y-124578000D01*
X126663974Y-124622271D01*
X126454323Y-124709111D01*
X126276393Y-124828000D01*
X125716525Y-124828000D01*
X125879674Y-124583831D01*
X126000436Y-124292286D01*
X126062000Y-123982783D01*
X126062000Y-123667217D01*
X126000436Y-123357714D01*
X125879674Y-123066169D01*
X125704354Y-122803785D01*
X125481215Y-122580646D01*
X125442833Y-122555000D01*
X125481215Y-122529354D01*
X125704354Y-122306215D01*
X125879674Y-122043831D01*
X126000436Y-121752286D01*
X126062000Y-121442783D01*
X126062000Y-121127217D01*
X126000436Y-120817714D01*
X125879674Y-120526169D01*
X125704354Y-120263785D01*
X125481215Y-120040646D01*
X125442833Y-120015000D01*
X125481215Y-119989354D01*
X125704354Y-119766215D01*
X125879674Y-119503831D01*
X126000436Y-119212286D01*
X126062000Y-118902783D01*
X126062000Y-118587217D01*
X126000436Y-118277714D01*
X125879674Y-117986169D01*
X125704354Y-117723785D01*
X125481215Y-117500646D01*
X125442833Y-117475000D01*
X125481215Y-117449354D01*
X125704354Y-117226215D01*
X125867072Y-116982692D01*
X128870859Y-119986480D01*
%TA.AperFunction,Conductor*%
D28*
G36*
X128870859Y-119986480D02*
G01*
X128899104Y-120020896D01*
X129036451Y-120133614D01*
X129193150Y-120217371D01*
X129363177Y-120268948D01*
X129495693Y-120282000D01*
X129495700Y-120282000D01*
X129539999Y-120286363D01*
X129584299Y-120282000D01*
X140095795Y-120282000D01*
X140053000Y-120497141D01*
X140053000Y-120802859D01*
X140112643Y-121102702D01*
X140229636Y-121385147D01*
X140399483Y-121639342D01*
X140615658Y-121855517D01*
X140712164Y-121920000D01*
X140615658Y-121984483D01*
X140399483Y-122200658D01*
X140229636Y-122454853D01*
X140112643Y-122737298D01*
X140053000Y-123037141D01*
X140053000Y-123342859D01*
X140112643Y-123642702D01*
X140229636Y-123925147D01*
X140399483Y-124179342D01*
X140615658Y-124395517D01*
X140869853Y-124565364D01*
X141152298Y-124682357D01*
X141452141Y-124742000D01*
X141757859Y-124742000D01*
X142057702Y-124682357D01*
X142340147Y-124565364D01*
X142594342Y-124395517D01*
X142810517Y-124179342D01*
X142980364Y-123925147D01*
X143097357Y-123642702D01*
X143157000Y-123342859D01*
X143157000Y-123037141D01*
X143097357Y-122737298D01*
X142980364Y-122454853D01*
X142810517Y-122200658D01*
X142594342Y-121984483D01*
X142497836Y-121920000D01*
X142594342Y-121855517D01*
X142810517Y-121639342D01*
X142980364Y-121385147D01*
X143097357Y-121102702D01*
X143157000Y-120802859D01*
X143157000Y-120497141D01*
X143114205Y-120282000D01*
X145590515Y-120282000D01*
X145577271Y-120313974D01*
X145533000Y-120536538D01*
X145533000Y-120763462D01*
X145577271Y-120986026D01*
X145664111Y-121195677D01*
X145790183Y-121384357D01*
X145950643Y-121544817D01*
X146139323Y-121670889D01*
X146348974Y-121757729D01*
X146558858Y-121799478D01*
X147047380Y-122288000D01*
X145503607Y-122288000D01*
X145325677Y-122169111D01*
X145116026Y-122082271D01*
X144893462Y-122038000D01*
X144666538Y-122038000D01*
X144443974Y-122082271D01*
X144234323Y-122169111D01*
X144045643Y-122295183D01*
X143885183Y-122455643D01*
X143759111Y-122644323D01*
X143672271Y-122853974D01*
X143628000Y-123076538D01*
X143628000Y-123303462D01*
X143672271Y-123526026D01*
X143759111Y-123735677D01*
X143885183Y-123924357D01*
X144045643Y-124084817D01*
X144234323Y-124210889D01*
X144443974Y-124297729D01*
X144666538Y-124342000D01*
X144893462Y-124342000D01*
X145116026Y-124297729D01*
X145325677Y-124210889D01*
X145503607Y-124092000D01*
X146225515Y-124092000D01*
X146212271Y-124123974D01*
X146168000Y-124346538D01*
X146168000Y-124573462D01*
X146212271Y-124796026D01*
X146299111Y-125005677D01*
X146425183Y-125194357D01*
X146585643Y-125354817D01*
X146774323Y-125480889D01*
X146983974Y-125567729D01*
X147193858Y-125609478D01*
X154038001Y-132453621D01*
X154038001Y-133858000D01*
X150753855Y-133858000D01*
X150748948Y-133808177D01*
X150697371Y-133638150D01*
X150613614Y-133481451D01*
X150500896Y-133344104D01*
X150466477Y-133315857D01*
X149259143Y-132108523D01*
X149230896Y-132074104D01*
X149093549Y-131961386D01*
X148936850Y-131877629D01*
X148766823Y-131826052D01*
X148634307Y-131813000D01*
X148634299Y-131813000D01*
X148590000Y-131808637D01*
X148545701Y-131813000D01*
X124198621Y-131813000D01*
X121557620Y-129172000D01*
X128816393Y-129172000D01*
X128994323Y-129290889D01*
X129203974Y-129377729D01*
X129426538Y-129422000D01*
X129653462Y-129422000D01*
X129876026Y-129377729D01*
X130085677Y-129290889D01*
X130274357Y-129164817D01*
X130434817Y-129004357D01*
X130560889Y-128815677D01*
X130647729Y-128606026D01*
X130692000Y-128383462D01*
X130692000Y-128156538D01*
X130647729Y-127933974D01*
X130560889Y-127724323D01*
X130434817Y-127535643D01*
X130274357Y-127375183D01*
X130085677Y-127249111D01*
X129876026Y-127162271D01*
X129653462Y-127118000D01*
X129426538Y-127118000D01*
X129420873Y-127119127D01*
X129422000Y-127113462D01*
X129422000Y-126886538D01*
X129377729Y-126663974D01*
X129290889Y-126454323D01*
X129164817Y-126265643D01*
X129004357Y-126105183D01*
X128815677Y-125979111D01*
X128606026Y-125892271D01*
X128383462Y-125848000D01*
X128156538Y-125848000D01*
X128150873Y-125849127D01*
X128152000Y-125843462D01*
X128152000Y-125616538D01*
X128107729Y-125393974D01*
X128020889Y-125184323D01*
X127894817Y-124995643D01*
X127734357Y-124835183D01*
X127545677Y-124709111D01*
X127336026Y-124622271D01*
X127113462Y-124578000D01*
X126886538Y-124578000D01*
X126663974Y-124622271D01*
X126454323Y-124709111D01*
X126276393Y-124828000D01*
X125716525Y-124828000D01*
X125879674Y-124583831D01*
X126000436Y-124292286D01*
X126062000Y-123982783D01*
X126062000Y-123667217D01*
X126000436Y-123357714D01*
X125879674Y-123066169D01*
X125704354Y-122803785D01*
X125481215Y-122580646D01*
X125442833Y-122555000D01*
X125481215Y-122529354D01*
X125704354Y-122306215D01*
X125879674Y-122043831D01*
X126000436Y-121752286D01*
X126062000Y-121442783D01*
X126062000Y-121127217D01*
X126000436Y-120817714D01*
X125879674Y-120526169D01*
X125704354Y-120263785D01*
X125481215Y-120040646D01*
X125442833Y-120015000D01*
X125481215Y-119989354D01*
X125704354Y-119766215D01*
X125879674Y-119503831D01*
X126000436Y-119212286D01*
X126062000Y-118902783D01*
X126062000Y-118587217D01*
X126000436Y-118277714D01*
X125879674Y-117986169D01*
X125704354Y-117723785D01*
X125481215Y-117500646D01*
X125442833Y-117475000D01*
X125481215Y-117449354D01*
X125704354Y-117226215D01*
X125867072Y-116982692D01*
X128870859Y-119986480D01*
G37*
%TD.AperFunction*%
%TD*%
M02*
