%TF.GenerationSoftware,KiCad,Pcbnew,(5.1.9)-1*%
%TF.CreationDate,2021-05-05T16:21:53+08:00*%
%TF.ProjectId,BasicSerial,42617369-6353-4657-9269-616c2e6b6963,rev?*%
%TF.SameCoordinates,Original*%
%TF.FileFunction,Copper,L2,Bot*%
%TF.FilePolarity,Positive*%
%FSLAX46Y46*%
G04 Gerber Fmt 4.6, Leading zero omitted, Abs format (unit mm)*
G04 Created by KiCad (PCBNEW (5.1.9)-1) date 2021-05-05 16:21:53*
%MOMM*%
%LPD*%
G01*
G04 APERTURE LIST*
%TA.AperFunction,ComponentPad*%
%ADD10C,5.001260*%
%TD*%
%TA.AperFunction,ComponentPad*%
%ADD11O,1.998980X1.501140*%
%TD*%
%TA.AperFunction,ComponentPad*%
%ADD12O,1.600000X1.600000*%
%TD*%
%TA.AperFunction,ComponentPad*%
%ADD13R,1.600000X1.600000*%
%TD*%
%TA.AperFunction,ComponentPad*%
%ADD14R,1.600000X1.501140*%
%TD*%
%TA.AperFunction,ComponentPad*%
%ADD15O,1.600000X1.501140*%
%TD*%
%TA.AperFunction,ComponentPad*%
%ADD16O,2.300000X1.600000*%
%TD*%
%TA.AperFunction,ComponentPad*%
%ADD17R,2.300000X1.600000*%
%TD*%
%TA.AperFunction,ComponentPad*%
%ADD18C,1.600000*%
%TD*%
%TA.AperFunction,ComponentPad*%
%ADD19R,1.700000X1.700000*%
%TD*%
%TA.AperFunction,ComponentPad*%
%ADD20O,1.700000X1.700000*%
%TD*%
%TA.AperFunction,ConnectorPad*%
%ADD21R,1.780000X7.620000*%
%TD*%
%TA.AperFunction,ViaPad*%
%ADD22C,0.800000*%
%TD*%
%TA.AperFunction,ViaPad*%
%ADD23C,1.000000*%
%TD*%
%TA.AperFunction,Conductor*%
%ADD24C,0.300000*%
%TD*%
%TA.AperFunction,Conductor*%
%ADD25C,1.750000*%
%TD*%
%TA.AperFunction,Conductor*%
%ADD26C,0.500000*%
%TD*%
%TA.AperFunction,Conductor*%
%ADD27C,0.254000*%
%TD*%
%TA.AperFunction,Conductor*%
%ADD28C,0.100000*%
%TD*%
G04 APERTURE END LIST*
D10*
%TO.P,CN1,5*%
%TO.N,GND*%
X189589000Y-98614260D03*
D11*
%TO.P,CN1,9*%
%TO.N,/SER_PIN9*%
X191107920Y-81964560D03*
%TO.P,CN1,8*%
%TO.N,/SER_PIN8*%
X191107920Y-84735700D03*
%TO.P,CN1,7*%
%TO.N,/SER_PIN7*%
X191107920Y-87504300D03*
%TO.P,CN1,6*%
%TO.N,/SER_PIN6*%
X191107920Y-90275440D03*
%TO.P,CN1,1*%
%TO.N,/SER_PIN1*%
X188070080Y-91659740D03*
%TO.P,CN1,2*%
%TO.N,/SER_PIN2*%
X188070080Y-88891140D03*
%TO.P,CN1,5*%
%TO.N,GND*%
X188070080Y-80580260D03*
%TO.P,CN1,4*%
%TO.N,/SER_PIN4*%
X188070080Y-83348860D03*
%TO.P,CN1,3*%
%TO.N,/SER_PIN3*%
X188070080Y-86120000D03*
D10*
%TO.P,CN1,5*%
%TO.N,GND*%
X189589000Y-73625740D03*
%TD*%
D12*
%TO.P,U2,20*%
%TO.N,VCC*%
X112395000Y-74930000D03*
%TO.P,U2,10*%
%TO.N,GND*%
X104775000Y-97790000D03*
%TO.P,U2,19*%
%TO.N,~UART_CS*%
X112395000Y-77470000D03*
%TO.P,U2,9*%
%TO.N,VCC*%
X104775000Y-95250000D03*
%TO.P,U2,18*%
X112395000Y-80010000D03*
%TO.P,U2,8*%
%TO.N,A05*%
X104775000Y-92710000D03*
%TO.P,U2,17*%
%TO.N,A09*%
X112395000Y-82550000D03*
%TO.P,U2,7*%
%TO.N,Net-(J1-Pad2)*%
X104775000Y-90170000D03*
%TO.P,U2,16*%
%TO.N,Net-(J1-Pad5)*%
X112395000Y-85090000D03*
%TO.P,U2,6*%
%TO.N,A04*%
X104775000Y-87630000D03*
%TO.P,U2,15*%
%TO.N,A08*%
X112395000Y-87630000D03*
%TO.P,U2,5*%
%TO.N,VCC*%
X104775000Y-85090000D03*
%TO.P,U2,14*%
X112395000Y-90170000D03*
%TO.P,U2,4*%
%TO.N,A03*%
X104775000Y-82550000D03*
%TO.P,U2,13*%
%TO.N,A07*%
X112395000Y-92710000D03*
%TO.P,U2,3*%
%TO.N,GND*%
X104775000Y-80010000D03*
%TO.P,U2,12*%
%TO.N,VCC*%
X112395000Y-95250000D03*
%TO.P,U2,2*%
%TO.N,GND*%
X104775000Y-77470000D03*
%TO.P,U2,11*%
%TO.N,A06*%
X112395000Y-97790000D03*
D13*
%TO.P,U2,1*%
%TO.N,AEN*%
X104775000Y-74930000D03*
%TD*%
D12*
%TO.P,U1,40*%
%TO.N,VCC*%
X156845000Y-74930000D03*
%TO.P,U1,20*%
%TO.N,GND*%
X141605000Y-123190000D03*
%TO.P,U1,39*%
%TO.N,Net-(U1-Pad39)*%
X156845000Y-77470000D03*
%TO.P,U1,19*%
%TO.N,GND*%
X141605000Y-120650000D03*
%TO.P,U1,38*%
%TO.N,Net-(U1-Pad38)*%
X156845000Y-80010000D03*
%TO.P,U1,18*%
%TO.N,~IOW*%
X141605000Y-118110000D03*
%TO.P,U1,37*%
%TO.N,Net-(U1-Pad37)*%
X156845000Y-82550000D03*
%TO.P,U1,17*%
%TO.N,UART_XOUT*%
X141605000Y-115570000D03*
%TO.P,U1,36*%
%TO.N,Net-(U1-Pad36)*%
X156845000Y-85090000D03*
%TO.P,U1,16*%
%TO.N,UART_XIN*%
X141605000Y-113030000D03*
%TO.P,U1,35*%
%TO.N,RESET*%
X156845000Y-87630000D03*
%TO.P,U1,15*%
%TO.N,Net-(U1-Pad15)*%
X141605000Y-110490000D03*
%TO.P,U1,34*%
%TO.N,Net-(U1-Pad34)*%
X156845000Y-90170000D03*
%TO.P,U1,14*%
%TO.N,~UART_CS*%
X141605000Y-107950000D03*
%TO.P,U1,33*%
%TO.N,Net-(U1-Pad33)*%
X156845000Y-92710000D03*
%TO.P,U1,13*%
%TO.N,VCC*%
X141605000Y-105410000D03*
%TO.P,U1,32*%
%TO.N,Net-(U1-Pad32)*%
X156845000Y-95250000D03*
%TO.P,U1,12*%
%TO.N,VCC*%
X141605000Y-102870000D03*
%TO.P,U1,31*%
%TO.N,Net-(U1-Pad31)*%
X156845000Y-97790000D03*
%TO.P,U1,11*%
%TO.N,Net-(U1-Pad11)*%
X141605000Y-100330000D03*
%TO.P,U1,30*%
%TO.N,Net-(J2-Pad10)*%
X156845000Y-100330000D03*
%TO.P,U1,10*%
%TO.N,Net-(U1-Pad10)*%
X141605000Y-97790000D03*
%TO.P,U1,29*%
%TO.N,Net-(U1-Pad29)*%
X156845000Y-102870000D03*
%TO.P,U1,9*%
%TO.N,Net-(U1-Pad15)*%
X141605000Y-95250000D03*
%TO.P,U1,28*%
%TO.N,A00*%
X156845000Y-105410000D03*
%TO.P,U1,8*%
%TO.N,D7*%
X141605000Y-92710000D03*
%TO.P,U1,27*%
%TO.N,A01*%
X156845000Y-107950000D03*
%TO.P,U1,7*%
%TO.N,D6*%
X141605000Y-90170000D03*
%TO.P,U1,26*%
%TO.N,A02*%
X156845000Y-110490000D03*
%TO.P,U1,6*%
%TO.N,D5*%
X141605000Y-87630000D03*
%TO.P,U1,25*%
%TO.N,GND*%
X156845000Y-113030000D03*
%TO.P,U1,5*%
%TO.N,D4*%
X141605000Y-85090000D03*
%TO.P,U1,24*%
%TO.N,Net-(U1-Pad24)*%
X156845000Y-115570000D03*
%TO.P,U1,4*%
%TO.N,D3*%
X141605000Y-82550000D03*
%TO.P,U1,23*%
%TO.N,Net-(U1-Pad23)*%
X156845000Y-118110000D03*
%TO.P,U1,3*%
%TO.N,D2*%
X141605000Y-80010000D03*
%TO.P,U1,22*%
%TO.N,GND*%
X156845000Y-120650000D03*
%TO.P,U1,2*%
%TO.N,D1*%
X141605000Y-77470000D03*
%TO.P,U1,21*%
%TO.N,~IOR*%
X156845000Y-123190000D03*
D13*
%TO.P,U1,1*%
%TO.N,D0*%
X141605000Y-74930000D03*
%TD*%
D14*
%TO.P,U3,1*%
%TO.N,+12V*%
X170815000Y-74930000D03*
D15*
%TO.P,U3,11*%
%TO.N,GND*%
X178435000Y-97790000D03*
%TO.P,U3,2*%
%TO.N,/SER_PIN1*%
X170815000Y-77470000D03*
%TO.P,U3,12*%
%TO.N,Net-(U1-Pad39)*%
X178435000Y-95250000D03*
%TO.P,U3,3*%
%TO.N,/SER_PIN6*%
X170815000Y-80010000D03*
%TO.P,U3,13*%
%TO.N,Net-(U1-Pad33)*%
X178435000Y-92710000D03*
%TO.P,U3,4*%
%TO.N,/SER_PIN2*%
X170815000Y-82550000D03*
%TO.P,U3,14*%
%TO.N,Net-(U1-Pad36)*%
X178435000Y-90170000D03*
%TO.P,U3,5*%
%TO.N,/SER_PIN7*%
X170815000Y-85090000D03*
%TO.P,U3,15*%
%TO.N,Net-(U1-Pad11)*%
X178435000Y-87630000D03*
%TO.P,U3,6*%
%TO.N,/SER_PIN3*%
X170815000Y-87630000D03*
%TO.P,U3,16*%
%TO.N,Net-(U1-Pad32)*%
X178435000Y-85090000D03*
%TO.P,U3,7*%
%TO.N,/SER_PIN8*%
X170815000Y-90170000D03*
%TO.P,U3,17*%
%TO.N,Net-(U1-Pad10)*%
X178435000Y-82550000D03*
%TO.P,U3,8*%
%TO.N,/SER_PIN4*%
X170815000Y-92710000D03*
%TO.P,U3,18*%
%TO.N,Net-(U1-Pad37)*%
X178435000Y-80010000D03*
%TO.P,U3,9*%
%TO.N,/SER_PIN9*%
X170815000Y-95250000D03*
%TO.P,U3,19*%
%TO.N,Net-(U1-Pad38)*%
X178435000Y-77470000D03*
%TO.P,U3,10*%
%TO.N,-12V*%
X170815000Y-97790000D03*
%TO.P,U3,20*%
%TO.N,VCC*%
X178435000Y-74930000D03*
%TD*%
D16*
%TO.P,U4,14*%
%TO.N,VCC*%
X130810000Y-77470000D03*
%TO.P,U4,11*%
X130810000Y-85090000D03*
%TO.P,U4,8*%
%TO.N,UART_XIN*%
X130810000Y-92710000D03*
%TO.P,U4,7*%
%TO.N,GND*%
X123190000Y-92710000D03*
%TO.P,U4,4*%
%TO.N,VCC*%
X123190000Y-85090000D03*
D17*
%TO.P,U4,1*%
X123190000Y-77470000D03*
%TD*%
D18*
%TO.P,C3,2*%
%TO.N,GND*%
X182245000Y-79930000D03*
%TO.P,C3,1*%
%TO.N,VCC*%
X182245000Y-74930000D03*
%TD*%
%TO.P,C1,2*%
%TO.N,GND*%
X160655000Y-79930000D03*
%TO.P,C1,1*%
%TO.N,VCC*%
X160655000Y-74930000D03*
%TD*%
%TO.P,C4,2*%
%TO.N,GND*%
X136525000Y-79930000D03*
%TO.P,C4,1*%
%TO.N,VCC*%
X136525000Y-74930000D03*
%TD*%
%TO.P,C2,2*%
%TO.N,GND*%
X116205000Y-79930000D03*
%TO.P,C2,1*%
%TO.N,VCC*%
X116205000Y-74930000D03*
%TD*%
D12*
%TO.P,C7,2*%
%TO.N,-12V*%
X170815000Y-125690000D03*
D13*
%TO.P,C7,1*%
%TO.N,GND*%
X170815000Y-123190000D03*
%TD*%
D12*
%TO.P,C6,2*%
%TO.N,GND*%
X170815000Y-116165000D03*
D13*
%TO.P,C6,1*%
%TO.N,+12V*%
X170815000Y-113665000D03*
%TD*%
%TO.P,C5,1*%
%TO.N,VCC*%
X170815000Y-104140000D03*
D12*
%TO.P,C5,2*%
%TO.N,GND*%
X170815000Y-106640000D03*
%TD*%
D19*
%TO.P,J2,1*%
%TO.N,IRQ2*%
X121920000Y-113665000D03*
D20*
%TO.P,J2,2*%
%TO.N,Net-(J2-Pad10)*%
X124460000Y-113665000D03*
%TO.P,J2,3*%
%TO.N,IRQ3*%
X121920000Y-116205000D03*
%TO.P,J2,4*%
%TO.N,Net-(J2-Pad10)*%
X124460000Y-116205000D03*
%TO.P,J2,5*%
%TO.N,IRQ4*%
X121920000Y-118745000D03*
%TO.P,J2,6*%
%TO.N,Net-(J2-Pad10)*%
X124460000Y-118745000D03*
%TO.P,J2,7*%
%TO.N,IRQ5*%
X121920000Y-121285000D03*
%TO.P,J2,8*%
%TO.N,Net-(J2-Pad10)*%
X124460000Y-121285000D03*
%TO.P,J2,9*%
%TO.N,IRQ7*%
X121920000Y-123825000D03*
%TO.P,J2,10*%
%TO.N,Net-(J2-Pad10)*%
X124460000Y-123825000D03*
%TD*%
D19*
%TO.P,J1,1*%
%TO.N,VCC*%
X104140000Y-121285000D03*
D20*
%TO.P,J1,4*%
X104140000Y-123825000D03*
%TO.P,J1,2*%
%TO.N,Net-(J1-Pad2)*%
X106680000Y-121285000D03*
%TO.P,J1,5*%
%TO.N,Net-(J1-Pad5)*%
X106680000Y-123825000D03*
%TO.P,J1,3*%
%TO.N,GND*%
X109220000Y-121285000D03*
%TO.P,J1,6*%
X109220000Y-123825000D03*
%TD*%
D21*
%TO.P,J3,31*%
%TO.N,GND*%
X99060000Y-138430000D03*
%TO.P,J3,30*%
%TO.N,Net-(J3-Pad30)*%
X101600000Y-138430000D03*
%TO.P,J3,29*%
%TO.N,VCC*%
X104140000Y-138430000D03*
%TO.P,J3,28*%
%TO.N,Net-(J3-Pad28)*%
X106680000Y-138430000D03*
%TO.P,J3,27*%
%TO.N,Net-(J3-Pad27)*%
X109220000Y-138430000D03*
%TO.P,J3,26*%
%TO.N,Net-(J3-Pad26)*%
X111760000Y-138430000D03*
%TO.P,J3,25*%
%TO.N,IRQ3*%
X114300000Y-138430000D03*
%TO.P,J3,24*%
%TO.N,IRQ4*%
X116840000Y-138430000D03*
%TO.P,J3,23*%
%TO.N,IRQ5*%
X119380000Y-138430000D03*
%TO.P,J3,22*%
%TO.N,Net-(J3-Pad22)*%
X121920000Y-138430000D03*
%TO.P,J3,21*%
%TO.N,IRQ7*%
X124460000Y-138430000D03*
%TO.P,J3,20*%
%TO.N,Net-(J3-Pad20)*%
X127000000Y-138430000D03*
%TO.P,J3,19*%
%TO.N,Net-(J3-Pad19)*%
X129540000Y-138430000D03*
%TO.P,J3,18*%
%TO.N,Net-(J3-Pad18)*%
X132080000Y-138430000D03*
%TO.P,J3,17*%
%TO.N,Net-(J3-Pad17)*%
X134620000Y-138430000D03*
%TO.P,J3,16*%
%TO.N,Net-(J3-Pad16)*%
X137160000Y-138430000D03*
%TO.P,J3,15*%
%TO.N,Net-(J3-Pad15)*%
X139700000Y-138430000D03*
%TO.P,J3,14*%
%TO.N,~IOR*%
X142240000Y-138430000D03*
%TO.P,J3,13*%
%TO.N,~IOW*%
X144780000Y-138430000D03*
%TO.P,J3,12*%
%TO.N,Net-(J3-Pad12)*%
X147320000Y-138430000D03*
%TO.P,J3,11*%
%TO.N,Net-(J3-Pad11)*%
X149860000Y-138430000D03*
%TO.P,J3,10*%
%TO.N,GND*%
X152400000Y-138430000D03*
%TO.P,J3,9*%
%TO.N,+12V*%
X154940000Y-138430000D03*
%TO.P,J3,8*%
%TO.N,Net-(J3-Pad8)*%
X157480000Y-138430000D03*
%TO.P,J3,7*%
%TO.N,-12V*%
X160020000Y-138430000D03*
%TO.P,J3,6*%
%TO.N,Net-(J3-Pad6)*%
X162560000Y-138430000D03*
%TO.P,J3,5*%
%TO.N,Net-(J3-Pad5)*%
X165100000Y-138430000D03*
%TO.P,J3,4*%
%TO.N,IRQ2*%
X167640000Y-138430000D03*
%TO.P,J3,3*%
%TO.N,VCC*%
X170180000Y-138430000D03*
%TO.P,J3,2*%
%TO.N,RESET*%
X172720000Y-138430000D03*
%TO.P,J3,1*%
%TO.N,GND*%
X175260000Y-138430000D03*
%TD*%
D22*
%TO.N,A00*%
X127000000Y-125730000D03*
X127000000Y-106680000D03*
%TO.N,A01*%
X128270000Y-127000000D03*
X128270000Y-109220000D03*
%TO.N,A02*%
X129540000Y-128270000D03*
X129540000Y-111760000D03*
%TO.N,A03*%
X109220000Y-82550000D03*
X113030000Y-130810000D03*
%TO.N,A04*%
X109220000Y-132715000D03*
%TO.N,A05*%
X107315000Y-92710000D03*
X111760000Y-132715000D03*
%TO.N,A06*%
X114300000Y-131445000D03*
%TO.N,A07*%
X115570000Y-130810000D03*
%TO.N,A08*%
X116840000Y-131445002D03*
%TO.N,A09*%
X118110000Y-130810000D03*
%TO.N,AEN*%
X111760000Y-129540000D03*
%TO.N,D0*%
X147320000Y-124460000D03*
%TO.N,D1*%
X149225000Y-124460000D03*
X149225000Y-77470000D03*
%TO.N,D2*%
X151130000Y-124460000D03*
X150495000Y-80010000D03*
%TO.N,D3*%
X153034990Y-124460000D03*
X151765007Y-82550007D03*
%TO.N,D4*%
X153035000Y-85090000D03*
X154940000Y-124460000D03*
%TO.N,D5*%
X146685000Y-120650000D03*
%TO.N,D6*%
X144780000Y-117475000D03*
%TO.N,D7*%
X144024979Y-115737759D03*
D23*
%TO.N,GND*%
X178435000Y-132715000D03*
X104775000Y-100330000D03*
X170815000Y-119380000D03*
X170815000Y-109855000D03*
X97790000Y-127635000D03*
X99060000Y-128905000D03*
X100330000Y-130175000D03*
X97790000Y-130175000D03*
X99060000Y-131445000D03*
X194945000Y-132715000D03*
X141605000Y-130810000D03*
X141605000Y-126365000D03*
X137795000Y-121920000D03*
X133985000Y-121920000D03*
X135890000Y-128270000D03*
X149860000Y-130175002D03*
X161290000Y-101600000D03*
X161290000Y-110490000D03*
X161290000Y-106045000D03*
X178435000Y-71755000D03*
X181610000Y-71755000D03*
X184785000Y-71755000D03*
X194945000Y-71755000D03*
X194945000Y-86995000D03*
X194945000Y-102235000D03*
X178435000Y-102235000D03*
X178435000Y-117475000D03*
X194945000Y-117475000D03*
X147955000Y-128270012D03*
X151765000Y-132080010D03*
X123190000Y-88900000D03*
X130810000Y-88900000D03*
X130810000Y-81280000D03*
X130810000Y-74930000D03*
X136525000Y-85090000D03*
X136525000Y-88900000D03*
X120650000Y-81280000D03*
X120650000Y-74930000D03*
X125730000Y-81280000D03*
X125730000Y-74930000D03*
X102235000Y-80010000D03*
X164465000Y-80010000D03*
X164465000Y-76200000D03*
X123190000Y-97790000D03*
X123190000Y-102870000D03*
X135255000Y-97790000D03*
X135255000Y-102870000D03*
D22*
%TO.N,VCC*%
X110490000Y-83820000D03*
%TO.N,~IOR*%
X144780000Y-123190000D03*
D23*
%TO.N,+12V*%
X165100000Y-113665000D03*
X165100000Y-111760000D03*
D22*
%TO.N,IRQ2*%
X167005000Y-131445000D03*
%TO.N,RESET*%
X172720000Y-132080000D03*
X154305000Y-111760000D03*
%TO.N,Net-(J1-Pad5)*%
X102870000Y-86360000D03*
%TO.N,UART_XIN*%
X130810000Y-113030000D03*
%TO.N,Net-(J2-Pad10)*%
X154305000Y-114300000D03*
%TO.N,Net-(U1-Pad39)*%
X154305000Y-99060000D03*
%TO.N,Net-(U1-Pad36)*%
X158750000Y-91440000D03*
%TO.N,~UART_CS*%
X125095000Y-107950000D03*
%TO.N,Net-(U1-Pad32)*%
X160020000Y-86360000D03*
%TO.N,/SER_PIN6*%
X182245000Y-90170000D03*
X182245000Y-83820000D03*
%TO.N,/SER_PIN1*%
X184785000Y-82550000D03*
X184785000Y-92075000D03*
%TO.N,/SER_PIN2*%
X180975000Y-83820000D03*
X180975000Y-88900000D03*
%TO.N,/SER_PIN4*%
X183515000Y-83820000D03*
X183515000Y-92075000D03*
%TD*%
D24*
%TO.N,A00*%
X127000000Y-125730000D02*
X127000000Y-106680000D01*
%TO.N,A01*%
X128270000Y-127000000D02*
X128270000Y-109220000D01*
%TO.N,A02*%
X129540000Y-128270000D02*
X129540000Y-111760000D01*
%TO.N,A03*%
X109220000Y-97790000D02*
X109220000Y-82550000D01*
X113030000Y-130810000D02*
X113030000Y-101600000D01*
X113030000Y-101600000D02*
X109220000Y-97790000D01*
%TO.N,A04*%
X107940001Y-131435001D02*
X109220000Y-132715000D01*
X106045000Y-101917500D02*
X107940001Y-103812501D01*
X107940001Y-103812501D02*
X107940001Y-131435001D01*
X106045000Y-88900000D02*
X106045000Y-101917500D01*
X104775000Y-87630000D02*
X106045000Y-88900000D01*
%TO.N,A05*%
X110490000Y-131445000D02*
X111760000Y-132715000D01*
X110490000Y-104140000D02*
X110490000Y-131445000D01*
X107315000Y-100965000D02*
X110490000Y-104140000D01*
X107315000Y-92710000D02*
X107315000Y-100965000D01*
%TO.N,A06*%
X114300000Y-99695000D02*
X112395000Y-97790000D01*
X114300000Y-131445000D02*
X114300000Y-99695000D01*
%TO.N,A07*%
X115570000Y-95885000D02*
X115570000Y-130810000D01*
X112395000Y-92710000D02*
X115570000Y-95885000D01*
%TO.N,A08*%
X112395000Y-87630000D02*
X116840000Y-92075000D01*
X116840000Y-92075000D02*
X116840000Y-131445002D01*
%TO.N,A09*%
X118110000Y-88265000D02*
X118110000Y-130810000D01*
X112395000Y-82550000D02*
X118110000Y-88265000D01*
%TO.N,AEN*%
X111760000Y-102870000D02*
X111760000Y-129540000D01*
X108585000Y-91440000D02*
X108585000Y-99695000D01*
X107950000Y-78105000D02*
X107950000Y-90805000D01*
X104775000Y-74930000D02*
X107950000Y-78105000D01*
X108585000Y-99695000D02*
X111760000Y-102870000D01*
X107950000Y-90805000D02*
X108585000Y-91440000D01*
%TO.N,D0*%
X147955000Y-123825000D02*
X147320000Y-124460000D01*
X147955000Y-81280000D02*
X147955000Y-123825000D01*
X141605000Y-74930000D02*
X147955000Y-81280000D01*
%TO.N,D1*%
X149225000Y-124460000D02*
X149225000Y-77470000D01*
%TO.N,D2*%
X150495000Y-123825000D02*
X150495000Y-80010000D01*
X151130000Y-124460000D02*
X150495000Y-123825000D01*
%TO.N,D3*%
X153034990Y-124460000D02*
X151765007Y-123190017D01*
X151765007Y-123190017D02*
X151765007Y-82550007D01*
%TO.N,D4*%
X154940000Y-124383124D02*
X153035000Y-122478124D01*
X154940000Y-124460000D02*
X154940000Y-124383124D01*
X153035000Y-122478124D02*
X153035000Y-85090000D01*
%TO.N,D5*%
X146685000Y-92710000D02*
X146685000Y-120650000D01*
X141605000Y-87630000D02*
X146685000Y-92710000D01*
%TO.N,D6*%
X145415000Y-93980000D02*
X145415000Y-116840000D01*
X145415000Y-116840000D02*
X144780000Y-117475000D01*
X141605000Y-90170000D02*
X145415000Y-93980000D01*
%TO.N,D7*%
X144024979Y-95129979D02*
X144024979Y-115737759D01*
X141605000Y-92710000D02*
X144024979Y-95129979D01*
D25*
%TO.N,GND*%
X175260000Y-138430000D02*
X175260000Y-132715000D01*
D26*
X104775000Y-97790000D02*
X104775000Y-100330000D01*
D25*
X99060000Y-138430000D02*
X99060000Y-133350000D01*
D26*
X97790000Y-127635000D02*
X99060000Y-128905000D01*
X97790000Y-130175000D02*
X99060000Y-131445000D01*
X100330000Y-130175000D02*
X99060000Y-131445000D01*
X99060000Y-128905000D02*
X99060000Y-131445000D01*
X99060000Y-133350000D02*
X99060000Y-131445000D01*
X175260000Y-132715000D02*
X194945000Y-132715000D01*
X161290000Y-101600000D02*
X161290000Y-106045000D01*
X161290000Y-106045000D02*
X161290000Y-110490000D01*
X178435000Y-71755000D02*
X181610000Y-71755000D01*
X184785000Y-77390000D02*
X184785000Y-71755000D01*
X182245000Y-79930000D02*
X184785000Y-77390000D01*
X181610000Y-71755000D02*
X184785000Y-71755000D01*
X194945000Y-86995000D02*
X194945000Y-71755000D01*
X194945000Y-102235000D02*
X194945000Y-86995000D01*
X194945000Y-102235000D02*
X178435000Y-102235000D01*
X194945000Y-117475000D02*
X194945000Y-102235000D01*
X194945000Y-117475000D02*
X178435000Y-117475000D01*
X194945000Y-132715000D02*
X194945000Y-117475000D01*
X161290000Y-110490000D02*
X161290000Y-122555010D01*
D25*
X152400000Y-132715010D02*
X151765000Y-132080010D01*
D26*
X161290000Y-122555010D02*
X151765000Y-132080010D01*
D25*
X152400000Y-138430000D02*
X152400000Y-132715010D01*
D26*
X123190000Y-92710000D02*
X123190000Y-88900000D01*
X123190000Y-88900000D02*
X130810000Y-88900000D01*
X136525000Y-85090000D02*
X136525000Y-88900000D01*
X136525000Y-79930000D02*
X137795000Y-81200000D01*
X137795000Y-83820000D02*
X136525000Y-85090000D01*
X137795000Y-81200000D02*
X137795000Y-83820000D01*
X130810000Y-81280000D02*
X125730000Y-81280000D01*
X130810000Y-74930000D02*
X125730000Y-74930000D01*
X117395000Y-78740000D02*
X120650000Y-78740000D01*
X116205000Y-79930000D02*
X117395000Y-78740000D01*
X120650000Y-75637106D02*
X120650000Y-74930000D01*
X120650000Y-81280000D02*
X120650000Y-75637106D01*
X125730000Y-81280000D02*
X120650000Y-81280000D01*
X125730000Y-74930000D02*
X120650000Y-74930000D01*
X104775000Y-80010000D02*
X102235000Y-80010000D01*
X160655000Y-79930000D02*
X161845000Y-78740000D01*
X163195000Y-78740000D02*
X164465000Y-80010000D01*
X161845000Y-78740000D02*
X163195000Y-78740000D01*
X164465000Y-80010000D02*
X164465000Y-76200000D01*
X123190000Y-92710000D02*
X123190000Y-97790000D01*
X123190000Y-97790000D02*
X123190000Y-102870000D01*
%TO.N,VCC*%
X104140000Y-121285000D02*
X104140000Y-123825000D01*
X178435000Y-74930000D02*
X182245000Y-74930000D01*
D24*
X141605000Y-105410000D02*
X141605000Y-102870000D01*
D25*
X170180000Y-131445000D02*
X173355000Y-128270000D01*
X170180000Y-138430000D02*
X170180000Y-131445000D01*
D26*
X170815000Y-104140000D02*
X170815000Y-102870000D01*
X170815000Y-102870000D02*
X171450000Y-102235000D01*
X172720000Y-102235000D02*
X173355000Y-101600000D01*
D25*
X173355000Y-101600000D02*
X173355000Y-100965000D01*
X173355000Y-103505000D02*
X173355000Y-101600000D01*
D26*
X171450000Y-102235000D02*
X172085000Y-102235000D01*
X172085000Y-102235000D02*
X173355000Y-100965000D01*
X172085000Y-102235000D02*
X172720000Y-102235000D01*
X172085000Y-102235000D02*
X173355000Y-103505000D01*
X172720000Y-103505000D02*
X173355000Y-103505000D01*
X172085000Y-104140000D02*
X172720000Y-103505000D01*
X172085000Y-104140000D02*
X173355000Y-104140000D01*
D25*
X173355000Y-104140000D02*
X173355000Y-103505000D01*
D26*
X172085000Y-104140000D02*
X173355000Y-105410000D01*
D25*
X173355000Y-105410000D02*
X173355000Y-104140000D01*
D26*
X170815000Y-104140000D02*
X172085000Y-104140000D01*
D25*
X174625000Y-127000000D02*
X173355000Y-128270000D01*
X173355000Y-127000000D02*
X170180000Y-130175000D01*
X173355000Y-128270000D02*
X173355000Y-127000000D01*
X173355000Y-127000000D02*
X173355000Y-105410000D01*
X170180000Y-130175000D02*
X170180000Y-131445000D01*
X104140000Y-138430000D02*
X104140000Y-130810000D01*
D26*
X178435000Y-74930000D02*
X174625000Y-74930000D01*
D25*
X99695000Y-73660000D02*
X100965000Y-72390000D01*
X173355000Y-71120000D02*
X173355000Y-73025000D01*
X99695000Y-124460000D02*
X99695000Y-73660000D01*
X99695000Y-123825000D02*
X99695000Y-124460000D01*
X104140000Y-130810000D02*
X104140000Y-128270000D01*
X99695000Y-125730000D02*
X99695000Y-124460000D01*
X104140000Y-130175000D02*
X99695000Y-125730000D01*
X104140000Y-130810000D02*
X104140000Y-130175000D01*
X100330000Y-71120000D02*
X173355000Y-71120000D01*
X98425000Y-73025000D02*
X100330000Y-71120000D01*
X98425000Y-124460000D02*
X98425000Y-73025000D01*
X99695000Y-125730000D02*
X98425000Y-124460000D01*
X173990000Y-73660000D02*
X173990000Y-100330000D01*
X173990000Y-100330000D02*
X173355000Y-100965000D01*
X173355000Y-73025000D02*
X173990000Y-73660000D01*
X173355000Y-100965000D02*
X174625000Y-99695000D01*
X174625000Y-99695000D02*
X175260000Y-100330000D01*
X174625000Y-100965000D02*
X174625000Y-101600000D01*
X175260000Y-100330000D02*
X174625000Y-100965000D01*
X174625000Y-101600000D02*
X174625000Y-127000000D01*
X174625000Y-99695000D02*
X174625000Y-101600000D01*
X174625000Y-73025000D02*
X173990000Y-73660000D01*
X175260000Y-73025000D02*
X173355000Y-71120000D01*
X175260000Y-100330000D02*
X175260000Y-73025000D01*
D24*
X139700000Y-100965000D02*
X139700000Y-71755000D01*
X141605000Y-102870000D02*
X139700000Y-100965000D01*
X123190000Y-77470000D02*
X130810000Y-77470000D01*
X123190000Y-85090000D02*
X130810000Y-85090000D01*
D26*
X130810000Y-77470000D02*
X132080000Y-78740000D01*
X132080000Y-78740000D02*
X133350000Y-78740000D01*
X130810000Y-77470000D02*
X132080000Y-76200000D01*
X132080000Y-76200000D02*
X133350000Y-76200000D01*
X130810000Y-77470000D02*
X132715000Y-77470000D01*
X132715000Y-77470000D02*
X133350000Y-76835000D01*
D25*
X133350000Y-76835000D02*
X133350000Y-78740000D01*
X133350000Y-76200000D02*
X133350000Y-76835000D01*
D26*
X130810000Y-85090000D02*
X132080000Y-83820000D01*
X132080000Y-83820000D02*
X133350000Y-83820000D01*
D25*
X133350000Y-78740000D02*
X133350000Y-83820000D01*
X172720000Y-72390000D02*
X173355000Y-73025000D01*
D26*
X136525000Y-73025000D02*
X137160000Y-72390000D01*
X136525000Y-74930000D02*
X136525000Y-73025000D01*
X136525000Y-74930000D02*
X137795000Y-74930000D01*
X137795000Y-74930000D02*
X138430000Y-74295000D01*
X138430000Y-74295000D02*
X138430000Y-72390000D01*
D25*
X137160000Y-72390000D02*
X138430000Y-72390000D01*
D26*
X130810000Y-85090000D02*
X133350000Y-85090000D01*
D25*
X132080000Y-72390000D02*
X133350000Y-72390000D01*
X133350000Y-72390000D02*
X133350000Y-73660000D01*
X133350000Y-73660000D02*
X132080000Y-72390000D01*
X133350000Y-73660000D02*
X133350000Y-76200000D01*
X133350000Y-73660000D02*
X134620000Y-72390000D01*
X134620000Y-72390000D02*
X137160000Y-72390000D01*
X133350000Y-72390000D02*
X134620000Y-72390000D01*
D26*
X130810000Y-85090000D02*
X132080000Y-86360000D01*
X132080000Y-86360000D02*
X133350000Y-86360000D01*
D25*
X133350000Y-83820000D02*
X133350000Y-86360000D01*
D26*
X116205000Y-74930000D02*
X116205000Y-73025000D01*
X116205000Y-73025000D02*
X115570000Y-72390000D01*
X112395000Y-73025000D02*
X113030000Y-72390000D01*
X112395000Y-74930000D02*
X112395000Y-73025000D01*
X116205000Y-74930000D02*
X117475000Y-74930000D01*
X117475000Y-74930000D02*
X118110000Y-74295000D01*
X118110000Y-73025000D02*
X117475000Y-72390000D01*
X118110000Y-74295000D02*
X118110000Y-73025000D01*
D25*
X117475000Y-72390000D02*
X132080000Y-72390000D01*
X115570000Y-72390000D02*
X117475000Y-72390000D01*
D26*
X114300000Y-74930000D02*
X114300000Y-73025000D01*
D25*
X114935000Y-72390000D02*
X115570000Y-72390000D01*
X113030000Y-72390000D02*
X114935000Y-72390000D01*
D26*
X114300000Y-73025000D02*
X114935000Y-72390000D01*
X116205000Y-74930000D02*
X114300000Y-74930000D01*
X114300000Y-74930000D02*
X112395000Y-74930000D01*
X112395000Y-74930000D02*
X111125000Y-74930000D01*
D25*
X110490000Y-72390000D02*
X113030000Y-72390000D01*
X100965000Y-72390000D02*
X110490000Y-72390000D01*
X104140000Y-128270000D02*
X102235000Y-126365000D01*
D26*
X102552500Y-125412500D02*
X101917500Y-125412500D01*
X101917500Y-125412500D02*
X101600000Y-125730000D01*
D25*
X101600000Y-125730000D02*
X99695000Y-123825000D01*
X102235000Y-126365000D02*
X101600000Y-125730000D01*
D26*
X104140000Y-123825000D02*
X102552500Y-125412500D01*
X102552500Y-126047500D02*
X102235000Y-126365000D01*
X102552500Y-125412500D02*
X102552500Y-126047500D01*
X110490000Y-74930000D02*
X110490000Y-72390000D01*
X111125000Y-74930000D02*
X110490000Y-74930000D01*
D24*
X110490000Y-80010000D02*
X110490000Y-74930000D01*
X112395000Y-80010000D02*
X110490000Y-80010000D01*
X110490000Y-80010000D02*
X110490000Y-83820000D01*
X111125000Y-93980000D02*
X112395000Y-95250000D01*
X111125000Y-90170000D02*
X111125000Y-93980000D01*
X110490000Y-89535000D02*
X110490000Y-83820000D01*
X111125000Y-90170000D02*
X110490000Y-89535000D01*
X112395000Y-90170000D02*
X111125000Y-90170000D01*
D26*
X156845000Y-73025000D02*
X157480000Y-72390000D01*
X156845000Y-74930000D02*
X156845000Y-73025000D01*
X160655000Y-73025000D02*
X160020000Y-72390000D01*
X160655000Y-74930000D02*
X160655000Y-73025000D01*
X158750000Y-74930000D02*
X158750000Y-72390000D01*
D25*
X158750000Y-72390000D02*
X160020000Y-72390000D01*
X157480000Y-72390000D02*
X158750000Y-72390000D01*
D26*
X160655000Y-74930000D02*
X158750000Y-74930000D01*
X158750000Y-74930000D02*
X156845000Y-74930000D01*
X160655000Y-74930000D02*
X161925000Y-74930000D01*
X161925000Y-74930000D02*
X162560000Y-74295000D01*
X162560000Y-74295000D02*
X162560000Y-72390000D01*
D25*
X162560000Y-72390000D02*
X172720000Y-72390000D01*
X160020000Y-72390000D02*
X162560000Y-72390000D01*
D26*
X156845000Y-74930000D02*
X155575000Y-74930000D01*
X155575000Y-74930000D02*
X154940000Y-74295000D01*
D25*
X154940000Y-72390000D02*
X157480000Y-72390000D01*
D26*
X154940000Y-74295000D02*
X154940000Y-72390000D01*
D25*
X138430000Y-72390000D02*
X154940000Y-72390000D01*
D26*
X136525000Y-74930000D02*
X133350000Y-74930000D01*
D24*
%TO.N,IRQ3*%
X121920000Y-116880198D02*
X121920000Y-116205000D01*
X119380000Y-119420198D02*
X121920000Y-116880198D01*
X115570000Y-132715000D02*
X118110000Y-132715000D01*
X118110000Y-132715000D02*
X119380000Y-131445000D01*
X114300000Y-133985000D02*
X115570000Y-132715000D01*
X119380000Y-131445000D02*
X119380000Y-119420198D01*
X114300000Y-138430000D02*
X114300000Y-133985000D01*
%TO.N,IRQ4*%
X118745000Y-133350000D02*
X120015000Y-132080000D01*
X116840000Y-138430000D02*
X116840000Y-133985000D01*
X116840000Y-133985000D02*
X117475000Y-133350000D01*
X117475000Y-133350000D02*
X118745000Y-133350000D01*
X120015000Y-132080000D02*
X120015000Y-121325198D01*
X120015000Y-121325198D02*
X121920000Y-119420198D01*
X121920000Y-119420198D02*
X121920000Y-118745000D01*
%TO.N,IRQ5*%
X121920000Y-121960198D02*
X121920000Y-121285000D01*
X120650000Y-123230198D02*
X121920000Y-121960198D01*
X119380000Y-133985000D02*
X120650000Y-132715000D01*
X120650000Y-132715000D02*
X120650000Y-123230198D01*
X119380000Y-138430000D02*
X119380000Y-133985000D01*
%TO.N,IRQ7*%
X124460000Y-126365000D02*
X121920000Y-123825000D01*
X124460000Y-138430000D02*
X124460000Y-126365000D01*
%TO.N,~IOR*%
X144780000Y-131445000D02*
X144780000Y-123190000D01*
X142240000Y-133985000D02*
X144780000Y-131445000D01*
X142240000Y-138430000D02*
X142240000Y-133985000D01*
%TO.N,~IOW*%
X141605000Y-118110000D02*
X142240000Y-118110000D01*
X142240000Y-118110000D02*
X146010000Y-121880000D01*
X146010000Y-121880000D02*
X146010000Y-132755000D01*
X146010000Y-132755000D02*
X144780000Y-133985000D01*
X144780000Y-133985000D02*
X144780000Y-138430000D01*
D25*
%TO.N,+12V*%
X154940000Y-132870000D02*
X165100000Y-122710000D01*
X154940000Y-138430000D02*
X154940000Y-132870000D01*
X165100000Y-122710000D02*
X165100000Y-113665000D01*
D26*
X168910000Y-75565000D02*
X168275000Y-75565000D01*
X170180000Y-75565000D02*
X168910000Y-75565000D01*
X170815000Y-74930000D02*
X170180000Y-75565000D01*
X168275000Y-74295000D02*
X168275000Y-74930000D01*
X170180000Y-74295000D02*
X168275000Y-74295000D01*
X170815000Y-74930000D02*
X170180000Y-74295000D01*
D25*
X165100000Y-111760000D02*
X165100000Y-113665000D01*
X167640000Y-94615000D02*
X165100000Y-97155000D01*
X167640000Y-75565000D02*
X167640000Y-94615000D01*
X165100000Y-97155000D02*
X165100000Y-111760000D01*
X168275000Y-74930000D02*
X167640000Y-75565000D01*
D26*
%TO.N,-12V*%
X168600010Y-122880010D02*
X167949990Y-122880010D01*
X168029990Y-124150010D02*
X167949990Y-124150010D01*
X170815000Y-97790000D02*
X170180000Y-97155000D01*
X170180000Y-97155000D02*
X168910000Y-97155000D01*
X170815000Y-97790000D02*
X170180000Y-98425000D01*
X170180000Y-98425000D02*
X168910000Y-98425000D01*
X168910000Y-121285000D02*
X168584990Y-120959990D01*
D25*
X168275000Y-98425000D02*
X168910000Y-97790000D01*
X168275000Y-125095000D02*
X168275000Y-98425000D01*
X160020000Y-138430000D02*
X160020000Y-133350000D01*
X160020000Y-133350000D02*
X166624000Y-126746000D01*
D26*
X166878000Y-127000000D02*
X166624000Y-126746000D01*
X168148000Y-127000000D02*
X168148000Y-126492000D01*
D25*
X167513000Y-125857000D02*
X168275000Y-125095000D01*
X166624000Y-126746000D02*
X167513000Y-125857000D01*
D26*
X168148000Y-127000000D02*
X166878000Y-127000000D01*
X168402000Y-126746000D02*
X168021000Y-126365000D01*
X168402000Y-127000000D02*
X168402000Y-126746000D01*
X168148000Y-126492000D02*
X168021000Y-126365000D01*
X168402000Y-127000000D02*
X168148000Y-127000000D01*
X168656000Y-127000000D02*
X168910000Y-127000000D01*
X167894000Y-126238000D02*
X168656000Y-127000000D01*
X168910000Y-127000000D02*
X168402000Y-127000000D01*
X168021000Y-126365000D02*
X167894000Y-126238000D01*
X167894000Y-126238000D02*
X167513000Y-125857000D01*
X167894000Y-126746000D02*
X168148000Y-127000000D01*
X167894000Y-126238000D02*
X167894000Y-126746000D01*
X168148000Y-125222000D02*
X168275000Y-125095000D01*
X168148000Y-127000000D02*
X168148000Y-125222000D01*
X170220000Y-125095000D02*
X168275000Y-125095000D01*
X170815000Y-125690000D02*
X170220000Y-125095000D01*
X170815000Y-126365000D02*
X170815000Y-125690000D01*
X170180000Y-127000000D02*
X170815000Y-126365000D01*
X168910000Y-127000000D02*
X170180000Y-127000000D01*
D24*
%TO.N,IRQ2*%
X167640000Y-132080000D02*
X167005000Y-131445000D01*
X167640000Y-138430000D02*
X167640000Y-132080000D01*
%TO.N,RESET*%
X172720000Y-138430000D02*
X172720000Y-132080000D01*
X156845000Y-87630000D02*
X155575000Y-88900000D01*
X155575000Y-99695000D02*
X154305000Y-100965000D01*
X154305000Y-100965000D02*
X154305000Y-111760000D01*
X155575000Y-88900000D02*
X155575000Y-99695000D01*
%TO.N,Net-(J1-Pad5)*%
X101600000Y-87630000D02*
X102870000Y-86360000D01*
X101600000Y-115549800D02*
X101600000Y-87630000D01*
X105419999Y-119369799D02*
X101600000Y-115549800D01*
X105419999Y-122564999D02*
X105419999Y-119369799D01*
X106680000Y-123825000D02*
X105419999Y-122564999D01*
%TO.N,Net-(J1-Pad2)*%
X106680000Y-118745000D02*
X106680000Y-121285000D01*
X102870000Y-114935000D02*
X106680000Y-118745000D01*
X102870000Y-91757500D02*
X102870000Y-114935000D01*
X104457500Y-90170000D02*
X102870000Y-91757500D01*
X104775000Y-90170000D02*
X104457500Y-90170000D01*
%TO.N,UART_XIN*%
X130810000Y-92710000D02*
X130810000Y-113030000D01*
%TO.N,Net-(J2-Pad10)*%
X124460000Y-123825000D02*
X124460000Y-121285000D01*
X124460000Y-121285000D02*
X124460000Y-118745000D01*
X124460000Y-118745000D02*
X124460000Y-116205000D01*
X124460000Y-116205000D02*
X124460000Y-113665000D01*
X155575000Y-113030000D02*
X154305000Y-114300000D01*
X155575000Y-101600000D02*
X155575000Y-113030000D01*
X156845000Y-100330000D02*
X155575000Y-101600000D01*
%TO.N,Net-(U1-Pad39)*%
X154305000Y-80010000D02*
X156845000Y-77470000D01*
X154305000Y-99060000D02*
X154305000Y-80010000D01*
%TO.N,Net-(U1-Pad36)*%
X158750000Y-86995000D02*
X156845000Y-85090000D01*
X158750000Y-91440000D02*
X158750000Y-86995000D01*
%TO.N,Net-(U1-Pad15)*%
X142875000Y-109220000D02*
X141605000Y-110490000D01*
X142875000Y-96520000D02*
X142875000Y-109220000D01*
X141605000Y-95250000D02*
X142875000Y-96520000D01*
%TO.N,~UART_CS*%
X119380000Y-102235000D02*
X125095000Y-107950000D01*
X119380000Y-86995000D02*
X119380000Y-102235000D01*
X113665000Y-81280000D02*
X119380000Y-86995000D01*
X113665000Y-78740000D02*
X113665000Y-81280000D01*
X112395000Y-77470000D02*
X113665000Y-78740000D01*
%TO.N,Net-(U1-Pad32)*%
X160020000Y-92075000D02*
X156845000Y-95250000D01*
X160020000Y-86360000D02*
X160020000Y-92075000D01*
%TO.N,/SER_PIN6*%
X182245000Y-83820000D02*
X182245000Y-90170000D01*
%TO.N,/SER_PIN1*%
X184785000Y-91440000D02*
X184785000Y-82550000D01*
X184785000Y-92075000D02*
X184785000Y-91440000D01*
%TO.N,/SER_PIN2*%
X180975000Y-83820000D02*
X180975000Y-88900000D01*
%TO.N,/SER_PIN4*%
X183515000Y-83820000D02*
X183515000Y-92075000D01*
%TD*%
D27*
%TO.N,GND*%
X195421033Y-70005044D02*
X195512449Y-70032645D01*
X195596759Y-70077473D01*
X195670759Y-70137826D01*
X195731627Y-70211402D01*
X195777043Y-70295398D01*
X195805281Y-70386618D01*
X195819000Y-70517152D01*
X195819001Y-133311985D01*
X195805956Y-133445033D01*
X195778355Y-133536449D01*
X195733527Y-133620759D01*
X195673174Y-133694759D01*
X195599595Y-133755629D01*
X195515605Y-133801042D01*
X195424382Y-133829281D01*
X195293848Y-133843000D01*
X177711166Y-133843000D01*
X177673000Y-133839241D01*
X177634834Y-133843000D01*
X177520681Y-133854243D01*
X177508296Y-133858000D01*
X173622000Y-133858000D01*
X173622000Y-132803607D01*
X173740889Y-132625677D01*
X173827729Y-132416026D01*
X173872000Y-132193462D01*
X173872000Y-131966538D01*
X173827729Y-131743974D01*
X173740889Y-131534323D01*
X173614817Y-131345643D01*
X173454357Y-131185183D01*
X173265677Y-131059111D01*
X173056026Y-130972271D01*
X172970639Y-130955286D01*
X174448952Y-129476974D01*
X174511029Y-129426029D01*
X174561975Y-129363951D01*
X174561978Y-129363948D01*
X174561982Y-129363943D01*
X175718951Y-128206975D01*
X175781029Y-128156029D01*
X175831975Y-128093951D01*
X175831978Y-128093948D01*
X175984346Y-127908286D01*
X176135424Y-127625640D01*
X176148309Y-127583164D01*
X176228458Y-127318948D01*
X176252000Y-127079925D01*
X176252000Y-127079915D01*
X176259871Y-127000001D01*
X176252000Y-126920086D01*
X176252000Y-101638924D01*
X176353941Y-101536983D01*
X176416029Y-101486029D01*
X176619346Y-101238286D01*
X176695158Y-101096452D01*
X176770425Y-100955638D01*
X176812220Y-100817856D01*
X187565009Y-100817856D01*
X187841255Y-101235890D01*
X188386292Y-101526484D01*
X188977549Y-101705163D01*
X189592303Y-101765061D01*
X190206930Y-101703875D01*
X190797810Y-101523956D01*
X191336745Y-101235890D01*
X191612991Y-100817856D01*
X189589000Y-98793865D01*
X187565009Y-100817856D01*
X176812220Y-100817856D01*
X176863458Y-100648948D01*
X176887000Y-100409925D01*
X176887000Y-100409924D01*
X176894872Y-100330000D01*
X176887000Y-100250075D01*
X176887000Y-98131275D01*
X177042687Y-98131275D01*
X177098028Y-98298149D01*
X177221903Y-98539572D01*
X177390497Y-98752189D01*
X177597331Y-98927830D01*
X177834456Y-99059745D01*
X178092760Y-99142864D01*
X178308000Y-99013264D01*
X178308000Y-97917000D01*
X178562000Y-97917000D01*
X178562000Y-99013264D01*
X178777240Y-99142864D01*
X179035544Y-99059745D01*
X179272669Y-98927830D01*
X179479503Y-98752189D01*
X179586254Y-98617563D01*
X186438199Y-98617563D01*
X186499385Y-99232190D01*
X186679304Y-99823070D01*
X186967370Y-100362005D01*
X187385404Y-100638251D01*
X189409395Y-98614260D01*
X189768605Y-98614260D01*
X191792596Y-100638251D01*
X192210630Y-100362005D01*
X192501224Y-99816968D01*
X192679903Y-99225711D01*
X192739801Y-98610957D01*
X192678615Y-97996330D01*
X192498696Y-97405450D01*
X192210630Y-96866515D01*
X191792596Y-96590269D01*
X189768605Y-98614260D01*
X189409395Y-98614260D01*
X187385404Y-96590269D01*
X186967370Y-96866515D01*
X186676776Y-97411552D01*
X186498097Y-98002809D01*
X186438199Y-98617563D01*
X179586254Y-98617563D01*
X179648097Y-98539572D01*
X179771972Y-98298149D01*
X179827313Y-98131275D01*
X179704659Y-97917000D01*
X178562000Y-97917000D01*
X178308000Y-97917000D01*
X177165341Y-97917000D01*
X177042687Y-98131275D01*
X176887000Y-98131275D01*
X176887000Y-95364427D01*
X176904741Y-95544555D01*
X176990660Y-95827791D01*
X177130184Y-96088822D01*
X177317952Y-96317618D01*
X177546748Y-96505386D01*
X177707108Y-96591100D01*
X177597331Y-96652170D01*
X177390497Y-96827811D01*
X177221903Y-97040428D01*
X177098028Y-97281851D01*
X177042687Y-97448725D01*
X177165341Y-97663000D01*
X178308000Y-97663000D01*
X178308000Y-97643000D01*
X178562000Y-97643000D01*
X178562000Y-97663000D01*
X179704659Y-97663000D01*
X179827313Y-97448725D01*
X179771972Y-97281851D01*
X179648097Y-97040428D01*
X179479503Y-96827811D01*
X179272669Y-96652170D01*
X179162892Y-96591100D01*
X179323252Y-96505386D01*
X179438671Y-96410664D01*
X187565009Y-96410664D01*
X189589000Y-98434655D01*
X191612991Y-96410664D01*
X191336745Y-95992630D01*
X190791708Y-95702036D01*
X190200451Y-95523357D01*
X189585697Y-95463459D01*
X188971070Y-95524645D01*
X188380190Y-95704564D01*
X187841255Y-95992630D01*
X187565009Y-96410664D01*
X179438671Y-96410664D01*
X179552048Y-96317618D01*
X179739816Y-96088822D01*
X179879340Y-95827791D01*
X179965259Y-95544555D01*
X179994270Y-95250000D01*
X179965259Y-94955445D01*
X179879340Y-94672209D01*
X179739816Y-94411178D01*
X179552048Y-94182382D01*
X179323252Y-93994614D01*
X179295911Y-93980000D01*
X179323252Y-93965386D01*
X179552048Y-93777618D01*
X179739816Y-93548822D01*
X179879340Y-93287791D01*
X179965259Y-93004555D01*
X179994270Y-92710000D01*
X179965259Y-92415445D01*
X179879340Y-92132209D01*
X179739816Y-91871178D01*
X179552048Y-91642382D01*
X179323252Y-91454614D01*
X179295911Y-91440000D01*
X179323252Y-91425386D01*
X179552048Y-91237618D01*
X179739816Y-91008822D01*
X179879340Y-90747791D01*
X179965259Y-90464555D01*
X179994270Y-90170000D01*
X179965259Y-89875445D01*
X179879340Y-89592209D01*
X179739816Y-89331178D01*
X179552048Y-89102382D01*
X179323252Y-88914614D01*
X179295911Y-88900000D01*
X179323252Y-88885386D01*
X179552048Y-88697618D01*
X179739816Y-88468822D01*
X179879340Y-88207791D01*
X179965259Y-87924555D01*
X179994270Y-87630000D01*
X179965259Y-87335445D01*
X179879340Y-87052209D01*
X179739816Y-86791178D01*
X179552048Y-86562382D01*
X179323252Y-86374614D01*
X179295911Y-86360000D01*
X179323252Y-86345386D01*
X179552048Y-86157618D01*
X179739816Y-85928822D01*
X179879340Y-85667791D01*
X179965259Y-85384555D01*
X179994270Y-85090000D01*
X179965259Y-84795445D01*
X179879340Y-84512209D01*
X179739816Y-84251178D01*
X179552048Y-84022382D01*
X179323252Y-83834614D01*
X179295911Y-83820000D01*
X179323252Y-83805386D01*
X179443698Y-83706538D01*
X179823000Y-83706538D01*
X179823000Y-83933462D01*
X179867271Y-84156026D01*
X179954111Y-84365677D01*
X180073000Y-84543607D01*
X180073001Y-88176392D01*
X179954111Y-88354323D01*
X179867271Y-88563974D01*
X179823000Y-88786538D01*
X179823000Y-89013462D01*
X179867271Y-89236026D01*
X179954111Y-89445677D01*
X180080183Y-89634357D01*
X180240643Y-89794817D01*
X180429323Y-89920889D01*
X180638974Y-90007729D01*
X180861538Y-90052000D01*
X181088462Y-90052000D01*
X181094127Y-90050873D01*
X181093000Y-90056538D01*
X181093000Y-90283462D01*
X181137271Y-90506026D01*
X181224111Y-90715677D01*
X181350183Y-90904357D01*
X181510643Y-91064817D01*
X181699323Y-91190889D01*
X181908974Y-91277729D01*
X182131538Y-91322000D01*
X182358462Y-91322000D01*
X182581026Y-91277729D01*
X182613001Y-91264485D01*
X182613001Y-91351392D01*
X182494111Y-91529323D01*
X182407271Y-91738974D01*
X182363000Y-91961538D01*
X182363000Y-92188462D01*
X182407271Y-92411026D01*
X182494111Y-92620677D01*
X182620183Y-92809357D01*
X182780643Y-92969817D01*
X182969323Y-93095889D01*
X183178974Y-93182729D01*
X183401538Y-93227000D01*
X183628462Y-93227000D01*
X183851026Y-93182729D01*
X184060677Y-93095889D01*
X184150000Y-93036205D01*
X184239323Y-93095889D01*
X184448974Y-93182729D01*
X184671538Y-93227000D01*
X184898462Y-93227000D01*
X185121026Y-93182729D01*
X185330677Y-93095889D01*
X185519357Y-92969817D01*
X185679817Y-92809357D01*
X185805889Y-92620677D01*
X185892729Y-92411026D01*
X185937000Y-92188462D01*
X185937000Y-91961538D01*
X185892729Y-91738974D01*
X185805889Y-91529323D01*
X185687000Y-91351393D01*
X185687000Y-83348860D01*
X186311320Y-83348860D01*
X186340331Y-83643415D01*
X186426250Y-83926651D01*
X186565774Y-84187682D01*
X186753542Y-84416478D01*
X186982338Y-84604246D01*
X187225895Y-84734430D01*
X186982338Y-84864614D01*
X186753542Y-85052382D01*
X186565774Y-85281178D01*
X186426250Y-85542209D01*
X186340331Y-85825445D01*
X186311320Y-86120000D01*
X186340331Y-86414555D01*
X186426250Y-86697791D01*
X186565774Y-86958822D01*
X186753542Y-87187618D01*
X186982338Y-87375386D01*
X187225895Y-87505570D01*
X186982338Y-87635754D01*
X186753542Y-87823522D01*
X186565774Y-88052318D01*
X186426250Y-88313349D01*
X186340331Y-88596585D01*
X186311320Y-88891140D01*
X186340331Y-89185695D01*
X186426250Y-89468931D01*
X186565774Y-89729962D01*
X186753542Y-89958758D01*
X186982338Y-90146526D01*
X187223519Y-90275440D01*
X186982338Y-90404354D01*
X186753542Y-90592122D01*
X186565774Y-90820918D01*
X186426250Y-91081949D01*
X186340331Y-91365185D01*
X186311320Y-91659740D01*
X186340331Y-91954295D01*
X186426250Y-92237531D01*
X186565774Y-92498562D01*
X186753542Y-92727358D01*
X186982338Y-92915126D01*
X187243369Y-93054650D01*
X187526605Y-93140569D01*
X187747346Y-93162310D01*
X188392814Y-93162310D01*
X188613555Y-93140569D01*
X188896791Y-93054650D01*
X189157822Y-92915126D01*
X189386618Y-92727358D01*
X189574386Y-92498562D01*
X189713910Y-92237531D01*
X189799829Y-91954295D01*
X189828840Y-91659740D01*
X189799829Y-91365185D01*
X189793692Y-91344954D01*
X190020178Y-91530826D01*
X190281209Y-91670350D01*
X190564445Y-91756269D01*
X190785186Y-91778010D01*
X191430654Y-91778010D01*
X191651395Y-91756269D01*
X191934631Y-91670350D01*
X192195662Y-91530826D01*
X192424458Y-91343058D01*
X192612226Y-91114262D01*
X192751750Y-90853231D01*
X192837669Y-90569995D01*
X192866680Y-90275440D01*
X192837669Y-89980885D01*
X192751750Y-89697649D01*
X192612226Y-89436618D01*
X192424458Y-89207822D01*
X192195662Y-89020054D01*
X191952105Y-88889870D01*
X192195662Y-88759686D01*
X192424458Y-88571918D01*
X192612226Y-88343122D01*
X192751750Y-88082091D01*
X192837669Y-87798855D01*
X192866680Y-87504300D01*
X192837669Y-87209745D01*
X192751750Y-86926509D01*
X192612226Y-86665478D01*
X192424458Y-86436682D01*
X192195662Y-86248914D01*
X191954481Y-86120000D01*
X192195662Y-85991086D01*
X192424458Y-85803318D01*
X192612226Y-85574522D01*
X192751750Y-85313491D01*
X192837669Y-85030255D01*
X192866680Y-84735700D01*
X192837669Y-84441145D01*
X192751750Y-84157909D01*
X192612226Y-83896878D01*
X192424458Y-83668082D01*
X192195662Y-83480314D01*
X191952105Y-83350130D01*
X192195662Y-83219946D01*
X192424458Y-83032178D01*
X192612226Y-82803382D01*
X192751750Y-82542351D01*
X192837669Y-82259115D01*
X192866680Y-81964560D01*
X192837669Y-81670005D01*
X192751750Y-81386769D01*
X192612226Y-81125738D01*
X192424458Y-80896942D01*
X192195662Y-80709174D01*
X191934631Y-80569650D01*
X191651395Y-80483731D01*
X191430654Y-80461990D01*
X190785186Y-80461990D01*
X190564445Y-80483731D01*
X190281209Y-80569650D01*
X190020178Y-80709174D01*
X189791382Y-80896942D01*
X189603614Y-81125738D01*
X189565621Y-81196818D01*
X189643242Y-81023567D01*
X189661883Y-80921535D01*
X189539229Y-80707260D01*
X188197080Y-80707260D01*
X188197080Y-80727260D01*
X187943080Y-80727260D01*
X187943080Y-80707260D01*
X186600931Y-80707260D01*
X186478277Y-80921535D01*
X186496918Y-81023567D01*
X186608848Y-81273396D01*
X186767366Y-81496588D01*
X186966381Y-81684566D01*
X187198245Y-81830106D01*
X187399158Y-81906692D01*
X187243369Y-81953950D01*
X186982338Y-82093474D01*
X186753542Y-82281242D01*
X186565774Y-82510038D01*
X186426250Y-82771069D01*
X186340331Y-83054305D01*
X186311320Y-83348860D01*
X185687000Y-83348860D01*
X185687000Y-83273607D01*
X185805889Y-83095677D01*
X185892729Y-82886026D01*
X185937000Y-82663462D01*
X185937000Y-82436538D01*
X185892729Y-82213974D01*
X185805889Y-82004323D01*
X185679817Y-81815643D01*
X185519357Y-81655183D01*
X185330677Y-81529111D01*
X185121026Y-81442271D01*
X184898462Y-81398000D01*
X184671538Y-81398000D01*
X184448974Y-81442271D01*
X184239323Y-81529111D01*
X184050643Y-81655183D01*
X183890183Y-81815643D01*
X183764111Y-82004323D01*
X183677271Y-82213974D01*
X183633000Y-82436538D01*
X183633000Y-82663462D01*
X183634127Y-82669127D01*
X183628462Y-82668000D01*
X183401538Y-82668000D01*
X183178974Y-82712271D01*
X182969323Y-82799111D01*
X182880000Y-82858795D01*
X182790677Y-82799111D01*
X182581026Y-82712271D01*
X182358462Y-82668000D01*
X182131538Y-82668000D01*
X181908974Y-82712271D01*
X181699323Y-82799111D01*
X181610000Y-82858795D01*
X181520677Y-82799111D01*
X181311026Y-82712271D01*
X181088462Y-82668000D01*
X180861538Y-82668000D01*
X180638974Y-82712271D01*
X180429323Y-82799111D01*
X180240643Y-82925183D01*
X180080183Y-83085643D01*
X179954111Y-83274323D01*
X179867271Y-83483974D01*
X179823000Y-83706538D01*
X179443698Y-83706538D01*
X179552048Y-83617618D01*
X179739816Y-83388822D01*
X179879340Y-83127791D01*
X179965259Y-82844555D01*
X179994270Y-82550000D01*
X179965259Y-82255445D01*
X179879340Y-81972209D01*
X179739816Y-81711178D01*
X179552048Y-81482382D01*
X179323252Y-81294614D01*
X179295911Y-81280000D01*
X179323252Y-81265386D01*
X179552048Y-81077618D01*
X179679184Y-80922702D01*
X181431903Y-80922702D01*
X181503486Y-81166671D01*
X181758996Y-81287571D01*
X182033184Y-81356300D01*
X182315512Y-81370217D01*
X182595130Y-81328787D01*
X182861292Y-81233603D01*
X182986514Y-81166671D01*
X183058097Y-80922702D01*
X182245000Y-80109605D01*
X181431903Y-80922702D01*
X179679184Y-80922702D01*
X179739816Y-80848822D01*
X179879340Y-80587791D01*
X179965259Y-80304555D01*
X179994270Y-80010000D01*
X179993336Y-80000512D01*
X180804783Y-80000512D01*
X180846213Y-80280130D01*
X180941397Y-80546292D01*
X181008329Y-80671514D01*
X181252298Y-80743097D01*
X182065395Y-79930000D01*
X182424605Y-79930000D01*
X183237702Y-80743097D01*
X183481671Y-80671514D01*
X183602571Y-80416004D01*
X183646943Y-80238985D01*
X186478277Y-80238985D01*
X186600931Y-80453260D01*
X187943080Y-80453260D01*
X187943080Y-79347869D01*
X188197080Y-79347869D01*
X188197080Y-80453260D01*
X189539229Y-80453260D01*
X189661883Y-80238985D01*
X189643242Y-80136953D01*
X189531312Y-79887124D01*
X189372794Y-79663932D01*
X189173779Y-79475954D01*
X188941915Y-79330414D01*
X188686113Y-79232905D01*
X188416203Y-79187174D01*
X188197080Y-79347869D01*
X187943080Y-79347869D01*
X187723957Y-79187174D01*
X187454047Y-79232905D01*
X187198245Y-79330414D01*
X186966381Y-79475954D01*
X186767366Y-79663932D01*
X186608848Y-79887124D01*
X186496918Y-80136953D01*
X186478277Y-80238985D01*
X183646943Y-80238985D01*
X183671300Y-80141816D01*
X183685217Y-79859488D01*
X183643787Y-79579870D01*
X183548603Y-79313708D01*
X183481671Y-79188486D01*
X183237702Y-79116903D01*
X182424605Y-79930000D01*
X182065395Y-79930000D01*
X181252298Y-79116903D01*
X181008329Y-79188486D01*
X180887429Y-79443996D01*
X180818700Y-79718184D01*
X180804783Y-80000512D01*
X179993336Y-80000512D01*
X179965259Y-79715445D01*
X179879340Y-79432209D01*
X179739816Y-79171178D01*
X179552048Y-78942382D01*
X179545854Y-78937298D01*
X181431903Y-78937298D01*
X182245000Y-79750395D01*
X183058097Y-78937298D01*
X182986514Y-78693329D01*
X182731004Y-78572429D01*
X182456816Y-78503700D01*
X182174488Y-78489783D01*
X181894870Y-78531213D01*
X181628708Y-78626397D01*
X181503486Y-78693329D01*
X181431903Y-78937298D01*
X179545854Y-78937298D01*
X179323252Y-78754614D01*
X179295911Y-78740000D01*
X179323252Y-78725386D01*
X179552048Y-78537618D01*
X179739816Y-78308822D01*
X179879340Y-78047791D01*
X179965259Y-77764555D01*
X179994270Y-77470000D01*
X179965259Y-77175445D01*
X179879340Y-76892209D01*
X179739816Y-76631178D01*
X179552048Y-76402382D01*
X179323252Y-76214614D01*
X179295911Y-76200000D01*
X179323252Y-76185386D01*
X179552048Y-75997618D01*
X179605899Y-75932000D01*
X181052141Y-75932000D01*
X181255658Y-76135517D01*
X181509853Y-76305364D01*
X181792298Y-76422357D01*
X182092141Y-76482000D01*
X182397859Y-76482000D01*
X182697702Y-76422357D01*
X182980147Y-76305364D01*
X183234342Y-76135517D01*
X183450517Y-75919342D01*
X183510656Y-75829336D01*
X187565009Y-75829336D01*
X187841255Y-76247370D01*
X188386292Y-76537964D01*
X188977549Y-76716643D01*
X189592303Y-76776541D01*
X190206930Y-76715355D01*
X190797810Y-76535436D01*
X191336745Y-76247370D01*
X191612991Y-75829336D01*
X189589000Y-73805345D01*
X187565009Y-75829336D01*
X183510656Y-75829336D01*
X183620364Y-75665147D01*
X183737357Y-75382702D01*
X183797000Y-75082859D01*
X183797000Y-74777141D01*
X183737357Y-74477298D01*
X183620364Y-74194853D01*
X183450517Y-73940658D01*
X183234342Y-73724483D01*
X183091506Y-73629043D01*
X186438199Y-73629043D01*
X186499385Y-74243670D01*
X186679304Y-74834550D01*
X186967370Y-75373485D01*
X187385404Y-75649731D01*
X189409395Y-73625740D01*
X189768605Y-73625740D01*
X191792596Y-75649731D01*
X192210630Y-75373485D01*
X192501224Y-74828448D01*
X192679903Y-74237191D01*
X192739801Y-73622437D01*
X192678615Y-73007810D01*
X192498696Y-72416930D01*
X192210630Y-71877995D01*
X191792596Y-71601749D01*
X189768605Y-73625740D01*
X189409395Y-73625740D01*
X187385404Y-71601749D01*
X186967370Y-71877995D01*
X186676776Y-72423032D01*
X186498097Y-73014289D01*
X186438199Y-73629043D01*
X183091506Y-73629043D01*
X182980147Y-73554636D01*
X182697702Y-73437643D01*
X182397859Y-73378000D01*
X182092141Y-73378000D01*
X181792298Y-73437643D01*
X181509853Y-73554636D01*
X181255658Y-73724483D01*
X181052141Y-73928000D01*
X179605899Y-73928000D01*
X179552048Y-73862382D01*
X179323252Y-73674614D01*
X179062221Y-73535090D01*
X178778985Y-73449171D01*
X178558244Y-73427430D01*
X178311756Y-73427430D01*
X178091015Y-73449171D01*
X177807779Y-73535090D01*
X177546748Y-73674614D01*
X177317952Y-73862382D01*
X177264101Y-73928000D01*
X176887000Y-73928000D01*
X176887000Y-73104925D01*
X176894872Y-73025000D01*
X176863458Y-72706052D01*
X176770425Y-72399362D01*
X176619346Y-72116714D01*
X176546775Y-72028286D01*
X176466978Y-71931052D01*
X176466975Y-71931049D01*
X176416029Y-71868971D01*
X176353951Y-71818025D01*
X175958070Y-71422144D01*
X187565009Y-71422144D01*
X189589000Y-73446135D01*
X191612991Y-71422144D01*
X191336745Y-71004110D01*
X190791708Y-70713516D01*
X190200451Y-70534837D01*
X189585697Y-70474939D01*
X188971070Y-70536125D01*
X188380190Y-70716044D01*
X187841255Y-71004110D01*
X187565009Y-71422144D01*
X175958070Y-71422144D01*
X174561979Y-70026054D01*
X174534032Y-69992000D01*
X195287995Y-69992000D01*
X195421033Y-70005044D01*
%TA.AperFunction,Conductor*%
D28*
G36*
X195421033Y-70005044D02*
G01*
X195512449Y-70032645D01*
X195596759Y-70077473D01*
X195670759Y-70137826D01*
X195731627Y-70211402D01*
X195777043Y-70295398D01*
X195805281Y-70386618D01*
X195819000Y-70517152D01*
X195819001Y-133311985D01*
X195805956Y-133445033D01*
X195778355Y-133536449D01*
X195733527Y-133620759D01*
X195673174Y-133694759D01*
X195599595Y-133755629D01*
X195515605Y-133801042D01*
X195424382Y-133829281D01*
X195293848Y-133843000D01*
X177711166Y-133843000D01*
X177673000Y-133839241D01*
X177634834Y-133843000D01*
X177520681Y-133854243D01*
X177508296Y-133858000D01*
X173622000Y-133858000D01*
X173622000Y-132803607D01*
X173740889Y-132625677D01*
X173827729Y-132416026D01*
X173872000Y-132193462D01*
X173872000Y-131966538D01*
X173827729Y-131743974D01*
X173740889Y-131534323D01*
X173614817Y-131345643D01*
X173454357Y-131185183D01*
X173265677Y-131059111D01*
X173056026Y-130972271D01*
X172970639Y-130955286D01*
X174448952Y-129476974D01*
X174511029Y-129426029D01*
X174561975Y-129363951D01*
X174561978Y-129363948D01*
X174561982Y-129363943D01*
X175718951Y-128206975D01*
X175781029Y-128156029D01*
X175831975Y-128093951D01*
X175831978Y-128093948D01*
X175984346Y-127908286D01*
X176135424Y-127625640D01*
X176148309Y-127583164D01*
X176228458Y-127318948D01*
X176252000Y-127079925D01*
X176252000Y-127079915D01*
X176259871Y-127000001D01*
X176252000Y-126920086D01*
X176252000Y-101638924D01*
X176353941Y-101536983D01*
X176416029Y-101486029D01*
X176619346Y-101238286D01*
X176695158Y-101096452D01*
X176770425Y-100955638D01*
X176812220Y-100817856D01*
X187565009Y-100817856D01*
X187841255Y-101235890D01*
X188386292Y-101526484D01*
X188977549Y-101705163D01*
X189592303Y-101765061D01*
X190206930Y-101703875D01*
X190797810Y-101523956D01*
X191336745Y-101235890D01*
X191612991Y-100817856D01*
X189589000Y-98793865D01*
X187565009Y-100817856D01*
X176812220Y-100817856D01*
X176863458Y-100648948D01*
X176887000Y-100409925D01*
X176887000Y-100409924D01*
X176894872Y-100330000D01*
X176887000Y-100250075D01*
X176887000Y-98131275D01*
X177042687Y-98131275D01*
X177098028Y-98298149D01*
X177221903Y-98539572D01*
X177390497Y-98752189D01*
X177597331Y-98927830D01*
X177834456Y-99059745D01*
X178092760Y-99142864D01*
X178308000Y-99013264D01*
X178308000Y-97917000D01*
X178562000Y-97917000D01*
X178562000Y-99013264D01*
X178777240Y-99142864D01*
X179035544Y-99059745D01*
X179272669Y-98927830D01*
X179479503Y-98752189D01*
X179586254Y-98617563D01*
X186438199Y-98617563D01*
X186499385Y-99232190D01*
X186679304Y-99823070D01*
X186967370Y-100362005D01*
X187385404Y-100638251D01*
X189409395Y-98614260D01*
X189768605Y-98614260D01*
X191792596Y-100638251D01*
X192210630Y-100362005D01*
X192501224Y-99816968D01*
X192679903Y-99225711D01*
X192739801Y-98610957D01*
X192678615Y-97996330D01*
X192498696Y-97405450D01*
X192210630Y-96866515D01*
X191792596Y-96590269D01*
X189768605Y-98614260D01*
X189409395Y-98614260D01*
X187385404Y-96590269D01*
X186967370Y-96866515D01*
X186676776Y-97411552D01*
X186498097Y-98002809D01*
X186438199Y-98617563D01*
X179586254Y-98617563D01*
X179648097Y-98539572D01*
X179771972Y-98298149D01*
X179827313Y-98131275D01*
X179704659Y-97917000D01*
X178562000Y-97917000D01*
X178308000Y-97917000D01*
X177165341Y-97917000D01*
X177042687Y-98131275D01*
X176887000Y-98131275D01*
X176887000Y-95364427D01*
X176904741Y-95544555D01*
X176990660Y-95827791D01*
X177130184Y-96088822D01*
X177317952Y-96317618D01*
X177546748Y-96505386D01*
X177707108Y-96591100D01*
X177597331Y-96652170D01*
X177390497Y-96827811D01*
X177221903Y-97040428D01*
X177098028Y-97281851D01*
X177042687Y-97448725D01*
X177165341Y-97663000D01*
X178308000Y-97663000D01*
X178308000Y-97643000D01*
X178562000Y-97643000D01*
X178562000Y-97663000D01*
X179704659Y-97663000D01*
X179827313Y-97448725D01*
X179771972Y-97281851D01*
X179648097Y-97040428D01*
X179479503Y-96827811D01*
X179272669Y-96652170D01*
X179162892Y-96591100D01*
X179323252Y-96505386D01*
X179438671Y-96410664D01*
X187565009Y-96410664D01*
X189589000Y-98434655D01*
X191612991Y-96410664D01*
X191336745Y-95992630D01*
X190791708Y-95702036D01*
X190200451Y-95523357D01*
X189585697Y-95463459D01*
X188971070Y-95524645D01*
X188380190Y-95704564D01*
X187841255Y-95992630D01*
X187565009Y-96410664D01*
X179438671Y-96410664D01*
X179552048Y-96317618D01*
X179739816Y-96088822D01*
X179879340Y-95827791D01*
X179965259Y-95544555D01*
X179994270Y-95250000D01*
X179965259Y-94955445D01*
X179879340Y-94672209D01*
X179739816Y-94411178D01*
X179552048Y-94182382D01*
X179323252Y-93994614D01*
X179295911Y-93980000D01*
X179323252Y-93965386D01*
X179552048Y-93777618D01*
X179739816Y-93548822D01*
X179879340Y-93287791D01*
X179965259Y-93004555D01*
X179994270Y-92710000D01*
X179965259Y-92415445D01*
X179879340Y-92132209D01*
X179739816Y-91871178D01*
X179552048Y-91642382D01*
X179323252Y-91454614D01*
X179295911Y-91440000D01*
X179323252Y-91425386D01*
X179552048Y-91237618D01*
X179739816Y-91008822D01*
X179879340Y-90747791D01*
X179965259Y-90464555D01*
X179994270Y-90170000D01*
X179965259Y-89875445D01*
X179879340Y-89592209D01*
X179739816Y-89331178D01*
X179552048Y-89102382D01*
X179323252Y-88914614D01*
X179295911Y-88900000D01*
X179323252Y-88885386D01*
X179552048Y-88697618D01*
X179739816Y-88468822D01*
X179879340Y-88207791D01*
X179965259Y-87924555D01*
X179994270Y-87630000D01*
X179965259Y-87335445D01*
X179879340Y-87052209D01*
X179739816Y-86791178D01*
X179552048Y-86562382D01*
X179323252Y-86374614D01*
X179295911Y-86360000D01*
X179323252Y-86345386D01*
X179552048Y-86157618D01*
X179739816Y-85928822D01*
X179879340Y-85667791D01*
X179965259Y-85384555D01*
X179994270Y-85090000D01*
X179965259Y-84795445D01*
X179879340Y-84512209D01*
X179739816Y-84251178D01*
X179552048Y-84022382D01*
X179323252Y-83834614D01*
X179295911Y-83820000D01*
X179323252Y-83805386D01*
X179443698Y-83706538D01*
X179823000Y-83706538D01*
X179823000Y-83933462D01*
X179867271Y-84156026D01*
X179954111Y-84365677D01*
X180073000Y-84543607D01*
X180073001Y-88176392D01*
X179954111Y-88354323D01*
X179867271Y-88563974D01*
X179823000Y-88786538D01*
X179823000Y-89013462D01*
X179867271Y-89236026D01*
X179954111Y-89445677D01*
X180080183Y-89634357D01*
X180240643Y-89794817D01*
X180429323Y-89920889D01*
X180638974Y-90007729D01*
X180861538Y-90052000D01*
X181088462Y-90052000D01*
X181094127Y-90050873D01*
X181093000Y-90056538D01*
X181093000Y-90283462D01*
X181137271Y-90506026D01*
X181224111Y-90715677D01*
X181350183Y-90904357D01*
X181510643Y-91064817D01*
X181699323Y-91190889D01*
X181908974Y-91277729D01*
X182131538Y-91322000D01*
X182358462Y-91322000D01*
X182581026Y-91277729D01*
X182613001Y-91264485D01*
X182613001Y-91351392D01*
X182494111Y-91529323D01*
X182407271Y-91738974D01*
X182363000Y-91961538D01*
X182363000Y-92188462D01*
X182407271Y-92411026D01*
X182494111Y-92620677D01*
X182620183Y-92809357D01*
X182780643Y-92969817D01*
X182969323Y-93095889D01*
X183178974Y-93182729D01*
X183401538Y-93227000D01*
X183628462Y-93227000D01*
X183851026Y-93182729D01*
X184060677Y-93095889D01*
X184150000Y-93036205D01*
X184239323Y-93095889D01*
X184448974Y-93182729D01*
X184671538Y-93227000D01*
X184898462Y-93227000D01*
X185121026Y-93182729D01*
X185330677Y-93095889D01*
X185519357Y-92969817D01*
X185679817Y-92809357D01*
X185805889Y-92620677D01*
X185892729Y-92411026D01*
X185937000Y-92188462D01*
X185937000Y-91961538D01*
X185892729Y-91738974D01*
X185805889Y-91529323D01*
X185687000Y-91351393D01*
X185687000Y-83348860D01*
X186311320Y-83348860D01*
X186340331Y-83643415D01*
X186426250Y-83926651D01*
X186565774Y-84187682D01*
X186753542Y-84416478D01*
X186982338Y-84604246D01*
X187225895Y-84734430D01*
X186982338Y-84864614D01*
X186753542Y-85052382D01*
X186565774Y-85281178D01*
X186426250Y-85542209D01*
X186340331Y-85825445D01*
X186311320Y-86120000D01*
X186340331Y-86414555D01*
X186426250Y-86697791D01*
X186565774Y-86958822D01*
X186753542Y-87187618D01*
X186982338Y-87375386D01*
X187225895Y-87505570D01*
X186982338Y-87635754D01*
X186753542Y-87823522D01*
X186565774Y-88052318D01*
X186426250Y-88313349D01*
X186340331Y-88596585D01*
X186311320Y-88891140D01*
X186340331Y-89185695D01*
X186426250Y-89468931D01*
X186565774Y-89729962D01*
X186753542Y-89958758D01*
X186982338Y-90146526D01*
X187223519Y-90275440D01*
X186982338Y-90404354D01*
X186753542Y-90592122D01*
X186565774Y-90820918D01*
X186426250Y-91081949D01*
X186340331Y-91365185D01*
X186311320Y-91659740D01*
X186340331Y-91954295D01*
X186426250Y-92237531D01*
X186565774Y-92498562D01*
X186753542Y-92727358D01*
X186982338Y-92915126D01*
X187243369Y-93054650D01*
X187526605Y-93140569D01*
X187747346Y-93162310D01*
X188392814Y-93162310D01*
X188613555Y-93140569D01*
X188896791Y-93054650D01*
X189157822Y-92915126D01*
X189386618Y-92727358D01*
X189574386Y-92498562D01*
X189713910Y-92237531D01*
X189799829Y-91954295D01*
X189828840Y-91659740D01*
X189799829Y-91365185D01*
X189793692Y-91344954D01*
X190020178Y-91530826D01*
X190281209Y-91670350D01*
X190564445Y-91756269D01*
X190785186Y-91778010D01*
X191430654Y-91778010D01*
X191651395Y-91756269D01*
X191934631Y-91670350D01*
X192195662Y-91530826D01*
X192424458Y-91343058D01*
X192612226Y-91114262D01*
X192751750Y-90853231D01*
X192837669Y-90569995D01*
X192866680Y-90275440D01*
X192837669Y-89980885D01*
X192751750Y-89697649D01*
X192612226Y-89436618D01*
X192424458Y-89207822D01*
X192195662Y-89020054D01*
X191952105Y-88889870D01*
X192195662Y-88759686D01*
X192424458Y-88571918D01*
X192612226Y-88343122D01*
X192751750Y-88082091D01*
X192837669Y-87798855D01*
X192866680Y-87504300D01*
X192837669Y-87209745D01*
X192751750Y-86926509D01*
X192612226Y-86665478D01*
X192424458Y-86436682D01*
X192195662Y-86248914D01*
X191954481Y-86120000D01*
X192195662Y-85991086D01*
X192424458Y-85803318D01*
X192612226Y-85574522D01*
X192751750Y-85313491D01*
X192837669Y-85030255D01*
X192866680Y-84735700D01*
X192837669Y-84441145D01*
X192751750Y-84157909D01*
X192612226Y-83896878D01*
X192424458Y-83668082D01*
X192195662Y-83480314D01*
X191952105Y-83350130D01*
X192195662Y-83219946D01*
X192424458Y-83032178D01*
X192612226Y-82803382D01*
X192751750Y-82542351D01*
X192837669Y-82259115D01*
X192866680Y-81964560D01*
X192837669Y-81670005D01*
X192751750Y-81386769D01*
X192612226Y-81125738D01*
X192424458Y-80896942D01*
X192195662Y-80709174D01*
X191934631Y-80569650D01*
X191651395Y-80483731D01*
X191430654Y-80461990D01*
X190785186Y-80461990D01*
X190564445Y-80483731D01*
X190281209Y-80569650D01*
X190020178Y-80709174D01*
X189791382Y-80896942D01*
X189603614Y-81125738D01*
X189565621Y-81196818D01*
X189643242Y-81023567D01*
X189661883Y-80921535D01*
X189539229Y-80707260D01*
X188197080Y-80707260D01*
X188197080Y-80727260D01*
X187943080Y-80727260D01*
X187943080Y-80707260D01*
X186600931Y-80707260D01*
X186478277Y-80921535D01*
X186496918Y-81023567D01*
X186608848Y-81273396D01*
X186767366Y-81496588D01*
X186966381Y-81684566D01*
X187198245Y-81830106D01*
X187399158Y-81906692D01*
X187243369Y-81953950D01*
X186982338Y-82093474D01*
X186753542Y-82281242D01*
X186565774Y-82510038D01*
X186426250Y-82771069D01*
X186340331Y-83054305D01*
X186311320Y-83348860D01*
X185687000Y-83348860D01*
X185687000Y-83273607D01*
X185805889Y-83095677D01*
X185892729Y-82886026D01*
X185937000Y-82663462D01*
X185937000Y-82436538D01*
X185892729Y-82213974D01*
X185805889Y-82004323D01*
X185679817Y-81815643D01*
X185519357Y-81655183D01*
X185330677Y-81529111D01*
X185121026Y-81442271D01*
X184898462Y-81398000D01*
X184671538Y-81398000D01*
X184448974Y-81442271D01*
X184239323Y-81529111D01*
X184050643Y-81655183D01*
X183890183Y-81815643D01*
X183764111Y-82004323D01*
X183677271Y-82213974D01*
X183633000Y-82436538D01*
X183633000Y-82663462D01*
X183634127Y-82669127D01*
X183628462Y-82668000D01*
X183401538Y-82668000D01*
X183178974Y-82712271D01*
X182969323Y-82799111D01*
X182880000Y-82858795D01*
X182790677Y-82799111D01*
X182581026Y-82712271D01*
X182358462Y-82668000D01*
X182131538Y-82668000D01*
X181908974Y-82712271D01*
X181699323Y-82799111D01*
X181610000Y-82858795D01*
X181520677Y-82799111D01*
X181311026Y-82712271D01*
X181088462Y-82668000D01*
X180861538Y-82668000D01*
X180638974Y-82712271D01*
X180429323Y-82799111D01*
X180240643Y-82925183D01*
X180080183Y-83085643D01*
X179954111Y-83274323D01*
X179867271Y-83483974D01*
X179823000Y-83706538D01*
X179443698Y-83706538D01*
X179552048Y-83617618D01*
X179739816Y-83388822D01*
X179879340Y-83127791D01*
X179965259Y-82844555D01*
X179994270Y-82550000D01*
X179965259Y-82255445D01*
X179879340Y-81972209D01*
X179739816Y-81711178D01*
X179552048Y-81482382D01*
X179323252Y-81294614D01*
X179295911Y-81280000D01*
X179323252Y-81265386D01*
X179552048Y-81077618D01*
X179679184Y-80922702D01*
X181431903Y-80922702D01*
X181503486Y-81166671D01*
X181758996Y-81287571D01*
X182033184Y-81356300D01*
X182315512Y-81370217D01*
X182595130Y-81328787D01*
X182861292Y-81233603D01*
X182986514Y-81166671D01*
X183058097Y-80922702D01*
X182245000Y-80109605D01*
X181431903Y-80922702D01*
X179679184Y-80922702D01*
X179739816Y-80848822D01*
X179879340Y-80587791D01*
X179965259Y-80304555D01*
X179994270Y-80010000D01*
X179993336Y-80000512D01*
X180804783Y-80000512D01*
X180846213Y-80280130D01*
X180941397Y-80546292D01*
X181008329Y-80671514D01*
X181252298Y-80743097D01*
X182065395Y-79930000D01*
X182424605Y-79930000D01*
X183237702Y-80743097D01*
X183481671Y-80671514D01*
X183602571Y-80416004D01*
X183646943Y-80238985D01*
X186478277Y-80238985D01*
X186600931Y-80453260D01*
X187943080Y-80453260D01*
X187943080Y-79347869D01*
X188197080Y-79347869D01*
X188197080Y-80453260D01*
X189539229Y-80453260D01*
X189661883Y-80238985D01*
X189643242Y-80136953D01*
X189531312Y-79887124D01*
X189372794Y-79663932D01*
X189173779Y-79475954D01*
X188941915Y-79330414D01*
X188686113Y-79232905D01*
X188416203Y-79187174D01*
X188197080Y-79347869D01*
X187943080Y-79347869D01*
X187723957Y-79187174D01*
X187454047Y-79232905D01*
X187198245Y-79330414D01*
X186966381Y-79475954D01*
X186767366Y-79663932D01*
X186608848Y-79887124D01*
X186496918Y-80136953D01*
X186478277Y-80238985D01*
X183646943Y-80238985D01*
X183671300Y-80141816D01*
X183685217Y-79859488D01*
X183643787Y-79579870D01*
X183548603Y-79313708D01*
X183481671Y-79188486D01*
X183237702Y-79116903D01*
X182424605Y-79930000D01*
X182065395Y-79930000D01*
X181252298Y-79116903D01*
X181008329Y-79188486D01*
X180887429Y-79443996D01*
X180818700Y-79718184D01*
X180804783Y-80000512D01*
X179993336Y-80000512D01*
X179965259Y-79715445D01*
X179879340Y-79432209D01*
X179739816Y-79171178D01*
X179552048Y-78942382D01*
X179545854Y-78937298D01*
X181431903Y-78937298D01*
X182245000Y-79750395D01*
X183058097Y-78937298D01*
X182986514Y-78693329D01*
X182731004Y-78572429D01*
X182456816Y-78503700D01*
X182174488Y-78489783D01*
X181894870Y-78531213D01*
X181628708Y-78626397D01*
X181503486Y-78693329D01*
X181431903Y-78937298D01*
X179545854Y-78937298D01*
X179323252Y-78754614D01*
X179295911Y-78740000D01*
X179323252Y-78725386D01*
X179552048Y-78537618D01*
X179739816Y-78308822D01*
X179879340Y-78047791D01*
X179965259Y-77764555D01*
X179994270Y-77470000D01*
X179965259Y-77175445D01*
X179879340Y-76892209D01*
X179739816Y-76631178D01*
X179552048Y-76402382D01*
X179323252Y-76214614D01*
X179295911Y-76200000D01*
X179323252Y-76185386D01*
X179552048Y-75997618D01*
X179605899Y-75932000D01*
X181052141Y-75932000D01*
X181255658Y-76135517D01*
X181509853Y-76305364D01*
X181792298Y-76422357D01*
X182092141Y-76482000D01*
X182397859Y-76482000D01*
X182697702Y-76422357D01*
X182980147Y-76305364D01*
X183234342Y-76135517D01*
X183450517Y-75919342D01*
X183510656Y-75829336D01*
X187565009Y-75829336D01*
X187841255Y-76247370D01*
X188386292Y-76537964D01*
X188977549Y-76716643D01*
X189592303Y-76776541D01*
X190206930Y-76715355D01*
X190797810Y-76535436D01*
X191336745Y-76247370D01*
X191612991Y-75829336D01*
X189589000Y-73805345D01*
X187565009Y-75829336D01*
X183510656Y-75829336D01*
X183620364Y-75665147D01*
X183737357Y-75382702D01*
X183797000Y-75082859D01*
X183797000Y-74777141D01*
X183737357Y-74477298D01*
X183620364Y-74194853D01*
X183450517Y-73940658D01*
X183234342Y-73724483D01*
X183091506Y-73629043D01*
X186438199Y-73629043D01*
X186499385Y-74243670D01*
X186679304Y-74834550D01*
X186967370Y-75373485D01*
X187385404Y-75649731D01*
X189409395Y-73625740D01*
X189768605Y-73625740D01*
X191792596Y-75649731D01*
X192210630Y-75373485D01*
X192501224Y-74828448D01*
X192679903Y-74237191D01*
X192739801Y-73622437D01*
X192678615Y-73007810D01*
X192498696Y-72416930D01*
X192210630Y-71877995D01*
X191792596Y-71601749D01*
X189768605Y-73625740D01*
X189409395Y-73625740D01*
X187385404Y-71601749D01*
X186967370Y-71877995D01*
X186676776Y-72423032D01*
X186498097Y-73014289D01*
X186438199Y-73629043D01*
X183091506Y-73629043D01*
X182980147Y-73554636D01*
X182697702Y-73437643D01*
X182397859Y-73378000D01*
X182092141Y-73378000D01*
X181792298Y-73437643D01*
X181509853Y-73554636D01*
X181255658Y-73724483D01*
X181052141Y-73928000D01*
X179605899Y-73928000D01*
X179552048Y-73862382D01*
X179323252Y-73674614D01*
X179062221Y-73535090D01*
X178778985Y-73449171D01*
X178558244Y-73427430D01*
X178311756Y-73427430D01*
X178091015Y-73449171D01*
X177807779Y-73535090D01*
X177546748Y-73674614D01*
X177317952Y-73862382D01*
X177264101Y-73928000D01*
X176887000Y-73928000D01*
X176887000Y-73104925D01*
X176894872Y-73025000D01*
X176863458Y-72706052D01*
X176770425Y-72399362D01*
X176619346Y-72116714D01*
X176546775Y-72028286D01*
X176466978Y-71931052D01*
X176466975Y-71931049D01*
X176416029Y-71868971D01*
X176353951Y-71818025D01*
X175958070Y-71422144D01*
X187565009Y-71422144D01*
X189589000Y-73446135D01*
X191612991Y-71422144D01*
X191336745Y-71004110D01*
X190791708Y-70713516D01*
X190200451Y-70534837D01*
X189585697Y-70474939D01*
X188971070Y-70536125D01*
X188380190Y-70716044D01*
X187841255Y-71004110D01*
X187565009Y-71422144D01*
X175958070Y-71422144D01*
X174561979Y-70026054D01*
X174534032Y-69992000D01*
X195287995Y-69992000D01*
X195421033Y-70005044D01*
G37*
%TD.AperFunction*%
D27*
X98488026Y-126823952D02*
X98538971Y-126886029D01*
X98601049Y-126936975D01*
X98601052Y-126936978D01*
X98601057Y-126936982D01*
X102513000Y-130848926D01*
X102513000Y-130889924D01*
X102513001Y-130889934D01*
X102513001Y-133858000D01*
X97424000Y-133858000D01*
X97424000Y-125759925D01*
X98488026Y-126823952D01*
%TA.AperFunction,Conductor*%
D28*
G36*
X98488026Y-126823952D02*
G01*
X98538971Y-126886029D01*
X98601049Y-126936975D01*
X98601052Y-126936978D01*
X98601057Y-126936982D01*
X102513000Y-130848926D01*
X102513000Y-130889924D01*
X102513001Y-130889934D01*
X102513001Y-133858000D01*
X97424000Y-133858000D01*
X97424000Y-125759925D01*
X98488026Y-126823952D01*
G37*
%TD.AperFunction*%
D27*
X131723000Y-74333926D02*
X131723001Y-75261208D01*
X131694696Y-75269794D01*
X131520625Y-75362836D01*
X131368051Y-75488051D01*
X131336673Y-75526285D01*
X130944958Y-75918000D01*
X130383761Y-75918000D01*
X130155755Y-75940457D01*
X129863202Y-76029202D01*
X129593583Y-76173316D01*
X129357261Y-76367261D01*
X129192518Y-76568000D01*
X125085592Y-76568000D01*
X125081119Y-76522582D01*
X125038118Y-76380830D01*
X124968290Y-76250190D01*
X124874317Y-76135683D01*
X124759810Y-76041710D01*
X124629170Y-75971882D01*
X124487418Y-75928881D01*
X124340000Y-75914362D01*
X122040000Y-75914362D01*
X121892582Y-75928881D01*
X121750830Y-75971882D01*
X121620190Y-76041710D01*
X121505683Y-76135683D01*
X121411710Y-76250190D01*
X121341882Y-76380830D01*
X121298881Y-76522582D01*
X121284362Y-76670000D01*
X121284362Y-78270000D01*
X121298881Y-78417418D01*
X121341882Y-78559170D01*
X121411710Y-78689810D01*
X121505683Y-78804317D01*
X121620190Y-78898290D01*
X121750830Y-78968118D01*
X121892582Y-79011119D01*
X122040000Y-79025638D01*
X124340000Y-79025638D01*
X124487418Y-79011119D01*
X124629170Y-78968118D01*
X124759810Y-78898290D01*
X124874317Y-78804317D01*
X124968290Y-78689810D01*
X125038118Y-78559170D01*
X125081119Y-78417418D01*
X125085592Y-78372000D01*
X129192518Y-78372000D01*
X129357261Y-78572739D01*
X129593583Y-78766684D01*
X129863202Y-78910798D01*
X130155755Y-78999543D01*
X130383761Y-79022000D01*
X130944958Y-79022000D01*
X131336673Y-79413715D01*
X131368051Y-79451949D01*
X131520625Y-79577164D01*
X131694696Y-79670206D01*
X131723000Y-79678792D01*
X131723001Y-82881208D01*
X131694696Y-82889794D01*
X131520625Y-82982836D01*
X131368051Y-83108051D01*
X131336673Y-83146285D01*
X130944958Y-83538000D01*
X130383761Y-83538000D01*
X130155755Y-83560457D01*
X129863202Y-83649202D01*
X129593583Y-83793316D01*
X129357261Y-83987261D01*
X129192518Y-84188000D01*
X124807482Y-84188000D01*
X124642739Y-83987261D01*
X124406417Y-83793316D01*
X124136798Y-83649202D01*
X123844245Y-83560457D01*
X123616239Y-83538000D01*
X122763761Y-83538000D01*
X122535755Y-83560457D01*
X122243202Y-83649202D01*
X121973583Y-83793316D01*
X121737261Y-83987261D01*
X121543316Y-84223583D01*
X121399202Y-84493202D01*
X121310457Y-84785755D01*
X121280491Y-85090000D01*
X121310457Y-85394245D01*
X121399202Y-85686798D01*
X121543316Y-85956417D01*
X121737261Y-86192739D01*
X121973583Y-86386684D01*
X122243202Y-86530798D01*
X122535755Y-86619543D01*
X122763761Y-86642000D01*
X123616239Y-86642000D01*
X123844245Y-86619543D01*
X124136798Y-86530798D01*
X124406417Y-86386684D01*
X124642739Y-86192739D01*
X124807482Y-85992000D01*
X129192518Y-85992000D01*
X129357261Y-86192739D01*
X129593583Y-86386684D01*
X129863202Y-86530798D01*
X130155755Y-86619543D01*
X130383761Y-86642000D01*
X130944958Y-86642000D01*
X131336673Y-87033715D01*
X131368051Y-87071949D01*
X131520625Y-87197164D01*
X131694696Y-87290206D01*
X131826277Y-87330121D01*
X131883573Y-87347502D01*
X131903612Y-87349476D01*
X132030777Y-87362000D01*
X132030783Y-87362000D01*
X132070798Y-87365941D01*
X132193972Y-87516029D01*
X132441715Y-87719346D01*
X132724363Y-87870425D01*
X133031053Y-87963458D01*
X133350000Y-87994872D01*
X133668948Y-87963458D01*
X133975638Y-87870425D01*
X134258286Y-87719346D01*
X134506029Y-87516029D01*
X134709346Y-87268286D01*
X134860425Y-86985638D01*
X134953458Y-86678948D01*
X134977000Y-86439925D01*
X134977000Y-80922702D01*
X135711903Y-80922702D01*
X135783486Y-81166671D01*
X136038996Y-81287571D01*
X136313184Y-81356300D01*
X136595512Y-81370217D01*
X136875130Y-81328787D01*
X137141292Y-81233603D01*
X137266514Y-81166671D01*
X137338097Y-80922702D01*
X136525000Y-80109605D01*
X135711903Y-80922702D01*
X134977000Y-80922702D01*
X134977000Y-80000512D01*
X135084783Y-80000512D01*
X135126213Y-80280130D01*
X135221397Y-80546292D01*
X135288329Y-80671514D01*
X135532298Y-80743097D01*
X136345395Y-79930000D01*
X136704605Y-79930000D01*
X137517702Y-80743097D01*
X137761671Y-80671514D01*
X137882571Y-80416004D01*
X137951300Y-80141816D01*
X137965217Y-79859488D01*
X137923787Y-79579870D01*
X137828603Y-79313708D01*
X137761671Y-79188486D01*
X137517702Y-79116903D01*
X136704605Y-79930000D01*
X136345395Y-79930000D01*
X135532298Y-79116903D01*
X135288329Y-79188486D01*
X135167429Y-79443996D01*
X135098700Y-79718184D01*
X135084783Y-80000512D01*
X134977000Y-80000512D01*
X134977000Y-78937298D01*
X135711903Y-78937298D01*
X136525000Y-79750395D01*
X137338097Y-78937298D01*
X137266514Y-78693329D01*
X137011004Y-78572429D01*
X136736816Y-78503700D01*
X136454488Y-78489783D01*
X136174870Y-78531213D01*
X135908708Y-78626397D01*
X135783486Y-78693329D01*
X135711903Y-78937298D01*
X134977000Y-78937298D01*
X134977000Y-75932000D01*
X135332141Y-75932000D01*
X135535658Y-76135517D01*
X135789853Y-76305364D01*
X136072298Y-76422357D01*
X136372141Y-76482000D01*
X136677859Y-76482000D01*
X136977702Y-76422357D01*
X137260147Y-76305364D01*
X137514342Y-76135517D01*
X137717859Y-75932000D01*
X137745784Y-75932000D01*
X137795000Y-75936847D01*
X137844216Y-75932000D01*
X137844223Y-75932000D01*
X137991426Y-75917502D01*
X138180304Y-75860206D01*
X138354375Y-75767164D01*
X138506949Y-75641949D01*
X138538332Y-75603709D01*
X138798001Y-75344040D01*
X138798000Y-100920701D01*
X138793637Y-100965000D01*
X138798000Y-101009299D01*
X138798000Y-101009306D01*
X138811052Y-101141822D01*
X138862629Y-101311849D01*
X138946386Y-101468548D01*
X139059104Y-101605896D01*
X139093523Y-101634143D01*
X140073494Y-102614114D01*
X140053000Y-102717141D01*
X140053000Y-103022859D01*
X140112643Y-103322702D01*
X140229636Y-103605147D01*
X140399483Y-103859342D01*
X140615658Y-104075517D01*
X140703001Y-104133877D01*
X140703000Y-104146123D01*
X140615658Y-104204483D01*
X140399483Y-104420658D01*
X140229636Y-104674853D01*
X140112643Y-104957298D01*
X140053000Y-105257141D01*
X140053000Y-105562859D01*
X140112643Y-105862702D01*
X140229636Y-106145147D01*
X140399483Y-106399342D01*
X140615658Y-106615517D01*
X140712164Y-106680000D01*
X140615658Y-106744483D01*
X140399483Y-106960658D01*
X140229636Y-107214853D01*
X140112643Y-107497298D01*
X140053000Y-107797141D01*
X140053000Y-108102859D01*
X140112643Y-108402702D01*
X140229636Y-108685147D01*
X140399483Y-108939342D01*
X140615658Y-109155517D01*
X140712164Y-109220000D01*
X140615658Y-109284483D01*
X140399483Y-109500658D01*
X140229636Y-109754853D01*
X140112643Y-110037298D01*
X140053000Y-110337141D01*
X140053000Y-110642859D01*
X140112643Y-110942702D01*
X140229636Y-111225147D01*
X140399483Y-111479342D01*
X140615658Y-111695517D01*
X140712164Y-111760000D01*
X140615658Y-111824483D01*
X140399483Y-112040658D01*
X140229636Y-112294853D01*
X140112643Y-112577298D01*
X140053000Y-112877141D01*
X140053000Y-113182859D01*
X140112643Y-113482702D01*
X140229636Y-113765147D01*
X140399483Y-114019342D01*
X140615658Y-114235517D01*
X140712164Y-114300000D01*
X140615658Y-114364483D01*
X140399483Y-114580658D01*
X140229636Y-114834853D01*
X140112643Y-115117298D01*
X140053000Y-115417141D01*
X140053000Y-115722859D01*
X140112643Y-116022702D01*
X140229636Y-116305147D01*
X140399483Y-116559342D01*
X140615658Y-116775517D01*
X140712164Y-116840000D01*
X140615658Y-116904483D01*
X140399483Y-117120658D01*
X140229636Y-117374853D01*
X140112643Y-117657298D01*
X140053000Y-117957141D01*
X140053000Y-118262859D01*
X140112643Y-118562702D01*
X140229636Y-118845147D01*
X140399483Y-119099342D01*
X140615658Y-119315517D01*
X140822762Y-119453899D01*
X140749869Y-119497615D01*
X140541481Y-119686586D01*
X140373963Y-119912580D01*
X140253754Y-120166913D01*
X140213096Y-120300961D01*
X140335085Y-120523000D01*
X141478000Y-120523000D01*
X141478000Y-120503000D01*
X141732000Y-120503000D01*
X141732000Y-120523000D01*
X142874915Y-120523000D01*
X142996904Y-120300961D01*
X142956246Y-120166913D01*
X142897948Y-120043568D01*
X144892379Y-122038000D01*
X144666538Y-122038000D01*
X144443974Y-122082271D01*
X144234323Y-122169111D01*
X144045643Y-122295183D01*
X143885183Y-122455643D01*
X143759111Y-122644323D01*
X143672271Y-122853974D01*
X143628000Y-123076538D01*
X143628000Y-123303462D01*
X143672271Y-123526026D01*
X143759111Y-123735677D01*
X143878001Y-123913608D01*
X143878000Y-131071380D01*
X141633518Y-133315862D01*
X141599105Y-133344104D01*
X141486387Y-133481451D01*
X141443655Y-133561398D01*
X141402630Y-133638150D01*
X141351052Y-133808178D01*
X141346145Y-133858000D01*
X125362000Y-133858000D01*
X125362000Y-126409299D01*
X125366363Y-126364999D01*
X125362000Y-126320700D01*
X125362000Y-126320693D01*
X125348948Y-126188177D01*
X125297371Y-126018150D01*
X125213614Y-125861451D01*
X125100896Y-125724104D01*
X125066477Y-125695857D01*
X124767783Y-125397163D01*
X124927286Y-125365436D01*
X125218831Y-125244674D01*
X125481215Y-125069354D01*
X125704354Y-124846215D01*
X125877557Y-124587000D01*
X126098000Y-124587000D01*
X126098000Y-125006393D01*
X125979111Y-125184323D01*
X125892271Y-125393974D01*
X125848000Y-125616538D01*
X125848000Y-125843462D01*
X125892271Y-126066026D01*
X125979111Y-126275677D01*
X126105183Y-126464357D01*
X126265643Y-126624817D01*
X126454323Y-126750889D01*
X126663974Y-126837729D01*
X126886538Y-126882000D01*
X127113462Y-126882000D01*
X127119127Y-126880873D01*
X127118000Y-126886538D01*
X127118000Y-127113462D01*
X127162271Y-127336026D01*
X127249111Y-127545677D01*
X127375183Y-127734357D01*
X127535643Y-127894817D01*
X127724323Y-128020889D01*
X127933974Y-128107729D01*
X128156538Y-128152000D01*
X128383462Y-128152000D01*
X128389127Y-128150873D01*
X128388000Y-128156538D01*
X128388000Y-128383462D01*
X128432271Y-128606026D01*
X128519111Y-128815677D01*
X128645183Y-129004357D01*
X128805643Y-129164817D01*
X128994323Y-129290889D01*
X129203974Y-129377729D01*
X129426538Y-129422000D01*
X129653462Y-129422000D01*
X129876026Y-129377729D01*
X130085677Y-129290889D01*
X130274357Y-129164817D01*
X130434817Y-129004357D01*
X130560889Y-128815677D01*
X130647729Y-128606026D01*
X130692000Y-128383462D01*
X130692000Y-128156538D01*
X130647729Y-127933974D01*
X130560889Y-127724323D01*
X130442000Y-127546393D01*
X130442000Y-123539039D01*
X140213096Y-123539039D01*
X140253754Y-123673087D01*
X140373963Y-123927420D01*
X140541481Y-124153414D01*
X140749869Y-124342385D01*
X140991119Y-124487070D01*
X141255960Y-124581909D01*
X141478000Y-124460624D01*
X141478000Y-123317000D01*
X141732000Y-123317000D01*
X141732000Y-124460624D01*
X141954040Y-124581909D01*
X142218881Y-124487070D01*
X142460131Y-124342385D01*
X142668519Y-124153414D01*
X142836037Y-123927420D01*
X142956246Y-123673087D01*
X142996904Y-123539039D01*
X142874915Y-123317000D01*
X141732000Y-123317000D01*
X141478000Y-123317000D01*
X140335085Y-123317000D01*
X140213096Y-123539039D01*
X130442000Y-123539039D01*
X130442000Y-120999039D01*
X140213096Y-120999039D01*
X140253754Y-121133087D01*
X140373963Y-121387420D01*
X140541481Y-121613414D01*
X140749869Y-121802385D01*
X140945982Y-121920000D01*
X140749869Y-122037615D01*
X140541481Y-122226586D01*
X140373963Y-122452580D01*
X140253754Y-122706913D01*
X140213096Y-122840961D01*
X140335085Y-123063000D01*
X141478000Y-123063000D01*
X141478000Y-120777000D01*
X141732000Y-120777000D01*
X141732000Y-123063000D01*
X142874915Y-123063000D01*
X142996904Y-122840961D01*
X142956246Y-122706913D01*
X142836037Y-122452580D01*
X142668519Y-122226586D01*
X142460131Y-122037615D01*
X142264018Y-121920000D01*
X142460131Y-121802385D01*
X142668519Y-121613414D01*
X142836037Y-121387420D01*
X142956246Y-121133087D01*
X142996904Y-120999039D01*
X142874915Y-120777000D01*
X141732000Y-120777000D01*
X141478000Y-120777000D01*
X140335085Y-120777000D01*
X140213096Y-120999039D01*
X130442000Y-120999039D01*
X130442000Y-114124485D01*
X130473974Y-114137729D01*
X130696538Y-114182000D01*
X130923462Y-114182000D01*
X131146026Y-114137729D01*
X131355677Y-114050889D01*
X131544357Y-113924817D01*
X131704817Y-113764357D01*
X131830889Y-113575677D01*
X131917729Y-113366026D01*
X131962000Y-113143462D01*
X131962000Y-112916538D01*
X131917729Y-112693974D01*
X131830889Y-112484323D01*
X131712000Y-112306393D01*
X131712000Y-94164387D01*
X131756798Y-94150798D01*
X132026417Y-94006684D01*
X132262739Y-93812739D01*
X132456684Y-93576417D01*
X132600798Y-93306798D01*
X132689543Y-93014245D01*
X132719509Y-92710000D01*
X132689543Y-92405755D01*
X132600798Y-92113202D01*
X132456684Y-91843583D01*
X132262739Y-91607261D01*
X132026417Y-91413316D01*
X131756798Y-91269202D01*
X131464245Y-91180457D01*
X131236239Y-91158000D01*
X130383761Y-91158000D01*
X130155755Y-91180457D01*
X129863202Y-91269202D01*
X129593583Y-91413316D01*
X129357261Y-91607261D01*
X129163316Y-91843583D01*
X129019202Y-92113202D01*
X128930457Y-92405755D01*
X128900491Y-92710000D01*
X128930457Y-93014245D01*
X129019202Y-93306798D01*
X129163316Y-93576417D01*
X129357261Y-93812739D01*
X129593583Y-94006684D01*
X129863202Y-94150798D01*
X129908000Y-94164387D01*
X129908001Y-110665515D01*
X129876026Y-110652271D01*
X129653462Y-110608000D01*
X129426538Y-110608000D01*
X129203974Y-110652271D01*
X129172000Y-110665515D01*
X129172000Y-109943607D01*
X129290889Y-109765677D01*
X129377729Y-109556026D01*
X129422000Y-109333462D01*
X129422000Y-109106538D01*
X129377729Y-108883974D01*
X129290889Y-108674323D01*
X129164817Y-108485643D01*
X129004357Y-108325183D01*
X128815677Y-108199111D01*
X128606026Y-108112271D01*
X128383462Y-108068000D01*
X128156538Y-108068000D01*
X127933974Y-108112271D01*
X127902000Y-108125515D01*
X127902000Y-107403607D01*
X128020889Y-107225677D01*
X128107729Y-107016026D01*
X128152000Y-106793462D01*
X128152000Y-106566538D01*
X128107729Y-106343974D01*
X128020889Y-106134323D01*
X127894817Y-105945643D01*
X127734357Y-105785183D01*
X127545677Y-105659111D01*
X127336026Y-105572271D01*
X127113462Y-105528000D01*
X126886538Y-105528000D01*
X126663974Y-105572271D01*
X126454323Y-105659111D01*
X126265643Y-105785183D01*
X126105183Y-105945643D01*
X125979111Y-106134323D01*
X125892271Y-106343974D01*
X125848000Y-106566538D01*
X125848000Y-106793462D01*
X125892271Y-107016026D01*
X125964446Y-107190272D01*
X125829357Y-107055183D01*
X125640677Y-106929111D01*
X125431026Y-106842271D01*
X125221143Y-106800523D01*
X120282000Y-101861380D01*
X120282000Y-93059039D01*
X121448096Y-93059039D01*
X121465633Y-93141818D01*
X121576285Y-93401646D01*
X121735500Y-93634895D01*
X121937161Y-93832601D01*
X122173517Y-93987166D01*
X122435486Y-94092650D01*
X122713000Y-94145000D01*
X123063000Y-94145000D01*
X123063000Y-92837000D01*
X123317000Y-92837000D01*
X123317000Y-94145000D01*
X123667000Y-94145000D01*
X123944514Y-94092650D01*
X124206483Y-93987166D01*
X124442839Y-93832601D01*
X124644500Y-93634895D01*
X124803715Y-93401646D01*
X124914367Y-93141818D01*
X124931904Y-93059039D01*
X124809915Y-92837000D01*
X123317000Y-92837000D01*
X123063000Y-92837000D01*
X121570085Y-92837000D01*
X121448096Y-93059039D01*
X120282000Y-93059039D01*
X120282000Y-92360961D01*
X121448096Y-92360961D01*
X121570085Y-92583000D01*
X123063000Y-92583000D01*
X123063000Y-91275000D01*
X123317000Y-91275000D01*
X123317000Y-92583000D01*
X124809915Y-92583000D01*
X124931904Y-92360961D01*
X124914367Y-92278182D01*
X124803715Y-92018354D01*
X124644500Y-91785105D01*
X124442839Y-91587399D01*
X124206483Y-91432834D01*
X123944514Y-91327350D01*
X123667000Y-91275000D01*
X123317000Y-91275000D01*
X123063000Y-91275000D01*
X122713000Y-91275000D01*
X122435486Y-91327350D01*
X122173517Y-91432834D01*
X121937161Y-91587399D01*
X121735500Y-91785105D01*
X121576285Y-92018354D01*
X121465633Y-92278182D01*
X121448096Y-92360961D01*
X120282000Y-92360961D01*
X120282000Y-87039307D01*
X120286364Y-86995000D01*
X120268948Y-86818177D01*
X120217371Y-86648149D01*
X120133614Y-86491451D01*
X120049140Y-86388519D01*
X120049138Y-86388517D01*
X120020896Y-86354104D01*
X119986484Y-86325863D01*
X114583323Y-80922702D01*
X115391903Y-80922702D01*
X115463486Y-81166671D01*
X115718996Y-81287571D01*
X115993184Y-81356300D01*
X116275512Y-81370217D01*
X116555130Y-81328787D01*
X116821292Y-81233603D01*
X116946514Y-81166671D01*
X117018097Y-80922702D01*
X116205000Y-80109605D01*
X115391903Y-80922702D01*
X114583323Y-80922702D01*
X114567000Y-80906380D01*
X114567000Y-80000512D01*
X114764783Y-80000512D01*
X114806213Y-80280130D01*
X114901397Y-80546292D01*
X114968329Y-80671514D01*
X115212298Y-80743097D01*
X116025395Y-79930000D01*
X116384605Y-79930000D01*
X117197702Y-80743097D01*
X117441671Y-80671514D01*
X117562571Y-80416004D01*
X117631300Y-80141816D01*
X117645217Y-79859488D01*
X117603787Y-79579870D01*
X117508603Y-79313708D01*
X117441671Y-79188486D01*
X117197702Y-79116903D01*
X116384605Y-79930000D01*
X116025395Y-79930000D01*
X115212298Y-79116903D01*
X114968329Y-79188486D01*
X114847429Y-79443996D01*
X114778700Y-79718184D01*
X114764783Y-80000512D01*
X114567000Y-80000512D01*
X114567000Y-78937298D01*
X115391903Y-78937298D01*
X116205000Y-79750395D01*
X117018097Y-78937298D01*
X116946514Y-78693329D01*
X116691004Y-78572429D01*
X116416816Y-78503700D01*
X116134488Y-78489783D01*
X115854870Y-78531213D01*
X115588708Y-78626397D01*
X115463486Y-78693329D01*
X115391903Y-78937298D01*
X114567000Y-78937298D01*
X114567000Y-78784299D01*
X114571363Y-78739999D01*
X114567000Y-78695700D01*
X114567000Y-78695693D01*
X114553948Y-78563177D01*
X114502371Y-78393150D01*
X114418614Y-78236451D01*
X114305896Y-78099104D01*
X114271478Y-78070858D01*
X113926506Y-77725886D01*
X113947000Y-77622859D01*
X113947000Y-77317141D01*
X113887357Y-77017298D01*
X113770364Y-76734853D01*
X113600517Y-76480658D01*
X113384342Y-76264483D01*
X113287836Y-76200000D01*
X113384342Y-76135517D01*
X113587859Y-75932000D01*
X114250777Y-75932000D01*
X114300000Y-75936848D01*
X114349223Y-75932000D01*
X115012141Y-75932000D01*
X115215658Y-76135517D01*
X115469853Y-76305364D01*
X115752298Y-76422357D01*
X116052141Y-76482000D01*
X116357859Y-76482000D01*
X116657702Y-76422357D01*
X116940147Y-76305364D01*
X117194342Y-76135517D01*
X117397859Y-75932000D01*
X117425784Y-75932000D01*
X117475000Y-75936847D01*
X117524216Y-75932000D01*
X117524223Y-75932000D01*
X117671426Y-75917502D01*
X117860304Y-75860206D01*
X118034375Y-75767164D01*
X118186949Y-75641949D01*
X118218332Y-75603709D01*
X118783709Y-75038332D01*
X118821949Y-75006949D01*
X118947164Y-74854375D01*
X119040206Y-74680304D01*
X119054011Y-74634794D01*
X119097502Y-74491427D01*
X119116848Y-74295000D01*
X119112000Y-74245777D01*
X119112000Y-74017000D01*
X131406075Y-74017000D01*
X131723000Y-74333926D01*
%TA.AperFunction,Conductor*%
D28*
G36*
X131723000Y-74333926D02*
G01*
X131723001Y-75261208D01*
X131694696Y-75269794D01*
X131520625Y-75362836D01*
X131368051Y-75488051D01*
X131336673Y-75526285D01*
X130944958Y-75918000D01*
X130383761Y-75918000D01*
X130155755Y-75940457D01*
X129863202Y-76029202D01*
X129593583Y-76173316D01*
X129357261Y-76367261D01*
X129192518Y-76568000D01*
X125085592Y-76568000D01*
X125081119Y-76522582D01*
X125038118Y-76380830D01*
X124968290Y-76250190D01*
X124874317Y-76135683D01*
X124759810Y-76041710D01*
X124629170Y-75971882D01*
X124487418Y-75928881D01*
X124340000Y-75914362D01*
X122040000Y-75914362D01*
X121892582Y-75928881D01*
X121750830Y-75971882D01*
X121620190Y-76041710D01*
X121505683Y-76135683D01*
X121411710Y-76250190D01*
X121341882Y-76380830D01*
X121298881Y-76522582D01*
X121284362Y-76670000D01*
X121284362Y-78270000D01*
X121298881Y-78417418D01*
X121341882Y-78559170D01*
X121411710Y-78689810D01*
X121505683Y-78804317D01*
X121620190Y-78898290D01*
X121750830Y-78968118D01*
X121892582Y-79011119D01*
X122040000Y-79025638D01*
X124340000Y-79025638D01*
X124487418Y-79011119D01*
X124629170Y-78968118D01*
X124759810Y-78898290D01*
X124874317Y-78804317D01*
X124968290Y-78689810D01*
X125038118Y-78559170D01*
X125081119Y-78417418D01*
X125085592Y-78372000D01*
X129192518Y-78372000D01*
X129357261Y-78572739D01*
X129593583Y-78766684D01*
X129863202Y-78910798D01*
X130155755Y-78999543D01*
X130383761Y-79022000D01*
X130944958Y-79022000D01*
X131336673Y-79413715D01*
X131368051Y-79451949D01*
X131520625Y-79577164D01*
X131694696Y-79670206D01*
X131723000Y-79678792D01*
X131723001Y-82881208D01*
X131694696Y-82889794D01*
X131520625Y-82982836D01*
X131368051Y-83108051D01*
X131336673Y-83146285D01*
X130944958Y-83538000D01*
X130383761Y-83538000D01*
X130155755Y-83560457D01*
X129863202Y-83649202D01*
X129593583Y-83793316D01*
X129357261Y-83987261D01*
X129192518Y-84188000D01*
X124807482Y-84188000D01*
X124642739Y-83987261D01*
X124406417Y-83793316D01*
X124136798Y-83649202D01*
X123844245Y-83560457D01*
X123616239Y-83538000D01*
X122763761Y-83538000D01*
X122535755Y-83560457D01*
X122243202Y-83649202D01*
X121973583Y-83793316D01*
X121737261Y-83987261D01*
X121543316Y-84223583D01*
X121399202Y-84493202D01*
X121310457Y-84785755D01*
X121280491Y-85090000D01*
X121310457Y-85394245D01*
X121399202Y-85686798D01*
X121543316Y-85956417D01*
X121737261Y-86192739D01*
X121973583Y-86386684D01*
X122243202Y-86530798D01*
X122535755Y-86619543D01*
X122763761Y-86642000D01*
X123616239Y-86642000D01*
X123844245Y-86619543D01*
X124136798Y-86530798D01*
X124406417Y-86386684D01*
X124642739Y-86192739D01*
X124807482Y-85992000D01*
X129192518Y-85992000D01*
X129357261Y-86192739D01*
X129593583Y-86386684D01*
X129863202Y-86530798D01*
X130155755Y-86619543D01*
X130383761Y-86642000D01*
X130944958Y-86642000D01*
X131336673Y-87033715D01*
X131368051Y-87071949D01*
X131520625Y-87197164D01*
X131694696Y-87290206D01*
X131826277Y-87330121D01*
X131883573Y-87347502D01*
X131903612Y-87349476D01*
X132030777Y-87362000D01*
X132030783Y-87362000D01*
X132070798Y-87365941D01*
X132193972Y-87516029D01*
X132441715Y-87719346D01*
X132724363Y-87870425D01*
X133031053Y-87963458D01*
X133350000Y-87994872D01*
X133668948Y-87963458D01*
X133975638Y-87870425D01*
X134258286Y-87719346D01*
X134506029Y-87516029D01*
X134709346Y-87268286D01*
X134860425Y-86985638D01*
X134953458Y-86678948D01*
X134977000Y-86439925D01*
X134977000Y-80922702D01*
X135711903Y-80922702D01*
X135783486Y-81166671D01*
X136038996Y-81287571D01*
X136313184Y-81356300D01*
X136595512Y-81370217D01*
X136875130Y-81328787D01*
X137141292Y-81233603D01*
X137266514Y-81166671D01*
X137338097Y-80922702D01*
X136525000Y-80109605D01*
X135711903Y-80922702D01*
X134977000Y-80922702D01*
X134977000Y-80000512D01*
X135084783Y-80000512D01*
X135126213Y-80280130D01*
X135221397Y-80546292D01*
X135288329Y-80671514D01*
X135532298Y-80743097D01*
X136345395Y-79930000D01*
X136704605Y-79930000D01*
X137517702Y-80743097D01*
X137761671Y-80671514D01*
X137882571Y-80416004D01*
X137951300Y-80141816D01*
X137965217Y-79859488D01*
X137923787Y-79579870D01*
X137828603Y-79313708D01*
X137761671Y-79188486D01*
X137517702Y-79116903D01*
X136704605Y-79930000D01*
X136345395Y-79930000D01*
X135532298Y-79116903D01*
X135288329Y-79188486D01*
X135167429Y-79443996D01*
X135098700Y-79718184D01*
X135084783Y-80000512D01*
X134977000Y-80000512D01*
X134977000Y-78937298D01*
X135711903Y-78937298D01*
X136525000Y-79750395D01*
X137338097Y-78937298D01*
X137266514Y-78693329D01*
X137011004Y-78572429D01*
X136736816Y-78503700D01*
X136454488Y-78489783D01*
X136174870Y-78531213D01*
X135908708Y-78626397D01*
X135783486Y-78693329D01*
X135711903Y-78937298D01*
X134977000Y-78937298D01*
X134977000Y-75932000D01*
X135332141Y-75932000D01*
X135535658Y-76135517D01*
X135789853Y-76305364D01*
X136072298Y-76422357D01*
X136372141Y-76482000D01*
X136677859Y-76482000D01*
X136977702Y-76422357D01*
X137260147Y-76305364D01*
X137514342Y-76135517D01*
X137717859Y-75932000D01*
X137745784Y-75932000D01*
X137795000Y-75936847D01*
X137844216Y-75932000D01*
X137844223Y-75932000D01*
X137991426Y-75917502D01*
X138180304Y-75860206D01*
X138354375Y-75767164D01*
X138506949Y-75641949D01*
X138538332Y-75603709D01*
X138798001Y-75344040D01*
X138798000Y-100920701D01*
X138793637Y-100965000D01*
X138798000Y-101009299D01*
X138798000Y-101009306D01*
X138811052Y-101141822D01*
X138862629Y-101311849D01*
X138946386Y-101468548D01*
X139059104Y-101605896D01*
X139093523Y-101634143D01*
X140073494Y-102614114D01*
X140053000Y-102717141D01*
X140053000Y-103022859D01*
X140112643Y-103322702D01*
X140229636Y-103605147D01*
X140399483Y-103859342D01*
X140615658Y-104075517D01*
X140703001Y-104133877D01*
X140703000Y-104146123D01*
X140615658Y-104204483D01*
X140399483Y-104420658D01*
X140229636Y-104674853D01*
X140112643Y-104957298D01*
X140053000Y-105257141D01*
X140053000Y-105562859D01*
X140112643Y-105862702D01*
X140229636Y-106145147D01*
X140399483Y-106399342D01*
X140615658Y-106615517D01*
X140712164Y-106680000D01*
X140615658Y-106744483D01*
X140399483Y-106960658D01*
X140229636Y-107214853D01*
X140112643Y-107497298D01*
X140053000Y-107797141D01*
X140053000Y-108102859D01*
X140112643Y-108402702D01*
X140229636Y-108685147D01*
X140399483Y-108939342D01*
X140615658Y-109155517D01*
X140712164Y-109220000D01*
X140615658Y-109284483D01*
X140399483Y-109500658D01*
X140229636Y-109754853D01*
X140112643Y-110037298D01*
X140053000Y-110337141D01*
X140053000Y-110642859D01*
X140112643Y-110942702D01*
X140229636Y-111225147D01*
X140399483Y-111479342D01*
X140615658Y-111695517D01*
X140712164Y-111760000D01*
X140615658Y-111824483D01*
X140399483Y-112040658D01*
X140229636Y-112294853D01*
X140112643Y-112577298D01*
X140053000Y-112877141D01*
X140053000Y-113182859D01*
X140112643Y-113482702D01*
X140229636Y-113765147D01*
X140399483Y-114019342D01*
X140615658Y-114235517D01*
X140712164Y-114300000D01*
X140615658Y-114364483D01*
X140399483Y-114580658D01*
X140229636Y-114834853D01*
X140112643Y-115117298D01*
X140053000Y-115417141D01*
X140053000Y-115722859D01*
X140112643Y-116022702D01*
X140229636Y-116305147D01*
X140399483Y-116559342D01*
X140615658Y-116775517D01*
X140712164Y-116840000D01*
X140615658Y-116904483D01*
X140399483Y-117120658D01*
X140229636Y-117374853D01*
X140112643Y-117657298D01*
X140053000Y-117957141D01*
X140053000Y-118262859D01*
X140112643Y-118562702D01*
X140229636Y-118845147D01*
X140399483Y-119099342D01*
X140615658Y-119315517D01*
X140822762Y-119453899D01*
X140749869Y-119497615D01*
X140541481Y-119686586D01*
X140373963Y-119912580D01*
X140253754Y-120166913D01*
X140213096Y-120300961D01*
X140335085Y-120523000D01*
X141478000Y-120523000D01*
X141478000Y-120503000D01*
X141732000Y-120503000D01*
X141732000Y-120523000D01*
X142874915Y-120523000D01*
X142996904Y-120300961D01*
X142956246Y-120166913D01*
X142897948Y-120043568D01*
X144892379Y-122038000D01*
X144666538Y-122038000D01*
X144443974Y-122082271D01*
X144234323Y-122169111D01*
X144045643Y-122295183D01*
X143885183Y-122455643D01*
X143759111Y-122644323D01*
X143672271Y-122853974D01*
X143628000Y-123076538D01*
X143628000Y-123303462D01*
X143672271Y-123526026D01*
X143759111Y-123735677D01*
X143878001Y-123913608D01*
X143878000Y-131071380D01*
X141633518Y-133315862D01*
X141599105Y-133344104D01*
X141486387Y-133481451D01*
X141443655Y-133561398D01*
X141402630Y-133638150D01*
X141351052Y-133808178D01*
X141346145Y-133858000D01*
X125362000Y-133858000D01*
X125362000Y-126409299D01*
X125366363Y-126364999D01*
X125362000Y-126320700D01*
X125362000Y-126320693D01*
X125348948Y-126188177D01*
X125297371Y-126018150D01*
X125213614Y-125861451D01*
X125100896Y-125724104D01*
X125066477Y-125695857D01*
X124767783Y-125397163D01*
X124927286Y-125365436D01*
X125218831Y-125244674D01*
X125481215Y-125069354D01*
X125704354Y-124846215D01*
X125877557Y-124587000D01*
X126098000Y-124587000D01*
X126098000Y-125006393D01*
X125979111Y-125184323D01*
X125892271Y-125393974D01*
X125848000Y-125616538D01*
X125848000Y-125843462D01*
X125892271Y-126066026D01*
X125979111Y-126275677D01*
X126105183Y-126464357D01*
X126265643Y-126624817D01*
X126454323Y-126750889D01*
X126663974Y-126837729D01*
X126886538Y-126882000D01*
X127113462Y-126882000D01*
X127119127Y-126880873D01*
X127118000Y-126886538D01*
X127118000Y-127113462D01*
X127162271Y-127336026D01*
X127249111Y-127545677D01*
X127375183Y-127734357D01*
X127535643Y-127894817D01*
X127724323Y-128020889D01*
X127933974Y-128107729D01*
X128156538Y-128152000D01*
X128383462Y-128152000D01*
X128389127Y-128150873D01*
X128388000Y-128156538D01*
X128388000Y-128383462D01*
X128432271Y-128606026D01*
X128519111Y-128815677D01*
X128645183Y-129004357D01*
X128805643Y-129164817D01*
X128994323Y-129290889D01*
X129203974Y-129377729D01*
X129426538Y-129422000D01*
X129653462Y-129422000D01*
X129876026Y-129377729D01*
X130085677Y-129290889D01*
X130274357Y-129164817D01*
X130434817Y-129004357D01*
X130560889Y-128815677D01*
X130647729Y-128606026D01*
X130692000Y-128383462D01*
X130692000Y-128156538D01*
X130647729Y-127933974D01*
X130560889Y-127724323D01*
X130442000Y-127546393D01*
X130442000Y-123539039D01*
X140213096Y-123539039D01*
X140253754Y-123673087D01*
X140373963Y-123927420D01*
X140541481Y-124153414D01*
X140749869Y-124342385D01*
X140991119Y-124487070D01*
X141255960Y-124581909D01*
X141478000Y-124460624D01*
X141478000Y-123317000D01*
X141732000Y-123317000D01*
X141732000Y-124460624D01*
X141954040Y-124581909D01*
X142218881Y-124487070D01*
X142460131Y-124342385D01*
X142668519Y-124153414D01*
X142836037Y-123927420D01*
X142956246Y-123673087D01*
X142996904Y-123539039D01*
X142874915Y-123317000D01*
X141732000Y-123317000D01*
X141478000Y-123317000D01*
X140335085Y-123317000D01*
X140213096Y-123539039D01*
X130442000Y-123539039D01*
X130442000Y-120999039D01*
X140213096Y-120999039D01*
X140253754Y-121133087D01*
X140373963Y-121387420D01*
X140541481Y-121613414D01*
X140749869Y-121802385D01*
X140945982Y-121920000D01*
X140749869Y-122037615D01*
X140541481Y-122226586D01*
X140373963Y-122452580D01*
X140253754Y-122706913D01*
X140213096Y-122840961D01*
X140335085Y-123063000D01*
X141478000Y-123063000D01*
X141478000Y-120777000D01*
X141732000Y-120777000D01*
X141732000Y-123063000D01*
X142874915Y-123063000D01*
X142996904Y-122840961D01*
X142956246Y-122706913D01*
X142836037Y-122452580D01*
X142668519Y-122226586D01*
X142460131Y-122037615D01*
X142264018Y-121920000D01*
X142460131Y-121802385D01*
X142668519Y-121613414D01*
X142836037Y-121387420D01*
X142956246Y-121133087D01*
X142996904Y-120999039D01*
X142874915Y-120777000D01*
X141732000Y-120777000D01*
X141478000Y-120777000D01*
X140335085Y-120777000D01*
X140213096Y-120999039D01*
X130442000Y-120999039D01*
X130442000Y-114124485D01*
X130473974Y-114137729D01*
X130696538Y-114182000D01*
X130923462Y-114182000D01*
X131146026Y-114137729D01*
X131355677Y-114050889D01*
X131544357Y-113924817D01*
X131704817Y-113764357D01*
X131830889Y-113575677D01*
X131917729Y-113366026D01*
X131962000Y-113143462D01*
X131962000Y-112916538D01*
X131917729Y-112693974D01*
X131830889Y-112484323D01*
X131712000Y-112306393D01*
X131712000Y-94164387D01*
X131756798Y-94150798D01*
X132026417Y-94006684D01*
X132262739Y-93812739D01*
X132456684Y-93576417D01*
X132600798Y-93306798D01*
X132689543Y-93014245D01*
X132719509Y-92710000D01*
X132689543Y-92405755D01*
X132600798Y-92113202D01*
X132456684Y-91843583D01*
X132262739Y-91607261D01*
X132026417Y-91413316D01*
X131756798Y-91269202D01*
X131464245Y-91180457D01*
X131236239Y-91158000D01*
X130383761Y-91158000D01*
X130155755Y-91180457D01*
X129863202Y-91269202D01*
X129593583Y-91413316D01*
X129357261Y-91607261D01*
X129163316Y-91843583D01*
X129019202Y-92113202D01*
X128930457Y-92405755D01*
X128900491Y-92710000D01*
X128930457Y-93014245D01*
X129019202Y-93306798D01*
X129163316Y-93576417D01*
X129357261Y-93812739D01*
X129593583Y-94006684D01*
X129863202Y-94150798D01*
X129908000Y-94164387D01*
X129908001Y-110665515D01*
X129876026Y-110652271D01*
X129653462Y-110608000D01*
X129426538Y-110608000D01*
X129203974Y-110652271D01*
X129172000Y-110665515D01*
X129172000Y-109943607D01*
X129290889Y-109765677D01*
X129377729Y-109556026D01*
X129422000Y-109333462D01*
X129422000Y-109106538D01*
X129377729Y-108883974D01*
X129290889Y-108674323D01*
X129164817Y-108485643D01*
X129004357Y-108325183D01*
X128815677Y-108199111D01*
X128606026Y-108112271D01*
X128383462Y-108068000D01*
X128156538Y-108068000D01*
X127933974Y-108112271D01*
X127902000Y-108125515D01*
X127902000Y-107403607D01*
X128020889Y-107225677D01*
X128107729Y-107016026D01*
X128152000Y-106793462D01*
X128152000Y-106566538D01*
X128107729Y-106343974D01*
X128020889Y-106134323D01*
X127894817Y-105945643D01*
X127734357Y-105785183D01*
X127545677Y-105659111D01*
X127336026Y-105572271D01*
X127113462Y-105528000D01*
X126886538Y-105528000D01*
X126663974Y-105572271D01*
X126454323Y-105659111D01*
X126265643Y-105785183D01*
X126105183Y-105945643D01*
X125979111Y-106134323D01*
X125892271Y-106343974D01*
X125848000Y-106566538D01*
X125848000Y-106793462D01*
X125892271Y-107016026D01*
X125964446Y-107190272D01*
X125829357Y-107055183D01*
X125640677Y-106929111D01*
X125431026Y-106842271D01*
X125221143Y-106800523D01*
X120282000Y-101861380D01*
X120282000Y-93059039D01*
X121448096Y-93059039D01*
X121465633Y-93141818D01*
X121576285Y-93401646D01*
X121735500Y-93634895D01*
X121937161Y-93832601D01*
X122173517Y-93987166D01*
X122435486Y-94092650D01*
X122713000Y-94145000D01*
X123063000Y-94145000D01*
X123063000Y-92837000D01*
X123317000Y-92837000D01*
X123317000Y-94145000D01*
X123667000Y-94145000D01*
X123944514Y-94092650D01*
X124206483Y-93987166D01*
X124442839Y-93832601D01*
X124644500Y-93634895D01*
X124803715Y-93401646D01*
X124914367Y-93141818D01*
X124931904Y-93059039D01*
X124809915Y-92837000D01*
X123317000Y-92837000D01*
X123063000Y-92837000D01*
X121570085Y-92837000D01*
X121448096Y-93059039D01*
X120282000Y-93059039D01*
X120282000Y-92360961D01*
X121448096Y-92360961D01*
X121570085Y-92583000D01*
X123063000Y-92583000D01*
X123063000Y-91275000D01*
X123317000Y-91275000D01*
X123317000Y-92583000D01*
X124809915Y-92583000D01*
X124931904Y-92360961D01*
X124914367Y-92278182D01*
X124803715Y-92018354D01*
X124644500Y-91785105D01*
X124442839Y-91587399D01*
X124206483Y-91432834D01*
X123944514Y-91327350D01*
X123667000Y-91275000D01*
X123317000Y-91275000D01*
X123063000Y-91275000D01*
X122713000Y-91275000D01*
X122435486Y-91327350D01*
X122173517Y-91432834D01*
X121937161Y-91587399D01*
X121735500Y-91785105D01*
X121576285Y-92018354D01*
X121465633Y-92278182D01*
X121448096Y-92360961D01*
X120282000Y-92360961D01*
X120282000Y-87039307D01*
X120286364Y-86995000D01*
X120268948Y-86818177D01*
X120217371Y-86648149D01*
X120133614Y-86491451D01*
X120049140Y-86388519D01*
X120049138Y-86388517D01*
X120020896Y-86354104D01*
X119986484Y-86325863D01*
X114583323Y-80922702D01*
X115391903Y-80922702D01*
X115463486Y-81166671D01*
X115718996Y-81287571D01*
X115993184Y-81356300D01*
X116275512Y-81370217D01*
X116555130Y-81328787D01*
X116821292Y-81233603D01*
X116946514Y-81166671D01*
X117018097Y-80922702D01*
X116205000Y-80109605D01*
X115391903Y-80922702D01*
X114583323Y-80922702D01*
X114567000Y-80906380D01*
X114567000Y-80000512D01*
X114764783Y-80000512D01*
X114806213Y-80280130D01*
X114901397Y-80546292D01*
X114968329Y-80671514D01*
X115212298Y-80743097D01*
X116025395Y-79930000D01*
X116384605Y-79930000D01*
X117197702Y-80743097D01*
X117441671Y-80671514D01*
X117562571Y-80416004D01*
X117631300Y-80141816D01*
X117645217Y-79859488D01*
X117603787Y-79579870D01*
X117508603Y-79313708D01*
X117441671Y-79188486D01*
X117197702Y-79116903D01*
X116384605Y-79930000D01*
X116025395Y-79930000D01*
X115212298Y-79116903D01*
X114968329Y-79188486D01*
X114847429Y-79443996D01*
X114778700Y-79718184D01*
X114764783Y-80000512D01*
X114567000Y-80000512D01*
X114567000Y-78937298D01*
X115391903Y-78937298D01*
X116205000Y-79750395D01*
X117018097Y-78937298D01*
X116946514Y-78693329D01*
X116691004Y-78572429D01*
X116416816Y-78503700D01*
X116134488Y-78489783D01*
X115854870Y-78531213D01*
X115588708Y-78626397D01*
X115463486Y-78693329D01*
X115391903Y-78937298D01*
X114567000Y-78937298D01*
X114567000Y-78784299D01*
X114571363Y-78739999D01*
X114567000Y-78695700D01*
X114567000Y-78695693D01*
X114553948Y-78563177D01*
X114502371Y-78393150D01*
X114418614Y-78236451D01*
X114305896Y-78099104D01*
X114271478Y-78070858D01*
X113926506Y-77725886D01*
X113947000Y-77622859D01*
X113947000Y-77317141D01*
X113887357Y-77017298D01*
X113770364Y-76734853D01*
X113600517Y-76480658D01*
X113384342Y-76264483D01*
X113287836Y-76200000D01*
X113384342Y-76135517D01*
X113587859Y-75932000D01*
X114250777Y-75932000D01*
X114300000Y-75936848D01*
X114349223Y-75932000D01*
X115012141Y-75932000D01*
X115215658Y-76135517D01*
X115469853Y-76305364D01*
X115752298Y-76422357D01*
X116052141Y-76482000D01*
X116357859Y-76482000D01*
X116657702Y-76422357D01*
X116940147Y-76305364D01*
X117194342Y-76135517D01*
X117397859Y-75932000D01*
X117425784Y-75932000D01*
X117475000Y-75936847D01*
X117524216Y-75932000D01*
X117524223Y-75932000D01*
X117671426Y-75917502D01*
X117860304Y-75860206D01*
X118034375Y-75767164D01*
X118186949Y-75641949D01*
X118218332Y-75603709D01*
X118783709Y-75038332D01*
X118821949Y-75006949D01*
X118947164Y-74854375D01*
X119040206Y-74680304D01*
X119054011Y-74634794D01*
X119097502Y-74491427D01*
X119116848Y-74295000D01*
X119112000Y-74245777D01*
X119112000Y-74017000D01*
X131406075Y-74017000D01*
X131723000Y-74333926D01*
G37*
%TD.AperFunction*%
D27*
X166546055Y-74358020D02*
X166483971Y-74408971D01*
X166280654Y-74656715D01*
X166129575Y-74939363D01*
X166036542Y-75246053D01*
X166013000Y-75485076D01*
X166013000Y-75485086D01*
X166005129Y-75565000D01*
X166013000Y-75644915D01*
X166013001Y-93941074D01*
X164006055Y-95948020D01*
X163943971Y-95998971D01*
X163740654Y-96246715D01*
X163589575Y-96529363D01*
X163496542Y-96836053D01*
X163473000Y-97075076D01*
X163473000Y-97075086D01*
X163465129Y-97155000D01*
X163473000Y-97234915D01*
X163473001Y-111680066D01*
X163473000Y-111680076D01*
X163473001Y-113585075D01*
X163473000Y-122036074D01*
X153846050Y-131663025D01*
X153783972Y-131713971D01*
X153733026Y-131776049D01*
X153733022Y-131776053D01*
X153580654Y-131961715D01*
X153493747Y-132124306D01*
X153429576Y-132244362D01*
X153336543Y-132551052D01*
X153332017Y-132597002D01*
X153305129Y-132870000D01*
X153313001Y-132949924D01*
X153313001Y-133858000D01*
X146182621Y-133858000D01*
X146616482Y-133424139D01*
X146650896Y-133395896D01*
X146763614Y-133258549D01*
X146847371Y-133101850D01*
X146898948Y-132931823D01*
X146906880Y-132851290D01*
X146916364Y-132755000D01*
X146912000Y-132710693D01*
X146912000Y-125537916D01*
X146983974Y-125567729D01*
X147206538Y-125612000D01*
X147433462Y-125612000D01*
X147656026Y-125567729D01*
X147865677Y-125480889D01*
X148054357Y-125354817D01*
X148214817Y-125194357D01*
X148272500Y-125108028D01*
X148330183Y-125194357D01*
X148490643Y-125354817D01*
X148679323Y-125480889D01*
X148888974Y-125567729D01*
X149111538Y-125612000D01*
X149338462Y-125612000D01*
X149561026Y-125567729D01*
X149770677Y-125480889D01*
X149959357Y-125354817D01*
X150119817Y-125194357D01*
X150177500Y-125108028D01*
X150235183Y-125194357D01*
X150395643Y-125354817D01*
X150584323Y-125480889D01*
X150793974Y-125567729D01*
X151016538Y-125612000D01*
X151243462Y-125612000D01*
X151466026Y-125567729D01*
X151675677Y-125480889D01*
X151864357Y-125354817D01*
X152024817Y-125194357D01*
X152082495Y-125108036D01*
X152140173Y-125194357D01*
X152300633Y-125354817D01*
X152489313Y-125480889D01*
X152698964Y-125567729D01*
X152921528Y-125612000D01*
X153148452Y-125612000D01*
X153371016Y-125567729D01*
X153580667Y-125480889D01*
X153769347Y-125354817D01*
X153929807Y-125194357D01*
X153987495Y-125108021D01*
X154045183Y-125194357D01*
X154205643Y-125354817D01*
X154394323Y-125480889D01*
X154603974Y-125567729D01*
X154826538Y-125612000D01*
X155053462Y-125612000D01*
X155276026Y-125567729D01*
X155485677Y-125480889D01*
X155674357Y-125354817D01*
X155834817Y-125194357D01*
X155960889Y-125005677D01*
X156047729Y-124796026D01*
X156092000Y-124573462D01*
X156092000Y-124553435D01*
X156109853Y-124565364D01*
X156392298Y-124682357D01*
X156692141Y-124742000D01*
X156997859Y-124742000D01*
X157297702Y-124682357D01*
X157580147Y-124565364D01*
X157834342Y-124395517D01*
X158050517Y-124179342D01*
X158220364Y-123925147D01*
X158337357Y-123642702D01*
X158397000Y-123342859D01*
X158397000Y-123037141D01*
X158337357Y-122737298D01*
X158220364Y-122454853D01*
X158050517Y-122200658D01*
X157834342Y-121984483D01*
X157627238Y-121846101D01*
X157700131Y-121802385D01*
X157908519Y-121613414D01*
X158076037Y-121387420D01*
X158196246Y-121133087D01*
X158236904Y-120999039D01*
X158114915Y-120777000D01*
X156972000Y-120777000D01*
X156972000Y-120797000D01*
X156718000Y-120797000D01*
X156718000Y-120777000D01*
X155575085Y-120777000D01*
X155453096Y-120999039D01*
X155493754Y-121133087D01*
X155613963Y-121387420D01*
X155781481Y-121613414D01*
X155989869Y-121802385D01*
X156062762Y-121846101D01*
X155855658Y-121984483D01*
X155639483Y-122200658D01*
X155469636Y-122454853D01*
X155352643Y-122737298D01*
X155293000Y-123037141D01*
X155293000Y-123342859D01*
X155296564Y-123360778D01*
X155276026Y-123352271D01*
X155162108Y-123329611D01*
X153937000Y-122104504D01*
X153937000Y-115394485D01*
X153968974Y-115407729D01*
X154191538Y-115452000D01*
X154418462Y-115452000D01*
X154641026Y-115407729D01*
X154850677Y-115320889D01*
X155039357Y-115194817D01*
X155199817Y-115034357D01*
X155325889Y-114845677D01*
X155412729Y-114636026D01*
X155454478Y-114426142D01*
X155836927Y-114043693D01*
X155989869Y-114182385D01*
X156062762Y-114226101D01*
X155855658Y-114364483D01*
X155639483Y-114580658D01*
X155469636Y-114834853D01*
X155352643Y-115117298D01*
X155293000Y-115417141D01*
X155293000Y-115722859D01*
X155352643Y-116022702D01*
X155469636Y-116305147D01*
X155639483Y-116559342D01*
X155855658Y-116775517D01*
X155952164Y-116840000D01*
X155855658Y-116904483D01*
X155639483Y-117120658D01*
X155469636Y-117374853D01*
X155352643Y-117657298D01*
X155293000Y-117957141D01*
X155293000Y-118262859D01*
X155352643Y-118562702D01*
X155469636Y-118845147D01*
X155639483Y-119099342D01*
X155855658Y-119315517D01*
X156062762Y-119453899D01*
X155989869Y-119497615D01*
X155781481Y-119686586D01*
X155613963Y-119912580D01*
X155493754Y-120166913D01*
X155453096Y-120300961D01*
X155575085Y-120523000D01*
X156718000Y-120523000D01*
X156718000Y-120503000D01*
X156972000Y-120503000D01*
X156972000Y-120523000D01*
X158114915Y-120523000D01*
X158236904Y-120300961D01*
X158196246Y-120166913D01*
X158076037Y-119912580D01*
X157908519Y-119686586D01*
X157700131Y-119497615D01*
X157627238Y-119453899D01*
X157834342Y-119315517D01*
X158050517Y-119099342D01*
X158220364Y-118845147D01*
X158337357Y-118562702D01*
X158397000Y-118262859D01*
X158397000Y-117957141D01*
X158337357Y-117657298D01*
X158220364Y-117374853D01*
X158050517Y-117120658D01*
X157834342Y-116904483D01*
X157737836Y-116840000D01*
X157834342Y-116775517D01*
X158050517Y-116559342D01*
X158220364Y-116305147D01*
X158337357Y-116022702D01*
X158397000Y-115722859D01*
X158397000Y-115417141D01*
X158337357Y-115117298D01*
X158220364Y-114834853D01*
X158050517Y-114580658D01*
X157834342Y-114364483D01*
X157627238Y-114226101D01*
X157700131Y-114182385D01*
X157908519Y-113993414D01*
X158076037Y-113767420D01*
X158196246Y-113513087D01*
X158236904Y-113379039D01*
X158114915Y-113157000D01*
X156972000Y-113157000D01*
X156972000Y-113177000D01*
X156718000Y-113177000D01*
X156718000Y-113157000D01*
X156698000Y-113157000D01*
X156698000Y-112903000D01*
X156718000Y-112903000D01*
X156718000Y-112883000D01*
X156972000Y-112883000D01*
X156972000Y-112903000D01*
X158114915Y-112903000D01*
X158236904Y-112680961D01*
X158196246Y-112546913D01*
X158076037Y-112292580D01*
X157908519Y-112066586D01*
X157700131Y-111877615D01*
X157627238Y-111833899D01*
X157834342Y-111695517D01*
X158050517Y-111479342D01*
X158220364Y-111225147D01*
X158337357Y-110942702D01*
X158397000Y-110642859D01*
X158397000Y-110337141D01*
X158337357Y-110037298D01*
X158220364Y-109754853D01*
X158050517Y-109500658D01*
X157834342Y-109284483D01*
X157737836Y-109220000D01*
X157834342Y-109155517D01*
X158050517Y-108939342D01*
X158220364Y-108685147D01*
X158337357Y-108402702D01*
X158397000Y-108102859D01*
X158397000Y-107797141D01*
X158337357Y-107497298D01*
X158220364Y-107214853D01*
X158050517Y-106960658D01*
X157834342Y-106744483D01*
X157737836Y-106680000D01*
X157834342Y-106615517D01*
X158050517Y-106399342D01*
X158220364Y-106145147D01*
X158337357Y-105862702D01*
X158397000Y-105562859D01*
X158397000Y-105257141D01*
X158337357Y-104957298D01*
X158220364Y-104674853D01*
X158050517Y-104420658D01*
X157834342Y-104204483D01*
X157737836Y-104140000D01*
X157834342Y-104075517D01*
X158050517Y-103859342D01*
X158220364Y-103605147D01*
X158337357Y-103322702D01*
X158397000Y-103022859D01*
X158397000Y-102717141D01*
X158337357Y-102417298D01*
X158220364Y-102134853D01*
X158050517Y-101880658D01*
X157834342Y-101664483D01*
X157737836Y-101600000D01*
X157834342Y-101535517D01*
X158050517Y-101319342D01*
X158220364Y-101065147D01*
X158337357Y-100782702D01*
X158397000Y-100482859D01*
X158397000Y-100177141D01*
X158337357Y-99877298D01*
X158220364Y-99594853D01*
X158050517Y-99340658D01*
X157834342Y-99124483D01*
X157737836Y-99060000D01*
X157834342Y-98995517D01*
X158050517Y-98779342D01*
X158220364Y-98525147D01*
X158337357Y-98242702D01*
X158397000Y-97942859D01*
X158397000Y-97637141D01*
X158337357Y-97337298D01*
X158220364Y-97054853D01*
X158050517Y-96800658D01*
X157834342Y-96584483D01*
X157737836Y-96520000D01*
X157834342Y-96455517D01*
X158050517Y-96239342D01*
X158220364Y-95985147D01*
X158337357Y-95702702D01*
X158397000Y-95402859D01*
X158397000Y-95097141D01*
X158376506Y-94994114D01*
X160626482Y-92744139D01*
X160660896Y-92715896D01*
X160703599Y-92663863D01*
X160707709Y-92658855D01*
X160773614Y-92578549D01*
X160857371Y-92421850D01*
X160908948Y-92251823D01*
X160922000Y-92119307D01*
X160922000Y-92119300D01*
X160926363Y-92075001D01*
X160922000Y-92030701D01*
X160922000Y-87083607D01*
X161040889Y-86905677D01*
X161127729Y-86696026D01*
X161172000Y-86473462D01*
X161172000Y-86246538D01*
X161127729Y-86023974D01*
X161040889Y-85814323D01*
X160914817Y-85625643D01*
X160754357Y-85465183D01*
X160565677Y-85339111D01*
X160356026Y-85252271D01*
X160133462Y-85208000D01*
X159906538Y-85208000D01*
X159683974Y-85252271D01*
X159474323Y-85339111D01*
X159285643Y-85465183D01*
X159125183Y-85625643D01*
X158999111Y-85814323D01*
X158953957Y-85923336D01*
X158376506Y-85345886D01*
X158397000Y-85242859D01*
X158397000Y-84937141D01*
X158337357Y-84637298D01*
X158220364Y-84354853D01*
X158050517Y-84100658D01*
X157834342Y-83884483D01*
X157737836Y-83820000D01*
X157834342Y-83755517D01*
X158050517Y-83539342D01*
X158220364Y-83285147D01*
X158337357Y-83002702D01*
X158397000Y-82702859D01*
X158397000Y-82397141D01*
X158337357Y-82097298D01*
X158220364Y-81814853D01*
X158050517Y-81560658D01*
X157834342Y-81344483D01*
X157737836Y-81280000D01*
X157834342Y-81215517D01*
X158050517Y-80999342D01*
X158101726Y-80922702D01*
X159841903Y-80922702D01*
X159913486Y-81166671D01*
X160168996Y-81287571D01*
X160443184Y-81356300D01*
X160725512Y-81370217D01*
X161005130Y-81328787D01*
X161271292Y-81233603D01*
X161396514Y-81166671D01*
X161468097Y-80922702D01*
X160655000Y-80109605D01*
X159841903Y-80922702D01*
X158101726Y-80922702D01*
X158220364Y-80745147D01*
X158337357Y-80462702D01*
X158397000Y-80162859D01*
X158397000Y-80000512D01*
X159214783Y-80000512D01*
X159256213Y-80280130D01*
X159351397Y-80546292D01*
X159418329Y-80671514D01*
X159662298Y-80743097D01*
X160475395Y-79930000D01*
X160834605Y-79930000D01*
X161647702Y-80743097D01*
X161891671Y-80671514D01*
X162012571Y-80416004D01*
X162081300Y-80141816D01*
X162095217Y-79859488D01*
X162053787Y-79579870D01*
X161958603Y-79313708D01*
X161891671Y-79188486D01*
X161647702Y-79116903D01*
X160834605Y-79930000D01*
X160475395Y-79930000D01*
X159662298Y-79116903D01*
X159418329Y-79188486D01*
X159297429Y-79443996D01*
X159228700Y-79718184D01*
X159214783Y-80000512D01*
X158397000Y-80000512D01*
X158397000Y-79857141D01*
X158337357Y-79557298D01*
X158220364Y-79274853D01*
X158050517Y-79020658D01*
X157967157Y-78937298D01*
X159841903Y-78937298D01*
X160655000Y-79750395D01*
X161468097Y-78937298D01*
X161396514Y-78693329D01*
X161141004Y-78572429D01*
X160866816Y-78503700D01*
X160584488Y-78489783D01*
X160304870Y-78531213D01*
X160038708Y-78626397D01*
X159913486Y-78693329D01*
X159841903Y-78937298D01*
X157967157Y-78937298D01*
X157834342Y-78804483D01*
X157737836Y-78740000D01*
X157834342Y-78675517D01*
X158050517Y-78459342D01*
X158220364Y-78205147D01*
X158337357Y-77922702D01*
X158397000Y-77622859D01*
X158397000Y-77317141D01*
X158337357Y-77017298D01*
X158220364Y-76734853D01*
X158050517Y-76480658D01*
X157834342Y-76264483D01*
X157737836Y-76200000D01*
X157834342Y-76135517D01*
X158037859Y-75932000D01*
X158700777Y-75932000D01*
X158750000Y-75936848D01*
X158799223Y-75932000D01*
X159462141Y-75932000D01*
X159665658Y-76135517D01*
X159919853Y-76305364D01*
X160202298Y-76422357D01*
X160502141Y-76482000D01*
X160807859Y-76482000D01*
X161107702Y-76422357D01*
X161390147Y-76305364D01*
X161644342Y-76135517D01*
X161847859Y-75932000D01*
X161875784Y-75932000D01*
X161925000Y-75936847D01*
X161974216Y-75932000D01*
X161974223Y-75932000D01*
X162121426Y-75917502D01*
X162310304Y-75860206D01*
X162484375Y-75767164D01*
X162636949Y-75641949D01*
X162668332Y-75603709D01*
X163233709Y-75038332D01*
X163271949Y-75006949D01*
X163397164Y-74854375D01*
X163490206Y-74680304D01*
X163504011Y-74634794D01*
X163547502Y-74491427D01*
X163566848Y-74295000D01*
X163562000Y-74245777D01*
X163562000Y-74017000D01*
X166887076Y-74017000D01*
X166546055Y-74358020D01*
%TA.AperFunction,Conductor*%
D28*
G36*
X166546055Y-74358020D02*
G01*
X166483971Y-74408971D01*
X166280654Y-74656715D01*
X166129575Y-74939363D01*
X166036542Y-75246053D01*
X166013000Y-75485076D01*
X166013000Y-75485086D01*
X166005129Y-75565000D01*
X166013000Y-75644915D01*
X166013001Y-93941074D01*
X164006055Y-95948020D01*
X163943971Y-95998971D01*
X163740654Y-96246715D01*
X163589575Y-96529363D01*
X163496542Y-96836053D01*
X163473000Y-97075076D01*
X163473000Y-97075086D01*
X163465129Y-97155000D01*
X163473000Y-97234915D01*
X163473001Y-111680066D01*
X163473000Y-111680076D01*
X163473001Y-113585075D01*
X163473000Y-122036074D01*
X153846050Y-131663025D01*
X153783972Y-131713971D01*
X153733026Y-131776049D01*
X153733022Y-131776053D01*
X153580654Y-131961715D01*
X153493747Y-132124306D01*
X153429576Y-132244362D01*
X153336543Y-132551052D01*
X153332017Y-132597002D01*
X153305129Y-132870000D01*
X153313001Y-132949924D01*
X153313001Y-133858000D01*
X146182621Y-133858000D01*
X146616482Y-133424139D01*
X146650896Y-133395896D01*
X146763614Y-133258549D01*
X146847371Y-133101850D01*
X146898948Y-132931823D01*
X146906880Y-132851290D01*
X146916364Y-132755000D01*
X146912000Y-132710693D01*
X146912000Y-125537916D01*
X146983974Y-125567729D01*
X147206538Y-125612000D01*
X147433462Y-125612000D01*
X147656026Y-125567729D01*
X147865677Y-125480889D01*
X148054357Y-125354817D01*
X148214817Y-125194357D01*
X148272500Y-125108028D01*
X148330183Y-125194357D01*
X148490643Y-125354817D01*
X148679323Y-125480889D01*
X148888974Y-125567729D01*
X149111538Y-125612000D01*
X149338462Y-125612000D01*
X149561026Y-125567729D01*
X149770677Y-125480889D01*
X149959357Y-125354817D01*
X150119817Y-125194357D01*
X150177500Y-125108028D01*
X150235183Y-125194357D01*
X150395643Y-125354817D01*
X150584323Y-125480889D01*
X150793974Y-125567729D01*
X151016538Y-125612000D01*
X151243462Y-125612000D01*
X151466026Y-125567729D01*
X151675677Y-125480889D01*
X151864357Y-125354817D01*
X152024817Y-125194357D01*
X152082495Y-125108036D01*
X152140173Y-125194357D01*
X152300633Y-125354817D01*
X152489313Y-125480889D01*
X152698964Y-125567729D01*
X152921528Y-125612000D01*
X153148452Y-125612000D01*
X153371016Y-125567729D01*
X153580667Y-125480889D01*
X153769347Y-125354817D01*
X153929807Y-125194357D01*
X153987495Y-125108021D01*
X154045183Y-125194357D01*
X154205643Y-125354817D01*
X154394323Y-125480889D01*
X154603974Y-125567729D01*
X154826538Y-125612000D01*
X155053462Y-125612000D01*
X155276026Y-125567729D01*
X155485677Y-125480889D01*
X155674357Y-125354817D01*
X155834817Y-125194357D01*
X155960889Y-125005677D01*
X156047729Y-124796026D01*
X156092000Y-124573462D01*
X156092000Y-124553435D01*
X156109853Y-124565364D01*
X156392298Y-124682357D01*
X156692141Y-124742000D01*
X156997859Y-124742000D01*
X157297702Y-124682357D01*
X157580147Y-124565364D01*
X157834342Y-124395517D01*
X158050517Y-124179342D01*
X158220364Y-123925147D01*
X158337357Y-123642702D01*
X158397000Y-123342859D01*
X158397000Y-123037141D01*
X158337357Y-122737298D01*
X158220364Y-122454853D01*
X158050517Y-122200658D01*
X157834342Y-121984483D01*
X157627238Y-121846101D01*
X157700131Y-121802385D01*
X157908519Y-121613414D01*
X158076037Y-121387420D01*
X158196246Y-121133087D01*
X158236904Y-120999039D01*
X158114915Y-120777000D01*
X156972000Y-120777000D01*
X156972000Y-120797000D01*
X156718000Y-120797000D01*
X156718000Y-120777000D01*
X155575085Y-120777000D01*
X155453096Y-120999039D01*
X155493754Y-121133087D01*
X155613963Y-121387420D01*
X155781481Y-121613414D01*
X155989869Y-121802385D01*
X156062762Y-121846101D01*
X155855658Y-121984483D01*
X155639483Y-122200658D01*
X155469636Y-122454853D01*
X155352643Y-122737298D01*
X155293000Y-123037141D01*
X155293000Y-123342859D01*
X155296564Y-123360778D01*
X155276026Y-123352271D01*
X155162108Y-123329611D01*
X153937000Y-122104504D01*
X153937000Y-115394485D01*
X153968974Y-115407729D01*
X154191538Y-115452000D01*
X154418462Y-115452000D01*
X154641026Y-115407729D01*
X154850677Y-115320889D01*
X155039357Y-115194817D01*
X155199817Y-115034357D01*
X155325889Y-114845677D01*
X155412729Y-114636026D01*
X155454478Y-114426142D01*
X155836927Y-114043693D01*
X155989869Y-114182385D01*
X156062762Y-114226101D01*
X155855658Y-114364483D01*
X155639483Y-114580658D01*
X155469636Y-114834853D01*
X155352643Y-115117298D01*
X155293000Y-115417141D01*
X155293000Y-115722859D01*
X155352643Y-116022702D01*
X155469636Y-116305147D01*
X155639483Y-116559342D01*
X155855658Y-116775517D01*
X155952164Y-116840000D01*
X155855658Y-116904483D01*
X155639483Y-117120658D01*
X155469636Y-117374853D01*
X155352643Y-117657298D01*
X155293000Y-117957141D01*
X155293000Y-118262859D01*
X155352643Y-118562702D01*
X155469636Y-118845147D01*
X155639483Y-119099342D01*
X155855658Y-119315517D01*
X156062762Y-119453899D01*
X155989869Y-119497615D01*
X155781481Y-119686586D01*
X155613963Y-119912580D01*
X155493754Y-120166913D01*
X155453096Y-120300961D01*
X155575085Y-120523000D01*
X156718000Y-120523000D01*
X156718000Y-120503000D01*
X156972000Y-120503000D01*
X156972000Y-120523000D01*
X158114915Y-120523000D01*
X158236904Y-120300961D01*
X158196246Y-120166913D01*
X158076037Y-119912580D01*
X157908519Y-119686586D01*
X157700131Y-119497615D01*
X157627238Y-119453899D01*
X157834342Y-119315517D01*
X158050517Y-119099342D01*
X158220364Y-118845147D01*
X158337357Y-118562702D01*
X158397000Y-118262859D01*
X158397000Y-117957141D01*
X158337357Y-117657298D01*
X158220364Y-117374853D01*
X158050517Y-117120658D01*
X157834342Y-116904483D01*
X157737836Y-116840000D01*
X157834342Y-116775517D01*
X158050517Y-116559342D01*
X158220364Y-116305147D01*
X158337357Y-116022702D01*
X158397000Y-115722859D01*
X158397000Y-115417141D01*
X158337357Y-115117298D01*
X158220364Y-114834853D01*
X158050517Y-114580658D01*
X157834342Y-114364483D01*
X157627238Y-114226101D01*
X157700131Y-114182385D01*
X157908519Y-113993414D01*
X158076037Y-113767420D01*
X158196246Y-113513087D01*
X158236904Y-113379039D01*
X158114915Y-113157000D01*
X156972000Y-113157000D01*
X156972000Y-113177000D01*
X156718000Y-113177000D01*
X156718000Y-113157000D01*
X156698000Y-113157000D01*
X156698000Y-112903000D01*
X156718000Y-112903000D01*
X156718000Y-112883000D01*
X156972000Y-112883000D01*
X156972000Y-112903000D01*
X158114915Y-112903000D01*
X158236904Y-112680961D01*
X158196246Y-112546913D01*
X158076037Y-112292580D01*
X157908519Y-112066586D01*
X157700131Y-111877615D01*
X157627238Y-111833899D01*
X157834342Y-111695517D01*
X158050517Y-111479342D01*
X158220364Y-111225147D01*
X158337357Y-110942702D01*
X158397000Y-110642859D01*
X158397000Y-110337141D01*
X158337357Y-110037298D01*
X158220364Y-109754853D01*
X158050517Y-109500658D01*
X157834342Y-109284483D01*
X157737836Y-109220000D01*
X157834342Y-109155517D01*
X158050517Y-108939342D01*
X158220364Y-108685147D01*
X158337357Y-108402702D01*
X158397000Y-108102859D01*
X158397000Y-107797141D01*
X158337357Y-107497298D01*
X158220364Y-107214853D01*
X158050517Y-106960658D01*
X157834342Y-106744483D01*
X157737836Y-106680000D01*
X157834342Y-106615517D01*
X158050517Y-106399342D01*
X158220364Y-106145147D01*
X158337357Y-105862702D01*
X158397000Y-105562859D01*
X158397000Y-105257141D01*
X158337357Y-104957298D01*
X158220364Y-104674853D01*
X158050517Y-104420658D01*
X157834342Y-104204483D01*
X157737836Y-104140000D01*
X157834342Y-104075517D01*
X158050517Y-103859342D01*
X158220364Y-103605147D01*
X158337357Y-103322702D01*
X158397000Y-103022859D01*
X158397000Y-102717141D01*
X158337357Y-102417298D01*
X158220364Y-102134853D01*
X158050517Y-101880658D01*
X157834342Y-101664483D01*
X157737836Y-101600000D01*
X157834342Y-101535517D01*
X158050517Y-101319342D01*
X158220364Y-101065147D01*
X158337357Y-100782702D01*
X158397000Y-100482859D01*
X158397000Y-100177141D01*
X158337357Y-99877298D01*
X158220364Y-99594853D01*
X158050517Y-99340658D01*
X157834342Y-99124483D01*
X157737836Y-99060000D01*
X157834342Y-98995517D01*
X158050517Y-98779342D01*
X158220364Y-98525147D01*
X158337357Y-98242702D01*
X158397000Y-97942859D01*
X158397000Y-97637141D01*
X158337357Y-97337298D01*
X158220364Y-97054853D01*
X158050517Y-96800658D01*
X157834342Y-96584483D01*
X157737836Y-96520000D01*
X157834342Y-96455517D01*
X158050517Y-96239342D01*
X158220364Y-95985147D01*
X158337357Y-95702702D01*
X158397000Y-95402859D01*
X158397000Y-95097141D01*
X158376506Y-94994114D01*
X160626482Y-92744139D01*
X160660896Y-92715896D01*
X160703599Y-92663863D01*
X160707709Y-92658855D01*
X160773614Y-92578549D01*
X160857371Y-92421850D01*
X160908948Y-92251823D01*
X160922000Y-92119307D01*
X160922000Y-92119300D01*
X160926363Y-92075001D01*
X160922000Y-92030701D01*
X160922000Y-87083607D01*
X161040889Y-86905677D01*
X161127729Y-86696026D01*
X161172000Y-86473462D01*
X161172000Y-86246538D01*
X161127729Y-86023974D01*
X161040889Y-85814323D01*
X160914817Y-85625643D01*
X160754357Y-85465183D01*
X160565677Y-85339111D01*
X160356026Y-85252271D01*
X160133462Y-85208000D01*
X159906538Y-85208000D01*
X159683974Y-85252271D01*
X159474323Y-85339111D01*
X159285643Y-85465183D01*
X159125183Y-85625643D01*
X158999111Y-85814323D01*
X158953957Y-85923336D01*
X158376506Y-85345886D01*
X158397000Y-85242859D01*
X158397000Y-84937141D01*
X158337357Y-84637298D01*
X158220364Y-84354853D01*
X158050517Y-84100658D01*
X157834342Y-83884483D01*
X157737836Y-83820000D01*
X157834342Y-83755517D01*
X158050517Y-83539342D01*
X158220364Y-83285147D01*
X158337357Y-83002702D01*
X158397000Y-82702859D01*
X158397000Y-82397141D01*
X158337357Y-82097298D01*
X158220364Y-81814853D01*
X158050517Y-81560658D01*
X157834342Y-81344483D01*
X157737836Y-81280000D01*
X157834342Y-81215517D01*
X158050517Y-80999342D01*
X158101726Y-80922702D01*
X159841903Y-80922702D01*
X159913486Y-81166671D01*
X160168996Y-81287571D01*
X160443184Y-81356300D01*
X160725512Y-81370217D01*
X161005130Y-81328787D01*
X161271292Y-81233603D01*
X161396514Y-81166671D01*
X161468097Y-80922702D01*
X160655000Y-80109605D01*
X159841903Y-80922702D01*
X158101726Y-80922702D01*
X158220364Y-80745147D01*
X158337357Y-80462702D01*
X158397000Y-80162859D01*
X158397000Y-80000512D01*
X159214783Y-80000512D01*
X159256213Y-80280130D01*
X159351397Y-80546292D01*
X159418329Y-80671514D01*
X159662298Y-80743097D01*
X160475395Y-79930000D01*
X160834605Y-79930000D01*
X161647702Y-80743097D01*
X161891671Y-80671514D01*
X162012571Y-80416004D01*
X162081300Y-80141816D01*
X162095217Y-79859488D01*
X162053787Y-79579870D01*
X161958603Y-79313708D01*
X161891671Y-79188486D01*
X161647702Y-79116903D01*
X160834605Y-79930000D01*
X160475395Y-79930000D01*
X159662298Y-79116903D01*
X159418329Y-79188486D01*
X159297429Y-79443996D01*
X159228700Y-79718184D01*
X159214783Y-80000512D01*
X158397000Y-80000512D01*
X158397000Y-79857141D01*
X158337357Y-79557298D01*
X158220364Y-79274853D01*
X158050517Y-79020658D01*
X157967157Y-78937298D01*
X159841903Y-78937298D01*
X160655000Y-79750395D01*
X161468097Y-78937298D01*
X161396514Y-78693329D01*
X161141004Y-78572429D01*
X160866816Y-78503700D01*
X160584488Y-78489783D01*
X160304870Y-78531213D01*
X160038708Y-78626397D01*
X159913486Y-78693329D01*
X159841903Y-78937298D01*
X157967157Y-78937298D01*
X157834342Y-78804483D01*
X157737836Y-78740000D01*
X157834342Y-78675517D01*
X158050517Y-78459342D01*
X158220364Y-78205147D01*
X158337357Y-77922702D01*
X158397000Y-77622859D01*
X158397000Y-77317141D01*
X158337357Y-77017298D01*
X158220364Y-76734853D01*
X158050517Y-76480658D01*
X157834342Y-76264483D01*
X157737836Y-76200000D01*
X157834342Y-76135517D01*
X158037859Y-75932000D01*
X158700777Y-75932000D01*
X158750000Y-75936848D01*
X158799223Y-75932000D01*
X159462141Y-75932000D01*
X159665658Y-76135517D01*
X159919853Y-76305364D01*
X160202298Y-76422357D01*
X160502141Y-76482000D01*
X160807859Y-76482000D01*
X161107702Y-76422357D01*
X161390147Y-76305364D01*
X161644342Y-76135517D01*
X161847859Y-75932000D01*
X161875784Y-75932000D01*
X161925000Y-75936847D01*
X161974216Y-75932000D01*
X161974223Y-75932000D01*
X162121426Y-75917502D01*
X162310304Y-75860206D01*
X162484375Y-75767164D01*
X162636949Y-75641949D01*
X162668332Y-75603709D01*
X163233709Y-75038332D01*
X163271949Y-75006949D01*
X163397164Y-74854375D01*
X163490206Y-74680304D01*
X163504011Y-74634794D01*
X163547502Y-74491427D01*
X163566848Y-74295000D01*
X163562000Y-74245777D01*
X163562000Y-74017000D01*
X166887076Y-74017000D01*
X166546055Y-74358020D01*
G37*
%TD.AperFunction*%
D27*
X170942000Y-116038000D02*
X170962000Y-116038000D01*
X170962000Y-116292000D01*
X170942000Y-116292000D01*
X170942000Y-117434915D01*
X171164039Y-117556904D01*
X171298087Y-117516246D01*
X171552420Y-117396037D01*
X171728000Y-117265888D01*
X171728000Y-121763057D01*
X171615000Y-121751928D01*
X171100750Y-121755000D01*
X170942000Y-121913750D01*
X170942000Y-123063000D01*
X170962000Y-123063000D01*
X170962000Y-123317000D01*
X170942000Y-123317000D01*
X170942000Y-123337000D01*
X170688000Y-123337000D01*
X170688000Y-123317000D01*
X170668000Y-123317000D01*
X170668000Y-123063000D01*
X170688000Y-123063000D01*
X170688000Y-121913750D01*
X170529250Y-121755000D01*
X170015000Y-121751928D01*
X169902000Y-121763057D01*
X169902000Y-121435756D01*
X169916848Y-121285000D01*
X169902000Y-121134243D01*
X169902000Y-117265888D01*
X170077580Y-117396037D01*
X170331913Y-117516246D01*
X170465961Y-117556904D01*
X170688000Y-117434915D01*
X170688000Y-116292000D01*
X170668000Y-116292000D01*
X170668000Y-116038000D01*
X170688000Y-116038000D01*
X170688000Y-116018000D01*
X170942000Y-116018000D01*
X170942000Y-116038000D01*
%TA.AperFunction,Conductor*%
D28*
G36*
X170942000Y-116038000D02*
G01*
X170962000Y-116038000D01*
X170962000Y-116292000D01*
X170942000Y-116292000D01*
X170942000Y-117434915D01*
X171164039Y-117556904D01*
X171298087Y-117516246D01*
X171552420Y-117396037D01*
X171728000Y-117265888D01*
X171728000Y-121763057D01*
X171615000Y-121751928D01*
X171100750Y-121755000D01*
X170942000Y-121913750D01*
X170942000Y-123063000D01*
X170962000Y-123063000D01*
X170962000Y-123317000D01*
X170942000Y-123317000D01*
X170942000Y-123337000D01*
X170688000Y-123337000D01*
X170688000Y-123317000D01*
X170668000Y-123317000D01*
X170668000Y-123063000D01*
X170688000Y-123063000D01*
X170688000Y-121913750D01*
X170529250Y-121755000D01*
X170015000Y-121751928D01*
X169902000Y-121763057D01*
X169902000Y-121435756D01*
X169916848Y-121285000D01*
X169902000Y-121134243D01*
X169902000Y-117265888D01*
X170077580Y-117396037D01*
X170331913Y-117516246D01*
X170465961Y-117556904D01*
X170688000Y-117434915D01*
X170688000Y-116292000D01*
X170668000Y-116292000D01*
X170668000Y-116038000D01*
X170688000Y-116038000D01*
X170688000Y-116018000D01*
X170942000Y-116018000D01*
X170942000Y-116038000D01*
G37*
%TD.AperFunction*%
D27*
X104902000Y-97663000D02*
X104922000Y-97663000D01*
X104922000Y-97917000D01*
X104902000Y-97917000D01*
X104902000Y-99060624D01*
X105124040Y-99181909D01*
X105143001Y-99175119D01*
X105143001Y-101873190D01*
X105138637Y-101917500D01*
X105156052Y-102094322D01*
X105195887Y-102225638D01*
X105207630Y-102264350D01*
X105291387Y-102421049D01*
X105336012Y-102475424D01*
X105370541Y-102517498D01*
X105404105Y-102558396D01*
X105438518Y-102586638D01*
X107038001Y-104186122D01*
X107038002Y-117827381D01*
X103772000Y-114561380D01*
X103772000Y-98808294D01*
X103919869Y-98942385D01*
X104161119Y-99087070D01*
X104425960Y-99181909D01*
X104648000Y-99060624D01*
X104648000Y-97917000D01*
X104628000Y-97917000D01*
X104628000Y-97663000D01*
X104648000Y-97663000D01*
X104648000Y-97643000D01*
X104902000Y-97643000D01*
X104902000Y-97663000D01*
%TA.AperFunction,Conductor*%
D28*
G36*
X104902000Y-97663000D02*
G01*
X104922000Y-97663000D01*
X104922000Y-97917000D01*
X104902000Y-97917000D01*
X104902000Y-99060624D01*
X105124040Y-99181909D01*
X105143001Y-99175119D01*
X105143001Y-101873190D01*
X105138637Y-101917500D01*
X105156052Y-102094322D01*
X105195887Y-102225638D01*
X105207630Y-102264350D01*
X105291387Y-102421049D01*
X105336012Y-102475424D01*
X105370541Y-102517498D01*
X105404105Y-102558396D01*
X105438518Y-102586638D01*
X107038001Y-104186122D01*
X107038002Y-117827381D01*
X103772000Y-114561380D01*
X103772000Y-98808294D01*
X103919869Y-98942385D01*
X104161119Y-99087070D01*
X104425960Y-99181909D01*
X104648000Y-99060624D01*
X104648000Y-97917000D01*
X104628000Y-97917000D01*
X104628000Y-97663000D01*
X104648000Y-97663000D01*
X104648000Y-97643000D01*
X104902000Y-97643000D01*
X104902000Y-97663000D01*
G37*
%TD.AperFunction*%
D27*
X170942000Y-106513000D02*
X170962000Y-106513000D01*
X170962000Y-106767000D01*
X170942000Y-106767000D01*
X170942000Y-107909915D01*
X171164039Y-108031904D01*
X171298087Y-107991246D01*
X171552420Y-107871037D01*
X171728001Y-107740888D01*
X171728001Y-112120491D01*
X171615000Y-112109362D01*
X170015000Y-112109362D01*
X169902000Y-112120491D01*
X169902000Y-107740888D01*
X170077580Y-107871037D01*
X170331913Y-107991246D01*
X170465961Y-108031904D01*
X170688000Y-107909915D01*
X170688000Y-106767000D01*
X170668000Y-106767000D01*
X170668000Y-106513000D01*
X170688000Y-106513000D01*
X170688000Y-106493000D01*
X170942000Y-106493000D01*
X170942000Y-106513000D01*
%TA.AperFunction,Conductor*%
D28*
G36*
X170942000Y-106513000D02*
G01*
X170962000Y-106513000D01*
X170962000Y-106767000D01*
X170942000Y-106767000D01*
X170942000Y-107909915D01*
X171164039Y-108031904D01*
X171298087Y-107991246D01*
X171552420Y-107871037D01*
X171728001Y-107740888D01*
X171728001Y-112120491D01*
X171615000Y-112109362D01*
X170015000Y-112109362D01*
X169902000Y-112120491D01*
X169902000Y-107740888D01*
X170077580Y-107871037D01*
X170331913Y-107991246D01*
X170465961Y-108031904D01*
X170688000Y-107909915D01*
X170688000Y-106767000D01*
X170668000Y-106767000D01*
X170668000Y-106513000D01*
X170688000Y-106513000D01*
X170688000Y-106493000D01*
X170942000Y-106493000D01*
X170942000Y-106513000D01*
G37*
%TD.AperFunction*%
D27*
X103219362Y-74130000D02*
X103219362Y-75730000D01*
X103233881Y-75877418D01*
X103276882Y-76019170D01*
X103346710Y-76149810D01*
X103440683Y-76264317D01*
X103555190Y-76358290D01*
X103685830Y-76428118D01*
X103769891Y-76453618D01*
X103711481Y-76506586D01*
X103543963Y-76732580D01*
X103423754Y-76986913D01*
X103383096Y-77120961D01*
X103505085Y-77343000D01*
X104648000Y-77343000D01*
X104648000Y-77323000D01*
X104902000Y-77323000D01*
X104902000Y-77343000D01*
X104922000Y-77343000D01*
X104922000Y-77597000D01*
X104902000Y-77597000D01*
X104902000Y-79883000D01*
X106044915Y-79883000D01*
X106166904Y-79660961D01*
X106126246Y-79526913D01*
X106006037Y-79272580D01*
X105838519Y-79046586D01*
X105630131Y-78857615D01*
X105434018Y-78740000D01*
X105630131Y-78622385D01*
X105838519Y-78433414D01*
X106006037Y-78207420D01*
X106126246Y-77953087D01*
X106166904Y-77819039D01*
X106044916Y-77597002D01*
X106166381Y-77597002D01*
X107048000Y-78478621D01*
X107048001Y-90760690D01*
X107043637Y-90805000D01*
X107061052Y-90981822D01*
X107094824Y-91093151D01*
X107112630Y-91151850D01*
X107196387Y-91308549D01*
X107309105Y-91445896D01*
X107343518Y-91474138D01*
X107427380Y-91558000D01*
X107201538Y-91558000D01*
X106978974Y-91602271D01*
X106947000Y-91615515D01*
X106947000Y-88944299D01*
X106951363Y-88899999D01*
X106947000Y-88855700D01*
X106947000Y-88855693D01*
X106933948Y-88723177D01*
X106882371Y-88553150D01*
X106798614Y-88396451D01*
X106685896Y-88259104D01*
X106651478Y-88230858D01*
X106306506Y-87885886D01*
X106327000Y-87782859D01*
X106327000Y-87477141D01*
X106267357Y-87177298D01*
X106150364Y-86894853D01*
X105980517Y-86640658D01*
X105764342Y-86424483D01*
X105667836Y-86360000D01*
X105764342Y-86295517D01*
X105980517Y-86079342D01*
X106150364Y-85825147D01*
X106267357Y-85542702D01*
X106327000Y-85242859D01*
X106327000Y-84937141D01*
X106267357Y-84637298D01*
X106150364Y-84354853D01*
X105980517Y-84100658D01*
X105764342Y-83884483D01*
X105667836Y-83820000D01*
X105764342Y-83755517D01*
X105980517Y-83539342D01*
X106150364Y-83285147D01*
X106267357Y-83002702D01*
X106327000Y-82702859D01*
X106327000Y-82397141D01*
X106267357Y-82097298D01*
X106150364Y-81814853D01*
X105980517Y-81560658D01*
X105764342Y-81344483D01*
X105557238Y-81206101D01*
X105630131Y-81162385D01*
X105838519Y-80973414D01*
X106006037Y-80747420D01*
X106126246Y-80493087D01*
X106166904Y-80359039D01*
X106044915Y-80137000D01*
X104902000Y-80137000D01*
X104902000Y-80157000D01*
X104648000Y-80157000D01*
X104648000Y-80137000D01*
X103505085Y-80137000D01*
X103383096Y-80359039D01*
X103423754Y-80493087D01*
X103543963Y-80747420D01*
X103711481Y-80973414D01*
X103919869Y-81162385D01*
X103992762Y-81206101D01*
X103785658Y-81344483D01*
X103569483Y-81560658D01*
X103399636Y-81814853D01*
X103282643Y-82097298D01*
X103223000Y-82397141D01*
X103223000Y-82702859D01*
X103282643Y-83002702D01*
X103399636Y-83285147D01*
X103569483Y-83539342D01*
X103785658Y-83755517D01*
X103882164Y-83820000D01*
X103785658Y-83884483D01*
X103569483Y-84100658D01*
X103399636Y-84354853D01*
X103282643Y-84637298D01*
X103223000Y-84937141D01*
X103223000Y-85242859D01*
X103226564Y-85260778D01*
X103206026Y-85252271D01*
X102983462Y-85208000D01*
X102756538Y-85208000D01*
X102533974Y-85252271D01*
X102324323Y-85339111D01*
X102135643Y-85465183D01*
X101975183Y-85625643D01*
X101849111Y-85814323D01*
X101762271Y-86023974D01*
X101720522Y-86233858D01*
X101322000Y-86632380D01*
X101322000Y-77819039D01*
X103383096Y-77819039D01*
X103423754Y-77953087D01*
X103543963Y-78207420D01*
X103711481Y-78433414D01*
X103919869Y-78622385D01*
X104115982Y-78740000D01*
X103919869Y-78857615D01*
X103711481Y-79046586D01*
X103543963Y-79272580D01*
X103423754Y-79526913D01*
X103383096Y-79660961D01*
X103505085Y-79883000D01*
X104648000Y-79883000D01*
X104648000Y-77597000D01*
X103505085Y-77597000D01*
X103383096Y-77819039D01*
X101322000Y-77819039D01*
X101322000Y-74333925D01*
X101638926Y-74017000D01*
X103230491Y-74017000D01*
X103219362Y-74130000D01*
%TA.AperFunction,Conductor*%
D28*
G36*
X103219362Y-74130000D02*
G01*
X103219362Y-75730000D01*
X103233881Y-75877418D01*
X103276882Y-76019170D01*
X103346710Y-76149810D01*
X103440683Y-76264317D01*
X103555190Y-76358290D01*
X103685830Y-76428118D01*
X103769891Y-76453618D01*
X103711481Y-76506586D01*
X103543963Y-76732580D01*
X103423754Y-76986913D01*
X103383096Y-77120961D01*
X103505085Y-77343000D01*
X104648000Y-77343000D01*
X104648000Y-77323000D01*
X104902000Y-77323000D01*
X104902000Y-77343000D01*
X104922000Y-77343000D01*
X104922000Y-77597000D01*
X104902000Y-77597000D01*
X104902000Y-79883000D01*
X106044915Y-79883000D01*
X106166904Y-79660961D01*
X106126246Y-79526913D01*
X106006037Y-79272580D01*
X105838519Y-79046586D01*
X105630131Y-78857615D01*
X105434018Y-78740000D01*
X105630131Y-78622385D01*
X105838519Y-78433414D01*
X106006037Y-78207420D01*
X106126246Y-77953087D01*
X106166904Y-77819039D01*
X106044916Y-77597002D01*
X106166381Y-77597002D01*
X107048000Y-78478621D01*
X107048001Y-90760690D01*
X107043637Y-90805000D01*
X107061052Y-90981822D01*
X107094824Y-91093151D01*
X107112630Y-91151850D01*
X107196387Y-91308549D01*
X107309105Y-91445896D01*
X107343518Y-91474138D01*
X107427380Y-91558000D01*
X107201538Y-91558000D01*
X106978974Y-91602271D01*
X106947000Y-91615515D01*
X106947000Y-88944299D01*
X106951363Y-88899999D01*
X106947000Y-88855700D01*
X106947000Y-88855693D01*
X106933948Y-88723177D01*
X106882371Y-88553150D01*
X106798614Y-88396451D01*
X106685896Y-88259104D01*
X106651478Y-88230858D01*
X106306506Y-87885886D01*
X106327000Y-87782859D01*
X106327000Y-87477141D01*
X106267357Y-87177298D01*
X106150364Y-86894853D01*
X105980517Y-86640658D01*
X105764342Y-86424483D01*
X105667836Y-86360000D01*
X105764342Y-86295517D01*
X105980517Y-86079342D01*
X106150364Y-85825147D01*
X106267357Y-85542702D01*
X106327000Y-85242859D01*
X106327000Y-84937141D01*
X106267357Y-84637298D01*
X106150364Y-84354853D01*
X105980517Y-84100658D01*
X105764342Y-83884483D01*
X105667836Y-83820000D01*
X105764342Y-83755517D01*
X105980517Y-83539342D01*
X106150364Y-83285147D01*
X106267357Y-83002702D01*
X106327000Y-82702859D01*
X106327000Y-82397141D01*
X106267357Y-82097298D01*
X106150364Y-81814853D01*
X105980517Y-81560658D01*
X105764342Y-81344483D01*
X105557238Y-81206101D01*
X105630131Y-81162385D01*
X105838519Y-80973414D01*
X106006037Y-80747420D01*
X106126246Y-80493087D01*
X106166904Y-80359039D01*
X106044915Y-80137000D01*
X104902000Y-80137000D01*
X104902000Y-80157000D01*
X104648000Y-80157000D01*
X104648000Y-80137000D01*
X103505085Y-80137000D01*
X103383096Y-80359039D01*
X103423754Y-80493087D01*
X103543963Y-80747420D01*
X103711481Y-80973414D01*
X103919869Y-81162385D01*
X103992762Y-81206101D01*
X103785658Y-81344483D01*
X103569483Y-81560658D01*
X103399636Y-81814853D01*
X103282643Y-82097298D01*
X103223000Y-82397141D01*
X103223000Y-82702859D01*
X103282643Y-83002702D01*
X103399636Y-83285147D01*
X103569483Y-83539342D01*
X103785658Y-83755517D01*
X103882164Y-83820000D01*
X103785658Y-83884483D01*
X103569483Y-84100658D01*
X103399636Y-84354853D01*
X103282643Y-84637298D01*
X103223000Y-84937141D01*
X103223000Y-85242859D01*
X103226564Y-85260778D01*
X103206026Y-85252271D01*
X102983462Y-85208000D01*
X102756538Y-85208000D01*
X102533974Y-85252271D01*
X102324323Y-85339111D01*
X102135643Y-85465183D01*
X101975183Y-85625643D01*
X101849111Y-85814323D01*
X101762271Y-86023974D01*
X101720522Y-86233858D01*
X101322000Y-86632380D01*
X101322000Y-77819039D01*
X103383096Y-77819039D01*
X103423754Y-77953087D01*
X103543963Y-78207420D01*
X103711481Y-78433414D01*
X103919869Y-78622385D01*
X104115982Y-78740000D01*
X103919869Y-78857615D01*
X103711481Y-79046586D01*
X103543963Y-79272580D01*
X103423754Y-79526913D01*
X103383096Y-79660961D01*
X103505085Y-79883000D01*
X104648000Y-79883000D01*
X104648000Y-77597000D01*
X103505085Y-77597000D01*
X103383096Y-77819039D01*
X101322000Y-77819039D01*
X101322000Y-74333925D01*
X101638926Y-74017000D01*
X103230491Y-74017000D01*
X103219362Y-74130000D01*
G37*
%TD.AperFunction*%
%TD*%
M02*
