M48
; DRILL file {KiCad (5.1.9)-1} date 04/22/21 20:22:33
; FORMAT={-:-/ absolute / metric / decimal}
; #@! TF.CreationDate,2021-04-22T20:22:33+08:00
; #@! TF.GenerationSoftware,Kicad,Pcbnew,(5.1.9)-1
FMAT,2
METRIC
T1C0.400
T2C0.600
T3C0.800
T4C0.899
T5C1.000
T6C3.200
%
G90
G05
T1
X102.87Y-86.36
X107.315Y-92.71
X109.22Y-82.55
X109.22Y-132.715
X110.49Y-83.82
X111.76Y-129.54
X111.76Y-132.715
X113.03Y-130.81
X114.3Y-131.445
X115.57Y-130.81
X116.84Y-131.445
X118.11Y-130.81
X125.095Y-107.95
X127.0Y-106.68
X127.0Y-125.73
X128.27Y-109.22
X128.27Y-127.0
X129.54Y-111.76
X129.54Y-128.27
X130.81Y-113.03
X144.025Y-115.738
X144.78Y-117.475
X144.78Y-123.19
X146.685Y-120.65
X147.32Y-124.46
X149.225Y-77.47
X149.225Y-124.46
X150.495Y-80.01
X151.13Y-124.46
X151.765Y-82.55
X153.035Y-124.46
X153.035Y-85.09
X154.305Y-99.06
X154.305Y-111.76
X154.305Y-114.3
X154.94Y-124.46
X158.75Y-91.44
X160.02Y-86.36
X167.005Y-131.445
X172.72Y-132.08
X180.975Y-83.82
X180.975Y-88.9
X182.245Y-83.82
X182.245Y-90.17
X183.515Y-83.82
X183.515Y-92.075
X184.785Y-82.55
X184.785Y-92.075
T2
X97.79Y-127.635
X97.79Y-130.175
X99.06Y-128.905
X99.06Y-131.445
X100.33Y-130.175
X102.235Y-80.01
X104.775Y-100.33
X120.65Y-74.93
X120.65Y-81.28
X123.19Y-88.9
X123.19Y-97.79
X123.19Y-102.87
X125.73Y-74.93
X125.73Y-81.28
X130.81Y-74.93
X130.81Y-81.28
X130.81Y-88.9
X133.985Y-121.92
X135.255Y-97.79
X135.255Y-102.87
X135.89Y-128.27
X136.525Y-85.09
X136.525Y-88.9
X137.795Y-121.92
X141.605Y-126.365
X141.605Y-130.81
X147.955Y-128.27
X149.86Y-130.175
X151.765Y-132.08
X161.29Y-101.6
X161.29Y-106.045
X161.29Y-110.49
X164.465Y-76.2
X164.465Y-80.01
X165.1Y-111.76
X165.1Y-113.665
X170.815Y-109.855
X170.815Y-119.38
X178.435Y-71.755
X178.435Y-102.235
X178.435Y-117.475
X178.435Y-132.715
X181.61Y-71.755
X184.785Y-71.755
X194.945Y-71.755
X194.945Y-86.995
X194.945Y-102.235
X194.945Y-117.475
X194.945Y-132.715
T3
X104.775Y-74.93
X104.775Y-77.47
X104.775Y-80.01
X104.775Y-82.55
X104.775Y-85.09
X104.775Y-87.63
X104.775Y-90.17
X104.775Y-92.71
X104.775Y-95.25
X104.775Y-97.79
X112.395Y-74.93
X112.395Y-77.47
X112.395Y-80.01
X112.395Y-82.55
X112.395Y-85.09
X112.395Y-87.63
X112.395Y-90.17
X112.395Y-92.71
X112.395Y-95.25
X112.395Y-97.79
X116.205Y-74.93
X116.205Y-79.93
X123.19Y-77.47
X123.19Y-85.09
X123.19Y-92.71
X130.81Y-77.47
X130.81Y-85.09
X130.81Y-92.71
X136.525Y-74.93
X136.525Y-79.93
X141.605Y-74.93
X141.605Y-77.47
X141.605Y-80.01
X141.605Y-82.55
X141.605Y-85.09
X141.605Y-87.63
X141.605Y-90.17
X141.605Y-92.71
X141.605Y-95.25
X141.605Y-97.79
X141.605Y-100.33
X141.605Y-102.87
X141.605Y-105.41
X141.605Y-107.95
X141.605Y-110.49
X141.605Y-113.03
X141.605Y-115.57
X141.605Y-118.11
X141.605Y-120.65
X141.605Y-123.19
X156.845Y-74.93
X156.845Y-77.47
X156.845Y-80.01
X156.845Y-82.55
X156.845Y-85.09
X156.845Y-87.63
X156.845Y-90.17
X156.845Y-92.71
X156.845Y-95.25
X156.845Y-97.79
X156.845Y-100.33
X156.845Y-102.87
X156.845Y-105.41
X156.845Y-107.95
X156.845Y-110.49
X156.845Y-113.03
X156.845Y-115.57
X156.845Y-118.11
X156.845Y-120.65
X156.845Y-123.19
X160.655Y-74.93
X160.655Y-79.93
X170.815Y-74.93
X170.815Y-77.47
X170.815Y-80.01
X170.815Y-82.55
X170.815Y-85.09
X170.815Y-87.63
X170.815Y-90.17
X170.815Y-92.71
X170.815Y-95.25
X170.815Y-97.79
X170.815Y-104.14
X170.815Y-106.64
X170.815Y-113.665
X170.815Y-116.165
X170.815Y-123.19
X170.815Y-125.69
X178.435Y-74.93
X178.435Y-77.47
X178.435Y-80.01
X178.435Y-82.55
X178.435Y-85.09
X178.435Y-87.63
X178.435Y-90.17
X178.435Y-92.71
X178.435Y-95.25
X178.435Y-97.79
X182.245Y-74.93
X182.245Y-79.93
T4
X188.319Y-80.58
X188.319Y-83.349
X188.319Y-86.12
X188.319Y-88.891
X188.319Y-91.66
X190.859Y-81.965
X190.859Y-84.736
X190.859Y-87.504
X190.859Y-90.275
T5
X104.14Y-121.285
X104.14Y-123.825
X106.68Y-121.285
X106.68Y-123.825
X109.22Y-121.285
X109.22Y-123.825
X121.92Y-113.665
X121.92Y-116.205
X121.92Y-118.745
X121.92Y-121.285
X121.92Y-123.825
X124.46Y-113.665
X124.46Y-116.205
X124.46Y-118.745
X124.46Y-121.285
X124.46Y-123.825
T6
X189.589Y-73.626
X189.589Y-98.614
T0
M30
