%TF.GenerationSoftware,KiCad,Pcbnew,(5.1.9)-1*%
%TF.CreationDate,2021-04-22T20:22:13+08:00*%
%TF.ProjectId,BasicSerial,42617369-6353-4657-9269-616c2e6b6963,rev?*%
%TF.SameCoordinates,Original*%
%TF.FileFunction,Legend,Top*%
%TF.FilePolarity,Positive*%
%FSLAX46Y46*%
G04 Gerber Fmt 4.6, Leading zero omitted, Abs format (unit mm)*
G04 Created by KiCad (PCBNEW (5.1.9)-1) date 2021-04-22 20:22:13*
%MOMM*%
%LPD*%
G01*
G04 APERTURE LIST*
%ADD10C,0.150000*%
%ADD11C,0.450000*%
%ADD12C,0.100000*%
%ADD13C,0.120000*%
%ADD14C,0.381000*%
%ADD15C,0.304800*%
G04 APERTURE END LIST*
D10*
X181864523Y-114392380D02*
X182197857Y-115392380D01*
X182531190Y-114392380D01*
X183245476Y-115344761D02*
X183150238Y-115392380D01*
X182959761Y-115392380D01*
X182864523Y-115344761D01*
X182816904Y-115249523D01*
X182816904Y-114868571D01*
X182864523Y-114773333D01*
X182959761Y-114725714D01*
X183150238Y-114725714D01*
X183245476Y-114773333D01*
X183293095Y-114868571D01*
X183293095Y-114963809D01*
X182816904Y-115059047D01*
X183721666Y-115392380D02*
X183721666Y-114725714D01*
X183721666Y-114916190D02*
X183769285Y-114820952D01*
X183816904Y-114773333D01*
X183912142Y-114725714D01*
X184007380Y-114725714D01*
X184293095Y-115344761D02*
X184388333Y-115392380D01*
X184578809Y-115392380D01*
X184674047Y-115344761D01*
X184721666Y-115249523D01*
X184721666Y-115201904D01*
X184674047Y-115106666D01*
X184578809Y-115059047D01*
X184435952Y-115059047D01*
X184340714Y-115011428D01*
X184293095Y-114916190D01*
X184293095Y-114868571D01*
X184340714Y-114773333D01*
X184435952Y-114725714D01*
X184578809Y-114725714D01*
X184674047Y-114773333D01*
X185150238Y-115392380D02*
X185150238Y-114725714D01*
X185150238Y-114392380D02*
X185102619Y-114440000D01*
X185150238Y-114487619D01*
X185197857Y-114440000D01*
X185150238Y-114392380D01*
X185150238Y-114487619D01*
X185769285Y-115392380D02*
X185674047Y-115344761D01*
X185626428Y-115297142D01*
X185578809Y-115201904D01*
X185578809Y-114916190D01*
X185626428Y-114820952D01*
X185674047Y-114773333D01*
X185769285Y-114725714D01*
X185912142Y-114725714D01*
X186007380Y-114773333D01*
X186055000Y-114820952D01*
X186102619Y-114916190D01*
X186102619Y-115201904D01*
X186055000Y-115297142D01*
X186007380Y-115344761D01*
X185912142Y-115392380D01*
X185769285Y-115392380D01*
X186531190Y-114725714D02*
X186531190Y-115392380D01*
X186531190Y-114820952D02*
X186578809Y-114773333D01*
X186674047Y-114725714D01*
X186816904Y-114725714D01*
X186912142Y-114773333D01*
X186959761Y-114868571D01*
X186959761Y-115392380D01*
X188721666Y-115392380D02*
X188150238Y-115392380D01*
X188435952Y-115392380D02*
X188435952Y-114392380D01*
X188340714Y-114535238D01*
X188245476Y-114630476D01*
X188150238Y-114678095D01*
X189150238Y-115297142D02*
X189197857Y-115344761D01*
X189150238Y-115392380D01*
X189102619Y-115344761D01*
X189150238Y-115297142D01*
X189150238Y-115392380D01*
X189816904Y-114392380D02*
X189912142Y-114392380D01*
X190007380Y-114440000D01*
X190055000Y-114487619D01*
X190102619Y-114582857D01*
X190150238Y-114773333D01*
X190150238Y-115011428D01*
X190102619Y-115201904D01*
X190055000Y-115297142D01*
X190007380Y-115344761D01*
X189912142Y-115392380D01*
X189816904Y-115392380D01*
X189721666Y-115344761D01*
X189674047Y-115297142D01*
X189626428Y-115201904D01*
X189578809Y-115011428D01*
X189578809Y-114773333D01*
X189626428Y-114582857D01*
X189674047Y-114487619D01*
X189721666Y-114440000D01*
X189816904Y-114392380D01*
X179507380Y-118597142D02*
X179459761Y-118644761D01*
X179316904Y-118692380D01*
X179221666Y-118692380D01*
X179078809Y-118644761D01*
X178983571Y-118549523D01*
X178935952Y-118454285D01*
X178888333Y-118263809D01*
X178888333Y-118120952D01*
X178935952Y-117930476D01*
X178983571Y-117835238D01*
X179078809Y-117740000D01*
X179221666Y-117692380D01*
X179316904Y-117692380D01*
X179459761Y-117740000D01*
X179507380Y-117787619D01*
X180078809Y-118692380D02*
X179983571Y-118644761D01*
X179935952Y-118597142D01*
X179888333Y-118501904D01*
X179888333Y-118216190D01*
X179935952Y-118120952D01*
X179983571Y-118073333D01*
X180078809Y-118025714D01*
X180221666Y-118025714D01*
X180316904Y-118073333D01*
X180364523Y-118120952D01*
X180412142Y-118216190D01*
X180412142Y-118501904D01*
X180364523Y-118597142D01*
X180316904Y-118644761D01*
X180221666Y-118692380D01*
X180078809Y-118692380D01*
X180840714Y-118025714D02*
X180840714Y-119025714D01*
X180840714Y-118073333D02*
X180935952Y-118025714D01*
X181126428Y-118025714D01*
X181221666Y-118073333D01*
X181269285Y-118120952D01*
X181316904Y-118216190D01*
X181316904Y-118501904D01*
X181269285Y-118597142D01*
X181221666Y-118644761D01*
X181126428Y-118692380D01*
X180935952Y-118692380D01*
X180840714Y-118644761D01*
X181650238Y-118025714D02*
X181888333Y-118692380D01*
X182126428Y-118025714D02*
X181888333Y-118692380D01*
X181793095Y-118930476D01*
X181745476Y-118978095D01*
X181650238Y-119025714D01*
X182507380Y-118692380D02*
X182507380Y-118025714D01*
X182507380Y-118216190D02*
X182555000Y-118120952D01*
X182602619Y-118073333D01*
X182697857Y-118025714D01*
X182793095Y-118025714D01*
X183126428Y-118692380D02*
X183126428Y-118025714D01*
X183126428Y-117692380D02*
X183078809Y-117740000D01*
X183126428Y-117787619D01*
X183174047Y-117740000D01*
X183126428Y-117692380D01*
X183126428Y-117787619D01*
X184031190Y-118025714D02*
X184031190Y-118835238D01*
X183983571Y-118930476D01*
X183935952Y-118978095D01*
X183840714Y-119025714D01*
X183697857Y-119025714D01*
X183602619Y-118978095D01*
X184031190Y-118644761D02*
X183935952Y-118692380D01*
X183745476Y-118692380D01*
X183650238Y-118644761D01*
X183602619Y-118597142D01*
X183555000Y-118501904D01*
X183555000Y-118216190D01*
X183602619Y-118120952D01*
X183650238Y-118073333D01*
X183745476Y-118025714D01*
X183935952Y-118025714D01*
X184031190Y-118073333D01*
X184507380Y-118692380D02*
X184507380Y-117692380D01*
X184935952Y-118692380D02*
X184935952Y-118168571D01*
X184888333Y-118073333D01*
X184793095Y-118025714D01*
X184650238Y-118025714D01*
X184555000Y-118073333D01*
X184507380Y-118120952D01*
X185269285Y-118025714D02*
X185650238Y-118025714D01*
X185412142Y-117692380D02*
X185412142Y-118549523D01*
X185459761Y-118644761D01*
X185555000Y-118692380D01*
X185650238Y-118692380D01*
X187031190Y-119073333D02*
X186983571Y-119025714D01*
X186888333Y-118882857D01*
X186840714Y-118787619D01*
X186793095Y-118644761D01*
X186745476Y-118406666D01*
X186745476Y-118216190D01*
X186793095Y-117978095D01*
X186840714Y-117835238D01*
X186888333Y-117740000D01*
X186983571Y-117597142D01*
X187031190Y-117549523D01*
X187983571Y-118597142D02*
X187935952Y-118644761D01*
X187793095Y-118692380D01*
X187697857Y-118692380D01*
X187555000Y-118644761D01*
X187459761Y-118549523D01*
X187412142Y-118454285D01*
X187364523Y-118263809D01*
X187364523Y-118120952D01*
X187412142Y-117930476D01*
X187459761Y-117835238D01*
X187555000Y-117740000D01*
X187697857Y-117692380D01*
X187793095Y-117692380D01*
X187935952Y-117740000D01*
X187983571Y-117787619D01*
X188316904Y-119073333D02*
X188364523Y-119025714D01*
X188459761Y-118882857D01*
X188507380Y-118787619D01*
X188555000Y-118644761D01*
X188602619Y-118406666D01*
X188602619Y-118216190D01*
X188555000Y-117978095D01*
X188507380Y-117835238D01*
X188459761Y-117740000D01*
X188364523Y-117597142D01*
X188316904Y-117549523D01*
X189793095Y-117787619D02*
X189840714Y-117740000D01*
X189935952Y-117692380D01*
X190174047Y-117692380D01*
X190269285Y-117740000D01*
X190316904Y-117787619D01*
X190364523Y-117882857D01*
X190364523Y-117978095D01*
X190316904Y-118120952D01*
X189745476Y-118692380D01*
X190364523Y-118692380D01*
X190983571Y-117692380D02*
X191078809Y-117692380D01*
X191174047Y-117740000D01*
X191221666Y-117787619D01*
X191269285Y-117882857D01*
X191316904Y-118073333D01*
X191316904Y-118311428D01*
X191269285Y-118501904D01*
X191221666Y-118597142D01*
X191174047Y-118644761D01*
X191078809Y-118692380D01*
X190983571Y-118692380D01*
X190888333Y-118644761D01*
X190840714Y-118597142D01*
X190793095Y-118501904D01*
X190745476Y-118311428D01*
X190745476Y-118073333D01*
X190793095Y-117882857D01*
X190840714Y-117787619D01*
X190888333Y-117740000D01*
X190983571Y-117692380D01*
X191697857Y-117787619D02*
X191745476Y-117740000D01*
X191840714Y-117692380D01*
X192078809Y-117692380D01*
X192174047Y-117740000D01*
X192221666Y-117787619D01*
X192269285Y-117882857D01*
X192269285Y-117978095D01*
X192221666Y-118120952D01*
X191650238Y-118692380D01*
X192269285Y-118692380D01*
X193221666Y-118692380D02*
X192650238Y-118692380D01*
X192935952Y-118692380D02*
X192935952Y-117692380D01*
X192840714Y-117835238D01*
X192745476Y-117930476D01*
X192650238Y-117978095D01*
X176769285Y-119342380D02*
X177340714Y-119342380D01*
X177055000Y-120342380D02*
X177055000Y-119342380D01*
X177674047Y-120342380D02*
X177674047Y-119675714D01*
X177674047Y-119342380D02*
X177626428Y-119390000D01*
X177674047Y-119437619D01*
X177721666Y-119390000D01*
X177674047Y-119342380D01*
X177674047Y-119437619D01*
X178007380Y-119675714D02*
X178388333Y-119675714D01*
X178150238Y-119342380D02*
X178150238Y-120199523D01*
X178197857Y-120294761D01*
X178293095Y-120342380D01*
X178388333Y-120342380D01*
X179150238Y-120342380D02*
X179150238Y-119818571D01*
X179102619Y-119723333D01*
X179007380Y-119675714D01*
X178816904Y-119675714D01*
X178721666Y-119723333D01*
X179150238Y-120294761D02*
X179055000Y-120342380D01*
X178816904Y-120342380D01*
X178721666Y-120294761D01*
X178674047Y-120199523D01*
X178674047Y-120104285D01*
X178721666Y-120009047D01*
X178816904Y-119961428D01*
X179055000Y-119961428D01*
X179150238Y-119913809D01*
X179626428Y-119675714D02*
X179626428Y-120342380D01*
X179626428Y-119770952D02*
X179674047Y-119723333D01*
X179769285Y-119675714D01*
X179912142Y-119675714D01*
X180007380Y-119723333D01*
X180055000Y-119818571D01*
X180055000Y-120342380D01*
X180531190Y-120342380D02*
X180531190Y-119675714D01*
X180531190Y-119342380D02*
X180483571Y-119390000D01*
X180531190Y-119437619D01*
X180578809Y-119390000D01*
X180531190Y-119342380D01*
X180531190Y-119437619D01*
X181435952Y-119675714D02*
X181435952Y-120342380D01*
X181007380Y-119675714D02*
X181007380Y-120199523D01*
X181055000Y-120294761D01*
X181150238Y-120342380D01*
X181293095Y-120342380D01*
X181388333Y-120294761D01*
X181435952Y-120247142D01*
X181912142Y-120342380D02*
X181912142Y-119675714D01*
X181912142Y-119770952D02*
X181959761Y-119723333D01*
X182055000Y-119675714D01*
X182197857Y-119675714D01*
X182293095Y-119723333D01*
X182340714Y-119818571D01*
X182340714Y-120342380D01*
X182340714Y-119818571D02*
X182388333Y-119723333D01*
X182483571Y-119675714D01*
X182626428Y-119675714D01*
X182721666Y-119723333D01*
X182769285Y-119818571D01*
X182769285Y-120342380D01*
X183959761Y-120294761D02*
X184102619Y-120342380D01*
X184340714Y-120342380D01*
X184435952Y-120294761D01*
X184483571Y-120247142D01*
X184531190Y-120151904D01*
X184531190Y-120056666D01*
X184483571Y-119961428D01*
X184435952Y-119913809D01*
X184340714Y-119866190D01*
X184150238Y-119818571D01*
X184055000Y-119770952D01*
X184007380Y-119723333D01*
X183959761Y-119628095D01*
X183959761Y-119532857D01*
X184007380Y-119437619D01*
X184055000Y-119390000D01*
X184150238Y-119342380D01*
X184388333Y-119342380D01*
X184531190Y-119390000D01*
X184816904Y-119675714D02*
X185197857Y-119675714D01*
X184959761Y-119342380D02*
X184959761Y-120199523D01*
X185007380Y-120294761D01*
X185102619Y-120342380D01*
X185197857Y-120342380D01*
X185959761Y-119675714D02*
X185959761Y-120342380D01*
X185531190Y-119675714D02*
X185531190Y-120199523D01*
X185578809Y-120294761D01*
X185674047Y-120342380D01*
X185816904Y-120342380D01*
X185912142Y-120294761D01*
X185959761Y-120247142D01*
X186864523Y-120342380D02*
X186864523Y-119342380D01*
X186864523Y-120294761D02*
X186769285Y-120342380D01*
X186578809Y-120342380D01*
X186483571Y-120294761D01*
X186435952Y-120247142D01*
X186388333Y-120151904D01*
X186388333Y-119866190D01*
X186435952Y-119770952D01*
X186483571Y-119723333D01*
X186578809Y-119675714D01*
X186769285Y-119675714D01*
X186864523Y-119723333D01*
X187340714Y-120342380D02*
X187340714Y-119675714D01*
X187340714Y-119342380D02*
X187293095Y-119390000D01*
X187340714Y-119437619D01*
X187388333Y-119390000D01*
X187340714Y-119342380D01*
X187340714Y-119437619D01*
X187959761Y-120342380D02*
X187864523Y-120294761D01*
X187816904Y-120247142D01*
X187769285Y-120151904D01*
X187769285Y-119866190D01*
X187816904Y-119770952D01*
X187864523Y-119723333D01*
X187959761Y-119675714D01*
X188102619Y-119675714D01*
X188197857Y-119723333D01*
X188245476Y-119770952D01*
X188293095Y-119866190D01*
X188293095Y-120151904D01*
X188245476Y-120247142D01*
X188197857Y-120294761D01*
X188102619Y-120342380D01*
X187959761Y-120342380D01*
X188674047Y-120294761D02*
X188769285Y-120342380D01*
X188959761Y-120342380D01*
X189055000Y-120294761D01*
X189102619Y-120199523D01*
X189102619Y-120151904D01*
X189055000Y-120056666D01*
X188959761Y-120009047D01*
X188816904Y-120009047D01*
X188721666Y-119961428D01*
X188674047Y-119866190D01*
X188674047Y-119818571D01*
X188721666Y-119723333D01*
X188816904Y-119675714D01*
X188959761Y-119675714D01*
X189055000Y-119723333D01*
X190293095Y-120342380D02*
X190293095Y-119342380D01*
X190674047Y-119342380D01*
X190769285Y-119390000D01*
X190816904Y-119437619D01*
X190864523Y-119532857D01*
X190864523Y-119675714D01*
X190816904Y-119770952D01*
X190769285Y-119818571D01*
X190674047Y-119866190D01*
X190293095Y-119866190D01*
X191150238Y-119675714D02*
X191531190Y-119675714D01*
X191293095Y-119342380D02*
X191293095Y-120199523D01*
X191340714Y-120294761D01*
X191435952Y-120342380D01*
X191531190Y-120342380D01*
X191769285Y-119675714D02*
X192007380Y-120342380D01*
X192245476Y-119675714D02*
X192007380Y-120342380D01*
X191912142Y-120580476D01*
X191864523Y-120628095D01*
X191769285Y-120675714D01*
X193864523Y-120342380D02*
X193388333Y-120342380D01*
X193388333Y-119342380D01*
X194055000Y-119675714D02*
X194435952Y-119675714D01*
X194197857Y-119342380D02*
X194197857Y-120199523D01*
X194245476Y-120294761D01*
X194340714Y-120342380D01*
X194435952Y-120342380D01*
X195197857Y-120342380D02*
X195197857Y-119342380D01*
X195197857Y-120294761D02*
X195102619Y-120342380D01*
X194912142Y-120342380D01*
X194816904Y-120294761D01*
X194769285Y-120247142D01*
X194721666Y-120151904D01*
X194721666Y-119866190D01*
X194769285Y-119770952D01*
X194816904Y-119723333D01*
X194912142Y-119675714D01*
X195102619Y-119675714D01*
X195197857Y-119723333D01*
X179483571Y-123547142D02*
X179435952Y-123594761D01*
X179293095Y-123642380D01*
X179197857Y-123642380D01*
X179055000Y-123594761D01*
X178959761Y-123499523D01*
X178912142Y-123404285D01*
X178864523Y-123213809D01*
X178864523Y-123070952D01*
X178912142Y-122880476D01*
X178959761Y-122785238D01*
X179055000Y-122690000D01*
X179197857Y-122642380D01*
X179293095Y-122642380D01*
X179435952Y-122690000D01*
X179483571Y-122737619D01*
X179912142Y-123642380D02*
X179912142Y-122975714D01*
X179912142Y-123166190D02*
X179959761Y-123070952D01*
X180007380Y-123023333D01*
X180102619Y-122975714D01*
X180197857Y-122975714D01*
X180912142Y-123594761D02*
X180816904Y-123642380D01*
X180626428Y-123642380D01*
X180531190Y-123594761D01*
X180483571Y-123499523D01*
X180483571Y-123118571D01*
X180531190Y-123023333D01*
X180626428Y-122975714D01*
X180816904Y-122975714D01*
X180912142Y-123023333D01*
X180959761Y-123118571D01*
X180959761Y-123213809D01*
X180483571Y-123309047D01*
X181816904Y-123642380D02*
X181816904Y-123118571D01*
X181769285Y-123023333D01*
X181674047Y-122975714D01*
X181483571Y-122975714D01*
X181388333Y-123023333D01*
X181816904Y-123594761D02*
X181721666Y-123642380D01*
X181483571Y-123642380D01*
X181388333Y-123594761D01*
X181340714Y-123499523D01*
X181340714Y-123404285D01*
X181388333Y-123309047D01*
X181483571Y-123261428D01*
X181721666Y-123261428D01*
X181816904Y-123213809D01*
X182150238Y-122975714D02*
X182531190Y-122975714D01*
X182293095Y-122642380D02*
X182293095Y-123499523D01*
X182340714Y-123594761D01*
X182435952Y-123642380D01*
X182531190Y-123642380D01*
X182864523Y-123642380D02*
X182864523Y-122975714D01*
X182864523Y-122642380D02*
X182816904Y-122690000D01*
X182864523Y-122737619D01*
X182912142Y-122690000D01*
X182864523Y-122642380D01*
X182864523Y-122737619D01*
X183245476Y-122975714D02*
X183483571Y-123642380D01*
X183721666Y-122975714D01*
X184483571Y-123594761D02*
X184388333Y-123642380D01*
X184197857Y-123642380D01*
X184102619Y-123594761D01*
X184055000Y-123499523D01*
X184055000Y-123118571D01*
X184102619Y-123023333D01*
X184197857Y-122975714D01*
X184388333Y-122975714D01*
X184483571Y-123023333D01*
X184531190Y-123118571D01*
X184531190Y-123213809D01*
X184055000Y-123309047D01*
X186293095Y-123547142D02*
X186245476Y-123594761D01*
X186102619Y-123642380D01*
X186007380Y-123642380D01*
X185864523Y-123594761D01*
X185769285Y-123499523D01*
X185721666Y-123404285D01*
X185674047Y-123213809D01*
X185674047Y-123070952D01*
X185721666Y-122880476D01*
X185769285Y-122785238D01*
X185864523Y-122690000D01*
X186007380Y-122642380D01*
X186102619Y-122642380D01*
X186245476Y-122690000D01*
X186293095Y-122737619D01*
X186864523Y-123642380D02*
X186769285Y-123594761D01*
X186721666Y-123547142D01*
X186674047Y-123451904D01*
X186674047Y-123166190D01*
X186721666Y-123070952D01*
X186769285Y-123023333D01*
X186864523Y-122975714D01*
X187007380Y-122975714D01*
X187102619Y-123023333D01*
X187150238Y-123070952D01*
X187197857Y-123166190D01*
X187197857Y-123451904D01*
X187150238Y-123547142D01*
X187102619Y-123594761D01*
X187007380Y-123642380D01*
X186864523Y-123642380D01*
X187626428Y-123642380D02*
X187626428Y-122975714D01*
X187626428Y-123070952D02*
X187674047Y-123023333D01*
X187769285Y-122975714D01*
X187912142Y-122975714D01*
X188007380Y-123023333D01*
X188055000Y-123118571D01*
X188055000Y-123642380D01*
X188055000Y-123118571D02*
X188102619Y-123023333D01*
X188197857Y-122975714D01*
X188340714Y-122975714D01*
X188435952Y-123023333D01*
X188483571Y-123118571D01*
X188483571Y-123642380D01*
X188959761Y-123642380D02*
X188959761Y-122975714D01*
X188959761Y-123070952D02*
X189007380Y-123023333D01*
X189102619Y-122975714D01*
X189245476Y-122975714D01*
X189340714Y-123023333D01*
X189388333Y-123118571D01*
X189388333Y-123642380D01*
X189388333Y-123118571D02*
X189435952Y-123023333D01*
X189531190Y-122975714D01*
X189674047Y-122975714D01*
X189769285Y-123023333D01*
X189816904Y-123118571D01*
X189816904Y-123642380D01*
X190435952Y-123642380D02*
X190340714Y-123594761D01*
X190293095Y-123547142D01*
X190245476Y-123451904D01*
X190245476Y-123166190D01*
X190293095Y-123070952D01*
X190340714Y-123023333D01*
X190435952Y-122975714D01*
X190578809Y-122975714D01*
X190674047Y-123023333D01*
X190721666Y-123070952D01*
X190769285Y-123166190D01*
X190769285Y-123451904D01*
X190721666Y-123547142D01*
X190674047Y-123594761D01*
X190578809Y-123642380D01*
X190435952Y-123642380D01*
X191197857Y-122975714D02*
X191197857Y-123642380D01*
X191197857Y-123070952D02*
X191245476Y-123023333D01*
X191340714Y-122975714D01*
X191483571Y-122975714D01*
X191578809Y-123023333D01*
X191626428Y-123118571D01*
X191626428Y-123642380D01*
X192055000Y-123594761D02*
X192150238Y-123642380D01*
X192340714Y-123642380D01*
X192435952Y-123594761D01*
X192483571Y-123499523D01*
X192483571Y-123451904D01*
X192435952Y-123356666D01*
X192340714Y-123309047D01*
X192197857Y-123309047D01*
X192102619Y-123261428D01*
X192055000Y-123166190D01*
X192055000Y-123118571D01*
X192102619Y-123023333D01*
X192197857Y-122975714D01*
X192340714Y-122975714D01*
X192435952Y-123023333D01*
X177864523Y-125006666D02*
X178340714Y-125006666D01*
X177769285Y-125292380D02*
X178102619Y-124292380D01*
X178435952Y-125292380D01*
X178626428Y-124625714D02*
X179007380Y-124625714D01*
X178769285Y-124292380D02*
X178769285Y-125149523D01*
X178816904Y-125244761D01*
X178912142Y-125292380D01*
X179007380Y-125292380D01*
X179197857Y-124625714D02*
X179578809Y-124625714D01*
X179340714Y-124292380D02*
X179340714Y-125149523D01*
X179388333Y-125244761D01*
X179483571Y-125292380D01*
X179578809Y-125292380D01*
X179912142Y-125292380D02*
X179912142Y-124625714D01*
X179912142Y-124816190D02*
X179959761Y-124720952D01*
X180007380Y-124673333D01*
X180102619Y-124625714D01*
X180197857Y-124625714D01*
X180531190Y-125292380D02*
X180531190Y-124625714D01*
X180531190Y-124292380D02*
X180483571Y-124340000D01*
X180531190Y-124387619D01*
X180578809Y-124340000D01*
X180531190Y-124292380D01*
X180531190Y-124387619D01*
X181007380Y-125292380D02*
X181007380Y-124292380D01*
X181007380Y-124673333D02*
X181102619Y-124625714D01*
X181293095Y-124625714D01*
X181388333Y-124673333D01*
X181435952Y-124720952D01*
X181483571Y-124816190D01*
X181483571Y-125101904D01*
X181435952Y-125197142D01*
X181388333Y-125244761D01*
X181293095Y-125292380D01*
X181102619Y-125292380D01*
X181007380Y-125244761D01*
X182340714Y-124625714D02*
X182340714Y-125292380D01*
X181912142Y-124625714D02*
X181912142Y-125149523D01*
X181959761Y-125244761D01*
X182055000Y-125292380D01*
X182197857Y-125292380D01*
X182293095Y-125244761D01*
X182340714Y-125197142D01*
X182674047Y-124625714D02*
X183055000Y-124625714D01*
X182816904Y-124292380D02*
X182816904Y-125149523D01*
X182864523Y-125244761D01*
X182959761Y-125292380D01*
X183055000Y-125292380D01*
X183388333Y-125292380D02*
X183388333Y-124625714D01*
X183388333Y-124292380D02*
X183340714Y-124340000D01*
X183388333Y-124387619D01*
X183435952Y-124340000D01*
X183388333Y-124292380D01*
X183388333Y-124387619D01*
X184007380Y-125292380D02*
X183912142Y-125244761D01*
X183864523Y-125197142D01*
X183816904Y-125101904D01*
X183816904Y-124816190D01*
X183864523Y-124720952D01*
X183912142Y-124673333D01*
X184007380Y-124625714D01*
X184150238Y-124625714D01*
X184245476Y-124673333D01*
X184293095Y-124720952D01*
X184340714Y-124816190D01*
X184340714Y-125101904D01*
X184293095Y-125197142D01*
X184245476Y-125244761D01*
X184150238Y-125292380D01*
X184007380Y-125292380D01*
X184769285Y-124625714D02*
X184769285Y-125292380D01*
X184769285Y-124720952D02*
X184816904Y-124673333D01*
X184912142Y-124625714D01*
X185055000Y-124625714D01*
X185150238Y-124673333D01*
X185197857Y-124768571D01*
X185197857Y-125292380D01*
X185674047Y-124911428D02*
X186435952Y-124911428D01*
X186864523Y-125244761D02*
X187007380Y-125292380D01*
X187245476Y-125292380D01*
X187340714Y-125244761D01*
X187388333Y-125197142D01*
X187435952Y-125101904D01*
X187435952Y-125006666D01*
X187388333Y-124911428D01*
X187340714Y-124863809D01*
X187245476Y-124816190D01*
X187055000Y-124768571D01*
X186959761Y-124720952D01*
X186912142Y-124673333D01*
X186864523Y-124578095D01*
X186864523Y-124482857D01*
X186912142Y-124387619D01*
X186959761Y-124340000D01*
X187055000Y-124292380D01*
X187293095Y-124292380D01*
X187435952Y-124340000D01*
X187864523Y-125292380D02*
X187864523Y-124292380D01*
X188293095Y-125292380D02*
X188293095Y-124768571D01*
X188245476Y-124673333D01*
X188150238Y-124625714D01*
X188007380Y-124625714D01*
X187912142Y-124673333D01*
X187864523Y-124720952D01*
X189197857Y-125292380D02*
X189197857Y-124768571D01*
X189150238Y-124673333D01*
X189055000Y-124625714D01*
X188864523Y-124625714D01*
X188769285Y-124673333D01*
X189197857Y-125244761D02*
X189102619Y-125292380D01*
X188864523Y-125292380D01*
X188769285Y-125244761D01*
X188721666Y-125149523D01*
X188721666Y-125054285D01*
X188769285Y-124959047D01*
X188864523Y-124911428D01*
X189102619Y-124911428D01*
X189197857Y-124863809D01*
X189674047Y-125292380D02*
X189674047Y-124625714D01*
X189674047Y-124816190D02*
X189721666Y-124720952D01*
X189769285Y-124673333D01*
X189864523Y-124625714D01*
X189959761Y-124625714D01*
X190674047Y-125244761D02*
X190578809Y-125292380D01*
X190388333Y-125292380D01*
X190293095Y-125244761D01*
X190245476Y-125149523D01*
X190245476Y-124768571D01*
X190293095Y-124673333D01*
X190388333Y-124625714D01*
X190578809Y-124625714D01*
X190674047Y-124673333D01*
X190721666Y-124768571D01*
X190721666Y-124863809D01*
X190245476Y-124959047D01*
X191102619Y-125006666D02*
X191578809Y-125006666D01*
X191007380Y-125292380D02*
X191340714Y-124292380D01*
X191674047Y-125292380D01*
X192150238Y-125292380D02*
X192055000Y-125244761D01*
X192007380Y-125149523D01*
X192007380Y-124292380D01*
X192531190Y-125292380D02*
X192531190Y-124625714D01*
X192531190Y-124292380D02*
X192483571Y-124340000D01*
X192531190Y-124387619D01*
X192578809Y-124340000D01*
X192531190Y-124292380D01*
X192531190Y-124387619D01*
X193007380Y-125292380D02*
X193007380Y-124292380D01*
X193102619Y-124911428D02*
X193388333Y-125292380D01*
X193388333Y-124625714D02*
X193007380Y-125006666D01*
X194197857Y-125244761D02*
X194102619Y-125292380D01*
X193912142Y-125292380D01*
X193816904Y-125244761D01*
X193769285Y-125149523D01*
X193769285Y-124768571D01*
X193816904Y-124673333D01*
X193912142Y-124625714D01*
X194102619Y-124625714D01*
X194197857Y-124673333D01*
X194245476Y-124768571D01*
X194245476Y-124863809D01*
X193769285Y-124959047D01*
X180388333Y-126275714D02*
X180388333Y-126942380D01*
X180150238Y-125894761D02*
X179912142Y-126609047D01*
X180531190Y-126609047D01*
X180912142Y-126847142D02*
X180959761Y-126894761D01*
X180912142Y-126942380D01*
X180864523Y-126894761D01*
X180912142Y-126847142D01*
X180912142Y-126942380D01*
X181578809Y-125942380D02*
X181674047Y-125942380D01*
X181769285Y-125990000D01*
X181816904Y-126037619D01*
X181864523Y-126132857D01*
X181912142Y-126323333D01*
X181912142Y-126561428D01*
X181864523Y-126751904D01*
X181816904Y-126847142D01*
X181769285Y-126894761D01*
X181674047Y-126942380D01*
X181578809Y-126942380D01*
X181483571Y-126894761D01*
X181435952Y-126847142D01*
X181388333Y-126751904D01*
X181340714Y-126561428D01*
X181340714Y-126323333D01*
X181388333Y-126132857D01*
X181435952Y-126037619D01*
X181483571Y-125990000D01*
X181578809Y-125942380D01*
X183102619Y-126942380D02*
X183102619Y-125942380D01*
X183578809Y-126275714D02*
X183578809Y-126942380D01*
X183578809Y-126370952D02*
X183626428Y-126323333D01*
X183721666Y-126275714D01*
X183864523Y-126275714D01*
X183959761Y-126323333D01*
X184007380Y-126418571D01*
X184007380Y-126942380D01*
X184340714Y-126275714D02*
X184721666Y-126275714D01*
X184483571Y-125942380D02*
X184483571Y-126799523D01*
X184531190Y-126894761D01*
X184626428Y-126942380D01*
X184721666Y-126942380D01*
X185435952Y-126894761D02*
X185340714Y-126942380D01*
X185150238Y-126942380D01*
X185055000Y-126894761D01*
X185007380Y-126799523D01*
X185007380Y-126418571D01*
X185055000Y-126323333D01*
X185150238Y-126275714D01*
X185340714Y-126275714D01*
X185435952Y-126323333D01*
X185483571Y-126418571D01*
X185483571Y-126513809D01*
X185007380Y-126609047D01*
X185912142Y-126942380D02*
X185912142Y-126275714D01*
X185912142Y-126466190D02*
X185959761Y-126370952D01*
X186007380Y-126323333D01*
X186102619Y-126275714D01*
X186197857Y-126275714D01*
X186531190Y-126275714D02*
X186531190Y-126942380D01*
X186531190Y-126370952D02*
X186578809Y-126323333D01*
X186674047Y-126275714D01*
X186816904Y-126275714D01*
X186912142Y-126323333D01*
X186959761Y-126418571D01*
X186959761Y-126942380D01*
X187864523Y-126942380D02*
X187864523Y-126418571D01*
X187816904Y-126323333D01*
X187721666Y-126275714D01*
X187531190Y-126275714D01*
X187435952Y-126323333D01*
X187864523Y-126894761D02*
X187769285Y-126942380D01*
X187531190Y-126942380D01*
X187435952Y-126894761D01*
X187388333Y-126799523D01*
X187388333Y-126704285D01*
X187435952Y-126609047D01*
X187531190Y-126561428D01*
X187769285Y-126561428D01*
X187864523Y-126513809D01*
X188197857Y-126275714D02*
X188578809Y-126275714D01*
X188340714Y-125942380D02*
X188340714Y-126799523D01*
X188388333Y-126894761D01*
X188483571Y-126942380D01*
X188578809Y-126942380D01*
X188912142Y-126942380D02*
X188912142Y-126275714D01*
X188912142Y-125942380D02*
X188864523Y-125990000D01*
X188912142Y-126037619D01*
X188959761Y-125990000D01*
X188912142Y-125942380D01*
X188912142Y-126037619D01*
X189531190Y-126942380D02*
X189435952Y-126894761D01*
X189388333Y-126847142D01*
X189340714Y-126751904D01*
X189340714Y-126466190D01*
X189388333Y-126370952D01*
X189435952Y-126323333D01*
X189531190Y-126275714D01*
X189674047Y-126275714D01*
X189769285Y-126323333D01*
X189816904Y-126370952D01*
X189864523Y-126466190D01*
X189864523Y-126751904D01*
X189816904Y-126847142D01*
X189769285Y-126894761D01*
X189674047Y-126942380D01*
X189531190Y-126942380D01*
X190293095Y-126275714D02*
X190293095Y-126942380D01*
X190293095Y-126370952D02*
X190340714Y-126323333D01*
X190435952Y-126275714D01*
X190578809Y-126275714D01*
X190674047Y-126323333D01*
X190721666Y-126418571D01*
X190721666Y-126942380D01*
X191626428Y-126942380D02*
X191626428Y-126418571D01*
X191578809Y-126323333D01*
X191483571Y-126275714D01*
X191293095Y-126275714D01*
X191197857Y-126323333D01*
X191626428Y-126894761D02*
X191531190Y-126942380D01*
X191293095Y-126942380D01*
X191197857Y-126894761D01*
X191150238Y-126799523D01*
X191150238Y-126704285D01*
X191197857Y-126609047D01*
X191293095Y-126561428D01*
X191531190Y-126561428D01*
X191626428Y-126513809D01*
X192245476Y-126942380D02*
X192150238Y-126894761D01*
X192102619Y-126799523D01*
X192102619Y-125942380D01*
X178483571Y-130242380D02*
X178483571Y-129242380D01*
X178912142Y-130242380D02*
X178912142Y-129718571D01*
X178864523Y-129623333D01*
X178769285Y-129575714D01*
X178626428Y-129575714D01*
X178531190Y-129623333D01*
X178483571Y-129670952D01*
X179245476Y-129575714D02*
X179626428Y-129575714D01*
X179388333Y-129242380D02*
X179388333Y-130099523D01*
X179435952Y-130194761D01*
X179531190Y-130242380D01*
X179626428Y-130242380D01*
X179816904Y-129575714D02*
X180197857Y-129575714D01*
X179959761Y-129242380D02*
X179959761Y-130099523D01*
X180007380Y-130194761D01*
X180102619Y-130242380D01*
X180197857Y-130242380D01*
X180531190Y-129575714D02*
X180531190Y-130575714D01*
X180531190Y-129623333D02*
X180626428Y-129575714D01*
X180816904Y-129575714D01*
X180912142Y-129623333D01*
X180959761Y-129670952D01*
X181007380Y-129766190D01*
X181007380Y-130051904D01*
X180959761Y-130147142D01*
X180912142Y-130194761D01*
X180816904Y-130242380D01*
X180626428Y-130242380D01*
X180531190Y-130194761D01*
X181388333Y-130194761D02*
X181483571Y-130242380D01*
X181674047Y-130242380D01*
X181769285Y-130194761D01*
X181816904Y-130099523D01*
X181816904Y-130051904D01*
X181769285Y-129956666D01*
X181674047Y-129909047D01*
X181531190Y-129909047D01*
X181435952Y-129861428D01*
X181388333Y-129766190D01*
X181388333Y-129718571D01*
X181435952Y-129623333D01*
X181531190Y-129575714D01*
X181674047Y-129575714D01*
X181769285Y-129623333D01*
X182245476Y-130147142D02*
X182293095Y-130194761D01*
X182245476Y-130242380D01*
X182197857Y-130194761D01*
X182245476Y-130147142D01*
X182245476Y-130242380D01*
X182245476Y-129623333D02*
X182293095Y-129670952D01*
X182245476Y-129718571D01*
X182197857Y-129670952D01*
X182245476Y-129623333D01*
X182245476Y-129718571D01*
X183435952Y-129194761D02*
X182578809Y-130480476D01*
X184483571Y-129194761D02*
X183626428Y-130480476D01*
X185245476Y-129575714D02*
X185245476Y-130385238D01*
X185197857Y-130480476D01*
X185150238Y-130528095D01*
X185055000Y-130575714D01*
X184912142Y-130575714D01*
X184816904Y-130528095D01*
X185245476Y-130194761D02*
X185150238Y-130242380D01*
X184959761Y-130242380D01*
X184864523Y-130194761D01*
X184816904Y-130147142D01*
X184769285Y-130051904D01*
X184769285Y-129766190D01*
X184816904Y-129670952D01*
X184864523Y-129623333D01*
X184959761Y-129575714D01*
X185150238Y-129575714D01*
X185245476Y-129623333D01*
X185721666Y-130242380D02*
X185721666Y-129575714D01*
X185721666Y-129242380D02*
X185674047Y-129290000D01*
X185721666Y-129337619D01*
X185769285Y-129290000D01*
X185721666Y-129242380D01*
X185721666Y-129337619D01*
X186055000Y-129575714D02*
X186435952Y-129575714D01*
X186197857Y-129242380D02*
X186197857Y-130099523D01*
X186245476Y-130194761D01*
X186340714Y-130242380D01*
X186435952Y-130242380D01*
X186769285Y-130242380D02*
X186769285Y-129242380D01*
X187197857Y-130242380D02*
X187197857Y-129718571D01*
X187150238Y-129623333D01*
X187055000Y-129575714D01*
X186912142Y-129575714D01*
X186816904Y-129623333D01*
X186769285Y-129670952D01*
X188102619Y-129575714D02*
X188102619Y-130242380D01*
X187674047Y-129575714D02*
X187674047Y-130099523D01*
X187721666Y-130194761D01*
X187816904Y-130242380D01*
X187959761Y-130242380D01*
X188055000Y-130194761D01*
X188102619Y-130147142D01*
X188578809Y-130242380D02*
X188578809Y-129242380D01*
X188578809Y-129623333D02*
X188674047Y-129575714D01*
X188864523Y-129575714D01*
X188959761Y-129623333D01*
X189007380Y-129670952D01*
X189055000Y-129766190D01*
X189055000Y-130051904D01*
X189007380Y-130147142D01*
X188959761Y-130194761D01*
X188864523Y-130242380D01*
X188674047Y-130242380D01*
X188578809Y-130194761D01*
X189483571Y-130147142D02*
X189531190Y-130194761D01*
X189483571Y-130242380D01*
X189435952Y-130194761D01*
X189483571Y-130147142D01*
X189483571Y-130242380D01*
X190388333Y-130194761D02*
X190293095Y-130242380D01*
X190102619Y-130242380D01*
X190007380Y-130194761D01*
X189959761Y-130147142D01*
X189912142Y-130051904D01*
X189912142Y-129766190D01*
X189959761Y-129670952D01*
X190007380Y-129623333D01*
X190102619Y-129575714D01*
X190293095Y-129575714D01*
X190388333Y-129623333D01*
X190959761Y-130242380D02*
X190864523Y-130194761D01*
X190816904Y-130147142D01*
X190769285Y-130051904D01*
X190769285Y-129766190D01*
X190816904Y-129670952D01*
X190864523Y-129623333D01*
X190959761Y-129575714D01*
X191102619Y-129575714D01*
X191197857Y-129623333D01*
X191245476Y-129670952D01*
X191293095Y-129766190D01*
X191293095Y-130051904D01*
X191245476Y-130147142D01*
X191197857Y-130194761D01*
X191102619Y-130242380D01*
X190959761Y-130242380D01*
X191721666Y-130242380D02*
X191721666Y-129575714D01*
X191721666Y-129670952D02*
X191769285Y-129623333D01*
X191864523Y-129575714D01*
X192007380Y-129575714D01*
X192102619Y-129623333D01*
X192150238Y-129718571D01*
X192150238Y-130242380D01*
X192150238Y-129718571D02*
X192197857Y-129623333D01*
X192293095Y-129575714D01*
X192435952Y-129575714D01*
X192531190Y-129623333D01*
X192578809Y-129718571D01*
X192578809Y-130242380D01*
X193769285Y-129194761D02*
X192912142Y-130480476D01*
X177816904Y-130892380D02*
X177816904Y-131606666D01*
X177769285Y-131749523D01*
X177674047Y-131844761D01*
X177531190Y-131892380D01*
X177435952Y-131892380D01*
X178721666Y-131892380D02*
X178721666Y-131368571D01*
X178674047Y-131273333D01*
X178578809Y-131225714D01*
X178388333Y-131225714D01*
X178293095Y-131273333D01*
X178721666Y-131844761D02*
X178626428Y-131892380D01*
X178388333Y-131892380D01*
X178293095Y-131844761D01*
X178245476Y-131749523D01*
X178245476Y-131654285D01*
X178293095Y-131559047D01*
X178388333Y-131511428D01*
X178626428Y-131511428D01*
X178721666Y-131463809D01*
X179102619Y-131225714D02*
X179340714Y-131892380D01*
X179578809Y-131225714D02*
X179340714Y-131892380D01*
X179245476Y-132130476D01*
X179197857Y-132178095D01*
X179102619Y-132225714D01*
X180340714Y-131844761D02*
X180245476Y-131892380D01*
X180055000Y-131892380D01*
X179959761Y-131844761D01*
X179912142Y-131749523D01*
X179912142Y-131368571D01*
X179959761Y-131273333D01*
X180055000Y-131225714D01*
X180245476Y-131225714D01*
X180340714Y-131273333D01*
X180388333Y-131368571D01*
X180388333Y-131463809D01*
X179912142Y-131559047D01*
X180769285Y-131844761D02*
X180864523Y-131892380D01*
X181055000Y-131892380D01*
X181150238Y-131844761D01*
X181197857Y-131749523D01*
X181197857Y-131701904D01*
X181150238Y-131606666D01*
X181055000Y-131559047D01*
X180912142Y-131559047D01*
X180816904Y-131511428D01*
X180769285Y-131416190D01*
X180769285Y-131368571D01*
X180816904Y-131273333D01*
X180912142Y-131225714D01*
X181055000Y-131225714D01*
X181150238Y-131273333D01*
X181769285Y-131892380D02*
X181674047Y-131844761D01*
X181626428Y-131797142D01*
X181578809Y-131701904D01*
X181578809Y-131416190D01*
X181626428Y-131320952D01*
X181674047Y-131273333D01*
X181769285Y-131225714D01*
X181912142Y-131225714D01*
X182007380Y-131273333D01*
X182055000Y-131320952D01*
X182102619Y-131416190D01*
X182102619Y-131701904D01*
X182055000Y-131797142D01*
X182007380Y-131844761D01*
X181912142Y-131892380D01*
X181769285Y-131892380D01*
X182531190Y-131225714D02*
X182531190Y-131892380D01*
X182531190Y-131320952D02*
X182578809Y-131273333D01*
X182674047Y-131225714D01*
X182816904Y-131225714D01*
X182912142Y-131273333D01*
X182959761Y-131368571D01*
X182959761Y-131892380D01*
X183912142Y-131892380D02*
X183435952Y-131892380D01*
X183435952Y-130892380D01*
X184197857Y-131844761D02*
X184340714Y-131892380D01*
X184578809Y-131892380D01*
X184674047Y-131844761D01*
X184721666Y-131797142D01*
X184769285Y-131701904D01*
X184769285Y-131606666D01*
X184721666Y-131511428D01*
X184674047Y-131463809D01*
X184578809Y-131416190D01*
X184388333Y-131368571D01*
X184293095Y-131320952D01*
X184245476Y-131273333D01*
X184197857Y-131178095D01*
X184197857Y-131082857D01*
X184245476Y-130987619D01*
X184293095Y-130940000D01*
X184388333Y-130892380D01*
X184626428Y-130892380D01*
X184769285Y-130940000D01*
X185912142Y-130844761D02*
X185055000Y-132130476D01*
X186245476Y-131892380D02*
X186245476Y-130892380D01*
X186674047Y-131844761D02*
X186816904Y-131892380D01*
X187055000Y-131892380D01*
X187150238Y-131844761D01*
X187197857Y-131797142D01*
X187245476Y-131701904D01*
X187245476Y-131606666D01*
X187197857Y-131511428D01*
X187150238Y-131463809D01*
X187055000Y-131416190D01*
X186864523Y-131368571D01*
X186769285Y-131320952D01*
X186721666Y-131273333D01*
X186674047Y-131178095D01*
X186674047Y-131082857D01*
X186721666Y-130987619D01*
X186769285Y-130940000D01*
X186864523Y-130892380D01*
X187102619Y-130892380D01*
X187245476Y-130940000D01*
X187626428Y-131606666D02*
X188102619Y-131606666D01*
X187531190Y-131892380D02*
X187864523Y-130892380D01*
X188197857Y-131892380D01*
X188531190Y-131511428D02*
X189293095Y-131511428D01*
X190340714Y-131797142D02*
X190293095Y-131844761D01*
X190150238Y-131892380D01*
X190055000Y-131892380D01*
X189912142Y-131844761D01*
X189816904Y-131749523D01*
X189769285Y-131654285D01*
X189721666Y-131463809D01*
X189721666Y-131320952D01*
X189769285Y-131130476D01*
X189816904Y-131035238D01*
X189912142Y-130940000D01*
X190055000Y-130892380D01*
X190150238Y-130892380D01*
X190293095Y-130940000D01*
X190340714Y-130987619D01*
X191197857Y-131892380D02*
X191197857Y-131368571D01*
X191150238Y-131273333D01*
X191055000Y-131225714D01*
X190864523Y-131225714D01*
X190769285Y-131273333D01*
X191197857Y-131844761D02*
X191102619Y-131892380D01*
X190864523Y-131892380D01*
X190769285Y-131844761D01*
X190721666Y-131749523D01*
X190721666Y-131654285D01*
X190769285Y-131559047D01*
X190864523Y-131511428D01*
X191102619Y-131511428D01*
X191197857Y-131463809D01*
X191674047Y-131892380D02*
X191674047Y-131225714D01*
X191674047Y-131416190D02*
X191721666Y-131320952D01*
X191769285Y-131273333D01*
X191864523Y-131225714D01*
X191959761Y-131225714D01*
X192721666Y-131892380D02*
X192721666Y-130892380D01*
X192721666Y-131844761D02*
X192626428Y-131892380D01*
X192435952Y-131892380D01*
X192340714Y-131844761D01*
X192293095Y-131797142D01*
X192245476Y-131701904D01*
X192245476Y-131416190D01*
X192293095Y-131320952D01*
X192340714Y-131273333D01*
X192435952Y-131225714D01*
X192626428Y-131225714D01*
X192721666Y-131273333D01*
X193150238Y-131844761D02*
X193245476Y-131892380D01*
X193435952Y-131892380D01*
X193531190Y-131844761D01*
X193578809Y-131749523D01*
X193578809Y-131701904D01*
X193531190Y-131606666D01*
X193435952Y-131559047D01*
X193293095Y-131559047D01*
X193197857Y-131511428D01*
X193150238Y-131416190D01*
X193150238Y-131368571D01*
X193197857Y-131273333D01*
X193293095Y-131225714D01*
X193435952Y-131225714D01*
X193531190Y-131273333D01*
X194721666Y-130844761D02*
X193864523Y-132130476D01*
D11*
X181340714Y-105260714D02*
X181769285Y-105403571D01*
X181912142Y-105546428D01*
X182055000Y-105832142D01*
X182055000Y-106260714D01*
X181912142Y-106546428D01*
X181769285Y-106689285D01*
X181483571Y-106832142D01*
X180340714Y-106832142D01*
X180340714Y-103832142D01*
X181340714Y-103832142D01*
X181626428Y-103975000D01*
X181769285Y-104117857D01*
X181912142Y-104403571D01*
X181912142Y-104689285D01*
X181769285Y-104975000D01*
X181626428Y-105117857D01*
X181340714Y-105260714D01*
X180340714Y-105260714D01*
X183197857Y-105975000D02*
X184626428Y-105975000D01*
X182912142Y-106832142D02*
X183912142Y-103832142D01*
X184912142Y-106832142D01*
X185769285Y-106689285D02*
X186197857Y-106832142D01*
X186912142Y-106832142D01*
X187197857Y-106689285D01*
X187340714Y-106546428D01*
X187483571Y-106260714D01*
X187483571Y-105975000D01*
X187340714Y-105689285D01*
X187197857Y-105546428D01*
X186912142Y-105403571D01*
X186340714Y-105260714D01*
X186055000Y-105117857D01*
X185912142Y-104975000D01*
X185769285Y-104689285D01*
X185769285Y-104403571D01*
X185912142Y-104117857D01*
X186055000Y-103975000D01*
X186340714Y-103832142D01*
X187055000Y-103832142D01*
X187483571Y-103975000D01*
X188769285Y-106832142D02*
X188769285Y-103832142D01*
X191912142Y-106546428D02*
X191769285Y-106689285D01*
X191340714Y-106832142D01*
X191055000Y-106832142D01*
X190626428Y-106689285D01*
X190340714Y-106403571D01*
X190197857Y-106117857D01*
X190055000Y-105546428D01*
X190055000Y-105117857D01*
X190197857Y-104546428D01*
X190340714Y-104260714D01*
X190626428Y-103975000D01*
X191055000Y-103832142D01*
X191340714Y-103832142D01*
X191769285Y-103975000D01*
X191912142Y-104117857D01*
X179126428Y-111639285D02*
X179555000Y-111782142D01*
X180269285Y-111782142D01*
X180555000Y-111639285D01*
X180697857Y-111496428D01*
X180840714Y-111210714D01*
X180840714Y-110925000D01*
X180697857Y-110639285D01*
X180555000Y-110496428D01*
X180269285Y-110353571D01*
X179697857Y-110210714D01*
X179412142Y-110067857D01*
X179269285Y-109925000D01*
X179126428Y-109639285D01*
X179126428Y-109353571D01*
X179269285Y-109067857D01*
X179412142Y-108925000D01*
X179697857Y-108782142D01*
X180412142Y-108782142D01*
X180840714Y-108925000D01*
X182126428Y-110210714D02*
X183126428Y-110210714D01*
X183555000Y-111782142D02*
X182126428Y-111782142D01*
X182126428Y-108782142D01*
X183555000Y-108782142D01*
X186555000Y-111782142D02*
X185555000Y-110353571D01*
X184840714Y-111782142D02*
X184840714Y-108782142D01*
X185983571Y-108782142D01*
X186269285Y-108925000D01*
X186412142Y-109067857D01*
X186555000Y-109353571D01*
X186555000Y-109782142D01*
X186412142Y-110067857D01*
X186269285Y-110210714D01*
X185983571Y-110353571D01*
X184840714Y-110353571D01*
X187840714Y-111782142D02*
X187840714Y-108782142D01*
X189126428Y-110925000D02*
X190555000Y-110925000D01*
X188840714Y-111782142D02*
X189840714Y-108782142D01*
X190840714Y-111782142D01*
X193269285Y-111782142D02*
X191840714Y-111782142D01*
X191840714Y-108782142D01*
D12*
G36*
X110490000Y-113665000D02*
G01*
X107950000Y-113665000D01*
X107950000Y-112395000D01*
X110490000Y-112395000D01*
X110490000Y-113665000D01*
G37*
X110490000Y-113665000D02*
X107950000Y-113665000D01*
X107950000Y-112395000D01*
X110490000Y-112395000D01*
X110490000Y-113665000D01*
G36*
X109220000Y-114935000D02*
G01*
X106680000Y-114935000D01*
X106680000Y-113665000D01*
X109220000Y-113665000D01*
X109220000Y-114935000D01*
G37*
X109220000Y-114935000D02*
X106680000Y-114935000D01*
X106680000Y-113665000D01*
X109220000Y-113665000D01*
X109220000Y-114935000D01*
G36*
X110490000Y-118745000D02*
G01*
X107950000Y-118745000D01*
X107950000Y-116205000D01*
X110490000Y-116205000D01*
X110490000Y-118745000D01*
G37*
X110490000Y-118745000D02*
X107950000Y-118745000D01*
X107950000Y-116205000D01*
X110490000Y-116205000D01*
X110490000Y-118745000D01*
G36*
X110490000Y-111125000D02*
G01*
X107950000Y-111125000D01*
X107950000Y-109855000D01*
X110490000Y-109855000D01*
X110490000Y-111125000D01*
G37*
X110490000Y-111125000D02*
X107950000Y-111125000D01*
X107950000Y-109855000D01*
X110490000Y-109855000D01*
X110490000Y-111125000D01*
G36*
X109220000Y-109855000D02*
G01*
X106680000Y-109855000D01*
X106680000Y-108585000D01*
X109220000Y-108585000D01*
X109220000Y-109855000D01*
G37*
X109220000Y-109855000D02*
X106680000Y-109855000D01*
X106680000Y-108585000D01*
X109220000Y-108585000D01*
X109220000Y-109855000D01*
G36*
X109220000Y-107315000D02*
G01*
X106680000Y-107315000D01*
X106680000Y-104775000D01*
X109220000Y-104775000D01*
X109220000Y-107315000D01*
G37*
X109220000Y-107315000D02*
X106680000Y-107315000D01*
X106680000Y-104775000D01*
X109220000Y-104775000D01*
X109220000Y-107315000D01*
D10*
X104378333Y-126627380D02*
X104378333Y-125627380D01*
X104759285Y-125627380D01*
X104854523Y-125675000D01*
X104902142Y-125722619D01*
X104949761Y-125817857D01*
X104949761Y-125960714D01*
X104902142Y-126055952D01*
X104854523Y-126103571D01*
X104759285Y-126151190D01*
X104378333Y-126151190D01*
X105568809Y-125627380D02*
X105759285Y-125627380D01*
X105854523Y-125675000D01*
X105949761Y-125770238D01*
X105997380Y-125960714D01*
X105997380Y-126294047D01*
X105949761Y-126484523D01*
X105854523Y-126579761D01*
X105759285Y-126627380D01*
X105568809Y-126627380D01*
X105473571Y-126579761D01*
X105378333Y-126484523D01*
X105330714Y-126294047D01*
X105330714Y-125960714D01*
X105378333Y-125770238D01*
X105473571Y-125675000D01*
X105568809Y-125627380D01*
X106997380Y-126627380D02*
X106664047Y-126151190D01*
X106425952Y-126627380D02*
X106425952Y-125627380D01*
X106806904Y-125627380D01*
X106902142Y-125675000D01*
X106949761Y-125722619D01*
X106997380Y-125817857D01*
X106997380Y-125960714D01*
X106949761Y-126055952D01*
X106902142Y-126103571D01*
X106806904Y-126151190D01*
X106425952Y-126151190D01*
X107283095Y-125627380D02*
X107854523Y-125627380D01*
X107568809Y-126627380D02*
X107568809Y-125627380D01*
X102283095Y-128229761D02*
X102425952Y-128277380D01*
X102664047Y-128277380D01*
X102759285Y-128229761D01*
X102806904Y-128182142D01*
X102854523Y-128086904D01*
X102854523Y-127991666D01*
X102806904Y-127896428D01*
X102759285Y-127848809D01*
X102664047Y-127801190D01*
X102473571Y-127753571D01*
X102378333Y-127705952D01*
X102330714Y-127658333D01*
X102283095Y-127563095D01*
X102283095Y-127467857D01*
X102330714Y-127372619D01*
X102378333Y-127325000D01*
X102473571Y-127277380D01*
X102711666Y-127277380D01*
X102854523Y-127325000D01*
X103283095Y-127753571D02*
X103616428Y-127753571D01*
X103759285Y-128277380D02*
X103283095Y-128277380D01*
X103283095Y-127277380D01*
X103759285Y-127277380D01*
X104664047Y-128277380D02*
X104187857Y-128277380D01*
X104187857Y-127277380D01*
X104997380Y-127753571D02*
X105330714Y-127753571D01*
X105473571Y-128277380D02*
X104997380Y-128277380D01*
X104997380Y-127277380D01*
X105473571Y-127277380D01*
X106473571Y-128182142D02*
X106425952Y-128229761D01*
X106283095Y-128277380D01*
X106187857Y-128277380D01*
X106045000Y-128229761D01*
X105949761Y-128134523D01*
X105902142Y-128039285D01*
X105854523Y-127848809D01*
X105854523Y-127705952D01*
X105902142Y-127515476D01*
X105949761Y-127420238D01*
X106045000Y-127325000D01*
X106187857Y-127277380D01*
X106283095Y-127277380D01*
X106425952Y-127325000D01*
X106473571Y-127372619D01*
X106759285Y-127277380D02*
X107330714Y-127277380D01*
X107045000Y-128277380D02*
X107045000Y-127277380D01*
X107664047Y-128277380D02*
X107664047Y-127277380D01*
X108330714Y-127277380D02*
X108521190Y-127277380D01*
X108616428Y-127325000D01*
X108711666Y-127420238D01*
X108759285Y-127610714D01*
X108759285Y-127944047D01*
X108711666Y-128134523D01*
X108616428Y-128229761D01*
X108521190Y-128277380D01*
X108330714Y-128277380D01*
X108235476Y-128229761D01*
X108140238Y-128134523D01*
X108092619Y-127944047D01*
X108092619Y-127610714D01*
X108140238Y-127420238D01*
X108235476Y-127325000D01*
X108330714Y-127277380D01*
X109187857Y-128277380D02*
X109187857Y-127277380D01*
X109759285Y-128277380D01*
X109759285Y-127277380D01*
D13*
X106680000Y-112395000D02*
X106680000Y-113665000D01*
X110490000Y-114935000D02*
X110490000Y-113665000D01*
X106680000Y-114935000D02*
X110490000Y-114935000D01*
X106680000Y-113665000D02*
X106680000Y-114935000D01*
X106680000Y-113665000D02*
X110490000Y-113665000D01*
X110490000Y-112395000D02*
X106680000Y-112395000D01*
X110490000Y-113665000D02*
X110490000Y-112395000D01*
D10*
X102137976Y-114022142D02*
X102090357Y-114069761D01*
X101947500Y-114117380D01*
X101852261Y-114117380D01*
X101709404Y-114069761D01*
X101614166Y-113974523D01*
X101566547Y-113879285D01*
X101518928Y-113688809D01*
X101518928Y-113545952D01*
X101566547Y-113355476D01*
X101614166Y-113260238D01*
X101709404Y-113165000D01*
X101852261Y-113117380D01*
X101947500Y-113117380D01*
X102090357Y-113165000D01*
X102137976Y-113212619D01*
X102757023Y-113117380D02*
X102947500Y-113117380D01*
X103042738Y-113165000D01*
X103137976Y-113260238D01*
X103185595Y-113450714D01*
X103185595Y-113784047D01*
X103137976Y-113974523D01*
X103042738Y-114069761D01*
X102947500Y-114117380D01*
X102757023Y-114117380D01*
X102661785Y-114069761D01*
X102566547Y-113974523D01*
X102518928Y-113784047D01*
X102518928Y-113450714D01*
X102566547Y-113260238D01*
X102661785Y-113165000D01*
X102757023Y-113117380D01*
X103614166Y-114117380D02*
X103614166Y-113117380D01*
X103947500Y-113831666D01*
X104280833Y-113117380D01*
X104280833Y-114117380D01*
X104661785Y-113117380D02*
X105280833Y-113117380D01*
X104947500Y-113498333D01*
X105090357Y-113498333D01*
X105185595Y-113545952D01*
X105233214Y-113593571D01*
X105280833Y-113688809D01*
X105280833Y-113926904D01*
X105233214Y-114022142D01*
X105185595Y-114069761D01*
X105090357Y-114117380D01*
X104804642Y-114117380D01*
X104709404Y-114069761D01*
X104661785Y-114022142D01*
X105709404Y-114022142D02*
X105757023Y-114069761D01*
X105709404Y-114117380D01*
X105661785Y-114069761D01*
X105709404Y-114022142D01*
X105709404Y-114117380D01*
X105709404Y-113498333D02*
X105757023Y-113545952D01*
X105709404Y-113593571D01*
X105661785Y-113545952D01*
X105709404Y-113498333D01*
X105709404Y-113593571D01*
D13*
X106680000Y-108585000D02*
X106680000Y-109855000D01*
X110490000Y-111125000D02*
X110490000Y-109855000D01*
X106680000Y-111125000D02*
X110490000Y-111125000D01*
X106680000Y-109855000D02*
X106680000Y-111125000D01*
X106680000Y-109855000D02*
X110490000Y-109855000D01*
X110490000Y-108585000D02*
X106680000Y-108585000D01*
X110490000Y-109855000D02*
X110490000Y-108585000D01*
D10*
X102137976Y-110212142D02*
X102090357Y-110259761D01*
X101947500Y-110307380D01*
X101852261Y-110307380D01*
X101709404Y-110259761D01*
X101614166Y-110164523D01*
X101566547Y-110069285D01*
X101518928Y-109878809D01*
X101518928Y-109735952D01*
X101566547Y-109545476D01*
X101614166Y-109450238D01*
X101709404Y-109355000D01*
X101852261Y-109307380D01*
X101947500Y-109307380D01*
X102090357Y-109355000D01*
X102137976Y-109402619D01*
X102757023Y-109307380D02*
X102947500Y-109307380D01*
X103042738Y-109355000D01*
X103137976Y-109450238D01*
X103185595Y-109640714D01*
X103185595Y-109974047D01*
X103137976Y-110164523D01*
X103042738Y-110259761D01*
X102947500Y-110307380D01*
X102757023Y-110307380D01*
X102661785Y-110259761D01*
X102566547Y-110164523D01*
X102518928Y-109974047D01*
X102518928Y-109640714D01*
X102566547Y-109450238D01*
X102661785Y-109355000D01*
X102757023Y-109307380D01*
X103614166Y-110307380D02*
X103614166Y-109307380D01*
X103947500Y-110021666D01*
X104280833Y-109307380D01*
X104280833Y-110307380D01*
X104709404Y-109402619D02*
X104757023Y-109355000D01*
X104852261Y-109307380D01*
X105090357Y-109307380D01*
X105185595Y-109355000D01*
X105233214Y-109402619D01*
X105280833Y-109497857D01*
X105280833Y-109593095D01*
X105233214Y-109735952D01*
X104661785Y-110307380D01*
X105280833Y-110307380D01*
X105709404Y-110212142D02*
X105757023Y-110259761D01*
X105709404Y-110307380D01*
X105661785Y-110259761D01*
X105709404Y-110212142D01*
X105709404Y-110307380D01*
X105709404Y-109688333D02*
X105757023Y-109735952D01*
X105709404Y-109783571D01*
X105661785Y-109735952D01*
X105709404Y-109688333D01*
X105709404Y-109783571D01*
X102137976Y-106402142D02*
X102090357Y-106449761D01*
X101947500Y-106497380D01*
X101852261Y-106497380D01*
X101709404Y-106449761D01*
X101614166Y-106354523D01*
X101566547Y-106259285D01*
X101518928Y-106068809D01*
X101518928Y-105925952D01*
X101566547Y-105735476D01*
X101614166Y-105640238D01*
X101709404Y-105545000D01*
X101852261Y-105497380D01*
X101947500Y-105497380D01*
X102090357Y-105545000D01*
X102137976Y-105592619D01*
X102757023Y-105497380D02*
X102947500Y-105497380D01*
X103042738Y-105545000D01*
X103137976Y-105640238D01*
X103185595Y-105830714D01*
X103185595Y-106164047D01*
X103137976Y-106354523D01*
X103042738Y-106449761D01*
X102947500Y-106497380D01*
X102757023Y-106497380D01*
X102661785Y-106449761D01*
X102566547Y-106354523D01*
X102518928Y-106164047D01*
X102518928Y-105830714D01*
X102566547Y-105640238D01*
X102661785Y-105545000D01*
X102757023Y-105497380D01*
X103614166Y-106497380D02*
X103614166Y-105497380D01*
X103947500Y-106211666D01*
X104280833Y-105497380D01*
X104280833Y-106497380D01*
X105280833Y-106497380D02*
X104709404Y-106497380D01*
X104995119Y-106497380D02*
X104995119Y-105497380D01*
X104899880Y-105640238D01*
X104804642Y-105735476D01*
X104709404Y-105783095D01*
X105709404Y-106402142D02*
X105757023Y-106449761D01*
X105709404Y-106497380D01*
X105661785Y-106449761D01*
X105709404Y-106402142D01*
X105709404Y-106497380D01*
X105709404Y-105878333D02*
X105757023Y-105925952D01*
X105709404Y-105973571D01*
X105661785Y-105925952D01*
X105709404Y-105878333D01*
X105709404Y-105973571D01*
D13*
X106680000Y-106045000D02*
X110490000Y-106045000D01*
X110490000Y-104775000D02*
X106680000Y-104775000D01*
X110490000Y-107315000D02*
X110490000Y-106045000D01*
X106680000Y-107315000D02*
X110490000Y-107315000D01*
X110490000Y-106045000D02*
X110490000Y-104775000D01*
X106680000Y-106045000D02*
X106680000Y-107315000D01*
X106680000Y-104775000D02*
X106680000Y-106045000D01*
D10*
X102137976Y-117832142D02*
X102090357Y-117879761D01*
X101947500Y-117927380D01*
X101852261Y-117927380D01*
X101709404Y-117879761D01*
X101614166Y-117784523D01*
X101566547Y-117689285D01*
X101518928Y-117498809D01*
X101518928Y-117355952D01*
X101566547Y-117165476D01*
X101614166Y-117070238D01*
X101709404Y-116975000D01*
X101852261Y-116927380D01*
X101947500Y-116927380D01*
X102090357Y-116975000D01*
X102137976Y-117022619D01*
X102757023Y-116927380D02*
X102947500Y-116927380D01*
X103042738Y-116975000D01*
X103137976Y-117070238D01*
X103185595Y-117260714D01*
X103185595Y-117594047D01*
X103137976Y-117784523D01*
X103042738Y-117879761D01*
X102947500Y-117927380D01*
X102757023Y-117927380D01*
X102661785Y-117879761D01*
X102566547Y-117784523D01*
X102518928Y-117594047D01*
X102518928Y-117260714D01*
X102566547Y-117070238D01*
X102661785Y-116975000D01*
X102757023Y-116927380D01*
X103614166Y-117927380D02*
X103614166Y-116927380D01*
X103947500Y-117641666D01*
X104280833Y-116927380D01*
X104280833Y-117927380D01*
X105185595Y-117260714D02*
X105185595Y-117927380D01*
X104947500Y-116879761D02*
X104709404Y-117594047D01*
X105328452Y-117594047D01*
X105709404Y-117832142D02*
X105757023Y-117879761D01*
X105709404Y-117927380D01*
X105661785Y-117879761D01*
X105709404Y-117832142D01*
X105709404Y-117927380D01*
X105709404Y-117308333D02*
X105757023Y-117355952D01*
X105709404Y-117403571D01*
X105661785Y-117355952D01*
X105709404Y-117308333D01*
X105709404Y-117403571D01*
D13*
X110490000Y-118745000D02*
X110490000Y-117475000D01*
X106680000Y-118745000D02*
X110490000Y-118745000D01*
X106680000Y-117475000D02*
X106680000Y-118745000D01*
X110490000Y-116205000D02*
X106680000Y-116205000D01*
X110490000Y-117475000D02*
X110490000Y-116205000D01*
X106680000Y-117475000D02*
X110490000Y-117475000D01*
X106680000Y-116205000D02*
X106680000Y-117475000D01*
D10*
X119032976Y-105054761D02*
X119175833Y-105102380D01*
X119413928Y-105102380D01*
X119509166Y-105054761D01*
X119556785Y-105007142D01*
X119604404Y-104911904D01*
X119604404Y-104816666D01*
X119556785Y-104721428D01*
X119509166Y-104673809D01*
X119413928Y-104626190D01*
X119223452Y-104578571D01*
X119128214Y-104530952D01*
X119080595Y-104483333D01*
X119032976Y-104388095D01*
X119032976Y-104292857D01*
X119080595Y-104197619D01*
X119128214Y-104150000D01*
X119223452Y-104102380D01*
X119461547Y-104102380D01*
X119604404Y-104150000D01*
X120032976Y-104102380D02*
X120032976Y-104911904D01*
X120080595Y-105007142D01*
X120128214Y-105054761D01*
X120223452Y-105102380D01*
X120413928Y-105102380D01*
X120509166Y-105054761D01*
X120556785Y-105007142D01*
X120604404Y-104911904D01*
X120604404Y-104102380D01*
X121604404Y-104150000D02*
X121509166Y-104102380D01*
X121366309Y-104102380D01*
X121223452Y-104150000D01*
X121128214Y-104245238D01*
X121080595Y-104340476D01*
X121032976Y-104530952D01*
X121032976Y-104673809D01*
X121080595Y-104864285D01*
X121128214Y-104959523D01*
X121223452Y-105054761D01*
X121366309Y-105102380D01*
X121461547Y-105102380D01*
X121604404Y-105054761D01*
X121652023Y-105007142D01*
X121652023Y-104673809D01*
X121461547Y-104673809D01*
X122604404Y-104150000D02*
X122509166Y-104102380D01*
X122366309Y-104102380D01*
X122223452Y-104150000D01*
X122128214Y-104245238D01*
X122080595Y-104340476D01*
X122032976Y-104530952D01*
X122032976Y-104673809D01*
X122080595Y-104864285D01*
X122128214Y-104959523D01*
X122223452Y-105054761D01*
X122366309Y-105102380D01*
X122461547Y-105102380D01*
X122604404Y-105054761D01*
X122652023Y-105007142D01*
X122652023Y-104673809D01*
X122461547Y-104673809D01*
X123080595Y-104578571D02*
X123413928Y-104578571D01*
X123556785Y-105102380D02*
X123080595Y-105102380D01*
X123080595Y-104102380D01*
X123556785Y-104102380D01*
X123937738Y-105054761D02*
X124080595Y-105102380D01*
X124318690Y-105102380D01*
X124413928Y-105054761D01*
X124461547Y-105007142D01*
X124509166Y-104911904D01*
X124509166Y-104816666D01*
X124461547Y-104721428D01*
X124413928Y-104673809D01*
X124318690Y-104626190D01*
X124128214Y-104578571D01*
X124032976Y-104530952D01*
X123985357Y-104483333D01*
X123937738Y-104388095D01*
X123937738Y-104292857D01*
X123985357Y-104197619D01*
X124032976Y-104150000D01*
X124128214Y-104102380D01*
X124366309Y-104102380D01*
X124509166Y-104150000D01*
X124794880Y-104102380D02*
X125366309Y-104102380D01*
X125080595Y-105102380D02*
X125080595Y-104102380D01*
X125699642Y-104578571D02*
X126032976Y-104578571D01*
X126175833Y-105102380D02*
X125699642Y-105102380D01*
X125699642Y-104102380D01*
X126175833Y-104102380D01*
X126604404Y-105102380D02*
X126604404Y-104102380D01*
X126842500Y-104102380D01*
X126985357Y-104150000D01*
X127080595Y-104245238D01*
X127128214Y-104340476D01*
X127175833Y-104530952D01*
X127175833Y-104673809D01*
X127128214Y-104864285D01*
X127080595Y-104959523D01*
X126985357Y-105054761D01*
X126842500Y-105102380D01*
X126604404Y-105102380D01*
X127604404Y-105007142D02*
X127652023Y-105054761D01*
X127604404Y-105102380D01*
X127556785Y-105054761D01*
X127604404Y-105007142D01*
X127604404Y-105102380D01*
X127604404Y-104483333D02*
X127652023Y-104530952D01*
X127604404Y-104578571D01*
X127556785Y-104530952D01*
X127604404Y-104483333D01*
X127604404Y-104578571D01*
X119652023Y-106657142D02*
X119604404Y-106704761D01*
X119461547Y-106752380D01*
X119366309Y-106752380D01*
X119223452Y-106704761D01*
X119128214Y-106609523D01*
X119080595Y-106514285D01*
X119032976Y-106323809D01*
X119032976Y-106180952D01*
X119080595Y-105990476D01*
X119128214Y-105895238D01*
X119223452Y-105800000D01*
X119366309Y-105752380D01*
X119461547Y-105752380D01*
X119604404Y-105800000D01*
X119652023Y-105847619D01*
X120271071Y-105752380D02*
X120461547Y-105752380D01*
X120556785Y-105800000D01*
X120652023Y-105895238D01*
X120699642Y-106085714D01*
X120699642Y-106419047D01*
X120652023Y-106609523D01*
X120556785Y-106704761D01*
X120461547Y-106752380D01*
X120271071Y-106752380D01*
X120175833Y-106704761D01*
X120080595Y-106609523D01*
X120032976Y-106419047D01*
X120032976Y-106085714D01*
X120080595Y-105895238D01*
X120175833Y-105800000D01*
X120271071Y-105752380D01*
X121128214Y-106752380D02*
X121128214Y-105752380D01*
X121461547Y-106466666D01*
X121794880Y-105752380D01*
X121794880Y-106752380D01*
X122794880Y-106752380D02*
X122223452Y-106752380D01*
X122509166Y-106752380D02*
X122509166Y-105752380D01*
X122413928Y-105895238D01*
X122318690Y-105990476D01*
X122223452Y-106038095D01*
X123223452Y-106228571D02*
X123985357Y-106228571D01*
X123985357Y-106514285D02*
X123223452Y-106514285D01*
X124461547Y-106752380D02*
X124461547Y-105752380D01*
X125509166Y-106752380D02*
X125175833Y-106276190D01*
X124937738Y-106752380D02*
X124937738Y-105752380D01*
X125318690Y-105752380D01*
X125413928Y-105800000D01*
X125461547Y-105847619D01*
X125509166Y-105942857D01*
X125509166Y-106085714D01*
X125461547Y-106180952D01*
X125413928Y-106228571D01*
X125318690Y-106276190D01*
X124937738Y-106276190D01*
X126604404Y-106847619D02*
X126509166Y-106800000D01*
X126413928Y-106704761D01*
X126271071Y-106561904D01*
X126175833Y-106514285D01*
X126080595Y-106514285D01*
X126128214Y-106752380D02*
X126032976Y-106704761D01*
X125937738Y-106609523D01*
X125890119Y-106419047D01*
X125890119Y-106085714D01*
X125937738Y-105895238D01*
X126032976Y-105800000D01*
X126128214Y-105752380D01*
X126318690Y-105752380D01*
X126413928Y-105800000D01*
X126509166Y-105895238D01*
X126556785Y-106085714D01*
X126556785Y-106419047D01*
X126509166Y-106609523D01*
X126413928Y-106704761D01*
X126318690Y-106752380D01*
X126128214Y-106752380D01*
X127413928Y-106085714D02*
X127413928Y-106752380D01*
X127175833Y-105704761D02*
X126937738Y-106419047D01*
X127556785Y-106419047D01*
X119652023Y-108307142D02*
X119604404Y-108354761D01*
X119461547Y-108402380D01*
X119366309Y-108402380D01*
X119223452Y-108354761D01*
X119128214Y-108259523D01*
X119080595Y-108164285D01*
X119032976Y-107973809D01*
X119032976Y-107830952D01*
X119080595Y-107640476D01*
X119128214Y-107545238D01*
X119223452Y-107450000D01*
X119366309Y-107402380D01*
X119461547Y-107402380D01*
X119604404Y-107450000D01*
X119652023Y-107497619D01*
X120271071Y-107402380D02*
X120461547Y-107402380D01*
X120556785Y-107450000D01*
X120652023Y-107545238D01*
X120699642Y-107735714D01*
X120699642Y-108069047D01*
X120652023Y-108259523D01*
X120556785Y-108354761D01*
X120461547Y-108402380D01*
X120271071Y-108402380D01*
X120175833Y-108354761D01*
X120080595Y-108259523D01*
X120032976Y-108069047D01*
X120032976Y-107735714D01*
X120080595Y-107545238D01*
X120175833Y-107450000D01*
X120271071Y-107402380D01*
X121128214Y-108402380D02*
X121128214Y-107402380D01*
X121461547Y-108116666D01*
X121794880Y-107402380D01*
X121794880Y-108402380D01*
X122223452Y-107497619D02*
X122271071Y-107450000D01*
X122366309Y-107402380D01*
X122604404Y-107402380D01*
X122699642Y-107450000D01*
X122747261Y-107497619D01*
X122794880Y-107592857D01*
X122794880Y-107688095D01*
X122747261Y-107830952D01*
X122175833Y-108402380D01*
X122794880Y-108402380D01*
X123223452Y-107878571D02*
X123985357Y-107878571D01*
X123985357Y-108164285D02*
X123223452Y-108164285D01*
X124461547Y-108402380D02*
X124461547Y-107402380D01*
X125509166Y-108402380D02*
X125175833Y-107926190D01*
X124937738Y-108402380D02*
X124937738Y-107402380D01*
X125318690Y-107402380D01*
X125413928Y-107450000D01*
X125461547Y-107497619D01*
X125509166Y-107592857D01*
X125509166Y-107735714D01*
X125461547Y-107830952D01*
X125413928Y-107878571D01*
X125318690Y-107926190D01*
X124937738Y-107926190D01*
X126604404Y-108497619D02*
X126509166Y-108450000D01*
X126413928Y-108354761D01*
X126271071Y-108211904D01*
X126175833Y-108164285D01*
X126080595Y-108164285D01*
X126128214Y-108402380D02*
X126032976Y-108354761D01*
X125937738Y-108259523D01*
X125890119Y-108069047D01*
X125890119Y-107735714D01*
X125937738Y-107545238D01*
X126032976Y-107450000D01*
X126128214Y-107402380D01*
X126318690Y-107402380D01*
X126413928Y-107450000D01*
X126509166Y-107545238D01*
X126556785Y-107735714D01*
X126556785Y-108069047D01*
X126509166Y-108259523D01*
X126413928Y-108354761D01*
X126318690Y-108402380D01*
X126128214Y-108402380D01*
X126890119Y-107402380D02*
X127509166Y-107402380D01*
X127175833Y-107783333D01*
X127318690Y-107783333D01*
X127413928Y-107830952D01*
X127461547Y-107878571D01*
X127509166Y-107973809D01*
X127509166Y-108211904D01*
X127461547Y-108307142D01*
X127413928Y-108354761D01*
X127318690Y-108402380D01*
X127032976Y-108402380D01*
X126937738Y-108354761D01*
X126890119Y-108307142D01*
X119652023Y-109957142D02*
X119604404Y-110004761D01*
X119461547Y-110052380D01*
X119366309Y-110052380D01*
X119223452Y-110004761D01*
X119128214Y-109909523D01*
X119080595Y-109814285D01*
X119032976Y-109623809D01*
X119032976Y-109480952D01*
X119080595Y-109290476D01*
X119128214Y-109195238D01*
X119223452Y-109100000D01*
X119366309Y-109052380D01*
X119461547Y-109052380D01*
X119604404Y-109100000D01*
X119652023Y-109147619D01*
X120271071Y-109052380D02*
X120461547Y-109052380D01*
X120556785Y-109100000D01*
X120652023Y-109195238D01*
X120699642Y-109385714D01*
X120699642Y-109719047D01*
X120652023Y-109909523D01*
X120556785Y-110004761D01*
X120461547Y-110052380D01*
X120271071Y-110052380D01*
X120175833Y-110004761D01*
X120080595Y-109909523D01*
X120032976Y-109719047D01*
X120032976Y-109385714D01*
X120080595Y-109195238D01*
X120175833Y-109100000D01*
X120271071Y-109052380D01*
X121128214Y-110052380D02*
X121128214Y-109052380D01*
X121461547Y-109766666D01*
X121794880Y-109052380D01*
X121794880Y-110052380D01*
X122175833Y-109052380D02*
X122794880Y-109052380D01*
X122461547Y-109433333D01*
X122604404Y-109433333D01*
X122699642Y-109480952D01*
X122747261Y-109528571D01*
X122794880Y-109623809D01*
X122794880Y-109861904D01*
X122747261Y-109957142D01*
X122699642Y-110004761D01*
X122604404Y-110052380D01*
X122318690Y-110052380D01*
X122223452Y-110004761D01*
X122175833Y-109957142D01*
X123223452Y-109528571D02*
X123985357Y-109528571D01*
X123985357Y-109814285D02*
X123223452Y-109814285D01*
X124461547Y-110052380D02*
X124461547Y-109052380D01*
X125509166Y-110052380D02*
X125175833Y-109576190D01*
X124937738Y-110052380D02*
X124937738Y-109052380D01*
X125318690Y-109052380D01*
X125413928Y-109100000D01*
X125461547Y-109147619D01*
X125509166Y-109242857D01*
X125509166Y-109385714D01*
X125461547Y-109480952D01*
X125413928Y-109528571D01*
X125318690Y-109576190D01*
X124937738Y-109576190D01*
X126604404Y-110147619D02*
X126509166Y-110100000D01*
X126413928Y-110004761D01*
X126271071Y-109861904D01*
X126175833Y-109814285D01*
X126080595Y-109814285D01*
X126128214Y-110052380D02*
X126032976Y-110004761D01*
X125937738Y-109909523D01*
X125890119Y-109719047D01*
X125890119Y-109385714D01*
X125937738Y-109195238D01*
X126032976Y-109100000D01*
X126128214Y-109052380D01*
X126318690Y-109052380D01*
X126413928Y-109100000D01*
X126509166Y-109195238D01*
X126556785Y-109385714D01*
X126556785Y-109719047D01*
X126509166Y-109909523D01*
X126413928Y-110004761D01*
X126318690Y-110052380D01*
X126128214Y-110052380D01*
X127413928Y-109385714D02*
X127413928Y-110052380D01*
X127175833Y-109004761D02*
X126937738Y-109719047D01*
X127556785Y-109719047D01*
X119652023Y-111607142D02*
X119604404Y-111654761D01*
X119461547Y-111702380D01*
X119366309Y-111702380D01*
X119223452Y-111654761D01*
X119128214Y-111559523D01*
X119080595Y-111464285D01*
X119032976Y-111273809D01*
X119032976Y-111130952D01*
X119080595Y-110940476D01*
X119128214Y-110845238D01*
X119223452Y-110750000D01*
X119366309Y-110702380D01*
X119461547Y-110702380D01*
X119604404Y-110750000D01*
X119652023Y-110797619D01*
X120271071Y-110702380D02*
X120461547Y-110702380D01*
X120556785Y-110750000D01*
X120652023Y-110845238D01*
X120699642Y-111035714D01*
X120699642Y-111369047D01*
X120652023Y-111559523D01*
X120556785Y-111654761D01*
X120461547Y-111702380D01*
X120271071Y-111702380D01*
X120175833Y-111654761D01*
X120080595Y-111559523D01*
X120032976Y-111369047D01*
X120032976Y-111035714D01*
X120080595Y-110845238D01*
X120175833Y-110750000D01*
X120271071Y-110702380D01*
X121128214Y-111702380D02*
X121128214Y-110702380D01*
X121461547Y-111416666D01*
X121794880Y-110702380D01*
X121794880Y-111702380D01*
X122699642Y-111035714D02*
X122699642Y-111702380D01*
X122461547Y-110654761D02*
X122223452Y-111369047D01*
X122842500Y-111369047D01*
X123223452Y-111178571D02*
X123985357Y-111178571D01*
X123985357Y-111464285D02*
X123223452Y-111464285D01*
X124461547Y-111702380D02*
X124461547Y-110702380D01*
X125509166Y-111702380D02*
X125175833Y-111226190D01*
X124937738Y-111702380D02*
X124937738Y-110702380D01*
X125318690Y-110702380D01*
X125413928Y-110750000D01*
X125461547Y-110797619D01*
X125509166Y-110892857D01*
X125509166Y-111035714D01*
X125461547Y-111130952D01*
X125413928Y-111178571D01*
X125318690Y-111226190D01*
X124937738Y-111226190D01*
X126604404Y-111797619D02*
X126509166Y-111750000D01*
X126413928Y-111654761D01*
X126271071Y-111511904D01*
X126175833Y-111464285D01*
X126080595Y-111464285D01*
X126128214Y-111702380D02*
X126032976Y-111654761D01*
X125937738Y-111559523D01*
X125890119Y-111369047D01*
X125890119Y-111035714D01*
X125937738Y-110845238D01*
X126032976Y-110750000D01*
X126128214Y-110702380D01*
X126318690Y-110702380D01*
X126413928Y-110750000D01*
X126509166Y-110845238D01*
X126556785Y-111035714D01*
X126556785Y-111369047D01*
X126509166Y-111559523D01*
X126413928Y-111654761D01*
X126318690Y-111702380D01*
X126128214Y-111702380D01*
X126890119Y-110702380D02*
X127509166Y-110702380D01*
X127175833Y-111083333D01*
X127318690Y-111083333D01*
X127413928Y-111130952D01*
X127461547Y-111178571D01*
X127509166Y-111273809D01*
X127509166Y-111511904D01*
X127461547Y-111607142D01*
X127413928Y-111654761D01*
X127318690Y-111702380D01*
X127032976Y-111702380D01*
X126937738Y-111654761D01*
X126890119Y-111607142D01*
X122166190Y-126627380D02*
X122166190Y-125627380D01*
X123213809Y-126627380D02*
X122880476Y-126151190D01*
X122642380Y-126627380D02*
X122642380Y-125627380D01*
X123023333Y-125627380D01*
X123118571Y-125675000D01*
X123166190Y-125722619D01*
X123213809Y-125817857D01*
X123213809Y-125960714D01*
X123166190Y-126055952D01*
X123118571Y-126103571D01*
X123023333Y-126151190D01*
X122642380Y-126151190D01*
X124309047Y-126722619D02*
X124213809Y-126675000D01*
X124118571Y-126579761D01*
X123975714Y-126436904D01*
X123880476Y-126389285D01*
X123785238Y-126389285D01*
X123832857Y-126627380D02*
X123737619Y-126579761D01*
X123642380Y-126484523D01*
X123594761Y-126294047D01*
X123594761Y-125960714D01*
X123642380Y-125770238D01*
X123737619Y-125675000D01*
X123832857Y-125627380D01*
X124023333Y-125627380D01*
X124118571Y-125675000D01*
X124213809Y-125770238D01*
X124261428Y-125960714D01*
X124261428Y-126294047D01*
X124213809Y-126484523D01*
X124118571Y-126579761D01*
X124023333Y-126627380D01*
X123832857Y-126627380D01*
X119428095Y-128229761D02*
X119570952Y-128277380D01*
X119809047Y-128277380D01*
X119904285Y-128229761D01*
X119951904Y-128182142D01*
X119999523Y-128086904D01*
X119999523Y-127991666D01*
X119951904Y-127896428D01*
X119904285Y-127848809D01*
X119809047Y-127801190D01*
X119618571Y-127753571D01*
X119523333Y-127705952D01*
X119475714Y-127658333D01*
X119428095Y-127563095D01*
X119428095Y-127467857D01*
X119475714Y-127372619D01*
X119523333Y-127325000D01*
X119618571Y-127277380D01*
X119856666Y-127277380D01*
X119999523Y-127325000D01*
X120428095Y-127753571D02*
X120761428Y-127753571D01*
X120904285Y-128277380D02*
X120428095Y-128277380D01*
X120428095Y-127277380D01*
X120904285Y-127277380D01*
X121809047Y-128277380D02*
X121332857Y-128277380D01*
X121332857Y-127277380D01*
X122142380Y-127753571D02*
X122475714Y-127753571D01*
X122618571Y-128277380D02*
X122142380Y-128277380D01*
X122142380Y-127277380D01*
X122618571Y-127277380D01*
X123618571Y-128182142D02*
X123570952Y-128229761D01*
X123428095Y-128277380D01*
X123332857Y-128277380D01*
X123190000Y-128229761D01*
X123094761Y-128134523D01*
X123047142Y-128039285D01*
X122999523Y-127848809D01*
X122999523Y-127705952D01*
X123047142Y-127515476D01*
X123094761Y-127420238D01*
X123190000Y-127325000D01*
X123332857Y-127277380D01*
X123428095Y-127277380D01*
X123570952Y-127325000D01*
X123618571Y-127372619D01*
X123904285Y-127277380D02*
X124475714Y-127277380D01*
X124190000Y-128277380D02*
X124190000Y-127277380D01*
X124809047Y-128277380D02*
X124809047Y-127277380D01*
X125475714Y-127277380D02*
X125666190Y-127277380D01*
X125761428Y-127325000D01*
X125856666Y-127420238D01*
X125904285Y-127610714D01*
X125904285Y-127944047D01*
X125856666Y-128134523D01*
X125761428Y-128229761D01*
X125666190Y-128277380D01*
X125475714Y-128277380D01*
X125380476Y-128229761D01*
X125285238Y-128134523D01*
X125237619Y-127944047D01*
X125237619Y-127610714D01*
X125285238Y-127420238D01*
X125380476Y-127325000D01*
X125475714Y-127277380D01*
X126332857Y-128277380D02*
X126332857Y-127277380D01*
X126904285Y-128277380D01*
X126904285Y-127277380D01*
X126700595Y-121737380D02*
X126700595Y-120737380D01*
X127748214Y-121737380D02*
X127414880Y-121261190D01*
X127176785Y-121737380D02*
X127176785Y-120737380D01*
X127557738Y-120737380D01*
X127652976Y-120785000D01*
X127700595Y-120832619D01*
X127748214Y-120927857D01*
X127748214Y-121070714D01*
X127700595Y-121165952D01*
X127652976Y-121213571D01*
X127557738Y-121261190D01*
X127176785Y-121261190D01*
X128843452Y-121832619D02*
X128748214Y-121785000D01*
X128652976Y-121689761D01*
X128510119Y-121546904D01*
X128414880Y-121499285D01*
X128319642Y-121499285D01*
X128367261Y-121737380D02*
X128272023Y-121689761D01*
X128176785Y-121594523D01*
X128129166Y-121404047D01*
X128129166Y-121070714D01*
X128176785Y-120880238D01*
X128272023Y-120785000D01*
X128367261Y-120737380D01*
X128557738Y-120737380D01*
X128652976Y-120785000D01*
X128748214Y-120880238D01*
X128795833Y-121070714D01*
X128795833Y-121404047D01*
X128748214Y-121594523D01*
X128652976Y-121689761D01*
X128557738Y-121737380D01*
X128367261Y-121737380D01*
X129700595Y-120737380D02*
X129224404Y-120737380D01*
X129176785Y-121213571D01*
X129224404Y-121165952D01*
X129319642Y-121118333D01*
X129557738Y-121118333D01*
X129652976Y-121165952D01*
X129700595Y-121213571D01*
X129748214Y-121308809D01*
X129748214Y-121546904D01*
X129700595Y-121642142D01*
X129652976Y-121689761D01*
X129557738Y-121737380D01*
X129319642Y-121737380D01*
X129224404Y-121689761D01*
X129176785Y-121642142D01*
X126700595Y-124277380D02*
X126700595Y-123277380D01*
X127748214Y-124277380D02*
X127414880Y-123801190D01*
X127176785Y-124277380D02*
X127176785Y-123277380D01*
X127557738Y-123277380D01*
X127652976Y-123325000D01*
X127700595Y-123372619D01*
X127748214Y-123467857D01*
X127748214Y-123610714D01*
X127700595Y-123705952D01*
X127652976Y-123753571D01*
X127557738Y-123801190D01*
X127176785Y-123801190D01*
X128843452Y-124372619D02*
X128748214Y-124325000D01*
X128652976Y-124229761D01*
X128510119Y-124086904D01*
X128414880Y-124039285D01*
X128319642Y-124039285D01*
X128367261Y-124277380D02*
X128272023Y-124229761D01*
X128176785Y-124134523D01*
X128129166Y-123944047D01*
X128129166Y-123610714D01*
X128176785Y-123420238D01*
X128272023Y-123325000D01*
X128367261Y-123277380D01*
X128557738Y-123277380D01*
X128652976Y-123325000D01*
X128748214Y-123420238D01*
X128795833Y-123610714D01*
X128795833Y-123944047D01*
X128748214Y-124134523D01*
X128652976Y-124229761D01*
X128557738Y-124277380D01*
X128367261Y-124277380D01*
X129129166Y-123277380D02*
X129795833Y-123277380D01*
X129367261Y-124277380D01*
X126700595Y-119197380D02*
X126700595Y-118197380D01*
X127748214Y-119197380D02*
X127414880Y-118721190D01*
X127176785Y-119197380D02*
X127176785Y-118197380D01*
X127557738Y-118197380D01*
X127652976Y-118245000D01*
X127700595Y-118292619D01*
X127748214Y-118387857D01*
X127748214Y-118530714D01*
X127700595Y-118625952D01*
X127652976Y-118673571D01*
X127557738Y-118721190D01*
X127176785Y-118721190D01*
X128843452Y-119292619D02*
X128748214Y-119245000D01*
X128652976Y-119149761D01*
X128510119Y-119006904D01*
X128414880Y-118959285D01*
X128319642Y-118959285D01*
X128367261Y-119197380D02*
X128272023Y-119149761D01*
X128176785Y-119054523D01*
X128129166Y-118864047D01*
X128129166Y-118530714D01*
X128176785Y-118340238D01*
X128272023Y-118245000D01*
X128367261Y-118197380D01*
X128557738Y-118197380D01*
X128652976Y-118245000D01*
X128748214Y-118340238D01*
X128795833Y-118530714D01*
X128795833Y-118864047D01*
X128748214Y-119054523D01*
X128652976Y-119149761D01*
X128557738Y-119197380D01*
X128367261Y-119197380D01*
X129652976Y-118530714D02*
X129652976Y-119197380D01*
X129414880Y-118149761D02*
X129176785Y-118864047D01*
X129795833Y-118864047D01*
X126700595Y-116657380D02*
X126700595Y-115657380D01*
X127748214Y-116657380D02*
X127414880Y-116181190D01*
X127176785Y-116657380D02*
X127176785Y-115657380D01*
X127557738Y-115657380D01*
X127652976Y-115705000D01*
X127700595Y-115752619D01*
X127748214Y-115847857D01*
X127748214Y-115990714D01*
X127700595Y-116085952D01*
X127652976Y-116133571D01*
X127557738Y-116181190D01*
X127176785Y-116181190D01*
X128843452Y-116752619D02*
X128748214Y-116705000D01*
X128652976Y-116609761D01*
X128510119Y-116466904D01*
X128414880Y-116419285D01*
X128319642Y-116419285D01*
X128367261Y-116657380D02*
X128272023Y-116609761D01*
X128176785Y-116514523D01*
X128129166Y-116324047D01*
X128129166Y-115990714D01*
X128176785Y-115800238D01*
X128272023Y-115705000D01*
X128367261Y-115657380D01*
X128557738Y-115657380D01*
X128652976Y-115705000D01*
X128748214Y-115800238D01*
X128795833Y-115990714D01*
X128795833Y-116324047D01*
X128748214Y-116514523D01*
X128652976Y-116609761D01*
X128557738Y-116657380D01*
X128367261Y-116657380D01*
X129129166Y-115657380D02*
X129748214Y-115657380D01*
X129414880Y-116038333D01*
X129557738Y-116038333D01*
X129652976Y-116085952D01*
X129700595Y-116133571D01*
X129748214Y-116228809D01*
X129748214Y-116466904D01*
X129700595Y-116562142D01*
X129652976Y-116609761D01*
X129557738Y-116657380D01*
X129272023Y-116657380D01*
X129176785Y-116609761D01*
X129129166Y-116562142D01*
X126700595Y-114117380D02*
X126700595Y-113117380D01*
X127748214Y-114117380D02*
X127414880Y-113641190D01*
X127176785Y-114117380D02*
X127176785Y-113117380D01*
X127557738Y-113117380D01*
X127652976Y-113165000D01*
X127700595Y-113212619D01*
X127748214Y-113307857D01*
X127748214Y-113450714D01*
X127700595Y-113545952D01*
X127652976Y-113593571D01*
X127557738Y-113641190D01*
X127176785Y-113641190D01*
X128843452Y-114212619D02*
X128748214Y-114165000D01*
X128652976Y-114069761D01*
X128510119Y-113926904D01*
X128414880Y-113879285D01*
X128319642Y-113879285D01*
X128367261Y-114117380D02*
X128272023Y-114069761D01*
X128176785Y-113974523D01*
X128129166Y-113784047D01*
X128129166Y-113450714D01*
X128176785Y-113260238D01*
X128272023Y-113165000D01*
X128367261Y-113117380D01*
X128557738Y-113117380D01*
X128652976Y-113165000D01*
X128748214Y-113260238D01*
X128795833Y-113450714D01*
X128795833Y-113784047D01*
X128748214Y-113974523D01*
X128652976Y-114069761D01*
X128557738Y-114117380D01*
X128367261Y-114117380D01*
X129176785Y-113212619D02*
X129224404Y-113165000D01*
X129319642Y-113117380D01*
X129557738Y-113117380D01*
X129652976Y-113165000D01*
X129700595Y-113212619D01*
X129748214Y-113307857D01*
X129748214Y-113403095D01*
X129700595Y-113545952D01*
X129129166Y-114117380D01*
X129748214Y-114117380D01*
D13*
%TO.C,CN1*%
X186287000Y-101614000D02*
X201273000Y-101614000D01*
X186287000Y-70626000D02*
X186287000Y-101614000D01*
X201273000Y-70626000D02*
X186287000Y-70626000D01*
D14*
X201273000Y-101614000D02*
X201273000Y-70626000D01*
X207115000Y-77992000D02*
X201273000Y-77992000D01*
X207115000Y-94248000D02*
X207115000Y-77992000D01*
X201273000Y-94248000D02*
X207115000Y-94248000D01*
X207115000Y-96153000D02*
X201400000Y-96153000D01*
X207115000Y-101233000D02*
X207115000Y-96153000D01*
X201273000Y-101233000D02*
X207115000Y-101233000D01*
X207115000Y-71007000D02*
X201400000Y-71007000D01*
X207115000Y-76087000D02*
X207115000Y-71007000D01*
X201273000Y-76087000D02*
X207115000Y-76087000D01*
X201273000Y-75071000D02*
X207115000Y-75071000D01*
X201273000Y-72023000D02*
X207115000Y-72023000D01*
X201273000Y-100217000D02*
X207115000Y-100217000D01*
X201273000Y-97169000D02*
X207115000Y-97169000D01*
X198606000Y-101614000D02*
X198606000Y-70626000D01*
D13*
X198606000Y-95137000D02*
X186287000Y-95137000D01*
X198606000Y-77103000D02*
X186287000Y-77103000D01*
D14*
X198479000Y-96280000D02*
X198225000Y-96280000D01*
X198479000Y-101106000D02*
X198479000Y-96280000D01*
X198225000Y-101106000D02*
X198479000Y-101106000D01*
X198225000Y-96280000D02*
X198225000Y-101106000D01*
X198479000Y-71261000D02*
X198225000Y-71261000D01*
X198479000Y-75833000D02*
X198479000Y-71261000D01*
X198225000Y-75833000D02*
X198479000Y-75833000D01*
X198225000Y-71261000D02*
X198225000Y-75833000D01*
D13*
%TO.C,U2*%
X113725000Y-73540000D02*
X103445000Y-73540000D01*
X113725000Y-99180000D02*
X113725000Y-73540000D01*
X103445000Y-99180000D02*
X113725000Y-99180000D01*
X103445000Y-73540000D02*
X103445000Y-99180000D01*
X111235000Y-73600000D02*
X109585000Y-73600000D01*
X111235000Y-99120000D02*
X111235000Y-73600000D01*
X105935000Y-99120000D02*
X111235000Y-99120000D01*
X105935000Y-73600000D02*
X105935000Y-99120000D01*
X107585000Y-73600000D02*
X105935000Y-73600000D01*
X109585000Y-73600000D02*
G75*
G02*
X107585000Y-73600000I-1000000J0D01*
G01*
%TO.C,U1*%
X158175000Y-73540000D02*
X140275000Y-73540000D01*
X158175000Y-124580000D02*
X158175000Y-73540000D01*
X140275000Y-124580000D02*
X158175000Y-124580000D01*
X140275000Y-73540000D02*
X140275000Y-124580000D01*
X155685000Y-73600000D02*
X150225000Y-73600000D01*
X155685000Y-124520000D02*
X155685000Y-73600000D01*
X142765000Y-124520000D02*
X155685000Y-124520000D01*
X142765000Y-73600000D02*
X142765000Y-124520000D01*
X148225000Y-73600000D02*
X142765000Y-73600000D01*
X150225000Y-73600000D02*
G75*
G02*
X148225000Y-73600000I-1000000J0D01*
G01*
%TO.C,U3*%
X173625000Y-73600000D02*
X171975000Y-73600000D01*
X171975000Y-73600000D02*
X171975000Y-99120000D01*
X171975000Y-99120000D02*
X177275000Y-99120000D01*
X177275000Y-99120000D02*
X177275000Y-73600000D01*
X177275000Y-73600000D02*
X175625000Y-73600000D01*
X169485000Y-73540000D02*
X169485000Y-99180000D01*
X169485000Y-99180000D02*
X179765000Y-99180000D01*
X179765000Y-99180000D02*
X179765000Y-73540000D01*
X179765000Y-73540000D02*
X169485000Y-73540000D01*
X175625000Y-73600000D02*
G75*
G02*
X173625000Y-73600000I-1000000J0D01*
G01*
D10*
%TO.C,U4*%
X132080000Y-95250000D02*
X121920000Y-95250000D01*
X133350000Y-83820000D02*
X133350000Y-93980000D01*
X133350000Y-76200000D02*
X133350000Y-81915000D01*
X120015000Y-74295000D02*
X120015000Y-77470000D01*
X120015000Y-74295000D02*
X123190000Y-74295000D01*
X123190000Y-74930000D02*
X132080000Y-74930000D01*
X120015000Y-81915000D02*
X123190000Y-81915000D01*
X120015000Y-81915000D02*
X120015000Y-85090000D01*
X123190000Y-82550000D02*
X132080000Y-82550000D01*
X120650000Y-93980000D02*
X120650000Y-85090000D01*
X133350000Y-76200000D02*
G75*
G03*
X132080000Y-74930000I-1270000J0D01*
G01*
X132080000Y-95250000D02*
G75*
G03*
X133350000Y-93980000I0J1270000D01*
G01*
X120650000Y-93980000D02*
G75*
G03*
X121920000Y-95250000I1270000J0D01*
G01*
X133350000Y-83820000D02*
G75*
G03*
X132080000Y-82550000I-1270000J0D01*
G01*
D13*
%TO.C,C3*%
X181190000Y-80100000D02*
X180524000Y-80100000D01*
X183966000Y-80100000D02*
X183300000Y-80100000D01*
X181190000Y-74760000D02*
X180524000Y-74760000D01*
X183966000Y-74760000D02*
X183300000Y-74760000D01*
X180524000Y-74760000D02*
X180524000Y-80100000D01*
X183966000Y-74760000D02*
X183966000Y-80100000D01*
%TO.C,C1*%
X159600000Y-80100000D02*
X158934000Y-80100000D01*
X162376000Y-80100000D02*
X161710000Y-80100000D01*
X159600000Y-74760000D02*
X158934000Y-74760000D01*
X162376000Y-74760000D02*
X161710000Y-74760000D01*
X158934000Y-74760000D02*
X158934000Y-80100000D01*
X162376000Y-74760000D02*
X162376000Y-80100000D01*
%TO.C,C4*%
X135470000Y-80100000D02*
X134804000Y-80100000D01*
X138246000Y-80100000D02*
X137580000Y-80100000D01*
X135470000Y-74760000D02*
X134804000Y-74760000D01*
X138246000Y-74760000D02*
X137580000Y-74760000D01*
X134804000Y-74760000D02*
X134804000Y-80100000D01*
X138246000Y-74760000D02*
X138246000Y-80100000D01*
%TO.C,C2*%
X115150000Y-80100000D02*
X114484000Y-80100000D01*
X117926000Y-80100000D02*
X117260000Y-80100000D01*
X115150000Y-74760000D02*
X114484000Y-74760000D01*
X117926000Y-74760000D02*
X117260000Y-74760000D01*
X114484000Y-74760000D02*
X114484000Y-80100000D01*
X117926000Y-74760000D02*
X117926000Y-80100000D01*
%TO.C,C7*%
X173365000Y-120672789D02*
X172615000Y-120672789D01*
X172990000Y-120297789D02*
X172990000Y-121047789D01*
X171256000Y-128281000D02*
X170374000Y-128281000D01*
X171508000Y-128241000D02*
X170122000Y-128241000D01*
X171692000Y-128201000D02*
X169938000Y-128201000D01*
X171843000Y-128161000D02*
X169787000Y-128161000D01*
X171973000Y-128121000D02*
X169657000Y-128121000D01*
X172090000Y-128081000D02*
X169540000Y-128081000D01*
X172196000Y-128041000D02*
X169434000Y-128041000D01*
X172293000Y-128001000D02*
X169337000Y-128001000D01*
X172384000Y-127961000D02*
X169246000Y-127961000D01*
X172469000Y-127921000D02*
X169161000Y-127921000D01*
X172548000Y-127881000D02*
X169082000Y-127881000D01*
X172624000Y-127841000D02*
X169006000Y-127841000D01*
X172696000Y-127801000D02*
X168934000Y-127801000D01*
X172764000Y-127761000D02*
X168866000Y-127761000D01*
X172829000Y-127721000D02*
X168801000Y-127721000D01*
X172892000Y-127681000D02*
X168738000Y-127681000D01*
X172952000Y-127641000D02*
X168678000Y-127641000D01*
X173010000Y-127601000D02*
X168620000Y-127601000D01*
X173065000Y-127561000D02*
X168565000Y-127561000D01*
X173119000Y-127521000D02*
X168511000Y-127521000D01*
X173170000Y-127481000D02*
X168460000Y-127481000D01*
X173220000Y-127441000D02*
X168410000Y-127441000D01*
X173269000Y-127401000D02*
X168361000Y-127401000D01*
X173315000Y-127361000D02*
X168315000Y-127361000D01*
X173361000Y-127321000D02*
X168269000Y-127321000D01*
X173404000Y-127281000D02*
X168226000Y-127281000D01*
X173447000Y-127241000D02*
X168183000Y-127241000D01*
X173488000Y-127201000D02*
X168142000Y-127201000D01*
X173528000Y-127161000D02*
X168102000Y-127161000D01*
X173567000Y-127121000D02*
X168063000Y-127121000D01*
X173605000Y-127081000D02*
X168025000Y-127081000D01*
X173642000Y-127041000D02*
X167988000Y-127041000D01*
X173678000Y-127001000D02*
X167952000Y-127001000D01*
X173713000Y-126961000D02*
X167917000Y-126961000D01*
X173746000Y-126921000D02*
X167884000Y-126921000D01*
X173779000Y-126881000D02*
X167851000Y-126881000D01*
X173811000Y-126841000D02*
X167819000Y-126841000D01*
X173843000Y-126801000D02*
X167787000Y-126801000D01*
X173873000Y-126761000D02*
X167757000Y-126761000D01*
X169775000Y-126721000D02*
X167727000Y-126721000D01*
X173903000Y-126721000D02*
X171855000Y-126721000D01*
X169775000Y-126681000D02*
X167699000Y-126681000D01*
X173931000Y-126681000D02*
X171855000Y-126681000D01*
X169775000Y-126641000D02*
X167671000Y-126641000D01*
X173959000Y-126641000D02*
X171855000Y-126641000D01*
X169775000Y-126601000D02*
X167643000Y-126601000D01*
X173987000Y-126601000D02*
X171855000Y-126601000D01*
X169775000Y-126561000D02*
X167617000Y-126561000D01*
X174013000Y-126561000D02*
X171855000Y-126561000D01*
X169775000Y-126521000D02*
X167591000Y-126521000D01*
X174039000Y-126521000D02*
X171855000Y-126521000D01*
X169775000Y-126481000D02*
X167566000Y-126481000D01*
X174064000Y-126481000D02*
X171855000Y-126481000D01*
X169775000Y-126441000D02*
X167541000Y-126441000D01*
X174089000Y-126441000D02*
X171855000Y-126441000D01*
X169775000Y-126401000D02*
X167518000Y-126401000D01*
X174112000Y-126401000D02*
X171855000Y-126401000D01*
X169775000Y-126361000D02*
X167494000Y-126361000D01*
X174136000Y-126361000D02*
X171855000Y-126361000D01*
X169775000Y-126321000D02*
X167472000Y-126321000D01*
X174158000Y-126321000D02*
X171855000Y-126321000D01*
X169775000Y-126281000D02*
X167450000Y-126281000D01*
X174180000Y-126281000D02*
X171855000Y-126281000D01*
X169775000Y-126241000D02*
X167429000Y-126241000D01*
X174201000Y-126241000D02*
X171855000Y-126241000D01*
X169775000Y-126201000D02*
X167408000Y-126201000D01*
X174222000Y-126201000D02*
X171855000Y-126201000D01*
X169775000Y-126161000D02*
X167388000Y-126161000D01*
X174242000Y-126161000D02*
X171855000Y-126161000D01*
X169775000Y-126121000D02*
X167368000Y-126121000D01*
X174262000Y-126121000D02*
X171855000Y-126121000D01*
X169775000Y-126081000D02*
X167349000Y-126081000D01*
X174281000Y-126081000D02*
X171855000Y-126081000D01*
X169775000Y-126041000D02*
X167331000Y-126041000D01*
X174299000Y-126041000D02*
X171855000Y-126041000D01*
X169775000Y-126001000D02*
X167313000Y-126001000D01*
X174317000Y-126001000D02*
X171855000Y-126001000D01*
X169775000Y-125961000D02*
X167295000Y-125961000D01*
X174335000Y-125961000D02*
X171855000Y-125961000D01*
X169775000Y-125921000D02*
X167279000Y-125921000D01*
X174351000Y-125921000D02*
X171855000Y-125921000D01*
X169775000Y-125881000D02*
X167262000Y-125881000D01*
X174368000Y-125881000D02*
X171855000Y-125881000D01*
X169775000Y-125841000D02*
X167247000Y-125841000D01*
X174383000Y-125841000D02*
X171855000Y-125841000D01*
X169775000Y-125801000D02*
X167231000Y-125801000D01*
X174399000Y-125801000D02*
X171855000Y-125801000D01*
X169775000Y-125761000D02*
X167217000Y-125761000D01*
X174413000Y-125761000D02*
X171855000Y-125761000D01*
X169775000Y-125721000D02*
X167202000Y-125721000D01*
X174428000Y-125721000D02*
X171855000Y-125721000D01*
X169775000Y-125681000D02*
X167189000Y-125681000D01*
X174441000Y-125681000D02*
X171855000Y-125681000D01*
X169775000Y-125641000D02*
X167175000Y-125641000D01*
X174455000Y-125641000D02*
X171855000Y-125641000D01*
X169775000Y-125601000D02*
X167162000Y-125601000D01*
X174468000Y-125601000D02*
X171855000Y-125601000D01*
X169775000Y-125561000D02*
X167150000Y-125561000D01*
X174480000Y-125561000D02*
X171855000Y-125561000D01*
X169775000Y-125521000D02*
X167138000Y-125521000D01*
X174492000Y-125521000D02*
X171855000Y-125521000D01*
X169775000Y-125481000D02*
X167127000Y-125481000D01*
X174503000Y-125481000D02*
X171855000Y-125481000D01*
X169775000Y-125441000D02*
X167116000Y-125441000D01*
X174514000Y-125441000D02*
X171855000Y-125441000D01*
X169775000Y-125401000D02*
X167105000Y-125401000D01*
X174525000Y-125401000D02*
X171855000Y-125401000D01*
X169775000Y-125361000D02*
X167095000Y-125361000D01*
X174535000Y-125361000D02*
X171855000Y-125361000D01*
X169775000Y-125321000D02*
X167086000Y-125321000D01*
X174544000Y-125321000D02*
X171855000Y-125321000D01*
X169775000Y-125281000D02*
X167077000Y-125281000D01*
X174553000Y-125281000D02*
X171855000Y-125281000D01*
X169775000Y-125241000D02*
X167068000Y-125241000D01*
X174562000Y-125241000D02*
X171855000Y-125241000D01*
X169775000Y-125201000D02*
X167060000Y-125201000D01*
X174570000Y-125201000D02*
X171855000Y-125201000D01*
X169775000Y-125161000D02*
X167052000Y-125161000D01*
X174578000Y-125161000D02*
X171855000Y-125161000D01*
X169775000Y-125120000D02*
X167045000Y-125120000D01*
X174585000Y-125120000D02*
X171855000Y-125120000D01*
X169775000Y-125080000D02*
X167038000Y-125080000D01*
X174592000Y-125080000D02*
X171855000Y-125080000D01*
X169775000Y-125040000D02*
X167031000Y-125040000D01*
X174599000Y-125040000D02*
X171855000Y-125040000D01*
X169775000Y-125000000D02*
X167025000Y-125000000D01*
X174605000Y-125000000D02*
X171855000Y-125000000D01*
X169775000Y-124960000D02*
X167020000Y-124960000D01*
X174610000Y-124960000D02*
X171855000Y-124960000D01*
X169775000Y-124920000D02*
X167014000Y-124920000D01*
X174616000Y-124920000D02*
X171855000Y-124920000D01*
X169775000Y-124880000D02*
X167010000Y-124880000D01*
X174620000Y-124880000D02*
X171855000Y-124880000D01*
X169775000Y-124840000D02*
X167005000Y-124840000D01*
X174625000Y-124840000D02*
X171855000Y-124840000D01*
X169775000Y-124800000D02*
X167001000Y-124800000D01*
X174629000Y-124800000D02*
X171855000Y-124800000D01*
X169775000Y-124760000D02*
X166998000Y-124760000D01*
X174632000Y-124760000D02*
X171855000Y-124760000D01*
X169775000Y-124720000D02*
X166995000Y-124720000D01*
X174635000Y-124720000D02*
X171855000Y-124720000D01*
X169775000Y-124680000D02*
X166992000Y-124680000D01*
X174638000Y-124680000D02*
X171855000Y-124680000D01*
X174640000Y-124640000D02*
X166990000Y-124640000D01*
X174642000Y-124600000D02*
X166988000Y-124600000D01*
X174644000Y-124560000D02*
X166986000Y-124560000D01*
X174645000Y-124520000D02*
X166985000Y-124520000D01*
X174645000Y-124480000D02*
X166985000Y-124480000D01*
X174645000Y-124440000D02*
X166985000Y-124440000D01*
X174685000Y-124440000D02*
G75*
G03*
X174685000Y-124440000I-3870000J0D01*
G01*
%TO.C,C6*%
X173365000Y-111147789D02*
X172615000Y-111147789D01*
X172990000Y-110772789D02*
X172990000Y-111522789D01*
X171256000Y-118756000D02*
X170374000Y-118756000D01*
X171508000Y-118716000D02*
X170122000Y-118716000D01*
X171692000Y-118676000D02*
X169938000Y-118676000D01*
X171843000Y-118636000D02*
X169787000Y-118636000D01*
X171973000Y-118596000D02*
X169657000Y-118596000D01*
X172090000Y-118556000D02*
X169540000Y-118556000D01*
X172196000Y-118516000D02*
X169434000Y-118516000D01*
X172293000Y-118476000D02*
X169337000Y-118476000D01*
X172384000Y-118436000D02*
X169246000Y-118436000D01*
X172469000Y-118396000D02*
X169161000Y-118396000D01*
X172548000Y-118356000D02*
X169082000Y-118356000D01*
X172624000Y-118316000D02*
X169006000Y-118316000D01*
X172696000Y-118276000D02*
X168934000Y-118276000D01*
X172764000Y-118236000D02*
X168866000Y-118236000D01*
X172829000Y-118196000D02*
X168801000Y-118196000D01*
X172892000Y-118156000D02*
X168738000Y-118156000D01*
X172952000Y-118116000D02*
X168678000Y-118116000D01*
X173010000Y-118076000D02*
X168620000Y-118076000D01*
X173065000Y-118036000D02*
X168565000Y-118036000D01*
X173119000Y-117996000D02*
X168511000Y-117996000D01*
X173170000Y-117956000D02*
X168460000Y-117956000D01*
X173220000Y-117916000D02*
X168410000Y-117916000D01*
X173269000Y-117876000D02*
X168361000Y-117876000D01*
X173315000Y-117836000D02*
X168315000Y-117836000D01*
X173361000Y-117796000D02*
X168269000Y-117796000D01*
X173404000Y-117756000D02*
X168226000Y-117756000D01*
X173447000Y-117716000D02*
X168183000Y-117716000D01*
X173488000Y-117676000D02*
X168142000Y-117676000D01*
X173528000Y-117636000D02*
X168102000Y-117636000D01*
X173567000Y-117596000D02*
X168063000Y-117596000D01*
X173605000Y-117556000D02*
X168025000Y-117556000D01*
X173642000Y-117516000D02*
X167988000Y-117516000D01*
X173678000Y-117476000D02*
X167952000Y-117476000D01*
X173713000Y-117436000D02*
X167917000Y-117436000D01*
X173746000Y-117396000D02*
X167884000Y-117396000D01*
X173779000Y-117356000D02*
X167851000Y-117356000D01*
X173811000Y-117316000D02*
X167819000Y-117316000D01*
X173843000Y-117276000D02*
X167787000Y-117276000D01*
X173873000Y-117236000D02*
X167757000Y-117236000D01*
X169775000Y-117196000D02*
X167727000Y-117196000D01*
X173903000Y-117196000D02*
X171855000Y-117196000D01*
X169775000Y-117156000D02*
X167699000Y-117156000D01*
X173931000Y-117156000D02*
X171855000Y-117156000D01*
X169775000Y-117116000D02*
X167671000Y-117116000D01*
X173959000Y-117116000D02*
X171855000Y-117116000D01*
X169775000Y-117076000D02*
X167643000Y-117076000D01*
X173987000Y-117076000D02*
X171855000Y-117076000D01*
X169775000Y-117036000D02*
X167617000Y-117036000D01*
X174013000Y-117036000D02*
X171855000Y-117036000D01*
X169775000Y-116996000D02*
X167591000Y-116996000D01*
X174039000Y-116996000D02*
X171855000Y-116996000D01*
X169775000Y-116956000D02*
X167566000Y-116956000D01*
X174064000Y-116956000D02*
X171855000Y-116956000D01*
X169775000Y-116916000D02*
X167541000Y-116916000D01*
X174089000Y-116916000D02*
X171855000Y-116916000D01*
X169775000Y-116876000D02*
X167518000Y-116876000D01*
X174112000Y-116876000D02*
X171855000Y-116876000D01*
X169775000Y-116836000D02*
X167494000Y-116836000D01*
X174136000Y-116836000D02*
X171855000Y-116836000D01*
X169775000Y-116796000D02*
X167472000Y-116796000D01*
X174158000Y-116796000D02*
X171855000Y-116796000D01*
X169775000Y-116756000D02*
X167450000Y-116756000D01*
X174180000Y-116756000D02*
X171855000Y-116756000D01*
X169775000Y-116716000D02*
X167429000Y-116716000D01*
X174201000Y-116716000D02*
X171855000Y-116716000D01*
X169775000Y-116676000D02*
X167408000Y-116676000D01*
X174222000Y-116676000D02*
X171855000Y-116676000D01*
X169775000Y-116636000D02*
X167388000Y-116636000D01*
X174242000Y-116636000D02*
X171855000Y-116636000D01*
X169775000Y-116596000D02*
X167368000Y-116596000D01*
X174262000Y-116596000D02*
X171855000Y-116596000D01*
X169775000Y-116556000D02*
X167349000Y-116556000D01*
X174281000Y-116556000D02*
X171855000Y-116556000D01*
X169775000Y-116516000D02*
X167331000Y-116516000D01*
X174299000Y-116516000D02*
X171855000Y-116516000D01*
X169775000Y-116476000D02*
X167313000Y-116476000D01*
X174317000Y-116476000D02*
X171855000Y-116476000D01*
X169775000Y-116436000D02*
X167295000Y-116436000D01*
X174335000Y-116436000D02*
X171855000Y-116436000D01*
X169775000Y-116396000D02*
X167279000Y-116396000D01*
X174351000Y-116396000D02*
X171855000Y-116396000D01*
X169775000Y-116356000D02*
X167262000Y-116356000D01*
X174368000Y-116356000D02*
X171855000Y-116356000D01*
X169775000Y-116316000D02*
X167247000Y-116316000D01*
X174383000Y-116316000D02*
X171855000Y-116316000D01*
X169775000Y-116276000D02*
X167231000Y-116276000D01*
X174399000Y-116276000D02*
X171855000Y-116276000D01*
X169775000Y-116236000D02*
X167217000Y-116236000D01*
X174413000Y-116236000D02*
X171855000Y-116236000D01*
X169775000Y-116196000D02*
X167202000Y-116196000D01*
X174428000Y-116196000D02*
X171855000Y-116196000D01*
X169775000Y-116156000D02*
X167189000Y-116156000D01*
X174441000Y-116156000D02*
X171855000Y-116156000D01*
X169775000Y-116116000D02*
X167175000Y-116116000D01*
X174455000Y-116116000D02*
X171855000Y-116116000D01*
X169775000Y-116076000D02*
X167162000Y-116076000D01*
X174468000Y-116076000D02*
X171855000Y-116076000D01*
X169775000Y-116036000D02*
X167150000Y-116036000D01*
X174480000Y-116036000D02*
X171855000Y-116036000D01*
X169775000Y-115996000D02*
X167138000Y-115996000D01*
X174492000Y-115996000D02*
X171855000Y-115996000D01*
X169775000Y-115956000D02*
X167127000Y-115956000D01*
X174503000Y-115956000D02*
X171855000Y-115956000D01*
X169775000Y-115916000D02*
X167116000Y-115916000D01*
X174514000Y-115916000D02*
X171855000Y-115916000D01*
X169775000Y-115876000D02*
X167105000Y-115876000D01*
X174525000Y-115876000D02*
X171855000Y-115876000D01*
X169775000Y-115836000D02*
X167095000Y-115836000D01*
X174535000Y-115836000D02*
X171855000Y-115836000D01*
X169775000Y-115796000D02*
X167086000Y-115796000D01*
X174544000Y-115796000D02*
X171855000Y-115796000D01*
X169775000Y-115756000D02*
X167077000Y-115756000D01*
X174553000Y-115756000D02*
X171855000Y-115756000D01*
X169775000Y-115716000D02*
X167068000Y-115716000D01*
X174562000Y-115716000D02*
X171855000Y-115716000D01*
X169775000Y-115676000D02*
X167060000Y-115676000D01*
X174570000Y-115676000D02*
X171855000Y-115676000D01*
X169775000Y-115636000D02*
X167052000Y-115636000D01*
X174578000Y-115636000D02*
X171855000Y-115636000D01*
X169775000Y-115595000D02*
X167045000Y-115595000D01*
X174585000Y-115595000D02*
X171855000Y-115595000D01*
X169775000Y-115555000D02*
X167038000Y-115555000D01*
X174592000Y-115555000D02*
X171855000Y-115555000D01*
X169775000Y-115515000D02*
X167031000Y-115515000D01*
X174599000Y-115515000D02*
X171855000Y-115515000D01*
X169775000Y-115475000D02*
X167025000Y-115475000D01*
X174605000Y-115475000D02*
X171855000Y-115475000D01*
X169775000Y-115435000D02*
X167020000Y-115435000D01*
X174610000Y-115435000D02*
X171855000Y-115435000D01*
X169775000Y-115395000D02*
X167014000Y-115395000D01*
X174616000Y-115395000D02*
X171855000Y-115395000D01*
X169775000Y-115355000D02*
X167010000Y-115355000D01*
X174620000Y-115355000D02*
X171855000Y-115355000D01*
X169775000Y-115315000D02*
X167005000Y-115315000D01*
X174625000Y-115315000D02*
X171855000Y-115315000D01*
X169775000Y-115275000D02*
X167001000Y-115275000D01*
X174629000Y-115275000D02*
X171855000Y-115275000D01*
X169775000Y-115235000D02*
X166998000Y-115235000D01*
X174632000Y-115235000D02*
X171855000Y-115235000D01*
X169775000Y-115195000D02*
X166995000Y-115195000D01*
X174635000Y-115195000D02*
X171855000Y-115195000D01*
X169775000Y-115155000D02*
X166992000Y-115155000D01*
X174638000Y-115155000D02*
X171855000Y-115155000D01*
X174640000Y-115115000D02*
X166990000Y-115115000D01*
X174642000Y-115075000D02*
X166988000Y-115075000D01*
X174644000Y-115035000D02*
X166986000Y-115035000D01*
X174645000Y-114995000D02*
X166985000Y-114995000D01*
X174645000Y-114955000D02*
X166985000Y-114955000D01*
X174645000Y-114915000D02*
X166985000Y-114915000D01*
X174685000Y-114915000D02*
G75*
G03*
X174685000Y-114915000I-3870000J0D01*
G01*
%TO.C,C5*%
X174685000Y-105390000D02*
G75*
G03*
X174685000Y-105390000I-3870000J0D01*
G01*
X174645000Y-105390000D02*
X166985000Y-105390000D01*
X174645000Y-105430000D02*
X166985000Y-105430000D01*
X174645000Y-105470000D02*
X166985000Y-105470000D01*
X174644000Y-105510000D02*
X166986000Y-105510000D01*
X174642000Y-105550000D02*
X166988000Y-105550000D01*
X174640000Y-105590000D02*
X166990000Y-105590000D01*
X174638000Y-105630000D02*
X171855000Y-105630000D01*
X169775000Y-105630000D02*
X166992000Y-105630000D01*
X174635000Y-105670000D02*
X171855000Y-105670000D01*
X169775000Y-105670000D02*
X166995000Y-105670000D01*
X174632000Y-105710000D02*
X171855000Y-105710000D01*
X169775000Y-105710000D02*
X166998000Y-105710000D01*
X174629000Y-105750000D02*
X171855000Y-105750000D01*
X169775000Y-105750000D02*
X167001000Y-105750000D01*
X174625000Y-105790000D02*
X171855000Y-105790000D01*
X169775000Y-105790000D02*
X167005000Y-105790000D01*
X174620000Y-105830000D02*
X171855000Y-105830000D01*
X169775000Y-105830000D02*
X167010000Y-105830000D01*
X174616000Y-105870000D02*
X171855000Y-105870000D01*
X169775000Y-105870000D02*
X167014000Y-105870000D01*
X174610000Y-105910000D02*
X171855000Y-105910000D01*
X169775000Y-105910000D02*
X167020000Y-105910000D01*
X174605000Y-105950000D02*
X171855000Y-105950000D01*
X169775000Y-105950000D02*
X167025000Y-105950000D01*
X174599000Y-105990000D02*
X171855000Y-105990000D01*
X169775000Y-105990000D02*
X167031000Y-105990000D01*
X174592000Y-106030000D02*
X171855000Y-106030000D01*
X169775000Y-106030000D02*
X167038000Y-106030000D01*
X174585000Y-106070000D02*
X171855000Y-106070000D01*
X169775000Y-106070000D02*
X167045000Y-106070000D01*
X174578000Y-106111000D02*
X171855000Y-106111000D01*
X169775000Y-106111000D02*
X167052000Y-106111000D01*
X174570000Y-106151000D02*
X171855000Y-106151000D01*
X169775000Y-106151000D02*
X167060000Y-106151000D01*
X174562000Y-106191000D02*
X171855000Y-106191000D01*
X169775000Y-106191000D02*
X167068000Y-106191000D01*
X174553000Y-106231000D02*
X171855000Y-106231000D01*
X169775000Y-106231000D02*
X167077000Y-106231000D01*
X174544000Y-106271000D02*
X171855000Y-106271000D01*
X169775000Y-106271000D02*
X167086000Y-106271000D01*
X174535000Y-106311000D02*
X171855000Y-106311000D01*
X169775000Y-106311000D02*
X167095000Y-106311000D01*
X174525000Y-106351000D02*
X171855000Y-106351000D01*
X169775000Y-106351000D02*
X167105000Y-106351000D01*
X174514000Y-106391000D02*
X171855000Y-106391000D01*
X169775000Y-106391000D02*
X167116000Y-106391000D01*
X174503000Y-106431000D02*
X171855000Y-106431000D01*
X169775000Y-106431000D02*
X167127000Y-106431000D01*
X174492000Y-106471000D02*
X171855000Y-106471000D01*
X169775000Y-106471000D02*
X167138000Y-106471000D01*
X174480000Y-106511000D02*
X171855000Y-106511000D01*
X169775000Y-106511000D02*
X167150000Y-106511000D01*
X174468000Y-106551000D02*
X171855000Y-106551000D01*
X169775000Y-106551000D02*
X167162000Y-106551000D01*
X174455000Y-106591000D02*
X171855000Y-106591000D01*
X169775000Y-106591000D02*
X167175000Y-106591000D01*
X174441000Y-106631000D02*
X171855000Y-106631000D01*
X169775000Y-106631000D02*
X167189000Y-106631000D01*
X174428000Y-106671000D02*
X171855000Y-106671000D01*
X169775000Y-106671000D02*
X167202000Y-106671000D01*
X174413000Y-106711000D02*
X171855000Y-106711000D01*
X169775000Y-106711000D02*
X167217000Y-106711000D01*
X174399000Y-106751000D02*
X171855000Y-106751000D01*
X169775000Y-106751000D02*
X167231000Y-106751000D01*
X174383000Y-106791000D02*
X171855000Y-106791000D01*
X169775000Y-106791000D02*
X167247000Y-106791000D01*
X174368000Y-106831000D02*
X171855000Y-106831000D01*
X169775000Y-106831000D02*
X167262000Y-106831000D01*
X174351000Y-106871000D02*
X171855000Y-106871000D01*
X169775000Y-106871000D02*
X167279000Y-106871000D01*
X174335000Y-106911000D02*
X171855000Y-106911000D01*
X169775000Y-106911000D02*
X167295000Y-106911000D01*
X174317000Y-106951000D02*
X171855000Y-106951000D01*
X169775000Y-106951000D02*
X167313000Y-106951000D01*
X174299000Y-106991000D02*
X171855000Y-106991000D01*
X169775000Y-106991000D02*
X167331000Y-106991000D01*
X174281000Y-107031000D02*
X171855000Y-107031000D01*
X169775000Y-107031000D02*
X167349000Y-107031000D01*
X174262000Y-107071000D02*
X171855000Y-107071000D01*
X169775000Y-107071000D02*
X167368000Y-107071000D01*
X174242000Y-107111000D02*
X171855000Y-107111000D01*
X169775000Y-107111000D02*
X167388000Y-107111000D01*
X174222000Y-107151000D02*
X171855000Y-107151000D01*
X169775000Y-107151000D02*
X167408000Y-107151000D01*
X174201000Y-107191000D02*
X171855000Y-107191000D01*
X169775000Y-107191000D02*
X167429000Y-107191000D01*
X174180000Y-107231000D02*
X171855000Y-107231000D01*
X169775000Y-107231000D02*
X167450000Y-107231000D01*
X174158000Y-107271000D02*
X171855000Y-107271000D01*
X169775000Y-107271000D02*
X167472000Y-107271000D01*
X174136000Y-107311000D02*
X171855000Y-107311000D01*
X169775000Y-107311000D02*
X167494000Y-107311000D01*
X174112000Y-107351000D02*
X171855000Y-107351000D01*
X169775000Y-107351000D02*
X167518000Y-107351000D01*
X174089000Y-107391000D02*
X171855000Y-107391000D01*
X169775000Y-107391000D02*
X167541000Y-107391000D01*
X174064000Y-107431000D02*
X171855000Y-107431000D01*
X169775000Y-107431000D02*
X167566000Y-107431000D01*
X174039000Y-107471000D02*
X171855000Y-107471000D01*
X169775000Y-107471000D02*
X167591000Y-107471000D01*
X174013000Y-107511000D02*
X171855000Y-107511000D01*
X169775000Y-107511000D02*
X167617000Y-107511000D01*
X173987000Y-107551000D02*
X171855000Y-107551000D01*
X169775000Y-107551000D02*
X167643000Y-107551000D01*
X173959000Y-107591000D02*
X171855000Y-107591000D01*
X169775000Y-107591000D02*
X167671000Y-107591000D01*
X173931000Y-107631000D02*
X171855000Y-107631000D01*
X169775000Y-107631000D02*
X167699000Y-107631000D01*
X173903000Y-107671000D02*
X171855000Y-107671000D01*
X169775000Y-107671000D02*
X167727000Y-107671000D01*
X173873000Y-107711000D02*
X167757000Y-107711000D01*
X173843000Y-107751000D02*
X167787000Y-107751000D01*
X173811000Y-107791000D02*
X167819000Y-107791000D01*
X173779000Y-107831000D02*
X167851000Y-107831000D01*
X173746000Y-107871000D02*
X167884000Y-107871000D01*
X173713000Y-107911000D02*
X167917000Y-107911000D01*
X173678000Y-107951000D02*
X167952000Y-107951000D01*
X173642000Y-107991000D02*
X167988000Y-107991000D01*
X173605000Y-108031000D02*
X168025000Y-108031000D01*
X173567000Y-108071000D02*
X168063000Y-108071000D01*
X173528000Y-108111000D02*
X168102000Y-108111000D01*
X173488000Y-108151000D02*
X168142000Y-108151000D01*
X173447000Y-108191000D02*
X168183000Y-108191000D01*
X173404000Y-108231000D02*
X168226000Y-108231000D01*
X173361000Y-108271000D02*
X168269000Y-108271000D01*
X173315000Y-108311000D02*
X168315000Y-108311000D01*
X173269000Y-108351000D02*
X168361000Y-108351000D01*
X173220000Y-108391000D02*
X168410000Y-108391000D01*
X173170000Y-108431000D02*
X168460000Y-108431000D01*
X173119000Y-108471000D02*
X168511000Y-108471000D01*
X173065000Y-108511000D02*
X168565000Y-108511000D01*
X173010000Y-108551000D02*
X168620000Y-108551000D01*
X172952000Y-108591000D02*
X168678000Y-108591000D01*
X172892000Y-108631000D02*
X168738000Y-108631000D01*
X172829000Y-108671000D02*
X168801000Y-108671000D01*
X172764000Y-108711000D02*
X168866000Y-108711000D01*
X172696000Y-108751000D02*
X168934000Y-108751000D01*
X172624000Y-108791000D02*
X169006000Y-108791000D01*
X172548000Y-108831000D02*
X169082000Y-108831000D01*
X172469000Y-108871000D02*
X169161000Y-108871000D01*
X172384000Y-108911000D02*
X169246000Y-108911000D01*
X172293000Y-108951000D02*
X169337000Y-108951000D01*
X172196000Y-108991000D02*
X169434000Y-108991000D01*
X172090000Y-109031000D02*
X169540000Y-109031000D01*
X171973000Y-109071000D02*
X169657000Y-109071000D01*
X171843000Y-109111000D02*
X169787000Y-109111000D01*
X171692000Y-109151000D02*
X169938000Y-109151000D01*
X171508000Y-109191000D02*
X170122000Y-109191000D01*
X171256000Y-109231000D02*
X170374000Y-109231000D01*
X172990000Y-101247789D02*
X172990000Y-101997789D01*
X173365000Y-101622789D02*
X172615000Y-101622789D01*
%TO.C,J2*%
X120590000Y-125155000D02*
X125790000Y-125155000D01*
X120590000Y-114935000D02*
X120590000Y-125155000D01*
X125790000Y-112335000D02*
X125790000Y-125155000D01*
X120590000Y-114935000D02*
X123190000Y-114935000D01*
X123190000Y-114935000D02*
X123190000Y-112335000D01*
X123190000Y-112335000D02*
X125790000Y-112335000D01*
X120590000Y-113665000D02*
X120590000Y-112335000D01*
X120590000Y-112335000D02*
X121920000Y-112335000D01*
%TO.C,J1*%
X110550000Y-119955000D02*
X110550000Y-125155000D01*
X105410000Y-119955000D02*
X110550000Y-119955000D01*
X102810000Y-125155000D02*
X110550000Y-125155000D01*
X105410000Y-119955000D02*
X105410000Y-122555000D01*
X105410000Y-122555000D02*
X102810000Y-122555000D01*
X102810000Y-122555000D02*
X102810000Y-125155000D01*
X104140000Y-119955000D02*
X102810000Y-119955000D01*
X102810000Y-119955000D02*
X102810000Y-121285000D01*
%TO.C,CN1*%
D10*
X185777142Y-99115476D02*
X185824761Y-99163095D01*
X185872380Y-99305952D01*
X185872380Y-99401190D01*
X185824761Y-99544047D01*
X185729523Y-99639285D01*
X185634285Y-99686904D01*
X185443809Y-99734523D01*
X185300952Y-99734523D01*
X185110476Y-99686904D01*
X185015238Y-99639285D01*
X184920000Y-99544047D01*
X184872380Y-99401190D01*
X184872380Y-99305952D01*
X184920000Y-99163095D01*
X184967619Y-99115476D01*
X185872380Y-98686904D02*
X184872380Y-98686904D01*
X185872380Y-98115476D01*
X184872380Y-98115476D01*
X185872380Y-97115476D02*
X185872380Y-97686904D01*
X185872380Y-97401190D02*
X184872380Y-97401190D01*
X185015238Y-97496428D01*
X185110476Y-97591666D01*
X185158095Y-97686904D01*
D15*
X204524428Y-90805000D02*
X203000428Y-90805000D01*
X203000428Y-90442142D01*
X203073000Y-90224428D01*
X203218142Y-90079285D01*
X203363285Y-90006714D01*
X203653571Y-89934142D01*
X203871285Y-89934142D01*
X204161571Y-90006714D01*
X204306714Y-90079285D01*
X204451857Y-90224428D01*
X204524428Y-90442142D01*
X204524428Y-90805000D01*
X203726142Y-88773000D02*
X203798714Y-88555285D01*
X203871285Y-88482714D01*
X204016428Y-88410142D01*
X204234142Y-88410142D01*
X204379285Y-88482714D01*
X204451857Y-88555285D01*
X204524428Y-88700428D01*
X204524428Y-89281000D01*
X203000428Y-89281000D01*
X203000428Y-88773000D01*
X203073000Y-88627857D01*
X203145571Y-88555285D01*
X203290714Y-88482714D01*
X203435857Y-88482714D01*
X203581000Y-88555285D01*
X203653571Y-88627857D01*
X203726142Y-88773000D01*
X203726142Y-89281000D01*
X204524428Y-87684428D02*
X204524428Y-87394142D01*
X204451857Y-87249000D01*
X204379285Y-87176428D01*
X204161571Y-87031285D01*
X203871285Y-86958714D01*
X203290714Y-86958714D01*
X203145571Y-87031285D01*
X203073000Y-87103857D01*
X203000428Y-87249000D01*
X203000428Y-87539285D01*
X203073000Y-87684428D01*
X203145571Y-87757000D01*
X203290714Y-87829571D01*
X203653571Y-87829571D01*
X203798714Y-87757000D01*
X203871285Y-87684428D01*
X203943857Y-87539285D01*
X203943857Y-87249000D01*
X203871285Y-87103857D01*
X203798714Y-87031285D01*
X203653571Y-86958714D01*
X204524428Y-85144428D02*
X203000428Y-85144428D01*
X204089000Y-84636428D01*
X203000428Y-84128428D01*
X204524428Y-84128428D01*
X204524428Y-82749571D02*
X203726142Y-82749571D01*
X203581000Y-82822142D01*
X203508428Y-82967285D01*
X203508428Y-83257571D01*
X203581000Y-83402714D01*
X204451857Y-82749571D02*
X204524428Y-82894714D01*
X204524428Y-83257571D01*
X204451857Y-83402714D01*
X204306714Y-83475285D01*
X204161571Y-83475285D01*
X204016428Y-83402714D01*
X203943857Y-83257571D01*
X203943857Y-82894714D01*
X203871285Y-82749571D01*
X204524428Y-81806142D02*
X204451857Y-81951285D01*
X204306714Y-82023857D01*
X203000428Y-82023857D01*
X204451857Y-80645000D02*
X204524428Y-80790142D01*
X204524428Y-81080428D01*
X204451857Y-81225571D01*
X204306714Y-81298142D01*
X203726142Y-81298142D01*
X203581000Y-81225571D01*
X203508428Y-81080428D01*
X203508428Y-80790142D01*
X203581000Y-80645000D01*
X203726142Y-80572428D01*
X203871285Y-80572428D01*
X204016428Y-81298142D01*
D10*
X185872380Y-89693333D02*
X184872380Y-89693333D01*
X184872380Y-89455238D01*
X184920000Y-89312380D01*
X185015238Y-89217142D01*
X185110476Y-89169523D01*
X185300952Y-89121904D01*
X185443809Y-89121904D01*
X185634285Y-89169523D01*
X185729523Y-89217142D01*
X185824761Y-89312380D01*
X185872380Y-89455238D01*
X185872380Y-89693333D01*
X185348571Y-88360000D02*
X185396190Y-88217142D01*
X185443809Y-88169523D01*
X185539047Y-88121904D01*
X185681904Y-88121904D01*
X185777142Y-88169523D01*
X185824761Y-88217142D01*
X185872380Y-88312380D01*
X185872380Y-88693333D01*
X184872380Y-88693333D01*
X184872380Y-88360000D01*
X184920000Y-88264761D01*
X184967619Y-88217142D01*
X185062857Y-88169523D01*
X185158095Y-88169523D01*
X185253333Y-88217142D01*
X185300952Y-88264761D01*
X185348571Y-88360000D01*
X185348571Y-88693333D01*
X185872380Y-87645714D02*
X185872380Y-87455238D01*
X185824761Y-87360000D01*
X185777142Y-87312380D01*
X185634285Y-87217142D01*
X185443809Y-87169523D01*
X185062857Y-87169523D01*
X184967619Y-87217142D01*
X184920000Y-87264761D01*
X184872380Y-87360000D01*
X184872380Y-87550476D01*
X184920000Y-87645714D01*
X184967619Y-87693333D01*
X185062857Y-87740952D01*
X185300952Y-87740952D01*
X185396190Y-87693333D01*
X185443809Y-87645714D01*
X185491428Y-87550476D01*
X185491428Y-87360000D01*
X185443809Y-87264761D01*
X185396190Y-87217142D01*
X185300952Y-87169523D01*
X185872380Y-85979047D02*
X184872380Y-85979047D01*
X185586666Y-85645714D01*
X184872380Y-85312380D01*
X185872380Y-85312380D01*
X185872380Y-84407619D02*
X185348571Y-84407619D01*
X185253333Y-84455238D01*
X185205714Y-84550476D01*
X185205714Y-84740952D01*
X185253333Y-84836190D01*
X185824761Y-84407619D02*
X185872380Y-84502857D01*
X185872380Y-84740952D01*
X185824761Y-84836190D01*
X185729523Y-84883809D01*
X185634285Y-84883809D01*
X185539047Y-84836190D01*
X185491428Y-84740952D01*
X185491428Y-84502857D01*
X185443809Y-84407619D01*
X185872380Y-83788571D02*
X185824761Y-83883809D01*
X185729523Y-83931428D01*
X184872380Y-83931428D01*
X185824761Y-83026666D02*
X185872380Y-83121904D01*
X185872380Y-83312380D01*
X185824761Y-83407619D01*
X185729523Y-83455238D01*
X185348571Y-83455238D01*
X185253333Y-83407619D01*
X185205714Y-83312380D01*
X185205714Y-83121904D01*
X185253333Y-83026666D01*
X185348571Y-82979047D01*
X185443809Y-82979047D01*
X185539047Y-83455238D01*
%TO.C,U2*%
X107823095Y-72052380D02*
X107823095Y-72861904D01*
X107870714Y-72957142D01*
X107918333Y-73004761D01*
X108013571Y-73052380D01*
X108204047Y-73052380D01*
X108299285Y-73004761D01*
X108346904Y-72957142D01*
X108394523Y-72861904D01*
X108394523Y-72052380D01*
X108823095Y-72147619D02*
X108870714Y-72100000D01*
X108965952Y-72052380D01*
X109204047Y-72052380D01*
X109299285Y-72100000D01*
X109346904Y-72147619D01*
X109394523Y-72242857D01*
X109394523Y-72338095D01*
X109346904Y-72480952D01*
X108775476Y-73052380D01*
X109394523Y-73052380D01*
X101687380Y-98598095D02*
X101687380Y-97931428D01*
X102687380Y-98360000D01*
X102020714Y-97121904D02*
X102687380Y-97121904D01*
X101639761Y-97360000D02*
X102354047Y-97598095D01*
X102354047Y-96979047D01*
X102687380Y-96121904D02*
X102687380Y-96598095D01*
X101687380Y-96598095D01*
X102639761Y-95836190D02*
X102687380Y-95693333D01*
X102687380Y-95455238D01*
X102639761Y-95360000D01*
X102592142Y-95312380D01*
X102496904Y-95264761D01*
X102401666Y-95264761D01*
X102306428Y-95312380D01*
X102258809Y-95360000D01*
X102211190Y-95455238D01*
X102163571Y-95645714D01*
X102115952Y-95740952D01*
X102068333Y-95788571D01*
X101973095Y-95836190D01*
X101877857Y-95836190D01*
X101782619Y-95788571D01*
X101735000Y-95740952D01*
X101687380Y-95645714D01*
X101687380Y-95407619D01*
X101735000Y-95264761D01*
X101687380Y-94407619D02*
X101687380Y-94598095D01*
X101735000Y-94693333D01*
X101782619Y-94740952D01*
X101925476Y-94836190D01*
X102115952Y-94883809D01*
X102496904Y-94883809D01*
X102592142Y-94836190D01*
X102639761Y-94788571D01*
X102687380Y-94693333D01*
X102687380Y-94502857D01*
X102639761Y-94407619D01*
X102592142Y-94360000D01*
X102496904Y-94312380D01*
X102258809Y-94312380D01*
X102163571Y-94360000D01*
X102115952Y-94407619D01*
X102068333Y-94502857D01*
X102068333Y-94693333D01*
X102115952Y-94788571D01*
X102163571Y-94836190D01*
X102258809Y-94883809D01*
X102115952Y-93740952D02*
X102068333Y-93836190D01*
X102020714Y-93883809D01*
X101925476Y-93931428D01*
X101877857Y-93931428D01*
X101782619Y-93883809D01*
X101735000Y-93836190D01*
X101687380Y-93740952D01*
X101687380Y-93550476D01*
X101735000Y-93455238D01*
X101782619Y-93407619D01*
X101877857Y-93360000D01*
X101925476Y-93360000D01*
X102020714Y-93407619D01*
X102068333Y-93455238D01*
X102115952Y-93550476D01*
X102115952Y-93740952D01*
X102163571Y-93836190D01*
X102211190Y-93883809D01*
X102306428Y-93931428D01*
X102496904Y-93931428D01*
X102592142Y-93883809D01*
X102639761Y-93836190D01*
X102687380Y-93740952D01*
X102687380Y-93550476D01*
X102639761Y-93455238D01*
X102592142Y-93407619D01*
X102496904Y-93360000D01*
X102306428Y-93360000D01*
X102211190Y-93407619D01*
X102163571Y-93455238D01*
X102115952Y-93550476D01*
X102115952Y-92788571D02*
X102068333Y-92883809D01*
X102020714Y-92931428D01*
X101925476Y-92979047D01*
X101877857Y-92979047D01*
X101782619Y-92931428D01*
X101735000Y-92883809D01*
X101687380Y-92788571D01*
X101687380Y-92598095D01*
X101735000Y-92502857D01*
X101782619Y-92455238D01*
X101877857Y-92407619D01*
X101925476Y-92407619D01*
X102020714Y-92455238D01*
X102068333Y-92502857D01*
X102115952Y-92598095D01*
X102115952Y-92788571D01*
X102163571Y-92883809D01*
X102211190Y-92931428D01*
X102306428Y-92979047D01*
X102496904Y-92979047D01*
X102592142Y-92931428D01*
X102639761Y-92883809D01*
X102687380Y-92788571D01*
X102687380Y-92598095D01*
X102639761Y-92502857D01*
X102592142Y-92455238D01*
X102496904Y-92407619D01*
X102306428Y-92407619D01*
X102211190Y-92455238D01*
X102163571Y-92502857D01*
X102115952Y-92598095D01*
X102639761Y-91931428D02*
X102687380Y-91931428D01*
X102782619Y-91979047D01*
X102830238Y-92026666D01*
X101687380Y-90836190D02*
X101687380Y-90169523D01*
X102687380Y-90598095D01*
X102020714Y-89360000D02*
X102687380Y-89360000D01*
X101639761Y-89598095D02*
X102354047Y-89836190D01*
X102354047Y-89217142D01*
X102687380Y-88836190D02*
X101687380Y-88836190D01*
X102163571Y-88836190D02*
X102163571Y-88264761D01*
X102687380Y-88264761D02*
X101687380Y-88264761D01*
X102592142Y-87217142D02*
X102639761Y-87264761D01*
X102687380Y-87407619D01*
X102687380Y-87502857D01*
X102639761Y-87645714D01*
X102544523Y-87740952D01*
X102449285Y-87788571D01*
X102258809Y-87836190D01*
X102115952Y-87836190D01*
X101925476Y-87788571D01*
X101830238Y-87740952D01*
X101735000Y-87645714D01*
X101687380Y-87502857D01*
X101687380Y-87407619D01*
X101735000Y-87264761D01*
X101782619Y-87217142D01*
X101687380Y-86931428D02*
X101687380Y-86360000D01*
X102687380Y-86645714D02*
X101687380Y-86645714D01*
X101687380Y-85598095D02*
X101687380Y-85788571D01*
X101735000Y-85883809D01*
X101782619Y-85931428D01*
X101925476Y-86026666D01*
X102115952Y-86074285D01*
X102496904Y-86074285D01*
X102592142Y-86026666D01*
X102639761Y-85979047D01*
X102687380Y-85883809D01*
X102687380Y-85693333D01*
X102639761Y-85598095D01*
X102592142Y-85550476D01*
X102496904Y-85502857D01*
X102258809Y-85502857D01*
X102163571Y-85550476D01*
X102115952Y-85598095D01*
X102068333Y-85693333D01*
X102068333Y-85883809D01*
X102115952Y-85979047D01*
X102163571Y-86026666D01*
X102258809Y-86074285D01*
X102115952Y-84931428D02*
X102068333Y-85026666D01*
X102020714Y-85074285D01*
X101925476Y-85121904D01*
X101877857Y-85121904D01*
X101782619Y-85074285D01*
X101735000Y-85026666D01*
X101687380Y-84931428D01*
X101687380Y-84740952D01*
X101735000Y-84645714D01*
X101782619Y-84598095D01*
X101877857Y-84550476D01*
X101925476Y-84550476D01*
X102020714Y-84598095D01*
X102068333Y-84645714D01*
X102115952Y-84740952D01*
X102115952Y-84931428D01*
X102163571Y-85026666D01*
X102211190Y-85074285D01*
X102306428Y-85121904D01*
X102496904Y-85121904D01*
X102592142Y-85074285D01*
X102639761Y-85026666D01*
X102687380Y-84931428D01*
X102687380Y-84740952D01*
X102639761Y-84645714D01*
X102592142Y-84598095D01*
X102496904Y-84550476D01*
X102306428Y-84550476D01*
X102211190Y-84598095D01*
X102163571Y-84645714D01*
X102115952Y-84740952D01*
X102115952Y-83979047D02*
X102068333Y-84074285D01*
X102020714Y-84121904D01*
X101925476Y-84169523D01*
X101877857Y-84169523D01*
X101782619Y-84121904D01*
X101735000Y-84074285D01*
X101687380Y-83979047D01*
X101687380Y-83788571D01*
X101735000Y-83693333D01*
X101782619Y-83645714D01*
X101877857Y-83598095D01*
X101925476Y-83598095D01*
X102020714Y-83645714D01*
X102068333Y-83693333D01*
X102115952Y-83788571D01*
X102115952Y-83979047D01*
X102163571Y-84074285D01*
X102211190Y-84121904D01*
X102306428Y-84169523D01*
X102496904Y-84169523D01*
X102592142Y-84121904D01*
X102639761Y-84074285D01*
X102687380Y-83979047D01*
X102687380Y-83788571D01*
X102639761Y-83693333D01*
X102592142Y-83645714D01*
X102496904Y-83598095D01*
X102306428Y-83598095D01*
X102211190Y-83645714D01*
X102163571Y-83693333D01*
X102115952Y-83788571D01*
X102687380Y-82264761D02*
X102639761Y-82360000D01*
X102592142Y-82407619D01*
X102496904Y-82455238D01*
X102211190Y-82455238D01*
X102115952Y-82407619D01*
X102068333Y-82360000D01*
X102020714Y-82264761D01*
X102020714Y-82121904D01*
X102068333Y-82026666D01*
X102115952Y-81979047D01*
X102211190Y-81931428D01*
X102496904Y-81931428D01*
X102592142Y-81979047D01*
X102639761Y-82026666D01*
X102687380Y-82121904D01*
X102687380Y-82264761D01*
X102687380Y-81502857D02*
X102020714Y-81502857D01*
X102211190Y-81502857D02*
X102115952Y-81455238D01*
X102068333Y-81407619D01*
X102020714Y-81312380D01*
X102020714Y-81217142D01*
X101735000Y-79598095D02*
X101687380Y-79693333D01*
X101687380Y-79836190D01*
X101735000Y-79979047D01*
X101830238Y-80074285D01*
X101925476Y-80121904D01*
X102115952Y-80169523D01*
X102258809Y-80169523D01*
X102449285Y-80121904D01*
X102544523Y-80074285D01*
X102639761Y-79979047D01*
X102687380Y-79836190D01*
X102687380Y-79740952D01*
X102639761Y-79598095D01*
X102592142Y-79550476D01*
X102258809Y-79550476D01*
X102258809Y-79740952D01*
X102401666Y-79169523D02*
X102401666Y-78693333D01*
X102687380Y-79264761D02*
X101687380Y-78931428D01*
X102687380Y-78598095D01*
X102687380Y-77788571D02*
X102687380Y-78264761D01*
X101687380Y-78264761D01*
X102687380Y-76931428D02*
X102687380Y-77502857D01*
X102687380Y-77217142D02*
X101687380Y-77217142D01*
X101830238Y-77312380D01*
X101925476Y-77407619D01*
X101973095Y-77502857D01*
X101687380Y-76074285D02*
X101687380Y-76264761D01*
X101735000Y-76360000D01*
X101782619Y-76407619D01*
X101925476Y-76502857D01*
X102115952Y-76550476D01*
X102496904Y-76550476D01*
X102592142Y-76502857D01*
X102639761Y-76455238D01*
X102687380Y-76360000D01*
X102687380Y-76169523D01*
X102639761Y-76074285D01*
X102592142Y-76026666D01*
X102496904Y-75979047D01*
X102258809Y-75979047D01*
X102163571Y-76026666D01*
X102115952Y-76074285D01*
X102068333Y-76169523D01*
X102068333Y-76360000D01*
X102115952Y-76455238D01*
X102163571Y-76502857D01*
X102258809Y-76550476D01*
X101687380Y-75693333D02*
X102687380Y-75360000D01*
X101687380Y-75026666D01*
X102115952Y-74550476D02*
X102068333Y-74645714D01*
X102020714Y-74693333D01*
X101925476Y-74740952D01*
X101877857Y-74740952D01*
X101782619Y-74693333D01*
X101735000Y-74645714D01*
X101687380Y-74550476D01*
X101687380Y-74360000D01*
X101735000Y-74264761D01*
X101782619Y-74217142D01*
X101877857Y-74169523D01*
X101925476Y-74169523D01*
X102020714Y-74217142D01*
X102068333Y-74264761D01*
X102115952Y-74360000D01*
X102115952Y-74550476D01*
X102163571Y-74645714D01*
X102211190Y-74693333D01*
X102306428Y-74740952D01*
X102496904Y-74740952D01*
X102592142Y-74693333D01*
X102639761Y-74645714D01*
X102687380Y-74550476D01*
X102687380Y-74360000D01*
X102639761Y-74264761D01*
X102592142Y-74217142D01*
X102496904Y-74169523D01*
X102306428Y-74169523D01*
X102211190Y-74217142D01*
X102163571Y-74264761D01*
X102115952Y-74360000D01*
%TO.C,U1*%
X148463095Y-72052380D02*
X148463095Y-72861904D01*
X148510714Y-72957142D01*
X148558333Y-73004761D01*
X148653571Y-73052380D01*
X148844047Y-73052380D01*
X148939285Y-73004761D01*
X148986904Y-72957142D01*
X149034523Y-72861904D01*
X149034523Y-72052380D01*
X150034523Y-73052380D02*
X149463095Y-73052380D01*
X149748809Y-73052380D02*
X149748809Y-72052380D01*
X149653571Y-72195238D01*
X149558333Y-72290476D01*
X149463095Y-72338095D01*
X139517380Y-104083809D02*
X139517380Y-104655238D01*
X139517380Y-104369523D02*
X138517380Y-104369523D01*
X138660238Y-104464761D01*
X138755476Y-104560000D01*
X138803095Y-104655238D01*
X138517380Y-103226666D02*
X138517380Y-103417142D01*
X138565000Y-103512380D01*
X138612619Y-103560000D01*
X138755476Y-103655238D01*
X138945952Y-103702857D01*
X139326904Y-103702857D01*
X139422142Y-103655238D01*
X139469761Y-103607619D01*
X139517380Y-103512380D01*
X139517380Y-103321904D01*
X139469761Y-103226666D01*
X139422142Y-103179047D01*
X139326904Y-103131428D01*
X139088809Y-103131428D01*
X138993571Y-103179047D01*
X138945952Y-103226666D01*
X138898333Y-103321904D01*
X138898333Y-103512380D01*
X138945952Y-103607619D01*
X138993571Y-103655238D01*
X139088809Y-103702857D01*
X138517380Y-102226666D02*
X138517380Y-102702857D01*
X138993571Y-102750476D01*
X138945952Y-102702857D01*
X138898333Y-102607619D01*
X138898333Y-102369523D01*
X138945952Y-102274285D01*
X138993571Y-102226666D01*
X139088809Y-102179047D01*
X139326904Y-102179047D01*
X139422142Y-102226666D01*
X139469761Y-102274285D01*
X139517380Y-102369523D01*
X139517380Y-102607619D01*
X139469761Y-102702857D01*
X139422142Y-102750476D01*
X138517380Y-101274285D02*
X138517380Y-101750476D01*
X138993571Y-101798095D01*
X138945952Y-101750476D01*
X138898333Y-101655238D01*
X138898333Y-101417142D01*
X138945952Y-101321904D01*
X138993571Y-101274285D01*
X139088809Y-101226666D01*
X139326904Y-101226666D01*
X139422142Y-101274285D01*
X139469761Y-101321904D01*
X139517380Y-101417142D01*
X139517380Y-101655238D01*
X139469761Y-101750476D01*
X139422142Y-101798095D01*
X138517380Y-100607619D02*
X138517380Y-100512380D01*
X138565000Y-100417142D01*
X138612619Y-100369523D01*
X138707857Y-100321904D01*
X138898333Y-100274285D01*
X139136428Y-100274285D01*
X139326904Y-100321904D01*
X139422142Y-100369523D01*
X139469761Y-100417142D01*
X139517380Y-100512380D01*
X139517380Y-100607619D01*
X139469761Y-100702857D01*
X139422142Y-100750476D01*
X139326904Y-100798095D01*
X139136428Y-100845714D01*
X138898333Y-100845714D01*
X138707857Y-100798095D01*
X138612619Y-100750476D01*
X138565000Y-100702857D01*
X138517380Y-100607619D01*
X138469761Y-99131428D02*
X139755476Y-99988571D01*
X139517380Y-98274285D02*
X139517380Y-98845714D01*
X139517380Y-98560000D02*
X138517380Y-98560000D01*
X138660238Y-98655238D01*
X138755476Y-98750476D01*
X138803095Y-98845714D01*
X138517380Y-97417142D02*
X138517380Y-97607619D01*
X138565000Y-97702857D01*
X138612619Y-97750476D01*
X138755476Y-97845714D01*
X138945952Y-97893333D01*
X139326904Y-97893333D01*
X139422142Y-97845714D01*
X139469761Y-97798095D01*
X139517380Y-97702857D01*
X139517380Y-97512380D01*
X139469761Y-97417142D01*
X139422142Y-97369523D01*
X139326904Y-97321904D01*
X139088809Y-97321904D01*
X138993571Y-97369523D01*
X138945952Y-97417142D01*
X138898333Y-97512380D01*
X138898333Y-97702857D01*
X138945952Y-97798095D01*
X138993571Y-97845714D01*
X139088809Y-97893333D01*
X139422142Y-96321904D02*
X139469761Y-96369523D01*
X139517380Y-96512380D01*
X139517380Y-96607619D01*
X139469761Y-96750476D01*
X139374523Y-96845714D01*
X139279285Y-96893333D01*
X139088809Y-96940952D01*
X138945952Y-96940952D01*
X138755476Y-96893333D01*
X138660238Y-96845714D01*
X138565000Y-96750476D01*
X138517380Y-96607619D01*
X138517380Y-96512380D01*
X138565000Y-96369523D01*
X138612619Y-96321904D01*
X138517380Y-95417142D02*
X138517380Y-95893333D01*
X138993571Y-95940952D01*
X138945952Y-95893333D01*
X138898333Y-95798095D01*
X138898333Y-95560000D01*
X138945952Y-95464761D01*
X138993571Y-95417142D01*
X139088809Y-95369523D01*
X139326904Y-95369523D01*
X139422142Y-95417142D01*
X139469761Y-95464761D01*
X139517380Y-95560000D01*
X139517380Y-95798095D01*
X139469761Y-95893333D01*
X139422142Y-95940952D01*
X138517380Y-94464761D02*
X138517380Y-94940952D01*
X138993571Y-94988571D01*
X138945952Y-94940952D01*
X138898333Y-94845714D01*
X138898333Y-94607619D01*
X138945952Y-94512380D01*
X138993571Y-94464761D01*
X139088809Y-94417142D01*
X139326904Y-94417142D01*
X139422142Y-94464761D01*
X139469761Y-94512380D01*
X139517380Y-94607619D01*
X139517380Y-94845714D01*
X139469761Y-94940952D01*
X139422142Y-94988571D01*
X138517380Y-93798095D02*
X138517380Y-93702857D01*
X138565000Y-93607619D01*
X138612619Y-93560000D01*
X138707857Y-93512380D01*
X138898333Y-93464761D01*
X139136428Y-93464761D01*
X139326904Y-93512380D01*
X139422142Y-93560000D01*
X139469761Y-93607619D01*
X139517380Y-93702857D01*
X139517380Y-93798095D01*
X139469761Y-93893333D01*
X139422142Y-93940952D01*
X139326904Y-93988571D01*
X139136428Y-94036190D01*
X138898333Y-94036190D01*
X138707857Y-93988571D01*
X138612619Y-93940952D01*
X138565000Y-93893333D01*
X138517380Y-93798095D01*
%TO.C,U3*%
X173863095Y-72052380D02*
X173863095Y-72861904D01*
X173910714Y-72957142D01*
X173958333Y-73004761D01*
X174053571Y-73052380D01*
X174244047Y-73052380D01*
X174339285Y-73004761D01*
X174386904Y-72957142D01*
X174434523Y-72861904D01*
X174434523Y-72052380D01*
X174815476Y-72052380D02*
X175434523Y-72052380D01*
X175101190Y-72433333D01*
X175244047Y-72433333D01*
X175339285Y-72480952D01*
X175386904Y-72528571D01*
X175434523Y-72623809D01*
X175434523Y-72861904D01*
X175386904Y-72957142D01*
X175339285Y-73004761D01*
X175244047Y-73052380D01*
X174958333Y-73052380D01*
X174863095Y-73004761D01*
X174815476Y-72957142D01*
X167775000Y-89502857D02*
X167727380Y-89598095D01*
X167727380Y-89740952D01*
X167775000Y-89883809D01*
X167870238Y-89979047D01*
X167965476Y-90026666D01*
X168155952Y-90074285D01*
X168298809Y-90074285D01*
X168489285Y-90026666D01*
X168584523Y-89979047D01*
X168679761Y-89883809D01*
X168727380Y-89740952D01*
X168727380Y-89645714D01*
X168679761Y-89502857D01*
X168632142Y-89455238D01*
X168298809Y-89455238D01*
X168298809Y-89645714D01*
X168727380Y-89026666D02*
X167727380Y-89026666D01*
X167727380Y-88788571D01*
X167775000Y-88645714D01*
X167870238Y-88550476D01*
X167965476Y-88502857D01*
X168155952Y-88455238D01*
X168298809Y-88455238D01*
X168489285Y-88502857D01*
X168584523Y-88550476D01*
X168679761Y-88645714D01*
X168727380Y-88788571D01*
X168727380Y-89026666D01*
X167727380Y-88121904D02*
X167727380Y-87455238D01*
X168727380Y-87883809D01*
X167727380Y-86598095D02*
X167727380Y-87074285D01*
X168203571Y-87121904D01*
X168155952Y-87074285D01*
X168108333Y-86979047D01*
X168108333Y-86740952D01*
X168155952Y-86645714D01*
X168203571Y-86598095D01*
X168298809Y-86550476D01*
X168536904Y-86550476D01*
X168632142Y-86598095D01*
X168679761Y-86645714D01*
X168727380Y-86740952D01*
X168727380Y-86979047D01*
X168679761Y-87074285D01*
X168632142Y-87121904D01*
X167822619Y-86169523D02*
X167775000Y-86121904D01*
X167727380Y-86026666D01*
X167727380Y-85788571D01*
X167775000Y-85693333D01*
X167822619Y-85645714D01*
X167917857Y-85598095D01*
X168013095Y-85598095D01*
X168155952Y-85645714D01*
X168727380Y-86217142D01*
X168727380Y-85598095D01*
X167727380Y-85264761D02*
X167727380Y-84645714D01*
X168108333Y-84979047D01*
X168108333Y-84836190D01*
X168155952Y-84740952D01*
X168203571Y-84693333D01*
X168298809Y-84645714D01*
X168536904Y-84645714D01*
X168632142Y-84693333D01*
X168679761Y-84740952D01*
X168727380Y-84836190D01*
X168727380Y-85121904D01*
X168679761Y-85217142D01*
X168632142Y-85264761D01*
X167822619Y-84264761D02*
X167775000Y-84217142D01*
X167727380Y-84121904D01*
X167727380Y-83883809D01*
X167775000Y-83788571D01*
X167822619Y-83740952D01*
X167917857Y-83693333D01*
X168013095Y-83693333D01*
X168155952Y-83740952D01*
X168727380Y-84312380D01*
X168727380Y-83693333D01*
X168727380Y-83264761D02*
X167727380Y-83264761D01*
X168727380Y-82693333D01*
X167727380Y-82693333D01*
%TO.C,U4*%
X126238095Y-72096380D02*
X126238095Y-72905904D01*
X126285714Y-73001142D01*
X126333333Y-73048761D01*
X126428571Y-73096380D01*
X126619047Y-73096380D01*
X126714285Y-73048761D01*
X126761904Y-73001142D01*
X126809523Y-72905904D01*
X126809523Y-72096380D01*
X127714285Y-72429714D02*
X127714285Y-73096380D01*
X127476190Y-72048761D02*
X127238095Y-72763047D01*
X127857142Y-72763047D01*
X123261904Y-96972380D02*
X122690476Y-96972380D01*
X122976190Y-96972380D02*
X122976190Y-95972380D01*
X122880952Y-96115238D01*
X122785714Y-96210476D01*
X122690476Y-96258095D01*
X123690476Y-96877142D02*
X123738095Y-96924761D01*
X123690476Y-96972380D01*
X123642857Y-96924761D01*
X123690476Y-96877142D01*
X123690476Y-96972380D01*
X124309523Y-96400952D02*
X124214285Y-96353333D01*
X124166666Y-96305714D01*
X124119047Y-96210476D01*
X124119047Y-96162857D01*
X124166666Y-96067619D01*
X124214285Y-96020000D01*
X124309523Y-95972380D01*
X124500000Y-95972380D01*
X124595238Y-96020000D01*
X124642857Y-96067619D01*
X124690476Y-96162857D01*
X124690476Y-96210476D01*
X124642857Y-96305714D01*
X124595238Y-96353333D01*
X124500000Y-96400952D01*
X124309523Y-96400952D01*
X124214285Y-96448571D01*
X124166666Y-96496190D01*
X124119047Y-96591428D01*
X124119047Y-96781904D01*
X124166666Y-96877142D01*
X124214285Y-96924761D01*
X124309523Y-96972380D01*
X124500000Y-96972380D01*
X124595238Y-96924761D01*
X124642857Y-96877142D01*
X124690476Y-96781904D01*
X124690476Y-96591428D01*
X124642857Y-96496190D01*
X124595238Y-96448571D01*
X124500000Y-96400952D01*
X125547619Y-96305714D02*
X125547619Y-96972380D01*
X125309523Y-95924761D02*
X125071428Y-96639047D01*
X125690476Y-96639047D01*
X125976190Y-95972380D02*
X126595238Y-95972380D01*
X126261904Y-96353333D01*
X126404761Y-96353333D01*
X126500000Y-96400952D01*
X126547619Y-96448571D01*
X126595238Y-96543809D01*
X126595238Y-96781904D01*
X126547619Y-96877142D01*
X126500000Y-96924761D01*
X126404761Y-96972380D01*
X126119047Y-96972380D01*
X126023809Y-96924761D01*
X125976190Y-96877142D01*
X126976190Y-96067619D02*
X127023809Y-96020000D01*
X127119047Y-95972380D01*
X127357142Y-95972380D01*
X127452380Y-96020000D01*
X127500000Y-96067619D01*
X127547619Y-96162857D01*
X127547619Y-96258095D01*
X127500000Y-96400952D01*
X126928571Y-96972380D01*
X127547619Y-96972380D01*
X128738095Y-96972380D02*
X128738095Y-95972380D01*
X129071428Y-96686666D01*
X129404761Y-95972380D01*
X129404761Y-96972380D01*
X129880952Y-96972380D02*
X129880952Y-95972380D01*
X129880952Y-96448571D02*
X130452380Y-96448571D01*
X130452380Y-96972380D02*
X130452380Y-95972380D01*
X130833333Y-96305714D02*
X131357142Y-96305714D01*
X130833333Y-96972380D01*
X131357142Y-96972380D01*
%TO.C,C3*%
X182078333Y-73382142D02*
X182030714Y-73429761D01*
X181887857Y-73477380D01*
X181792619Y-73477380D01*
X181649761Y-73429761D01*
X181554523Y-73334523D01*
X181506904Y-73239285D01*
X181459285Y-73048809D01*
X181459285Y-72905952D01*
X181506904Y-72715476D01*
X181554523Y-72620238D01*
X181649761Y-72525000D01*
X181792619Y-72477380D01*
X181887857Y-72477380D01*
X182030714Y-72525000D01*
X182078333Y-72572619D01*
X182411666Y-72477380D02*
X183030714Y-72477380D01*
X182697380Y-72858333D01*
X182840238Y-72858333D01*
X182935476Y-72905952D01*
X182983095Y-72953571D01*
X183030714Y-73048809D01*
X183030714Y-73286904D01*
X182983095Y-73382142D01*
X182935476Y-73429761D01*
X182840238Y-73477380D01*
X182554523Y-73477380D01*
X182459285Y-73429761D01*
X182411666Y-73382142D01*
X180602142Y-81367380D02*
X180697380Y-81367380D01*
X180792619Y-81415000D01*
X180840238Y-81462619D01*
X180887857Y-81557857D01*
X180935476Y-81748333D01*
X180935476Y-81986428D01*
X180887857Y-82176904D01*
X180840238Y-82272142D01*
X180792619Y-82319761D01*
X180697380Y-82367380D01*
X180602142Y-82367380D01*
X180506904Y-82319761D01*
X180459285Y-82272142D01*
X180411666Y-82176904D01*
X180364047Y-81986428D01*
X180364047Y-81748333D01*
X180411666Y-81557857D01*
X180459285Y-81462619D01*
X180506904Y-81415000D01*
X180602142Y-81367380D01*
X181364047Y-82272142D02*
X181411666Y-82319761D01*
X181364047Y-82367380D01*
X181316428Y-82319761D01*
X181364047Y-82272142D01*
X181364047Y-82367380D01*
X182364047Y-82367380D02*
X181792619Y-82367380D01*
X182078333Y-82367380D02*
X182078333Y-81367380D01*
X181983095Y-81510238D01*
X181887857Y-81605476D01*
X181792619Y-81653095D01*
X183221190Y-81700714D02*
X183221190Y-82367380D01*
X182792619Y-81700714D02*
X182792619Y-82224523D01*
X182840238Y-82319761D01*
X182935476Y-82367380D01*
X183078333Y-82367380D01*
X183173571Y-82319761D01*
X183221190Y-82272142D01*
X184030714Y-81843571D02*
X183697380Y-81843571D01*
X183697380Y-82367380D02*
X183697380Y-81367380D01*
X184173571Y-81367380D01*
%TO.C,C1*%
X160488333Y-73382142D02*
X160440714Y-73429761D01*
X160297857Y-73477380D01*
X160202619Y-73477380D01*
X160059761Y-73429761D01*
X159964523Y-73334523D01*
X159916904Y-73239285D01*
X159869285Y-73048809D01*
X159869285Y-72905952D01*
X159916904Y-72715476D01*
X159964523Y-72620238D01*
X160059761Y-72525000D01*
X160202619Y-72477380D01*
X160297857Y-72477380D01*
X160440714Y-72525000D01*
X160488333Y-72572619D01*
X161440714Y-73477380D02*
X160869285Y-73477380D01*
X161155000Y-73477380D02*
X161155000Y-72477380D01*
X161059761Y-72620238D01*
X160964523Y-72715476D01*
X160869285Y-72763095D01*
X159012142Y-81367380D02*
X159107380Y-81367380D01*
X159202619Y-81415000D01*
X159250238Y-81462619D01*
X159297857Y-81557857D01*
X159345476Y-81748333D01*
X159345476Y-81986428D01*
X159297857Y-82176904D01*
X159250238Y-82272142D01*
X159202619Y-82319761D01*
X159107380Y-82367380D01*
X159012142Y-82367380D01*
X158916904Y-82319761D01*
X158869285Y-82272142D01*
X158821666Y-82176904D01*
X158774047Y-81986428D01*
X158774047Y-81748333D01*
X158821666Y-81557857D01*
X158869285Y-81462619D01*
X158916904Y-81415000D01*
X159012142Y-81367380D01*
X159774047Y-82272142D02*
X159821666Y-82319761D01*
X159774047Y-82367380D01*
X159726428Y-82319761D01*
X159774047Y-82272142D01*
X159774047Y-82367380D01*
X160774047Y-82367380D02*
X160202619Y-82367380D01*
X160488333Y-82367380D02*
X160488333Y-81367380D01*
X160393095Y-81510238D01*
X160297857Y-81605476D01*
X160202619Y-81653095D01*
X161631190Y-81700714D02*
X161631190Y-82367380D01*
X161202619Y-81700714D02*
X161202619Y-82224523D01*
X161250238Y-82319761D01*
X161345476Y-82367380D01*
X161488333Y-82367380D01*
X161583571Y-82319761D01*
X161631190Y-82272142D01*
X162440714Y-81843571D02*
X162107380Y-81843571D01*
X162107380Y-82367380D02*
X162107380Y-81367380D01*
X162583571Y-81367380D01*
%TO.C,C4*%
X136358333Y-73382142D02*
X136310714Y-73429761D01*
X136167857Y-73477380D01*
X136072619Y-73477380D01*
X135929761Y-73429761D01*
X135834523Y-73334523D01*
X135786904Y-73239285D01*
X135739285Y-73048809D01*
X135739285Y-72905952D01*
X135786904Y-72715476D01*
X135834523Y-72620238D01*
X135929761Y-72525000D01*
X136072619Y-72477380D01*
X136167857Y-72477380D01*
X136310714Y-72525000D01*
X136358333Y-72572619D01*
X137215476Y-72810714D02*
X137215476Y-73477380D01*
X136977380Y-72429761D02*
X136739285Y-73144047D01*
X137358333Y-73144047D01*
X134882142Y-81367380D02*
X134977380Y-81367380D01*
X135072619Y-81415000D01*
X135120238Y-81462619D01*
X135167857Y-81557857D01*
X135215476Y-81748333D01*
X135215476Y-81986428D01*
X135167857Y-82176904D01*
X135120238Y-82272142D01*
X135072619Y-82319761D01*
X134977380Y-82367380D01*
X134882142Y-82367380D01*
X134786904Y-82319761D01*
X134739285Y-82272142D01*
X134691666Y-82176904D01*
X134644047Y-81986428D01*
X134644047Y-81748333D01*
X134691666Y-81557857D01*
X134739285Y-81462619D01*
X134786904Y-81415000D01*
X134882142Y-81367380D01*
X135644047Y-82272142D02*
X135691666Y-82319761D01*
X135644047Y-82367380D01*
X135596428Y-82319761D01*
X135644047Y-82272142D01*
X135644047Y-82367380D01*
X136644047Y-82367380D02*
X136072619Y-82367380D01*
X136358333Y-82367380D02*
X136358333Y-81367380D01*
X136263095Y-81510238D01*
X136167857Y-81605476D01*
X136072619Y-81653095D01*
X137501190Y-81700714D02*
X137501190Y-82367380D01*
X137072619Y-81700714D02*
X137072619Y-82224523D01*
X137120238Y-82319761D01*
X137215476Y-82367380D01*
X137358333Y-82367380D01*
X137453571Y-82319761D01*
X137501190Y-82272142D01*
X138310714Y-81843571D02*
X137977380Y-81843571D01*
X137977380Y-82367380D02*
X137977380Y-81367380D01*
X138453571Y-81367380D01*
%TO.C,C2*%
X116038333Y-73382142D02*
X115990714Y-73429761D01*
X115847857Y-73477380D01*
X115752619Y-73477380D01*
X115609761Y-73429761D01*
X115514523Y-73334523D01*
X115466904Y-73239285D01*
X115419285Y-73048809D01*
X115419285Y-72905952D01*
X115466904Y-72715476D01*
X115514523Y-72620238D01*
X115609761Y-72525000D01*
X115752619Y-72477380D01*
X115847857Y-72477380D01*
X115990714Y-72525000D01*
X116038333Y-72572619D01*
X116419285Y-72572619D02*
X116466904Y-72525000D01*
X116562142Y-72477380D01*
X116800238Y-72477380D01*
X116895476Y-72525000D01*
X116943095Y-72572619D01*
X116990714Y-72667857D01*
X116990714Y-72763095D01*
X116943095Y-72905952D01*
X116371666Y-73477380D01*
X116990714Y-73477380D01*
X114562142Y-81367380D02*
X114657380Y-81367380D01*
X114752619Y-81415000D01*
X114800238Y-81462619D01*
X114847857Y-81557857D01*
X114895476Y-81748333D01*
X114895476Y-81986428D01*
X114847857Y-82176904D01*
X114800238Y-82272142D01*
X114752619Y-82319761D01*
X114657380Y-82367380D01*
X114562142Y-82367380D01*
X114466904Y-82319761D01*
X114419285Y-82272142D01*
X114371666Y-82176904D01*
X114324047Y-81986428D01*
X114324047Y-81748333D01*
X114371666Y-81557857D01*
X114419285Y-81462619D01*
X114466904Y-81415000D01*
X114562142Y-81367380D01*
X115324047Y-82272142D02*
X115371666Y-82319761D01*
X115324047Y-82367380D01*
X115276428Y-82319761D01*
X115324047Y-82272142D01*
X115324047Y-82367380D01*
X116324047Y-82367380D02*
X115752619Y-82367380D01*
X116038333Y-82367380D02*
X116038333Y-81367380D01*
X115943095Y-81510238D01*
X115847857Y-81605476D01*
X115752619Y-81653095D01*
X117181190Y-81700714D02*
X117181190Y-82367380D01*
X116752619Y-81700714D02*
X116752619Y-82224523D01*
X116800238Y-82319761D01*
X116895476Y-82367380D01*
X117038333Y-82367380D01*
X117133571Y-82319761D01*
X117181190Y-82272142D01*
X117990714Y-81843571D02*
X117657380Y-81843571D01*
X117657380Y-82367380D02*
X117657380Y-81367380D01*
X118133571Y-81367380D01*
%TO.C,C7*%
X165568333Y-124182142D02*
X165520714Y-124229761D01*
X165377857Y-124277380D01*
X165282619Y-124277380D01*
X165139761Y-124229761D01*
X165044523Y-124134523D01*
X164996904Y-124039285D01*
X164949285Y-123848809D01*
X164949285Y-123705952D01*
X164996904Y-123515476D01*
X165044523Y-123420238D01*
X165139761Y-123325000D01*
X165282619Y-123277380D01*
X165377857Y-123277380D01*
X165520714Y-123325000D01*
X165568333Y-123372619D01*
X165901666Y-123277380D02*
X166568333Y-123277380D01*
X166139761Y-124277380D01*
X163060238Y-124880714D02*
X163060238Y-125547380D01*
X162822142Y-124499761D02*
X162584047Y-125214047D01*
X163203095Y-125214047D01*
X163584047Y-125452142D02*
X163631666Y-125499761D01*
X163584047Y-125547380D01*
X163536428Y-125499761D01*
X163584047Y-125452142D01*
X163584047Y-125547380D01*
X163965000Y-124547380D02*
X164631666Y-124547380D01*
X164203095Y-125547380D01*
X165441190Y-124880714D02*
X165441190Y-125547380D01*
X165012619Y-124880714D02*
X165012619Y-125404523D01*
X165060238Y-125499761D01*
X165155476Y-125547380D01*
X165298333Y-125547380D01*
X165393571Y-125499761D01*
X165441190Y-125452142D01*
X166250714Y-125023571D02*
X165917380Y-125023571D01*
X165917380Y-125547380D02*
X165917380Y-124547380D01*
X166393571Y-124547380D01*
%TO.C,C6*%
X165441333Y-114657142D02*
X165393714Y-114704761D01*
X165250857Y-114752380D01*
X165155619Y-114752380D01*
X165012761Y-114704761D01*
X164917523Y-114609523D01*
X164869904Y-114514285D01*
X164822285Y-114323809D01*
X164822285Y-114180952D01*
X164869904Y-113990476D01*
X164917523Y-113895238D01*
X165012761Y-113800000D01*
X165155619Y-113752380D01*
X165250857Y-113752380D01*
X165393714Y-113800000D01*
X165441333Y-113847619D01*
X166298476Y-113752380D02*
X166108000Y-113752380D01*
X166012761Y-113800000D01*
X165965142Y-113847619D01*
X165869904Y-113990476D01*
X165822285Y-114180952D01*
X165822285Y-114561904D01*
X165869904Y-114657142D01*
X165917523Y-114704761D01*
X166012761Y-114752380D01*
X166203238Y-114752380D01*
X166298476Y-114704761D01*
X166346095Y-114657142D01*
X166393714Y-114561904D01*
X166393714Y-114323809D01*
X166346095Y-114228571D01*
X166298476Y-114180952D01*
X166203238Y-114133333D01*
X166012761Y-114133333D01*
X165917523Y-114180952D01*
X165869904Y-114228571D01*
X165822285Y-114323809D01*
X163060238Y-115355714D02*
X163060238Y-116022380D01*
X162822142Y-114974761D02*
X162584047Y-115689047D01*
X163203095Y-115689047D01*
X163584047Y-115927142D02*
X163631666Y-115974761D01*
X163584047Y-116022380D01*
X163536428Y-115974761D01*
X163584047Y-115927142D01*
X163584047Y-116022380D01*
X163965000Y-115022380D02*
X164631666Y-115022380D01*
X164203095Y-116022380D01*
X165441190Y-115355714D02*
X165441190Y-116022380D01*
X165012619Y-115355714D02*
X165012619Y-115879523D01*
X165060238Y-115974761D01*
X165155476Y-116022380D01*
X165298333Y-116022380D01*
X165393571Y-115974761D01*
X165441190Y-115927142D01*
X166250714Y-115498571D02*
X165917380Y-115498571D01*
X165917380Y-116022380D02*
X165917380Y-115022380D01*
X166393571Y-115022380D01*
%TO.C,C5*%
X165441333Y-105132142D02*
X165393714Y-105179761D01*
X165250857Y-105227380D01*
X165155619Y-105227380D01*
X165012761Y-105179761D01*
X164917523Y-105084523D01*
X164869904Y-104989285D01*
X164822285Y-104798809D01*
X164822285Y-104655952D01*
X164869904Y-104465476D01*
X164917523Y-104370238D01*
X165012761Y-104275000D01*
X165155619Y-104227380D01*
X165250857Y-104227380D01*
X165393714Y-104275000D01*
X165441333Y-104322619D01*
X166346095Y-104227380D02*
X165869904Y-104227380D01*
X165822285Y-104703571D01*
X165869904Y-104655952D01*
X165965142Y-104608333D01*
X166203238Y-104608333D01*
X166298476Y-104655952D01*
X166346095Y-104703571D01*
X166393714Y-104798809D01*
X166393714Y-105036904D01*
X166346095Y-105132142D01*
X166298476Y-105179761D01*
X166203238Y-105227380D01*
X165965142Y-105227380D01*
X165869904Y-105179761D01*
X165822285Y-105132142D01*
X163457142Y-105592619D02*
X163504761Y-105545000D01*
X163600000Y-105497380D01*
X163838095Y-105497380D01*
X163933333Y-105545000D01*
X163980952Y-105592619D01*
X164028571Y-105687857D01*
X164028571Y-105783095D01*
X163980952Y-105925952D01*
X163409523Y-106497380D01*
X164028571Y-106497380D01*
X164409523Y-105592619D02*
X164457142Y-105545000D01*
X164552380Y-105497380D01*
X164790476Y-105497380D01*
X164885714Y-105545000D01*
X164933333Y-105592619D01*
X164980952Y-105687857D01*
X164980952Y-105783095D01*
X164933333Y-105925952D01*
X164361904Y-106497380D01*
X164980952Y-106497380D01*
X165838095Y-105830714D02*
X165838095Y-106497380D01*
X165409523Y-105830714D02*
X165409523Y-106354523D01*
X165457142Y-106449761D01*
X165552380Y-106497380D01*
X165695238Y-106497380D01*
X165790476Y-106449761D01*
X165838095Y-106402142D01*
X166647619Y-105973571D02*
X166314285Y-105973571D01*
X166314285Y-106497380D02*
X166314285Y-105497380D01*
X166790476Y-105497380D01*
%TO.C,J2*%
X119300666Y-118197380D02*
X119300666Y-118911666D01*
X119253047Y-119054523D01*
X119157809Y-119149761D01*
X119014952Y-119197380D01*
X118919714Y-119197380D01*
X119729238Y-118292619D02*
X119776857Y-118245000D01*
X119872095Y-118197380D01*
X120110190Y-118197380D01*
X120205428Y-118245000D01*
X120253047Y-118292619D01*
X120300666Y-118387857D01*
X120300666Y-118483095D01*
X120253047Y-118625952D01*
X119681619Y-119197380D01*
X120300666Y-119197380D01*
%TO.C,J1*%
X101266666Y-122007380D02*
X101266666Y-122721666D01*
X101219047Y-122864523D01*
X101123809Y-122959761D01*
X100980952Y-123007380D01*
X100885714Y-123007380D01*
X102266666Y-123007380D02*
X101695238Y-123007380D01*
X101980952Y-123007380D02*
X101980952Y-122007380D01*
X101885714Y-122150238D01*
X101790476Y-122245476D01*
X101695238Y-122293095D01*
%TD*%
M02*
