%TF.GenerationSoftware,KiCad,Pcbnew,(5.1.9)-1*%
%TF.CreationDate,2021-03-05T21:37:25+08:00*%
%TF.ProjectId,CF-Super-Lite,43462d53-7570-4657-922d-4c6974652e6b,rev?*%
%TF.SameCoordinates,Original*%
%TF.FileFunction,Soldermask,Top*%
%TF.FilePolarity,Negative*%
%FSLAX46Y46*%
G04 Gerber Fmt 4.6, Leading zero omitted, Abs format (unit mm)*
G04 Created by KiCad (PCBNEW (5.1.9)-1) date 2021-03-05 21:37:25*
%MOMM*%
%LPD*%
G01*
G04 APERTURE LIST*
%ADD10C,0.100000*%
%ADD11O,1.700000X1.700000*%
%ADD12R,1.700000X1.700000*%
%ADD13O,1.600000X1.600000*%
%ADD14R,1.600000X1.600000*%
%ADD15C,6.500000*%
%ADD16C,1.600000*%
%ADD17R,1.780000X7.620000*%
G04 APERTURE END LIST*
D10*
G36*
X177800000Y-142240000D02*
G01*
X96520000Y-142240000D01*
X96520000Y-134620000D01*
X177800000Y-134620000D01*
X177800000Y-142240000D01*
G37*
X177800000Y-142240000D02*
X96520000Y-142240000D01*
X96520000Y-134620000D01*
X177800000Y-134620000D01*
X177800000Y-142240000D01*
D11*
%TO.C,J1*%
X165100000Y-108077000D03*
X167640000Y-108077000D03*
X165100000Y-105537000D03*
X167640000Y-105537000D03*
X165100000Y-102997000D03*
X167640000Y-102997000D03*
X165100000Y-100457000D03*
X167640000Y-100457000D03*
X165100000Y-97917000D03*
X167640000Y-97917000D03*
X165100000Y-95377000D03*
X167640000Y-95377000D03*
X165100000Y-92837000D03*
X167640000Y-92837000D03*
X165100000Y-90297000D03*
X167640000Y-90297000D03*
X165100000Y-87757000D03*
X167640000Y-87757000D03*
X165100000Y-85217000D03*
X167640000Y-85217000D03*
X165100000Y-82677000D03*
X167640000Y-82677000D03*
X165100000Y-80137000D03*
X167640000Y-80137000D03*
X165100000Y-77597000D03*
X167640000Y-77597000D03*
X165100000Y-75057000D03*
X167640000Y-75057000D03*
X165100000Y-72517000D03*
X167640000Y-72517000D03*
X165100000Y-69977000D03*
X167640000Y-69977000D03*
X165100000Y-67437000D03*
X167640000Y-67437000D03*
X165100000Y-64897000D03*
X167640000Y-64897000D03*
X165100000Y-62357000D03*
X167640000Y-62357000D03*
X165100000Y-59817000D03*
D12*
X167640000Y-59817000D03*
%TD*%
D11*
%TO.C,J2*%
X176871000Y-59817000D03*
D12*
X174331000Y-59817000D03*
%TD*%
D13*
%TO.C,SW1*%
X105410000Y-72390000D03*
X113030000Y-80010000D03*
X107950000Y-72390000D03*
X110490000Y-80010000D03*
X110490000Y-72390000D03*
X107950000Y-80010000D03*
X113030000Y-72390000D03*
D14*
X105410000Y-80010000D03*
%TD*%
D15*
%TO.C,MH4*%
X192913000Y-116713000D03*
%TD*%
D13*
%TO.C,RN1*%
X104140000Y-83820000D03*
X106680000Y-83820000D03*
X109220000Y-83820000D03*
X111760000Y-83820000D03*
D14*
X114300000Y-83820000D03*
%TD*%
D16*
%TO.C,C4*%
X177125000Y-125095000D03*
D14*
X174625000Y-125095000D03*
%TD*%
D16*
%TO.C,C3*%
X131445000Y-115490000D03*
X131445000Y-110490000D03*
%TD*%
%TO.C,C2*%
X100965000Y-115490000D03*
X100965000Y-110490000D03*
%TD*%
%TO.C,C1*%
X100965000Y-92630000D03*
X100965000Y-87630000D03*
%TD*%
D13*
%TO.C,U3*%
X104140000Y-110490000D03*
X127000000Y-118110000D03*
X106680000Y-110490000D03*
X124460000Y-118110000D03*
X109220000Y-110490000D03*
X121920000Y-118110000D03*
X111760000Y-110490000D03*
X119380000Y-118110000D03*
X114300000Y-110490000D03*
X116840000Y-118110000D03*
X116840000Y-110490000D03*
X114300000Y-118110000D03*
X119380000Y-110490000D03*
X111760000Y-118110000D03*
X121920000Y-110490000D03*
X109220000Y-118110000D03*
X124460000Y-110490000D03*
X106680000Y-118110000D03*
X127000000Y-110490000D03*
D14*
X104140000Y-118110000D03*
%TD*%
D13*
%TO.C,U2*%
X134620000Y-110490000D03*
X157480000Y-118110000D03*
X137160000Y-110490000D03*
X154940000Y-118110000D03*
X139700000Y-110490000D03*
X152400000Y-118110000D03*
X142240000Y-110490000D03*
X149860000Y-118110000D03*
X144780000Y-110490000D03*
X147320000Y-118110000D03*
X147320000Y-110490000D03*
X144780000Y-118110000D03*
X149860000Y-110490000D03*
X142240000Y-118110000D03*
X152400000Y-110490000D03*
X139700000Y-118110000D03*
X154940000Y-110490000D03*
X137160000Y-118110000D03*
X157480000Y-110490000D03*
D14*
X134620000Y-118110000D03*
%TD*%
D13*
%TO.C,U1*%
X104140000Y-87630000D03*
X142240000Y-102870000D03*
X106680000Y-87630000D03*
X139700000Y-102870000D03*
X109220000Y-87630000D03*
X137160000Y-102870000D03*
X111760000Y-87630000D03*
X134620000Y-102870000D03*
X114300000Y-87630000D03*
X132080000Y-102870000D03*
X116840000Y-87630000D03*
X129540000Y-102870000D03*
X119380000Y-87630000D03*
X127000000Y-102870000D03*
X121920000Y-87630000D03*
X124460000Y-102870000D03*
X124460000Y-87630000D03*
X121920000Y-102870000D03*
X127000000Y-87630000D03*
X119380000Y-102870000D03*
X129540000Y-87630000D03*
X116840000Y-102870000D03*
X132080000Y-87630000D03*
X114300000Y-102870000D03*
X134620000Y-87630000D03*
X111760000Y-102870000D03*
X137160000Y-87630000D03*
X109220000Y-102870000D03*
X139700000Y-87630000D03*
X106680000Y-102870000D03*
X142240000Y-87630000D03*
D14*
X104140000Y-102870000D03*
%TD*%
D15*
%TO.C,MH3*%
X166370000Y-116713000D03*
%TD*%
%TO.C,MH1*%
X166370000Y-51181000D03*
%TD*%
%TO.C,MH2*%
X192913000Y-51181000D03*
%TD*%
D17*
%TO.C,J3*%
X99060000Y-138430000D03*
X101600000Y-138430000D03*
X104140000Y-138430000D03*
X106680000Y-138430000D03*
X109220000Y-138430000D03*
X111760000Y-138430000D03*
X114300000Y-138430000D03*
X116840000Y-138430000D03*
X119380000Y-138430000D03*
X121920000Y-138430000D03*
X124460000Y-138430000D03*
X127000000Y-138430000D03*
X129540000Y-138430000D03*
X132080000Y-138430000D03*
X134620000Y-138430000D03*
X137160000Y-138430000D03*
X139700000Y-138430000D03*
X142240000Y-138430000D03*
X144780000Y-138430000D03*
X147320000Y-138430000D03*
X149860000Y-138430000D03*
X152400000Y-138430000D03*
X154940000Y-138430000D03*
X157480000Y-138430000D03*
X160020000Y-138430000D03*
X162560000Y-138430000D03*
X165100000Y-138430000D03*
X167640000Y-138430000D03*
X170180000Y-138430000D03*
X172720000Y-138430000D03*
X175260000Y-138430000D03*
%TD*%
M02*
