%TF.GenerationSoftware,KiCad,Pcbnew,(5.1.9)-1*%
%TF.CreationDate,2021-03-05T21:37:25+08:00*%
%TF.ProjectId,CF-Super-Lite,43462d53-7570-4657-922d-4c6974652e6b,rev?*%
%TF.SameCoordinates,Original*%
%TF.FileFunction,Copper,L1,Top*%
%TF.FilePolarity,Positive*%
%FSLAX46Y46*%
G04 Gerber Fmt 4.6, Leading zero omitted, Abs format (unit mm)*
G04 Created by KiCad (PCBNEW (5.1.9)-1) date 2021-03-05 21:37:25*
%MOMM*%
%LPD*%
G01*
G04 APERTURE LIST*
%TA.AperFunction,ComponentPad*%
%ADD10O,1.700000X1.700000*%
%TD*%
%TA.AperFunction,ComponentPad*%
%ADD11R,1.700000X1.700000*%
%TD*%
%TA.AperFunction,ComponentPad*%
%ADD12O,1.600000X1.600000*%
%TD*%
%TA.AperFunction,ComponentPad*%
%ADD13R,1.600000X1.600000*%
%TD*%
%TA.AperFunction,ComponentPad*%
%ADD14C,6.500000*%
%TD*%
%TA.AperFunction,ComponentPad*%
%ADD15C,1.600000*%
%TD*%
%TA.AperFunction,ConnectorPad*%
%ADD16R,1.780000X7.620000*%
%TD*%
%TA.AperFunction,ViaPad*%
%ADD17C,0.800000*%
%TD*%
%TA.AperFunction,ViaPad*%
%ADD18C,1.000000*%
%TD*%
%TA.AperFunction,Conductor*%
%ADD19C,0.340000*%
%TD*%
%TA.AperFunction,Conductor*%
%ADD20C,0.350000*%
%TD*%
%TA.AperFunction,Conductor*%
%ADD21C,0.500000*%
%TD*%
%TA.AperFunction,Conductor*%
%ADD22C,2.000000*%
%TD*%
%TA.AperFunction,Conductor*%
%ADD23C,1.750000*%
%TD*%
%TA.AperFunction,Conductor*%
%ADD24C,1.000000*%
%TD*%
%TA.AperFunction,Conductor*%
%ADD25C,0.254000*%
%TD*%
%TA.AperFunction,Conductor*%
%ADD26C,0.100000*%
%TD*%
G04 APERTURE END LIST*
D10*
%TO.P,J1,40*%
%TO.N,GND*%
X165100000Y-108077000D03*
%TO.P,J1,39*%
%TO.N,Net-(J1-Pad39)*%
X167640000Y-108077000D03*
%TO.P,J1,38*%
%TO.N,VCC*%
X165100000Y-105537000D03*
%TO.P,J1,37*%
%TO.N,~CS1~_ATA*%
X167640000Y-105537000D03*
%TO.P,J1,36*%
%TO.N,A03*%
X165100000Y-102997000D03*
%TO.P,J1,35*%
%TO.N,A01*%
X167640000Y-102997000D03*
%TO.P,J1,34*%
%TO.N,Net-(J1-Pad34)*%
X165100000Y-100457000D03*
%TO.P,J1,33*%
%TO.N,A02*%
X167640000Y-100457000D03*
%TO.P,J1,32*%
%TO.N,Net-(J1-Pad32)*%
X165100000Y-97917000D03*
%TO.P,J1,31*%
%TO.N,Net-(J1-Pad31)*%
X167640000Y-97917000D03*
%TO.P,J1,30*%
%TO.N,GND*%
X165100000Y-95377000D03*
%TO.P,J1,29*%
%TO.N,VCC*%
X167640000Y-95377000D03*
%TO.P,J1,28*%
%TO.N,Net-(J1-Pad28)*%
X165100000Y-92837000D03*
%TO.P,J1,27*%
%TO.N,Net-(J1-Pad27)*%
X167640000Y-92837000D03*
%TO.P,J1,26*%
%TO.N,GND*%
X165100000Y-90297000D03*
%TO.P,J1,25*%
%TO.N,~IOR*%
X167640000Y-90297000D03*
%TO.P,J1,24*%
%TO.N,GND*%
X165100000Y-87757000D03*
%TO.P,J1,23*%
%TO.N,~IOW*%
X167640000Y-87757000D03*
%TO.P,J1,22*%
%TO.N,GND*%
X165100000Y-85217000D03*
%TO.P,J1,21*%
%TO.N,Net-(J1-Pad21)*%
X167640000Y-85217000D03*
%TO.P,J1,20*%
%TO.N,Net-(J1-Pad20)*%
X165100000Y-82677000D03*
%TO.P,J1,19*%
%TO.N,GND*%
X167640000Y-82677000D03*
%TO.P,J1,18*%
%TO.N,Net-(J1-Pad18)*%
X165100000Y-80137000D03*
%TO.P,J1,17*%
%TO.N,D0_BUF*%
X167640000Y-80137000D03*
%TO.P,J1,16*%
%TO.N,Net-(J1-Pad16)*%
X165100000Y-77597000D03*
%TO.P,J1,15*%
%TO.N,D1_BUF*%
X167640000Y-77597000D03*
%TO.P,J1,14*%
%TO.N,Net-(J1-Pad14)*%
X165100000Y-75057000D03*
%TO.P,J1,13*%
%TO.N,D2_BUF*%
X167640000Y-75057000D03*
%TO.P,J1,12*%
%TO.N,Net-(J1-Pad12)*%
X165100000Y-72517000D03*
%TO.P,J1,11*%
%TO.N,D3_BUF*%
X167640000Y-72517000D03*
%TO.P,J1,10*%
%TO.N,Net-(J1-Pad10)*%
X165100000Y-69977000D03*
%TO.P,J1,9*%
%TO.N,D4_BUF*%
X167640000Y-69977000D03*
%TO.P,J1,8*%
%TO.N,Net-(J1-Pad8)*%
X165100000Y-67437000D03*
%TO.P,J1,7*%
%TO.N,D5_BUF*%
X167640000Y-67437000D03*
%TO.P,J1,6*%
%TO.N,Net-(J1-Pad6)*%
X165100000Y-64897000D03*
%TO.P,J1,5*%
%TO.N,D6_BUF*%
X167640000Y-64897000D03*
%TO.P,J1,4*%
%TO.N,Net-(J1-Pad4)*%
X165100000Y-62357000D03*
%TO.P,J1,3*%
%TO.N,D7_BUF*%
X167640000Y-62357000D03*
%TO.P,J1,2*%
%TO.N,GND*%
X165100000Y-59817000D03*
D11*
%TO.P,J1,1*%
%TO.N,~RESET*%
X167640000Y-59817000D03*
%TD*%
D10*
%TO.P,J2,2*%
%TO.N,GND*%
X176871000Y-59817000D03*
D11*
%TO.P,J2,1*%
%TO.N,VCC*%
X174331000Y-59817000D03*
%TD*%
D12*
%TO.P,SW1,8*%
%TO.N,ROM_ADDR_JUMPER*%
X105410000Y-72390000D03*
%TO.P,SW1,4*%
%TO.N,Net-(SW1-Pad4)*%
X113030000Y-80010000D03*
%TO.P,SW1,7*%
%TO.N,ATA_ADDR_JUMPER*%
X107950000Y-72390000D03*
%TO.P,SW1,3*%
%TO.N,VCC*%
X110490000Y-80010000D03*
%TO.P,SW1,6*%
%TO.N,V20_JUMPER*%
X110490000Y-72390000D03*
%TO.P,SW1,2*%
%TO.N,VCC*%
X107950000Y-80010000D03*
%TO.P,SW1,5*%
%TO.N,Net-(SW1-Pad5)*%
X113030000Y-72390000D03*
D13*
%TO.P,SW1,1*%
%TO.N,VCC*%
X105410000Y-80010000D03*
%TD*%
D14*
%TO.P,MH4,*%
%TO.N,GND*%
X192913000Y-116713000D03*
%TD*%
D12*
%TO.P,RN1,5*%
%TO.N,Net-(RN1-Pad5)*%
X104140000Y-83820000D03*
%TO.P,RN1,4*%
%TO.N,V20_JUMPER*%
X106680000Y-83820000D03*
%TO.P,RN1,3*%
%TO.N,ATA_ADDR_JUMPER*%
X109220000Y-83820000D03*
%TO.P,RN1,2*%
%TO.N,ROM_ADDR_JUMPER*%
X111760000Y-83820000D03*
D13*
%TO.P,RN1,1*%
%TO.N,GND*%
X114300000Y-83820000D03*
%TD*%
D15*
%TO.P,C4,2*%
%TO.N,GND*%
X177125000Y-125095000D03*
D13*
%TO.P,C4,1*%
%TO.N,VCC*%
X174625000Y-125095000D03*
%TD*%
D15*
%TO.P,C3,2*%
%TO.N,GND*%
X131445000Y-115490000D03*
%TO.P,C3,1*%
%TO.N,VCC*%
X131445000Y-110490000D03*
%TD*%
%TO.P,C2,2*%
%TO.N,GND*%
X100965000Y-115490000D03*
%TO.P,C2,1*%
%TO.N,VCC*%
X100965000Y-110490000D03*
%TD*%
%TO.P,C1,2*%
%TO.N,GND*%
X100965000Y-92630000D03*
%TO.P,C1,1*%
%TO.N,VCC*%
X100965000Y-87630000D03*
%TD*%
D12*
%TO.P,U3,20*%
%TO.N,VCC*%
X104140000Y-110490000D03*
%TO.P,U3,10*%
%TO.N,GND*%
X127000000Y-118110000D03*
%TO.P,U3,19*%
%TO.N,ATA_ADDR_JUMPER*%
X106680000Y-110490000D03*
%TO.P,U3,9*%
%TO.N,A16*%
X124460000Y-118110000D03*
%TO.P,U3,18*%
%TO.N,ROM_ADDR_JUMPER*%
X109220000Y-110490000D03*
%TO.P,U3,8*%
%TO.N,A15*%
X121920000Y-118110000D03*
%TO.P,U3,17*%
%TO.N,~CS1~_ATA*%
X111760000Y-110490000D03*
%TO.P,U3,7*%
%TO.N,RESET*%
X119380000Y-118110000D03*
%TO.P,U3,16*%
%TO.N,~RESET*%
X114300000Y-110490000D03*
%TO.P,U3,6*%
%TO.N,A09*%
X116840000Y-118110000D03*
%TO.P,U3,15*%
%TO.N,~CE~_D_BUF*%
X116840000Y-110490000D03*
%TO.P,U3,5*%
%TO.N,A08*%
X114300000Y-118110000D03*
%TO.P,U3,14*%
%TO.N,~CE~_BIOS*%
X119380000Y-110490000D03*
%TO.P,U3,4*%
%TO.N,A07*%
X111760000Y-118110000D03*
%TO.P,U3,13*%
%TO.N,A18*%
X121920000Y-110490000D03*
%TO.P,U3,3*%
%TO.N,A06*%
X109220000Y-118110000D03*
%TO.P,U3,12*%
%TO.N,A19*%
X124460000Y-110490000D03*
%TO.P,U3,2*%
%TO.N,A05*%
X106680000Y-118110000D03*
%TO.P,U3,11*%
%TO.N,A17*%
X127000000Y-110490000D03*
D13*
%TO.P,U3,1*%
%TO.N,A04*%
X104140000Y-118110000D03*
%TD*%
D12*
%TO.P,U2,20*%
%TO.N,VCC*%
X134620000Y-110490000D03*
%TO.P,U2,10*%
%TO.N,GND*%
X157480000Y-118110000D03*
%TO.P,U2,19*%
%TO.N,~CE~_D_BUF*%
X137160000Y-110490000D03*
%TO.P,U2,9*%
%TO.N,D7*%
X154940000Y-118110000D03*
%TO.P,U2,18*%
%TO.N,D0_BUF*%
X139700000Y-110490000D03*
%TO.P,U2,8*%
%TO.N,D6*%
X152400000Y-118110000D03*
%TO.P,U2,17*%
%TO.N,D1_BUF*%
X142240000Y-110490000D03*
%TO.P,U2,7*%
%TO.N,D5*%
X149860000Y-118110000D03*
%TO.P,U2,16*%
%TO.N,D2_BUF*%
X144780000Y-110490000D03*
%TO.P,U2,6*%
%TO.N,D4*%
X147320000Y-118110000D03*
%TO.P,U2,15*%
%TO.N,D3_BUF*%
X147320000Y-110490000D03*
%TO.P,U2,5*%
%TO.N,D3*%
X144780000Y-118110000D03*
%TO.P,U2,14*%
%TO.N,D4_BUF*%
X149860000Y-110490000D03*
%TO.P,U2,4*%
%TO.N,D2*%
X142240000Y-118110000D03*
%TO.P,U2,13*%
%TO.N,D5_BUF*%
X152400000Y-110490000D03*
%TO.P,U2,3*%
%TO.N,D1*%
X139700000Y-118110000D03*
%TO.P,U2,12*%
%TO.N,D6_BUF*%
X154940000Y-110490000D03*
%TO.P,U2,2*%
%TO.N,D0*%
X137160000Y-118110000D03*
%TO.P,U2,11*%
%TO.N,D7_BUF*%
X157480000Y-110490000D03*
D13*
%TO.P,U2,1*%
%TO.N,~IOR*%
X134620000Y-118110000D03*
%TD*%
D12*
%TO.P,U1,32*%
%TO.N,VCC*%
X104140000Y-87630000D03*
%TO.P,U1,16*%
%TO.N,GND*%
X142240000Y-102870000D03*
%TO.P,U1,31*%
%TO.N,~MEMW*%
X106680000Y-87630000D03*
%TO.P,U1,15*%
%TO.N,D2_BUF*%
X139700000Y-102870000D03*
%TO.P,U1,30*%
%TO.N,GND*%
X109220000Y-87630000D03*
%TO.P,U1,14*%
%TO.N,D1_BUF*%
X137160000Y-102870000D03*
%TO.P,U1,29*%
%TO.N,ATA_ADDR_JUMPER*%
X111760000Y-87630000D03*
%TO.P,U1,13*%
%TO.N,D0_BUF*%
X134620000Y-102870000D03*
%TO.P,U1,28*%
%TO.N,A13*%
X114300000Y-87630000D03*
%TO.P,U1,12*%
%TO.N,A00*%
X132080000Y-102870000D03*
%TO.P,U1,27*%
%TO.N,A08*%
X116840000Y-87630000D03*
%TO.P,U1,11*%
%TO.N,A01*%
X129540000Y-102870000D03*
%TO.P,U1,26*%
%TO.N,A09*%
X119380000Y-87630000D03*
%TO.P,U1,10*%
%TO.N,A02*%
X127000000Y-102870000D03*
%TO.P,U1,25*%
%TO.N,A11*%
X121920000Y-87630000D03*
%TO.P,U1,9*%
%TO.N,A03*%
X124460000Y-102870000D03*
%TO.P,U1,24*%
%TO.N,~MEMR*%
X124460000Y-87630000D03*
%TO.P,U1,8*%
%TO.N,A04*%
X121920000Y-102870000D03*
%TO.P,U1,23*%
%TO.N,A10*%
X127000000Y-87630000D03*
%TO.P,U1,7*%
%TO.N,A05*%
X119380000Y-102870000D03*
%TO.P,U1,22*%
%TO.N,~CE~_BIOS*%
X129540000Y-87630000D03*
%TO.P,U1,6*%
%TO.N,A06*%
X116840000Y-102870000D03*
%TO.P,U1,21*%
%TO.N,D7_BUF*%
X132080000Y-87630000D03*
%TO.P,U1,5*%
%TO.N,A07*%
X114300000Y-102870000D03*
%TO.P,U1,20*%
%TO.N,D6_BUF*%
X134620000Y-87630000D03*
%TO.P,U1,4*%
%TO.N,A12*%
X111760000Y-102870000D03*
%TO.P,U1,19*%
%TO.N,D5_BUF*%
X137160000Y-87630000D03*
%TO.P,U1,3*%
%TO.N,V20_JUMPER*%
X109220000Y-102870000D03*
%TO.P,U1,18*%
%TO.N,D4_BUF*%
X139700000Y-87630000D03*
%TO.P,U1,2*%
%TO.N,GND*%
X106680000Y-102870000D03*
%TO.P,U1,17*%
%TO.N,D3_BUF*%
X142240000Y-87630000D03*
D13*
%TO.P,U1,1*%
%TO.N,GND*%
X104140000Y-102870000D03*
%TD*%
D14*
%TO.P,MH3,*%
%TO.N,GND*%
X166370000Y-116713000D03*
%TD*%
%TO.P,MH1,*%
%TO.N,GND*%
X166370000Y-51181000D03*
%TD*%
%TO.P,MH2,*%
%TO.N,GND*%
X192913000Y-51181000D03*
%TD*%
D16*
%TO.P,J3,62*%
%TO.N,A00*%
X99060000Y-138430000D03*
%TO.P,J3,61*%
%TO.N,A01*%
X101600000Y-138430000D03*
%TO.P,J3,60*%
%TO.N,A02*%
X104140000Y-138430000D03*
%TO.P,J3,59*%
%TO.N,A03*%
X106680000Y-138430000D03*
%TO.P,J3,58*%
%TO.N,A04*%
X109220000Y-138430000D03*
%TO.P,J3,57*%
%TO.N,A05*%
X111760000Y-138430000D03*
%TO.P,J3,56*%
%TO.N,A06*%
X114300000Y-138430000D03*
%TO.P,J3,55*%
%TO.N,A07*%
X116840000Y-138430000D03*
%TO.P,J3,54*%
%TO.N,A08*%
X119380000Y-138430000D03*
%TO.P,J3,53*%
%TO.N,A09*%
X121920000Y-138430000D03*
%TO.P,J3,52*%
%TO.N,A10*%
X124460000Y-138430000D03*
%TO.P,J3,51*%
%TO.N,A11*%
X127000000Y-138430000D03*
%TO.P,J3,50*%
%TO.N,A12*%
X129540000Y-138430000D03*
%TO.P,J3,49*%
%TO.N,A13*%
X132080000Y-138430000D03*
%TO.P,J3,48*%
%TO.N,Net-(J3-Pad48)*%
X134620000Y-138430000D03*
%TO.P,J3,47*%
%TO.N,A15*%
X137160000Y-138430000D03*
%TO.P,J3,46*%
%TO.N,A16*%
X139700000Y-138430000D03*
%TO.P,J3,45*%
%TO.N,A17*%
X142240000Y-138430000D03*
%TO.P,J3,44*%
%TO.N,A18*%
X144780000Y-138430000D03*
%TO.P,J3,43*%
%TO.N,A19*%
X147320000Y-138430000D03*
%TO.P,J3,42*%
%TO.N,Net-(J3-Pad42)*%
X149860000Y-138430000D03*
%TO.P,J3,41*%
%TO.N,Net-(J3-Pad41)*%
X152400000Y-138430000D03*
%TO.P,J3,40*%
%TO.N,D0*%
X154940000Y-138430000D03*
%TO.P,J3,39*%
%TO.N,D1*%
X157480000Y-138430000D03*
%TO.P,J3,38*%
%TO.N,D2*%
X160020000Y-138430000D03*
%TO.P,J3,37*%
%TO.N,D3*%
X162560000Y-138430000D03*
%TO.P,J3,36*%
%TO.N,D4*%
X165100000Y-138430000D03*
%TO.P,J3,35*%
%TO.N,D5*%
X167640000Y-138430000D03*
%TO.P,J3,34*%
%TO.N,D6*%
X170180000Y-138430000D03*
%TO.P,J3,33*%
%TO.N,D7*%
X172720000Y-138430000D03*
%TO.P,J3,32*%
%TO.N,Net-(J3-Pad32)*%
X175260000Y-138430000D03*
%TD*%
D17*
%TO.N,A00*%
X125730000Y-125095000D03*
X104140000Y-124460000D03*
%TO.N,A01*%
X154940000Y-97790000D03*
X154940000Y-101600000D03*
X105410000Y-123190000D03*
X123190000Y-123190000D03*
%TO.N,A02*%
X104140000Y-121920000D03*
X120650000Y-121920000D03*
%TO.N,A03*%
X105410000Y-120650000D03*
X118110000Y-120650000D03*
%TO.N,A04*%
X104775000Y-107950000D03*
%TO.N,A05*%
X107950000Y-106045000D03*
%TO.N,A06*%
X113030000Y-106045000D03*
%TO.N,A10*%
X127000000Y-121285000D03*
X148590000Y-121285000D03*
%TO.N,A11*%
X135890000Y-120015000D03*
X127000000Y-120015000D03*
%TO.N,A12*%
X129540000Y-128905000D03*
X113030000Y-129540000D03*
X108585000Y-108584996D03*
X109220000Y-112395000D03*
%TO.N,A13*%
X114300000Y-100330000D03*
X121920006Y-100330000D03*
%TO.N,A15*%
X137160000Y-132715000D03*
X123825000Y-132715000D03*
%TO.N,A16*%
X125730000Y-130175000D03*
X136525000Y-130175000D03*
%TO.N,A17*%
X132080000Y-125095000D03*
X134620000Y-125095000D03*
X132715000Y-107950000D03*
X127000000Y-107950000D03*
%TO.N,A18*%
X137160000Y-123825000D03*
X120015000Y-116205000D03*
%TO.N,A19*%
X135890000Y-122555000D03*
X122555000Y-116205000D03*
%TO.N,D0*%
X139700000Y-122555000D03*
X143510000Y-122555001D03*
D18*
%TO.N,GND*%
X175260000Y-130810000D03*
X175260000Y-132715000D03*
X127000000Y-114935000D03*
X157480000Y-114935000D03*
X152400000Y-114935000D03*
X132079994Y-93345000D03*
X134620000Y-93345000D03*
X99695000Y-73660000D03*
X99695000Y-75565000D03*
X99695000Y-71755000D03*
X140970000Y-97155000D03*
X138430000Y-97155000D03*
X170815000Y-93345000D03*
X170815000Y-97155000D03*
X170815000Y-99060000D03*
X170815000Y-100965000D03*
X170815000Y-91440000D03*
X170815000Y-89535000D03*
X144780000Y-102870000D03*
X157480000Y-122555000D03*
X159385000Y-122555000D03*
X158750000Y-123825000D03*
X160655000Y-123825000D03*
X165100000Y-130175000D03*
X166370000Y-131445000D03*
%TO.N,VCC*%
X102870000Y-127000000D03*
X102870000Y-128905000D03*
D17*
X129540000Y-127000000D03*
X130810000Y-127000000D03*
D18*
X173990000Y-120015000D03*
X172085000Y-120015000D03*
D17*
X102235000Y-80010000D03*
%TO.N,~IOR*%
X160655000Y-116840000D03*
X142240000Y-131445000D03*
%TO.N,~IOW*%
X167005000Y-124460000D03*
X139700000Y-125095000D03*
X145415000Y-130810000D03*
%TO.N,~MEMR*%
X148590000Y-130810000D03*
%TO.N,~MEMW*%
X106680000Y-95250000D03*
X139700000Y-120015000D03*
X149860000Y-132715000D03*
X148590000Y-94615000D03*
X152400000Y-120015000D03*
%TO.N,RESET*%
X172085000Y-130810000D03*
X168275000Y-129540000D03*
X122555000Y-131445000D03*
%TO.N,D0_BUF*%
X137160000Y-107950000D03*
X159385000Y-108585000D03*
%TO.N,D1_BUF*%
X140970000Y-107950000D03*
X158750000Y-106045000D03*
%TO.N,D2_BUF*%
X144780000Y-107950000D03*
X157480000Y-107950000D03*
%TO.N,D3_BUF*%
X157479994Y-73660000D03*
X148590000Y-88265000D03*
%TO.N,D4_BUF*%
X159385000Y-71120000D03*
X139700000Y-93980000D03*
X149860000Y-93345000D03*
%TO.N,D5_BUF*%
X160655000Y-68580000D03*
X137160000Y-92710000D03*
X151130000Y-92075000D03*
%TO.N,D6_BUF*%
X161925000Y-66040000D03*
X134620000Y-91440000D03*
X152400000Y-90805000D03*
%TO.N,D7_BUF*%
X163195000Y-63500000D03*
X132080000Y-90170000D03*
X153670000Y-89535000D03*
%TO.N,~RESET*%
X156210000Y-104775000D03*
%TO.N,~CE~_BIOS*%
X120650000Y-93980000D03*
X129539992Y-93980000D03*
%TD*%
D19*
%TO.N,A00*%
X125730000Y-124460000D02*
X125730000Y-125095000D01*
X125730000Y-113665000D02*
X125730000Y-124460000D01*
X128905000Y-110490000D02*
X125730000Y-113665000D01*
X128905000Y-106045000D02*
X128905000Y-110490000D01*
X132080000Y-102870000D02*
X128905000Y-106045000D01*
X100965000Y-131445000D02*
X99060000Y-133350000D01*
X103505000Y-131445000D02*
X100965000Y-131445000D01*
X99060000Y-133350000D02*
X99060000Y-138430000D01*
X105410000Y-129540000D02*
X103505000Y-131445000D01*
X105410000Y-125730000D02*
X105410000Y-129540000D01*
X104140000Y-124460000D02*
X105410000Y-125730000D01*
%TO.N,A01*%
X123825000Y-116840000D02*
X123190000Y-117475000D01*
X123825000Y-114300000D02*
X123825000Y-116840000D01*
X125730000Y-112395000D02*
X123825000Y-114300000D01*
X125730000Y-106680000D02*
X125730000Y-112395000D01*
X129540000Y-102870000D02*
X125730000Y-106680000D01*
X154940000Y-97790000D02*
X154940000Y-101600000D01*
X101600000Y-133985000D02*
X101600000Y-138430000D01*
X103886250Y-132715000D02*
X102870000Y-132715000D01*
X106680000Y-129921250D02*
X103886250Y-132715000D01*
X102870000Y-132715000D02*
X101600000Y-133985000D01*
X106680000Y-124460000D02*
X106680000Y-129921250D01*
X105410000Y-123190000D02*
X106680000Y-124460000D01*
X123190000Y-117475000D02*
X123190000Y-123190000D01*
%TO.N,A02*%
X104140000Y-133985000D02*
X104140000Y-138430000D01*
X107950000Y-123825000D02*
X107950000Y-130175000D01*
X106045000Y-121920000D02*
X107950000Y-123825000D01*
X107950000Y-130175000D02*
X104140000Y-133985000D01*
X104140000Y-121920000D02*
X106045000Y-121920000D01*
X121285000Y-116840000D02*
X120650000Y-117475000D01*
X127000000Y-102870000D02*
X123190000Y-106680000D01*
X121285000Y-114300000D02*
X121285000Y-116840000D01*
X123190000Y-112395000D02*
X121285000Y-114300000D01*
X123190000Y-106680000D02*
X123190000Y-112395000D01*
X120650000Y-117475000D02*
X120650000Y-121920000D01*
%TO.N,A03*%
X109220000Y-123825000D02*
X106045000Y-120650000D01*
X109220000Y-130810000D02*
X109220000Y-123825000D01*
X106680000Y-133350000D02*
X109220000Y-130810000D01*
X106045000Y-120650000D02*
X105410000Y-120650000D01*
X106680000Y-138430000D02*
X106680000Y-133350000D01*
X120650000Y-106680000D02*
X120650000Y-111760000D01*
X120650000Y-111760000D02*
X118110000Y-114300000D01*
X124460000Y-102870000D02*
X120650000Y-106680000D01*
X118110000Y-114300000D02*
X118110000Y-120650000D01*
%TO.N,A04*%
X105410000Y-116840000D02*
X104140000Y-118110000D01*
X105410000Y-108585000D02*
X105410000Y-116840000D01*
X104775000Y-107950000D02*
X105410000Y-108585000D01*
X110490000Y-131445000D02*
X109220000Y-132715000D01*
X110490000Y-123825000D02*
X110490000Y-131445000D01*
X106045000Y-119380000D02*
X110490000Y-123825000D01*
X109220000Y-132715000D02*
X109220000Y-138430000D01*
X105410000Y-119380000D02*
X106045000Y-119380000D01*
X104140000Y-118110000D02*
X105410000Y-119380000D01*
%TO.N,A05*%
X107550001Y-106444999D02*
X107950000Y-106045000D01*
X107550001Y-109455001D02*
X107550001Y-106444999D01*
X107950000Y-109855000D02*
X107550001Y-109455001D01*
X107950000Y-111760000D02*
X107950000Y-109855000D01*
X106680000Y-113030000D02*
X107950000Y-111760000D01*
X106680000Y-118745000D02*
X106680000Y-113030000D01*
X111760000Y-123825000D02*
X106680000Y-118745000D01*
X111760000Y-138430000D02*
X111760000Y-123825000D01*
%TO.N,A06*%
X114300000Y-123825000D02*
X110490000Y-120015000D01*
X114300000Y-138430000D02*
X114300000Y-123825000D01*
X109220000Y-118745000D02*
X109220000Y-118110000D01*
X110490000Y-120015000D02*
X109220000Y-118745000D01*
X111760000Y-107315000D02*
X113030000Y-106045000D01*
X111760000Y-108585000D02*
X111760000Y-107315000D01*
X110490000Y-109855000D02*
X111760000Y-108585000D01*
X110490000Y-116840000D02*
X110490000Y-109855000D01*
X109220000Y-118110000D02*
X110490000Y-116840000D01*
%TO.N,A07*%
X113030000Y-108585000D02*
X114300000Y-107315000D01*
X113030000Y-116840000D02*
X113030000Y-108585000D01*
X111760000Y-118110000D02*
X113030000Y-116840000D01*
X111760000Y-120015000D02*
X111760000Y-118110000D01*
X116840000Y-125095000D02*
X111760000Y-120015000D01*
X114300000Y-107315000D02*
X114300000Y-102870000D01*
X116840000Y-138430000D02*
X116840000Y-125095000D01*
%TO.N,A08*%
X114300000Y-118110000D02*
X114300000Y-121285000D01*
X119380000Y-126365000D02*
X119380000Y-138430000D01*
X115570000Y-116840000D02*
X114300000Y-118110000D01*
X114300000Y-121285000D02*
X119380000Y-126365000D01*
X115570000Y-88900000D02*
X115570000Y-116840000D01*
X116840000Y-87630000D02*
X115570000Y-88900000D01*
D20*
%TO.N,A09*%
X120650000Y-131445000D02*
X121920000Y-132715000D01*
X120650000Y-126365000D02*
X120650000Y-131445000D01*
D19*
X121920000Y-132715000D02*
X121920000Y-138430000D01*
X116840000Y-122555000D02*
X120650000Y-126365000D01*
X119380000Y-87630000D02*
X118110000Y-88900000D01*
X118110000Y-88900000D02*
X118110000Y-112395000D01*
X118110000Y-112395000D02*
X116840000Y-113665000D01*
X116840000Y-113665000D02*
X116840000Y-122555000D01*
%TO.N,A10*%
X127000000Y-121285000D02*
X127000000Y-131445000D01*
X127000000Y-131445000D02*
X124460000Y-133985000D01*
X124460000Y-133985000D02*
X124460000Y-138430000D01*
X127000000Y-94615000D02*
X127000000Y-87630000D01*
X128905000Y-96520000D02*
X127000000Y-94615000D01*
X138430000Y-100330000D02*
X134620000Y-96520000D01*
X144145000Y-100330000D02*
X138430000Y-100330000D01*
X134620000Y-96520000D02*
X128905000Y-96520000D01*
X146109999Y-102294999D02*
X144145000Y-100330000D01*
X146109999Y-118804999D02*
X146109999Y-102294999D01*
X148590000Y-121285000D02*
X146109999Y-118804999D01*
%TO.N,A11*%
X127810001Y-120825001D02*
X127000000Y-120015000D01*
X127810001Y-137619999D02*
X127810001Y-120825001D01*
X127000000Y-138430000D02*
X127810001Y-137619999D01*
X135890000Y-116319198D02*
X135890000Y-120015000D01*
X141029999Y-111179199D02*
X135890000Y-116319198D01*
X141029999Y-109914999D02*
X141029999Y-111179199D01*
X135830001Y-101540001D02*
X135830001Y-104715001D01*
X133350000Y-99060000D02*
X135830001Y-101540001D01*
X135830001Y-104715001D02*
X141029999Y-109914999D01*
X127635000Y-99060000D02*
X133350000Y-99060000D01*
X121920000Y-93345000D02*
X127635000Y-99060000D01*
X121920000Y-87630000D02*
X121920000Y-93345000D01*
%TO.N,A12*%
X129540000Y-138430000D02*
X129540000Y-128905000D01*
X111760000Y-102870000D02*
X111760000Y-104140000D01*
X111760000Y-104140000D02*
X108585000Y-107315000D01*
X108585000Y-107315000D02*
X108585000Y-108584996D01*
X108009999Y-118804999D02*
X108009999Y-113605001D01*
X113030000Y-123825000D02*
X108009999Y-118804999D01*
X108009999Y-113605001D02*
X109220000Y-112395000D01*
X113030000Y-129540000D02*
X113030000Y-123825000D01*
%TO.N,A13*%
X114300000Y-87630000D02*
X114300000Y-100505000D01*
X132080000Y-100330000D02*
X121920006Y-100330000D01*
X133290001Y-101540001D02*
X132080000Y-100330000D01*
X135840001Y-108535001D02*
X133290001Y-105985001D01*
X135840001Y-114352504D02*
X135840001Y-108535001D01*
X133350000Y-116842505D02*
X135840001Y-114352504D01*
X133350000Y-128905000D02*
X133350000Y-116842505D01*
X133290001Y-105985001D02*
X133290001Y-101540001D01*
X132080000Y-130175000D02*
X133350000Y-128905000D01*
X132080000Y-138430000D02*
X132080000Y-130175000D01*
%TO.N,A15*%
X137160000Y-132715000D02*
X137160000Y-138430000D01*
X121920000Y-124460000D02*
X121920000Y-118110000D01*
X123825000Y-126365000D02*
X121920000Y-124460000D01*
X123825000Y-132715000D02*
X123825000Y-126365000D01*
%TO.N,A16*%
X125730000Y-126682500D02*
X125730000Y-130175000D01*
X124460000Y-125412500D02*
X125730000Y-126682500D01*
X124460000Y-118110000D02*
X124460000Y-125412500D01*
X139700000Y-133350000D02*
X139700000Y-138430000D01*
X136525000Y-130175000D02*
X139700000Y-133350000D01*
%TO.N,A17*%
X127000000Y-110490000D02*
X127000000Y-107950000D01*
X134620000Y-125730000D02*
X134620000Y-125095000D01*
X142240000Y-133350000D02*
X134620000Y-125730000D01*
X142240000Y-138430000D02*
X142240000Y-133350000D01*
X132080000Y-116840000D02*
X132080000Y-125095000D01*
X132969000Y-115951000D02*
X132080000Y-116840000D01*
X132969000Y-108204000D02*
X132969000Y-115951000D01*
X132715000Y-107950000D02*
X132969000Y-108204000D01*
%TO.N,A18*%
X121920000Y-110490000D02*
X121920000Y-112395000D01*
X121920000Y-112395000D02*
X120015000Y-114300000D01*
X120015000Y-114300000D02*
X120015000Y-116205000D01*
X144780000Y-132010685D02*
X144780000Y-138430000D01*
X137160000Y-124390685D02*
X144780000Y-132010685D01*
X137160000Y-123825000D02*
X137160000Y-124390685D01*
%TO.N,A19*%
X124460000Y-112395000D02*
X122555000Y-114300000D01*
X124460000Y-110490000D02*
X124460000Y-112395000D01*
X122555000Y-114300000D02*
X122555000Y-116205000D01*
X137795000Y-122555000D02*
X135890000Y-122555000D01*
X139065000Y-123825000D02*
X137795000Y-122555000D01*
X147320000Y-130844661D02*
X140300339Y-123825000D01*
X140300339Y-123825000D02*
X139065000Y-123825000D01*
X147320000Y-138430000D02*
X147320000Y-130844661D01*
%TO.N,D0*%
X137160000Y-120015000D02*
X139700000Y-122555000D01*
X137160000Y-118110000D02*
X137160000Y-120015000D01*
D20*
X154940000Y-133985000D02*
X154940000Y-138430000D01*
X143510001Y-122555001D02*
X154940000Y-133985000D01*
X143510000Y-122555001D02*
X143510001Y-122555001D01*
D19*
%TO.N,D1*%
X144780000Y-121920000D02*
X144145000Y-121285000D01*
X142875000Y-121285000D02*
X139700000Y-118110000D01*
X144145000Y-121285000D02*
X142875000Y-121285000D01*
D20*
X150495000Y-127000000D02*
X157480000Y-133985000D01*
X149225000Y-127000000D02*
X150495000Y-127000000D01*
X144780000Y-122555000D02*
X149225000Y-127000000D01*
X157480000Y-133985000D02*
X157480000Y-138430000D01*
X144780000Y-121920000D02*
X144780000Y-122555000D01*
D19*
%TO.N,D2*%
X142240000Y-119380000D02*
X142240000Y-118110000D01*
X142875000Y-120015000D02*
X142240000Y-119380000D01*
X144145000Y-120015000D02*
X142875000Y-120015000D01*
D20*
X160020000Y-133985000D02*
X160020000Y-138430000D01*
X151765000Y-125730000D02*
X160020000Y-133985000D01*
X149860000Y-125730000D02*
X151765000Y-125730000D01*
X144145000Y-120015000D02*
X149860000Y-125730000D01*
%TO.N,D3*%
X149860000Y-124460000D02*
X144780000Y-119380000D01*
X144780000Y-119380000D02*
X144780000Y-118110000D01*
X162560000Y-138430000D02*
X162560000Y-133985000D01*
D19*
X153035000Y-124460000D02*
X162560000Y-133985000D01*
X149860000Y-124460000D02*
X153035000Y-124460000D01*
%TO.N,D4*%
X152400000Y-123190000D02*
X147320000Y-118110000D01*
D20*
X165100000Y-133985000D02*
X165100000Y-138430000D01*
D19*
X165100000Y-133985000D02*
X154305000Y-123190000D01*
X152400000Y-123190000D02*
X154305000Y-123190000D01*
D20*
%TO.N,D5*%
X167640000Y-133985000D02*
X167640000Y-138430000D01*
D19*
X149860000Y-119380000D02*
X149860000Y-118110000D01*
X152400000Y-121920000D02*
X149860000Y-119380000D01*
X167005000Y-133350000D02*
X165735000Y-133350000D01*
D20*
X167005000Y-133350000D02*
X167640000Y-133985000D01*
D19*
X154305000Y-121920000D02*
X152400000Y-121920000D01*
X165735000Y-133350000D02*
X154305000Y-121920000D01*
D20*
%TO.N,D6*%
X154940000Y-120650000D02*
X160020000Y-120650000D01*
X152400000Y-118110000D02*
X154940000Y-120650000D01*
X170180000Y-133350000D02*
X170180000Y-138430000D01*
X160020000Y-120650000D02*
X163512500Y-124142500D01*
D19*
X167005000Y-127635000D02*
X163512500Y-124142500D01*
X167005000Y-130175000D02*
X167005000Y-127635000D01*
X170180000Y-133350000D02*
X167005000Y-130175000D01*
D20*
%TO.N,D7*%
X172720000Y-134270000D02*
X172720000Y-138430000D01*
X156210000Y-119380000D02*
X160020000Y-119380000D01*
X154940000Y-118110000D02*
X156210000Y-119380000D01*
X172720000Y-133350000D02*
X172720000Y-134270000D01*
X160020000Y-119380000D02*
X166370000Y-125730000D01*
D19*
X168910000Y-128270000D02*
X166370000Y-125730000D01*
X171450000Y-128270000D02*
X168910000Y-128270000D01*
X173355000Y-130175000D02*
X171450000Y-128270000D01*
X173355000Y-132715000D02*
X173355000Y-130175000D01*
X172720000Y-133350000D02*
X173355000Y-132715000D01*
D21*
%TO.N,GND*%
X127000000Y-118110000D02*
X127000000Y-114935000D01*
X157480000Y-118110000D02*
X157480000Y-114935000D01*
X157480000Y-114935000D02*
X152400000Y-114935000D01*
X132079994Y-93345000D02*
X134620000Y-93345000D01*
X138430000Y-97155000D02*
X140970000Y-97155000D01*
X138430000Y-97155000D02*
X134620000Y-93345000D01*
X167640000Y-82677000D02*
X170307000Y-82677000D01*
X170815000Y-83185000D02*
X170815000Y-89535000D01*
X170307000Y-82677000D02*
X170815000Y-83185000D01*
X170815000Y-91440000D02*
X170815000Y-93345000D01*
X170815000Y-89535000D02*
X170815000Y-91440000D01*
X142240000Y-102870000D02*
X144780000Y-102870000D01*
%TO.N,VCC*%
X100965000Y-110490000D02*
X100965000Y-109220000D01*
D22*
X102870000Y-127000000D02*
X102870000Y-128905000D01*
D21*
X100965000Y-110490000D02*
X102870000Y-110490000D01*
D22*
X98425000Y-127000000D02*
X102870000Y-127000000D01*
X102870000Y-128905000D02*
X100965000Y-127000000D01*
X98425000Y-124460000D02*
X98425000Y-127000000D01*
X102870000Y-128905000D02*
X98425000Y-128905000D01*
X98425000Y-128270000D02*
X98425000Y-127000000D01*
D23*
X129519999Y-126979999D02*
X129540000Y-127000000D01*
D21*
X130810000Y-113665000D02*
X129519999Y-114955001D01*
D23*
X129519999Y-114955001D02*
X129519999Y-126979999D01*
X129540000Y-127000000D02*
X130810000Y-127000000D01*
X130810000Y-127000000D02*
X129519999Y-125709999D01*
D21*
X131445000Y-113030000D02*
X131445000Y-110490000D01*
X130810000Y-113665000D02*
X131445000Y-113030000D01*
X131445000Y-110490000D02*
X131127500Y-110490000D01*
D23*
X129519999Y-112395000D02*
X129519999Y-114955001D01*
D21*
X130134998Y-113665000D02*
X129519999Y-113050001D01*
X130810000Y-113665000D02*
X130134998Y-113665000D01*
X129857500Y-112057499D02*
X129519999Y-112395000D01*
X129857500Y-111442500D02*
X129857500Y-112057499D01*
X129857500Y-111442500D02*
X129519999Y-111780001D01*
X102235000Y-110490000D02*
X104140000Y-110490000D01*
X104140000Y-110490000D02*
X104140000Y-109220000D01*
X104140000Y-109220000D02*
X103505000Y-108585000D01*
X100965000Y-109220000D02*
X100330000Y-108585000D01*
X98425000Y-108585000D02*
X98425000Y-107950000D01*
X100965000Y-111760000D02*
X100330000Y-112395000D01*
X100965000Y-110490000D02*
X100965000Y-111760000D01*
X104140000Y-110490000D02*
X104140000Y-111760000D01*
X104140000Y-111760000D02*
X103505000Y-112395000D01*
X100965000Y-111760000D02*
X101600000Y-112395000D01*
X103505000Y-112395000D02*
X101600000Y-112395000D01*
X100965000Y-109220000D02*
X101600000Y-108585000D01*
X103505000Y-108585000D02*
X101600000Y-108585000D01*
X100965000Y-112395000D02*
X100330000Y-112395000D01*
X100965000Y-108585000D02*
X100965000Y-112395000D01*
X101600000Y-112395000D02*
X100965000Y-112395000D01*
X101600000Y-108585000D02*
X100965000Y-108585000D01*
X100965000Y-108585000D02*
X100330000Y-108585000D01*
X99695000Y-108585000D02*
X98425000Y-107315000D01*
D22*
X98425000Y-91440000D02*
X98425000Y-107315000D01*
D21*
X100330000Y-108585000D02*
X99695000Y-108585000D01*
X99695000Y-108585000D02*
X98425000Y-108585000D01*
X99695000Y-108585000D02*
X98425000Y-109855000D01*
D22*
X98425000Y-107315000D02*
X98425000Y-109855000D01*
D21*
X99695000Y-110490000D02*
X99060000Y-109855000D01*
X100965000Y-110490000D02*
X99695000Y-110490000D01*
X99060000Y-109855000D02*
X98425000Y-109855000D01*
X99695000Y-110490000D02*
X98425000Y-110490000D01*
X99695000Y-110490000D02*
X98425000Y-111760000D01*
D22*
X98425000Y-109855000D02*
X98425000Y-111760000D01*
D21*
X99060000Y-111760000D02*
X98425000Y-111760000D01*
X99695000Y-112395000D02*
X99060000Y-111760000D01*
X100330000Y-112395000D02*
X99695000Y-112395000D01*
X99695000Y-112395000D02*
X98425000Y-112395000D01*
X99695000Y-112395000D02*
X98425000Y-113665000D01*
D22*
X98425000Y-113665000D02*
X98425000Y-124460000D01*
X98425000Y-111760000D02*
X98425000Y-113665000D01*
D21*
X100965000Y-87630000D02*
X104140000Y-87630000D01*
X104140000Y-87630000D02*
X104140000Y-86360000D01*
X104140000Y-86360000D02*
X103505000Y-85725000D01*
X104140000Y-87630000D02*
X104140000Y-88900000D01*
X104140000Y-88900000D02*
X103505000Y-89535000D01*
X99060000Y-86360000D02*
X98425000Y-86360000D01*
X99695000Y-85725000D02*
X99060000Y-86360000D01*
X99695000Y-85725000D02*
X98425000Y-85725000D01*
X99695000Y-85725000D02*
X98425000Y-84455000D01*
X99695000Y-87630000D02*
X98425000Y-86360000D01*
X100965000Y-87630000D02*
X99695000Y-87630000D01*
X99695000Y-87630000D02*
X98425000Y-87630000D01*
X99695000Y-87630000D02*
X98425000Y-88900000D01*
X99060000Y-88900000D02*
X98425000Y-88900000D01*
X99695000Y-89535000D02*
X99060000Y-88900000D01*
X99060000Y-90170000D02*
X98425000Y-90170000D01*
X99695000Y-89535000D02*
X99060000Y-90170000D01*
D22*
X98425000Y-91440000D02*
X98425000Y-86360000D01*
X98425000Y-128905000D02*
X98425000Y-128270000D01*
D24*
X100965000Y-127000000D02*
X98425000Y-124460000D01*
D22*
X98425000Y-91440000D02*
X98425000Y-88900000D01*
D23*
X130810000Y-127000000D02*
X130810000Y-127000000D01*
X129540000Y-127000000D02*
X129540000Y-127000000D01*
D21*
X100965000Y-86360000D02*
X101600000Y-85725000D01*
X101600000Y-85725000D02*
X100965000Y-85725000D01*
X103505000Y-85725000D02*
X101600000Y-85725000D01*
X100965000Y-86360000D02*
X100965000Y-85725000D01*
X100965000Y-86360000D02*
X100330000Y-85725000D01*
X100330000Y-85725000D02*
X99695000Y-85725000D01*
X100965000Y-85725000D02*
X100330000Y-85725000D01*
X100965000Y-88900000D02*
X100330000Y-89535000D01*
X100330000Y-89535000D02*
X99695000Y-89535000D01*
X100965000Y-89535000D02*
X100330000Y-89535000D01*
X100965000Y-89535000D02*
X100965000Y-88900000D01*
X100965000Y-88900000D02*
X100965000Y-86360000D01*
X100965000Y-88900000D02*
X101600000Y-89535000D01*
X101600000Y-89535000D02*
X100965000Y-89535000D01*
X103505000Y-89535000D02*
X101600000Y-89535000D01*
X130810000Y-110490000D02*
X129857500Y-111442500D01*
X131445000Y-110490000D02*
X130810000Y-110490000D01*
X172720000Y-57785000D02*
X173990000Y-57785000D01*
X172085000Y-58420000D02*
X172720000Y-57785000D01*
X174331000Y-58126000D02*
X174331000Y-59817000D01*
X172085000Y-59309000D02*
X172085000Y-58420000D01*
X173990000Y-57785000D02*
X174331000Y-58126000D01*
X172593000Y-59817000D02*
X172085000Y-59309000D01*
X172085000Y-60325000D02*
X172593000Y-59817000D01*
X172085000Y-60960000D02*
X172085000Y-60325000D01*
X173990000Y-62865000D02*
X172085000Y-60960000D01*
X172593000Y-59817000D02*
X174331000Y-59817000D01*
X172085000Y-59309000D02*
X172085000Y-60325000D01*
X172085000Y-61595000D02*
X173990000Y-63500000D01*
X172085000Y-60960000D02*
X172085000Y-61595000D01*
X174331000Y-62524000D02*
X174331000Y-59817000D01*
X173990000Y-62865000D02*
X174331000Y-62524000D01*
D22*
X173990000Y-120015000D02*
X172085000Y-120015000D01*
X173990000Y-120015000D02*
X173990000Y-118110000D01*
X173990000Y-118110000D02*
X172085000Y-120015000D01*
X172085000Y-120015000D02*
X172085000Y-120015000D01*
D21*
X173482000Y-95377000D02*
X173990000Y-95885000D01*
D22*
X173990000Y-95885000D02*
X173990000Y-62865000D01*
X173990000Y-118110000D02*
X173990000Y-95885000D01*
D20*
X169037000Y-103472202D02*
X169037000Y-95377000D01*
X168237203Y-104271999D02*
X169037000Y-103472202D01*
X165100000Y-105537000D02*
X166365001Y-104271999D01*
X166365001Y-104271999D02*
X168237203Y-104271999D01*
D19*
X169037000Y-95377000D02*
X173482000Y-95377000D01*
X167640000Y-95377000D02*
X169037000Y-95377000D01*
D22*
X98425000Y-85090000D02*
X98425000Y-86360000D01*
X98425000Y-83820000D02*
X98425000Y-85090000D01*
X102235000Y-80010000D02*
X98425000Y-83820000D01*
D21*
X102235000Y-80010000D02*
X105410000Y-80010000D01*
X105410000Y-80010000D02*
X110490000Y-80010000D01*
D19*
%TO.N,~IOR*%
X134620000Y-123190000D02*
X134620000Y-118110000D01*
X142240000Y-131445000D02*
X142240000Y-130810000D01*
X142240000Y-130810000D02*
X134620000Y-123190000D01*
X166370000Y-91567000D02*
X167640000Y-90297000D01*
X162560000Y-93345000D02*
X164338000Y-91567000D01*
X162560000Y-109220000D02*
X162560000Y-93345000D01*
X160655000Y-111125000D02*
X162560000Y-109220000D01*
X164338000Y-91567000D02*
X166370000Y-91567000D01*
X160655000Y-116840000D02*
X160655000Y-111125000D01*
%TO.N,~IOW*%
X161344990Y-92129990D02*
X164447980Y-89027000D01*
X166370000Y-89027000D02*
X167640000Y-87757000D01*
X159385000Y-110490000D02*
X161344990Y-108530010D01*
X159385000Y-117475000D02*
X159385000Y-110490000D01*
X161344990Y-108530010D02*
X161344990Y-92129990D01*
X164447980Y-89027000D02*
X166370000Y-89027000D01*
X167005000Y-124460000D02*
X166370000Y-124460000D01*
X166370000Y-124460000D02*
X159385000Y-117475000D01*
X145415000Y-130810000D02*
X139700000Y-125095000D01*
%TO.N,~MEMR*%
X124460000Y-93980000D02*
X124460000Y-87630000D01*
X128270000Y-97790000D02*
X124460000Y-93980000D01*
X138370001Y-102175001D02*
X133985000Y-97790000D01*
X138370001Y-103445001D02*
X138370001Y-102175001D01*
X143450001Y-111184999D02*
X143450001Y-108525001D01*
X138489999Y-116145001D02*
X143450001Y-111184999D01*
X138489999Y-120144314D02*
X138489999Y-116145001D01*
X133985000Y-97790000D02*
X128270000Y-97790000D01*
X147320000Y-128974315D02*
X138489999Y-120144314D01*
X143450001Y-108525001D02*
X138370001Y-103445001D01*
D20*
X148590000Y-130244315D02*
X148590000Y-130810000D01*
X147320000Y-128974315D02*
X148590000Y-130244315D01*
D19*
%TO.N,~MEMW*%
X106680000Y-87630000D02*
X106680000Y-95250000D01*
X149860000Y-130175000D02*
X149860000Y-132715000D01*
X139700000Y-120015000D02*
X149860000Y-130175000D01*
X151189999Y-118804999D02*
X152400000Y-120015000D01*
X151189999Y-116264999D02*
X151189999Y-118804999D01*
X148590000Y-113665000D02*
X151189999Y-116264999D01*
X148590000Y-94615000D02*
X148590000Y-113665000D01*
%TO.N,RESET*%
X170815000Y-129540000D02*
X172085000Y-130810000D01*
X168275000Y-129540000D02*
X170815000Y-129540000D01*
D20*
X119380000Y-118110000D02*
X119380000Y-123190000D01*
X119380000Y-123190000D02*
X122555000Y-126365000D01*
X122555000Y-126365000D02*
X122555000Y-131445000D01*
%TO.N,D0_BUF*%
X139700000Y-110490000D02*
X134620000Y-105410000D01*
X134620000Y-102870000D02*
X134620000Y-105410000D01*
D19*
X160020000Y-85892198D02*
X160020000Y-107950000D01*
X160020000Y-107950000D02*
X159385000Y-108585000D01*
X166360001Y-81416999D02*
X164495199Y-81416999D01*
X164495199Y-81416999D02*
X160020000Y-85892198D01*
X167640000Y-80137000D02*
X166360001Y-81416999D01*
D20*
%TO.N,D1_BUF*%
X137160000Y-102870000D02*
X137160000Y-104001370D01*
X142240000Y-109220000D02*
X140970000Y-107950000D01*
D19*
X137160000Y-104140000D02*
X140970000Y-107950000D01*
D20*
X142240000Y-110490000D02*
X142240000Y-109220000D01*
D19*
X137160000Y-102870000D02*
X137160000Y-104140000D01*
X158750000Y-84622198D02*
X158750000Y-106045000D01*
X164515197Y-78857001D02*
X158750000Y-84622198D01*
X166379999Y-78857001D02*
X164515197Y-78857001D01*
X167640000Y-77597000D02*
X166379999Y-78857001D01*
%TO.N,D2_BUF*%
X144780000Y-107950000D02*
X144780000Y-110490000D01*
X144780000Y-107950000D02*
X139700000Y-102870000D01*
X164515197Y-76317001D02*
X157480000Y-83352198D01*
X167640000Y-75057000D02*
X166379999Y-76317001D01*
X166379999Y-76317001D02*
X164515197Y-76317001D01*
X157480000Y-83352198D02*
X157480000Y-107950000D01*
%TO.N,D3_BUF*%
X148590000Y-92710000D02*
X147320000Y-93980000D01*
X148590000Y-88265000D02*
X148590000Y-92710000D01*
X147320000Y-93980000D02*
X147320000Y-110490000D01*
X157479994Y-73660006D02*
X157479994Y-73660000D01*
X148590000Y-82550000D02*
X157479994Y-73660006D01*
X148590000Y-88265000D02*
X148590000Y-82550000D01*
D20*
%TO.N,D4_BUF*%
X139700000Y-93980000D02*
X139700000Y-87630000D01*
X149860000Y-110490000D02*
X149860000Y-89535000D01*
D19*
X159385000Y-73660000D02*
X159385000Y-71120000D01*
X149860000Y-83185000D02*
X159385000Y-73660000D01*
X149860000Y-89535000D02*
X149860000Y-83185000D01*
D20*
%TO.N,D5_BUF*%
X137160000Y-92710000D02*
X137160000Y-87630000D01*
X151130000Y-109220000D02*
X152400000Y-110490000D01*
X151130000Y-88265000D02*
X151130000Y-109220000D01*
D19*
X160655000Y-73660000D02*
X160655000Y-68580000D01*
X151130000Y-83185000D02*
X160655000Y-73660000D01*
X151130000Y-88265000D02*
X151130000Y-83185000D01*
D20*
%TO.N,D6_BUF*%
X134620000Y-91440000D02*
X134620000Y-87630000D01*
X152400000Y-107950000D02*
X154940000Y-110490000D01*
X152400000Y-86995000D02*
X152400000Y-107950000D01*
D19*
X161925000Y-73660000D02*
X161925000Y-66040000D01*
X152400000Y-83185000D02*
X161925000Y-73660000D01*
X152400000Y-86995000D02*
X152400000Y-83185000D01*
D20*
%TO.N,D7_BUF*%
X132080000Y-90170000D02*
X132080000Y-87630000D01*
X163195000Y-73660000D02*
X163195000Y-63500000D01*
D19*
X153670000Y-106680000D02*
X153670000Y-89535000D01*
X157480000Y-110490000D02*
X153670000Y-106680000D01*
D20*
X153670000Y-83185000D02*
X153670000Y-89535000D01*
X163195000Y-73660000D02*
X153670000Y-83185000D01*
%TO.N,~RESET*%
X166374999Y-61082001D02*
X167640000Y-59817000D01*
X166374999Y-73114203D02*
X166374999Y-61082001D01*
X165707201Y-73782001D02*
X166374999Y-73114203D01*
X164502797Y-73782001D02*
X165707201Y-73782001D01*
X156210000Y-82074798D02*
X164502797Y-73782001D01*
X156210000Y-104775000D02*
X156210000Y-82074798D01*
D19*
%TO.N,V20_JUMPER*%
X107900001Y-101550001D02*
X109220000Y-102870000D01*
X107900001Y-85040001D02*
X107900001Y-101550001D01*
X106680000Y-83820000D02*
X107900001Y-85040001D01*
%TO.N,~CE~_BIOS*%
X120650000Y-104140000D02*
X120650000Y-93980000D01*
X119380000Y-105410000D02*
X120650000Y-104140000D01*
X119380000Y-110490000D02*
X119380000Y-105410000D01*
X129540000Y-87630000D02*
X129540000Y-93979992D01*
X129540000Y-93979992D02*
X129539992Y-93980000D01*
%TO.N,ROM_ADDR_JUMPER*%
X110490000Y-106680000D02*
X110490000Y-108585000D01*
X109220000Y-109855000D02*
X109220000Y-110490000D01*
X113089999Y-104080001D02*
X110490000Y-106680000D01*
X110490000Y-108585000D02*
X109220000Y-109855000D01*
X113089999Y-85149999D02*
X113089999Y-104080001D01*
X111760000Y-83820000D02*
X113089999Y-85149999D01*
%TO.N,ATA_ADDR_JUMPER*%
X109220000Y-85090000D02*
X111760000Y-87630000D01*
X109220000Y-83820000D02*
X109220000Y-85090000D01*
X110490000Y-103505000D02*
X110490000Y-88900000D01*
X106680000Y-110490000D02*
X106504998Y-110314998D01*
X109220000Y-104775000D02*
X110490000Y-103505000D01*
X106504998Y-110314998D02*
X106504998Y-105585002D01*
X106504998Y-105585002D02*
X107315000Y-104775000D01*
X107315000Y-104775000D02*
X109220000Y-104775000D01*
X110490000Y-88900000D02*
X111760000Y-87630000D01*
%TD*%
D25*
%TO.N,GND*%
X162889212Y-124830188D02*
X162928649Y-124862553D01*
X166083001Y-128016906D01*
X166083000Y-130129707D01*
X166078539Y-130175000D01*
X166083000Y-130220292D01*
X166096341Y-130355743D01*
X166149062Y-130529540D01*
X166234676Y-130689713D01*
X166349893Y-130830107D01*
X166385080Y-130858984D01*
X169253000Y-133726905D01*
X169253000Y-133858000D01*
X168558977Y-133858000D01*
X168553587Y-133803276D01*
X168500580Y-133628536D01*
X168491389Y-133611341D01*
X168414502Y-133467494D01*
X168327688Y-133361712D01*
X168327684Y-133361708D01*
X168298659Y-133326341D01*
X168263293Y-133297317D01*
X167628287Y-132662312D01*
X167522505Y-132575499D01*
X167361463Y-132489420D01*
X167186723Y-132436414D01*
X167005000Y-132418516D01*
X166908707Y-132428000D01*
X166116905Y-132428000D01*
X155265904Y-121577000D01*
X159636025Y-121577000D01*
X162889212Y-124830188D01*
%TA.AperFunction,Conductor*%
D26*
G36*
X162889212Y-124830188D02*
G01*
X162928649Y-124862553D01*
X166083001Y-128016906D01*
X166083000Y-130129707D01*
X166078539Y-130175000D01*
X166083000Y-130220292D01*
X166096341Y-130355743D01*
X166149062Y-130529540D01*
X166234676Y-130689713D01*
X166349893Y-130830107D01*
X166385080Y-130858984D01*
X169253000Y-133726905D01*
X169253000Y-133858000D01*
X168558977Y-133858000D01*
X168553587Y-133803276D01*
X168500580Y-133628536D01*
X168491389Y-133611341D01*
X168414502Y-133467494D01*
X168327688Y-133361712D01*
X168327684Y-133361708D01*
X168298659Y-133326341D01*
X168263293Y-133297317D01*
X167628287Y-132662312D01*
X167522505Y-132575499D01*
X167361463Y-132489420D01*
X167186723Y-132436414D01*
X167005000Y-132418516D01*
X166908707Y-132428000D01*
X166116905Y-132428000D01*
X155265904Y-121577000D01*
X159636025Y-121577000D01*
X162889212Y-124830188D01*
G37*
%TD.AperFunction*%
D25*
X195421033Y-43081044D02*
X195512449Y-43108645D01*
X195596759Y-43153473D01*
X195670759Y-43213826D01*
X195731627Y-43287402D01*
X195777043Y-43371398D01*
X195805281Y-43462618D01*
X195819000Y-43593152D01*
X195819000Y-48427318D01*
X195464126Y-48072444D01*
X194808658Y-47634474D01*
X194080340Y-47332795D01*
X193307163Y-47179000D01*
X192518837Y-47179000D01*
X191745660Y-47332795D01*
X191017342Y-47634474D01*
X190361874Y-48072444D01*
X189804444Y-48629874D01*
X189366474Y-49285342D01*
X189064795Y-50013660D01*
X188911000Y-50786837D01*
X188911000Y-51575163D01*
X189064795Y-52348340D01*
X189366474Y-53076658D01*
X189804444Y-53732126D01*
X190361874Y-54289556D01*
X191017342Y-54727526D01*
X191745660Y-55029205D01*
X192518837Y-55183000D01*
X193307163Y-55183000D01*
X194080340Y-55029205D01*
X194808658Y-54727526D01*
X195464126Y-54289556D01*
X195819000Y-53934682D01*
X195819001Y-113959319D01*
X195464126Y-113604444D01*
X194808658Y-113166474D01*
X194080340Y-112864795D01*
X193307163Y-112711000D01*
X192518837Y-112711000D01*
X191745660Y-112864795D01*
X191017342Y-113166474D01*
X190361874Y-113604444D01*
X189804444Y-114161874D01*
X189366474Y-114817342D01*
X189064795Y-115545660D01*
X188911000Y-116318837D01*
X188911000Y-117107163D01*
X189064795Y-117880340D01*
X189366474Y-118608658D01*
X189804444Y-119264126D01*
X190361874Y-119821556D01*
X191017342Y-120259526D01*
X191745660Y-120561205D01*
X192518837Y-120715000D01*
X193307163Y-120715000D01*
X194080340Y-120561205D01*
X194808658Y-120259526D01*
X195464126Y-119821556D01*
X195819001Y-119466681D01*
X195819001Y-133311985D01*
X195805956Y-133445033D01*
X195778355Y-133536449D01*
X195733527Y-133620759D01*
X195673174Y-133694759D01*
X195599595Y-133755629D01*
X195515605Y-133801042D01*
X195424382Y-133829281D01*
X195293848Y-133843000D01*
X177711166Y-133843000D01*
X177673000Y-133839241D01*
X177634834Y-133843000D01*
X177520681Y-133854243D01*
X177508296Y-133858000D01*
X173647000Y-133858000D01*
X173647000Y-133726904D01*
X173974926Y-133398979D01*
X174010107Y-133370107D01*
X174125324Y-133229714D01*
X174210938Y-133069541D01*
X174263659Y-132895744D01*
X174277000Y-132760293D01*
X174277000Y-132760292D01*
X174281461Y-132715000D01*
X174277000Y-132669707D01*
X174277000Y-130220292D01*
X174281461Y-130175000D01*
X174263659Y-129994256D01*
X174210938Y-129820458D01*
X174125324Y-129660286D01*
X174058373Y-129578706D01*
X174010107Y-129519893D01*
X173974925Y-129491020D01*
X172133984Y-127650080D01*
X172105107Y-127614893D01*
X171964714Y-127499676D01*
X171804541Y-127414062D01*
X171630744Y-127361341D01*
X171495293Y-127348000D01*
X171495292Y-127348000D01*
X171450000Y-127343539D01*
X171404708Y-127348000D01*
X169291905Y-127348000D01*
X167461664Y-125517759D01*
X167550677Y-125480889D01*
X167739357Y-125354817D01*
X167899817Y-125194357D01*
X168025889Y-125005677D01*
X168112729Y-124796026D01*
X168157000Y-124573462D01*
X168157000Y-124346538D01*
X168146749Y-124295000D01*
X173069362Y-124295000D01*
X173069362Y-125895000D01*
X173083881Y-126042418D01*
X173126882Y-126184170D01*
X173196710Y-126314810D01*
X173290683Y-126429317D01*
X173405190Y-126523290D01*
X173535830Y-126593118D01*
X173677582Y-126636119D01*
X173825000Y-126650638D01*
X175425000Y-126650638D01*
X175572418Y-126636119D01*
X175714170Y-126593118D01*
X175844810Y-126523290D01*
X175959317Y-126429317D01*
X176053290Y-126314810D01*
X176086959Y-126251818D01*
X176135658Y-126300517D01*
X176389853Y-126470364D01*
X176672298Y-126587357D01*
X176972141Y-126647000D01*
X177277859Y-126647000D01*
X177577702Y-126587357D01*
X177860147Y-126470364D01*
X178114342Y-126300517D01*
X178330517Y-126084342D01*
X178500364Y-125830147D01*
X178617357Y-125547702D01*
X178677000Y-125247859D01*
X178677000Y-124942141D01*
X178617357Y-124642298D01*
X178500364Y-124359853D01*
X178330517Y-124105658D01*
X178114342Y-123889483D01*
X177860147Y-123719636D01*
X177577702Y-123602643D01*
X177277859Y-123543000D01*
X176972141Y-123543000D01*
X176672298Y-123602643D01*
X176389853Y-123719636D01*
X176135658Y-123889483D01*
X176086959Y-123938182D01*
X176053290Y-123875190D01*
X175959317Y-123760683D01*
X175844810Y-123666710D01*
X175714170Y-123596882D01*
X175572418Y-123553881D01*
X175425000Y-123539362D01*
X173825000Y-123539362D01*
X173677582Y-123553881D01*
X173535830Y-123596882D01*
X173405190Y-123666710D01*
X173290683Y-123760683D01*
X173196710Y-123875190D01*
X173126882Y-124005830D01*
X173083881Y-124147582D01*
X173069362Y-124295000D01*
X168146749Y-124295000D01*
X168112729Y-124123974D01*
X168025889Y-123914323D01*
X167899817Y-123725643D01*
X167739357Y-123565183D01*
X167550677Y-123439111D01*
X167341026Y-123352271D01*
X167118462Y-123308000D01*
X166891538Y-123308000D01*
X166668974Y-123352271D01*
X166596285Y-123382380D01*
X161111664Y-117897759D01*
X161200677Y-117860889D01*
X161389357Y-117734817D01*
X161549817Y-117574357D01*
X161675889Y-117385677D01*
X161762729Y-117176026D01*
X161807000Y-116953462D01*
X161807000Y-116726538D01*
X161762729Y-116503974D01*
X161686043Y-116318837D01*
X162368000Y-116318837D01*
X162368000Y-117107163D01*
X162521795Y-117880340D01*
X162823474Y-118608658D01*
X163261444Y-119264126D01*
X163818874Y-119821556D01*
X164474342Y-120259526D01*
X165202660Y-120561205D01*
X165975837Y-120715000D01*
X166764163Y-120715000D01*
X167537340Y-120561205D01*
X168265658Y-120259526D01*
X168921126Y-119821556D01*
X169478556Y-119264126D01*
X169916526Y-118608658D01*
X170218205Y-117880340D01*
X170372000Y-117107163D01*
X170372000Y-116318837D01*
X170218205Y-115545660D01*
X169916526Y-114817342D01*
X169478556Y-114161874D01*
X168921126Y-113604444D01*
X168265658Y-113166474D01*
X167537340Y-112864795D01*
X166764163Y-112711000D01*
X165975837Y-112711000D01*
X165202660Y-112864795D01*
X164474342Y-113166474D01*
X163818874Y-113604444D01*
X163261444Y-114161874D01*
X162823474Y-114817342D01*
X162521795Y-115545660D01*
X162368000Y-116318837D01*
X161686043Y-116318837D01*
X161675889Y-116294323D01*
X161577000Y-116146325D01*
X161577000Y-111506904D01*
X163179926Y-109903979D01*
X163215107Y-109875107D01*
X163330324Y-109734714D01*
X163338362Y-109719676D01*
X163415938Y-109574542D01*
X163468659Y-109400744D01*
X163478882Y-109296948D01*
X163482000Y-109265293D01*
X163482000Y-109265292D01*
X163486461Y-109220000D01*
X163482000Y-109174708D01*
X163482000Y-93726904D01*
X163660628Y-93548276D01*
X163680326Y-93595831D01*
X163855646Y-93858215D01*
X164078785Y-94081354D01*
X164117167Y-94107000D01*
X164078785Y-94132646D01*
X163855646Y-94355785D01*
X163680326Y-94618169D01*
X163559564Y-94909714D01*
X163498000Y-95219217D01*
X163498000Y-95534783D01*
X163559564Y-95844286D01*
X163680326Y-96135831D01*
X163855646Y-96398215D01*
X164078785Y-96621354D01*
X164117167Y-96647000D01*
X164078785Y-96672646D01*
X163855646Y-96895785D01*
X163680326Y-97158169D01*
X163559564Y-97449714D01*
X163498000Y-97759217D01*
X163498000Y-98074783D01*
X163559564Y-98384286D01*
X163680326Y-98675831D01*
X163855646Y-98938215D01*
X164078785Y-99161354D01*
X164117167Y-99187000D01*
X164078785Y-99212646D01*
X163855646Y-99435785D01*
X163680326Y-99698169D01*
X163559564Y-99989714D01*
X163498000Y-100299217D01*
X163498000Y-100614783D01*
X163559564Y-100924286D01*
X163680326Y-101215831D01*
X163855646Y-101478215D01*
X164078785Y-101701354D01*
X164117167Y-101727000D01*
X164078785Y-101752646D01*
X163855646Y-101975785D01*
X163680326Y-102238169D01*
X163559564Y-102529714D01*
X163498000Y-102839217D01*
X163498000Y-103154783D01*
X163559564Y-103464286D01*
X163680326Y-103755831D01*
X163855646Y-104018215D01*
X164078785Y-104241354D01*
X164117167Y-104267000D01*
X164078785Y-104292646D01*
X163855646Y-104515785D01*
X163680326Y-104778169D01*
X163559564Y-105069714D01*
X163498000Y-105379217D01*
X163498000Y-105694783D01*
X163559564Y-106004286D01*
X163680326Y-106295831D01*
X163855646Y-106558215D01*
X164078785Y-106781354D01*
X164117167Y-106807000D01*
X164078785Y-106832646D01*
X163855646Y-107055785D01*
X163680326Y-107318169D01*
X163559564Y-107609714D01*
X163498000Y-107919217D01*
X163498000Y-108234783D01*
X163559564Y-108544286D01*
X163680326Y-108835831D01*
X163855646Y-109098215D01*
X164078785Y-109321354D01*
X164341169Y-109496674D01*
X164632714Y-109617436D01*
X164942217Y-109679000D01*
X165257783Y-109679000D01*
X165567286Y-109617436D01*
X165858831Y-109496674D01*
X166121215Y-109321354D01*
X166344354Y-109098215D01*
X166370000Y-109059833D01*
X166395646Y-109098215D01*
X166618785Y-109321354D01*
X166881169Y-109496674D01*
X167172714Y-109617436D01*
X167482217Y-109679000D01*
X167797783Y-109679000D01*
X168107286Y-109617436D01*
X168398831Y-109496674D01*
X168661215Y-109321354D01*
X168884354Y-109098215D01*
X169059674Y-108835831D01*
X169180436Y-108544286D01*
X169242000Y-108234783D01*
X169242000Y-107919217D01*
X169180436Y-107609714D01*
X169059674Y-107318169D01*
X168884354Y-107055785D01*
X168661215Y-106832646D01*
X168622833Y-106807000D01*
X168661215Y-106781354D01*
X168884354Y-106558215D01*
X169059674Y-106295831D01*
X169180436Y-106004286D01*
X169242000Y-105694783D01*
X169242000Y-105379217D01*
X169180436Y-105069714D01*
X169059674Y-104778169D01*
X169052598Y-104767579D01*
X169660293Y-104159885D01*
X169695659Y-104130861D01*
X169724684Y-104095494D01*
X169724688Y-104095490D01*
X169811502Y-103989708D01*
X169897580Y-103828666D01*
X169906415Y-103799541D01*
X169950587Y-103653926D01*
X169964000Y-103517740D01*
X169964000Y-103517729D01*
X169968484Y-103472202D01*
X169964000Y-103426675D01*
X169964000Y-96299000D01*
X172238001Y-96299000D01*
X172238000Y-117384298D01*
X170907008Y-118715290D01*
X170840155Y-118770155D01*
X170621217Y-119036931D01*
X170458531Y-119341295D01*
X170358350Y-119671548D01*
X170324523Y-120015000D01*
X170358350Y-120358452D01*
X170458531Y-120688705D01*
X170621217Y-120993069D01*
X170840155Y-121259845D01*
X171106931Y-121478783D01*
X171411295Y-121641469D01*
X171741548Y-121741650D01*
X171998931Y-121767000D01*
X171998939Y-121767000D01*
X172085000Y-121775476D01*
X172171061Y-121767000D01*
X173903931Y-121767000D01*
X173990000Y-121775477D01*
X174076068Y-121767000D01*
X174076069Y-121767000D01*
X174333452Y-121741650D01*
X174663705Y-121641469D01*
X174968069Y-121478783D01*
X175234845Y-121259845D01*
X175453783Y-120993069D01*
X175616469Y-120688705D01*
X175716650Y-120358452D01*
X175739302Y-120128462D01*
X175742000Y-120101069D01*
X175742000Y-120101068D01*
X175750477Y-120015000D01*
X175742000Y-119928931D01*
X175742000Y-118196061D01*
X175750476Y-118110000D01*
X175742000Y-118023939D01*
X175742000Y-62778931D01*
X175716650Y-62521548D01*
X175616469Y-62191295D01*
X175453783Y-61886931D01*
X175333000Y-61739757D01*
X175333000Y-61406729D01*
X175470170Y-61365118D01*
X175600810Y-61295290D01*
X175715317Y-61201317D01*
X175809290Y-61086810D01*
X175832262Y-61043831D01*
X175849785Y-61061354D01*
X176112169Y-61236674D01*
X176403714Y-61357436D01*
X176713217Y-61419000D01*
X177028783Y-61419000D01*
X177338286Y-61357436D01*
X177629831Y-61236674D01*
X177892215Y-61061354D01*
X178115354Y-60838215D01*
X178290674Y-60575831D01*
X178411436Y-60284286D01*
X178473000Y-59974783D01*
X178473000Y-59659217D01*
X178411436Y-59349714D01*
X178290674Y-59058169D01*
X178115354Y-58795785D01*
X177892215Y-58572646D01*
X177629831Y-58397326D01*
X177338286Y-58276564D01*
X177028783Y-58215000D01*
X176713217Y-58215000D01*
X176403714Y-58276564D01*
X176112169Y-58397326D01*
X175849785Y-58572646D01*
X175832262Y-58590169D01*
X175809290Y-58547190D01*
X175715317Y-58432683D01*
X175600810Y-58338710D01*
X175470170Y-58268882D01*
X175333000Y-58227271D01*
X175333000Y-58175223D01*
X175337848Y-58126000D01*
X175318502Y-57929573D01*
X175289854Y-57835135D01*
X175261206Y-57740696D01*
X175168164Y-57566625D01*
X175042949Y-57414051D01*
X175004709Y-57382668D01*
X174733332Y-57111291D01*
X174701949Y-57073051D01*
X174549375Y-56947836D01*
X174375304Y-56854794D01*
X174186426Y-56797498D01*
X174039223Y-56783000D01*
X174039216Y-56783000D01*
X173990000Y-56778153D01*
X173940784Y-56783000D01*
X172769223Y-56783000D01*
X172720000Y-56778152D01*
X172523573Y-56797498D01*
X172334696Y-56854794D01*
X172160625Y-56947836D01*
X172008051Y-57073051D01*
X171976668Y-57111291D01*
X171411286Y-57676673D01*
X171373052Y-57708051D01*
X171341674Y-57746285D01*
X171247837Y-57860625D01*
X171154794Y-58034697D01*
X171097498Y-58223574D01*
X171089759Y-58302152D01*
X171083000Y-58370777D01*
X171083000Y-58370784D01*
X171078153Y-58420000D01*
X171083000Y-58469216D01*
X171083000Y-59259784D01*
X171078153Y-59309000D01*
X171083000Y-59358217D01*
X171083001Y-60275768D01*
X171083000Y-60275777D01*
X171083000Y-60275784D01*
X171078153Y-60325000D01*
X171083000Y-60374216D01*
X171083000Y-60910784D01*
X171078153Y-60960000D01*
X171083000Y-61009216D01*
X171083000Y-61545784D01*
X171078153Y-61595000D01*
X171083000Y-61644216D01*
X171083000Y-61644223D01*
X171092498Y-61740660D01*
X171097498Y-61791426D01*
X171154794Y-61980303D01*
X171172530Y-62013485D01*
X171247837Y-62154375D01*
X171373052Y-62306949D01*
X171411286Y-62338327D01*
X172238001Y-63165042D01*
X172238000Y-94455000D01*
X169133304Y-94455000D01*
X169037000Y-94445515D01*
X168950033Y-94454080D01*
X168884354Y-94355785D01*
X168661215Y-94132646D01*
X168622833Y-94107000D01*
X168661215Y-94081354D01*
X168884354Y-93858215D01*
X169059674Y-93595831D01*
X169180436Y-93304286D01*
X169242000Y-92994783D01*
X169242000Y-92679217D01*
X169180436Y-92369714D01*
X169059674Y-92078169D01*
X168884354Y-91815785D01*
X168661215Y-91592646D01*
X168622833Y-91567000D01*
X168661215Y-91541354D01*
X168884354Y-91318215D01*
X169059674Y-91055831D01*
X169180436Y-90764286D01*
X169242000Y-90454783D01*
X169242000Y-90139217D01*
X169180436Y-89829714D01*
X169059674Y-89538169D01*
X168884354Y-89275785D01*
X168661215Y-89052646D01*
X168622833Y-89027000D01*
X168661215Y-89001354D01*
X168884354Y-88778215D01*
X169059674Y-88515831D01*
X169180436Y-88224286D01*
X169242000Y-87914783D01*
X169242000Y-87599217D01*
X169180436Y-87289714D01*
X169059674Y-86998169D01*
X168884354Y-86735785D01*
X168661215Y-86512646D01*
X168622833Y-86487000D01*
X168661215Y-86461354D01*
X168884354Y-86238215D01*
X169059674Y-85975831D01*
X169180436Y-85684286D01*
X169242000Y-85374783D01*
X169242000Y-85059217D01*
X169180436Y-84749714D01*
X169059674Y-84458169D01*
X168884354Y-84195785D01*
X168661215Y-83972646D01*
X168622833Y-83947000D01*
X168661215Y-83921354D01*
X168884354Y-83698215D01*
X169059674Y-83435831D01*
X169180436Y-83144286D01*
X169242000Y-82834783D01*
X169242000Y-82519217D01*
X169180436Y-82209714D01*
X169059674Y-81918169D01*
X168884354Y-81655785D01*
X168661215Y-81432646D01*
X168622833Y-81407000D01*
X168661215Y-81381354D01*
X168884354Y-81158215D01*
X169059674Y-80895831D01*
X169180436Y-80604286D01*
X169242000Y-80294783D01*
X169242000Y-79979217D01*
X169180436Y-79669714D01*
X169059674Y-79378169D01*
X168884354Y-79115785D01*
X168661215Y-78892646D01*
X168622833Y-78867000D01*
X168661215Y-78841354D01*
X168884354Y-78618215D01*
X169059674Y-78355831D01*
X169180436Y-78064286D01*
X169242000Y-77754783D01*
X169242000Y-77439217D01*
X169180436Y-77129714D01*
X169059674Y-76838169D01*
X168884354Y-76575785D01*
X168661215Y-76352646D01*
X168622833Y-76327000D01*
X168661215Y-76301354D01*
X168884354Y-76078215D01*
X169059674Y-75815831D01*
X169180436Y-75524286D01*
X169242000Y-75214783D01*
X169242000Y-74899217D01*
X169180436Y-74589714D01*
X169059674Y-74298169D01*
X168884354Y-74035785D01*
X168661215Y-73812646D01*
X168622833Y-73787000D01*
X168661215Y-73761354D01*
X168884354Y-73538215D01*
X169059674Y-73275831D01*
X169180436Y-72984286D01*
X169242000Y-72674783D01*
X169242000Y-72359217D01*
X169180436Y-72049714D01*
X169059674Y-71758169D01*
X168884354Y-71495785D01*
X168661215Y-71272646D01*
X168622833Y-71247000D01*
X168661215Y-71221354D01*
X168884354Y-70998215D01*
X169059674Y-70735831D01*
X169180436Y-70444286D01*
X169242000Y-70134783D01*
X169242000Y-69819217D01*
X169180436Y-69509714D01*
X169059674Y-69218169D01*
X168884354Y-68955785D01*
X168661215Y-68732646D01*
X168622833Y-68707000D01*
X168661215Y-68681354D01*
X168884354Y-68458215D01*
X169059674Y-68195831D01*
X169180436Y-67904286D01*
X169242000Y-67594783D01*
X169242000Y-67279217D01*
X169180436Y-66969714D01*
X169059674Y-66678169D01*
X168884354Y-66415785D01*
X168661215Y-66192646D01*
X168622833Y-66167000D01*
X168661215Y-66141354D01*
X168884354Y-65918215D01*
X169059674Y-65655831D01*
X169180436Y-65364286D01*
X169242000Y-65054783D01*
X169242000Y-64739217D01*
X169180436Y-64429714D01*
X169059674Y-64138169D01*
X168884354Y-63875785D01*
X168661215Y-63652646D01*
X168622833Y-63627000D01*
X168661215Y-63601354D01*
X168884354Y-63378215D01*
X169059674Y-63115831D01*
X169180436Y-62824286D01*
X169242000Y-62514783D01*
X169242000Y-62199217D01*
X169180436Y-61889714D01*
X169059674Y-61598169D01*
X168884354Y-61335785D01*
X168866831Y-61318262D01*
X168909810Y-61295290D01*
X169024317Y-61201317D01*
X169118290Y-61086810D01*
X169188118Y-60956170D01*
X169231119Y-60814418D01*
X169245638Y-60667000D01*
X169245638Y-58967000D01*
X169231119Y-58819582D01*
X169188118Y-58677830D01*
X169118290Y-58547190D01*
X169024317Y-58432683D01*
X168909810Y-58338710D01*
X168779170Y-58268882D01*
X168637418Y-58225881D01*
X168490000Y-58211362D01*
X166790000Y-58211362D01*
X166642582Y-58225881D01*
X166500830Y-58268882D01*
X166370190Y-58338710D01*
X166255683Y-58432683D01*
X166161710Y-58547190D01*
X166138738Y-58590169D01*
X166121215Y-58572646D01*
X165858831Y-58397326D01*
X165567286Y-58276564D01*
X165257783Y-58215000D01*
X164942217Y-58215000D01*
X164632714Y-58276564D01*
X164341169Y-58397326D01*
X164078785Y-58572646D01*
X163855646Y-58795785D01*
X163680326Y-59058169D01*
X163559564Y-59349714D01*
X163498000Y-59659217D01*
X163498000Y-59974783D01*
X163559564Y-60284286D01*
X163680326Y-60575831D01*
X163855646Y-60838215D01*
X164078785Y-61061354D01*
X164117167Y-61087000D01*
X164078785Y-61112646D01*
X163855646Y-61335785D01*
X163680326Y-61598169D01*
X163559564Y-61889714D01*
X163498000Y-62199217D01*
X163498000Y-62385702D01*
X163308462Y-62348000D01*
X163081538Y-62348000D01*
X162858974Y-62392271D01*
X162649323Y-62479111D01*
X162460643Y-62605183D01*
X162300183Y-62765643D01*
X162174111Y-62954323D01*
X162087271Y-63163974D01*
X162043000Y-63386538D01*
X162043000Y-63613462D01*
X162087271Y-63836026D01*
X162174111Y-64045677D01*
X162268001Y-64186193D01*
X162268001Y-64935160D01*
X162261026Y-64932271D01*
X162038462Y-64888000D01*
X161811538Y-64888000D01*
X161588974Y-64932271D01*
X161379323Y-65019111D01*
X161190643Y-65145183D01*
X161030183Y-65305643D01*
X160904111Y-65494323D01*
X160817271Y-65703974D01*
X160773000Y-65926538D01*
X160773000Y-66153462D01*
X160817271Y-66376026D01*
X160904111Y-66585677D01*
X161003001Y-66733676D01*
X161003001Y-67477231D01*
X160991026Y-67472271D01*
X160768462Y-67428000D01*
X160541538Y-67428000D01*
X160318974Y-67472271D01*
X160109323Y-67559111D01*
X159920643Y-67685183D01*
X159760183Y-67845643D01*
X159634111Y-68034323D01*
X159547271Y-68243974D01*
X159503000Y-68466538D01*
X159503000Y-68693462D01*
X159547271Y-68916026D01*
X159634111Y-69125677D01*
X159733001Y-69273676D01*
X159733001Y-70017231D01*
X159721026Y-70012271D01*
X159498462Y-69968000D01*
X159271538Y-69968000D01*
X159048974Y-70012271D01*
X158839323Y-70099111D01*
X158650643Y-70225183D01*
X158490183Y-70385643D01*
X158364111Y-70574323D01*
X158277271Y-70783974D01*
X158233000Y-71006538D01*
X158233000Y-71233462D01*
X158277271Y-71456026D01*
X158364111Y-71665677D01*
X158463001Y-71813676D01*
X158463000Y-73057627D01*
X158374811Y-72925643D01*
X158214351Y-72765183D01*
X158025671Y-72639111D01*
X157816020Y-72552271D01*
X157593456Y-72508000D01*
X157366532Y-72508000D01*
X157143968Y-72552271D01*
X156934317Y-72639111D01*
X156745637Y-72765183D01*
X156585177Y-72925643D01*
X156459105Y-73114323D01*
X156372265Y-73323974D01*
X156337538Y-73498557D01*
X147970076Y-81866020D01*
X147934894Y-81894893D01*
X147906021Y-81930075D01*
X147819676Y-82035287D01*
X147734063Y-82195459D01*
X147681341Y-82369257D01*
X147663539Y-82550000D01*
X147668001Y-82595302D01*
X147668000Y-87571325D01*
X147569111Y-87719323D01*
X147482271Y-87928974D01*
X147438000Y-88151538D01*
X147438000Y-88378462D01*
X147482271Y-88601026D01*
X147569111Y-88810677D01*
X147668000Y-88958675D01*
X147668001Y-92328094D01*
X146700080Y-93296016D01*
X146664893Y-93324893D01*
X146549676Y-93465287D01*
X146464062Y-93625460D01*
X146423534Y-93759062D01*
X146411341Y-93799257D01*
X146393539Y-93980000D01*
X146398000Y-94025292D01*
X146398000Y-101279096D01*
X144828984Y-99710080D01*
X144800107Y-99674893D01*
X144659714Y-99559676D01*
X144499541Y-99474062D01*
X144325744Y-99421341D01*
X144190293Y-99408000D01*
X144190292Y-99408000D01*
X144145000Y-99403539D01*
X144099708Y-99408000D01*
X138811905Y-99408000D01*
X135303984Y-95900080D01*
X135275107Y-95864893D01*
X135134714Y-95749676D01*
X134974541Y-95664062D01*
X134800744Y-95611341D01*
X134665293Y-95598000D01*
X134665292Y-95598000D01*
X134620000Y-95593539D01*
X134574708Y-95598000D01*
X129286905Y-95598000D01*
X127922000Y-94233096D01*
X127922000Y-88880513D01*
X127989342Y-88835517D01*
X128205517Y-88619342D01*
X128270000Y-88522836D01*
X128334483Y-88619342D01*
X128550658Y-88835517D01*
X128618000Y-88880513D01*
X128618001Y-93286312D01*
X128519103Y-93434323D01*
X128432263Y-93643974D01*
X128387992Y-93866538D01*
X128387992Y-94093462D01*
X128432263Y-94316026D01*
X128519103Y-94525677D01*
X128645175Y-94714357D01*
X128805635Y-94874817D01*
X128994315Y-95000889D01*
X129203966Y-95087729D01*
X129426530Y-95132000D01*
X129653454Y-95132000D01*
X129876018Y-95087729D01*
X130085669Y-95000889D01*
X130274349Y-94874817D01*
X130434809Y-94714357D01*
X130560881Y-94525677D01*
X130647721Y-94316026D01*
X130691992Y-94093462D01*
X130691992Y-93866538D01*
X130647721Y-93643974D01*
X130560881Y-93434323D01*
X130462000Y-93286337D01*
X130462000Y-88880513D01*
X130529342Y-88835517D01*
X130745517Y-88619342D01*
X130810000Y-88522836D01*
X130874483Y-88619342D01*
X131090658Y-88835517D01*
X131153001Y-88877173D01*
X131153000Y-89483808D01*
X131059111Y-89624323D01*
X130972271Y-89833974D01*
X130928000Y-90056538D01*
X130928000Y-90283462D01*
X130972271Y-90506026D01*
X131059111Y-90715677D01*
X131185183Y-90904357D01*
X131345643Y-91064817D01*
X131534323Y-91190889D01*
X131743974Y-91277729D01*
X131966538Y-91322000D01*
X132193462Y-91322000D01*
X132416026Y-91277729D01*
X132625677Y-91190889D01*
X132814357Y-91064817D01*
X132974817Y-90904357D01*
X133100889Y-90715677D01*
X133187729Y-90506026D01*
X133232000Y-90283462D01*
X133232000Y-90056538D01*
X133187729Y-89833974D01*
X133100889Y-89624323D01*
X133007000Y-89483808D01*
X133007000Y-88877172D01*
X133069342Y-88835517D01*
X133285517Y-88619342D01*
X133350000Y-88522836D01*
X133414483Y-88619342D01*
X133630658Y-88835517D01*
X133693001Y-88877173D01*
X133693000Y-90753808D01*
X133599111Y-90894323D01*
X133512271Y-91103974D01*
X133468000Y-91326538D01*
X133468000Y-91553462D01*
X133512271Y-91776026D01*
X133599111Y-91985677D01*
X133725183Y-92174357D01*
X133885643Y-92334817D01*
X134074323Y-92460889D01*
X134283974Y-92547729D01*
X134506538Y-92592000D01*
X134733462Y-92592000D01*
X134956026Y-92547729D01*
X135165677Y-92460889D01*
X135354357Y-92334817D01*
X135514817Y-92174357D01*
X135640889Y-91985677D01*
X135727729Y-91776026D01*
X135772000Y-91553462D01*
X135772000Y-91326538D01*
X135727729Y-91103974D01*
X135640889Y-90894323D01*
X135547000Y-90753808D01*
X135547000Y-88877172D01*
X135609342Y-88835517D01*
X135825517Y-88619342D01*
X135890000Y-88522836D01*
X135954483Y-88619342D01*
X136170658Y-88835517D01*
X136233001Y-88877173D01*
X136233000Y-92023808D01*
X136139111Y-92164323D01*
X136052271Y-92373974D01*
X136008000Y-92596538D01*
X136008000Y-92823462D01*
X136052271Y-93046026D01*
X136139111Y-93255677D01*
X136265183Y-93444357D01*
X136425643Y-93604817D01*
X136614323Y-93730889D01*
X136823974Y-93817729D01*
X137046538Y-93862000D01*
X137273462Y-93862000D01*
X137496026Y-93817729D01*
X137705677Y-93730889D01*
X137894357Y-93604817D01*
X138054817Y-93444357D01*
X138180889Y-93255677D01*
X138267729Y-93046026D01*
X138312000Y-92823462D01*
X138312000Y-92596538D01*
X138267729Y-92373974D01*
X138180889Y-92164323D01*
X138087000Y-92023808D01*
X138087000Y-88877172D01*
X138149342Y-88835517D01*
X138365517Y-88619342D01*
X138430000Y-88522836D01*
X138494483Y-88619342D01*
X138710658Y-88835517D01*
X138773001Y-88877173D01*
X138773000Y-93293808D01*
X138679111Y-93434323D01*
X138592271Y-93643974D01*
X138548000Y-93866538D01*
X138548000Y-94093462D01*
X138592271Y-94316026D01*
X138679111Y-94525677D01*
X138805183Y-94714357D01*
X138965643Y-94874817D01*
X139154323Y-95000889D01*
X139363974Y-95087729D01*
X139586538Y-95132000D01*
X139813462Y-95132000D01*
X140036026Y-95087729D01*
X140245677Y-95000889D01*
X140434357Y-94874817D01*
X140594817Y-94714357D01*
X140720889Y-94525677D01*
X140807729Y-94316026D01*
X140852000Y-94093462D01*
X140852000Y-93866538D01*
X140807729Y-93643974D01*
X140720889Y-93434323D01*
X140627000Y-93293808D01*
X140627000Y-88877172D01*
X140689342Y-88835517D01*
X140905517Y-88619342D01*
X140970000Y-88522836D01*
X141034483Y-88619342D01*
X141250658Y-88835517D01*
X141504853Y-89005364D01*
X141787298Y-89122357D01*
X142087141Y-89182000D01*
X142392859Y-89182000D01*
X142692702Y-89122357D01*
X142975147Y-89005364D01*
X143229342Y-88835517D01*
X143445517Y-88619342D01*
X143615364Y-88365147D01*
X143732357Y-88082702D01*
X143792000Y-87782859D01*
X143792000Y-87477141D01*
X143732357Y-87177298D01*
X143615364Y-86894853D01*
X143445517Y-86640658D01*
X143229342Y-86424483D01*
X142975147Y-86254636D01*
X142692702Y-86137643D01*
X142392859Y-86078000D01*
X142087141Y-86078000D01*
X141787298Y-86137643D01*
X141504853Y-86254636D01*
X141250658Y-86424483D01*
X141034483Y-86640658D01*
X140970000Y-86737164D01*
X140905517Y-86640658D01*
X140689342Y-86424483D01*
X140435147Y-86254636D01*
X140152702Y-86137643D01*
X139852859Y-86078000D01*
X139547141Y-86078000D01*
X139247298Y-86137643D01*
X138964853Y-86254636D01*
X138710658Y-86424483D01*
X138494483Y-86640658D01*
X138430000Y-86737164D01*
X138365517Y-86640658D01*
X138149342Y-86424483D01*
X137895147Y-86254636D01*
X137612702Y-86137643D01*
X137312859Y-86078000D01*
X137007141Y-86078000D01*
X136707298Y-86137643D01*
X136424853Y-86254636D01*
X136170658Y-86424483D01*
X135954483Y-86640658D01*
X135890000Y-86737164D01*
X135825517Y-86640658D01*
X135609342Y-86424483D01*
X135355147Y-86254636D01*
X135072702Y-86137643D01*
X134772859Y-86078000D01*
X134467141Y-86078000D01*
X134167298Y-86137643D01*
X133884853Y-86254636D01*
X133630658Y-86424483D01*
X133414483Y-86640658D01*
X133350000Y-86737164D01*
X133285517Y-86640658D01*
X133069342Y-86424483D01*
X132815147Y-86254636D01*
X132532702Y-86137643D01*
X132232859Y-86078000D01*
X131927141Y-86078000D01*
X131627298Y-86137643D01*
X131344853Y-86254636D01*
X131090658Y-86424483D01*
X130874483Y-86640658D01*
X130810000Y-86737164D01*
X130745517Y-86640658D01*
X130529342Y-86424483D01*
X130275147Y-86254636D01*
X129992702Y-86137643D01*
X129692859Y-86078000D01*
X129387141Y-86078000D01*
X129087298Y-86137643D01*
X128804853Y-86254636D01*
X128550658Y-86424483D01*
X128334483Y-86640658D01*
X128270000Y-86737164D01*
X128205517Y-86640658D01*
X127989342Y-86424483D01*
X127735147Y-86254636D01*
X127452702Y-86137643D01*
X127152859Y-86078000D01*
X126847141Y-86078000D01*
X126547298Y-86137643D01*
X126264853Y-86254636D01*
X126010658Y-86424483D01*
X125794483Y-86640658D01*
X125730000Y-86737164D01*
X125665517Y-86640658D01*
X125449342Y-86424483D01*
X125195147Y-86254636D01*
X124912702Y-86137643D01*
X124612859Y-86078000D01*
X124307141Y-86078000D01*
X124007298Y-86137643D01*
X123724853Y-86254636D01*
X123470658Y-86424483D01*
X123254483Y-86640658D01*
X123190000Y-86737164D01*
X123125517Y-86640658D01*
X122909342Y-86424483D01*
X122655147Y-86254636D01*
X122372702Y-86137643D01*
X122072859Y-86078000D01*
X121767141Y-86078000D01*
X121467298Y-86137643D01*
X121184853Y-86254636D01*
X120930658Y-86424483D01*
X120714483Y-86640658D01*
X120650000Y-86737164D01*
X120585517Y-86640658D01*
X120369342Y-86424483D01*
X120115147Y-86254636D01*
X119832702Y-86137643D01*
X119532859Y-86078000D01*
X119227141Y-86078000D01*
X118927298Y-86137643D01*
X118644853Y-86254636D01*
X118390658Y-86424483D01*
X118174483Y-86640658D01*
X118110000Y-86737164D01*
X118045517Y-86640658D01*
X117829342Y-86424483D01*
X117575147Y-86254636D01*
X117292702Y-86137643D01*
X116992859Y-86078000D01*
X116687141Y-86078000D01*
X116387298Y-86137643D01*
X116104853Y-86254636D01*
X115850658Y-86424483D01*
X115634483Y-86640658D01*
X115570000Y-86737164D01*
X115505517Y-86640658D01*
X115289342Y-86424483D01*
X115035147Y-86254636D01*
X114752702Y-86137643D01*
X114452859Y-86078000D01*
X114147141Y-86078000D01*
X114011999Y-86104882D01*
X114011999Y-85375638D01*
X115100000Y-85375638D01*
X115247418Y-85361119D01*
X115389170Y-85318118D01*
X115519810Y-85248290D01*
X115634317Y-85154317D01*
X115728290Y-85039810D01*
X115798118Y-84909170D01*
X115841119Y-84767418D01*
X115855638Y-84620000D01*
X115855638Y-83020000D01*
X115841119Y-82872582D01*
X115798118Y-82730830D01*
X115728290Y-82600190D01*
X115634317Y-82485683D01*
X115519810Y-82391710D01*
X115389170Y-82321882D01*
X115247418Y-82278881D01*
X115100000Y-82264362D01*
X113500000Y-82264362D01*
X113352582Y-82278881D01*
X113210830Y-82321882D01*
X113080190Y-82391710D01*
X112965683Y-82485683D01*
X112871710Y-82600190D01*
X112824108Y-82689249D01*
X112749342Y-82614483D01*
X112495147Y-82444636D01*
X112212702Y-82327643D01*
X111912859Y-82268000D01*
X111607141Y-82268000D01*
X111307298Y-82327643D01*
X111024853Y-82444636D01*
X110770658Y-82614483D01*
X110554483Y-82830658D01*
X110490000Y-82927164D01*
X110425517Y-82830658D01*
X110209342Y-82614483D01*
X109955147Y-82444636D01*
X109672702Y-82327643D01*
X109372859Y-82268000D01*
X109067141Y-82268000D01*
X108767298Y-82327643D01*
X108484853Y-82444636D01*
X108230658Y-82614483D01*
X108014483Y-82830658D01*
X107950000Y-82927164D01*
X107885517Y-82830658D01*
X107669342Y-82614483D01*
X107415147Y-82444636D01*
X107132702Y-82327643D01*
X106832859Y-82268000D01*
X106527141Y-82268000D01*
X106227298Y-82327643D01*
X105944853Y-82444636D01*
X105690658Y-82614483D01*
X105474483Y-82830658D01*
X105410000Y-82927164D01*
X105345517Y-82830658D01*
X105129342Y-82614483D01*
X104875147Y-82444636D01*
X104592702Y-82327643D01*
X104292859Y-82268000D01*
X103987141Y-82268000D01*
X103687298Y-82327643D01*
X103404853Y-82444636D01*
X103150658Y-82614483D01*
X102934483Y-82830658D01*
X102764636Y-83084853D01*
X102647643Y-83367298D01*
X102588000Y-83667141D01*
X102588000Y-83972859D01*
X102647643Y-84272702D01*
X102764636Y-84555147D01*
X102876791Y-84723000D01*
X101649223Y-84723000D01*
X101600000Y-84718152D01*
X101550776Y-84723000D01*
X101014223Y-84723000D01*
X100965000Y-84718152D01*
X100915777Y-84723000D01*
X100379216Y-84723000D01*
X100330000Y-84718153D01*
X100280784Y-84723000D01*
X100177000Y-84723000D01*
X100177000Y-84545702D01*
X103534711Y-81187991D01*
X103679143Y-81012000D01*
X103885439Y-81012000D01*
X103911882Y-81099170D01*
X103981710Y-81229810D01*
X104075683Y-81344317D01*
X104190190Y-81438290D01*
X104320830Y-81508118D01*
X104462582Y-81551119D01*
X104610000Y-81565638D01*
X106210000Y-81565638D01*
X106357418Y-81551119D01*
X106499170Y-81508118D01*
X106629810Y-81438290D01*
X106744317Y-81344317D01*
X106838290Y-81229810D01*
X106885892Y-81140751D01*
X106960658Y-81215517D01*
X107214853Y-81385364D01*
X107497298Y-81502357D01*
X107797141Y-81562000D01*
X108102859Y-81562000D01*
X108402702Y-81502357D01*
X108685147Y-81385364D01*
X108939342Y-81215517D01*
X109142859Y-81012000D01*
X109297141Y-81012000D01*
X109500658Y-81215517D01*
X109754853Y-81385364D01*
X110037298Y-81502357D01*
X110337141Y-81562000D01*
X110642859Y-81562000D01*
X110942702Y-81502357D01*
X111225147Y-81385364D01*
X111479342Y-81215517D01*
X111695517Y-80999342D01*
X111760000Y-80902836D01*
X111824483Y-80999342D01*
X112040658Y-81215517D01*
X112294853Y-81385364D01*
X112577298Y-81502357D01*
X112877141Y-81562000D01*
X113182859Y-81562000D01*
X113482702Y-81502357D01*
X113765147Y-81385364D01*
X114019342Y-81215517D01*
X114235517Y-80999342D01*
X114405364Y-80745147D01*
X114522357Y-80462702D01*
X114582000Y-80162859D01*
X114582000Y-79857141D01*
X114522357Y-79557298D01*
X114405364Y-79274853D01*
X114235517Y-79020658D01*
X114019342Y-78804483D01*
X113765147Y-78634636D01*
X113482702Y-78517643D01*
X113182859Y-78458000D01*
X112877141Y-78458000D01*
X112577298Y-78517643D01*
X112294853Y-78634636D01*
X112040658Y-78804483D01*
X111824483Y-79020658D01*
X111760000Y-79117164D01*
X111695517Y-79020658D01*
X111479342Y-78804483D01*
X111225147Y-78634636D01*
X110942702Y-78517643D01*
X110642859Y-78458000D01*
X110337141Y-78458000D01*
X110037298Y-78517643D01*
X109754853Y-78634636D01*
X109500658Y-78804483D01*
X109297141Y-79008000D01*
X109142859Y-79008000D01*
X108939342Y-78804483D01*
X108685147Y-78634636D01*
X108402702Y-78517643D01*
X108102859Y-78458000D01*
X107797141Y-78458000D01*
X107497298Y-78517643D01*
X107214853Y-78634636D01*
X106960658Y-78804483D01*
X106885892Y-78879249D01*
X106838290Y-78790190D01*
X106744317Y-78675683D01*
X106629810Y-78581710D01*
X106499170Y-78511882D01*
X106357418Y-78468881D01*
X106210000Y-78454362D01*
X104610000Y-78454362D01*
X104462582Y-78468881D01*
X104320830Y-78511882D01*
X104190190Y-78581710D01*
X104075683Y-78675683D01*
X103981710Y-78790190D01*
X103911882Y-78920830D01*
X103885439Y-79008000D01*
X103679143Y-79008000D01*
X103479845Y-78765155D01*
X103213068Y-78546217D01*
X102908706Y-78383532D01*
X102578451Y-78283350D01*
X102235000Y-78249524D01*
X101891548Y-78283350D01*
X101561294Y-78383532D01*
X101256931Y-78546217D01*
X101057009Y-78710289D01*
X97424000Y-82343298D01*
X97424000Y-72237141D01*
X103858000Y-72237141D01*
X103858000Y-72542859D01*
X103917643Y-72842702D01*
X104034636Y-73125147D01*
X104204483Y-73379342D01*
X104420658Y-73595517D01*
X104674853Y-73765364D01*
X104957298Y-73882357D01*
X105257141Y-73942000D01*
X105562859Y-73942000D01*
X105862702Y-73882357D01*
X106145147Y-73765364D01*
X106399342Y-73595517D01*
X106615517Y-73379342D01*
X106680000Y-73282836D01*
X106744483Y-73379342D01*
X106960658Y-73595517D01*
X107214853Y-73765364D01*
X107497298Y-73882357D01*
X107797141Y-73942000D01*
X108102859Y-73942000D01*
X108402702Y-73882357D01*
X108685147Y-73765364D01*
X108939342Y-73595517D01*
X109155517Y-73379342D01*
X109220000Y-73282836D01*
X109284483Y-73379342D01*
X109500658Y-73595517D01*
X109754853Y-73765364D01*
X110037298Y-73882357D01*
X110337141Y-73942000D01*
X110642859Y-73942000D01*
X110942702Y-73882357D01*
X111225147Y-73765364D01*
X111479342Y-73595517D01*
X111695517Y-73379342D01*
X111760000Y-73282836D01*
X111824483Y-73379342D01*
X112040658Y-73595517D01*
X112294853Y-73765364D01*
X112577298Y-73882357D01*
X112877141Y-73942000D01*
X113182859Y-73942000D01*
X113482702Y-73882357D01*
X113765147Y-73765364D01*
X114019342Y-73595517D01*
X114235517Y-73379342D01*
X114405364Y-73125147D01*
X114522357Y-72842702D01*
X114582000Y-72542859D01*
X114582000Y-72237141D01*
X114522357Y-71937298D01*
X114405364Y-71654853D01*
X114235517Y-71400658D01*
X114019342Y-71184483D01*
X113765147Y-71014636D01*
X113482702Y-70897643D01*
X113182859Y-70838000D01*
X112877141Y-70838000D01*
X112577298Y-70897643D01*
X112294853Y-71014636D01*
X112040658Y-71184483D01*
X111824483Y-71400658D01*
X111760000Y-71497164D01*
X111695517Y-71400658D01*
X111479342Y-71184483D01*
X111225147Y-71014636D01*
X110942702Y-70897643D01*
X110642859Y-70838000D01*
X110337141Y-70838000D01*
X110037298Y-70897643D01*
X109754853Y-71014636D01*
X109500658Y-71184483D01*
X109284483Y-71400658D01*
X109220000Y-71497164D01*
X109155517Y-71400658D01*
X108939342Y-71184483D01*
X108685147Y-71014636D01*
X108402702Y-70897643D01*
X108102859Y-70838000D01*
X107797141Y-70838000D01*
X107497298Y-70897643D01*
X107214853Y-71014636D01*
X106960658Y-71184483D01*
X106744483Y-71400658D01*
X106680000Y-71497164D01*
X106615517Y-71400658D01*
X106399342Y-71184483D01*
X106145147Y-71014636D01*
X105862702Y-70897643D01*
X105562859Y-70838000D01*
X105257141Y-70838000D01*
X104957298Y-70897643D01*
X104674853Y-71014636D01*
X104420658Y-71184483D01*
X104204483Y-71400658D01*
X104034636Y-71654853D01*
X103917643Y-71937298D01*
X103858000Y-72237141D01*
X97424000Y-72237141D01*
X97424000Y-50786837D01*
X162368000Y-50786837D01*
X162368000Y-51575163D01*
X162521795Y-52348340D01*
X162823474Y-53076658D01*
X163261444Y-53732126D01*
X163818874Y-54289556D01*
X164474342Y-54727526D01*
X165202660Y-55029205D01*
X165975837Y-55183000D01*
X166764163Y-55183000D01*
X167537340Y-55029205D01*
X168265658Y-54727526D01*
X168921126Y-54289556D01*
X169478556Y-53732126D01*
X169916526Y-53076658D01*
X170218205Y-52348340D01*
X170372000Y-51575163D01*
X170372000Y-50786837D01*
X170218205Y-50013660D01*
X169916526Y-49285342D01*
X169478556Y-48629874D01*
X168921126Y-48072444D01*
X168265658Y-47634474D01*
X167537340Y-47332795D01*
X166764163Y-47179000D01*
X165975837Y-47179000D01*
X165202660Y-47332795D01*
X164474342Y-47634474D01*
X163818874Y-48072444D01*
X163261444Y-48629874D01*
X162823474Y-49285342D01*
X162521795Y-50013660D01*
X162368000Y-50786837D01*
X97424000Y-50786837D01*
X97424000Y-43599005D01*
X97437044Y-43465967D01*
X97464645Y-43374551D01*
X97509473Y-43290241D01*
X97569826Y-43216241D01*
X97643402Y-43155373D01*
X97727398Y-43109957D01*
X97818618Y-43081719D01*
X97949152Y-43068000D01*
X195287995Y-43068000D01*
X195421033Y-43081044D01*
%TA.AperFunction,Conductor*%
D26*
G36*
X195421033Y-43081044D02*
G01*
X195512449Y-43108645D01*
X195596759Y-43153473D01*
X195670759Y-43213826D01*
X195731627Y-43287402D01*
X195777043Y-43371398D01*
X195805281Y-43462618D01*
X195819000Y-43593152D01*
X195819000Y-48427318D01*
X195464126Y-48072444D01*
X194808658Y-47634474D01*
X194080340Y-47332795D01*
X193307163Y-47179000D01*
X192518837Y-47179000D01*
X191745660Y-47332795D01*
X191017342Y-47634474D01*
X190361874Y-48072444D01*
X189804444Y-48629874D01*
X189366474Y-49285342D01*
X189064795Y-50013660D01*
X188911000Y-50786837D01*
X188911000Y-51575163D01*
X189064795Y-52348340D01*
X189366474Y-53076658D01*
X189804444Y-53732126D01*
X190361874Y-54289556D01*
X191017342Y-54727526D01*
X191745660Y-55029205D01*
X192518837Y-55183000D01*
X193307163Y-55183000D01*
X194080340Y-55029205D01*
X194808658Y-54727526D01*
X195464126Y-54289556D01*
X195819000Y-53934682D01*
X195819001Y-113959319D01*
X195464126Y-113604444D01*
X194808658Y-113166474D01*
X194080340Y-112864795D01*
X193307163Y-112711000D01*
X192518837Y-112711000D01*
X191745660Y-112864795D01*
X191017342Y-113166474D01*
X190361874Y-113604444D01*
X189804444Y-114161874D01*
X189366474Y-114817342D01*
X189064795Y-115545660D01*
X188911000Y-116318837D01*
X188911000Y-117107163D01*
X189064795Y-117880340D01*
X189366474Y-118608658D01*
X189804444Y-119264126D01*
X190361874Y-119821556D01*
X191017342Y-120259526D01*
X191745660Y-120561205D01*
X192518837Y-120715000D01*
X193307163Y-120715000D01*
X194080340Y-120561205D01*
X194808658Y-120259526D01*
X195464126Y-119821556D01*
X195819001Y-119466681D01*
X195819001Y-133311985D01*
X195805956Y-133445033D01*
X195778355Y-133536449D01*
X195733527Y-133620759D01*
X195673174Y-133694759D01*
X195599595Y-133755629D01*
X195515605Y-133801042D01*
X195424382Y-133829281D01*
X195293848Y-133843000D01*
X177711166Y-133843000D01*
X177673000Y-133839241D01*
X177634834Y-133843000D01*
X177520681Y-133854243D01*
X177508296Y-133858000D01*
X173647000Y-133858000D01*
X173647000Y-133726904D01*
X173974926Y-133398979D01*
X174010107Y-133370107D01*
X174125324Y-133229714D01*
X174210938Y-133069541D01*
X174263659Y-132895744D01*
X174277000Y-132760293D01*
X174277000Y-132760292D01*
X174281461Y-132715000D01*
X174277000Y-132669707D01*
X174277000Y-130220292D01*
X174281461Y-130175000D01*
X174263659Y-129994256D01*
X174210938Y-129820458D01*
X174125324Y-129660286D01*
X174058373Y-129578706D01*
X174010107Y-129519893D01*
X173974925Y-129491020D01*
X172133984Y-127650080D01*
X172105107Y-127614893D01*
X171964714Y-127499676D01*
X171804541Y-127414062D01*
X171630744Y-127361341D01*
X171495293Y-127348000D01*
X171495292Y-127348000D01*
X171450000Y-127343539D01*
X171404708Y-127348000D01*
X169291905Y-127348000D01*
X167461664Y-125517759D01*
X167550677Y-125480889D01*
X167739357Y-125354817D01*
X167899817Y-125194357D01*
X168025889Y-125005677D01*
X168112729Y-124796026D01*
X168157000Y-124573462D01*
X168157000Y-124346538D01*
X168146749Y-124295000D01*
X173069362Y-124295000D01*
X173069362Y-125895000D01*
X173083881Y-126042418D01*
X173126882Y-126184170D01*
X173196710Y-126314810D01*
X173290683Y-126429317D01*
X173405190Y-126523290D01*
X173535830Y-126593118D01*
X173677582Y-126636119D01*
X173825000Y-126650638D01*
X175425000Y-126650638D01*
X175572418Y-126636119D01*
X175714170Y-126593118D01*
X175844810Y-126523290D01*
X175959317Y-126429317D01*
X176053290Y-126314810D01*
X176086959Y-126251818D01*
X176135658Y-126300517D01*
X176389853Y-126470364D01*
X176672298Y-126587357D01*
X176972141Y-126647000D01*
X177277859Y-126647000D01*
X177577702Y-126587357D01*
X177860147Y-126470364D01*
X178114342Y-126300517D01*
X178330517Y-126084342D01*
X178500364Y-125830147D01*
X178617357Y-125547702D01*
X178677000Y-125247859D01*
X178677000Y-124942141D01*
X178617357Y-124642298D01*
X178500364Y-124359853D01*
X178330517Y-124105658D01*
X178114342Y-123889483D01*
X177860147Y-123719636D01*
X177577702Y-123602643D01*
X177277859Y-123543000D01*
X176972141Y-123543000D01*
X176672298Y-123602643D01*
X176389853Y-123719636D01*
X176135658Y-123889483D01*
X176086959Y-123938182D01*
X176053290Y-123875190D01*
X175959317Y-123760683D01*
X175844810Y-123666710D01*
X175714170Y-123596882D01*
X175572418Y-123553881D01*
X175425000Y-123539362D01*
X173825000Y-123539362D01*
X173677582Y-123553881D01*
X173535830Y-123596882D01*
X173405190Y-123666710D01*
X173290683Y-123760683D01*
X173196710Y-123875190D01*
X173126882Y-124005830D01*
X173083881Y-124147582D01*
X173069362Y-124295000D01*
X168146749Y-124295000D01*
X168112729Y-124123974D01*
X168025889Y-123914323D01*
X167899817Y-123725643D01*
X167739357Y-123565183D01*
X167550677Y-123439111D01*
X167341026Y-123352271D01*
X167118462Y-123308000D01*
X166891538Y-123308000D01*
X166668974Y-123352271D01*
X166596285Y-123382380D01*
X161111664Y-117897759D01*
X161200677Y-117860889D01*
X161389357Y-117734817D01*
X161549817Y-117574357D01*
X161675889Y-117385677D01*
X161762729Y-117176026D01*
X161807000Y-116953462D01*
X161807000Y-116726538D01*
X161762729Y-116503974D01*
X161686043Y-116318837D01*
X162368000Y-116318837D01*
X162368000Y-117107163D01*
X162521795Y-117880340D01*
X162823474Y-118608658D01*
X163261444Y-119264126D01*
X163818874Y-119821556D01*
X164474342Y-120259526D01*
X165202660Y-120561205D01*
X165975837Y-120715000D01*
X166764163Y-120715000D01*
X167537340Y-120561205D01*
X168265658Y-120259526D01*
X168921126Y-119821556D01*
X169478556Y-119264126D01*
X169916526Y-118608658D01*
X170218205Y-117880340D01*
X170372000Y-117107163D01*
X170372000Y-116318837D01*
X170218205Y-115545660D01*
X169916526Y-114817342D01*
X169478556Y-114161874D01*
X168921126Y-113604444D01*
X168265658Y-113166474D01*
X167537340Y-112864795D01*
X166764163Y-112711000D01*
X165975837Y-112711000D01*
X165202660Y-112864795D01*
X164474342Y-113166474D01*
X163818874Y-113604444D01*
X163261444Y-114161874D01*
X162823474Y-114817342D01*
X162521795Y-115545660D01*
X162368000Y-116318837D01*
X161686043Y-116318837D01*
X161675889Y-116294323D01*
X161577000Y-116146325D01*
X161577000Y-111506904D01*
X163179926Y-109903979D01*
X163215107Y-109875107D01*
X163330324Y-109734714D01*
X163338362Y-109719676D01*
X163415938Y-109574542D01*
X163468659Y-109400744D01*
X163478882Y-109296948D01*
X163482000Y-109265293D01*
X163482000Y-109265292D01*
X163486461Y-109220000D01*
X163482000Y-109174708D01*
X163482000Y-93726904D01*
X163660628Y-93548276D01*
X163680326Y-93595831D01*
X163855646Y-93858215D01*
X164078785Y-94081354D01*
X164117167Y-94107000D01*
X164078785Y-94132646D01*
X163855646Y-94355785D01*
X163680326Y-94618169D01*
X163559564Y-94909714D01*
X163498000Y-95219217D01*
X163498000Y-95534783D01*
X163559564Y-95844286D01*
X163680326Y-96135831D01*
X163855646Y-96398215D01*
X164078785Y-96621354D01*
X164117167Y-96647000D01*
X164078785Y-96672646D01*
X163855646Y-96895785D01*
X163680326Y-97158169D01*
X163559564Y-97449714D01*
X163498000Y-97759217D01*
X163498000Y-98074783D01*
X163559564Y-98384286D01*
X163680326Y-98675831D01*
X163855646Y-98938215D01*
X164078785Y-99161354D01*
X164117167Y-99187000D01*
X164078785Y-99212646D01*
X163855646Y-99435785D01*
X163680326Y-99698169D01*
X163559564Y-99989714D01*
X163498000Y-100299217D01*
X163498000Y-100614783D01*
X163559564Y-100924286D01*
X163680326Y-101215831D01*
X163855646Y-101478215D01*
X164078785Y-101701354D01*
X164117167Y-101727000D01*
X164078785Y-101752646D01*
X163855646Y-101975785D01*
X163680326Y-102238169D01*
X163559564Y-102529714D01*
X163498000Y-102839217D01*
X163498000Y-103154783D01*
X163559564Y-103464286D01*
X163680326Y-103755831D01*
X163855646Y-104018215D01*
X164078785Y-104241354D01*
X164117167Y-104267000D01*
X164078785Y-104292646D01*
X163855646Y-104515785D01*
X163680326Y-104778169D01*
X163559564Y-105069714D01*
X163498000Y-105379217D01*
X163498000Y-105694783D01*
X163559564Y-106004286D01*
X163680326Y-106295831D01*
X163855646Y-106558215D01*
X164078785Y-106781354D01*
X164117167Y-106807000D01*
X164078785Y-106832646D01*
X163855646Y-107055785D01*
X163680326Y-107318169D01*
X163559564Y-107609714D01*
X163498000Y-107919217D01*
X163498000Y-108234783D01*
X163559564Y-108544286D01*
X163680326Y-108835831D01*
X163855646Y-109098215D01*
X164078785Y-109321354D01*
X164341169Y-109496674D01*
X164632714Y-109617436D01*
X164942217Y-109679000D01*
X165257783Y-109679000D01*
X165567286Y-109617436D01*
X165858831Y-109496674D01*
X166121215Y-109321354D01*
X166344354Y-109098215D01*
X166370000Y-109059833D01*
X166395646Y-109098215D01*
X166618785Y-109321354D01*
X166881169Y-109496674D01*
X167172714Y-109617436D01*
X167482217Y-109679000D01*
X167797783Y-109679000D01*
X168107286Y-109617436D01*
X168398831Y-109496674D01*
X168661215Y-109321354D01*
X168884354Y-109098215D01*
X169059674Y-108835831D01*
X169180436Y-108544286D01*
X169242000Y-108234783D01*
X169242000Y-107919217D01*
X169180436Y-107609714D01*
X169059674Y-107318169D01*
X168884354Y-107055785D01*
X168661215Y-106832646D01*
X168622833Y-106807000D01*
X168661215Y-106781354D01*
X168884354Y-106558215D01*
X169059674Y-106295831D01*
X169180436Y-106004286D01*
X169242000Y-105694783D01*
X169242000Y-105379217D01*
X169180436Y-105069714D01*
X169059674Y-104778169D01*
X169052598Y-104767579D01*
X169660293Y-104159885D01*
X169695659Y-104130861D01*
X169724684Y-104095494D01*
X169724688Y-104095490D01*
X169811502Y-103989708D01*
X169897580Y-103828666D01*
X169906415Y-103799541D01*
X169950587Y-103653926D01*
X169964000Y-103517740D01*
X169964000Y-103517729D01*
X169968484Y-103472202D01*
X169964000Y-103426675D01*
X169964000Y-96299000D01*
X172238001Y-96299000D01*
X172238000Y-117384298D01*
X170907008Y-118715290D01*
X170840155Y-118770155D01*
X170621217Y-119036931D01*
X170458531Y-119341295D01*
X170358350Y-119671548D01*
X170324523Y-120015000D01*
X170358350Y-120358452D01*
X170458531Y-120688705D01*
X170621217Y-120993069D01*
X170840155Y-121259845D01*
X171106931Y-121478783D01*
X171411295Y-121641469D01*
X171741548Y-121741650D01*
X171998931Y-121767000D01*
X171998939Y-121767000D01*
X172085000Y-121775476D01*
X172171061Y-121767000D01*
X173903931Y-121767000D01*
X173990000Y-121775477D01*
X174076068Y-121767000D01*
X174076069Y-121767000D01*
X174333452Y-121741650D01*
X174663705Y-121641469D01*
X174968069Y-121478783D01*
X175234845Y-121259845D01*
X175453783Y-120993069D01*
X175616469Y-120688705D01*
X175716650Y-120358452D01*
X175739302Y-120128462D01*
X175742000Y-120101069D01*
X175742000Y-120101068D01*
X175750477Y-120015000D01*
X175742000Y-119928931D01*
X175742000Y-118196061D01*
X175750476Y-118110000D01*
X175742000Y-118023939D01*
X175742000Y-62778931D01*
X175716650Y-62521548D01*
X175616469Y-62191295D01*
X175453783Y-61886931D01*
X175333000Y-61739757D01*
X175333000Y-61406729D01*
X175470170Y-61365118D01*
X175600810Y-61295290D01*
X175715317Y-61201317D01*
X175809290Y-61086810D01*
X175832262Y-61043831D01*
X175849785Y-61061354D01*
X176112169Y-61236674D01*
X176403714Y-61357436D01*
X176713217Y-61419000D01*
X177028783Y-61419000D01*
X177338286Y-61357436D01*
X177629831Y-61236674D01*
X177892215Y-61061354D01*
X178115354Y-60838215D01*
X178290674Y-60575831D01*
X178411436Y-60284286D01*
X178473000Y-59974783D01*
X178473000Y-59659217D01*
X178411436Y-59349714D01*
X178290674Y-59058169D01*
X178115354Y-58795785D01*
X177892215Y-58572646D01*
X177629831Y-58397326D01*
X177338286Y-58276564D01*
X177028783Y-58215000D01*
X176713217Y-58215000D01*
X176403714Y-58276564D01*
X176112169Y-58397326D01*
X175849785Y-58572646D01*
X175832262Y-58590169D01*
X175809290Y-58547190D01*
X175715317Y-58432683D01*
X175600810Y-58338710D01*
X175470170Y-58268882D01*
X175333000Y-58227271D01*
X175333000Y-58175223D01*
X175337848Y-58126000D01*
X175318502Y-57929573D01*
X175289854Y-57835135D01*
X175261206Y-57740696D01*
X175168164Y-57566625D01*
X175042949Y-57414051D01*
X175004709Y-57382668D01*
X174733332Y-57111291D01*
X174701949Y-57073051D01*
X174549375Y-56947836D01*
X174375304Y-56854794D01*
X174186426Y-56797498D01*
X174039223Y-56783000D01*
X174039216Y-56783000D01*
X173990000Y-56778153D01*
X173940784Y-56783000D01*
X172769223Y-56783000D01*
X172720000Y-56778152D01*
X172523573Y-56797498D01*
X172334696Y-56854794D01*
X172160625Y-56947836D01*
X172008051Y-57073051D01*
X171976668Y-57111291D01*
X171411286Y-57676673D01*
X171373052Y-57708051D01*
X171341674Y-57746285D01*
X171247837Y-57860625D01*
X171154794Y-58034697D01*
X171097498Y-58223574D01*
X171089759Y-58302152D01*
X171083000Y-58370777D01*
X171083000Y-58370784D01*
X171078153Y-58420000D01*
X171083000Y-58469216D01*
X171083000Y-59259784D01*
X171078153Y-59309000D01*
X171083000Y-59358217D01*
X171083001Y-60275768D01*
X171083000Y-60275777D01*
X171083000Y-60275784D01*
X171078153Y-60325000D01*
X171083000Y-60374216D01*
X171083000Y-60910784D01*
X171078153Y-60960000D01*
X171083000Y-61009216D01*
X171083000Y-61545784D01*
X171078153Y-61595000D01*
X171083000Y-61644216D01*
X171083000Y-61644223D01*
X171092498Y-61740660D01*
X171097498Y-61791426D01*
X171154794Y-61980303D01*
X171172530Y-62013485D01*
X171247837Y-62154375D01*
X171373052Y-62306949D01*
X171411286Y-62338327D01*
X172238001Y-63165042D01*
X172238000Y-94455000D01*
X169133304Y-94455000D01*
X169037000Y-94445515D01*
X168950033Y-94454080D01*
X168884354Y-94355785D01*
X168661215Y-94132646D01*
X168622833Y-94107000D01*
X168661215Y-94081354D01*
X168884354Y-93858215D01*
X169059674Y-93595831D01*
X169180436Y-93304286D01*
X169242000Y-92994783D01*
X169242000Y-92679217D01*
X169180436Y-92369714D01*
X169059674Y-92078169D01*
X168884354Y-91815785D01*
X168661215Y-91592646D01*
X168622833Y-91567000D01*
X168661215Y-91541354D01*
X168884354Y-91318215D01*
X169059674Y-91055831D01*
X169180436Y-90764286D01*
X169242000Y-90454783D01*
X169242000Y-90139217D01*
X169180436Y-89829714D01*
X169059674Y-89538169D01*
X168884354Y-89275785D01*
X168661215Y-89052646D01*
X168622833Y-89027000D01*
X168661215Y-89001354D01*
X168884354Y-88778215D01*
X169059674Y-88515831D01*
X169180436Y-88224286D01*
X169242000Y-87914783D01*
X169242000Y-87599217D01*
X169180436Y-87289714D01*
X169059674Y-86998169D01*
X168884354Y-86735785D01*
X168661215Y-86512646D01*
X168622833Y-86487000D01*
X168661215Y-86461354D01*
X168884354Y-86238215D01*
X169059674Y-85975831D01*
X169180436Y-85684286D01*
X169242000Y-85374783D01*
X169242000Y-85059217D01*
X169180436Y-84749714D01*
X169059674Y-84458169D01*
X168884354Y-84195785D01*
X168661215Y-83972646D01*
X168622833Y-83947000D01*
X168661215Y-83921354D01*
X168884354Y-83698215D01*
X169059674Y-83435831D01*
X169180436Y-83144286D01*
X169242000Y-82834783D01*
X169242000Y-82519217D01*
X169180436Y-82209714D01*
X169059674Y-81918169D01*
X168884354Y-81655785D01*
X168661215Y-81432646D01*
X168622833Y-81407000D01*
X168661215Y-81381354D01*
X168884354Y-81158215D01*
X169059674Y-80895831D01*
X169180436Y-80604286D01*
X169242000Y-80294783D01*
X169242000Y-79979217D01*
X169180436Y-79669714D01*
X169059674Y-79378169D01*
X168884354Y-79115785D01*
X168661215Y-78892646D01*
X168622833Y-78867000D01*
X168661215Y-78841354D01*
X168884354Y-78618215D01*
X169059674Y-78355831D01*
X169180436Y-78064286D01*
X169242000Y-77754783D01*
X169242000Y-77439217D01*
X169180436Y-77129714D01*
X169059674Y-76838169D01*
X168884354Y-76575785D01*
X168661215Y-76352646D01*
X168622833Y-76327000D01*
X168661215Y-76301354D01*
X168884354Y-76078215D01*
X169059674Y-75815831D01*
X169180436Y-75524286D01*
X169242000Y-75214783D01*
X169242000Y-74899217D01*
X169180436Y-74589714D01*
X169059674Y-74298169D01*
X168884354Y-74035785D01*
X168661215Y-73812646D01*
X168622833Y-73787000D01*
X168661215Y-73761354D01*
X168884354Y-73538215D01*
X169059674Y-73275831D01*
X169180436Y-72984286D01*
X169242000Y-72674783D01*
X169242000Y-72359217D01*
X169180436Y-72049714D01*
X169059674Y-71758169D01*
X168884354Y-71495785D01*
X168661215Y-71272646D01*
X168622833Y-71247000D01*
X168661215Y-71221354D01*
X168884354Y-70998215D01*
X169059674Y-70735831D01*
X169180436Y-70444286D01*
X169242000Y-70134783D01*
X169242000Y-69819217D01*
X169180436Y-69509714D01*
X169059674Y-69218169D01*
X168884354Y-68955785D01*
X168661215Y-68732646D01*
X168622833Y-68707000D01*
X168661215Y-68681354D01*
X168884354Y-68458215D01*
X169059674Y-68195831D01*
X169180436Y-67904286D01*
X169242000Y-67594783D01*
X169242000Y-67279217D01*
X169180436Y-66969714D01*
X169059674Y-66678169D01*
X168884354Y-66415785D01*
X168661215Y-66192646D01*
X168622833Y-66167000D01*
X168661215Y-66141354D01*
X168884354Y-65918215D01*
X169059674Y-65655831D01*
X169180436Y-65364286D01*
X169242000Y-65054783D01*
X169242000Y-64739217D01*
X169180436Y-64429714D01*
X169059674Y-64138169D01*
X168884354Y-63875785D01*
X168661215Y-63652646D01*
X168622833Y-63627000D01*
X168661215Y-63601354D01*
X168884354Y-63378215D01*
X169059674Y-63115831D01*
X169180436Y-62824286D01*
X169242000Y-62514783D01*
X169242000Y-62199217D01*
X169180436Y-61889714D01*
X169059674Y-61598169D01*
X168884354Y-61335785D01*
X168866831Y-61318262D01*
X168909810Y-61295290D01*
X169024317Y-61201317D01*
X169118290Y-61086810D01*
X169188118Y-60956170D01*
X169231119Y-60814418D01*
X169245638Y-60667000D01*
X169245638Y-58967000D01*
X169231119Y-58819582D01*
X169188118Y-58677830D01*
X169118290Y-58547190D01*
X169024317Y-58432683D01*
X168909810Y-58338710D01*
X168779170Y-58268882D01*
X168637418Y-58225881D01*
X168490000Y-58211362D01*
X166790000Y-58211362D01*
X166642582Y-58225881D01*
X166500830Y-58268882D01*
X166370190Y-58338710D01*
X166255683Y-58432683D01*
X166161710Y-58547190D01*
X166138738Y-58590169D01*
X166121215Y-58572646D01*
X165858831Y-58397326D01*
X165567286Y-58276564D01*
X165257783Y-58215000D01*
X164942217Y-58215000D01*
X164632714Y-58276564D01*
X164341169Y-58397326D01*
X164078785Y-58572646D01*
X163855646Y-58795785D01*
X163680326Y-59058169D01*
X163559564Y-59349714D01*
X163498000Y-59659217D01*
X163498000Y-59974783D01*
X163559564Y-60284286D01*
X163680326Y-60575831D01*
X163855646Y-60838215D01*
X164078785Y-61061354D01*
X164117167Y-61087000D01*
X164078785Y-61112646D01*
X163855646Y-61335785D01*
X163680326Y-61598169D01*
X163559564Y-61889714D01*
X163498000Y-62199217D01*
X163498000Y-62385702D01*
X163308462Y-62348000D01*
X163081538Y-62348000D01*
X162858974Y-62392271D01*
X162649323Y-62479111D01*
X162460643Y-62605183D01*
X162300183Y-62765643D01*
X162174111Y-62954323D01*
X162087271Y-63163974D01*
X162043000Y-63386538D01*
X162043000Y-63613462D01*
X162087271Y-63836026D01*
X162174111Y-64045677D01*
X162268001Y-64186193D01*
X162268001Y-64935160D01*
X162261026Y-64932271D01*
X162038462Y-64888000D01*
X161811538Y-64888000D01*
X161588974Y-64932271D01*
X161379323Y-65019111D01*
X161190643Y-65145183D01*
X161030183Y-65305643D01*
X160904111Y-65494323D01*
X160817271Y-65703974D01*
X160773000Y-65926538D01*
X160773000Y-66153462D01*
X160817271Y-66376026D01*
X160904111Y-66585677D01*
X161003001Y-66733676D01*
X161003001Y-67477231D01*
X160991026Y-67472271D01*
X160768462Y-67428000D01*
X160541538Y-67428000D01*
X160318974Y-67472271D01*
X160109323Y-67559111D01*
X159920643Y-67685183D01*
X159760183Y-67845643D01*
X159634111Y-68034323D01*
X159547271Y-68243974D01*
X159503000Y-68466538D01*
X159503000Y-68693462D01*
X159547271Y-68916026D01*
X159634111Y-69125677D01*
X159733001Y-69273676D01*
X159733001Y-70017231D01*
X159721026Y-70012271D01*
X159498462Y-69968000D01*
X159271538Y-69968000D01*
X159048974Y-70012271D01*
X158839323Y-70099111D01*
X158650643Y-70225183D01*
X158490183Y-70385643D01*
X158364111Y-70574323D01*
X158277271Y-70783974D01*
X158233000Y-71006538D01*
X158233000Y-71233462D01*
X158277271Y-71456026D01*
X158364111Y-71665677D01*
X158463001Y-71813676D01*
X158463000Y-73057627D01*
X158374811Y-72925643D01*
X158214351Y-72765183D01*
X158025671Y-72639111D01*
X157816020Y-72552271D01*
X157593456Y-72508000D01*
X157366532Y-72508000D01*
X157143968Y-72552271D01*
X156934317Y-72639111D01*
X156745637Y-72765183D01*
X156585177Y-72925643D01*
X156459105Y-73114323D01*
X156372265Y-73323974D01*
X156337538Y-73498557D01*
X147970076Y-81866020D01*
X147934894Y-81894893D01*
X147906021Y-81930075D01*
X147819676Y-82035287D01*
X147734063Y-82195459D01*
X147681341Y-82369257D01*
X147663539Y-82550000D01*
X147668001Y-82595302D01*
X147668000Y-87571325D01*
X147569111Y-87719323D01*
X147482271Y-87928974D01*
X147438000Y-88151538D01*
X147438000Y-88378462D01*
X147482271Y-88601026D01*
X147569111Y-88810677D01*
X147668000Y-88958675D01*
X147668001Y-92328094D01*
X146700080Y-93296016D01*
X146664893Y-93324893D01*
X146549676Y-93465287D01*
X146464062Y-93625460D01*
X146423534Y-93759062D01*
X146411341Y-93799257D01*
X146393539Y-93980000D01*
X146398000Y-94025292D01*
X146398000Y-101279096D01*
X144828984Y-99710080D01*
X144800107Y-99674893D01*
X144659714Y-99559676D01*
X144499541Y-99474062D01*
X144325744Y-99421341D01*
X144190293Y-99408000D01*
X144190292Y-99408000D01*
X144145000Y-99403539D01*
X144099708Y-99408000D01*
X138811905Y-99408000D01*
X135303984Y-95900080D01*
X135275107Y-95864893D01*
X135134714Y-95749676D01*
X134974541Y-95664062D01*
X134800744Y-95611341D01*
X134665293Y-95598000D01*
X134665292Y-95598000D01*
X134620000Y-95593539D01*
X134574708Y-95598000D01*
X129286905Y-95598000D01*
X127922000Y-94233096D01*
X127922000Y-88880513D01*
X127989342Y-88835517D01*
X128205517Y-88619342D01*
X128270000Y-88522836D01*
X128334483Y-88619342D01*
X128550658Y-88835517D01*
X128618000Y-88880513D01*
X128618001Y-93286312D01*
X128519103Y-93434323D01*
X128432263Y-93643974D01*
X128387992Y-93866538D01*
X128387992Y-94093462D01*
X128432263Y-94316026D01*
X128519103Y-94525677D01*
X128645175Y-94714357D01*
X128805635Y-94874817D01*
X128994315Y-95000889D01*
X129203966Y-95087729D01*
X129426530Y-95132000D01*
X129653454Y-95132000D01*
X129876018Y-95087729D01*
X130085669Y-95000889D01*
X130274349Y-94874817D01*
X130434809Y-94714357D01*
X130560881Y-94525677D01*
X130647721Y-94316026D01*
X130691992Y-94093462D01*
X130691992Y-93866538D01*
X130647721Y-93643974D01*
X130560881Y-93434323D01*
X130462000Y-93286337D01*
X130462000Y-88880513D01*
X130529342Y-88835517D01*
X130745517Y-88619342D01*
X130810000Y-88522836D01*
X130874483Y-88619342D01*
X131090658Y-88835517D01*
X131153001Y-88877173D01*
X131153000Y-89483808D01*
X131059111Y-89624323D01*
X130972271Y-89833974D01*
X130928000Y-90056538D01*
X130928000Y-90283462D01*
X130972271Y-90506026D01*
X131059111Y-90715677D01*
X131185183Y-90904357D01*
X131345643Y-91064817D01*
X131534323Y-91190889D01*
X131743974Y-91277729D01*
X131966538Y-91322000D01*
X132193462Y-91322000D01*
X132416026Y-91277729D01*
X132625677Y-91190889D01*
X132814357Y-91064817D01*
X132974817Y-90904357D01*
X133100889Y-90715677D01*
X133187729Y-90506026D01*
X133232000Y-90283462D01*
X133232000Y-90056538D01*
X133187729Y-89833974D01*
X133100889Y-89624323D01*
X133007000Y-89483808D01*
X133007000Y-88877172D01*
X133069342Y-88835517D01*
X133285517Y-88619342D01*
X133350000Y-88522836D01*
X133414483Y-88619342D01*
X133630658Y-88835517D01*
X133693001Y-88877173D01*
X133693000Y-90753808D01*
X133599111Y-90894323D01*
X133512271Y-91103974D01*
X133468000Y-91326538D01*
X133468000Y-91553462D01*
X133512271Y-91776026D01*
X133599111Y-91985677D01*
X133725183Y-92174357D01*
X133885643Y-92334817D01*
X134074323Y-92460889D01*
X134283974Y-92547729D01*
X134506538Y-92592000D01*
X134733462Y-92592000D01*
X134956026Y-92547729D01*
X135165677Y-92460889D01*
X135354357Y-92334817D01*
X135514817Y-92174357D01*
X135640889Y-91985677D01*
X135727729Y-91776026D01*
X135772000Y-91553462D01*
X135772000Y-91326538D01*
X135727729Y-91103974D01*
X135640889Y-90894323D01*
X135547000Y-90753808D01*
X135547000Y-88877172D01*
X135609342Y-88835517D01*
X135825517Y-88619342D01*
X135890000Y-88522836D01*
X135954483Y-88619342D01*
X136170658Y-88835517D01*
X136233001Y-88877173D01*
X136233000Y-92023808D01*
X136139111Y-92164323D01*
X136052271Y-92373974D01*
X136008000Y-92596538D01*
X136008000Y-92823462D01*
X136052271Y-93046026D01*
X136139111Y-93255677D01*
X136265183Y-93444357D01*
X136425643Y-93604817D01*
X136614323Y-93730889D01*
X136823974Y-93817729D01*
X137046538Y-93862000D01*
X137273462Y-93862000D01*
X137496026Y-93817729D01*
X137705677Y-93730889D01*
X137894357Y-93604817D01*
X138054817Y-93444357D01*
X138180889Y-93255677D01*
X138267729Y-93046026D01*
X138312000Y-92823462D01*
X138312000Y-92596538D01*
X138267729Y-92373974D01*
X138180889Y-92164323D01*
X138087000Y-92023808D01*
X138087000Y-88877172D01*
X138149342Y-88835517D01*
X138365517Y-88619342D01*
X138430000Y-88522836D01*
X138494483Y-88619342D01*
X138710658Y-88835517D01*
X138773001Y-88877173D01*
X138773000Y-93293808D01*
X138679111Y-93434323D01*
X138592271Y-93643974D01*
X138548000Y-93866538D01*
X138548000Y-94093462D01*
X138592271Y-94316026D01*
X138679111Y-94525677D01*
X138805183Y-94714357D01*
X138965643Y-94874817D01*
X139154323Y-95000889D01*
X139363974Y-95087729D01*
X139586538Y-95132000D01*
X139813462Y-95132000D01*
X140036026Y-95087729D01*
X140245677Y-95000889D01*
X140434357Y-94874817D01*
X140594817Y-94714357D01*
X140720889Y-94525677D01*
X140807729Y-94316026D01*
X140852000Y-94093462D01*
X140852000Y-93866538D01*
X140807729Y-93643974D01*
X140720889Y-93434323D01*
X140627000Y-93293808D01*
X140627000Y-88877172D01*
X140689342Y-88835517D01*
X140905517Y-88619342D01*
X140970000Y-88522836D01*
X141034483Y-88619342D01*
X141250658Y-88835517D01*
X141504853Y-89005364D01*
X141787298Y-89122357D01*
X142087141Y-89182000D01*
X142392859Y-89182000D01*
X142692702Y-89122357D01*
X142975147Y-89005364D01*
X143229342Y-88835517D01*
X143445517Y-88619342D01*
X143615364Y-88365147D01*
X143732357Y-88082702D01*
X143792000Y-87782859D01*
X143792000Y-87477141D01*
X143732357Y-87177298D01*
X143615364Y-86894853D01*
X143445517Y-86640658D01*
X143229342Y-86424483D01*
X142975147Y-86254636D01*
X142692702Y-86137643D01*
X142392859Y-86078000D01*
X142087141Y-86078000D01*
X141787298Y-86137643D01*
X141504853Y-86254636D01*
X141250658Y-86424483D01*
X141034483Y-86640658D01*
X140970000Y-86737164D01*
X140905517Y-86640658D01*
X140689342Y-86424483D01*
X140435147Y-86254636D01*
X140152702Y-86137643D01*
X139852859Y-86078000D01*
X139547141Y-86078000D01*
X139247298Y-86137643D01*
X138964853Y-86254636D01*
X138710658Y-86424483D01*
X138494483Y-86640658D01*
X138430000Y-86737164D01*
X138365517Y-86640658D01*
X138149342Y-86424483D01*
X137895147Y-86254636D01*
X137612702Y-86137643D01*
X137312859Y-86078000D01*
X137007141Y-86078000D01*
X136707298Y-86137643D01*
X136424853Y-86254636D01*
X136170658Y-86424483D01*
X135954483Y-86640658D01*
X135890000Y-86737164D01*
X135825517Y-86640658D01*
X135609342Y-86424483D01*
X135355147Y-86254636D01*
X135072702Y-86137643D01*
X134772859Y-86078000D01*
X134467141Y-86078000D01*
X134167298Y-86137643D01*
X133884853Y-86254636D01*
X133630658Y-86424483D01*
X133414483Y-86640658D01*
X133350000Y-86737164D01*
X133285517Y-86640658D01*
X133069342Y-86424483D01*
X132815147Y-86254636D01*
X132532702Y-86137643D01*
X132232859Y-86078000D01*
X131927141Y-86078000D01*
X131627298Y-86137643D01*
X131344853Y-86254636D01*
X131090658Y-86424483D01*
X130874483Y-86640658D01*
X130810000Y-86737164D01*
X130745517Y-86640658D01*
X130529342Y-86424483D01*
X130275147Y-86254636D01*
X129992702Y-86137643D01*
X129692859Y-86078000D01*
X129387141Y-86078000D01*
X129087298Y-86137643D01*
X128804853Y-86254636D01*
X128550658Y-86424483D01*
X128334483Y-86640658D01*
X128270000Y-86737164D01*
X128205517Y-86640658D01*
X127989342Y-86424483D01*
X127735147Y-86254636D01*
X127452702Y-86137643D01*
X127152859Y-86078000D01*
X126847141Y-86078000D01*
X126547298Y-86137643D01*
X126264853Y-86254636D01*
X126010658Y-86424483D01*
X125794483Y-86640658D01*
X125730000Y-86737164D01*
X125665517Y-86640658D01*
X125449342Y-86424483D01*
X125195147Y-86254636D01*
X124912702Y-86137643D01*
X124612859Y-86078000D01*
X124307141Y-86078000D01*
X124007298Y-86137643D01*
X123724853Y-86254636D01*
X123470658Y-86424483D01*
X123254483Y-86640658D01*
X123190000Y-86737164D01*
X123125517Y-86640658D01*
X122909342Y-86424483D01*
X122655147Y-86254636D01*
X122372702Y-86137643D01*
X122072859Y-86078000D01*
X121767141Y-86078000D01*
X121467298Y-86137643D01*
X121184853Y-86254636D01*
X120930658Y-86424483D01*
X120714483Y-86640658D01*
X120650000Y-86737164D01*
X120585517Y-86640658D01*
X120369342Y-86424483D01*
X120115147Y-86254636D01*
X119832702Y-86137643D01*
X119532859Y-86078000D01*
X119227141Y-86078000D01*
X118927298Y-86137643D01*
X118644853Y-86254636D01*
X118390658Y-86424483D01*
X118174483Y-86640658D01*
X118110000Y-86737164D01*
X118045517Y-86640658D01*
X117829342Y-86424483D01*
X117575147Y-86254636D01*
X117292702Y-86137643D01*
X116992859Y-86078000D01*
X116687141Y-86078000D01*
X116387298Y-86137643D01*
X116104853Y-86254636D01*
X115850658Y-86424483D01*
X115634483Y-86640658D01*
X115570000Y-86737164D01*
X115505517Y-86640658D01*
X115289342Y-86424483D01*
X115035147Y-86254636D01*
X114752702Y-86137643D01*
X114452859Y-86078000D01*
X114147141Y-86078000D01*
X114011999Y-86104882D01*
X114011999Y-85375638D01*
X115100000Y-85375638D01*
X115247418Y-85361119D01*
X115389170Y-85318118D01*
X115519810Y-85248290D01*
X115634317Y-85154317D01*
X115728290Y-85039810D01*
X115798118Y-84909170D01*
X115841119Y-84767418D01*
X115855638Y-84620000D01*
X115855638Y-83020000D01*
X115841119Y-82872582D01*
X115798118Y-82730830D01*
X115728290Y-82600190D01*
X115634317Y-82485683D01*
X115519810Y-82391710D01*
X115389170Y-82321882D01*
X115247418Y-82278881D01*
X115100000Y-82264362D01*
X113500000Y-82264362D01*
X113352582Y-82278881D01*
X113210830Y-82321882D01*
X113080190Y-82391710D01*
X112965683Y-82485683D01*
X112871710Y-82600190D01*
X112824108Y-82689249D01*
X112749342Y-82614483D01*
X112495147Y-82444636D01*
X112212702Y-82327643D01*
X111912859Y-82268000D01*
X111607141Y-82268000D01*
X111307298Y-82327643D01*
X111024853Y-82444636D01*
X110770658Y-82614483D01*
X110554483Y-82830658D01*
X110490000Y-82927164D01*
X110425517Y-82830658D01*
X110209342Y-82614483D01*
X109955147Y-82444636D01*
X109672702Y-82327643D01*
X109372859Y-82268000D01*
X109067141Y-82268000D01*
X108767298Y-82327643D01*
X108484853Y-82444636D01*
X108230658Y-82614483D01*
X108014483Y-82830658D01*
X107950000Y-82927164D01*
X107885517Y-82830658D01*
X107669342Y-82614483D01*
X107415147Y-82444636D01*
X107132702Y-82327643D01*
X106832859Y-82268000D01*
X106527141Y-82268000D01*
X106227298Y-82327643D01*
X105944853Y-82444636D01*
X105690658Y-82614483D01*
X105474483Y-82830658D01*
X105410000Y-82927164D01*
X105345517Y-82830658D01*
X105129342Y-82614483D01*
X104875147Y-82444636D01*
X104592702Y-82327643D01*
X104292859Y-82268000D01*
X103987141Y-82268000D01*
X103687298Y-82327643D01*
X103404853Y-82444636D01*
X103150658Y-82614483D01*
X102934483Y-82830658D01*
X102764636Y-83084853D01*
X102647643Y-83367298D01*
X102588000Y-83667141D01*
X102588000Y-83972859D01*
X102647643Y-84272702D01*
X102764636Y-84555147D01*
X102876791Y-84723000D01*
X101649223Y-84723000D01*
X101600000Y-84718152D01*
X101550776Y-84723000D01*
X101014223Y-84723000D01*
X100965000Y-84718152D01*
X100915777Y-84723000D01*
X100379216Y-84723000D01*
X100330000Y-84718153D01*
X100280784Y-84723000D01*
X100177000Y-84723000D01*
X100177000Y-84545702D01*
X103534711Y-81187991D01*
X103679143Y-81012000D01*
X103885439Y-81012000D01*
X103911882Y-81099170D01*
X103981710Y-81229810D01*
X104075683Y-81344317D01*
X104190190Y-81438290D01*
X104320830Y-81508118D01*
X104462582Y-81551119D01*
X104610000Y-81565638D01*
X106210000Y-81565638D01*
X106357418Y-81551119D01*
X106499170Y-81508118D01*
X106629810Y-81438290D01*
X106744317Y-81344317D01*
X106838290Y-81229810D01*
X106885892Y-81140751D01*
X106960658Y-81215517D01*
X107214853Y-81385364D01*
X107497298Y-81502357D01*
X107797141Y-81562000D01*
X108102859Y-81562000D01*
X108402702Y-81502357D01*
X108685147Y-81385364D01*
X108939342Y-81215517D01*
X109142859Y-81012000D01*
X109297141Y-81012000D01*
X109500658Y-81215517D01*
X109754853Y-81385364D01*
X110037298Y-81502357D01*
X110337141Y-81562000D01*
X110642859Y-81562000D01*
X110942702Y-81502357D01*
X111225147Y-81385364D01*
X111479342Y-81215517D01*
X111695517Y-80999342D01*
X111760000Y-80902836D01*
X111824483Y-80999342D01*
X112040658Y-81215517D01*
X112294853Y-81385364D01*
X112577298Y-81502357D01*
X112877141Y-81562000D01*
X113182859Y-81562000D01*
X113482702Y-81502357D01*
X113765147Y-81385364D01*
X114019342Y-81215517D01*
X114235517Y-80999342D01*
X114405364Y-80745147D01*
X114522357Y-80462702D01*
X114582000Y-80162859D01*
X114582000Y-79857141D01*
X114522357Y-79557298D01*
X114405364Y-79274853D01*
X114235517Y-79020658D01*
X114019342Y-78804483D01*
X113765147Y-78634636D01*
X113482702Y-78517643D01*
X113182859Y-78458000D01*
X112877141Y-78458000D01*
X112577298Y-78517643D01*
X112294853Y-78634636D01*
X112040658Y-78804483D01*
X111824483Y-79020658D01*
X111760000Y-79117164D01*
X111695517Y-79020658D01*
X111479342Y-78804483D01*
X111225147Y-78634636D01*
X110942702Y-78517643D01*
X110642859Y-78458000D01*
X110337141Y-78458000D01*
X110037298Y-78517643D01*
X109754853Y-78634636D01*
X109500658Y-78804483D01*
X109297141Y-79008000D01*
X109142859Y-79008000D01*
X108939342Y-78804483D01*
X108685147Y-78634636D01*
X108402702Y-78517643D01*
X108102859Y-78458000D01*
X107797141Y-78458000D01*
X107497298Y-78517643D01*
X107214853Y-78634636D01*
X106960658Y-78804483D01*
X106885892Y-78879249D01*
X106838290Y-78790190D01*
X106744317Y-78675683D01*
X106629810Y-78581710D01*
X106499170Y-78511882D01*
X106357418Y-78468881D01*
X106210000Y-78454362D01*
X104610000Y-78454362D01*
X104462582Y-78468881D01*
X104320830Y-78511882D01*
X104190190Y-78581710D01*
X104075683Y-78675683D01*
X103981710Y-78790190D01*
X103911882Y-78920830D01*
X103885439Y-79008000D01*
X103679143Y-79008000D01*
X103479845Y-78765155D01*
X103213068Y-78546217D01*
X102908706Y-78383532D01*
X102578451Y-78283350D01*
X102235000Y-78249524D01*
X101891548Y-78283350D01*
X101561294Y-78383532D01*
X101256931Y-78546217D01*
X101057009Y-78710289D01*
X97424000Y-82343298D01*
X97424000Y-72237141D01*
X103858000Y-72237141D01*
X103858000Y-72542859D01*
X103917643Y-72842702D01*
X104034636Y-73125147D01*
X104204483Y-73379342D01*
X104420658Y-73595517D01*
X104674853Y-73765364D01*
X104957298Y-73882357D01*
X105257141Y-73942000D01*
X105562859Y-73942000D01*
X105862702Y-73882357D01*
X106145147Y-73765364D01*
X106399342Y-73595517D01*
X106615517Y-73379342D01*
X106680000Y-73282836D01*
X106744483Y-73379342D01*
X106960658Y-73595517D01*
X107214853Y-73765364D01*
X107497298Y-73882357D01*
X107797141Y-73942000D01*
X108102859Y-73942000D01*
X108402702Y-73882357D01*
X108685147Y-73765364D01*
X108939342Y-73595517D01*
X109155517Y-73379342D01*
X109220000Y-73282836D01*
X109284483Y-73379342D01*
X109500658Y-73595517D01*
X109754853Y-73765364D01*
X110037298Y-73882357D01*
X110337141Y-73942000D01*
X110642859Y-73942000D01*
X110942702Y-73882357D01*
X111225147Y-73765364D01*
X111479342Y-73595517D01*
X111695517Y-73379342D01*
X111760000Y-73282836D01*
X111824483Y-73379342D01*
X112040658Y-73595517D01*
X112294853Y-73765364D01*
X112577298Y-73882357D01*
X112877141Y-73942000D01*
X113182859Y-73942000D01*
X113482702Y-73882357D01*
X113765147Y-73765364D01*
X114019342Y-73595517D01*
X114235517Y-73379342D01*
X114405364Y-73125147D01*
X114522357Y-72842702D01*
X114582000Y-72542859D01*
X114582000Y-72237141D01*
X114522357Y-71937298D01*
X114405364Y-71654853D01*
X114235517Y-71400658D01*
X114019342Y-71184483D01*
X113765147Y-71014636D01*
X113482702Y-70897643D01*
X113182859Y-70838000D01*
X112877141Y-70838000D01*
X112577298Y-70897643D01*
X112294853Y-71014636D01*
X112040658Y-71184483D01*
X111824483Y-71400658D01*
X111760000Y-71497164D01*
X111695517Y-71400658D01*
X111479342Y-71184483D01*
X111225147Y-71014636D01*
X110942702Y-70897643D01*
X110642859Y-70838000D01*
X110337141Y-70838000D01*
X110037298Y-70897643D01*
X109754853Y-71014636D01*
X109500658Y-71184483D01*
X109284483Y-71400658D01*
X109220000Y-71497164D01*
X109155517Y-71400658D01*
X108939342Y-71184483D01*
X108685147Y-71014636D01*
X108402702Y-70897643D01*
X108102859Y-70838000D01*
X107797141Y-70838000D01*
X107497298Y-70897643D01*
X107214853Y-71014636D01*
X106960658Y-71184483D01*
X106744483Y-71400658D01*
X106680000Y-71497164D01*
X106615517Y-71400658D01*
X106399342Y-71184483D01*
X106145147Y-71014636D01*
X105862702Y-70897643D01*
X105562859Y-70838000D01*
X105257141Y-70838000D01*
X104957298Y-70897643D01*
X104674853Y-71014636D01*
X104420658Y-71184483D01*
X104204483Y-71400658D01*
X104034636Y-71654853D01*
X103917643Y-71937298D01*
X103858000Y-72237141D01*
X97424000Y-72237141D01*
X97424000Y-50786837D01*
X162368000Y-50786837D01*
X162368000Y-51575163D01*
X162521795Y-52348340D01*
X162823474Y-53076658D01*
X163261444Y-53732126D01*
X163818874Y-54289556D01*
X164474342Y-54727526D01*
X165202660Y-55029205D01*
X165975837Y-55183000D01*
X166764163Y-55183000D01*
X167537340Y-55029205D01*
X168265658Y-54727526D01*
X168921126Y-54289556D01*
X169478556Y-53732126D01*
X169916526Y-53076658D01*
X170218205Y-52348340D01*
X170372000Y-51575163D01*
X170372000Y-50786837D01*
X170218205Y-50013660D01*
X169916526Y-49285342D01*
X169478556Y-48629874D01*
X168921126Y-48072444D01*
X168265658Y-47634474D01*
X167537340Y-47332795D01*
X166764163Y-47179000D01*
X165975837Y-47179000D01*
X165202660Y-47332795D01*
X164474342Y-47634474D01*
X163818874Y-48072444D01*
X163261444Y-48629874D01*
X162823474Y-49285342D01*
X162521795Y-50013660D01*
X162368000Y-50786837D01*
X97424000Y-50786837D01*
X97424000Y-43599005D01*
X97437044Y-43465967D01*
X97464645Y-43374551D01*
X97509473Y-43290241D01*
X97569826Y-43216241D01*
X97643402Y-43155373D01*
X97727398Y-43109957D01*
X97818618Y-43081719D01*
X97949152Y-43068000D01*
X195287995Y-43068000D01*
X195421033Y-43081044D01*
G37*
%TD.AperFunction*%
D25*
X156274483Y-111479342D02*
X156490658Y-111695517D01*
X156744853Y-111865364D01*
X157027298Y-111982357D01*
X157327141Y-112042000D01*
X157632859Y-112042000D01*
X157932702Y-111982357D01*
X158215147Y-111865364D01*
X158463001Y-111699754D01*
X158463000Y-116900245D01*
X158215147Y-116734636D01*
X157932702Y-116617643D01*
X157632859Y-116558000D01*
X157327141Y-116558000D01*
X157027298Y-116617643D01*
X156744853Y-116734636D01*
X156490658Y-116904483D01*
X156274483Y-117120658D01*
X156210000Y-117217164D01*
X156145517Y-117120658D01*
X155929342Y-116904483D01*
X155675147Y-116734636D01*
X155392702Y-116617643D01*
X155092859Y-116558000D01*
X154787141Y-116558000D01*
X154487298Y-116617643D01*
X154204853Y-116734636D01*
X153950658Y-116904483D01*
X153734483Y-117120658D01*
X153670000Y-117217164D01*
X153605517Y-117120658D01*
X153389342Y-116904483D01*
X153135147Y-116734636D01*
X152852702Y-116617643D01*
X152552859Y-116558000D01*
X152247141Y-116558000D01*
X152111999Y-116584882D01*
X152111999Y-116310291D01*
X152116460Y-116264999D01*
X152098658Y-116084255D01*
X152045937Y-115910457D01*
X151960323Y-115750285D01*
X151873978Y-115645073D01*
X151845106Y-115609892D01*
X151809925Y-115581020D01*
X149512000Y-113283096D01*
X149512000Y-112003184D01*
X149707141Y-112042000D01*
X150012859Y-112042000D01*
X150312702Y-111982357D01*
X150595147Y-111865364D01*
X150849342Y-111695517D01*
X151065517Y-111479342D01*
X151130000Y-111382836D01*
X151194483Y-111479342D01*
X151410658Y-111695517D01*
X151664853Y-111865364D01*
X151947298Y-111982357D01*
X152247141Y-112042000D01*
X152552859Y-112042000D01*
X152852702Y-111982357D01*
X153135147Y-111865364D01*
X153389342Y-111695517D01*
X153605517Y-111479342D01*
X153670000Y-111382836D01*
X153734483Y-111479342D01*
X153950658Y-111695517D01*
X154204853Y-111865364D01*
X154487298Y-111982357D01*
X154787141Y-112042000D01*
X155092859Y-112042000D01*
X155392702Y-111982357D01*
X155675147Y-111865364D01*
X155929342Y-111695517D01*
X156145517Y-111479342D01*
X156210000Y-111382836D01*
X156274483Y-111479342D01*
%TA.AperFunction,Conductor*%
D26*
G36*
X156274483Y-111479342D02*
G01*
X156490658Y-111695517D01*
X156744853Y-111865364D01*
X157027298Y-111982357D01*
X157327141Y-112042000D01*
X157632859Y-112042000D01*
X157932702Y-111982357D01*
X158215147Y-111865364D01*
X158463001Y-111699754D01*
X158463000Y-116900245D01*
X158215147Y-116734636D01*
X157932702Y-116617643D01*
X157632859Y-116558000D01*
X157327141Y-116558000D01*
X157027298Y-116617643D01*
X156744853Y-116734636D01*
X156490658Y-116904483D01*
X156274483Y-117120658D01*
X156210000Y-117217164D01*
X156145517Y-117120658D01*
X155929342Y-116904483D01*
X155675147Y-116734636D01*
X155392702Y-116617643D01*
X155092859Y-116558000D01*
X154787141Y-116558000D01*
X154487298Y-116617643D01*
X154204853Y-116734636D01*
X153950658Y-116904483D01*
X153734483Y-117120658D01*
X153670000Y-117217164D01*
X153605517Y-117120658D01*
X153389342Y-116904483D01*
X153135147Y-116734636D01*
X152852702Y-116617643D01*
X152552859Y-116558000D01*
X152247141Y-116558000D01*
X152111999Y-116584882D01*
X152111999Y-116310291D01*
X152116460Y-116264999D01*
X152098658Y-116084255D01*
X152045937Y-115910457D01*
X151960323Y-115750285D01*
X151873978Y-115645073D01*
X151845106Y-115609892D01*
X151809925Y-115581020D01*
X149512000Y-113283096D01*
X149512000Y-112003184D01*
X149707141Y-112042000D01*
X150012859Y-112042000D01*
X150312702Y-111982357D01*
X150595147Y-111865364D01*
X150849342Y-111695517D01*
X151065517Y-111479342D01*
X151130000Y-111382836D01*
X151194483Y-111479342D01*
X151410658Y-111695517D01*
X151664853Y-111865364D01*
X151947298Y-111982357D01*
X152247141Y-112042000D01*
X152552859Y-112042000D01*
X152852702Y-111982357D01*
X153135147Y-111865364D01*
X153389342Y-111695517D01*
X153605517Y-111479342D01*
X153670000Y-111382836D01*
X153734483Y-111479342D01*
X153950658Y-111695517D01*
X154204853Y-111865364D01*
X154487298Y-111982357D01*
X154787141Y-112042000D01*
X155092859Y-112042000D01*
X155392702Y-111982357D01*
X155675147Y-111865364D01*
X155929342Y-111695517D01*
X156145517Y-111479342D01*
X156210000Y-111382836D01*
X156274483Y-111479342D01*
G37*
%TD.AperFunction*%
D25*
X127893000Y-114875067D02*
X127892999Y-114875077D01*
X127892999Y-116840109D01*
X127735147Y-116734636D01*
X127452702Y-116617643D01*
X127152859Y-116558000D01*
X126847141Y-116558000D01*
X126652000Y-116596816D01*
X126652000Y-114046904D01*
X127892999Y-112805905D01*
X127893000Y-114875067D01*
%TA.AperFunction,Conductor*%
D26*
G36*
X127893000Y-114875067D02*
G01*
X127892999Y-114875077D01*
X127892999Y-116840109D01*
X127735147Y-116734636D01*
X127452702Y-116617643D01*
X127152859Y-116558000D01*
X126847141Y-116558000D01*
X126652000Y-116596816D01*
X126652000Y-114046904D01*
X127892999Y-112805905D01*
X127893000Y-114875067D01*
G37*
%TD.AperFunction*%
D25*
X145188000Y-102676905D02*
X145188000Y-106872083D01*
X145116026Y-106842271D01*
X144941450Y-106807546D01*
X142528853Y-104394949D01*
X142692702Y-104362357D01*
X142975147Y-104245364D01*
X143229342Y-104075517D01*
X143445517Y-103859342D01*
X143615364Y-103605147D01*
X143732357Y-103322702D01*
X143792000Y-103022859D01*
X143792000Y-102717141D01*
X143732357Y-102417298D01*
X143615364Y-102134853D01*
X143445517Y-101880658D01*
X143229342Y-101664483D01*
X142975147Y-101494636D01*
X142692702Y-101377643D01*
X142392859Y-101318000D01*
X142087141Y-101318000D01*
X141787298Y-101377643D01*
X141504853Y-101494636D01*
X141250658Y-101664483D01*
X141034483Y-101880658D01*
X140970000Y-101977164D01*
X140905517Y-101880658D01*
X140689342Y-101664483D01*
X140435147Y-101494636D01*
X140152702Y-101377643D01*
X139852859Y-101318000D01*
X139547141Y-101318000D01*
X139247298Y-101377643D01*
X138985138Y-101486233D01*
X138750905Y-101252000D01*
X143763096Y-101252000D01*
X145188000Y-102676905D01*
%TA.AperFunction,Conductor*%
D26*
G36*
X145188000Y-102676905D02*
G01*
X145188000Y-106872083D01*
X145116026Y-106842271D01*
X144941450Y-106807546D01*
X142528853Y-104394949D01*
X142692702Y-104362357D01*
X142975147Y-104245364D01*
X143229342Y-104075517D01*
X143445517Y-103859342D01*
X143615364Y-103605147D01*
X143732357Y-103322702D01*
X143792000Y-103022859D01*
X143792000Y-102717141D01*
X143732357Y-102417298D01*
X143615364Y-102134853D01*
X143445517Y-101880658D01*
X143229342Y-101664483D01*
X142975147Y-101494636D01*
X142692702Y-101377643D01*
X142392859Y-101318000D01*
X142087141Y-101318000D01*
X141787298Y-101377643D01*
X141504853Y-101494636D01*
X141250658Y-101664483D01*
X141034483Y-101880658D01*
X140970000Y-101977164D01*
X140905517Y-101880658D01*
X140689342Y-101664483D01*
X140435147Y-101494636D01*
X140152702Y-101377643D01*
X139852859Y-101318000D01*
X139547141Y-101318000D01*
X139247298Y-101377643D01*
X138985138Y-101486233D01*
X138750905Y-101252000D01*
X143763096Y-101252000D01*
X145188000Y-102676905D01*
G37*
%TD.AperFunction*%
%TD*%
D25*
%TO.N,GND*%
X172238000Y-117384298D02*
X170907008Y-118715290D01*
X170840155Y-118770155D01*
X170621217Y-119036931D01*
X170458531Y-119341295D01*
X170358350Y-119671548D01*
X170324523Y-120015000D01*
X170358350Y-120358452D01*
X170458531Y-120688705D01*
X170621217Y-120993069D01*
X170756573Y-121158000D01*
X165152606Y-121158000D01*
X162052000Y-118057394D01*
X162052000Y-114987606D01*
X164517606Y-112522000D01*
X172238000Y-112522000D01*
X172238000Y-117384298D01*
%TA.AperFunction,Conductor*%
D26*
G36*
X172238000Y-117384298D02*
G01*
X170907008Y-118715290D01*
X170840155Y-118770155D01*
X170621217Y-119036931D01*
X170458531Y-119341295D01*
X170358350Y-119671548D01*
X170324523Y-120015000D01*
X170358350Y-120358452D01*
X170458531Y-120688705D01*
X170621217Y-120993069D01*
X170756573Y-121158000D01*
X165152606Y-121158000D01*
X162052000Y-118057394D01*
X162052000Y-114987606D01*
X164517606Y-112522000D01*
X172238000Y-112522000D01*
X172238000Y-117384298D01*
G37*
%TD.AperFunction*%
D25*
X195819001Y-121158000D02*
X175318427Y-121158000D01*
X175453783Y-120993069D01*
X175616469Y-120688705D01*
X175716650Y-120358452D01*
X175750477Y-120015000D01*
X175742000Y-119928931D01*
X175742000Y-118196061D01*
X175750476Y-118110000D01*
X175742000Y-118023939D01*
X175742000Y-112522000D01*
X195819001Y-112522000D01*
X195819001Y-121158000D01*
%TA.AperFunction,Conductor*%
D26*
G36*
X195819001Y-121158000D02*
G01*
X175318427Y-121158000D01*
X175453783Y-120993069D01*
X175616469Y-120688705D01*
X175716650Y-120358452D01*
X175750477Y-120015000D01*
X175742000Y-119928931D01*
X175742000Y-118196061D01*
X175750476Y-118110000D01*
X175742000Y-118023939D01*
X175742000Y-112522000D01*
X195819001Y-112522000D01*
X195819001Y-121158000D01*
G37*
%TD.AperFunction*%
%TD*%
D25*
%TO.N,GND*%
X195819000Y-55753000D02*
X165152606Y-55753000D01*
X162052000Y-52652394D01*
X162052000Y-49582606D01*
X164517606Y-47117000D01*
X195819000Y-47117000D01*
X195819000Y-55753000D01*
%TA.AperFunction,Conductor*%
D26*
G36*
X195819000Y-55753000D02*
G01*
X165152606Y-55753000D01*
X162052000Y-52652394D01*
X162052000Y-49582606D01*
X164517606Y-47117000D01*
X195819000Y-47117000D01*
X195819000Y-55753000D01*
G37*
%TD.AperFunction*%
%TD*%
M02*
