M48
; DRILL file {KiCad (5.1.9)-1} date 03/05/21 21:37:45
; FORMAT={-:-/ absolute / metric / decimal}
; #@! TF.CreationDate,2021-03-05T21:37:45+08:00
; #@! TF.GenerationSoftware,Kicad,Pcbnew,(5.1.9)-1
FMAT,2
METRIC
T1C0.400
T2C0.600
T3C0.800
T4C1.000
T5C3.200
%
G90
G05
T1
X102.235Y-80.01
X104.14Y-121.92
X104.14Y-124.46
X104.775Y-107.95
X105.41Y-120.65
X105.41Y-123.19
X106.68Y-95.25
X107.95Y-106.045
X108.585Y-108.585
X109.22Y-112.395
X113.03Y-106.045
X113.03Y-129.54
X114.3Y-100.33
X118.11Y-120.65
X120.015Y-116.205
X120.65Y-93.98
X120.65Y-121.92
X121.92Y-100.33
X122.555Y-116.205
X122.555Y-131.445
X123.19Y-123.19
X123.825Y-132.715
X125.73Y-125.095
X125.73Y-130.175
X127.0Y-107.95
X127.0Y-120.015
X127.0Y-121.285
X129.54Y-93.98
X129.54Y-127.0
X129.54Y-128.905
X130.81Y-127.0
X132.08Y-90.17
X132.08Y-125.095
X132.715Y-107.95
X134.62Y-91.44
X134.62Y-125.095
X135.89Y-120.015
X135.89Y-122.555
X136.525Y-130.175
X137.16Y-92.71
X137.16Y-107.95
X137.16Y-123.825
X137.16Y-132.715
X139.7Y-93.98
X139.7Y-120.015
X139.7Y-122.555
X139.7Y-125.095
X140.97Y-107.95
X142.24Y-131.445
X143.51Y-122.555
X144.78Y-107.95
X145.415Y-130.81
X148.59Y-88.265
X148.59Y-94.615
X148.59Y-121.285
X148.59Y-130.81
X149.86Y-93.345
X149.86Y-132.715
X151.13Y-92.075
X152.4Y-90.805
X152.4Y-120.015
X153.67Y-89.535
X154.94Y-97.79
X154.94Y-101.6
X156.21Y-104.775
X157.48Y-73.66
X157.48Y-107.95
X158.75Y-106.045
X159.385Y-71.12
X159.385Y-108.585
X160.655Y-68.58
X160.655Y-116.84
X161.925Y-66.04
X163.195Y-63.5
X167.005Y-124.46
X168.275Y-129.54
X172.085Y-130.81
T2
X99.695Y-71.755
X99.695Y-73.66
X99.695Y-75.565
X102.87Y-127.0
X102.87Y-128.905
X127.0Y-114.935
X132.08Y-93.345
X134.62Y-93.345
X138.43Y-97.155
X140.97Y-97.155
X144.78Y-102.87
X152.4Y-114.935
X157.48Y-114.935
X157.48Y-122.555
X158.75Y-123.825
X159.385Y-122.555
X160.655Y-123.825
X165.1Y-130.175
X166.37Y-131.445
X170.815Y-89.535
X170.815Y-91.44
X170.815Y-93.345
X170.815Y-97.155
X170.815Y-99.06
X170.815Y-100.965
X172.085Y-120.015
X173.99Y-120.015
X175.26Y-130.81
X175.26Y-132.715
T3
X100.965Y-87.63
X100.965Y-92.63
X100.965Y-110.49
X100.965Y-115.49
X104.14Y-83.82
X104.14Y-87.63
X104.14Y-102.87
X104.14Y-110.49
X104.14Y-118.11
X105.41Y-72.39
X105.41Y-80.01
X106.68Y-83.82
X106.68Y-87.63
X106.68Y-102.87
X106.68Y-110.49
X106.68Y-118.11
X107.95Y-72.39
X107.95Y-80.01
X109.22Y-83.82
X109.22Y-87.63
X109.22Y-102.87
X109.22Y-110.49
X109.22Y-118.11
X110.49Y-72.39
X110.49Y-80.01
X111.76Y-83.82
X111.76Y-87.63
X111.76Y-102.87
X111.76Y-110.49
X111.76Y-118.11
X113.03Y-72.39
X113.03Y-80.01
X114.3Y-83.82
X114.3Y-87.63
X114.3Y-102.87
X114.3Y-110.49
X114.3Y-118.11
X116.84Y-87.63
X116.84Y-102.87
X116.84Y-110.49
X116.84Y-118.11
X119.38Y-87.63
X119.38Y-102.87
X119.38Y-110.49
X119.38Y-118.11
X121.92Y-87.63
X121.92Y-102.87
X121.92Y-110.49
X121.92Y-118.11
X124.46Y-87.63
X124.46Y-102.87
X124.46Y-110.49
X124.46Y-118.11
X127.0Y-87.63
X127.0Y-102.87
X127.0Y-110.49
X127.0Y-118.11
X129.54Y-87.63
X129.54Y-102.87
X131.445Y-110.49
X131.445Y-115.49
X132.08Y-87.63
X132.08Y-102.87
X134.62Y-87.63
X134.62Y-102.87
X134.62Y-110.49
X134.62Y-118.11
X137.16Y-87.63
X137.16Y-102.87
X137.16Y-110.49
X137.16Y-118.11
X139.7Y-87.63
X139.7Y-102.87
X139.7Y-110.49
X139.7Y-118.11
X142.24Y-87.63
X142.24Y-102.87
X142.24Y-110.49
X142.24Y-118.11
X144.78Y-110.49
X144.78Y-118.11
X147.32Y-110.49
X147.32Y-118.11
X149.86Y-110.49
X149.86Y-118.11
X152.4Y-110.49
X152.4Y-118.11
X154.94Y-110.49
X154.94Y-118.11
X157.48Y-110.49
X157.48Y-118.11
X174.625Y-125.095
X177.125Y-125.095
T4
X165.1Y-59.817
X165.1Y-62.357
X165.1Y-64.897
X165.1Y-67.437
X165.1Y-69.977
X165.1Y-72.517
X165.1Y-75.057
X165.1Y-77.597
X165.1Y-80.137
X165.1Y-82.677
X165.1Y-85.217
X165.1Y-87.757
X165.1Y-90.297
X165.1Y-92.837
X165.1Y-95.377
X165.1Y-97.917
X165.1Y-100.457
X165.1Y-102.997
X165.1Y-105.537
X165.1Y-108.077
X167.64Y-59.817
X167.64Y-62.357
X167.64Y-64.897
X167.64Y-67.437
X167.64Y-69.977
X167.64Y-72.517
X167.64Y-75.057
X167.64Y-77.597
X167.64Y-80.137
X167.64Y-82.677
X167.64Y-85.217
X167.64Y-87.757
X167.64Y-90.297
X167.64Y-92.837
X167.64Y-95.377
X167.64Y-97.917
X167.64Y-100.457
X167.64Y-102.997
X167.64Y-105.537
X167.64Y-108.077
X174.331Y-59.817
X176.871Y-59.817
T5
X166.37Y-51.181
X166.37Y-116.713
X192.913Y-51.181
X192.913Y-116.713
T0
M30
