M48
; DRILL file {KiCad (5.1.9)-1} date 05/05/21 16:31:59
; FORMAT={-:-/ absolute / metric / decimal}
; #@! TF.CreationDate,2021-05-05T16:31:59+08:00
; #@! TF.GenerationSoftware,Kicad,Pcbnew,(5.1.9)-1
FMAT,2
METRIC
T1C1.000
T2C1.200
T3C1.350
T4C1.500
T5C3.500
%
G90
G05
T1
X99.06Y-69.85
X99.06Y-82.55
X139.065Y-69.85
X139.065Y-82.55
X187.325Y-69.85
X187.325Y-82.55
T2
X107.315Y-60.96
X107.315Y-64.135
X107.315Y-91.44
X148.59Y-60.96
X148.59Y-64.135
X148.59Y-91.44
X161.29Y-60.96
X161.29Y-64.135
X161.29Y-91.44
X173.99Y-60.96
X173.99Y-64.135
X173.99Y-91.44
T3
X104.775Y-104.775
X104.775Y-120.095
X107.315Y-102.235
X107.315Y-107.315
X107.315Y-117.555
X107.315Y-122.635
X109.855Y-104.775
X109.855Y-120.095
X146.05Y-104.775
X146.05Y-120.095
X148.59Y-102.235
X148.59Y-107.315
X148.59Y-117.555
X148.59Y-122.635
X151.13Y-104.775
X151.13Y-120.095
X158.75Y-104.775
X158.75Y-120.095
X161.29Y-102.235
X161.29Y-107.315
X161.29Y-117.555
X161.29Y-122.635
X163.83Y-104.775
X163.83Y-120.095
X171.45Y-104.775
X171.45Y-120.095
X173.99Y-102.235
X173.99Y-107.315
X173.99Y-117.555
X173.99Y-122.635
X176.53Y-104.775
X176.53Y-120.095
T4
X104.775Y-128.905
X105.41Y-53.975
X168.91Y-53.975
X170.18Y-128.905
T5
X192.913Y-51.181
X192.913Y-116.713
T0
M30
