%TF.GenerationSoftware,KiCad,Pcbnew,(5.1.9)-1*%
%TF.CreationDate,2021-05-05T16:31:56+08:00*%
%TF.ProjectId,Riser,52697365-722e-46b6-9963-61645f706362,rev?*%
%TF.SameCoordinates,Original*%
%TF.FileFunction,Copper,L2,Bot*%
%TF.FilePolarity,Positive*%
%FSLAX46Y46*%
G04 Gerber Fmt 4.6, Leading zero omitted, Abs format (unit mm)*
G04 Created by KiCad (PCBNEW (5.1.9)-1) date 2021-05-05 16:31:56*
%MOMM*%
%LPD*%
G01*
G04 APERTURE LIST*
%TA.AperFunction,ComponentPad*%
%ADD10O,2.400000X2.400000*%
%TD*%
%TA.AperFunction,ComponentPad*%
%ADD11C,2.400000*%
%TD*%
%TA.AperFunction,ComponentPad*%
%ADD12C,7.000000*%
%TD*%
%TA.AperFunction,ComponentPad*%
%ADD13O,2.500000X2.500000*%
%TD*%
%TA.AperFunction,ComponentPad*%
%ADD14C,2.500000*%
%TD*%
%TA.AperFunction,ConnectorPad*%
%ADD15R,1.780000X7.620000*%
%TD*%
%TA.AperFunction,ComponentPad*%
%ADD16C,2.350000*%
%TD*%
%TA.AperFunction,Conductor*%
%ADD17C,0.400000*%
%TD*%
%TA.AperFunction,Conductor*%
%ADD18C,1.750000*%
%TD*%
%TA.AperFunction,Conductor*%
%ADD19C,3.000000*%
%TD*%
%TA.AperFunction,Conductor*%
%ADD20C,0.254000*%
%TD*%
%TA.AperFunction,Conductor*%
%ADD21C,0.100000*%
%TD*%
G04 APERTURE END LIST*
D10*
%TO.P,R2,2*%
%TO.N,Net-(F2-Pad1)*%
X173990000Y-91440000D03*
D11*
%TO.P,R2,1*%
%TO.N,-5V_OUT*%
X173990000Y-60960000D03*
X173990000Y-64135000D03*
%TD*%
D10*
%TO.P,R3,2*%
%TO.N,Net-(F3-Pad1)*%
X161290000Y-91440000D03*
D11*
%TO.P,R3,1*%
%TO.N,-12V_OUT*%
X161290000Y-60960000D03*
X161290000Y-64135000D03*
%TD*%
D10*
%TO.P,R4,2*%
%TO.N,Net-(F4-Pad1)*%
X148590000Y-91440000D03*
D11*
%TO.P,R4,1*%
%TO.N,12V_OUT*%
X148590000Y-60960000D03*
X148590000Y-64135000D03*
%TD*%
D10*
%TO.P,R1,2*%
%TO.N,Net-(F1-Pad1)*%
X107315000Y-91440000D03*
D11*
%TO.P,R1,1*%
%TO.N,VCC2_OUT*%
X107315000Y-60960000D03*
X107315000Y-64135000D03*
%TD*%
D12*
%TO.P,H2,1*%
%TO.N,GND1*%
X192913000Y-116713000D03*
%TD*%
%TO.P,H1,1*%
%TO.N,GND1*%
X192913000Y-51181000D03*
%TD*%
D13*
%TO.P,J5,1*%
%TO.N,GND3*%
X99060000Y-69850000D03*
%TO.P,J5,2*%
X99060000Y-82550000D03*
%TD*%
%TO.P,J4,1*%
%TO.N,GND2*%
X139065000Y-69850000D03*
%TO.P,J4,2*%
X139065000Y-82550000D03*
%TD*%
%TO.P,J3,1*%
%TO.N,GND1*%
X187325000Y-69850000D03*
%TO.P,J3,2*%
X187325000Y-82550000D03*
%TD*%
D14*
%TO.P,J7B1,1*%
%TO.N,VCC1_OUT*%
X168910000Y-53975000D03*
%TD*%
%TO.P,J7A1,1*%
%TO.N,VCC2_OUT*%
X105410000Y-53975000D03*
%TD*%
%TO.P,J6B1,1*%
%TO.N,VCC1_IN*%
X170180000Y-128905000D03*
%TD*%
%TO.P,J6A1,1*%
%TO.N,VCC2_IN*%
X104775000Y-128905000D03*
%TD*%
D15*
%TO.P,J2,31*%
%TO.N,GND3*%
X97790000Y-46355000D03*
%TO.P,J2,30*%
%TO.N,OSC*%
X100330000Y-46355000D03*
%TO.P,J2,29*%
%TO.N,VCC2_OUT*%
X102870000Y-46355000D03*
%TO.P,J2,28*%
%TO.N,ALE*%
X105410000Y-46355000D03*
%TO.P,J2,27*%
%TO.N,TC*%
X107950000Y-46355000D03*
%TO.P,J2,26*%
%TO.N,~DACK2*%
X110490000Y-46355000D03*
%TO.P,J2,25*%
%TO.N,IRQ3*%
X113030000Y-46355000D03*
%TO.P,J2,24*%
%TO.N,IRQ4*%
X115570000Y-46355000D03*
%TO.P,J2,23*%
%TO.N,IRQ5*%
X118110000Y-46355000D03*
%TO.P,J2,22*%
%TO.N,IRQ6*%
X120650000Y-46355000D03*
%TO.P,J2,21*%
%TO.N,IRQ7*%
X123190000Y-46355000D03*
%TO.P,J2,20*%
%TO.N,CLK*%
X125730000Y-46355000D03*
%TO.P,J2,19*%
%TO.N,~DACK0*%
X128270000Y-46355000D03*
%TO.P,J2,18*%
%TO.N,DRQ1*%
X130810000Y-46355000D03*
%TO.P,J2,17*%
%TO.N,~DACK1*%
X133350000Y-46355000D03*
%TO.P,J2,16*%
%TO.N,DRQ3*%
X135890000Y-46355000D03*
%TO.P,J2,15*%
%TO.N,~DACK3*%
X138430000Y-46355000D03*
%TO.P,J2,14*%
%TO.N,~IOR*%
X140970000Y-46355000D03*
%TO.P,J2,13*%
%TO.N,~IOW*%
X143510000Y-46355000D03*
%TO.P,J2,12*%
%TO.N,~MEMR*%
X146050000Y-46355000D03*
%TO.P,J2,11*%
%TO.N,~MEMW*%
X148590000Y-46355000D03*
%TO.P,J2,10*%
%TO.N,GND2*%
X151130000Y-46355000D03*
%TO.P,J2,9*%
%TO.N,12V_OUT*%
X153670000Y-46355000D03*
%TO.P,J2,8*%
%TO.N,UNUSED_THRU*%
X156210000Y-46355000D03*
%TO.P,J2,7*%
%TO.N,-12V_OUT*%
X158750000Y-46355000D03*
%TO.P,J2,6*%
%TO.N,DRQ2*%
X161290000Y-46355000D03*
%TO.P,J2,5*%
%TO.N,-5V_OUT*%
X163830000Y-46355000D03*
%TO.P,J2,4*%
%TO.N,IRQ2*%
X166370000Y-46355000D03*
%TO.P,J2,3*%
%TO.N,VCC1_OUT*%
X168910000Y-46355000D03*
%TO.P,J2,2*%
%TO.N,RESET*%
X171450000Y-46355000D03*
%TO.P,J2,1*%
%TO.N,GND1*%
X173990000Y-46355000D03*
%TD*%
D16*
%TO.P,F4,1*%
%TO.N,Net-(F4-Pad1)*%
X146050000Y-104775000D03*
X151130000Y-104775000D03*
%TO.P,F4,2*%
%TO.N,12V_IN*%
X146050000Y-120095000D03*
X151130000Y-120095000D03*
%TO.P,F4,1*%
%TO.N,Net-(F4-Pad1)*%
X148590000Y-102235000D03*
X148590000Y-107315000D03*
%TO.P,F4,2*%
%TO.N,12V_IN*%
X148590000Y-122635000D03*
X148590000Y-117555000D03*
%TD*%
%TO.P,F3,1*%
%TO.N,Net-(F3-Pad1)*%
X158750000Y-104775000D03*
X163830000Y-104775000D03*
%TO.P,F3,2*%
%TO.N,-12V_IN*%
X158750000Y-120095000D03*
X163830000Y-120095000D03*
%TO.P,F3,1*%
%TO.N,Net-(F3-Pad1)*%
X161290000Y-102235000D03*
X161290000Y-107315000D03*
%TO.P,F3,2*%
%TO.N,-12V_IN*%
X161290000Y-122635000D03*
X161290000Y-117555000D03*
%TD*%
%TO.P,F2,1*%
%TO.N,Net-(F2-Pad1)*%
X171450000Y-104775000D03*
X176530000Y-104775000D03*
%TO.P,F2,2*%
%TO.N,-5V_IN*%
X171450000Y-120095000D03*
X176530000Y-120095000D03*
%TO.P,F2,1*%
%TO.N,Net-(F2-Pad1)*%
X173990000Y-102235000D03*
X173990000Y-107315000D03*
%TO.P,F2,2*%
%TO.N,-5V_IN*%
X173990000Y-122635000D03*
X173990000Y-117555000D03*
%TD*%
%TO.P,F1,1*%
%TO.N,Net-(F1-Pad1)*%
X104775000Y-104775000D03*
X109855000Y-104775000D03*
%TO.P,F1,2*%
%TO.N,VCC2_IN*%
X104775000Y-120095000D03*
X109855000Y-120095000D03*
%TO.P,F1,1*%
%TO.N,Net-(F1-Pad1)*%
X107315000Y-102235000D03*
X107315000Y-107315000D03*
%TO.P,F1,2*%
%TO.N,VCC2_IN*%
X107315000Y-122635000D03*
X107315000Y-117555000D03*
%TD*%
D15*
%TO.P,J1,31*%
%TO.N,GND3*%
X99060000Y-138430000D03*
%TO.P,J1,30*%
%TO.N,OSC*%
X101600000Y-138430000D03*
%TO.P,J1,29*%
%TO.N,VCC2_IN*%
X104140000Y-138430000D03*
%TO.P,J1,28*%
%TO.N,ALE*%
X106680000Y-138430000D03*
%TO.P,J1,27*%
%TO.N,TC*%
X109220000Y-138430000D03*
%TO.P,J1,26*%
%TO.N,~DACK2*%
X111760000Y-138430000D03*
%TO.P,J1,25*%
%TO.N,IRQ3*%
X114300000Y-138430000D03*
%TO.P,J1,24*%
%TO.N,IRQ4*%
X116840000Y-138430000D03*
%TO.P,J1,23*%
%TO.N,IRQ5*%
X119380000Y-138430000D03*
%TO.P,J1,22*%
%TO.N,IRQ6*%
X121920000Y-138430000D03*
%TO.P,J1,21*%
%TO.N,IRQ7*%
X124460000Y-138430000D03*
%TO.P,J1,20*%
%TO.N,CLK*%
X127000000Y-138430000D03*
%TO.P,J1,19*%
%TO.N,~DACK0*%
X129540000Y-138430000D03*
%TO.P,J1,18*%
%TO.N,DRQ1*%
X132080000Y-138430000D03*
%TO.P,J1,17*%
%TO.N,~DACK1*%
X134620000Y-138430000D03*
%TO.P,J1,16*%
%TO.N,DRQ3*%
X137160000Y-138430000D03*
%TO.P,J1,15*%
%TO.N,~DACK3*%
X139700000Y-138430000D03*
%TO.P,J1,14*%
%TO.N,~IOR*%
X142240000Y-138430000D03*
%TO.P,J1,13*%
%TO.N,~IOW*%
X144780000Y-138430000D03*
%TO.P,J1,12*%
%TO.N,~MEMR*%
X147320000Y-138430000D03*
%TO.P,J1,11*%
%TO.N,~MEMW*%
X149860000Y-138430000D03*
%TO.P,J1,10*%
%TO.N,GND2*%
X152400000Y-138430000D03*
%TO.P,J1,9*%
%TO.N,12V_IN*%
X154940000Y-138430000D03*
%TO.P,J1,8*%
%TO.N,UNUSED_THRU*%
X157480000Y-138430000D03*
%TO.P,J1,7*%
%TO.N,-12V_IN*%
X160020000Y-138430000D03*
%TO.P,J1,6*%
%TO.N,DRQ2*%
X162560000Y-138430000D03*
%TO.P,J1,5*%
%TO.N,-5V_IN*%
X165100000Y-138430000D03*
%TO.P,J1,4*%
%TO.N,IRQ2*%
X167640000Y-138430000D03*
%TO.P,J1,3*%
%TO.N,VCC1_IN*%
X170180000Y-138430000D03*
%TO.P,J1,2*%
%TO.N,RESET*%
X172720000Y-138430000D03*
%TO.P,J1,1*%
%TO.N,GND1*%
X175260000Y-138430000D03*
%TD*%
D17*
%TO.N,OSC*%
X100330000Y-52070000D02*
X100330000Y-46355000D01*
X102179991Y-53919991D02*
X100330000Y-52070000D01*
X102179991Y-133350000D02*
X102179991Y-53919991D01*
X101600000Y-133929991D02*
X102179991Y-133350000D01*
X101600000Y-138430000D02*
X101600000Y-133929991D01*
%TO.N,ALE*%
X106680000Y-133985000D02*
X106680000Y-138430000D01*
X112395000Y-128270000D02*
X106680000Y-133985000D01*
X112395000Y-56515000D02*
X112395000Y-128270000D01*
X107315000Y-51435000D02*
X112395000Y-56515000D01*
X106680000Y-51435000D02*
X107315000Y-51435000D01*
X105410000Y-50165000D02*
X106680000Y-51435000D01*
X105410000Y-46355000D02*
X105410000Y-50165000D01*
%TO.N,TC*%
X109220000Y-134112500D02*
X109220000Y-138430000D01*
X113665000Y-129667500D02*
X109220000Y-134112500D01*
X113665000Y-55880000D02*
X113665000Y-129667500D01*
X107950000Y-50165000D02*
X113665000Y-55880000D01*
X107950000Y-46355000D02*
X107950000Y-50165000D01*
%TO.N,~DACK2*%
X110490000Y-50800000D02*
X110490000Y-46355000D01*
X114935000Y-55245000D02*
X110490000Y-50800000D01*
X114935000Y-130810000D02*
X114935000Y-55245000D01*
X111760000Y-133985000D02*
X114935000Y-130810000D01*
X111760000Y-138430000D02*
X111760000Y-133985000D01*
%TO.N,IRQ3*%
X114300000Y-133985000D02*
X114300000Y-138430000D01*
X116205000Y-132080000D02*
X114300000Y-133985000D01*
X116205000Y-53975000D02*
X116205000Y-132080000D01*
X113030000Y-50800000D02*
X116205000Y-53975000D01*
X113030000Y-46355000D02*
X113030000Y-50800000D01*
%TO.N,IRQ4*%
X115570000Y-50800000D02*
X115570000Y-46355000D01*
X117475000Y-52705000D02*
X115570000Y-50800000D01*
X117475000Y-133492126D02*
X117475000Y-52705000D01*
X116840000Y-134127126D02*
X117475000Y-133492126D01*
X116840000Y-138430000D02*
X116840000Y-134127126D01*
%TO.N,IRQ5*%
X118745000Y-133350000D02*
X119380000Y-133985000D01*
X118745000Y-51435000D02*
X118745000Y-133350000D01*
X119380000Y-133985000D02*
X119380000Y-138430000D01*
X118110000Y-50800000D02*
X118745000Y-51435000D01*
X118110000Y-46355000D02*
X118110000Y-50800000D01*
%TO.N,IRQ6*%
X121920000Y-133985000D02*
X121920000Y-138430000D01*
X120650000Y-132715000D02*
X121920000Y-133985000D01*
X120650000Y-46355000D02*
X120650000Y-132715000D01*
%TO.N,IRQ7*%
X124460000Y-133985000D02*
X124460000Y-138430000D01*
X122555000Y-132080000D02*
X124460000Y-133985000D01*
X123190000Y-50800000D02*
X122555000Y-51435000D01*
X123190000Y-46355000D02*
X123190000Y-50800000D01*
X122555000Y-51435000D02*
X122555000Y-132080000D01*
%TO.N,CLK*%
X123825000Y-52705000D02*
X125730000Y-50800000D01*
X123825000Y-130810000D02*
X123825000Y-52705000D01*
X125730000Y-50800000D02*
X125730000Y-46355000D01*
X127000000Y-133985000D02*
X123825000Y-130810000D01*
X127000000Y-138430000D02*
X127000000Y-133985000D01*
%TO.N,~DACK0*%
X128270000Y-50800000D02*
X128270000Y-46355000D01*
X125095000Y-53975000D02*
X128270000Y-50800000D01*
X125095000Y-129540000D02*
X125095000Y-53975000D01*
X129540000Y-133985000D02*
X125095000Y-129540000D01*
X129540000Y-138430000D02*
X129540000Y-133985000D01*
%TO.N,DRQ1*%
X132080000Y-133985000D02*
X132080000Y-138430000D01*
X126365000Y-128270000D02*
X132080000Y-133985000D01*
X126365000Y-55245000D02*
X126365000Y-128270000D01*
X130810000Y-50800000D02*
X126365000Y-55245000D01*
X130810000Y-46355000D02*
X130810000Y-50800000D01*
%TO.N,~DACK1*%
X133350000Y-50800000D02*
X133350000Y-46355000D01*
X127635000Y-56515000D02*
X133350000Y-50800000D01*
X127635000Y-127000000D02*
X127635000Y-56515000D01*
X134620000Y-133985000D02*
X127635000Y-127000000D01*
X134620000Y-138430000D02*
X134620000Y-133985000D01*
%TO.N,DRQ3*%
X128905000Y-125730000D02*
X137160000Y-133985000D01*
X137160000Y-133985000D02*
X137160000Y-138430000D01*
X135890000Y-50800000D02*
X128905000Y-57785000D01*
X128905000Y-57785000D02*
X128905000Y-125730000D01*
X135890000Y-46355000D02*
X135890000Y-50800000D01*
%TO.N,~DACK3*%
X138430000Y-51435000D02*
X138430000Y-46355000D01*
X130175000Y-59690000D02*
X138430000Y-51435000D01*
X130175000Y-124460000D02*
X130175000Y-59690000D01*
X139700000Y-133985000D02*
X130175000Y-124460000D01*
X139700000Y-138430000D02*
X139700000Y-133985000D01*
%TO.N,~IOR*%
X131445000Y-123190000D02*
X142240000Y-133985000D01*
X131445000Y-60325000D02*
X131445000Y-123190000D01*
X140970000Y-50800000D02*
X131445000Y-60325000D01*
X142240000Y-133985000D02*
X142240000Y-138430000D01*
X140970000Y-46355000D02*
X140970000Y-50800000D01*
%TO.N,~IOW*%
X142240000Y-52070000D02*
X143510000Y-50800000D01*
X141605000Y-52070000D02*
X142240000Y-52070000D01*
X143510000Y-50800000D02*
X143510000Y-46355000D01*
X132715000Y-60960000D02*
X141605000Y-52070000D01*
X144780000Y-133985000D02*
X132715000Y-121920000D01*
X132715000Y-121920000D02*
X132715000Y-60960000D01*
X144780000Y-138430000D02*
X144780000Y-133985000D01*
%TO.N,~MEMR*%
X147320000Y-133985000D02*
X147320000Y-138430000D01*
X133985000Y-120650000D02*
X147320000Y-133985000D01*
X133985000Y-61595000D02*
X133985000Y-120650000D01*
X142240000Y-53340000D02*
X133985000Y-61595000D01*
X143510000Y-53340000D02*
X142240000Y-53340000D01*
X146050000Y-50800000D02*
X143510000Y-53340000D01*
X146050000Y-46355000D02*
X146050000Y-50800000D01*
%TO.N,~MEMW*%
X148590000Y-50800000D02*
X148590000Y-46355000D01*
X144780000Y-54610000D02*
X148590000Y-50800000D01*
X142875000Y-54610000D02*
X144780000Y-54610000D01*
X135255000Y-62230000D02*
X142875000Y-54610000D01*
X135255000Y-119380000D02*
X135255000Y-62230000D01*
X149860000Y-133985000D02*
X135255000Y-119380000D01*
X149860000Y-138430000D02*
X149860000Y-133985000D01*
%TO.N,DRQ2*%
X167640000Y-120650000D02*
X162560000Y-125730000D01*
X162560000Y-125730000D02*
X162560000Y-138430000D01*
X167640000Y-63500000D02*
X167640000Y-120650000D01*
X161290000Y-57150000D02*
X167640000Y-63500000D01*
X161290000Y-46355000D02*
X161290000Y-57150000D01*
%TO.N,IRQ2*%
X167005000Y-127635000D02*
X167005000Y-133350000D01*
X176530000Y-125730000D02*
X168910000Y-125730000D01*
X168910000Y-125730000D02*
X167005000Y-127635000D01*
X180975000Y-121285000D02*
X176530000Y-125730000D01*
X180975000Y-63500000D02*
X180975000Y-121285000D01*
X175895000Y-58420000D02*
X180975000Y-63500000D01*
X168910000Y-58420000D02*
X175895000Y-58420000D01*
X165735000Y-55245000D02*
X168910000Y-58420000D01*
X167640000Y-133985000D02*
X167640000Y-138430000D01*
X165735000Y-51435000D02*
X165735000Y-55245000D01*
X166370000Y-50800000D02*
X165735000Y-51435000D01*
X167005000Y-133350000D02*
X167640000Y-133985000D01*
X166370000Y-46355000D02*
X166370000Y-50800000D01*
%TO.N,RESET*%
X171450000Y-52070000D02*
X171450000Y-46355000D01*
X175260000Y-55880000D02*
X171450000Y-52070000D01*
X177165000Y-55880000D02*
X175260000Y-55880000D01*
X182245000Y-122555000D02*
X182245000Y-60960000D01*
X182245000Y-60960000D02*
X177165000Y-55880000D01*
X172720000Y-132080000D02*
X182245000Y-122555000D01*
X172720000Y-138430000D02*
X172720000Y-132080000D01*
D18*
%TO.N,Net-(F1-Pad1)*%
X107315000Y-102235000D02*
X104775000Y-104775000D01*
X104775000Y-104775000D02*
X107315000Y-107315000D01*
X107315000Y-107315000D02*
X109855000Y-104775000D01*
X107315000Y-102235000D02*
X109855000Y-104775000D01*
X107315000Y-102235000D02*
X107315000Y-91440000D01*
%TO.N,Net-(F2-Pad1)*%
X173990000Y-91440000D02*
X173990000Y-102235000D01*
X173990000Y-102235000D02*
X171450000Y-104775000D01*
X171450000Y-104775000D02*
X173990000Y-107315000D01*
X173990000Y-107315000D02*
X176530000Y-104775000D01*
X176530000Y-104775000D02*
X173990000Y-102235000D01*
%TO.N,Net-(F3-Pad1)*%
X161290000Y-91440000D02*
X161290000Y-102235000D01*
X161290000Y-102235000D02*
X158750000Y-104775000D01*
X158750000Y-104775000D02*
X161290000Y-107315000D01*
X161290000Y-107315000D02*
X163830000Y-104775000D01*
X163830000Y-104775000D02*
X161290000Y-102235000D01*
%TO.N,Net-(F4-Pad1)*%
X146050000Y-104775000D02*
X148590000Y-102235000D01*
X148590000Y-102235000D02*
X151130000Y-104775000D01*
X151130000Y-104775000D02*
X148590000Y-107315000D01*
X146050000Y-104775000D02*
X148590000Y-107315000D01*
X148590000Y-102235000D02*
X148590000Y-91440000D01*
%TO.N,12V_OUT*%
X153670000Y-53340000D02*
X153670000Y-46355000D01*
X148590000Y-58420000D02*
X153670000Y-53340000D01*
X148590000Y-60960000D02*
X148590000Y-58420000D01*
X148590000Y-60960000D02*
X148590000Y-64135000D01*
%TO.N,-12V_OUT*%
X158750000Y-58420000D02*
X158750000Y-46355000D01*
X161290000Y-60960000D02*
X158750000Y-58420000D01*
X161290000Y-60960000D02*
X161290000Y-64135000D01*
%TO.N,-5V_OUT*%
X163830000Y-51435000D02*
X163830000Y-46355000D01*
X168275000Y-60960000D02*
X163830000Y-56515000D01*
X163830000Y-56515000D02*
X163830000Y-51435000D01*
X173990000Y-60960000D02*
X168275000Y-60960000D01*
X173990000Y-60960000D02*
X173990000Y-64135000D01*
D17*
%TO.N,UNUSED_THRU*%
X156210000Y-55880000D02*
X156210000Y-46355000D01*
X154940000Y-57150000D02*
X156210000Y-55880000D01*
X154940000Y-124460000D02*
X154940000Y-57150000D01*
X157480000Y-127000000D02*
X154940000Y-124460000D01*
X157480000Y-138430000D02*
X157480000Y-127000000D01*
D18*
%TO.N,-5V_IN*%
X165100000Y-126445000D02*
X171450000Y-120095000D01*
X165100000Y-138430000D02*
X165100000Y-126445000D01*
X171450000Y-120095000D02*
X173990000Y-117555000D01*
X173990000Y-117555000D02*
X176530000Y-120095000D01*
X176530000Y-120095000D02*
X173990000Y-122635000D01*
X173990000Y-122635000D02*
X171450000Y-120095000D01*
%TO.N,-12V_IN*%
X161290000Y-122635000D02*
X163830000Y-120095000D01*
X163830000Y-120095000D02*
X161290000Y-117555000D01*
X161290000Y-117555000D02*
X158750000Y-120095000D01*
X158750000Y-120095000D02*
X161290000Y-122635000D01*
X160020000Y-123905000D02*
X161290000Y-122635000D01*
X160020000Y-138430000D02*
X160020000Y-123905000D01*
%TO.N,12V_IN*%
X151130000Y-120095000D02*
X148590000Y-122635000D01*
X148590000Y-117555000D02*
X151130000Y-120095000D01*
X146050000Y-120095000D02*
X148590000Y-117555000D01*
X148590000Y-122635000D02*
X146050000Y-120095000D01*
X154940000Y-128985000D02*
X154940000Y-138430000D01*
X148590000Y-122635000D02*
X154940000Y-128985000D01*
%TO.N,GND2*%
X151130000Y-46355000D02*
X151130000Y-51435000D01*
X151130000Y-51435000D02*
X143827500Y-58737500D01*
D19*
X139065000Y-63500000D02*
X143827500Y-58737500D01*
X139065000Y-118745000D02*
X139065000Y-63500000D01*
D18*
X139065000Y-119424302D02*
X139065000Y-118745000D01*
X152400000Y-132759302D02*
X139065000Y-119424302D01*
X152400000Y-138430000D02*
X152400000Y-132759302D01*
%TO.N,VCC1_IN*%
X170180000Y-138430000D02*
X170180000Y-129540000D01*
%TO.N,GND1*%
X187325000Y-132715000D02*
X191770000Y-128270000D01*
X175895000Y-132715000D02*
X187325000Y-132715000D01*
X175260000Y-133350000D02*
X175895000Y-132715000D01*
X175260000Y-138430000D02*
X175260000Y-133350000D01*
X186690000Y-53340000D02*
X187325000Y-53975000D01*
X176530000Y-53340000D02*
X186690000Y-53340000D01*
X173990000Y-50800000D02*
X176530000Y-53340000D01*
X173990000Y-46355000D02*
X173990000Y-50800000D01*
%TO.N,VCC2_OUT*%
X107315000Y-55880000D02*
X107315000Y-60960000D01*
X102870000Y-51435000D02*
X107315000Y-55880000D01*
X102870000Y-46355000D02*
X102870000Y-51435000D01*
X107315000Y-60960000D02*
X107315000Y-64135000D01*
%TO.N,VCC1_OUT*%
X168910000Y-46355000D02*
X168910000Y-53975000D01*
%TO.N,GND3*%
X99060000Y-138430000D02*
X99060000Y-133794998D01*
X99060000Y-133794998D02*
X99060000Y-132715000D01*
D19*
X99060000Y-132715000D02*
X99060000Y-54610000D01*
D18*
X97790000Y-53340000D02*
X99060000Y-54610000D01*
X97790000Y-46355000D02*
X97790000Y-53340000D01*
%TO.N,VCC2_IN*%
X107315000Y-122635000D02*
X104775000Y-120095000D01*
X104775000Y-120095000D02*
X107315000Y-117555000D01*
X107315000Y-117555000D02*
X109855000Y-120095000D01*
X109855000Y-120095000D02*
X107315000Y-122635000D01*
X104775000Y-133350000D02*
X104775000Y-128905000D01*
X104140000Y-133985000D02*
X104775000Y-133350000D01*
X104140000Y-138430000D02*
X104140000Y-133985000D01*
X107315000Y-126365000D02*
X107315000Y-122635000D01*
X104775000Y-128905000D02*
X107315000Y-126365000D01*
%TD*%
D20*
%TO.N,GND1*%
X195347847Y-43450667D02*
X195368859Y-43457010D01*
X195388243Y-43467317D01*
X195405255Y-43481191D01*
X195419246Y-43498104D01*
X195429688Y-43517415D01*
X195436179Y-43538386D01*
X195444000Y-43612797D01*
X195444001Y-133293647D01*
X195436333Y-133371848D01*
X195429990Y-133392858D01*
X195419682Y-133412244D01*
X195405809Y-133429255D01*
X195388896Y-133443246D01*
X195369585Y-133453688D01*
X195348613Y-133460179D01*
X195274203Y-133468000D01*
X185412192Y-133468000D01*
X185412192Y-43443000D01*
X195269657Y-43443000D01*
X195347847Y-43450667D01*
%TA.AperFunction,Conductor*%
D21*
G36*
X195347847Y-43450667D02*
G01*
X195368859Y-43457010D01*
X195388243Y-43467317D01*
X195405255Y-43481191D01*
X195419246Y-43498104D01*
X195429688Y-43517415D01*
X195436179Y-43538386D01*
X195444000Y-43612797D01*
X195444001Y-133293647D01*
X195436333Y-133371848D01*
X195429990Y-133392858D01*
X195419682Y-133412244D01*
X195405809Y-133429255D01*
X195388896Y-133443246D01*
X195369585Y-133453688D01*
X195348613Y-133460179D01*
X195274203Y-133468000D01*
X185412192Y-133468000D01*
X185412192Y-43443000D01*
X195269657Y-43443000D01*
X195347847Y-43450667D01*
G37*
%TD.AperFunction*%
%TD*%
M02*
