%TF.GenerationSoftware,KiCad,Pcbnew,(5.1.9)-1*%
%TF.CreationDate,2021-05-05T16:31:56+08:00*%
%TF.ProjectId,Riser,52697365-722e-46b6-9963-61645f706362,rev?*%
%TF.SameCoordinates,Original*%
%TF.FileFunction,Soldermask,Bot*%
%TF.FilePolarity,Negative*%
%FSLAX46Y46*%
G04 Gerber Fmt 4.6, Leading zero omitted, Abs format (unit mm)*
G04 Created by KiCad (PCBNEW (5.1.9)-1) date 2021-05-05 16:31:56*
%MOMM*%
%LPD*%
G01*
G04 APERTURE LIST*
%ADD10C,0.100000*%
%ADD11O,2.400000X2.400000*%
%ADD12C,2.400000*%
%ADD13C,7.000000*%
%ADD14O,2.500000X2.500000*%
%ADD15C,2.500000*%
%ADD16R,1.780000X7.620000*%
%ADD17C,2.350000*%
G04 APERTURE END LIST*
D10*
G36*
X177800000Y-142240000D02*
G01*
X96520000Y-142240000D01*
X96520000Y-134620000D01*
X177800000Y-134620000D01*
X177800000Y-142240000D01*
G37*
X177800000Y-142240000D02*
X96520000Y-142240000D01*
X96520000Y-134620000D01*
X177800000Y-134620000D01*
X177800000Y-142240000D01*
D11*
%TO.C,R2*%
X173990000Y-91440000D03*
D12*
X173990000Y-60960000D03*
X173990000Y-64135000D03*
%TD*%
D11*
%TO.C,R3*%
X161290000Y-91440000D03*
D12*
X161290000Y-60960000D03*
X161290000Y-64135000D03*
%TD*%
D11*
%TO.C,R4*%
X148590000Y-91440000D03*
D12*
X148590000Y-60960000D03*
X148590000Y-64135000D03*
%TD*%
D11*
%TO.C,R1*%
X107315000Y-91440000D03*
D12*
X107315000Y-60960000D03*
X107315000Y-64135000D03*
%TD*%
D13*
%TO.C,H2*%
X192913000Y-116713000D03*
%TD*%
%TO.C,H1*%
X192913000Y-51181000D03*
%TD*%
D14*
%TO.C,J5*%
X99060000Y-69850000D03*
X99060000Y-82550000D03*
%TD*%
%TO.C,J4*%
X139065000Y-69850000D03*
X139065000Y-82550000D03*
%TD*%
%TO.C,J3*%
X187325000Y-69850000D03*
X187325000Y-82550000D03*
%TD*%
D15*
%TO.C,J7B1*%
X168910000Y-53975000D03*
%TD*%
%TO.C,J7A1*%
X105410000Y-53975000D03*
%TD*%
%TO.C,J6B1*%
X170180000Y-128905000D03*
%TD*%
%TO.C,J6A1*%
X104775000Y-128905000D03*
%TD*%
D16*
%TO.C,J2*%
X97790000Y-46355000D03*
X100330000Y-46355000D03*
X102870000Y-46355000D03*
X105410000Y-46355000D03*
X107950000Y-46355000D03*
X110490000Y-46355000D03*
X113030000Y-46355000D03*
X115570000Y-46355000D03*
X118110000Y-46355000D03*
X120650000Y-46355000D03*
X123190000Y-46355000D03*
X125730000Y-46355000D03*
X128270000Y-46355000D03*
X130810000Y-46355000D03*
X133350000Y-46355000D03*
X135890000Y-46355000D03*
X138430000Y-46355000D03*
X140970000Y-46355000D03*
X143510000Y-46355000D03*
X146050000Y-46355000D03*
X148590000Y-46355000D03*
X151130000Y-46355000D03*
X153670000Y-46355000D03*
X156210000Y-46355000D03*
X158750000Y-46355000D03*
X161290000Y-46355000D03*
X163830000Y-46355000D03*
X166370000Y-46355000D03*
X168910000Y-46355000D03*
X171450000Y-46355000D03*
X173990000Y-46355000D03*
%TD*%
D17*
%TO.C,F4*%
X146050000Y-104775000D03*
X151130000Y-104775000D03*
X146050000Y-120095000D03*
X151130000Y-120095000D03*
X148590000Y-102235000D03*
X148590000Y-107315000D03*
X148590000Y-122635000D03*
X148590000Y-117555000D03*
%TD*%
%TO.C,F3*%
X158750000Y-104775000D03*
X163830000Y-104775000D03*
X158750000Y-120095000D03*
X163830000Y-120095000D03*
X161290000Y-102235000D03*
X161290000Y-107315000D03*
X161290000Y-122635000D03*
X161290000Y-117555000D03*
%TD*%
%TO.C,F2*%
X171450000Y-104775000D03*
X176530000Y-104775000D03*
X171450000Y-120095000D03*
X176530000Y-120095000D03*
X173990000Y-102235000D03*
X173990000Y-107315000D03*
X173990000Y-122635000D03*
X173990000Y-117555000D03*
%TD*%
%TO.C,F1*%
X104775000Y-104775000D03*
X109855000Y-104775000D03*
X104775000Y-120095000D03*
X109855000Y-120095000D03*
X107315000Y-102235000D03*
X107315000Y-107315000D03*
X107315000Y-122635000D03*
X107315000Y-117555000D03*
%TD*%
D16*
%TO.C,J1*%
X99060000Y-138430000D03*
X101600000Y-138430000D03*
X104140000Y-138430000D03*
X106680000Y-138430000D03*
X109220000Y-138430000D03*
X111760000Y-138430000D03*
X114300000Y-138430000D03*
X116840000Y-138430000D03*
X119380000Y-138430000D03*
X121920000Y-138430000D03*
X124460000Y-138430000D03*
X127000000Y-138430000D03*
X129540000Y-138430000D03*
X132080000Y-138430000D03*
X134620000Y-138430000D03*
X137160000Y-138430000D03*
X139700000Y-138430000D03*
X142240000Y-138430000D03*
X144780000Y-138430000D03*
X147320000Y-138430000D03*
X149860000Y-138430000D03*
X152400000Y-138430000D03*
X154940000Y-138430000D03*
X157480000Y-138430000D03*
X160020000Y-138430000D03*
X162560000Y-138430000D03*
X165100000Y-138430000D03*
X167640000Y-138430000D03*
X170180000Y-138430000D03*
X172720000Y-138430000D03*
X175260000Y-138430000D03*
%TD*%
M02*
