%TF.GenerationSoftware,KiCad,Pcbnew,(5.1.9)-1*%
%TF.CreationDate,2021-05-05T16:31:56+08:00*%
%TF.ProjectId,Riser,52697365-722e-46b6-9963-61645f706362,rev?*%
%TF.SameCoordinates,Original*%
%TF.FileFunction,Copper,L1,Top*%
%TF.FilePolarity,Positive*%
%FSLAX46Y46*%
G04 Gerber Fmt 4.6, Leading zero omitted, Abs format (unit mm)*
G04 Created by KiCad (PCBNEW (5.1.9)-1) date 2021-05-05 16:31:56*
%MOMM*%
%LPD*%
G01*
G04 APERTURE LIST*
%TA.AperFunction,ComponentPad*%
%ADD10O,2.400000X2.400000*%
%TD*%
%TA.AperFunction,ComponentPad*%
%ADD11C,2.400000*%
%TD*%
%TA.AperFunction,ComponentPad*%
%ADD12C,7.000000*%
%TD*%
%TA.AperFunction,ComponentPad*%
%ADD13O,2.500000X2.500000*%
%TD*%
%TA.AperFunction,ComponentPad*%
%ADD14C,2.500000*%
%TD*%
%TA.AperFunction,ConnectorPad*%
%ADD15R,1.780000X7.620000*%
%TD*%
%TA.AperFunction,ComponentPad*%
%ADD16C,2.350000*%
%TD*%
%TA.AperFunction,Conductor*%
%ADD17C,0.400000*%
%TD*%
G04 APERTURE END LIST*
D10*
%TO.P,R2,2*%
%TO.N,Net-(F2-Pad1)*%
X173990000Y-91440000D03*
D11*
%TO.P,R2,1*%
%TO.N,-5V_OUT*%
X173990000Y-60960000D03*
X173990000Y-64135000D03*
%TD*%
D10*
%TO.P,R3,2*%
%TO.N,Net-(F3-Pad1)*%
X161290000Y-91440000D03*
D11*
%TO.P,R3,1*%
%TO.N,-12V_OUT*%
X161290000Y-60960000D03*
X161290000Y-64135000D03*
%TD*%
D10*
%TO.P,R4,2*%
%TO.N,Net-(F4-Pad1)*%
X148590000Y-91440000D03*
D11*
%TO.P,R4,1*%
%TO.N,12V_OUT*%
X148590000Y-60960000D03*
X148590000Y-64135000D03*
%TD*%
D10*
%TO.P,R1,2*%
%TO.N,Net-(F1-Pad1)*%
X107315000Y-91440000D03*
D11*
%TO.P,R1,1*%
%TO.N,VCC2_OUT*%
X107315000Y-60960000D03*
X107315000Y-64135000D03*
%TD*%
D12*
%TO.P,H2,1*%
%TO.N,GND1*%
X192913000Y-116713000D03*
%TD*%
%TO.P,H1,1*%
%TO.N,GND1*%
X192913000Y-51181000D03*
%TD*%
D13*
%TO.P,J5,1*%
%TO.N,GND3*%
X99060000Y-69850000D03*
%TO.P,J5,2*%
X99060000Y-82550000D03*
%TD*%
%TO.P,J4,1*%
%TO.N,GND2*%
X139065000Y-69850000D03*
%TO.P,J4,2*%
X139065000Y-82550000D03*
%TD*%
%TO.P,J3,1*%
%TO.N,GND1*%
X187325000Y-69850000D03*
%TO.P,J3,2*%
X187325000Y-82550000D03*
%TD*%
D14*
%TO.P,J7B1,1*%
%TO.N,VCC1_OUT*%
X168910000Y-53975000D03*
%TD*%
%TO.P,J7A1,1*%
%TO.N,VCC2_OUT*%
X105410000Y-53975000D03*
%TD*%
%TO.P,J6B1,1*%
%TO.N,VCC1_IN*%
X170180000Y-128905000D03*
%TD*%
%TO.P,J6A1,1*%
%TO.N,VCC2_IN*%
X104775000Y-128905000D03*
%TD*%
D15*
%TO.P,J2,62*%
%TO.N,A00*%
X97790000Y-46355000D03*
%TO.P,J2,61*%
%TO.N,A01*%
X100330000Y-46355000D03*
%TO.P,J2,60*%
%TO.N,A02*%
X102870000Y-46355000D03*
%TO.P,J2,59*%
%TO.N,A03*%
X105410000Y-46355000D03*
%TO.P,J2,58*%
%TO.N,A04*%
X107950000Y-46355000D03*
%TO.P,J2,57*%
%TO.N,A05*%
X110490000Y-46355000D03*
%TO.P,J2,56*%
%TO.N,A06*%
X113030000Y-46355000D03*
%TO.P,J2,55*%
%TO.N,A07*%
X115570000Y-46355000D03*
%TO.P,J2,54*%
%TO.N,A08*%
X118110000Y-46355000D03*
%TO.P,J2,53*%
%TO.N,A09*%
X120650000Y-46355000D03*
%TO.P,J2,52*%
%TO.N,A10*%
X123190000Y-46355000D03*
%TO.P,J2,51*%
%TO.N,A11*%
X125730000Y-46355000D03*
%TO.P,J2,50*%
%TO.N,A12*%
X128270000Y-46355000D03*
%TO.P,J2,49*%
%TO.N,A13*%
X130810000Y-46355000D03*
%TO.P,J2,48*%
%TO.N,A14*%
X133350000Y-46355000D03*
%TO.P,J2,47*%
%TO.N,A15*%
X135890000Y-46355000D03*
%TO.P,J2,46*%
%TO.N,A16*%
X138430000Y-46355000D03*
%TO.P,J2,45*%
%TO.N,A17*%
X140970000Y-46355000D03*
%TO.P,J2,44*%
%TO.N,A18*%
X143510000Y-46355000D03*
%TO.P,J2,43*%
%TO.N,A19*%
X146050000Y-46355000D03*
%TO.P,J2,42*%
%TO.N,AEN*%
X148590000Y-46355000D03*
%TO.P,J2,41*%
%TO.N,IOCHRDY*%
X151130000Y-46355000D03*
%TO.P,J2,40*%
%TO.N,D0*%
X153670000Y-46355000D03*
%TO.P,J2,39*%
%TO.N,D1*%
X156210000Y-46355000D03*
%TO.P,J2,38*%
%TO.N,D2*%
X158750000Y-46355000D03*
%TO.P,J2,37*%
%TO.N,D3*%
X161290000Y-46355000D03*
%TO.P,J2,36*%
%TO.N,D4*%
X163830000Y-46355000D03*
%TO.P,J2,35*%
%TO.N,D5*%
X166370000Y-46355000D03*
%TO.P,J2,34*%
%TO.N,D6*%
X168910000Y-46355000D03*
%TO.P,J2,33*%
%TO.N,D7*%
X171450000Y-46355000D03*
%TO.P,J2,32*%
%TO.N,~IO_CH_CK*%
X173990000Y-46355000D03*
%TD*%
D16*
%TO.P,F4,1*%
%TO.N,Net-(F4-Pad1)*%
X146050000Y-104775000D03*
X151130000Y-104775000D03*
%TO.P,F4,2*%
%TO.N,12V_IN*%
X146050000Y-120095000D03*
X151130000Y-120095000D03*
%TO.P,F4,1*%
%TO.N,Net-(F4-Pad1)*%
X148590000Y-102235000D03*
X148590000Y-107315000D03*
%TO.P,F4,2*%
%TO.N,12V_IN*%
X148590000Y-122635000D03*
X148590000Y-117555000D03*
%TD*%
%TO.P,F3,1*%
%TO.N,Net-(F3-Pad1)*%
X158750000Y-104775000D03*
X163830000Y-104775000D03*
%TO.P,F3,2*%
%TO.N,-12V_IN*%
X158750000Y-120095000D03*
X163830000Y-120095000D03*
%TO.P,F3,1*%
%TO.N,Net-(F3-Pad1)*%
X161290000Y-102235000D03*
X161290000Y-107315000D03*
%TO.P,F3,2*%
%TO.N,-12V_IN*%
X161290000Y-122635000D03*
X161290000Y-117555000D03*
%TD*%
%TO.P,F2,1*%
%TO.N,Net-(F2-Pad1)*%
X171450000Y-104775000D03*
X176530000Y-104775000D03*
%TO.P,F2,2*%
%TO.N,-5V_IN*%
X171450000Y-120095000D03*
X176530000Y-120095000D03*
%TO.P,F2,1*%
%TO.N,Net-(F2-Pad1)*%
X173990000Y-102235000D03*
X173990000Y-107315000D03*
%TO.P,F2,2*%
%TO.N,-5V_IN*%
X173990000Y-122635000D03*
X173990000Y-117555000D03*
%TD*%
%TO.P,F1,1*%
%TO.N,Net-(F1-Pad1)*%
X104775000Y-104775000D03*
X109855000Y-104775000D03*
%TO.P,F1,2*%
%TO.N,VCC2_IN*%
X104775000Y-120095000D03*
X109855000Y-120095000D03*
%TO.P,F1,1*%
%TO.N,Net-(F1-Pad1)*%
X107315000Y-102235000D03*
X107315000Y-107315000D03*
%TO.P,F1,2*%
%TO.N,VCC2_IN*%
X107315000Y-122635000D03*
X107315000Y-117555000D03*
%TD*%
D15*
%TO.P,J1,62*%
%TO.N,A00*%
X99060000Y-138430000D03*
%TO.P,J1,61*%
%TO.N,A01*%
X101600000Y-138430000D03*
%TO.P,J1,60*%
%TO.N,A02*%
X104140000Y-138430000D03*
%TO.P,J1,59*%
%TO.N,A03*%
X106680000Y-138430000D03*
%TO.P,J1,58*%
%TO.N,A04*%
X109220000Y-138430000D03*
%TO.P,J1,57*%
%TO.N,A05*%
X111760000Y-138430000D03*
%TO.P,J1,56*%
%TO.N,A06*%
X114300000Y-138430000D03*
%TO.P,J1,55*%
%TO.N,A07*%
X116840000Y-138430000D03*
%TO.P,J1,54*%
%TO.N,A08*%
X119380000Y-138430000D03*
%TO.P,J1,53*%
%TO.N,A09*%
X121920000Y-138430000D03*
%TO.P,J1,52*%
%TO.N,A10*%
X124460000Y-138430000D03*
%TO.P,J1,51*%
%TO.N,A11*%
X127000000Y-138430000D03*
%TO.P,J1,50*%
%TO.N,A12*%
X129540000Y-138430000D03*
%TO.P,J1,49*%
%TO.N,A13*%
X132080000Y-138430000D03*
%TO.P,J1,48*%
%TO.N,A14*%
X134620000Y-138430000D03*
%TO.P,J1,47*%
%TO.N,A15*%
X137160000Y-138430000D03*
%TO.P,J1,46*%
%TO.N,A16*%
X139700000Y-138430000D03*
%TO.P,J1,45*%
%TO.N,A17*%
X142240000Y-138430000D03*
%TO.P,J1,44*%
%TO.N,A18*%
X144780000Y-138430000D03*
%TO.P,J1,43*%
%TO.N,A19*%
X147320000Y-138430000D03*
%TO.P,J1,42*%
%TO.N,AEN*%
X149860000Y-138430000D03*
%TO.P,J1,41*%
%TO.N,IOCHRDY*%
X152400000Y-138430000D03*
%TO.P,J1,40*%
%TO.N,D0*%
X154940000Y-138430000D03*
%TO.P,J1,39*%
%TO.N,D1*%
X157480000Y-138430000D03*
%TO.P,J1,38*%
%TO.N,D2*%
X160020000Y-138430000D03*
%TO.P,J1,37*%
%TO.N,D3*%
X162560000Y-138430000D03*
%TO.P,J1,36*%
%TO.N,D4*%
X165100000Y-138430000D03*
%TO.P,J1,35*%
%TO.N,D5*%
X167640000Y-138430000D03*
%TO.P,J1,34*%
%TO.N,D6*%
X170180000Y-138430000D03*
%TO.P,J1,33*%
%TO.N,D7*%
X172720000Y-138430000D03*
%TO.P,J1,32*%
%TO.N,~IO_CH_CK*%
X175260000Y-138430000D03*
%TD*%
D17*
%TO.N,A00*%
X99060000Y-91440000D02*
X99060000Y-138430000D01*
X102235000Y-64452500D02*
X102235000Y-88265000D01*
X99695000Y-52705000D02*
X99695000Y-61912500D01*
X99695000Y-61912500D02*
X102235000Y-64452500D01*
X97790000Y-50800000D02*
X99695000Y-52705000D01*
X102235000Y-88265000D02*
X99060000Y-91440000D01*
X97790000Y-46355000D02*
X97790000Y-50800000D01*
%TO.N,A01*%
X100330000Y-50800000D02*
X100330000Y-46355000D01*
X100965000Y-60960000D02*
X100965000Y-51435000D01*
X103505000Y-63500000D02*
X100965000Y-60960000D01*
X100330000Y-92075000D02*
X103505000Y-88900000D01*
X100330000Y-132715000D02*
X100330000Y-92075000D01*
X103505000Y-88900000D02*
X103505000Y-63500000D01*
X101600000Y-133985000D02*
X100330000Y-132715000D01*
X100965000Y-51435000D02*
X100330000Y-50800000D01*
X101600000Y-138430000D02*
X101600000Y-133985000D01*
%TO.N,A02*%
X102870000Y-50800000D02*
X102870000Y-46355000D01*
X102235000Y-51435000D02*
X102870000Y-50800000D01*
X104862686Y-62865000D02*
X102235000Y-60237314D01*
X101600000Y-92710000D02*
X104862686Y-89447314D01*
X102235000Y-60237314D02*
X102235000Y-51435000D01*
X101600000Y-131445000D02*
X101600000Y-92710000D01*
X104140000Y-133985000D02*
X101600000Y-131445000D01*
X104862686Y-89447314D02*
X104862686Y-62865000D01*
X104140000Y-138430000D02*
X104140000Y-133985000D01*
%TO.N,A03*%
X106680000Y-133985000D02*
X106680000Y-138430000D01*
X112395000Y-128270000D02*
X106680000Y-133985000D01*
X112395000Y-56515000D02*
X112395000Y-128270000D01*
X107315000Y-51435000D02*
X112395000Y-56515000D01*
X106680000Y-51435000D02*
X107315000Y-51435000D01*
X105410000Y-50165000D02*
X106680000Y-51435000D01*
X105410000Y-46355000D02*
X105410000Y-50165000D01*
%TO.N,A04*%
X109220000Y-133985000D02*
X109220000Y-138430000D01*
X113665000Y-129540000D02*
X109220000Y-133985000D01*
X113665000Y-55880000D02*
X113665000Y-129540000D01*
X107950000Y-50165000D02*
X113665000Y-55880000D01*
X107950000Y-46355000D02*
X107950000Y-50165000D01*
%TO.N,A05*%
X110490000Y-50800000D02*
X110490000Y-46355000D01*
X114935000Y-55245000D02*
X110490000Y-50800000D01*
X114935000Y-130810000D02*
X114935000Y-55245000D01*
X111760000Y-133985000D02*
X114935000Y-130810000D01*
X111760000Y-138430000D02*
X111760000Y-133985000D01*
%TO.N,A06*%
X114300000Y-133985000D02*
X114300000Y-138430000D01*
X116205000Y-132080000D02*
X114300000Y-133985000D01*
X116205000Y-53975000D02*
X116205000Y-132080000D01*
X113030000Y-50800000D02*
X116205000Y-53975000D01*
X113030000Y-46355000D02*
X113030000Y-50800000D01*
%TO.N,A07*%
X115570000Y-50800000D02*
X115570000Y-46355000D01*
X117475000Y-52705000D02*
X115570000Y-50800000D01*
X117475000Y-133350000D02*
X117475000Y-52705000D01*
X116840000Y-133985000D02*
X117475000Y-133350000D01*
X116840000Y-138430000D02*
X116840000Y-133985000D01*
%TO.N,A08*%
X119380000Y-133985000D02*
X119380000Y-138430000D01*
X118745000Y-133350000D02*
X119380000Y-133985000D01*
X118745000Y-51435000D02*
X118745000Y-133350000D01*
X118110000Y-50800000D02*
X118745000Y-51435000D01*
X118110000Y-46355000D02*
X118110000Y-50800000D01*
%TO.N,A09*%
X121920000Y-133985000D02*
X121920000Y-138430000D01*
X120015000Y-132080000D02*
X121920000Y-133985000D01*
X120015000Y-51435000D02*
X120015000Y-132080000D01*
X120650000Y-50800000D02*
X120015000Y-51435000D01*
X120650000Y-46355000D02*
X120650000Y-50800000D01*
%TO.N,A10*%
X124460000Y-133989813D02*
X124460000Y-138430000D01*
X121285000Y-130814813D02*
X124460000Y-133989813D01*
X121285000Y-52470000D02*
X121285000Y-130814813D01*
X123190000Y-50565000D02*
X121285000Y-52470000D01*
X123190000Y-46355000D02*
X123190000Y-50565000D01*
%TO.N,A11*%
X125730000Y-50800000D02*
X125730000Y-46355000D01*
X122555000Y-53975000D02*
X125730000Y-50800000D01*
X122555000Y-129540000D02*
X122555000Y-53975000D01*
X127000000Y-133985000D02*
X122555000Y-129540000D01*
X127000000Y-138430000D02*
X127000000Y-133985000D01*
%TO.N,A12*%
X129540000Y-133985000D02*
X129540000Y-138430000D01*
X123825000Y-128270000D02*
X129540000Y-133985000D01*
X123825000Y-55193751D02*
X123825000Y-128270000D01*
X128270000Y-50748751D02*
X123825000Y-55193751D01*
X128270000Y-46355000D02*
X128270000Y-50748751D01*
%TO.N,A13*%
X132080000Y-133985000D02*
X132080000Y-138430000D01*
X125079989Y-126984989D02*
X132080000Y-133985000D01*
X125079989Y-56530011D02*
X125079989Y-126984989D01*
X130810000Y-50800000D02*
X125079989Y-56530011D01*
X130810000Y-46355000D02*
X130810000Y-50800000D01*
%TO.N,A14*%
X133350000Y-50165000D02*
X133350000Y-46355000D01*
X126365000Y-125730000D02*
X126365000Y-57150000D01*
X134620000Y-133985000D02*
X126365000Y-125730000D01*
X126365000Y-57150000D02*
X133350000Y-50165000D01*
X134620000Y-138430000D02*
X134620000Y-133985000D01*
%TO.N,A15*%
X137160000Y-133985000D02*
X137160000Y-138430000D01*
X127635000Y-124460000D02*
X137160000Y-133985000D01*
X135890000Y-50565000D02*
X127635000Y-58820000D01*
X127635000Y-58820000D02*
X127635000Y-124460000D01*
X135890000Y-46355000D02*
X135890000Y-50565000D01*
%TO.N,A16*%
X138430000Y-50800000D02*
X138430000Y-46355000D01*
X128905000Y-60325000D02*
X138430000Y-50800000D01*
X128905000Y-123190000D02*
X128905000Y-60325000D01*
X139700000Y-133985000D02*
X128905000Y-123190000D01*
X139700000Y-138430000D02*
X139700000Y-133985000D01*
%TO.N,A17*%
X142240000Y-133985000D02*
X142240000Y-138430000D01*
X130175000Y-121920000D02*
X142240000Y-133985000D01*
X130175000Y-61595000D02*
X130175000Y-121920000D01*
X140970000Y-50800000D02*
X130175000Y-61595000D01*
X140970000Y-46355000D02*
X140970000Y-50800000D01*
%TO.N,A18*%
X143510000Y-50800000D02*
X143510000Y-46355000D01*
X131445000Y-62865000D02*
X143510000Y-50800000D01*
X131445000Y-120650000D02*
X131445000Y-62865000D01*
X144780000Y-133985000D02*
X131445000Y-120650000D01*
X144780000Y-138430000D02*
X144780000Y-133985000D01*
%TO.N,A19*%
X147320000Y-133985000D02*
X147320000Y-138430000D01*
X132715000Y-119380000D02*
X147320000Y-133985000D01*
X132715000Y-64135000D02*
X132715000Y-119380000D01*
X146050000Y-50800000D02*
X132715000Y-64135000D01*
X146050000Y-46355000D02*
X146050000Y-50800000D01*
%TO.N,AEN*%
X148590000Y-50800000D02*
X148590000Y-46355000D01*
X133985000Y-65405000D02*
X148590000Y-50800000D01*
X133985000Y-118110000D02*
X133985000Y-65405000D01*
X149860000Y-133985000D02*
X133985000Y-118110000D01*
X149860000Y-138430000D02*
X149860000Y-133985000D01*
%TO.N,IOCHRDY*%
X151130000Y-50800000D02*
X151130000Y-46355000D01*
X135255000Y-66675000D02*
X151130000Y-50800000D01*
X135255000Y-116840000D02*
X135255000Y-66675000D01*
X152400000Y-133985000D02*
X135255000Y-116840000D01*
X152400000Y-138430000D02*
X152400000Y-133985000D01*
%TO.N,D0*%
X153670000Y-50800000D02*
X153670000Y-46355000D01*
X153670000Y-132715000D02*
X153670000Y-50800000D01*
X154940000Y-133985000D02*
X153670000Y-132715000D01*
X154940000Y-138430000D02*
X154940000Y-133985000D01*
%TO.N,D1*%
X154940000Y-131445000D02*
X157480000Y-133985000D01*
X154940000Y-52070000D02*
X154940000Y-131445000D01*
X157480000Y-133985000D02*
X157480000Y-138430000D01*
X156210000Y-50800000D02*
X154940000Y-52070000D01*
X156210000Y-46355000D02*
X156210000Y-50800000D01*
%TO.N,D2*%
X158750000Y-50800000D02*
X158750000Y-46355000D01*
X156210000Y-53340000D02*
X158750000Y-50800000D01*
X156210000Y-130175000D02*
X156210000Y-53340000D01*
X160020000Y-133985000D02*
X156210000Y-130175000D01*
X160020000Y-138430000D02*
X160020000Y-133985000D01*
%TO.N,D3*%
X161290000Y-50800000D02*
X161290000Y-46355000D01*
X162560000Y-52070000D02*
X161290000Y-50800000D01*
X162560000Y-57785000D02*
X162560000Y-52070000D01*
X166370000Y-61595000D02*
X162560000Y-57785000D01*
X166370000Y-123825000D02*
X166370000Y-61595000D01*
X162560000Y-127635000D02*
X166370000Y-123825000D01*
X162560000Y-138430000D02*
X162560000Y-127635000D01*
%TO.N,D4*%
X165100000Y-127000000D02*
X165100000Y-138430000D01*
X167640000Y-124460000D02*
X165100000Y-127000000D01*
X167640000Y-60960000D02*
X167640000Y-124460000D01*
X163830000Y-57150000D02*
X167640000Y-60960000D01*
X163830000Y-46355000D02*
X163830000Y-57150000D01*
%TO.N,D5*%
X167640000Y-133985000D02*
X167640000Y-138430000D01*
X167005000Y-133350000D02*
X167640000Y-133985000D01*
X167005000Y-127000000D02*
X167005000Y-133350000D01*
X165735000Y-57150000D02*
X168910000Y-60325000D01*
X168910000Y-125095000D02*
X167005000Y-127000000D01*
X165735000Y-51435000D02*
X165735000Y-57150000D01*
X168910000Y-60325000D02*
X168910000Y-125095000D01*
X166370000Y-50800000D02*
X165735000Y-51435000D01*
X166370000Y-46355000D02*
X166370000Y-50800000D01*
%TO.N,D6*%
X170180000Y-133985000D02*
X170180000Y-138430000D01*
X180975000Y-123190000D02*
X170180000Y-133985000D01*
X180975000Y-59055000D02*
X180975000Y-123190000D01*
X175895000Y-53975000D02*
X180975000Y-59055000D01*
X173355000Y-53975000D02*
X175895000Y-53975000D01*
X170497500Y-51117500D02*
X173355000Y-53975000D01*
X168910000Y-50165000D02*
X169862500Y-51117500D01*
X169862500Y-51117500D02*
X170497500Y-51117500D01*
X168910000Y-46355000D02*
X168910000Y-50165000D01*
%TO.N,D7*%
X182245000Y-124460000D02*
X172720000Y-133985000D01*
X182245000Y-58420000D02*
X182245000Y-124460000D01*
X176530000Y-52705000D02*
X182245000Y-58420000D01*
X173990000Y-52705000D02*
X176530000Y-52705000D01*
X171450000Y-50165000D02*
X173990000Y-52705000D01*
X172720000Y-133985000D02*
X172720000Y-138430000D01*
X171450000Y-46355000D02*
X171450000Y-50165000D01*
%TO.N,~IO_CH_CK*%
X175260000Y-133985000D02*
X175260000Y-138430000D01*
X183515000Y-125730000D02*
X175260000Y-133985000D01*
X183515000Y-57785000D02*
X183515000Y-125730000D01*
X175260000Y-51435000D02*
X177165000Y-51435000D01*
X177165000Y-51435000D02*
X183515000Y-57785000D01*
X173990000Y-50165000D02*
X175260000Y-51435000D01*
X173990000Y-46355000D02*
X173990000Y-50165000D01*
%TD*%
M02*
