%TF.GenerationSoftware,KiCad,Pcbnew,(5.1.9)-1*%
%TF.CreationDate,2021-10-09T10:29:05+08:00*%
%TF.ProjectId,CFSuperLite,43465375-7065-4724-9c69-74652e6b6963,rev?*%
%TF.SameCoordinates,Original*%
%TF.FileFunction,Copper,L2,Bot*%
%TF.FilePolarity,Positive*%
%FSLAX46Y46*%
G04 Gerber Fmt 4.6, Leading zero omitted, Abs format (unit mm)*
G04 Created by KiCad (PCBNEW (5.1.9)-1) date 2021-10-09 10:29:05*
%MOMM*%
%LPD*%
G01*
G04 APERTURE LIST*
%TA.AperFunction,ComponentPad*%
%ADD10O,1.700000X1.700000*%
%TD*%
%TA.AperFunction,ComponentPad*%
%ADD11R,1.700000X1.700000*%
%TD*%
%TA.AperFunction,ComponentPad*%
%ADD12R,3.000000X3.000000*%
%TD*%
%TA.AperFunction,ComponentPad*%
%ADD13C,3.000000*%
%TD*%
%TA.AperFunction,ComponentPad*%
%ADD14O,1.600000X1.600000*%
%TD*%
%TA.AperFunction,ComponentPad*%
%ADD15R,1.600000X1.600000*%
%TD*%
%TA.AperFunction,ComponentPad*%
%ADD16C,1.000000*%
%TD*%
%TA.AperFunction,ComponentPad*%
%ADD17C,6.500000*%
%TD*%
%TA.AperFunction,ConnectorPad*%
%ADD18R,1.780000X7.620000*%
%TD*%
%TA.AperFunction,ViaPad*%
%ADD19C,0.800000*%
%TD*%
%TA.AperFunction,ViaPad*%
%ADD20C,1.000000*%
%TD*%
%TA.AperFunction,Conductor*%
%ADD21C,0.300000*%
%TD*%
%TA.AperFunction,Conductor*%
%ADD22C,1.780000*%
%TD*%
%TA.AperFunction,Conductor*%
%ADD23C,2.000000*%
%TD*%
%TA.AperFunction,Conductor*%
%ADD24C,0.500000*%
%TD*%
%TA.AperFunction,Conductor*%
%ADD25C,1.750000*%
%TD*%
%TA.AperFunction,Conductor*%
%ADD26C,1.600000*%
%TD*%
%TA.AperFunction,Conductor*%
%ADD27C,0.254000*%
%TD*%
%TA.AperFunction,Conductor*%
%ADD28C,0.100000*%
%TD*%
G04 APERTURE END LIST*
D10*
%TO.P,REF\u002A\u002A,40*%
%TO.N,N/C*%
X210820000Y-121920000D03*
%TO.P,REF\u002A\u002A,39*%
X208280000Y-121920000D03*
%TO.P,REF\u002A\u002A,38*%
X210820000Y-119380000D03*
%TO.P,REF\u002A\u002A,37*%
X208280000Y-119380000D03*
%TO.P,REF\u002A\u002A,36*%
X210820000Y-116840000D03*
%TO.P,REF\u002A\u002A,35*%
X208280000Y-116840000D03*
%TO.P,REF\u002A\u002A,34*%
X210820000Y-114300000D03*
%TO.P,REF\u002A\u002A,33*%
X208280000Y-114300000D03*
%TO.P,REF\u002A\u002A,32*%
X210820000Y-111760000D03*
%TO.P,REF\u002A\u002A,31*%
X208280000Y-111760000D03*
%TO.P,REF\u002A\u002A,30*%
X210820000Y-109220000D03*
%TO.P,REF\u002A\u002A,29*%
X208280000Y-109220000D03*
%TO.P,REF\u002A\u002A,28*%
X210820000Y-106680000D03*
%TO.P,REF\u002A\u002A,27*%
X208280000Y-106680000D03*
%TO.P,REF\u002A\u002A,26*%
X210820000Y-104140000D03*
%TO.P,REF\u002A\u002A,25*%
X208280000Y-104140000D03*
%TO.P,REF\u002A\u002A,24*%
X210820000Y-101600000D03*
%TO.P,REF\u002A\u002A,23*%
X208280000Y-101600000D03*
%TO.P,REF\u002A\u002A,22*%
X210820000Y-99060000D03*
%TO.P,REF\u002A\u002A,21*%
X208280000Y-99060000D03*
%TO.P,REF\u002A\u002A,20*%
X210820000Y-96520000D03*
%TO.P,REF\u002A\u002A,19*%
X208280000Y-96520000D03*
%TO.P,REF\u002A\u002A,18*%
X210820000Y-93980000D03*
%TO.P,REF\u002A\u002A,17*%
X208280000Y-93980000D03*
%TO.P,REF\u002A\u002A,16*%
X210820000Y-91440000D03*
%TO.P,REF\u002A\u002A,15*%
X208280000Y-91440000D03*
%TO.P,REF\u002A\u002A,14*%
X210820000Y-88900000D03*
%TO.P,REF\u002A\u002A,13*%
X208280000Y-88900000D03*
%TO.P,REF\u002A\u002A,12*%
X210820000Y-86360000D03*
%TO.P,REF\u002A\u002A,11*%
X208280000Y-86360000D03*
%TO.P,REF\u002A\u002A,10*%
X210820000Y-83820000D03*
%TO.P,REF\u002A\u002A,9*%
X208280000Y-83820000D03*
%TO.P,REF\u002A\u002A,8*%
X210820000Y-81280000D03*
%TO.P,REF\u002A\u002A,7*%
X208280000Y-81280000D03*
%TO.P,REF\u002A\u002A,6*%
X210820000Y-78740000D03*
%TO.P,REF\u002A\u002A,5*%
X208280000Y-78740000D03*
%TO.P,REF\u002A\u002A,4*%
X210820000Y-76200000D03*
%TO.P,REF\u002A\u002A,3*%
X208280000Y-76200000D03*
%TO.P,REF\u002A\u002A,2*%
X210820000Y-73660000D03*
D11*
%TO.P,REF\u002A\u002A,1*%
X208280000Y-73660000D03*
%TD*%
D12*
%TO.P,BAT1,1*%
%TO.N,Net-(BAT1-Pad1)*%
X149225000Y-69850000D03*
D13*
%TO.P,BAT1,2*%
%TO.N,GND*%
X149225000Y-49360000D03*
%TD*%
D14*
%TO.P,U1,32*%
%TO.N,VCC*%
X100965000Y-100330000D03*
%TO.P,U1,16*%
%TO.N,GND*%
X139065000Y-115570000D03*
%TO.P,U1,31*%
%TO.N,~MEMW*%
X103505000Y-100330000D03*
%TO.P,U1,15*%
%TO.N,D2*%
X136525000Y-115570000D03*
%TO.P,U1,30*%
%TO.N,GND*%
X106045000Y-100330000D03*
%TO.P,U1,14*%
%TO.N,D1*%
X133985000Y-115570000D03*
%TO.P,U1,29*%
%TO.N,A14*%
X108585000Y-100330000D03*
%TO.P,U1,13*%
%TO.N,D0*%
X131445000Y-115570000D03*
%TO.P,U1,28*%
%TO.N,A13*%
X111125000Y-100330000D03*
%TO.P,U1,12*%
%TO.N,A00*%
X128905000Y-115570000D03*
%TO.P,U1,27*%
%TO.N,A08*%
X113665000Y-100330000D03*
%TO.P,U1,11*%
%TO.N,A01*%
X126365000Y-115570000D03*
%TO.P,U1,26*%
%TO.N,A09*%
X116205000Y-100330000D03*
%TO.P,U1,10*%
%TO.N,A02*%
X123825000Y-115570000D03*
%TO.P,U1,25*%
%TO.N,A11*%
X118745000Y-100330000D03*
%TO.P,U1,9*%
%TO.N,A03*%
X121285000Y-115570000D03*
%TO.P,U1,24*%
%TO.N,~MEMR*%
X121285000Y-100330000D03*
%TO.P,U1,8*%
%TO.N,A04*%
X118745000Y-115570000D03*
%TO.P,U1,23*%
%TO.N,A10*%
X123825000Y-100330000D03*
%TO.P,U1,7*%
%TO.N,A05*%
X116205000Y-115570000D03*
%TO.P,U1,22*%
%TO.N,~CE~_BIOS_THRU*%
X126365000Y-100330000D03*
%TO.P,U1,6*%
%TO.N,A06*%
X113665000Y-115570000D03*
%TO.P,U1,21*%
%TO.N,D7*%
X128905000Y-100330000D03*
%TO.P,U1,5*%
%TO.N,A07*%
X111125000Y-115570000D03*
%TO.P,U1,20*%
%TO.N,D6*%
X131445000Y-100330000D03*
%TO.P,U1,4*%
%TO.N,A12*%
X108585000Y-115570000D03*
%TO.P,U1,19*%
%TO.N,D5*%
X133985000Y-100330000D03*
%TO.P,U1,3*%
%TO.N,ATA_ADDR_JUMPER*%
X106045000Y-115570000D03*
%TO.P,U1,18*%
%TO.N,D4*%
X136525000Y-100330000D03*
%TO.P,U1,2*%
%TO.N,V20_JUMPER*%
X103505000Y-115570000D03*
%TO.P,U1,17*%
%TO.N,D3*%
X139065000Y-100330000D03*
D15*
%TO.P,U1,1*%
%TO.N,GND*%
X100965000Y-115570000D03*
%TD*%
D14*
%TO.P,SW1,8*%
%TO.N,ROM_ADDR_JUMPER*%
X99695000Y-46990000D03*
%TO.P,SW1,4*%
%TO.N,~CE~_BIOS_DECODE*%
X107315000Y-54610000D03*
%TO.P,SW1,7*%
%TO.N,ATA_ADDR_JUMPER*%
X99695000Y-49530000D03*
%TO.P,SW1,3*%
%TO.N,GND*%
X107315000Y-52070000D03*
%TO.P,SW1,6*%
%TO.N,V20_JUMPER*%
X99695000Y-52070000D03*
%TO.P,SW1,2*%
%TO.N,GND*%
X107315000Y-49530000D03*
%TO.P,SW1,5*%
%TO.N,~CE~_BIOS_THRU*%
X99695000Y-54610000D03*
D15*
%TO.P,SW1,1*%
%TO.N,GND*%
X107315000Y-46990000D03*
%TD*%
D14*
%TO.P,U3,20*%
%TO.N,VCC*%
X100965000Y-80010000D03*
%TO.P,U3,10*%
%TO.N,GND*%
X123825000Y-87630000D03*
%TO.P,U3,19*%
%TO.N,ATA_ADDR_JUMPER*%
X103505000Y-80010000D03*
%TO.P,U3,9*%
%TO.N,RESET*%
X121285000Y-87630000D03*
%TO.P,U3,18*%
%TO.N,ROM_ADDR_JUMPER*%
X106045000Y-80010000D03*
%TO.P,U3,8*%
%TO.N,A04*%
X118745000Y-87630000D03*
%TO.P,U3,17*%
%TO.N,AEN*%
X108585000Y-80010000D03*
%TO.P,U3,7*%
%TO.N,A09*%
X116205000Y-87630000D03*
%TO.P,U3,16*%
%TO.N,~RESET*%
X111125000Y-80010000D03*
%TO.P,U3,6*%
%TO.N,A08*%
X113665000Y-87630000D03*
%TO.P,U3,15*%
%TO.N,~CS1~_ATA*%
X113665000Y-80010000D03*
%TO.P,U3,5*%
%TO.N,A07*%
X111125000Y-87630000D03*
%TO.P,U3,14*%
%TO.N,~CE~_BIOS_DECODE*%
X116205000Y-80010000D03*
%TO.P,U3,4*%
%TO.N,A06*%
X108585000Y-87630000D03*
%TO.P,U3,13*%
%TO.N,A05*%
X118745000Y-80010000D03*
%TO.P,U3,3*%
%TO.N,A15*%
X106045000Y-87630000D03*
%TO.P,U3,12*%
%TO.N,A17*%
X121285000Y-80010000D03*
%TO.P,U3,2*%
%TO.N,A18*%
X103505000Y-87630000D03*
%TO.P,U3,11*%
%TO.N,A19*%
X123825000Y-80010000D03*
D15*
%TO.P,U3,1*%
%TO.N,A16*%
X100965000Y-87630000D03*
%TD*%
D10*
%TO.P,J2,2*%
%TO.N,GND*%
X179411000Y-59817000D03*
D11*
%TO.P,J2,1*%
%TO.N,VCC*%
X181951000Y-59817000D03*
%TD*%
D10*
%TO.P,J1,40*%
%TO.N,GND*%
X167640000Y-59817000D03*
%TO.P,J1,39*%
%TO.N,Net-(J1-Pad39)*%
X165100000Y-59817000D03*
%TO.P,J1,38*%
%TO.N,VCC*%
X167640000Y-62357000D03*
%TO.P,J1,37*%
%TO.N,~CS1~_ATA*%
X165100000Y-62357000D03*
%TO.P,J1,36*%
%TO.N,A03*%
X167640000Y-64897000D03*
%TO.P,J1,35*%
%TO.N,A01*%
X165100000Y-64897000D03*
%TO.P,J1,34*%
%TO.N,Net-(J1-Pad34)*%
X167640000Y-67437000D03*
%TO.P,J1,33*%
%TO.N,A02*%
X165100000Y-67437000D03*
%TO.P,J1,32*%
%TO.N,Net-(J1-Pad32)*%
X167640000Y-69977000D03*
%TO.P,J1,31*%
%TO.N,Net-(J1-Pad31)*%
X165100000Y-69977000D03*
%TO.P,J1,30*%
%TO.N,GND*%
X167640000Y-72517000D03*
%TO.P,J1,29*%
%TO.N,VCC*%
X165100000Y-72517000D03*
%TO.P,J1,28*%
%TO.N,Net-(J1-Pad28)*%
X167640000Y-75057000D03*
%TO.P,J1,27*%
%TO.N,Net-(J1-Pad27)*%
X165100000Y-75057000D03*
%TO.P,J1,26*%
%TO.N,GND*%
X167640000Y-77597000D03*
%TO.P,J1,25*%
%TO.N,~IOR*%
X165100000Y-77597000D03*
%TO.P,J1,24*%
%TO.N,GND*%
X167640000Y-80137000D03*
%TO.P,J1,23*%
%TO.N,~IOW*%
X165100000Y-80137000D03*
%TO.P,J1,22*%
%TO.N,GND*%
X167640000Y-82677000D03*
%TO.P,J1,21*%
%TO.N,Net-(J1-Pad21)*%
X165100000Y-82677000D03*
%TO.P,J1,20*%
%TO.N,Net-(J1-Pad20)*%
X167640000Y-85217000D03*
%TO.P,J1,19*%
%TO.N,GND*%
X165100000Y-85217000D03*
%TO.P,J1,18*%
%TO.N,Net-(J1-Pad18)*%
X167640000Y-87757000D03*
%TO.P,J1,17*%
%TO.N,D0_BUF*%
X165100000Y-87757000D03*
%TO.P,J1,16*%
%TO.N,Net-(J1-Pad16)*%
X167640000Y-90297000D03*
%TO.P,J1,15*%
%TO.N,D1_BUF*%
X165100000Y-90297000D03*
%TO.P,J1,14*%
%TO.N,Net-(J1-Pad14)*%
X167640000Y-92837000D03*
%TO.P,J1,13*%
%TO.N,D2_BUF*%
X165100000Y-92837000D03*
%TO.P,J1,12*%
%TO.N,Net-(J1-Pad12)*%
X167640000Y-95377000D03*
%TO.P,J1,11*%
%TO.N,D3_BUF*%
X165100000Y-95377000D03*
%TO.P,J1,10*%
%TO.N,Net-(J1-Pad10)*%
X167640000Y-97917000D03*
%TO.P,J1,9*%
%TO.N,D4_BUF*%
X165100000Y-97917000D03*
%TO.P,J1,8*%
%TO.N,Net-(J1-Pad8)*%
X167640000Y-100457000D03*
%TO.P,J1,7*%
%TO.N,D5_BUF*%
X165100000Y-100457000D03*
%TO.P,J1,6*%
%TO.N,Net-(J1-Pad6)*%
X167640000Y-102997000D03*
%TO.P,J1,5*%
%TO.N,D6_BUF*%
X165100000Y-102997000D03*
%TO.P,J1,4*%
%TO.N,Net-(J1-Pad4)*%
X167640000Y-105537000D03*
%TO.P,J1,3*%
%TO.N,D7_BUF*%
X165100000Y-105537000D03*
%TO.P,J1,2*%
%TO.N,GND*%
X167640000Y-108077000D03*
D11*
%TO.P,J1,1*%
%TO.N,~RESET*%
X165100000Y-108077000D03*
%TD*%
D15*
%TO.P,U4,1*%
%TO.N,/XTAL1*%
X116205000Y-67310000D03*
D14*
%TO.P,U4,9*%
%TO.N,Net-(U4-Pad15)*%
X133985000Y-59690000D03*
%TO.P,U4,2*%
%TO.N,/XTAL2*%
X118745000Y-67310000D03*
%TO.P,U4,10*%
%TO.N,~CE~_BIOS_THRU*%
X131445000Y-59690000D03*
%TO.P,U4,3*%
%TO.N,A02*%
X121285000Y-67310000D03*
%TO.P,U4,11*%
%TO.N,~CE~_BIOS_DECODE*%
X128905000Y-59690000D03*
%TO.P,U4,4*%
%TO.N,Net-(BAT1-Pad1)*%
X123825000Y-67310000D03*
%TO.P,U4,12*%
%TO.N,~MEMR*%
X126365000Y-59690000D03*
%TO.P,U4,5*%
%TO.N,GND*%
X126365000Y-67310000D03*
%TO.P,U4,13*%
%TO.N,VCC*%
X123825000Y-59690000D03*
%TO.P,U4,6*%
%TO.N,A00*%
X128905000Y-67310000D03*
%TO.P,U4,14*%
%TO.N,GND*%
X121285000Y-59690000D03*
%TO.P,U4,7*%
%TO.N,D0*%
X131445000Y-67310000D03*
%TO.P,U4,15*%
%TO.N,Net-(U4-Pad15)*%
X118745000Y-59690000D03*
%TO.P,U4,8*%
%TO.N,GND*%
X133985000Y-67310000D03*
%TO.P,U4,16*%
%TO.N,VCC*%
X116205000Y-59690000D03*
%TD*%
D16*
%TO.P,Y1,2*%
%TO.N,/XTAL1*%
X116205000Y-70490000D03*
%TO.P,Y1,1*%
%TO.N,/XTAL2*%
X116205000Y-72390000D03*
%TD*%
D17*
%TO.P,H4,1*%
%TO.N,GND*%
X192913000Y-116713000D03*
%TD*%
D14*
%TO.P,U2,20*%
%TO.N,VCC*%
X133985000Y-80010000D03*
%TO.P,U2,10*%
%TO.N,GND*%
X156845000Y-87630000D03*
%TO.P,U2,19*%
%TO.N,~CS1~_ATA*%
X136525000Y-80010000D03*
%TO.P,U2,9*%
%TO.N,D7*%
X154305000Y-87630000D03*
%TO.P,U2,18*%
%TO.N,D0_BUF*%
X139065000Y-80010000D03*
%TO.P,U2,8*%
%TO.N,D6*%
X151765000Y-87630000D03*
%TO.P,U2,17*%
%TO.N,D1_BUF*%
X141605000Y-80010000D03*
%TO.P,U2,7*%
%TO.N,D5*%
X149225000Y-87630000D03*
%TO.P,U2,16*%
%TO.N,D2_BUF*%
X144145000Y-80010000D03*
%TO.P,U2,6*%
%TO.N,D4*%
X146685000Y-87630000D03*
%TO.P,U2,15*%
%TO.N,D3_BUF*%
X146685000Y-80010000D03*
%TO.P,U2,5*%
%TO.N,D3*%
X144145000Y-87630000D03*
%TO.P,U2,14*%
%TO.N,D4_BUF*%
X149225000Y-80010000D03*
%TO.P,U2,4*%
%TO.N,D2*%
X141605000Y-87630000D03*
%TO.P,U2,13*%
%TO.N,D5_BUF*%
X151765000Y-80010000D03*
%TO.P,U2,3*%
%TO.N,D1*%
X139065000Y-87630000D03*
%TO.P,U2,12*%
%TO.N,D6_BUF*%
X154305000Y-80010000D03*
%TO.P,U2,2*%
%TO.N,D0*%
X136525000Y-87630000D03*
%TO.P,U2,11*%
%TO.N,D7_BUF*%
X156845000Y-80010000D03*
D15*
%TO.P,U2,1*%
%TO.N,~IOR*%
X133985000Y-87630000D03*
%TD*%
D17*
%TO.P,H3,1*%
%TO.N,GND*%
X166370000Y-116713000D03*
%TD*%
%TO.P,H1,1*%
%TO.N,GND*%
X166370000Y-51181000D03*
%TD*%
%TO.P,H2,1*%
%TO.N,GND*%
X192913000Y-51181000D03*
%TD*%
D18*
%TO.P,J3,31*%
%TO.N,GND*%
X99060000Y-138430000D03*
%TO.P,J3,30*%
%TO.N,Net-(J3-Pad30)*%
X101600000Y-138430000D03*
%TO.P,J3,29*%
%TO.N,VCC*%
X104140000Y-138430000D03*
%TO.P,J3,28*%
%TO.N,Net-(J3-Pad28)*%
X106680000Y-138430000D03*
%TO.P,J3,27*%
%TO.N,Net-(J3-Pad27)*%
X109220000Y-138430000D03*
%TO.P,J3,26*%
%TO.N,Net-(J3-Pad26)*%
X111760000Y-138430000D03*
%TO.P,J3,25*%
%TO.N,Net-(J3-Pad25)*%
X114300000Y-138430000D03*
%TO.P,J3,24*%
%TO.N,Net-(J3-Pad24)*%
X116840000Y-138430000D03*
%TO.P,J3,23*%
%TO.N,Net-(J3-Pad23)*%
X119380000Y-138430000D03*
%TO.P,J3,22*%
%TO.N,Net-(J3-Pad22)*%
X121920000Y-138430000D03*
%TO.P,J3,21*%
%TO.N,Net-(J3-Pad21)*%
X124460000Y-138430000D03*
%TO.P,J3,20*%
%TO.N,Net-(J3-Pad20)*%
X127000000Y-138430000D03*
%TO.P,J3,19*%
%TO.N,Net-(J3-Pad19)*%
X129540000Y-138430000D03*
%TO.P,J3,18*%
%TO.N,Net-(J3-Pad18)*%
X132080000Y-138430000D03*
%TO.P,J3,17*%
%TO.N,Net-(J3-Pad17)*%
X134620000Y-138430000D03*
%TO.P,J3,16*%
%TO.N,Net-(J3-Pad16)*%
X137160000Y-138430000D03*
%TO.P,J3,15*%
%TO.N,Net-(J3-Pad15)*%
X139700000Y-138430000D03*
%TO.P,J3,14*%
%TO.N,~IOR*%
X142240000Y-138430000D03*
%TO.P,J3,13*%
%TO.N,~IOW*%
X144780000Y-138430000D03*
%TO.P,J3,12*%
%TO.N,~MEMR*%
X147320000Y-138430000D03*
%TO.P,J3,11*%
%TO.N,~MEMW*%
X149860000Y-138430000D03*
%TO.P,J3,10*%
%TO.N,GND*%
X152400000Y-138430000D03*
%TO.P,J3,9*%
%TO.N,Net-(J3-Pad9)*%
X154940000Y-138430000D03*
%TO.P,J3,8*%
%TO.N,Net-(J3-Pad8)*%
X157480000Y-138430000D03*
%TO.P,J3,7*%
%TO.N,Net-(J3-Pad7)*%
X160020000Y-138430000D03*
%TO.P,J3,6*%
%TO.N,Net-(J3-Pad6)*%
X162560000Y-138430000D03*
%TO.P,J3,5*%
%TO.N,Net-(J3-Pad5)*%
X165100000Y-138430000D03*
%TO.P,J3,4*%
%TO.N,Net-(J3-Pad4)*%
X167640000Y-138430000D03*
%TO.P,J3,3*%
%TO.N,VCC*%
X170180000Y-138430000D03*
%TO.P,J3,2*%
%TO.N,RESET*%
X172720000Y-138430000D03*
%TO.P,J3,1*%
%TO.N,GND*%
X175260000Y-138430000D03*
%TD*%
D19*
%TO.N,A00*%
X130683000Y-62484000D03*
X109347000Y-66294000D03*
X102294999Y-113665000D03*
X106553000Y-109474000D03*
%TO.N,A01*%
X104775000Y-113665000D03*
X109347004Y-67818000D03*
X107315000Y-111125000D03*
%TO.N,A02*%
X112395000Y-96520000D03*
X109347000Y-70866000D03*
X127635000Y-98425000D03*
X107315000Y-113665000D03*
%TO.N,A03*%
X109795001Y-113724999D03*
X111379000Y-67310004D03*
%TO.N,A04*%
X109347000Y-119125994D03*
X117221000Y-113538000D03*
%TO.N,A05*%
X110870997Y-119126003D03*
%TO.N,A06*%
X114935000Y-97790000D03*
X108585000Y-97790000D03*
X110871000Y-117856000D03*
%TO.N,A11*%
X118744980Y-104902000D03*
X124333000Y-104902000D03*
%TO.N,A12*%
X124460000Y-118110000D03*
%TO.N,A13*%
X128143000Y-102870000D03*
%TO.N,A15*%
X130175000Y-98425000D03*
X106045000Y-95885000D03*
%TO.N,A16*%
X129159000Y-84836000D03*
%TO.N,A17*%
X129159000Y-78994000D03*
%TO.N,A18*%
X131191000Y-85852000D03*
%TO.N,A19*%
X130175000Y-80010000D03*
%TO.N,D0*%
X149987000Y-111124990D03*
%TO.N,D1*%
X152019000Y-112395000D03*
%TO.N,D2*%
X153289000Y-113664996D03*
%TO.N,D3*%
X149479000Y-100330000D03*
%TO.N,D4*%
X150241000Y-98806000D03*
%TO.N,D5*%
X153035000Y-94488000D03*
%TO.N,D6*%
X155067000Y-92456000D03*
%TO.N,D7*%
X156591000Y-102870000D03*
D20*
%TO.N,GND*%
X175260000Y-130810000D03*
X170815000Y-59690000D03*
X170815000Y-74930000D03*
X170815000Y-67310000D03*
X170815000Y-69850000D03*
X170815000Y-72390000D03*
X170815000Y-77470000D03*
X170815000Y-80010000D03*
X170815000Y-82550000D03*
X177165000Y-130810000D03*
X177165000Y-132715000D03*
X179070000Y-132715000D03*
X179070000Y-130810000D03*
X175260000Y-128905000D03*
X177165000Y-128905000D03*
X179070000Y-128905000D03*
X142621000Y-125476000D03*
X126111000Y-93726000D03*
X126619000Y-74930000D03*
X136271000Y-77470000D03*
X110285000Y-57912000D03*
X132715000Y-90932000D03*
X100965000Y-72390000D03*
X109156500Y-129794000D03*
X109156500Y-125476000D03*
X151511000Y-129794000D03*
X168021000Y-129794000D03*
X163703000Y-124968000D03*
X100965000Y-92964000D03*
X114935000Y-74930000D03*
X110285000Y-61468000D03*
X142367000Y-130556000D03*
X100965000Y-95885000D03*
X100965000Y-102362000D03*
X103251000Y-125095000D03*
X100711000Y-125095000D03*
X139065000Y-109728000D03*
X139065000Y-107188000D03*
X141351000Y-107188000D03*
X143637000Y-109728000D03*
X159385000Y-104140000D03*
X160909000Y-104140000D03*
X160909000Y-111506000D03*
X159385000Y-113284000D03*
X160909000Y-97155000D03*
X159385000Y-97155000D03*
X139319000Y-97282000D03*
X159893000Y-87630000D03*
X160909000Y-92202000D03*
X159385000Y-92202000D03*
X136017000Y-93726000D03*
X135001000Y-94742000D03*
X126873000Y-87630000D03*
X123825000Y-93726000D03*
X100965000Y-89916000D03*
X151765000Y-125370010D03*
X161925000Y-123190000D03*
X157861000Y-119126000D03*
X159639000Y-120904000D03*
X161417000Y-76454000D03*
X159131000Y-78486000D03*
X161417000Y-68326000D03*
X159639000Y-67056000D03*
X146177000Y-70612000D03*
X146177000Y-67564000D03*
X133985000Y-72390000D03*
X133985000Y-75565000D03*
X100965000Y-75565000D03*
X186690000Y-59817000D03*
X189865000Y-59817000D03*
X100965000Y-121920000D03*
X102502500Y-119634000D03*
X109156500Y-132016500D03*
X168021000Y-132334000D03*
X151511000Y-133350000D03*
X153670000Y-129794000D03*
X153670000Y-133350000D03*
X139065000Y-125476000D03*
X139065000Y-123190000D03*
X142621000Y-123190000D03*
X109156500Y-122745500D03*
X102743000Y-74090000D03*
X126111000Y-70612000D03*
X120269000Y-69342000D03*
X123825000Y-69342000D03*
X118745000Y-72898000D03*
X113030000Y-73025000D03*
X113665000Y-68580000D03*
X102235000Y-56515000D03*
X98425000Y-58420000D03*
X98425000Y-43815000D03*
X127635000Y-55880000D03*
X130810000Y-55880000D03*
X134493000Y-61976000D03*
X133985000Y-57150000D03*
X125095000Y-55880000D03*
X139065000Y-120015000D03*
X101600000Y-107950000D03*
X135763000Y-74090000D03*
X142621000Y-120015000D03*
X144907000Y-115316000D03*
%TO.N,VCC*%
X102235000Y-127635000D03*
X102235000Y-129540000D03*
X173990000Y-120015000D03*
X172085000Y-120015000D03*
X100330000Y-59690000D03*
X102919000Y-77040000D03*
X101981000Y-59690000D03*
X114300000Y-59690000D03*
D19*
%TO.N,~IOR*%
X143891000Y-132588000D03*
X162179000Y-83820000D03*
X162179000Y-112522000D03*
X144145000Y-117094000D03*
%TO.N,~IOW*%
X145161000Y-132588000D03*
X163703000Y-112522000D03*
X145161000Y-118110000D03*
%TO.N,~MEMR*%
X132715012Y-61468000D03*
X147701000Y-132588000D03*
X143891000Y-104140000D03*
%TO.N,~MEMW*%
X149225000Y-132588000D03*
X145161000Y-105664000D03*
%TO.N,RESET*%
X121793000Y-121920000D03*
X164465000Y-121158000D03*
X172720000Y-128905000D03*
%TO.N,~CS1~_ATA*%
X163195000Y-76835000D03*
%TO.N,D0_BUF*%
X139065000Y-84836000D03*
%TO.N,D1_BUF*%
X141605000Y-85725000D03*
%TO.N,D2_BUF*%
X147193000Y-93472000D03*
%TO.N,D3_BUF*%
X149987000Y-95504000D03*
%TO.N,D4_BUF*%
X152018994Y-98806000D03*
%TO.N,D5_BUF*%
X154051000Y-100076000D03*
%TO.N,D6_BUF*%
X156083000Y-101346000D03*
%TO.N,D7_BUF*%
X158115000Y-102870000D03*
%TO.N,~RESET*%
X166370000Y-81407006D03*
%TO.N,A14*%
X128143000Y-104648000D03*
%TO.N,~CE~_BIOS_DECODE*%
X126365000Y-54610000D03*
X110363000Y-63753994D03*
%TO.N,~CE~_BIOS_THRU*%
X134239000Y-54610000D03*
%TO.N,AEN*%
X136525000Y-83820000D03*
X150241000Y-123190000D03*
X153289000Y-123190000D03*
%TD*%
D21*
%TO.N,A00*%
X113157000Y-62484000D02*
X109347000Y-66294000D01*
X130683000Y-62484000D02*
X113157000Y-62484000D01*
X122809000Y-109474000D02*
X128905000Y-115570000D01*
X102694998Y-113325000D02*
X106545998Y-109474000D01*
X106545998Y-109474000D02*
X122809000Y-109474000D01*
X102294999Y-113665000D02*
X102694998Y-113325000D01*
%TO.N,A01*%
X113665004Y-63500000D02*
X109347004Y-67818000D01*
X163195000Y-63500000D02*
X113665004Y-63500000D01*
X164592000Y-64897000D02*
X163195000Y-63500000D01*
X165100000Y-64897000D02*
X164592000Y-64897000D01*
X121285000Y-110490000D02*
X126365000Y-115570000D01*
X107950000Y-110490000D02*
X121285000Y-110490000D01*
X107315000Y-111125000D02*
X107950000Y-110490000D01*
X107315000Y-111125000D02*
X104775000Y-113665000D01*
%TO.N,A02*%
X114681000Y-65532000D02*
X119507000Y-65532000D01*
X119507000Y-65532000D02*
X121285000Y-67310000D01*
X109347000Y-70866000D02*
X114681000Y-65532000D01*
X162560000Y-67437000D02*
X165100000Y-67437000D01*
X160655000Y-65532000D02*
X162560000Y-67437000D01*
X123063000Y-65532000D02*
X160655000Y-65532000D01*
X121285000Y-67310000D02*
X123063000Y-65532000D01*
X125730000Y-96520000D02*
X112395000Y-96520000D01*
X127635000Y-98425000D02*
X125730000Y-96520000D01*
X119761000Y-111506000D02*
X123825000Y-115570000D01*
X109354002Y-111506000D02*
X119761000Y-111506000D01*
X107315000Y-113665000D02*
X109354002Y-111506000D01*
%TO.N,A03*%
X110998000Y-112522000D02*
X109795001Y-113724999D01*
X118237000Y-112522000D02*
X110998000Y-112522000D01*
X121285000Y-115570000D02*
X118237000Y-112522000D01*
X114173004Y-64516000D02*
X111379000Y-67310004D01*
X161925000Y-64516000D02*
X114173004Y-64516000D01*
X163585999Y-66176999D02*
X161925000Y-64516000D01*
X166360001Y-66176999D02*
X163585999Y-66176999D01*
X167640000Y-64897000D02*
X166360001Y-66176999D01*
%TO.N,A04*%
X110363006Y-120142000D02*
X109347000Y-119125994D01*
X114173000Y-120142000D02*
X110363006Y-120142000D01*
X118745000Y-115570000D02*
X114173000Y-120142000D01*
X118745000Y-115062000D02*
X118745000Y-115570000D01*
X117221000Y-113538000D02*
X118745000Y-115062000D01*
%TO.N,A05*%
X112648997Y-119126003D02*
X110870997Y-119126003D01*
X116205000Y-115570000D02*
X112648997Y-119126003D01*
%TO.N,A06*%
X114935000Y-97790000D02*
X108585000Y-97790000D01*
X111379000Y-117856000D02*
X110871000Y-117856000D01*
X113665000Y-115570000D02*
X111379000Y-117856000D01*
%TO.N,A11*%
X124333000Y-104902000D02*
X118744980Y-104902000D01*
%TO.N,A12*%
X118745000Y-118110000D02*
X124460000Y-118110000D01*
X115443000Y-121412000D02*
X118745000Y-118110000D01*
X107785001Y-120032803D02*
X109164198Y-121412000D01*
X109164198Y-121412000D02*
X115443000Y-121412000D01*
X107785001Y-116369999D02*
X107785001Y-120032803D01*
X108585000Y-115570000D02*
X107785001Y-116369999D01*
%TO.N,A13*%
X113665000Y-102870000D02*
X111125000Y-100330000D01*
X128143000Y-102870000D02*
X113665000Y-102870000D01*
%TO.N,A15*%
X106680000Y-95250000D02*
X106045000Y-95885000D01*
X127000000Y-95250000D02*
X106680000Y-95250000D01*
X130175000Y-98425000D02*
X127000000Y-95250000D01*
%TO.N,A16*%
X103759000Y-84836000D02*
X100965000Y-87630000D01*
X129159000Y-84836000D02*
X103759000Y-84836000D01*
%TO.N,A17*%
X122555000Y-78740000D02*
X121285000Y-80010000D01*
X128905000Y-78740000D02*
X122555000Y-78740000D01*
X129159000Y-78994000D02*
X128905000Y-78740000D01*
%TO.N,A18*%
X105283000Y-85852000D02*
X103505000Y-87630000D01*
X131191000Y-85852000D02*
X105283000Y-85852000D01*
%TO.N,A19*%
X123825000Y-80010000D02*
X130175000Y-80010000D01*
%TO.N,D0*%
X135890010Y-111124990D02*
X131445000Y-115570000D01*
X149987000Y-111124990D02*
X135890010Y-111124990D01*
%TO.N,D1*%
X137160000Y-112395000D02*
X152019000Y-112395000D01*
X133985000Y-115570000D02*
X137160000Y-112395000D01*
%TO.N,D2*%
X136525000Y-115570000D02*
X138430004Y-113664996D01*
X138430004Y-113664996D02*
X153289000Y-113664996D01*
%TO.N,D3*%
X139065000Y-100330000D02*
X149479000Y-100330000D01*
%TO.N,D4*%
X150241000Y-98806000D02*
X138049000Y-98806000D01*
X138049000Y-98806000D02*
X136525000Y-100330000D01*
%TO.N,D5*%
X139827000Y-94488000D02*
X133985000Y-100330000D01*
X153035000Y-94488000D02*
X139827000Y-94488000D01*
%TO.N,D6*%
X139319000Y-92456000D02*
X131445000Y-100330000D01*
X155067000Y-92456000D02*
X139319000Y-92456000D01*
%TO.N,D7*%
X154559000Y-102362000D02*
X130937000Y-102362000D01*
X155067000Y-102870000D02*
X154559000Y-102362000D01*
X130937000Y-102362000D02*
X128905000Y-100330000D01*
X156591000Y-102870000D02*
X155067000Y-102870000D01*
%TO.N,GND*%
X175260000Y-132715000D02*
X175260000Y-130810000D01*
D22*
X175260000Y-138430000D02*
X175260000Y-132715000D01*
X99060000Y-138430000D02*
X99060000Y-126365000D01*
D21*
X170815000Y-59690000D02*
X170815000Y-64770000D01*
X170815000Y-64770000D02*
X170815000Y-67310000D01*
X170815000Y-67310000D02*
X170815000Y-69850000D01*
X170815000Y-69850000D02*
X170815000Y-72390000D01*
X170815000Y-72390000D02*
X170815000Y-77470000D01*
X170815000Y-77470000D02*
X170815000Y-80010000D01*
X170815000Y-80010000D02*
X170815000Y-82550000D01*
X175260000Y-130810000D02*
X177165000Y-130810000D01*
X175260000Y-132715000D02*
X177165000Y-132715000D01*
X177165000Y-132715000D02*
X179070000Y-132715000D01*
X177165000Y-130810000D02*
X179070000Y-130810000D01*
X175260000Y-130810000D02*
X175260000Y-128905000D01*
X175260000Y-128905000D02*
X177165000Y-128905000D01*
X177165000Y-128905000D02*
X179070000Y-128905000D01*
X98425000Y-125730000D02*
X99060000Y-126365000D01*
X98425000Y-123825000D02*
X98425000Y-125730000D01*
X165100000Y-85217000D02*
X167640000Y-82677000D01*
X127000000Y-55880000D02*
X130810000Y-55880000D01*
X125095000Y-55880000D02*
X127000000Y-55880000D01*
X127000000Y-55880000D02*
X127635000Y-55880000D01*
X132715000Y-55880000D02*
X133985000Y-57150000D01*
X130810000Y-55880000D02*
X132715000Y-55880000D01*
X107315000Y-52070000D02*
X109855000Y-52070000D01*
X107315000Y-49530000D02*
X109855000Y-49530000D01*
X107315000Y-46990000D02*
X109855000Y-46990000D01*
X133985000Y-57150000D02*
X137287000Y-57150000D01*
X137287000Y-57150000D02*
X137287000Y-61976000D01*
X137287000Y-61976000D02*
X134493000Y-61976000D01*
X145923000Y-67310000D02*
X146177000Y-67564000D01*
X133985000Y-67310000D02*
X145923000Y-67310000D01*
X156845000Y-87630000D02*
X159893000Y-87630000D01*
X152019000Y-133350000D02*
X152400000Y-132969000D01*
D22*
X152400000Y-132969000D02*
X152400000Y-131699000D01*
D21*
X151511000Y-133350000D02*
X152019000Y-133350000D01*
D22*
X152400000Y-138430000D02*
X152400000Y-132969000D01*
D21*
X153289000Y-132969000D02*
X153670000Y-133350000D01*
X152400000Y-132969000D02*
X153289000Y-132969000D01*
X163300990Y-125370010D02*
X163703000Y-124968000D01*
X151765000Y-125370010D02*
X163300990Y-125370010D01*
X143129000Y-129794000D02*
X142367000Y-130556000D01*
X151511000Y-129794000D02*
X143129000Y-129794000D01*
X139065000Y-123190000D02*
X142621000Y-123190000D01*
X142621000Y-125476000D02*
X139065000Y-125476000D01*
X142621000Y-120015000D02*
X139065000Y-120015000D01*
X123825000Y-87630000D02*
X126873000Y-87630000D01*
X129413000Y-87630000D02*
X132715000Y-90932000D01*
X126873000Y-87630000D02*
X129413000Y-87630000D01*
X135509000Y-93726000D02*
X136017000Y-93726000D01*
X132715000Y-90932000D02*
X135509000Y-93726000D01*
X136017000Y-93726000D02*
X135001000Y-94742000D01*
X123825000Y-93726000D02*
X126111000Y-93726000D01*
X108775500Y-125095000D02*
X109156500Y-125476000D01*
X103251000Y-125095000D02*
X108775500Y-125095000D01*
X101600000Y-107950000D02*
X98425000Y-107950000D01*
X98425000Y-107950000D02*
X98425000Y-123825000D01*
X98425000Y-106045000D02*
X98425000Y-107950000D01*
X100965000Y-102362000D02*
X98425000Y-102362000D01*
X98425000Y-102362000D02*
X98425000Y-106045000D01*
X109855000Y-46990000D02*
X109855000Y-43942000D01*
X109728000Y-43815000D02*
X98425000Y-43815000D01*
X109855000Y-43942000D02*
X109728000Y-43815000D01*
X98425000Y-64770000D02*
X98425000Y-58420000D01*
X98425000Y-102362000D02*
X98425000Y-64770000D01*
X101727000Y-57023000D02*
X102235000Y-56515000D01*
X99822000Y-57023000D02*
X101727000Y-57023000D01*
X98425000Y-58420000D02*
X99822000Y-57023000D01*
D22*
%TO.N,VCC*%
X170180000Y-138430000D02*
X170180000Y-133350000D01*
D23*
X102235000Y-127635000D02*
X102235000Y-129540000D01*
D24*
X168275000Y-127000000D02*
X167005000Y-127000000D01*
D23*
X102870000Y-127635000D02*
X102870000Y-127635000D01*
X102870000Y-128905000D02*
X102870000Y-128905000D01*
X172085000Y-120015000D02*
X173990000Y-120015000D01*
D24*
X170180000Y-128905000D02*
X168275000Y-127000000D01*
X170180000Y-130175000D02*
X170180000Y-128905000D01*
X170180000Y-130175000D02*
X170180000Y-129540000D01*
D23*
X102235000Y-129540000D02*
X104140000Y-131445000D01*
X107950000Y-127635000D02*
X104140000Y-131445000D01*
X105410000Y-128270000D02*
X105410000Y-128270000D01*
X104140000Y-127635000D02*
X104140000Y-131445000D01*
D22*
X104140000Y-136525000D02*
X104140000Y-131445000D01*
D25*
X104140000Y-138430000D02*
X104140000Y-136525000D01*
D23*
X170815000Y-121285000D02*
X172085000Y-120015000D01*
X173990000Y-120015000D02*
X170815000Y-123190000D01*
X170815000Y-123190000D02*
X170815000Y-121285000D01*
D24*
X170180000Y-129540000D02*
X168275000Y-127635000D01*
X168275000Y-127635000D02*
X167640000Y-127000000D01*
D23*
X168275000Y-127635000D02*
X169545000Y-127635000D01*
X170815000Y-121285000D02*
X164465000Y-127635000D01*
X102235000Y-127635000D02*
X164465000Y-127635000D01*
X168275000Y-125730000D02*
X168275000Y-127635000D01*
X168275000Y-126365000D02*
X167005000Y-127635000D01*
X168275000Y-125730000D02*
X168275000Y-126365000D01*
X164465000Y-127635000D02*
X167005000Y-127635000D01*
D26*
X131015000Y-77040000D02*
X102919000Y-77040000D01*
X133985000Y-80010000D02*
X131015000Y-77040000D01*
X116205000Y-59690000D02*
X100330000Y-59690000D01*
D23*
X171069000Y-122936000D02*
X168275000Y-125730000D01*
X167005000Y-127635000D02*
X170180000Y-127635000D01*
X170180000Y-133350000D02*
X170180000Y-123825000D01*
D26*
X100965000Y-78994000D02*
X102919000Y-77040000D01*
X100965000Y-80010000D02*
X100965000Y-78994000D01*
D21*
%TO.N,~IOR*%
X144145000Y-117094000D02*
X144168962Y-117070038D01*
X144168962Y-117070038D02*
X157630962Y-117070038D01*
X157630962Y-117070038D02*
X162179000Y-112522000D01*
X142240000Y-133858000D02*
X142240000Y-138430000D01*
X143510000Y-132588000D02*
X142240000Y-133858000D01*
X143891000Y-132588000D02*
X143510000Y-132588000D01*
X162179000Y-83820000D02*
X138049000Y-83820000D01*
X138049000Y-83820000D02*
X134239000Y-87630000D01*
X134239000Y-87630000D02*
X133985000Y-87630000D01*
%TO.N,~IOW*%
X158115000Y-118110000D02*
X163703000Y-112522000D01*
X145161000Y-118110000D02*
X158115000Y-118110000D01*
X144780000Y-133985000D02*
X144780000Y-138430000D01*
X145161000Y-133604000D02*
X144780000Y-133985000D01*
X145161000Y-132588000D02*
X145161000Y-133604000D01*
%TO.N,~MEMR*%
X126365000Y-59690000D02*
X128143000Y-61468000D01*
X128143000Y-61468000D02*
X132715012Y-61468000D01*
X147320000Y-132969000D02*
X147320000Y-138430000D01*
X147701000Y-132588000D02*
X147320000Y-132969000D01*
X122809000Y-101854000D02*
X121285000Y-100330000D01*
X128918635Y-101854000D02*
X122809000Y-101854000D01*
X131204635Y-104140000D02*
X128918635Y-101854000D01*
X143891000Y-104140000D02*
X131204635Y-104140000D01*
%TO.N,~MEMW*%
X149860000Y-133223000D02*
X149860000Y-138430000D01*
X149225000Y-132588000D02*
X149860000Y-133223000D01*
X109093000Y-105918000D02*
X103505000Y-100330000D01*
X144907000Y-105918000D02*
X109093000Y-105918000D01*
X145161000Y-105664000D02*
X144907000Y-105918000D01*
%TO.N,RESET*%
X163703000Y-121920000D02*
X121793000Y-121920000D01*
X164465000Y-121158000D02*
X163703000Y-121920000D01*
X172720000Y-128905000D02*
X172720000Y-138430000D01*
%TO.N,~CS1~_ATA*%
X134747000Y-81788000D02*
X136525000Y-80010000D01*
X115443000Y-81788000D02*
X134747000Y-81788000D01*
X113665000Y-80010000D02*
X115443000Y-81788000D01*
X158242000Y-81788000D02*
X163195000Y-76835000D01*
X138303000Y-81788000D02*
X158242000Y-81788000D01*
X136525000Y-80010000D02*
X138303000Y-81788000D01*
%TO.N,D0_BUF*%
X165100000Y-87757000D02*
X162179000Y-84836000D01*
X162179000Y-84836000D02*
X139065000Y-84836000D01*
%TO.N,D1_BUF*%
X141732000Y-85852000D02*
X141605000Y-85725000D01*
X160655000Y-85852000D02*
X141732000Y-85852000D01*
X165100000Y-90297000D02*
X160655000Y-85852000D01*
%TO.N,D2_BUF*%
X147193000Y-93472000D02*
X164465000Y-93472000D01*
X164465000Y-93472000D02*
X165100000Y-92837000D01*
%TO.N,D3_BUF*%
X164973000Y-95504000D02*
X165100000Y-95377000D01*
X149987000Y-95504000D02*
X164973000Y-95504000D01*
%TO.N,D4_BUF*%
X164211000Y-98806000D02*
X165100000Y-97917000D01*
X152018994Y-98806000D02*
X164211000Y-98806000D01*
%TO.N,D5_BUF*%
X164719000Y-100076000D02*
X165100000Y-100457000D01*
X154051000Y-100076000D02*
X164719000Y-100076000D01*
%TO.N,D6_BUF*%
X163449000Y-101346000D02*
X165100000Y-102997000D01*
X156083000Y-101346000D02*
X163449000Y-101346000D01*
%TO.N,D7_BUF*%
X165100000Y-105537000D02*
X162433000Y-102870000D01*
X162433000Y-102870000D02*
X158115000Y-102870000D01*
%TO.N,~RESET*%
X111125000Y-80010000D02*
X113919000Y-82804000D01*
X113919000Y-82804000D02*
X159956500Y-82804000D01*
X159956500Y-82804000D02*
X161353494Y-81407006D01*
X161353494Y-81407006D02*
X166370000Y-81407006D01*
%TO.N,A14*%
X112140984Y-103885984D02*
X108585000Y-100330000D01*
X127380984Y-103885984D02*
X112140984Y-103885984D01*
X128143000Y-104648000D02*
X127380984Y-103885984D01*
%TO.N,Net-(BAT1-Pad1)*%
X125603000Y-69088000D02*
X123825000Y-67310000D01*
X148463000Y-69088000D02*
X125603000Y-69088000D01*
X149225000Y-69850000D02*
X148463000Y-69088000D01*
%TO.N,Net-(U4-Pad15)*%
X119544999Y-58890001D02*
X118745000Y-59690000D01*
X121285000Y-57150000D02*
X119544999Y-58890001D01*
X131445000Y-57150000D02*
X121285000Y-57150000D01*
X133985000Y-59690000D02*
X131445000Y-57150000D01*
%TO.N,~CE~_BIOS_DECODE*%
X107315000Y-54610000D02*
X126365000Y-54610000D01*
X125095000Y-60642500D02*
X124269500Y-61468000D01*
X125850599Y-58166000D02*
X125095000Y-58921599D01*
X125095000Y-58921599D02*
X125095000Y-60642500D01*
X124269500Y-61468000D02*
X112648994Y-61468000D01*
X112648994Y-61468000D02*
X110363000Y-63753994D01*
X128905000Y-59690000D02*
X127381000Y-58166000D01*
X127381000Y-58166000D02*
X125850599Y-58166000D01*
%TO.N,~CE~_BIOS_THRU*%
X132969000Y-53340000D02*
X134239000Y-54610000D01*
X99695000Y-54610000D02*
X100965000Y-53340000D01*
X100965000Y-53340000D02*
X132969000Y-53340000D01*
%TO.N,AEN*%
X109384999Y-80809999D02*
X108585000Y-80010000D01*
X112395000Y-83820000D02*
X109384999Y-80809999D01*
X136525000Y-83820000D02*
X112395000Y-83820000D01*
X150241000Y-123190000D02*
X153289000Y-123190000D01*
%TD*%
D27*
%TO.N,GND*%
X195443869Y-42965722D02*
X195557246Y-42999953D01*
X195661819Y-43055555D01*
X195753596Y-43130407D01*
X195829091Y-43221664D01*
X195885419Y-43325844D01*
X195920440Y-43438976D01*
X195936000Y-43587022D01*
X195936000Y-48836266D01*
X195649428Y-48624177D01*
X193092605Y-51181000D01*
X195649428Y-53737823D01*
X195936000Y-53525734D01*
X195936001Y-114368267D01*
X195649428Y-114156177D01*
X193092605Y-116713000D01*
X195649428Y-119269823D01*
X195936001Y-119057733D01*
X195936001Y-133317711D01*
X195921278Y-133467869D01*
X195887047Y-133581246D01*
X195831446Y-133685817D01*
X195756594Y-133777595D01*
X195665335Y-133853091D01*
X195561160Y-133909419D01*
X195448024Y-133944440D01*
X195299979Y-133960000D01*
X178559492Y-133960000D01*
X178552333Y-133936399D01*
X178540597Y-133914443D01*
X178524803Y-133895197D01*
X178505557Y-133879403D01*
X178483601Y-133867667D01*
X178459776Y-133860440D01*
X178435000Y-133858000D01*
X173505000Y-133858000D01*
X173505000Y-129583711D01*
X173523937Y-129564774D01*
X173637205Y-129395256D01*
X173715226Y-129206898D01*
X173755000Y-129006939D01*
X173755000Y-128803061D01*
X173715226Y-128603102D01*
X173637205Y-128414744D01*
X173523937Y-128245226D01*
X173379774Y-128101063D01*
X173210256Y-127987795D01*
X173021898Y-127909774D01*
X172821939Y-127870000D01*
X172618061Y-127870000D01*
X172418102Y-127909774D01*
X172229744Y-127987795D01*
X172060226Y-128101063D01*
X171916063Y-128245226D01*
X171815000Y-128396478D01*
X171815000Y-127715322D01*
X171822911Y-127635000D01*
X171815000Y-127554678D01*
X171815000Y-124502240D01*
X171914325Y-124402915D01*
X171976714Y-124351714D01*
X172027916Y-124289323D01*
X172281916Y-124035324D01*
X172281925Y-124035313D01*
X175089319Y-121227920D01*
X175151714Y-121176714D01*
X175356031Y-120927752D01*
X175507852Y-120643715D01*
X175601343Y-120335516D01*
X175632911Y-120015000D01*
X175601343Y-119694484D01*
X175527007Y-119449428D01*
X190356177Y-119449428D01*
X190722365Y-119944216D01*
X191394837Y-120309501D01*
X192125650Y-120536575D01*
X192886721Y-120616710D01*
X193648803Y-120546828D01*
X194382608Y-120329614D01*
X195059936Y-119973416D01*
X195103635Y-119944216D01*
X195469823Y-119449428D01*
X192913000Y-116892605D01*
X190356177Y-119449428D01*
X175527007Y-119449428D01*
X175507852Y-119386285D01*
X175356031Y-119102248D01*
X175151714Y-118853286D01*
X174902752Y-118648969D01*
X174618715Y-118497148D01*
X174310516Y-118403657D01*
X174070322Y-118380000D01*
X174070319Y-118380000D01*
X173989999Y-118372089D01*
X173909680Y-118380000D01*
X172165319Y-118380000D01*
X172084999Y-118372089D01*
X172004680Y-118380000D01*
X172004678Y-118380000D01*
X171764484Y-118403657D01*
X171456285Y-118497148D01*
X171172248Y-118648969D01*
X170923286Y-118853286D01*
X170872079Y-118915682D01*
X169715682Y-120072080D01*
X169653287Y-120123286D01*
X169602085Y-120185676D01*
X163787762Y-126000000D01*
X108030322Y-126000000D01*
X107950000Y-125992089D01*
X107869678Y-126000000D01*
X104220322Y-126000000D01*
X104140000Y-125992089D01*
X104059678Y-126000000D01*
X102315322Y-126000000D01*
X102235000Y-125992089D01*
X102154678Y-126000000D01*
X101914484Y-126023657D01*
X101606285Y-126117148D01*
X101322248Y-126268969D01*
X101073286Y-126473286D01*
X100868969Y-126722248D01*
X100717148Y-127006285D01*
X100623657Y-127314484D01*
X100592089Y-127635000D01*
X100600000Y-127715322D01*
X100600001Y-129459671D01*
X100592089Y-129540000D01*
X100623658Y-129860516D01*
X100717148Y-130168714D01*
X100811737Y-130345677D01*
X100868970Y-130452752D01*
X101073287Y-130701714D01*
X101135682Y-130752920D01*
X102615001Y-132232240D01*
X102615001Y-133858000D01*
X97307000Y-133858000D01*
X97307000Y-114770000D01*
X99526928Y-114770000D01*
X99530000Y-115284250D01*
X99568000Y-115322250D01*
X99568000Y-115817750D01*
X99530000Y-115855750D01*
X99526928Y-116370000D01*
X99539188Y-116494482D01*
X99575498Y-116614180D01*
X99634463Y-116724494D01*
X99713815Y-116821185D01*
X99810506Y-116900537D01*
X99920820Y-116959502D01*
X100040518Y-116995812D01*
X100165000Y-117008072D01*
X100679250Y-117005000D01*
X100838000Y-116846250D01*
X100838000Y-115697000D01*
X100584000Y-115697000D01*
X100584000Y-115443000D01*
X100838000Y-115443000D01*
X100838000Y-114293750D01*
X101092000Y-114293750D01*
X101092000Y-115443000D01*
X101112000Y-115443000D01*
X101112000Y-115697000D01*
X101092000Y-115697000D01*
X101092000Y-116846250D01*
X101250750Y-117005000D01*
X101765000Y-117008072D01*
X101889482Y-116995812D01*
X102009180Y-116959502D01*
X102119494Y-116900537D01*
X102216185Y-116821185D01*
X102295537Y-116724494D01*
X102354502Y-116614180D01*
X102390812Y-116494482D01*
X102391643Y-116486039D01*
X102590241Y-116684637D01*
X102825273Y-116841680D01*
X103086426Y-116949853D01*
X103363665Y-117005000D01*
X103646335Y-117005000D01*
X103923574Y-116949853D01*
X104184727Y-116841680D01*
X104419759Y-116684637D01*
X104619637Y-116484759D01*
X104775000Y-116252241D01*
X104930363Y-116484759D01*
X105130241Y-116684637D01*
X105365273Y-116841680D01*
X105626426Y-116949853D01*
X105903665Y-117005000D01*
X106186335Y-117005000D01*
X106463574Y-116949853D01*
X106724727Y-116841680D01*
X106959759Y-116684637D01*
X107000001Y-116644395D01*
X107000002Y-119994240D01*
X106996204Y-120032803D01*
X107011360Y-120186689D01*
X107056247Y-120334662D01*
X107056704Y-120335517D01*
X107129140Y-120471036D01*
X107151455Y-120498226D01*
X107202656Y-120560615D01*
X107202660Y-120560619D01*
X107227238Y-120590567D01*
X107257186Y-120615145D01*
X108581856Y-121939816D01*
X108606434Y-121969764D01*
X108636382Y-121994342D01*
X108636385Y-121994345D01*
X108665757Y-122018450D01*
X108725965Y-122067862D01*
X108862338Y-122140754D01*
X109010310Y-122185641D01*
X109024688Y-122187057D01*
X109125637Y-122197000D01*
X109125644Y-122197000D01*
X109164197Y-122200797D01*
X109202750Y-122197000D01*
X115404447Y-122197000D01*
X115443000Y-122200797D01*
X115481553Y-122197000D01*
X115481561Y-122197000D01*
X115596887Y-122185641D01*
X115744860Y-122140754D01*
X115881233Y-122067862D01*
X116000764Y-121969764D01*
X116025347Y-121939810D01*
X116147096Y-121818061D01*
X120758000Y-121818061D01*
X120758000Y-122021939D01*
X120797774Y-122221898D01*
X120875795Y-122410256D01*
X120989063Y-122579774D01*
X121133226Y-122723937D01*
X121302744Y-122837205D01*
X121491102Y-122915226D01*
X121691061Y-122955000D01*
X121894939Y-122955000D01*
X122094898Y-122915226D01*
X122283256Y-122837205D01*
X122452774Y-122723937D01*
X122471711Y-122705000D01*
X149321618Y-122705000D01*
X149245774Y-122888102D01*
X149206000Y-123088061D01*
X149206000Y-123291939D01*
X149245774Y-123491898D01*
X149323795Y-123680256D01*
X149437063Y-123849774D01*
X149581226Y-123993937D01*
X149750744Y-124107205D01*
X149939102Y-124185226D01*
X150139061Y-124225000D01*
X150342939Y-124225000D01*
X150542898Y-124185226D01*
X150731256Y-124107205D01*
X150900774Y-123993937D01*
X150919711Y-123975000D01*
X152610289Y-123975000D01*
X152629226Y-123993937D01*
X152798744Y-124107205D01*
X152987102Y-124185226D01*
X153187061Y-124225000D01*
X153390939Y-124225000D01*
X153590898Y-124185226D01*
X153779256Y-124107205D01*
X153948774Y-123993937D01*
X154092937Y-123849774D01*
X154206205Y-123680256D01*
X154284226Y-123491898D01*
X154324000Y-123291939D01*
X154324000Y-123088061D01*
X154284226Y-122888102D01*
X154208382Y-122705000D01*
X163664447Y-122705000D01*
X163703000Y-122708797D01*
X163741553Y-122705000D01*
X163741561Y-122705000D01*
X163856887Y-122693641D01*
X164004860Y-122648754D01*
X164141233Y-122575862D01*
X164260764Y-122477764D01*
X164285347Y-122447810D01*
X164540157Y-122193000D01*
X164566939Y-122193000D01*
X164766898Y-122153226D01*
X164955256Y-122075205D01*
X165124774Y-121961937D01*
X165268937Y-121817774D01*
X165382205Y-121648256D01*
X165460226Y-121459898D01*
X165500000Y-121259939D01*
X165500000Y-121056061D01*
X165460226Y-120856102D01*
X165382205Y-120667744D01*
X165268937Y-120498226D01*
X165183158Y-120412447D01*
X165582650Y-120536575D01*
X166343721Y-120616710D01*
X167105803Y-120546828D01*
X167839608Y-120329614D01*
X168516936Y-119973416D01*
X168560635Y-119944216D01*
X168926823Y-119449428D01*
X166370000Y-116892605D01*
X163813177Y-119449428D01*
X164179365Y-119944216D01*
X164508498Y-120123000D01*
X164363061Y-120123000D01*
X164163102Y-120162774D01*
X163974744Y-120240795D01*
X163805226Y-120354063D01*
X163661063Y-120498226D01*
X163547795Y-120667744D01*
X163469774Y-120856102D01*
X163430000Y-121056061D01*
X163430000Y-121082843D01*
X163377843Y-121135000D01*
X122471711Y-121135000D01*
X122452774Y-121116063D01*
X122283256Y-121002795D01*
X122094898Y-120924774D01*
X121894939Y-120885000D01*
X121691061Y-120885000D01*
X121491102Y-120924774D01*
X121302744Y-121002795D01*
X121133226Y-121116063D01*
X120989063Y-121260226D01*
X120875795Y-121429744D01*
X120797774Y-121618102D01*
X120758000Y-121818061D01*
X116147096Y-121818061D01*
X119070158Y-118895000D01*
X123781289Y-118895000D01*
X123800226Y-118913937D01*
X123969744Y-119027205D01*
X124158102Y-119105226D01*
X124358061Y-119145000D01*
X124561939Y-119145000D01*
X124761898Y-119105226D01*
X124950256Y-119027205D01*
X125119774Y-118913937D01*
X125263937Y-118769774D01*
X125377205Y-118600256D01*
X125455226Y-118411898D01*
X125495000Y-118211939D01*
X125495000Y-118008061D01*
X125455226Y-117808102D01*
X125377205Y-117619744D01*
X125263937Y-117450226D01*
X125178019Y-117364308D01*
X125608476Y-116790366D01*
X125685273Y-116841680D01*
X125946426Y-116949853D01*
X126223665Y-117005000D01*
X126506335Y-117005000D01*
X126783574Y-116949853D01*
X127044727Y-116841680D01*
X127279759Y-116684637D01*
X127479637Y-116484759D01*
X127635000Y-116252241D01*
X127790363Y-116484759D01*
X127990241Y-116684637D01*
X128225273Y-116841680D01*
X128486426Y-116949853D01*
X128763665Y-117005000D01*
X129046335Y-117005000D01*
X129323574Y-116949853D01*
X129584727Y-116841680D01*
X129819759Y-116684637D01*
X130019637Y-116484759D01*
X130175000Y-116252241D01*
X130330363Y-116484759D01*
X130530241Y-116684637D01*
X130765273Y-116841680D01*
X131026426Y-116949853D01*
X131303665Y-117005000D01*
X131586335Y-117005000D01*
X131863574Y-116949853D01*
X132124727Y-116841680D01*
X132359759Y-116684637D01*
X132559637Y-116484759D01*
X132715000Y-116252241D01*
X132870363Y-116484759D01*
X133070241Y-116684637D01*
X133305273Y-116841680D01*
X133566426Y-116949853D01*
X133843665Y-117005000D01*
X134126335Y-117005000D01*
X134403574Y-116949853D01*
X134664727Y-116841680D01*
X134899759Y-116684637D01*
X135099637Y-116484759D01*
X135255000Y-116252241D01*
X135410363Y-116484759D01*
X135610241Y-116684637D01*
X135845273Y-116841680D01*
X136106426Y-116949853D01*
X136383665Y-117005000D01*
X136666335Y-117005000D01*
X136731382Y-116992061D01*
X143110000Y-116992061D01*
X143110000Y-117195939D01*
X143149774Y-117395898D01*
X143227795Y-117584256D01*
X143341063Y-117753774D01*
X143485226Y-117897937D01*
X143654744Y-118011205D01*
X143843102Y-118089226D01*
X144043061Y-118129000D01*
X144126000Y-118129000D01*
X144126000Y-118211939D01*
X144165774Y-118411898D01*
X144243795Y-118600256D01*
X144357063Y-118769774D01*
X144501226Y-118913937D01*
X144670744Y-119027205D01*
X144859102Y-119105226D01*
X145059061Y-119145000D01*
X145262939Y-119145000D01*
X145462898Y-119105226D01*
X145651256Y-119027205D01*
X145820774Y-118913937D01*
X145839711Y-118895000D01*
X158076447Y-118895000D01*
X158115000Y-118898797D01*
X158153553Y-118895000D01*
X158153561Y-118895000D01*
X158268887Y-118883641D01*
X158416860Y-118838754D01*
X158553233Y-118765862D01*
X158672764Y-118667764D01*
X158697347Y-118637810D01*
X160648436Y-116686721D01*
X162466290Y-116686721D01*
X162536172Y-117448803D01*
X162753386Y-118182608D01*
X163109584Y-118859936D01*
X163138784Y-118903635D01*
X163633572Y-119269823D01*
X166190395Y-116713000D01*
X166549605Y-116713000D01*
X169106428Y-119269823D01*
X169601216Y-118903635D01*
X169966501Y-118231163D01*
X170193575Y-117500350D01*
X170273710Y-116739279D01*
X170268891Y-116686721D01*
X189009290Y-116686721D01*
X189079172Y-117448803D01*
X189296386Y-118182608D01*
X189652584Y-118859936D01*
X189681784Y-118903635D01*
X190176572Y-119269823D01*
X192733395Y-116713000D01*
X190176572Y-114156177D01*
X189681784Y-114522365D01*
X189316499Y-115194837D01*
X189089425Y-115925650D01*
X189009290Y-116686721D01*
X170268891Y-116686721D01*
X170203828Y-115977197D01*
X169986614Y-115243392D01*
X169630416Y-114566064D01*
X169601216Y-114522365D01*
X169106428Y-114156177D01*
X166549605Y-116713000D01*
X166190395Y-116713000D01*
X163633572Y-114156177D01*
X163138784Y-114522365D01*
X162773499Y-115194837D01*
X162546425Y-115925650D01*
X162466290Y-116686721D01*
X160648436Y-116686721D01*
X163358585Y-113976572D01*
X163813177Y-113976572D01*
X166370000Y-116533395D01*
X168926823Y-113976572D01*
X190356177Y-113976572D01*
X192913000Y-116533395D01*
X195469823Y-113976572D01*
X195103635Y-113481784D01*
X194431163Y-113116499D01*
X193700350Y-112889425D01*
X192939279Y-112809290D01*
X192177197Y-112879172D01*
X191443392Y-113096386D01*
X190766064Y-113452584D01*
X190722365Y-113481784D01*
X190356177Y-113976572D01*
X168926823Y-113976572D01*
X168560635Y-113481784D01*
X167888163Y-113116499D01*
X167157350Y-112889425D01*
X166396279Y-112809290D01*
X165634197Y-112879172D01*
X164900392Y-113096386D01*
X164223064Y-113452584D01*
X164179365Y-113481784D01*
X163813177Y-113976572D01*
X163358585Y-113976572D01*
X163778158Y-113557000D01*
X163804939Y-113557000D01*
X164004898Y-113517226D01*
X164193256Y-113439205D01*
X164362774Y-113325937D01*
X164506937Y-113181774D01*
X164620205Y-113012256D01*
X164698226Y-112823898D01*
X164738000Y-112623939D01*
X164738000Y-112420061D01*
X164698226Y-112220102D01*
X164620205Y-112031744D01*
X164506937Y-111862226D01*
X164362774Y-111718063D01*
X164193256Y-111604795D01*
X164004898Y-111526774D01*
X163804939Y-111487000D01*
X163601061Y-111487000D01*
X163401102Y-111526774D01*
X163212744Y-111604795D01*
X163043226Y-111718063D01*
X162941000Y-111820289D01*
X162838774Y-111718063D01*
X162669256Y-111604795D01*
X162480898Y-111526774D01*
X162280939Y-111487000D01*
X162077061Y-111487000D01*
X161877102Y-111526774D01*
X161688744Y-111604795D01*
X161519226Y-111718063D01*
X161375063Y-111862226D01*
X161261795Y-112031744D01*
X161183774Y-112220102D01*
X161144000Y-112420061D01*
X161144000Y-112446842D01*
X157305805Y-116285038D01*
X144797254Y-116285038D01*
X144635256Y-116176795D01*
X144446898Y-116098774D01*
X144246939Y-116059000D01*
X144043061Y-116059000D01*
X143843102Y-116098774D01*
X143654744Y-116176795D01*
X143485226Y-116290063D01*
X143341063Y-116434226D01*
X143227795Y-116603744D01*
X143149774Y-116792102D01*
X143110000Y-116992061D01*
X136731382Y-116992061D01*
X136943574Y-116949853D01*
X137204727Y-116841680D01*
X137439759Y-116684637D01*
X137639637Y-116484759D01*
X137796680Y-116249727D01*
X137801067Y-116239135D01*
X137912615Y-116425131D01*
X138101586Y-116633519D01*
X138327580Y-116801037D01*
X138581913Y-116921246D01*
X138715961Y-116961904D01*
X138938000Y-116839915D01*
X138938000Y-115697000D01*
X139192000Y-115697000D01*
X139192000Y-116839915D01*
X139414039Y-116961904D01*
X139548087Y-116921246D01*
X139802420Y-116801037D01*
X140028414Y-116633519D01*
X140217385Y-116425131D01*
X140362070Y-116183881D01*
X140456909Y-115919040D01*
X140335624Y-115697000D01*
X139192000Y-115697000D01*
X138938000Y-115697000D01*
X138918000Y-115697000D01*
X138918000Y-115443000D01*
X138938000Y-115443000D01*
X138938000Y-115423000D01*
X139192000Y-115423000D01*
X139192000Y-115443000D01*
X140335624Y-115443000D01*
X140456909Y-115220960D01*
X140362070Y-114956119D01*
X140217385Y-114714869D01*
X140028414Y-114506481D01*
X139952212Y-114449996D01*
X152610289Y-114449996D01*
X152629226Y-114468933D01*
X152798744Y-114582201D01*
X152987102Y-114660222D01*
X153187061Y-114699996D01*
X153390939Y-114699996D01*
X153590898Y-114660222D01*
X153779256Y-114582201D01*
X153948774Y-114468933D01*
X154092937Y-114324770D01*
X154206205Y-114155252D01*
X154284226Y-113966894D01*
X154324000Y-113766935D01*
X154324000Y-113563057D01*
X154284226Y-113363098D01*
X154206205Y-113174740D01*
X154092937Y-113005222D01*
X153948774Y-112861059D01*
X153779256Y-112747791D01*
X153590898Y-112669770D01*
X153390939Y-112629996D01*
X153187061Y-112629996D01*
X153020962Y-112663035D01*
X153054000Y-112496939D01*
X153054000Y-112293061D01*
X153014226Y-112093102D01*
X152936205Y-111904744D01*
X152822937Y-111735226D01*
X152678774Y-111591063D01*
X152509256Y-111477795D01*
X152320898Y-111399774D01*
X152120939Y-111360000D01*
X151917061Y-111360000D01*
X151717102Y-111399774D01*
X151528744Y-111477795D01*
X151359226Y-111591063D01*
X151340289Y-111610000D01*
X150906378Y-111610000D01*
X150982226Y-111426888D01*
X151022000Y-111226929D01*
X151022000Y-111023051D01*
X150982226Y-110823092D01*
X150904205Y-110634734D01*
X150790937Y-110465216D01*
X150646774Y-110321053D01*
X150477256Y-110207785D01*
X150288898Y-110129764D01*
X150088939Y-110089990D01*
X149885061Y-110089990D01*
X149685102Y-110129764D01*
X149496744Y-110207785D01*
X149327226Y-110321053D01*
X149308289Y-110339990D01*
X135928562Y-110339990D01*
X135890009Y-110336193D01*
X135851456Y-110339990D01*
X135851449Y-110339990D01*
X135750500Y-110349933D01*
X135736122Y-110351349D01*
X135701682Y-110361796D01*
X135588150Y-110396236D01*
X135451777Y-110469128D01*
X135426345Y-110490000D01*
X135362197Y-110542645D01*
X135362194Y-110542648D01*
X135332246Y-110567226D01*
X135307668Y-110597174D01*
X131739397Y-114165446D01*
X131586335Y-114135000D01*
X131303665Y-114135000D01*
X131026426Y-114190147D01*
X130765273Y-114298320D01*
X130530241Y-114455363D01*
X130330363Y-114655241D01*
X130175000Y-114887759D01*
X130019637Y-114655241D01*
X129819759Y-114455363D01*
X129584727Y-114298320D01*
X129323574Y-114190147D01*
X129046335Y-114135000D01*
X128763665Y-114135000D01*
X128610603Y-114165446D01*
X123391347Y-108946190D01*
X123366764Y-108916236D01*
X123247233Y-108818138D01*
X123110860Y-108745246D01*
X122962887Y-108700359D01*
X122847561Y-108689000D01*
X122847553Y-108689000D01*
X122809000Y-108685203D01*
X122770447Y-108689000D01*
X107231711Y-108689000D01*
X107212774Y-108670063D01*
X107043256Y-108556795D01*
X106854898Y-108478774D01*
X106654939Y-108439000D01*
X106451061Y-108439000D01*
X106251102Y-108478774D01*
X106062744Y-108556795D01*
X105893226Y-108670063D01*
X105749063Y-108814226D01*
X105635795Y-108983744D01*
X105557774Y-109172102D01*
X105518000Y-109372061D01*
X105518000Y-109391840D01*
X102279841Y-112630000D01*
X102193060Y-112630000D01*
X101993101Y-112669774D01*
X101804743Y-112747795D01*
X101635225Y-112861063D01*
X101491062Y-113005226D01*
X101377794Y-113174744D01*
X101299773Y-113363102D01*
X101259999Y-113563061D01*
X101259999Y-113766939D01*
X101299773Y-113966898D01*
X101369111Y-114134293D01*
X101250750Y-114135000D01*
X101092000Y-114293750D01*
X100838000Y-114293750D01*
X100679250Y-114135000D01*
X100165000Y-114131928D01*
X100040518Y-114144188D01*
X99920820Y-114180498D01*
X99810506Y-114239463D01*
X99713815Y-114318815D01*
X99634463Y-114415506D01*
X99575498Y-114525820D01*
X99539188Y-114645518D01*
X99526928Y-114770000D01*
X97307000Y-114770000D01*
X97307000Y-59690000D01*
X98888057Y-59690000D01*
X98915764Y-59971309D01*
X98997818Y-60241808D01*
X99131068Y-60491101D01*
X99310392Y-60709608D01*
X99528899Y-60888932D01*
X99778192Y-61022182D01*
X100048691Y-61104236D01*
X100259508Y-61125000D01*
X111881837Y-61125000D01*
X110287843Y-62718994D01*
X110261061Y-62718994D01*
X110061102Y-62758768D01*
X109872744Y-62836789D01*
X109703226Y-62950057D01*
X109559063Y-63094220D01*
X109445795Y-63263738D01*
X109367774Y-63452096D01*
X109328000Y-63652055D01*
X109328000Y-63855933D01*
X109367774Y-64055892D01*
X109445795Y-64244250D01*
X109559063Y-64413768D01*
X109703226Y-64557931D01*
X109864891Y-64665952D01*
X109271843Y-65259000D01*
X109245061Y-65259000D01*
X109045102Y-65298774D01*
X108856744Y-65376795D01*
X108687226Y-65490063D01*
X108543063Y-65634226D01*
X108429795Y-65803744D01*
X108351774Y-65992102D01*
X108312000Y-66192061D01*
X108312000Y-66395939D01*
X108351774Y-66595898D01*
X108429795Y-66784256D01*
X108543063Y-66953774D01*
X108645291Y-67056002D01*
X108543067Y-67158226D01*
X108429799Y-67327744D01*
X108351778Y-67516102D01*
X108312004Y-67716061D01*
X108312004Y-67919939D01*
X108351778Y-68119898D01*
X108429799Y-68308256D01*
X108543067Y-68477774D01*
X108687230Y-68621937D01*
X108856748Y-68735205D01*
X109045106Y-68813226D01*
X109245065Y-68853000D01*
X109448943Y-68853000D01*
X109648902Y-68813226D01*
X109837260Y-68735205D01*
X110006778Y-68621937D01*
X110150941Y-68477774D01*
X110264209Y-68308256D01*
X110342230Y-68119898D01*
X110382004Y-67919939D01*
X110382004Y-67893157D01*
X110467045Y-67808117D01*
X110575063Y-67969778D01*
X110719226Y-68113941D01*
X110880885Y-68221958D01*
X109271843Y-69831000D01*
X109245061Y-69831000D01*
X109045102Y-69870774D01*
X108856744Y-69948795D01*
X108687226Y-70062063D01*
X108543063Y-70206226D01*
X108429795Y-70375744D01*
X108351774Y-70564102D01*
X108312000Y-70764061D01*
X108312000Y-70967939D01*
X108351774Y-71167898D01*
X108429795Y-71356256D01*
X108543063Y-71525774D01*
X108687226Y-71669937D01*
X108856744Y-71783205D01*
X109045102Y-71861226D01*
X109245061Y-71901000D01*
X109448939Y-71901000D01*
X109648898Y-71861226D01*
X109837256Y-71783205D01*
X110006774Y-71669937D01*
X110150937Y-71525774D01*
X110264205Y-71356256D01*
X110342226Y-71167898D01*
X110382000Y-70967939D01*
X110382000Y-70941157D01*
X110944945Y-70378212D01*
X115070000Y-70378212D01*
X115070000Y-70601788D01*
X115113617Y-70821067D01*
X115199176Y-71027624D01*
X115323388Y-71213520D01*
X115481480Y-71371612D01*
X115583830Y-71440000D01*
X115481480Y-71508388D01*
X115323388Y-71666480D01*
X115199176Y-71852376D01*
X115113617Y-72058933D01*
X115070000Y-72278212D01*
X115070000Y-72501788D01*
X115113617Y-72721067D01*
X115199176Y-72927624D01*
X115323388Y-73113520D01*
X115481480Y-73271612D01*
X115667376Y-73395824D01*
X115873933Y-73481383D01*
X116093212Y-73525000D01*
X116316788Y-73525000D01*
X116536067Y-73481383D01*
X116742624Y-73395824D01*
X116928520Y-73271612D01*
X117086612Y-73113520D01*
X117210824Y-72927624D01*
X117296383Y-72721067D01*
X117340000Y-72501788D01*
X117340000Y-72278212D01*
X117296383Y-72058933D01*
X117210824Y-71852376D01*
X117086612Y-71666480D01*
X116928520Y-71508388D01*
X116826170Y-71440000D01*
X116928520Y-71371612D01*
X117086612Y-71213520D01*
X117210824Y-71027624D01*
X117296383Y-70821067D01*
X117340000Y-70601788D01*
X117340000Y-70378212D01*
X117296383Y-70158933D01*
X117210824Y-69952376D01*
X117086612Y-69766480D01*
X116928520Y-69608388D01*
X116742624Y-69484176D01*
X116536067Y-69398617D01*
X116316788Y-69355000D01*
X116093212Y-69355000D01*
X115873933Y-69398617D01*
X115667376Y-69484176D01*
X115481480Y-69608388D01*
X115323388Y-69766480D01*
X115199176Y-69952376D01*
X115113617Y-70158933D01*
X115070000Y-70378212D01*
X110944945Y-70378212D01*
X114766928Y-66556230D01*
X114766928Y-68110000D01*
X114779188Y-68234482D01*
X114815498Y-68354180D01*
X114874463Y-68464494D01*
X114953815Y-68561185D01*
X115050506Y-68640537D01*
X115160820Y-68699502D01*
X115280518Y-68735812D01*
X115405000Y-68748072D01*
X117005000Y-68748072D01*
X117129482Y-68735812D01*
X117249180Y-68699502D01*
X117359494Y-68640537D01*
X117456185Y-68561185D01*
X117535537Y-68464494D01*
X117594502Y-68354180D01*
X117630812Y-68234482D01*
X117631643Y-68226039D01*
X117830241Y-68424637D01*
X118065273Y-68581680D01*
X118326426Y-68689853D01*
X118603665Y-68745000D01*
X118886335Y-68745000D01*
X119163574Y-68689853D01*
X119424727Y-68581680D01*
X119659759Y-68424637D01*
X119859637Y-68224759D01*
X120015000Y-67992241D01*
X120170363Y-68224759D01*
X120370241Y-68424637D01*
X120605273Y-68581680D01*
X120866426Y-68689853D01*
X121143665Y-68745000D01*
X121426335Y-68745000D01*
X121703574Y-68689853D01*
X121964727Y-68581680D01*
X122199759Y-68424637D01*
X122399637Y-68224759D01*
X122555000Y-67992241D01*
X122710363Y-68224759D01*
X122910241Y-68424637D01*
X123145273Y-68581680D01*
X123406426Y-68689853D01*
X123683665Y-68745000D01*
X123966335Y-68745000D01*
X124119397Y-68714554D01*
X125020653Y-69615810D01*
X125045236Y-69645764D01*
X125164767Y-69743862D01*
X125301140Y-69816754D01*
X125449113Y-69861642D01*
X125524026Y-69869020D01*
X125564439Y-69873000D01*
X125564444Y-69873000D01*
X125603000Y-69876797D01*
X125641556Y-69873000D01*
X147086928Y-69873000D01*
X147086928Y-71350000D01*
X147099188Y-71474482D01*
X147135498Y-71594180D01*
X147194463Y-71704494D01*
X147273815Y-71801185D01*
X147370506Y-71880537D01*
X147480820Y-71939502D01*
X147600518Y-71975812D01*
X147725000Y-71988072D01*
X150725000Y-71988072D01*
X150849482Y-71975812D01*
X150969180Y-71939502D01*
X151079494Y-71880537D01*
X151176185Y-71801185D01*
X151255537Y-71704494D01*
X151314502Y-71594180D01*
X151350812Y-71474482D01*
X151363072Y-71350000D01*
X151363072Y-68350000D01*
X151350812Y-68225518D01*
X151314502Y-68105820D01*
X151255537Y-67995506D01*
X151176185Y-67898815D01*
X151079494Y-67819463D01*
X150969180Y-67760498D01*
X150849482Y-67724188D01*
X150725000Y-67711928D01*
X147725000Y-67711928D01*
X147600518Y-67724188D01*
X147480820Y-67760498D01*
X147370506Y-67819463D01*
X147273815Y-67898815D01*
X147194463Y-67995506D01*
X147135498Y-68105820D01*
X147099188Y-68225518D01*
X147091557Y-68303000D01*
X135012362Y-68303000D01*
X135137385Y-68165131D01*
X135282070Y-67923881D01*
X135376909Y-67659040D01*
X135255624Y-67437000D01*
X134112000Y-67437000D01*
X134112000Y-67457000D01*
X133858000Y-67457000D01*
X133858000Y-67437000D01*
X133838000Y-67437000D01*
X133838000Y-67183000D01*
X133858000Y-67183000D01*
X133858000Y-67163000D01*
X134112000Y-67163000D01*
X134112000Y-67183000D01*
X135255624Y-67183000D01*
X135376909Y-66960960D01*
X135282070Y-66696119D01*
X135137385Y-66454869D01*
X135012362Y-66317000D01*
X160329843Y-66317000D01*
X161977653Y-67964810D01*
X162002236Y-67994764D01*
X162121767Y-68092862D01*
X162256974Y-68165131D01*
X162258140Y-68165754D01*
X162406113Y-68210642D01*
X162481026Y-68218020D01*
X162521439Y-68222000D01*
X162521444Y-68222000D01*
X162560000Y-68225797D01*
X162598556Y-68222000D01*
X163838526Y-68222000D01*
X163946525Y-68383632D01*
X164153368Y-68590475D01*
X164327760Y-68707000D01*
X164153368Y-68823525D01*
X163946525Y-69030368D01*
X163784010Y-69273589D01*
X163672068Y-69543842D01*
X163615000Y-69830740D01*
X163615000Y-70123260D01*
X163672068Y-70410158D01*
X163784010Y-70680411D01*
X163946525Y-70923632D01*
X164153368Y-71130475D01*
X164327760Y-71247000D01*
X164153368Y-71363525D01*
X163946525Y-71570368D01*
X163784010Y-71813589D01*
X163672068Y-72083842D01*
X163615000Y-72370740D01*
X163615000Y-72663260D01*
X163672068Y-72950158D01*
X163784010Y-73220411D01*
X163946525Y-73463632D01*
X164153368Y-73670475D01*
X164327760Y-73787000D01*
X164153368Y-73903525D01*
X163946525Y-74110368D01*
X163784010Y-74353589D01*
X163672068Y-74623842D01*
X163615000Y-74910740D01*
X163615000Y-75203260D01*
X163672068Y-75490158D01*
X163784010Y-75760411D01*
X163946525Y-76003632D01*
X164153368Y-76210475D01*
X164327760Y-76327000D01*
X164153368Y-76443525D01*
X164153194Y-76443699D01*
X164112205Y-76344744D01*
X163998937Y-76175226D01*
X163854774Y-76031063D01*
X163685256Y-75917795D01*
X163496898Y-75839774D01*
X163296939Y-75800000D01*
X163093061Y-75800000D01*
X162893102Y-75839774D01*
X162704744Y-75917795D01*
X162535226Y-76031063D01*
X162391063Y-76175226D01*
X162277795Y-76344744D01*
X162199774Y-76533102D01*
X162160000Y-76733061D01*
X162160000Y-76759843D01*
X157916843Y-81003000D01*
X157881396Y-81003000D01*
X157959637Y-80924759D01*
X158116680Y-80689727D01*
X158224853Y-80428574D01*
X158280000Y-80151335D01*
X158280000Y-79868665D01*
X158224853Y-79591426D01*
X158116680Y-79330273D01*
X157959637Y-79095241D01*
X157759759Y-78895363D01*
X157524727Y-78738320D01*
X157263574Y-78630147D01*
X156986335Y-78575000D01*
X156703665Y-78575000D01*
X156426426Y-78630147D01*
X156165273Y-78738320D01*
X155930241Y-78895363D01*
X155730363Y-79095241D01*
X155575000Y-79327759D01*
X155419637Y-79095241D01*
X155219759Y-78895363D01*
X154984727Y-78738320D01*
X154723574Y-78630147D01*
X154446335Y-78575000D01*
X154163665Y-78575000D01*
X153886426Y-78630147D01*
X153625273Y-78738320D01*
X153390241Y-78895363D01*
X153190363Y-79095241D01*
X153035000Y-79327759D01*
X152879637Y-79095241D01*
X152679759Y-78895363D01*
X152444727Y-78738320D01*
X152183574Y-78630147D01*
X151906335Y-78575000D01*
X151623665Y-78575000D01*
X151346426Y-78630147D01*
X151085273Y-78738320D01*
X150850241Y-78895363D01*
X150650363Y-79095241D01*
X150495000Y-79327759D01*
X150339637Y-79095241D01*
X150139759Y-78895363D01*
X149904727Y-78738320D01*
X149643574Y-78630147D01*
X149366335Y-78575000D01*
X149083665Y-78575000D01*
X148806426Y-78630147D01*
X148545273Y-78738320D01*
X148310241Y-78895363D01*
X148110363Y-79095241D01*
X147955000Y-79327759D01*
X147799637Y-79095241D01*
X147599759Y-78895363D01*
X147364727Y-78738320D01*
X147103574Y-78630147D01*
X146826335Y-78575000D01*
X146543665Y-78575000D01*
X146266426Y-78630147D01*
X146005273Y-78738320D01*
X145770241Y-78895363D01*
X145570363Y-79095241D01*
X145415000Y-79327759D01*
X145259637Y-79095241D01*
X145059759Y-78895363D01*
X144824727Y-78738320D01*
X144563574Y-78630147D01*
X144286335Y-78575000D01*
X144003665Y-78575000D01*
X143726426Y-78630147D01*
X143465273Y-78738320D01*
X143230241Y-78895363D01*
X143030363Y-79095241D01*
X142875000Y-79327759D01*
X142719637Y-79095241D01*
X142519759Y-78895363D01*
X142284727Y-78738320D01*
X142023574Y-78630147D01*
X141746335Y-78575000D01*
X141463665Y-78575000D01*
X141186426Y-78630147D01*
X140925273Y-78738320D01*
X140690241Y-78895363D01*
X140490363Y-79095241D01*
X140335000Y-79327759D01*
X140179637Y-79095241D01*
X139979759Y-78895363D01*
X139744727Y-78738320D01*
X139483574Y-78630147D01*
X139206335Y-78575000D01*
X138923665Y-78575000D01*
X138646426Y-78630147D01*
X138385273Y-78738320D01*
X138150241Y-78895363D01*
X137950363Y-79095241D01*
X137795000Y-79327759D01*
X137639637Y-79095241D01*
X137439759Y-78895363D01*
X137204727Y-78738320D01*
X136943574Y-78630147D01*
X136666335Y-78575000D01*
X136383665Y-78575000D01*
X136106426Y-78630147D01*
X135845273Y-78738320D01*
X135610241Y-78895363D01*
X135410363Y-79095241D01*
X135255000Y-79327759D01*
X135217323Y-79271371D01*
X135183931Y-79208899D01*
X135138993Y-79154142D01*
X135099637Y-79095241D01*
X135049548Y-79045152D01*
X135049543Y-79045146D01*
X132079554Y-76075159D01*
X132034608Y-76020392D01*
X131816101Y-75841068D01*
X131566808Y-75707818D01*
X131296309Y-75625764D01*
X131085492Y-75605000D01*
X131015000Y-75598057D01*
X130944508Y-75605000D01*
X102989491Y-75605000D01*
X102918999Y-75598057D01*
X102637690Y-75625764D01*
X102574734Y-75644862D01*
X102367192Y-75707818D01*
X102117899Y-75841068D01*
X101899392Y-76020392D01*
X101854454Y-76075149D01*
X100000154Y-77929450D01*
X99945393Y-77974392D01*
X99766068Y-78192899D01*
X99632818Y-78442192D01*
X99550764Y-78712691D01*
X99540095Y-78821010D01*
X99523057Y-78994000D01*
X99530000Y-79064492D01*
X99530000Y-80151335D01*
X99543821Y-80220818D01*
X99550764Y-80291308D01*
X99571326Y-80359094D01*
X99585147Y-80428574D01*
X99612254Y-80494017D01*
X99632818Y-80561807D01*
X99666213Y-80624284D01*
X99693320Y-80689727D01*
X99732675Y-80748626D01*
X99766068Y-80811100D01*
X99811007Y-80865858D01*
X99850363Y-80924759D01*
X99900455Y-80974851D01*
X99945392Y-81029607D01*
X100000150Y-81074546D01*
X100050241Y-81124637D01*
X100109138Y-81163991D01*
X100163899Y-81208932D01*
X100226378Y-81242328D01*
X100285273Y-81281680D01*
X100350712Y-81308786D01*
X100413192Y-81342182D01*
X100480986Y-81362747D01*
X100546426Y-81389853D01*
X100615903Y-81403673D01*
X100683691Y-81424236D01*
X100754183Y-81431179D01*
X100823665Y-81445000D01*
X100838000Y-81445000D01*
X100838000Y-86191928D01*
X100165000Y-86191928D01*
X100040518Y-86204188D01*
X99920820Y-86240498D01*
X99810506Y-86299463D01*
X99713815Y-86378815D01*
X99634463Y-86475506D01*
X99575498Y-86585820D01*
X99539188Y-86705518D01*
X99526928Y-86830000D01*
X99526928Y-88430000D01*
X99539188Y-88554482D01*
X99575498Y-88674180D01*
X99634463Y-88784494D01*
X99713815Y-88881185D01*
X99810506Y-88960537D01*
X99920820Y-89019502D01*
X100040518Y-89055812D01*
X100165000Y-89068072D01*
X101765000Y-89068072D01*
X101889482Y-89055812D01*
X102009180Y-89019502D01*
X102119494Y-88960537D01*
X102216185Y-88881185D01*
X102295537Y-88784494D01*
X102354502Y-88674180D01*
X102390812Y-88554482D01*
X102391643Y-88546039D01*
X102590241Y-88744637D01*
X102825273Y-88901680D01*
X103086426Y-89009853D01*
X103363665Y-89065000D01*
X103646335Y-89065000D01*
X103923574Y-89009853D01*
X104184727Y-88901680D01*
X104419759Y-88744637D01*
X104619637Y-88544759D01*
X104775000Y-88312241D01*
X104930363Y-88544759D01*
X105130241Y-88744637D01*
X105365273Y-88901680D01*
X105626426Y-89009853D01*
X105903665Y-89065000D01*
X106186335Y-89065000D01*
X106463574Y-89009853D01*
X106724727Y-88901680D01*
X106959759Y-88744637D01*
X107159637Y-88544759D01*
X107315000Y-88312241D01*
X107470363Y-88544759D01*
X107670241Y-88744637D01*
X107905273Y-88901680D01*
X108166426Y-89009853D01*
X108443665Y-89065000D01*
X108726335Y-89065000D01*
X109003574Y-89009853D01*
X109264727Y-88901680D01*
X109499759Y-88744637D01*
X109699637Y-88544759D01*
X109855000Y-88312241D01*
X110010363Y-88544759D01*
X110210241Y-88744637D01*
X110445273Y-88901680D01*
X110706426Y-89009853D01*
X110983665Y-89065000D01*
X111266335Y-89065000D01*
X111543574Y-89009853D01*
X111804727Y-88901680D01*
X112039759Y-88744637D01*
X112239637Y-88544759D01*
X112395000Y-88312241D01*
X112550363Y-88544759D01*
X112750241Y-88744637D01*
X112985273Y-88901680D01*
X113246426Y-89009853D01*
X113523665Y-89065000D01*
X113806335Y-89065000D01*
X114083574Y-89009853D01*
X114344727Y-88901680D01*
X114579759Y-88744637D01*
X114779637Y-88544759D01*
X114935000Y-88312241D01*
X115090363Y-88544759D01*
X115290241Y-88744637D01*
X115525273Y-88901680D01*
X115786426Y-89009853D01*
X116063665Y-89065000D01*
X116346335Y-89065000D01*
X116623574Y-89009853D01*
X116884727Y-88901680D01*
X117119759Y-88744637D01*
X117319637Y-88544759D01*
X117475000Y-88312241D01*
X117630363Y-88544759D01*
X117830241Y-88744637D01*
X118065273Y-88901680D01*
X118326426Y-89009853D01*
X118603665Y-89065000D01*
X118886335Y-89065000D01*
X119163574Y-89009853D01*
X119424727Y-88901680D01*
X119659759Y-88744637D01*
X119859637Y-88544759D01*
X120015000Y-88312241D01*
X120170363Y-88544759D01*
X120370241Y-88744637D01*
X120605273Y-88901680D01*
X120866426Y-89009853D01*
X121143665Y-89065000D01*
X121426335Y-89065000D01*
X121703574Y-89009853D01*
X121964727Y-88901680D01*
X122199759Y-88744637D01*
X122399637Y-88544759D01*
X122556680Y-88309727D01*
X122561067Y-88299135D01*
X122672615Y-88485131D01*
X122861586Y-88693519D01*
X123087580Y-88861037D01*
X123341913Y-88981246D01*
X123475961Y-89021904D01*
X123698000Y-88899915D01*
X123698000Y-87757000D01*
X123952000Y-87757000D01*
X123952000Y-88899915D01*
X124174039Y-89021904D01*
X124308087Y-88981246D01*
X124562420Y-88861037D01*
X124788414Y-88693519D01*
X124977385Y-88485131D01*
X125122070Y-88243881D01*
X125216909Y-87979040D01*
X125095624Y-87757000D01*
X123952000Y-87757000D01*
X123698000Y-87757000D01*
X123678000Y-87757000D01*
X123678000Y-87503000D01*
X123698000Y-87503000D01*
X123698000Y-87483000D01*
X123952000Y-87483000D01*
X123952000Y-87503000D01*
X125095624Y-87503000D01*
X125216909Y-87280960D01*
X125122070Y-87016119D01*
X124977385Y-86774869D01*
X124852362Y-86637000D01*
X130512289Y-86637000D01*
X130531226Y-86655937D01*
X130700744Y-86769205D01*
X130889102Y-86847226D01*
X131089061Y-86887000D01*
X131292939Y-86887000D01*
X131492898Y-86847226D01*
X131681256Y-86769205D01*
X131829527Y-86670133D01*
X132546928Y-87387534D01*
X132546928Y-88430000D01*
X132559188Y-88554482D01*
X132595498Y-88674180D01*
X132654463Y-88784494D01*
X132733815Y-88881185D01*
X132830506Y-88960537D01*
X132940820Y-89019502D01*
X133060518Y-89055812D01*
X133185000Y-89068072D01*
X134785000Y-89068072D01*
X134909482Y-89055812D01*
X135029180Y-89019502D01*
X135139494Y-88960537D01*
X135236185Y-88881185D01*
X135315537Y-88784494D01*
X135374502Y-88674180D01*
X135410812Y-88554482D01*
X135411643Y-88546039D01*
X135610241Y-88744637D01*
X135845273Y-88901680D01*
X136106426Y-89009853D01*
X136383665Y-89065000D01*
X136666335Y-89065000D01*
X136943574Y-89009853D01*
X137204727Y-88901680D01*
X137439759Y-88744637D01*
X137639637Y-88544759D01*
X137795000Y-88312241D01*
X137950363Y-88544759D01*
X138150241Y-88744637D01*
X138385273Y-88901680D01*
X138646426Y-89009853D01*
X138923665Y-89065000D01*
X139206335Y-89065000D01*
X139483574Y-89009853D01*
X139744727Y-88901680D01*
X139979759Y-88744637D01*
X140179637Y-88544759D01*
X140335000Y-88312241D01*
X140490363Y-88544759D01*
X140690241Y-88744637D01*
X140925273Y-88901680D01*
X141186426Y-89009853D01*
X141463665Y-89065000D01*
X141746335Y-89065000D01*
X142023574Y-89009853D01*
X142284727Y-88901680D01*
X142519759Y-88744637D01*
X142719637Y-88544759D01*
X142875000Y-88312241D01*
X143030363Y-88544759D01*
X143230241Y-88744637D01*
X143465273Y-88901680D01*
X143726426Y-89009853D01*
X144003665Y-89065000D01*
X144286335Y-89065000D01*
X144563574Y-89009853D01*
X144824727Y-88901680D01*
X145059759Y-88744637D01*
X145259637Y-88544759D01*
X145415000Y-88312241D01*
X145570363Y-88544759D01*
X145770241Y-88744637D01*
X146005273Y-88901680D01*
X146266426Y-89009853D01*
X146543665Y-89065000D01*
X146826335Y-89065000D01*
X147103574Y-89009853D01*
X147364727Y-88901680D01*
X147599759Y-88744637D01*
X147799637Y-88544759D01*
X147955000Y-88312241D01*
X148110363Y-88544759D01*
X148310241Y-88744637D01*
X148545273Y-88901680D01*
X148806426Y-89009853D01*
X149083665Y-89065000D01*
X149366335Y-89065000D01*
X149643574Y-89009853D01*
X149904727Y-88901680D01*
X150139759Y-88744637D01*
X150339637Y-88544759D01*
X150495000Y-88312241D01*
X150650363Y-88544759D01*
X150850241Y-88744637D01*
X151085273Y-88901680D01*
X151346426Y-89009853D01*
X151623665Y-89065000D01*
X151906335Y-89065000D01*
X152183574Y-89009853D01*
X152444727Y-88901680D01*
X152679759Y-88744637D01*
X152879637Y-88544759D01*
X153035000Y-88312241D01*
X153190363Y-88544759D01*
X153390241Y-88744637D01*
X153625273Y-88901680D01*
X153886426Y-89009853D01*
X154163665Y-89065000D01*
X154446335Y-89065000D01*
X154723574Y-89009853D01*
X154984727Y-88901680D01*
X155219759Y-88744637D01*
X155419637Y-88544759D01*
X155576680Y-88309727D01*
X155581067Y-88299135D01*
X155692615Y-88485131D01*
X155881586Y-88693519D01*
X156107580Y-88861037D01*
X156361913Y-88981246D01*
X156495961Y-89021904D01*
X156718000Y-88899915D01*
X156718000Y-87757000D01*
X156972000Y-87757000D01*
X156972000Y-88899915D01*
X157194039Y-89021904D01*
X157328087Y-88981246D01*
X157582420Y-88861037D01*
X157808414Y-88693519D01*
X157997385Y-88485131D01*
X158142070Y-88243881D01*
X158236909Y-87979040D01*
X158115624Y-87757000D01*
X156972000Y-87757000D01*
X156718000Y-87757000D01*
X156698000Y-87757000D01*
X156698000Y-87503000D01*
X156718000Y-87503000D01*
X156718000Y-87483000D01*
X156972000Y-87483000D01*
X156972000Y-87503000D01*
X158115624Y-87503000D01*
X158236909Y-87280960D01*
X158142070Y-87016119D01*
X157997385Y-86774869D01*
X157872362Y-86637000D01*
X160329843Y-86637000D01*
X163652924Y-89960082D01*
X163615000Y-90150740D01*
X163615000Y-90443260D01*
X163672068Y-90730158D01*
X163784010Y-91000411D01*
X163946525Y-91243632D01*
X164153368Y-91450475D01*
X164327760Y-91567000D01*
X164153368Y-91683525D01*
X163946525Y-91890368D01*
X163784010Y-92133589D01*
X163672068Y-92403842D01*
X163615744Y-92687000D01*
X156076328Y-92687000D01*
X156102000Y-92557939D01*
X156102000Y-92354061D01*
X156062226Y-92154102D01*
X155984205Y-91965744D01*
X155870937Y-91796226D01*
X155726774Y-91652063D01*
X155557256Y-91538795D01*
X155368898Y-91460774D01*
X155168939Y-91421000D01*
X154965061Y-91421000D01*
X154765102Y-91460774D01*
X154576744Y-91538795D01*
X154407226Y-91652063D01*
X154388289Y-91671000D01*
X139357556Y-91671000D01*
X139319000Y-91667203D01*
X139280444Y-91671000D01*
X139280439Y-91671000D01*
X139240026Y-91674980D01*
X139165113Y-91682358D01*
X139024768Y-91724932D01*
X139017140Y-91727246D01*
X138880767Y-91800138D01*
X138761236Y-91898236D01*
X138736653Y-91928190D01*
X131739397Y-98925446D01*
X131586335Y-98895000D01*
X131303665Y-98895000D01*
X131075401Y-98940405D01*
X131092205Y-98915256D01*
X131170226Y-98726898D01*
X131210000Y-98526939D01*
X131210000Y-98323061D01*
X131170226Y-98123102D01*
X131092205Y-97934744D01*
X130978937Y-97765226D01*
X130834774Y-97621063D01*
X130665256Y-97507795D01*
X130476898Y-97429774D01*
X130276939Y-97390000D01*
X130250158Y-97390000D01*
X127582347Y-94722190D01*
X127557764Y-94692236D01*
X127438233Y-94594138D01*
X127301860Y-94521246D01*
X127153887Y-94476359D01*
X127038561Y-94465000D01*
X127038553Y-94465000D01*
X127000000Y-94461203D01*
X126961447Y-94465000D01*
X106718556Y-94465000D01*
X106680000Y-94461203D01*
X106641444Y-94465000D01*
X106641439Y-94465000D01*
X106601026Y-94468980D01*
X106526113Y-94476358D01*
X106378140Y-94521246D01*
X106241767Y-94594138D01*
X106122236Y-94692236D01*
X106097653Y-94722190D01*
X105969843Y-94850000D01*
X105943061Y-94850000D01*
X105743102Y-94889774D01*
X105554744Y-94967795D01*
X105385226Y-95081063D01*
X105241063Y-95225226D01*
X105127795Y-95394744D01*
X105049774Y-95583102D01*
X105010000Y-95783061D01*
X105010000Y-95986939D01*
X105049774Y-96186898D01*
X105127795Y-96375256D01*
X105241063Y-96544774D01*
X105385226Y-96688937D01*
X105554744Y-96802205D01*
X105743102Y-96880226D01*
X105943061Y-96920000D01*
X106146939Y-96920000D01*
X106346898Y-96880226D01*
X106535256Y-96802205D01*
X106683527Y-96703133D01*
X107188000Y-97207606D01*
X107188000Y-99007394D01*
X106962757Y-99232637D01*
X106782420Y-99098963D01*
X106528087Y-98978754D01*
X106394039Y-98938096D01*
X106172000Y-99060085D01*
X106172000Y-100023394D01*
X105955197Y-100240197D01*
X105939403Y-100259443D01*
X105927667Y-100281399D01*
X105920440Y-100305224D01*
X105918000Y-100330000D01*
X105920440Y-100354776D01*
X105927667Y-100378601D01*
X105939403Y-100400557D01*
X105955197Y-100419803D01*
X105974443Y-100435597D01*
X105996399Y-100447333D01*
X106020224Y-100454560D01*
X106045000Y-100457000D01*
X106172000Y-100457000D01*
X106172000Y-100477000D01*
X105918000Y-100477000D01*
X105918000Y-100457000D01*
X105898000Y-100457000D01*
X105898000Y-100203000D01*
X105918000Y-100203000D01*
X105918000Y-99060085D01*
X105695961Y-98938096D01*
X105561913Y-98978754D01*
X105307580Y-99098963D01*
X105081586Y-99266481D01*
X104892615Y-99474869D01*
X104781067Y-99660865D01*
X104776680Y-99650273D01*
X104619637Y-99415241D01*
X104419759Y-99215363D01*
X104184727Y-99058320D01*
X103923574Y-98950147D01*
X103646335Y-98895000D01*
X103363665Y-98895000D01*
X103086426Y-98950147D01*
X102825273Y-99058320D01*
X102590241Y-99215363D01*
X102390363Y-99415241D01*
X102235000Y-99647759D01*
X102079637Y-99415241D01*
X101879759Y-99215363D01*
X101644727Y-99058320D01*
X101383574Y-98950147D01*
X101106335Y-98895000D01*
X100823665Y-98895000D01*
X100546426Y-98950147D01*
X100285273Y-99058320D01*
X100050241Y-99215363D01*
X99850363Y-99415241D01*
X99693320Y-99650273D01*
X99585147Y-99911426D01*
X99530000Y-100188665D01*
X99530000Y-100471335D01*
X99585147Y-100748574D01*
X99693320Y-101009727D01*
X99850363Y-101244759D01*
X100050241Y-101444637D01*
X100285273Y-101601680D01*
X100546426Y-101709853D01*
X100823665Y-101765000D01*
X101106335Y-101765000D01*
X101383574Y-101709853D01*
X101644727Y-101601680D01*
X101879759Y-101444637D01*
X102079637Y-101244759D01*
X102235000Y-101012241D01*
X102390363Y-101244759D01*
X102590241Y-101444637D01*
X102825273Y-101601680D01*
X103086426Y-101709853D01*
X103363665Y-101765000D01*
X103646335Y-101765000D01*
X103799397Y-101734554D01*
X108510658Y-106445816D01*
X108535236Y-106475764D01*
X108565184Y-106500342D01*
X108565187Y-106500345D01*
X108594559Y-106524450D01*
X108654767Y-106573862D01*
X108791140Y-106646754D01*
X108904672Y-106681194D01*
X108939112Y-106691641D01*
X108953490Y-106693057D01*
X109054439Y-106703000D01*
X109054446Y-106703000D01*
X109092999Y-106706797D01*
X109131552Y-106703000D01*
X144868447Y-106703000D01*
X144907000Y-106706797D01*
X144945553Y-106703000D01*
X144945561Y-106703000D01*
X145034922Y-106694198D01*
X145059061Y-106699000D01*
X145262939Y-106699000D01*
X145462898Y-106659226D01*
X145651256Y-106581205D01*
X145820774Y-106467937D01*
X145964937Y-106323774D01*
X146078205Y-106154256D01*
X146156226Y-105965898D01*
X146196000Y-105765939D01*
X146196000Y-105562061D01*
X146156226Y-105362102D01*
X146078205Y-105173744D01*
X145964937Y-105004226D01*
X145820774Y-104860063D01*
X145651256Y-104746795D01*
X145462898Y-104668774D01*
X145262939Y-104629000D01*
X145059061Y-104629000D01*
X144859102Y-104668774D01*
X144753141Y-104712665D01*
X144808205Y-104630256D01*
X144886226Y-104441898D01*
X144926000Y-104241939D01*
X144926000Y-104038061D01*
X144886226Y-103838102D01*
X144808205Y-103649744D01*
X144694937Y-103480226D01*
X144550774Y-103336063D01*
X144381256Y-103222795D01*
X144198272Y-103147000D01*
X154233843Y-103147000D01*
X154484653Y-103397810D01*
X154509236Y-103427764D01*
X154628767Y-103525862D01*
X154765140Y-103598754D01*
X154878672Y-103633194D01*
X154913112Y-103643641D01*
X154927490Y-103645057D01*
X155028439Y-103655000D01*
X155028446Y-103655000D01*
X155066999Y-103658797D01*
X155105552Y-103655000D01*
X155912289Y-103655000D01*
X155931226Y-103673937D01*
X156100744Y-103787205D01*
X156289102Y-103865226D01*
X156489061Y-103905000D01*
X156692939Y-103905000D01*
X156892898Y-103865226D01*
X157081256Y-103787205D01*
X157250774Y-103673937D01*
X157353000Y-103571711D01*
X157455226Y-103673937D01*
X157624744Y-103787205D01*
X157813102Y-103865226D01*
X158013061Y-103905000D01*
X158216939Y-103905000D01*
X158416898Y-103865226D01*
X158605256Y-103787205D01*
X158774774Y-103673937D01*
X158793711Y-103655000D01*
X162107843Y-103655000D01*
X163652925Y-105200082D01*
X163615000Y-105390740D01*
X163615000Y-105683260D01*
X163672068Y-105970158D01*
X163784010Y-106240411D01*
X163946525Y-106483632D01*
X164078380Y-106615487D01*
X164005820Y-106637498D01*
X163895506Y-106696463D01*
X163798815Y-106775815D01*
X163719463Y-106872506D01*
X163660498Y-106982820D01*
X163624188Y-107102518D01*
X163611928Y-107227000D01*
X163611928Y-108927000D01*
X163624188Y-109051482D01*
X163660498Y-109171180D01*
X163719463Y-109281494D01*
X163798815Y-109378185D01*
X163895506Y-109457537D01*
X164005820Y-109516502D01*
X164125518Y-109552812D01*
X164250000Y-109565072D01*
X165950000Y-109565072D01*
X166074482Y-109552812D01*
X166194180Y-109516502D01*
X166304494Y-109457537D01*
X166401185Y-109378185D01*
X166480537Y-109281494D01*
X166539502Y-109171180D01*
X166562498Y-109095374D01*
X166758645Y-109272178D01*
X167008748Y-109421157D01*
X167283109Y-109518481D01*
X167513000Y-109397814D01*
X167513000Y-108204000D01*
X167767000Y-108204000D01*
X167767000Y-109397814D01*
X167996891Y-109518481D01*
X168271252Y-109421157D01*
X168521355Y-109272178D01*
X168737588Y-109077269D01*
X168911641Y-108843920D01*
X169036825Y-108581099D01*
X169081476Y-108433890D01*
X168960155Y-108204000D01*
X167767000Y-108204000D01*
X167513000Y-108204000D01*
X167493000Y-108204000D01*
X167493000Y-107950000D01*
X167513000Y-107950000D01*
X167513000Y-107930000D01*
X167767000Y-107930000D01*
X167767000Y-107950000D01*
X168960155Y-107950000D01*
X169081476Y-107720110D01*
X169036825Y-107572901D01*
X168911641Y-107310080D01*
X168737588Y-107076731D01*
X168521355Y-106881822D01*
X168404466Y-106812195D01*
X168586632Y-106690475D01*
X168793475Y-106483632D01*
X168955990Y-106240411D01*
X169067932Y-105970158D01*
X169125000Y-105683260D01*
X169125000Y-105390740D01*
X169067932Y-105103842D01*
X168955990Y-104833589D01*
X168793475Y-104590368D01*
X168586632Y-104383525D01*
X168412240Y-104267000D01*
X168586632Y-104150475D01*
X168793475Y-103943632D01*
X168955990Y-103700411D01*
X169067932Y-103430158D01*
X169125000Y-103143260D01*
X169125000Y-102850740D01*
X169067932Y-102563842D01*
X168955990Y-102293589D01*
X168793475Y-102050368D01*
X168586632Y-101843525D01*
X168412240Y-101727000D01*
X168586632Y-101610475D01*
X168793475Y-101403632D01*
X168955990Y-101160411D01*
X169067932Y-100890158D01*
X169125000Y-100603260D01*
X169125000Y-100310740D01*
X169067932Y-100023842D01*
X168955990Y-99753589D01*
X168793475Y-99510368D01*
X168586632Y-99303525D01*
X168412240Y-99187000D01*
X168586632Y-99070475D01*
X168793475Y-98863632D01*
X168955990Y-98620411D01*
X169067932Y-98350158D01*
X169125000Y-98063260D01*
X169125000Y-97770740D01*
X169067932Y-97483842D01*
X168955990Y-97213589D01*
X168793475Y-96970368D01*
X168586632Y-96763525D01*
X168412240Y-96647000D01*
X168586632Y-96530475D01*
X168793475Y-96323632D01*
X168955990Y-96080411D01*
X169067932Y-95810158D01*
X169125000Y-95523260D01*
X169125000Y-95230740D01*
X169067932Y-94943842D01*
X168955990Y-94673589D01*
X168793475Y-94430368D01*
X168586632Y-94223525D01*
X168412240Y-94107000D01*
X168586632Y-93990475D01*
X168793475Y-93783632D01*
X168955990Y-93540411D01*
X169067932Y-93270158D01*
X169125000Y-92983260D01*
X169125000Y-92690740D01*
X169067932Y-92403842D01*
X168955990Y-92133589D01*
X168793475Y-91890368D01*
X168586632Y-91683525D01*
X168412240Y-91567000D01*
X168586632Y-91450475D01*
X168793475Y-91243632D01*
X168955990Y-91000411D01*
X169067932Y-90730158D01*
X169125000Y-90443260D01*
X169125000Y-90150740D01*
X169067932Y-89863842D01*
X168955990Y-89593589D01*
X168793475Y-89350368D01*
X168586632Y-89143525D01*
X168412240Y-89027000D01*
X168586632Y-88910475D01*
X168793475Y-88703632D01*
X168955990Y-88460411D01*
X169067932Y-88190158D01*
X169125000Y-87903260D01*
X169125000Y-87610740D01*
X169067932Y-87323842D01*
X168955990Y-87053589D01*
X168793475Y-86810368D01*
X168586632Y-86603525D01*
X168412240Y-86487000D01*
X168586632Y-86370475D01*
X168793475Y-86163632D01*
X168955990Y-85920411D01*
X169067932Y-85650158D01*
X169125000Y-85363260D01*
X169125000Y-85070740D01*
X169067932Y-84783842D01*
X168955990Y-84513589D01*
X168793475Y-84270368D01*
X168586632Y-84063525D01*
X168404466Y-83941805D01*
X168521355Y-83872178D01*
X168737588Y-83677269D01*
X168911641Y-83443920D01*
X169036825Y-83181099D01*
X169081476Y-83033890D01*
X168960155Y-82804000D01*
X167767000Y-82804000D01*
X167767000Y-82824000D01*
X167513000Y-82824000D01*
X167513000Y-82804000D01*
X167493000Y-82804000D01*
X167493000Y-82550000D01*
X167513000Y-82550000D01*
X167513000Y-80264000D01*
X167767000Y-80264000D01*
X167767000Y-82550000D01*
X168960155Y-82550000D01*
X169081476Y-82320110D01*
X169036825Y-82172901D01*
X168911641Y-81910080D01*
X168737588Y-81676731D01*
X168521355Y-81481822D01*
X168395745Y-81407000D01*
X168521355Y-81332178D01*
X168737588Y-81137269D01*
X168911641Y-80903920D01*
X169036825Y-80641099D01*
X169081476Y-80493890D01*
X168960155Y-80264000D01*
X167767000Y-80264000D01*
X167513000Y-80264000D01*
X167493000Y-80264000D01*
X167493000Y-80010000D01*
X167513000Y-80010000D01*
X167513000Y-77724000D01*
X167767000Y-77724000D01*
X167767000Y-80010000D01*
X168960155Y-80010000D01*
X169081476Y-79780110D01*
X169036825Y-79632901D01*
X168911641Y-79370080D01*
X168737588Y-79136731D01*
X168521355Y-78941822D01*
X168395745Y-78867000D01*
X168521355Y-78792178D01*
X168737588Y-78597269D01*
X168911641Y-78363920D01*
X169036825Y-78101099D01*
X169081476Y-77953890D01*
X168960155Y-77724000D01*
X167767000Y-77724000D01*
X167513000Y-77724000D01*
X167493000Y-77724000D01*
X167493000Y-77470000D01*
X167513000Y-77470000D01*
X167513000Y-77450000D01*
X167767000Y-77450000D01*
X167767000Y-77470000D01*
X168960155Y-77470000D01*
X169081476Y-77240110D01*
X169036825Y-77092901D01*
X168911641Y-76830080D01*
X168737588Y-76596731D01*
X168521355Y-76401822D01*
X168404466Y-76332195D01*
X168586632Y-76210475D01*
X168793475Y-76003632D01*
X168955990Y-75760411D01*
X169067932Y-75490158D01*
X169125000Y-75203260D01*
X169125000Y-74910740D01*
X169067932Y-74623842D01*
X168955990Y-74353589D01*
X168793475Y-74110368D01*
X168586632Y-73903525D01*
X168404466Y-73781805D01*
X168521355Y-73712178D01*
X168737588Y-73517269D01*
X168911641Y-73283920D01*
X169036825Y-73021099D01*
X169081476Y-72873890D01*
X168960155Y-72644000D01*
X167767000Y-72644000D01*
X167767000Y-72664000D01*
X167513000Y-72664000D01*
X167513000Y-72644000D01*
X167493000Y-72644000D01*
X167493000Y-72390000D01*
X167513000Y-72390000D01*
X167513000Y-72370000D01*
X167767000Y-72370000D01*
X167767000Y-72390000D01*
X168960155Y-72390000D01*
X169081476Y-72160110D01*
X169036825Y-72012901D01*
X168911641Y-71750080D01*
X168737588Y-71516731D01*
X168521355Y-71321822D01*
X168404466Y-71252195D01*
X168586632Y-71130475D01*
X168793475Y-70923632D01*
X168955990Y-70680411D01*
X169067932Y-70410158D01*
X169125000Y-70123260D01*
X169125000Y-69830740D01*
X169067932Y-69543842D01*
X168955990Y-69273589D01*
X168793475Y-69030368D01*
X168586632Y-68823525D01*
X168412240Y-68707000D01*
X168586632Y-68590475D01*
X168793475Y-68383632D01*
X168955990Y-68140411D01*
X169067932Y-67870158D01*
X169125000Y-67583260D01*
X169125000Y-67290740D01*
X169067932Y-67003842D01*
X168955990Y-66733589D01*
X168793475Y-66490368D01*
X168586632Y-66283525D01*
X168412240Y-66167000D01*
X168586632Y-66050475D01*
X168793475Y-65843632D01*
X168955990Y-65600411D01*
X169067932Y-65330158D01*
X169125000Y-65043260D01*
X169125000Y-64750740D01*
X169067932Y-64463842D01*
X168955990Y-64193589D01*
X168793475Y-63950368D01*
X168586632Y-63743525D01*
X168412240Y-63627000D01*
X168586632Y-63510475D01*
X168793475Y-63303632D01*
X168955990Y-63060411D01*
X169067932Y-62790158D01*
X169125000Y-62503260D01*
X169125000Y-62210740D01*
X169067932Y-61923842D01*
X168955990Y-61653589D01*
X168793475Y-61410368D01*
X168586632Y-61203525D01*
X168404466Y-61081805D01*
X168521355Y-61012178D01*
X168737588Y-60817269D01*
X168911641Y-60583920D01*
X169036825Y-60321099D01*
X169081476Y-60173890D01*
X168960155Y-59944000D01*
X167767000Y-59944000D01*
X167767000Y-59964000D01*
X167513000Y-59964000D01*
X167513000Y-59944000D01*
X167493000Y-59944000D01*
X167493000Y-59690000D01*
X167513000Y-59690000D01*
X167513000Y-58496186D01*
X167767000Y-58496186D01*
X167767000Y-59690000D01*
X168960155Y-59690000D01*
X169081476Y-59460110D01*
X169081476Y-59460109D01*
X177969519Y-59460109D01*
X178090186Y-59690000D01*
X178123667Y-59690000D01*
X178123667Y-59937833D01*
X178124274Y-59944000D01*
X178090186Y-59944000D01*
X177969519Y-60173891D01*
X178066843Y-60448252D01*
X178215822Y-60698355D01*
X178410731Y-60914588D01*
X178644080Y-61088641D01*
X178906901Y-61213825D01*
X179054110Y-61258476D01*
X179284000Y-61137155D01*
X179284000Y-60318833D01*
X179520667Y-60318833D01*
X179538000Y-60317126D01*
X179538000Y-61137155D01*
X179767890Y-61258476D01*
X179915099Y-61213825D01*
X180177920Y-61088641D01*
X180411269Y-60914588D01*
X180487034Y-60830534D01*
X180511498Y-60911180D01*
X180570463Y-61021494D01*
X180649815Y-61118185D01*
X180746506Y-61197537D01*
X180856820Y-61256502D01*
X180976518Y-61292812D01*
X181101000Y-61305072D01*
X182801000Y-61305072D01*
X182925482Y-61292812D01*
X183045180Y-61256502D01*
X183155494Y-61197537D01*
X183252185Y-61118185D01*
X183331537Y-61021494D01*
X183390502Y-60911180D01*
X183426812Y-60791482D01*
X183439072Y-60667000D01*
X183439072Y-58967000D01*
X183426812Y-58842518D01*
X183390502Y-58722820D01*
X183331537Y-58612506D01*
X183252185Y-58515815D01*
X183155494Y-58436463D01*
X183045180Y-58377498D01*
X182925482Y-58341188D01*
X182801000Y-58328928D01*
X181101000Y-58328928D01*
X180976518Y-58341188D01*
X180856820Y-58377498D01*
X180746506Y-58436463D01*
X180649815Y-58515815D01*
X180570463Y-58612506D01*
X180511498Y-58722820D01*
X180487034Y-58803466D01*
X180411269Y-58719412D01*
X180177920Y-58545359D01*
X179915099Y-58420175D01*
X179767890Y-58375524D01*
X179538000Y-58496845D01*
X179538000Y-59304540D01*
X179520667Y-59302833D01*
X179284000Y-59302833D01*
X179284000Y-58496845D01*
X179054110Y-58375524D01*
X178906901Y-58420175D01*
X178644080Y-58545359D01*
X178410731Y-58719412D01*
X178215822Y-58935645D01*
X178066843Y-59185748D01*
X177969519Y-59460109D01*
X169081476Y-59460109D01*
X169036825Y-59312901D01*
X168911641Y-59050080D01*
X168737588Y-58816731D01*
X168521355Y-58621822D01*
X168271252Y-58472843D01*
X167996891Y-58375519D01*
X167767000Y-58496186D01*
X167513000Y-58496186D01*
X167283109Y-58375519D01*
X167008748Y-58472843D01*
X166758645Y-58621822D01*
X166542412Y-58816731D01*
X166371100Y-59046406D01*
X166253475Y-58870368D01*
X166046632Y-58663525D01*
X165803411Y-58501010D01*
X165533158Y-58389068D01*
X165246260Y-58332000D01*
X164953740Y-58332000D01*
X164666842Y-58389068D01*
X164396589Y-58501010D01*
X164153368Y-58663525D01*
X163946525Y-58870368D01*
X163784010Y-59113589D01*
X163672068Y-59383842D01*
X163615000Y-59670740D01*
X163615000Y-59963260D01*
X163672068Y-60250158D01*
X163784010Y-60520411D01*
X163946525Y-60763632D01*
X164153368Y-60970475D01*
X164327760Y-61087000D01*
X164153368Y-61203525D01*
X163946525Y-61410368D01*
X163784010Y-61653589D01*
X163672068Y-61923842D01*
X163615000Y-62210740D01*
X163615000Y-62503260D01*
X163672068Y-62790158D01*
X163725943Y-62920224D01*
X163633233Y-62844138D01*
X163496860Y-62771246D01*
X163348887Y-62726359D01*
X163233561Y-62715000D01*
X163233553Y-62715000D01*
X163195000Y-62711203D01*
X163156447Y-62715000D01*
X131692328Y-62715000D01*
X131718000Y-62585939D01*
X131718000Y-62382061D01*
X131692328Y-62253000D01*
X132036301Y-62253000D01*
X132055238Y-62271937D01*
X132224756Y-62385205D01*
X132413114Y-62463226D01*
X132613073Y-62503000D01*
X132816951Y-62503000D01*
X133016910Y-62463226D01*
X133205268Y-62385205D01*
X133374786Y-62271937D01*
X133518949Y-62127774D01*
X133632217Y-61958256D01*
X133710238Y-61769898D01*
X133750012Y-61569939D01*
X133750012Y-61366061D01*
X133710238Y-61166102D01*
X133679703Y-61092386D01*
X133843665Y-61125000D01*
X134126335Y-61125000D01*
X134403574Y-61069853D01*
X134664727Y-60961680D01*
X134899759Y-60804637D01*
X135099637Y-60604759D01*
X135256680Y-60369727D01*
X135364853Y-60108574D01*
X135420000Y-59831335D01*
X135420000Y-59548665D01*
X135364853Y-59271426D01*
X135256680Y-59010273D01*
X135099637Y-58775241D01*
X134899759Y-58575363D01*
X134664727Y-58418320D01*
X134403574Y-58310147D01*
X134126335Y-58255000D01*
X133843665Y-58255000D01*
X133690604Y-58285446D01*
X132027347Y-56622190D01*
X132002764Y-56592236D01*
X131883233Y-56494138D01*
X131746860Y-56421246D01*
X131598887Y-56376359D01*
X131483561Y-56365000D01*
X131483553Y-56365000D01*
X131445000Y-56361203D01*
X131406447Y-56365000D01*
X121323552Y-56365000D01*
X121284999Y-56361203D01*
X121246446Y-56365000D01*
X121246439Y-56365000D01*
X121131113Y-56376359D01*
X120983140Y-56421246D01*
X120846767Y-56494138D01*
X120786559Y-56543550D01*
X120757187Y-56567655D01*
X120757184Y-56567658D01*
X120727236Y-56592236D01*
X120702658Y-56622184D01*
X119039397Y-58285446D01*
X118886335Y-58255000D01*
X118603665Y-58255000D01*
X118326426Y-58310147D01*
X118065273Y-58418320D01*
X117830241Y-58575363D01*
X117630363Y-58775241D01*
X117475000Y-59007759D01*
X117437328Y-58951378D01*
X117403932Y-58888899D01*
X117358990Y-58834137D01*
X117319637Y-58775241D01*
X117269550Y-58725154D01*
X117224608Y-58670392D01*
X117169846Y-58625450D01*
X117119759Y-58575363D01*
X117060863Y-58536010D01*
X117006101Y-58491068D01*
X116943622Y-58457672D01*
X116884727Y-58418320D01*
X116819288Y-58391214D01*
X116756808Y-58357818D01*
X116689014Y-58337253D01*
X116623574Y-58310147D01*
X116554097Y-58296327D01*
X116486309Y-58275764D01*
X116415817Y-58268821D01*
X116346335Y-58255000D01*
X100259508Y-58255000D01*
X100048691Y-58275764D01*
X99778192Y-58357818D01*
X99528899Y-58491068D01*
X99310392Y-58670392D01*
X99131068Y-58888899D01*
X98997818Y-59138192D01*
X98915764Y-59408691D01*
X98888057Y-59690000D01*
X97307000Y-59690000D01*
X97307000Y-46848665D01*
X98260000Y-46848665D01*
X98260000Y-47131335D01*
X98315147Y-47408574D01*
X98423320Y-47669727D01*
X98580363Y-47904759D01*
X98780241Y-48104637D01*
X99012759Y-48260000D01*
X98780241Y-48415363D01*
X98580363Y-48615241D01*
X98423320Y-48850273D01*
X98315147Y-49111426D01*
X98260000Y-49388665D01*
X98260000Y-49671335D01*
X98315147Y-49948574D01*
X98423320Y-50209727D01*
X98580363Y-50444759D01*
X98780241Y-50644637D01*
X99012759Y-50800000D01*
X98780241Y-50955363D01*
X98580363Y-51155241D01*
X98423320Y-51390273D01*
X98315147Y-51651426D01*
X98260000Y-51928665D01*
X98260000Y-52211335D01*
X98315147Y-52488574D01*
X98423320Y-52749727D01*
X98580363Y-52984759D01*
X98780241Y-53184637D01*
X99012759Y-53340000D01*
X98780241Y-53495363D01*
X98580363Y-53695241D01*
X98423320Y-53930273D01*
X98315147Y-54191426D01*
X98260000Y-54468665D01*
X98260000Y-54751335D01*
X98315147Y-55028574D01*
X98423320Y-55289727D01*
X98580363Y-55524759D01*
X98780241Y-55724637D01*
X99015273Y-55881680D01*
X99276426Y-55989853D01*
X99553665Y-56045000D01*
X99836335Y-56045000D01*
X100113574Y-55989853D01*
X100374727Y-55881680D01*
X100609759Y-55724637D01*
X100809637Y-55524759D01*
X100966680Y-55289727D01*
X101074853Y-55028574D01*
X101130000Y-54751335D01*
X101130000Y-54737000D01*
X105880000Y-54737000D01*
X105880000Y-54751335D01*
X105935147Y-55028574D01*
X106043320Y-55289727D01*
X106200363Y-55524759D01*
X106400241Y-55724637D01*
X106635273Y-55881680D01*
X106896426Y-55989853D01*
X107173665Y-56045000D01*
X107456335Y-56045000D01*
X107733574Y-55989853D01*
X107994727Y-55881680D01*
X108229759Y-55724637D01*
X108429637Y-55524759D01*
X108516339Y-55395000D01*
X125686289Y-55395000D01*
X125705226Y-55413937D01*
X125874744Y-55527205D01*
X126063102Y-55605226D01*
X126263061Y-55645000D01*
X126466939Y-55645000D01*
X126666898Y-55605226D01*
X126855256Y-55527205D01*
X127024774Y-55413937D01*
X127168937Y-55269774D01*
X127282205Y-55100256D01*
X127360226Y-54911898D01*
X127400000Y-54711939D01*
X127400000Y-54508061D01*
X127360226Y-54308102D01*
X127284382Y-54125000D01*
X132643843Y-54125000D01*
X133204000Y-54685158D01*
X133204000Y-54711939D01*
X133243774Y-54911898D01*
X133321795Y-55100256D01*
X133435063Y-55269774D01*
X133579226Y-55413937D01*
X133748744Y-55527205D01*
X133937102Y-55605226D01*
X134137061Y-55645000D01*
X134340939Y-55645000D01*
X134540898Y-55605226D01*
X134729256Y-55527205D01*
X134898774Y-55413937D01*
X135042937Y-55269774D01*
X135156205Y-55100256D01*
X135234226Y-54911898D01*
X135274000Y-54711939D01*
X135274000Y-54508061D01*
X135234226Y-54308102D01*
X135156205Y-54119744D01*
X135042937Y-53950226D01*
X135010139Y-53917428D01*
X163813177Y-53917428D01*
X164179365Y-54412216D01*
X164851837Y-54777501D01*
X165582650Y-55004575D01*
X166343721Y-55084710D01*
X167105803Y-55014828D01*
X167839608Y-54797614D01*
X168516936Y-54441416D01*
X168560635Y-54412216D01*
X168926823Y-53917428D01*
X190356177Y-53917428D01*
X190722365Y-54412216D01*
X191394837Y-54777501D01*
X192125650Y-55004575D01*
X192886721Y-55084710D01*
X193648803Y-55014828D01*
X194382608Y-54797614D01*
X195059936Y-54441416D01*
X195103635Y-54412216D01*
X195469823Y-53917428D01*
X192913000Y-51360605D01*
X190356177Y-53917428D01*
X168926823Y-53917428D01*
X166370000Y-51360605D01*
X163813177Y-53917428D01*
X135010139Y-53917428D01*
X134898774Y-53806063D01*
X134729256Y-53692795D01*
X134540898Y-53614774D01*
X134340939Y-53575000D01*
X134314158Y-53575000D01*
X133551347Y-52812190D01*
X133526764Y-52782236D01*
X133407233Y-52684138D01*
X133270860Y-52611246D01*
X133122887Y-52566359D01*
X133007561Y-52555000D01*
X133007553Y-52555000D01*
X132969000Y-52551203D01*
X132930447Y-52555000D01*
X108665342Y-52555000D01*
X108666246Y-52553087D01*
X108706904Y-52419039D01*
X108584915Y-52197000D01*
X107442000Y-52197000D01*
X107442000Y-51943000D01*
X108584915Y-51943000D01*
X108706904Y-51720961D01*
X108666246Y-51586913D01*
X108546037Y-51332580D01*
X108378519Y-51106586D01*
X108170131Y-50917615D01*
X108060145Y-50851653D01*
X147912952Y-50851653D01*
X148068962Y-51167214D01*
X148443745Y-51358020D01*
X148848551Y-51472044D01*
X149267824Y-51504902D01*
X149685451Y-51455334D01*
X150085383Y-51325243D01*
X150381038Y-51167214D01*
X150387214Y-51154721D01*
X162466290Y-51154721D01*
X162536172Y-51916803D01*
X162753386Y-52650608D01*
X163109584Y-53327936D01*
X163138784Y-53371635D01*
X163633572Y-53737823D01*
X166190395Y-51181000D01*
X166549605Y-51181000D01*
X169106428Y-53737823D01*
X169601216Y-53371635D01*
X169966501Y-52699163D01*
X170193575Y-51968350D01*
X170273710Y-51207279D01*
X170268891Y-51154721D01*
X189009290Y-51154721D01*
X189079172Y-51916803D01*
X189296386Y-52650608D01*
X189652584Y-53327936D01*
X189681784Y-53371635D01*
X190176572Y-53737823D01*
X192733395Y-51181000D01*
X190176572Y-48624177D01*
X189681784Y-48990365D01*
X189316499Y-49662837D01*
X189089425Y-50393650D01*
X189009290Y-51154721D01*
X170268891Y-51154721D01*
X170203828Y-50445197D01*
X169986614Y-49711392D01*
X169630416Y-49034064D01*
X169601216Y-48990365D01*
X169106428Y-48624177D01*
X166549605Y-51181000D01*
X166190395Y-51181000D01*
X163633572Y-48624177D01*
X163138784Y-48990365D01*
X162773499Y-49662837D01*
X162546425Y-50393650D01*
X162466290Y-51154721D01*
X150387214Y-51154721D01*
X150537048Y-50851653D01*
X149225000Y-49539605D01*
X147912952Y-50851653D01*
X108060145Y-50851653D01*
X107974018Y-50800000D01*
X108170131Y-50682385D01*
X108378519Y-50493414D01*
X108546037Y-50267420D01*
X108666246Y-50013087D01*
X108706904Y-49879039D01*
X108584915Y-49657000D01*
X107442000Y-49657000D01*
X107442000Y-49403000D01*
X108584915Y-49403000D01*
X108585011Y-49402824D01*
X147080098Y-49402824D01*
X147129666Y-49820451D01*
X147259757Y-50220383D01*
X147417786Y-50516038D01*
X147733347Y-50672048D01*
X149045395Y-49360000D01*
X149404605Y-49360000D01*
X150716653Y-50672048D01*
X151032214Y-50516038D01*
X151223020Y-50141255D01*
X151337044Y-49736449D01*
X151369902Y-49317176D01*
X151320334Y-48899549D01*
X151190243Y-48499617D01*
X151160822Y-48444572D01*
X163813177Y-48444572D01*
X166370000Y-51001395D01*
X168926823Y-48444572D01*
X190356177Y-48444572D01*
X192913000Y-51001395D01*
X195469823Y-48444572D01*
X195103635Y-47949784D01*
X194431163Y-47584499D01*
X193700350Y-47357425D01*
X192939279Y-47277290D01*
X192177197Y-47347172D01*
X191443392Y-47564386D01*
X190766064Y-47920584D01*
X190722365Y-47949784D01*
X190356177Y-48444572D01*
X168926823Y-48444572D01*
X168560635Y-47949784D01*
X167888163Y-47584499D01*
X167157350Y-47357425D01*
X166396279Y-47277290D01*
X165634197Y-47347172D01*
X164900392Y-47564386D01*
X164223064Y-47920584D01*
X164179365Y-47949784D01*
X163813177Y-48444572D01*
X151160822Y-48444572D01*
X151032214Y-48203962D01*
X150716653Y-48047952D01*
X149404605Y-49360000D01*
X149045395Y-49360000D01*
X147733347Y-48047952D01*
X147417786Y-48203962D01*
X147226980Y-48578745D01*
X147112956Y-48983551D01*
X147080098Y-49402824D01*
X108585011Y-49402824D01*
X108706904Y-49180961D01*
X108666246Y-49046913D01*
X108546037Y-48792580D01*
X108378519Y-48566586D01*
X108214920Y-48418231D01*
X108239482Y-48415812D01*
X108359180Y-48379502D01*
X108469494Y-48320537D01*
X108566185Y-48241185D01*
X108645537Y-48144494D01*
X108704502Y-48034180D01*
X108740812Y-47914482D01*
X108745355Y-47868347D01*
X147912952Y-47868347D01*
X149225000Y-49180395D01*
X150537048Y-47868347D01*
X150381038Y-47552786D01*
X150006255Y-47361980D01*
X149601449Y-47247956D01*
X149182176Y-47215098D01*
X148764549Y-47264666D01*
X148364617Y-47394757D01*
X148068962Y-47552786D01*
X147912952Y-47868347D01*
X108745355Y-47868347D01*
X108753072Y-47790000D01*
X108750000Y-47275750D01*
X108591250Y-47117000D01*
X107950000Y-47117000D01*
X107974776Y-47114560D01*
X107998601Y-47107333D01*
X108020557Y-47095597D01*
X108039803Y-47079803D01*
X108055597Y-47060557D01*
X108067333Y-47038601D01*
X108074560Y-47014776D01*
X108077000Y-46990000D01*
X108077000Y-46863000D01*
X108591250Y-46863000D01*
X108750000Y-46704250D01*
X108753072Y-46190000D01*
X108740812Y-46065518D01*
X108704502Y-45945820D01*
X108645537Y-45835506D01*
X108566185Y-45738815D01*
X108469494Y-45659463D01*
X108359180Y-45600498D01*
X108239482Y-45564188D01*
X108115000Y-45551928D01*
X107600750Y-45555000D01*
X107562750Y-45593000D01*
X107067250Y-45593000D01*
X107029250Y-45555000D01*
X106515000Y-45551928D01*
X106390518Y-45564188D01*
X106270820Y-45600498D01*
X106160506Y-45659463D01*
X106063815Y-45738815D01*
X105984463Y-45835506D01*
X105925498Y-45945820D01*
X105889188Y-46065518D01*
X105876928Y-46190000D01*
X105877155Y-46228000D01*
X100911707Y-46228000D01*
X100809637Y-46075241D01*
X100609759Y-45875363D01*
X100374727Y-45718320D01*
X100113574Y-45610147D01*
X99836335Y-45555000D01*
X99553665Y-45555000D01*
X99276426Y-45610147D01*
X99015273Y-45718320D01*
X98780241Y-45875363D01*
X98580363Y-46075241D01*
X98423320Y-46310273D01*
X98315147Y-46571426D01*
X98260000Y-46848665D01*
X97307000Y-46848665D01*
X97307000Y-43593279D01*
X97321722Y-43443131D01*
X97355953Y-43329754D01*
X97411555Y-43225181D01*
X97486407Y-43133404D01*
X97577664Y-43057909D01*
X97681844Y-43001581D01*
X97794976Y-42966560D01*
X97943022Y-42951000D01*
X195293721Y-42951000D01*
X195443869Y-42965722D01*
%TA.AperFunction,Conductor*%
D28*
G36*
X195443869Y-42965722D02*
G01*
X195557246Y-42999953D01*
X195661819Y-43055555D01*
X195753596Y-43130407D01*
X195829091Y-43221664D01*
X195885419Y-43325844D01*
X195920440Y-43438976D01*
X195936000Y-43587022D01*
X195936000Y-48836266D01*
X195649428Y-48624177D01*
X193092605Y-51181000D01*
X195649428Y-53737823D01*
X195936000Y-53525734D01*
X195936001Y-114368267D01*
X195649428Y-114156177D01*
X193092605Y-116713000D01*
X195649428Y-119269823D01*
X195936001Y-119057733D01*
X195936001Y-133317711D01*
X195921278Y-133467869D01*
X195887047Y-133581246D01*
X195831446Y-133685817D01*
X195756594Y-133777595D01*
X195665335Y-133853091D01*
X195561160Y-133909419D01*
X195448024Y-133944440D01*
X195299979Y-133960000D01*
X178559492Y-133960000D01*
X178552333Y-133936399D01*
X178540597Y-133914443D01*
X178524803Y-133895197D01*
X178505557Y-133879403D01*
X178483601Y-133867667D01*
X178459776Y-133860440D01*
X178435000Y-133858000D01*
X173505000Y-133858000D01*
X173505000Y-129583711D01*
X173523937Y-129564774D01*
X173637205Y-129395256D01*
X173715226Y-129206898D01*
X173755000Y-129006939D01*
X173755000Y-128803061D01*
X173715226Y-128603102D01*
X173637205Y-128414744D01*
X173523937Y-128245226D01*
X173379774Y-128101063D01*
X173210256Y-127987795D01*
X173021898Y-127909774D01*
X172821939Y-127870000D01*
X172618061Y-127870000D01*
X172418102Y-127909774D01*
X172229744Y-127987795D01*
X172060226Y-128101063D01*
X171916063Y-128245226D01*
X171815000Y-128396478D01*
X171815000Y-127715322D01*
X171822911Y-127635000D01*
X171815000Y-127554678D01*
X171815000Y-124502240D01*
X171914325Y-124402915D01*
X171976714Y-124351714D01*
X172027916Y-124289323D01*
X172281916Y-124035324D01*
X172281925Y-124035313D01*
X175089319Y-121227920D01*
X175151714Y-121176714D01*
X175356031Y-120927752D01*
X175507852Y-120643715D01*
X175601343Y-120335516D01*
X175632911Y-120015000D01*
X175601343Y-119694484D01*
X175527007Y-119449428D01*
X190356177Y-119449428D01*
X190722365Y-119944216D01*
X191394837Y-120309501D01*
X192125650Y-120536575D01*
X192886721Y-120616710D01*
X193648803Y-120546828D01*
X194382608Y-120329614D01*
X195059936Y-119973416D01*
X195103635Y-119944216D01*
X195469823Y-119449428D01*
X192913000Y-116892605D01*
X190356177Y-119449428D01*
X175527007Y-119449428D01*
X175507852Y-119386285D01*
X175356031Y-119102248D01*
X175151714Y-118853286D01*
X174902752Y-118648969D01*
X174618715Y-118497148D01*
X174310516Y-118403657D01*
X174070322Y-118380000D01*
X174070319Y-118380000D01*
X173989999Y-118372089D01*
X173909680Y-118380000D01*
X172165319Y-118380000D01*
X172084999Y-118372089D01*
X172004680Y-118380000D01*
X172004678Y-118380000D01*
X171764484Y-118403657D01*
X171456285Y-118497148D01*
X171172248Y-118648969D01*
X170923286Y-118853286D01*
X170872079Y-118915682D01*
X169715682Y-120072080D01*
X169653287Y-120123286D01*
X169602085Y-120185676D01*
X163787762Y-126000000D01*
X108030322Y-126000000D01*
X107950000Y-125992089D01*
X107869678Y-126000000D01*
X104220322Y-126000000D01*
X104140000Y-125992089D01*
X104059678Y-126000000D01*
X102315322Y-126000000D01*
X102235000Y-125992089D01*
X102154678Y-126000000D01*
X101914484Y-126023657D01*
X101606285Y-126117148D01*
X101322248Y-126268969D01*
X101073286Y-126473286D01*
X100868969Y-126722248D01*
X100717148Y-127006285D01*
X100623657Y-127314484D01*
X100592089Y-127635000D01*
X100600000Y-127715322D01*
X100600001Y-129459671D01*
X100592089Y-129540000D01*
X100623658Y-129860516D01*
X100717148Y-130168714D01*
X100811737Y-130345677D01*
X100868970Y-130452752D01*
X101073287Y-130701714D01*
X101135682Y-130752920D01*
X102615001Y-132232240D01*
X102615001Y-133858000D01*
X97307000Y-133858000D01*
X97307000Y-114770000D01*
X99526928Y-114770000D01*
X99530000Y-115284250D01*
X99568000Y-115322250D01*
X99568000Y-115817750D01*
X99530000Y-115855750D01*
X99526928Y-116370000D01*
X99539188Y-116494482D01*
X99575498Y-116614180D01*
X99634463Y-116724494D01*
X99713815Y-116821185D01*
X99810506Y-116900537D01*
X99920820Y-116959502D01*
X100040518Y-116995812D01*
X100165000Y-117008072D01*
X100679250Y-117005000D01*
X100838000Y-116846250D01*
X100838000Y-115697000D01*
X100584000Y-115697000D01*
X100584000Y-115443000D01*
X100838000Y-115443000D01*
X100838000Y-114293750D01*
X101092000Y-114293750D01*
X101092000Y-115443000D01*
X101112000Y-115443000D01*
X101112000Y-115697000D01*
X101092000Y-115697000D01*
X101092000Y-116846250D01*
X101250750Y-117005000D01*
X101765000Y-117008072D01*
X101889482Y-116995812D01*
X102009180Y-116959502D01*
X102119494Y-116900537D01*
X102216185Y-116821185D01*
X102295537Y-116724494D01*
X102354502Y-116614180D01*
X102390812Y-116494482D01*
X102391643Y-116486039D01*
X102590241Y-116684637D01*
X102825273Y-116841680D01*
X103086426Y-116949853D01*
X103363665Y-117005000D01*
X103646335Y-117005000D01*
X103923574Y-116949853D01*
X104184727Y-116841680D01*
X104419759Y-116684637D01*
X104619637Y-116484759D01*
X104775000Y-116252241D01*
X104930363Y-116484759D01*
X105130241Y-116684637D01*
X105365273Y-116841680D01*
X105626426Y-116949853D01*
X105903665Y-117005000D01*
X106186335Y-117005000D01*
X106463574Y-116949853D01*
X106724727Y-116841680D01*
X106959759Y-116684637D01*
X107000001Y-116644395D01*
X107000002Y-119994240D01*
X106996204Y-120032803D01*
X107011360Y-120186689D01*
X107056247Y-120334662D01*
X107056704Y-120335517D01*
X107129140Y-120471036D01*
X107151455Y-120498226D01*
X107202656Y-120560615D01*
X107202660Y-120560619D01*
X107227238Y-120590567D01*
X107257186Y-120615145D01*
X108581856Y-121939816D01*
X108606434Y-121969764D01*
X108636382Y-121994342D01*
X108636385Y-121994345D01*
X108665757Y-122018450D01*
X108725965Y-122067862D01*
X108862338Y-122140754D01*
X109010310Y-122185641D01*
X109024688Y-122187057D01*
X109125637Y-122197000D01*
X109125644Y-122197000D01*
X109164197Y-122200797D01*
X109202750Y-122197000D01*
X115404447Y-122197000D01*
X115443000Y-122200797D01*
X115481553Y-122197000D01*
X115481561Y-122197000D01*
X115596887Y-122185641D01*
X115744860Y-122140754D01*
X115881233Y-122067862D01*
X116000764Y-121969764D01*
X116025347Y-121939810D01*
X116147096Y-121818061D01*
X120758000Y-121818061D01*
X120758000Y-122021939D01*
X120797774Y-122221898D01*
X120875795Y-122410256D01*
X120989063Y-122579774D01*
X121133226Y-122723937D01*
X121302744Y-122837205D01*
X121491102Y-122915226D01*
X121691061Y-122955000D01*
X121894939Y-122955000D01*
X122094898Y-122915226D01*
X122283256Y-122837205D01*
X122452774Y-122723937D01*
X122471711Y-122705000D01*
X149321618Y-122705000D01*
X149245774Y-122888102D01*
X149206000Y-123088061D01*
X149206000Y-123291939D01*
X149245774Y-123491898D01*
X149323795Y-123680256D01*
X149437063Y-123849774D01*
X149581226Y-123993937D01*
X149750744Y-124107205D01*
X149939102Y-124185226D01*
X150139061Y-124225000D01*
X150342939Y-124225000D01*
X150542898Y-124185226D01*
X150731256Y-124107205D01*
X150900774Y-123993937D01*
X150919711Y-123975000D01*
X152610289Y-123975000D01*
X152629226Y-123993937D01*
X152798744Y-124107205D01*
X152987102Y-124185226D01*
X153187061Y-124225000D01*
X153390939Y-124225000D01*
X153590898Y-124185226D01*
X153779256Y-124107205D01*
X153948774Y-123993937D01*
X154092937Y-123849774D01*
X154206205Y-123680256D01*
X154284226Y-123491898D01*
X154324000Y-123291939D01*
X154324000Y-123088061D01*
X154284226Y-122888102D01*
X154208382Y-122705000D01*
X163664447Y-122705000D01*
X163703000Y-122708797D01*
X163741553Y-122705000D01*
X163741561Y-122705000D01*
X163856887Y-122693641D01*
X164004860Y-122648754D01*
X164141233Y-122575862D01*
X164260764Y-122477764D01*
X164285347Y-122447810D01*
X164540157Y-122193000D01*
X164566939Y-122193000D01*
X164766898Y-122153226D01*
X164955256Y-122075205D01*
X165124774Y-121961937D01*
X165268937Y-121817774D01*
X165382205Y-121648256D01*
X165460226Y-121459898D01*
X165500000Y-121259939D01*
X165500000Y-121056061D01*
X165460226Y-120856102D01*
X165382205Y-120667744D01*
X165268937Y-120498226D01*
X165183158Y-120412447D01*
X165582650Y-120536575D01*
X166343721Y-120616710D01*
X167105803Y-120546828D01*
X167839608Y-120329614D01*
X168516936Y-119973416D01*
X168560635Y-119944216D01*
X168926823Y-119449428D01*
X166370000Y-116892605D01*
X163813177Y-119449428D01*
X164179365Y-119944216D01*
X164508498Y-120123000D01*
X164363061Y-120123000D01*
X164163102Y-120162774D01*
X163974744Y-120240795D01*
X163805226Y-120354063D01*
X163661063Y-120498226D01*
X163547795Y-120667744D01*
X163469774Y-120856102D01*
X163430000Y-121056061D01*
X163430000Y-121082843D01*
X163377843Y-121135000D01*
X122471711Y-121135000D01*
X122452774Y-121116063D01*
X122283256Y-121002795D01*
X122094898Y-120924774D01*
X121894939Y-120885000D01*
X121691061Y-120885000D01*
X121491102Y-120924774D01*
X121302744Y-121002795D01*
X121133226Y-121116063D01*
X120989063Y-121260226D01*
X120875795Y-121429744D01*
X120797774Y-121618102D01*
X120758000Y-121818061D01*
X116147096Y-121818061D01*
X119070158Y-118895000D01*
X123781289Y-118895000D01*
X123800226Y-118913937D01*
X123969744Y-119027205D01*
X124158102Y-119105226D01*
X124358061Y-119145000D01*
X124561939Y-119145000D01*
X124761898Y-119105226D01*
X124950256Y-119027205D01*
X125119774Y-118913937D01*
X125263937Y-118769774D01*
X125377205Y-118600256D01*
X125455226Y-118411898D01*
X125495000Y-118211939D01*
X125495000Y-118008061D01*
X125455226Y-117808102D01*
X125377205Y-117619744D01*
X125263937Y-117450226D01*
X125178019Y-117364308D01*
X125608476Y-116790366D01*
X125685273Y-116841680D01*
X125946426Y-116949853D01*
X126223665Y-117005000D01*
X126506335Y-117005000D01*
X126783574Y-116949853D01*
X127044727Y-116841680D01*
X127279759Y-116684637D01*
X127479637Y-116484759D01*
X127635000Y-116252241D01*
X127790363Y-116484759D01*
X127990241Y-116684637D01*
X128225273Y-116841680D01*
X128486426Y-116949853D01*
X128763665Y-117005000D01*
X129046335Y-117005000D01*
X129323574Y-116949853D01*
X129584727Y-116841680D01*
X129819759Y-116684637D01*
X130019637Y-116484759D01*
X130175000Y-116252241D01*
X130330363Y-116484759D01*
X130530241Y-116684637D01*
X130765273Y-116841680D01*
X131026426Y-116949853D01*
X131303665Y-117005000D01*
X131586335Y-117005000D01*
X131863574Y-116949853D01*
X132124727Y-116841680D01*
X132359759Y-116684637D01*
X132559637Y-116484759D01*
X132715000Y-116252241D01*
X132870363Y-116484759D01*
X133070241Y-116684637D01*
X133305273Y-116841680D01*
X133566426Y-116949853D01*
X133843665Y-117005000D01*
X134126335Y-117005000D01*
X134403574Y-116949853D01*
X134664727Y-116841680D01*
X134899759Y-116684637D01*
X135099637Y-116484759D01*
X135255000Y-116252241D01*
X135410363Y-116484759D01*
X135610241Y-116684637D01*
X135845273Y-116841680D01*
X136106426Y-116949853D01*
X136383665Y-117005000D01*
X136666335Y-117005000D01*
X136731382Y-116992061D01*
X143110000Y-116992061D01*
X143110000Y-117195939D01*
X143149774Y-117395898D01*
X143227795Y-117584256D01*
X143341063Y-117753774D01*
X143485226Y-117897937D01*
X143654744Y-118011205D01*
X143843102Y-118089226D01*
X144043061Y-118129000D01*
X144126000Y-118129000D01*
X144126000Y-118211939D01*
X144165774Y-118411898D01*
X144243795Y-118600256D01*
X144357063Y-118769774D01*
X144501226Y-118913937D01*
X144670744Y-119027205D01*
X144859102Y-119105226D01*
X145059061Y-119145000D01*
X145262939Y-119145000D01*
X145462898Y-119105226D01*
X145651256Y-119027205D01*
X145820774Y-118913937D01*
X145839711Y-118895000D01*
X158076447Y-118895000D01*
X158115000Y-118898797D01*
X158153553Y-118895000D01*
X158153561Y-118895000D01*
X158268887Y-118883641D01*
X158416860Y-118838754D01*
X158553233Y-118765862D01*
X158672764Y-118667764D01*
X158697347Y-118637810D01*
X160648436Y-116686721D01*
X162466290Y-116686721D01*
X162536172Y-117448803D01*
X162753386Y-118182608D01*
X163109584Y-118859936D01*
X163138784Y-118903635D01*
X163633572Y-119269823D01*
X166190395Y-116713000D01*
X166549605Y-116713000D01*
X169106428Y-119269823D01*
X169601216Y-118903635D01*
X169966501Y-118231163D01*
X170193575Y-117500350D01*
X170273710Y-116739279D01*
X170268891Y-116686721D01*
X189009290Y-116686721D01*
X189079172Y-117448803D01*
X189296386Y-118182608D01*
X189652584Y-118859936D01*
X189681784Y-118903635D01*
X190176572Y-119269823D01*
X192733395Y-116713000D01*
X190176572Y-114156177D01*
X189681784Y-114522365D01*
X189316499Y-115194837D01*
X189089425Y-115925650D01*
X189009290Y-116686721D01*
X170268891Y-116686721D01*
X170203828Y-115977197D01*
X169986614Y-115243392D01*
X169630416Y-114566064D01*
X169601216Y-114522365D01*
X169106428Y-114156177D01*
X166549605Y-116713000D01*
X166190395Y-116713000D01*
X163633572Y-114156177D01*
X163138784Y-114522365D01*
X162773499Y-115194837D01*
X162546425Y-115925650D01*
X162466290Y-116686721D01*
X160648436Y-116686721D01*
X163358585Y-113976572D01*
X163813177Y-113976572D01*
X166370000Y-116533395D01*
X168926823Y-113976572D01*
X190356177Y-113976572D01*
X192913000Y-116533395D01*
X195469823Y-113976572D01*
X195103635Y-113481784D01*
X194431163Y-113116499D01*
X193700350Y-112889425D01*
X192939279Y-112809290D01*
X192177197Y-112879172D01*
X191443392Y-113096386D01*
X190766064Y-113452584D01*
X190722365Y-113481784D01*
X190356177Y-113976572D01*
X168926823Y-113976572D01*
X168560635Y-113481784D01*
X167888163Y-113116499D01*
X167157350Y-112889425D01*
X166396279Y-112809290D01*
X165634197Y-112879172D01*
X164900392Y-113096386D01*
X164223064Y-113452584D01*
X164179365Y-113481784D01*
X163813177Y-113976572D01*
X163358585Y-113976572D01*
X163778158Y-113557000D01*
X163804939Y-113557000D01*
X164004898Y-113517226D01*
X164193256Y-113439205D01*
X164362774Y-113325937D01*
X164506937Y-113181774D01*
X164620205Y-113012256D01*
X164698226Y-112823898D01*
X164738000Y-112623939D01*
X164738000Y-112420061D01*
X164698226Y-112220102D01*
X164620205Y-112031744D01*
X164506937Y-111862226D01*
X164362774Y-111718063D01*
X164193256Y-111604795D01*
X164004898Y-111526774D01*
X163804939Y-111487000D01*
X163601061Y-111487000D01*
X163401102Y-111526774D01*
X163212744Y-111604795D01*
X163043226Y-111718063D01*
X162941000Y-111820289D01*
X162838774Y-111718063D01*
X162669256Y-111604795D01*
X162480898Y-111526774D01*
X162280939Y-111487000D01*
X162077061Y-111487000D01*
X161877102Y-111526774D01*
X161688744Y-111604795D01*
X161519226Y-111718063D01*
X161375063Y-111862226D01*
X161261795Y-112031744D01*
X161183774Y-112220102D01*
X161144000Y-112420061D01*
X161144000Y-112446842D01*
X157305805Y-116285038D01*
X144797254Y-116285038D01*
X144635256Y-116176795D01*
X144446898Y-116098774D01*
X144246939Y-116059000D01*
X144043061Y-116059000D01*
X143843102Y-116098774D01*
X143654744Y-116176795D01*
X143485226Y-116290063D01*
X143341063Y-116434226D01*
X143227795Y-116603744D01*
X143149774Y-116792102D01*
X143110000Y-116992061D01*
X136731382Y-116992061D01*
X136943574Y-116949853D01*
X137204727Y-116841680D01*
X137439759Y-116684637D01*
X137639637Y-116484759D01*
X137796680Y-116249727D01*
X137801067Y-116239135D01*
X137912615Y-116425131D01*
X138101586Y-116633519D01*
X138327580Y-116801037D01*
X138581913Y-116921246D01*
X138715961Y-116961904D01*
X138938000Y-116839915D01*
X138938000Y-115697000D01*
X139192000Y-115697000D01*
X139192000Y-116839915D01*
X139414039Y-116961904D01*
X139548087Y-116921246D01*
X139802420Y-116801037D01*
X140028414Y-116633519D01*
X140217385Y-116425131D01*
X140362070Y-116183881D01*
X140456909Y-115919040D01*
X140335624Y-115697000D01*
X139192000Y-115697000D01*
X138938000Y-115697000D01*
X138918000Y-115697000D01*
X138918000Y-115443000D01*
X138938000Y-115443000D01*
X138938000Y-115423000D01*
X139192000Y-115423000D01*
X139192000Y-115443000D01*
X140335624Y-115443000D01*
X140456909Y-115220960D01*
X140362070Y-114956119D01*
X140217385Y-114714869D01*
X140028414Y-114506481D01*
X139952212Y-114449996D01*
X152610289Y-114449996D01*
X152629226Y-114468933D01*
X152798744Y-114582201D01*
X152987102Y-114660222D01*
X153187061Y-114699996D01*
X153390939Y-114699996D01*
X153590898Y-114660222D01*
X153779256Y-114582201D01*
X153948774Y-114468933D01*
X154092937Y-114324770D01*
X154206205Y-114155252D01*
X154284226Y-113966894D01*
X154324000Y-113766935D01*
X154324000Y-113563057D01*
X154284226Y-113363098D01*
X154206205Y-113174740D01*
X154092937Y-113005222D01*
X153948774Y-112861059D01*
X153779256Y-112747791D01*
X153590898Y-112669770D01*
X153390939Y-112629996D01*
X153187061Y-112629996D01*
X153020962Y-112663035D01*
X153054000Y-112496939D01*
X153054000Y-112293061D01*
X153014226Y-112093102D01*
X152936205Y-111904744D01*
X152822937Y-111735226D01*
X152678774Y-111591063D01*
X152509256Y-111477795D01*
X152320898Y-111399774D01*
X152120939Y-111360000D01*
X151917061Y-111360000D01*
X151717102Y-111399774D01*
X151528744Y-111477795D01*
X151359226Y-111591063D01*
X151340289Y-111610000D01*
X150906378Y-111610000D01*
X150982226Y-111426888D01*
X151022000Y-111226929D01*
X151022000Y-111023051D01*
X150982226Y-110823092D01*
X150904205Y-110634734D01*
X150790937Y-110465216D01*
X150646774Y-110321053D01*
X150477256Y-110207785D01*
X150288898Y-110129764D01*
X150088939Y-110089990D01*
X149885061Y-110089990D01*
X149685102Y-110129764D01*
X149496744Y-110207785D01*
X149327226Y-110321053D01*
X149308289Y-110339990D01*
X135928562Y-110339990D01*
X135890009Y-110336193D01*
X135851456Y-110339990D01*
X135851449Y-110339990D01*
X135750500Y-110349933D01*
X135736122Y-110351349D01*
X135701682Y-110361796D01*
X135588150Y-110396236D01*
X135451777Y-110469128D01*
X135426345Y-110490000D01*
X135362197Y-110542645D01*
X135362194Y-110542648D01*
X135332246Y-110567226D01*
X135307668Y-110597174D01*
X131739397Y-114165446D01*
X131586335Y-114135000D01*
X131303665Y-114135000D01*
X131026426Y-114190147D01*
X130765273Y-114298320D01*
X130530241Y-114455363D01*
X130330363Y-114655241D01*
X130175000Y-114887759D01*
X130019637Y-114655241D01*
X129819759Y-114455363D01*
X129584727Y-114298320D01*
X129323574Y-114190147D01*
X129046335Y-114135000D01*
X128763665Y-114135000D01*
X128610603Y-114165446D01*
X123391347Y-108946190D01*
X123366764Y-108916236D01*
X123247233Y-108818138D01*
X123110860Y-108745246D01*
X122962887Y-108700359D01*
X122847561Y-108689000D01*
X122847553Y-108689000D01*
X122809000Y-108685203D01*
X122770447Y-108689000D01*
X107231711Y-108689000D01*
X107212774Y-108670063D01*
X107043256Y-108556795D01*
X106854898Y-108478774D01*
X106654939Y-108439000D01*
X106451061Y-108439000D01*
X106251102Y-108478774D01*
X106062744Y-108556795D01*
X105893226Y-108670063D01*
X105749063Y-108814226D01*
X105635795Y-108983744D01*
X105557774Y-109172102D01*
X105518000Y-109372061D01*
X105518000Y-109391840D01*
X102279841Y-112630000D01*
X102193060Y-112630000D01*
X101993101Y-112669774D01*
X101804743Y-112747795D01*
X101635225Y-112861063D01*
X101491062Y-113005226D01*
X101377794Y-113174744D01*
X101299773Y-113363102D01*
X101259999Y-113563061D01*
X101259999Y-113766939D01*
X101299773Y-113966898D01*
X101369111Y-114134293D01*
X101250750Y-114135000D01*
X101092000Y-114293750D01*
X100838000Y-114293750D01*
X100679250Y-114135000D01*
X100165000Y-114131928D01*
X100040518Y-114144188D01*
X99920820Y-114180498D01*
X99810506Y-114239463D01*
X99713815Y-114318815D01*
X99634463Y-114415506D01*
X99575498Y-114525820D01*
X99539188Y-114645518D01*
X99526928Y-114770000D01*
X97307000Y-114770000D01*
X97307000Y-59690000D01*
X98888057Y-59690000D01*
X98915764Y-59971309D01*
X98997818Y-60241808D01*
X99131068Y-60491101D01*
X99310392Y-60709608D01*
X99528899Y-60888932D01*
X99778192Y-61022182D01*
X100048691Y-61104236D01*
X100259508Y-61125000D01*
X111881837Y-61125000D01*
X110287843Y-62718994D01*
X110261061Y-62718994D01*
X110061102Y-62758768D01*
X109872744Y-62836789D01*
X109703226Y-62950057D01*
X109559063Y-63094220D01*
X109445795Y-63263738D01*
X109367774Y-63452096D01*
X109328000Y-63652055D01*
X109328000Y-63855933D01*
X109367774Y-64055892D01*
X109445795Y-64244250D01*
X109559063Y-64413768D01*
X109703226Y-64557931D01*
X109864891Y-64665952D01*
X109271843Y-65259000D01*
X109245061Y-65259000D01*
X109045102Y-65298774D01*
X108856744Y-65376795D01*
X108687226Y-65490063D01*
X108543063Y-65634226D01*
X108429795Y-65803744D01*
X108351774Y-65992102D01*
X108312000Y-66192061D01*
X108312000Y-66395939D01*
X108351774Y-66595898D01*
X108429795Y-66784256D01*
X108543063Y-66953774D01*
X108645291Y-67056002D01*
X108543067Y-67158226D01*
X108429799Y-67327744D01*
X108351778Y-67516102D01*
X108312004Y-67716061D01*
X108312004Y-67919939D01*
X108351778Y-68119898D01*
X108429799Y-68308256D01*
X108543067Y-68477774D01*
X108687230Y-68621937D01*
X108856748Y-68735205D01*
X109045106Y-68813226D01*
X109245065Y-68853000D01*
X109448943Y-68853000D01*
X109648902Y-68813226D01*
X109837260Y-68735205D01*
X110006778Y-68621937D01*
X110150941Y-68477774D01*
X110264209Y-68308256D01*
X110342230Y-68119898D01*
X110382004Y-67919939D01*
X110382004Y-67893157D01*
X110467045Y-67808117D01*
X110575063Y-67969778D01*
X110719226Y-68113941D01*
X110880885Y-68221958D01*
X109271843Y-69831000D01*
X109245061Y-69831000D01*
X109045102Y-69870774D01*
X108856744Y-69948795D01*
X108687226Y-70062063D01*
X108543063Y-70206226D01*
X108429795Y-70375744D01*
X108351774Y-70564102D01*
X108312000Y-70764061D01*
X108312000Y-70967939D01*
X108351774Y-71167898D01*
X108429795Y-71356256D01*
X108543063Y-71525774D01*
X108687226Y-71669937D01*
X108856744Y-71783205D01*
X109045102Y-71861226D01*
X109245061Y-71901000D01*
X109448939Y-71901000D01*
X109648898Y-71861226D01*
X109837256Y-71783205D01*
X110006774Y-71669937D01*
X110150937Y-71525774D01*
X110264205Y-71356256D01*
X110342226Y-71167898D01*
X110382000Y-70967939D01*
X110382000Y-70941157D01*
X110944945Y-70378212D01*
X115070000Y-70378212D01*
X115070000Y-70601788D01*
X115113617Y-70821067D01*
X115199176Y-71027624D01*
X115323388Y-71213520D01*
X115481480Y-71371612D01*
X115583830Y-71440000D01*
X115481480Y-71508388D01*
X115323388Y-71666480D01*
X115199176Y-71852376D01*
X115113617Y-72058933D01*
X115070000Y-72278212D01*
X115070000Y-72501788D01*
X115113617Y-72721067D01*
X115199176Y-72927624D01*
X115323388Y-73113520D01*
X115481480Y-73271612D01*
X115667376Y-73395824D01*
X115873933Y-73481383D01*
X116093212Y-73525000D01*
X116316788Y-73525000D01*
X116536067Y-73481383D01*
X116742624Y-73395824D01*
X116928520Y-73271612D01*
X117086612Y-73113520D01*
X117210824Y-72927624D01*
X117296383Y-72721067D01*
X117340000Y-72501788D01*
X117340000Y-72278212D01*
X117296383Y-72058933D01*
X117210824Y-71852376D01*
X117086612Y-71666480D01*
X116928520Y-71508388D01*
X116826170Y-71440000D01*
X116928520Y-71371612D01*
X117086612Y-71213520D01*
X117210824Y-71027624D01*
X117296383Y-70821067D01*
X117340000Y-70601788D01*
X117340000Y-70378212D01*
X117296383Y-70158933D01*
X117210824Y-69952376D01*
X117086612Y-69766480D01*
X116928520Y-69608388D01*
X116742624Y-69484176D01*
X116536067Y-69398617D01*
X116316788Y-69355000D01*
X116093212Y-69355000D01*
X115873933Y-69398617D01*
X115667376Y-69484176D01*
X115481480Y-69608388D01*
X115323388Y-69766480D01*
X115199176Y-69952376D01*
X115113617Y-70158933D01*
X115070000Y-70378212D01*
X110944945Y-70378212D01*
X114766928Y-66556230D01*
X114766928Y-68110000D01*
X114779188Y-68234482D01*
X114815498Y-68354180D01*
X114874463Y-68464494D01*
X114953815Y-68561185D01*
X115050506Y-68640537D01*
X115160820Y-68699502D01*
X115280518Y-68735812D01*
X115405000Y-68748072D01*
X117005000Y-68748072D01*
X117129482Y-68735812D01*
X117249180Y-68699502D01*
X117359494Y-68640537D01*
X117456185Y-68561185D01*
X117535537Y-68464494D01*
X117594502Y-68354180D01*
X117630812Y-68234482D01*
X117631643Y-68226039D01*
X117830241Y-68424637D01*
X118065273Y-68581680D01*
X118326426Y-68689853D01*
X118603665Y-68745000D01*
X118886335Y-68745000D01*
X119163574Y-68689853D01*
X119424727Y-68581680D01*
X119659759Y-68424637D01*
X119859637Y-68224759D01*
X120015000Y-67992241D01*
X120170363Y-68224759D01*
X120370241Y-68424637D01*
X120605273Y-68581680D01*
X120866426Y-68689853D01*
X121143665Y-68745000D01*
X121426335Y-68745000D01*
X121703574Y-68689853D01*
X121964727Y-68581680D01*
X122199759Y-68424637D01*
X122399637Y-68224759D01*
X122555000Y-67992241D01*
X122710363Y-68224759D01*
X122910241Y-68424637D01*
X123145273Y-68581680D01*
X123406426Y-68689853D01*
X123683665Y-68745000D01*
X123966335Y-68745000D01*
X124119397Y-68714554D01*
X125020653Y-69615810D01*
X125045236Y-69645764D01*
X125164767Y-69743862D01*
X125301140Y-69816754D01*
X125449113Y-69861642D01*
X125524026Y-69869020D01*
X125564439Y-69873000D01*
X125564444Y-69873000D01*
X125603000Y-69876797D01*
X125641556Y-69873000D01*
X147086928Y-69873000D01*
X147086928Y-71350000D01*
X147099188Y-71474482D01*
X147135498Y-71594180D01*
X147194463Y-71704494D01*
X147273815Y-71801185D01*
X147370506Y-71880537D01*
X147480820Y-71939502D01*
X147600518Y-71975812D01*
X147725000Y-71988072D01*
X150725000Y-71988072D01*
X150849482Y-71975812D01*
X150969180Y-71939502D01*
X151079494Y-71880537D01*
X151176185Y-71801185D01*
X151255537Y-71704494D01*
X151314502Y-71594180D01*
X151350812Y-71474482D01*
X151363072Y-71350000D01*
X151363072Y-68350000D01*
X151350812Y-68225518D01*
X151314502Y-68105820D01*
X151255537Y-67995506D01*
X151176185Y-67898815D01*
X151079494Y-67819463D01*
X150969180Y-67760498D01*
X150849482Y-67724188D01*
X150725000Y-67711928D01*
X147725000Y-67711928D01*
X147600518Y-67724188D01*
X147480820Y-67760498D01*
X147370506Y-67819463D01*
X147273815Y-67898815D01*
X147194463Y-67995506D01*
X147135498Y-68105820D01*
X147099188Y-68225518D01*
X147091557Y-68303000D01*
X135012362Y-68303000D01*
X135137385Y-68165131D01*
X135282070Y-67923881D01*
X135376909Y-67659040D01*
X135255624Y-67437000D01*
X134112000Y-67437000D01*
X134112000Y-67457000D01*
X133858000Y-67457000D01*
X133858000Y-67437000D01*
X133838000Y-67437000D01*
X133838000Y-67183000D01*
X133858000Y-67183000D01*
X133858000Y-67163000D01*
X134112000Y-67163000D01*
X134112000Y-67183000D01*
X135255624Y-67183000D01*
X135376909Y-66960960D01*
X135282070Y-66696119D01*
X135137385Y-66454869D01*
X135012362Y-66317000D01*
X160329843Y-66317000D01*
X161977653Y-67964810D01*
X162002236Y-67994764D01*
X162121767Y-68092862D01*
X162256974Y-68165131D01*
X162258140Y-68165754D01*
X162406113Y-68210642D01*
X162481026Y-68218020D01*
X162521439Y-68222000D01*
X162521444Y-68222000D01*
X162560000Y-68225797D01*
X162598556Y-68222000D01*
X163838526Y-68222000D01*
X163946525Y-68383632D01*
X164153368Y-68590475D01*
X164327760Y-68707000D01*
X164153368Y-68823525D01*
X163946525Y-69030368D01*
X163784010Y-69273589D01*
X163672068Y-69543842D01*
X163615000Y-69830740D01*
X163615000Y-70123260D01*
X163672068Y-70410158D01*
X163784010Y-70680411D01*
X163946525Y-70923632D01*
X164153368Y-71130475D01*
X164327760Y-71247000D01*
X164153368Y-71363525D01*
X163946525Y-71570368D01*
X163784010Y-71813589D01*
X163672068Y-72083842D01*
X163615000Y-72370740D01*
X163615000Y-72663260D01*
X163672068Y-72950158D01*
X163784010Y-73220411D01*
X163946525Y-73463632D01*
X164153368Y-73670475D01*
X164327760Y-73787000D01*
X164153368Y-73903525D01*
X163946525Y-74110368D01*
X163784010Y-74353589D01*
X163672068Y-74623842D01*
X163615000Y-74910740D01*
X163615000Y-75203260D01*
X163672068Y-75490158D01*
X163784010Y-75760411D01*
X163946525Y-76003632D01*
X164153368Y-76210475D01*
X164327760Y-76327000D01*
X164153368Y-76443525D01*
X164153194Y-76443699D01*
X164112205Y-76344744D01*
X163998937Y-76175226D01*
X163854774Y-76031063D01*
X163685256Y-75917795D01*
X163496898Y-75839774D01*
X163296939Y-75800000D01*
X163093061Y-75800000D01*
X162893102Y-75839774D01*
X162704744Y-75917795D01*
X162535226Y-76031063D01*
X162391063Y-76175226D01*
X162277795Y-76344744D01*
X162199774Y-76533102D01*
X162160000Y-76733061D01*
X162160000Y-76759843D01*
X157916843Y-81003000D01*
X157881396Y-81003000D01*
X157959637Y-80924759D01*
X158116680Y-80689727D01*
X158224853Y-80428574D01*
X158280000Y-80151335D01*
X158280000Y-79868665D01*
X158224853Y-79591426D01*
X158116680Y-79330273D01*
X157959637Y-79095241D01*
X157759759Y-78895363D01*
X157524727Y-78738320D01*
X157263574Y-78630147D01*
X156986335Y-78575000D01*
X156703665Y-78575000D01*
X156426426Y-78630147D01*
X156165273Y-78738320D01*
X155930241Y-78895363D01*
X155730363Y-79095241D01*
X155575000Y-79327759D01*
X155419637Y-79095241D01*
X155219759Y-78895363D01*
X154984727Y-78738320D01*
X154723574Y-78630147D01*
X154446335Y-78575000D01*
X154163665Y-78575000D01*
X153886426Y-78630147D01*
X153625273Y-78738320D01*
X153390241Y-78895363D01*
X153190363Y-79095241D01*
X153035000Y-79327759D01*
X152879637Y-79095241D01*
X152679759Y-78895363D01*
X152444727Y-78738320D01*
X152183574Y-78630147D01*
X151906335Y-78575000D01*
X151623665Y-78575000D01*
X151346426Y-78630147D01*
X151085273Y-78738320D01*
X150850241Y-78895363D01*
X150650363Y-79095241D01*
X150495000Y-79327759D01*
X150339637Y-79095241D01*
X150139759Y-78895363D01*
X149904727Y-78738320D01*
X149643574Y-78630147D01*
X149366335Y-78575000D01*
X149083665Y-78575000D01*
X148806426Y-78630147D01*
X148545273Y-78738320D01*
X148310241Y-78895363D01*
X148110363Y-79095241D01*
X147955000Y-79327759D01*
X147799637Y-79095241D01*
X147599759Y-78895363D01*
X147364727Y-78738320D01*
X147103574Y-78630147D01*
X146826335Y-78575000D01*
X146543665Y-78575000D01*
X146266426Y-78630147D01*
X146005273Y-78738320D01*
X145770241Y-78895363D01*
X145570363Y-79095241D01*
X145415000Y-79327759D01*
X145259637Y-79095241D01*
X145059759Y-78895363D01*
X144824727Y-78738320D01*
X144563574Y-78630147D01*
X144286335Y-78575000D01*
X144003665Y-78575000D01*
X143726426Y-78630147D01*
X143465273Y-78738320D01*
X143230241Y-78895363D01*
X143030363Y-79095241D01*
X142875000Y-79327759D01*
X142719637Y-79095241D01*
X142519759Y-78895363D01*
X142284727Y-78738320D01*
X142023574Y-78630147D01*
X141746335Y-78575000D01*
X141463665Y-78575000D01*
X141186426Y-78630147D01*
X140925273Y-78738320D01*
X140690241Y-78895363D01*
X140490363Y-79095241D01*
X140335000Y-79327759D01*
X140179637Y-79095241D01*
X139979759Y-78895363D01*
X139744727Y-78738320D01*
X139483574Y-78630147D01*
X139206335Y-78575000D01*
X138923665Y-78575000D01*
X138646426Y-78630147D01*
X138385273Y-78738320D01*
X138150241Y-78895363D01*
X137950363Y-79095241D01*
X137795000Y-79327759D01*
X137639637Y-79095241D01*
X137439759Y-78895363D01*
X137204727Y-78738320D01*
X136943574Y-78630147D01*
X136666335Y-78575000D01*
X136383665Y-78575000D01*
X136106426Y-78630147D01*
X135845273Y-78738320D01*
X135610241Y-78895363D01*
X135410363Y-79095241D01*
X135255000Y-79327759D01*
X135217323Y-79271371D01*
X135183931Y-79208899D01*
X135138993Y-79154142D01*
X135099637Y-79095241D01*
X135049548Y-79045152D01*
X135049543Y-79045146D01*
X132079554Y-76075159D01*
X132034608Y-76020392D01*
X131816101Y-75841068D01*
X131566808Y-75707818D01*
X131296309Y-75625764D01*
X131085492Y-75605000D01*
X131015000Y-75598057D01*
X130944508Y-75605000D01*
X102989491Y-75605000D01*
X102918999Y-75598057D01*
X102637690Y-75625764D01*
X102574734Y-75644862D01*
X102367192Y-75707818D01*
X102117899Y-75841068D01*
X101899392Y-76020392D01*
X101854454Y-76075149D01*
X100000154Y-77929450D01*
X99945393Y-77974392D01*
X99766068Y-78192899D01*
X99632818Y-78442192D01*
X99550764Y-78712691D01*
X99540095Y-78821010D01*
X99523057Y-78994000D01*
X99530000Y-79064492D01*
X99530000Y-80151335D01*
X99543821Y-80220818D01*
X99550764Y-80291308D01*
X99571326Y-80359094D01*
X99585147Y-80428574D01*
X99612254Y-80494017D01*
X99632818Y-80561807D01*
X99666213Y-80624284D01*
X99693320Y-80689727D01*
X99732675Y-80748626D01*
X99766068Y-80811100D01*
X99811007Y-80865858D01*
X99850363Y-80924759D01*
X99900455Y-80974851D01*
X99945392Y-81029607D01*
X100000150Y-81074546D01*
X100050241Y-81124637D01*
X100109138Y-81163991D01*
X100163899Y-81208932D01*
X100226378Y-81242328D01*
X100285273Y-81281680D01*
X100350712Y-81308786D01*
X100413192Y-81342182D01*
X100480986Y-81362747D01*
X100546426Y-81389853D01*
X100615903Y-81403673D01*
X100683691Y-81424236D01*
X100754183Y-81431179D01*
X100823665Y-81445000D01*
X100838000Y-81445000D01*
X100838000Y-86191928D01*
X100165000Y-86191928D01*
X100040518Y-86204188D01*
X99920820Y-86240498D01*
X99810506Y-86299463D01*
X99713815Y-86378815D01*
X99634463Y-86475506D01*
X99575498Y-86585820D01*
X99539188Y-86705518D01*
X99526928Y-86830000D01*
X99526928Y-88430000D01*
X99539188Y-88554482D01*
X99575498Y-88674180D01*
X99634463Y-88784494D01*
X99713815Y-88881185D01*
X99810506Y-88960537D01*
X99920820Y-89019502D01*
X100040518Y-89055812D01*
X100165000Y-89068072D01*
X101765000Y-89068072D01*
X101889482Y-89055812D01*
X102009180Y-89019502D01*
X102119494Y-88960537D01*
X102216185Y-88881185D01*
X102295537Y-88784494D01*
X102354502Y-88674180D01*
X102390812Y-88554482D01*
X102391643Y-88546039D01*
X102590241Y-88744637D01*
X102825273Y-88901680D01*
X103086426Y-89009853D01*
X103363665Y-89065000D01*
X103646335Y-89065000D01*
X103923574Y-89009853D01*
X104184727Y-88901680D01*
X104419759Y-88744637D01*
X104619637Y-88544759D01*
X104775000Y-88312241D01*
X104930363Y-88544759D01*
X105130241Y-88744637D01*
X105365273Y-88901680D01*
X105626426Y-89009853D01*
X105903665Y-89065000D01*
X106186335Y-89065000D01*
X106463574Y-89009853D01*
X106724727Y-88901680D01*
X106959759Y-88744637D01*
X107159637Y-88544759D01*
X107315000Y-88312241D01*
X107470363Y-88544759D01*
X107670241Y-88744637D01*
X107905273Y-88901680D01*
X108166426Y-89009853D01*
X108443665Y-89065000D01*
X108726335Y-89065000D01*
X109003574Y-89009853D01*
X109264727Y-88901680D01*
X109499759Y-88744637D01*
X109699637Y-88544759D01*
X109855000Y-88312241D01*
X110010363Y-88544759D01*
X110210241Y-88744637D01*
X110445273Y-88901680D01*
X110706426Y-89009853D01*
X110983665Y-89065000D01*
X111266335Y-89065000D01*
X111543574Y-89009853D01*
X111804727Y-88901680D01*
X112039759Y-88744637D01*
X112239637Y-88544759D01*
X112395000Y-88312241D01*
X112550363Y-88544759D01*
X112750241Y-88744637D01*
X112985273Y-88901680D01*
X113246426Y-89009853D01*
X113523665Y-89065000D01*
X113806335Y-89065000D01*
X114083574Y-89009853D01*
X114344727Y-88901680D01*
X114579759Y-88744637D01*
X114779637Y-88544759D01*
X114935000Y-88312241D01*
X115090363Y-88544759D01*
X115290241Y-88744637D01*
X115525273Y-88901680D01*
X115786426Y-89009853D01*
X116063665Y-89065000D01*
X116346335Y-89065000D01*
X116623574Y-89009853D01*
X116884727Y-88901680D01*
X117119759Y-88744637D01*
X117319637Y-88544759D01*
X117475000Y-88312241D01*
X117630363Y-88544759D01*
X117830241Y-88744637D01*
X118065273Y-88901680D01*
X118326426Y-89009853D01*
X118603665Y-89065000D01*
X118886335Y-89065000D01*
X119163574Y-89009853D01*
X119424727Y-88901680D01*
X119659759Y-88744637D01*
X119859637Y-88544759D01*
X120015000Y-88312241D01*
X120170363Y-88544759D01*
X120370241Y-88744637D01*
X120605273Y-88901680D01*
X120866426Y-89009853D01*
X121143665Y-89065000D01*
X121426335Y-89065000D01*
X121703574Y-89009853D01*
X121964727Y-88901680D01*
X122199759Y-88744637D01*
X122399637Y-88544759D01*
X122556680Y-88309727D01*
X122561067Y-88299135D01*
X122672615Y-88485131D01*
X122861586Y-88693519D01*
X123087580Y-88861037D01*
X123341913Y-88981246D01*
X123475961Y-89021904D01*
X123698000Y-88899915D01*
X123698000Y-87757000D01*
X123952000Y-87757000D01*
X123952000Y-88899915D01*
X124174039Y-89021904D01*
X124308087Y-88981246D01*
X124562420Y-88861037D01*
X124788414Y-88693519D01*
X124977385Y-88485131D01*
X125122070Y-88243881D01*
X125216909Y-87979040D01*
X125095624Y-87757000D01*
X123952000Y-87757000D01*
X123698000Y-87757000D01*
X123678000Y-87757000D01*
X123678000Y-87503000D01*
X123698000Y-87503000D01*
X123698000Y-87483000D01*
X123952000Y-87483000D01*
X123952000Y-87503000D01*
X125095624Y-87503000D01*
X125216909Y-87280960D01*
X125122070Y-87016119D01*
X124977385Y-86774869D01*
X124852362Y-86637000D01*
X130512289Y-86637000D01*
X130531226Y-86655937D01*
X130700744Y-86769205D01*
X130889102Y-86847226D01*
X131089061Y-86887000D01*
X131292939Y-86887000D01*
X131492898Y-86847226D01*
X131681256Y-86769205D01*
X131829527Y-86670133D01*
X132546928Y-87387534D01*
X132546928Y-88430000D01*
X132559188Y-88554482D01*
X132595498Y-88674180D01*
X132654463Y-88784494D01*
X132733815Y-88881185D01*
X132830506Y-88960537D01*
X132940820Y-89019502D01*
X133060518Y-89055812D01*
X133185000Y-89068072D01*
X134785000Y-89068072D01*
X134909482Y-89055812D01*
X135029180Y-89019502D01*
X135139494Y-88960537D01*
X135236185Y-88881185D01*
X135315537Y-88784494D01*
X135374502Y-88674180D01*
X135410812Y-88554482D01*
X135411643Y-88546039D01*
X135610241Y-88744637D01*
X135845273Y-88901680D01*
X136106426Y-89009853D01*
X136383665Y-89065000D01*
X136666335Y-89065000D01*
X136943574Y-89009853D01*
X137204727Y-88901680D01*
X137439759Y-88744637D01*
X137639637Y-88544759D01*
X137795000Y-88312241D01*
X137950363Y-88544759D01*
X138150241Y-88744637D01*
X138385273Y-88901680D01*
X138646426Y-89009853D01*
X138923665Y-89065000D01*
X139206335Y-89065000D01*
X139483574Y-89009853D01*
X139744727Y-88901680D01*
X139979759Y-88744637D01*
X140179637Y-88544759D01*
X140335000Y-88312241D01*
X140490363Y-88544759D01*
X140690241Y-88744637D01*
X140925273Y-88901680D01*
X141186426Y-89009853D01*
X141463665Y-89065000D01*
X141746335Y-89065000D01*
X142023574Y-89009853D01*
X142284727Y-88901680D01*
X142519759Y-88744637D01*
X142719637Y-88544759D01*
X142875000Y-88312241D01*
X143030363Y-88544759D01*
X143230241Y-88744637D01*
X143465273Y-88901680D01*
X143726426Y-89009853D01*
X144003665Y-89065000D01*
X144286335Y-89065000D01*
X144563574Y-89009853D01*
X144824727Y-88901680D01*
X145059759Y-88744637D01*
X145259637Y-88544759D01*
X145415000Y-88312241D01*
X145570363Y-88544759D01*
X145770241Y-88744637D01*
X146005273Y-88901680D01*
X146266426Y-89009853D01*
X146543665Y-89065000D01*
X146826335Y-89065000D01*
X147103574Y-89009853D01*
X147364727Y-88901680D01*
X147599759Y-88744637D01*
X147799637Y-88544759D01*
X147955000Y-88312241D01*
X148110363Y-88544759D01*
X148310241Y-88744637D01*
X148545273Y-88901680D01*
X148806426Y-89009853D01*
X149083665Y-89065000D01*
X149366335Y-89065000D01*
X149643574Y-89009853D01*
X149904727Y-88901680D01*
X150139759Y-88744637D01*
X150339637Y-88544759D01*
X150495000Y-88312241D01*
X150650363Y-88544759D01*
X150850241Y-88744637D01*
X151085273Y-88901680D01*
X151346426Y-89009853D01*
X151623665Y-89065000D01*
X151906335Y-89065000D01*
X152183574Y-89009853D01*
X152444727Y-88901680D01*
X152679759Y-88744637D01*
X152879637Y-88544759D01*
X153035000Y-88312241D01*
X153190363Y-88544759D01*
X153390241Y-88744637D01*
X153625273Y-88901680D01*
X153886426Y-89009853D01*
X154163665Y-89065000D01*
X154446335Y-89065000D01*
X154723574Y-89009853D01*
X154984727Y-88901680D01*
X155219759Y-88744637D01*
X155419637Y-88544759D01*
X155576680Y-88309727D01*
X155581067Y-88299135D01*
X155692615Y-88485131D01*
X155881586Y-88693519D01*
X156107580Y-88861037D01*
X156361913Y-88981246D01*
X156495961Y-89021904D01*
X156718000Y-88899915D01*
X156718000Y-87757000D01*
X156972000Y-87757000D01*
X156972000Y-88899915D01*
X157194039Y-89021904D01*
X157328087Y-88981246D01*
X157582420Y-88861037D01*
X157808414Y-88693519D01*
X157997385Y-88485131D01*
X158142070Y-88243881D01*
X158236909Y-87979040D01*
X158115624Y-87757000D01*
X156972000Y-87757000D01*
X156718000Y-87757000D01*
X156698000Y-87757000D01*
X156698000Y-87503000D01*
X156718000Y-87503000D01*
X156718000Y-87483000D01*
X156972000Y-87483000D01*
X156972000Y-87503000D01*
X158115624Y-87503000D01*
X158236909Y-87280960D01*
X158142070Y-87016119D01*
X157997385Y-86774869D01*
X157872362Y-86637000D01*
X160329843Y-86637000D01*
X163652924Y-89960082D01*
X163615000Y-90150740D01*
X163615000Y-90443260D01*
X163672068Y-90730158D01*
X163784010Y-91000411D01*
X163946525Y-91243632D01*
X164153368Y-91450475D01*
X164327760Y-91567000D01*
X164153368Y-91683525D01*
X163946525Y-91890368D01*
X163784010Y-92133589D01*
X163672068Y-92403842D01*
X163615744Y-92687000D01*
X156076328Y-92687000D01*
X156102000Y-92557939D01*
X156102000Y-92354061D01*
X156062226Y-92154102D01*
X155984205Y-91965744D01*
X155870937Y-91796226D01*
X155726774Y-91652063D01*
X155557256Y-91538795D01*
X155368898Y-91460774D01*
X155168939Y-91421000D01*
X154965061Y-91421000D01*
X154765102Y-91460774D01*
X154576744Y-91538795D01*
X154407226Y-91652063D01*
X154388289Y-91671000D01*
X139357556Y-91671000D01*
X139319000Y-91667203D01*
X139280444Y-91671000D01*
X139280439Y-91671000D01*
X139240026Y-91674980D01*
X139165113Y-91682358D01*
X139024768Y-91724932D01*
X139017140Y-91727246D01*
X138880767Y-91800138D01*
X138761236Y-91898236D01*
X138736653Y-91928190D01*
X131739397Y-98925446D01*
X131586335Y-98895000D01*
X131303665Y-98895000D01*
X131075401Y-98940405D01*
X131092205Y-98915256D01*
X131170226Y-98726898D01*
X131210000Y-98526939D01*
X131210000Y-98323061D01*
X131170226Y-98123102D01*
X131092205Y-97934744D01*
X130978937Y-97765226D01*
X130834774Y-97621063D01*
X130665256Y-97507795D01*
X130476898Y-97429774D01*
X130276939Y-97390000D01*
X130250158Y-97390000D01*
X127582347Y-94722190D01*
X127557764Y-94692236D01*
X127438233Y-94594138D01*
X127301860Y-94521246D01*
X127153887Y-94476359D01*
X127038561Y-94465000D01*
X127038553Y-94465000D01*
X127000000Y-94461203D01*
X126961447Y-94465000D01*
X106718556Y-94465000D01*
X106680000Y-94461203D01*
X106641444Y-94465000D01*
X106641439Y-94465000D01*
X106601026Y-94468980D01*
X106526113Y-94476358D01*
X106378140Y-94521246D01*
X106241767Y-94594138D01*
X106122236Y-94692236D01*
X106097653Y-94722190D01*
X105969843Y-94850000D01*
X105943061Y-94850000D01*
X105743102Y-94889774D01*
X105554744Y-94967795D01*
X105385226Y-95081063D01*
X105241063Y-95225226D01*
X105127795Y-95394744D01*
X105049774Y-95583102D01*
X105010000Y-95783061D01*
X105010000Y-95986939D01*
X105049774Y-96186898D01*
X105127795Y-96375256D01*
X105241063Y-96544774D01*
X105385226Y-96688937D01*
X105554744Y-96802205D01*
X105743102Y-96880226D01*
X105943061Y-96920000D01*
X106146939Y-96920000D01*
X106346898Y-96880226D01*
X106535256Y-96802205D01*
X106683527Y-96703133D01*
X107188000Y-97207606D01*
X107188000Y-99007394D01*
X106962757Y-99232637D01*
X106782420Y-99098963D01*
X106528087Y-98978754D01*
X106394039Y-98938096D01*
X106172000Y-99060085D01*
X106172000Y-100023394D01*
X105955197Y-100240197D01*
X105939403Y-100259443D01*
X105927667Y-100281399D01*
X105920440Y-100305224D01*
X105918000Y-100330000D01*
X105920440Y-100354776D01*
X105927667Y-100378601D01*
X105939403Y-100400557D01*
X105955197Y-100419803D01*
X105974443Y-100435597D01*
X105996399Y-100447333D01*
X106020224Y-100454560D01*
X106045000Y-100457000D01*
X106172000Y-100457000D01*
X106172000Y-100477000D01*
X105918000Y-100477000D01*
X105918000Y-100457000D01*
X105898000Y-100457000D01*
X105898000Y-100203000D01*
X105918000Y-100203000D01*
X105918000Y-99060085D01*
X105695961Y-98938096D01*
X105561913Y-98978754D01*
X105307580Y-99098963D01*
X105081586Y-99266481D01*
X104892615Y-99474869D01*
X104781067Y-99660865D01*
X104776680Y-99650273D01*
X104619637Y-99415241D01*
X104419759Y-99215363D01*
X104184727Y-99058320D01*
X103923574Y-98950147D01*
X103646335Y-98895000D01*
X103363665Y-98895000D01*
X103086426Y-98950147D01*
X102825273Y-99058320D01*
X102590241Y-99215363D01*
X102390363Y-99415241D01*
X102235000Y-99647759D01*
X102079637Y-99415241D01*
X101879759Y-99215363D01*
X101644727Y-99058320D01*
X101383574Y-98950147D01*
X101106335Y-98895000D01*
X100823665Y-98895000D01*
X100546426Y-98950147D01*
X100285273Y-99058320D01*
X100050241Y-99215363D01*
X99850363Y-99415241D01*
X99693320Y-99650273D01*
X99585147Y-99911426D01*
X99530000Y-100188665D01*
X99530000Y-100471335D01*
X99585147Y-100748574D01*
X99693320Y-101009727D01*
X99850363Y-101244759D01*
X100050241Y-101444637D01*
X100285273Y-101601680D01*
X100546426Y-101709853D01*
X100823665Y-101765000D01*
X101106335Y-101765000D01*
X101383574Y-101709853D01*
X101644727Y-101601680D01*
X101879759Y-101444637D01*
X102079637Y-101244759D01*
X102235000Y-101012241D01*
X102390363Y-101244759D01*
X102590241Y-101444637D01*
X102825273Y-101601680D01*
X103086426Y-101709853D01*
X103363665Y-101765000D01*
X103646335Y-101765000D01*
X103799397Y-101734554D01*
X108510658Y-106445816D01*
X108535236Y-106475764D01*
X108565184Y-106500342D01*
X108565187Y-106500345D01*
X108594559Y-106524450D01*
X108654767Y-106573862D01*
X108791140Y-106646754D01*
X108904672Y-106681194D01*
X108939112Y-106691641D01*
X108953490Y-106693057D01*
X109054439Y-106703000D01*
X109054446Y-106703000D01*
X109092999Y-106706797D01*
X109131552Y-106703000D01*
X144868447Y-106703000D01*
X144907000Y-106706797D01*
X144945553Y-106703000D01*
X144945561Y-106703000D01*
X145034922Y-106694198D01*
X145059061Y-106699000D01*
X145262939Y-106699000D01*
X145462898Y-106659226D01*
X145651256Y-106581205D01*
X145820774Y-106467937D01*
X145964937Y-106323774D01*
X146078205Y-106154256D01*
X146156226Y-105965898D01*
X146196000Y-105765939D01*
X146196000Y-105562061D01*
X146156226Y-105362102D01*
X146078205Y-105173744D01*
X145964937Y-105004226D01*
X145820774Y-104860063D01*
X145651256Y-104746795D01*
X145462898Y-104668774D01*
X145262939Y-104629000D01*
X145059061Y-104629000D01*
X144859102Y-104668774D01*
X144753141Y-104712665D01*
X144808205Y-104630256D01*
X144886226Y-104441898D01*
X144926000Y-104241939D01*
X144926000Y-104038061D01*
X144886226Y-103838102D01*
X144808205Y-103649744D01*
X144694937Y-103480226D01*
X144550774Y-103336063D01*
X144381256Y-103222795D01*
X144198272Y-103147000D01*
X154233843Y-103147000D01*
X154484653Y-103397810D01*
X154509236Y-103427764D01*
X154628767Y-103525862D01*
X154765140Y-103598754D01*
X154878672Y-103633194D01*
X154913112Y-103643641D01*
X154927490Y-103645057D01*
X155028439Y-103655000D01*
X155028446Y-103655000D01*
X155066999Y-103658797D01*
X155105552Y-103655000D01*
X155912289Y-103655000D01*
X155931226Y-103673937D01*
X156100744Y-103787205D01*
X156289102Y-103865226D01*
X156489061Y-103905000D01*
X156692939Y-103905000D01*
X156892898Y-103865226D01*
X157081256Y-103787205D01*
X157250774Y-103673937D01*
X157353000Y-103571711D01*
X157455226Y-103673937D01*
X157624744Y-103787205D01*
X157813102Y-103865226D01*
X158013061Y-103905000D01*
X158216939Y-103905000D01*
X158416898Y-103865226D01*
X158605256Y-103787205D01*
X158774774Y-103673937D01*
X158793711Y-103655000D01*
X162107843Y-103655000D01*
X163652925Y-105200082D01*
X163615000Y-105390740D01*
X163615000Y-105683260D01*
X163672068Y-105970158D01*
X163784010Y-106240411D01*
X163946525Y-106483632D01*
X164078380Y-106615487D01*
X164005820Y-106637498D01*
X163895506Y-106696463D01*
X163798815Y-106775815D01*
X163719463Y-106872506D01*
X163660498Y-106982820D01*
X163624188Y-107102518D01*
X163611928Y-107227000D01*
X163611928Y-108927000D01*
X163624188Y-109051482D01*
X163660498Y-109171180D01*
X163719463Y-109281494D01*
X163798815Y-109378185D01*
X163895506Y-109457537D01*
X164005820Y-109516502D01*
X164125518Y-109552812D01*
X164250000Y-109565072D01*
X165950000Y-109565072D01*
X166074482Y-109552812D01*
X166194180Y-109516502D01*
X166304494Y-109457537D01*
X166401185Y-109378185D01*
X166480537Y-109281494D01*
X166539502Y-109171180D01*
X166562498Y-109095374D01*
X166758645Y-109272178D01*
X167008748Y-109421157D01*
X167283109Y-109518481D01*
X167513000Y-109397814D01*
X167513000Y-108204000D01*
X167767000Y-108204000D01*
X167767000Y-109397814D01*
X167996891Y-109518481D01*
X168271252Y-109421157D01*
X168521355Y-109272178D01*
X168737588Y-109077269D01*
X168911641Y-108843920D01*
X169036825Y-108581099D01*
X169081476Y-108433890D01*
X168960155Y-108204000D01*
X167767000Y-108204000D01*
X167513000Y-108204000D01*
X167493000Y-108204000D01*
X167493000Y-107950000D01*
X167513000Y-107950000D01*
X167513000Y-107930000D01*
X167767000Y-107930000D01*
X167767000Y-107950000D01*
X168960155Y-107950000D01*
X169081476Y-107720110D01*
X169036825Y-107572901D01*
X168911641Y-107310080D01*
X168737588Y-107076731D01*
X168521355Y-106881822D01*
X168404466Y-106812195D01*
X168586632Y-106690475D01*
X168793475Y-106483632D01*
X168955990Y-106240411D01*
X169067932Y-105970158D01*
X169125000Y-105683260D01*
X169125000Y-105390740D01*
X169067932Y-105103842D01*
X168955990Y-104833589D01*
X168793475Y-104590368D01*
X168586632Y-104383525D01*
X168412240Y-104267000D01*
X168586632Y-104150475D01*
X168793475Y-103943632D01*
X168955990Y-103700411D01*
X169067932Y-103430158D01*
X169125000Y-103143260D01*
X169125000Y-102850740D01*
X169067932Y-102563842D01*
X168955990Y-102293589D01*
X168793475Y-102050368D01*
X168586632Y-101843525D01*
X168412240Y-101727000D01*
X168586632Y-101610475D01*
X168793475Y-101403632D01*
X168955990Y-101160411D01*
X169067932Y-100890158D01*
X169125000Y-100603260D01*
X169125000Y-100310740D01*
X169067932Y-100023842D01*
X168955990Y-99753589D01*
X168793475Y-99510368D01*
X168586632Y-99303525D01*
X168412240Y-99187000D01*
X168586632Y-99070475D01*
X168793475Y-98863632D01*
X168955990Y-98620411D01*
X169067932Y-98350158D01*
X169125000Y-98063260D01*
X169125000Y-97770740D01*
X169067932Y-97483842D01*
X168955990Y-97213589D01*
X168793475Y-96970368D01*
X168586632Y-96763525D01*
X168412240Y-96647000D01*
X168586632Y-96530475D01*
X168793475Y-96323632D01*
X168955990Y-96080411D01*
X169067932Y-95810158D01*
X169125000Y-95523260D01*
X169125000Y-95230740D01*
X169067932Y-94943842D01*
X168955990Y-94673589D01*
X168793475Y-94430368D01*
X168586632Y-94223525D01*
X168412240Y-94107000D01*
X168586632Y-93990475D01*
X168793475Y-93783632D01*
X168955990Y-93540411D01*
X169067932Y-93270158D01*
X169125000Y-92983260D01*
X169125000Y-92690740D01*
X169067932Y-92403842D01*
X168955990Y-92133589D01*
X168793475Y-91890368D01*
X168586632Y-91683525D01*
X168412240Y-91567000D01*
X168586632Y-91450475D01*
X168793475Y-91243632D01*
X168955990Y-91000411D01*
X169067932Y-90730158D01*
X169125000Y-90443260D01*
X169125000Y-90150740D01*
X169067932Y-89863842D01*
X168955990Y-89593589D01*
X168793475Y-89350368D01*
X168586632Y-89143525D01*
X168412240Y-89027000D01*
X168586632Y-88910475D01*
X168793475Y-88703632D01*
X168955990Y-88460411D01*
X169067932Y-88190158D01*
X169125000Y-87903260D01*
X169125000Y-87610740D01*
X169067932Y-87323842D01*
X168955990Y-87053589D01*
X168793475Y-86810368D01*
X168586632Y-86603525D01*
X168412240Y-86487000D01*
X168586632Y-86370475D01*
X168793475Y-86163632D01*
X168955990Y-85920411D01*
X169067932Y-85650158D01*
X169125000Y-85363260D01*
X169125000Y-85070740D01*
X169067932Y-84783842D01*
X168955990Y-84513589D01*
X168793475Y-84270368D01*
X168586632Y-84063525D01*
X168404466Y-83941805D01*
X168521355Y-83872178D01*
X168737588Y-83677269D01*
X168911641Y-83443920D01*
X169036825Y-83181099D01*
X169081476Y-83033890D01*
X168960155Y-82804000D01*
X167767000Y-82804000D01*
X167767000Y-82824000D01*
X167513000Y-82824000D01*
X167513000Y-82804000D01*
X167493000Y-82804000D01*
X167493000Y-82550000D01*
X167513000Y-82550000D01*
X167513000Y-80264000D01*
X167767000Y-80264000D01*
X167767000Y-82550000D01*
X168960155Y-82550000D01*
X169081476Y-82320110D01*
X169036825Y-82172901D01*
X168911641Y-81910080D01*
X168737588Y-81676731D01*
X168521355Y-81481822D01*
X168395745Y-81407000D01*
X168521355Y-81332178D01*
X168737588Y-81137269D01*
X168911641Y-80903920D01*
X169036825Y-80641099D01*
X169081476Y-80493890D01*
X168960155Y-80264000D01*
X167767000Y-80264000D01*
X167513000Y-80264000D01*
X167493000Y-80264000D01*
X167493000Y-80010000D01*
X167513000Y-80010000D01*
X167513000Y-77724000D01*
X167767000Y-77724000D01*
X167767000Y-80010000D01*
X168960155Y-80010000D01*
X169081476Y-79780110D01*
X169036825Y-79632901D01*
X168911641Y-79370080D01*
X168737588Y-79136731D01*
X168521355Y-78941822D01*
X168395745Y-78867000D01*
X168521355Y-78792178D01*
X168737588Y-78597269D01*
X168911641Y-78363920D01*
X169036825Y-78101099D01*
X169081476Y-77953890D01*
X168960155Y-77724000D01*
X167767000Y-77724000D01*
X167513000Y-77724000D01*
X167493000Y-77724000D01*
X167493000Y-77470000D01*
X167513000Y-77470000D01*
X167513000Y-77450000D01*
X167767000Y-77450000D01*
X167767000Y-77470000D01*
X168960155Y-77470000D01*
X169081476Y-77240110D01*
X169036825Y-77092901D01*
X168911641Y-76830080D01*
X168737588Y-76596731D01*
X168521355Y-76401822D01*
X168404466Y-76332195D01*
X168586632Y-76210475D01*
X168793475Y-76003632D01*
X168955990Y-75760411D01*
X169067932Y-75490158D01*
X169125000Y-75203260D01*
X169125000Y-74910740D01*
X169067932Y-74623842D01*
X168955990Y-74353589D01*
X168793475Y-74110368D01*
X168586632Y-73903525D01*
X168404466Y-73781805D01*
X168521355Y-73712178D01*
X168737588Y-73517269D01*
X168911641Y-73283920D01*
X169036825Y-73021099D01*
X169081476Y-72873890D01*
X168960155Y-72644000D01*
X167767000Y-72644000D01*
X167767000Y-72664000D01*
X167513000Y-72664000D01*
X167513000Y-72644000D01*
X167493000Y-72644000D01*
X167493000Y-72390000D01*
X167513000Y-72390000D01*
X167513000Y-72370000D01*
X167767000Y-72370000D01*
X167767000Y-72390000D01*
X168960155Y-72390000D01*
X169081476Y-72160110D01*
X169036825Y-72012901D01*
X168911641Y-71750080D01*
X168737588Y-71516731D01*
X168521355Y-71321822D01*
X168404466Y-71252195D01*
X168586632Y-71130475D01*
X168793475Y-70923632D01*
X168955990Y-70680411D01*
X169067932Y-70410158D01*
X169125000Y-70123260D01*
X169125000Y-69830740D01*
X169067932Y-69543842D01*
X168955990Y-69273589D01*
X168793475Y-69030368D01*
X168586632Y-68823525D01*
X168412240Y-68707000D01*
X168586632Y-68590475D01*
X168793475Y-68383632D01*
X168955990Y-68140411D01*
X169067932Y-67870158D01*
X169125000Y-67583260D01*
X169125000Y-67290740D01*
X169067932Y-67003842D01*
X168955990Y-66733589D01*
X168793475Y-66490368D01*
X168586632Y-66283525D01*
X168412240Y-66167000D01*
X168586632Y-66050475D01*
X168793475Y-65843632D01*
X168955990Y-65600411D01*
X169067932Y-65330158D01*
X169125000Y-65043260D01*
X169125000Y-64750740D01*
X169067932Y-64463842D01*
X168955990Y-64193589D01*
X168793475Y-63950368D01*
X168586632Y-63743525D01*
X168412240Y-63627000D01*
X168586632Y-63510475D01*
X168793475Y-63303632D01*
X168955990Y-63060411D01*
X169067932Y-62790158D01*
X169125000Y-62503260D01*
X169125000Y-62210740D01*
X169067932Y-61923842D01*
X168955990Y-61653589D01*
X168793475Y-61410368D01*
X168586632Y-61203525D01*
X168404466Y-61081805D01*
X168521355Y-61012178D01*
X168737588Y-60817269D01*
X168911641Y-60583920D01*
X169036825Y-60321099D01*
X169081476Y-60173890D01*
X168960155Y-59944000D01*
X167767000Y-59944000D01*
X167767000Y-59964000D01*
X167513000Y-59964000D01*
X167513000Y-59944000D01*
X167493000Y-59944000D01*
X167493000Y-59690000D01*
X167513000Y-59690000D01*
X167513000Y-58496186D01*
X167767000Y-58496186D01*
X167767000Y-59690000D01*
X168960155Y-59690000D01*
X169081476Y-59460110D01*
X169081476Y-59460109D01*
X177969519Y-59460109D01*
X178090186Y-59690000D01*
X178123667Y-59690000D01*
X178123667Y-59937833D01*
X178124274Y-59944000D01*
X178090186Y-59944000D01*
X177969519Y-60173891D01*
X178066843Y-60448252D01*
X178215822Y-60698355D01*
X178410731Y-60914588D01*
X178644080Y-61088641D01*
X178906901Y-61213825D01*
X179054110Y-61258476D01*
X179284000Y-61137155D01*
X179284000Y-60318833D01*
X179520667Y-60318833D01*
X179538000Y-60317126D01*
X179538000Y-61137155D01*
X179767890Y-61258476D01*
X179915099Y-61213825D01*
X180177920Y-61088641D01*
X180411269Y-60914588D01*
X180487034Y-60830534D01*
X180511498Y-60911180D01*
X180570463Y-61021494D01*
X180649815Y-61118185D01*
X180746506Y-61197537D01*
X180856820Y-61256502D01*
X180976518Y-61292812D01*
X181101000Y-61305072D01*
X182801000Y-61305072D01*
X182925482Y-61292812D01*
X183045180Y-61256502D01*
X183155494Y-61197537D01*
X183252185Y-61118185D01*
X183331537Y-61021494D01*
X183390502Y-60911180D01*
X183426812Y-60791482D01*
X183439072Y-60667000D01*
X183439072Y-58967000D01*
X183426812Y-58842518D01*
X183390502Y-58722820D01*
X183331537Y-58612506D01*
X183252185Y-58515815D01*
X183155494Y-58436463D01*
X183045180Y-58377498D01*
X182925482Y-58341188D01*
X182801000Y-58328928D01*
X181101000Y-58328928D01*
X180976518Y-58341188D01*
X180856820Y-58377498D01*
X180746506Y-58436463D01*
X180649815Y-58515815D01*
X180570463Y-58612506D01*
X180511498Y-58722820D01*
X180487034Y-58803466D01*
X180411269Y-58719412D01*
X180177920Y-58545359D01*
X179915099Y-58420175D01*
X179767890Y-58375524D01*
X179538000Y-58496845D01*
X179538000Y-59304540D01*
X179520667Y-59302833D01*
X179284000Y-59302833D01*
X179284000Y-58496845D01*
X179054110Y-58375524D01*
X178906901Y-58420175D01*
X178644080Y-58545359D01*
X178410731Y-58719412D01*
X178215822Y-58935645D01*
X178066843Y-59185748D01*
X177969519Y-59460109D01*
X169081476Y-59460109D01*
X169036825Y-59312901D01*
X168911641Y-59050080D01*
X168737588Y-58816731D01*
X168521355Y-58621822D01*
X168271252Y-58472843D01*
X167996891Y-58375519D01*
X167767000Y-58496186D01*
X167513000Y-58496186D01*
X167283109Y-58375519D01*
X167008748Y-58472843D01*
X166758645Y-58621822D01*
X166542412Y-58816731D01*
X166371100Y-59046406D01*
X166253475Y-58870368D01*
X166046632Y-58663525D01*
X165803411Y-58501010D01*
X165533158Y-58389068D01*
X165246260Y-58332000D01*
X164953740Y-58332000D01*
X164666842Y-58389068D01*
X164396589Y-58501010D01*
X164153368Y-58663525D01*
X163946525Y-58870368D01*
X163784010Y-59113589D01*
X163672068Y-59383842D01*
X163615000Y-59670740D01*
X163615000Y-59963260D01*
X163672068Y-60250158D01*
X163784010Y-60520411D01*
X163946525Y-60763632D01*
X164153368Y-60970475D01*
X164327760Y-61087000D01*
X164153368Y-61203525D01*
X163946525Y-61410368D01*
X163784010Y-61653589D01*
X163672068Y-61923842D01*
X163615000Y-62210740D01*
X163615000Y-62503260D01*
X163672068Y-62790158D01*
X163725943Y-62920224D01*
X163633233Y-62844138D01*
X163496860Y-62771246D01*
X163348887Y-62726359D01*
X163233561Y-62715000D01*
X163233553Y-62715000D01*
X163195000Y-62711203D01*
X163156447Y-62715000D01*
X131692328Y-62715000D01*
X131718000Y-62585939D01*
X131718000Y-62382061D01*
X131692328Y-62253000D01*
X132036301Y-62253000D01*
X132055238Y-62271937D01*
X132224756Y-62385205D01*
X132413114Y-62463226D01*
X132613073Y-62503000D01*
X132816951Y-62503000D01*
X133016910Y-62463226D01*
X133205268Y-62385205D01*
X133374786Y-62271937D01*
X133518949Y-62127774D01*
X133632217Y-61958256D01*
X133710238Y-61769898D01*
X133750012Y-61569939D01*
X133750012Y-61366061D01*
X133710238Y-61166102D01*
X133679703Y-61092386D01*
X133843665Y-61125000D01*
X134126335Y-61125000D01*
X134403574Y-61069853D01*
X134664727Y-60961680D01*
X134899759Y-60804637D01*
X135099637Y-60604759D01*
X135256680Y-60369727D01*
X135364853Y-60108574D01*
X135420000Y-59831335D01*
X135420000Y-59548665D01*
X135364853Y-59271426D01*
X135256680Y-59010273D01*
X135099637Y-58775241D01*
X134899759Y-58575363D01*
X134664727Y-58418320D01*
X134403574Y-58310147D01*
X134126335Y-58255000D01*
X133843665Y-58255000D01*
X133690604Y-58285446D01*
X132027347Y-56622190D01*
X132002764Y-56592236D01*
X131883233Y-56494138D01*
X131746860Y-56421246D01*
X131598887Y-56376359D01*
X131483561Y-56365000D01*
X131483553Y-56365000D01*
X131445000Y-56361203D01*
X131406447Y-56365000D01*
X121323552Y-56365000D01*
X121284999Y-56361203D01*
X121246446Y-56365000D01*
X121246439Y-56365000D01*
X121131113Y-56376359D01*
X120983140Y-56421246D01*
X120846767Y-56494138D01*
X120786559Y-56543550D01*
X120757187Y-56567655D01*
X120757184Y-56567658D01*
X120727236Y-56592236D01*
X120702658Y-56622184D01*
X119039397Y-58285446D01*
X118886335Y-58255000D01*
X118603665Y-58255000D01*
X118326426Y-58310147D01*
X118065273Y-58418320D01*
X117830241Y-58575363D01*
X117630363Y-58775241D01*
X117475000Y-59007759D01*
X117437328Y-58951378D01*
X117403932Y-58888899D01*
X117358990Y-58834137D01*
X117319637Y-58775241D01*
X117269550Y-58725154D01*
X117224608Y-58670392D01*
X117169846Y-58625450D01*
X117119759Y-58575363D01*
X117060863Y-58536010D01*
X117006101Y-58491068D01*
X116943622Y-58457672D01*
X116884727Y-58418320D01*
X116819288Y-58391214D01*
X116756808Y-58357818D01*
X116689014Y-58337253D01*
X116623574Y-58310147D01*
X116554097Y-58296327D01*
X116486309Y-58275764D01*
X116415817Y-58268821D01*
X116346335Y-58255000D01*
X100259508Y-58255000D01*
X100048691Y-58275764D01*
X99778192Y-58357818D01*
X99528899Y-58491068D01*
X99310392Y-58670392D01*
X99131068Y-58888899D01*
X98997818Y-59138192D01*
X98915764Y-59408691D01*
X98888057Y-59690000D01*
X97307000Y-59690000D01*
X97307000Y-46848665D01*
X98260000Y-46848665D01*
X98260000Y-47131335D01*
X98315147Y-47408574D01*
X98423320Y-47669727D01*
X98580363Y-47904759D01*
X98780241Y-48104637D01*
X99012759Y-48260000D01*
X98780241Y-48415363D01*
X98580363Y-48615241D01*
X98423320Y-48850273D01*
X98315147Y-49111426D01*
X98260000Y-49388665D01*
X98260000Y-49671335D01*
X98315147Y-49948574D01*
X98423320Y-50209727D01*
X98580363Y-50444759D01*
X98780241Y-50644637D01*
X99012759Y-50800000D01*
X98780241Y-50955363D01*
X98580363Y-51155241D01*
X98423320Y-51390273D01*
X98315147Y-51651426D01*
X98260000Y-51928665D01*
X98260000Y-52211335D01*
X98315147Y-52488574D01*
X98423320Y-52749727D01*
X98580363Y-52984759D01*
X98780241Y-53184637D01*
X99012759Y-53340000D01*
X98780241Y-53495363D01*
X98580363Y-53695241D01*
X98423320Y-53930273D01*
X98315147Y-54191426D01*
X98260000Y-54468665D01*
X98260000Y-54751335D01*
X98315147Y-55028574D01*
X98423320Y-55289727D01*
X98580363Y-55524759D01*
X98780241Y-55724637D01*
X99015273Y-55881680D01*
X99276426Y-55989853D01*
X99553665Y-56045000D01*
X99836335Y-56045000D01*
X100113574Y-55989853D01*
X100374727Y-55881680D01*
X100609759Y-55724637D01*
X100809637Y-55524759D01*
X100966680Y-55289727D01*
X101074853Y-55028574D01*
X101130000Y-54751335D01*
X101130000Y-54737000D01*
X105880000Y-54737000D01*
X105880000Y-54751335D01*
X105935147Y-55028574D01*
X106043320Y-55289727D01*
X106200363Y-55524759D01*
X106400241Y-55724637D01*
X106635273Y-55881680D01*
X106896426Y-55989853D01*
X107173665Y-56045000D01*
X107456335Y-56045000D01*
X107733574Y-55989853D01*
X107994727Y-55881680D01*
X108229759Y-55724637D01*
X108429637Y-55524759D01*
X108516339Y-55395000D01*
X125686289Y-55395000D01*
X125705226Y-55413937D01*
X125874744Y-55527205D01*
X126063102Y-55605226D01*
X126263061Y-55645000D01*
X126466939Y-55645000D01*
X126666898Y-55605226D01*
X126855256Y-55527205D01*
X127024774Y-55413937D01*
X127168937Y-55269774D01*
X127282205Y-55100256D01*
X127360226Y-54911898D01*
X127400000Y-54711939D01*
X127400000Y-54508061D01*
X127360226Y-54308102D01*
X127284382Y-54125000D01*
X132643843Y-54125000D01*
X133204000Y-54685158D01*
X133204000Y-54711939D01*
X133243774Y-54911898D01*
X133321795Y-55100256D01*
X133435063Y-55269774D01*
X133579226Y-55413937D01*
X133748744Y-55527205D01*
X133937102Y-55605226D01*
X134137061Y-55645000D01*
X134340939Y-55645000D01*
X134540898Y-55605226D01*
X134729256Y-55527205D01*
X134898774Y-55413937D01*
X135042937Y-55269774D01*
X135156205Y-55100256D01*
X135234226Y-54911898D01*
X135274000Y-54711939D01*
X135274000Y-54508061D01*
X135234226Y-54308102D01*
X135156205Y-54119744D01*
X135042937Y-53950226D01*
X135010139Y-53917428D01*
X163813177Y-53917428D01*
X164179365Y-54412216D01*
X164851837Y-54777501D01*
X165582650Y-55004575D01*
X166343721Y-55084710D01*
X167105803Y-55014828D01*
X167839608Y-54797614D01*
X168516936Y-54441416D01*
X168560635Y-54412216D01*
X168926823Y-53917428D01*
X190356177Y-53917428D01*
X190722365Y-54412216D01*
X191394837Y-54777501D01*
X192125650Y-55004575D01*
X192886721Y-55084710D01*
X193648803Y-55014828D01*
X194382608Y-54797614D01*
X195059936Y-54441416D01*
X195103635Y-54412216D01*
X195469823Y-53917428D01*
X192913000Y-51360605D01*
X190356177Y-53917428D01*
X168926823Y-53917428D01*
X166370000Y-51360605D01*
X163813177Y-53917428D01*
X135010139Y-53917428D01*
X134898774Y-53806063D01*
X134729256Y-53692795D01*
X134540898Y-53614774D01*
X134340939Y-53575000D01*
X134314158Y-53575000D01*
X133551347Y-52812190D01*
X133526764Y-52782236D01*
X133407233Y-52684138D01*
X133270860Y-52611246D01*
X133122887Y-52566359D01*
X133007561Y-52555000D01*
X133007553Y-52555000D01*
X132969000Y-52551203D01*
X132930447Y-52555000D01*
X108665342Y-52555000D01*
X108666246Y-52553087D01*
X108706904Y-52419039D01*
X108584915Y-52197000D01*
X107442000Y-52197000D01*
X107442000Y-51943000D01*
X108584915Y-51943000D01*
X108706904Y-51720961D01*
X108666246Y-51586913D01*
X108546037Y-51332580D01*
X108378519Y-51106586D01*
X108170131Y-50917615D01*
X108060145Y-50851653D01*
X147912952Y-50851653D01*
X148068962Y-51167214D01*
X148443745Y-51358020D01*
X148848551Y-51472044D01*
X149267824Y-51504902D01*
X149685451Y-51455334D01*
X150085383Y-51325243D01*
X150381038Y-51167214D01*
X150387214Y-51154721D01*
X162466290Y-51154721D01*
X162536172Y-51916803D01*
X162753386Y-52650608D01*
X163109584Y-53327936D01*
X163138784Y-53371635D01*
X163633572Y-53737823D01*
X166190395Y-51181000D01*
X166549605Y-51181000D01*
X169106428Y-53737823D01*
X169601216Y-53371635D01*
X169966501Y-52699163D01*
X170193575Y-51968350D01*
X170273710Y-51207279D01*
X170268891Y-51154721D01*
X189009290Y-51154721D01*
X189079172Y-51916803D01*
X189296386Y-52650608D01*
X189652584Y-53327936D01*
X189681784Y-53371635D01*
X190176572Y-53737823D01*
X192733395Y-51181000D01*
X190176572Y-48624177D01*
X189681784Y-48990365D01*
X189316499Y-49662837D01*
X189089425Y-50393650D01*
X189009290Y-51154721D01*
X170268891Y-51154721D01*
X170203828Y-50445197D01*
X169986614Y-49711392D01*
X169630416Y-49034064D01*
X169601216Y-48990365D01*
X169106428Y-48624177D01*
X166549605Y-51181000D01*
X166190395Y-51181000D01*
X163633572Y-48624177D01*
X163138784Y-48990365D01*
X162773499Y-49662837D01*
X162546425Y-50393650D01*
X162466290Y-51154721D01*
X150387214Y-51154721D01*
X150537048Y-50851653D01*
X149225000Y-49539605D01*
X147912952Y-50851653D01*
X108060145Y-50851653D01*
X107974018Y-50800000D01*
X108170131Y-50682385D01*
X108378519Y-50493414D01*
X108546037Y-50267420D01*
X108666246Y-50013087D01*
X108706904Y-49879039D01*
X108584915Y-49657000D01*
X107442000Y-49657000D01*
X107442000Y-49403000D01*
X108584915Y-49403000D01*
X108585011Y-49402824D01*
X147080098Y-49402824D01*
X147129666Y-49820451D01*
X147259757Y-50220383D01*
X147417786Y-50516038D01*
X147733347Y-50672048D01*
X149045395Y-49360000D01*
X149404605Y-49360000D01*
X150716653Y-50672048D01*
X151032214Y-50516038D01*
X151223020Y-50141255D01*
X151337044Y-49736449D01*
X151369902Y-49317176D01*
X151320334Y-48899549D01*
X151190243Y-48499617D01*
X151160822Y-48444572D01*
X163813177Y-48444572D01*
X166370000Y-51001395D01*
X168926823Y-48444572D01*
X190356177Y-48444572D01*
X192913000Y-51001395D01*
X195469823Y-48444572D01*
X195103635Y-47949784D01*
X194431163Y-47584499D01*
X193700350Y-47357425D01*
X192939279Y-47277290D01*
X192177197Y-47347172D01*
X191443392Y-47564386D01*
X190766064Y-47920584D01*
X190722365Y-47949784D01*
X190356177Y-48444572D01*
X168926823Y-48444572D01*
X168560635Y-47949784D01*
X167888163Y-47584499D01*
X167157350Y-47357425D01*
X166396279Y-47277290D01*
X165634197Y-47347172D01*
X164900392Y-47564386D01*
X164223064Y-47920584D01*
X164179365Y-47949784D01*
X163813177Y-48444572D01*
X151160822Y-48444572D01*
X151032214Y-48203962D01*
X150716653Y-48047952D01*
X149404605Y-49360000D01*
X149045395Y-49360000D01*
X147733347Y-48047952D01*
X147417786Y-48203962D01*
X147226980Y-48578745D01*
X147112956Y-48983551D01*
X147080098Y-49402824D01*
X108585011Y-49402824D01*
X108706904Y-49180961D01*
X108666246Y-49046913D01*
X108546037Y-48792580D01*
X108378519Y-48566586D01*
X108214920Y-48418231D01*
X108239482Y-48415812D01*
X108359180Y-48379502D01*
X108469494Y-48320537D01*
X108566185Y-48241185D01*
X108645537Y-48144494D01*
X108704502Y-48034180D01*
X108740812Y-47914482D01*
X108745355Y-47868347D01*
X147912952Y-47868347D01*
X149225000Y-49180395D01*
X150537048Y-47868347D01*
X150381038Y-47552786D01*
X150006255Y-47361980D01*
X149601449Y-47247956D01*
X149182176Y-47215098D01*
X148764549Y-47264666D01*
X148364617Y-47394757D01*
X148068962Y-47552786D01*
X147912952Y-47868347D01*
X108745355Y-47868347D01*
X108753072Y-47790000D01*
X108750000Y-47275750D01*
X108591250Y-47117000D01*
X107950000Y-47117000D01*
X107974776Y-47114560D01*
X107998601Y-47107333D01*
X108020557Y-47095597D01*
X108039803Y-47079803D01*
X108055597Y-47060557D01*
X108067333Y-47038601D01*
X108074560Y-47014776D01*
X108077000Y-46990000D01*
X108077000Y-46863000D01*
X108591250Y-46863000D01*
X108750000Y-46704250D01*
X108753072Y-46190000D01*
X108740812Y-46065518D01*
X108704502Y-45945820D01*
X108645537Y-45835506D01*
X108566185Y-45738815D01*
X108469494Y-45659463D01*
X108359180Y-45600498D01*
X108239482Y-45564188D01*
X108115000Y-45551928D01*
X107600750Y-45555000D01*
X107562750Y-45593000D01*
X107067250Y-45593000D01*
X107029250Y-45555000D01*
X106515000Y-45551928D01*
X106390518Y-45564188D01*
X106270820Y-45600498D01*
X106160506Y-45659463D01*
X106063815Y-45738815D01*
X105984463Y-45835506D01*
X105925498Y-45945820D01*
X105889188Y-46065518D01*
X105876928Y-46190000D01*
X105877155Y-46228000D01*
X100911707Y-46228000D01*
X100809637Y-46075241D01*
X100609759Y-45875363D01*
X100374727Y-45718320D01*
X100113574Y-45610147D01*
X99836335Y-45555000D01*
X99553665Y-45555000D01*
X99276426Y-45610147D01*
X99015273Y-45718320D01*
X98780241Y-45875363D01*
X98580363Y-46075241D01*
X98423320Y-46310273D01*
X98315147Y-46571426D01*
X98260000Y-46848665D01*
X97307000Y-46848665D01*
X97307000Y-43593279D01*
X97321722Y-43443131D01*
X97355953Y-43329754D01*
X97411555Y-43225181D01*
X97486407Y-43133404D01*
X97577664Y-43057909D01*
X97681844Y-43001581D01*
X97794976Y-42966560D01*
X97943022Y-42951000D01*
X195293721Y-42951000D01*
X195443869Y-42965722D01*
G37*
%TD.AperFunction*%
D27*
X148952000Y-95402061D02*
X148952000Y-95605939D01*
X148991774Y-95805898D01*
X149069795Y-95994256D01*
X149183063Y-96163774D01*
X149327226Y-96307937D01*
X149496744Y-96421205D01*
X149685102Y-96499226D01*
X149885061Y-96539000D01*
X150088939Y-96539000D01*
X150288898Y-96499226D01*
X150477256Y-96421205D01*
X150646774Y-96307937D01*
X150665711Y-96289000D01*
X163923385Y-96289000D01*
X163946525Y-96323632D01*
X164153368Y-96530475D01*
X164327760Y-96647000D01*
X164153368Y-96763525D01*
X163946525Y-96970368D01*
X163784010Y-97213589D01*
X163672068Y-97483842D01*
X163615000Y-97770740D01*
X163615000Y-98021000D01*
X152697705Y-98021000D01*
X152678768Y-98002063D01*
X152509250Y-97888795D01*
X152320892Y-97810774D01*
X152120933Y-97771000D01*
X151917055Y-97771000D01*
X151717096Y-97810774D01*
X151528738Y-97888795D01*
X151359220Y-98002063D01*
X151215057Y-98146226D01*
X151129997Y-98273528D01*
X151044937Y-98146226D01*
X150900774Y-98002063D01*
X150731256Y-97888795D01*
X150542898Y-97810774D01*
X150342939Y-97771000D01*
X150139061Y-97771000D01*
X149939102Y-97810774D01*
X149750744Y-97888795D01*
X149581226Y-98002063D01*
X149562289Y-98021000D01*
X138087552Y-98021000D01*
X138048999Y-98017203D01*
X138010446Y-98021000D01*
X138010439Y-98021000D01*
X137909490Y-98030943D01*
X137895112Y-98032359D01*
X137860672Y-98042806D01*
X137747140Y-98077246D01*
X137610767Y-98150138D01*
X137550559Y-98199550D01*
X137521187Y-98223655D01*
X137521184Y-98223658D01*
X137491236Y-98248236D01*
X137466658Y-98278184D01*
X136819396Y-98925446D01*
X136666335Y-98895000D01*
X136530157Y-98895000D01*
X140152157Y-95273000D01*
X148977672Y-95273000D01*
X148952000Y-95402061D01*
%TA.AperFunction,Conductor*%
D28*
G36*
X148952000Y-95402061D02*
G01*
X148952000Y-95605939D01*
X148991774Y-95805898D01*
X149069795Y-95994256D01*
X149183063Y-96163774D01*
X149327226Y-96307937D01*
X149496744Y-96421205D01*
X149685102Y-96499226D01*
X149885061Y-96539000D01*
X150088939Y-96539000D01*
X150288898Y-96499226D01*
X150477256Y-96421205D01*
X150646774Y-96307937D01*
X150665711Y-96289000D01*
X163923385Y-96289000D01*
X163946525Y-96323632D01*
X164153368Y-96530475D01*
X164327760Y-96647000D01*
X164153368Y-96763525D01*
X163946525Y-96970368D01*
X163784010Y-97213589D01*
X163672068Y-97483842D01*
X163615000Y-97770740D01*
X163615000Y-98021000D01*
X152697705Y-98021000D01*
X152678768Y-98002063D01*
X152509250Y-97888795D01*
X152320892Y-97810774D01*
X152120933Y-97771000D01*
X151917055Y-97771000D01*
X151717096Y-97810774D01*
X151528738Y-97888795D01*
X151359220Y-98002063D01*
X151215057Y-98146226D01*
X151129997Y-98273528D01*
X151044937Y-98146226D01*
X150900774Y-98002063D01*
X150731256Y-97888795D01*
X150542898Y-97810774D01*
X150342939Y-97771000D01*
X150139061Y-97771000D01*
X149939102Y-97810774D01*
X149750744Y-97888795D01*
X149581226Y-98002063D01*
X149562289Y-98021000D01*
X138087552Y-98021000D01*
X138048999Y-98017203D01*
X138010446Y-98021000D01*
X138010439Y-98021000D01*
X137909490Y-98030943D01*
X137895112Y-98032359D01*
X137860672Y-98042806D01*
X137747140Y-98077246D01*
X137610767Y-98150138D01*
X137550559Y-98199550D01*
X137521187Y-98223655D01*
X137521184Y-98223658D01*
X137491236Y-98248236D01*
X137466658Y-98278184D01*
X136819396Y-98925446D01*
X136666335Y-98895000D01*
X136530157Y-98895000D01*
X140152157Y-95273000D01*
X148977672Y-95273000D01*
X148952000Y-95402061D01*
G37*
%TD.AperFunction*%
D27*
X165227000Y-85090000D02*
X165247000Y-85090000D01*
X165247000Y-85344000D01*
X165227000Y-85344000D01*
X165227000Y-85364000D01*
X164973000Y-85364000D01*
X164973000Y-85344000D01*
X164953000Y-85344000D01*
X164953000Y-85090000D01*
X164973000Y-85090000D01*
X164973000Y-85070000D01*
X165227000Y-85070000D01*
X165227000Y-85090000D01*
%TA.AperFunction,Conductor*%
D28*
G36*
X165227000Y-85090000D02*
G01*
X165247000Y-85090000D01*
X165247000Y-85344000D01*
X165227000Y-85344000D01*
X165227000Y-85364000D01*
X164973000Y-85364000D01*
X164973000Y-85344000D01*
X164953000Y-85344000D01*
X164953000Y-85090000D01*
X164973000Y-85090000D01*
X164973000Y-85070000D01*
X165227000Y-85070000D01*
X165227000Y-85090000D01*
G37*
%TD.AperFunction*%
D27*
X126492000Y-67183000D02*
X126512000Y-67183000D01*
X126512000Y-67437000D01*
X126492000Y-67437000D01*
X126492000Y-67457000D01*
X126238000Y-67457000D01*
X126238000Y-67437000D01*
X126218000Y-67437000D01*
X126218000Y-67183000D01*
X126238000Y-67183000D01*
X126238000Y-67163000D01*
X126492000Y-67163000D01*
X126492000Y-67183000D01*
%TA.AperFunction,Conductor*%
D28*
G36*
X126492000Y-67183000D02*
G01*
X126512000Y-67183000D01*
X126512000Y-67437000D01*
X126492000Y-67437000D01*
X126492000Y-67457000D01*
X126238000Y-67457000D01*
X126238000Y-67437000D01*
X126218000Y-67437000D01*
X126218000Y-67183000D01*
X126238000Y-67183000D01*
X126238000Y-67163000D01*
X126492000Y-67163000D01*
X126492000Y-67183000D01*
G37*
%TD.AperFunction*%
D27*
X164465000Y-129277911D02*
X164545319Y-129270000D01*
X166924681Y-129270000D01*
X167005000Y-129277911D01*
X167085319Y-129270000D01*
X168194678Y-129270000D01*
X168275000Y-129277911D01*
X168355322Y-129270000D01*
X168545000Y-129270000D01*
X168545000Y-133430321D01*
X168568657Y-133670515D01*
X168625530Y-133858000D01*
X150645000Y-133858000D01*
X150645000Y-133261556D01*
X150648797Y-133223000D01*
X150645000Y-133184440D01*
X150645000Y-133184439D01*
X150639564Y-133129246D01*
X150633642Y-133069113D01*
X150588754Y-132921140D01*
X150572055Y-132889898D01*
X150515862Y-132784767D01*
X150417764Y-132665236D01*
X150387811Y-132640654D01*
X150260000Y-132512843D01*
X150260000Y-132486061D01*
X150220226Y-132286102D01*
X150142205Y-132097744D01*
X150028937Y-131928226D01*
X149884774Y-131784063D01*
X149715256Y-131670795D01*
X149526898Y-131592774D01*
X149326939Y-131553000D01*
X149123061Y-131553000D01*
X148923102Y-131592774D01*
X148734744Y-131670795D01*
X148565226Y-131784063D01*
X148463000Y-131886289D01*
X148360774Y-131784063D01*
X148191256Y-131670795D01*
X148002898Y-131592774D01*
X147802939Y-131553000D01*
X147599061Y-131553000D01*
X147399102Y-131592774D01*
X147210744Y-131670795D01*
X147041226Y-131784063D01*
X146897063Y-131928226D01*
X146783795Y-132097744D01*
X146705774Y-132286102D01*
X146666000Y-132486061D01*
X146666000Y-132528499D01*
X146664138Y-132530768D01*
X146591246Y-132667141D01*
X146546359Y-132815114D01*
X146535000Y-132930440D01*
X146535000Y-132930447D01*
X146531203Y-132969000D01*
X146535000Y-133007553D01*
X146535000Y-133858000D01*
X145904272Y-133858000D01*
X145927701Y-133780764D01*
X145934641Y-133757888D01*
X145939937Y-133704113D01*
X145946000Y-133642561D01*
X145946000Y-133642554D01*
X145949797Y-133604001D01*
X145946000Y-133565448D01*
X145946000Y-133266711D01*
X145964937Y-133247774D01*
X146078205Y-133078256D01*
X146156226Y-132889898D01*
X146196000Y-132689939D01*
X146196000Y-132486061D01*
X146156226Y-132286102D01*
X146078205Y-132097744D01*
X145964937Y-131928226D01*
X145820774Y-131784063D01*
X145651256Y-131670795D01*
X145462898Y-131592774D01*
X145262939Y-131553000D01*
X145059061Y-131553000D01*
X144859102Y-131592774D01*
X144670744Y-131670795D01*
X144526000Y-131767510D01*
X144381256Y-131670795D01*
X144192898Y-131592774D01*
X143992939Y-131553000D01*
X143789061Y-131553000D01*
X143589102Y-131592774D01*
X143400744Y-131670795D01*
X143231226Y-131784063D01*
X143096223Y-131919066D01*
X143071767Y-131932138D01*
X143011559Y-131981550D01*
X142982187Y-132005655D01*
X142982184Y-132005658D01*
X142952236Y-132030236D01*
X142927658Y-132060185D01*
X141712190Y-133275653D01*
X141682236Y-133300236D01*
X141584138Y-133419768D01*
X141511246Y-133556141D01*
X141466359Y-133704114D01*
X141455000Y-133819440D01*
X141455000Y-133819447D01*
X141451203Y-133858000D01*
X105665000Y-133858000D01*
X105665000Y-132232238D01*
X108627240Y-129270000D01*
X164384681Y-129270000D01*
X164465000Y-129277911D01*
%TA.AperFunction,Conductor*%
D28*
G36*
X164465000Y-129277911D02*
G01*
X164545319Y-129270000D01*
X166924681Y-129270000D01*
X167005000Y-129277911D01*
X167085319Y-129270000D01*
X168194678Y-129270000D01*
X168275000Y-129277911D01*
X168355322Y-129270000D01*
X168545000Y-129270000D01*
X168545000Y-133430321D01*
X168568657Y-133670515D01*
X168625530Y-133858000D01*
X150645000Y-133858000D01*
X150645000Y-133261556D01*
X150648797Y-133223000D01*
X150645000Y-133184440D01*
X150645000Y-133184439D01*
X150639564Y-133129246D01*
X150633642Y-133069113D01*
X150588754Y-132921140D01*
X150572055Y-132889898D01*
X150515862Y-132784767D01*
X150417764Y-132665236D01*
X150387811Y-132640654D01*
X150260000Y-132512843D01*
X150260000Y-132486061D01*
X150220226Y-132286102D01*
X150142205Y-132097744D01*
X150028937Y-131928226D01*
X149884774Y-131784063D01*
X149715256Y-131670795D01*
X149526898Y-131592774D01*
X149326939Y-131553000D01*
X149123061Y-131553000D01*
X148923102Y-131592774D01*
X148734744Y-131670795D01*
X148565226Y-131784063D01*
X148463000Y-131886289D01*
X148360774Y-131784063D01*
X148191256Y-131670795D01*
X148002898Y-131592774D01*
X147802939Y-131553000D01*
X147599061Y-131553000D01*
X147399102Y-131592774D01*
X147210744Y-131670795D01*
X147041226Y-131784063D01*
X146897063Y-131928226D01*
X146783795Y-132097744D01*
X146705774Y-132286102D01*
X146666000Y-132486061D01*
X146666000Y-132528499D01*
X146664138Y-132530768D01*
X146591246Y-132667141D01*
X146546359Y-132815114D01*
X146535000Y-132930440D01*
X146535000Y-132930447D01*
X146531203Y-132969000D01*
X146535000Y-133007553D01*
X146535000Y-133858000D01*
X145904272Y-133858000D01*
X145927701Y-133780764D01*
X145934641Y-133757888D01*
X145939937Y-133704113D01*
X145946000Y-133642561D01*
X145946000Y-133642554D01*
X145949797Y-133604001D01*
X145946000Y-133565448D01*
X145946000Y-133266711D01*
X145964937Y-133247774D01*
X146078205Y-133078256D01*
X146156226Y-132889898D01*
X146196000Y-132689939D01*
X146196000Y-132486061D01*
X146156226Y-132286102D01*
X146078205Y-132097744D01*
X145964937Y-131928226D01*
X145820774Y-131784063D01*
X145651256Y-131670795D01*
X145462898Y-131592774D01*
X145262939Y-131553000D01*
X145059061Y-131553000D01*
X144859102Y-131592774D01*
X144670744Y-131670795D01*
X144526000Y-131767510D01*
X144381256Y-131670795D01*
X144192898Y-131592774D01*
X143992939Y-131553000D01*
X143789061Y-131553000D01*
X143589102Y-131592774D01*
X143400744Y-131670795D01*
X143231226Y-131784063D01*
X143096223Y-131919066D01*
X143071767Y-131932138D01*
X143011559Y-131981550D01*
X142982187Y-132005655D01*
X142982184Y-132005658D01*
X142952236Y-132030236D01*
X142927658Y-132060185D01*
X141712190Y-133275653D01*
X141682236Y-133300236D01*
X141584138Y-133419768D01*
X141511246Y-133556141D01*
X141466359Y-133704114D01*
X141455000Y-133819440D01*
X141455000Y-133819447D01*
X141451203Y-133858000D01*
X105665000Y-133858000D01*
X105665000Y-132232238D01*
X108627240Y-129270000D01*
X164384681Y-129270000D01*
X164465000Y-129277911D01*
G37*
%TD.AperFunction*%
%TD*%
D27*
%TO.N,GND*%
X195936001Y-121158000D02*
X175167072Y-121158000D01*
X175356031Y-120927752D01*
X175507852Y-120643715D01*
X175601343Y-120335516D01*
X175632911Y-120015000D01*
X175601343Y-119694484D01*
X175507852Y-119386285D01*
X175356031Y-119102248D01*
X175151714Y-118853286D01*
X174902752Y-118648969D01*
X174618715Y-118497148D01*
X174310516Y-118403657D01*
X174070322Y-118380000D01*
X174070319Y-118380000D01*
X173989999Y-118372089D01*
X173909680Y-118380000D01*
X172165319Y-118380000D01*
X172084999Y-118372089D01*
X172004680Y-118380000D01*
X172004678Y-118380000D01*
X171764484Y-118403657D01*
X171456285Y-118497148D01*
X171172248Y-118648969D01*
X170923286Y-118853286D01*
X170872079Y-118915682D01*
X169715682Y-120072080D01*
X169653287Y-120123286D01*
X169602085Y-120185676D01*
X168629761Y-121158000D01*
X165500000Y-121158000D01*
X165500000Y-121056061D01*
X165460226Y-120856102D01*
X165382205Y-120667744D01*
X165268937Y-120498226D01*
X165124774Y-120354063D01*
X164955256Y-120240795D01*
X164766898Y-120162774D01*
X164566939Y-120123000D01*
X164363061Y-120123000D01*
X164163102Y-120162774D01*
X164159056Y-120164450D01*
X162052000Y-118057394D01*
X162052000Y-115283158D01*
X163778158Y-113557000D01*
X163804939Y-113557000D01*
X164004898Y-113517226D01*
X164193256Y-113439205D01*
X164362774Y-113325937D01*
X164506937Y-113181774D01*
X164620205Y-113012256D01*
X164698226Y-112823898D01*
X164738000Y-112623939D01*
X164738000Y-112522000D01*
X195936001Y-112522000D01*
X195936001Y-121158000D01*
%TA.AperFunction,Conductor*%
D28*
G36*
X195936001Y-121158000D02*
G01*
X175167072Y-121158000D01*
X175356031Y-120927752D01*
X175507852Y-120643715D01*
X175601343Y-120335516D01*
X175632911Y-120015000D01*
X175601343Y-119694484D01*
X175507852Y-119386285D01*
X175356031Y-119102248D01*
X175151714Y-118853286D01*
X174902752Y-118648969D01*
X174618715Y-118497148D01*
X174310516Y-118403657D01*
X174070322Y-118380000D01*
X174070319Y-118380000D01*
X173989999Y-118372089D01*
X173909680Y-118380000D01*
X172165319Y-118380000D01*
X172084999Y-118372089D01*
X172004680Y-118380000D01*
X172004678Y-118380000D01*
X171764484Y-118403657D01*
X171456285Y-118497148D01*
X171172248Y-118648969D01*
X170923286Y-118853286D01*
X170872079Y-118915682D01*
X169715682Y-120072080D01*
X169653287Y-120123286D01*
X169602085Y-120185676D01*
X168629761Y-121158000D01*
X165500000Y-121158000D01*
X165500000Y-121056061D01*
X165460226Y-120856102D01*
X165382205Y-120667744D01*
X165268937Y-120498226D01*
X165124774Y-120354063D01*
X164955256Y-120240795D01*
X164766898Y-120162774D01*
X164566939Y-120123000D01*
X164363061Y-120123000D01*
X164163102Y-120162774D01*
X164159056Y-120164450D01*
X162052000Y-118057394D01*
X162052000Y-115283158D01*
X163778158Y-113557000D01*
X163804939Y-113557000D01*
X164004898Y-113517226D01*
X164193256Y-113439205D01*
X164362774Y-113325937D01*
X164506937Y-113181774D01*
X164620205Y-113012256D01*
X164698226Y-112823898D01*
X164738000Y-112623939D01*
X164738000Y-112522000D01*
X195936001Y-112522000D01*
X195936001Y-121158000D01*
G37*
%TD.AperFunction*%
%TD*%
D27*
%TO.N,GND*%
X195936000Y-55753000D02*
X165152606Y-55753000D01*
X162052000Y-52652394D01*
X162052000Y-49582606D01*
X164517606Y-47117000D01*
X195936000Y-47117000D01*
X195936000Y-55753000D01*
%TA.AperFunction,Conductor*%
D28*
G36*
X195936000Y-55753000D02*
G01*
X165152606Y-55753000D01*
X162052000Y-52652394D01*
X162052000Y-49582606D01*
X164517606Y-47117000D01*
X195936000Y-47117000D01*
X195936000Y-55753000D01*
G37*
%TD.AperFunction*%
%TD*%
M02*
