%TF.GenerationSoftware,KiCad,Pcbnew,(5.1.9)-1*%
%TF.CreationDate,2021-10-09T10:29:05+08:00*%
%TF.ProjectId,CFSuperLite,43465375-7065-4724-9c69-74652e6b6963,rev?*%
%TF.SameCoordinates,Original*%
%TF.FileFunction,Paste,Top*%
%TF.FilePolarity,Positive*%
%FSLAX46Y46*%
G04 Gerber Fmt 4.6, Leading zero omitted, Abs format (unit mm)*
G04 Created by KiCad (PCBNEW (5.1.9)-1) date 2021-10-09 10:29:05*
%MOMM*%
%LPD*%
G01*
G04 APERTURE LIST*
G04 APERTURE END LIST*
%TO.C,C4*%
G36*
G01*
X110860000Y-59039999D02*
X110860000Y-60340001D01*
G75*
G02*
X110610001Y-60590000I-249999J0D01*
G01*
X109959999Y-60590000D01*
G75*
G02*
X109710000Y-60340001I0J249999D01*
G01*
X109710000Y-59039999D01*
G75*
G02*
X109959999Y-58790000I249999J0D01*
G01*
X110610001Y-58790000D01*
G75*
G02*
X110860000Y-59039999I0J-249999D01*
G01*
G37*
G36*
G01*
X113810000Y-59039999D02*
X113810000Y-60340001D01*
G75*
G02*
X113560001Y-60590000I-249999J0D01*
G01*
X112909999Y-60590000D01*
G75*
G02*
X112660000Y-60340001I0J249999D01*
G01*
X112660000Y-59039999D01*
G75*
G02*
X112909999Y-58790000I249999J0D01*
G01*
X113560001Y-58790000D01*
G75*
G02*
X113810000Y-59039999I0J-249999D01*
G01*
G37*
%TD*%
%TO.C,C2*%
G36*
G01*
X134635001Y-74665000D02*
X133334999Y-74665000D01*
G75*
G02*
X133085000Y-74415001I0J249999D01*
G01*
X133085000Y-73764999D01*
G75*
G02*
X133334999Y-73515000I249999J0D01*
G01*
X134635001Y-73515000D01*
G75*
G02*
X134885000Y-73764999I0J-249999D01*
G01*
X134885000Y-74415001D01*
G75*
G02*
X134635001Y-74665000I-249999J0D01*
G01*
G37*
G36*
G01*
X134635001Y-77615000D02*
X133334999Y-77615000D01*
G75*
G02*
X133085000Y-77365001I0J249999D01*
G01*
X133085000Y-76714999D01*
G75*
G02*
X133334999Y-76465000I249999J0D01*
G01*
X134635001Y-76465000D01*
G75*
G02*
X134885000Y-76714999I0J-249999D01*
G01*
X134885000Y-77365001D01*
G75*
G02*
X134635001Y-77615000I-249999J0D01*
G01*
G37*
%TD*%
%TO.C,C1*%
G36*
G01*
X101615001Y-94985000D02*
X100314999Y-94985000D01*
G75*
G02*
X100065000Y-94735001I0J249999D01*
G01*
X100065000Y-94084999D01*
G75*
G02*
X100314999Y-93835000I249999J0D01*
G01*
X101615001Y-93835000D01*
G75*
G02*
X101865000Y-94084999I0J-249999D01*
G01*
X101865000Y-94735001D01*
G75*
G02*
X101615001Y-94985000I-249999J0D01*
G01*
G37*
G36*
G01*
X101615001Y-97935000D02*
X100314999Y-97935000D01*
G75*
G02*
X100065000Y-97685001I0J249999D01*
G01*
X100065000Y-97034999D01*
G75*
G02*
X100314999Y-96785000I249999J0D01*
G01*
X101615001Y-96785000D01*
G75*
G02*
X101865000Y-97034999I0J-249999D01*
G01*
X101865000Y-97685001D01*
G75*
G02*
X101615001Y-97935000I-249999J0D01*
G01*
G37*
%TD*%
%TO.C,C3*%
G36*
G01*
X101615001Y-74665000D02*
X100314999Y-74665000D01*
G75*
G02*
X100065000Y-74415001I0J249999D01*
G01*
X100065000Y-73764999D01*
G75*
G02*
X100314999Y-73515000I249999J0D01*
G01*
X101615001Y-73515000D01*
G75*
G02*
X101865000Y-73764999I0J-249999D01*
G01*
X101865000Y-74415001D01*
G75*
G02*
X101615001Y-74665000I-249999J0D01*
G01*
G37*
G36*
G01*
X101615001Y-77615000D02*
X100314999Y-77615000D01*
G75*
G02*
X100065000Y-77365001I0J249999D01*
G01*
X100065000Y-76714999D01*
G75*
G02*
X100314999Y-76465000I249999J0D01*
G01*
X101615001Y-76465000D01*
G75*
G02*
X101865000Y-76714999I0J-249999D01*
G01*
X101865000Y-77365001D01*
G75*
G02*
X101615001Y-77615000I-249999J0D01*
G01*
G37*
%TD*%
%TO.C,R1*%
G36*
G01*
X103135000Y-70475002D02*
X103135000Y-69224998D01*
G75*
G02*
X103384998Y-68975000I249998J0D01*
G01*
X104010002Y-68975000D01*
G75*
G02*
X104260000Y-69224998I0J-249998D01*
G01*
X104260000Y-70475002D01*
G75*
G02*
X104010002Y-70725000I-249998J0D01*
G01*
X103384998Y-70725000D01*
G75*
G02*
X103135000Y-70475002I0J249998D01*
G01*
G37*
G36*
G01*
X100210000Y-70475002D02*
X100210000Y-69224998D01*
G75*
G02*
X100459998Y-68975000I249998J0D01*
G01*
X101085002Y-68975000D01*
G75*
G02*
X101335000Y-69224998I0J-249998D01*
G01*
X101335000Y-70475002D01*
G75*
G02*
X101085002Y-70725000I-249998J0D01*
G01*
X100459998Y-70725000D01*
G75*
G02*
X100210000Y-70475002I0J249998D01*
G01*
G37*
%TD*%
%TO.C,R2*%
G36*
G01*
X103135000Y-67300002D02*
X103135000Y-66049998D01*
G75*
G02*
X103384998Y-65800000I249998J0D01*
G01*
X104010002Y-65800000D01*
G75*
G02*
X104260000Y-66049998I0J-249998D01*
G01*
X104260000Y-67300002D01*
G75*
G02*
X104010002Y-67550000I-249998J0D01*
G01*
X103384998Y-67550000D01*
G75*
G02*
X103135000Y-67300002I0J249998D01*
G01*
G37*
G36*
G01*
X100210000Y-67300002D02*
X100210000Y-66049998D01*
G75*
G02*
X100459998Y-65800000I249998J0D01*
G01*
X101085002Y-65800000D01*
G75*
G02*
X101335000Y-66049998I0J-249998D01*
G01*
X101335000Y-67300002D01*
G75*
G02*
X101085002Y-67550000I-249998J0D01*
G01*
X100459998Y-67550000D01*
G75*
G02*
X100210000Y-67300002I0J249998D01*
G01*
G37*
%TD*%
%TO.C,R3*%
G36*
G01*
X103135000Y-64125002D02*
X103135000Y-62874998D01*
G75*
G02*
X103384998Y-62625000I249998J0D01*
G01*
X104010002Y-62625000D01*
G75*
G02*
X104260000Y-62874998I0J-249998D01*
G01*
X104260000Y-64125002D01*
G75*
G02*
X104010002Y-64375000I-249998J0D01*
G01*
X103384998Y-64375000D01*
G75*
G02*
X103135000Y-64125002I0J249998D01*
G01*
G37*
G36*
G01*
X100210000Y-64125002D02*
X100210000Y-62874998D01*
G75*
G02*
X100459998Y-62625000I249998J0D01*
G01*
X101085002Y-62625000D01*
G75*
G02*
X101335000Y-62874998I0J-249998D01*
G01*
X101335000Y-64125002D01*
G75*
G02*
X101085002Y-64375000I-249998J0D01*
G01*
X100459998Y-64375000D01*
G75*
G02*
X100210000Y-64125002I0J249998D01*
G01*
G37*
%TD*%
%TO.C,C5*%
G36*
G01*
X187590000Y-60467001D02*
X187590000Y-59166999D01*
G75*
G02*
X187839999Y-58917000I249999J0D01*
G01*
X188490001Y-58917000D01*
G75*
G02*
X188740000Y-59166999I0J-249999D01*
G01*
X188740000Y-60467001D01*
G75*
G02*
X188490001Y-60717000I-249999J0D01*
G01*
X187839999Y-60717000D01*
G75*
G02*
X187590000Y-60467001I0J249999D01*
G01*
G37*
G36*
G01*
X184640000Y-60467001D02*
X184640000Y-59166999D01*
G75*
G02*
X184889999Y-58917000I249999J0D01*
G01*
X185540001Y-58917000D01*
G75*
G02*
X185790000Y-59166999I0J-249999D01*
G01*
X185790000Y-60467001D01*
G75*
G02*
X185540001Y-60717000I-249999J0D01*
G01*
X184889999Y-60717000D01*
G75*
G02*
X184640000Y-60467001I0J249999D01*
G01*
G37*
%TD*%
%TO.C,C6*%
G36*
G01*
X101840000Y-122845002D02*
X101840000Y-120994998D01*
G75*
G02*
X102089998Y-120745000I249998J0D01*
G01*
X102915002Y-120745000D01*
G75*
G02*
X103165000Y-120994998I0J-249998D01*
G01*
X103165000Y-122845002D01*
G75*
G02*
X102915002Y-123095000I-249998J0D01*
G01*
X102089998Y-123095000D01*
G75*
G02*
X101840000Y-122845002I0J249998D01*
G01*
G37*
G36*
G01*
X98765000Y-122845002D02*
X98765000Y-120994998D01*
G75*
G02*
X99014998Y-120745000I249998J0D01*
G01*
X99840002Y-120745000D01*
G75*
G02*
X100090000Y-120994998I0J-249998D01*
G01*
X100090000Y-122845002D01*
G75*
G02*
X99840002Y-123095000I-249998J0D01*
G01*
X99014998Y-123095000D01*
G75*
G02*
X98765000Y-122845002I0J249998D01*
G01*
G37*
%TD*%
M02*
