%TF.GenerationSoftware,KiCad,Pcbnew,(5.1.9)-1*%
%TF.CreationDate,2021-10-08T09:35:20+08:00*%
%TF.ProjectId,CFSuperLite,43465375-7065-4724-9c69-74652e6b6963,rev?*%
%TF.SameCoordinates,Original*%
%TF.FileFunction,Copper,L1,Top*%
%TF.FilePolarity,Positive*%
%FSLAX46Y46*%
G04 Gerber Fmt 4.6, Leading zero omitted, Abs format (unit mm)*
G04 Created by KiCad (PCBNEW (5.1.9)-1) date 2021-10-08 09:35:20*
%MOMM*%
%LPD*%
G01*
G04 APERTURE LIST*
%TA.AperFunction,NonConductor*%
%ADD10C,0.300000*%
%TD*%
%TA.AperFunction,ComponentPad*%
%ADD11R,3.000000X3.000000*%
%TD*%
%TA.AperFunction,ComponentPad*%
%ADD12C,3.000000*%
%TD*%
%TA.AperFunction,ComponentPad*%
%ADD13O,1.600000X1.600000*%
%TD*%
%TA.AperFunction,ComponentPad*%
%ADD14R,1.600000X1.600000*%
%TD*%
%TA.AperFunction,ComponentPad*%
%ADD15O,1.700000X1.700000*%
%TD*%
%TA.AperFunction,ComponentPad*%
%ADD16R,1.700000X1.700000*%
%TD*%
%TA.AperFunction,ComponentPad*%
%ADD17C,1.000000*%
%TD*%
%TA.AperFunction,ComponentPad*%
%ADD18C,6.500000*%
%TD*%
%TA.AperFunction,ConnectorPad*%
%ADD19R,1.780000X7.620000*%
%TD*%
%TA.AperFunction,ViaPad*%
%ADD20C,0.800000*%
%TD*%
%TA.AperFunction,ViaPad*%
%ADD21C,1.000000*%
%TD*%
%TA.AperFunction,Conductor*%
%ADD22C,0.300000*%
%TD*%
%TA.AperFunction,Conductor*%
%ADD23C,0.500000*%
%TD*%
%TA.AperFunction,Conductor*%
%ADD24C,2.000000*%
%TD*%
%TA.AperFunction,Conductor*%
%ADD25C,1.000000*%
%TD*%
%TA.AperFunction,Conductor*%
%ADD26C,1.600000*%
%TD*%
%TA.AperFunction,Conductor*%
%ADD27C,1.700000*%
%TD*%
%TA.AperFunction,Conductor*%
%ADD28C,1.150000*%
%TD*%
%TA.AperFunction,Conductor*%
%ADD29C,0.254000*%
%TD*%
%TA.AperFunction,Conductor*%
%ADD30C,0.100000*%
%TD*%
G04 APERTURE END LIST*
D10*
X190897142Y-132393571D02*
X191254285Y-133393571D01*
X191611428Y-132393571D01*
X192968571Y-133393571D02*
X192111428Y-133393571D01*
X192540000Y-133393571D02*
X192540000Y-131893571D01*
X192397142Y-132107857D01*
X192254285Y-132250714D01*
X192111428Y-132322142D01*
X193611428Y-133250714D02*
X193682857Y-133322142D01*
X193611428Y-133393571D01*
X193540000Y-133322142D01*
X193611428Y-133250714D01*
X193611428Y-133393571D01*
X194611428Y-131893571D02*
X194754285Y-131893571D01*
X194897142Y-131965000D01*
X194968571Y-132036428D01*
X195040000Y-132179285D01*
X195111428Y-132465000D01*
X195111428Y-132822142D01*
X195040000Y-133107857D01*
X194968571Y-133250714D01*
X194897142Y-133322142D01*
X194754285Y-133393571D01*
X194611428Y-133393571D01*
X194468571Y-133322142D01*
X194397142Y-133250714D01*
X194325714Y-133107857D01*
X194254285Y-132822142D01*
X194254285Y-132465000D01*
X194325714Y-132179285D01*
X194397142Y-132036428D01*
X194468571Y-131965000D01*
X194611428Y-131893571D01*
%TO.P,C4,2*%
%TO.N,GND*%
%TA.AperFunction,SMDPad,CuDef*%
G36*
G01*
X110860000Y-59039999D02*
X110860000Y-60340001D01*
G75*
G02*
X110610001Y-60590000I-249999J0D01*
G01*
X109959999Y-60590000D01*
G75*
G02*
X109710000Y-60340001I0J249999D01*
G01*
X109710000Y-59039999D01*
G75*
G02*
X109959999Y-58790000I249999J0D01*
G01*
X110610001Y-58790000D01*
G75*
G02*
X110860000Y-59039999I0J-249999D01*
G01*
G37*
%TD.AperFunction*%
%TO.P,C4,1*%
%TO.N,VCC*%
%TA.AperFunction,SMDPad,CuDef*%
G36*
G01*
X113810000Y-59039999D02*
X113810000Y-60340001D01*
G75*
G02*
X113560001Y-60590000I-249999J0D01*
G01*
X112909999Y-60590000D01*
G75*
G02*
X112660000Y-60340001I0J249999D01*
G01*
X112660000Y-59039999D01*
G75*
G02*
X112909999Y-58790000I249999J0D01*
G01*
X113560001Y-58790000D01*
G75*
G02*
X113810000Y-59039999I0J-249999D01*
G01*
G37*
%TD.AperFunction*%
%TD*%
%TO.P,C2,2*%
%TO.N,GND*%
%TA.AperFunction,SMDPad,CuDef*%
G36*
G01*
X134635001Y-74665000D02*
X133334999Y-74665000D01*
G75*
G02*
X133085000Y-74415001I0J249999D01*
G01*
X133085000Y-73764999D01*
G75*
G02*
X133334999Y-73515000I249999J0D01*
G01*
X134635001Y-73515000D01*
G75*
G02*
X134885000Y-73764999I0J-249999D01*
G01*
X134885000Y-74415001D01*
G75*
G02*
X134635001Y-74665000I-249999J0D01*
G01*
G37*
%TD.AperFunction*%
%TO.P,C2,1*%
%TO.N,VCC*%
%TA.AperFunction,SMDPad,CuDef*%
G36*
G01*
X134635001Y-77615000D02*
X133334999Y-77615000D01*
G75*
G02*
X133085000Y-77365001I0J249999D01*
G01*
X133085000Y-76714999D01*
G75*
G02*
X133334999Y-76465000I249999J0D01*
G01*
X134635001Y-76465000D01*
G75*
G02*
X134885000Y-76714999I0J-249999D01*
G01*
X134885000Y-77365001D01*
G75*
G02*
X134635001Y-77615000I-249999J0D01*
G01*
G37*
%TD.AperFunction*%
%TD*%
%TO.P,C1,2*%
%TO.N,GND*%
%TA.AperFunction,SMDPad,CuDef*%
G36*
G01*
X101615001Y-94985000D02*
X100314999Y-94985000D01*
G75*
G02*
X100065000Y-94735001I0J249999D01*
G01*
X100065000Y-94084999D01*
G75*
G02*
X100314999Y-93835000I249999J0D01*
G01*
X101615001Y-93835000D01*
G75*
G02*
X101865000Y-94084999I0J-249999D01*
G01*
X101865000Y-94735001D01*
G75*
G02*
X101615001Y-94985000I-249999J0D01*
G01*
G37*
%TD.AperFunction*%
%TO.P,C1,1*%
%TO.N,VCC*%
%TA.AperFunction,SMDPad,CuDef*%
G36*
G01*
X101615001Y-97935000D02*
X100314999Y-97935000D01*
G75*
G02*
X100065000Y-97685001I0J249999D01*
G01*
X100065000Y-97034999D01*
G75*
G02*
X100314999Y-96785000I249999J0D01*
G01*
X101615001Y-96785000D01*
G75*
G02*
X101865000Y-97034999I0J-249999D01*
G01*
X101865000Y-97685001D01*
G75*
G02*
X101615001Y-97935000I-249999J0D01*
G01*
G37*
%TD.AperFunction*%
%TD*%
%TO.P,C3,2*%
%TO.N,GND*%
%TA.AperFunction,SMDPad,CuDef*%
G36*
G01*
X101615001Y-74665000D02*
X100314999Y-74665000D01*
G75*
G02*
X100065000Y-74415001I0J249999D01*
G01*
X100065000Y-73764999D01*
G75*
G02*
X100314999Y-73515000I249999J0D01*
G01*
X101615001Y-73515000D01*
G75*
G02*
X101865000Y-73764999I0J-249999D01*
G01*
X101865000Y-74415001D01*
G75*
G02*
X101615001Y-74665000I-249999J0D01*
G01*
G37*
%TD.AperFunction*%
%TO.P,C3,1*%
%TO.N,VCC*%
%TA.AperFunction,SMDPad,CuDef*%
G36*
G01*
X101615001Y-77615000D02*
X100314999Y-77615000D01*
G75*
G02*
X100065000Y-77365001I0J249999D01*
G01*
X100065000Y-76714999D01*
G75*
G02*
X100314999Y-76465000I249999J0D01*
G01*
X101615001Y-76465000D01*
G75*
G02*
X101865000Y-76714999I0J-249999D01*
G01*
X101865000Y-77365001D01*
G75*
G02*
X101615001Y-77615000I-249999J0D01*
G01*
G37*
%TD.AperFunction*%
%TD*%
%TO.P,R1,2*%
%TO.N,ROM_ADDR_JUMPER*%
%TA.AperFunction,SMDPad,CuDef*%
G36*
G01*
X103135000Y-70475001D02*
X103135000Y-69224999D01*
G75*
G02*
X103384999Y-68975000I249999J0D01*
G01*
X104010001Y-68975000D01*
G75*
G02*
X104260000Y-69224999I0J-249999D01*
G01*
X104260000Y-70475001D01*
G75*
G02*
X104010001Y-70725000I-249999J0D01*
G01*
X103384999Y-70725000D01*
G75*
G02*
X103135000Y-70475001I0J249999D01*
G01*
G37*
%TD.AperFunction*%
%TO.P,R1,1*%
%TO.N,VCC*%
%TA.AperFunction,SMDPad,CuDef*%
G36*
G01*
X100210000Y-70475001D02*
X100210000Y-69224999D01*
G75*
G02*
X100459999Y-68975000I249999J0D01*
G01*
X101085001Y-68975000D01*
G75*
G02*
X101335000Y-69224999I0J-249999D01*
G01*
X101335000Y-70475001D01*
G75*
G02*
X101085001Y-70725000I-249999J0D01*
G01*
X100459999Y-70725000D01*
G75*
G02*
X100210000Y-70475001I0J249999D01*
G01*
G37*
%TD.AperFunction*%
%TD*%
%TO.P,R2,2*%
%TO.N,ATA_ADDR_JUMPER*%
%TA.AperFunction,SMDPad,CuDef*%
G36*
G01*
X103135000Y-67300001D02*
X103135000Y-66049999D01*
G75*
G02*
X103384999Y-65800000I249999J0D01*
G01*
X104010001Y-65800000D01*
G75*
G02*
X104260000Y-66049999I0J-249999D01*
G01*
X104260000Y-67300001D01*
G75*
G02*
X104010001Y-67550000I-249999J0D01*
G01*
X103384999Y-67550000D01*
G75*
G02*
X103135000Y-67300001I0J249999D01*
G01*
G37*
%TD.AperFunction*%
%TO.P,R2,1*%
%TO.N,VCC*%
%TA.AperFunction,SMDPad,CuDef*%
G36*
G01*
X100210000Y-67300001D02*
X100210000Y-66049999D01*
G75*
G02*
X100459999Y-65800000I249999J0D01*
G01*
X101085001Y-65800000D01*
G75*
G02*
X101335000Y-66049999I0J-249999D01*
G01*
X101335000Y-67300001D01*
G75*
G02*
X101085001Y-67550000I-249999J0D01*
G01*
X100459999Y-67550000D01*
G75*
G02*
X100210000Y-67300001I0J249999D01*
G01*
G37*
%TD.AperFunction*%
%TD*%
%TO.P,R3,2*%
%TO.N,V20_JUMPER*%
%TA.AperFunction,SMDPad,CuDef*%
G36*
G01*
X103135000Y-64125001D02*
X103135000Y-62874999D01*
G75*
G02*
X103384999Y-62625000I249999J0D01*
G01*
X104010001Y-62625000D01*
G75*
G02*
X104260000Y-62874999I0J-249999D01*
G01*
X104260000Y-64125001D01*
G75*
G02*
X104010001Y-64375000I-249999J0D01*
G01*
X103384999Y-64375000D01*
G75*
G02*
X103135000Y-64125001I0J249999D01*
G01*
G37*
%TD.AperFunction*%
%TO.P,R3,1*%
%TO.N,VCC*%
%TA.AperFunction,SMDPad,CuDef*%
G36*
G01*
X100210000Y-64125001D02*
X100210000Y-62874999D01*
G75*
G02*
X100459999Y-62625000I249999J0D01*
G01*
X101085001Y-62625000D01*
G75*
G02*
X101335000Y-62874999I0J-249999D01*
G01*
X101335000Y-64125001D01*
G75*
G02*
X101085001Y-64375000I-249999J0D01*
G01*
X100459999Y-64375000D01*
G75*
G02*
X100210000Y-64125001I0J249999D01*
G01*
G37*
%TD.AperFunction*%
%TD*%
%TO.P,C5,2*%
%TO.N,GND*%
%TA.AperFunction,SMDPad,CuDef*%
G36*
G01*
X187590000Y-60467001D02*
X187590000Y-59166999D01*
G75*
G02*
X187839999Y-58917000I249999J0D01*
G01*
X188490001Y-58917000D01*
G75*
G02*
X188740000Y-59166999I0J-249999D01*
G01*
X188740000Y-60467001D01*
G75*
G02*
X188490001Y-60717000I-249999J0D01*
G01*
X187839999Y-60717000D01*
G75*
G02*
X187590000Y-60467001I0J249999D01*
G01*
G37*
%TD.AperFunction*%
%TO.P,C5,1*%
%TO.N,VCC*%
%TA.AperFunction,SMDPad,CuDef*%
G36*
G01*
X184640000Y-60467001D02*
X184640000Y-59166999D01*
G75*
G02*
X184889999Y-58917000I249999J0D01*
G01*
X185540001Y-58917000D01*
G75*
G02*
X185790000Y-59166999I0J-249999D01*
G01*
X185790000Y-60467001D01*
G75*
G02*
X185540001Y-60717000I-249999J0D01*
G01*
X184889999Y-60717000D01*
G75*
G02*
X184640000Y-60467001I0J249999D01*
G01*
G37*
%TD.AperFunction*%
%TD*%
D11*
%TO.P,BAT1,1*%
%TO.N,Net-(BAT1-Pad1)*%
X149225000Y-69850000D03*
D12*
%TO.P,BAT1,2*%
%TO.N,GND*%
X149225000Y-49360000D03*
%TD*%
D13*
%TO.P,U1,32*%
%TO.N,VCC*%
X100965000Y-100330000D03*
%TO.P,U1,16*%
%TO.N,GND*%
X139065000Y-115570000D03*
%TO.P,U1,31*%
%TO.N,~MEMW*%
X103505000Y-100330000D03*
%TO.P,U1,15*%
%TO.N,D2*%
X136525000Y-115570000D03*
%TO.P,U1,30*%
%TO.N,GND*%
X106045000Y-100330000D03*
%TO.P,U1,14*%
%TO.N,D1*%
X133985000Y-115570000D03*
%TO.P,U1,29*%
%TO.N,A14*%
X108585000Y-100330000D03*
%TO.P,U1,13*%
%TO.N,D0*%
X131445000Y-115570000D03*
%TO.P,U1,28*%
%TO.N,A13*%
X111125000Y-100330000D03*
%TO.P,U1,12*%
%TO.N,A00*%
X128905000Y-115570000D03*
%TO.P,U1,27*%
%TO.N,A08*%
X113665000Y-100330000D03*
%TO.P,U1,11*%
%TO.N,A01*%
X126365000Y-115570000D03*
%TO.P,U1,26*%
%TO.N,A09*%
X116205000Y-100330000D03*
%TO.P,U1,10*%
%TO.N,A02*%
X123825000Y-115570000D03*
%TO.P,U1,25*%
%TO.N,A11*%
X118745000Y-100330000D03*
%TO.P,U1,9*%
%TO.N,A03*%
X121285000Y-115570000D03*
%TO.P,U1,24*%
%TO.N,~MEMR*%
X121285000Y-100330000D03*
%TO.P,U1,8*%
%TO.N,A04*%
X118745000Y-115570000D03*
%TO.P,U1,23*%
%TO.N,A10*%
X123825000Y-100330000D03*
%TO.P,U1,7*%
%TO.N,A05*%
X116205000Y-115570000D03*
%TO.P,U1,22*%
%TO.N,~CE~_BIOS_THRU*%
X126365000Y-100330000D03*
%TO.P,U1,6*%
%TO.N,A06*%
X113665000Y-115570000D03*
%TO.P,U1,21*%
%TO.N,D7*%
X128905000Y-100330000D03*
%TO.P,U1,5*%
%TO.N,A07*%
X111125000Y-115570000D03*
%TO.P,U1,20*%
%TO.N,D6*%
X131445000Y-100330000D03*
%TO.P,U1,4*%
%TO.N,A12*%
X108585000Y-115570000D03*
%TO.P,U1,19*%
%TO.N,D5*%
X133985000Y-100330000D03*
%TO.P,U1,3*%
%TO.N,ATA_ADDR_JUMPER*%
X106045000Y-115570000D03*
%TO.P,U1,18*%
%TO.N,D4*%
X136525000Y-100330000D03*
%TO.P,U1,2*%
%TO.N,V20_JUMPER*%
X103505000Y-115570000D03*
%TO.P,U1,17*%
%TO.N,D3*%
X139065000Y-100330000D03*
D14*
%TO.P,U1,1*%
%TO.N,GND*%
X100965000Y-115570000D03*
%TD*%
D13*
%TO.P,SW1,8*%
%TO.N,ROM_ADDR_JUMPER*%
X99695000Y-46990000D03*
%TO.P,SW1,4*%
%TO.N,~CE~_BIOS_DECODE*%
X107315000Y-54610000D03*
%TO.P,SW1,7*%
%TO.N,ATA_ADDR_JUMPER*%
X99695000Y-49530000D03*
%TO.P,SW1,3*%
%TO.N,GND*%
X107315000Y-52070000D03*
%TO.P,SW1,6*%
%TO.N,V20_JUMPER*%
X99695000Y-52070000D03*
%TO.P,SW1,2*%
%TO.N,GND*%
X107315000Y-49530000D03*
%TO.P,SW1,5*%
%TO.N,~CE~_BIOS_THRU*%
X99695000Y-54610000D03*
D14*
%TO.P,SW1,1*%
%TO.N,GND*%
X107315000Y-46990000D03*
%TD*%
%TO.P,C6,2*%
%TO.N,GND*%
%TA.AperFunction,SMDPad,CuDef*%
G36*
G01*
X101840000Y-122845001D02*
X101840000Y-120994999D01*
G75*
G02*
X102089999Y-120745000I249999J0D01*
G01*
X102915001Y-120745000D01*
G75*
G02*
X103165000Y-120994999I0J-249999D01*
G01*
X103165000Y-122845001D01*
G75*
G02*
X102915001Y-123095000I-249999J0D01*
G01*
X102089999Y-123095000D01*
G75*
G02*
X101840000Y-122845001I0J249999D01*
G01*
G37*
%TD.AperFunction*%
%TO.P,C6,1*%
%TO.N,VCC*%
%TA.AperFunction,SMDPad,CuDef*%
G36*
G01*
X98765000Y-122845001D02*
X98765000Y-120994999D01*
G75*
G02*
X99014999Y-120745000I249999J0D01*
G01*
X99840001Y-120745000D01*
G75*
G02*
X100090000Y-120994999I0J-249999D01*
G01*
X100090000Y-122845001D01*
G75*
G02*
X99840001Y-123095000I-249999J0D01*
G01*
X99014999Y-123095000D01*
G75*
G02*
X98765000Y-122845001I0J249999D01*
G01*
G37*
%TD.AperFunction*%
%TD*%
D13*
%TO.P,U3,20*%
%TO.N,VCC*%
X100965000Y-80010000D03*
%TO.P,U3,10*%
%TO.N,GND*%
X123825000Y-87630000D03*
%TO.P,U3,19*%
%TO.N,ATA_ADDR_JUMPER*%
X103505000Y-80010000D03*
%TO.P,U3,9*%
%TO.N,RESET*%
X121285000Y-87630000D03*
%TO.P,U3,18*%
%TO.N,ROM_ADDR_JUMPER*%
X106045000Y-80010000D03*
%TO.P,U3,8*%
%TO.N,A04*%
X118745000Y-87630000D03*
%TO.P,U3,17*%
%TO.N,AEN*%
X108585000Y-80010000D03*
%TO.P,U3,7*%
%TO.N,A09*%
X116205000Y-87630000D03*
%TO.P,U3,16*%
%TO.N,~RESET*%
X111125000Y-80010000D03*
%TO.P,U3,6*%
%TO.N,A08*%
X113665000Y-87630000D03*
%TO.P,U3,15*%
%TO.N,~CS1~_ATA*%
X113665000Y-80010000D03*
%TO.P,U3,5*%
%TO.N,A07*%
X111125000Y-87630000D03*
%TO.P,U3,14*%
%TO.N,~CE~_BIOS_DECODE*%
X116205000Y-80010000D03*
%TO.P,U3,4*%
%TO.N,A06*%
X108585000Y-87630000D03*
%TO.P,U3,13*%
%TO.N,A05*%
X118745000Y-80010000D03*
%TO.P,U3,3*%
%TO.N,A15*%
X106045000Y-87630000D03*
%TO.P,U3,12*%
%TO.N,A17*%
X121285000Y-80010000D03*
%TO.P,U3,2*%
%TO.N,A18*%
X103505000Y-87630000D03*
%TO.P,U3,11*%
%TO.N,A19*%
X123825000Y-80010000D03*
D14*
%TO.P,U3,1*%
%TO.N,A16*%
X100965000Y-87630000D03*
%TD*%
D15*
%TO.P,J2,2*%
%TO.N,GND*%
X179411000Y-59817000D03*
D16*
%TO.P,J2,1*%
%TO.N,VCC*%
X181951000Y-59817000D03*
%TD*%
D15*
%TO.P,J1,40*%
%TO.N,GND*%
X167640000Y-59817000D03*
%TO.P,J1,39*%
%TO.N,Net-(J1-Pad39)*%
X165100000Y-59817000D03*
%TO.P,J1,38*%
%TO.N,VCC*%
X167640000Y-62357000D03*
%TO.P,J1,37*%
%TO.N,~CS1~_ATA*%
X165100000Y-62357000D03*
%TO.P,J1,36*%
%TO.N,A03*%
X167640000Y-64897000D03*
%TO.P,J1,35*%
%TO.N,A01*%
X165100000Y-64897000D03*
%TO.P,J1,34*%
%TO.N,Net-(J1-Pad34)*%
X167640000Y-67437000D03*
%TO.P,J1,33*%
%TO.N,A02*%
X165100000Y-67437000D03*
%TO.P,J1,32*%
%TO.N,Net-(J1-Pad32)*%
X167640000Y-69977000D03*
%TO.P,J1,31*%
%TO.N,Net-(J1-Pad31)*%
X165100000Y-69977000D03*
%TO.P,J1,30*%
%TO.N,GND*%
X167640000Y-72517000D03*
%TO.P,J1,29*%
%TO.N,VCC*%
X165100000Y-72517000D03*
%TO.P,J1,28*%
%TO.N,Net-(J1-Pad28)*%
X167640000Y-75057000D03*
%TO.P,J1,27*%
%TO.N,Net-(J1-Pad27)*%
X165100000Y-75057000D03*
%TO.P,J1,26*%
%TO.N,GND*%
X167640000Y-77597000D03*
%TO.P,J1,25*%
%TO.N,~IOR*%
X165100000Y-77597000D03*
%TO.P,J1,24*%
%TO.N,GND*%
X167640000Y-80137000D03*
%TO.P,J1,23*%
%TO.N,~IOW*%
X165100000Y-80137000D03*
%TO.P,J1,22*%
%TO.N,GND*%
X167640000Y-82677000D03*
%TO.P,J1,21*%
%TO.N,Net-(J1-Pad21)*%
X165100000Y-82677000D03*
%TO.P,J1,20*%
%TO.N,Net-(J1-Pad20)*%
X167640000Y-85217000D03*
%TO.P,J1,19*%
%TO.N,GND*%
X165100000Y-85217000D03*
%TO.P,J1,18*%
%TO.N,Net-(J1-Pad18)*%
X167640000Y-87757000D03*
%TO.P,J1,17*%
%TO.N,D0_BUF*%
X165100000Y-87757000D03*
%TO.P,J1,16*%
%TO.N,Net-(J1-Pad16)*%
X167640000Y-90297000D03*
%TO.P,J1,15*%
%TO.N,D1_BUF*%
X165100000Y-90297000D03*
%TO.P,J1,14*%
%TO.N,Net-(J1-Pad14)*%
X167640000Y-92837000D03*
%TO.P,J1,13*%
%TO.N,D2_BUF*%
X165100000Y-92837000D03*
%TO.P,J1,12*%
%TO.N,Net-(J1-Pad12)*%
X167640000Y-95377000D03*
%TO.P,J1,11*%
%TO.N,D3_BUF*%
X165100000Y-95377000D03*
%TO.P,J1,10*%
%TO.N,Net-(J1-Pad10)*%
X167640000Y-97917000D03*
%TO.P,J1,9*%
%TO.N,D4_BUF*%
X165100000Y-97917000D03*
%TO.P,J1,8*%
%TO.N,Net-(J1-Pad8)*%
X167640000Y-100457000D03*
%TO.P,J1,7*%
%TO.N,D5_BUF*%
X165100000Y-100457000D03*
%TO.P,J1,6*%
%TO.N,Net-(J1-Pad6)*%
X167640000Y-102997000D03*
%TO.P,J1,5*%
%TO.N,D6_BUF*%
X165100000Y-102997000D03*
%TO.P,J1,4*%
%TO.N,Net-(J1-Pad4)*%
X167640000Y-105537000D03*
%TO.P,J1,3*%
%TO.N,D7_BUF*%
X165100000Y-105537000D03*
%TO.P,J1,2*%
%TO.N,GND*%
X167640000Y-108077000D03*
D16*
%TO.P,J1,1*%
%TO.N,~RESET*%
X165100000Y-108077000D03*
%TD*%
D14*
%TO.P,U4,1*%
%TO.N,/XTAL1*%
X116205000Y-67310000D03*
D13*
%TO.P,U4,9*%
%TO.N,Net-(U4-Pad15)*%
X133985000Y-59690000D03*
%TO.P,U4,2*%
%TO.N,/XTAL2*%
X118745000Y-67310000D03*
%TO.P,U4,10*%
%TO.N,~CE~_BIOS_THRU*%
X131445000Y-59690000D03*
%TO.P,U4,3*%
%TO.N,A02*%
X121285000Y-67310000D03*
%TO.P,U4,11*%
%TO.N,~CE~_BIOS_DECODE*%
X128905000Y-59690000D03*
%TO.P,U4,4*%
%TO.N,Net-(BAT1-Pad1)*%
X123825000Y-67310000D03*
%TO.P,U4,12*%
%TO.N,~MEMR*%
X126365000Y-59690000D03*
%TO.P,U4,5*%
%TO.N,GND*%
X126365000Y-67310000D03*
%TO.P,U4,13*%
%TO.N,VCC*%
X123825000Y-59690000D03*
%TO.P,U4,6*%
%TO.N,A00*%
X128905000Y-67310000D03*
%TO.P,U4,14*%
%TO.N,GND*%
X121285000Y-59690000D03*
%TO.P,U4,7*%
%TO.N,D0*%
X131445000Y-67310000D03*
%TO.P,U4,15*%
%TO.N,Net-(U4-Pad15)*%
X118745000Y-59690000D03*
%TO.P,U4,8*%
%TO.N,GND*%
X133985000Y-67310000D03*
%TO.P,U4,16*%
%TO.N,VCC*%
X116205000Y-59690000D03*
%TD*%
D17*
%TO.P,Y1,2*%
%TO.N,/XTAL1*%
X116205000Y-70490000D03*
%TO.P,Y1,1*%
%TO.N,/XTAL2*%
X116205000Y-72390000D03*
%TD*%
D18*
%TO.P,H4,1*%
%TO.N,GND*%
X192913000Y-116713000D03*
%TD*%
D13*
%TO.P,U2,20*%
%TO.N,VCC*%
X133985000Y-80010000D03*
%TO.P,U2,10*%
%TO.N,GND*%
X156845000Y-87630000D03*
%TO.P,U2,19*%
%TO.N,~CS1~_ATA*%
X136525000Y-80010000D03*
%TO.P,U2,9*%
%TO.N,D7*%
X154305000Y-87630000D03*
%TO.P,U2,18*%
%TO.N,D0_BUF*%
X139065000Y-80010000D03*
%TO.P,U2,8*%
%TO.N,D6*%
X151765000Y-87630000D03*
%TO.P,U2,17*%
%TO.N,D1_BUF*%
X141605000Y-80010000D03*
%TO.P,U2,7*%
%TO.N,D5*%
X149225000Y-87630000D03*
%TO.P,U2,16*%
%TO.N,D2_BUF*%
X144145000Y-80010000D03*
%TO.P,U2,6*%
%TO.N,D4*%
X146685000Y-87630000D03*
%TO.P,U2,15*%
%TO.N,D3_BUF*%
X146685000Y-80010000D03*
%TO.P,U2,5*%
%TO.N,D3*%
X144145000Y-87630000D03*
%TO.P,U2,14*%
%TO.N,D4_BUF*%
X149225000Y-80010000D03*
%TO.P,U2,4*%
%TO.N,D2*%
X141605000Y-87630000D03*
%TO.P,U2,13*%
%TO.N,D5_BUF*%
X151765000Y-80010000D03*
%TO.P,U2,3*%
%TO.N,D1*%
X139065000Y-87630000D03*
%TO.P,U2,12*%
%TO.N,D6_BUF*%
X154305000Y-80010000D03*
%TO.P,U2,2*%
%TO.N,D0*%
X136525000Y-87630000D03*
%TO.P,U2,11*%
%TO.N,D7_BUF*%
X156845000Y-80010000D03*
D14*
%TO.P,U2,1*%
%TO.N,~IOR*%
X133985000Y-87630000D03*
%TD*%
D18*
%TO.P,H3,1*%
%TO.N,GND*%
X166370000Y-116713000D03*
%TD*%
%TO.P,H1,1*%
%TO.N,GND*%
X166370000Y-51181000D03*
%TD*%
%TO.P,H2,1*%
%TO.N,GND*%
X192913000Y-51181000D03*
%TD*%
D19*
%TO.P,J3,62*%
%TO.N,A00*%
X99060000Y-138430000D03*
%TO.P,J3,61*%
%TO.N,A01*%
X101600000Y-138430000D03*
%TO.P,J3,60*%
%TO.N,A02*%
X104140000Y-138430000D03*
%TO.P,J3,59*%
%TO.N,A03*%
X106680000Y-138430000D03*
%TO.P,J3,58*%
%TO.N,A04*%
X109220000Y-138430000D03*
%TO.P,J3,57*%
%TO.N,A05*%
X111760000Y-138430000D03*
%TO.P,J3,56*%
%TO.N,A06*%
X114300000Y-138430000D03*
%TO.P,J3,55*%
%TO.N,A07*%
X116840000Y-138430000D03*
%TO.P,J3,54*%
%TO.N,A08*%
X119380000Y-138430000D03*
%TO.P,J3,53*%
%TO.N,A09*%
X121920000Y-138430000D03*
%TO.P,J3,52*%
%TO.N,A10*%
X124460000Y-138430000D03*
%TO.P,J3,51*%
%TO.N,A11*%
X127000000Y-138430000D03*
%TO.P,J3,50*%
%TO.N,A12*%
X129540000Y-138430000D03*
%TO.P,J3,49*%
%TO.N,A13*%
X132080000Y-138430000D03*
%TO.P,J3,48*%
%TO.N,A14*%
X134620000Y-138430000D03*
%TO.P,J3,47*%
%TO.N,A15*%
X137160000Y-138430000D03*
%TO.P,J3,46*%
%TO.N,A16*%
X139700000Y-138430000D03*
%TO.P,J3,45*%
%TO.N,A17*%
X142240000Y-138430000D03*
%TO.P,J3,44*%
%TO.N,A18*%
X144780000Y-138430000D03*
%TO.P,J3,43*%
%TO.N,A19*%
X147320000Y-138430000D03*
%TO.P,J3,42*%
%TO.N,AEN*%
X149860000Y-138430000D03*
%TO.P,J3,41*%
%TO.N,Net-(J3-Pad41)*%
X152400000Y-138430000D03*
%TO.P,J3,40*%
%TO.N,D0*%
X154940000Y-138430000D03*
%TO.P,J3,39*%
%TO.N,D1*%
X157480000Y-138430000D03*
%TO.P,J3,38*%
%TO.N,D2*%
X160020000Y-138430000D03*
%TO.P,J3,37*%
%TO.N,D3*%
X162560000Y-138430000D03*
%TO.P,J3,36*%
%TO.N,D4*%
X165100000Y-138430000D03*
%TO.P,J3,35*%
%TO.N,D5*%
X167640000Y-138430000D03*
%TO.P,J3,34*%
%TO.N,D6*%
X170180000Y-138430000D03*
%TO.P,J3,33*%
%TO.N,D7*%
X172720000Y-138430000D03*
%TO.P,J3,32*%
%TO.N,Net-(J3-Pad32)*%
X175260000Y-138430000D03*
%TD*%
D20*
%TO.N,A00*%
X130683000Y-62484000D03*
X109347000Y-66294000D03*
X102294999Y-113665000D03*
X106553000Y-109474000D03*
%TO.N,A01*%
X104775000Y-113665000D03*
X109347004Y-67818000D03*
X107315000Y-111125000D03*
%TO.N,A02*%
X112395000Y-96520000D03*
X109347000Y-70866000D03*
X127635000Y-98425000D03*
X107315000Y-113665000D03*
%TO.N,A03*%
X109795001Y-113724999D03*
X111379000Y-67310004D03*
%TO.N,A04*%
X109347000Y-119125994D03*
X117221000Y-113538000D03*
%TO.N,A05*%
X110870997Y-119126003D03*
%TO.N,A06*%
X114935000Y-97790000D03*
X108585000Y-97790000D03*
X110871000Y-117856000D03*
%TO.N,A11*%
X118744980Y-104902000D03*
X124333000Y-104902000D03*
%TO.N,A12*%
X124460000Y-118110000D03*
%TO.N,A13*%
X128143000Y-102870000D03*
%TO.N,A15*%
X130175000Y-98425000D03*
X106045000Y-95885000D03*
%TO.N,A16*%
X129159000Y-84836000D03*
%TO.N,A17*%
X129159000Y-78994000D03*
%TO.N,A18*%
X131191000Y-85852000D03*
%TO.N,A19*%
X130175000Y-80010000D03*
%TO.N,D0*%
X149987000Y-111124990D03*
%TO.N,D1*%
X152019000Y-112395000D03*
%TO.N,D2*%
X153289000Y-113664996D03*
%TO.N,D3*%
X149479000Y-100330000D03*
%TO.N,D4*%
X150241000Y-98806000D03*
%TO.N,D5*%
X153035000Y-94488000D03*
%TO.N,D6*%
X155067000Y-92456000D03*
%TO.N,D7*%
X156591000Y-102870000D03*
D21*
%TO.N,GND*%
X175260000Y-130810000D03*
X170815000Y-59690000D03*
X170815000Y-74930000D03*
X170815000Y-67310000D03*
X170815000Y-69850000D03*
X170815000Y-72390000D03*
X170815000Y-77470000D03*
X170815000Y-80010000D03*
X170815000Y-82550000D03*
X177165000Y-130810000D03*
X177165000Y-132715000D03*
X179070000Y-132715000D03*
X179070000Y-130810000D03*
X175260000Y-128905000D03*
X177165000Y-128905000D03*
X179070000Y-128905000D03*
X142621000Y-125476000D03*
X126111000Y-93726000D03*
X126619000Y-74930000D03*
X136271000Y-77470000D03*
X110285000Y-57912000D03*
X132715000Y-90932000D03*
X100965000Y-72390000D03*
X109156500Y-129794000D03*
X109156500Y-125476000D03*
X151511000Y-129794000D03*
X168021000Y-129794000D03*
X163703000Y-124968000D03*
X100965000Y-92964000D03*
X114935000Y-74930000D03*
X110285000Y-61468000D03*
X142367000Y-130556000D03*
X100965000Y-95885000D03*
X100965000Y-102362000D03*
X103251000Y-125095000D03*
X100711000Y-125095000D03*
X139065000Y-109728000D03*
X139065000Y-107188000D03*
X141351000Y-107188000D03*
X143637000Y-109728000D03*
X159385000Y-104140000D03*
X160909000Y-104140000D03*
X160909000Y-111506000D03*
X159385000Y-113284000D03*
X160909000Y-97155000D03*
X159385000Y-97155000D03*
X139319000Y-97282000D03*
X159893000Y-87630000D03*
X160909000Y-92202000D03*
X159385000Y-92202000D03*
X136017000Y-93726000D03*
X135001000Y-94742000D03*
X126873000Y-87630000D03*
X123825000Y-93726000D03*
X100965000Y-89916000D03*
X151765000Y-125370010D03*
X161925000Y-123190000D03*
X157861000Y-119126000D03*
X159639000Y-120904000D03*
X161417000Y-76454000D03*
X159131000Y-78486000D03*
X161417000Y-68326000D03*
X159639000Y-67056000D03*
X146177000Y-70612000D03*
X146177000Y-67564000D03*
X133985000Y-72390000D03*
X133985000Y-75565000D03*
X100965000Y-75565000D03*
X186690000Y-59817000D03*
X189865000Y-59817000D03*
X100965000Y-121920000D03*
X102502500Y-119634000D03*
X109156500Y-132016500D03*
X168021000Y-132334000D03*
X151511000Y-133350000D03*
X153670000Y-129794000D03*
X153670000Y-133350000D03*
X139065000Y-125476000D03*
X139065000Y-123190000D03*
X142621000Y-123190000D03*
X109156500Y-122745500D03*
X102743000Y-74090000D03*
X126111000Y-70612000D03*
X120269000Y-69342000D03*
X123825000Y-69342000D03*
X118745000Y-72898000D03*
X113030000Y-73025000D03*
X113665000Y-68580000D03*
X102235000Y-56515000D03*
X98425000Y-58420000D03*
X98425000Y-43815000D03*
X127635000Y-55880000D03*
X130810000Y-55880000D03*
X134493000Y-61976000D03*
X133985000Y-57150000D03*
X125095000Y-55880000D03*
X139065000Y-120015000D03*
X101600000Y-107950000D03*
X135763000Y-74090000D03*
X142621000Y-120015000D03*
X144907000Y-115316000D03*
%TO.N,VCC*%
X102235000Y-127635000D03*
X102235000Y-129540000D03*
X173990000Y-120015000D03*
X172085000Y-120015000D03*
X100330000Y-59690000D03*
X102919000Y-77040000D03*
X101981000Y-59690000D03*
X114300000Y-59690000D03*
D20*
%TO.N,~IOR*%
X143891000Y-132588000D03*
X162179000Y-83820000D03*
X162179000Y-112522000D03*
X144145000Y-117094000D03*
%TO.N,~IOW*%
X145161000Y-132588000D03*
X163703000Y-112522000D03*
X145161000Y-118110000D03*
%TO.N,~MEMR*%
X132715012Y-61468000D03*
X147701000Y-132588000D03*
X143891000Y-104140000D03*
%TO.N,~MEMW*%
X149225000Y-132588000D03*
X145161000Y-105664000D03*
%TO.N,RESET*%
X121793000Y-121920000D03*
X164465000Y-121158000D03*
X172720000Y-128905000D03*
%TO.N,~CS1~_ATA*%
X163195000Y-76835000D03*
%TO.N,D0_BUF*%
X139065000Y-84836000D03*
%TO.N,D1_BUF*%
X141605000Y-85725000D03*
%TO.N,D2_BUF*%
X147193000Y-93472000D03*
%TO.N,D3_BUF*%
X149987000Y-95504000D03*
%TO.N,D4_BUF*%
X152018994Y-98806000D03*
%TO.N,D5_BUF*%
X154051000Y-100076000D03*
%TO.N,D6_BUF*%
X156083000Y-101346000D03*
%TO.N,D7_BUF*%
X158115000Y-102870000D03*
%TO.N,~RESET*%
X166370000Y-81407006D03*
%TO.N,A14*%
X128143000Y-104648000D03*
%TO.N,~CE~_BIOS_DECODE*%
X126365000Y-54610000D03*
X110363000Y-63753994D03*
%TO.N,~CE~_BIOS_THRU*%
X134239000Y-54610000D03*
%TO.N,AEN*%
X136525000Y-83820000D03*
X150241000Y-123190000D03*
X153289000Y-123190000D03*
%TD*%
D22*
%TO.N,A00*%
X128905000Y-64262000D02*
X130683000Y-62484000D01*
X128905000Y-67310000D02*
X128905000Y-64262000D01*
X99060000Y-133985000D02*
X99060000Y-138430000D01*
X100965000Y-132080000D02*
X99060000Y-133985000D01*
X102294999Y-117034001D02*
X104775000Y-119514002D01*
X102294999Y-113665000D02*
X102294999Y-117034001D01*
X104775000Y-119514002D02*
X104775000Y-130302000D01*
X104775000Y-130302000D02*
X102997000Y-132080000D01*
X102997000Y-132080000D02*
X100965000Y-132080000D01*
X109347000Y-66294000D02*
X107315000Y-68326000D01*
X107315000Y-68326000D02*
X107315000Y-108712000D01*
X107315000Y-108712000D02*
X106553000Y-109474000D01*
%TO.N,A01*%
X105791000Y-118110000D02*
X104775000Y-117094000D01*
X104775000Y-117094000D02*
X104775000Y-113665000D01*
X105791000Y-130810000D02*
X105791000Y-118110000D01*
X103251000Y-133350000D02*
X105791000Y-130810000D01*
X102235000Y-133350000D02*
X103251000Y-133350000D01*
X101600000Y-133985000D02*
X102235000Y-133350000D01*
X101600000Y-138430000D02*
X101600000Y-133985000D01*
X108331000Y-76708000D02*
X108331000Y-68834004D01*
X109855000Y-78232000D02*
X108331000Y-76708000D01*
X107315000Y-111125000D02*
X109855000Y-108585000D01*
X108331000Y-68834004D02*
X109347004Y-67818000D01*
X109855000Y-108585000D02*
X109855000Y-78232000D01*
%TO.N,A02*%
X109347000Y-75438000D02*
X112395000Y-78486000D01*
X112395000Y-78486000D02*
X112395000Y-96520000D01*
X109347000Y-70866000D02*
X109347000Y-75438000D01*
X123825000Y-114808000D02*
X123825000Y-115570000D01*
X125603000Y-113030000D02*
X123825000Y-114808000D01*
X125603000Y-103632000D02*
X125603000Y-113030000D01*
X127635000Y-101600000D02*
X125603000Y-103632000D01*
X127635000Y-98425000D02*
X127635000Y-101600000D01*
X104140000Y-133985000D02*
X104140000Y-138430000D01*
X106807000Y-117602000D02*
X106807000Y-131318000D01*
X107315000Y-117094000D02*
X106807000Y-117602000D01*
X107315000Y-113665000D02*
X107315000Y-117094000D01*
X106807000Y-131318000D02*
X104140000Y-133985000D01*
%TO.N,A03*%
X109855000Y-113784998D02*
X109795001Y-113724999D01*
X109855000Y-117094000D02*
X109855000Y-113784998D01*
X107823000Y-119126000D02*
X109855000Y-117094000D01*
X107823000Y-132842000D02*
X107823000Y-119126000D01*
X106680000Y-133985000D02*
X107823000Y-132842000D01*
X106680000Y-138430000D02*
X106680000Y-133985000D01*
X115951000Y-78232000D02*
X111379000Y-73660000D01*
X120015000Y-79241599D02*
X119005401Y-78232000D01*
X111379000Y-73660000D02*
X111379000Y-67310004D01*
X120015000Y-83185000D02*
X120015000Y-79241599D01*
X122555000Y-85725000D02*
X120015000Y-83185000D01*
X122555000Y-96266000D02*
X122555000Y-85725000D01*
X125095000Y-98806000D02*
X122555000Y-96266000D01*
X119005401Y-78232000D02*
X115951000Y-78232000D01*
X125095000Y-102108000D02*
X125095000Y-98806000D01*
X123063000Y-104140000D02*
X125095000Y-102108000D01*
X123063000Y-112522000D02*
X123063000Y-104140000D01*
X121285000Y-114300000D02*
X123063000Y-112522000D01*
X121285000Y-115570000D02*
X121285000Y-114300000D01*
%TO.N,A04*%
X110508999Y-120287993D02*
X109347000Y-119125994D01*
X110508999Y-132696001D02*
X110508999Y-120287993D01*
X109220000Y-138430000D02*
X109220000Y-133985000D01*
X109220000Y-133985000D02*
X110508999Y-132696001D01*
X118745000Y-97536000D02*
X118745000Y-87630000D01*
X120015000Y-110744000D02*
X120015000Y-98806000D01*
X120015000Y-98806000D02*
X118745000Y-97536000D01*
X117221000Y-113538000D02*
X120015000Y-110744000D01*
%TO.N,A05*%
X111760000Y-120015006D02*
X110870997Y-119126003D01*
X111760000Y-138430000D02*
X111760000Y-120015006D01*
X117945001Y-80809999D02*
X118745000Y-80010000D01*
X117475000Y-81280000D02*
X117945001Y-80809999D01*
X117475000Y-109982000D02*
X117475000Y-81280000D01*
X116205000Y-111252000D02*
X117475000Y-109982000D01*
X116205000Y-115570000D02*
X116205000Y-111252000D01*
%TO.N,A06*%
X113374987Y-115860013D02*
X113665000Y-115570000D01*
X108585000Y-87630000D02*
X108585000Y-97790000D01*
X111125000Y-117856000D02*
X110871000Y-117856000D01*
X114300000Y-121031000D02*
X111125000Y-117856000D01*
X114300000Y-138430000D02*
X114300000Y-121031000D01*
X114935000Y-105664000D02*
X114935000Y-97790000D01*
X113665000Y-106934000D02*
X114935000Y-105664000D01*
X113665000Y-115570000D02*
X113665000Y-106934000D01*
%TO.N,A07*%
X111212659Y-114935000D02*
X111125000Y-114935000D01*
X116840000Y-122047000D02*
X111125000Y-116332000D01*
X111125000Y-116332000D02*
X111125000Y-115570000D01*
X116840000Y-138430000D02*
X116840000Y-122047000D01*
X111125000Y-97790000D02*
X111125000Y-87630000D01*
X112395000Y-99060000D02*
X111125000Y-97790000D01*
X112395000Y-101600000D02*
X112395000Y-99060000D01*
X111125000Y-102870000D02*
X112395000Y-101600000D01*
X111125000Y-115570000D02*
X111125000Y-102870000D01*
%TO.N,A08*%
X113665000Y-100330000D02*
X113665000Y-87630000D01*
X113665000Y-103695500D02*
X113665000Y-100330000D01*
X112395000Y-104965500D02*
X113665000Y-103695500D01*
X112395000Y-116205000D02*
X112395000Y-104965500D01*
X119555001Y-123365001D02*
X112395000Y-116205000D01*
X119555001Y-138254999D02*
X119555001Y-123365001D01*
X119380000Y-138430000D02*
X119555001Y-138254999D01*
%TO.N,A09*%
X116205000Y-93980000D02*
X116205000Y-87630000D01*
X116205000Y-93980000D02*
X116205000Y-100330000D01*
X121920000Y-123825000D02*
X121920000Y-138430000D01*
X114935000Y-116840000D02*
X121920000Y-123825000D01*
X114935000Y-108966000D02*
X114935000Y-116840000D01*
X116205000Y-107696000D02*
X114935000Y-108966000D01*
X116205000Y-100330000D02*
X116205000Y-107696000D01*
%TO.N,A10*%
X124460000Y-134320000D02*
X124460000Y-138430000D01*
X124460000Y-122555000D02*
X124460000Y-134320000D01*
X120015000Y-118110000D02*
X124460000Y-122555000D01*
X120015000Y-114046000D02*
X120015000Y-118110000D01*
X122047000Y-112014000D02*
X120015000Y-114046000D01*
X122047000Y-103632000D02*
X122047000Y-112014000D01*
X123825000Y-101854000D02*
X122047000Y-103632000D01*
X123825000Y-100330000D02*
X123825000Y-101854000D01*
%TO.N,A11*%
X118745000Y-104901980D02*
X118744980Y-104902000D01*
X118745000Y-100330000D02*
X118745000Y-104901980D01*
X127000000Y-122555000D02*
X127000000Y-138430000D01*
X122555000Y-118110000D02*
X127000000Y-122555000D01*
X122555000Y-114554000D02*
X122555000Y-118110000D01*
X124333000Y-112776000D02*
X122555000Y-114554000D01*
X124333000Y-104902000D02*
X124333000Y-112776000D01*
%TO.N,A12*%
X129540000Y-123190000D02*
X124460000Y-118110000D01*
X129540000Y-138430000D02*
X129540000Y-123190000D01*
%TO.N,A13*%
X132080000Y-133985000D02*
X132080000Y-138430000D01*
X131445000Y-122936000D02*
X131445000Y-133350000D01*
X125095000Y-116586000D02*
X131445000Y-122936000D01*
X125095000Y-115062000D02*
X125095000Y-116586000D01*
X126619000Y-113538000D02*
X125095000Y-115062000D01*
X126619000Y-104394000D02*
X126619000Y-113538000D01*
X131445000Y-133350000D02*
X132080000Y-133985000D01*
X128143000Y-102870000D02*
X126619000Y-104394000D01*
%TO.N,A15*%
X106045000Y-95885000D02*
X106045000Y-87630000D01*
X130175000Y-117094000D02*
X130175000Y-98544998D01*
X133985000Y-120904000D02*
X130175000Y-117094000D01*
X133985000Y-130810000D02*
X133985000Y-120904000D01*
X130175000Y-98544998D02*
X130115001Y-98484999D01*
X137160000Y-133985000D02*
X133985000Y-130810000D01*
X137160000Y-138430000D02*
X137160000Y-133985000D01*
%TO.N,A16*%
X139700000Y-133935451D02*
X139700000Y-138430000D01*
X135314999Y-129550450D02*
X139700000Y-133935451D01*
X135314999Y-119693999D02*
X135314999Y-129550450D01*
X132715000Y-117094000D02*
X135314999Y-119693999D01*
X132715000Y-99216972D02*
X132715000Y-117094000D01*
X129159000Y-95660972D02*
X132715000Y-99216972D01*
X129159000Y-84836000D02*
X129159000Y-95660972D01*
%TO.N,A17*%
X136584999Y-128329999D02*
X142240000Y-133985000D01*
X142240000Y-133985000D02*
X142240000Y-138430000D01*
X136584999Y-118423999D02*
X136584999Y-128329999D01*
X135255000Y-117094000D02*
X136584999Y-118423999D01*
X135255000Y-99809198D02*
X135255000Y-117094000D01*
X130234999Y-94789197D02*
X135255000Y-99809198D01*
X130234999Y-84133999D02*
X130234999Y-94789197D01*
X129159000Y-83058000D02*
X130234999Y-84133999D01*
X129159000Y-78994000D02*
X129159000Y-83058000D01*
%TO.N,A18*%
X144399000Y-133604000D02*
X144780000Y-133985000D01*
X143383000Y-133604000D02*
X144399000Y-133604000D01*
X137795000Y-128016000D02*
X143383000Y-133604000D01*
X137795000Y-99695000D02*
X137795000Y-128016000D01*
X144780000Y-133985000D02*
X144780000Y-138430000D01*
X131191000Y-93091000D02*
X137795000Y-99695000D01*
X131191000Y-85852000D02*
X131191000Y-93091000D01*
%TO.N,A19*%
X132207000Y-88418001D02*
X132207000Y-84582000D01*
X142875000Y-98552000D02*
X133757001Y-89434001D01*
X130175000Y-82550000D02*
X130175000Y-80010000D01*
X146431000Y-110236000D02*
X142875000Y-106680000D01*
X146431000Y-133096000D02*
X146431000Y-110236000D01*
X132207000Y-84582000D02*
X130175000Y-82550000D01*
X147320000Y-133985000D02*
X146431000Y-133096000D01*
X133223000Y-89434001D02*
X132207000Y-88418001D01*
X133757001Y-89434001D02*
X133223000Y-89434001D01*
X142875000Y-106680000D02*
X142875000Y-98552000D01*
X147320000Y-138430000D02*
X147320000Y-133985000D01*
%TO.N,D0*%
X131445000Y-78232000D02*
X131445000Y-67310000D01*
X132207000Y-78994000D02*
X131445000Y-78232000D01*
X132207000Y-81407000D02*
X132207000Y-78994000D01*
X136525000Y-85725000D02*
X132207000Y-81407000D01*
X136525000Y-87630000D02*
X136525000Y-85725000D01*
X144907000Y-97536000D02*
X136525000Y-89154000D01*
X144907000Y-103632000D02*
X144907000Y-97536000D01*
X149987000Y-108712000D02*
X144907000Y-103632000D01*
X136525000Y-89154000D02*
X136525000Y-87630000D01*
X149987000Y-111124990D02*
X149987000Y-108712000D01*
X154940000Y-126365000D02*
X154940000Y-138430000D01*
X149987000Y-121412000D02*
X154940000Y-126365000D01*
X149987000Y-111124990D02*
X149987000Y-121412000D01*
%TO.N,D1*%
X152019000Y-107696000D02*
X152019000Y-112395000D01*
X139065000Y-88761370D02*
X146939000Y-96635370D01*
X139065000Y-87630000D02*
X139065000Y-88761370D01*
X146939000Y-102616000D02*
X152019000Y-107696000D01*
X146939000Y-96635370D02*
X146939000Y-102616000D01*
X152019000Y-120396000D02*
X152019000Y-112395000D01*
X157480000Y-125857000D02*
X152019000Y-120396000D01*
X157480000Y-138430000D02*
X157480000Y-125857000D01*
%TO.N,D2*%
X147955000Y-96012000D02*
X147955000Y-102108000D01*
X160020000Y-138430000D02*
X160020000Y-127000000D01*
X160020000Y-127000000D02*
X153289000Y-120269000D01*
X147955000Y-102108000D02*
X153289000Y-107442000D01*
X153289000Y-120269000D02*
X153289000Y-113664996D01*
X153289000Y-107442000D02*
X153289000Y-113664996D01*
X141605000Y-87630000D02*
X141605000Y-89662000D01*
X141605000Y-89662000D02*
X147955000Y-96012000D01*
%TO.N,D3*%
X144145000Y-88646000D02*
X144145000Y-87630000D01*
X148971000Y-93472000D02*
X144145000Y-88646000D01*
X148971000Y-99822000D02*
X148971000Y-93472000D01*
X149479000Y-100330000D02*
X148971000Y-99822000D01*
X162560000Y-128143000D02*
X162560000Y-138430000D01*
X154305000Y-119888000D02*
X162560000Y-128143000D01*
X154305000Y-106934000D02*
X154305000Y-119888000D01*
X149479000Y-102108000D02*
X154305000Y-106934000D01*
X149479000Y-100330000D02*
X149479000Y-102108000D01*
%TO.N,D4*%
X146685000Y-88646000D02*
X146685000Y-87630000D01*
X151003000Y-92964000D02*
X146685000Y-88646000D01*
X151003000Y-98044000D02*
X151003000Y-92964000D01*
X150241000Y-98806000D02*
X151003000Y-98044000D01*
X165100000Y-129413000D02*
X165100000Y-138430000D01*
X155067000Y-119380000D02*
X165100000Y-129413000D01*
X155067000Y-106172000D02*
X155067000Y-119380000D01*
X151003000Y-102108000D02*
X155067000Y-106172000D01*
X151003000Y-99568000D02*
X151003000Y-102108000D01*
X150241000Y-98806000D02*
X151003000Y-99568000D01*
%TO.N,D5*%
X153035000Y-92571370D02*
X149225000Y-88761370D01*
X153035000Y-94488000D02*
X153035000Y-92571370D01*
X149225000Y-88761370D02*
X149225000Y-87630000D01*
X167640000Y-133985000D02*
X167640000Y-138430000D01*
X166497000Y-132842000D02*
X167640000Y-133985000D01*
X166497000Y-129540000D02*
X166497000Y-132842000D01*
X156083000Y-119126000D02*
X166497000Y-129540000D01*
X156083000Y-105664000D02*
X156083000Y-119126000D01*
X153035000Y-102616000D02*
X156083000Y-105664000D01*
X153035000Y-94488000D02*
X153035000Y-102616000D01*
%TO.N,D6*%
X155067000Y-91948000D02*
X151765000Y-88646000D01*
X155067000Y-92456000D02*
X155067000Y-91948000D01*
X151765000Y-88646000D02*
X151765000Y-87630000D01*
X170180000Y-129667000D02*
X170180000Y-138430000D01*
X157099000Y-116586000D02*
X170180000Y-129667000D01*
X155067000Y-103124000D02*
X157099000Y-105156000D01*
X157099000Y-105156000D02*
X157099000Y-116586000D01*
X155067000Y-92456000D02*
X155067000Y-103124000D01*
%TO.N,D7*%
X154305000Y-88646000D02*
X154305000Y-87630000D01*
X157099000Y-91440000D02*
X154305000Y-88646000D01*
X157099000Y-102362000D02*
X157099000Y-91440000D01*
X156591000Y-102870000D02*
X157099000Y-102362000D01*
X172720000Y-130937000D02*
X172720000Y-138430000D01*
X158115000Y-116332000D02*
X172720000Y-130937000D01*
X158115000Y-104648000D02*
X158115000Y-116332000D01*
X156591000Y-103124000D02*
X158115000Y-104648000D01*
X156591000Y-102870000D02*
X156591000Y-103124000D01*
%TO.N,GND*%
X167640000Y-59817000D02*
X167640000Y-57150000D01*
X167640000Y-57150000D02*
X167640000Y-56515000D01*
X167640000Y-56515000D02*
X170815000Y-56515000D01*
X170815000Y-56515000D02*
X170815000Y-59690000D01*
D23*
X170688000Y-72517000D02*
X170815000Y-72390000D01*
D22*
X167640000Y-72517000D02*
X170688000Y-72517000D01*
D23*
X170688000Y-77597000D02*
X170815000Y-77470000D01*
D22*
X167640000Y-77597000D02*
X170688000Y-77597000D01*
D23*
X170688000Y-80137000D02*
X170815000Y-80010000D01*
D22*
X167640000Y-80137000D02*
X170688000Y-80137000D01*
D23*
X170688000Y-82677000D02*
X170815000Y-82550000D01*
D22*
X167640000Y-82677000D02*
X170688000Y-82677000D01*
X100965000Y-74090000D02*
X100965000Y-72390000D01*
X110285000Y-59690000D02*
X110285000Y-57912000D01*
X110285000Y-59690000D02*
X110285000Y-61468000D01*
X100965000Y-94410000D02*
X100965000Y-92964000D01*
X100965000Y-95885000D02*
X100965000Y-94410000D01*
X121285000Y-59690000D02*
X121285000Y-55880000D01*
X121285000Y-55880000D02*
X125095000Y-55880000D01*
X100965000Y-74090000D02*
X102743000Y-74090000D01*
X100965000Y-74090000D02*
X100965000Y-75565000D01*
X126365000Y-70358000D02*
X126111000Y-70612000D01*
X126365000Y-67310000D02*
X126365000Y-70358000D01*
X126111000Y-74422000D02*
X126619000Y-74930000D01*
X126111000Y-70612000D02*
X126111000Y-74422000D01*
X125095000Y-70612000D02*
X123825000Y-69342000D01*
X126111000Y-70612000D02*
X125095000Y-70612000D01*
X123825000Y-69342000D02*
X120269000Y-69342000D01*
X120269000Y-71374000D02*
X118745000Y-72898000D01*
X120269000Y-69342000D02*
X120269000Y-71374000D01*
X116713000Y-74930000D02*
X114935000Y-74930000D01*
X118745000Y-72898000D02*
X116713000Y-74930000D01*
X114935000Y-74930000D02*
X113030000Y-73025000D01*
X113030000Y-69215000D02*
X113665000Y-68580000D01*
X113030000Y-73025000D02*
X113030000Y-69215000D01*
X133985000Y-74090000D02*
X133985000Y-72390000D01*
X133985000Y-74090000D02*
X133985000Y-75565000D01*
X133985000Y-74090000D02*
X135763000Y-74090000D01*
X136271000Y-74598000D02*
X136271000Y-77470000D01*
X135763000Y-74090000D02*
X136271000Y-74598000D01*
X159893000Y-79248000D02*
X159131000Y-78486000D01*
X159893000Y-87630000D02*
X159893000Y-79248000D01*
X161163000Y-76454000D02*
X161417000Y-76454000D01*
X159131000Y-78486000D02*
X161163000Y-76454000D01*
X146177000Y-67564000D02*
X146177000Y-70612000D01*
X161417000Y-76454000D02*
X161417000Y-68326000D01*
X160909000Y-68326000D02*
X159639000Y-67056000D01*
X161417000Y-68326000D02*
X160909000Y-68326000D01*
X159893000Y-91186000D02*
X160909000Y-92202000D01*
X159893000Y-87630000D02*
X159893000Y-91186000D01*
X160909000Y-92202000D02*
X159385000Y-92202000D01*
X159385000Y-92202000D02*
X159385000Y-97155000D01*
X159385000Y-97155000D02*
X160909000Y-97155000D01*
X160909000Y-97155000D02*
X160909000Y-104140000D01*
X160909000Y-104140000D02*
X159385000Y-104140000D01*
X159385000Y-104140000D02*
X159385000Y-113284000D01*
X159385000Y-113030000D02*
X160909000Y-111506000D01*
X159385000Y-113284000D02*
X159385000Y-113030000D01*
X151511000Y-133350000D02*
X151511000Y-129794000D01*
X151511000Y-125624010D02*
X151765000Y-125370010D01*
X151511000Y-129794000D02*
X151511000Y-125624010D01*
X153670000Y-133350000D02*
X153670000Y-129794000D01*
X157861000Y-119126000D02*
X159639000Y-120904000D01*
X159639000Y-120904000D02*
X161925000Y-123190000D01*
X161925000Y-123190000D02*
X163703000Y-124968000D01*
X168021000Y-129286000D02*
X168021000Y-129794000D01*
X163703000Y-124968000D02*
X168021000Y-129286000D01*
X168021000Y-129794000D02*
X168021000Y-132334000D01*
X142367000Y-125730000D02*
X142621000Y-125476000D01*
X142367000Y-130556000D02*
X142367000Y-125730000D01*
X142621000Y-125476000D02*
X142621000Y-123190000D01*
X142621000Y-120396000D02*
X142621000Y-123190000D01*
X142621000Y-120015000D02*
X142621000Y-120396000D01*
X142621000Y-115316000D02*
X144907000Y-115316000D01*
X142621000Y-120015000D02*
X142621000Y-115316000D01*
X144907000Y-110998000D02*
X143637000Y-109728000D01*
X144907000Y-115316000D02*
X144907000Y-110998000D01*
X143637000Y-109728000D02*
X139065000Y-109728000D01*
X139065000Y-109728000D02*
X139065000Y-107188000D01*
X139065000Y-107188000D02*
X141351000Y-107188000D01*
X126873000Y-92964000D02*
X126111000Y-93726000D01*
X126873000Y-87630000D02*
X126873000Y-92964000D01*
X136017000Y-93980000D02*
X139319000Y-97282000D01*
X136017000Y-93726000D02*
X136017000Y-93980000D01*
X100965000Y-92964000D02*
X100965000Y-89916000D01*
X102502500Y-121920000D02*
X100965000Y-121920000D01*
X100965000Y-121920000D02*
X100965000Y-119634000D01*
X100965000Y-119634000D02*
X102502500Y-119634000D01*
X100965000Y-124841000D02*
X100711000Y-125095000D01*
X100965000Y-121920000D02*
X100965000Y-124841000D01*
X100711000Y-125095000D02*
X103251000Y-125095000D01*
X109156500Y-122745500D02*
X109156500Y-125476000D01*
X109156500Y-125476000D02*
X109156500Y-129794000D01*
X109156500Y-129794000D02*
X109156500Y-132016500D01*
X179411000Y-59817000D02*
X179411000Y-57952000D01*
D24*
%TO.N,VCC*%
X102235000Y-127635000D02*
X102235000Y-129540000D01*
D23*
X98425000Y-108585000D02*
X98425000Y-107950000D01*
X99060000Y-109855000D02*
X98425000Y-109855000D01*
D24*
X98425000Y-109855000D02*
X98425000Y-111760000D01*
D23*
X99060000Y-111760000D02*
X98425000Y-111760000D01*
D24*
X98425000Y-111760000D02*
X98425000Y-113665000D01*
D25*
X100965000Y-127635000D02*
X98425000Y-125095000D01*
D24*
X98425000Y-91440000D02*
X98425000Y-88900000D01*
X173990000Y-120015000D02*
X172085000Y-120015000D01*
X173990000Y-120015000D02*
X173990000Y-118110000D01*
X173990000Y-118110000D02*
X172085000Y-120015000D01*
X172085000Y-120015000D02*
X172085000Y-120015000D01*
X98425000Y-106045000D02*
X98425000Y-107315000D01*
D23*
X99060000Y-110490000D02*
X98425000Y-109855000D01*
D24*
X98425000Y-107315000D02*
X98425000Y-109220000D01*
X98425000Y-109220000D02*
X98425000Y-109855000D01*
X98425000Y-104775000D02*
X98425000Y-106045000D01*
D23*
X99060000Y-106045000D02*
X98425000Y-106045000D01*
X98425000Y-108585000D02*
X98425000Y-109220000D01*
X98425000Y-90805000D02*
X98425000Y-91440000D01*
X99060000Y-104775000D02*
X98425000Y-104775000D01*
D24*
X98425000Y-127635000D02*
X102235000Y-127635000D01*
X102235000Y-129540000D02*
X100965000Y-127635000D01*
X98425000Y-129540000D02*
X102235000Y-129540000D01*
X98425000Y-127000000D02*
X98425000Y-129540000D01*
D22*
X166379999Y-63617001D02*
X167640000Y-62357000D01*
X166379999Y-71237001D02*
X166379999Y-63617001D01*
X165100000Y-72517000D02*
X166379999Y-71237001D01*
D26*
X98425000Y-108388990D02*
X98425000Y-107315000D01*
X98425000Y-110051010D02*
X98425000Y-111760000D01*
D22*
X175895000Y-68580000D02*
X177165000Y-67310000D01*
X167640000Y-62357000D02*
X169672000Y-62357000D01*
D24*
X179070000Y-65405000D02*
X181951000Y-62524000D01*
X173990000Y-118110000D02*
X173990000Y-70485000D01*
D22*
X174942500Y-68897500D02*
X175260000Y-69215000D01*
D24*
X173990000Y-70485000D02*
X175260000Y-69215000D01*
D22*
X169672000Y-62357000D02*
X174942500Y-67627500D01*
X174942500Y-67627500D02*
X174942500Y-68897500D01*
X174942500Y-67627500D02*
X175895000Y-68580000D01*
X176212500Y-67627500D02*
X176530000Y-67945000D01*
X174942500Y-67627500D02*
X176212500Y-67627500D01*
D24*
X176530000Y-67945000D02*
X179070000Y-65405000D01*
X175260000Y-69215000D02*
X176530000Y-67945000D01*
X98425000Y-87757000D02*
X98425000Y-91440000D01*
X98425000Y-97155000D02*
X98425000Y-104775000D01*
X98425000Y-91440000D02*
X98425000Y-97155000D01*
D27*
X99060000Y-80010000D02*
X98425000Y-80645000D01*
D26*
X100965000Y-80010000D02*
X99060000Y-80010000D01*
D24*
X98425000Y-80645000D02*
X98425000Y-87757000D01*
D26*
X100965000Y-100330000D02*
X99060000Y-100330000D01*
D28*
X133985000Y-80010000D02*
X133985000Y-77040000D01*
D22*
X100772500Y-63500000D02*
X98425000Y-63500000D01*
X99060000Y-66675000D02*
X98425000Y-66040000D01*
X100772500Y-66675000D02*
X99060000Y-66675000D01*
D24*
X98425000Y-63500000D02*
X98425000Y-66040000D01*
D22*
X99060000Y-69850000D02*
X98425000Y-69215000D01*
X100772500Y-69850000D02*
X99060000Y-69850000D01*
D24*
X98425000Y-66040000D02*
X98425000Y-69215000D01*
D28*
X100965000Y-97360000D02*
X100965000Y-100330000D01*
D22*
X117983000Y-61468000D02*
X116205000Y-59690000D01*
X122047000Y-61468000D02*
X117983000Y-61468000D01*
X123825000Y-59690000D02*
X122047000Y-61468000D01*
D24*
X101981000Y-59690000D02*
X100330000Y-59690000D01*
X98425000Y-61595000D02*
X98425000Y-63500000D01*
X100330000Y-59690000D02*
X98425000Y-61595000D01*
D28*
X101375000Y-77724000D02*
X100965000Y-77724000D01*
X102059000Y-77040000D02*
X101375000Y-77724000D01*
X100965000Y-77724000D02*
X100965000Y-80010000D01*
X100965000Y-77040000D02*
X100965000Y-77724000D01*
X100965000Y-77040000D02*
X102059000Y-77040000D01*
X102059000Y-77040000D02*
X102919000Y-77040000D01*
X98855000Y-77040000D02*
X98425000Y-77470000D01*
D24*
X98425000Y-77470000D02*
X98425000Y-80645000D01*
X98425000Y-69215000D02*
X98425000Y-77470000D01*
D28*
X100965000Y-80010000D02*
X98425000Y-77470000D01*
X100965000Y-80010000D02*
X100965000Y-78740000D01*
X99871000Y-77646000D02*
X99871000Y-77040000D01*
X100965000Y-78740000D02*
X99871000Y-77646000D01*
X99871000Y-77040000D02*
X98855000Y-77040000D01*
X100965000Y-77040000D02*
X99871000Y-77040000D01*
X98630000Y-97360000D02*
X98425000Y-97155000D01*
X98630000Y-97995000D02*
X98630000Y-97360000D01*
X100965000Y-100330000D02*
X98630000Y-97995000D01*
X100965000Y-100330000D02*
X100965000Y-99060000D01*
X99871000Y-97966000D02*
X99871000Y-97360000D01*
X100965000Y-99060000D02*
X99871000Y-97966000D01*
X99871000Y-97360000D02*
X98630000Y-97360000D01*
X100965000Y-97360000D02*
X99871000Y-97360000D01*
X116205000Y-59690000D02*
X114300000Y-59690000D01*
X114300000Y-59690000D02*
X113235000Y-59690000D01*
D24*
X98425000Y-121920000D02*
X98425000Y-127000000D01*
D22*
X99427500Y-121920000D02*
X98425000Y-121920000D01*
D24*
X98425000Y-113665000D02*
X98425000Y-121920000D01*
D22*
X182508000Y-62524000D02*
X181951000Y-62524000D01*
D28*
X181913000Y-63119000D02*
X181356000Y-63119000D01*
X185215000Y-59817000D02*
X181913000Y-63119000D01*
X185215000Y-59817000D02*
X184150000Y-59817000D01*
X184150000Y-59817000D02*
X181951000Y-59817000D01*
X184150000Y-59817000D02*
X183261000Y-60706000D01*
X183261000Y-60706000D02*
X181951000Y-62016000D01*
D27*
X181951000Y-62016000D02*
X181951000Y-59817000D01*
X181951000Y-62524000D02*
X181951000Y-62016000D01*
D28*
X102919000Y-77040000D02*
X100965000Y-78994000D01*
X100965000Y-78994000D02*
X100965000Y-80010000D01*
D22*
%TO.N,~IOR*%
X162179000Y-80518000D02*
X165100000Y-77597000D01*
X162179000Y-83820000D02*
X162179000Y-80518000D01*
X162179000Y-112522000D02*
X162179000Y-83820000D01*
X143891000Y-117348000D02*
X143891000Y-132588000D01*
X144145000Y-117094000D02*
X143891000Y-117348000D01*
%TO.N,~IOW*%
X163195000Y-82042000D02*
X165100000Y-80137000D01*
X163195000Y-112014000D02*
X163195000Y-82042000D01*
X163703000Y-112522000D02*
X163195000Y-112014000D01*
X145161000Y-119458990D02*
X145161000Y-132588000D01*
X145161000Y-118110000D02*
X145161000Y-119458990D01*
%TO.N,~MEMR*%
X147701000Y-132588000D02*
X147701000Y-109982000D01*
X147701000Y-109982000D02*
X143891000Y-106172000D01*
X135195001Y-85665001D02*
X131191000Y-81661000D01*
X143891000Y-106172000D02*
X143891000Y-98012250D01*
X143891000Y-98012250D02*
X135195001Y-89316251D01*
X135195001Y-89316251D02*
X135195001Y-85665001D01*
X131191000Y-81661000D02*
X131191000Y-79248000D01*
X130175000Y-64573697D02*
X132715012Y-62033685D01*
X131191000Y-79248000D02*
X130175000Y-78232000D01*
X130175000Y-78232000D02*
X130175000Y-64573697D01*
X132715012Y-62033685D02*
X132715012Y-61468000D01*
%TO.N,~MEMW*%
X148971000Y-132334000D02*
X149225000Y-132588000D01*
X148971000Y-109474000D02*
X148971000Y-132334000D01*
X145161000Y-105664000D02*
X148971000Y-109474000D01*
%TO.N,RESET*%
X122555000Y-98806000D02*
X121285000Y-97536000D01*
X122555000Y-101600000D02*
X122555000Y-98806000D01*
X121031000Y-111372599D02*
X121031000Y-103124000D01*
X117475000Y-114928599D02*
X121031000Y-111372599D01*
X121285000Y-97536000D02*
X121285000Y-87630000D01*
X117475000Y-117602000D02*
X117475000Y-114928599D01*
X121031000Y-103124000D02*
X122555000Y-101600000D01*
X121793000Y-121920000D02*
X117475000Y-117602000D01*
X172212000Y-128905000D02*
X164465000Y-121158000D01*
X172720000Y-128905000D02*
X172212000Y-128905000D01*
%TO.N,~CS1~_ATA*%
X164973000Y-62357000D02*
X165100000Y-62357000D01*
X163195000Y-64135000D02*
X164973000Y-62357000D01*
X163195000Y-76835000D02*
X163195000Y-64135000D01*
%TO.N,D0_BUF*%
X139065000Y-80010000D02*
X139065000Y-84836000D01*
%TO.N,D1_BUF*%
X141605000Y-85653804D02*
X141605000Y-85725000D01*
X141605000Y-80010000D02*
X141605000Y-85653804D01*
%TO.N,D2_BUF*%
X142875000Y-81280000D02*
X144145000Y-80010000D01*
X142875000Y-89154000D02*
X142875000Y-81280000D01*
X147193000Y-93472000D02*
X142875000Y-89154000D01*
%TO.N,D3_BUF*%
X145415000Y-81280000D02*
X146685000Y-80010000D01*
X145415000Y-88646000D02*
X145415000Y-81280000D01*
X149987000Y-93218000D02*
X145415000Y-88646000D01*
X149987000Y-95504000D02*
X149987000Y-93218000D01*
%TO.N,D4_BUF*%
X148014999Y-81220001D02*
X149225000Y-80010000D01*
X148014999Y-88705999D02*
X148014999Y-81220001D01*
X152018994Y-92709994D02*
X148014999Y-88705999D01*
X152018994Y-98806000D02*
X152018994Y-92709994D01*
%TO.N,D5_BUF*%
X150495000Y-81280000D02*
X151765000Y-80010000D01*
X150495000Y-88646000D02*
X150495000Y-81280000D01*
X154051000Y-92202000D02*
X150495000Y-88646000D01*
X154051000Y-100076000D02*
X154051000Y-92202000D01*
%TO.N,D6_BUF*%
X153035000Y-81280000D02*
X154305000Y-80010000D01*
X153035000Y-88646000D02*
X153035000Y-81280000D01*
X156083000Y-91694000D02*
X153035000Y-88646000D01*
X156083000Y-101346000D02*
X156083000Y-91694000D01*
%TO.N,D7_BUF*%
X158115000Y-91186000D02*
X158115000Y-102870000D01*
X155515001Y-88586001D02*
X158115000Y-91186000D01*
X155515001Y-81339999D02*
X155515001Y-88586001D01*
X156845000Y-80010000D02*
X155515001Y-81339999D01*
%TO.N,~RESET*%
X166370000Y-106807000D02*
X166370000Y-81407006D01*
X165100000Y-108077000D02*
X166370000Y-106807000D01*
%TO.N,ROM_ADDR_JUMPER*%
X100494999Y-47789999D02*
X99695000Y-46990000D01*
X105791000Y-53086000D02*
X100494999Y-47789999D01*
X105791000Y-67756500D02*
X105791000Y-53086000D01*
X103697500Y-69850000D02*
X105791000Y-67756500D01*
X105410000Y-71562500D02*
X103697500Y-69850000D01*
X106045000Y-72197500D02*
X105410000Y-71562500D01*
X106045000Y-80010000D02*
X106045000Y-72197500D01*
%TO.N,ATA_ADDR_JUMPER*%
X100494999Y-50329999D02*
X99695000Y-49530000D01*
X104775000Y-54610000D02*
X100494999Y-50329999D01*
X104775000Y-65597500D02*
X104775000Y-54610000D01*
X103697500Y-66675000D02*
X104775000Y-65597500D01*
X102724990Y-70974990D02*
X102724990Y-67647510D01*
X105029000Y-73279000D02*
X102724990Y-70974990D01*
X102724990Y-67647510D02*
X103697500Y-66675000D01*
X105029000Y-78486000D02*
X105029000Y-73279000D01*
X103505000Y-80010000D02*
X105029000Y-78486000D01*
X104775000Y-111125000D02*
X106045000Y-112395000D01*
X104775000Y-81280000D02*
X104775000Y-111125000D01*
X106045000Y-112395000D02*
X106045000Y-115570000D01*
X103505000Y-80010000D02*
X104775000Y-81280000D01*
%TO.N,A14*%
X134620000Y-133985000D02*
X134620000Y-138430000D01*
X132715000Y-132080000D02*
X134620000Y-133985000D01*
X132715000Y-122226010D02*
X132715000Y-132080000D01*
X127635000Y-117146010D02*
X132715000Y-122226010D01*
X127635000Y-105156000D02*
X127635000Y-117146010D01*
X128143000Y-104648000D02*
X127635000Y-105156000D01*
%TO.N,/XTAL2*%
X118745000Y-70612000D02*
X118745000Y-67310000D01*
X116967000Y-72390000D02*
X118745000Y-70612000D01*
X116205000Y-72390000D02*
X116967000Y-72390000D01*
%TO.N,/XTAL1*%
X116205000Y-70490000D02*
X116205000Y-67310000D01*
%TO.N,~CE~_BIOS_DECODE*%
X126365000Y-57150000D02*
X128905000Y-59690000D01*
X126365000Y-54610000D02*
X126365000Y-57150000D01*
X107315000Y-54610000D02*
X107315000Y-60705994D01*
X107315000Y-60705994D02*
X110363000Y-63753994D01*
X116205000Y-80010000D02*
X110363000Y-74168000D01*
X110363000Y-74168000D02*
X110363000Y-63753994D01*
%TO.N,~CE~_BIOS_THRU*%
X131445000Y-59690000D02*
X131445000Y-57404000D01*
X131445000Y-57404000D02*
X134239000Y-54610000D01*
X127635000Y-72390000D02*
X128143000Y-72898000D01*
X128143000Y-94107000D02*
X126365000Y-95885000D01*
X127635000Y-63269186D02*
X127635000Y-72390000D01*
X131214186Y-59690000D02*
X127635000Y-63269186D01*
X128143000Y-72898000D02*
X128143000Y-94107000D01*
X131445000Y-59690000D02*
X131214186Y-59690000D01*
X126365000Y-95885000D02*
X126365000Y-100330000D01*
%TO.N,V20_JUMPER*%
X103505000Y-55880000D02*
X99695000Y-52070000D01*
X103697500Y-56072500D02*
X103505000Y-55880000D01*
X103697500Y-63500000D02*
X103697500Y-56072500D01*
X104013000Y-73533000D02*
X102013750Y-71533750D01*
X102013750Y-71533750D02*
X102013750Y-65183750D01*
X104013000Y-77597000D02*
X104013000Y-73533000D01*
X102235000Y-79375000D02*
X104013000Y-77597000D01*
X102235000Y-88455500D02*
X102235000Y-79375000D01*
X103505000Y-98425000D02*
X103505000Y-89725500D01*
X102235000Y-99695000D02*
X103505000Y-98425000D01*
X102235000Y-101600000D02*
X102235000Y-99695000D01*
X102013750Y-65183750D02*
X103697500Y-63500000D01*
X103505000Y-102870000D02*
X102235000Y-101600000D01*
X103505000Y-89725500D02*
X102235000Y-88455500D01*
X103505000Y-115570000D02*
X103505000Y-102870000D01*
%TO.N,AEN*%
X149860000Y-133985000D02*
X149860000Y-138430000D01*
X150241000Y-133604000D02*
X149860000Y-133985000D01*
X150241000Y-123190000D02*
X150241000Y-133604000D01*
X151003000Y-108204000D02*
X151003000Y-120904000D01*
X136525000Y-83820000D02*
X137854999Y-85149999D01*
X137854999Y-88959999D02*
X145923000Y-97028000D01*
X137854999Y-85149999D02*
X137854999Y-88959999D01*
X145923000Y-97028000D02*
X145923000Y-103124000D01*
X145923000Y-103124000D02*
X151003000Y-108204000D01*
X151003000Y-120904000D02*
X153289000Y-123190000D01*
%TD*%
D29*
%TO.N,GND*%
X108801323Y-120146883D02*
X109010974Y-120233723D01*
X109220857Y-120275472D01*
X109607000Y-120661615D01*
X109606999Y-132322380D01*
X108613518Y-133315862D01*
X108579105Y-133344104D01*
X108466387Y-133481451D01*
X108400883Y-133604001D01*
X108382630Y-133638150D01*
X108331052Y-133808178D01*
X108326145Y-133858000D01*
X108082621Y-133858000D01*
X108429483Y-133511138D01*
X108463896Y-133482896D01*
X108509624Y-133427177D01*
X108554822Y-133372102D01*
X108576614Y-133345549D01*
X108660371Y-133188850D01*
X108711948Y-133018823D01*
X108725000Y-132886307D01*
X108725000Y-132886300D01*
X108729363Y-132842001D01*
X108725000Y-132797701D01*
X108725000Y-120095886D01*
X108801323Y-120146883D01*
%TA.AperFunction,Conductor*%
D30*
G36*
X108801323Y-120146883D02*
G01*
X109010974Y-120233723D01*
X109220857Y-120275472D01*
X109607000Y-120661615D01*
X109606999Y-132322380D01*
X108613518Y-133315862D01*
X108579105Y-133344104D01*
X108466387Y-133481451D01*
X108400883Y-133604001D01*
X108382630Y-133638150D01*
X108331052Y-133808178D01*
X108326145Y-133858000D01*
X108082621Y-133858000D01*
X108429483Y-133511138D01*
X108463896Y-133482896D01*
X108509624Y-133427177D01*
X108554822Y-133372102D01*
X108576614Y-133345549D01*
X108660371Y-133188850D01*
X108711948Y-133018823D01*
X108725000Y-132886307D01*
X108725000Y-132886300D01*
X108729363Y-132842001D01*
X108725000Y-132797701D01*
X108725000Y-120095886D01*
X108801323Y-120146883D01*
G37*
%TD.AperFunction*%
D29*
X154038000Y-126738621D02*
X154038001Y-133858000D01*
X151106537Y-133858000D01*
X151129948Y-133780823D01*
X151143000Y-133648307D01*
X151143000Y-133648300D01*
X151147363Y-133604001D01*
X151143000Y-133559701D01*
X151143000Y-123913607D01*
X151171033Y-123871653D01*
X154038000Y-126738621D01*
%TA.AperFunction,Conductor*%
D30*
G36*
X154038000Y-126738621D02*
G01*
X154038001Y-133858000D01*
X151106537Y-133858000D01*
X151129948Y-133780823D01*
X151143000Y-133648307D01*
X151143000Y-133648300D01*
X151147363Y-133604001D01*
X151143000Y-133559701D01*
X151143000Y-123913607D01*
X151171033Y-123871653D01*
X154038000Y-126738621D01*
G37*
%TD.AperFunction*%
D29*
X169278000Y-130040621D02*
X169278000Y-133858000D01*
X168533855Y-133858000D01*
X168528948Y-133808177D01*
X168477371Y-133638150D01*
X168393614Y-133481451D01*
X168280896Y-133344104D01*
X168246483Y-133315862D01*
X167399000Y-132468380D01*
X167399000Y-129584299D01*
X167403363Y-129539999D01*
X167399000Y-129495700D01*
X167399000Y-129495693D01*
X167385948Y-129363177D01*
X167334371Y-129193150D01*
X167250614Y-129036451D01*
X167137896Y-128899104D01*
X167103484Y-128870863D01*
X156985000Y-118752380D01*
X156985000Y-117747620D01*
X169278000Y-130040621D01*
%TA.AperFunction,Conductor*%
D30*
G36*
X169278000Y-130040621D02*
G01*
X169278000Y-133858000D01*
X168533855Y-133858000D01*
X168528948Y-133808177D01*
X168477371Y-133638150D01*
X168393614Y-133481451D01*
X168280896Y-133344104D01*
X168246483Y-133315862D01*
X167399000Y-132468380D01*
X167399000Y-129584299D01*
X167403363Y-129539999D01*
X167399000Y-129495700D01*
X167399000Y-129495693D01*
X167385948Y-129363177D01*
X167334371Y-129193150D01*
X167250614Y-129036451D01*
X167137896Y-128899104D01*
X167103484Y-128870863D01*
X156985000Y-118752380D01*
X156985000Y-117747620D01*
X169278000Y-130040621D01*
G37*
%TD.AperFunction*%
D29*
X195421033Y-43081044D02*
X195512449Y-43108645D01*
X195596759Y-43153473D01*
X195670759Y-43213826D01*
X195731627Y-43287402D01*
X195777043Y-43371398D01*
X195805281Y-43462618D01*
X195819000Y-43593152D01*
X195819000Y-48749676D01*
X195649428Y-48624177D01*
X193092605Y-51181000D01*
X195649428Y-53737823D01*
X195819000Y-53612324D01*
X195819001Y-114281676D01*
X195649428Y-114156177D01*
X193092605Y-116713000D01*
X195649428Y-119269823D01*
X195819001Y-119144324D01*
X195819001Y-130808000D01*
X189780857Y-130808000D01*
X189780857Y-133843000D01*
X177711166Y-133843000D01*
X177673000Y-133839241D01*
X177634834Y-133843000D01*
X177520681Y-133854243D01*
X177508296Y-133858000D01*
X173622000Y-133858000D01*
X173622000Y-130981299D01*
X173626363Y-130936999D01*
X173622000Y-130892700D01*
X173622000Y-130892693D01*
X173608948Y-130760177D01*
X173557371Y-130590150D01*
X173473614Y-130433451D01*
X173360896Y-130296104D01*
X173326484Y-130267863D01*
X173066862Y-130008241D01*
X173265677Y-129925889D01*
X173454357Y-129799817D01*
X173614817Y-129639357D01*
X173740889Y-129450677D01*
X173827729Y-129241026D01*
X173872000Y-129018462D01*
X173872000Y-128791538D01*
X173827729Y-128568974D01*
X173740889Y-128359323D01*
X173614817Y-128170643D01*
X173454357Y-128010183D01*
X173265677Y-127884111D01*
X173056026Y-127797271D01*
X172833462Y-127753000D01*
X172606538Y-127753000D01*
X172383974Y-127797271D01*
X172381087Y-127798467D01*
X165614478Y-121031858D01*
X165572729Y-120821974D01*
X165485889Y-120612323D01*
X165396662Y-120478786D01*
X165582650Y-120536575D01*
X166343721Y-120616710D01*
X167105803Y-120546828D01*
X167839608Y-120329614D01*
X168516936Y-119973416D01*
X168560635Y-119944216D01*
X168926823Y-119449428D01*
X166370000Y-116892605D01*
X163813177Y-119449428D01*
X164179365Y-119944216D01*
X164308768Y-120014507D01*
X164128974Y-120050271D01*
X163919323Y-120137111D01*
X163730643Y-120263183D01*
X163570183Y-120423643D01*
X163534967Y-120476347D01*
X159745341Y-116686721D01*
X162466290Y-116686721D01*
X162536172Y-117448803D01*
X162753386Y-118182608D01*
X163109584Y-118859936D01*
X163138784Y-118903635D01*
X163633572Y-119269823D01*
X166190395Y-116713000D01*
X166549605Y-116713000D01*
X169106428Y-119269823D01*
X169601216Y-118903635D01*
X169966501Y-118231163D01*
X170193575Y-117500350D01*
X170273710Y-116739279D01*
X170203828Y-115977197D01*
X169986614Y-115243392D01*
X169630416Y-114566064D01*
X169601216Y-114522365D01*
X169106428Y-114156177D01*
X166549605Y-116713000D01*
X166190395Y-116713000D01*
X163633572Y-114156177D01*
X163138784Y-114522365D01*
X162773499Y-115194837D01*
X162546425Y-115925650D01*
X162466290Y-116686721D01*
X159745341Y-116686721D01*
X159017000Y-115958380D01*
X159017000Y-104692299D01*
X159021363Y-104647999D01*
X159017000Y-104603700D01*
X159017000Y-104603693D01*
X159003948Y-104471177D01*
X158952371Y-104301150D01*
X158868614Y-104144451D01*
X158755896Y-104007104D01*
X158721478Y-103978858D01*
X158641466Y-103898846D01*
X158660677Y-103890889D01*
X158849357Y-103764817D01*
X159009817Y-103604357D01*
X159135889Y-103415677D01*
X159222729Y-103206026D01*
X159267000Y-102983462D01*
X159267000Y-102756538D01*
X159222729Y-102533974D01*
X159135889Y-102324323D01*
X159017000Y-102146393D01*
X159017000Y-91230299D01*
X159021363Y-91186000D01*
X159017000Y-91141700D01*
X159017000Y-91141693D01*
X159003948Y-91009177D01*
X158952371Y-90839150D01*
X158868614Y-90682451D01*
X158784140Y-90579519D01*
X158784138Y-90579517D01*
X158755896Y-90545104D01*
X158721484Y-90516863D01*
X157218964Y-89014344D01*
X157328087Y-88981246D01*
X157582420Y-88861037D01*
X157808414Y-88693519D01*
X157997385Y-88485131D01*
X158142070Y-88243881D01*
X158236909Y-87979040D01*
X158115624Y-87757000D01*
X156972000Y-87757000D01*
X156972000Y-87777000D01*
X156718000Y-87777000D01*
X156718000Y-87757000D01*
X156698000Y-87757000D01*
X156698000Y-87503000D01*
X156718000Y-87503000D01*
X156718000Y-86360085D01*
X156972000Y-86360085D01*
X156972000Y-87503000D01*
X158115624Y-87503000D01*
X158236909Y-87280960D01*
X158142070Y-87016119D01*
X157997385Y-86774869D01*
X157808414Y-86566481D01*
X157582420Y-86398963D01*
X157328087Y-86278754D01*
X157194039Y-86238096D01*
X156972000Y-86360085D01*
X156718000Y-86360085D01*
X156495961Y-86238096D01*
X156417001Y-86262045D01*
X156417001Y-83706538D01*
X161027000Y-83706538D01*
X161027000Y-83933462D01*
X161071271Y-84156026D01*
X161158111Y-84365677D01*
X161277001Y-84543608D01*
X161277000Y-111798393D01*
X161158111Y-111976323D01*
X161071271Y-112185974D01*
X161027000Y-112408538D01*
X161027000Y-112635462D01*
X161071271Y-112858026D01*
X161158111Y-113067677D01*
X161284183Y-113256357D01*
X161444643Y-113416817D01*
X161633323Y-113542889D01*
X161842974Y-113629729D01*
X162065538Y-113674000D01*
X162292462Y-113674000D01*
X162515026Y-113629729D01*
X162724677Y-113542889D01*
X162913357Y-113416817D01*
X162941000Y-113389174D01*
X162968643Y-113416817D01*
X163157323Y-113542889D01*
X163366974Y-113629729D01*
X163589538Y-113674000D01*
X163816462Y-113674000D01*
X164039026Y-113629729D01*
X164083509Y-113611304D01*
X163813177Y-113976572D01*
X166370000Y-116533395D01*
X168926823Y-113976572D01*
X168560635Y-113481784D01*
X167888163Y-113116499D01*
X167157350Y-112889425D01*
X166396279Y-112809290D01*
X165634197Y-112879172D01*
X164900392Y-113096386D01*
X164598693Y-113255045D01*
X164723889Y-113067677D01*
X164810729Y-112858026D01*
X164855000Y-112635462D01*
X164855000Y-112408538D01*
X164810729Y-112185974D01*
X164723889Y-111976323D01*
X164597817Y-111787643D01*
X164437357Y-111627183D01*
X164248677Y-111501111D01*
X164097000Y-111438285D01*
X164097000Y-109666426D01*
X164102582Y-109668119D01*
X164250000Y-109682638D01*
X165950000Y-109682638D01*
X166097418Y-109668119D01*
X166239170Y-109625118D01*
X166369810Y-109555290D01*
X166484317Y-109461317D01*
X166578290Y-109346810D01*
X166648118Y-109216170D01*
X166658509Y-109181917D01*
X166758645Y-109272178D01*
X167008748Y-109421157D01*
X167283109Y-109518481D01*
X167513000Y-109397814D01*
X167513000Y-108204000D01*
X167767000Y-108204000D01*
X167767000Y-109397814D01*
X167996891Y-109518481D01*
X168271252Y-109421157D01*
X168521355Y-109272178D01*
X168737588Y-109077269D01*
X168911641Y-108843920D01*
X169036825Y-108581099D01*
X169081476Y-108433890D01*
X168960155Y-108204000D01*
X167767000Y-108204000D01*
X167513000Y-108204000D01*
X167493000Y-108204000D01*
X167493000Y-107950000D01*
X167513000Y-107950000D01*
X167513000Y-107930000D01*
X167767000Y-107930000D01*
X167767000Y-107950000D01*
X168960155Y-107950000D01*
X169081476Y-107720110D01*
X169036825Y-107572901D01*
X168911641Y-107310080D01*
X168737588Y-107076731D01*
X168521355Y-106881822D01*
X168515804Y-106878515D01*
X168661215Y-106781354D01*
X168884354Y-106558215D01*
X169059674Y-106295831D01*
X169180436Y-106004286D01*
X169242000Y-105694783D01*
X169242000Y-105379217D01*
X169180436Y-105069714D01*
X169059674Y-104778169D01*
X168884354Y-104515785D01*
X168661215Y-104292646D01*
X168622833Y-104267000D01*
X168661215Y-104241354D01*
X168884354Y-104018215D01*
X169059674Y-103755831D01*
X169180436Y-103464286D01*
X169242000Y-103154783D01*
X169242000Y-102839217D01*
X169180436Y-102529714D01*
X169059674Y-102238169D01*
X168884354Y-101975785D01*
X168661215Y-101752646D01*
X168622833Y-101727000D01*
X168661215Y-101701354D01*
X168884354Y-101478215D01*
X169059674Y-101215831D01*
X169180436Y-100924286D01*
X169242000Y-100614783D01*
X169242000Y-100299217D01*
X169180436Y-99989714D01*
X169059674Y-99698169D01*
X168884354Y-99435785D01*
X168661215Y-99212646D01*
X168622833Y-99187000D01*
X168661215Y-99161354D01*
X168884354Y-98938215D01*
X169059674Y-98675831D01*
X169180436Y-98384286D01*
X169242000Y-98074783D01*
X169242000Y-97759217D01*
X169180436Y-97449714D01*
X169059674Y-97158169D01*
X168884354Y-96895785D01*
X168661215Y-96672646D01*
X168622833Y-96647000D01*
X168661215Y-96621354D01*
X168884354Y-96398215D01*
X169059674Y-96135831D01*
X169180436Y-95844286D01*
X169242000Y-95534783D01*
X169242000Y-95219217D01*
X169180436Y-94909714D01*
X169059674Y-94618169D01*
X168884354Y-94355785D01*
X168661215Y-94132646D01*
X168622833Y-94107000D01*
X168661215Y-94081354D01*
X168884354Y-93858215D01*
X169059674Y-93595831D01*
X169180436Y-93304286D01*
X169242000Y-92994783D01*
X169242000Y-92679217D01*
X169180436Y-92369714D01*
X169059674Y-92078169D01*
X168884354Y-91815785D01*
X168661215Y-91592646D01*
X168622833Y-91567000D01*
X168661215Y-91541354D01*
X168884354Y-91318215D01*
X169059674Y-91055831D01*
X169180436Y-90764286D01*
X169242000Y-90454783D01*
X169242000Y-90139217D01*
X169180436Y-89829714D01*
X169059674Y-89538169D01*
X168884354Y-89275785D01*
X168661215Y-89052646D01*
X168622833Y-89027000D01*
X168661215Y-89001354D01*
X168884354Y-88778215D01*
X169059674Y-88515831D01*
X169180436Y-88224286D01*
X169242000Y-87914783D01*
X169242000Y-87599217D01*
X169180436Y-87289714D01*
X169059674Y-86998169D01*
X168884354Y-86735785D01*
X168661215Y-86512646D01*
X168622833Y-86487000D01*
X168661215Y-86461354D01*
X168884354Y-86238215D01*
X169059674Y-85975831D01*
X169180436Y-85684286D01*
X169242000Y-85374783D01*
X169242000Y-85059217D01*
X169180436Y-84749714D01*
X169059674Y-84458169D01*
X168884354Y-84195785D01*
X168661215Y-83972646D01*
X168515804Y-83875485D01*
X168521355Y-83872178D01*
X168737588Y-83677269D01*
X168911641Y-83443920D01*
X169036825Y-83181099D01*
X169081476Y-83033890D01*
X168960155Y-82804000D01*
X167767000Y-82804000D01*
X167767000Y-82824000D01*
X167513000Y-82824000D01*
X167513000Y-82804000D01*
X167493000Y-82804000D01*
X167493000Y-82550000D01*
X167513000Y-82550000D01*
X167513000Y-81565714D01*
X167522000Y-81520468D01*
X167522000Y-81293544D01*
X167513000Y-81248298D01*
X167513000Y-80264000D01*
X167767000Y-80264000D01*
X167767000Y-82550000D01*
X168960155Y-82550000D01*
X169081476Y-82320110D01*
X169036825Y-82172901D01*
X168911641Y-81910080D01*
X168737588Y-81676731D01*
X168521355Y-81481822D01*
X168395745Y-81407000D01*
X168521355Y-81332178D01*
X168737588Y-81137269D01*
X168911641Y-80903920D01*
X169036825Y-80641099D01*
X169081476Y-80493890D01*
X168960155Y-80264000D01*
X167767000Y-80264000D01*
X167513000Y-80264000D01*
X167493000Y-80264000D01*
X167493000Y-80010000D01*
X167513000Y-80010000D01*
X167513000Y-77724000D01*
X167767000Y-77724000D01*
X167767000Y-80010000D01*
X168960155Y-80010000D01*
X169081476Y-79780110D01*
X169036825Y-79632901D01*
X168911641Y-79370080D01*
X168737588Y-79136731D01*
X168521355Y-78941822D01*
X168395745Y-78867000D01*
X168521355Y-78792178D01*
X168737588Y-78597269D01*
X168911641Y-78363920D01*
X169036825Y-78101099D01*
X169081476Y-77953890D01*
X168960155Y-77724000D01*
X167767000Y-77724000D01*
X167513000Y-77724000D01*
X167493000Y-77724000D01*
X167493000Y-77470000D01*
X167513000Y-77470000D01*
X167513000Y-77450000D01*
X167767000Y-77450000D01*
X167767000Y-77470000D01*
X168960155Y-77470000D01*
X169081476Y-77240110D01*
X169036825Y-77092901D01*
X168911641Y-76830080D01*
X168737588Y-76596731D01*
X168521355Y-76401822D01*
X168515804Y-76398515D01*
X168661215Y-76301354D01*
X168884354Y-76078215D01*
X169059674Y-75815831D01*
X169180436Y-75524286D01*
X169242000Y-75214783D01*
X169242000Y-74899217D01*
X169180436Y-74589714D01*
X169059674Y-74298169D01*
X168884354Y-74035785D01*
X168661215Y-73812646D01*
X168515804Y-73715485D01*
X168521355Y-73712178D01*
X168737588Y-73517269D01*
X168911641Y-73283920D01*
X169036825Y-73021099D01*
X169081476Y-72873890D01*
X168960155Y-72644000D01*
X167767000Y-72644000D01*
X167767000Y-72664000D01*
X167513000Y-72664000D01*
X167513000Y-72644000D01*
X167493000Y-72644000D01*
X167493000Y-72390000D01*
X167513000Y-72390000D01*
X167513000Y-72370000D01*
X167767000Y-72370000D01*
X167767000Y-72390000D01*
X168960155Y-72390000D01*
X169081476Y-72160110D01*
X169036825Y-72012901D01*
X168911641Y-71750080D01*
X168737588Y-71516731D01*
X168521355Y-71321822D01*
X168515804Y-71318515D01*
X168661215Y-71221354D01*
X168884354Y-70998215D01*
X169059674Y-70735831D01*
X169180436Y-70444286D01*
X169242000Y-70134783D01*
X169242000Y-69819217D01*
X169180436Y-69509714D01*
X169059674Y-69218169D01*
X168884354Y-68955785D01*
X168661215Y-68732646D01*
X168622833Y-68707000D01*
X168661215Y-68681354D01*
X168884354Y-68458215D01*
X169059674Y-68195831D01*
X169180436Y-67904286D01*
X169242000Y-67594783D01*
X169242000Y-67279217D01*
X169180436Y-66969714D01*
X169059674Y-66678169D01*
X168884354Y-66415785D01*
X168661215Y-66192646D01*
X168622833Y-66167000D01*
X168661215Y-66141354D01*
X168884354Y-65918215D01*
X169059674Y-65655831D01*
X169180436Y-65364286D01*
X169242000Y-65054783D01*
X169242000Y-64739217D01*
X169180436Y-64429714D01*
X169059674Y-64138169D01*
X168884354Y-63875785D01*
X168661215Y-63652646D01*
X168622833Y-63627000D01*
X168661215Y-63601354D01*
X168884354Y-63378215D01*
X168964011Y-63259000D01*
X169298380Y-63259000D01*
X174018339Y-67978959D01*
X172812003Y-69185295D01*
X172745156Y-69240155D01*
X172690296Y-69307002D01*
X172690289Y-69307009D01*
X172526217Y-69506932D01*
X172363532Y-69811295D01*
X172263350Y-70141549D01*
X172229524Y-70485000D01*
X172238001Y-70571071D01*
X172238000Y-117384298D01*
X170907008Y-118715290D01*
X170840155Y-118770155D01*
X170621217Y-119036931D01*
X170458531Y-119341295D01*
X170358350Y-119671548D01*
X170324523Y-120015000D01*
X170358350Y-120358452D01*
X170458531Y-120688705D01*
X170621217Y-120993069D01*
X170840155Y-121259845D01*
X171106931Y-121478783D01*
X171411295Y-121641469D01*
X171741548Y-121741650D01*
X171998931Y-121767000D01*
X171998939Y-121767000D01*
X172085000Y-121775476D01*
X172171061Y-121767000D01*
X173903931Y-121767000D01*
X173990000Y-121775477D01*
X174076068Y-121767000D01*
X174076069Y-121767000D01*
X174333452Y-121741650D01*
X174663705Y-121641469D01*
X174968069Y-121478783D01*
X175234845Y-121259845D01*
X175453783Y-120993069D01*
X175616469Y-120688705D01*
X175716650Y-120358452D01*
X175733061Y-120191828D01*
X175742000Y-120101069D01*
X175742000Y-120101068D01*
X175750477Y-120015000D01*
X175742000Y-119928931D01*
X175742000Y-119449428D01*
X190356177Y-119449428D01*
X190722365Y-119944216D01*
X191394837Y-120309501D01*
X192125650Y-120536575D01*
X192886721Y-120616710D01*
X193648803Y-120546828D01*
X194382608Y-120329614D01*
X195059936Y-119973416D01*
X195103635Y-119944216D01*
X195469823Y-119449428D01*
X192913000Y-116892605D01*
X190356177Y-119449428D01*
X175742000Y-119449428D01*
X175742000Y-118196061D01*
X175750476Y-118110000D01*
X175742000Y-118023939D01*
X175742000Y-116686721D01*
X189009290Y-116686721D01*
X189079172Y-117448803D01*
X189296386Y-118182608D01*
X189652584Y-118859936D01*
X189681784Y-118903635D01*
X190176572Y-119269823D01*
X192733395Y-116713000D01*
X190176572Y-114156177D01*
X189681784Y-114522365D01*
X189316499Y-115194837D01*
X189089425Y-115925650D01*
X189009290Y-116686721D01*
X175742000Y-116686721D01*
X175742000Y-113976572D01*
X190356177Y-113976572D01*
X192913000Y-116533395D01*
X195469823Y-113976572D01*
X195103635Y-113481784D01*
X194431163Y-113116499D01*
X193700350Y-112889425D01*
X192939279Y-112809290D01*
X192177197Y-112879172D01*
X191443392Y-113096386D01*
X190766064Y-113452584D01*
X190722365Y-113481784D01*
X190356177Y-113976572D01*
X175742000Y-113976572D01*
X175742000Y-71210702D01*
X183250710Y-63701992D01*
X183414782Y-63502069D01*
X183424187Y-63484473D01*
X185436023Y-61472638D01*
X185540001Y-61472638D01*
X185736191Y-61453315D01*
X185924842Y-61396088D01*
X186098703Y-61303158D01*
X186251094Y-61178094D01*
X186376158Y-61025703D01*
X186469088Y-60851842D01*
X186526315Y-60663191D01*
X186545638Y-60467001D01*
X186545638Y-59845246D01*
X186548420Y-59817000D01*
X186545638Y-59788754D01*
X186545638Y-59166999D01*
X186526315Y-58970809D01*
X186469088Y-58782158D01*
X186376158Y-58608297D01*
X186251094Y-58455906D01*
X186098703Y-58330842D01*
X185924842Y-58237912D01*
X185736191Y-58180685D01*
X185540001Y-58161362D01*
X184889999Y-58161362D01*
X184693809Y-58180685D01*
X184505158Y-58237912D01*
X184331297Y-58330842D01*
X184178906Y-58455906D01*
X184155731Y-58484145D01*
X184150000Y-58483581D01*
X184084826Y-58490000D01*
X183382356Y-58490000D01*
X183335317Y-58432683D01*
X183220810Y-58338710D01*
X183090170Y-58268882D01*
X182948418Y-58225881D01*
X182801000Y-58211362D01*
X181992760Y-58211362D01*
X181951000Y-58207249D01*
X181909240Y-58211362D01*
X181101000Y-58211362D01*
X180953582Y-58225881D01*
X180811830Y-58268882D01*
X180681190Y-58338710D01*
X180566683Y-58432683D01*
X180472710Y-58547190D01*
X180402882Y-58677830D01*
X180394143Y-58706638D01*
X180177920Y-58545359D01*
X179915099Y-58420175D01*
X179767890Y-58375524D01*
X179538000Y-58496845D01*
X179538000Y-59304540D01*
X179520667Y-59302833D01*
X179284000Y-59302833D01*
X179284000Y-58496845D01*
X179054110Y-58375524D01*
X178906901Y-58420175D01*
X178644080Y-58545359D01*
X178410731Y-58719412D01*
X178215822Y-58935645D01*
X178066843Y-59185748D01*
X177969519Y-59460109D01*
X178090186Y-59690000D01*
X178123667Y-59690000D01*
X178123667Y-59937833D01*
X178124274Y-59944000D01*
X178090186Y-59944000D01*
X177969519Y-60173891D01*
X178066843Y-60448252D01*
X178215822Y-60698355D01*
X178410731Y-60914588D01*
X178644080Y-61088641D01*
X178906901Y-61213825D01*
X179054110Y-61258476D01*
X179284000Y-61137155D01*
X179284000Y-60318833D01*
X179520667Y-60318833D01*
X179538000Y-60317126D01*
X179538000Y-61137155D01*
X179767890Y-61258476D01*
X179915099Y-61213825D01*
X180177920Y-61088641D01*
X180349000Y-60961034D01*
X180349000Y-61648298D01*
X175293959Y-66703339D01*
X170341143Y-61750523D01*
X170312896Y-61716104D01*
X170175549Y-61603386D01*
X170018850Y-61519629D01*
X169848823Y-61468052D01*
X169716307Y-61455000D01*
X169716299Y-61455000D01*
X169672000Y-61450637D01*
X169627701Y-61455000D01*
X168964011Y-61455000D01*
X168884354Y-61335785D01*
X168661215Y-61112646D01*
X168515804Y-61015485D01*
X168521355Y-61012178D01*
X168737588Y-60817269D01*
X168911641Y-60583920D01*
X169036825Y-60321099D01*
X169081476Y-60173890D01*
X168960155Y-59944000D01*
X167767000Y-59944000D01*
X167767000Y-59964000D01*
X167513000Y-59964000D01*
X167513000Y-59944000D01*
X167493000Y-59944000D01*
X167493000Y-59690000D01*
X167513000Y-59690000D01*
X167513000Y-58496186D01*
X167767000Y-58496186D01*
X167767000Y-59690000D01*
X168960155Y-59690000D01*
X169081476Y-59460110D01*
X169036825Y-59312901D01*
X168911641Y-59050080D01*
X168737588Y-58816731D01*
X168521355Y-58621822D01*
X168271252Y-58472843D01*
X167996891Y-58375519D01*
X167767000Y-58496186D01*
X167513000Y-58496186D01*
X167283109Y-58375519D01*
X167008748Y-58472843D01*
X166758645Y-58621822D01*
X166542412Y-58816731D01*
X166445323Y-58946896D01*
X166344354Y-58795785D01*
X166121215Y-58572646D01*
X165858831Y-58397326D01*
X165567286Y-58276564D01*
X165257783Y-58215000D01*
X164942217Y-58215000D01*
X164632714Y-58276564D01*
X164341169Y-58397326D01*
X164078785Y-58572646D01*
X163855646Y-58795785D01*
X163680326Y-59058169D01*
X163559564Y-59349714D01*
X163498000Y-59659217D01*
X163498000Y-59974783D01*
X163559564Y-60284286D01*
X163680326Y-60575831D01*
X163855646Y-60838215D01*
X164078785Y-61061354D01*
X164117167Y-61087000D01*
X164078785Y-61112646D01*
X163855646Y-61335785D01*
X163680326Y-61598169D01*
X163559564Y-61889714D01*
X163498000Y-62199217D01*
X163498000Y-62514783D01*
X163504901Y-62549478D01*
X162588518Y-63465862D01*
X162554105Y-63494104D01*
X162441387Y-63631451D01*
X162375887Y-63753994D01*
X162357630Y-63788150D01*
X162306052Y-63958178D01*
X162288637Y-64135000D01*
X162293001Y-64179310D01*
X162293000Y-76111393D01*
X162174111Y-76289323D01*
X162087271Y-76498974D01*
X162043000Y-76721538D01*
X162043000Y-76948462D01*
X162087271Y-77171026D01*
X162174111Y-77380677D01*
X162300183Y-77569357D01*
X162460643Y-77729817D01*
X162649323Y-77855889D01*
X162858974Y-77942729D01*
X163081538Y-77987000D01*
X163308462Y-77987000D01*
X163465645Y-77955734D01*
X161572518Y-79848862D01*
X161538105Y-79877104D01*
X161509863Y-79911517D01*
X161509860Y-79911520D01*
X161489056Y-79936870D01*
X161425387Y-80014451D01*
X161357821Y-80140859D01*
X161341630Y-80171150D01*
X161290052Y-80341178D01*
X161272637Y-80518000D01*
X161277001Y-80562309D01*
X161277000Y-83096393D01*
X161158111Y-83274323D01*
X161071271Y-83483974D01*
X161027000Y-83706538D01*
X156417001Y-83706538D01*
X156417001Y-81713619D01*
X156589114Y-81541506D01*
X156692141Y-81562000D01*
X156997859Y-81562000D01*
X157297702Y-81502357D01*
X157580147Y-81385364D01*
X157834342Y-81215517D01*
X158050517Y-80999342D01*
X158220364Y-80745147D01*
X158337357Y-80462702D01*
X158397000Y-80162859D01*
X158397000Y-79857141D01*
X158337357Y-79557298D01*
X158220364Y-79274853D01*
X158050517Y-79020658D01*
X157834342Y-78804483D01*
X157580147Y-78634636D01*
X157297702Y-78517643D01*
X156997859Y-78458000D01*
X156692141Y-78458000D01*
X156392298Y-78517643D01*
X156109853Y-78634636D01*
X155855658Y-78804483D01*
X155639483Y-79020658D01*
X155575000Y-79117164D01*
X155510517Y-79020658D01*
X155294342Y-78804483D01*
X155040147Y-78634636D01*
X154757702Y-78517643D01*
X154457859Y-78458000D01*
X154152141Y-78458000D01*
X153852298Y-78517643D01*
X153569853Y-78634636D01*
X153315658Y-78804483D01*
X153099483Y-79020658D01*
X153035000Y-79117164D01*
X152970517Y-79020658D01*
X152754342Y-78804483D01*
X152500147Y-78634636D01*
X152217702Y-78517643D01*
X151917859Y-78458000D01*
X151612141Y-78458000D01*
X151312298Y-78517643D01*
X151029853Y-78634636D01*
X150775658Y-78804483D01*
X150559483Y-79020658D01*
X150495000Y-79117164D01*
X150430517Y-79020658D01*
X150214342Y-78804483D01*
X149960147Y-78634636D01*
X149677702Y-78517643D01*
X149377859Y-78458000D01*
X149072141Y-78458000D01*
X148772298Y-78517643D01*
X148489853Y-78634636D01*
X148235658Y-78804483D01*
X148019483Y-79020658D01*
X147955000Y-79117164D01*
X147890517Y-79020658D01*
X147674342Y-78804483D01*
X147420147Y-78634636D01*
X147137702Y-78517643D01*
X146837859Y-78458000D01*
X146532141Y-78458000D01*
X146232298Y-78517643D01*
X145949853Y-78634636D01*
X145695658Y-78804483D01*
X145479483Y-79020658D01*
X145415000Y-79117164D01*
X145350517Y-79020658D01*
X145134342Y-78804483D01*
X144880147Y-78634636D01*
X144597702Y-78517643D01*
X144297859Y-78458000D01*
X143992141Y-78458000D01*
X143692298Y-78517643D01*
X143409853Y-78634636D01*
X143155658Y-78804483D01*
X142939483Y-79020658D01*
X142875000Y-79117164D01*
X142810517Y-79020658D01*
X142594342Y-78804483D01*
X142340147Y-78634636D01*
X142057702Y-78517643D01*
X141757859Y-78458000D01*
X141452141Y-78458000D01*
X141152298Y-78517643D01*
X140869853Y-78634636D01*
X140615658Y-78804483D01*
X140399483Y-79020658D01*
X140335000Y-79117164D01*
X140270517Y-79020658D01*
X140054342Y-78804483D01*
X139800147Y-78634636D01*
X139517702Y-78517643D01*
X139217859Y-78458000D01*
X138912141Y-78458000D01*
X138612298Y-78517643D01*
X138329853Y-78634636D01*
X138075658Y-78804483D01*
X137859483Y-79020658D01*
X137795000Y-79117164D01*
X137730517Y-79020658D01*
X137514342Y-78804483D01*
X137260147Y-78634636D01*
X136977702Y-78517643D01*
X136677859Y-78458000D01*
X136372141Y-78458000D01*
X136072298Y-78517643D01*
X135789853Y-78634636D01*
X135535658Y-78804483D01*
X135319483Y-79020658D01*
X135312000Y-79031857D01*
X135312000Y-78104074D01*
X135346094Y-78076094D01*
X135471158Y-77923703D01*
X135564088Y-77749842D01*
X135621315Y-77561191D01*
X135640638Y-77365001D01*
X135640638Y-76714999D01*
X135621315Y-76518809D01*
X135564088Y-76330158D01*
X135471158Y-76156297D01*
X135346094Y-76003906D01*
X135193703Y-75878842D01*
X135019842Y-75785912D01*
X134831191Y-75728685D01*
X134635001Y-75709362D01*
X134013246Y-75709362D01*
X133985000Y-75706580D01*
X133956754Y-75709362D01*
X133334999Y-75709362D01*
X133138809Y-75728685D01*
X132950158Y-75785912D01*
X132776297Y-75878842D01*
X132623906Y-76003906D01*
X132498842Y-76156297D01*
X132405912Y-76330158D01*
X132348685Y-76518809D01*
X132347000Y-76535917D01*
X132347000Y-68573877D01*
X132434342Y-68515517D01*
X132650517Y-68299342D01*
X132788899Y-68092238D01*
X132832615Y-68165131D01*
X133021586Y-68373519D01*
X133247580Y-68541037D01*
X133501913Y-68661246D01*
X133635961Y-68701904D01*
X133858000Y-68579915D01*
X133858000Y-67437000D01*
X134112000Y-67437000D01*
X134112000Y-68579915D01*
X134334039Y-68701904D01*
X134468087Y-68661246D01*
X134722420Y-68541037D01*
X134948414Y-68373519D01*
X134969741Y-68350000D01*
X146969362Y-68350000D01*
X146969362Y-71350000D01*
X146983881Y-71497418D01*
X147026882Y-71639170D01*
X147096710Y-71769810D01*
X147190683Y-71884317D01*
X147305190Y-71978290D01*
X147435830Y-72048118D01*
X147577582Y-72091119D01*
X147725000Y-72105638D01*
X150725000Y-72105638D01*
X150872418Y-72091119D01*
X151014170Y-72048118D01*
X151144810Y-71978290D01*
X151259317Y-71884317D01*
X151353290Y-71769810D01*
X151423118Y-71639170D01*
X151466119Y-71497418D01*
X151480638Y-71350000D01*
X151480638Y-68350000D01*
X151466119Y-68202582D01*
X151423118Y-68060830D01*
X151353290Y-67930190D01*
X151259317Y-67815683D01*
X151144810Y-67721710D01*
X151014170Y-67651882D01*
X150872418Y-67608881D01*
X150725000Y-67594362D01*
X147725000Y-67594362D01*
X147577582Y-67608881D01*
X147435830Y-67651882D01*
X147305190Y-67721710D01*
X147190683Y-67815683D01*
X147096710Y-67930190D01*
X147026882Y-68060830D01*
X146983881Y-68202582D01*
X146969362Y-68350000D01*
X134969741Y-68350000D01*
X135137385Y-68165131D01*
X135282070Y-67923881D01*
X135376909Y-67659040D01*
X135255624Y-67437000D01*
X134112000Y-67437000D01*
X133858000Y-67437000D01*
X133838000Y-67437000D01*
X133838000Y-67183000D01*
X133858000Y-67183000D01*
X133858000Y-66040085D01*
X134112000Y-66040085D01*
X134112000Y-67183000D01*
X135255624Y-67183000D01*
X135376909Y-66960960D01*
X135282070Y-66696119D01*
X135137385Y-66454869D01*
X134948414Y-66246481D01*
X134722420Y-66078963D01*
X134468087Y-65958754D01*
X134334039Y-65918096D01*
X134112000Y-66040085D01*
X133858000Y-66040085D01*
X133635961Y-65918096D01*
X133501913Y-65958754D01*
X133247580Y-66078963D01*
X133021586Y-66246481D01*
X132832615Y-66454869D01*
X132788899Y-66527762D01*
X132650517Y-66320658D01*
X132434342Y-66104483D01*
X132180147Y-65934636D01*
X131897702Y-65817643D01*
X131597859Y-65758000D01*
X131292141Y-65758000D01*
X131077000Y-65800795D01*
X131077000Y-64947317D01*
X133321490Y-62702827D01*
X133355908Y-62674581D01*
X133468626Y-62537234D01*
X133552383Y-62380535D01*
X133603960Y-62210508D01*
X133604209Y-62207977D01*
X133609829Y-62202357D01*
X133735901Y-62013677D01*
X133822741Y-61804026D01*
X133867012Y-61581462D01*
X133867012Y-61354538D01*
X133844627Y-61242000D01*
X134137859Y-61242000D01*
X134437702Y-61182357D01*
X134720147Y-61065364D01*
X134974342Y-60895517D01*
X135190517Y-60679342D01*
X135360364Y-60425147D01*
X135477357Y-60142702D01*
X135537000Y-59842859D01*
X135537000Y-59537141D01*
X135477357Y-59237298D01*
X135360364Y-58954853D01*
X135190517Y-58700658D01*
X134974342Y-58484483D01*
X134720147Y-58314636D01*
X134437702Y-58197643D01*
X134137859Y-58138000D01*
X133832141Y-58138000D01*
X133532298Y-58197643D01*
X133249853Y-58314636D01*
X132995658Y-58484483D01*
X132779483Y-58700658D01*
X132715000Y-58797164D01*
X132650517Y-58700658D01*
X132434342Y-58484483D01*
X132347000Y-58426123D01*
X132347000Y-57777620D01*
X134365143Y-55759478D01*
X134575026Y-55717729D01*
X134784677Y-55630889D01*
X134973357Y-55504817D01*
X135133817Y-55344357D01*
X135259889Y-55155677D01*
X135346729Y-54946026D01*
X135391000Y-54723462D01*
X135391000Y-54496538D01*
X135346729Y-54273974D01*
X135259889Y-54064323D01*
X135161737Y-53917428D01*
X163813177Y-53917428D01*
X164179365Y-54412216D01*
X164851837Y-54777501D01*
X165582650Y-55004575D01*
X166343721Y-55084710D01*
X167105803Y-55014828D01*
X167839608Y-54797614D01*
X168516936Y-54441416D01*
X168560635Y-54412216D01*
X168926823Y-53917428D01*
X190356177Y-53917428D01*
X190722365Y-54412216D01*
X191394837Y-54777501D01*
X192125650Y-55004575D01*
X192886721Y-55084710D01*
X193648803Y-55014828D01*
X194382608Y-54797614D01*
X195059936Y-54441416D01*
X195103635Y-54412216D01*
X195469823Y-53917428D01*
X192913000Y-51360605D01*
X190356177Y-53917428D01*
X168926823Y-53917428D01*
X166370000Y-51360605D01*
X163813177Y-53917428D01*
X135161737Y-53917428D01*
X135133817Y-53875643D01*
X134973357Y-53715183D01*
X134784677Y-53589111D01*
X134575026Y-53502271D01*
X134352462Y-53458000D01*
X134125538Y-53458000D01*
X133902974Y-53502271D01*
X133693323Y-53589111D01*
X133504643Y-53715183D01*
X133344183Y-53875643D01*
X133218111Y-54064323D01*
X133131271Y-54273974D01*
X133089522Y-54483857D01*
X130838518Y-56734862D01*
X130804105Y-56763104D01*
X130691387Y-56900451D01*
X130658784Y-56961448D01*
X130607630Y-57057150D01*
X130556052Y-57227178D01*
X130538637Y-57404000D01*
X130543001Y-57448309D01*
X130543001Y-58426123D01*
X130455658Y-58484483D01*
X130239483Y-58700658D01*
X130175000Y-58797164D01*
X130110517Y-58700658D01*
X129894342Y-58484483D01*
X129640147Y-58314636D01*
X129357702Y-58197643D01*
X129057859Y-58138000D01*
X128752141Y-58138000D01*
X128649114Y-58158494D01*
X127267000Y-56776380D01*
X127267000Y-55333607D01*
X127385889Y-55155677D01*
X127472729Y-54946026D01*
X127517000Y-54723462D01*
X127517000Y-54496538D01*
X127472729Y-54273974D01*
X127385889Y-54064323D01*
X127259817Y-53875643D01*
X127099357Y-53715183D01*
X126910677Y-53589111D01*
X126701026Y-53502271D01*
X126478462Y-53458000D01*
X126251538Y-53458000D01*
X126028974Y-53502271D01*
X125819323Y-53589111D01*
X125630643Y-53715183D01*
X125470183Y-53875643D01*
X125344111Y-54064323D01*
X125257271Y-54273974D01*
X125213000Y-54496538D01*
X125213000Y-54723462D01*
X125257271Y-54946026D01*
X125344111Y-55155677D01*
X125463000Y-55333607D01*
X125463001Y-57105691D01*
X125458637Y-57150000D01*
X125476052Y-57326822D01*
X125499464Y-57404000D01*
X125527630Y-57496850D01*
X125611387Y-57653549D01*
X125724105Y-57790896D01*
X125758518Y-57819138D01*
X126099738Y-58160358D01*
X125912298Y-58197643D01*
X125629853Y-58314636D01*
X125375658Y-58484483D01*
X125159483Y-58700658D01*
X125095000Y-58797164D01*
X125030517Y-58700658D01*
X124814342Y-58484483D01*
X124560147Y-58314636D01*
X124277702Y-58197643D01*
X123977859Y-58138000D01*
X123672141Y-58138000D01*
X123372298Y-58197643D01*
X123089853Y-58314636D01*
X122835658Y-58484483D01*
X122619483Y-58700658D01*
X122481101Y-58907762D01*
X122437385Y-58834869D01*
X122248414Y-58626481D01*
X122022420Y-58458963D01*
X121768087Y-58338754D01*
X121634039Y-58298096D01*
X121412000Y-58420085D01*
X121412000Y-59563000D01*
X121158000Y-59563000D01*
X121158000Y-58420085D01*
X120935961Y-58298096D01*
X120801913Y-58338754D01*
X120547580Y-58458963D01*
X120321586Y-58626481D01*
X120132615Y-58834869D01*
X120088899Y-58907762D01*
X119950517Y-58700658D01*
X119734342Y-58484483D01*
X119480147Y-58314636D01*
X119197702Y-58197643D01*
X118897859Y-58138000D01*
X118592141Y-58138000D01*
X118292298Y-58197643D01*
X118009853Y-58314636D01*
X117755658Y-58484483D01*
X117539483Y-58700658D01*
X117475000Y-58797164D01*
X117410517Y-58700658D01*
X117194342Y-58484483D01*
X116940147Y-58314636D01*
X116657702Y-58197643D01*
X116357859Y-58138000D01*
X116052141Y-58138000D01*
X115752298Y-58197643D01*
X115469853Y-58314636D01*
X115397471Y-58363000D01*
X114299074Y-58363000D01*
X114271094Y-58328906D01*
X114118703Y-58203842D01*
X113944842Y-58110912D01*
X113756191Y-58053685D01*
X113560001Y-58034362D01*
X112909999Y-58034362D01*
X112713809Y-58053685D01*
X112525158Y-58110912D01*
X112351297Y-58203842D01*
X112198906Y-58328906D01*
X112073842Y-58481297D01*
X111980912Y-58655158D01*
X111923685Y-58843809D01*
X111904362Y-59039999D01*
X111904362Y-59661754D01*
X111901580Y-59690000D01*
X111904362Y-59718246D01*
X111904362Y-60340001D01*
X111923685Y-60536191D01*
X111980912Y-60724842D01*
X112073842Y-60898703D01*
X112198906Y-61051094D01*
X112351297Y-61176158D01*
X112525158Y-61269088D01*
X112713809Y-61326315D01*
X112909999Y-61345638D01*
X113560001Y-61345638D01*
X113756191Y-61326315D01*
X113944842Y-61269088D01*
X114118703Y-61176158D01*
X114271094Y-61051094D01*
X114299074Y-61017000D01*
X115397471Y-61017000D01*
X115469853Y-61065364D01*
X115752298Y-61182357D01*
X116052141Y-61242000D01*
X116357859Y-61242000D01*
X116460886Y-61221506D01*
X117313861Y-62074482D01*
X117342104Y-62108896D01*
X117376517Y-62137138D01*
X117376519Y-62137140D01*
X117428960Y-62180177D01*
X117479451Y-62221614D01*
X117636150Y-62305371D01*
X117806177Y-62356948D01*
X117983000Y-62374364D01*
X118027307Y-62370000D01*
X122002701Y-62370000D01*
X122047000Y-62374363D01*
X122091299Y-62370000D01*
X122091307Y-62370000D01*
X122223823Y-62356948D01*
X122393850Y-62305371D01*
X122550549Y-62221614D01*
X122687896Y-62108896D01*
X122716143Y-62074477D01*
X123068620Y-61722000D01*
X124407394Y-61722000D01*
X126733000Y-64047606D01*
X126733000Y-65923847D01*
X126714039Y-65918096D01*
X126492000Y-66040085D01*
X126492000Y-67183000D01*
X126512000Y-67183000D01*
X126512000Y-67437000D01*
X126492000Y-67437000D01*
X126492000Y-68579915D01*
X126714039Y-68701904D01*
X126733001Y-68696153D01*
X126733001Y-72345691D01*
X126728637Y-72390000D01*
X126746052Y-72566822D01*
X126792875Y-72721176D01*
X126797630Y-72736850D01*
X126881387Y-72893549D01*
X126994105Y-73030896D01*
X127028519Y-73059139D01*
X127241000Y-73271620D01*
X127241001Y-93733378D01*
X125758523Y-95215857D01*
X125724104Y-95244104D01*
X125611386Y-95381452D01*
X125527629Y-95538151D01*
X125476052Y-95708178D01*
X125463000Y-95840694D01*
X125463000Y-95840701D01*
X125458637Y-95885000D01*
X125463000Y-95929300D01*
X125463000Y-97898380D01*
X123457000Y-95892380D01*
X123457000Y-89016153D01*
X123475961Y-89021904D01*
X123698000Y-88899915D01*
X123698000Y-87757000D01*
X123678000Y-87757000D01*
X123678000Y-87503000D01*
X123698000Y-87503000D01*
X123698000Y-86360085D01*
X123952000Y-86360085D01*
X123952000Y-88899915D01*
X124174039Y-89021904D01*
X124308087Y-88981246D01*
X124562420Y-88861037D01*
X124788414Y-88693519D01*
X124977385Y-88485131D01*
X125122070Y-88243881D01*
X125216909Y-87979040D01*
X125095624Y-87757000D01*
X124968000Y-87757000D01*
X124968000Y-87503000D01*
X125095624Y-87503000D01*
X125216909Y-87280960D01*
X125122070Y-87016119D01*
X124977385Y-86774869D01*
X124788414Y-86566481D01*
X124562420Y-86398963D01*
X124308087Y-86278754D01*
X124174039Y-86238096D01*
X123952000Y-86360085D01*
X123698000Y-86360085D01*
X123475961Y-86238096D01*
X123457000Y-86243847D01*
X123457000Y-85769299D01*
X123461363Y-85724999D01*
X123457000Y-85680700D01*
X123457000Y-85680693D01*
X123443948Y-85548177D01*
X123392371Y-85378150D01*
X123308614Y-85221451D01*
X123195896Y-85084104D01*
X123161477Y-85055857D01*
X120917000Y-82811380D01*
X120917000Y-81519205D01*
X121132141Y-81562000D01*
X121437859Y-81562000D01*
X121737702Y-81502357D01*
X122020147Y-81385364D01*
X122274342Y-81215517D01*
X122490517Y-80999342D01*
X122555000Y-80902836D01*
X122619483Y-80999342D01*
X122835658Y-81215517D01*
X123089853Y-81385364D01*
X123372298Y-81502357D01*
X123672141Y-81562000D01*
X123977859Y-81562000D01*
X124277702Y-81502357D01*
X124560147Y-81385364D01*
X124814342Y-81215517D01*
X125030517Y-80999342D01*
X125200364Y-80745147D01*
X125317357Y-80462702D01*
X125377000Y-80162859D01*
X125377000Y-79857141D01*
X125317357Y-79557298D01*
X125200364Y-79274853D01*
X125030517Y-79020658D01*
X124814342Y-78804483D01*
X124560147Y-78634636D01*
X124277702Y-78517643D01*
X123977859Y-78458000D01*
X123672141Y-78458000D01*
X123372298Y-78517643D01*
X123089853Y-78634636D01*
X122835658Y-78804483D01*
X122619483Y-79020658D01*
X122555000Y-79117164D01*
X122490517Y-79020658D01*
X122274342Y-78804483D01*
X122020147Y-78634636D01*
X121737702Y-78517643D01*
X121437859Y-78458000D01*
X121132141Y-78458000D01*
X120832298Y-78517643D01*
X120647805Y-78594063D01*
X120621482Y-78572460D01*
X119674544Y-77625523D01*
X119646297Y-77591104D01*
X119508950Y-77478386D01*
X119352251Y-77394629D01*
X119182224Y-77343052D01*
X119049708Y-77330000D01*
X119049700Y-77330000D01*
X119005401Y-77325637D01*
X118961102Y-77330000D01*
X116324620Y-77330000D01*
X112281000Y-73286380D01*
X112281000Y-68033611D01*
X112399889Y-67855681D01*
X112486729Y-67646030D01*
X112531000Y-67423466D01*
X112531000Y-67196542D01*
X112486729Y-66973978D01*
X112399889Y-66764327D01*
X112273817Y-66575647D01*
X112208170Y-66510000D01*
X114649362Y-66510000D01*
X114649362Y-68110000D01*
X114663881Y-68257418D01*
X114706882Y-68399170D01*
X114776710Y-68529810D01*
X114870683Y-68644317D01*
X114985190Y-68738290D01*
X115115830Y-68808118D01*
X115257582Y-68851119D01*
X115303001Y-68855592D01*
X115303000Y-69621404D01*
X115232508Y-69691896D01*
X115095492Y-69896956D01*
X115001114Y-70124805D01*
X114953000Y-70366689D01*
X114953000Y-70613311D01*
X115001114Y-70855195D01*
X115095492Y-71083044D01*
X115232508Y-71288104D01*
X115384404Y-71440000D01*
X115232508Y-71591896D01*
X115095492Y-71796956D01*
X115001114Y-72024805D01*
X114953000Y-72266689D01*
X114953000Y-72513311D01*
X115001114Y-72755195D01*
X115095492Y-72983044D01*
X115232508Y-73188104D01*
X115406896Y-73362492D01*
X115611956Y-73499508D01*
X115839805Y-73593886D01*
X116081689Y-73642000D01*
X116328311Y-73642000D01*
X116570195Y-73593886D01*
X116798044Y-73499508D01*
X117003104Y-73362492D01*
X117080401Y-73285195D01*
X117143823Y-73278948D01*
X117313850Y-73227371D01*
X117470549Y-73143614D01*
X117607896Y-73030896D01*
X117636143Y-72996477D01*
X119351484Y-71281137D01*
X119385896Y-71252896D01*
X119498614Y-71115549D01*
X119582371Y-70958850D01*
X119633948Y-70788823D01*
X119643940Y-70687371D01*
X119651364Y-70612000D01*
X119647000Y-70567693D01*
X119647000Y-68573877D01*
X119734342Y-68515517D01*
X119950517Y-68299342D01*
X120015000Y-68202836D01*
X120079483Y-68299342D01*
X120295658Y-68515517D01*
X120549853Y-68685364D01*
X120832298Y-68802357D01*
X121132141Y-68862000D01*
X121437859Y-68862000D01*
X121737702Y-68802357D01*
X122020147Y-68685364D01*
X122274342Y-68515517D01*
X122490517Y-68299342D01*
X122555000Y-68202836D01*
X122619483Y-68299342D01*
X122835658Y-68515517D01*
X123089853Y-68685364D01*
X123372298Y-68802357D01*
X123672141Y-68862000D01*
X123977859Y-68862000D01*
X124277702Y-68802357D01*
X124560147Y-68685364D01*
X124814342Y-68515517D01*
X125030517Y-68299342D01*
X125168899Y-68092238D01*
X125212615Y-68165131D01*
X125401586Y-68373519D01*
X125627580Y-68541037D01*
X125881913Y-68661246D01*
X126015961Y-68701904D01*
X126238000Y-68579915D01*
X126238000Y-67437000D01*
X126218000Y-67437000D01*
X126218000Y-67183000D01*
X126238000Y-67183000D01*
X126238000Y-66040085D01*
X126015961Y-65918096D01*
X125881913Y-65958754D01*
X125627580Y-66078963D01*
X125401586Y-66246481D01*
X125212615Y-66454869D01*
X125168899Y-66527762D01*
X125030517Y-66320658D01*
X124814342Y-66104483D01*
X124560147Y-65934636D01*
X124277702Y-65817643D01*
X123977859Y-65758000D01*
X123672141Y-65758000D01*
X123372298Y-65817643D01*
X123089853Y-65934636D01*
X122835658Y-66104483D01*
X122619483Y-66320658D01*
X122555000Y-66417164D01*
X122490517Y-66320658D01*
X122274342Y-66104483D01*
X122020147Y-65934636D01*
X121737702Y-65817643D01*
X121437859Y-65758000D01*
X121132141Y-65758000D01*
X120832298Y-65817643D01*
X120549853Y-65934636D01*
X120295658Y-66104483D01*
X120079483Y-66320658D01*
X120015000Y-66417164D01*
X119950517Y-66320658D01*
X119734342Y-66104483D01*
X119480147Y-65934636D01*
X119197702Y-65817643D01*
X118897859Y-65758000D01*
X118592141Y-65758000D01*
X118292298Y-65817643D01*
X118009853Y-65934636D01*
X117755658Y-66104483D01*
X117680892Y-66179249D01*
X117633290Y-66090190D01*
X117539317Y-65975683D01*
X117424810Y-65881710D01*
X117294170Y-65811882D01*
X117152418Y-65768881D01*
X117005000Y-65754362D01*
X115405000Y-65754362D01*
X115257582Y-65768881D01*
X115115830Y-65811882D01*
X114985190Y-65881710D01*
X114870683Y-65975683D01*
X114776710Y-66090190D01*
X114706882Y-66220830D01*
X114663881Y-66362582D01*
X114649362Y-66510000D01*
X112208170Y-66510000D01*
X112113357Y-66415187D01*
X111924677Y-66289115D01*
X111715026Y-66202275D01*
X111492462Y-66158004D01*
X111265538Y-66158004D01*
X111265000Y-66158111D01*
X111265000Y-64477601D01*
X111383889Y-64299671D01*
X111470729Y-64090020D01*
X111515000Y-63867456D01*
X111515000Y-63640532D01*
X111470729Y-63417968D01*
X111383889Y-63208317D01*
X111257817Y-63019637D01*
X111097357Y-62859177D01*
X110908677Y-62733105D01*
X110699026Y-62646265D01*
X110489143Y-62604516D01*
X108217000Y-60332374D01*
X108217000Y-55873877D01*
X108304342Y-55815517D01*
X108520517Y-55599342D01*
X108690364Y-55345147D01*
X108807357Y-55062702D01*
X108867000Y-54762859D01*
X108867000Y-54457141D01*
X108807357Y-54157298D01*
X108690364Y-53874853D01*
X108520517Y-53620658D01*
X108304342Y-53404483D01*
X108097238Y-53266101D01*
X108170131Y-53222385D01*
X108378519Y-53033414D01*
X108546037Y-52807420D01*
X108666246Y-52553087D01*
X108706904Y-52419039D01*
X108584915Y-52197000D01*
X107442000Y-52197000D01*
X107442000Y-51943000D01*
X108584915Y-51943000D01*
X108706904Y-51720961D01*
X108666246Y-51586913D01*
X108546037Y-51332580D01*
X108378519Y-51106586D01*
X108170131Y-50917615D01*
X107974018Y-50800000D01*
X108170131Y-50682385D01*
X108378519Y-50493414D01*
X108546037Y-50267420D01*
X108666246Y-50013087D01*
X108706904Y-49879039D01*
X108584915Y-49657000D01*
X107442000Y-49657000D01*
X107442000Y-49403000D01*
X108584915Y-49403000D01*
X108585011Y-49402824D01*
X147080098Y-49402824D01*
X147129666Y-49820451D01*
X147259757Y-50220383D01*
X147417786Y-50516038D01*
X147733347Y-50672048D01*
X147775395Y-50630001D01*
X147955000Y-50809606D01*
X147912952Y-50851653D01*
X148068962Y-51167214D01*
X148443745Y-51358020D01*
X148848551Y-51472044D01*
X149267824Y-51504902D01*
X149685451Y-51455334D01*
X150085383Y-51325243D01*
X150381038Y-51167214D01*
X150387214Y-51154721D01*
X162466290Y-51154721D01*
X162536172Y-51916803D01*
X162753386Y-52650608D01*
X163109584Y-53327936D01*
X163138784Y-53371635D01*
X163633572Y-53737823D01*
X166190395Y-51181000D01*
X166549605Y-51181000D01*
X169106428Y-53737823D01*
X169601216Y-53371635D01*
X169966501Y-52699163D01*
X170193575Y-51968350D01*
X170273710Y-51207279D01*
X170268891Y-51154721D01*
X189009290Y-51154721D01*
X189079172Y-51916803D01*
X189296386Y-52650608D01*
X189652584Y-53327936D01*
X189681784Y-53371635D01*
X190176572Y-53737823D01*
X192733395Y-51181000D01*
X190176572Y-48624177D01*
X189681784Y-48990365D01*
X189316499Y-49662837D01*
X189089425Y-50393650D01*
X189009290Y-51154721D01*
X170268891Y-51154721D01*
X170203828Y-50445197D01*
X169986614Y-49711392D01*
X169630416Y-49034064D01*
X169601216Y-48990365D01*
X169106428Y-48624177D01*
X166549605Y-51181000D01*
X166190395Y-51181000D01*
X163633572Y-48624177D01*
X163138784Y-48990365D01*
X162773499Y-49662837D01*
X162546425Y-50393650D01*
X162466290Y-51154721D01*
X150387214Y-51154721D01*
X150537048Y-50851653D01*
X150495001Y-50809606D01*
X150674606Y-50630001D01*
X150716653Y-50672048D01*
X151032214Y-50516038D01*
X151223020Y-50141255D01*
X151337044Y-49736449D01*
X151369902Y-49317176D01*
X151320334Y-48899549D01*
X151190243Y-48499617D01*
X151160822Y-48444572D01*
X163813177Y-48444572D01*
X166370000Y-51001395D01*
X168926823Y-48444572D01*
X190356177Y-48444572D01*
X192913000Y-51001395D01*
X195469823Y-48444572D01*
X195103635Y-47949784D01*
X194431163Y-47584499D01*
X193700350Y-47357425D01*
X192939279Y-47277290D01*
X192177197Y-47347172D01*
X191443392Y-47564386D01*
X190766064Y-47920584D01*
X190722365Y-47949784D01*
X190356177Y-48444572D01*
X168926823Y-48444572D01*
X168560635Y-47949784D01*
X167888163Y-47584499D01*
X167157350Y-47357425D01*
X166396279Y-47277290D01*
X165634197Y-47347172D01*
X164900392Y-47564386D01*
X164223064Y-47920584D01*
X164179365Y-47949784D01*
X163813177Y-48444572D01*
X151160822Y-48444572D01*
X151032214Y-48203962D01*
X150716653Y-48047952D01*
X150674606Y-48090000D01*
X150495001Y-47910395D01*
X150537048Y-47868347D01*
X150381038Y-47552786D01*
X150006255Y-47361980D01*
X149601449Y-47247956D01*
X149182176Y-47215098D01*
X148764549Y-47264666D01*
X148364617Y-47394757D01*
X148068962Y-47552786D01*
X147912952Y-47868347D01*
X147955000Y-47910395D01*
X147775395Y-48090000D01*
X147733347Y-48047952D01*
X147417786Y-48203962D01*
X147226980Y-48578745D01*
X147112956Y-48983551D01*
X147080098Y-49402824D01*
X108585011Y-49402824D01*
X108706904Y-49180961D01*
X108666246Y-49046913D01*
X108546037Y-48792580D01*
X108378519Y-48566586D01*
X108214920Y-48418231D01*
X108239482Y-48415812D01*
X108359180Y-48379502D01*
X108469494Y-48320537D01*
X108566185Y-48241185D01*
X108645537Y-48144494D01*
X108704502Y-48034180D01*
X108740812Y-47914482D01*
X108753072Y-47790000D01*
X108750000Y-47275750D01*
X108591250Y-47117000D01*
X107950000Y-47117000D01*
X107974776Y-47114560D01*
X107998601Y-47107333D01*
X108020557Y-47095597D01*
X108039803Y-47079803D01*
X108055597Y-47060557D01*
X108067333Y-47038601D01*
X108074560Y-47014776D01*
X108077000Y-46990000D01*
X108077000Y-46863000D01*
X108591250Y-46863000D01*
X108750000Y-46704250D01*
X108753072Y-46190000D01*
X108740812Y-46065518D01*
X108704502Y-45945820D01*
X108645537Y-45835506D01*
X108566185Y-45738815D01*
X108469494Y-45659463D01*
X108359180Y-45600498D01*
X108239482Y-45564188D01*
X108115000Y-45551928D01*
X107600750Y-45555000D01*
X107562750Y-45593000D01*
X107067250Y-45593000D01*
X107029250Y-45555000D01*
X106515000Y-45551928D01*
X106390518Y-45564188D01*
X106270820Y-45600498D01*
X106160506Y-45659463D01*
X106063815Y-45738815D01*
X105984463Y-45835506D01*
X105925498Y-45945820D01*
X105889188Y-46065518D01*
X105876928Y-46190000D01*
X105877155Y-46228000D01*
X101052421Y-46228000D01*
X100900517Y-46000658D01*
X100684342Y-45784483D01*
X100430147Y-45614636D01*
X100147702Y-45497643D01*
X99847859Y-45438000D01*
X99542141Y-45438000D01*
X99242298Y-45497643D01*
X98959853Y-45614636D01*
X98705658Y-45784483D01*
X98489483Y-46000658D01*
X98319636Y-46254853D01*
X98202643Y-46537298D01*
X98143000Y-46837141D01*
X98143000Y-47142859D01*
X98202643Y-47442702D01*
X98319636Y-47725147D01*
X98489483Y-47979342D01*
X98705658Y-48195517D01*
X98802164Y-48260000D01*
X98705658Y-48324483D01*
X98489483Y-48540658D01*
X98319636Y-48794853D01*
X98202643Y-49077298D01*
X98143000Y-49377141D01*
X98143000Y-49682859D01*
X98202643Y-49982702D01*
X98319636Y-50265147D01*
X98489483Y-50519342D01*
X98705658Y-50735517D01*
X98802164Y-50800000D01*
X98705658Y-50864483D01*
X98489483Y-51080658D01*
X98319636Y-51334853D01*
X98202643Y-51617298D01*
X98143000Y-51917141D01*
X98143000Y-52222859D01*
X98202643Y-52522702D01*
X98319636Y-52805147D01*
X98489483Y-53059342D01*
X98705658Y-53275517D01*
X98802164Y-53340000D01*
X98705658Y-53404483D01*
X98489483Y-53620658D01*
X98319636Y-53874853D01*
X98202643Y-54157298D01*
X98143000Y-54457141D01*
X98143000Y-54762859D01*
X98202643Y-55062702D01*
X98319636Y-55345147D01*
X98489483Y-55599342D01*
X98705658Y-55815517D01*
X98959853Y-55985364D01*
X99242298Y-56102357D01*
X99542141Y-56162000D01*
X99847859Y-56162000D01*
X100147702Y-56102357D01*
X100430147Y-55985364D01*
X100684342Y-55815517D01*
X100900517Y-55599342D01*
X101070364Y-55345147D01*
X101187357Y-55062702D01*
X101224641Y-54875262D01*
X102795501Y-56446122D01*
X102795501Y-58138788D01*
X102654705Y-58063531D01*
X102324452Y-57963350D01*
X102067069Y-57938000D01*
X100416061Y-57938000D01*
X100330000Y-57929524D01*
X100243939Y-57938000D01*
X100243931Y-57938000D01*
X99986548Y-57963350D01*
X99656295Y-58063531D01*
X99405389Y-58197643D01*
X99351931Y-58226217D01*
X99214805Y-58338754D01*
X99085155Y-58445155D01*
X99030290Y-58512008D01*
X97424000Y-60118298D01*
X97424000Y-43599005D01*
X97437044Y-43465967D01*
X97464645Y-43374551D01*
X97509473Y-43290241D01*
X97569826Y-43216241D01*
X97643402Y-43155373D01*
X97727398Y-43109957D01*
X97818618Y-43081719D01*
X97949152Y-43068000D01*
X195287995Y-43068000D01*
X195421033Y-43081044D01*
%TA.AperFunction,Conductor*%
D30*
G36*
X195421033Y-43081044D02*
G01*
X195512449Y-43108645D01*
X195596759Y-43153473D01*
X195670759Y-43213826D01*
X195731627Y-43287402D01*
X195777043Y-43371398D01*
X195805281Y-43462618D01*
X195819000Y-43593152D01*
X195819000Y-48749676D01*
X195649428Y-48624177D01*
X193092605Y-51181000D01*
X195649428Y-53737823D01*
X195819000Y-53612324D01*
X195819001Y-114281676D01*
X195649428Y-114156177D01*
X193092605Y-116713000D01*
X195649428Y-119269823D01*
X195819001Y-119144324D01*
X195819001Y-130808000D01*
X189780857Y-130808000D01*
X189780857Y-133843000D01*
X177711166Y-133843000D01*
X177673000Y-133839241D01*
X177634834Y-133843000D01*
X177520681Y-133854243D01*
X177508296Y-133858000D01*
X173622000Y-133858000D01*
X173622000Y-130981299D01*
X173626363Y-130936999D01*
X173622000Y-130892700D01*
X173622000Y-130892693D01*
X173608948Y-130760177D01*
X173557371Y-130590150D01*
X173473614Y-130433451D01*
X173360896Y-130296104D01*
X173326484Y-130267863D01*
X173066862Y-130008241D01*
X173265677Y-129925889D01*
X173454357Y-129799817D01*
X173614817Y-129639357D01*
X173740889Y-129450677D01*
X173827729Y-129241026D01*
X173872000Y-129018462D01*
X173872000Y-128791538D01*
X173827729Y-128568974D01*
X173740889Y-128359323D01*
X173614817Y-128170643D01*
X173454357Y-128010183D01*
X173265677Y-127884111D01*
X173056026Y-127797271D01*
X172833462Y-127753000D01*
X172606538Y-127753000D01*
X172383974Y-127797271D01*
X172381087Y-127798467D01*
X165614478Y-121031858D01*
X165572729Y-120821974D01*
X165485889Y-120612323D01*
X165396662Y-120478786D01*
X165582650Y-120536575D01*
X166343721Y-120616710D01*
X167105803Y-120546828D01*
X167839608Y-120329614D01*
X168516936Y-119973416D01*
X168560635Y-119944216D01*
X168926823Y-119449428D01*
X166370000Y-116892605D01*
X163813177Y-119449428D01*
X164179365Y-119944216D01*
X164308768Y-120014507D01*
X164128974Y-120050271D01*
X163919323Y-120137111D01*
X163730643Y-120263183D01*
X163570183Y-120423643D01*
X163534967Y-120476347D01*
X159745341Y-116686721D01*
X162466290Y-116686721D01*
X162536172Y-117448803D01*
X162753386Y-118182608D01*
X163109584Y-118859936D01*
X163138784Y-118903635D01*
X163633572Y-119269823D01*
X166190395Y-116713000D01*
X166549605Y-116713000D01*
X169106428Y-119269823D01*
X169601216Y-118903635D01*
X169966501Y-118231163D01*
X170193575Y-117500350D01*
X170273710Y-116739279D01*
X170203828Y-115977197D01*
X169986614Y-115243392D01*
X169630416Y-114566064D01*
X169601216Y-114522365D01*
X169106428Y-114156177D01*
X166549605Y-116713000D01*
X166190395Y-116713000D01*
X163633572Y-114156177D01*
X163138784Y-114522365D01*
X162773499Y-115194837D01*
X162546425Y-115925650D01*
X162466290Y-116686721D01*
X159745341Y-116686721D01*
X159017000Y-115958380D01*
X159017000Y-104692299D01*
X159021363Y-104647999D01*
X159017000Y-104603700D01*
X159017000Y-104603693D01*
X159003948Y-104471177D01*
X158952371Y-104301150D01*
X158868614Y-104144451D01*
X158755896Y-104007104D01*
X158721478Y-103978858D01*
X158641466Y-103898846D01*
X158660677Y-103890889D01*
X158849357Y-103764817D01*
X159009817Y-103604357D01*
X159135889Y-103415677D01*
X159222729Y-103206026D01*
X159267000Y-102983462D01*
X159267000Y-102756538D01*
X159222729Y-102533974D01*
X159135889Y-102324323D01*
X159017000Y-102146393D01*
X159017000Y-91230299D01*
X159021363Y-91186000D01*
X159017000Y-91141700D01*
X159017000Y-91141693D01*
X159003948Y-91009177D01*
X158952371Y-90839150D01*
X158868614Y-90682451D01*
X158784140Y-90579519D01*
X158784138Y-90579517D01*
X158755896Y-90545104D01*
X158721484Y-90516863D01*
X157218964Y-89014344D01*
X157328087Y-88981246D01*
X157582420Y-88861037D01*
X157808414Y-88693519D01*
X157997385Y-88485131D01*
X158142070Y-88243881D01*
X158236909Y-87979040D01*
X158115624Y-87757000D01*
X156972000Y-87757000D01*
X156972000Y-87777000D01*
X156718000Y-87777000D01*
X156718000Y-87757000D01*
X156698000Y-87757000D01*
X156698000Y-87503000D01*
X156718000Y-87503000D01*
X156718000Y-86360085D01*
X156972000Y-86360085D01*
X156972000Y-87503000D01*
X158115624Y-87503000D01*
X158236909Y-87280960D01*
X158142070Y-87016119D01*
X157997385Y-86774869D01*
X157808414Y-86566481D01*
X157582420Y-86398963D01*
X157328087Y-86278754D01*
X157194039Y-86238096D01*
X156972000Y-86360085D01*
X156718000Y-86360085D01*
X156495961Y-86238096D01*
X156417001Y-86262045D01*
X156417001Y-83706538D01*
X161027000Y-83706538D01*
X161027000Y-83933462D01*
X161071271Y-84156026D01*
X161158111Y-84365677D01*
X161277001Y-84543608D01*
X161277000Y-111798393D01*
X161158111Y-111976323D01*
X161071271Y-112185974D01*
X161027000Y-112408538D01*
X161027000Y-112635462D01*
X161071271Y-112858026D01*
X161158111Y-113067677D01*
X161284183Y-113256357D01*
X161444643Y-113416817D01*
X161633323Y-113542889D01*
X161842974Y-113629729D01*
X162065538Y-113674000D01*
X162292462Y-113674000D01*
X162515026Y-113629729D01*
X162724677Y-113542889D01*
X162913357Y-113416817D01*
X162941000Y-113389174D01*
X162968643Y-113416817D01*
X163157323Y-113542889D01*
X163366974Y-113629729D01*
X163589538Y-113674000D01*
X163816462Y-113674000D01*
X164039026Y-113629729D01*
X164083509Y-113611304D01*
X163813177Y-113976572D01*
X166370000Y-116533395D01*
X168926823Y-113976572D01*
X168560635Y-113481784D01*
X167888163Y-113116499D01*
X167157350Y-112889425D01*
X166396279Y-112809290D01*
X165634197Y-112879172D01*
X164900392Y-113096386D01*
X164598693Y-113255045D01*
X164723889Y-113067677D01*
X164810729Y-112858026D01*
X164855000Y-112635462D01*
X164855000Y-112408538D01*
X164810729Y-112185974D01*
X164723889Y-111976323D01*
X164597817Y-111787643D01*
X164437357Y-111627183D01*
X164248677Y-111501111D01*
X164097000Y-111438285D01*
X164097000Y-109666426D01*
X164102582Y-109668119D01*
X164250000Y-109682638D01*
X165950000Y-109682638D01*
X166097418Y-109668119D01*
X166239170Y-109625118D01*
X166369810Y-109555290D01*
X166484317Y-109461317D01*
X166578290Y-109346810D01*
X166648118Y-109216170D01*
X166658509Y-109181917D01*
X166758645Y-109272178D01*
X167008748Y-109421157D01*
X167283109Y-109518481D01*
X167513000Y-109397814D01*
X167513000Y-108204000D01*
X167767000Y-108204000D01*
X167767000Y-109397814D01*
X167996891Y-109518481D01*
X168271252Y-109421157D01*
X168521355Y-109272178D01*
X168737588Y-109077269D01*
X168911641Y-108843920D01*
X169036825Y-108581099D01*
X169081476Y-108433890D01*
X168960155Y-108204000D01*
X167767000Y-108204000D01*
X167513000Y-108204000D01*
X167493000Y-108204000D01*
X167493000Y-107950000D01*
X167513000Y-107950000D01*
X167513000Y-107930000D01*
X167767000Y-107930000D01*
X167767000Y-107950000D01*
X168960155Y-107950000D01*
X169081476Y-107720110D01*
X169036825Y-107572901D01*
X168911641Y-107310080D01*
X168737588Y-107076731D01*
X168521355Y-106881822D01*
X168515804Y-106878515D01*
X168661215Y-106781354D01*
X168884354Y-106558215D01*
X169059674Y-106295831D01*
X169180436Y-106004286D01*
X169242000Y-105694783D01*
X169242000Y-105379217D01*
X169180436Y-105069714D01*
X169059674Y-104778169D01*
X168884354Y-104515785D01*
X168661215Y-104292646D01*
X168622833Y-104267000D01*
X168661215Y-104241354D01*
X168884354Y-104018215D01*
X169059674Y-103755831D01*
X169180436Y-103464286D01*
X169242000Y-103154783D01*
X169242000Y-102839217D01*
X169180436Y-102529714D01*
X169059674Y-102238169D01*
X168884354Y-101975785D01*
X168661215Y-101752646D01*
X168622833Y-101727000D01*
X168661215Y-101701354D01*
X168884354Y-101478215D01*
X169059674Y-101215831D01*
X169180436Y-100924286D01*
X169242000Y-100614783D01*
X169242000Y-100299217D01*
X169180436Y-99989714D01*
X169059674Y-99698169D01*
X168884354Y-99435785D01*
X168661215Y-99212646D01*
X168622833Y-99187000D01*
X168661215Y-99161354D01*
X168884354Y-98938215D01*
X169059674Y-98675831D01*
X169180436Y-98384286D01*
X169242000Y-98074783D01*
X169242000Y-97759217D01*
X169180436Y-97449714D01*
X169059674Y-97158169D01*
X168884354Y-96895785D01*
X168661215Y-96672646D01*
X168622833Y-96647000D01*
X168661215Y-96621354D01*
X168884354Y-96398215D01*
X169059674Y-96135831D01*
X169180436Y-95844286D01*
X169242000Y-95534783D01*
X169242000Y-95219217D01*
X169180436Y-94909714D01*
X169059674Y-94618169D01*
X168884354Y-94355785D01*
X168661215Y-94132646D01*
X168622833Y-94107000D01*
X168661215Y-94081354D01*
X168884354Y-93858215D01*
X169059674Y-93595831D01*
X169180436Y-93304286D01*
X169242000Y-92994783D01*
X169242000Y-92679217D01*
X169180436Y-92369714D01*
X169059674Y-92078169D01*
X168884354Y-91815785D01*
X168661215Y-91592646D01*
X168622833Y-91567000D01*
X168661215Y-91541354D01*
X168884354Y-91318215D01*
X169059674Y-91055831D01*
X169180436Y-90764286D01*
X169242000Y-90454783D01*
X169242000Y-90139217D01*
X169180436Y-89829714D01*
X169059674Y-89538169D01*
X168884354Y-89275785D01*
X168661215Y-89052646D01*
X168622833Y-89027000D01*
X168661215Y-89001354D01*
X168884354Y-88778215D01*
X169059674Y-88515831D01*
X169180436Y-88224286D01*
X169242000Y-87914783D01*
X169242000Y-87599217D01*
X169180436Y-87289714D01*
X169059674Y-86998169D01*
X168884354Y-86735785D01*
X168661215Y-86512646D01*
X168622833Y-86487000D01*
X168661215Y-86461354D01*
X168884354Y-86238215D01*
X169059674Y-85975831D01*
X169180436Y-85684286D01*
X169242000Y-85374783D01*
X169242000Y-85059217D01*
X169180436Y-84749714D01*
X169059674Y-84458169D01*
X168884354Y-84195785D01*
X168661215Y-83972646D01*
X168515804Y-83875485D01*
X168521355Y-83872178D01*
X168737588Y-83677269D01*
X168911641Y-83443920D01*
X169036825Y-83181099D01*
X169081476Y-83033890D01*
X168960155Y-82804000D01*
X167767000Y-82804000D01*
X167767000Y-82824000D01*
X167513000Y-82824000D01*
X167513000Y-82804000D01*
X167493000Y-82804000D01*
X167493000Y-82550000D01*
X167513000Y-82550000D01*
X167513000Y-81565714D01*
X167522000Y-81520468D01*
X167522000Y-81293544D01*
X167513000Y-81248298D01*
X167513000Y-80264000D01*
X167767000Y-80264000D01*
X167767000Y-82550000D01*
X168960155Y-82550000D01*
X169081476Y-82320110D01*
X169036825Y-82172901D01*
X168911641Y-81910080D01*
X168737588Y-81676731D01*
X168521355Y-81481822D01*
X168395745Y-81407000D01*
X168521355Y-81332178D01*
X168737588Y-81137269D01*
X168911641Y-80903920D01*
X169036825Y-80641099D01*
X169081476Y-80493890D01*
X168960155Y-80264000D01*
X167767000Y-80264000D01*
X167513000Y-80264000D01*
X167493000Y-80264000D01*
X167493000Y-80010000D01*
X167513000Y-80010000D01*
X167513000Y-77724000D01*
X167767000Y-77724000D01*
X167767000Y-80010000D01*
X168960155Y-80010000D01*
X169081476Y-79780110D01*
X169036825Y-79632901D01*
X168911641Y-79370080D01*
X168737588Y-79136731D01*
X168521355Y-78941822D01*
X168395745Y-78867000D01*
X168521355Y-78792178D01*
X168737588Y-78597269D01*
X168911641Y-78363920D01*
X169036825Y-78101099D01*
X169081476Y-77953890D01*
X168960155Y-77724000D01*
X167767000Y-77724000D01*
X167513000Y-77724000D01*
X167493000Y-77724000D01*
X167493000Y-77470000D01*
X167513000Y-77470000D01*
X167513000Y-77450000D01*
X167767000Y-77450000D01*
X167767000Y-77470000D01*
X168960155Y-77470000D01*
X169081476Y-77240110D01*
X169036825Y-77092901D01*
X168911641Y-76830080D01*
X168737588Y-76596731D01*
X168521355Y-76401822D01*
X168515804Y-76398515D01*
X168661215Y-76301354D01*
X168884354Y-76078215D01*
X169059674Y-75815831D01*
X169180436Y-75524286D01*
X169242000Y-75214783D01*
X169242000Y-74899217D01*
X169180436Y-74589714D01*
X169059674Y-74298169D01*
X168884354Y-74035785D01*
X168661215Y-73812646D01*
X168515804Y-73715485D01*
X168521355Y-73712178D01*
X168737588Y-73517269D01*
X168911641Y-73283920D01*
X169036825Y-73021099D01*
X169081476Y-72873890D01*
X168960155Y-72644000D01*
X167767000Y-72644000D01*
X167767000Y-72664000D01*
X167513000Y-72664000D01*
X167513000Y-72644000D01*
X167493000Y-72644000D01*
X167493000Y-72390000D01*
X167513000Y-72390000D01*
X167513000Y-72370000D01*
X167767000Y-72370000D01*
X167767000Y-72390000D01*
X168960155Y-72390000D01*
X169081476Y-72160110D01*
X169036825Y-72012901D01*
X168911641Y-71750080D01*
X168737588Y-71516731D01*
X168521355Y-71321822D01*
X168515804Y-71318515D01*
X168661215Y-71221354D01*
X168884354Y-70998215D01*
X169059674Y-70735831D01*
X169180436Y-70444286D01*
X169242000Y-70134783D01*
X169242000Y-69819217D01*
X169180436Y-69509714D01*
X169059674Y-69218169D01*
X168884354Y-68955785D01*
X168661215Y-68732646D01*
X168622833Y-68707000D01*
X168661215Y-68681354D01*
X168884354Y-68458215D01*
X169059674Y-68195831D01*
X169180436Y-67904286D01*
X169242000Y-67594783D01*
X169242000Y-67279217D01*
X169180436Y-66969714D01*
X169059674Y-66678169D01*
X168884354Y-66415785D01*
X168661215Y-66192646D01*
X168622833Y-66167000D01*
X168661215Y-66141354D01*
X168884354Y-65918215D01*
X169059674Y-65655831D01*
X169180436Y-65364286D01*
X169242000Y-65054783D01*
X169242000Y-64739217D01*
X169180436Y-64429714D01*
X169059674Y-64138169D01*
X168884354Y-63875785D01*
X168661215Y-63652646D01*
X168622833Y-63627000D01*
X168661215Y-63601354D01*
X168884354Y-63378215D01*
X168964011Y-63259000D01*
X169298380Y-63259000D01*
X174018339Y-67978959D01*
X172812003Y-69185295D01*
X172745156Y-69240155D01*
X172690296Y-69307002D01*
X172690289Y-69307009D01*
X172526217Y-69506932D01*
X172363532Y-69811295D01*
X172263350Y-70141549D01*
X172229524Y-70485000D01*
X172238001Y-70571071D01*
X172238000Y-117384298D01*
X170907008Y-118715290D01*
X170840155Y-118770155D01*
X170621217Y-119036931D01*
X170458531Y-119341295D01*
X170358350Y-119671548D01*
X170324523Y-120015000D01*
X170358350Y-120358452D01*
X170458531Y-120688705D01*
X170621217Y-120993069D01*
X170840155Y-121259845D01*
X171106931Y-121478783D01*
X171411295Y-121641469D01*
X171741548Y-121741650D01*
X171998931Y-121767000D01*
X171998939Y-121767000D01*
X172085000Y-121775476D01*
X172171061Y-121767000D01*
X173903931Y-121767000D01*
X173990000Y-121775477D01*
X174076068Y-121767000D01*
X174076069Y-121767000D01*
X174333452Y-121741650D01*
X174663705Y-121641469D01*
X174968069Y-121478783D01*
X175234845Y-121259845D01*
X175453783Y-120993069D01*
X175616469Y-120688705D01*
X175716650Y-120358452D01*
X175733061Y-120191828D01*
X175742000Y-120101069D01*
X175742000Y-120101068D01*
X175750477Y-120015000D01*
X175742000Y-119928931D01*
X175742000Y-119449428D01*
X190356177Y-119449428D01*
X190722365Y-119944216D01*
X191394837Y-120309501D01*
X192125650Y-120536575D01*
X192886721Y-120616710D01*
X193648803Y-120546828D01*
X194382608Y-120329614D01*
X195059936Y-119973416D01*
X195103635Y-119944216D01*
X195469823Y-119449428D01*
X192913000Y-116892605D01*
X190356177Y-119449428D01*
X175742000Y-119449428D01*
X175742000Y-118196061D01*
X175750476Y-118110000D01*
X175742000Y-118023939D01*
X175742000Y-116686721D01*
X189009290Y-116686721D01*
X189079172Y-117448803D01*
X189296386Y-118182608D01*
X189652584Y-118859936D01*
X189681784Y-118903635D01*
X190176572Y-119269823D01*
X192733395Y-116713000D01*
X190176572Y-114156177D01*
X189681784Y-114522365D01*
X189316499Y-115194837D01*
X189089425Y-115925650D01*
X189009290Y-116686721D01*
X175742000Y-116686721D01*
X175742000Y-113976572D01*
X190356177Y-113976572D01*
X192913000Y-116533395D01*
X195469823Y-113976572D01*
X195103635Y-113481784D01*
X194431163Y-113116499D01*
X193700350Y-112889425D01*
X192939279Y-112809290D01*
X192177197Y-112879172D01*
X191443392Y-113096386D01*
X190766064Y-113452584D01*
X190722365Y-113481784D01*
X190356177Y-113976572D01*
X175742000Y-113976572D01*
X175742000Y-71210702D01*
X183250710Y-63701992D01*
X183414782Y-63502069D01*
X183424187Y-63484473D01*
X185436023Y-61472638D01*
X185540001Y-61472638D01*
X185736191Y-61453315D01*
X185924842Y-61396088D01*
X186098703Y-61303158D01*
X186251094Y-61178094D01*
X186376158Y-61025703D01*
X186469088Y-60851842D01*
X186526315Y-60663191D01*
X186545638Y-60467001D01*
X186545638Y-59845246D01*
X186548420Y-59817000D01*
X186545638Y-59788754D01*
X186545638Y-59166999D01*
X186526315Y-58970809D01*
X186469088Y-58782158D01*
X186376158Y-58608297D01*
X186251094Y-58455906D01*
X186098703Y-58330842D01*
X185924842Y-58237912D01*
X185736191Y-58180685D01*
X185540001Y-58161362D01*
X184889999Y-58161362D01*
X184693809Y-58180685D01*
X184505158Y-58237912D01*
X184331297Y-58330842D01*
X184178906Y-58455906D01*
X184155731Y-58484145D01*
X184150000Y-58483581D01*
X184084826Y-58490000D01*
X183382356Y-58490000D01*
X183335317Y-58432683D01*
X183220810Y-58338710D01*
X183090170Y-58268882D01*
X182948418Y-58225881D01*
X182801000Y-58211362D01*
X181992760Y-58211362D01*
X181951000Y-58207249D01*
X181909240Y-58211362D01*
X181101000Y-58211362D01*
X180953582Y-58225881D01*
X180811830Y-58268882D01*
X180681190Y-58338710D01*
X180566683Y-58432683D01*
X180472710Y-58547190D01*
X180402882Y-58677830D01*
X180394143Y-58706638D01*
X180177920Y-58545359D01*
X179915099Y-58420175D01*
X179767890Y-58375524D01*
X179538000Y-58496845D01*
X179538000Y-59304540D01*
X179520667Y-59302833D01*
X179284000Y-59302833D01*
X179284000Y-58496845D01*
X179054110Y-58375524D01*
X178906901Y-58420175D01*
X178644080Y-58545359D01*
X178410731Y-58719412D01*
X178215822Y-58935645D01*
X178066843Y-59185748D01*
X177969519Y-59460109D01*
X178090186Y-59690000D01*
X178123667Y-59690000D01*
X178123667Y-59937833D01*
X178124274Y-59944000D01*
X178090186Y-59944000D01*
X177969519Y-60173891D01*
X178066843Y-60448252D01*
X178215822Y-60698355D01*
X178410731Y-60914588D01*
X178644080Y-61088641D01*
X178906901Y-61213825D01*
X179054110Y-61258476D01*
X179284000Y-61137155D01*
X179284000Y-60318833D01*
X179520667Y-60318833D01*
X179538000Y-60317126D01*
X179538000Y-61137155D01*
X179767890Y-61258476D01*
X179915099Y-61213825D01*
X180177920Y-61088641D01*
X180349000Y-60961034D01*
X180349000Y-61648298D01*
X175293959Y-66703339D01*
X170341143Y-61750523D01*
X170312896Y-61716104D01*
X170175549Y-61603386D01*
X170018850Y-61519629D01*
X169848823Y-61468052D01*
X169716307Y-61455000D01*
X169716299Y-61455000D01*
X169672000Y-61450637D01*
X169627701Y-61455000D01*
X168964011Y-61455000D01*
X168884354Y-61335785D01*
X168661215Y-61112646D01*
X168515804Y-61015485D01*
X168521355Y-61012178D01*
X168737588Y-60817269D01*
X168911641Y-60583920D01*
X169036825Y-60321099D01*
X169081476Y-60173890D01*
X168960155Y-59944000D01*
X167767000Y-59944000D01*
X167767000Y-59964000D01*
X167513000Y-59964000D01*
X167513000Y-59944000D01*
X167493000Y-59944000D01*
X167493000Y-59690000D01*
X167513000Y-59690000D01*
X167513000Y-58496186D01*
X167767000Y-58496186D01*
X167767000Y-59690000D01*
X168960155Y-59690000D01*
X169081476Y-59460110D01*
X169036825Y-59312901D01*
X168911641Y-59050080D01*
X168737588Y-58816731D01*
X168521355Y-58621822D01*
X168271252Y-58472843D01*
X167996891Y-58375519D01*
X167767000Y-58496186D01*
X167513000Y-58496186D01*
X167283109Y-58375519D01*
X167008748Y-58472843D01*
X166758645Y-58621822D01*
X166542412Y-58816731D01*
X166445323Y-58946896D01*
X166344354Y-58795785D01*
X166121215Y-58572646D01*
X165858831Y-58397326D01*
X165567286Y-58276564D01*
X165257783Y-58215000D01*
X164942217Y-58215000D01*
X164632714Y-58276564D01*
X164341169Y-58397326D01*
X164078785Y-58572646D01*
X163855646Y-58795785D01*
X163680326Y-59058169D01*
X163559564Y-59349714D01*
X163498000Y-59659217D01*
X163498000Y-59974783D01*
X163559564Y-60284286D01*
X163680326Y-60575831D01*
X163855646Y-60838215D01*
X164078785Y-61061354D01*
X164117167Y-61087000D01*
X164078785Y-61112646D01*
X163855646Y-61335785D01*
X163680326Y-61598169D01*
X163559564Y-61889714D01*
X163498000Y-62199217D01*
X163498000Y-62514783D01*
X163504901Y-62549478D01*
X162588518Y-63465862D01*
X162554105Y-63494104D01*
X162441387Y-63631451D01*
X162375887Y-63753994D01*
X162357630Y-63788150D01*
X162306052Y-63958178D01*
X162288637Y-64135000D01*
X162293001Y-64179310D01*
X162293000Y-76111393D01*
X162174111Y-76289323D01*
X162087271Y-76498974D01*
X162043000Y-76721538D01*
X162043000Y-76948462D01*
X162087271Y-77171026D01*
X162174111Y-77380677D01*
X162300183Y-77569357D01*
X162460643Y-77729817D01*
X162649323Y-77855889D01*
X162858974Y-77942729D01*
X163081538Y-77987000D01*
X163308462Y-77987000D01*
X163465645Y-77955734D01*
X161572518Y-79848862D01*
X161538105Y-79877104D01*
X161509863Y-79911517D01*
X161509860Y-79911520D01*
X161489056Y-79936870D01*
X161425387Y-80014451D01*
X161357821Y-80140859D01*
X161341630Y-80171150D01*
X161290052Y-80341178D01*
X161272637Y-80518000D01*
X161277001Y-80562309D01*
X161277000Y-83096393D01*
X161158111Y-83274323D01*
X161071271Y-83483974D01*
X161027000Y-83706538D01*
X156417001Y-83706538D01*
X156417001Y-81713619D01*
X156589114Y-81541506D01*
X156692141Y-81562000D01*
X156997859Y-81562000D01*
X157297702Y-81502357D01*
X157580147Y-81385364D01*
X157834342Y-81215517D01*
X158050517Y-80999342D01*
X158220364Y-80745147D01*
X158337357Y-80462702D01*
X158397000Y-80162859D01*
X158397000Y-79857141D01*
X158337357Y-79557298D01*
X158220364Y-79274853D01*
X158050517Y-79020658D01*
X157834342Y-78804483D01*
X157580147Y-78634636D01*
X157297702Y-78517643D01*
X156997859Y-78458000D01*
X156692141Y-78458000D01*
X156392298Y-78517643D01*
X156109853Y-78634636D01*
X155855658Y-78804483D01*
X155639483Y-79020658D01*
X155575000Y-79117164D01*
X155510517Y-79020658D01*
X155294342Y-78804483D01*
X155040147Y-78634636D01*
X154757702Y-78517643D01*
X154457859Y-78458000D01*
X154152141Y-78458000D01*
X153852298Y-78517643D01*
X153569853Y-78634636D01*
X153315658Y-78804483D01*
X153099483Y-79020658D01*
X153035000Y-79117164D01*
X152970517Y-79020658D01*
X152754342Y-78804483D01*
X152500147Y-78634636D01*
X152217702Y-78517643D01*
X151917859Y-78458000D01*
X151612141Y-78458000D01*
X151312298Y-78517643D01*
X151029853Y-78634636D01*
X150775658Y-78804483D01*
X150559483Y-79020658D01*
X150495000Y-79117164D01*
X150430517Y-79020658D01*
X150214342Y-78804483D01*
X149960147Y-78634636D01*
X149677702Y-78517643D01*
X149377859Y-78458000D01*
X149072141Y-78458000D01*
X148772298Y-78517643D01*
X148489853Y-78634636D01*
X148235658Y-78804483D01*
X148019483Y-79020658D01*
X147955000Y-79117164D01*
X147890517Y-79020658D01*
X147674342Y-78804483D01*
X147420147Y-78634636D01*
X147137702Y-78517643D01*
X146837859Y-78458000D01*
X146532141Y-78458000D01*
X146232298Y-78517643D01*
X145949853Y-78634636D01*
X145695658Y-78804483D01*
X145479483Y-79020658D01*
X145415000Y-79117164D01*
X145350517Y-79020658D01*
X145134342Y-78804483D01*
X144880147Y-78634636D01*
X144597702Y-78517643D01*
X144297859Y-78458000D01*
X143992141Y-78458000D01*
X143692298Y-78517643D01*
X143409853Y-78634636D01*
X143155658Y-78804483D01*
X142939483Y-79020658D01*
X142875000Y-79117164D01*
X142810517Y-79020658D01*
X142594342Y-78804483D01*
X142340147Y-78634636D01*
X142057702Y-78517643D01*
X141757859Y-78458000D01*
X141452141Y-78458000D01*
X141152298Y-78517643D01*
X140869853Y-78634636D01*
X140615658Y-78804483D01*
X140399483Y-79020658D01*
X140335000Y-79117164D01*
X140270517Y-79020658D01*
X140054342Y-78804483D01*
X139800147Y-78634636D01*
X139517702Y-78517643D01*
X139217859Y-78458000D01*
X138912141Y-78458000D01*
X138612298Y-78517643D01*
X138329853Y-78634636D01*
X138075658Y-78804483D01*
X137859483Y-79020658D01*
X137795000Y-79117164D01*
X137730517Y-79020658D01*
X137514342Y-78804483D01*
X137260147Y-78634636D01*
X136977702Y-78517643D01*
X136677859Y-78458000D01*
X136372141Y-78458000D01*
X136072298Y-78517643D01*
X135789853Y-78634636D01*
X135535658Y-78804483D01*
X135319483Y-79020658D01*
X135312000Y-79031857D01*
X135312000Y-78104074D01*
X135346094Y-78076094D01*
X135471158Y-77923703D01*
X135564088Y-77749842D01*
X135621315Y-77561191D01*
X135640638Y-77365001D01*
X135640638Y-76714999D01*
X135621315Y-76518809D01*
X135564088Y-76330158D01*
X135471158Y-76156297D01*
X135346094Y-76003906D01*
X135193703Y-75878842D01*
X135019842Y-75785912D01*
X134831191Y-75728685D01*
X134635001Y-75709362D01*
X134013246Y-75709362D01*
X133985000Y-75706580D01*
X133956754Y-75709362D01*
X133334999Y-75709362D01*
X133138809Y-75728685D01*
X132950158Y-75785912D01*
X132776297Y-75878842D01*
X132623906Y-76003906D01*
X132498842Y-76156297D01*
X132405912Y-76330158D01*
X132348685Y-76518809D01*
X132347000Y-76535917D01*
X132347000Y-68573877D01*
X132434342Y-68515517D01*
X132650517Y-68299342D01*
X132788899Y-68092238D01*
X132832615Y-68165131D01*
X133021586Y-68373519D01*
X133247580Y-68541037D01*
X133501913Y-68661246D01*
X133635961Y-68701904D01*
X133858000Y-68579915D01*
X133858000Y-67437000D01*
X134112000Y-67437000D01*
X134112000Y-68579915D01*
X134334039Y-68701904D01*
X134468087Y-68661246D01*
X134722420Y-68541037D01*
X134948414Y-68373519D01*
X134969741Y-68350000D01*
X146969362Y-68350000D01*
X146969362Y-71350000D01*
X146983881Y-71497418D01*
X147026882Y-71639170D01*
X147096710Y-71769810D01*
X147190683Y-71884317D01*
X147305190Y-71978290D01*
X147435830Y-72048118D01*
X147577582Y-72091119D01*
X147725000Y-72105638D01*
X150725000Y-72105638D01*
X150872418Y-72091119D01*
X151014170Y-72048118D01*
X151144810Y-71978290D01*
X151259317Y-71884317D01*
X151353290Y-71769810D01*
X151423118Y-71639170D01*
X151466119Y-71497418D01*
X151480638Y-71350000D01*
X151480638Y-68350000D01*
X151466119Y-68202582D01*
X151423118Y-68060830D01*
X151353290Y-67930190D01*
X151259317Y-67815683D01*
X151144810Y-67721710D01*
X151014170Y-67651882D01*
X150872418Y-67608881D01*
X150725000Y-67594362D01*
X147725000Y-67594362D01*
X147577582Y-67608881D01*
X147435830Y-67651882D01*
X147305190Y-67721710D01*
X147190683Y-67815683D01*
X147096710Y-67930190D01*
X147026882Y-68060830D01*
X146983881Y-68202582D01*
X146969362Y-68350000D01*
X134969741Y-68350000D01*
X135137385Y-68165131D01*
X135282070Y-67923881D01*
X135376909Y-67659040D01*
X135255624Y-67437000D01*
X134112000Y-67437000D01*
X133858000Y-67437000D01*
X133838000Y-67437000D01*
X133838000Y-67183000D01*
X133858000Y-67183000D01*
X133858000Y-66040085D01*
X134112000Y-66040085D01*
X134112000Y-67183000D01*
X135255624Y-67183000D01*
X135376909Y-66960960D01*
X135282070Y-66696119D01*
X135137385Y-66454869D01*
X134948414Y-66246481D01*
X134722420Y-66078963D01*
X134468087Y-65958754D01*
X134334039Y-65918096D01*
X134112000Y-66040085D01*
X133858000Y-66040085D01*
X133635961Y-65918096D01*
X133501913Y-65958754D01*
X133247580Y-66078963D01*
X133021586Y-66246481D01*
X132832615Y-66454869D01*
X132788899Y-66527762D01*
X132650517Y-66320658D01*
X132434342Y-66104483D01*
X132180147Y-65934636D01*
X131897702Y-65817643D01*
X131597859Y-65758000D01*
X131292141Y-65758000D01*
X131077000Y-65800795D01*
X131077000Y-64947317D01*
X133321490Y-62702827D01*
X133355908Y-62674581D01*
X133468626Y-62537234D01*
X133552383Y-62380535D01*
X133603960Y-62210508D01*
X133604209Y-62207977D01*
X133609829Y-62202357D01*
X133735901Y-62013677D01*
X133822741Y-61804026D01*
X133867012Y-61581462D01*
X133867012Y-61354538D01*
X133844627Y-61242000D01*
X134137859Y-61242000D01*
X134437702Y-61182357D01*
X134720147Y-61065364D01*
X134974342Y-60895517D01*
X135190517Y-60679342D01*
X135360364Y-60425147D01*
X135477357Y-60142702D01*
X135537000Y-59842859D01*
X135537000Y-59537141D01*
X135477357Y-59237298D01*
X135360364Y-58954853D01*
X135190517Y-58700658D01*
X134974342Y-58484483D01*
X134720147Y-58314636D01*
X134437702Y-58197643D01*
X134137859Y-58138000D01*
X133832141Y-58138000D01*
X133532298Y-58197643D01*
X133249853Y-58314636D01*
X132995658Y-58484483D01*
X132779483Y-58700658D01*
X132715000Y-58797164D01*
X132650517Y-58700658D01*
X132434342Y-58484483D01*
X132347000Y-58426123D01*
X132347000Y-57777620D01*
X134365143Y-55759478D01*
X134575026Y-55717729D01*
X134784677Y-55630889D01*
X134973357Y-55504817D01*
X135133817Y-55344357D01*
X135259889Y-55155677D01*
X135346729Y-54946026D01*
X135391000Y-54723462D01*
X135391000Y-54496538D01*
X135346729Y-54273974D01*
X135259889Y-54064323D01*
X135161737Y-53917428D01*
X163813177Y-53917428D01*
X164179365Y-54412216D01*
X164851837Y-54777501D01*
X165582650Y-55004575D01*
X166343721Y-55084710D01*
X167105803Y-55014828D01*
X167839608Y-54797614D01*
X168516936Y-54441416D01*
X168560635Y-54412216D01*
X168926823Y-53917428D01*
X190356177Y-53917428D01*
X190722365Y-54412216D01*
X191394837Y-54777501D01*
X192125650Y-55004575D01*
X192886721Y-55084710D01*
X193648803Y-55014828D01*
X194382608Y-54797614D01*
X195059936Y-54441416D01*
X195103635Y-54412216D01*
X195469823Y-53917428D01*
X192913000Y-51360605D01*
X190356177Y-53917428D01*
X168926823Y-53917428D01*
X166370000Y-51360605D01*
X163813177Y-53917428D01*
X135161737Y-53917428D01*
X135133817Y-53875643D01*
X134973357Y-53715183D01*
X134784677Y-53589111D01*
X134575026Y-53502271D01*
X134352462Y-53458000D01*
X134125538Y-53458000D01*
X133902974Y-53502271D01*
X133693323Y-53589111D01*
X133504643Y-53715183D01*
X133344183Y-53875643D01*
X133218111Y-54064323D01*
X133131271Y-54273974D01*
X133089522Y-54483857D01*
X130838518Y-56734862D01*
X130804105Y-56763104D01*
X130691387Y-56900451D01*
X130658784Y-56961448D01*
X130607630Y-57057150D01*
X130556052Y-57227178D01*
X130538637Y-57404000D01*
X130543001Y-57448309D01*
X130543001Y-58426123D01*
X130455658Y-58484483D01*
X130239483Y-58700658D01*
X130175000Y-58797164D01*
X130110517Y-58700658D01*
X129894342Y-58484483D01*
X129640147Y-58314636D01*
X129357702Y-58197643D01*
X129057859Y-58138000D01*
X128752141Y-58138000D01*
X128649114Y-58158494D01*
X127267000Y-56776380D01*
X127267000Y-55333607D01*
X127385889Y-55155677D01*
X127472729Y-54946026D01*
X127517000Y-54723462D01*
X127517000Y-54496538D01*
X127472729Y-54273974D01*
X127385889Y-54064323D01*
X127259817Y-53875643D01*
X127099357Y-53715183D01*
X126910677Y-53589111D01*
X126701026Y-53502271D01*
X126478462Y-53458000D01*
X126251538Y-53458000D01*
X126028974Y-53502271D01*
X125819323Y-53589111D01*
X125630643Y-53715183D01*
X125470183Y-53875643D01*
X125344111Y-54064323D01*
X125257271Y-54273974D01*
X125213000Y-54496538D01*
X125213000Y-54723462D01*
X125257271Y-54946026D01*
X125344111Y-55155677D01*
X125463000Y-55333607D01*
X125463001Y-57105691D01*
X125458637Y-57150000D01*
X125476052Y-57326822D01*
X125499464Y-57404000D01*
X125527630Y-57496850D01*
X125611387Y-57653549D01*
X125724105Y-57790896D01*
X125758518Y-57819138D01*
X126099738Y-58160358D01*
X125912298Y-58197643D01*
X125629853Y-58314636D01*
X125375658Y-58484483D01*
X125159483Y-58700658D01*
X125095000Y-58797164D01*
X125030517Y-58700658D01*
X124814342Y-58484483D01*
X124560147Y-58314636D01*
X124277702Y-58197643D01*
X123977859Y-58138000D01*
X123672141Y-58138000D01*
X123372298Y-58197643D01*
X123089853Y-58314636D01*
X122835658Y-58484483D01*
X122619483Y-58700658D01*
X122481101Y-58907762D01*
X122437385Y-58834869D01*
X122248414Y-58626481D01*
X122022420Y-58458963D01*
X121768087Y-58338754D01*
X121634039Y-58298096D01*
X121412000Y-58420085D01*
X121412000Y-59563000D01*
X121158000Y-59563000D01*
X121158000Y-58420085D01*
X120935961Y-58298096D01*
X120801913Y-58338754D01*
X120547580Y-58458963D01*
X120321586Y-58626481D01*
X120132615Y-58834869D01*
X120088899Y-58907762D01*
X119950517Y-58700658D01*
X119734342Y-58484483D01*
X119480147Y-58314636D01*
X119197702Y-58197643D01*
X118897859Y-58138000D01*
X118592141Y-58138000D01*
X118292298Y-58197643D01*
X118009853Y-58314636D01*
X117755658Y-58484483D01*
X117539483Y-58700658D01*
X117475000Y-58797164D01*
X117410517Y-58700658D01*
X117194342Y-58484483D01*
X116940147Y-58314636D01*
X116657702Y-58197643D01*
X116357859Y-58138000D01*
X116052141Y-58138000D01*
X115752298Y-58197643D01*
X115469853Y-58314636D01*
X115397471Y-58363000D01*
X114299074Y-58363000D01*
X114271094Y-58328906D01*
X114118703Y-58203842D01*
X113944842Y-58110912D01*
X113756191Y-58053685D01*
X113560001Y-58034362D01*
X112909999Y-58034362D01*
X112713809Y-58053685D01*
X112525158Y-58110912D01*
X112351297Y-58203842D01*
X112198906Y-58328906D01*
X112073842Y-58481297D01*
X111980912Y-58655158D01*
X111923685Y-58843809D01*
X111904362Y-59039999D01*
X111904362Y-59661754D01*
X111901580Y-59690000D01*
X111904362Y-59718246D01*
X111904362Y-60340001D01*
X111923685Y-60536191D01*
X111980912Y-60724842D01*
X112073842Y-60898703D01*
X112198906Y-61051094D01*
X112351297Y-61176158D01*
X112525158Y-61269088D01*
X112713809Y-61326315D01*
X112909999Y-61345638D01*
X113560001Y-61345638D01*
X113756191Y-61326315D01*
X113944842Y-61269088D01*
X114118703Y-61176158D01*
X114271094Y-61051094D01*
X114299074Y-61017000D01*
X115397471Y-61017000D01*
X115469853Y-61065364D01*
X115752298Y-61182357D01*
X116052141Y-61242000D01*
X116357859Y-61242000D01*
X116460886Y-61221506D01*
X117313861Y-62074482D01*
X117342104Y-62108896D01*
X117376517Y-62137138D01*
X117376519Y-62137140D01*
X117428960Y-62180177D01*
X117479451Y-62221614D01*
X117636150Y-62305371D01*
X117806177Y-62356948D01*
X117983000Y-62374364D01*
X118027307Y-62370000D01*
X122002701Y-62370000D01*
X122047000Y-62374363D01*
X122091299Y-62370000D01*
X122091307Y-62370000D01*
X122223823Y-62356948D01*
X122393850Y-62305371D01*
X122550549Y-62221614D01*
X122687896Y-62108896D01*
X122716143Y-62074477D01*
X123068620Y-61722000D01*
X124407394Y-61722000D01*
X126733000Y-64047606D01*
X126733000Y-65923847D01*
X126714039Y-65918096D01*
X126492000Y-66040085D01*
X126492000Y-67183000D01*
X126512000Y-67183000D01*
X126512000Y-67437000D01*
X126492000Y-67437000D01*
X126492000Y-68579915D01*
X126714039Y-68701904D01*
X126733001Y-68696153D01*
X126733001Y-72345691D01*
X126728637Y-72390000D01*
X126746052Y-72566822D01*
X126792875Y-72721176D01*
X126797630Y-72736850D01*
X126881387Y-72893549D01*
X126994105Y-73030896D01*
X127028519Y-73059139D01*
X127241000Y-73271620D01*
X127241001Y-93733378D01*
X125758523Y-95215857D01*
X125724104Y-95244104D01*
X125611386Y-95381452D01*
X125527629Y-95538151D01*
X125476052Y-95708178D01*
X125463000Y-95840694D01*
X125463000Y-95840701D01*
X125458637Y-95885000D01*
X125463000Y-95929300D01*
X125463000Y-97898380D01*
X123457000Y-95892380D01*
X123457000Y-89016153D01*
X123475961Y-89021904D01*
X123698000Y-88899915D01*
X123698000Y-87757000D01*
X123678000Y-87757000D01*
X123678000Y-87503000D01*
X123698000Y-87503000D01*
X123698000Y-86360085D01*
X123952000Y-86360085D01*
X123952000Y-88899915D01*
X124174039Y-89021904D01*
X124308087Y-88981246D01*
X124562420Y-88861037D01*
X124788414Y-88693519D01*
X124977385Y-88485131D01*
X125122070Y-88243881D01*
X125216909Y-87979040D01*
X125095624Y-87757000D01*
X124968000Y-87757000D01*
X124968000Y-87503000D01*
X125095624Y-87503000D01*
X125216909Y-87280960D01*
X125122070Y-87016119D01*
X124977385Y-86774869D01*
X124788414Y-86566481D01*
X124562420Y-86398963D01*
X124308087Y-86278754D01*
X124174039Y-86238096D01*
X123952000Y-86360085D01*
X123698000Y-86360085D01*
X123475961Y-86238096D01*
X123457000Y-86243847D01*
X123457000Y-85769299D01*
X123461363Y-85724999D01*
X123457000Y-85680700D01*
X123457000Y-85680693D01*
X123443948Y-85548177D01*
X123392371Y-85378150D01*
X123308614Y-85221451D01*
X123195896Y-85084104D01*
X123161477Y-85055857D01*
X120917000Y-82811380D01*
X120917000Y-81519205D01*
X121132141Y-81562000D01*
X121437859Y-81562000D01*
X121737702Y-81502357D01*
X122020147Y-81385364D01*
X122274342Y-81215517D01*
X122490517Y-80999342D01*
X122555000Y-80902836D01*
X122619483Y-80999342D01*
X122835658Y-81215517D01*
X123089853Y-81385364D01*
X123372298Y-81502357D01*
X123672141Y-81562000D01*
X123977859Y-81562000D01*
X124277702Y-81502357D01*
X124560147Y-81385364D01*
X124814342Y-81215517D01*
X125030517Y-80999342D01*
X125200364Y-80745147D01*
X125317357Y-80462702D01*
X125377000Y-80162859D01*
X125377000Y-79857141D01*
X125317357Y-79557298D01*
X125200364Y-79274853D01*
X125030517Y-79020658D01*
X124814342Y-78804483D01*
X124560147Y-78634636D01*
X124277702Y-78517643D01*
X123977859Y-78458000D01*
X123672141Y-78458000D01*
X123372298Y-78517643D01*
X123089853Y-78634636D01*
X122835658Y-78804483D01*
X122619483Y-79020658D01*
X122555000Y-79117164D01*
X122490517Y-79020658D01*
X122274342Y-78804483D01*
X122020147Y-78634636D01*
X121737702Y-78517643D01*
X121437859Y-78458000D01*
X121132141Y-78458000D01*
X120832298Y-78517643D01*
X120647805Y-78594063D01*
X120621482Y-78572460D01*
X119674544Y-77625523D01*
X119646297Y-77591104D01*
X119508950Y-77478386D01*
X119352251Y-77394629D01*
X119182224Y-77343052D01*
X119049708Y-77330000D01*
X119049700Y-77330000D01*
X119005401Y-77325637D01*
X118961102Y-77330000D01*
X116324620Y-77330000D01*
X112281000Y-73286380D01*
X112281000Y-68033611D01*
X112399889Y-67855681D01*
X112486729Y-67646030D01*
X112531000Y-67423466D01*
X112531000Y-67196542D01*
X112486729Y-66973978D01*
X112399889Y-66764327D01*
X112273817Y-66575647D01*
X112208170Y-66510000D01*
X114649362Y-66510000D01*
X114649362Y-68110000D01*
X114663881Y-68257418D01*
X114706882Y-68399170D01*
X114776710Y-68529810D01*
X114870683Y-68644317D01*
X114985190Y-68738290D01*
X115115830Y-68808118D01*
X115257582Y-68851119D01*
X115303001Y-68855592D01*
X115303000Y-69621404D01*
X115232508Y-69691896D01*
X115095492Y-69896956D01*
X115001114Y-70124805D01*
X114953000Y-70366689D01*
X114953000Y-70613311D01*
X115001114Y-70855195D01*
X115095492Y-71083044D01*
X115232508Y-71288104D01*
X115384404Y-71440000D01*
X115232508Y-71591896D01*
X115095492Y-71796956D01*
X115001114Y-72024805D01*
X114953000Y-72266689D01*
X114953000Y-72513311D01*
X115001114Y-72755195D01*
X115095492Y-72983044D01*
X115232508Y-73188104D01*
X115406896Y-73362492D01*
X115611956Y-73499508D01*
X115839805Y-73593886D01*
X116081689Y-73642000D01*
X116328311Y-73642000D01*
X116570195Y-73593886D01*
X116798044Y-73499508D01*
X117003104Y-73362492D01*
X117080401Y-73285195D01*
X117143823Y-73278948D01*
X117313850Y-73227371D01*
X117470549Y-73143614D01*
X117607896Y-73030896D01*
X117636143Y-72996477D01*
X119351484Y-71281137D01*
X119385896Y-71252896D01*
X119498614Y-71115549D01*
X119582371Y-70958850D01*
X119633948Y-70788823D01*
X119643940Y-70687371D01*
X119651364Y-70612000D01*
X119647000Y-70567693D01*
X119647000Y-68573877D01*
X119734342Y-68515517D01*
X119950517Y-68299342D01*
X120015000Y-68202836D01*
X120079483Y-68299342D01*
X120295658Y-68515517D01*
X120549853Y-68685364D01*
X120832298Y-68802357D01*
X121132141Y-68862000D01*
X121437859Y-68862000D01*
X121737702Y-68802357D01*
X122020147Y-68685364D01*
X122274342Y-68515517D01*
X122490517Y-68299342D01*
X122555000Y-68202836D01*
X122619483Y-68299342D01*
X122835658Y-68515517D01*
X123089853Y-68685364D01*
X123372298Y-68802357D01*
X123672141Y-68862000D01*
X123977859Y-68862000D01*
X124277702Y-68802357D01*
X124560147Y-68685364D01*
X124814342Y-68515517D01*
X125030517Y-68299342D01*
X125168899Y-68092238D01*
X125212615Y-68165131D01*
X125401586Y-68373519D01*
X125627580Y-68541037D01*
X125881913Y-68661246D01*
X126015961Y-68701904D01*
X126238000Y-68579915D01*
X126238000Y-67437000D01*
X126218000Y-67437000D01*
X126218000Y-67183000D01*
X126238000Y-67183000D01*
X126238000Y-66040085D01*
X126015961Y-65918096D01*
X125881913Y-65958754D01*
X125627580Y-66078963D01*
X125401586Y-66246481D01*
X125212615Y-66454869D01*
X125168899Y-66527762D01*
X125030517Y-66320658D01*
X124814342Y-66104483D01*
X124560147Y-65934636D01*
X124277702Y-65817643D01*
X123977859Y-65758000D01*
X123672141Y-65758000D01*
X123372298Y-65817643D01*
X123089853Y-65934636D01*
X122835658Y-66104483D01*
X122619483Y-66320658D01*
X122555000Y-66417164D01*
X122490517Y-66320658D01*
X122274342Y-66104483D01*
X122020147Y-65934636D01*
X121737702Y-65817643D01*
X121437859Y-65758000D01*
X121132141Y-65758000D01*
X120832298Y-65817643D01*
X120549853Y-65934636D01*
X120295658Y-66104483D01*
X120079483Y-66320658D01*
X120015000Y-66417164D01*
X119950517Y-66320658D01*
X119734342Y-66104483D01*
X119480147Y-65934636D01*
X119197702Y-65817643D01*
X118897859Y-65758000D01*
X118592141Y-65758000D01*
X118292298Y-65817643D01*
X118009853Y-65934636D01*
X117755658Y-66104483D01*
X117680892Y-66179249D01*
X117633290Y-66090190D01*
X117539317Y-65975683D01*
X117424810Y-65881710D01*
X117294170Y-65811882D01*
X117152418Y-65768881D01*
X117005000Y-65754362D01*
X115405000Y-65754362D01*
X115257582Y-65768881D01*
X115115830Y-65811882D01*
X114985190Y-65881710D01*
X114870683Y-65975683D01*
X114776710Y-66090190D01*
X114706882Y-66220830D01*
X114663881Y-66362582D01*
X114649362Y-66510000D01*
X112208170Y-66510000D01*
X112113357Y-66415187D01*
X111924677Y-66289115D01*
X111715026Y-66202275D01*
X111492462Y-66158004D01*
X111265538Y-66158004D01*
X111265000Y-66158111D01*
X111265000Y-64477601D01*
X111383889Y-64299671D01*
X111470729Y-64090020D01*
X111515000Y-63867456D01*
X111515000Y-63640532D01*
X111470729Y-63417968D01*
X111383889Y-63208317D01*
X111257817Y-63019637D01*
X111097357Y-62859177D01*
X110908677Y-62733105D01*
X110699026Y-62646265D01*
X110489143Y-62604516D01*
X108217000Y-60332374D01*
X108217000Y-55873877D01*
X108304342Y-55815517D01*
X108520517Y-55599342D01*
X108690364Y-55345147D01*
X108807357Y-55062702D01*
X108867000Y-54762859D01*
X108867000Y-54457141D01*
X108807357Y-54157298D01*
X108690364Y-53874853D01*
X108520517Y-53620658D01*
X108304342Y-53404483D01*
X108097238Y-53266101D01*
X108170131Y-53222385D01*
X108378519Y-53033414D01*
X108546037Y-52807420D01*
X108666246Y-52553087D01*
X108706904Y-52419039D01*
X108584915Y-52197000D01*
X107442000Y-52197000D01*
X107442000Y-51943000D01*
X108584915Y-51943000D01*
X108706904Y-51720961D01*
X108666246Y-51586913D01*
X108546037Y-51332580D01*
X108378519Y-51106586D01*
X108170131Y-50917615D01*
X107974018Y-50800000D01*
X108170131Y-50682385D01*
X108378519Y-50493414D01*
X108546037Y-50267420D01*
X108666246Y-50013087D01*
X108706904Y-49879039D01*
X108584915Y-49657000D01*
X107442000Y-49657000D01*
X107442000Y-49403000D01*
X108584915Y-49403000D01*
X108585011Y-49402824D01*
X147080098Y-49402824D01*
X147129666Y-49820451D01*
X147259757Y-50220383D01*
X147417786Y-50516038D01*
X147733347Y-50672048D01*
X147775395Y-50630001D01*
X147955000Y-50809606D01*
X147912952Y-50851653D01*
X148068962Y-51167214D01*
X148443745Y-51358020D01*
X148848551Y-51472044D01*
X149267824Y-51504902D01*
X149685451Y-51455334D01*
X150085383Y-51325243D01*
X150381038Y-51167214D01*
X150387214Y-51154721D01*
X162466290Y-51154721D01*
X162536172Y-51916803D01*
X162753386Y-52650608D01*
X163109584Y-53327936D01*
X163138784Y-53371635D01*
X163633572Y-53737823D01*
X166190395Y-51181000D01*
X166549605Y-51181000D01*
X169106428Y-53737823D01*
X169601216Y-53371635D01*
X169966501Y-52699163D01*
X170193575Y-51968350D01*
X170273710Y-51207279D01*
X170268891Y-51154721D01*
X189009290Y-51154721D01*
X189079172Y-51916803D01*
X189296386Y-52650608D01*
X189652584Y-53327936D01*
X189681784Y-53371635D01*
X190176572Y-53737823D01*
X192733395Y-51181000D01*
X190176572Y-48624177D01*
X189681784Y-48990365D01*
X189316499Y-49662837D01*
X189089425Y-50393650D01*
X189009290Y-51154721D01*
X170268891Y-51154721D01*
X170203828Y-50445197D01*
X169986614Y-49711392D01*
X169630416Y-49034064D01*
X169601216Y-48990365D01*
X169106428Y-48624177D01*
X166549605Y-51181000D01*
X166190395Y-51181000D01*
X163633572Y-48624177D01*
X163138784Y-48990365D01*
X162773499Y-49662837D01*
X162546425Y-50393650D01*
X162466290Y-51154721D01*
X150387214Y-51154721D01*
X150537048Y-50851653D01*
X150495001Y-50809606D01*
X150674606Y-50630001D01*
X150716653Y-50672048D01*
X151032214Y-50516038D01*
X151223020Y-50141255D01*
X151337044Y-49736449D01*
X151369902Y-49317176D01*
X151320334Y-48899549D01*
X151190243Y-48499617D01*
X151160822Y-48444572D01*
X163813177Y-48444572D01*
X166370000Y-51001395D01*
X168926823Y-48444572D01*
X190356177Y-48444572D01*
X192913000Y-51001395D01*
X195469823Y-48444572D01*
X195103635Y-47949784D01*
X194431163Y-47584499D01*
X193700350Y-47357425D01*
X192939279Y-47277290D01*
X192177197Y-47347172D01*
X191443392Y-47564386D01*
X190766064Y-47920584D01*
X190722365Y-47949784D01*
X190356177Y-48444572D01*
X168926823Y-48444572D01*
X168560635Y-47949784D01*
X167888163Y-47584499D01*
X167157350Y-47357425D01*
X166396279Y-47277290D01*
X165634197Y-47347172D01*
X164900392Y-47564386D01*
X164223064Y-47920584D01*
X164179365Y-47949784D01*
X163813177Y-48444572D01*
X151160822Y-48444572D01*
X151032214Y-48203962D01*
X150716653Y-48047952D01*
X150674606Y-48090000D01*
X150495001Y-47910395D01*
X150537048Y-47868347D01*
X150381038Y-47552786D01*
X150006255Y-47361980D01*
X149601449Y-47247956D01*
X149182176Y-47215098D01*
X148764549Y-47264666D01*
X148364617Y-47394757D01*
X148068962Y-47552786D01*
X147912952Y-47868347D01*
X147955000Y-47910395D01*
X147775395Y-48090000D01*
X147733347Y-48047952D01*
X147417786Y-48203962D01*
X147226980Y-48578745D01*
X147112956Y-48983551D01*
X147080098Y-49402824D01*
X108585011Y-49402824D01*
X108706904Y-49180961D01*
X108666246Y-49046913D01*
X108546037Y-48792580D01*
X108378519Y-48566586D01*
X108214920Y-48418231D01*
X108239482Y-48415812D01*
X108359180Y-48379502D01*
X108469494Y-48320537D01*
X108566185Y-48241185D01*
X108645537Y-48144494D01*
X108704502Y-48034180D01*
X108740812Y-47914482D01*
X108753072Y-47790000D01*
X108750000Y-47275750D01*
X108591250Y-47117000D01*
X107950000Y-47117000D01*
X107974776Y-47114560D01*
X107998601Y-47107333D01*
X108020557Y-47095597D01*
X108039803Y-47079803D01*
X108055597Y-47060557D01*
X108067333Y-47038601D01*
X108074560Y-47014776D01*
X108077000Y-46990000D01*
X108077000Y-46863000D01*
X108591250Y-46863000D01*
X108750000Y-46704250D01*
X108753072Y-46190000D01*
X108740812Y-46065518D01*
X108704502Y-45945820D01*
X108645537Y-45835506D01*
X108566185Y-45738815D01*
X108469494Y-45659463D01*
X108359180Y-45600498D01*
X108239482Y-45564188D01*
X108115000Y-45551928D01*
X107600750Y-45555000D01*
X107562750Y-45593000D01*
X107067250Y-45593000D01*
X107029250Y-45555000D01*
X106515000Y-45551928D01*
X106390518Y-45564188D01*
X106270820Y-45600498D01*
X106160506Y-45659463D01*
X106063815Y-45738815D01*
X105984463Y-45835506D01*
X105925498Y-45945820D01*
X105889188Y-46065518D01*
X105876928Y-46190000D01*
X105877155Y-46228000D01*
X101052421Y-46228000D01*
X100900517Y-46000658D01*
X100684342Y-45784483D01*
X100430147Y-45614636D01*
X100147702Y-45497643D01*
X99847859Y-45438000D01*
X99542141Y-45438000D01*
X99242298Y-45497643D01*
X98959853Y-45614636D01*
X98705658Y-45784483D01*
X98489483Y-46000658D01*
X98319636Y-46254853D01*
X98202643Y-46537298D01*
X98143000Y-46837141D01*
X98143000Y-47142859D01*
X98202643Y-47442702D01*
X98319636Y-47725147D01*
X98489483Y-47979342D01*
X98705658Y-48195517D01*
X98802164Y-48260000D01*
X98705658Y-48324483D01*
X98489483Y-48540658D01*
X98319636Y-48794853D01*
X98202643Y-49077298D01*
X98143000Y-49377141D01*
X98143000Y-49682859D01*
X98202643Y-49982702D01*
X98319636Y-50265147D01*
X98489483Y-50519342D01*
X98705658Y-50735517D01*
X98802164Y-50800000D01*
X98705658Y-50864483D01*
X98489483Y-51080658D01*
X98319636Y-51334853D01*
X98202643Y-51617298D01*
X98143000Y-51917141D01*
X98143000Y-52222859D01*
X98202643Y-52522702D01*
X98319636Y-52805147D01*
X98489483Y-53059342D01*
X98705658Y-53275517D01*
X98802164Y-53340000D01*
X98705658Y-53404483D01*
X98489483Y-53620658D01*
X98319636Y-53874853D01*
X98202643Y-54157298D01*
X98143000Y-54457141D01*
X98143000Y-54762859D01*
X98202643Y-55062702D01*
X98319636Y-55345147D01*
X98489483Y-55599342D01*
X98705658Y-55815517D01*
X98959853Y-55985364D01*
X99242298Y-56102357D01*
X99542141Y-56162000D01*
X99847859Y-56162000D01*
X100147702Y-56102357D01*
X100430147Y-55985364D01*
X100684342Y-55815517D01*
X100900517Y-55599342D01*
X101070364Y-55345147D01*
X101187357Y-55062702D01*
X101224641Y-54875262D01*
X102795501Y-56446122D01*
X102795501Y-58138788D01*
X102654705Y-58063531D01*
X102324452Y-57963350D01*
X102067069Y-57938000D01*
X100416061Y-57938000D01*
X100330000Y-57929524D01*
X100243939Y-57938000D01*
X100243931Y-57938000D01*
X99986548Y-57963350D01*
X99656295Y-58063531D01*
X99405389Y-58197643D01*
X99351931Y-58226217D01*
X99214805Y-58338754D01*
X99085155Y-58445155D01*
X99030290Y-58512008D01*
X97424000Y-60118298D01*
X97424000Y-43599005D01*
X97437044Y-43465967D01*
X97464645Y-43374551D01*
X97509473Y-43290241D01*
X97569826Y-43216241D01*
X97643402Y-43155373D01*
X97727398Y-43109957D01*
X97818618Y-43081719D01*
X97949152Y-43068000D01*
X195287995Y-43068000D01*
X195421033Y-43081044D01*
G37*
%TD.AperFunction*%
D29*
X165227000Y-85090000D02*
X165247000Y-85090000D01*
X165247000Y-85344000D01*
X165227000Y-85344000D01*
X165227000Y-85364000D01*
X164973000Y-85364000D01*
X164973000Y-85344000D01*
X164953000Y-85344000D01*
X164953000Y-85090000D01*
X164973000Y-85090000D01*
X164973000Y-85070000D01*
X165227000Y-85070000D01*
X165227000Y-85090000D01*
%TA.AperFunction,Conductor*%
D30*
G36*
X165227000Y-85090000D02*
G01*
X165247000Y-85090000D01*
X165247000Y-85344000D01*
X165227000Y-85344000D01*
X165227000Y-85364000D01*
X164973000Y-85364000D01*
X164973000Y-85344000D01*
X164953000Y-85344000D01*
X164953000Y-85090000D01*
X164973000Y-85090000D01*
X164973000Y-85070000D01*
X165227000Y-85070000D01*
X165227000Y-85090000D01*
G37*
%TD.AperFunction*%
D29*
X132553859Y-90040481D02*
X132582104Y-90074897D01*
X132719451Y-90187615D01*
X132876150Y-90271372D01*
X133046177Y-90322949D01*
X133178693Y-90336001D01*
X133178700Y-90336001D01*
X133223000Y-90340364D01*
X133267299Y-90336001D01*
X133383381Y-90336001D01*
X141973001Y-98925622D01*
X141973000Y-106635700D01*
X141968637Y-106680000D01*
X141973000Y-106724299D01*
X141973000Y-106724306D01*
X141986052Y-106856822D01*
X142037629Y-107026849D01*
X142121386Y-107183548D01*
X142234104Y-107320896D01*
X142268523Y-107349143D01*
X145529001Y-110609621D01*
X145529001Y-117015515D01*
X145497026Y-117002271D01*
X145293261Y-116961739D01*
X145252729Y-116757974D01*
X145165889Y-116548323D01*
X145039817Y-116359643D01*
X144879357Y-116199183D01*
X144690677Y-116073111D01*
X144481026Y-115986271D01*
X144258462Y-115942000D01*
X144031538Y-115942000D01*
X143808974Y-115986271D01*
X143599323Y-116073111D01*
X143410643Y-116199183D01*
X143250183Y-116359643D01*
X143124111Y-116548323D01*
X143037271Y-116757974D01*
X142993000Y-116980538D01*
X142993000Y-117207462D01*
X142996664Y-117225882D01*
X142989000Y-117303694D01*
X142989000Y-117303701D01*
X142984637Y-117348000D01*
X142989000Y-117392299D01*
X142989001Y-131864392D01*
X142960967Y-131906347D01*
X138697000Y-127642380D01*
X138697000Y-116956153D01*
X138715961Y-116961904D01*
X138938000Y-116839915D01*
X138938000Y-115697000D01*
X138918000Y-115697000D01*
X138918000Y-115443000D01*
X138938000Y-115443000D01*
X138938000Y-114300085D01*
X139192000Y-114300085D01*
X139192000Y-116839915D01*
X139414039Y-116961904D01*
X139548087Y-116921246D01*
X139802420Y-116801037D01*
X140028414Y-116633519D01*
X140217385Y-116425131D01*
X140362070Y-116183881D01*
X140456909Y-115919040D01*
X140335624Y-115697000D01*
X140208000Y-115697000D01*
X140208000Y-115443000D01*
X140335624Y-115443000D01*
X140456909Y-115220960D01*
X140362070Y-114956119D01*
X140217385Y-114714869D01*
X140028414Y-114506481D01*
X139802420Y-114338963D01*
X139548087Y-114218754D01*
X139414039Y-114178096D01*
X139192000Y-114300085D01*
X138938000Y-114300085D01*
X138715961Y-114178096D01*
X138697000Y-114183847D01*
X138697000Y-101839205D01*
X138912141Y-101882000D01*
X139217859Y-101882000D01*
X139517702Y-101822357D01*
X139800147Y-101705364D01*
X140054342Y-101535517D01*
X140270517Y-101319342D01*
X140440364Y-101065147D01*
X140557357Y-100782702D01*
X140617000Y-100482859D01*
X140617000Y-100177141D01*
X140557357Y-99877298D01*
X140440364Y-99594853D01*
X140270517Y-99340658D01*
X140054342Y-99124483D01*
X139800147Y-98954636D01*
X139517702Y-98837643D01*
X139217859Y-98778000D01*
X138912141Y-98778000D01*
X138612298Y-98837643D01*
X138330138Y-98954518D01*
X132093000Y-92717380D01*
X132093000Y-89579622D01*
X132553859Y-90040481D01*
%TA.AperFunction,Conductor*%
D30*
G36*
X132553859Y-90040481D02*
G01*
X132582104Y-90074897D01*
X132719451Y-90187615D01*
X132876150Y-90271372D01*
X133046177Y-90322949D01*
X133178693Y-90336001D01*
X133178700Y-90336001D01*
X133223000Y-90340364D01*
X133267299Y-90336001D01*
X133383381Y-90336001D01*
X141973001Y-98925622D01*
X141973000Y-106635700D01*
X141968637Y-106680000D01*
X141973000Y-106724299D01*
X141973000Y-106724306D01*
X141986052Y-106856822D01*
X142037629Y-107026849D01*
X142121386Y-107183548D01*
X142234104Y-107320896D01*
X142268523Y-107349143D01*
X145529001Y-110609621D01*
X145529001Y-117015515D01*
X145497026Y-117002271D01*
X145293261Y-116961739D01*
X145252729Y-116757974D01*
X145165889Y-116548323D01*
X145039817Y-116359643D01*
X144879357Y-116199183D01*
X144690677Y-116073111D01*
X144481026Y-115986271D01*
X144258462Y-115942000D01*
X144031538Y-115942000D01*
X143808974Y-115986271D01*
X143599323Y-116073111D01*
X143410643Y-116199183D01*
X143250183Y-116359643D01*
X143124111Y-116548323D01*
X143037271Y-116757974D01*
X142993000Y-116980538D01*
X142993000Y-117207462D01*
X142996664Y-117225882D01*
X142989000Y-117303694D01*
X142989000Y-117303701D01*
X142984637Y-117348000D01*
X142989000Y-117392299D01*
X142989001Y-131864392D01*
X142960967Y-131906347D01*
X138697000Y-127642380D01*
X138697000Y-116956153D01*
X138715961Y-116961904D01*
X138938000Y-116839915D01*
X138938000Y-115697000D01*
X138918000Y-115697000D01*
X138918000Y-115443000D01*
X138938000Y-115443000D01*
X138938000Y-114300085D01*
X139192000Y-114300085D01*
X139192000Y-116839915D01*
X139414039Y-116961904D01*
X139548087Y-116921246D01*
X139802420Y-116801037D01*
X140028414Y-116633519D01*
X140217385Y-116425131D01*
X140362070Y-116183881D01*
X140456909Y-115919040D01*
X140335624Y-115697000D01*
X140208000Y-115697000D01*
X140208000Y-115443000D01*
X140335624Y-115443000D01*
X140456909Y-115220960D01*
X140362070Y-114956119D01*
X140217385Y-114714869D01*
X140028414Y-114506481D01*
X139802420Y-114338963D01*
X139548087Y-114218754D01*
X139414039Y-114178096D01*
X139192000Y-114300085D01*
X138938000Y-114300085D01*
X138715961Y-114178096D01*
X138697000Y-114183847D01*
X138697000Y-101839205D01*
X138912141Y-101882000D01*
X139217859Y-101882000D01*
X139517702Y-101822357D01*
X139800147Y-101705364D01*
X140054342Y-101535517D01*
X140270517Y-101319342D01*
X140440364Y-101065147D01*
X140557357Y-100782702D01*
X140617000Y-100482859D01*
X140617000Y-100177141D01*
X140557357Y-99877298D01*
X140440364Y-99594853D01*
X140270517Y-99340658D01*
X140054342Y-99124483D01*
X139800147Y-98954636D01*
X139517702Y-98837643D01*
X139217859Y-98778000D01*
X138912141Y-98778000D01*
X138612298Y-98837643D01*
X138330138Y-98954518D01*
X132093000Y-92717380D01*
X132093000Y-89579622D01*
X132553859Y-90040481D01*
G37*
%TD.AperFunction*%
D29*
X101397629Y-101946849D02*
X101481386Y-102103548D01*
X101594104Y-102240896D01*
X101628523Y-102269143D01*
X102603001Y-103243621D01*
X102603000Y-112551696D01*
X102408461Y-112513000D01*
X102181537Y-112513000D01*
X101958973Y-112557271D01*
X101749322Y-112644111D01*
X101560642Y-112770183D01*
X101400182Y-112930643D01*
X101274110Y-113119323D01*
X101187270Y-113328974D01*
X101142999Y-113551538D01*
X101142999Y-113778462D01*
X101187270Y-114001026D01*
X101245103Y-114140647D01*
X101092000Y-114293750D01*
X101092000Y-115443000D01*
X101112000Y-115443000D01*
X101112000Y-115697000D01*
X101092000Y-115697000D01*
X101092000Y-116846250D01*
X101250750Y-117005000D01*
X101391410Y-117005840D01*
X101388636Y-117034001D01*
X101406051Y-117210823D01*
X101447664Y-117348000D01*
X101457629Y-117380851D01*
X101541386Y-117537550D01*
X101587397Y-117593614D01*
X101625200Y-117639677D01*
X101654104Y-117674897D01*
X101688517Y-117703139D01*
X103873000Y-119887623D01*
X103873001Y-126999310D01*
X103861469Y-126961295D01*
X103698783Y-126656931D01*
X103479845Y-126390155D01*
X103402033Y-126326296D01*
X103213069Y-126171217D01*
X102908705Y-126008531D01*
X102578452Y-125908350D01*
X102321069Y-125883000D01*
X102321068Y-125883000D01*
X102235000Y-125874523D01*
X102148931Y-125883000D01*
X101051984Y-125883000D01*
X100976035Y-125875439D01*
X100177000Y-125076405D01*
X100177000Y-123788601D01*
X100224842Y-123774088D01*
X100398703Y-123681158D01*
X100551094Y-123556094D01*
X100676158Y-123403703D01*
X100769088Y-123229842D01*
X100826315Y-123041191D01*
X100845638Y-122845001D01*
X100845638Y-120994999D01*
X100826315Y-120798809D01*
X100769088Y-120610158D01*
X100676158Y-120436297D01*
X100551094Y-120283906D01*
X100398703Y-120158842D01*
X100224842Y-120065912D01*
X100177000Y-120051399D01*
X100177000Y-117008000D01*
X100679250Y-117005000D01*
X100838000Y-116846250D01*
X100838000Y-115697000D01*
X100818000Y-115697000D01*
X100818000Y-115443000D01*
X100838000Y-115443000D01*
X100838000Y-114293750D01*
X100679250Y-114135000D01*
X100177000Y-114132000D01*
X100177000Y-101882000D01*
X101117859Y-101882000D01*
X101193008Y-101867052D01*
X101269245Y-101859543D01*
X101342554Y-101837305D01*
X101363156Y-101833207D01*
X101397629Y-101946849D01*
%TA.AperFunction,Conductor*%
D30*
G36*
X101397629Y-101946849D02*
G01*
X101481386Y-102103548D01*
X101594104Y-102240896D01*
X101628523Y-102269143D01*
X102603001Y-103243621D01*
X102603000Y-112551696D01*
X102408461Y-112513000D01*
X102181537Y-112513000D01*
X101958973Y-112557271D01*
X101749322Y-112644111D01*
X101560642Y-112770183D01*
X101400182Y-112930643D01*
X101274110Y-113119323D01*
X101187270Y-113328974D01*
X101142999Y-113551538D01*
X101142999Y-113778462D01*
X101187270Y-114001026D01*
X101245103Y-114140647D01*
X101092000Y-114293750D01*
X101092000Y-115443000D01*
X101112000Y-115443000D01*
X101112000Y-115697000D01*
X101092000Y-115697000D01*
X101092000Y-116846250D01*
X101250750Y-117005000D01*
X101391410Y-117005840D01*
X101388636Y-117034001D01*
X101406051Y-117210823D01*
X101447664Y-117348000D01*
X101457629Y-117380851D01*
X101541386Y-117537550D01*
X101587397Y-117593614D01*
X101625200Y-117639677D01*
X101654104Y-117674897D01*
X101688517Y-117703139D01*
X103873000Y-119887623D01*
X103873001Y-126999310D01*
X103861469Y-126961295D01*
X103698783Y-126656931D01*
X103479845Y-126390155D01*
X103402033Y-126326296D01*
X103213069Y-126171217D01*
X102908705Y-126008531D01*
X102578452Y-125908350D01*
X102321069Y-125883000D01*
X102321068Y-125883000D01*
X102235000Y-125874523D01*
X102148931Y-125883000D01*
X101051984Y-125883000D01*
X100976035Y-125875439D01*
X100177000Y-125076405D01*
X100177000Y-123788601D01*
X100224842Y-123774088D01*
X100398703Y-123681158D01*
X100551094Y-123556094D01*
X100676158Y-123403703D01*
X100769088Y-123229842D01*
X100826315Y-123041191D01*
X100845638Y-122845001D01*
X100845638Y-120994999D01*
X100826315Y-120798809D01*
X100769088Y-120610158D01*
X100676158Y-120436297D01*
X100551094Y-120283906D01*
X100398703Y-120158842D01*
X100224842Y-120065912D01*
X100177000Y-120051399D01*
X100177000Y-117008000D01*
X100679250Y-117005000D01*
X100838000Y-116846250D01*
X100838000Y-115697000D01*
X100818000Y-115697000D01*
X100818000Y-115443000D01*
X100838000Y-115443000D01*
X100838000Y-114293750D01*
X100679250Y-114135000D01*
X100177000Y-114132000D01*
X100177000Y-101882000D01*
X101117859Y-101882000D01*
X101193008Y-101867052D01*
X101269245Y-101859543D01*
X101342554Y-101837305D01*
X101363156Y-101833207D01*
X101397629Y-101946849D01*
G37*
%TD.AperFunction*%
D29*
X102603001Y-90099121D02*
X102603000Y-96855919D01*
X102601315Y-96838809D01*
X102544088Y-96650158D01*
X102451158Y-96476297D01*
X102326094Y-96323906D01*
X102173703Y-96198842D01*
X101999842Y-96105912D01*
X101811191Y-96048685D01*
X101615001Y-96029362D01*
X100993246Y-96029362D01*
X100965000Y-96026580D01*
X100936754Y-96029362D01*
X100314999Y-96029362D01*
X100278062Y-96033000D01*
X100177000Y-96033000D01*
X100177000Y-89185638D01*
X101689518Y-89185638D01*
X102603001Y-90099121D01*
%TA.AperFunction,Conductor*%
D30*
G36*
X102603001Y-90099121D02*
G01*
X102603000Y-96855919D01*
X102601315Y-96838809D01*
X102544088Y-96650158D01*
X102451158Y-96476297D01*
X102326094Y-96323906D01*
X102173703Y-96198842D01*
X101999842Y-96105912D01*
X101811191Y-96048685D01*
X101615001Y-96029362D01*
X100993246Y-96029362D01*
X100965000Y-96026580D01*
X100936754Y-96029362D01*
X100314999Y-96029362D01*
X100278062Y-96033000D01*
X100177000Y-96033000D01*
X100177000Y-89185638D01*
X101689518Y-89185638D01*
X102603001Y-90099121D01*
G37*
%TD.AperFunction*%
D29*
X100263809Y-71461315D02*
X100459999Y-71480638D01*
X101085001Y-71480638D01*
X101111750Y-71478003D01*
X101111750Y-71489450D01*
X101107387Y-71533750D01*
X101111750Y-71578049D01*
X101111750Y-71578056D01*
X101124802Y-71710572D01*
X101176379Y-71880599D01*
X101260136Y-72037298D01*
X101372854Y-72174646D01*
X101407273Y-72202893D01*
X103111001Y-73906621D01*
X103111000Y-75725490D01*
X102984184Y-75713000D01*
X102984173Y-75713000D01*
X102918999Y-75706581D01*
X102853825Y-75713000D01*
X102124173Y-75713000D01*
X102058999Y-75706581D01*
X101993825Y-75713000D01*
X101651938Y-75713000D01*
X101615001Y-75709362D01*
X100993246Y-75709362D01*
X100965000Y-75706580D01*
X100936754Y-75709362D01*
X100314999Y-75709362D01*
X100278062Y-75713000D01*
X100177000Y-75713000D01*
X100177000Y-71434982D01*
X100263809Y-71461315D01*
%TA.AperFunction,Conductor*%
D30*
G36*
X100263809Y-71461315D02*
G01*
X100459999Y-71480638D01*
X101085001Y-71480638D01*
X101111750Y-71478003D01*
X101111750Y-71489450D01*
X101107387Y-71533750D01*
X101111750Y-71578049D01*
X101111750Y-71578056D01*
X101124802Y-71710572D01*
X101176379Y-71880599D01*
X101260136Y-72037298D01*
X101372854Y-72174646D01*
X101407273Y-72202893D01*
X103111001Y-73906621D01*
X103111000Y-75725490D01*
X102984184Y-75713000D01*
X102984173Y-75713000D01*
X102918999Y-75706581D01*
X102853825Y-75713000D01*
X102124173Y-75713000D01*
X102058999Y-75706581D01*
X101993825Y-75713000D01*
X101651938Y-75713000D01*
X101615001Y-75709362D01*
X100993246Y-75709362D01*
X100965000Y-75706580D01*
X100936754Y-75709362D01*
X100314999Y-75709362D01*
X100278062Y-75713000D01*
X100177000Y-75713000D01*
X100177000Y-71434982D01*
X100263809Y-71461315D01*
G37*
%TD.AperFunction*%
%TD*%
D29*
%TO.N,GND*%
X172238000Y-117384298D02*
X170907008Y-118715290D01*
X170840155Y-118770155D01*
X170621217Y-119036931D01*
X170458531Y-119341295D01*
X170358350Y-119671548D01*
X170324523Y-120015000D01*
X170358350Y-120358452D01*
X170458531Y-120688705D01*
X170621217Y-120993069D01*
X170756573Y-121158000D01*
X165740620Y-121158000D01*
X165614478Y-121031858D01*
X165572729Y-120821974D01*
X165485889Y-120612323D01*
X165359817Y-120423643D01*
X165199357Y-120263183D01*
X165010677Y-120137111D01*
X164801026Y-120050271D01*
X164578462Y-120006000D01*
X164351538Y-120006000D01*
X164128974Y-120050271D01*
X164069508Y-120074902D01*
X162052000Y-118057394D01*
X162052000Y-114987606D01*
X163402759Y-113636847D01*
X163589538Y-113674000D01*
X163816462Y-113674000D01*
X164039026Y-113629729D01*
X164248677Y-113542889D01*
X164437357Y-113416817D01*
X164597817Y-113256357D01*
X164723889Y-113067677D01*
X164810729Y-112858026D01*
X164855000Y-112635462D01*
X164855000Y-112522000D01*
X172238000Y-112522000D01*
X172238000Y-117384298D01*
%TA.AperFunction,Conductor*%
D30*
G36*
X172238000Y-117384298D02*
G01*
X170907008Y-118715290D01*
X170840155Y-118770155D01*
X170621217Y-119036931D01*
X170458531Y-119341295D01*
X170358350Y-119671548D01*
X170324523Y-120015000D01*
X170358350Y-120358452D01*
X170458531Y-120688705D01*
X170621217Y-120993069D01*
X170756573Y-121158000D01*
X165740620Y-121158000D01*
X165614478Y-121031858D01*
X165572729Y-120821974D01*
X165485889Y-120612323D01*
X165359817Y-120423643D01*
X165199357Y-120263183D01*
X165010677Y-120137111D01*
X164801026Y-120050271D01*
X164578462Y-120006000D01*
X164351538Y-120006000D01*
X164128974Y-120050271D01*
X164069508Y-120074902D01*
X162052000Y-118057394D01*
X162052000Y-114987606D01*
X163402759Y-113636847D01*
X163589538Y-113674000D01*
X163816462Y-113674000D01*
X164039026Y-113629729D01*
X164248677Y-113542889D01*
X164437357Y-113416817D01*
X164597817Y-113256357D01*
X164723889Y-113067677D01*
X164810729Y-112858026D01*
X164855000Y-112635462D01*
X164855000Y-112522000D01*
X172238000Y-112522000D01*
X172238000Y-117384298D01*
G37*
%TD.AperFunction*%
D29*
X195819001Y-121158000D02*
X175318427Y-121158000D01*
X175453783Y-120993069D01*
X175616469Y-120688705D01*
X175716650Y-120358452D01*
X175750477Y-120015000D01*
X175742000Y-119928931D01*
X175742000Y-118196061D01*
X175750476Y-118110000D01*
X175742000Y-118023939D01*
X175742000Y-112522000D01*
X195819001Y-112522000D01*
X195819001Y-121158000D01*
%TA.AperFunction,Conductor*%
D30*
G36*
X195819001Y-121158000D02*
G01*
X175318427Y-121158000D01*
X175453783Y-120993069D01*
X175616469Y-120688705D01*
X175716650Y-120358452D01*
X175750477Y-120015000D01*
X175742000Y-119928931D01*
X175742000Y-118196061D01*
X175750476Y-118110000D01*
X175742000Y-118023939D01*
X175742000Y-112522000D01*
X195819001Y-112522000D01*
X195819001Y-121158000D01*
G37*
%TD.AperFunction*%
%TD*%
D29*
%TO.N,GND*%
X195819000Y-55753000D02*
X165152606Y-55753000D01*
X162052000Y-52652394D01*
X162052000Y-49582606D01*
X164517606Y-47117000D01*
X195819000Y-47117000D01*
X195819000Y-55753000D01*
%TA.AperFunction,Conductor*%
D30*
G36*
X195819000Y-55753000D02*
G01*
X165152606Y-55753000D01*
X162052000Y-52652394D01*
X162052000Y-49582606D01*
X164517606Y-47117000D01*
X195819000Y-47117000D01*
X195819000Y-55753000D01*
G37*
%TD.AperFunction*%
%TD*%
M02*
