M48
; DRILL file {KiCad (5.1.9)-1} date 10/08/21 09:35:23
; FORMAT={-:-/ absolute / metric / decimal}
; #@! TF.CreationDate,2021-10-08T09:35:23+08:00
; #@! TF.GenerationSoftware,Kicad,Pcbnew,(5.1.9)-1
FMAT,2
METRIC
T1C0.400
T2C0.500
T3C0.600
T4C0.800
T5C1.000
T6C1.500
T7C3.200
%
G90
G05
T1
X102.295Y-113.665
X104.775Y-113.665
X106.045Y-95.885
X106.553Y-109.474
X107.315Y-111.125
X107.315Y-113.665
X108.585Y-97.79
X109.347Y-66.294
X109.347Y-70.866
X109.347Y-119.126
X109.347Y-67.818
X109.795Y-113.725
X110.363Y-63.754
X110.871Y-119.126
X110.871Y-117.856
X111.379Y-67.31
X112.395Y-96.52
X114.935Y-97.79
X117.221Y-113.538
X118.745Y-104.902
X121.793Y-121.92
X124.333Y-104.902
X124.46Y-118.11
X126.365Y-54.61
X127.635Y-98.425
X128.143Y-102.87
X128.143Y-104.648
X129.159Y-78.994
X129.159Y-84.836
X130.175Y-80.01
X130.175Y-98.425
X130.683Y-62.484
X131.191Y-85.852
X132.715Y-61.468
X134.239Y-54.61
X136.525Y-83.82
X139.065Y-84.836
X141.605Y-85.725
X143.891Y-104.14
X143.891Y-132.588
X144.145Y-117.094
X145.161Y-105.664
X145.161Y-118.11
X145.161Y-132.588
X147.193Y-93.472
X147.701Y-132.588
X149.225Y-132.588
X149.479Y-100.33
X149.987Y-95.504
X149.987Y-111.125
X150.241Y-98.806
X150.241Y-123.19
X152.019Y-98.806
X152.019Y-112.395
X153.035Y-94.488
X153.289Y-113.665
X153.289Y-123.19
X154.051Y-100.076
X155.067Y-92.456
X156.083Y-101.346
X156.591Y-102.87
X158.115Y-102.87
X162.179Y-83.82
X162.179Y-112.522
X163.195Y-76.835
X163.703Y-112.522
X164.465Y-121.158
X166.37Y-81.407
X172.72Y-128.905
T2
X116.205Y-70.49
X116.205Y-72.39
T3
X98.425Y-43.815
X98.425Y-58.42
X100.33Y-59.69
X100.711Y-125.095
X100.965Y-72.39
X100.965Y-75.565
X100.965Y-89.916
X100.965Y-92.964
X100.965Y-95.885
X100.965Y-102.362
X100.965Y-121.92
X101.6Y-107.95
X101.981Y-59.69
X102.235Y-56.515
X102.235Y-127.635
X102.235Y-129.54
X102.502Y-119.634
X102.743Y-74.09
X102.919Y-77.04
X103.251Y-125.095
X109.156Y-122.745
X109.156Y-125.476
X109.156Y-129.794
X109.156Y-132.017
X110.285Y-57.912
X110.285Y-61.468
X113.03Y-73.025
X113.665Y-68.58
X114.3Y-59.69
X114.935Y-74.93
X118.745Y-72.898
X120.269Y-69.342
X123.825Y-69.342
X123.825Y-93.726
X125.095Y-55.88
X126.111Y-70.612
X126.111Y-93.726
X126.619Y-74.93
X126.873Y-87.63
X127.635Y-55.88
X130.81Y-55.88
X132.715Y-90.932
X133.985Y-57.15
X133.985Y-72.39
X133.985Y-75.565
X134.493Y-61.976
X135.001Y-94.742
X135.763Y-74.09
X136.017Y-93.726
X136.271Y-77.47
X139.065Y-107.188
X139.065Y-109.728
X139.065Y-120.015
X139.065Y-123.19
X139.065Y-125.476
X139.319Y-97.282
X141.351Y-107.188
X142.367Y-130.556
X142.621Y-120.015
X142.621Y-123.19
X142.621Y-125.476
X143.637Y-109.728
X144.907Y-115.316
X146.177Y-67.564
X146.177Y-70.612
X151.511Y-129.794
X151.511Y-133.35
X151.765Y-125.37
X153.67Y-129.794
X153.67Y-133.35
X157.861Y-119.126
X159.131Y-78.486
X159.385Y-92.202
X159.385Y-97.155
X159.385Y-104.14
X159.385Y-113.284
X159.639Y-67.056
X159.639Y-120.904
X159.893Y-87.63
X160.909Y-92.202
X160.909Y-97.155
X160.909Y-104.14
X160.909Y-111.506
X161.417Y-68.326
X161.417Y-76.454
X161.925Y-123.19
X163.703Y-124.968
X168.021Y-129.794
X168.021Y-132.334
X170.815Y-59.69
X170.815Y-67.31
X170.815Y-69.85
X170.815Y-72.39
X170.815Y-74.93
X170.815Y-77.47
X170.815Y-80.01
X170.815Y-82.55
X172.085Y-120.015
X173.99Y-120.015
X175.26Y-128.905
X175.26Y-130.81
X177.165Y-128.905
X177.165Y-130.81
X177.165Y-132.715
X179.07Y-128.905
X179.07Y-130.81
X179.07Y-132.715
X186.69Y-59.817
X189.865Y-59.817
T4
X99.695Y-46.99
X99.695Y-49.53
X99.695Y-52.07
X99.695Y-54.61
X100.965Y-80.01
X100.965Y-87.63
X100.965Y-100.33
X100.965Y-115.57
X103.505Y-80.01
X103.505Y-87.63
X103.505Y-100.33
X103.505Y-115.57
X106.045Y-80.01
X106.045Y-87.63
X106.045Y-100.33
X106.045Y-115.57
X107.315Y-46.99
X107.315Y-49.53
X107.315Y-52.07
X107.315Y-54.61
X108.585Y-80.01
X108.585Y-87.63
X108.585Y-100.33
X108.585Y-115.57
X111.125Y-80.01
X111.125Y-87.63
X111.125Y-100.33
X111.125Y-115.57
X113.665Y-80.01
X113.665Y-87.63
X113.665Y-100.33
X113.665Y-115.57
X116.205Y-59.69
X116.205Y-67.31
X116.205Y-80.01
X116.205Y-87.63
X116.205Y-100.33
X116.205Y-115.57
X118.745Y-59.69
X118.745Y-67.31
X118.745Y-80.01
X118.745Y-87.63
X118.745Y-100.33
X118.745Y-115.57
X121.285Y-59.69
X121.285Y-67.31
X121.285Y-80.01
X121.285Y-87.63
X121.285Y-100.33
X121.285Y-115.57
X123.825Y-59.69
X123.825Y-67.31
X123.825Y-80.01
X123.825Y-87.63
X123.825Y-100.33
X123.825Y-115.57
X126.365Y-59.69
X126.365Y-67.31
X126.365Y-100.33
X126.365Y-115.57
X128.905Y-59.69
X128.905Y-67.31
X128.905Y-100.33
X128.905Y-115.57
X131.445Y-59.69
X131.445Y-67.31
X131.445Y-100.33
X131.445Y-115.57
X133.985Y-59.69
X133.985Y-67.31
X133.985Y-80.01
X133.985Y-87.63
X133.985Y-100.33
X133.985Y-115.57
X136.525Y-80.01
X136.525Y-87.63
X136.525Y-100.33
X136.525Y-115.57
X139.065Y-80.01
X139.065Y-87.63
X139.065Y-100.33
X139.065Y-115.57
X141.605Y-80.01
X141.605Y-87.63
X144.145Y-80.01
X144.145Y-87.63
X146.685Y-80.01
X146.685Y-87.63
X149.225Y-80.01
X149.225Y-87.63
X151.765Y-80.01
X151.765Y-87.63
X154.305Y-80.01
X154.305Y-87.63
X156.845Y-80.01
X156.845Y-87.63
T5
X165.1Y-59.817
X165.1Y-62.357
X165.1Y-64.897
X165.1Y-67.437
X165.1Y-69.977
X165.1Y-72.517
X165.1Y-75.057
X165.1Y-77.597
X165.1Y-80.137
X165.1Y-82.677
X165.1Y-85.217
X165.1Y-87.757
X165.1Y-90.297
X165.1Y-92.837
X165.1Y-95.377
X165.1Y-97.917
X165.1Y-100.457
X165.1Y-102.997
X165.1Y-105.537
X165.1Y-108.077
X167.64Y-59.817
X167.64Y-62.357
X167.64Y-64.897
X167.64Y-67.437
X167.64Y-69.977
X167.64Y-72.517
X167.64Y-75.057
X167.64Y-77.597
X167.64Y-80.137
X167.64Y-82.677
X167.64Y-85.217
X167.64Y-87.757
X167.64Y-90.297
X167.64Y-92.837
X167.64Y-95.377
X167.64Y-97.917
X167.64Y-100.457
X167.64Y-102.997
X167.64Y-105.537
X167.64Y-108.077
X179.411Y-59.817
X181.951Y-59.817
T6
X149.225Y-49.36
X149.225Y-69.85
T7
X166.37Y-51.181
X166.37Y-116.713
X192.913Y-51.181
X192.913Y-116.713
T0
M30
