%TF.GenerationSoftware,KiCad,Pcbnew,(5.1.9)-1*%
%TF.CreationDate,2021-10-09T10:29:05+08:00*%
%TF.ProjectId,CFSuperLite,43465375-7065-4724-9c69-74652e6b6963,rev?*%
%TF.SameCoordinates,Original*%
%TF.FileFunction,Soldermask,Bot*%
%TF.FilePolarity,Negative*%
%FSLAX46Y46*%
G04 Gerber Fmt 4.6, Leading zero omitted, Abs format (unit mm)*
G04 Created by KiCad (PCBNEW (5.1.9)-1) date 2021-10-09 10:29:05*
%MOMM*%
%LPD*%
G01*
G04 APERTURE LIST*
%ADD10C,0.100000*%
%ADD11O,1.700000X1.700000*%
%ADD12R,1.700000X1.700000*%
%ADD13R,3.000000X3.000000*%
%ADD14C,3.000000*%
%ADD15O,1.600000X1.600000*%
%ADD16R,1.600000X1.600000*%
%ADD17C,1.000000*%
%ADD18C,6.500000*%
%ADD19R,1.780000X7.620000*%
G04 APERTURE END LIST*
D10*
G36*
X177800000Y-142240000D02*
G01*
X96520000Y-142240000D01*
X96520000Y-134620000D01*
X177800000Y-134620000D01*
X177800000Y-142240000D01*
G37*
X177800000Y-142240000D02*
X96520000Y-142240000D01*
X96520000Y-134620000D01*
X177800000Y-134620000D01*
X177800000Y-142240000D01*
D11*
%TO.C,REF\u002A\u002A*%
X210820000Y-121920000D03*
X208280000Y-121920000D03*
X210820000Y-119380000D03*
X208280000Y-119380000D03*
X210820000Y-116840000D03*
X208280000Y-116840000D03*
X210820000Y-114300000D03*
X208280000Y-114300000D03*
X210820000Y-111760000D03*
X208280000Y-111760000D03*
X210820000Y-109220000D03*
X208280000Y-109220000D03*
X210820000Y-106680000D03*
X208280000Y-106680000D03*
X210820000Y-104140000D03*
X208280000Y-104140000D03*
X210820000Y-101600000D03*
X208280000Y-101600000D03*
X210820000Y-99060000D03*
X208280000Y-99060000D03*
X210820000Y-96520000D03*
X208280000Y-96520000D03*
X210820000Y-93980000D03*
X208280000Y-93980000D03*
X210820000Y-91440000D03*
X208280000Y-91440000D03*
X210820000Y-88900000D03*
X208280000Y-88900000D03*
X210820000Y-86360000D03*
X208280000Y-86360000D03*
X210820000Y-83820000D03*
X208280000Y-83820000D03*
X210820000Y-81280000D03*
X208280000Y-81280000D03*
X210820000Y-78740000D03*
X208280000Y-78740000D03*
X210820000Y-76200000D03*
X208280000Y-76200000D03*
X210820000Y-73660000D03*
D12*
X208280000Y-73660000D03*
%TD*%
D13*
%TO.C,BAT1*%
X149225000Y-69850000D03*
D14*
X149225000Y-49360000D03*
%TD*%
D15*
%TO.C,U1*%
X100965000Y-100330000D03*
X139065000Y-115570000D03*
X103505000Y-100330000D03*
X136525000Y-115570000D03*
X106045000Y-100330000D03*
X133985000Y-115570000D03*
X108585000Y-100330000D03*
X131445000Y-115570000D03*
X111125000Y-100330000D03*
X128905000Y-115570000D03*
X113665000Y-100330000D03*
X126365000Y-115570000D03*
X116205000Y-100330000D03*
X123825000Y-115570000D03*
X118745000Y-100330000D03*
X121285000Y-115570000D03*
X121285000Y-100330000D03*
X118745000Y-115570000D03*
X123825000Y-100330000D03*
X116205000Y-115570000D03*
X126365000Y-100330000D03*
X113665000Y-115570000D03*
X128905000Y-100330000D03*
X111125000Y-115570000D03*
X131445000Y-100330000D03*
X108585000Y-115570000D03*
X133985000Y-100330000D03*
X106045000Y-115570000D03*
X136525000Y-100330000D03*
X103505000Y-115570000D03*
X139065000Y-100330000D03*
D16*
X100965000Y-115570000D03*
%TD*%
D15*
%TO.C,SW1*%
X99695000Y-46990000D03*
X107315000Y-54610000D03*
X99695000Y-49530000D03*
X107315000Y-52070000D03*
X99695000Y-52070000D03*
X107315000Y-49530000D03*
X99695000Y-54610000D03*
D16*
X107315000Y-46990000D03*
%TD*%
D15*
%TO.C,U3*%
X100965000Y-80010000D03*
X123825000Y-87630000D03*
X103505000Y-80010000D03*
X121285000Y-87630000D03*
X106045000Y-80010000D03*
X118745000Y-87630000D03*
X108585000Y-80010000D03*
X116205000Y-87630000D03*
X111125000Y-80010000D03*
X113665000Y-87630000D03*
X113665000Y-80010000D03*
X111125000Y-87630000D03*
X116205000Y-80010000D03*
X108585000Y-87630000D03*
X118745000Y-80010000D03*
X106045000Y-87630000D03*
X121285000Y-80010000D03*
X103505000Y-87630000D03*
X123825000Y-80010000D03*
D16*
X100965000Y-87630000D03*
%TD*%
D11*
%TO.C,J2*%
X179411000Y-59817000D03*
D12*
X181951000Y-59817000D03*
%TD*%
D11*
%TO.C,J1*%
X167640000Y-59817000D03*
X165100000Y-59817000D03*
X167640000Y-62357000D03*
X165100000Y-62357000D03*
X167640000Y-64897000D03*
X165100000Y-64897000D03*
X167640000Y-67437000D03*
X165100000Y-67437000D03*
X167640000Y-69977000D03*
X165100000Y-69977000D03*
X167640000Y-72517000D03*
X165100000Y-72517000D03*
X167640000Y-75057000D03*
X165100000Y-75057000D03*
X167640000Y-77597000D03*
X165100000Y-77597000D03*
X167640000Y-80137000D03*
X165100000Y-80137000D03*
X167640000Y-82677000D03*
X165100000Y-82677000D03*
X167640000Y-85217000D03*
X165100000Y-85217000D03*
X167640000Y-87757000D03*
X165100000Y-87757000D03*
X167640000Y-90297000D03*
X165100000Y-90297000D03*
X167640000Y-92837000D03*
X165100000Y-92837000D03*
X167640000Y-95377000D03*
X165100000Y-95377000D03*
X167640000Y-97917000D03*
X165100000Y-97917000D03*
X167640000Y-100457000D03*
X165100000Y-100457000D03*
X167640000Y-102997000D03*
X165100000Y-102997000D03*
X167640000Y-105537000D03*
X165100000Y-105537000D03*
X167640000Y-108077000D03*
D12*
X165100000Y-108077000D03*
%TD*%
D16*
%TO.C,U4*%
X116205000Y-67310000D03*
D15*
X133985000Y-59690000D03*
X118745000Y-67310000D03*
X131445000Y-59690000D03*
X121285000Y-67310000D03*
X128905000Y-59690000D03*
X123825000Y-67310000D03*
X126365000Y-59690000D03*
X126365000Y-67310000D03*
X123825000Y-59690000D03*
X128905000Y-67310000D03*
X121285000Y-59690000D03*
X131445000Y-67310000D03*
X118745000Y-59690000D03*
X133985000Y-67310000D03*
X116205000Y-59690000D03*
%TD*%
D17*
%TO.C,Y1*%
X116205000Y-70490000D03*
X116205000Y-72390000D03*
%TD*%
D18*
%TO.C,H4*%
X192913000Y-116713000D03*
%TD*%
D15*
%TO.C,U2*%
X133985000Y-80010000D03*
X156845000Y-87630000D03*
X136525000Y-80010000D03*
X154305000Y-87630000D03*
X139065000Y-80010000D03*
X151765000Y-87630000D03*
X141605000Y-80010000D03*
X149225000Y-87630000D03*
X144145000Y-80010000D03*
X146685000Y-87630000D03*
X146685000Y-80010000D03*
X144145000Y-87630000D03*
X149225000Y-80010000D03*
X141605000Y-87630000D03*
X151765000Y-80010000D03*
X139065000Y-87630000D03*
X154305000Y-80010000D03*
X136525000Y-87630000D03*
X156845000Y-80010000D03*
D16*
X133985000Y-87630000D03*
%TD*%
D18*
%TO.C,H3*%
X166370000Y-116713000D03*
%TD*%
%TO.C,H1*%
X166370000Y-51181000D03*
%TD*%
%TO.C,H2*%
X192913000Y-51181000D03*
%TD*%
D19*
%TO.C,J3*%
X99060000Y-138430000D03*
X101600000Y-138430000D03*
X104140000Y-138430000D03*
X106680000Y-138430000D03*
X109220000Y-138430000D03*
X111760000Y-138430000D03*
X114300000Y-138430000D03*
X116840000Y-138430000D03*
X119380000Y-138430000D03*
X121920000Y-138430000D03*
X124460000Y-138430000D03*
X127000000Y-138430000D03*
X129540000Y-138430000D03*
X132080000Y-138430000D03*
X134620000Y-138430000D03*
X137160000Y-138430000D03*
X139700000Y-138430000D03*
X142240000Y-138430000D03*
X144780000Y-138430000D03*
X147320000Y-138430000D03*
X149860000Y-138430000D03*
X152400000Y-138430000D03*
X154940000Y-138430000D03*
X157480000Y-138430000D03*
X160020000Y-138430000D03*
X162560000Y-138430000D03*
X165100000Y-138430000D03*
X167640000Y-138430000D03*
X170180000Y-138430000D03*
X172720000Y-138430000D03*
X175260000Y-138430000D03*
%TD*%
M02*
