%TF.GenerationSoftware,KiCad,Pcbnew,(5.1.9)-1*%
%TF.CreationDate,2021-05-05T16:30:24+08:00*%
%TF.ProjectId,ISAtoTandyPlus,49534174-6f54-4616-9e64-79506c75732e,rev?*%
%TF.SameCoordinates,Original*%
%TF.FileFunction,Soldermask,Top*%
%TF.FilePolarity,Negative*%
%FSLAX46Y46*%
G04 Gerber Fmt 4.6, Leading zero omitted, Abs format (unit mm)*
G04 Created by KiCad (PCBNEW (5.1.9)-1) date 2021-05-05 16:30:24*
%MOMM*%
%LPD*%
G01*
G04 APERTURE LIST*
%ADD10C,0.100000*%
%ADD11R,1.700000X1.700000*%
%ADD12O,1.700000X1.700000*%
%ADD13R,1.780000X7.620000*%
G04 APERTURE END LIST*
D10*
G36*
X177800000Y-142240000D02*
G01*
X96520000Y-142240000D01*
X96520000Y-134620000D01*
X177800000Y-134620000D01*
X177800000Y-142240000D01*
G37*
X177800000Y-142240000D02*
X96520000Y-142240000D01*
X96520000Y-134620000D01*
X177800000Y-134620000D01*
X177800000Y-142240000D01*
D11*
%TO.C,J3*%
X175260000Y-118110000D03*
D12*
X175260000Y-115570000D03*
X172720000Y-118110000D03*
X172720000Y-115570000D03*
X170180000Y-118110000D03*
X170180000Y-115570000D03*
X167640000Y-118110000D03*
X167640000Y-115570000D03*
X165100000Y-118110000D03*
X165100000Y-115570000D03*
X162560000Y-118110000D03*
X162560000Y-115570000D03*
X160020000Y-118110000D03*
X160020000Y-115570000D03*
X157480000Y-118110000D03*
X157480000Y-115570000D03*
X154940000Y-118110000D03*
X154940000Y-115570000D03*
X152400000Y-118110000D03*
X152400000Y-115570000D03*
X149860000Y-118110000D03*
X149860000Y-115570000D03*
X147320000Y-118110000D03*
X147320000Y-115570000D03*
X144780000Y-118110000D03*
X144780000Y-115570000D03*
X142240000Y-118110000D03*
X142240000Y-115570000D03*
X139700000Y-118110000D03*
X139700000Y-115570000D03*
X137160000Y-118110000D03*
X137160000Y-115570000D03*
X134620000Y-118110000D03*
X134620000Y-115570000D03*
X132080000Y-118110000D03*
X132080000Y-115570000D03*
X129540000Y-118110000D03*
X129540000Y-115570000D03*
X127000000Y-118110000D03*
X127000000Y-115570000D03*
X124460000Y-118110000D03*
X124460000Y-115570000D03*
X121920000Y-118110000D03*
X121920000Y-115570000D03*
X119380000Y-118110000D03*
X119380000Y-115570000D03*
X116840000Y-118110000D03*
X116840000Y-115570000D03*
X114300000Y-118110000D03*
X114300000Y-115570000D03*
X111760000Y-118110000D03*
X111760000Y-115570000D03*
X109220000Y-118110000D03*
X109220000Y-115570000D03*
X106680000Y-118110000D03*
X106680000Y-115570000D03*
X104140000Y-118110000D03*
X104140000Y-115570000D03*
X101600000Y-118110000D03*
X101600000Y-115570000D03*
X99060000Y-118110000D03*
X99060000Y-115570000D03*
%TD*%
D13*
%TO.C,J1*%
X99060000Y-138430000D03*
X101600000Y-138430000D03*
X104140000Y-138430000D03*
X106680000Y-138430000D03*
X109220000Y-138430000D03*
X111760000Y-138430000D03*
X114300000Y-138430000D03*
X116840000Y-138430000D03*
X119380000Y-138430000D03*
X121920000Y-138430000D03*
X124460000Y-138430000D03*
X127000000Y-138430000D03*
X129540000Y-138430000D03*
X132080000Y-138430000D03*
X134620000Y-138430000D03*
X137160000Y-138430000D03*
X139700000Y-138430000D03*
X142240000Y-138430000D03*
X144780000Y-138430000D03*
X147320000Y-138430000D03*
X149860000Y-138430000D03*
X152400000Y-138430000D03*
X154940000Y-138430000D03*
X157480000Y-138430000D03*
X160020000Y-138430000D03*
X162560000Y-138430000D03*
X165100000Y-138430000D03*
X167640000Y-138430000D03*
X170180000Y-138430000D03*
X172720000Y-138430000D03*
X175260000Y-138430000D03*
%TD*%
M02*
