%TF.GenerationSoftware,KiCad,Pcbnew,(5.1.9)-1*%
%TF.CreationDate,2021-05-05T16:30:24+08:00*%
%TF.ProjectId,ISAtoTandyPlus,49534174-6f54-4616-9e64-79506c75732e,rev?*%
%TF.SameCoordinates,Original*%
%TF.FileFunction,Copper,L2,Bot*%
%TF.FilePolarity,Positive*%
%FSLAX46Y46*%
G04 Gerber Fmt 4.6, Leading zero omitted, Abs format (unit mm)*
G04 Created by KiCad (PCBNEW (5.1.9)-1) date 2021-05-05 16:30:24*
%MOMM*%
%LPD*%
G01*
G04 APERTURE LIST*
%TA.AperFunction,SMDPad,CuDef*%
%ADD10C,0.100000*%
%TD*%
%TA.AperFunction,ComponentPad*%
%ADD11R,1.700000X1.700000*%
%TD*%
%TA.AperFunction,ComponentPad*%
%ADD12O,1.700000X1.700000*%
%TD*%
%TA.AperFunction,ConnectorPad*%
%ADD13R,1.780000X7.620000*%
%TD*%
%TA.AperFunction,Conductor*%
%ADD14C,0.400000*%
%TD*%
%TA.AperFunction,Conductor*%
%ADD15C,1.700000*%
%TD*%
G04 APERTURE END LIST*
%TA.AperFunction,SMDPad,CuDef*%
D10*
%TO.P,JP1,2*%
%TO.N,Net-(J3-Pad5)*%
G36*
X164350602Y-122540000D02*
G01*
X164350602Y-122515466D01*
X164355412Y-122466635D01*
X164364984Y-122418510D01*
X164379228Y-122371555D01*
X164398005Y-122326222D01*
X164421136Y-122282949D01*
X164448396Y-122242150D01*
X164479524Y-122204221D01*
X164514221Y-122169524D01*
X164552150Y-122138396D01*
X164592949Y-122111136D01*
X164636222Y-122088005D01*
X164681555Y-122069228D01*
X164728510Y-122054984D01*
X164776635Y-122045412D01*
X164825466Y-122040602D01*
X164850000Y-122040602D01*
X164850000Y-122040000D01*
X165350000Y-122040000D01*
X165350000Y-122040602D01*
X165374534Y-122040602D01*
X165423365Y-122045412D01*
X165471490Y-122054984D01*
X165518445Y-122069228D01*
X165563778Y-122088005D01*
X165607051Y-122111136D01*
X165647850Y-122138396D01*
X165685779Y-122169524D01*
X165720476Y-122204221D01*
X165751604Y-122242150D01*
X165778864Y-122282949D01*
X165801995Y-122326222D01*
X165820772Y-122371555D01*
X165835016Y-122418510D01*
X165844588Y-122466635D01*
X165849398Y-122515466D01*
X165849398Y-122540000D01*
X165850000Y-122540000D01*
X165850000Y-123040000D01*
X164350000Y-123040000D01*
X164350000Y-122540000D01*
X164350602Y-122540000D01*
G37*
%TD.AperFunction*%
%TA.AperFunction,SMDPad,CuDef*%
%TO.P,JP1,1*%
%TO.N,-5V*%
G36*
X165850000Y-123340000D02*
G01*
X165850000Y-123840000D01*
X165849398Y-123840000D01*
X165849398Y-123864534D01*
X165844588Y-123913365D01*
X165835016Y-123961490D01*
X165820772Y-124008445D01*
X165801995Y-124053778D01*
X165778864Y-124097051D01*
X165751604Y-124137850D01*
X165720476Y-124175779D01*
X165685779Y-124210476D01*
X165647850Y-124241604D01*
X165607051Y-124268864D01*
X165563778Y-124291995D01*
X165518445Y-124310772D01*
X165471490Y-124325016D01*
X165423365Y-124334588D01*
X165374534Y-124339398D01*
X165350000Y-124339398D01*
X165350000Y-124340000D01*
X164850000Y-124340000D01*
X164850000Y-124339398D01*
X164825466Y-124339398D01*
X164776635Y-124334588D01*
X164728510Y-124325016D01*
X164681555Y-124310772D01*
X164636222Y-124291995D01*
X164592949Y-124268864D01*
X164552150Y-124241604D01*
X164514221Y-124210476D01*
X164479524Y-124175779D01*
X164448396Y-124137850D01*
X164421136Y-124097051D01*
X164398005Y-124053778D01*
X164379228Y-124008445D01*
X164364984Y-123961490D01*
X164355412Y-123913365D01*
X164350602Y-123864534D01*
X164350602Y-123840000D01*
X164350000Y-123840000D01*
X164350000Y-123340000D01*
X165850000Y-123340000D01*
G37*
%TD.AperFunction*%
%TD*%
%TA.AperFunction,SMDPad,CuDef*%
%TO.P,JP2,2*%
%TO.N,Net-(J3-Pad8)*%
G36*
X156730602Y-122540000D02*
G01*
X156730602Y-122515466D01*
X156735412Y-122466635D01*
X156744984Y-122418510D01*
X156759228Y-122371555D01*
X156778005Y-122326222D01*
X156801136Y-122282949D01*
X156828396Y-122242150D01*
X156859524Y-122204221D01*
X156894221Y-122169524D01*
X156932150Y-122138396D01*
X156972949Y-122111136D01*
X157016222Y-122088005D01*
X157061555Y-122069228D01*
X157108510Y-122054984D01*
X157156635Y-122045412D01*
X157205466Y-122040602D01*
X157230000Y-122040602D01*
X157230000Y-122040000D01*
X157730000Y-122040000D01*
X157730000Y-122040602D01*
X157754534Y-122040602D01*
X157803365Y-122045412D01*
X157851490Y-122054984D01*
X157898445Y-122069228D01*
X157943778Y-122088005D01*
X157987051Y-122111136D01*
X158027850Y-122138396D01*
X158065779Y-122169524D01*
X158100476Y-122204221D01*
X158131604Y-122242150D01*
X158158864Y-122282949D01*
X158181995Y-122326222D01*
X158200772Y-122371555D01*
X158215016Y-122418510D01*
X158224588Y-122466635D01*
X158229398Y-122515466D01*
X158229398Y-122540000D01*
X158230000Y-122540000D01*
X158230000Y-123040000D01*
X156730000Y-123040000D01*
X156730000Y-122540000D01*
X156730602Y-122540000D01*
G37*
%TD.AperFunction*%
%TA.AperFunction,SMDPad,CuDef*%
%TO.P,JP2,1*%
%TO.N,UNUSED_THRU*%
G36*
X158230000Y-123340000D02*
G01*
X158230000Y-123840000D01*
X158229398Y-123840000D01*
X158229398Y-123864534D01*
X158224588Y-123913365D01*
X158215016Y-123961490D01*
X158200772Y-124008445D01*
X158181995Y-124053778D01*
X158158864Y-124097051D01*
X158131604Y-124137850D01*
X158100476Y-124175779D01*
X158065779Y-124210476D01*
X158027850Y-124241604D01*
X157987051Y-124268864D01*
X157943778Y-124291995D01*
X157898445Y-124310772D01*
X157851490Y-124325016D01*
X157803365Y-124334588D01*
X157754534Y-124339398D01*
X157730000Y-124339398D01*
X157730000Y-124340000D01*
X157230000Y-124340000D01*
X157230000Y-124339398D01*
X157205466Y-124339398D01*
X157156635Y-124334588D01*
X157108510Y-124325016D01*
X157061555Y-124310772D01*
X157016222Y-124291995D01*
X156972949Y-124268864D01*
X156932150Y-124241604D01*
X156894221Y-124210476D01*
X156859524Y-124175779D01*
X156828396Y-124137850D01*
X156801136Y-124097051D01*
X156778005Y-124053778D01*
X156759228Y-124008445D01*
X156744984Y-123961490D01*
X156735412Y-123913365D01*
X156730602Y-123864534D01*
X156730602Y-123840000D01*
X156730000Y-123840000D01*
X156730000Y-123340000D01*
X158230000Y-123340000D01*
G37*
%TD.AperFunction*%
%TD*%
%TA.AperFunction,SMDPad,CuDef*%
%TO.P,JP3,2*%
%TO.N,Net-(J3-Pad15)*%
G36*
X138950602Y-122540000D02*
G01*
X138950602Y-122515466D01*
X138955412Y-122466635D01*
X138964984Y-122418510D01*
X138979228Y-122371555D01*
X138998005Y-122326222D01*
X139021136Y-122282949D01*
X139048396Y-122242150D01*
X139079524Y-122204221D01*
X139114221Y-122169524D01*
X139152150Y-122138396D01*
X139192949Y-122111136D01*
X139236222Y-122088005D01*
X139281555Y-122069228D01*
X139328510Y-122054984D01*
X139376635Y-122045412D01*
X139425466Y-122040602D01*
X139450000Y-122040602D01*
X139450000Y-122040000D01*
X139950000Y-122040000D01*
X139950000Y-122040602D01*
X139974534Y-122040602D01*
X140023365Y-122045412D01*
X140071490Y-122054984D01*
X140118445Y-122069228D01*
X140163778Y-122088005D01*
X140207051Y-122111136D01*
X140247850Y-122138396D01*
X140285779Y-122169524D01*
X140320476Y-122204221D01*
X140351604Y-122242150D01*
X140378864Y-122282949D01*
X140401995Y-122326222D01*
X140420772Y-122371555D01*
X140435016Y-122418510D01*
X140444588Y-122466635D01*
X140449398Y-122515466D01*
X140449398Y-122540000D01*
X140450000Y-122540000D01*
X140450000Y-123040000D01*
X138950000Y-123040000D01*
X138950000Y-122540000D01*
X138950602Y-122540000D01*
G37*
%TD.AperFunction*%
%TA.AperFunction,SMDPad,CuDef*%
%TO.P,JP3,1*%
%TO.N,~DACK3*%
G36*
X140450000Y-123340000D02*
G01*
X140450000Y-123840000D01*
X140449398Y-123840000D01*
X140449398Y-123864534D01*
X140444588Y-123913365D01*
X140435016Y-123961490D01*
X140420772Y-124008445D01*
X140401995Y-124053778D01*
X140378864Y-124097051D01*
X140351604Y-124137850D01*
X140320476Y-124175779D01*
X140285779Y-124210476D01*
X140247850Y-124241604D01*
X140207051Y-124268864D01*
X140163778Y-124291995D01*
X140118445Y-124310772D01*
X140071490Y-124325016D01*
X140023365Y-124334588D01*
X139974534Y-124339398D01*
X139950000Y-124339398D01*
X139950000Y-124340000D01*
X139450000Y-124340000D01*
X139450000Y-124339398D01*
X139425466Y-124339398D01*
X139376635Y-124334588D01*
X139328510Y-124325016D01*
X139281555Y-124310772D01*
X139236222Y-124291995D01*
X139192949Y-124268864D01*
X139152150Y-124241604D01*
X139114221Y-124210476D01*
X139079524Y-124175779D01*
X139048396Y-124137850D01*
X139021136Y-124097051D01*
X138998005Y-124053778D01*
X138979228Y-124008445D01*
X138964984Y-123961490D01*
X138955412Y-123913365D01*
X138950602Y-123864534D01*
X138950602Y-123840000D01*
X138950000Y-123840000D01*
X138950000Y-123340000D01*
X140450000Y-123340000D01*
G37*
%TD.AperFunction*%
%TD*%
%TA.AperFunction,SMDPad,CuDef*%
%TO.P,JP5,2*%
%TO.N,Net-(J3-Pad17)*%
G36*
X133870602Y-122540000D02*
G01*
X133870602Y-122515466D01*
X133875412Y-122466635D01*
X133884984Y-122418510D01*
X133899228Y-122371555D01*
X133918005Y-122326222D01*
X133941136Y-122282949D01*
X133968396Y-122242150D01*
X133999524Y-122204221D01*
X134034221Y-122169524D01*
X134072150Y-122138396D01*
X134112949Y-122111136D01*
X134156222Y-122088005D01*
X134201555Y-122069228D01*
X134248510Y-122054984D01*
X134296635Y-122045412D01*
X134345466Y-122040602D01*
X134370000Y-122040602D01*
X134370000Y-122040000D01*
X134870000Y-122040000D01*
X134870000Y-122040602D01*
X134894534Y-122040602D01*
X134943365Y-122045412D01*
X134991490Y-122054984D01*
X135038445Y-122069228D01*
X135083778Y-122088005D01*
X135127051Y-122111136D01*
X135167850Y-122138396D01*
X135205779Y-122169524D01*
X135240476Y-122204221D01*
X135271604Y-122242150D01*
X135298864Y-122282949D01*
X135321995Y-122326222D01*
X135340772Y-122371555D01*
X135355016Y-122418510D01*
X135364588Y-122466635D01*
X135369398Y-122515466D01*
X135369398Y-122540000D01*
X135370000Y-122540000D01*
X135370000Y-123040000D01*
X133870000Y-123040000D01*
X133870000Y-122540000D01*
X133870602Y-122540000D01*
G37*
%TD.AperFunction*%
%TA.AperFunction,SMDPad,CuDef*%
%TO.P,JP5,1*%
%TO.N,~DACK1*%
G36*
X135370000Y-123340000D02*
G01*
X135370000Y-123840000D01*
X135369398Y-123840000D01*
X135369398Y-123864534D01*
X135364588Y-123913365D01*
X135355016Y-123961490D01*
X135340772Y-124008445D01*
X135321995Y-124053778D01*
X135298864Y-124097051D01*
X135271604Y-124137850D01*
X135240476Y-124175779D01*
X135205779Y-124210476D01*
X135167850Y-124241604D01*
X135127051Y-124268864D01*
X135083778Y-124291995D01*
X135038445Y-124310772D01*
X134991490Y-124325016D01*
X134943365Y-124334588D01*
X134894534Y-124339398D01*
X134870000Y-124339398D01*
X134870000Y-124340000D01*
X134370000Y-124340000D01*
X134370000Y-124339398D01*
X134345466Y-124339398D01*
X134296635Y-124334588D01*
X134248510Y-124325016D01*
X134201555Y-124310772D01*
X134156222Y-124291995D01*
X134112949Y-124268864D01*
X134072150Y-124241604D01*
X134034221Y-124210476D01*
X133999524Y-124175779D01*
X133968396Y-124137850D01*
X133941136Y-124097051D01*
X133918005Y-124053778D01*
X133899228Y-124008445D01*
X133884984Y-123961490D01*
X133875412Y-123913365D01*
X133870602Y-123864534D01*
X133870602Y-123840000D01*
X133870000Y-123840000D01*
X133870000Y-123340000D01*
X135370000Y-123340000D01*
G37*
%TD.AperFunction*%
%TD*%
%TA.AperFunction,SMDPad,CuDef*%
%TO.P,JP4,2*%
%TO.N,Net-(J3-Pad16)*%
G36*
X136410602Y-122540000D02*
G01*
X136410602Y-122515466D01*
X136415412Y-122466635D01*
X136424984Y-122418510D01*
X136439228Y-122371555D01*
X136458005Y-122326222D01*
X136481136Y-122282949D01*
X136508396Y-122242150D01*
X136539524Y-122204221D01*
X136574221Y-122169524D01*
X136612150Y-122138396D01*
X136652949Y-122111136D01*
X136696222Y-122088005D01*
X136741555Y-122069228D01*
X136788510Y-122054984D01*
X136836635Y-122045412D01*
X136885466Y-122040602D01*
X136910000Y-122040602D01*
X136910000Y-122040000D01*
X137410000Y-122040000D01*
X137410000Y-122040602D01*
X137434534Y-122040602D01*
X137483365Y-122045412D01*
X137531490Y-122054984D01*
X137578445Y-122069228D01*
X137623778Y-122088005D01*
X137667051Y-122111136D01*
X137707850Y-122138396D01*
X137745779Y-122169524D01*
X137780476Y-122204221D01*
X137811604Y-122242150D01*
X137838864Y-122282949D01*
X137861995Y-122326222D01*
X137880772Y-122371555D01*
X137895016Y-122418510D01*
X137904588Y-122466635D01*
X137909398Y-122515466D01*
X137909398Y-122540000D01*
X137910000Y-122540000D01*
X137910000Y-123040000D01*
X136410000Y-123040000D01*
X136410000Y-122540000D01*
X136410602Y-122540000D01*
G37*
%TD.AperFunction*%
%TA.AperFunction,SMDPad,CuDef*%
%TO.P,JP4,1*%
%TO.N,DRQ3*%
G36*
X137910000Y-123340000D02*
G01*
X137910000Y-123840000D01*
X137909398Y-123840000D01*
X137909398Y-123864534D01*
X137904588Y-123913365D01*
X137895016Y-123961490D01*
X137880772Y-124008445D01*
X137861995Y-124053778D01*
X137838864Y-124097051D01*
X137811604Y-124137850D01*
X137780476Y-124175779D01*
X137745779Y-124210476D01*
X137707850Y-124241604D01*
X137667051Y-124268864D01*
X137623778Y-124291995D01*
X137578445Y-124310772D01*
X137531490Y-124325016D01*
X137483365Y-124334588D01*
X137434534Y-124339398D01*
X137410000Y-124339398D01*
X137410000Y-124340000D01*
X136910000Y-124340000D01*
X136910000Y-124339398D01*
X136885466Y-124339398D01*
X136836635Y-124334588D01*
X136788510Y-124325016D01*
X136741555Y-124310772D01*
X136696222Y-124291995D01*
X136652949Y-124268864D01*
X136612150Y-124241604D01*
X136574221Y-124210476D01*
X136539524Y-124175779D01*
X136508396Y-124137850D01*
X136481136Y-124097051D01*
X136458005Y-124053778D01*
X136439228Y-124008445D01*
X136424984Y-123961490D01*
X136415412Y-123913365D01*
X136410602Y-123864534D01*
X136410602Y-123840000D01*
X136410000Y-123840000D01*
X136410000Y-123340000D01*
X137910000Y-123340000D01*
G37*
%TD.AperFunction*%
%TD*%
%TA.AperFunction,SMDPad,CuDef*%
%TO.P,JP6,2*%
%TO.N,Net-(J3-Pad18)*%
G36*
X131330602Y-122540000D02*
G01*
X131330602Y-122515466D01*
X131335412Y-122466635D01*
X131344984Y-122418510D01*
X131359228Y-122371555D01*
X131378005Y-122326222D01*
X131401136Y-122282949D01*
X131428396Y-122242150D01*
X131459524Y-122204221D01*
X131494221Y-122169524D01*
X131532150Y-122138396D01*
X131572949Y-122111136D01*
X131616222Y-122088005D01*
X131661555Y-122069228D01*
X131708510Y-122054984D01*
X131756635Y-122045412D01*
X131805466Y-122040602D01*
X131830000Y-122040602D01*
X131830000Y-122040000D01*
X132330000Y-122040000D01*
X132330000Y-122040602D01*
X132354534Y-122040602D01*
X132403365Y-122045412D01*
X132451490Y-122054984D01*
X132498445Y-122069228D01*
X132543778Y-122088005D01*
X132587051Y-122111136D01*
X132627850Y-122138396D01*
X132665779Y-122169524D01*
X132700476Y-122204221D01*
X132731604Y-122242150D01*
X132758864Y-122282949D01*
X132781995Y-122326222D01*
X132800772Y-122371555D01*
X132815016Y-122418510D01*
X132824588Y-122466635D01*
X132829398Y-122515466D01*
X132829398Y-122540000D01*
X132830000Y-122540000D01*
X132830000Y-123040000D01*
X131330000Y-123040000D01*
X131330000Y-122540000D01*
X131330602Y-122540000D01*
G37*
%TD.AperFunction*%
%TA.AperFunction,SMDPad,CuDef*%
%TO.P,JP6,1*%
%TO.N,DRQ1*%
G36*
X132830000Y-123340000D02*
G01*
X132830000Y-123840000D01*
X132829398Y-123840000D01*
X132829398Y-123864534D01*
X132824588Y-123913365D01*
X132815016Y-123961490D01*
X132800772Y-124008445D01*
X132781995Y-124053778D01*
X132758864Y-124097051D01*
X132731604Y-124137850D01*
X132700476Y-124175779D01*
X132665779Y-124210476D01*
X132627850Y-124241604D01*
X132587051Y-124268864D01*
X132543778Y-124291995D01*
X132498445Y-124310772D01*
X132451490Y-124325016D01*
X132403365Y-124334588D01*
X132354534Y-124339398D01*
X132330000Y-124339398D01*
X132330000Y-124340000D01*
X131830000Y-124340000D01*
X131830000Y-124339398D01*
X131805466Y-124339398D01*
X131756635Y-124334588D01*
X131708510Y-124325016D01*
X131661555Y-124310772D01*
X131616222Y-124291995D01*
X131572949Y-124268864D01*
X131532150Y-124241604D01*
X131494221Y-124210476D01*
X131459524Y-124175779D01*
X131428396Y-124137850D01*
X131401136Y-124097051D01*
X131378005Y-124053778D01*
X131359228Y-124008445D01*
X131344984Y-123961490D01*
X131335412Y-123913365D01*
X131330602Y-123864534D01*
X131330602Y-123840000D01*
X131330000Y-123840000D01*
X131330000Y-123340000D01*
X132830000Y-123340000D01*
G37*
%TD.AperFunction*%
%TD*%
%TA.AperFunction,SMDPad,CuDef*%
%TO.P,JP7,1*%
%TO.N,IRQ5*%
G36*
X120130000Y-123340000D02*
G01*
X120130000Y-123840000D01*
X120129398Y-123840000D01*
X120129398Y-123864534D01*
X120124588Y-123913365D01*
X120115016Y-123961490D01*
X120100772Y-124008445D01*
X120081995Y-124053778D01*
X120058864Y-124097051D01*
X120031604Y-124137850D01*
X120000476Y-124175779D01*
X119965779Y-124210476D01*
X119927850Y-124241604D01*
X119887051Y-124268864D01*
X119843778Y-124291995D01*
X119798445Y-124310772D01*
X119751490Y-124325016D01*
X119703365Y-124334588D01*
X119654534Y-124339398D01*
X119630000Y-124339398D01*
X119630000Y-124340000D01*
X119130000Y-124340000D01*
X119130000Y-124339398D01*
X119105466Y-124339398D01*
X119056635Y-124334588D01*
X119008510Y-124325016D01*
X118961555Y-124310772D01*
X118916222Y-124291995D01*
X118872949Y-124268864D01*
X118832150Y-124241604D01*
X118794221Y-124210476D01*
X118759524Y-124175779D01*
X118728396Y-124137850D01*
X118701136Y-124097051D01*
X118678005Y-124053778D01*
X118659228Y-124008445D01*
X118644984Y-123961490D01*
X118635412Y-123913365D01*
X118630602Y-123864534D01*
X118630602Y-123840000D01*
X118630000Y-123840000D01*
X118630000Y-123340000D01*
X120130000Y-123340000D01*
G37*
%TD.AperFunction*%
%TA.AperFunction,SMDPad,CuDef*%
%TO.P,JP7,2*%
%TO.N,Net-(J3-Pad23)*%
G36*
X118630602Y-122540000D02*
G01*
X118630602Y-122515466D01*
X118635412Y-122466635D01*
X118644984Y-122418510D01*
X118659228Y-122371555D01*
X118678005Y-122326222D01*
X118701136Y-122282949D01*
X118728396Y-122242150D01*
X118759524Y-122204221D01*
X118794221Y-122169524D01*
X118832150Y-122138396D01*
X118872949Y-122111136D01*
X118916222Y-122088005D01*
X118961555Y-122069228D01*
X119008510Y-122054984D01*
X119056635Y-122045412D01*
X119105466Y-122040602D01*
X119130000Y-122040602D01*
X119130000Y-122040000D01*
X119630000Y-122040000D01*
X119630000Y-122040602D01*
X119654534Y-122040602D01*
X119703365Y-122045412D01*
X119751490Y-122054984D01*
X119798445Y-122069228D01*
X119843778Y-122088005D01*
X119887051Y-122111136D01*
X119927850Y-122138396D01*
X119965779Y-122169524D01*
X120000476Y-122204221D01*
X120031604Y-122242150D01*
X120058864Y-122282949D01*
X120081995Y-122326222D01*
X120100772Y-122371555D01*
X120115016Y-122418510D01*
X120124588Y-122466635D01*
X120129398Y-122515466D01*
X120129398Y-122540000D01*
X120130000Y-122540000D01*
X120130000Y-123040000D01*
X118630000Y-123040000D01*
X118630000Y-122540000D01*
X118630602Y-122540000D01*
G37*
%TD.AperFunction*%
%TD*%
D11*
%TO.P,J3,1*%
%TO.N,GND1*%
X175260000Y-118110000D03*
D12*
%TO.P,J3,32*%
%TO.N,~IO_CH_CK*%
X175260000Y-115570000D03*
%TO.P,J3,2*%
%TO.N,RESET*%
X172720000Y-118110000D03*
%TO.P,J3,33*%
%TO.N,D7*%
X172720000Y-115570000D03*
%TO.P,J3,3*%
%TO.N,VCC1*%
X170180000Y-118110000D03*
%TO.P,J3,34*%
%TO.N,D6*%
X170180000Y-115570000D03*
%TO.P,J3,4*%
%TO.N,IRQ2*%
X167640000Y-118110000D03*
%TO.P,J3,35*%
%TO.N,D5*%
X167640000Y-115570000D03*
%TO.P,J3,5*%
%TO.N,Net-(J3-Pad5)*%
X165100000Y-118110000D03*
%TO.P,J3,36*%
%TO.N,D4*%
X165100000Y-115570000D03*
%TO.P,J3,6*%
%TO.N,DRQ2*%
X162560000Y-118110000D03*
%TO.P,J3,37*%
%TO.N,D3*%
X162560000Y-115570000D03*
%TO.P,J3,7*%
%TO.N,-12V*%
X160020000Y-118110000D03*
%TO.P,J3,38*%
%TO.N,D2*%
X160020000Y-115570000D03*
%TO.P,J3,8*%
%TO.N,Net-(J3-Pad8)*%
X157480000Y-118110000D03*
%TO.P,J3,39*%
%TO.N,D1*%
X157480000Y-115570000D03*
%TO.P,J3,9*%
%TO.N,12V*%
X154940000Y-118110000D03*
%TO.P,J3,40*%
%TO.N,D0*%
X154940000Y-115570000D03*
%TO.P,J3,10*%
%TO.N,GND2*%
X152400000Y-118110000D03*
%TO.P,J3,41*%
%TO.N,IOCHRDY*%
X152400000Y-115570000D03*
%TO.P,J3,11*%
%TO.N,~MEMW*%
X149860000Y-118110000D03*
%TO.P,J3,42*%
%TO.N,AEN*%
X149860000Y-115570000D03*
%TO.P,J3,12*%
%TO.N,~MEMR*%
X147320000Y-118110000D03*
%TO.P,J3,43*%
%TO.N,A19*%
X147320000Y-115570000D03*
%TO.P,J3,13*%
%TO.N,~IOW*%
X144780000Y-118110000D03*
%TO.P,J3,44*%
%TO.N,A18*%
X144780000Y-115570000D03*
%TO.P,J3,14*%
%TO.N,~IOR*%
X142240000Y-118110000D03*
%TO.P,J3,45*%
%TO.N,A17*%
X142240000Y-115570000D03*
%TO.P,J3,15*%
%TO.N,Net-(J3-Pad15)*%
X139700000Y-118110000D03*
%TO.P,J3,46*%
%TO.N,A16*%
X139700000Y-115570000D03*
%TO.P,J3,16*%
%TO.N,Net-(J3-Pad16)*%
X137160000Y-118110000D03*
%TO.P,J3,47*%
%TO.N,A15*%
X137160000Y-115570000D03*
%TO.P,J3,17*%
%TO.N,Net-(J3-Pad17)*%
X134620000Y-118110000D03*
%TO.P,J3,48*%
%TO.N,A14*%
X134620000Y-115570000D03*
%TO.P,J3,18*%
%TO.N,Net-(J3-Pad18)*%
X132080000Y-118110000D03*
%TO.P,J3,49*%
%TO.N,A13*%
X132080000Y-115570000D03*
%TO.P,J3,19*%
%TO.N,~DACK0*%
X129540000Y-118110000D03*
%TO.P,J3,50*%
%TO.N,A12*%
X129540000Y-115570000D03*
%TO.P,J3,20*%
%TO.N,CLK*%
X127000000Y-118110000D03*
%TO.P,J3,51*%
%TO.N,A11*%
X127000000Y-115570000D03*
%TO.P,J3,21*%
%TO.N,IRQ7*%
X124460000Y-118110000D03*
%TO.P,J3,52*%
%TO.N,A10*%
X124460000Y-115570000D03*
%TO.P,J3,22*%
%TO.N,IRQ6*%
X121920000Y-118110000D03*
%TO.P,J3,53*%
%TO.N,A09*%
X121920000Y-115570000D03*
%TO.P,J3,23*%
%TO.N,Net-(J3-Pad23)*%
X119380000Y-118110000D03*
%TO.P,J3,54*%
%TO.N,A08*%
X119380000Y-115570000D03*
%TO.P,J3,24*%
%TO.N,IRQ4*%
X116840000Y-118110000D03*
%TO.P,J3,55*%
%TO.N,A07*%
X116840000Y-115570000D03*
%TO.P,J3,25*%
%TO.N,IRQ3*%
X114300000Y-118110000D03*
%TO.P,J3,56*%
%TO.N,A06*%
X114300000Y-115570000D03*
%TO.P,J3,26*%
%TO.N,~DACK2*%
X111760000Y-118110000D03*
%TO.P,J3,57*%
%TO.N,A05*%
X111760000Y-115570000D03*
%TO.P,J3,27*%
%TO.N,TC*%
X109220000Y-118110000D03*
%TO.P,J3,58*%
%TO.N,A04*%
X109220000Y-115570000D03*
%TO.P,J3,28*%
%TO.N,ALE*%
X106680000Y-118110000D03*
%TO.P,J3,59*%
%TO.N,A03*%
X106680000Y-115570000D03*
%TO.P,J3,29*%
%TO.N,VCC2*%
X104140000Y-118110000D03*
%TO.P,J3,60*%
%TO.N,A02*%
X104140000Y-115570000D03*
%TO.P,J3,30*%
%TO.N,OSC*%
X101600000Y-118110000D03*
%TO.P,J3,61*%
%TO.N,A01*%
X101600000Y-115570000D03*
%TO.P,J3,31*%
%TO.N,GND3*%
X99060000Y-118110000D03*
%TO.P,J3,62*%
%TO.N,A00*%
X99060000Y-115570000D03*
%TD*%
D13*
%TO.P,J1,31*%
%TO.N,GND3*%
X99060000Y-138430000D03*
%TO.P,J1,30*%
%TO.N,OSC*%
X101600000Y-138430000D03*
%TO.P,J1,29*%
%TO.N,VCC2*%
X104140000Y-138430000D03*
%TO.P,J1,28*%
%TO.N,ALE*%
X106680000Y-138430000D03*
%TO.P,J1,27*%
%TO.N,TC*%
X109220000Y-138430000D03*
%TO.P,J1,26*%
%TO.N,~DACK2*%
X111760000Y-138430000D03*
%TO.P,J1,25*%
%TO.N,IRQ3*%
X114300000Y-138430000D03*
%TO.P,J1,24*%
%TO.N,IRQ4*%
X116840000Y-138430000D03*
%TO.P,J1,23*%
%TO.N,IRQ5*%
X119380000Y-138430000D03*
%TO.P,J1,22*%
%TO.N,IRQ6*%
X121920000Y-138430000D03*
%TO.P,J1,21*%
%TO.N,IRQ7*%
X124460000Y-138430000D03*
%TO.P,J1,20*%
%TO.N,CLK*%
X127000000Y-138430000D03*
%TO.P,J1,19*%
%TO.N,~DACK0*%
X129540000Y-138430000D03*
%TO.P,J1,18*%
%TO.N,DRQ1*%
X132080000Y-138430000D03*
%TO.P,J1,17*%
%TO.N,~DACK1*%
X134620000Y-138430000D03*
%TO.P,J1,16*%
%TO.N,DRQ3*%
X137160000Y-138430000D03*
%TO.P,J1,15*%
%TO.N,~DACK3*%
X139700000Y-138430000D03*
%TO.P,J1,14*%
%TO.N,~IOR*%
X142240000Y-138430000D03*
%TO.P,J1,13*%
%TO.N,~IOW*%
X144780000Y-138430000D03*
%TO.P,J1,12*%
%TO.N,~MEMR*%
X147320000Y-138430000D03*
%TO.P,J1,11*%
%TO.N,~MEMW*%
X149860000Y-138430000D03*
%TO.P,J1,10*%
%TO.N,GND2*%
X152400000Y-138430000D03*
%TO.P,J1,9*%
%TO.N,12V*%
X154940000Y-138430000D03*
%TO.P,J1,8*%
%TO.N,UNUSED_THRU*%
X157480000Y-138430000D03*
%TO.P,J1,7*%
%TO.N,-12V*%
X160020000Y-138430000D03*
%TO.P,J1,6*%
%TO.N,DRQ2*%
X162560000Y-138430000D03*
%TO.P,J1,5*%
%TO.N,-5V*%
X165100000Y-138430000D03*
%TO.P,J1,4*%
%TO.N,IRQ2*%
X167640000Y-138430000D03*
%TO.P,J1,3*%
%TO.N,VCC1*%
X170180000Y-138430000D03*
%TO.P,J1,2*%
%TO.N,RESET*%
X172720000Y-138430000D03*
%TO.P,J1,1*%
%TO.N,GND1*%
X175260000Y-138430000D03*
%TD*%
D14*
%TO.N,OSC*%
X101600000Y-138430000D02*
X101600000Y-118110000D01*
%TO.N,ALE*%
X106680000Y-118110000D02*
X106680000Y-138430000D01*
%TO.N,TC*%
X109220000Y-138430000D02*
X109220000Y-118110000D01*
%TO.N,~DACK2*%
X111760000Y-118110000D02*
X111760000Y-138430000D01*
%TO.N,IRQ3*%
X114300000Y-138430000D02*
X114300000Y-118110000D01*
%TO.N,IRQ4*%
X116840000Y-118110000D02*
X116840000Y-138430000D01*
%TO.N,IRQ5*%
X119380000Y-123825000D02*
X119380000Y-138430000D01*
%TO.N,IRQ6*%
X121920000Y-118110000D02*
X121920000Y-138430000D01*
%TO.N,IRQ7*%
X124460000Y-138430000D02*
X124460000Y-118110000D01*
%TO.N,CLK*%
X127000000Y-118110000D02*
X127000000Y-138430000D01*
%TO.N,~DACK0*%
X129540000Y-138430000D02*
X129540000Y-118110000D01*
%TO.N,DRQ1*%
X132080000Y-123825000D02*
X132080000Y-138430000D01*
%TO.N,~DACK1*%
X134620000Y-123825000D02*
X134620000Y-138430000D01*
%TO.N,DRQ3*%
X137160000Y-123825000D02*
X137160000Y-138430000D01*
%TO.N,~DACK3*%
X139700000Y-123825000D02*
X139700000Y-138430000D01*
%TO.N,~IOR*%
X142240000Y-118110000D02*
X142240000Y-138430000D01*
%TO.N,~IOW*%
X144780000Y-138430000D02*
X144780000Y-118110000D01*
%TO.N,~MEMR*%
X147320000Y-118110000D02*
X147320000Y-138430000D01*
%TO.N,~MEMW*%
X149860000Y-138430000D02*
X149860000Y-118110000D01*
D15*
%TO.N,-12V*%
X160020000Y-118110000D02*
X160020000Y-138430000D01*
D14*
%TO.N,DRQ2*%
X162560000Y-138430000D02*
X162560000Y-118110000D01*
D15*
%TO.N,-5V*%
X165100000Y-124206000D02*
X165100000Y-138176000D01*
D14*
%TO.N,IRQ2*%
X167640000Y-118110000D02*
X167640000Y-138430000D01*
%TO.N,RESET*%
X172720000Y-138430000D02*
X172720000Y-118110000D01*
D15*
%TO.N,GND3*%
X99060000Y-138430000D02*
X99060000Y-118110000D01*
%TO.N,VCC2*%
X104140000Y-118110000D02*
X104140000Y-138430000D01*
%TO.N,GND2*%
X152400000Y-118110000D02*
X152400000Y-138430000D01*
%TO.N,12V*%
X154940000Y-118110000D02*
X154940000Y-138430000D01*
D14*
%TO.N,UNUSED_THRU*%
X157480000Y-123825000D02*
X157480000Y-138430000D01*
D15*
%TO.N,VCC1*%
X170180000Y-118110000D02*
X170180000Y-138430000D01*
%TO.N,GND1*%
X175260000Y-138430000D02*
X175260000Y-118110000D01*
D14*
%TO.N,Net-(J3-Pad23)*%
X119380000Y-122555000D02*
X119380000Y-118110000D01*
%TO.N,Net-(J3-Pad18)*%
X132080000Y-122555000D02*
X132080000Y-118110000D01*
%TO.N,Net-(J3-Pad17)*%
X134620000Y-122555000D02*
X134620000Y-118110000D01*
%TO.N,Net-(J3-Pad16)*%
X137160000Y-122555000D02*
X137160000Y-118110000D01*
%TO.N,Net-(J3-Pad15)*%
X139700000Y-122555000D02*
X139700000Y-118110000D01*
%TO.N,Net-(J3-Pad8)*%
X157480000Y-118110000D02*
X157480000Y-122555000D01*
D15*
%TO.N,Net-(J3-Pad5)*%
X165100000Y-122174000D02*
X165100000Y-118364000D01*
%TD*%
M02*
