%TF.GenerationSoftware,KiCad,Pcbnew,(5.1.9)-1*%
%TF.CreationDate,2021-05-05T16:30:24+08:00*%
%TF.ProjectId,ISAtoTandyPlus,49534174-6f54-4616-9e64-79506c75732e,rev?*%
%TF.SameCoordinates,Original*%
%TF.FileFunction,Legend,Bot*%
%TF.FilePolarity,Positive*%
%FSLAX46Y46*%
G04 Gerber Fmt 4.6, Leading zero omitted, Abs format (unit mm)*
G04 Created by KiCad (PCBNEW (5.1.9)-1) date 2021-05-05 16:30:24*
%MOMM*%
%LPD*%
G01*
G04 APERTURE LIST*
%ADD10C,0.150000*%
%ADD11C,0.120000*%
G04 APERTURE END LIST*
D10*
X163398095Y-130834380D02*
X162826666Y-130834380D01*
X163112380Y-131834380D02*
X163112380Y-130834380D01*
X162064761Y-131834380D02*
X162064761Y-131310571D01*
X162112380Y-131215333D01*
X162207619Y-131167714D01*
X162398095Y-131167714D01*
X162493333Y-131215333D01*
X162064761Y-131786761D02*
X162160000Y-131834380D01*
X162398095Y-131834380D01*
X162493333Y-131786761D01*
X162540952Y-131691523D01*
X162540952Y-131596285D01*
X162493333Y-131501047D01*
X162398095Y-131453428D01*
X162160000Y-131453428D01*
X162064761Y-131405809D01*
X161588571Y-131167714D02*
X161588571Y-131834380D01*
X161588571Y-131262952D02*
X161540952Y-131215333D01*
X161445714Y-131167714D01*
X161302857Y-131167714D01*
X161207619Y-131215333D01*
X161160000Y-131310571D01*
X161160000Y-131834380D01*
X160255238Y-131834380D02*
X160255238Y-130834380D01*
X160255238Y-131786761D02*
X160350476Y-131834380D01*
X160540952Y-131834380D01*
X160636190Y-131786761D01*
X160683809Y-131739142D01*
X160731428Y-131643904D01*
X160731428Y-131358190D01*
X160683809Y-131262952D01*
X160636190Y-131215333D01*
X160540952Y-131167714D01*
X160350476Y-131167714D01*
X160255238Y-131215333D01*
X159874285Y-131167714D02*
X159636190Y-131834380D01*
X159398095Y-131167714D02*
X159636190Y-131834380D01*
X159731428Y-132072476D01*
X159779047Y-132120095D01*
X159874285Y-132167714D01*
X157731428Y-131834380D02*
X158302857Y-131834380D01*
X158017142Y-131834380D02*
X158017142Y-130834380D01*
X158112380Y-130977238D01*
X158207619Y-131072476D01*
X158302857Y-131120095D01*
X157112380Y-130834380D02*
X157017142Y-130834380D01*
X156921904Y-130882000D01*
X156874285Y-130929619D01*
X156826666Y-131024857D01*
X156779047Y-131215333D01*
X156779047Y-131453428D01*
X156826666Y-131643904D01*
X156874285Y-131739142D01*
X156921904Y-131786761D01*
X157017142Y-131834380D01*
X157112380Y-131834380D01*
X157207619Y-131786761D01*
X157255238Y-131739142D01*
X157302857Y-131643904D01*
X157350476Y-131453428D01*
X157350476Y-131215333D01*
X157302857Y-131024857D01*
X157255238Y-130929619D01*
X157207619Y-130882000D01*
X157112380Y-130834380D01*
X156160000Y-130834380D02*
X156064761Y-130834380D01*
X155969523Y-130882000D01*
X155921904Y-130929619D01*
X155874285Y-131024857D01*
X155826666Y-131215333D01*
X155826666Y-131453428D01*
X155874285Y-131643904D01*
X155921904Y-131739142D01*
X155969523Y-131786761D01*
X156064761Y-131834380D01*
X156160000Y-131834380D01*
X156255238Y-131786761D01*
X156302857Y-131739142D01*
X156350476Y-131643904D01*
X156398095Y-131453428D01*
X156398095Y-131215333D01*
X156350476Y-131024857D01*
X156302857Y-130929619D01*
X156255238Y-130882000D01*
X156160000Y-130834380D01*
X155207619Y-130834380D02*
X155112380Y-130834380D01*
X155017142Y-130882000D01*
X154969523Y-130929619D01*
X154921904Y-131024857D01*
X154874285Y-131215333D01*
X154874285Y-131453428D01*
X154921904Y-131643904D01*
X154969523Y-131739142D01*
X155017142Y-131786761D01*
X155112380Y-131834380D01*
X155207619Y-131834380D01*
X155302857Y-131786761D01*
X155350476Y-131739142D01*
X155398095Y-131643904D01*
X155445714Y-131453428D01*
X155445714Y-131215333D01*
X155398095Y-131024857D01*
X155350476Y-130929619D01*
X155302857Y-130882000D01*
X155207619Y-130834380D01*
X153683809Y-131310571D02*
X153350476Y-131310571D01*
X153207619Y-131834380D02*
X153683809Y-131834380D01*
X153683809Y-130834380D01*
X153207619Y-130834380D01*
X152874285Y-130834380D02*
X152207619Y-131834380D01*
X152207619Y-130834380D02*
X152874285Y-131834380D01*
X151112380Y-130786761D02*
X151969523Y-132072476D01*
X150779047Y-131834380D02*
X150779047Y-130834380D01*
X150779047Y-131310571D02*
X150207619Y-131310571D01*
X150207619Y-131834380D02*
X150207619Y-130834380D01*
X149826666Y-130834380D02*
X149160000Y-131834380D01*
X149160000Y-130834380D02*
X149826666Y-131834380D01*
X148017142Y-131834380D02*
X148017142Y-131167714D01*
X148017142Y-131262952D02*
X147969523Y-131215333D01*
X147874285Y-131167714D01*
X147731428Y-131167714D01*
X147636190Y-131215333D01*
X147588571Y-131310571D01*
X147588571Y-131834380D01*
X147588571Y-131310571D02*
X147540952Y-131215333D01*
X147445714Y-131167714D01*
X147302857Y-131167714D01*
X147207619Y-131215333D01*
X147160000Y-131310571D01*
X147160000Y-131834380D01*
X146540952Y-131834380D02*
X146636190Y-131786761D01*
X146683809Y-131739142D01*
X146731428Y-131643904D01*
X146731428Y-131358190D01*
X146683809Y-131262952D01*
X146636190Y-131215333D01*
X146540952Y-131167714D01*
X146398095Y-131167714D01*
X146302857Y-131215333D01*
X146255238Y-131262952D01*
X146207619Y-131358190D01*
X146207619Y-131643904D01*
X146255238Y-131739142D01*
X146302857Y-131786761D01*
X146398095Y-131834380D01*
X146540952Y-131834380D01*
X145350476Y-131834380D02*
X145350476Y-130834380D01*
X145350476Y-131786761D02*
X145445714Y-131834380D01*
X145636190Y-131834380D01*
X145731428Y-131786761D01*
X145779047Y-131739142D01*
X145826666Y-131643904D01*
X145826666Y-131358190D01*
X145779047Y-131262952D01*
X145731428Y-131215333D01*
X145636190Y-131167714D01*
X145445714Y-131167714D01*
X145350476Y-131215333D01*
X144493333Y-131786761D02*
X144588571Y-131834380D01*
X144779047Y-131834380D01*
X144874285Y-131786761D01*
X144921904Y-131691523D01*
X144921904Y-131310571D01*
X144874285Y-131215333D01*
X144779047Y-131167714D01*
X144588571Y-131167714D01*
X144493333Y-131215333D01*
X144445714Y-131310571D01*
X144445714Y-131405809D01*
X144921904Y-131501047D01*
X143874285Y-131834380D02*
X143969523Y-131786761D01*
X144017142Y-131691523D01*
X144017142Y-130834380D01*
X143540952Y-131786761D02*
X143445714Y-131834380D01*
X143255238Y-131834380D01*
X143160000Y-131786761D01*
X143112380Y-131691523D01*
X143112380Y-131643904D01*
X143160000Y-131548666D01*
X143255238Y-131501047D01*
X143398095Y-131501047D01*
X143493333Y-131453428D01*
X143540952Y-131358190D01*
X143540952Y-131310571D01*
X143493333Y-131215333D01*
X143398095Y-131167714D01*
X143255238Y-131167714D01*
X143160000Y-131215333D01*
X141493333Y-131834380D02*
X141493333Y-130834380D01*
X141493333Y-131786761D02*
X141588571Y-131834380D01*
X141779047Y-131834380D01*
X141874285Y-131786761D01*
X141921904Y-131739142D01*
X141969523Y-131643904D01*
X141969523Y-131358190D01*
X141921904Y-131262952D01*
X141874285Y-131215333D01*
X141779047Y-131167714D01*
X141588571Y-131167714D01*
X141493333Y-131215333D01*
X140874285Y-131834380D02*
X140969523Y-131786761D01*
X141017142Y-131739142D01*
X141064761Y-131643904D01*
X141064761Y-131358190D01*
X141017142Y-131262952D01*
X140969523Y-131215333D01*
X140874285Y-131167714D01*
X140731428Y-131167714D01*
X140636190Y-131215333D01*
X140588571Y-131262952D01*
X140540952Y-131358190D01*
X140540952Y-131643904D01*
X140588571Y-131739142D01*
X140636190Y-131786761D01*
X140731428Y-131834380D01*
X140874285Y-131834380D01*
X139350476Y-131167714D02*
X139350476Y-131834380D01*
X139350476Y-131262952D02*
X139302857Y-131215333D01*
X139207619Y-131167714D01*
X139064761Y-131167714D01*
X138969523Y-131215333D01*
X138921904Y-131310571D01*
X138921904Y-131834380D01*
X138302857Y-131834380D02*
X138398095Y-131786761D01*
X138445714Y-131739142D01*
X138493333Y-131643904D01*
X138493333Y-131358190D01*
X138445714Y-131262952D01*
X138398095Y-131215333D01*
X138302857Y-131167714D01*
X138160000Y-131167714D01*
X138064761Y-131215333D01*
X138017142Y-131262952D01*
X137969523Y-131358190D01*
X137969523Y-131643904D01*
X138017142Y-131739142D01*
X138064761Y-131786761D01*
X138160000Y-131834380D01*
X138302857Y-131834380D01*
X137683809Y-131167714D02*
X137302857Y-131167714D01*
X137540952Y-130834380D02*
X137540952Y-131691523D01*
X137493333Y-131786761D01*
X137398095Y-131834380D01*
X137302857Y-131834380D01*
X136207619Y-131167714D02*
X136207619Y-132167714D01*
X136207619Y-131215333D02*
X136112380Y-131167714D01*
X135921904Y-131167714D01*
X135826666Y-131215333D01*
X135779047Y-131262952D01*
X135731428Y-131358190D01*
X135731428Y-131643904D01*
X135779047Y-131739142D01*
X135826666Y-131786761D01*
X135921904Y-131834380D01*
X136112380Y-131834380D01*
X136207619Y-131786761D01*
X134874285Y-131834380D02*
X134874285Y-131310571D01*
X134921904Y-131215333D01*
X135017142Y-131167714D01*
X135207619Y-131167714D01*
X135302857Y-131215333D01*
X134874285Y-131786761D02*
X134969523Y-131834380D01*
X135207619Y-131834380D01*
X135302857Y-131786761D01*
X135350476Y-131691523D01*
X135350476Y-131596285D01*
X135302857Y-131501047D01*
X135207619Y-131453428D01*
X134969523Y-131453428D01*
X134874285Y-131405809D01*
X134445714Y-131786761D02*
X134350476Y-131834380D01*
X134160000Y-131834380D01*
X134064761Y-131786761D01*
X134017142Y-131691523D01*
X134017142Y-131643904D01*
X134064761Y-131548666D01*
X134160000Y-131501047D01*
X134302857Y-131501047D01*
X134398095Y-131453428D01*
X134445714Y-131358190D01*
X134445714Y-131310571D01*
X134398095Y-131215333D01*
X134302857Y-131167714D01*
X134160000Y-131167714D01*
X134064761Y-131215333D01*
X133636190Y-131786761D02*
X133540952Y-131834380D01*
X133350476Y-131834380D01*
X133255238Y-131786761D01*
X133207619Y-131691523D01*
X133207619Y-131643904D01*
X133255238Y-131548666D01*
X133350476Y-131501047D01*
X133493333Y-131501047D01*
X133588571Y-131453428D01*
X133636190Y-131358190D01*
X133636190Y-131310571D01*
X133588571Y-131215333D01*
X133493333Y-131167714D01*
X133350476Y-131167714D01*
X133255238Y-131215333D01*
X132160000Y-131167714D02*
X131779047Y-131167714D01*
X132017142Y-130834380D02*
X132017142Y-131691523D01*
X131969523Y-131786761D01*
X131874285Y-131834380D01*
X131779047Y-131834380D01*
X131445714Y-131834380D02*
X131445714Y-130834380D01*
X131017142Y-131834380D02*
X131017142Y-131310571D01*
X131064761Y-131215333D01*
X131160000Y-131167714D01*
X131302857Y-131167714D01*
X131398095Y-131215333D01*
X131445714Y-131262952D01*
X130540952Y-131834380D02*
X130540952Y-131167714D01*
X130540952Y-131358190D02*
X130493333Y-131262952D01*
X130445714Y-131215333D01*
X130350476Y-131167714D01*
X130255238Y-131167714D01*
X129779047Y-131834380D02*
X129874285Y-131786761D01*
X129921904Y-131739142D01*
X129969523Y-131643904D01*
X129969523Y-131358190D01*
X129921904Y-131262952D01*
X129874285Y-131215333D01*
X129779047Y-131167714D01*
X129636190Y-131167714D01*
X129540952Y-131215333D01*
X129493333Y-131262952D01*
X129445714Y-131358190D01*
X129445714Y-131643904D01*
X129493333Y-131739142D01*
X129540952Y-131786761D01*
X129636190Y-131834380D01*
X129779047Y-131834380D01*
X128588571Y-131167714D02*
X128588571Y-131834380D01*
X129017142Y-131167714D02*
X129017142Y-131691523D01*
X128969523Y-131786761D01*
X128874285Y-131834380D01*
X128731428Y-131834380D01*
X128636190Y-131786761D01*
X128588571Y-131739142D01*
X127683809Y-131167714D02*
X127683809Y-131977238D01*
X127731428Y-132072476D01*
X127779047Y-132120095D01*
X127874285Y-132167714D01*
X128017142Y-132167714D01*
X128112380Y-132120095D01*
X127683809Y-131786761D02*
X127779047Y-131834380D01*
X127969523Y-131834380D01*
X128064761Y-131786761D01*
X128112380Y-131739142D01*
X128160000Y-131643904D01*
X128160000Y-131358190D01*
X128112380Y-131262952D01*
X128064761Y-131215333D01*
X127969523Y-131167714D01*
X127779047Y-131167714D01*
X127683809Y-131215333D01*
X127207619Y-131834380D02*
X127207619Y-130834380D01*
X126779047Y-131834380D02*
X126779047Y-131310571D01*
X126826666Y-131215333D01*
X126921904Y-131167714D01*
X127064761Y-131167714D01*
X127160000Y-131215333D01*
X127207619Y-131262952D01*
X125112380Y-131834380D02*
X125112380Y-131310571D01*
X125160000Y-131215333D01*
X125255238Y-131167714D01*
X125445714Y-131167714D01*
X125540952Y-131215333D01*
X125112380Y-131786761D02*
X125207619Y-131834380D01*
X125445714Y-131834380D01*
X125540952Y-131786761D01*
X125588571Y-131691523D01*
X125588571Y-131596285D01*
X125540952Y-131501047D01*
X125445714Y-131453428D01*
X125207619Y-131453428D01*
X125112380Y-131405809D01*
X124493333Y-131834380D02*
X124588571Y-131786761D01*
X124636190Y-131691523D01*
X124636190Y-130834380D01*
X123969523Y-131834380D02*
X124064761Y-131786761D01*
X124112380Y-131691523D01*
X124112380Y-130834380D01*
X122826666Y-131834380D02*
X122826666Y-130834380D01*
X122398095Y-131786761D02*
X122255238Y-131834380D01*
X122017142Y-131834380D01*
X121921904Y-131786761D01*
X121874285Y-131739142D01*
X121826666Y-131643904D01*
X121826666Y-131548666D01*
X121874285Y-131453428D01*
X121921904Y-131405809D01*
X122017142Y-131358190D01*
X122207619Y-131310571D01*
X122302857Y-131262952D01*
X122350476Y-131215333D01*
X122398095Y-131120095D01*
X122398095Y-131024857D01*
X122350476Y-130929619D01*
X122302857Y-130882000D01*
X122207619Y-130834380D01*
X121969523Y-130834380D01*
X121826666Y-130882000D01*
X121445714Y-131548666D02*
X120969523Y-131548666D01*
X121540952Y-131834380D02*
X121207619Y-130834380D01*
X120874285Y-131834380D01*
X119779047Y-131834380D02*
X119779047Y-130834380D01*
X119779047Y-131215333D02*
X119683809Y-131167714D01*
X119493333Y-131167714D01*
X119398095Y-131215333D01*
X119350476Y-131262952D01*
X119302857Y-131358190D01*
X119302857Y-131643904D01*
X119350476Y-131739142D01*
X119398095Y-131786761D01*
X119493333Y-131834380D01*
X119683809Y-131834380D01*
X119779047Y-131786761D01*
X118445714Y-131167714D02*
X118445714Y-131834380D01*
X118874285Y-131167714D02*
X118874285Y-131691523D01*
X118826666Y-131786761D01*
X118731428Y-131834380D01*
X118588571Y-131834380D01*
X118493333Y-131786761D01*
X118445714Y-131739142D01*
X118017142Y-131786761D02*
X117921904Y-131834380D01*
X117731428Y-131834380D01*
X117636190Y-131786761D01*
X117588571Y-131691523D01*
X117588571Y-131643904D01*
X117636190Y-131548666D01*
X117731428Y-131501047D01*
X117874285Y-131501047D01*
X117969523Y-131453428D01*
X118017142Y-131358190D01*
X118017142Y-131310571D01*
X117969523Y-131215333D01*
X117874285Y-131167714D01*
X117731428Y-131167714D01*
X117636190Y-131215333D01*
X116445714Y-131786761D02*
X116350476Y-131834380D01*
X116160000Y-131834380D01*
X116064761Y-131786761D01*
X116017142Y-131691523D01*
X116017142Y-131643904D01*
X116064761Y-131548666D01*
X116160000Y-131501047D01*
X116302857Y-131501047D01*
X116398095Y-131453428D01*
X116445714Y-131358190D01*
X116445714Y-131310571D01*
X116398095Y-131215333D01*
X116302857Y-131167714D01*
X116160000Y-131167714D01*
X116064761Y-131215333D01*
X115588571Y-131834380D02*
X115588571Y-131167714D01*
X115588571Y-130834380D02*
X115636190Y-130882000D01*
X115588571Y-130929619D01*
X115540952Y-130882000D01*
X115588571Y-130834380D01*
X115588571Y-130929619D01*
X114683809Y-131167714D02*
X114683809Y-131977238D01*
X114731428Y-132072476D01*
X114779047Y-132120095D01*
X114874285Y-132167714D01*
X115017142Y-132167714D01*
X115112380Y-132120095D01*
X114683809Y-131786761D02*
X114779047Y-131834380D01*
X114969523Y-131834380D01*
X115064761Y-131786761D01*
X115112380Y-131739142D01*
X115160000Y-131643904D01*
X115160000Y-131358190D01*
X115112380Y-131262952D01*
X115064761Y-131215333D01*
X114969523Y-131167714D01*
X114779047Y-131167714D01*
X114683809Y-131215333D01*
X114207619Y-131167714D02*
X114207619Y-131834380D01*
X114207619Y-131262952D02*
X114160000Y-131215333D01*
X114064761Y-131167714D01*
X113921904Y-131167714D01*
X113826666Y-131215333D01*
X113779047Y-131310571D01*
X113779047Y-131834380D01*
X112874285Y-131834380D02*
X112874285Y-131310571D01*
X112921904Y-131215333D01*
X113017142Y-131167714D01*
X113207619Y-131167714D01*
X113302857Y-131215333D01*
X112874285Y-131786761D02*
X112969523Y-131834380D01*
X113207619Y-131834380D01*
X113302857Y-131786761D01*
X113350476Y-131691523D01*
X113350476Y-131596285D01*
X113302857Y-131501047D01*
X113207619Y-131453428D01*
X112969523Y-131453428D01*
X112874285Y-131405809D01*
X112255238Y-131834380D02*
X112350476Y-131786761D01*
X112398095Y-131691523D01*
X112398095Y-130834380D01*
X111921904Y-131786761D02*
X111826666Y-131834380D01*
X111636190Y-131834380D01*
X111540952Y-131786761D01*
X111493333Y-131691523D01*
X111493333Y-131643904D01*
X111540952Y-131548666D01*
X111636190Y-131501047D01*
X111779047Y-131501047D01*
X111874285Y-131453428D01*
X111921904Y-131358190D01*
X111921904Y-131310571D01*
X111874285Y-131215333D01*
X111779047Y-131167714D01*
X111636190Y-131167714D01*
X111540952Y-131215333D01*
X111064761Y-131739142D02*
X111017142Y-131786761D01*
X111064761Y-131834380D01*
X111112380Y-131786761D01*
X111064761Y-131739142D01*
X111064761Y-131834380D01*
X160850476Y-132960571D02*
X160707619Y-133008190D01*
X160660000Y-133055809D01*
X160612380Y-133151047D01*
X160612380Y-133293904D01*
X160660000Y-133389142D01*
X160707619Y-133436761D01*
X160802857Y-133484380D01*
X161183809Y-133484380D01*
X161183809Y-132484380D01*
X160850476Y-132484380D01*
X160755238Y-132532000D01*
X160707619Y-132579619D01*
X160660000Y-132674857D01*
X160660000Y-132770095D01*
X160707619Y-132865333D01*
X160755238Y-132912952D01*
X160850476Y-132960571D01*
X161183809Y-132960571D01*
X160183809Y-133484380D02*
X160183809Y-132817714D01*
X160183809Y-133008190D02*
X160136190Y-132912952D01*
X160088571Y-132865333D01*
X159993333Y-132817714D01*
X159898095Y-132817714D01*
X159564761Y-133484380D02*
X159564761Y-132817714D01*
X159564761Y-132484380D02*
X159612380Y-132532000D01*
X159564761Y-132579619D01*
X159517142Y-132532000D01*
X159564761Y-132484380D01*
X159564761Y-132579619D01*
X158660000Y-133484380D02*
X158660000Y-132484380D01*
X158660000Y-133436761D02*
X158755238Y-133484380D01*
X158945714Y-133484380D01*
X159040952Y-133436761D01*
X159088571Y-133389142D01*
X159136190Y-133293904D01*
X159136190Y-133008190D01*
X159088571Y-132912952D01*
X159040952Y-132865333D01*
X158945714Y-132817714D01*
X158755238Y-132817714D01*
X158660000Y-132865333D01*
X157755238Y-132817714D02*
X157755238Y-133627238D01*
X157802857Y-133722476D01*
X157850476Y-133770095D01*
X157945714Y-133817714D01*
X158088571Y-133817714D01*
X158183809Y-133770095D01*
X157755238Y-133436761D02*
X157850476Y-133484380D01*
X158040952Y-133484380D01*
X158136190Y-133436761D01*
X158183809Y-133389142D01*
X158231428Y-133293904D01*
X158231428Y-133008190D01*
X158183809Y-132912952D01*
X158136190Y-132865333D01*
X158040952Y-132817714D01*
X157850476Y-132817714D01*
X157755238Y-132865333D01*
X156898095Y-133436761D02*
X156993333Y-133484380D01*
X157183809Y-133484380D01*
X157279047Y-133436761D01*
X157326666Y-133341523D01*
X157326666Y-132960571D01*
X157279047Y-132865333D01*
X157183809Y-132817714D01*
X156993333Y-132817714D01*
X156898095Y-132865333D01*
X156850476Y-132960571D01*
X156850476Y-133055809D01*
X157326666Y-133151047D01*
X155802857Y-132817714D02*
X155421904Y-132817714D01*
X155660000Y-132484380D02*
X155660000Y-133341523D01*
X155612380Y-133436761D01*
X155517142Y-133484380D01*
X155421904Y-133484380D01*
X155088571Y-133484380D02*
X155088571Y-132484380D01*
X154660000Y-133484380D02*
X154660000Y-132960571D01*
X154707619Y-132865333D01*
X154802857Y-132817714D01*
X154945714Y-132817714D01*
X155040952Y-132865333D01*
X155088571Y-132912952D01*
X153802857Y-133436761D02*
X153898095Y-133484380D01*
X154088571Y-133484380D01*
X154183809Y-133436761D01*
X154231428Y-133341523D01*
X154231428Y-132960571D01*
X154183809Y-132865333D01*
X154088571Y-132817714D01*
X153898095Y-132817714D01*
X153802857Y-132865333D01*
X153755238Y-132960571D01*
X153755238Y-133055809D01*
X154231428Y-133151047D01*
X152612380Y-133436761D02*
X152517142Y-133484380D01*
X152326666Y-133484380D01*
X152231428Y-133436761D01*
X152183809Y-133341523D01*
X152183809Y-133293904D01*
X152231428Y-133198666D01*
X152326666Y-133151047D01*
X152469523Y-133151047D01*
X152564761Y-133103428D01*
X152612380Y-133008190D01*
X152612380Y-132960571D01*
X152564761Y-132865333D01*
X152469523Y-132817714D01*
X152326666Y-132817714D01*
X152231428Y-132865333D01*
X151612380Y-133484380D02*
X151707619Y-133436761D01*
X151755238Y-133389142D01*
X151802857Y-133293904D01*
X151802857Y-133008190D01*
X151755238Y-132912952D01*
X151707619Y-132865333D01*
X151612380Y-132817714D01*
X151469523Y-132817714D01*
X151374285Y-132865333D01*
X151326666Y-132912952D01*
X151279047Y-133008190D01*
X151279047Y-133293904D01*
X151326666Y-133389142D01*
X151374285Y-133436761D01*
X151469523Y-133484380D01*
X151612380Y-133484380D01*
X150707619Y-133484380D02*
X150802857Y-133436761D01*
X150850476Y-133341523D01*
X150850476Y-132484380D01*
X149898095Y-133484380D02*
X149898095Y-132484380D01*
X149898095Y-133436761D02*
X149993333Y-133484380D01*
X150183809Y-133484380D01*
X150279047Y-133436761D01*
X150326666Y-133389142D01*
X150374285Y-133293904D01*
X150374285Y-133008190D01*
X150326666Y-132912952D01*
X150279047Y-132865333D01*
X150183809Y-132817714D01*
X149993333Y-132817714D01*
X149898095Y-132865333D01*
X149040952Y-133436761D02*
X149136190Y-133484380D01*
X149326666Y-133484380D01*
X149421904Y-133436761D01*
X149469523Y-133341523D01*
X149469523Y-132960571D01*
X149421904Y-132865333D01*
X149326666Y-132817714D01*
X149136190Y-132817714D01*
X149040952Y-132865333D01*
X148993333Y-132960571D01*
X148993333Y-133055809D01*
X149469523Y-133151047D01*
X148564761Y-133484380D02*
X148564761Y-132817714D01*
X148564761Y-133008190D02*
X148517142Y-132912952D01*
X148469523Y-132865333D01*
X148374285Y-132817714D01*
X148279047Y-132817714D01*
X147183809Y-132817714D02*
X147183809Y-133674857D01*
X147231428Y-133770095D01*
X147326666Y-133817714D01*
X147374285Y-133817714D01*
X147183809Y-132484380D02*
X147231428Y-132532000D01*
X147183809Y-132579619D01*
X147136190Y-132532000D01*
X147183809Y-132484380D01*
X147183809Y-132579619D01*
X146279047Y-132817714D02*
X146279047Y-133484380D01*
X146707619Y-132817714D02*
X146707619Y-133341523D01*
X146660000Y-133436761D01*
X146564761Y-133484380D01*
X146421904Y-133484380D01*
X146326666Y-133436761D01*
X146279047Y-133389142D01*
X145802857Y-133484380D02*
X145802857Y-132817714D01*
X145802857Y-132912952D02*
X145755238Y-132865333D01*
X145660000Y-132817714D01*
X145517142Y-132817714D01*
X145421904Y-132865333D01*
X145374285Y-132960571D01*
X145374285Y-133484380D01*
X145374285Y-132960571D02*
X145326666Y-132865333D01*
X145231428Y-132817714D01*
X145088571Y-132817714D01*
X144993333Y-132865333D01*
X144945714Y-132960571D01*
X144945714Y-133484380D01*
X144469523Y-132817714D02*
X144469523Y-133817714D01*
X144469523Y-132865333D02*
X144374285Y-132817714D01*
X144183809Y-132817714D01*
X144088571Y-132865333D01*
X144040952Y-132912952D01*
X143993333Y-133008190D01*
X143993333Y-133293904D01*
X144040952Y-133389142D01*
X144088571Y-133436761D01*
X144183809Y-133484380D01*
X144374285Y-133484380D01*
X144469523Y-133436761D01*
X143183809Y-133436761D02*
X143279047Y-133484380D01*
X143469523Y-133484380D01*
X143564761Y-133436761D01*
X143612380Y-133341523D01*
X143612380Y-132960571D01*
X143564761Y-132865333D01*
X143469523Y-132817714D01*
X143279047Y-132817714D01*
X143183809Y-132865333D01*
X143136190Y-132960571D01*
X143136190Y-133055809D01*
X143612380Y-133151047D01*
X142707619Y-133484380D02*
X142707619Y-132817714D01*
X142707619Y-133008190D02*
X142660000Y-132912952D01*
X142612380Y-132865333D01*
X142517142Y-132817714D01*
X142421904Y-132817714D01*
X142136190Y-133436761D02*
X142040952Y-133484380D01*
X141850476Y-133484380D01*
X141755238Y-133436761D01*
X141707619Y-133341523D01*
X141707619Y-133293904D01*
X141755238Y-133198666D01*
X141850476Y-133151047D01*
X141993333Y-133151047D01*
X142088571Y-133103428D01*
X142136190Y-133008190D01*
X142136190Y-132960571D01*
X142088571Y-132865333D01*
X141993333Y-132817714D01*
X141850476Y-132817714D01*
X141755238Y-132865333D01*
X140660000Y-132817714D02*
X140279047Y-132817714D01*
X140517142Y-132484380D02*
X140517142Y-133341523D01*
X140469523Y-133436761D01*
X140374285Y-133484380D01*
X140279047Y-133484380D01*
X139802857Y-133484380D02*
X139898095Y-133436761D01*
X139945714Y-133389142D01*
X139993333Y-133293904D01*
X139993333Y-133008190D01*
X139945714Y-132912952D01*
X139898095Y-132865333D01*
X139802857Y-132817714D01*
X139660000Y-132817714D01*
X139564761Y-132865333D01*
X139517142Y-132912952D01*
X139469523Y-133008190D01*
X139469523Y-133293904D01*
X139517142Y-133389142D01*
X139564761Y-133436761D01*
X139660000Y-133484380D01*
X139802857Y-133484380D01*
X138279047Y-132817714D02*
X138279047Y-133817714D01*
X138279047Y-132865333D02*
X138183809Y-132817714D01*
X137993333Y-132817714D01*
X137898095Y-132865333D01*
X137850476Y-132912952D01*
X137802857Y-133008190D01*
X137802857Y-133293904D01*
X137850476Y-133389142D01*
X137898095Y-133436761D01*
X137993333Y-133484380D01*
X138183809Y-133484380D01*
X138279047Y-133436761D01*
X136945714Y-133484380D02*
X136945714Y-132960571D01*
X136993333Y-132865333D01*
X137088571Y-132817714D01*
X137279047Y-132817714D01*
X137374285Y-132865333D01*
X136945714Y-133436761D02*
X137040952Y-133484380D01*
X137279047Y-133484380D01*
X137374285Y-133436761D01*
X137421904Y-133341523D01*
X137421904Y-133246285D01*
X137374285Y-133151047D01*
X137279047Y-133103428D01*
X137040952Y-133103428D01*
X136945714Y-133055809D01*
X136517142Y-133436761D02*
X136421904Y-133484380D01*
X136231428Y-133484380D01*
X136136190Y-133436761D01*
X136088571Y-133341523D01*
X136088571Y-133293904D01*
X136136190Y-133198666D01*
X136231428Y-133151047D01*
X136374285Y-133151047D01*
X136469523Y-133103428D01*
X136517142Y-133008190D01*
X136517142Y-132960571D01*
X136469523Y-132865333D01*
X136374285Y-132817714D01*
X136231428Y-132817714D01*
X136136190Y-132865333D01*
X135707619Y-133436761D02*
X135612380Y-133484380D01*
X135421904Y-133484380D01*
X135326666Y-133436761D01*
X135279047Y-133341523D01*
X135279047Y-133293904D01*
X135326666Y-133198666D01*
X135421904Y-133151047D01*
X135564761Y-133151047D01*
X135660000Y-133103428D01*
X135707619Y-133008190D01*
X135707619Y-132960571D01*
X135660000Y-132865333D01*
X135564761Y-132817714D01*
X135421904Y-132817714D01*
X135326666Y-132865333D01*
X134231428Y-132817714D02*
X133850476Y-132817714D01*
X134088571Y-132484380D02*
X134088571Y-133341523D01*
X134040952Y-133436761D01*
X133945714Y-133484380D01*
X133850476Y-133484380D01*
X133517142Y-133484380D02*
X133517142Y-132484380D01*
X133088571Y-133484380D02*
X133088571Y-132960571D01*
X133136190Y-132865333D01*
X133231428Y-132817714D01*
X133374285Y-132817714D01*
X133469523Y-132865333D01*
X133517142Y-132912952D01*
X132231428Y-133436761D02*
X132326666Y-133484380D01*
X132517142Y-133484380D01*
X132612380Y-133436761D01*
X132660000Y-133341523D01*
X132660000Y-132960571D01*
X132612380Y-132865333D01*
X132517142Y-132817714D01*
X132326666Y-132817714D01*
X132231428Y-132865333D01*
X132183809Y-132960571D01*
X132183809Y-133055809D01*
X132660000Y-133151047D01*
X131040952Y-133436761D02*
X130945714Y-133484380D01*
X130755238Y-133484380D01*
X130660000Y-133436761D01*
X130612380Y-133341523D01*
X130612380Y-133293904D01*
X130660000Y-133198666D01*
X130755238Y-133151047D01*
X130898095Y-133151047D01*
X130993333Y-133103428D01*
X131040952Y-133008190D01*
X131040952Y-132960571D01*
X130993333Y-132865333D01*
X130898095Y-132817714D01*
X130755238Y-132817714D01*
X130660000Y-132865333D01*
X130183809Y-133484380D02*
X130183809Y-132817714D01*
X130183809Y-132484380D02*
X130231428Y-132532000D01*
X130183809Y-132579619D01*
X130136190Y-132532000D01*
X130183809Y-132484380D01*
X130183809Y-132579619D01*
X129279047Y-132817714D02*
X129279047Y-133627238D01*
X129326666Y-133722476D01*
X129374285Y-133770095D01*
X129469523Y-133817714D01*
X129612380Y-133817714D01*
X129707619Y-133770095D01*
X129279047Y-133436761D02*
X129374285Y-133484380D01*
X129564761Y-133484380D01*
X129660000Y-133436761D01*
X129707619Y-133389142D01*
X129755238Y-133293904D01*
X129755238Y-133008190D01*
X129707619Y-132912952D01*
X129660000Y-132865333D01*
X129564761Y-132817714D01*
X129374285Y-132817714D01*
X129279047Y-132865333D01*
X128802857Y-132817714D02*
X128802857Y-133484380D01*
X128802857Y-132912952D02*
X128755238Y-132865333D01*
X128660000Y-132817714D01*
X128517142Y-132817714D01*
X128421904Y-132865333D01*
X128374285Y-132960571D01*
X128374285Y-133484380D01*
X127469523Y-133484380D02*
X127469523Y-132960571D01*
X127517142Y-132865333D01*
X127612380Y-132817714D01*
X127802857Y-132817714D01*
X127898095Y-132865333D01*
X127469523Y-133436761D02*
X127564761Y-133484380D01*
X127802857Y-133484380D01*
X127898095Y-133436761D01*
X127945714Y-133341523D01*
X127945714Y-133246285D01*
X127898095Y-133151047D01*
X127802857Y-133103428D01*
X127564761Y-133103428D01*
X127469523Y-133055809D01*
X126850476Y-133484380D02*
X126945714Y-133436761D01*
X126993333Y-133341523D01*
X126993333Y-132484380D01*
X126517142Y-133436761D02*
X126421904Y-133484380D01*
X126231428Y-133484380D01*
X126136190Y-133436761D01*
X126088571Y-133341523D01*
X126088571Y-133293904D01*
X126136190Y-133198666D01*
X126231428Y-133151047D01*
X126374285Y-133151047D01*
X126469523Y-133103428D01*
X126517142Y-133008190D01*
X126517142Y-132960571D01*
X126469523Y-132865333D01*
X126374285Y-132817714D01*
X126231428Y-132817714D01*
X126136190Y-132865333D01*
X125040952Y-132817714D02*
X124660000Y-132817714D01*
X124898095Y-132484380D02*
X124898095Y-133341523D01*
X124850476Y-133436761D01*
X124755238Y-133484380D01*
X124660000Y-133484380D01*
X124326666Y-133484380D02*
X124326666Y-132484380D01*
X123898095Y-133484380D02*
X123898095Y-132960571D01*
X123945714Y-132865333D01*
X124040952Y-132817714D01*
X124183809Y-132817714D01*
X124279047Y-132865333D01*
X124326666Y-132912952D01*
X123421904Y-133484380D02*
X123421904Y-132817714D01*
X123421904Y-133008190D02*
X123374285Y-132912952D01*
X123326666Y-132865333D01*
X123231428Y-132817714D01*
X123136190Y-132817714D01*
X122660000Y-133484380D02*
X122755238Y-133436761D01*
X122802857Y-133389142D01*
X122850476Y-133293904D01*
X122850476Y-133008190D01*
X122802857Y-132912952D01*
X122755238Y-132865333D01*
X122660000Y-132817714D01*
X122517142Y-132817714D01*
X122421904Y-132865333D01*
X122374285Y-132912952D01*
X122326666Y-133008190D01*
X122326666Y-133293904D01*
X122374285Y-133389142D01*
X122421904Y-133436761D01*
X122517142Y-133484380D01*
X122660000Y-133484380D01*
X121469523Y-132817714D02*
X121469523Y-133484380D01*
X121898095Y-132817714D02*
X121898095Y-133341523D01*
X121850476Y-133436761D01*
X121755238Y-133484380D01*
X121612380Y-133484380D01*
X121517142Y-133436761D01*
X121469523Y-133389142D01*
X120564761Y-132817714D02*
X120564761Y-133627238D01*
X120612380Y-133722476D01*
X120660000Y-133770095D01*
X120755238Y-133817714D01*
X120898095Y-133817714D01*
X120993333Y-133770095D01*
X120564761Y-133436761D02*
X120660000Y-133484380D01*
X120850476Y-133484380D01*
X120945714Y-133436761D01*
X120993333Y-133389142D01*
X121040952Y-133293904D01*
X121040952Y-133008190D01*
X120993333Y-132912952D01*
X120945714Y-132865333D01*
X120850476Y-132817714D01*
X120660000Y-132817714D01*
X120564761Y-132865333D01*
X120088571Y-133484380D02*
X120088571Y-132484380D01*
X119660000Y-133484380D02*
X119660000Y-132960571D01*
X119707619Y-132865333D01*
X119802857Y-132817714D01*
X119945714Y-132817714D01*
X120040952Y-132865333D01*
X120088571Y-132912952D01*
X117993333Y-133484380D02*
X117993333Y-132960571D01*
X118040952Y-132865333D01*
X118136190Y-132817714D01*
X118326666Y-132817714D01*
X118421904Y-132865333D01*
X117993333Y-133436761D02*
X118088571Y-133484380D01*
X118326666Y-133484380D01*
X118421904Y-133436761D01*
X118469523Y-133341523D01*
X118469523Y-133246285D01*
X118421904Y-133151047D01*
X118326666Y-133103428D01*
X118088571Y-133103428D01*
X117993333Y-133055809D01*
X117517142Y-132817714D02*
X117517142Y-133484380D01*
X117517142Y-132912952D02*
X117469523Y-132865333D01*
X117374285Y-132817714D01*
X117231428Y-132817714D01*
X117136190Y-132865333D01*
X117088571Y-132960571D01*
X117088571Y-133484380D01*
X116707619Y-132817714D02*
X116469523Y-133484380D01*
X116231428Y-132817714D02*
X116469523Y-133484380D01*
X116564761Y-133722476D01*
X116612380Y-133770095D01*
X116707619Y-133817714D01*
X115945714Y-132817714D02*
X115755238Y-133484380D01*
X115564761Y-133008190D01*
X115374285Y-133484380D01*
X115183809Y-132817714D01*
X114374285Y-133484380D02*
X114374285Y-132960571D01*
X114421904Y-132865333D01*
X114517142Y-132817714D01*
X114707619Y-132817714D01*
X114802857Y-132865333D01*
X114374285Y-133436761D02*
X114469523Y-133484380D01*
X114707619Y-133484380D01*
X114802857Y-133436761D01*
X114850476Y-133341523D01*
X114850476Y-133246285D01*
X114802857Y-133151047D01*
X114707619Y-133103428D01*
X114469523Y-133103428D01*
X114374285Y-133055809D01*
X113993333Y-132817714D02*
X113755238Y-133484380D01*
X113517142Y-132817714D02*
X113755238Y-133484380D01*
X113850476Y-133722476D01*
X113898095Y-133770095D01*
X113993333Y-133817714D01*
X113136190Y-133389142D02*
X113088571Y-133436761D01*
X113136190Y-133484380D01*
X113183809Y-133436761D01*
X113136190Y-133389142D01*
X113136190Y-133484380D01*
D11*
%TO.C,JP1*%
X166100000Y-123890000D02*
X166100000Y-122490000D01*
X165400000Y-121790000D02*
X164800000Y-121790000D01*
X164100000Y-122490000D02*
X164100000Y-123890000D01*
X164800000Y-124590000D02*
X165400000Y-124590000D01*
X165400000Y-124590000D02*
G75*
G03*
X166100000Y-123890000I0J700000D01*
G01*
X164100000Y-123890000D02*
G75*
G03*
X164800000Y-124590000I700000J0D01*
G01*
X164800000Y-121790000D02*
G75*
G03*
X164100000Y-122490000I0J-700000D01*
G01*
X166100000Y-122490000D02*
G75*
G03*
X165400000Y-121790000I-700000J0D01*
G01*
%TO.C,JP2*%
X158480000Y-123890000D02*
X158480000Y-122490000D01*
X157780000Y-121790000D02*
X157180000Y-121790000D01*
X156480000Y-122490000D02*
X156480000Y-123890000D01*
X157180000Y-124590000D02*
X157780000Y-124590000D01*
X157780000Y-124590000D02*
G75*
G03*
X158480000Y-123890000I0J700000D01*
G01*
X156480000Y-123890000D02*
G75*
G03*
X157180000Y-124590000I700000J0D01*
G01*
X157180000Y-121790000D02*
G75*
G03*
X156480000Y-122490000I0J-700000D01*
G01*
X158480000Y-122490000D02*
G75*
G03*
X157780000Y-121790000I-700000J0D01*
G01*
%TO.C,JP3*%
X140700000Y-123890000D02*
X140700000Y-122490000D01*
X140000000Y-121790000D02*
X139400000Y-121790000D01*
X138700000Y-122490000D02*
X138700000Y-123890000D01*
X139400000Y-124590000D02*
X140000000Y-124590000D01*
X140000000Y-124590000D02*
G75*
G03*
X140700000Y-123890000I0J700000D01*
G01*
X138700000Y-123890000D02*
G75*
G03*
X139400000Y-124590000I700000J0D01*
G01*
X139400000Y-121790000D02*
G75*
G03*
X138700000Y-122490000I0J-700000D01*
G01*
X140700000Y-122490000D02*
G75*
G03*
X140000000Y-121790000I-700000J0D01*
G01*
%TO.C,JP5*%
X135620000Y-123890000D02*
X135620000Y-122490000D01*
X134920000Y-121790000D02*
X134320000Y-121790000D01*
X133620000Y-122490000D02*
X133620000Y-123890000D01*
X134320000Y-124590000D02*
X134920000Y-124590000D01*
X134920000Y-124590000D02*
G75*
G03*
X135620000Y-123890000I0J700000D01*
G01*
X133620000Y-123890000D02*
G75*
G03*
X134320000Y-124590000I700000J0D01*
G01*
X134320000Y-121790000D02*
G75*
G03*
X133620000Y-122490000I0J-700000D01*
G01*
X135620000Y-122490000D02*
G75*
G03*
X134920000Y-121790000I-700000J0D01*
G01*
%TO.C,JP4*%
X138160000Y-123890000D02*
X138160000Y-122490000D01*
X137460000Y-121790000D02*
X136860000Y-121790000D01*
X136160000Y-122490000D02*
X136160000Y-123890000D01*
X136860000Y-124590000D02*
X137460000Y-124590000D01*
X137460000Y-124590000D02*
G75*
G03*
X138160000Y-123890000I0J700000D01*
G01*
X136160000Y-123890000D02*
G75*
G03*
X136860000Y-124590000I700000J0D01*
G01*
X136860000Y-121790000D02*
G75*
G03*
X136160000Y-122490000I0J-700000D01*
G01*
X138160000Y-122490000D02*
G75*
G03*
X137460000Y-121790000I-700000J0D01*
G01*
%TO.C,JP6*%
X133080000Y-123890000D02*
X133080000Y-122490000D01*
X132380000Y-121790000D02*
X131780000Y-121790000D01*
X131080000Y-122490000D02*
X131080000Y-123890000D01*
X131780000Y-124590000D02*
X132380000Y-124590000D01*
X132380000Y-124590000D02*
G75*
G03*
X133080000Y-123890000I0J700000D01*
G01*
X131080000Y-123890000D02*
G75*
G03*
X131780000Y-124590000I700000J0D01*
G01*
X131780000Y-121790000D02*
G75*
G03*
X131080000Y-122490000I0J-700000D01*
G01*
X133080000Y-122490000D02*
G75*
G03*
X132380000Y-121790000I-700000J0D01*
G01*
%TO.C,JP7*%
X119080000Y-124590000D02*
X119680000Y-124590000D01*
X118380000Y-122490000D02*
X118380000Y-123890000D01*
X119680000Y-121790000D02*
X119080000Y-121790000D01*
X120380000Y-123890000D02*
X120380000Y-122490000D01*
X120380000Y-122490000D02*
G75*
G03*
X119680000Y-121790000I-700000J0D01*
G01*
X119080000Y-121790000D02*
G75*
G03*
X118380000Y-122490000I0J-700000D01*
G01*
X118380000Y-123890000D02*
G75*
G03*
X119080000Y-124590000I700000J0D01*
G01*
X119680000Y-124590000D02*
G75*
G03*
X120380000Y-123890000I0J700000D01*
G01*
%TO.C,JP1*%
D10*
X166385714Y-125801428D02*
X165623809Y-125801428D01*
X164671428Y-125182380D02*
X165147619Y-125182380D01*
X165195238Y-125658571D01*
X165147619Y-125610952D01*
X165052380Y-125563333D01*
X164814285Y-125563333D01*
X164719047Y-125610952D01*
X164671428Y-125658571D01*
X164623809Y-125753809D01*
X164623809Y-125991904D01*
X164671428Y-126087142D01*
X164719047Y-126134761D01*
X164814285Y-126182380D01*
X165052380Y-126182380D01*
X165147619Y-126134761D01*
X165195238Y-126087142D01*
X164338095Y-125182380D02*
X164004761Y-126182380D01*
X163671428Y-125182380D01*
%TO.C,JP2*%
X160646666Y-125896666D02*
X160170476Y-125896666D01*
X160741904Y-126182380D02*
X160408571Y-125182380D01*
X160075238Y-126182380D01*
X159741904Y-125182380D02*
X159741904Y-125991904D01*
X159694285Y-126087142D01*
X159646666Y-126134761D01*
X159551428Y-126182380D01*
X159360952Y-126182380D01*
X159265714Y-126134761D01*
X159218095Y-126087142D01*
X159170476Y-125991904D01*
X159170476Y-125182380D01*
X158694285Y-126182380D02*
X158694285Y-125182380D01*
X158456190Y-125182380D01*
X158313333Y-125230000D01*
X158218095Y-125325238D01*
X158170476Y-125420476D01*
X158122857Y-125610952D01*
X158122857Y-125753809D01*
X158170476Y-125944285D01*
X158218095Y-126039523D01*
X158313333Y-126134761D01*
X158456190Y-126182380D01*
X158694285Y-126182380D01*
X157694285Y-126182380D02*
X157694285Y-125182380D01*
X157027619Y-125182380D02*
X156837142Y-125182380D01*
X156741904Y-125230000D01*
X156646666Y-125325238D01*
X156599047Y-125515714D01*
X156599047Y-125849047D01*
X156646666Y-126039523D01*
X156741904Y-126134761D01*
X156837142Y-126182380D01*
X157027619Y-126182380D01*
X157122857Y-126134761D01*
X157218095Y-126039523D01*
X157265714Y-125849047D01*
X157265714Y-125515714D01*
X157218095Y-125325238D01*
X157122857Y-125230000D01*
X157027619Y-125182380D01*
X156408571Y-126277619D02*
X155646666Y-126277619D01*
X155408571Y-126182380D02*
X155408571Y-125182380D01*
X154932380Y-126182380D02*
X154932380Y-125182380D01*
X154360952Y-126182380D01*
X154360952Y-125182380D01*
%TO.C,JP3*%
X138785000Y-125192500D02*
X138785000Y-126192500D01*
X140152380Y-125430595D02*
X139152380Y-125430595D01*
X139152380Y-125668690D01*
X139200000Y-125811547D01*
X139295238Y-125906785D01*
X139390476Y-125954404D01*
X139580952Y-126002023D01*
X139723809Y-126002023D01*
X139914285Y-125954404D01*
X140009523Y-125906785D01*
X140104761Y-125811547D01*
X140152380Y-125668690D01*
X140152380Y-125430595D01*
X138785000Y-126192500D02*
X138785000Y-127049642D01*
X139866666Y-126382976D02*
X139866666Y-126859166D01*
X140152380Y-126287738D02*
X139152380Y-126621071D01*
X140152380Y-126954404D01*
X138785000Y-127049642D02*
X138785000Y-128049642D01*
X140057142Y-127859166D02*
X140104761Y-127811547D01*
X140152380Y-127668690D01*
X140152380Y-127573452D01*
X140104761Y-127430595D01*
X140009523Y-127335357D01*
X139914285Y-127287738D01*
X139723809Y-127240119D01*
X139580952Y-127240119D01*
X139390476Y-127287738D01*
X139295238Y-127335357D01*
X139200000Y-127430595D01*
X139152380Y-127573452D01*
X139152380Y-127668690D01*
X139200000Y-127811547D01*
X139247619Y-127859166D01*
X138785000Y-128049642D02*
X138785000Y-129049642D01*
X140152380Y-128287738D02*
X139152380Y-128287738D01*
X140152380Y-128859166D02*
X139580952Y-128430595D01*
X139152380Y-128859166D02*
X139723809Y-128287738D01*
X138785000Y-129049642D02*
X138785000Y-130002023D01*
X139152380Y-129192500D02*
X139152380Y-129811547D01*
X139533333Y-129478214D01*
X139533333Y-129621071D01*
X139580952Y-129716309D01*
X139628571Y-129763928D01*
X139723809Y-129811547D01*
X139961904Y-129811547D01*
X140057142Y-129763928D01*
X140104761Y-129716309D01*
X140152380Y-129621071D01*
X140152380Y-129335357D01*
X140104761Y-129240119D01*
X140057142Y-129192500D01*
%TO.C,JP5*%
X133705000Y-125192500D02*
X133705000Y-126192500D01*
X135072380Y-125430595D02*
X134072380Y-125430595D01*
X134072380Y-125668690D01*
X134120000Y-125811547D01*
X134215238Y-125906785D01*
X134310476Y-125954404D01*
X134500952Y-126002023D01*
X134643809Y-126002023D01*
X134834285Y-125954404D01*
X134929523Y-125906785D01*
X135024761Y-125811547D01*
X135072380Y-125668690D01*
X135072380Y-125430595D01*
X133705000Y-126192500D02*
X133705000Y-127049642D01*
X134786666Y-126382976D02*
X134786666Y-126859166D01*
X135072380Y-126287738D02*
X134072380Y-126621071D01*
X135072380Y-126954404D01*
X133705000Y-127049642D02*
X133705000Y-128049642D01*
X134977142Y-127859166D02*
X135024761Y-127811547D01*
X135072380Y-127668690D01*
X135072380Y-127573452D01*
X135024761Y-127430595D01*
X134929523Y-127335357D01*
X134834285Y-127287738D01*
X134643809Y-127240119D01*
X134500952Y-127240119D01*
X134310476Y-127287738D01*
X134215238Y-127335357D01*
X134120000Y-127430595D01*
X134072380Y-127573452D01*
X134072380Y-127668690D01*
X134120000Y-127811547D01*
X134167619Y-127859166D01*
X133705000Y-128049642D02*
X133705000Y-129049642D01*
X135072380Y-128287738D02*
X134072380Y-128287738D01*
X135072380Y-128859166D02*
X134500952Y-128430595D01*
X134072380Y-128859166D02*
X134643809Y-128287738D01*
X133705000Y-129049642D02*
X133705000Y-130002023D01*
X135072380Y-129811547D02*
X135072380Y-129240119D01*
X135072380Y-129525833D02*
X134072380Y-129525833D01*
X134215238Y-129430595D01*
X134310476Y-129335357D01*
X134358095Y-129240119D01*
%TO.C,JP4*%
X137612380Y-125430595D02*
X136612380Y-125430595D01*
X136612380Y-125668690D01*
X136660000Y-125811547D01*
X136755238Y-125906785D01*
X136850476Y-125954404D01*
X137040952Y-126002023D01*
X137183809Y-126002023D01*
X137374285Y-125954404D01*
X137469523Y-125906785D01*
X137564761Y-125811547D01*
X137612380Y-125668690D01*
X137612380Y-125430595D01*
X137612380Y-127002023D02*
X137136190Y-126668690D01*
X137612380Y-126430595D02*
X136612380Y-126430595D01*
X136612380Y-126811547D01*
X136660000Y-126906785D01*
X136707619Y-126954404D01*
X136802857Y-127002023D01*
X136945714Y-127002023D01*
X137040952Y-126954404D01*
X137088571Y-126906785D01*
X137136190Y-126811547D01*
X137136190Y-126430595D01*
X137707619Y-128097261D02*
X137660000Y-128002023D01*
X137564761Y-127906785D01*
X137421904Y-127763928D01*
X137374285Y-127668690D01*
X137374285Y-127573452D01*
X137612380Y-127621071D02*
X137564761Y-127525833D01*
X137469523Y-127430595D01*
X137279047Y-127382976D01*
X136945714Y-127382976D01*
X136755238Y-127430595D01*
X136660000Y-127525833D01*
X136612380Y-127621071D01*
X136612380Y-127811547D01*
X136660000Y-127906785D01*
X136755238Y-128002023D01*
X136945714Y-128049642D01*
X137279047Y-128049642D01*
X137469523Y-128002023D01*
X137564761Y-127906785D01*
X137612380Y-127811547D01*
X137612380Y-127621071D01*
X136612380Y-128382976D02*
X136612380Y-129002023D01*
X136993333Y-128668690D01*
X136993333Y-128811547D01*
X137040952Y-128906785D01*
X137088571Y-128954404D01*
X137183809Y-129002023D01*
X137421904Y-129002023D01*
X137517142Y-128954404D01*
X137564761Y-128906785D01*
X137612380Y-128811547D01*
X137612380Y-128525833D01*
X137564761Y-128430595D01*
X137517142Y-128382976D01*
%TO.C,JP6*%
X132532380Y-125430595D02*
X131532380Y-125430595D01*
X131532380Y-125668690D01*
X131580000Y-125811547D01*
X131675238Y-125906785D01*
X131770476Y-125954404D01*
X131960952Y-126002023D01*
X132103809Y-126002023D01*
X132294285Y-125954404D01*
X132389523Y-125906785D01*
X132484761Y-125811547D01*
X132532380Y-125668690D01*
X132532380Y-125430595D01*
X132532380Y-127002023D02*
X132056190Y-126668690D01*
X132532380Y-126430595D02*
X131532380Y-126430595D01*
X131532380Y-126811547D01*
X131580000Y-126906785D01*
X131627619Y-126954404D01*
X131722857Y-127002023D01*
X131865714Y-127002023D01*
X131960952Y-126954404D01*
X132008571Y-126906785D01*
X132056190Y-126811547D01*
X132056190Y-126430595D01*
X132627619Y-128097261D02*
X132580000Y-128002023D01*
X132484761Y-127906785D01*
X132341904Y-127763928D01*
X132294285Y-127668690D01*
X132294285Y-127573452D01*
X132532380Y-127621071D02*
X132484761Y-127525833D01*
X132389523Y-127430595D01*
X132199047Y-127382976D01*
X131865714Y-127382976D01*
X131675238Y-127430595D01*
X131580000Y-127525833D01*
X131532380Y-127621071D01*
X131532380Y-127811547D01*
X131580000Y-127906785D01*
X131675238Y-128002023D01*
X131865714Y-128049642D01*
X132199047Y-128049642D01*
X132389523Y-128002023D01*
X132484761Y-127906785D01*
X132532380Y-127811547D01*
X132532380Y-127621071D01*
X132532380Y-129002023D02*
X132532380Y-128430595D01*
X132532380Y-128716309D02*
X131532380Y-128716309D01*
X131675238Y-128621071D01*
X131770476Y-128525833D01*
X131818095Y-128430595D01*
%TO.C,JP7*%
X120880000Y-126182380D02*
X120880000Y-125182380D01*
X119832380Y-126182380D02*
X120165714Y-125706190D01*
X120403809Y-126182380D02*
X120403809Y-125182380D01*
X120022857Y-125182380D01*
X119927619Y-125230000D01*
X119880000Y-125277619D01*
X119832380Y-125372857D01*
X119832380Y-125515714D01*
X119880000Y-125610952D01*
X119927619Y-125658571D01*
X120022857Y-125706190D01*
X120403809Y-125706190D01*
X118737142Y-126277619D02*
X118832380Y-126230000D01*
X118927619Y-126134761D01*
X119070476Y-125991904D01*
X119165714Y-125944285D01*
X119260952Y-125944285D01*
X119213333Y-126182380D02*
X119308571Y-126134761D01*
X119403809Y-126039523D01*
X119451428Y-125849047D01*
X119451428Y-125515714D01*
X119403809Y-125325238D01*
X119308571Y-125230000D01*
X119213333Y-125182380D01*
X119022857Y-125182380D01*
X118927619Y-125230000D01*
X118832380Y-125325238D01*
X118784761Y-125515714D01*
X118784761Y-125849047D01*
X118832380Y-126039523D01*
X118927619Y-126134761D01*
X119022857Y-126182380D01*
X119213333Y-126182380D01*
X117880000Y-125182380D02*
X118356190Y-125182380D01*
X118403809Y-125658571D01*
X118356190Y-125610952D01*
X118260952Y-125563333D01*
X118022857Y-125563333D01*
X117927619Y-125610952D01*
X117880000Y-125658571D01*
X117832380Y-125753809D01*
X117832380Y-125991904D01*
X117880000Y-126087142D01*
X117927619Y-126134761D01*
X118022857Y-126182380D01*
X118260952Y-126182380D01*
X118356190Y-126134761D01*
X118403809Y-126087142D01*
%TD*%
M02*
