M48
; DRILL file {KiCad (5.1.9)-1} date 05/05/21 16:30:27
; FORMAT={-:-/ absolute / metric / decimal}
; #@! TF.CreationDate,2021-05-05T16:30:27+08:00
; #@! TF.GenerationSoftware,Kicad,Pcbnew,(5.1.9)-1
FMAT,2
METRIC
T1C1.000
%
G90
G05
T1
X99.06Y-115.57
X99.06Y-118.11
X101.6Y-115.57
X101.6Y-118.11
X104.14Y-115.57
X104.14Y-118.11
X106.68Y-115.57
X106.68Y-118.11
X109.22Y-115.57
X109.22Y-118.11
X111.76Y-115.57
X111.76Y-118.11
X114.3Y-115.57
X114.3Y-118.11
X116.84Y-115.57
X116.84Y-118.11
X119.38Y-115.57
X119.38Y-118.11
X121.92Y-115.57
X121.92Y-118.11
X124.46Y-115.57
X124.46Y-118.11
X127.0Y-115.57
X127.0Y-118.11
X129.54Y-115.57
X129.54Y-118.11
X132.08Y-115.57
X132.08Y-118.11
X134.62Y-115.57
X134.62Y-118.11
X137.16Y-115.57
X137.16Y-118.11
X139.7Y-115.57
X139.7Y-118.11
X142.24Y-115.57
X142.24Y-118.11
X144.78Y-115.57
X144.78Y-118.11
X147.32Y-115.57
X147.32Y-118.11
X149.86Y-115.57
X149.86Y-118.11
X152.4Y-115.57
X152.4Y-118.11
X154.94Y-115.57
X154.94Y-118.11
X157.48Y-115.57
X157.48Y-118.11
X160.02Y-115.57
X160.02Y-118.11
X162.56Y-115.57
X162.56Y-118.11
X165.1Y-115.57
X165.1Y-118.11
X167.64Y-115.57
X167.64Y-118.11
X170.18Y-115.57
X170.18Y-118.11
X172.72Y-115.57
X172.72Y-118.11
X175.26Y-115.57
X175.26Y-118.11
T0
M30
