%TF.GenerationSoftware,KiCad,Pcbnew,(5.1.9)-1*%
%TF.CreationDate,2021-05-05T16:30:24+08:00*%
%TF.ProjectId,ISAtoTandyPlus,49534174-6f54-4616-9e64-79506c75732e,rev?*%
%TF.SameCoordinates,Original*%
%TF.FileFunction,Legend,Top*%
%TF.FilePolarity,Positive*%
%FSLAX46Y46*%
G04 Gerber Fmt 4.6, Leading zero omitted, Abs format (unit mm)*
G04 Created by KiCad (PCBNEW (5.1.9)-1) date 2021-05-05 16:30:24*
%MOMM*%
%LPD*%
G01*
G04 APERTURE LIST*
%ADD10C,0.150000*%
%ADD11C,0.300000*%
%ADD12C,0.120000*%
G04 APERTURE END LIST*
D10*
X111151904Y-127611666D02*
X111628095Y-127611666D01*
X111056666Y-127897380D02*
X111390000Y-126897380D01*
X111723333Y-127897380D01*
X112199523Y-127897380D02*
X112104285Y-127849761D01*
X112056666Y-127754523D01*
X112056666Y-126897380D01*
X112723333Y-127897380D02*
X112628095Y-127849761D01*
X112580476Y-127754523D01*
X112580476Y-126897380D01*
X113247142Y-127897380D02*
X113151904Y-127849761D01*
X113104285Y-127802142D01*
X113056666Y-127706904D01*
X113056666Y-127421190D01*
X113104285Y-127325952D01*
X113151904Y-127278333D01*
X113247142Y-127230714D01*
X113390000Y-127230714D01*
X113485238Y-127278333D01*
X113532857Y-127325952D01*
X113580476Y-127421190D01*
X113580476Y-127706904D01*
X113532857Y-127802142D01*
X113485238Y-127849761D01*
X113390000Y-127897380D01*
X113247142Y-127897380D01*
X113913809Y-127230714D02*
X114104285Y-127897380D01*
X114294761Y-127421190D01*
X114485238Y-127897380D01*
X114675714Y-127230714D01*
X115009047Y-127849761D02*
X115104285Y-127897380D01*
X115294761Y-127897380D01*
X115390000Y-127849761D01*
X115437619Y-127754523D01*
X115437619Y-127706904D01*
X115390000Y-127611666D01*
X115294761Y-127564047D01*
X115151904Y-127564047D01*
X115056666Y-127516428D01*
X115009047Y-127421190D01*
X115009047Y-127373571D01*
X115056666Y-127278333D01*
X115151904Y-127230714D01*
X115294761Y-127230714D01*
X115390000Y-127278333D01*
X116485238Y-127230714D02*
X116866190Y-127230714D01*
X116628095Y-126897380D02*
X116628095Y-127754523D01*
X116675714Y-127849761D01*
X116770952Y-127897380D01*
X116866190Y-127897380D01*
X117580476Y-127849761D02*
X117485238Y-127897380D01*
X117294761Y-127897380D01*
X117199523Y-127849761D01*
X117151904Y-127754523D01*
X117151904Y-127373571D01*
X117199523Y-127278333D01*
X117294761Y-127230714D01*
X117485238Y-127230714D01*
X117580476Y-127278333D01*
X117628095Y-127373571D01*
X117628095Y-127468809D01*
X117151904Y-127564047D01*
X118009047Y-127849761D02*
X118104285Y-127897380D01*
X118294761Y-127897380D01*
X118390000Y-127849761D01*
X118437619Y-127754523D01*
X118437619Y-127706904D01*
X118390000Y-127611666D01*
X118294761Y-127564047D01*
X118151904Y-127564047D01*
X118056666Y-127516428D01*
X118009047Y-127421190D01*
X118009047Y-127373571D01*
X118056666Y-127278333D01*
X118151904Y-127230714D01*
X118294761Y-127230714D01*
X118390000Y-127278333D01*
X118723333Y-127230714D02*
X119104285Y-127230714D01*
X118866190Y-126897380D02*
X118866190Y-127754523D01*
X118913809Y-127849761D01*
X119009047Y-127897380D01*
X119104285Y-127897380D01*
X119437619Y-127897380D02*
X119437619Y-127230714D01*
X119437619Y-126897380D02*
X119390000Y-126945000D01*
X119437619Y-126992619D01*
X119485238Y-126945000D01*
X119437619Y-126897380D01*
X119437619Y-126992619D01*
X119913809Y-127230714D02*
X119913809Y-127897380D01*
X119913809Y-127325952D02*
X119961428Y-127278333D01*
X120056666Y-127230714D01*
X120199523Y-127230714D01*
X120294761Y-127278333D01*
X120342380Y-127373571D01*
X120342380Y-127897380D01*
X121247142Y-127230714D02*
X121247142Y-128040238D01*
X121199523Y-128135476D01*
X121151904Y-128183095D01*
X121056666Y-128230714D01*
X120913809Y-128230714D01*
X120818571Y-128183095D01*
X121247142Y-127849761D02*
X121151904Y-127897380D01*
X120961428Y-127897380D01*
X120866190Y-127849761D01*
X120818571Y-127802142D01*
X120770952Y-127706904D01*
X120770952Y-127421190D01*
X120818571Y-127325952D01*
X120866190Y-127278333D01*
X120961428Y-127230714D01*
X121151904Y-127230714D01*
X121247142Y-127278333D01*
X122628095Y-127897380D02*
X122532857Y-127849761D01*
X122485238Y-127802142D01*
X122437619Y-127706904D01*
X122437619Y-127421190D01*
X122485238Y-127325952D01*
X122532857Y-127278333D01*
X122628095Y-127230714D01*
X122770952Y-127230714D01*
X122866190Y-127278333D01*
X122913809Y-127325952D01*
X122961428Y-127421190D01*
X122961428Y-127706904D01*
X122913809Y-127802142D01*
X122866190Y-127849761D01*
X122770952Y-127897380D01*
X122628095Y-127897380D01*
X123247142Y-127230714D02*
X123628095Y-127230714D01*
X123390000Y-127897380D02*
X123390000Y-127040238D01*
X123437619Y-126945000D01*
X123532857Y-126897380D01*
X123628095Y-126897380D01*
X124580476Y-126897380D02*
X125151904Y-126897380D01*
X124866190Y-127897380D02*
X124866190Y-126897380D01*
X125913809Y-127897380D02*
X125913809Y-127373571D01*
X125866190Y-127278333D01*
X125770952Y-127230714D01*
X125580476Y-127230714D01*
X125485238Y-127278333D01*
X125913809Y-127849761D02*
X125818571Y-127897380D01*
X125580476Y-127897380D01*
X125485238Y-127849761D01*
X125437619Y-127754523D01*
X125437619Y-127659285D01*
X125485238Y-127564047D01*
X125580476Y-127516428D01*
X125818571Y-127516428D01*
X125913809Y-127468809D01*
X126390000Y-127230714D02*
X126390000Y-127897380D01*
X126390000Y-127325952D02*
X126437619Y-127278333D01*
X126532857Y-127230714D01*
X126675714Y-127230714D01*
X126770952Y-127278333D01*
X126818571Y-127373571D01*
X126818571Y-127897380D01*
X127723333Y-127897380D02*
X127723333Y-126897380D01*
X127723333Y-127849761D02*
X127628095Y-127897380D01*
X127437619Y-127897380D01*
X127342380Y-127849761D01*
X127294761Y-127802142D01*
X127247142Y-127706904D01*
X127247142Y-127421190D01*
X127294761Y-127325952D01*
X127342380Y-127278333D01*
X127437619Y-127230714D01*
X127628095Y-127230714D01*
X127723333Y-127278333D01*
X128104285Y-127230714D02*
X128342380Y-127897380D01*
X128580476Y-127230714D02*
X128342380Y-127897380D01*
X128247142Y-128135476D01*
X128199523Y-128183095D01*
X128104285Y-128230714D01*
X130247142Y-127897380D02*
X129675714Y-127897380D01*
X129961428Y-127897380D02*
X129961428Y-126897380D01*
X129866190Y-127040238D01*
X129770952Y-127135476D01*
X129675714Y-127183095D01*
X130866190Y-126897380D02*
X130961428Y-126897380D01*
X131056666Y-126945000D01*
X131104285Y-126992619D01*
X131151904Y-127087857D01*
X131199523Y-127278333D01*
X131199523Y-127516428D01*
X131151904Y-127706904D01*
X131104285Y-127802142D01*
X131056666Y-127849761D01*
X130961428Y-127897380D01*
X130866190Y-127897380D01*
X130770952Y-127849761D01*
X130723333Y-127802142D01*
X130675714Y-127706904D01*
X130628095Y-127516428D01*
X130628095Y-127278333D01*
X130675714Y-127087857D01*
X130723333Y-126992619D01*
X130770952Y-126945000D01*
X130866190Y-126897380D01*
X131818571Y-126897380D02*
X131913809Y-126897380D01*
X132009047Y-126945000D01*
X132056666Y-126992619D01*
X132104285Y-127087857D01*
X132151904Y-127278333D01*
X132151904Y-127516428D01*
X132104285Y-127706904D01*
X132056666Y-127802142D01*
X132009047Y-127849761D01*
X131913809Y-127897380D01*
X131818571Y-127897380D01*
X131723333Y-127849761D01*
X131675714Y-127802142D01*
X131628095Y-127706904D01*
X131580476Y-127516428D01*
X131580476Y-127278333D01*
X131628095Y-127087857D01*
X131675714Y-126992619D01*
X131723333Y-126945000D01*
X131818571Y-126897380D01*
X132770952Y-126897380D02*
X132866190Y-126897380D01*
X132961428Y-126945000D01*
X133009047Y-126992619D01*
X133056666Y-127087857D01*
X133104285Y-127278333D01*
X133104285Y-127516428D01*
X133056666Y-127706904D01*
X133009047Y-127802142D01*
X132961428Y-127849761D01*
X132866190Y-127897380D01*
X132770952Y-127897380D01*
X132675714Y-127849761D01*
X132628095Y-127802142D01*
X132580476Y-127706904D01*
X132532857Y-127516428D01*
X132532857Y-127278333D01*
X132580476Y-127087857D01*
X132628095Y-126992619D01*
X132675714Y-126945000D01*
X132770952Y-126897380D01*
X134294761Y-127373571D02*
X134628095Y-127373571D01*
X134770952Y-127897380D02*
X134294761Y-127897380D01*
X134294761Y-126897380D01*
X134770952Y-126897380D01*
X135104285Y-126897380D02*
X135770952Y-127897380D01*
X135770952Y-126897380D02*
X135104285Y-127897380D01*
X136866190Y-126849761D02*
X136009047Y-128135476D01*
X137199523Y-127897380D02*
X137199523Y-126897380D01*
X137199523Y-127373571D02*
X137770952Y-127373571D01*
X137770952Y-127897380D02*
X137770952Y-126897380D01*
X138151904Y-126897380D02*
X138818571Y-127897380D01*
X138818571Y-126897380D02*
X138151904Y-127897380D01*
X140390000Y-127849761D02*
X140294761Y-127897380D01*
X140104285Y-127897380D01*
X140009047Y-127849761D01*
X139961428Y-127802142D01*
X139913809Y-127706904D01*
X139913809Y-127421190D01*
X139961428Y-127325952D01*
X140009047Y-127278333D01*
X140104285Y-127230714D01*
X140294761Y-127230714D01*
X140390000Y-127278333D01*
X141247142Y-127897380D02*
X141247142Y-127373571D01*
X141199523Y-127278333D01*
X141104285Y-127230714D01*
X140913809Y-127230714D01*
X140818571Y-127278333D01*
X141247142Y-127849761D02*
X141151904Y-127897380D01*
X140913809Y-127897380D01*
X140818571Y-127849761D01*
X140770952Y-127754523D01*
X140770952Y-127659285D01*
X140818571Y-127564047D01*
X140913809Y-127516428D01*
X141151904Y-127516428D01*
X141247142Y-127468809D01*
X141723333Y-127897380D02*
X141723333Y-127230714D01*
X141723333Y-127421190D02*
X141770952Y-127325952D01*
X141818571Y-127278333D01*
X141913809Y-127230714D01*
X142009047Y-127230714D01*
X142770952Y-127897380D02*
X142770952Y-126897380D01*
X142770952Y-127849761D02*
X142675714Y-127897380D01*
X142485238Y-127897380D01*
X142390000Y-127849761D01*
X142342380Y-127802142D01*
X142294761Y-127706904D01*
X142294761Y-127421190D01*
X142342380Y-127325952D01*
X142390000Y-127278333D01*
X142485238Y-127230714D01*
X142675714Y-127230714D01*
X142770952Y-127278333D01*
X143199523Y-127849761D02*
X143294761Y-127897380D01*
X143485238Y-127897380D01*
X143580476Y-127849761D01*
X143628095Y-127754523D01*
X143628095Y-127706904D01*
X143580476Y-127611666D01*
X143485238Y-127564047D01*
X143342380Y-127564047D01*
X143247142Y-127516428D01*
X143199523Y-127421190D01*
X143199523Y-127373571D01*
X143247142Y-127278333D01*
X143342380Y-127230714D01*
X143485238Y-127230714D01*
X143580476Y-127278333D01*
X144818571Y-127897380D02*
X144818571Y-127230714D01*
X144818571Y-126897380D02*
X144770952Y-126945000D01*
X144818571Y-126992619D01*
X144866190Y-126945000D01*
X144818571Y-126897380D01*
X144818571Y-126992619D01*
X145294761Y-127230714D02*
X145294761Y-127897380D01*
X145294761Y-127325952D02*
X145342380Y-127278333D01*
X145437619Y-127230714D01*
X145580476Y-127230714D01*
X145675714Y-127278333D01*
X145723333Y-127373571D01*
X145723333Y-127897380D01*
X147390000Y-127897380D02*
X147390000Y-127373571D01*
X147342380Y-127278333D01*
X147247142Y-127230714D01*
X147056666Y-127230714D01*
X146961428Y-127278333D01*
X147390000Y-127849761D02*
X147294761Y-127897380D01*
X147056666Y-127897380D01*
X146961428Y-127849761D01*
X146913809Y-127754523D01*
X146913809Y-127659285D01*
X146961428Y-127564047D01*
X147056666Y-127516428D01*
X147294761Y-127516428D01*
X147390000Y-127468809D01*
X148628095Y-127897380D02*
X148628095Y-127230714D01*
X148628095Y-127421190D02*
X148675714Y-127325952D01*
X148723333Y-127278333D01*
X148818571Y-127230714D01*
X148913809Y-127230714D01*
X149628095Y-127849761D02*
X149532857Y-127897380D01*
X149342380Y-127897380D01*
X149247142Y-127849761D01*
X149199523Y-127754523D01*
X149199523Y-127373571D01*
X149247142Y-127278333D01*
X149342380Y-127230714D01*
X149532857Y-127230714D01*
X149628095Y-127278333D01*
X149675714Y-127373571D01*
X149675714Y-127468809D01*
X149199523Y-127564047D01*
X150532857Y-127230714D02*
X150532857Y-128040238D01*
X150485238Y-128135476D01*
X150437619Y-128183095D01*
X150342380Y-128230714D01*
X150199523Y-128230714D01*
X150104285Y-128183095D01*
X150532857Y-127849761D02*
X150437619Y-127897380D01*
X150247142Y-127897380D01*
X150151904Y-127849761D01*
X150104285Y-127802142D01*
X150056666Y-127706904D01*
X150056666Y-127421190D01*
X150104285Y-127325952D01*
X150151904Y-127278333D01*
X150247142Y-127230714D01*
X150437619Y-127230714D01*
X150532857Y-127278333D01*
X151437619Y-127230714D02*
X151437619Y-127897380D01*
X151009047Y-127230714D02*
X151009047Y-127754523D01*
X151056666Y-127849761D01*
X151151904Y-127897380D01*
X151294761Y-127897380D01*
X151390000Y-127849761D01*
X151437619Y-127802142D01*
X152056666Y-127897380D02*
X151961428Y-127849761D01*
X151913809Y-127754523D01*
X151913809Y-126897380D01*
X152866190Y-127897380D02*
X152866190Y-127373571D01*
X152818571Y-127278333D01*
X152723333Y-127230714D01*
X152532857Y-127230714D01*
X152437619Y-127278333D01*
X152866190Y-127849761D02*
X152770952Y-127897380D01*
X152532857Y-127897380D01*
X152437619Y-127849761D01*
X152390000Y-127754523D01*
X152390000Y-127659285D01*
X152437619Y-127564047D01*
X152532857Y-127516428D01*
X152770952Y-127516428D01*
X152866190Y-127468809D01*
X153342380Y-127897380D02*
X153342380Y-127230714D01*
X153342380Y-127421190D02*
X153390000Y-127325952D01*
X153437619Y-127278333D01*
X153532857Y-127230714D01*
X153628095Y-127230714D01*
X154723333Y-127897380D02*
X154723333Y-126897380D01*
X155151904Y-127849761D02*
X155294761Y-127897380D01*
X155532857Y-127897380D01*
X155628095Y-127849761D01*
X155675714Y-127802142D01*
X155723333Y-127706904D01*
X155723333Y-127611666D01*
X155675714Y-127516428D01*
X155628095Y-127468809D01*
X155532857Y-127421190D01*
X155342380Y-127373571D01*
X155247142Y-127325952D01*
X155199523Y-127278333D01*
X155151904Y-127183095D01*
X155151904Y-127087857D01*
X155199523Y-126992619D01*
X155247142Y-126945000D01*
X155342380Y-126897380D01*
X155580476Y-126897380D01*
X155723333Y-126945000D01*
X156104285Y-127611666D02*
X156580476Y-127611666D01*
X156009047Y-127897380D02*
X156342380Y-126897380D01*
X156675714Y-127897380D01*
X157723333Y-127849761D02*
X157818571Y-127897380D01*
X158009047Y-127897380D01*
X158104285Y-127849761D01*
X158151904Y-127754523D01*
X158151904Y-127706904D01*
X158104285Y-127611666D01*
X158009047Y-127564047D01*
X157866190Y-127564047D01*
X157770952Y-127516428D01*
X157723333Y-127421190D01*
X157723333Y-127373571D01*
X157770952Y-127278333D01*
X157866190Y-127230714D01*
X158009047Y-127230714D01*
X158104285Y-127278333D01*
X158723333Y-127897380D02*
X158628095Y-127849761D01*
X158580476Y-127754523D01*
X158580476Y-126897380D01*
X159247142Y-127897380D02*
X159151904Y-127849761D01*
X159104285Y-127802142D01*
X159056666Y-127706904D01*
X159056666Y-127421190D01*
X159104285Y-127325952D01*
X159151904Y-127278333D01*
X159247142Y-127230714D01*
X159390000Y-127230714D01*
X159485238Y-127278333D01*
X159532857Y-127325952D01*
X159580476Y-127421190D01*
X159580476Y-127706904D01*
X159532857Y-127802142D01*
X159485238Y-127849761D01*
X159390000Y-127897380D01*
X159247142Y-127897380D01*
X159866190Y-127230714D02*
X160247142Y-127230714D01*
X160009047Y-126897380D02*
X160009047Y-127754523D01*
X160056666Y-127849761D01*
X160151904Y-127897380D01*
X160247142Y-127897380D01*
X160580476Y-127802142D02*
X160628095Y-127849761D01*
X160580476Y-127897380D01*
X160532857Y-127849761D01*
X160580476Y-127802142D01*
X160580476Y-127897380D01*
X105009047Y-129547380D02*
X105009047Y-128547380D01*
X105485238Y-128880714D02*
X105485238Y-129547380D01*
X105485238Y-128975952D02*
X105532857Y-128928333D01*
X105628095Y-128880714D01*
X105770952Y-128880714D01*
X105866190Y-128928333D01*
X105913809Y-129023571D01*
X105913809Y-129547380D01*
X106247142Y-128880714D02*
X106628095Y-128880714D01*
X106390000Y-128547380D02*
X106390000Y-129404523D01*
X106437619Y-129499761D01*
X106532857Y-129547380D01*
X106628095Y-129547380D01*
X107342380Y-129499761D02*
X107247142Y-129547380D01*
X107056666Y-129547380D01*
X106961428Y-129499761D01*
X106913809Y-129404523D01*
X106913809Y-129023571D01*
X106961428Y-128928333D01*
X107056666Y-128880714D01*
X107247142Y-128880714D01*
X107342380Y-128928333D01*
X107390000Y-129023571D01*
X107390000Y-129118809D01*
X106913809Y-129214047D01*
X107818571Y-128880714D02*
X107818571Y-129547380D01*
X107818571Y-128975952D02*
X107866190Y-128928333D01*
X107961428Y-128880714D01*
X108104285Y-128880714D01*
X108199523Y-128928333D01*
X108247142Y-129023571D01*
X108247142Y-129547380D01*
X109151904Y-129547380D02*
X109151904Y-128547380D01*
X109151904Y-129499761D02*
X109056666Y-129547380D01*
X108866190Y-129547380D01*
X108770952Y-129499761D01*
X108723333Y-129452142D01*
X108675714Y-129356904D01*
X108675714Y-129071190D01*
X108723333Y-128975952D01*
X108770952Y-128928333D01*
X108866190Y-128880714D01*
X109056666Y-128880714D01*
X109151904Y-128928333D01*
X110009047Y-129499761D02*
X109913809Y-129547380D01*
X109723333Y-129547380D01*
X109628095Y-129499761D01*
X109580476Y-129404523D01*
X109580476Y-129023571D01*
X109628095Y-128928333D01*
X109723333Y-128880714D01*
X109913809Y-128880714D01*
X110009047Y-128928333D01*
X110056666Y-129023571D01*
X110056666Y-129118809D01*
X109580476Y-129214047D01*
X110913809Y-129547380D02*
X110913809Y-128547380D01*
X110913809Y-129499761D02*
X110818571Y-129547380D01*
X110628095Y-129547380D01*
X110532857Y-129499761D01*
X110485238Y-129452142D01*
X110437619Y-129356904D01*
X110437619Y-129071190D01*
X110485238Y-128975952D01*
X110532857Y-128928333D01*
X110628095Y-128880714D01*
X110818571Y-128880714D01*
X110913809Y-128928333D01*
X112009047Y-128880714D02*
X112390000Y-128880714D01*
X112151904Y-129547380D02*
X112151904Y-128690238D01*
X112199523Y-128595000D01*
X112294761Y-128547380D01*
X112390000Y-128547380D01*
X112866190Y-129547380D02*
X112770952Y-129499761D01*
X112723333Y-129452142D01*
X112675714Y-129356904D01*
X112675714Y-129071190D01*
X112723333Y-128975952D01*
X112770952Y-128928333D01*
X112866190Y-128880714D01*
X113009047Y-128880714D01*
X113104285Y-128928333D01*
X113151904Y-128975952D01*
X113199523Y-129071190D01*
X113199523Y-129356904D01*
X113151904Y-129452142D01*
X113104285Y-129499761D01*
X113009047Y-129547380D01*
X112866190Y-129547380D01*
X113628095Y-129547380D02*
X113628095Y-128880714D01*
X113628095Y-129071190D02*
X113675714Y-128975952D01*
X113723333Y-128928333D01*
X113818571Y-128880714D01*
X113913809Y-128880714D01*
X115437619Y-128880714D02*
X115437619Y-129547380D01*
X115009047Y-128880714D02*
X115009047Y-129404523D01*
X115056666Y-129499761D01*
X115151904Y-129547380D01*
X115294761Y-129547380D01*
X115390000Y-129499761D01*
X115437619Y-129452142D01*
X115866190Y-129499761D02*
X115961428Y-129547380D01*
X116151904Y-129547380D01*
X116247142Y-129499761D01*
X116294761Y-129404523D01*
X116294761Y-129356904D01*
X116247142Y-129261666D01*
X116151904Y-129214047D01*
X116009047Y-129214047D01*
X115913809Y-129166428D01*
X115866190Y-129071190D01*
X115866190Y-129023571D01*
X115913809Y-128928333D01*
X116009047Y-128880714D01*
X116151904Y-128880714D01*
X116247142Y-128928333D01*
X117104285Y-129499761D02*
X117009047Y-129547380D01*
X116818571Y-129547380D01*
X116723333Y-129499761D01*
X116675714Y-129404523D01*
X116675714Y-129023571D01*
X116723333Y-128928333D01*
X116818571Y-128880714D01*
X117009047Y-128880714D01*
X117104285Y-128928333D01*
X117151904Y-129023571D01*
X117151904Y-129118809D01*
X116675714Y-129214047D01*
X118247142Y-128880714D02*
X118437619Y-129547380D01*
X118628095Y-129071190D01*
X118818571Y-129547380D01*
X119009047Y-128880714D01*
X119390000Y-129547380D02*
X119390000Y-128880714D01*
X119390000Y-128547380D02*
X119342380Y-128595000D01*
X119390000Y-128642619D01*
X119437619Y-128595000D01*
X119390000Y-128547380D01*
X119390000Y-128642619D01*
X119723333Y-128880714D02*
X120104285Y-128880714D01*
X119866190Y-128547380D02*
X119866190Y-129404523D01*
X119913809Y-129499761D01*
X120009047Y-129547380D01*
X120104285Y-129547380D01*
X120437619Y-129547380D02*
X120437619Y-128547380D01*
X120866190Y-129547380D02*
X120866190Y-129023571D01*
X120818571Y-128928333D01*
X120723333Y-128880714D01*
X120580476Y-128880714D01*
X120485238Y-128928333D01*
X120437619Y-128975952D01*
X122532857Y-129547380D02*
X122532857Y-129023571D01*
X122485238Y-128928333D01*
X122390000Y-128880714D01*
X122199523Y-128880714D01*
X122104285Y-128928333D01*
X122532857Y-129499761D02*
X122437619Y-129547380D01*
X122199523Y-129547380D01*
X122104285Y-129499761D01*
X122056666Y-129404523D01*
X122056666Y-129309285D01*
X122104285Y-129214047D01*
X122199523Y-129166428D01*
X122437619Y-129166428D01*
X122532857Y-129118809D01*
X123009047Y-128880714D02*
X123009047Y-129547380D01*
X123009047Y-128975952D02*
X123056666Y-128928333D01*
X123151904Y-128880714D01*
X123294761Y-128880714D01*
X123390000Y-128928333D01*
X123437619Y-129023571D01*
X123437619Y-129547380D01*
X124675714Y-129547380D02*
X124675714Y-128547380D01*
X125104285Y-129499761D02*
X125247142Y-129547380D01*
X125485238Y-129547380D01*
X125580476Y-129499761D01*
X125628095Y-129452142D01*
X125675714Y-129356904D01*
X125675714Y-129261666D01*
X125628095Y-129166428D01*
X125580476Y-129118809D01*
X125485238Y-129071190D01*
X125294761Y-129023571D01*
X125199523Y-128975952D01*
X125151904Y-128928333D01*
X125104285Y-128833095D01*
X125104285Y-128737857D01*
X125151904Y-128642619D01*
X125199523Y-128595000D01*
X125294761Y-128547380D01*
X125532857Y-128547380D01*
X125675714Y-128595000D01*
X126056666Y-129261666D02*
X126532857Y-129261666D01*
X125961428Y-129547380D02*
X126294761Y-128547380D01*
X126628095Y-129547380D01*
X127723333Y-129547380D02*
X127723333Y-128880714D01*
X127723333Y-129071190D02*
X127770952Y-128975952D01*
X127818571Y-128928333D01*
X127913809Y-128880714D01*
X128009047Y-128880714D01*
X128342380Y-129547380D02*
X128342380Y-128880714D01*
X128342380Y-128547380D02*
X128294761Y-128595000D01*
X128342380Y-128642619D01*
X128390000Y-128595000D01*
X128342380Y-128547380D01*
X128342380Y-128642619D01*
X128770952Y-129499761D02*
X128866190Y-129547380D01*
X129056666Y-129547380D01*
X129151904Y-129499761D01*
X129199523Y-129404523D01*
X129199523Y-129356904D01*
X129151904Y-129261666D01*
X129056666Y-129214047D01*
X128913809Y-129214047D01*
X128818571Y-129166428D01*
X128770952Y-129071190D01*
X128770952Y-129023571D01*
X128818571Y-128928333D01*
X128913809Y-128880714D01*
X129056666Y-128880714D01*
X129151904Y-128928333D01*
X130009047Y-129499761D02*
X129913809Y-129547380D01*
X129723333Y-129547380D01*
X129628095Y-129499761D01*
X129580476Y-129404523D01*
X129580476Y-129023571D01*
X129628095Y-128928333D01*
X129723333Y-128880714D01*
X129913809Y-128880714D01*
X130009047Y-128928333D01*
X130056666Y-129023571D01*
X130056666Y-129118809D01*
X129580476Y-129214047D01*
X130485238Y-129547380D02*
X130485238Y-128880714D01*
X130485238Y-129071190D02*
X130532857Y-128975952D01*
X130580476Y-128928333D01*
X130675714Y-128880714D01*
X130770952Y-128880714D01*
X132294761Y-129499761D02*
X132199523Y-129547380D01*
X132009047Y-129547380D01*
X131913809Y-129499761D01*
X131866190Y-129452142D01*
X131818571Y-129356904D01*
X131818571Y-129071190D01*
X131866190Y-128975952D01*
X131913809Y-128928333D01*
X132009047Y-128880714D01*
X132199523Y-128880714D01*
X132294761Y-128928333D01*
X133151904Y-129547380D02*
X133151904Y-129023571D01*
X133104285Y-128928333D01*
X133009047Y-128880714D01*
X132818571Y-128880714D01*
X132723333Y-128928333D01*
X133151904Y-129499761D02*
X133056666Y-129547380D01*
X132818571Y-129547380D01*
X132723333Y-129499761D01*
X132675714Y-129404523D01*
X132675714Y-129309285D01*
X132723333Y-129214047D01*
X132818571Y-129166428D01*
X133056666Y-129166428D01*
X133151904Y-129118809D01*
X133628095Y-129547380D02*
X133628095Y-128880714D01*
X133628095Y-129071190D02*
X133675714Y-128975952D01*
X133723333Y-128928333D01*
X133818571Y-128880714D01*
X133913809Y-128880714D01*
X134675714Y-129547380D02*
X134675714Y-128547380D01*
X134675714Y-129499761D02*
X134580476Y-129547380D01*
X134390000Y-129547380D01*
X134294761Y-129499761D01*
X134247142Y-129452142D01*
X134199523Y-129356904D01*
X134199523Y-129071190D01*
X134247142Y-128975952D01*
X134294761Y-128928333D01*
X134390000Y-128880714D01*
X134580476Y-128880714D01*
X134675714Y-128928333D01*
X135151904Y-129452142D02*
X135199523Y-129499761D01*
X135151904Y-129547380D01*
X135104285Y-129499761D01*
X135151904Y-129452142D01*
X135151904Y-129547380D01*
X136390000Y-129547380D02*
X136390000Y-128547380D01*
X136961428Y-129547380D01*
X136961428Y-128547380D01*
X137580476Y-129547380D02*
X137485238Y-129499761D01*
X137437619Y-129452142D01*
X137390000Y-129356904D01*
X137390000Y-129071190D01*
X137437619Y-128975952D01*
X137485238Y-128928333D01*
X137580476Y-128880714D01*
X137723333Y-128880714D01*
X137818571Y-128928333D01*
X137866190Y-128975952D01*
X137913809Y-129071190D01*
X137913809Y-129356904D01*
X137866190Y-129452142D01*
X137818571Y-129499761D01*
X137723333Y-129547380D01*
X137580476Y-129547380D01*
X138199523Y-128880714D02*
X138580476Y-128880714D01*
X138342380Y-128547380D02*
X138342380Y-129404523D01*
X138390000Y-129499761D01*
X138485238Y-129547380D01*
X138580476Y-129547380D01*
X139675714Y-129547380D02*
X139675714Y-128880714D01*
X139675714Y-128547380D02*
X139628095Y-128595000D01*
X139675714Y-128642619D01*
X139723333Y-128595000D01*
X139675714Y-128547380D01*
X139675714Y-128642619D01*
X140151904Y-128880714D02*
X140151904Y-129547380D01*
X140151904Y-128975952D02*
X140199523Y-128928333D01*
X140294761Y-128880714D01*
X140437619Y-128880714D01*
X140532857Y-128928333D01*
X140580476Y-129023571D01*
X140580476Y-129547380D01*
X140913809Y-128880714D02*
X141294761Y-128880714D01*
X141056666Y-128547380D02*
X141056666Y-129404523D01*
X141104285Y-129499761D01*
X141199523Y-129547380D01*
X141294761Y-129547380D01*
X142009047Y-129499761D02*
X141913809Y-129547380D01*
X141723333Y-129547380D01*
X141628095Y-129499761D01*
X141580476Y-129404523D01*
X141580476Y-129023571D01*
X141628095Y-128928333D01*
X141723333Y-128880714D01*
X141913809Y-128880714D01*
X142009047Y-128928333D01*
X142056666Y-129023571D01*
X142056666Y-129118809D01*
X141580476Y-129214047D01*
X142485238Y-128880714D02*
X142485238Y-129547380D01*
X142485238Y-128975952D02*
X142532857Y-128928333D01*
X142628095Y-128880714D01*
X142770952Y-128880714D01*
X142866190Y-128928333D01*
X142913809Y-129023571D01*
X142913809Y-129547380D01*
X143818571Y-129547380D02*
X143818571Y-128547380D01*
X143818571Y-129499761D02*
X143723333Y-129547380D01*
X143532857Y-129547380D01*
X143437619Y-129499761D01*
X143390000Y-129452142D01*
X143342380Y-129356904D01*
X143342380Y-129071190D01*
X143390000Y-128975952D01*
X143437619Y-128928333D01*
X143532857Y-128880714D01*
X143723333Y-128880714D01*
X143818571Y-128928333D01*
X144675714Y-129499761D02*
X144580476Y-129547380D01*
X144390000Y-129547380D01*
X144294761Y-129499761D01*
X144247142Y-129404523D01*
X144247142Y-129023571D01*
X144294761Y-128928333D01*
X144390000Y-128880714D01*
X144580476Y-128880714D01*
X144675714Y-128928333D01*
X144723333Y-129023571D01*
X144723333Y-129118809D01*
X144247142Y-129214047D01*
X145580476Y-129547380D02*
X145580476Y-128547380D01*
X145580476Y-129499761D02*
X145485238Y-129547380D01*
X145294761Y-129547380D01*
X145199523Y-129499761D01*
X145151904Y-129452142D01*
X145104285Y-129356904D01*
X145104285Y-129071190D01*
X145151904Y-128975952D01*
X145199523Y-128928333D01*
X145294761Y-128880714D01*
X145485238Y-128880714D01*
X145580476Y-128928333D01*
X146675714Y-128880714D02*
X147056666Y-128880714D01*
X146818571Y-129547380D02*
X146818571Y-128690238D01*
X146866190Y-128595000D01*
X146961428Y-128547380D01*
X147056666Y-128547380D01*
X147532857Y-129547380D02*
X147437619Y-129499761D01*
X147390000Y-129452142D01*
X147342380Y-129356904D01*
X147342380Y-129071190D01*
X147390000Y-128975952D01*
X147437619Y-128928333D01*
X147532857Y-128880714D01*
X147675714Y-128880714D01*
X147770952Y-128928333D01*
X147818571Y-128975952D01*
X147866190Y-129071190D01*
X147866190Y-129356904D01*
X147818571Y-129452142D01*
X147770952Y-129499761D01*
X147675714Y-129547380D01*
X147532857Y-129547380D01*
X148294761Y-129547380D02*
X148294761Y-128880714D01*
X148294761Y-129071190D02*
X148342380Y-128975952D01*
X148390000Y-128928333D01*
X148485238Y-128880714D01*
X148580476Y-128880714D01*
X149675714Y-128880714D02*
X149675714Y-129880714D01*
X149675714Y-128928333D02*
X149770952Y-128880714D01*
X149961428Y-128880714D01*
X150056666Y-128928333D01*
X150104285Y-128975952D01*
X150151904Y-129071190D01*
X150151904Y-129356904D01*
X150104285Y-129452142D01*
X150056666Y-129499761D01*
X149961428Y-129547380D01*
X149770952Y-129547380D01*
X149675714Y-129499761D01*
X150961428Y-129499761D02*
X150866190Y-129547380D01*
X150675714Y-129547380D01*
X150580476Y-129499761D01*
X150532857Y-129404523D01*
X150532857Y-129023571D01*
X150580476Y-128928333D01*
X150675714Y-128880714D01*
X150866190Y-128880714D01*
X150961428Y-128928333D01*
X151009047Y-129023571D01*
X151009047Y-129118809D01*
X150532857Y-129214047D01*
X151437619Y-129547380D02*
X151437619Y-128880714D01*
X151437619Y-129071190D02*
X151485238Y-128975952D01*
X151532857Y-128928333D01*
X151628095Y-128880714D01*
X151723333Y-128880714D01*
X152056666Y-129547380D02*
X152056666Y-128880714D01*
X152056666Y-128975952D02*
X152104285Y-128928333D01*
X152199523Y-128880714D01*
X152342380Y-128880714D01*
X152437619Y-128928333D01*
X152485238Y-129023571D01*
X152485238Y-129547380D01*
X152485238Y-129023571D02*
X152532857Y-128928333D01*
X152628095Y-128880714D01*
X152770952Y-128880714D01*
X152866190Y-128928333D01*
X152913809Y-129023571D01*
X152913809Y-129547380D01*
X153818571Y-129547380D02*
X153818571Y-129023571D01*
X153770952Y-128928333D01*
X153675714Y-128880714D01*
X153485238Y-128880714D01*
X153390000Y-128928333D01*
X153818571Y-129499761D02*
X153723333Y-129547380D01*
X153485238Y-129547380D01*
X153390000Y-129499761D01*
X153342380Y-129404523D01*
X153342380Y-129309285D01*
X153390000Y-129214047D01*
X153485238Y-129166428D01*
X153723333Y-129166428D01*
X153818571Y-129118809D01*
X154294761Y-128880714D02*
X154294761Y-129547380D01*
X154294761Y-128975952D02*
X154342380Y-128928333D01*
X154437619Y-128880714D01*
X154580476Y-128880714D01*
X154675714Y-128928333D01*
X154723333Y-129023571D01*
X154723333Y-129547380D01*
X155580476Y-129499761D02*
X155485238Y-129547380D01*
X155294761Y-129547380D01*
X155199523Y-129499761D01*
X155151904Y-129404523D01*
X155151904Y-129023571D01*
X155199523Y-128928333D01*
X155294761Y-128880714D01*
X155485238Y-128880714D01*
X155580476Y-128928333D01*
X155628095Y-129023571D01*
X155628095Y-129118809D01*
X155151904Y-129214047D01*
X156056666Y-128880714D02*
X156056666Y-129547380D01*
X156056666Y-128975952D02*
X156104285Y-128928333D01*
X156199523Y-128880714D01*
X156342380Y-128880714D01*
X156437619Y-128928333D01*
X156485238Y-129023571D01*
X156485238Y-129547380D01*
X156818571Y-128880714D02*
X157199523Y-128880714D01*
X156961428Y-128547380D02*
X156961428Y-129404523D01*
X157009047Y-129499761D01*
X157104285Y-129547380D01*
X157199523Y-129547380D01*
X158294761Y-129547380D02*
X158294761Y-128880714D01*
X158294761Y-128547380D02*
X158247142Y-128595000D01*
X158294761Y-128642619D01*
X158342380Y-128595000D01*
X158294761Y-128547380D01*
X158294761Y-128642619D01*
X158770952Y-128880714D02*
X158770952Y-129547380D01*
X158770952Y-128975952D02*
X158818571Y-128928333D01*
X158913809Y-128880714D01*
X159056666Y-128880714D01*
X159151904Y-128928333D01*
X159199523Y-129023571D01*
X159199523Y-129547380D01*
X159628095Y-129499761D02*
X159723333Y-129547380D01*
X159913809Y-129547380D01*
X160009047Y-129499761D01*
X160056666Y-129404523D01*
X160056666Y-129356904D01*
X160009047Y-129261666D01*
X159913809Y-129214047D01*
X159770952Y-129214047D01*
X159675714Y-129166428D01*
X159628095Y-129071190D01*
X159628095Y-129023571D01*
X159675714Y-128928333D01*
X159770952Y-128880714D01*
X159913809Y-128880714D01*
X160009047Y-128928333D01*
X160342380Y-128880714D02*
X160723333Y-128880714D01*
X160485238Y-128547380D02*
X160485238Y-129404523D01*
X160532857Y-129499761D01*
X160628095Y-129547380D01*
X160723333Y-129547380D01*
X161485238Y-129547380D02*
X161485238Y-129023571D01*
X161437619Y-128928333D01*
X161342380Y-128880714D01*
X161151904Y-128880714D01*
X161056666Y-128928333D01*
X161485238Y-129499761D02*
X161390000Y-129547380D01*
X161151904Y-129547380D01*
X161056666Y-129499761D01*
X161009047Y-129404523D01*
X161009047Y-129309285D01*
X161056666Y-129214047D01*
X161151904Y-129166428D01*
X161390000Y-129166428D01*
X161485238Y-129118809D01*
X162104285Y-129547380D02*
X162009047Y-129499761D01*
X161961428Y-129404523D01*
X161961428Y-128547380D01*
X162628095Y-129547380D02*
X162532857Y-129499761D01*
X162485238Y-129404523D01*
X162485238Y-128547380D01*
X163437619Y-129547380D02*
X163437619Y-129023571D01*
X163390000Y-128928333D01*
X163294761Y-128880714D01*
X163104285Y-128880714D01*
X163009047Y-128928333D01*
X163437619Y-129499761D02*
X163342380Y-129547380D01*
X163104285Y-129547380D01*
X163009047Y-129499761D01*
X162961428Y-129404523D01*
X162961428Y-129309285D01*
X163009047Y-129214047D01*
X163104285Y-129166428D01*
X163342380Y-129166428D01*
X163437619Y-129118809D01*
X163770952Y-128880714D02*
X164151904Y-128880714D01*
X163913809Y-128547380D02*
X163913809Y-129404523D01*
X163961428Y-129499761D01*
X164056666Y-129547380D01*
X164151904Y-129547380D01*
X164485238Y-129547380D02*
X164485238Y-128880714D01*
X164485238Y-128547380D02*
X164437619Y-128595000D01*
X164485238Y-128642619D01*
X164532857Y-128595000D01*
X164485238Y-128547380D01*
X164485238Y-128642619D01*
X165104285Y-129547380D02*
X165009047Y-129499761D01*
X164961428Y-129452142D01*
X164913809Y-129356904D01*
X164913809Y-129071190D01*
X164961428Y-128975952D01*
X165009047Y-128928333D01*
X165104285Y-128880714D01*
X165247142Y-128880714D01*
X165342380Y-128928333D01*
X165390000Y-128975952D01*
X165437619Y-129071190D01*
X165437619Y-129356904D01*
X165390000Y-129452142D01*
X165342380Y-129499761D01*
X165247142Y-129547380D01*
X165104285Y-129547380D01*
X165866190Y-128880714D02*
X165866190Y-129547380D01*
X165866190Y-128975952D02*
X165913809Y-128928333D01*
X166009047Y-128880714D01*
X166151904Y-128880714D01*
X166247142Y-128928333D01*
X166294761Y-129023571D01*
X166294761Y-129547380D01*
X166770952Y-129452142D02*
X166818571Y-129499761D01*
X166770952Y-129547380D01*
X166723333Y-129499761D01*
X166770952Y-129452142D01*
X166770952Y-129547380D01*
D11*
X117731428Y-124094761D02*
X117731428Y-122094761D01*
X118588571Y-123999523D02*
X118874285Y-124094761D01*
X119350476Y-124094761D01*
X119540952Y-123999523D01*
X119636190Y-123904285D01*
X119731428Y-123713809D01*
X119731428Y-123523333D01*
X119636190Y-123332857D01*
X119540952Y-123237619D01*
X119350476Y-123142380D01*
X118969523Y-123047142D01*
X118779047Y-122951904D01*
X118683809Y-122856666D01*
X118588571Y-122666190D01*
X118588571Y-122475714D01*
X118683809Y-122285238D01*
X118779047Y-122190000D01*
X118969523Y-122094761D01*
X119445714Y-122094761D01*
X119731428Y-122190000D01*
X120493333Y-123523333D02*
X121445714Y-123523333D01*
X120302857Y-124094761D02*
X120969523Y-122094761D01*
X121636190Y-124094761D01*
X123540952Y-122761428D02*
X124302857Y-122761428D01*
X123826666Y-122094761D02*
X123826666Y-123809047D01*
X123921904Y-123999523D01*
X124112380Y-124094761D01*
X124302857Y-124094761D01*
X125255238Y-124094761D02*
X125064761Y-123999523D01*
X124969523Y-123904285D01*
X124874285Y-123713809D01*
X124874285Y-123142380D01*
X124969523Y-122951904D01*
X125064761Y-122856666D01*
X125255238Y-122761428D01*
X125540952Y-122761428D01*
X125731428Y-122856666D01*
X125826666Y-122951904D01*
X125921904Y-123142380D01*
X125921904Y-123713809D01*
X125826666Y-123904285D01*
X125731428Y-123999523D01*
X125540952Y-124094761D01*
X125255238Y-124094761D01*
X128017142Y-122094761D02*
X129160000Y-122094761D01*
X128588571Y-124094761D02*
X128588571Y-122094761D01*
X130683809Y-124094761D02*
X130683809Y-123047142D01*
X130588571Y-122856666D01*
X130398095Y-122761428D01*
X130017142Y-122761428D01*
X129826666Y-122856666D01*
X130683809Y-123999523D02*
X130493333Y-124094761D01*
X130017142Y-124094761D01*
X129826666Y-123999523D01*
X129731428Y-123809047D01*
X129731428Y-123618571D01*
X129826666Y-123428095D01*
X130017142Y-123332857D01*
X130493333Y-123332857D01*
X130683809Y-123237619D01*
X131636190Y-122761428D02*
X131636190Y-124094761D01*
X131636190Y-122951904D02*
X131731428Y-122856666D01*
X131921904Y-122761428D01*
X132207619Y-122761428D01*
X132398095Y-122856666D01*
X132493333Y-123047142D01*
X132493333Y-124094761D01*
X134302857Y-124094761D02*
X134302857Y-122094761D01*
X134302857Y-123999523D02*
X134112380Y-124094761D01*
X133731428Y-124094761D01*
X133540952Y-123999523D01*
X133445714Y-123904285D01*
X133350476Y-123713809D01*
X133350476Y-123142380D01*
X133445714Y-122951904D01*
X133540952Y-122856666D01*
X133731428Y-122761428D01*
X134112380Y-122761428D01*
X134302857Y-122856666D01*
X135064761Y-122761428D02*
X135540952Y-124094761D01*
X136017142Y-122761428D02*
X135540952Y-124094761D01*
X135350476Y-124570952D01*
X135255238Y-124666190D01*
X135064761Y-124761428D01*
X138302857Y-124094761D02*
X138302857Y-122094761D01*
X139064761Y-122094761D01*
X139255238Y-122190000D01*
X139350476Y-122285238D01*
X139445714Y-122475714D01*
X139445714Y-122761428D01*
X139350476Y-122951904D01*
X139255238Y-123047142D01*
X139064761Y-123142380D01*
X138302857Y-123142380D01*
X140588571Y-124094761D02*
X140398095Y-123999523D01*
X140302857Y-123809047D01*
X140302857Y-122094761D01*
X142207619Y-122761428D02*
X142207619Y-124094761D01*
X141350476Y-122761428D02*
X141350476Y-123809047D01*
X141445714Y-123999523D01*
X141636190Y-124094761D01*
X141921904Y-124094761D01*
X142112380Y-123999523D01*
X142207619Y-123904285D01*
X143064761Y-123999523D02*
X143255238Y-124094761D01*
X143636190Y-124094761D01*
X143826666Y-123999523D01*
X143921904Y-123809047D01*
X143921904Y-123713809D01*
X143826666Y-123523333D01*
X143636190Y-123428095D01*
X143350476Y-123428095D01*
X143160000Y-123332857D01*
X143064761Y-123142380D01*
X143064761Y-123047142D01*
X143160000Y-122856666D01*
X143350476Y-122761428D01*
X143636190Y-122761428D01*
X143826666Y-122856666D01*
X146207619Y-123523333D02*
X147160000Y-123523333D01*
X146017142Y-124094761D02*
X146683809Y-122094761D01*
X147350476Y-124094761D01*
X148874285Y-124094761D02*
X148874285Y-122094761D01*
X148874285Y-123999523D02*
X148683809Y-124094761D01*
X148302857Y-124094761D01*
X148112380Y-123999523D01*
X148017142Y-123904285D01*
X147921904Y-123713809D01*
X147921904Y-123142380D01*
X148017142Y-122951904D01*
X148112380Y-122856666D01*
X148302857Y-122761428D01*
X148683809Y-122761428D01*
X148874285Y-122856666D01*
X150683809Y-124094761D02*
X150683809Y-123047142D01*
X150588571Y-122856666D01*
X150398095Y-122761428D01*
X150017142Y-122761428D01*
X149826666Y-122856666D01*
X150683809Y-123999523D02*
X150493333Y-124094761D01*
X150017142Y-124094761D01*
X149826666Y-123999523D01*
X149731428Y-123809047D01*
X149731428Y-123618571D01*
X149826666Y-123428095D01*
X150017142Y-123332857D01*
X150493333Y-123332857D01*
X150683809Y-123237619D01*
X151636190Y-122761428D02*
X151636190Y-124761428D01*
X151636190Y-122856666D02*
X151826666Y-122761428D01*
X152207619Y-122761428D01*
X152398095Y-122856666D01*
X152493333Y-122951904D01*
X152588571Y-123142380D01*
X152588571Y-123713809D01*
X152493333Y-123904285D01*
X152398095Y-123999523D01*
X152207619Y-124094761D01*
X151826666Y-124094761D01*
X151636190Y-123999523D01*
X153160000Y-122761428D02*
X153921904Y-122761428D01*
X153445714Y-122094761D02*
X153445714Y-123809047D01*
X153540952Y-123999523D01*
X153731428Y-124094761D01*
X153921904Y-124094761D01*
X155350476Y-123999523D02*
X155159999Y-124094761D01*
X154779047Y-124094761D01*
X154588571Y-123999523D01*
X154493333Y-123809047D01*
X154493333Y-123047142D01*
X154588571Y-122856666D01*
X154779047Y-122761428D01*
X155159999Y-122761428D01*
X155350476Y-122856666D01*
X155445714Y-123047142D01*
X155445714Y-123237619D01*
X154493333Y-123428095D01*
X156302857Y-124094761D02*
X156302857Y-122761428D01*
X156302857Y-123142380D02*
X156398095Y-122951904D01*
X156493333Y-122856666D01*
X156683809Y-122761428D01*
X156874285Y-122761428D01*
D12*
%TO.C,J3*%
X97730000Y-119440000D02*
X97730000Y-114240000D01*
X173990000Y-119440000D02*
X97730000Y-119440000D01*
X176590000Y-114240000D02*
X97730000Y-114240000D01*
X173990000Y-119440000D02*
X173990000Y-116840000D01*
X173990000Y-116840000D02*
X176590000Y-116840000D01*
X176590000Y-116840000D02*
X176590000Y-114240000D01*
X175260000Y-119440000D02*
X176590000Y-119440000D01*
X176590000Y-119440000D02*
X176590000Y-118110000D01*
D10*
X174926666Y-120102380D02*
X174926666Y-120816666D01*
X174879047Y-120959523D01*
X174783809Y-121054761D01*
X174640952Y-121102380D01*
X174545714Y-121102380D01*
X175307619Y-120102380D02*
X175926666Y-120102380D01*
X175593333Y-120483333D01*
X175736190Y-120483333D01*
X175831428Y-120530952D01*
X175879047Y-120578571D01*
X175926666Y-120673809D01*
X175926666Y-120911904D01*
X175879047Y-121007142D01*
X175831428Y-121054761D01*
X175736190Y-121102380D01*
X175450476Y-121102380D01*
X175355238Y-121054761D01*
X175307619Y-121007142D01*
%TD*%
M02*
