%TF.GenerationSoftware,KiCad,Pcbnew,(5.1.9)-1*%
%TF.CreationDate,2021-05-05T16:30:24+08:00*%
%TF.ProjectId,ISAtoTandyPlus,49534174-6f54-4616-9e64-79506c75732e,rev?*%
%TF.SameCoordinates,Original*%
%TF.FileFunction,Copper,L1,Top*%
%TF.FilePolarity,Positive*%
%FSLAX46Y46*%
G04 Gerber Fmt 4.6, Leading zero omitted, Abs format (unit mm)*
G04 Created by KiCad (PCBNEW (5.1.9)-1) date 2021-05-05 16:30:24*
%MOMM*%
%LPD*%
G01*
G04 APERTURE LIST*
%TA.AperFunction,ComponentPad*%
%ADD10R,1.700000X1.700000*%
%TD*%
%TA.AperFunction,ComponentPad*%
%ADD11O,1.700000X1.700000*%
%TD*%
%TA.AperFunction,ConnectorPad*%
%ADD12R,1.780000X7.620000*%
%TD*%
%TA.AperFunction,Conductor*%
%ADD13C,0.340000*%
%TD*%
%TA.AperFunction,Conductor*%
%ADD14C,0.339000*%
%TD*%
G04 APERTURE END LIST*
D10*
%TO.P,J3,1*%
%TO.N,GND1*%
X175260000Y-118110000D03*
D11*
%TO.P,J3,32*%
%TO.N,~IO_CH_CK*%
X175260000Y-115570000D03*
%TO.P,J3,2*%
%TO.N,RESET*%
X172720000Y-118110000D03*
%TO.P,J3,33*%
%TO.N,D7*%
X172720000Y-115570000D03*
%TO.P,J3,3*%
%TO.N,VCC1*%
X170180000Y-118110000D03*
%TO.P,J3,34*%
%TO.N,D6*%
X170180000Y-115570000D03*
%TO.P,J3,4*%
%TO.N,IRQ2*%
X167640000Y-118110000D03*
%TO.P,J3,35*%
%TO.N,D5*%
X167640000Y-115570000D03*
%TO.P,J3,5*%
%TO.N,Net-(J3-Pad5)*%
X165100000Y-118110000D03*
%TO.P,J3,36*%
%TO.N,D4*%
X165100000Y-115570000D03*
%TO.P,J3,6*%
%TO.N,DRQ2*%
X162560000Y-118110000D03*
%TO.P,J3,37*%
%TO.N,D3*%
X162560000Y-115570000D03*
%TO.P,J3,7*%
%TO.N,-12V*%
X160020000Y-118110000D03*
%TO.P,J3,38*%
%TO.N,D2*%
X160020000Y-115570000D03*
%TO.P,J3,8*%
%TO.N,Net-(J3-Pad8)*%
X157480000Y-118110000D03*
%TO.P,J3,39*%
%TO.N,D1*%
X157480000Y-115570000D03*
%TO.P,J3,9*%
%TO.N,12V*%
X154940000Y-118110000D03*
%TO.P,J3,40*%
%TO.N,D0*%
X154940000Y-115570000D03*
%TO.P,J3,10*%
%TO.N,GND2*%
X152400000Y-118110000D03*
%TO.P,J3,41*%
%TO.N,IOCHRDY*%
X152400000Y-115570000D03*
%TO.P,J3,11*%
%TO.N,~MEMW*%
X149860000Y-118110000D03*
%TO.P,J3,42*%
%TO.N,AEN*%
X149860000Y-115570000D03*
%TO.P,J3,12*%
%TO.N,~MEMR*%
X147320000Y-118110000D03*
%TO.P,J3,43*%
%TO.N,A19*%
X147320000Y-115570000D03*
%TO.P,J3,13*%
%TO.N,~IOW*%
X144780000Y-118110000D03*
%TO.P,J3,44*%
%TO.N,A18*%
X144780000Y-115570000D03*
%TO.P,J3,14*%
%TO.N,~IOR*%
X142240000Y-118110000D03*
%TO.P,J3,45*%
%TO.N,A17*%
X142240000Y-115570000D03*
%TO.P,J3,15*%
%TO.N,Net-(J3-Pad15)*%
X139700000Y-118110000D03*
%TO.P,J3,46*%
%TO.N,A16*%
X139700000Y-115570000D03*
%TO.P,J3,16*%
%TO.N,Net-(J3-Pad16)*%
X137160000Y-118110000D03*
%TO.P,J3,47*%
%TO.N,A15*%
X137160000Y-115570000D03*
%TO.P,J3,17*%
%TO.N,Net-(J3-Pad17)*%
X134620000Y-118110000D03*
%TO.P,J3,48*%
%TO.N,A14*%
X134620000Y-115570000D03*
%TO.P,J3,18*%
%TO.N,Net-(J3-Pad18)*%
X132080000Y-118110000D03*
%TO.P,J3,49*%
%TO.N,A13*%
X132080000Y-115570000D03*
%TO.P,J3,19*%
%TO.N,~DACK0*%
X129540000Y-118110000D03*
%TO.P,J3,50*%
%TO.N,A12*%
X129540000Y-115570000D03*
%TO.P,J3,20*%
%TO.N,CLK*%
X127000000Y-118110000D03*
%TO.P,J3,51*%
%TO.N,A11*%
X127000000Y-115570000D03*
%TO.P,J3,21*%
%TO.N,IRQ7*%
X124460000Y-118110000D03*
%TO.P,J3,52*%
%TO.N,A10*%
X124460000Y-115570000D03*
%TO.P,J3,22*%
%TO.N,IRQ6*%
X121920000Y-118110000D03*
%TO.P,J3,53*%
%TO.N,A09*%
X121920000Y-115570000D03*
%TO.P,J3,23*%
%TO.N,Net-(J3-Pad23)*%
X119380000Y-118110000D03*
%TO.P,J3,54*%
%TO.N,A08*%
X119380000Y-115570000D03*
%TO.P,J3,24*%
%TO.N,IRQ4*%
X116840000Y-118110000D03*
%TO.P,J3,55*%
%TO.N,A07*%
X116840000Y-115570000D03*
%TO.P,J3,25*%
%TO.N,IRQ3*%
X114300000Y-118110000D03*
%TO.P,J3,56*%
%TO.N,A06*%
X114300000Y-115570000D03*
%TO.P,J3,26*%
%TO.N,~DACK2*%
X111760000Y-118110000D03*
%TO.P,J3,57*%
%TO.N,A05*%
X111760000Y-115570000D03*
%TO.P,J3,27*%
%TO.N,TC*%
X109220000Y-118110000D03*
%TO.P,J3,58*%
%TO.N,A04*%
X109220000Y-115570000D03*
%TO.P,J3,28*%
%TO.N,ALE*%
X106680000Y-118110000D03*
%TO.P,J3,59*%
%TO.N,A03*%
X106680000Y-115570000D03*
%TO.P,J3,29*%
%TO.N,VCC2*%
X104140000Y-118110000D03*
%TO.P,J3,60*%
%TO.N,A02*%
X104140000Y-115570000D03*
%TO.P,J3,30*%
%TO.N,OSC*%
X101600000Y-118110000D03*
%TO.P,J3,61*%
%TO.N,A01*%
X101600000Y-115570000D03*
%TO.P,J3,31*%
%TO.N,GND3*%
X99060000Y-118110000D03*
%TO.P,J3,62*%
%TO.N,A00*%
X99060000Y-115570000D03*
%TD*%
D12*
%TO.P,J1,62*%
%TO.N,A00*%
X99060000Y-138430000D03*
%TO.P,J1,61*%
%TO.N,A01*%
X101600000Y-138430000D03*
%TO.P,J1,60*%
%TO.N,A02*%
X104140000Y-138430000D03*
%TO.P,J1,59*%
%TO.N,A03*%
X106680000Y-138430000D03*
%TO.P,J1,58*%
%TO.N,A04*%
X109220000Y-138430000D03*
%TO.P,J1,57*%
%TO.N,A05*%
X111760000Y-138430000D03*
%TO.P,J1,56*%
%TO.N,A06*%
X114300000Y-138430000D03*
%TO.P,J1,55*%
%TO.N,A07*%
X116840000Y-138430000D03*
%TO.P,J1,54*%
%TO.N,A08*%
X119380000Y-138430000D03*
%TO.P,J1,53*%
%TO.N,A09*%
X121920000Y-138430000D03*
%TO.P,J1,52*%
%TO.N,A10*%
X124460000Y-138430000D03*
%TO.P,J1,51*%
%TO.N,A11*%
X127000000Y-138430000D03*
%TO.P,J1,50*%
%TO.N,A12*%
X129540000Y-138430000D03*
%TO.P,J1,49*%
%TO.N,A13*%
X132080000Y-138430000D03*
%TO.P,J1,48*%
%TO.N,A14*%
X134620000Y-138430000D03*
%TO.P,J1,47*%
%TO.N,A15*%
X137160000Y-138430000D03*
%TO.P,J1,46*%
%TO.N,A16*%
X139700000Y-138430000D03*
%TO.P,J1,45*%
%TO.N,A17*%
X142240000Y-138430000D03*
%TO.P,J1,44*%
%TO.N,A18*%
X144780000Y-138430000D03*
%TO.P,J1,43*%
%TO.N,A19*%
X147320000Y-138430000D03*
%TO.P,J1,42*%
%TO.N,AEN*%
X149860000Y-138430000D03*
%TO.P,J1,41*%
%TO.N,IOCHRDY*%
X152400000Y-138430000D03*
%TO.P,J1,40*%
%TO.N,D0*%
X154940000Y-138430000D03*
%TO.P,J1,39*%
%TO.N,D1*%
X157480000Y-138430000D03*
%TO.P,J1,38*%
%TO.N,D2*%
X160020000Y-138430000D03*
%TO.P,J1,37*%
%TO.N,D3*%
X162560000Y-138430000D03*
%TO.P,J1,36*%
%TO.N,D4*%
X165100000Y-138430000D03*
%TO.P,J1,35*%
%TO.N,D5*%
X167640000Y-138430000D03*
%TO.P,J1,34*%
%TO.N,D6*%
X170180000Y-138430000D03*
%TO.P,J1,33*%
%TO.N,D7*%
X172720000Y-138430000D03*
%TO.P,J1,32*%
%TO.N,~IO_CH_CK*%
X175260000Y-138430000D03*
%TD*%
D13*
%TO.N,A00*%
X99060000Y-115570000D02*
X100330000Y-116840000D01*
X100330000Y-116840000D02*
X100330000Y-132862500D01*
X100330000Y-132862500D02*
X99060000Y-134132500D01*
X99060000Y-134132500D02*
X99060000Y-138430000D01*
%TO.N,A01*%
X101600000Y-138430000D02*
X101600000Y-133985000D01*
X101600000Y-133985000D02*
X102870000Y-132715000D01*
X102870000Y-132715000D02*
X102870000Y-116840000D01*
X102870000Y-116840000D02*
X101600000Y-115570000D01*
%TO.N,A02*%
X104140000Y-115570000D02*
X105410000Y-116840000D01*
X105410000Y-116840000D02*
X105410000Y-132715000D01*
X105410000Y-132715000D02*
X104140000Y-133985000D01*
X104140000Y-133985000D02*
X104140000Y-138430000D01*
%TO.N,A03*%
X106680000Y-133985000D02*
X106680000Y-138430000D01*
X107950000Y-132715000D02*
X106680000Y-133985000D01*
X107950000Y-116840000D02*
X107950000Y-132715000D01*
X106680000Y-115570000D02*
X107950000Y-116840000D01*
%TO.N,A04*%
X109220000Y-133985000D02*
X109220000Y-138430000D01*
X110490000Y-132715000D02*
X109220000Y-133985000D01*
X110490000Y-116840000D02*
X110490000Y-132715000D01*
X109220000Y-115570000D02*
X110490000Y-116840000D01*
%TO.N,A05*%
X111760000Y-133985000D02*
X111760000Y-138430000D01*
X113030000Y-132715000D02*
X111760000Y-133985000D01*
X113030000Y-116840000D02*
X113030000Y-132715000D01*
X111760000Y-115570000D02*
X113030000Y-116840000D01*
%TO.N,A06*%
X114300000Y-134132500D02*
X114300000Y-138430000D01*
X115570000Y-132862500D02*
X114300000Y-134132500D01*
X115570000Y-116840000D02*
X115570000Y-132862500D01*
X114300000Y-115570000D02*
X115570000Y-116840000D01*
%TO.N,A07*%
X116840000Y-133985000D02*
X116840000Y-138430000D01*
X118110000Y-132715000D02*
X116840000Y-133985000D01*
X118110000Y-116840000D02*
X118110000Y-132715000D01*
X116840000Y-115570000D02*
X118110000Y-116840000D01*
%TO.N,A08*%
X119380000Y-133985000D02*
X119380000Y-138430000D01*
X120650000Y-132715000D02*
X119380000Y-133985000D01*
X120650000Y-116840000D02*
X120650000Y-132715000D01*
X119380000Y-115570000D02*
X120650000Y-116840000D01*
%TO.N,A09*%
X121920000Y-134132500D02*
X121920000Y-138430000D01*
X123190000Y-116840000D02*
X123190000Y-132862500D01*
X123190000Y-132862500D02*
X121920000Y-134132500D01*
X121920000Y-115570000D02*
X123190000Y-116840000D01*
%TO.N,A10*%
X124460000Y-133985000D02*
X124460000Y-138430000D01*
X125730000Y-132715000D02*
X124460000Y-133985000D01*
X125730000Y-116840000D02*
X125730000Y-132715000D01*
X124460000Y-115570000D02*
X125730000Y-116840000D01*
%TO.N,A11*%
X127000000Y-133985000D02*
X127000000Y-138430000D01*
X128270000Y-116840000D02*
X128270000Y-132715000D01*
X128270000Y-132715000D02*
X127000000Y-133985000D01*
X127000000Y-115570000D02*
X128270000Y-116840000D01*
%TO.N,A12*%
X129540000Y-133985000D02*
X129540000Y-138430000D01*
X130810000Y-132715000D02*
X129540000Y-133985000D01*
X130810000Y-116840000D02*
X130810000Y-132715000D01*
X129540000Y-115570000D02*
X130810000Y-116840000D01*
%TO.N,A13*%
X132080000Y-133985000D02*
X132080000Y-138430000D01*
X133350000Y-132715000D02*
X132080000Y-133985000D01*
X133350000Y-116840000D02*
X133350000Y-132715000D01*
X132080000Y-115570000D02*
X133350000Y-116840000D01*
%TO.N,A14*%
X134620000Y-133985000D02*
X134620000Y-138430000D01*
X135890000Y-132715000D02*
X134620000Y-133985000D01*
X135890000Y-116840000D02*
X135890000Y-132715000D01*
X134620000Y-115570000D02*
X135890000Y-116840000D01*
%TO.N,A15*%
X137160000Y-133985000D02*
X137160000Y-138430000D01*
X138430000Y-132715000D02*
X137160000Y-133985000D01*
X138430000Y-116840000D02*
X138430000Y-132715000D01*
X137160000Y-115570000D02*
X138430000Y-116840000D01*
%TO.N,A16*%
X140970000Y-132715000D02*
X139700000Y-133985000D01*
X139700000Y-133985000D02*
X139700000Y-138430000D01*
X140970000Y-116840000D02*
X140970000Y-132715000D01*
X139700000Y-115570000D02*
X140970000Y-116840000D01*
%TO.N,A17*%
X142240000Y-133985000D02*
X142240000Y-138430000D01*
X143510000Y-116840000D02*
X143510000Y-132715000D01*
X143510000Y-132715000D02*
X142240000Y-133985000D01*
X142240000Y-115570000D02*
X143510000Y-116840000D01*
%TO.N,A18*%
X146050000Y-132715000D02*
X144780000Y-133985000D01*
X144780000Y-133985000D02*
X144780000Y-138430000D01*
X146050000Y-116840000D02*
X146050000Y-132715000D01*
X144780000Y-115570000D02*
X146050000Y-116840000D01*
%TO.N,A19*%
X147320000Y-133985000D02*
X147320000Y-138430000D01*
X148590000Y-132715000D02*
X147320000Y-133985000D01*
X148590000Y-116840000D02*
X148590000Y-132715000D01*
X147320000Y-115570000D02*
X148590000Y-116840000D01*
%TO.N,AEN*%
X149860000Y-133985000D02*
X149860000Y-138430000D01*
X151130000Y-132715000D02*
X149860000Y-133985000D01*
X151130000Y-116840000D02*
X151130000Y-132715000D01*
X149860000Y-115570000D02*
X151130000Y-116840000D01*
%TO.N,IOCHRDY*%
X152400000Y-133985000D02*
X152400000Y-138430000D01*
X153670000Y-132715000D02*
X152400000Y-133985000D01*
X153670000Y-116840000D02*
X153670000Y-132715000D01*
X152400000Y-115570000D02*
X153670000Y-116840000D01*
%TO.N,D0*%
X154940000Y-133985000D02*
X154940000Y-138430000D01*
X156210000Y-132715000D02*
X154940000Y-133985000D01*
X156210000Y-116840000D02*
X156210000Y-132715000D01*
X154940000Y-115570000D02*
X156210000Y-116840000D01*
%TO.N,D1*%
X157480000Y-133985000D02*
X157480000Y-138430000D01*
X158750000Y-132715000D02*
X157480000Y-133985000D01*
X158750000Y-116840000D02*
X158750000Y-132715000D01*
X157480000Y-115570000D02*
X158750000Y-116840000D01*
%TO.N,D2*%
X161290000Y-132715000D02*
X160020000Y-133985000D01*
X160020000Y-133985000D02*
X160020000Y-138430000D01*
X161290000Y-116840000D02*
X161290000Y-132715000D01*
X160020000Y-115570000D02*
X161290000Y-116840000D01*
%TO.N,D3*%
X162560000Y-133985000D02*
X162560000Y-138430000D01*
X163830000Y-132715000D02*
X162560000Y-133985000D01*
X163830000Y-116840000D02*
X163830000Y-132715000D01*
X162560000Y-115570000D02*
X163830000Y-116840000D01*
%TO.N,D4*%
X165100000Y-133985000D02*
X165100000Y-138430000D01*
X166370000Y-132715000D02*
X165100000Y-133985000D01*
X166370000Y-116840000D02*
X166370000Y-132715000D01*
X165100000Y-115570000D02*
X166370000Y-116840000D01*
%TO.N,D5*%
X167640000Y-133985000D02*
X167640000Y-138430000D01*
X168910000Y-132715000D02*
X167640000Y-133985000D01*
X168910000Y-116840000D02*
X168910000Y-132715000D01*
X167640000Y-115570000D02*
X168910000Y-116840000D01*
%TO.N,D6*%
X170180000Y-134058750D02*
X170180000Y-138430000D01*
X171450000Y-132788750D02*
X170180000Y-134058750D01*
X171450000Y-116840000D02*
X171450000Y-132788750D01*
X170180000Y-115570000D02*
X171450000Y-116840000D01*
%TO.N,D7*%
X172720000Y-115570000D02*
X173989999Y-116839999D01*
D14*
X173989999Y-116839999D02*
X173989999Y-132714999D01*
D13*
X172720000Y-133984999D02*
X172720000Y-138430000D01*
X173989999Y-132715000D02*
X172720000Y-133984999D01*
X173989999Y-132714999D02*
X173989999Y-132715000D01*
%TO.N,~IO_CH_CK*%
X175260000Y-133985000D02*
X175260000Y-138430000D01*
X176530001Y-132714999D02*
X175260000Y-133985000D01*
X176530001Y-116840001D02*
X176530001Y-132714999D01*
X175260000Y-115570000D02*
X176530001Y-116840001D01*
%TD*%
M02*
